<svg xmlns="http://www.w3.org/2000/svg" xmlns:xlink="http://www.w3.org/1999/xlink" width="84" height="84" viewBox="0 0 84 84">
  <defs>
    <clipPath id="clip-path">
      <rect id="Rectángulo_459890" data-name="Rectángulo 459890" width="50.597" height="50.589" fill="none"/>
    </clipPath>
  </defs>
  <g id="Grupo_1187620" data-name="Grupo 1187620" transform="translate(-310.84 -5052)">
    <rect id="Rectángulo_458715" data-name="Rectángulo 458715" width="84" height="84" rx="10" transform="translate(310.84 5052)" fill="#f2a4ab"/>
    <g id="Grupo_1187619" data-name="Grupo 1187619" transform="translate(327.84 5069)">
      <g id="Grupo_1187618" data-name="Grupo 1187618" clip-path="url(#clip-path)">
        <path id="Trazado_1031456" data-name="Trazado 1031456" d="M23.808,2.529c-.166.188-.379.306-.466.547l25.794.013a.9.9,0,0,1,.92.958L50.047,6.18a.863.863,0,0,1-.9.821l-14.691.018a.812.812,0,0,0-.811.972c.046.5-.267.881-.386,1.336-.076.293,0,.626-.285.8-.87.512-1.882.046-2.124.492a3.48,3.48,0,0,0-.062,2.3c.154.567,1.719-.086,1.842.858l-1.795-.052c-1.223-.036-.5-1.771-.906-3.051-.171-.535-2.04.02-2.318-.751-.557-1.543-.446-2.887-1.222-2.888L9.195,7.014,7.17,9.115a3.467,3.467,0,0,0-.192,1.175L7,14.169a3.793,3.793,0,0,0,.21,1.357L9.245,17.59c.1.1.444.144.439.4l-.056,2.826c-.361.559-1.273.984-1.592,1.667a3.348,3.348,0,0,0,.017,2.758c.176.471.022.78.094,1.228l.175,1.073a4.35,4.35,0,0,1-.034,2.43c.365.075.395-.122.569-.1l1.257,19.849a.83.83,0,0,1-.848.869H.851A.835.835,0,0,1,0,49.714L1.68,23.174.021,21.451l0-4.144,2.507-2.585.007-5.04L0,7.113.1,3,2.953,0,7.138.011,9.7,2.527Z" transform="translate(0)" fill="#040504"/>
        <path id="Trazado_1031457" data-name="Trazado 1031457" d="M17.682,177.253a4.447,4.447,0,0,0-.088,1.215q-.027-.382.159-.429l1.269,20.38-6.637,0,.18-2.763.257-.217c1.161.264,3.082.48,3.311-1.066l-1.2-20.218.27-.19,2.29,0Z" transform="translate(-10.644 -149.515)" fill="#b9b8b8"/>
        <path id="Trazado_1031458" data-name="Trazado 1031458" d="M49.078,198.132c-.066.063-.013.244-.159.429-.119-.567-.136-1.217.088-1.215a1.65,1.65,0,0,0,.072.786" transform="translate(-41.969 -169.608)" fill="#c5c6c6"/>
        <path id="Trazado_1031459" data-name="Trazado 1031459" d="M16.818,120.646l-2.823.011-1.977-1.978V115.9L14,113.915l2.784,0,1.977,1.978,0,2.783Z" transform="translate(-10.329 -97.904)" fill="#3687bd"/>
        <path id="Trazado_1031460" data-name="Trazado 1031460" d="M19.982,120.02a2.524,2.524,0,1,1-1.866,3.13,2.5,2.5,0,0,1,1.866-3.13" transform="translate(-15.491 -103.092)" fill="#040505"/>
        <path id="Trazado_1031461" data-name="Trazado 1031461" d="M30.653,132.011a.836.836,0,0,1,.523,1.586.84.84,0,0,1-1.073-.5.827.827,0,0,1,.549-1.088" transform="translate(-25.831 -113.428)" fill="#626262"/>
        <path id="Trazado_1031462" data-name="Trazado 1031462" d="M16.306,173.979l1.222,19.929a1.8,1.8,0,0,1-.538,1.546c-.632.588-2.253.558-3.322.216L15,173.988Z" transform="translate(-11.746 -149.525)" fill="#d3d2d1"/>
        <path id="Trazado_1031463" data-name="Trazado 1031463" d="M23.961,175.6a1.436,1.436,0,0,1-.058-.642l.083-.075a.73.73,0,0,1-.024.717" transform="translate(-20.536 -150.303)" fill="#dadad9"/>
        <path id="Trazado_1031464" data-name="Trazado 1031464" d="M110.906,31.595H72.176l0-1.686h38.737Z" transform="translate(-62.028 -25.704)" fill="#d2d1d0"/>
        <path id="Trazado_1031465" data-name="Trazado 1031465" d="M31.664,76.154l-1.693.014,0-4.186,1.688-.008Z" transform="translate(-25.756 -61.858)" fill="#d1d1d0"/>
        <path id="Trazado_1031466" data-name="Trazado 1031466" d="M204,55.565l-3.751.031-.425-1.681,4.546-.007Z" transform="translate(-171.736 -46.331)" fill="#505050"/>
        <path id="Trazado_1031467" data-name="Trazado 1031467" d="M16.82,18.646,14,18.656l-1.977-1.978V13.9L14,11.915l2.785,0,1.976,1.978v2.784Z" transform="translate(-10.329 -10.24)" fill="#3687bd"/>
        <path id="Trazado_1031468" data-name="Trazado 1031468" d="M19.982,18.02a2.524,2.524,0,1,1-1.866,3.13,2.5,2.5,0,0,1,1.866-3.13" transform="translate(-15.491 -15.429)" fill="#040505"/>
        <path id="Trazado_1031469" data-name="Trazado 1031469" d="M30.653,30.011a.836.836,0,0,1,.523,1.586.84.84,0,0,1-1.073-.5.827.827,0,0,1,.549-1.088" transform="translate(-25.831 -25.765)" fill="#626262"/>
        <path id="Trazado_1031470" data-name="Trazado 1031470" d="M49.51,43.871q-.153,1.074-.075.4l.169.018.016,1.029c-.416.97-1,.07-.664-.759q-.258-2.778-.724-5.531a4,4,0,0,1,1.881-2.854l.067-2.718a13.623,13.623,0,0,1-2.528-2.53,21.918,21.918,0,0,1,.041-6.5l2.141-2.2q8.732-.094,17.478-.019l.387.2a13.807,13.807,0,0,1,.965,2.913l.389.173q2.139-.212,2.054,1.44-.01-1.656,2-1.426a1.344,1.344,0,0,0,.526-.206,8.957,8.957,0,0,0,.511-2.209c.206-.693.424-.783,1.095-.907l14.657-.017c.908.1.738-2.2.641-2.762a.6.6,0,0,0-.487-.577L64.28,18.8c-.717-.3-.332-.731.292-.828l25.921,0a.811.811,0,0,1,.861.839l0,3.366a.839.839,0,0,1-.858.85l-15.325,0-.7,2.781a.826.826,0,0,1-.82.584l-1.682.014.057,1.729a2.731,2.731,0,0,1,2.857,1.026,2.569,2.569,0,0,1,.007,2.889,2.96,2.96,0,0,1-2.677,1.133l15.928,5.826,2.369.038a.8.8,0,0,1,.85.867V61.792a.842.842,0,0,1-.877.876H53.447a.846.846,0,0,1-.876-.875V39.917a.8.8,0,0,1,.848-.862l2.375-.036L71.707,33.2l-2.265-.069,0-1.673,3.225.013a.859.859,0,1,0,0-1.7l-1.542,0a.823.823,0,0,1-.843-.845l-.006-2.512L68.6,26.4a.87.87,0,0,1-.864-.694l-.662-2.674-16.611,0-2.108,2.119v5.042l2.483,2.584v4.089a16.636,16.636,0,0,1-1.63,1.677Z" transform="translate(-40.763 -15.447)" fill="#040504"/>
        <path id="Trazado_1031471" data-name="Trazado 1031471" d="M210.454,118.431l-1.117-.008a.272.272,0,0,1-.278-.329.373.373,0,0,1,.4-.23l2.864.094a2.331,2.331,0,0,1-1.873.473" transform="translate(-179.669 -101.297)" fill="#040504"/>
        <path id="Trazado_1031472" data-name="Trazado 1031472" d="M237.357,105.118c-.226-.1-.232-.864-.024-1,.235-.154.509.282.554.463s-.209.649-.529.538" transform="translate(-203.845 -89.456)" fill="#040504"/>
        <path id="Trazado_1031473" data-name="Trazado 1031473" d="M96.026,198.415l4.2.071c.121-.448,1.551-.428,1.711,0h3.349c.121-.448,1.551-.428,1.711,0h3.349c.121-.448,1.551-.428,1.711,0H115.4c.121-.448,1.551-.428,1.711,0h3.349c.122-.448,1.551-.428,1.711,0l3.349,0c.121-.448,1.55-.433,1.712,0l.82.006a1.694,1.694,0,0,0,1.7-1.837l.027-16.711,1.657.017,0,20.222-35.391,0Z" transform="translate(-82.529 -154.646)" fill="#9e6643"/>
        <path id="Trazado_1031474" data-name="Trazado 1031474" d="M164.911,142.446H142.562l11.168-4.154Z" transform="translate(-122.524 -118.855)" fill="#f4f4f4"/>
        <path id="Trazado_1031475" data-name="Trazado 1031475" d="M129.752,179.888l.281.1L129.976,197a1.917,1.917,0,0,1-1.647,1.7c-.306.065-1.083.112-1.124-.268l-.281-.1q.025-8.239-.053-16.462a2.423,2.423,0,0,0-1.085.095l-.012,16.3-.281.17c-.03.109-.075.27-.162.281a15.2,15.2,0,0,1-2.087,0q-.83.154-1.1-.28l-.281-.1-.052-16.469a2.423,2.423,0,0,0-1.085.095l-.012,16.3-.281.17-.163.281h-2.982l-.2-.281-.281-.1-.052-16.469a2.423,2.423,0,0,0-1.085.095l-.012,16.3-.281.17c-.03.109-.075.27-.163.281a15.232,15.232,0,0,1-2.087,0q-.83.153-1.1-.281l-.281-.1-.052-16.469a2.423,2.423,0,0,0-1.085.095l-.012,16.3-.281.17c-.03.109-.075.27-.163.281a14.808,14.808,0,0,1-2.007,0q-.875.156-1.179-.281l-.281-.1-.052-16.469a2.423,2.423,0,0,0-1.085.095l-.012,16.3-.281.17c-.03.109-.075.27-.163.281a15.232,15.232,0,0,1-2.087,0q-.83.153-1.1-.281l-.283-.15-.054-1.25-1.079.042-.012,1.171-.283.187c-.015.11-.053.273-.133.279a29.821,29.821,0,0,1-3.906-.066l-.161-.284-.005-18.486Z" transform="translate(-82.496 -154.597)" fill="#b27749"/>
        <path id="Trazado_1031476" data-name="Trazado 1031476" d="M163.611,208.893H161.9l.013-16.847H163.6Z" transform="translate(-139.144 -165.053)" fill="#040505"/>
        <path id="Trazado_1031477" data-name="Trazado 1031477" d="M199.611,208.893H197.9l.013-16.847H199.6Z" transform="translate(-170.084 -165.053)" fill="#040505"/>
        <path id="Trazado_1031478" data-name="Trazado 1031478" d="M235.611,208.893H233.9l.013-16.847H235.6Z" transform="translate(-201.024 -165.053)" fill="#040505"/>
        <path id="Trazado_1031479" data-name="Trazado 1031479" d="M271.611,208.893H269.9l.013-16.847H271.6Z" transform="translate(-231.964 -165.053)" fill="#040505"/>
        <path id="Trazado_1031480" data-name="Trazado 1031480" d="M307.613,208.886l-1.712,0,.012-16.844H307.6Z" transform="translate(-262.905 -165.053)" fill="#040505"/>
        <path id="Trazado_1031481" data-name="Trazado 1031481" d="M127.674,205.459l-1.69.028v-13.46h1.687Z" transform="translate(-108.277 -165.036)" fill="#040504"/>
        <path id="Trazado_1031482" data-name="Trazado 1031482" d="M127.611,301.63H125.9l.017-1.68h1.676Z" transform="translate(-108.204 -257.79)" fill="#050605"/>
        <path id="Trazado_1031483" data-name="Trazado 1031483" d="M61.111,202.642c-.088.065-.112.164-.183.4-.161-.264-.154-.692.089-.816Z" transform="translate(-52.27 -173.801)" fill="#040504"/>
        <path id="Trazado_1031484" data-name="Trazado 1031484" d="M58.983,174.883a3.033,3.033,0,0,1-.045-.925.158.158,0,0,1,.086-.074c.085.375.111.871-.041,1" transform="translate(-50.643 -149.444)" fill="#040504"/>
      </g>
    </g>
  </g>
</svg>
