<svg xmlns="http://www.w3.org/2000/svg" xmlns:xlink="http://www.w3.org/1999/xlink" width="292" height="270.529" viewBox="0 0 292 270.529">
  <defs>
    <clipPath id="clip-path">
      <rect id="Rectángulo_459853" data-name="Rectángulo 459853" width="261.73" height="210.781" fill="none"/>
    </clipPath>
  </defs>
  <g id="Grupo_1187603" data-name="Grupo 1187603" transform="translate(-185.84 -5470)">
    <rect id="Rectángulo_458716" data-name="Rectángulo 458716" width="292" height="270.529" transform="translate(185.84 5470)" fill="#f2a4ab"/>
    <g id="Grupo_1187602" data-name="Grupo 1187602" transform="translate(200.84 5500)">
      <g id="Grupo_1187601" data-name="Grupo 1187601" transform="translate(0 0)" clip-path="url(#clip-path)">
        <path id="Trazado_1030843" data-name="Trazado 1030843" d="M138.707,109.275c-5.548,13.787-18.276,21.653-28.43,17.566s-13.888-18.575-8.34-32.361,18.277-21.653,28.43-17.568,13.888,18.575,8.34,32.363" transform="translate(80.159 61.174)" fill="#d7e4f2"/>
        <path id="Trazado_1030844" data-name="Trazado 1030844" d="M12.042,107.75C-12.965,90.716,8.734,61.815,8.734,61.815c-14.7-34.629,20.5-60.159,49.744-42.571,15.283-21.1,30.04-2.593,30.04-2.593,28.118-30.687,49.995-2.229,49.995-2.229,8.945-9.1,15.722,0,15.722,0C174.615,1.556,198.556,8.465,197.547,31.2c23.684,1.073,24.978,31.61,17.061,47.5l-10.443,80.64c-1.763,27.5-16.1,45.552-41.106,31.912-27.993,21.113-44.475-1.836-44.475-1.836-33.294,17.265-50.746,0-50.746,0-16.934,27.984-51.162,13.366-47.509-7.259-24.361-9.42-4.873-36.389-4.873-36.389-23.062-8.273-16.891-34.745-3.415-38.013" transform="translate(0 1.944)" fill="#d7e4f2"/>
        <path id="Trazado_1030845" data-name="Trazado 1030845" d="M86.2,114.772a29.214,29.214,0,0,1-7.454-.972,31.1,31.1,0,0,1-10.983-5.332.25.25,0,1,1,.322-.383,30.524,30.524,0,0,0,10.809,5.238c6.042,1.588,15.375,1.966,25.532-5.25a.249.249,0,1,1,.289.407A31.553,31.553,0,0,1,86.2,114.772" transform="translate(54.593 87.144)" fill="#89b9e6"/>
        <path id="Trazado_1030846" data-name="Trazado 1030846" d="M85.823,117.592a29.061,29.061,0,0,1-5.9-.605A31.147,31.147,0,0,1,67.767,111.6a.25.25,0,0,1,.314-.388A30.633,30.633,0,0,0,80.049,116.5c6.643,1.366,16.831,1.017,27.657-8.416a.25.25,0,0,1,.3-.023c.134.083,13.494,8.313,25.355,2.291a.25.25,0,0,1,.226.446,21.382,21.382,0,0,1-9.774,2.253,34.042,34.042,0,0,1-15.912-4.472c-8.1,7.008-15.861,9.008-22.074,9.008" transform="translate(54.593 87.145)" fill="#89b9e6"/>
        <path id="Trazado_1030847" data-name="Trazado 1030847" d="M47.163,13.815a.262.262,0,0,1-.121-.031C30.926,4.861,14.09,11.916,13.92,11.99a.25.25,0,0,1-.2-.459A40.915,40.915,0,0,1,24.312,9.007,38.8,38.8,0,0,1,47.1,13.244a25.931,25.931,0,0,1,6.475-5.633A18.028,18.028,0,0,1,70.639,6.317a.25.25,0,0,1-.2.459A17.268,17.268,0,0,0,53.846,8.028a25.048,25.048,0,0,0-6.482,5.686.25.25,0,0,1-.2.1" transform="translate(10.949 3.827)" fill="#89b9e6"/>
        <path id="Trazado_1030848" data-name="Trazado 1030848" d="M43.779,14.648a.242.242,0,0,1-.13-.038A36.767,36.767,0,0,0,18.524,9.347a.249.249,0,1,1-.11-.486,37.283,37.283,0,0,1,25.5,5.324.249.249,0,0,1-.13.463" transform="translate(14.698 6.789)" fill="#89b9e6"/>
        <path id="Trazado_1030849" data-name="Trazado 1030849" d="M41.425,17.31a.25.25,0,0,1-.249-.249V14.5a.249.249,0,0,1,.5,0v2.56a.25.25,0,0,1-.249.249" transform="translate(33.216 11.496)"/>
        <path id="Trazado_1030850" data-name="Trazado 1030850" d="M41.425,20.1a.25.25,0,0,1-.249-.249v-2.56a.249.249,0,0,1,.5,0v2.56a.25.25,0,0,1-.249.249" transform="translate(33.216 13.749)"/>
        <path id="Trazado_1030851" data-name="Trazado 1030851" d="M44.673,16.855h-2.56a.249.249,0,1,1,0-.5h2.56a.249.249,0,1,1,0,.5" transform="translate(33.771 13.194)"/>
        <path id="Trazado_1030852" data-name="Trazado 1030852" d="M41.881,16.855h-2.56a.249.249,0,1,1,0-.5h2.56a.249.249,0,1,1,0,.5" transform="translate(31.519 13.194)"/>
        <path id="Trazado_1030853" data-name="Trazado 1030853" d="M59.268,7.443H55.459a.249.249,0,0,1-.249-.249V3.385a.249.249,0,0,1,.249-.249h3.809a.25.25,0,0,1,.249.249V7.194a.25.25,0,0,1-.249.249m-3.559-.5h3.31V3.635h-3.31Z" transform="translate(44.538 2.53)"/>
        <path id="Trazado_1030854" data-name="Trazado 1030854" d="M88.477,13.817a.992.992,0,1,0-.992.992.992.992,0,0,0,.992-.992" transform="translate(69.773 10.346)" fill="#4666c8"/>
        <path id="Trazado_1030855" data-name="Trazado 1030855" d="M42.877,23.909c-.287-.873-.479-1.451-.764-2.323l.837-2.19c-1.326-1.187-1.373-1.229-2.7-2.414l-2.083,1.075-2.4-.5-1.478-1.819-3.44,1.131-.11,2.341c-.612.685-1.019,1.14-1.63,1.825L26.8,21.4c-.363,1.743-.376,1.8-.741,3.547l1.973,1.265c.287.873.479,1.453.764,2.325l-.836,2.19c1.328,1.187,1.373,1.227,2.7,2.414l2.083-1.077,2.4.5,1.478,1.821c1.691-.556,1.749-.576,3.44-1.131l.11-2.343c.612-.685,1.019-1.138,1.63-1.823l2.316-.37c.363-1.742.376-1.8.741-3.545Zm-7.424,4.706a3.553,3.553,0,1,1,3.554-3.554,3.555,3.555,0,0,1-3.554,3.554" transform="translate(21.02 12.695)" fill="#89b9e6"/>
        <path id="Trazado_1030856" data-name="Trazado 1030856" d="M31.647,19.328a13.255,13.255,0,1,0-16.421,9.039,13.255,13.255,0,0,0,16.421-9.039" transform="translate(4.564 1.919)" fill="#fff"/>
        <path id="Trazado_1030857" data-name="Trazado 1030857" d="M19.021,29.254A13.506,13.506,0,1,1,32,19.509a13.462,13.462,0,0,1-12.976,9.745m.011-26.513a13.007,13.007,0,1,0,3.617.515,13.029,13.029,0,0,0-3.617-.515" transform="translate(4.453 1.808)"/>
        <path id="Trazado_1030858" data-name="Trazado 1030858" d="M18.035,14.756l9-6.809a11.287,11.287,0,1,0-6.5,17.814Z" transform="translate(5.444 2.799)" fill="#d7e4f2"/>
        <path id="Trazado_1030859" data-name="Trazado 1030859" d="M23.62,15.192a7.55,7.55,0,1,0-9.353,5.149,7.548,7.548,0,0,0,9.353-5.149" transform="translate(7.112 4.467)" fill="#fff"/>
        <path id="Trazado_1030860" data-name="Trazado 1030860" d="M15.258,10.883a1.607,1.607,0,1,0-1.991,1.1,1.607,1.607,0,0,0,1.991-1.1" transform="translate(9.767 7.121)"/>
        <path id="Trazado_1030861" data-name="Trazado 1030861" d="M13.672,11.235a.5.5,0,0,1-.432-.249L10.873,6.9a.5.5,0,1,1,.864-.5L14.1,10.485a.5.5,0,0,1-.432.75" transform="translate(8.717 4.962)"/>
        <path id="Trazado_1030862" data-name="Trazado 1030862" d="M14.153,12.088a.5.5,0,0,1-.3-.9l7.209-5.353a.5.5,0,1,1,.594.8l-7.209,5.353a.492.492,0,0,1-.3.1" transform="translate(11.014 4.627)"/>
        <path id="Trazado_1030863" data-name="Trazado 1030863" d="M19.8,134.853C7.2,117,8.422,79.763,17.013,63.882S43.1,45.8,43.1,45.8,3.248,71.515,37.86,141.89l-14.175-3.536Z" transform="translate(8.431 36.946)" fill="#89b9e6"/>
        <path id="Trazado_1030864" data-name="Trazado 1030864" d="M89.691,88.942,86.434,66.626l-3.525,3.48c-1.715-2.211-4.519-5.724-7.283-8.734-17.651-19.22-35.1-33.019-61.543,5.308,23.285-21,32.838-11.315,48.772,5.687,3.239,3.456,6.313,7.353,8.027,9.6l-4.876,4.809Z" transform="translate(11.361 34.148)" fill="#fff"/>
        <path id="Trazado_1030865" data-name="Trazado 1030865" d="M66.6,80.735l-.018,0L42.895,78.574a.2.2,0,0,1-.125-.349l4.746-4.683-2.134-2.732a.2.2,0,0,1,.32-.251l2.248,2.876a.2.2,0,0,1-.018.269l-4.564,4.5L66.36,80.3,63.2,58.643l-3.239,3.2a.2.2,0,0,1-.154.06.214.214,0,0,1-.146-.074l-7.283-8.734a.2.2,0,0,1,.313-.26l7.142,8.564L63.2,58.07a.2.2,0,0,1,.208-.047.2.2,0,0,1,.137.163L66.8,80.5a.2.2,0,0,1-.052.17.209.209,0,0,1-.148.063" transform="translate(34.453 42.559)"/>
        <path id="Trazado_1030866" data-name="Trazado 1030866" d="M117.645,132.05c13.079-36.6,14.054-91.059-20.585-86.259,13.355,20.269,10.931,54.515-6.356,94.786,0,0,18.338,8.652,26.941-8.528" transform="translate(73.17 36.7)" fill="#89b9e6"/>
        <path id="Trazado_1030867" data-name="Trazado 1030867" d="M91.568,88.308h.379v7.557H85.29C31.216,160.588,17.5,139.9,16.177,137.468c19.091,37.812,50.634,8.3,83.894-34.139C133.4,60.8,159.91,34.871,179.258,59.157,163.628,33.634,143.2,27,91.568,88.308" transform="translate(13.05 32.759)" fill="#fff"/>
        <path id="Trazado_1030868" data-name="Trazado 1030868" d="M12.588,88.439s8.463,27.321,27,27.847l-7.713-12.632s-12.8,3.839-19.283-15.214" transform="translate(10.155 71.343)" fill="#fff"/>
        <path id="Trazado_1030869" data-name="Trazado 1030869" d="M125.394,92.558a.2.2,0,0,1-.2-.2c-.358-11.624-2.116-21.518-5.225-29.409a38.828,38.828,0,0,0-10.271-15.326c-8.687-7.57-17.931-6.678-18.022-6.669a.2.2,0,1,1-.043-.4c.092-.011,9.512-.92,18.333,6.766A39.236,39.236,0,0,1,120.344,62.8c3.126,7.933,4.894,17.874,5.254,29.545a.2.2,0,0,1-.2.21Z" transform="translate(73.768 32.682)"/>
        <path id="Trazado_1030870" data-name="Trazado 1030870" d="M31.666,126.828a15.024,15.024,0,0,1-8.757-2.708C13.93,117.894,11.345,102.5,10.6,93.885c-1.033-12.013.132-25.464,2.9-33.471a.2.2,0,1,1,.385.134c-2.753,7.958-3.911,21.341-2.882,33.3.737,8.547,3.292,23.8,12.136,29.933a14.619,14.619,0,0,0,8.529,2.634c6.488,0,14.26-3.722,23.227-11.145a.2.2,0,1,1,.26.314c-9.044,7.485-16.905,11.241-23.492,11.241" transform="translate(8.251 48.625)"/>
        <path id="Trazado_1030871" data-name="Trazado 1030871" d="M51.6,74.524l10.435,13.2-1.89,2.246Z" transform="translate(41.622 60.118)" fill="#89b9e6"/>
        <path id="Trazado_1030872" data-name="Trazado 1030872" d="M27.621,121.911a.2.2,0,1,1,0-.407c5.61,0,11.924-2.083,18.766-6.188a100.522,100.522,0,0,0,17.335-13.65A172.369,172.369,0,0,0,81.37,81.8a.2.2,0,0,1,.285-.043.2.2,0,0,1,.043.284A172.925,172.925,0,0,1,64,101.962a100.931,100.931,0,0,1-17.407,13.7c-6.907,4.145-13.29,6.246-18.976,6.246" transform="translate(22.117 65.921)"/>
        <path id="Trazado_1030873" data-name="Trazado 1030873" d="M63.672,60.033S97.781,123.8,129.226,130.1c17.053,3.415,23.118-9.781,23.118-9.781s-5.615,20.5-27.082,20.5c-35.337,0-77.572-64.575-77.572-64.575l17.791,2.063Z" transform="translate(38.471 48.428)" fill="#fff"/>
        <path id="Trazado_1030874" data-name="Trazado 1030874" d="M124.682,127.112c-.349,0-.7-.009-1.053-.025-6.687-.331-14.226-3.79-22.412-10.282A138.889,138.889,0,0,1,80.528,95.652,267.92,267.92,0,0,1,59.4,65.345a.2.2,0,0,1,.074-.276.2.2,0,0,1,.276.072A267.88,267.88,0,0,0,80.848,95.4a138.365,138.365,0,0,0,20.623,21.088c8.117,6.437,15.579,9.866,22.177,10.192,7.388.367,13.812-3.173,19.106-10.515a.2.2,0,0,1,.284-.045.2.2,0,0,1,.047.284c-5.127,7.111-11.314,10.71-18.4,10.71" transform="translate(47.896 52.468)"/>
        <path id="Trazado_1030875" data-name="Trazado 1030875" d="M65.57,78.61l-.023,0L47.756,76.545a.2.2,0,1,1,.047-.4l17.539,2.034L63.56,60.144a.2.2,0,0,1,.407-.04l1.807,18.282a.2.2,0,0,1-.06.166.21.21,0,0,1-.143.058" transform="translate(38.379 48.337)"/>
        <path id="Trazado_1030876" data-name="Trazado 1030876" d="M118.748,123.514c-6.667,0-14.049-2.184-21.94-6.491a109.8,109.8,0,0,1-19.74-14.253A174.749,174.749,0,0,1,57.3,82.046a.2.2,0,1,1,.32-.249,174.615,174.615,0,0,0,19.72,20.67,109.358,109.358,0,0,0,19.664,14.2c7.83,4.273,15.146,6.441,21.742,6.441a.2.2,0,1,1,0,.407" transform="translate(46.19 65.922)"/>
        <path id="Trazado_1030877" data-name="Trazado 1030877" d="M141.48,64.229l-4.62,82.246H122.343V83.132L95.95,146.475H80.994l26.833-80.483Z" transform="translate(65.337 51.813)"/>
        <path id="Trazado_1030878" data-name="Trazado 1030878" d="M88.872,109.752S74.293,115.7,74.5,117.409s18.181-.766,18.181-.766v1.223h5.425l1.467-8.114Z" transform="translate(60.099 88.536)"/>
        <path id="Trazado_1030879" data-name="Trazado 1030879" d="M109.854,109.752s-11.473,10.322-9.971,12.17,14.224-4.838,14.224-4.838v1.173h5.865v-8.5Z" transform="translate(80.465 88.536)"/>
        <path id="Trazado_1030880" data-name="Trazado 1030880" d="M127.855,47.311s-3.427-5.194-4.535-6.5,3.142-2.069,6.6,1.944c0,0,3.337-5.675,6.107-4.851,3.59,1.066,10.8,11.268,1.415,13l-1.592,1.577Z" transform="translate(99.337 30.515)" fill="#fff"/>
        <path id="Trazado_1030881" data-name="Trazado 1030881" d="M136,52.974a.342.342,0,0,1-.184-.054l-7.991-5.174a.335.335,0,0,1-.1-.1c-.034-.051-3.429-5.192-4.51-6.461a.814.814,0,0,1,.033-1.225c.891-.762,4.022-.562,6.771,2.385.84-1.313,3.684-5.377,6.251-4.612,2.506.746,6.475,5.482,6.276,9.209-.087,1.619-.992,3.695-4.793,4.428l-1.518,1.5a.347.347,0,0,1-.238.1m-7.747-5.758,7.7,4.986,1.4-1.386a.35.35,0,0,1,.177-.092c2.773-.511,4.235-1.8,4.341-3.818.182-3.386-3.532-7.852-5.79-8.524-2.063-.612-4.827,3.185-5.718,4.7a.341.341,0,0,1-.549.049c-2.694-3.129-5.608-3.095-6.123-2.654-.052.043-.11.092.042.271,1.057,1.241,4.117,5.859,4.52,6.468" transform="translate(99.186 30.363)"/>
        <path id="Trazado_1030882" data-name="Trazado 1030882" d="M133.036,49.643c-4.578.052-5.63-7.892-3.088-10.249Z" transform="translate(103.738 31.779)" fill="#fff"/>
        <path id="Trazado_1030883" data-name="Trazado 1030883" d="M133.147,50.133c-1.8,0-3.294-1.176-4.114-3.232-1.1-2.746-.719-6.157.84-7.6a.338.338,0,0,1,.459.5c-1.346,1.25-1.655,4.39-.67,6.856.423,1.059,1.445,2.835,3.525,2.806a.339.339,0,0,1,.007.678h-.047" transform="translate(103.584 31.627)"/>
        <path id="Trazado_1030884" data-name="Trazado 1030884" d="M79.65,46.178A5.852,5.852,0,1,0,73.8,52.03a5.852,5.852,0,0,0,5.852-5.852" transform="translate(54.812 32.531)" fill="#fff"/>
        <path id="Trazado_1030885" data-name="Trazado 1030885" d="M73.949,52.52a6.191,6.191,0,1,1,6.19-6.192,6.2,6.2,0,0,1-6.19,6.192m0-11.7a5.513,5.513,0,1,0,5.512,5.512,5.519,5.519,0,0,0-5.512-5.512" transform="translate(54.661 32.38)"/>
        <path id="Trazado_1030886" data-name="Trazado 1030886" d="M145.882,65.827l3.57,25.312S130.389,98.2,111.034,89.4l.074-27.053L72.837,51.574l2.2-10.117,41.144,5.5s23.52-1.98,26.157-1.1,14.737,10.338,14.737,10.338l10.41-12.024,10.02,5.816s-14.932,21.6-17.572,22.264-14.052-6.423-14.052-6.423" transform="translate(58.757 33.443)" fill="#4666c9"/>
        <path id="Trazado_1030887" data-name="Trazado 1030887" d="M101.545,44.229l-2.719,5.951,6.2,4.217Z" transform="translate(79.722 35.68)" fill="#8abae7"/>
        <path id="Trazado_1030888" data-name="Trazado 1030888" d="M102.257,54.764l9.613-2.6,2.258-8.392Z" transform="translate(82.49 35.312)" fill="#8abae7"/>
        <path id="Trazado_1030889" data-name="Trazado 1030889" d="M100.331,49.221l3.481,10.168L115.684,48.4h-2.8l.7-10.356-7.872.678-2.724,10.314Z" transform="translate(80.936 30.688)" fill="#fff"/>
        <path id="Trazado_1030890" data-name="Trazado 1030890" d="M103.964,59.878a.418.418,0,0,1-.083-.009.344.344,0,0,1-.238-.22l-3.482-10.166a.338.338,0,0,1,.3-.448l2.421-.17,2.665-10.081a.339.339,0,0,1,.3-.251l7.872-.678a.342.342,0,0,1,.266.1.33.33,0,0,1,.1.264l-.678,10h2.434a.339.339,0,0,1,.229.587l-11.872,10.99a.335.335,0,0,1-.229.09m-3.019-10.2,3.171,9.257L114.97,48.888h-1.931a.338.338,0,0,1-.248-.108.331.331,0,0,1-.09-.253l.676-9.964-7.241.625-2.663,10.083a.337.337,0,0,1-.3.251Z" transform="translate(80.785 30.536)"/>
        <path id="Trazado_1030891" data-name="Trazado 1030891" d="M104.5,52.939c7.239,1.516,25.66-19.585,14.076-23s-24.34,20.847-14.076,23" transform="translate(81.264 23.891)" fill="#fff"/>
        <path id="Trazado_1030892" data-name="Trazado 1030892" d="M105.433,53.5a4.172,4.172,0,0,1-.851-.083,4.684,4.684,0,0,1-3.74-3.379c-1.241-4.152,1.568-11.2,6.4-16.049,3.792-3.807,7.908-5.308,11.586-4.224,3.285.967,4.6,3.478,3.693,7.071-.871,3.458-3.8,7.85-7.644,11.462-3.536,3.321-6.977,5.2-9.44,5.2m-.712-.746c2.229.466,5.94-1.431,9.687-4.95s6.611-7.792,7.451-11.133c.824-3.277-.262-5.382-3.227-6.257-1.987-.585-6.045-.836-10.916,4.054-4.589,4.609-7.382,11.507-6.226,15.375a3.991,3.991,0,0,0,3.23,2.911" transform="translate(81.112 23.738)"/>
        <path id="Trazado_1030893" data-name="Trazado 1030893" d="M114.316,47.285c-4.9-1.173.806-12.325,2.609-12.893,0,0-6.26-5.2-12.808,2.24,0,0,1.077-3.785,3.424-4.968l-.88-1.066S114.87,22,118,31.665c0,0,9.384,3.51-3.684,15.621" transform="translate(83.99 21.84)"/>
        <path id="Trazado_1030894" data-name="Trazado 1030894" d="M115.611,37.3c.853,1.339-.226,3.55-2.407,4.939s-4.643,1.433-5.5.1.226-3.55,2.408-4.941,4.641-1.433,5.494-.094" transform="translate(86.652 29.304)" fill="#fff"/>
        <path id="Trazado_1030895" data-name="Trazado 1030895" d="M109.9,43.8a2.768,2.768,0,0,1-2.459-1.133.339.339,0,0,1,.571-.365,2.158,2.158,0,0,0,1.958.82,6.6,6.6,0,0,0,5.288-3.369,1.861,1.861,0,0,0-1.874-2.941,6.1,6.1,0,0,0-3.07,1.019.339.339,0,1,1-.363-.573,6.757,6.757,0,0,1,3.422-1.122,2.522,2.522,0,0,1,2.493,3.913,7.279,7.279,0,0,1-5.886,3.751H109.9" transform="translate(86.632 29.153)"/>
        <path id="Trazado_1030896" data-name="Trazado 1030896" d="M102.408,87.574a.337.337,0,0,1-.338-.338V50.01a.338.338,0,1,1,.676,0V87.237a.337.337,0,0,1-.338.338" transform="translate(82.339 40.068)"/>
        <path id="Trazado_1030897" data-name="Trazado 1030897" d="M125.616,92.043l2.7-2.936,23.055,18.661-5.241,5.7Z" transform="translate(101.334 71.882)" fill="#8abae7"/>
        <path id="Trazado_1030898" data-name="Trazado 1030898" d="M127.588,99.6l8.685-9.44-14.6-4.556Z" transform="translate(98.151 69.054)" fill="#8abae7"/>
        <path id="Trazado_1030899" data-name="Trazado 1030899" d="M131.2,39.545l-2.052-3.422,24.423-16.833,3.98,6.638Z" transform="translate(104.181 15.562)" fill="#8abae7"/>
        <path id="Trazado_1030900" data-name="Trazado 1030900" d="M139.343,36.8l-6.6-11-8.5,12.717Z" transform="translate(100.228 20.809)" fill="#8abae7"/>
        <path id="Trazado_1030901" data-name="Trazado 1030901" d="M113.054,34.779,94.823,28.864a1.517,1.517,0,0,1-.976-1.911l8.381-25.834A1.518,1.518,0,0,1,104.14.143l18.233,5.915a1.517,1.517,0,0,1,.974,1.911L114.966,33.8a1.518,1.518,0,0,1-1.911.976" transform="translate(75.646 0.056)" fill="#d8e5f3"/>
        <path id="Trazado_1030902" data-name="Trazado 1030902" d="M113.045,35.033a2.687,2.687,0,0,1-.826-.13L95.557,29.5a2.682,2.682,0,0,1-1.722-3.377l7.874-24.266A2.682,2.682,0,0,1,105.085.132l16.663,5.406a2.682,2.682,0,0,1,1.722,3.377L115.6,33.18a2.683,2.683,0,0,1-2.551,1.854m-.616-.775a2.006,2.006,0,0,0,2.524-1.288l7.872-24.264a2,2,0,0,0-1.286-2.524L104.875.777a2.006,2.006,0,0,0-2.524,1.286L94.48,26.329a2,2,0,0,0,1.286,2.524Z" transform="translate(75.59 0)"/>
        <rect id="Rectángulo_459845" data-name="Rectángulo 459845" width="26.761" height="18.552" transform="translate(171.29 27.381) rotate(-72.024)" fill="#fff"/>
        <rect id="Rectángulo_459846" data-name="Rectángulo 459846" width="3.286" height="10.815" transform="translate(182.744 4.614) rotate(-72.028)" fill="#d8e5f3"/>
        <path id="Trazado_1030903" data-name="Trazado 1030903" d="M111.588,7.775a.343.343,0,0,1-.1-.016L101.2,4.422A.34.34,0,0,1,100.977,4L101.993.87a.337.337,0,0,1,.426-.217L112.7,3.99a.338.338,0,0,1,.219.426l-1.014,3.126a.341.341,0,0,1-.168.2.355.355,0,0,1-.154.036m-9.861-3.893,9.642,3.129.806-2.481L102.531,1.4Z" transform="translate(81.445 0.514)"/>
        <rect id="Rectángulo_459847" data-name="Rectángulo 459847" width="3.052" height="3.052" transform="matrix(0.308, -0.951, 0.951, 0.308, 179.558, 9.489)" fill="#d8e5f3"/>
        <path id="Trazado_1030904" data-name="Trazado 1030904" d="M102.44,7.979a.352.352,0,0,1-.1-.016l-2.9-.941a.338.338,0,0,1-.219-.426l.943-2.9a.338.338,0,0,1,.426-.219l2.9.943a.337.337,0,0,1,.217.426l-.941,2.9a.338.338,0,0,1-.322.233m-2.477-1.5,2.258.734.734-2.26L100.7,4.223Z" transform="translate(80.021 2.789)"/>
        <rect id="Rectángulo_459848" data-name="Rectángulo 459848" width="3.052" height="3.052" transform="matrix(0.308, -0.951, 0.951, 0.308, 177.885, 14.646)" fill="#d8e5f3"/>
        <path id="Trazado_1030905" data-name="Trazado 1030905" d="M101.514,10.834a.352.352,0,0,1-.1-.016l-2.9-.941a.338.338,0,0,1-.219-.426l.943-2.9a.338.338,0,0,1,.426-.219l2.9.943a.338.338,0,0,1,.219.426l-.943,2.9a.338.338,0,0,1-.322.233m-2.477-1.5,2.258.734.734-2.26-2.258-.732Z" transform="translate(79.274 5.092)"/>
        <rect id="Rectángulo_459849" data-name="Rectángulo 459849" width="3.053" height="3.052" transform="matrix(0.308, -0.951, 0.951, 0.308, 176.189, 19.873)" fill="#d8e5f3"/>
        <path id="Trazado_1030906" data-name="Trazado 1030906" d="M100.575,13.727a.352.352,0,0,1-.1-.016l-2.9-.941a.338.338,0,0,1-.219-.426l.943-2.9a.339.339,0,0,1,.426-.219l2.9.943a.337.337,0,0,1,.217.426l-.941,2.9a.338.338,0,0,1-.322.233M98.1,12.23l2.258.734.732-2.26-2.258-.734Z" transform="translate(78.517 7.425)"/>
        <rect id="Rectángulo_459850" data-name="Rectángulo 459850" width="3.052" height="3.052" transform="matrix(0.308, -0.951, 0.951, 0.308, 174.493, 25.1)" fill="#d8e5f3"/>
        <path id="Trazado_1030907" data-name="Trazado 1030907" d="M99.637,16.62a.343.343,0,0,1-.1-.016l-2.9-.941a.338.338,0,0,1-.219-.426l.943-2.9a.339.339,0,0,1,.168-.2.346.346,0,0,1,.258-.02l2.9.941a.339.339,0,0,1,.217.428l-.941,2.9a.341.341,0,0,1-.168.2.331.331,0,0,1-.154.036m-2.477-1.5,2.258.734.734-2.26-2.258-.734Z" transform="translate(77.76 9.759)"/>
        <path id="Trazado_1030908" data-name="Trazado 1030908" d="M102.74,5.452,109.347,7.6Z" transform="translate(82.88 4.398)" fill="#d8e5f3"/>
        <path id="Trazado_1030909" data-name="Trazado 1030909" d="M109.5,8.086a.352.352,0,0,1-.1-.016l-6.607-2.145A.338.338,0,1,1,103,5.282L109.6,7.424a.339.339,0,0,1-.1.661" transform="translate(82.729 4.247)"/>
        <path id="Trazado_1030910" data-name="Trazado 1030910" d="M101.814,8.307l6.607,2.145Z" transform="translate(82.133 6.701)" fill="#d8e5f3"/>
        <path id="Trazado_1030911" data-name="Trazado 1030911" d="M108.573,10.941a.352.352,0,0,1-.1-.016L101.861,8.78a.338.338,0,1,1,.208-.643l6.609,2.143a.339.339,0,0,1-.1.661" transform="translate(81.981 6.55)"/>
        <path id="Trazado_1030912" data-name="Trazado 1030912" d="M100.888,11.161l6.607,2.145Z" transform="translate(81.386 9.003)" fill="#d8e5f3"/>
        <path id="Trazado_1030913" data-name="Trazado 1030913" d="M107.647,13.795a.352.352,0,0,1-.1-.016l-6.607-2.145a.338.338,0,1,1,.208-.643l6.609,2.143a.339.339,0,0,1-.1.661" transform="translate(81.234 8.852)"/>
        <path id="Trazado_1030914" data-name="Trazado 1030914" d="M99.962,14.016l6.607,2.143Z" transform="translate(80.639 11.307)" fill="#d8e5f3"/>
        <path id="Trazado_1030915" data-name="Trazado 1030915" d="M106.721,16.649a.352.352,0,0,1-.1-.016l-6.607-2.145a.338.338,0,1,1,.208-.643l6.609,2.143a.339.339,0,0,1-.1.661" transform="translate(80.487 11.156)"/>
        <path id="Trazado_1030916" data-name="Trazado 1030916" d="M45.822,75.664,27.227,119.117a22.414,22.414,0,0,0-10.193,6.661c-7.028,7.908-3.274,26.183-3.274,26.183l3.572-.528a114.052,114.052,0,0,1,5.084-14.954c3.176-7.113,10.885-7.209,10.154.793-.479,5.218-3.716,11.525-5.971,15.7a21.43,21.43,0,0,0,13.162-7c6.766-7.613,7.583-18.029,2.033-23.771L63.741,66.282Z" transform="translate(10.292 53.469)" fill="#89b9e6"/>
        <path id="Trazado_1030917" data-name="Trazado 1030917" d="M63.94,66.226l0,0a.182.182,0,0,1,.049.2l-21.9,55.812c5.552,5.855,4.638,16.342-2.108,23.933A21.564,21.564,0,0,1,26.7,153.231a.18.18,0,0,1-.182-.266c5.44-10.069,5.8-13.964,5.948-15.628.284-3.091-.721-5.243-2.688-5.758-2.858-.748-5.743,1.978-7.118,5.055a115.011,115.011,0,0,0-5.075,14.927.18.18,0,0,1-.148.132l-3.572.528a.182.182,0,0,1-.2-.143,60.117,60.117,0,0,1-1-10.161c-.1-9.243,2.293-13.9,4.318-16.179a22.512,22.512,0,0,1,10.2-6.69l18.56-43.375a.18.18,0,0,1,.083-.089L63.737,66.2a.181.181,0,0,1,.2.023M27.011,152.82a21.2,21.2,0,0,0,12.7-6.887c6.654-7.487,7.548-17.821,2.038-23.525a.179.179,0,0,1-.04-.192L63.474,66.75,46.044,75.875,27.475,119.268a.179.179,0,0,1-.114.1,22.133,22.133,0,0,0-10.11,6.607c-1.982,2.231-4.325,6.8-4.228,15.93a60.432,60.432,0,0,0,.963,9.928l3.283-.484a114.516,114.516,0,0,1,5.062-14.865,10.075,10.075,0,0,1,3.518-4.381,5.056,5.056,0,0,1,4.022-.878c2.154.564,3.261,2.86,2.961,6.143-.446,4.86-3.167,10.513-5.821,15.451" transform="translate(10.211 53.388)"/>
        <path id="Trazado_1030918" data-name="Trazado 1030918" d="M41.441,81.931,25.885,118.281a22.435,22.435,0,0,0-10.193,6.661c-7.028,7.908-7.637,18.84-1.362,24.417a12.227,12.227,0,0,0,1.66,1.238,114.051,114.051,0,0,1,5.084-14.954c3.174-7.113,10.885-7.209,10.154.795-.479,5.218-3.6,11.807-5.857,15.978a21.639,21.639,0,0,0,13.048-7.277c6.766-7.615,7.581-18.029,2.033-23.772l20.918-53.4Z" transform="translate(8.063 54.833)" fill="#d7e4f2"/>
        <path id="Trazado_1030919" data-name="Trazado 1030919" d="M41.3,73.619a.183.183,0,0,1,.051.2L24.3,116.808a.182.182,0,0,1-.338-.134L41.015,73.69a.181.181,0,0,1,.235-.1.215.215,0,0,1,.052.033" transform="translate(19.32 59.352)" fill="#fff"/>
        <path id="Trazado_1030920" data-name="Trazado 1030920" d="M23.226,103.155h0c.865.99,1.346,2.614,1.136,4.9-.477,5.218-3.6,11.807-5.857,15.978a20.013,20.013,0,0,0,7.856-2.889l-4.513.184s7.052-14.356,1.379-18.174" transform="translate(14.928 83.214)" fill="#fff"/>
        <path id="Trazado_1030921" data-name="Trazado 1030921" d="M16.666,121.613c-7.592-6.578-4.795-16.7-2.97-20.683-5.084,7.565-4.985,16.849.634,21.843.089.076.177.15.267.226.434.341.894.679,1.393,1.012C16.183,123.3,16.409,122.493,16.666,121.613Z" transform="translate(8.062 81.42)" fill="#fff"/>
        <path id="Trazado_1030922" data-name="Trazado 1030922" d="M61.569,67.916a.178.178,0,0,1,.051.2L40.745,121.407c5.552,5.855,4.638,16.342-2.108,23.933a21.962,21.962,0,0,1-13.162,7.337.18.18,0,0,1-.182-.266c2.4-4.452,5.371-10.826,5.836-15.91.284-3.091-.723-5.243-2.69-5.758-2.856-.746-5.742,1.978-7.117,5.055a115.118,115.118,0,0,0-5.075,14.929.182.182,0,0,1-.271.107,12.521,12.521,0,0,1-1.684-1.257A13.909,13.909,0,0,1,9.923,138.1,21.967,21.967,0,0,1,15.637,124.9a22.513,22.513,0,0,1,10.2-6.688L41.355,81.94a.162.162,0,0,1,.063-.076L61.346,67.9a.182.182,0,0,1,.217.007l.005.005M25.782,152.267A21.711,21.711,0,0,0,38.365,145.1c6.654-7.489,7.548-17.821,2.036-23.525a.185.185,0,0,1-.038-.193l20.7-52.835L41.67,82.131l-15.536,36.3a.187.187,0,0,1-.116.1,22.137,22.137,0,0,0-10.11,6.607,21.607,21.607,0,0,0-5.622,12.972,13.549,13.549,0,0,0,4.248,11.189,12.035,12.035,0,0,0,1.427,1.088,114.079,114.079,0,0,1,5.03-14.743c1.9-4.249,5.229-5.863,7.539-5.257,2.154.562,3.261,2.858,2.959,6.143-.459,5.023-3.319,11.267-5.707,15.731" transform="translate(7.982 54.751)"/>
        <path id="Trazado_1030923" data-name="Trazado 1030923" d="M39.058,72.288a.181.181,0,0,1,.051.2L22.026,116.462l4.047,1.178a.182.182,0,1,1-.1.349l-4.239-1.232a.183.183,0,0,1-.119-.24L38.769,72.36a.182.182,0,0,1,.235-.1.2.2,0,0,1,.054.033" transform="translate(17.427 58.278)"/>
        <path id="Trazado_1030924" data-name="Trazado 1030924" d="M27.091,53.424A97.34,97.34,0,0,0,62.263,71.336s3.821-5.236,3.169-10.721c-19.088-6.285-27.117-14.159-34.558-20.54-5.164-5.3-12.387,7.192-3.783,13.35" transform="translate(18.635 31.297)" fill="#f47a3e"/>
        <path id="Trazado_1030925" data-name="Trazado 1030925" d="M29.551,111.171l14.4-45.017A22.427,22.427,0,0,1,40.61,54.444c-.132-10.578,14.672-21.931,14.672-21.931l2.354,2.737a114.109,114.109,0,0,0-5.951,14.632c-2.257,7.454,3.509,12.576,8.2,6.049,3.055-4.257,4.737-11.144,5.767-15.774a21.439,21.439,0,0,1,5.366,13.908c.126,10.184-6.078,18.589-14.031,19.3L36.949,129.995Z" transform="translate(23.839 26.228)" fill="#89b9e6"/>
        <path id="Trazado_1030926" data-name="Trazado 1030926" d="M36.861,130.144l-7.4-18.824a.191.191,0,0,1,0-.123L43.835,66.261a22.508,22.508,0,0,1-3.326-11.733c-.038-3.048,1.2-8.134,7.333-15.055a60.2,60.2,0,0,1,7.409-7.023.184.184,0,0,1,.249.025l2.354,2.737a.183.183,0,0,1,.025.2,115.172,115.172,0,0,0-5.94,14.607c-.976,3.225-.578,7.173,2.069,8.481,1.825.9,3.995-.069,5.8-2.591.974-1.357,3.254-4.535,5.736-15.706a.185.185,0,0,1,.132-.137.182.182,0,0,1,.182.056,21.564,21.564,0,0,1,5.411,14.024C71.4,64.3,65.226,72.823,57.2,73.612L37.2,130.137a.179.179,0,0,1-.168.121h0a.181.181,0,0,1-.17-.114M60.108,56.118c-1.922,2.679-4.264,3.689-6.258,2.7a5.047,5.047,0,0,1-2.466-3.3,10.071,10.071,0,0,1,.21-5.615A114.483,114.483,0,0,1,57.5,35.361l-2.164-2.517a60.515,60.515,0,0,0-7.229,6.874c-6.049,6.831-7.274,11.823-7.238,14.806a22.13,22.13,0,0,0,3.315,11.613.183.183,0,0,1,.02.154L29.824,111.246l7.2,18.311,19.87-56.176a.177.177,0,0,1,.154-.119c7.9-.7,13.991-9.1,13.866-19.113a21.208,21.208,0,0,0-5.086-13.519C64.6,46.1,62.953,52.154,60.108,56.118" transform="translate(23.757 26.148)"/>
        <path id="Trazado_1030927" data-name="Trazado 1030927" d="M29.551,101.144,41.6,63.484a22.423,22.423,0,0,1-3.344-11.709C38.124,41.2,44.823,32.535,53.217,32.43a12.218,12.218,0,0,1,2.065.15,114.388,114.388,0,0,0-5.949,14.632c-2.258,7.454,3.507,12.576,8.193,6.049,3.055-4.257,5.008-11.283,6.036-15.913a21.641,21.641,0,0,1,5.1,14.047c.126,10.184-6.078,18.589-14.031,19.3L35.472,124.743Z" transform="translate(23.839 26.161)" fill="#d7e4f2"/>
        <path id="Trazado_1030928" data-name="Trazado 1030928" d="M32.908,95.732a.184.184,0,0,0,.172-.121L48.339,51.958a.18.18,0,0,0-.11-.231.182.182,0,0,0-.233.11L32.736,95.49a.181.181,0,0,0,.112.231.173.173,0,0,0,.06.011" transform="translate(26.4 41.719)" fill="#fff"/>
        <path id="Trazado_1030929" data-name="Trazado 1030929" d="M42.783,54.023h0c1.3-.181,2.73-1.093,4.069-2.959,3.055-4.255,5.008-11.283,6.036-15.912a20.036,20.036,0,0,1,4.045,7.328l-3.29-3.095s-4.072,15.467-10.86,14.638" transform="translate(34.513 28.357)" fill="#fff"/>
        <path id="Trazado_1030930" data-name="Trazado 1030930" d="M50.257,34.836c-10.043,0-14.56,9.482-15.789,13.688,1.111-9.046,7.267-16,14.782-16.092.117,0,.233,0,.349,0,.553.027,1.124.072,1.716.148C51,33.243,50.64,34,50.257,34.836Z" transform="translate(27.805 26.162)" fill="#fff"/>
        <path id="Trazado_1030931" data-name="Trazado 1030931" d="M35.542,125.006a.179.179,0,0,1-.166-.137l-5.919-23.6a.169.169,0,0,1,0-.1L41.482,63.592a22.491,22.491,0,0,1-3.326-11.733,21.977,21.977,0,0,1,4.32-13.713A13.91,13.91,0,0,1,53.294,32.33a12.547,12.547,0,0,1,2.1.154.179.179,0,0,1,.134.094.184.184,0,0,1,0,.163,114.814,114.814,0,0,0-5.939,14.607c-.976,3.225-.582,7.173,2.067,8.481,1.825.9,3.995-.069,5.8-2.591,2.976-4.146,4.909-10.905,6.007-15.847a.178.178,0,0,1,.13-.136.18.18,0,0,1,.182.054,21.985,21.985,0,0,1,5.144,14.164c.126,10.155-6.051,18.679-14.081,19.469L35.724,124.885a.183.183,0,0,1-.173.121h-.009M57.755,53.449c-1.924,2.679-4.264,3.689-6.26,2.7-2.143-1.057-3.606-4.457-2.257-8.912a114.342,114.342,0,0,1,5.854-14.435,12.175,12.175,0,0,0-1.79-.112,13.552,13.552,0,0,0-10.538,5.675,21.624,21.624,0,0,0-4.246,13.487,22.131,22.131,0,0,0,3.317,11.613.183.183,0,0,1,.018.154l-12.031,37.61,5.76,22.965L54.537,70.712a.178.178,0,0,1,.157-.119c7.9-.7,13.989-9.1,13.865-19.113a21.72,21.72,0,0,0-4.817-13.657c-1.118,4.938-3.048,11.529-5.987,15.626" transform="translate(23.757 26.08)"/>
        <path id="Trazado_1030932" data-name="Trazado 1030932" d="M30.306,95.664a.184.184,0,0,0,.172-.121L46.36,51.126l3.832,1.762a.182.182,0,1,0,.15-.331l-4.011-1.845a.183.183,0,0,0-.145,0,.179.179,0,0,0-.1.107L30.134,95.422a.182.182,0,0,0,.172.242" transform="translate(24.301 40.896)"/>
        <path id="Trazado_1030933" data-name="Trazado 1030933" d="M12.689,56.915l2.439,98.615s4.735,4.659,14.894,4.659l-.511-82.474,20.828,82.474s9.675-2.9,13.3-6.529L41.39,54.98s-17.494-3.628-28.7,1.935" transform="translate(10.236 43.414)"/>
        <path id="Trazado_1030934" data-name="Trazado 1030934" d="M34.2,113.793l1.451,7.416H53.384c0-3.386-6.127-.967-8.867-12.576Z" transform="translate(27.586 87.633)"/>
        <path id="Trazado_1030935" data-name="Trazado 1030935" d="M30.057,113v7.416H10.547c.161-1.935,7.579-5.642,8.061-10.8Z" transform="translate(8.508 88.426)"/>
        <path id="Trazado_1030936" data-name="Trazado 1030936" d="M12.051,55.175s6.7,6.714,1.964,15.42c0,0-4.64-.108-5.516-4.21a3.924,3.924,0,0,0-.663-5.326Z" transform="translate(6.321 44.509)" fill="#fff"/>
        <path id="Trazado_1030937" data-name="Trazado 1030937" d="M8.608,64.113a.244.244,0,0,0,.2-.1A4.133,4.133,0,0,0,8.11,58.36a.244.244,0,1,0-.329.361,3.651,3.651,0,0,1,.632,5,.243.243,0,0,0,.049.341.246.246,0,0,0,.146.049" transform="translate(6.212 47.028)"/>
        <path id="Trazado_1030938" data-name="Trazado 1030938" d="M12.241,70.948a.246.246,0,0,0,.215-.128c4.768-8.764-1.937-15.641-2.005-15.709a.245.245,0,0,0-.347.345c.067.067,6.513,6.694,1.922,15.131a.244.244,0,0,0,.1.331.222.222,0,0,0,.116.031" transform="translate(8.094 44.4)"/>
        <path id="Trazado_1030939" data-name="Trazado 1030939" d="M10.317,67.317a.241.241,0,0,0,.177-.076,8.221,8.221,0,0,0,1.957-5.055,13.5,13.5,0,0,0-.069-2.891.245.245,0,0,0-.484.076c.009.049.737,4.893-1.758,7.534a.244.244,0,0,0,.177.412" transform="translate(8.126 47.666)"/>
        <path id="Trazado_1030940" data-name="Trazado 1030940" d="M9.423,66.349A.245.245,0,0,0,9.6,66.27a7.754,7.754,0,0,0,1.668-6.782.245.245,0,1,0-.473.123,7.388,7.388,0,0,1-1.556,6.329.245.245,0,0,0,.016.345.24.24,0,0,0,.164.065" transform="translate(7.405 47.841)"/>
        <path id="Trazado_1030941" data-name="Trazado 1030941" d="M8.7,64.778a.244.244,0,0,0,.182-.083,5.389,5.389,0,0,0,1.364-4.916.244.244,0,1,0-.468.141,4.906,4.906,0,0,1-1.261,4.452.244.244,0,0,0,.022.345.236.236,0,0,0,.161.061" transform="translate(6.823 48.082)"/>
        <path id="Trazado_1030942" data-name="Trazado 1030942" d="M47.164,39.916c-5.669-1.671-10.921-2.936-17.576-2.235C17.333,38.971,1.532,54.127,1.532,60.417c0,4.515,11.575,16.739,11.575,16.739s5.142-.7,6.914-5.292L12.658,61.383l6.289-4.594c0,.724,1.451,16.2,1.451,16.2s17.9,4.6,32.168-2.419L49.18,53.643Z" transform="translate(1.236 30.238)" fill="#f47a3e"/>
        <path id="Trazado_1030943" data-name="Trazado 1030943" d="M17.479,45.353l5,1.687,3.239-1.695-3.191-17.07-7.968,1.489Z" transform="translate(11.749 22.81)" fill="#fff"/>
        <path id="Trazado_1030944" data-name="Trazado 1030944" d="M22.515,47.381l-5.006-1.687a.247.247,0,0,1-.163-.186L14.434,29.919a.241.241,0,0,1,.038-.182.247.247,0,0,1,.157-.1l7.966-1.489a.245.245,0,0,1,.285.2l3.191,17.071a.241.241,0,0,1-.126.26l-3.239,1.695a.246.246,0,0,1-.112.029.228.228,0,0,1-.078-.014m-.07-18.71-7.487,1.4L17.8,45.276l4.77,1.61,2.986-1.563Zm-4.86,16.791h0Z" transform="translate(11.64 22.701)"/>
        <path id="Trazado_1030945" data-name="Trazado 1030945" d="M17.389,38.638c-2.829.242-7.545-8.95-3.635-10.723.531-8.464,24.67-.24,16.77,10.038Z" transform="translate(9.895 19.687)"/>
        <path id="Trazado_1030946" data-name="Trazado 1030946" d="M15.437,37.764c2.605,5.118,7.29,7.96,10.464,6.343s3.637-7.073,1.032-12.193-7.29-7.96-10.464-6.343-3.637,7.075-1.032,12.193" transform="translate(11.091 20.262)" fill="#fff"/>
        <path id="Trazado_1030947" data-name="Trazado 1030947" d="M15.328,37.984a14.363,14.363,0,0,1-1.677-7.541c.2-2.39,1.2-4.159,2.815-4.981s3.633-.587,5.684.656a14.365,14.365,0,0,1,5.109,5.8c2.663,5.23,2.152,10.847-1.138,12.522a4.464,4.464,0,0,1-2.043.475c-3.028,0-6.6-2.7-8.75-6.927M16.689,25.9c-1.458.741-2.363,2.37-2.551,4.585a13.889,13.889,0,0,0,1.626,7.281C18.3,42.754,22.85,45.552,25.9,44s3.465-6.874.925-11.866a13.888,13.888,0,0,0-4.927-5.6,6.579,6.579,0,0,0-3.364-1.066,4.039,4.039,0,0,0-1.845.428" transform="translate(10.982 20.152)"/>
        <path id="Trazado_1030948" data-name="Trazado 1030948" d="M15.606,37.637c2.5-.484,1.745-8.667,1.745-8.667C24.123,33,28.719,32.517,28.719,32.517c-7.368-12.092-20.8-9.675-13.113,5.12" transform="translate(10.734 20.004)"/>
        <path id="Trazado_1030949" data-name="Trazado 1030949" d="M14.367,34.506c.979,1.4,2.622,1.937,3.666,1.205s1.1-2.461.119-3.857-2.62-1.937-3.666-1.205-1.1,2.459-.119,3.857" transform="translate(11.024 24.461)" fill="#fff"/>
        <path id="Trazado_1030950" data-name="Trazado 1030950" d="M17.068,36.39a2.086,2.086,0,0,0,1.212-.369.244.244,0,1,0-.28-.4c-.934.654-2.425.139-3.326-1.145s-.873-2.864.06-3.518a1.819,1.819,0,0,1,1.642-.164A3.428,3.428,0,0,1,18.06,32.1a.244.244,0,1,0,.4-.28,3.9,3.9,0,0,0-1.931-1.494,2.293,2.293,0,0,0-2.074.229c-1.154.808-1.234,2.692-.179,4.2a3.578,3.578,0,0,0,2.793,1.633" transform="translate(10.917 24.351)"/>
        <path id="Trazado_1030951" data-name="Trazado 1030951" d="M25.476,24.913s-8.3-3.472-12.049,1.713Z" transform="translate(10.831 19.179)"/>
        <path id="Trazado_1030952" data-name="Trazado 1030952" d="M26.686,38.681s-4.594,4.007-11.427.659l-.351-3.026s6.031.744,7.3,4.242a4.5,4.5,0,0,1,3.74-4.242Z" transform="translate(12.026 29.294)" fill="#fff"/>
        <path id="Trazado_1030953" data-name="Trazado 1030953" d="M15.261,39.668a.248.248,0,0,1-.135-.19l-.351-3.026a.244.244,0,0,1,.273-.271,15.645,15.645,0,0,1,3.23.824,7.487,7.487,0,0,1,3.9,2.818,4.837,4.837,0,0,1,3.843-3.64.244.244,0,0,1,.271.168l.739,2.367a.242.242,0,0,1-.074.257,9.1,9.1,0,0,1-3.243,1.635,10.11,10.11,0,0,1-1.35.3l-.011,0-.009,0a10.8,10.8,0,0,1-1.568.114,12.438,12.438,0,0,1-5.514-1.355m.036-2.954.3,2.575a11.407,11.407,0,0,0,6.37,1.167c-1.23-2.643-5.482-3.539-6.669-3.742m10.593-.007a4.176,4.176,0,0,0-3.3,3.655A9.543,9.543,0,0,0,26.513,38.7Z" transform="translate(11.917 29.185)"/>
        <path id="Trazado_1030954" data-name="Trazado 1030954" d="M21.827,41.542a11.091,11.091,0,0,0,3.917-.7A10.266,10.266,0,0,0,29.9,38.059a.245.245,0,0,0-.379-.309,9.95,9.95,0,0,1-3.969,2.645c-3.4,1.261-7.346.7-11.407-1.628a.244.244,0,0,0-.242.425,16.343,16.343,0,0,0,7.926,2.351" transform="translate(11.115 30.381)"/>
        <path id="Trazado_1030955" data-name="Trazado 1030955" d="M29.058,53.9l.036,0a.245.245,0,0,0,.206-.278l-1.445-9.852a.245.245,0,0,0-.278-.206.242.242,0,0,0-.206.276l1.447,9.852a.241.241,0,0,0,.24.21" transform="translate(22.077 35.138)"/>
        <path id="Trazado_1030956" data-name="Trazado 1030956" d="M11.28,49.494a.249.249,0,0,0,.152-.052l2.741-2.177a.244.244,0,1,0-.3-.383l-2.741,2.177a.244.244,0,0,0-.04.343.248.248,0,0,0,.192.092" transform="translate(8.902 37.776)"/>
        <path id="Trazado_1030957" data-name="Trazado 1030957" d="M7.316,61.4a.245.245,0,0,0,.146-.049l7.164-5.38a.245.245,0,0,0-.294-.392L7.17,60.962a.244.244,0,0,0,.146.439" transform="translate(5.705 44.797)"/>
        <path id="Trazado_1030958" data-name="Trazado 1030958" d="M11.24,114.788H29.7a.244.244,0,1,0,0-.488H11.24a.244.244,0,0,0,0,.488" transform="translate(8.87 92.205)" fill="#fff"/>
        <path id="Trazado_1030959" data-name="Trazado 1030959" d="M34.882,114.788H51.494a.244.244,0,1,0,0-.488H34.882a.244.244,0,0,0,0,.488" transform="translate(27.942 92.205)" fill="#fff"/>
        <path id="Trazado_1030960" data-name="Trazado 1030960" d="M39.48,111.787h2.746a.244.244,0,1,0,0-.488H39.48a.244.244,0,1,0,0,.488" transform="translate(31.651 89.784)" fill="#fff"/>
        <path id="Trazado_1030961" data-name="Trazado 1030961" d="M14.209,112.11h3.335a.244.244,0,1,0,0-.488H14.209a.244.244,0,1,0,0,.488" transform="translate(11.265 90.045)" fill="#fff"/>
        <path id="Trazado_1030962" data-name="Trazado 1030962" d="M53.09,51.608h-4.9l-2.929,10.4h4.014s3.536-3.111,3.81-10.4" transform="translate(36.515 41.632)" fill="#fff"/>
        <path id="Trazado_1030963" data-name="Trazado 1030963" d="M46.995,51.961h4.9a.244.244,0,0,0,0-.488h-4.9a.244.244,0,0,0,0,.488" transform="translate(37.714 41.523)"/>
        <path id="Trazado_1030964" data-name="Trazado 1030964" d="M45.374,57.717h4.014a.244.244,0,1,0,0-.488H45.374a.244.244,0,1,0,0,.488" transform="translate(36.406 46.166)"/>
        <path id="Trazado_1030965" data-name="Trazado 1030965" d="M46.485,53.54h5.541a.244.244,0,1,0,0-.488H46.485a.244.244,0,0,0,0,.488" transform="translate(37.302 42.797)"/>
        <path id="Trazado_1030966" data-name="Trazado 1030966" d="M46.184,54.98h5.433a.244.244,0,1,0,0-.488H46.184a.244.244,0,1,0,0,.488" transform="translate(37.059 43.958)"/>
        <path id="Trazado_1030967" data-name="Trazado 1030967" d="M45.8,56.359h5.218a.244.244,0,0,0,0-.488H45.8a.244.244,0,1,0,0,.488" transform="translate(36.746 45.071)"/>
        <rect id="Rectángulo_459851" data-name="Rectángulo 459851" width="15.079" height="40.37" transform="translate(136.508 37.873) rotate(-9.169)" fill="#fff"/>
        <path id="Trazado_1030968" data-name="Trazado 1030968" d="M84.923,33.1l-4.36.609L78.5,20.734l4.36-.609Z" transform="translate(63.324 16.235)" fill="#d7e4f2"/>
        <rect id="Rectángulo_459852" data-name="Rectángulo 459852" width="28.138" height="40.369" transform="matrix(0.987, -0.159, 0.159, 0.987, 108.729, 42.355)" fill="#d7e4f2"/>
        <path id="Trazado_1030969" data-name="Trazado 1030969" d="M80.775,52.969a.248.248,0,0,1-.246-.21L75.682,22.716a.249.249,0,0,1,.491-.079L81.02,52.68a.248.248,0,0,1-.206.285l-.04,0" transform="translate(61.049 18.092)"/>
        <path id="Trazado_1030970" data-name="Trazado 1030970" d="M73.078,34.932l-4.36.609L66.654,22.562l4.36-.609Z" transform="translate(53.769 17.709)" fill="#89b9e6"/>
        <path id="Trazado_1030971" data-name="Trazado 1030971" d="M75.457,49.995,71.1,50.6,69.035,37.624l4.358-.609Z" transform="translate(55.69 29.86)" fill="#89b9e6"/>
        <path id="Trazado_1030972" data-name="Trazado 1030972" d="M66.722,66.733a.247.247,0,0,1-.145-.047.26.26,0,0,1-.1-.163l-6.43-39.854a.25.25,0,0,1,.208-.287L102.918,19.5a.249.249,0,0,1,.285.206l6.434,39.854a.263.263,0,0,1-.045.186.251.251,0,0,1-.163.1L66.762,66.729l-.04,0m-6.143-39.9L66.93,66.2,109.1,59.392,102.751,20.03Z" transform="translate(48.436 15.726)"/>
        <path id="Trazado_1030973" data-name="Trazado 1030973" d="M74.621,62.444a.25.25,0,0,1-.246-.21L67.793,22.265A.252.252,0,0,1,68,21.977a.248.248,0,0,1,.284.206l6.58,39.971a.245.245,0,0,1-.2.285l-.04,0" transform="translate(54.686 17.726)"/>
      </g>
    </g>
  </g>
</svg>
