<svg xmlns="http://www.w3.org/2000/svg" xmlns:xlink="http://www.w3.org/1999/xlink" width="128" height="128" viewBox="0 0 128 128">
  <defs>
    <clipPath id="clip-path">
      <rect id="Rectángulo_456277" data-name="Rectángulo 456277" width="128" height="128" transform="translate(0 0)" fill="#d35560"/>
    </clipPath>
    <clipPath id="clip-path-2">
      <rect id="Rectángulo_459970" data-name="Rectángulo 459970" width="66.587" height="55.665" fill="#4d787e"/>
    </clipPath>
  </defs>
  <g id="Grupo_1186176" data-name="Grupo 1186176" transform="translate(13436 12681)">
    <g id="Grupo_1179924" data-name="Grupo 1179924" transform="translate(-13436 -12681)">
      <g id="Grupo_1179923" data-name="Grupo 1179923" transform="translate(0 0)" clip-path="url(#clip-path)">
        <path id="Trazado_1004716" data-name="Trazado 1004716" d="M63.534,127.068c-2.064,0-3.994-2.358-6.006-2.554-2.05-.2-4.4,1.735-6.388,1.341-2.016-.4-3.449-3.09-5.391-3.68-1.964-.6-4.65.839-6.526.059-1.892-.786-2.769-3.705-4.562-4.667s-4.72-.086-6.412-1.22-1.99-4.172-3.566-5.467-4.61-1-6.054-2.44-1.143-4.475-2.44-6.054-4.328-1.867-5.467-3.566-.252-4.608-1.22-6.411-3.881-2.67-4.668-4.562c-.78-1.877.656-4.563.059-6.526-.59-1.942-3.28-3.374-3.68-5.391-.395-1.987,1.541-4.338,1.34-6.388C2.358,67.528,0,65.6,0,63.534s2.358-3.994,2.554-6.006c.2-2.05-1.735-4.4-1.34-6.388.4-2.016,3.09-3.449,3.68-5.391.6-1.964-.839-4.65-.059-6.527C5.622,37.33,8.54,36.453,9.5,34.66s.085-4.719,1.22-6.412,4.171-1.99,5.466-3.566,1-4.61,2.441-6.054,4.475-1.143,6.053-2.44,1.867-4.328,3.566-5.467,4.608-.252,6.412-1.22,2.67-3.881,4.562-4.668c1.877-.78,4.563.656,6.527.059,1.942-.59,3.374-3.279,5.39-3.68,1.987-.395,4.338,1.541,6.388,1.341C59.54,2.358,61.47,0,63.534,0s3.994,2.358,6.006,2.554c2.05.2,4.4-1.735,6.388-1.341,2.016.4,3.449,3.09,5.391,3.68,1.964.6,4.65-.839,6.526-.059,1.892.786,2.769,3.705,4.562,4.668s4.72.085,6.412,1.22,1.99,4.171,3.566,5.466,4.61,1,6.054,2.441,1.143,4.475,2.44,6.053,4.328,1.867,5.467,3.566.252,4.608,1.22,6.412,3.881,2.67,4.667,4.562c.78,1.877-.656,4.563-.059,6.526.59,1.942,3.28,3.374,3.68,5.39.395,1.987-1.541,4.338-1.341,6.388.2,2.012,2.555,3.943,2.555,6.006s-2.358,3.994-2.555,6.007c-.2,2.049,1.735,4.4,1.341,6.388-.4,2.016-3.09,3.449-3.68,5.391-.6,1.964.839,4.65.059,6.526-.787,1.893-3.705,2.769-4.668,4.563s-.085,4.719-1.22,6.412-4.171,1.99-5.466,3.566-1,4.61-2.441,6.053-4.475,1.143-6.053,2.44-1.867,4.328-3.566,5.466-4.608.252-6.412,1.22-2.67,3.881-4.562,4.668c-1.877.78-4.563-.656-6.526-.059-1.942.59-3.374,3.279-5.39,3.68-1.987.395-4.338-1.541-6.388-1.341-2.013.2-3.943,2.554-6.007,2.554" transform="translate(0.466 0.466)" fill="#d35560"/>
        <path id="Trazado_1004717" data-name="Trazado 1004717" d="M14,71.524a57.524,57.524,0,1,1,57.524,57.524A57.524,57.524,0,0,1,14,71.524" transform="translate(-7.524 -7.524)" fill="#4d787e"/>
        <path id="Trazado_1004718" data-name="Trazado 1004718" d="M131.909,269.316c-.153-.646-.3-1.314-.433-1.969l-2.01-.256q.9-.478,1.765-.962-.191-.985-.361-1.967c.46.452.931.917,1.416,1.362q.847-.526,1.657-1.055-.359.929-.741,1.855c.5.431,1.015.868,1.54,1.3l-2.02-.151q-.4.926-.813,1.849" transform="translate(-73.422 -150.295)" fill="#ffffc5"/>
        <path id="Trazado_1004719" data-name="Trazado 1004719" d="M113.426,265.848c-.055-.66-.1-1.343-.133-2.011l-1.949-.555q.962-.338,1.89-.686-.042-1-.061-2c.387.515.783,1.047,1.2,1.558q.916-.393,1.8-.794-.494.863-1.01,1.722c.431.5.872,1.016,1.329,1.509-.661-.137-1.317-.3-1.976-.449q-.529.856-1.081,1.706" transform="translate(-63.08 -148.261)" fill="#ffffc5"/>
        <path id="Trazado_1004720" data-name="Trazado 1004720" d="M95.721,259.733c.05-.672.108-1.345.172-2.013l-1.845-.838c.667-.124,1.326-.26,1.972-.4q.109-1,.239-1.984c.305.568.62,1.144.948,1.721q.965-.252,1.9-.518-.618.78-1.258,1.552c.352.559.712,1.129,1.088,1.693l-1.886-.741q-.652.767-1.325,1.525" transform="translate(-53.209 -144.782)" fill="#ffffc5"/>
        <path id="Trazado_1004721" data-name="Trazado 1004721" d="M79.2,251.1q.225-.987.47-1.963c-.565-.37-1.144-.718-1.7-1.105.667-.007,1.349-.058,2.007-.1q.256-.968.531-1.924.327.909.684,1.839c.652-.056,1.311-.146,1.95-.226q-.729.68-1.477,1.349.4.908.824,1.833L80.734,249.8c-.506.44-1.023.883-1.534,1.3" transform="translate(-44.034 -139.94)" fill="#ffffc5"/>
        <path id="Trazado_1004722" data-name="Trazado 1004722" d="M64.221,240.181q.368-.941.753-1.869c-.505-.448-1.035-.87-1.513-1.347.655.1,1.335.151,2,.207q.4-.918.807-1.822.192.945.41,1.914c.643.054,1.314.055,1.959.07q-.822.565-1.663,1.117.26.954.548,1.929l-1.593-1.253c-.57.365-1.13.707-1.7,1.054" transform="translate(-35.752 -133.852)" fill="#ffffc5"/>
        <path id="Trazado_1004723" data-name="Trazado 1004723" d="M51.1,227.217q.5-.876,1.018-1.735l-.663-.766c-.22-.256-.421-.528-.631-.792l.961.27.978.232q.525-.849,1.065-1.68.053.96.129,1.947l.955.2.969.162q-.9.439-1.812.862.119.978.263,1.982c-.464-.491-.938-.973-1.393-1.471q-.912.4-1.839.789" transform="translate(-28.54 -126.659)" fill="#ffffc5"/>
        <path id="Trazado_1004724" data-name="Trazado 1004724" d="M39.841,212.493q.625-.791,1.262-1.563c-.18-.286-.37-.565-.542-.856l-.506-.878c.616.274,1.207.55,1.839.786.431-.508.857-1,1.3-1.505-.067.643-.112,1.285-.159,1.943.616.229,1.214.456,1.845.645-.636.2-1.279.4-1.921.584-.019.658-.025,1.321-.027,2-.384-.555-.8-1.089-1.158-1.663q-.963.264-1.938.509" transform="translate(-22.272 -118.515)" fill="#ffffc5"/>
        <path id="Trazado_1004725" data-name="Trazado 1004725" d="M30.615,196.327q.734-.688,1.478-1.357c-.292-.61-.523-1.245-.774-1.872.571.362,1.115.723,1.7,1.054.5-.435,1.006-.868,1.522-1.3-.18.632-.3,1.253-.45,1.9.582.315,1.13.632,1.724.915-.662.106-1.323.2-1.978.288-.136.656-.223,1.3-.328,1.971-.3-.6-.629-1.2-.9-1.817q-.992.118-1.994.216" transform="translate(-17.006 -109.601)" fill="#ffffc5"/>
        <path id="Trazado_1004726" data-name="Trazado 1004726" d="M24.019,178.752q.829-.57,1.663-1.119c-.2-.646-.321-1.312-.483-1.967.509.444,1,.88,1.517,1.3.554-.355,1.135-.71,1.7-1.054-.278.6-.493,1.2-.732,1.809.526.4,1.033.792,1.563,1.164-.674.006-1.326,0-1.993-.014-.242.632-.419,1.256-.622,1.9-.221-.639-.438-1.278-.611-1.932q-1-.032-2.006-.086" transform="translate(-13.242 -99.79)" fill="#ffffc5"/>
        <path id="Trazado_1004727" data-name="Trazado 1004727" d="M20.215,160.164q.9-.439,1.812-.856c-.1-.668-.122-1.345-.182-2.018.437.516.856,1.02,1.3,1.511.6-.268,1.228-.532,1.843-.787-.365.551-.665,1.108-1,1.68.459.473.9.937,1.37,1.386-.665-.1-1.309-.2-1.967-.313-.334.588-.606,1.179-.9,1.785l-.179-1c-.056-.333-.089-.67-.135-1q-.984-.182-1.97-.386" transform="translate(-11.071 -89.302)" fill="#ffffc5"/>
        <path id="Trazado_1004728" data-name="Trazado 1004728" d="M19.269,141.311q.961-.3,1.921-.579c0-.676.063-1.349.115-2.022.359.574.682,1.135,1.072,1.687.64-.176,1.276-.346,1.93-.507-.428.492-.816,1-1.228,1.515.386.537.744,1.062,1.152,1.574q-.966-.29-1.905-.6c-.412.532-.767,1.076-1.153,1.631-.015-.675-.047-1.35-.015-2.025q-.945-.325-1.889-.673" transform="translate(-10.531 -78.698)" fill="#ffffc5"/>
        <path id="Trazado_1004729" data-name="Trazado 1004729" d="M21.174,122.6q1-.154,1.988-.286c.063-.332.112-.667.186-1l.228-.987c.266.621.507,1.224.81,1.828.663-.078,1.31-.152,1.981-.213-.489.424-.956.865-1.438,1.314.3.588.572,1.159.909,1.727-.6-.285-1.214-.58-1.8-.878-.471.467-.917.95-1.379,1.443.094-.668.149-1.343.283-2.006q-.885-.462-1.767-.947" transform="translate(-11.618 -68.211)" fill="#ffffc5"/>
        <path id="Trazado_1004730" data-name="Trazado 1004730" d="M25.928,104.462q1.007,0,2.007.015c.2-.644.459-1.27.708-1.9.173.655.316,1.286.525,1.929.664.021,1.322.048,1.994.088-.554.343-1.076.71-1.622,1.083.211.627.392,1.231.639,1.844-.553-.373-1.111-.756-1.647-1.139-.539.39-1.05.8-1.581,1.22.192-.648.351-1.305.583-1.941q-.806-.59-1.605-1.2" transform="translate(-14.331 -58.078)" fill="#ffffc5"/>
        <path id="Trazado_1004731" data-name="Trazado 1004731" d="M33.429,87.3q1,.147,1.98.315c.295-.608.656-1.181.986-1.77.071.672.132,1.326.228,1.984.648.118,1.311.252,1.964.389-.612.249-1.172.54-1.769.826.114.651.212,1.281.353,1.918-.5-.454-.976-.909-1.452-1.37-.6.3-1.159.634-1.749.966.279-.615.548-1.235.869-1.83q-.71-.7-1.409-1.43" transform="translate(-18.612 -48.53)" fill="#ffffc5"/>
        <path id="Trazado_1004732" data-name="Trazado 1004732" d="M43.489,71.506q.961.294,1.909.6c.393-.549.828-1.067,1.24-1.6q-.046,1.012-.071,2,.952.332,1.89.68c-.638.159-1.255.349-1.876.551q.02.988.06,1.948-.62-.775-1.225-1.566c-.642.206-1.253.446-1.878.692l.547-.853.586-.826q-.6-.8-1.183-1.625" transform="translate(-24.354 -39.775)" fill="#ffffc5"/>
        <path id="Trazado_1004733" data-name="Trazado 1004733" d="M55.279,57.409q.906.431,1.8.878l1.465-1.4q-.193,1-.359,1.97.891.467,1.766.95c-.646.071-1.3.15-1.94.264q-.124.983-.224,1.941-.5-.858-.981-1.732l-.989.183c-.327.067-.647.145-.974.22.432-.519.906-1,1.372-1.49q-.474-.884-.932-1.784" transform="translate(-30.831 -32.001)" fill="#ffffc5"/>
        <path id="Trazado_1004734" data-name="Trazado 1004734" d="M69.057,45.313c.553.372,1.1.749,1.652,1.141l1.651-1.175q-.335.961-.641,1.9.811.592,1.6,1.2c-.643-.015-1.315-.05-1.961-.03q-.265.958-.5,1.893-.367-.923-.716-1.861c-.659.027-1.347.038-2,.105.5-.451,1.054-.844,1.579-1.269q-.339-.946-.66-1.905" transform="translate(-38.421 -25.376)" fill="#ffffc5"/>
        <path id="Trazado_1004735" data-name="Trazado 1004735" d="M84.591,34.886c.492.45.986.918,1.469,1.382l1.8-.925q-.473.9-.914,1.792.713.705,1.407,1.42c-.634-.113-1.284-.229-1.937-.325q-.4.911-.774,1.8-.227-.969-.434-1.949c-.656-.071-1.331-.15-2-.2.577-.351,1.169-.678,1.752-1.018q-.2-.986-.371-1.985" transform="translate(-47.023 -19.444)" fill="#ffffc5"/>
        <path id="Trazado_1004736" data-name="Trazado 1004736" d="M101.552,26.946q.634.791,1.246,1.589c.64-.214,1.278-.44,1.921-.644-.405.538-.792,1.094-1.172,1.634q.6.8,1.177,1.613-.916-.311-1.866-.611c-.358.554-.7,1.119-1.034,1.67q-.08-.993-.139-1.994-.958-.254-1.949-.5l1.885-.745c-.03-.669-.056-1.348-.069-2.016" transform="translate(-56.455 -14.913)" fill="#ffffc5"/>
        <path id="Trazado_1004737" data-name="Trazado 1004737" d="M119.566,21.733q.507.876.993,1.758c.665-.115,1.329-.246,2-.349-.482.468-.948.962-1.4,1.439q.472.883.922,1.771-.858-.444-1.753-.883c-.439.486-.86,1-1.273,1.495q.07-.994.162-1.994-.908-.394-1.852-.78l1.974-.457c.071-.666.147-1.344.235-2" transform="translate(-66.511 -11.938)" fill="#ffffc5"/>
        <path id="Trazado_1004738" data-name="Trazado 1004738" d="M138.214,19.35q.371.944.72,1.888l2.025-.051q-.819.609-1.6,1.218.335.945.648,1.89-.784-.569-1.6-1.138c-.507.424-1,.862-1.483,1.29q.218-.972.459-1.946-.84-.527-1.715-1.051l2.02-.154c.17-.648.346-1.305.531-1.947" transform="translate(-76.959 -10.578)" fill="#ffffc5"/>
        <path id="Trazado_1004739" data-name="Trazado 1004739" d="M157.075,19.831c.153.647.3,1.314.433,1.969l2.01.256q-.9.478-1.765.962.191.985.36,1.967c-.46-.452-.931-.917-1.416-1.362q-.847.526-1.657,1.055.359-.929.741-1.855c-.5-.431-1.014-.868-1.54-1.3l2.021.151q.4-.926.813-1.849" transform="translate(-87.562 -10.852)" fill="#ffffc5"/>
        <path id="Trazado_1004740" data-name="Trazado 1004740" d="M175.741,23.17c.055.66.1,1.343.134,2.011l1.949.555q-.962.338-1.89.686.042,1,.061,2c-.387-.515-.782-1.047-1.2-1.558q-.916.393-1.8.794.494-.864,1.01-1.722c-.431-.5-.872-1.016-1.329-1.509.661.137,1.317.3,1.976.449q.53-.856,1.081-1.706" transform="translate(-98.088 -12.758)" fill="#ffffc5"/>
        <path id="Trazado_1004741" data-name="Trazado 1004741" d="M193.559,29.313c-.05.672-.108,1.345-.172,2.012l1.845.838c-.667.125-1.326.261-1.972.4q-.109,1-.239,1.984c-.305-.568-.62-1.144-.948-1.721q-.965.252-1.9.518.618-.78,1.257-1.552c-.351-.559-.712-1.129-1.087-1.693l1.886.741q.652-.767,1.325-1.525" transform="translate(-108.072 -16.264)" fill="#ffffc5"/>
        <path id="Trazado_1004742" data-name="Trazado 1004742" d="M209.923,38.133q-.225.987-.47,1.963c.565.37,1.144.718,1.7,1.105-.667.007-1.349.058-2.007.1q-.256.968-.531,1.924-.327-.909-.684-1.839c-.652.056-1.311.146-1.95.226q.729-.68,1.477-1.349-.4-.908-.824-1.833l1.756,1.011c.506-.44,1.022-.883,1.534-1.3" transform="translate(-117.09 -21.297)" fill="#ffffc5"/>
        <path id="Trazado_1004743" data-name="Trazado 1004743" d="M224.9,49.134q-.368.941-.753,1.869c.505.448,1.035.87,1.513,1.347-.655-.1-1.335-.151-2-.206q-.4.918-.807,1.822-.192-.945-.41-1.913c-.643-.055-1.314-.055-1.959-.07q.823-.565,1.663-1.117-.26-.954-.548-1.929l1.593,1.252c.57-.365,1.13-.707,1.7-1.054" transform="translate(-125.371 -27.463)" fill="#ffffc5"/>
        <path id="Trazado_1004744" data-name="Trazado 1004744" d="M238.176,61.933q-.5.876-1.018,1.735l.663.766c.22.256.42.528.632.792l-.961-.27-.978-.232q-.525.849-1.065,1.68-.053-.96-.129-1.947l-.955-.2-.969-.162q.9-.439,1.812-.862-.119-.978-.263-1.982c.464.491.938.973,1.393,1.471q.912-.4,1.839-.789" transform="translate(-132.736 -34.491)" fill="#ffffc5"/>
        <path id="Trazado_1004745" data-name="Trazado 1004745" d="M249.453,76.636q-.625.791-1.261,1.563c.18.285.37.565.542.856l.506.878c-.616-.274-1.207-.55-1.839-.786-.431.508-.857,1-1.3,1.505.067-.643.112-1.285.159-1.943-.616-.229-1.214-.455-1.845-.645.636-.2,1.279-.4,1.921-.585.019-.657.025-1.32.027-2,.384.555.8,1.089,1.158,1.663q.963-.264,1.938-.509" transform="translate(-139.022 -42.614)" fill="#ffffc5"/>
        <path id="Trazado_1004746" data-name="Trazado 1004746" d="M258.476,92.93q-.734.688-1.478,1.357c.292.61.523,1.245.774,1.872-.571-.362-1.115-.722-1.7-1.054-.5.435-1.006.868-1.522,1.3.18-.632.3-1.253.45-1.9-.582-.315-1.13-.632-1.724-.915.662-.106,1.324-.2,1.978-.288.136-.656.223-1.3.328-1.971.3.6.629,1.2.9,1.818q.992-.118,1.994-.215" transform="translate(-144.085 -51.657)" fill="#ffffc5"/>
        <path id="Trazado_1004747" data-name="Trazado 1004747" d="M265.025,110.463q-.829.571-1.663,1.119c.2.646.321,1.312.483,1.967-.509-.444-1-.88-1.517-1.3-.554.355-1.135.71-1.7,1.054.278-.6.493-1.195.733-1.809-.526-.4-1.033-.792-1.563-1.164.674-.006,1.326,0,1.993.014.242-.631.419-1.256.622-1.9.221.639.438,1.278.611,1.932q1,.032,2.006.086" transform="translate(-147.801 -61.426)" fill="#ffffc5"/>
        <path id="Trazado_1004748" data-name="Trazado 1004748" d="M268.935,128.842q-.9.439-1.812.856c.1.668.122,1.345.182,2.018-.437-.516-.856-1.02-1.3-1.511-.6.268-1.228.532-1.843.787.365-.551.665-1.108,1-1.68-.459-.473-.9-.937-1.37-1.386.665.1,1.309.2,1.967.313.334-.588.606-1.178.9-1.785l.179,1c.056.333.089.67.135,1q.984.182,1.97.386" transform="translate(-150.079 -71.704)" fill="#ffffc5"/>
        <path id="Trazado_1004749" data-name="Trazado 1004749" d="M270.032,147.643q-.961.3-1.921.579c0,.676-.063,1.349-.115,2.022-.359-.574-.682-1.135-1.072-1.687-.64.176-1.276.346-1.93.507.428-.492.816-1,1.228-1.515-.386-.537-.744-1.062-1.152-1.574q.966.29,1.905.6c.412-.532.767-1.076,1.153-1.631.015.675.047,1.35.015,2.025q.945.326,1.889.673" transform="translate(-150.77 -82.257)" fill="#ffffc5"/>
        <path id="Trazado_1004750" data-name="Trazado 1004750" d="M267.922,166.455q-1,.154-1.988.286c-.063.332-.112.667-.186,1l-.228.987c-.266-.621-.507-1.224-.81-1.828-.663.078-1.31.152-1.981.213.489-.424.956-.865,1.439-1.314-.3-.588-.572-1.159-.909-1.727.6.285,1.214.58,1.8.878.471-.467.917-.95,1.379-1.443-.094.668-.149,1.343-.283,2.006q.885.462,1.767.947" transform="translate(-149.478 -92.847)" fill="#ffffc5"/>
        <path id="Trazado_1004751" data-name="Trazado 1004751" d="M263.113,184.858q-1.007,0-2.007-.015c-.2.644-.459,1.27-.708,1.9-.173-.655-.315-1.287-.525-1.929-.664-.021-1.322-.048-1.994-.088.554-.343,1.076-.71,1.622-1.083-.211-.626-.391-1.231-.639-1.844.553.373,1.111.755,1.647,1.138.539-.39,1.05-.8,1.581-1.219-.192.647-.351,1.305-.583,1.94q.806.59,1.605,1.2" transform="translate(-146.71 -103.243)" fill="#ffffc5"/>
        <path id="Trazado_1004752" data-name="Trazado 1004752" d="M255.713,201.893q-1-.147-1.98-.315c-.295.608-.656,1.181-.986,1.769-.071-.672-.132-1.326-.228-1.984-.648-.118-1.311-.252-1.964-.389.612-.249,1.172-.54,1.769-.826-.114-.651-.211-1.281-.353-1.918.5.454.976.909,1.452,1.37.6-.3,1.159-.634,1.749-.966-.279.615-.548,1.235-.868,1.83q.709.7,1.408,1.429" transform="translate(-142.53 -112.667)" fill="#ffffc5"/>
        <path id="Trazado_1004753" data-name="Trazado 1004753" d="M245.906,217.614q-.961-.293-1.909-.6c-.393.549-.828,1.067-1.24,1.6q.046-1.012.071-2-.952-.332-1.89-.68c.638-.159,1.255-.349,1.876-.551q-.02-.988-.06-1.948.62.775,1.225,1.566c.642-.206,1.253-.446,1.878-.692l-.547.853-.586.826q.6.8,1.183,1.625" transform="translate(-137.041 -121.346)" fill="#ffffc5"/>
        <path id="Trazado_1004754" data-name="Trazado 1004754" d="M233.928,231.779q-.906-.431-1.8-.878l-1.465,1.4q.193-1,.359-1.97-.891-.467-1.766-.95c.646-.071,1.3-.15,1.94-.264q.124-.983.224-1.941.5.858.981,1.732l.989-.183c.327-.067.647-.145.974-.22-.432.519-.906,1-1.372,1.49q.474.884.932,1.784" transform="translate(-130.376 -129.187)" fill="#ffffc5"/>
        <path id="Trazado_1004755" data-name="Trazado 1004755" d="M220.049,244.088c-.553-.372-1.1-.749-1.652-1.141l-1.651,1.175q.335-.961.641-1.9-.811-.592-1.6-1.2c.643.015,1.315.05,1.961.03q.265-.958.5-1.893.367.923.717,1.861c.659-.027,1.347-.038,2-.105-.5.451-1.054.844-1.579,1.269q.339.946.66,1.905" transform="translate(-122.685 -136.026)" fill="#ffffc5"/>
        <path id="Trazado_1004756" data-name="Trazado 1004756" d="M204.568,254.268c-.492-.449-.986-.918-1.469-1.382l-1.8.925q.473-.9.914-1.792-.713-.706-1.407-1.421c.634.113,1.284.229,1.937.325q.4-.91.774-1.8.227.97.434,1.95c.656.071,1.33.149,2,.2-.577.352-1.168.678-1.752,1.019q.2.986.371,1.984" transform="translate(-114.135 -141.71)" fill="#ffffc5"/>
        <path id="Trazado_1004757" data-name="Trazado 1004757" d="M187.815,262.073q-.634-.791-1.246-1.589c-.64.214-1.278.44-1.921.644.405-.538.793-1.094,1.172-1.634q-.6-.8-1.177-1.613.916.311,1.866.611c.358-.554.7-1.119,1.034-1.67q.08.993.139,1.995.958.254,1.949.5l-1.885.745c.03.669.056,1.348.069,2.016" transform="translate(-104.913 -146.107)" fill="#ffffc5"/>
        <path id="Trazado_1004758" data-name="Trazado 1004758" d="M169.522,267.312q-.507-.876-.993-1.758c-.665.116-1.329.246-2,.349.482-.468.948-.963,1.4-1.439q-.472-.883-.922-1.771.858.444,1.753.883c.439-.486.86-1,1.273-1.495q-.07.994-.162,1.994.908.394,1.852.78l-1.974.457c-.071.666-.147,1.344-.235,2" transform="translate(-94.577 -149.108)" fill="#ffffc5"/>
        <path id="Trazado_1004759" data-name="Trazado 1004759" d="M150.745,269.873q-.371-.943-.719-1.888l-2.025.051q.819-.609,1.6-1.219-.336-.945-.648-1.89.784.569,1.6,1.138c.507-.424,1-.862,1.483-1.29q-.218.972-.459,1.946.84.527,1.715,1.05l-2.02.154c-.17.648-.346,1.305-.531,1.946" transform="translate(-84 -150.646)" fill="#ffffc5"/>
        <path id="Trazado_1004760" data-name="Trazado 1004760" d="M83.637,132.05A48.412,48.412,0,1,1,132.05,83.637,48.467,48.467,0,0,1,83.637,132.05" transform="translate(-19.637 -19.638)" fill="#fff7e8"/>
      </g>
    </g>
    <g id="Grupo_1180053" data-name="Grupo 1180053" transform="translate(-13402.254 -12647.618)">
      <rect id="Rectángulo_401104" data-name="Rectángulo 401104" width="60.508" height="61.237" transform="translate(0)" fill="none"/>
    </g>
    <g id="Grupo_1187778" data-name="Grupo 1187778" transform="translate(-13405.294 -12647.618)">
      <g id="Grupo_1187777" data-name="Grupo 1187777" clip-path="url(#clip-path-2)">
        <path id="Trazado_1033373" data-name="Trazado 1033373" d="M1.65,51.623c9.223-.041,18.446-.023,27.67-.025a10.678,10.678,0,0,0,1.275-.033.714.714,0,0,0,.705-.738.7.7,0,0,0-.666-.772,6.672,6.672,0,0,0-1.131-.042Q16.165,50,2.826,50c-.751,0-1.309.067-1.3-1.065.058-9.317.051-18.636.032-27.953,0-.849.215-1.128,1.11-1.127q28.8.04,57.61,0c.911,0,1.1.295,1.084,1.135-.044,3.026-.016,6.054-.008,9.081,0,.6-.138,1.365.771,1.374s.8-.772.806-1.365c.016-3.311-.022-6.622.03-9.932A1.836,1.836,0,0,0,61.4,18.075C52.707,15.3,44.046,12.429,35.371,9.6c-.745-.243-1.2-.407-.7-1.394A2.842,2.842,0,0,0,33.836,4.4,2.99,2.99,0,0,1,32.2.977a1.047,1.047,0,0,0-.006-.142c-.011-.495-.239-.844-.75-.835a.728.728,0,0,0-.754.832c.006.662.041,1.327-.011,1.986-.1,1.21.093,2.088,1.568,2.335a1.62,1.62,0,0,1,1.191,1.87,1.844,1.844,0,0,1-1.419,1.741c-1.2.347-1.965-.106-2.55-1.546-.2-.5-.37-1.028-1.074-.8s-.563.79-.4,1.289.391.948.605,1.455c-.312.138-.6.295-.9.394-8.76,2.858-17.514,5.734-26.293,8.535a1.638,1.638,0,0,0-1.4,1.863Q.063,35,0,50.037c-.006,1.285.442,1.592,1.649,1.587M13.1,15.978c5.4-1.777,10.794-3.565,16.2-5.307a6.867,6.867,0,0,1,4.159-.062c7.382,2.363,14.731,4.827,22.091,7.258.256.084.544.129.661.451H6.834l-.062-.232c2.11-.7,4.219-1.414,6.332-2.109" transform="translate(-0.001 0)" fill="#4d787e"/>
        <path id="Trazado_1033374" data-name="Trazado 1033374" d="M162.211,153.161a21.487,21.487,0,0,0-14.287-5.563c-6.7.291-12.191,3.86-16.688,9.278a1.2,1.2,0,0,0,.014,1.754,30.966,30.966,0,0,0,4.645,4.561c4.713,3.664,9.955,5.537,15.969,4.409,4.956-.93,8.941-3.617,12.391-7.194,2.5-2.589,2.514-2.6.084-5.163a29.662,29.662,0,0,0-2.128-2.082m-20.394,11.8a24.819,24.819,0,0,1-8.643-6.48c-.446-.494-.579-.862-.082-1.421a24.2,24.2,0,0,1,10.766-7.239,1.185,1.185,0,0,1,1.062.006c-6.9,3.863-6.493,12.608.477,16.057a8.178,8.178,0,0,1-3.579-.922m-.261-7.251a7,7,0,1,1,7.06,7.061,6.889,6.889,0,0,1-7.06-7.061m22.616.416c-3.521,4.108-7.722,7.084-13.17,7.994,3.732-1.368,5.983-4.008,6.125-7.979a8.12,8.12,0,0,0-4.98-8.165l-1.832-.634a3.057,3.057,0,0,1,2.114.352c4.822,1.074,8.479,3.935,11.625,7.58.231.267.415.505.117.854" transform="translate(-99.558 -112.29)" fill="#4d787e"/>
        <path id="Trazado_1033375" data-name="Trazado 1033375" d="M169.221,133.474c.612.019.76-.459.763-.975.009-1.371.05-2.744,0-4.114a3.081,3.081,0,0,0-3.277-3.143,30.5,30.5,0,0,0-3.686.012,2.041,2.041,0,0,1-2.5-1.611,2.949,2.949,0,0,0-3.339-2.2,48.126,48.126,0,0,1-6.238.007c-2.322-.192-3.856.558-4.485,2.857-.214.781-.693.979-1.464.951-1.511-.055-3.027-.041-4.539,0a2.943,2.943,0,0,0-2.97,2.817c-.084,1.366-.014,2.741-.023,4.112,0,.529.14.984.735,1,.734.026.769-.535.765-1.086-.008-1.04-.016-2.081-.011-3.121.009-1.764.471-2.232,2.284-2.26,1.608-.025,3.216-.042,4.823,0,.654.016,1.216-.174,1.339-.779.589-2.9,2.567-3.323,5.046-2.96a7.9,7.9,0,0,0,1.134.007,14.366,14.366,0,0,0,1.984-.015c2.117-.3,3.659.208,4.177,2.555.209.944.911,1.278,1.921,1.217,1.46-.089,2.931-.024,4.4-.011,1.8.016,2.4.6,2.405,2.347q.008,1.7,0,3.4c0,.54.188.97.762.987" transform="translate(-104.567 -92.374)" fill="#4d787e"/>
        <path id="Trazado_1033376" data-name="Trazado 1033376" d="M118.252,104.382q0-2.27,0-4.539,0-3.759.007-7.518c0-.611-.091-1.2-.882-1.16-.7.033-.751.6-.76,1.139,0,.189,0,.378,0,.567q0,7.376,0,14.752c0,2.884.007,5.768-.008,8.652,0,.646.183,1.209.881,1.175.586-.029.814-.558.766-1.153-.019-.235,0-.473,0-.709q0-5.6,0-11.206" transform="translate(-88.713 -69.355)" fill="#4d787e"/>
        <path id="Trazado_1033377" data-name="Trazado 1033377" d="M94.713,117.466c.577-.012.707-.534.731-1.036.011-.236.009-.473.009-.709q.008-11.564.009-23.128c0-.581.176-1.364-.736-1.418-1.039-.061-.868.77-.869,1.41q-.009,5.818,0,11.635h.005q0,4.9,0,9.79c0,.8.011,1.608-.011,2.412-.017.622.256,1.058.865,1.044" transform="translate(-71.398 -69.362)" fill="#4d787e"/>
        <path id="Trazado_1033378" data-name="Trazado 1033378" d="M48.457,91.2c-1.04-.036-.825.824-.827,1.447-.011,3.873-.005,7.746,0,11.619s0,7.746,0,11.619c0,.638-.179,1.49.786,1.525,1,.036.837-.831.838-1.464q.014-11.619,0-23.238c0-.621.2-1.474-.8-1.508" transform="translate(-36.223 -69.386)" fill="#4d787e"/>
        <path id="Trazado_1033379" data-name="Trazado 1033379" d="M71.8,91.171c-.851-.059-.837.593-.837,1.17q.008,11.923.024,23.846c0,.6.024,1.237.8,1.232.815,0,.734-.684.733-1.258q-.005-5.962,0-11.923h.005q0-5.89,0-11.781c0-.555.119-1.228-.718-1.286" transform="translate(-53.987 -69.359)" fill="#4d787e"/>
        <path id="Trazado_1033380" data-name="Trazado 1033380" d="M25.608,91.177c-.868.051-.68.75-.681,1.29q-.009,5.815,0,11.63,0,5.957,0,11.914c0,.61-.12,1.382.767,1.387.916,0,.75-.806.751-1.389q.017-11.772.01-23.544c0-.6.116-1.345-.846-1.288" transform="translate(-18.951 -69.364)" fill="#4d787e"/>
        <path id="Trazado_1033381" data-name="Trazado 1033381" d="M162.875,99.261c0,.557.127,1.082.832,1.067.592-.013.8-.451.8-.97q.018-3.613.005-7.227c0-.512-.169-.954-.779-.98-.7-.03-.863.451-.867,1.025-.007,1.134,0,2.267,0,3.4h.007c0,1.228-.007,2.456,0,3.684" transform="translate(-123.904 -69.345)" fill="#4d787e"/>
        <path id="Trazado_1033382" data-name="Trazado 1033382" d="M246.005,213.623c-.944.028-1.89.018-2.835.031-.471.006-.86.167-.885.7-.03.638.409.774.937.772.615,0,1.229,0,1.843,0,.189,0,.379-.012.567,0,3.286.244,4.35-1.5,4.106-4.558-.043-.533-.175-.954-.807-.914-.512.033-.736.359-.72.865.009.283.006.567,0,.851-.039,1.668-.55,2.2-2.205,2.248" transform="translate(-184.325 -159.503)" fill="#4d787e"/>
        <path id="Trazado_1033383" data-name="Trazado 1033383" d="M141.9,215.3c.69-.157,1.906.512,1.933-.7.027-1.236-1.2-.741-1.893-.752-3.15-.048-3.157-.019-3.746-3.1a.916.916,0,0,0-.8-.848.6.6,0,0,0-.651.413,3.658,3.658,0,0,0,2.754,4.967,16.121,16.121,0,0,0,1.7.009v.022a3.262,3.262,0,0,0,.706-.008" transform="translate(-103.809 -159.679)" fill="#4d787e"/>
        <path id="Trazado_1033384" data-name="Trazado 1033384" d="M140.84,100.8c.633.051.761-.436.764-.944q.025-3.89.032-7.779c0-.52-.181-.941-.814-.918-.649.024-.72.473-.717.987.007,1.226,0,2.452,0,3.677,0,1.32,0,2.64,0,3.96,0,.532.168.97.738,1.017" transform="translate(-106.587 -69.348)" fill="#4d787e"/>
        <path id="Trazado_1033385" data-name="Trazado 1033385" d="M233.663,91.86a.74.74,0,0,0-.85-.738.678.678,0,0,0-.689.74c-.017,1.6-.007,3.192.044,4.787a.7.7,0,0,0,.826.748c.522-.061.692-.414.691-.89q0-1.057,0-2.113h-.009c0-.845.032-1.692-.012-2.534" transform="translate(-176.59 -69.324)" fill="#4d787e"/>
        <path id="Trazado_1033386" data-name="Trazado 1033386" d="M209.1,95.985a.747.747,0,0,0,.782.807c.557.024.768-.358.783-.8.046-1.358.063-2.718.036-4.076-.01-.5-.269-.912-.882-.86s-.745.467-.74.99c.006.609,0,1.219,0,1.828h.014c0,.7-.017,1.407.006,2.109" transform="translate(-159.061 -69.272)" fill="#4d787e"/>
        <path id="Trazado_1033387" data-name="Trazado 1033387" d="M187.829,91.822a.667.667,0,0,0-.74-.682.654.654,0,0,0-.748.67c-.014,1.461,0,2.922.022,4.383a.683.683,0,0,0,.735.7c.532.012.736-.339.739-.829,0-.66,0-1.32,0-1.98,0-.754.016-1.509-.008-2.262" transform="translate(-141.761 -69.338)" fill="#4d787e"/>
        <path id="Trazado_1033388" data-name="Trazado 1033388" d="M251.771,150.041a1.027,1.027,0,0,0,1.055,1.085c.695.044,1.006-.381,1.12-.992-.129-.606-.374-1.086-1.085-1.085-.66,0-1.1.294-1.09.993" transform="translate(-191.543 -113.393)" fill="#4d787e"/>
        <path id="Trazado_1033389" data-name="Trazado 1033389" d="M214.3,155.107a3.057,3.057,0,0,0-2.115-.352l1.832.634c-.068-.257-.014-.39.283-.283" transform="translate(-161.428 -117.707)" fill="#4d787e"/>
        <path id="Trazado_1033390" data-name="Trazado 1033390" d="M220.044,156.226c-.3-.108-.351.026-.283.283l.283-.283" transform="translate(-167.171 -118.826)" fill="#4d787e"/>
        <path id="Trazado_1033391" data-name="Trazado 1033391" d="M185.4,165.468c-.619.1-1.3.182-1.511.849s.506.8.866,1.135a1.437,1.437,0,0,1,.228,2.229,1.452,1.452,0,0,1-2.246,0,2.257,2.257,0,0,1-.372-.424c-.709-1.026-1.219-.59-1.627.241a3.553,3.553,0,0,0-.307,1.082,5.845,5.845,0,1,0,4.97-5.107m.862,10.219a4.1,4.1,0,0,1-4.117-4.185c3.713.673,5.386-.927,4.5-4.3a3.98,3.98,0,0,1,3.916,4.133,4.378,4.378,0,0,1-4.3,4.354" transform="translate(-137.23 -125.83)" fill="#4d787e"/>
      </g>
    </g>
  </g>
</svg>
