<svg xmlns="http://www.w3.org/2000/svg" xmlns:xlink="http://www.w3.org/1999/xlink" width="98" height="98" viewBox="0 0 98 98">
  <defs>
    <clipPath id="clip-path">
      <rect id="Rectángulo_456277" data-name="Rectángulo 456277" width="98" height="98" transform="translate(0.31 0.309)" fill="#d35560"/>
    </clipPath>
    <clipPath id="clip-path-2">
      <rect id="Rectángulo_459967" data-name="Rectángulo 459967" width="51.181" height="50.146" fill="#fff"/>
    </clipPath>
  </defs>
  <g id="Grupo_1180341" data-name="Grupo 1180341" transform="translate(13435.691 12680.691)">
    <g id="Grupo_1179924" data-name="Grupo 1179924" transform="translate(-13436.001 -12681)">
      <g id="Grupo_1179923" data-name="Grupo 1179923" transform="translate(0 0)" clip-path="url(#clip-path)">
        <path id="Trazado_1004716" data-name="Trazado 1004716" d="M48.95,97.9c-1.59,0-3.077-1.816-4.627-1.968-1.579-.154-3.391,1.337-4.922,1.033-1.554-.309-2.657-2.381-4.153-2.835-1.513-.46-3.582.647-5.028.045s-2.134-2.855-3.515-3.6-3.636-.066-4.94-.94-1.533-3.214-2.747-4.212-3.552-.768-4.664-1.88-.88-3.448-1.88-4.664-3.335-1.438-4.212-2.747-.194-3.55-.94-4.94-2.99-2.057-3.6-3.515.505-3.515.046-5.028c-.455-1.5-2.527-2.6-2.835-4.153-.3-1.531,1.187-3.343,1.033-4.921C1.816,52.028,0,50.54,0,48.95s1.816-3.077,1.968-4.627C2.122,42.744.631,40.932.935,39.4c.308-1.554,2.38-2.657,2.835-4.153.46-1.513-.646-3.583-.045-5.029s2.855-2.133,3.6-3.515.066-3.636.94-4.94,3.214-1.533,4.212-2.747.768-3.552,1.881-4.664,3.448-.88,4.664-1.88,1.438-3.335,2.747-4.212,3.55-.194,4.94-.94,2.057-2.99,3.515-3.6,3.515.505,5.029.045c1.5-.454,2.6-2.527,4.153-2.835,1.531-.3,3.343,1.187,4.921,1.033C45.873,1.816,47.36,0,48.95,0s3.077,1.816,4.627,1.968C55.157,2.122,56.969.631,58.5.935c1.554.309,2.657,2.381,4.154,2.835,1.513.46,3.582-.647,5.028-.045s2.134,2.855,3.515,3.6,3.636.066,4.94.94,1.533,3.214,2.747,4.212,3.552.768,4.664,1.881.88,3.448,1.88,4.664,3.335,1.438,4.212,2.747.194,3.55.94,4.94,2.99,2.057,3.6,3.515-.505,3.515-.045,5.028c.455,1.5,2.527,2.6,2.835,4.153.3,1.531-1.187,3.343-1.033,4.922.152,1.551,1.968,3.038,1.968,4.627s-1.816,3.077-1.968,4.628c-.154,1.579,1.337,3.39,1.033,4.921-.308,1.554-2.38,2.657-2.835,4.154-.46,1.513.646,3.582.045,5.028s-2.855,2.134-3.6,3.515-.066,3.636-.94,4.94-3.214,1.533-4.212,2.747-.768,3.552-1.881,4.664-3.448.88-4.664,1.88-1.438,3.335-2.747,4.212-3.55.194-4.94.94-2.057,2.99-3.515,3.6-3.515-.505-5.028-.045c-1.5.454-2.6,2.527-4.153,2.835-1.531.3-3.343-1.187-4.921-1.033-1.551.151-3.038,1.968-4.628,1.968" transform="translate(0.359 0.359)" fill="#d35560"/>
        <path id="Trazado_1004717" data-name="Trazado 1004717" d="M14,58.32a44.32,44.32,0,1,1,44.32,44.32A44.32,44.32,0,0,1,14,58.32" transform="translate(-9.01 -9.011)" fill="#a2cbcf"/>
        <path id="Trazado_1021102" data-name="Trazado 1021102" d="M14,55.014A41.014,41.014,0,1,1,55.014,96.029,41.015,41.015,0,0,1,14,55.014" transform="translate(-5.706 -5.705)" fill="#952d36"/>
      </g>
    </g>
    <g id="Grupo_1180053" data-name="Grupo 1180053" transform="translate(-13413.503 -12658.826)">
      <rect id="Rectángulo_401104" data-name="Rectángulo 401104" width="53.625" height="54.271" transform="translate(0 0)" fill="none"/>
    </g>
    <g id="Grupo_1187772" data-name="Grupo 1187772" transform="translate(-13412.281 -12656.764)">
      <g id="Grupo_1187771" data-name="Grupo 1187771" clip-path="url(#clip-path-2)">
        <path id="Trazado_1033343" data-name="Trazado 1033343" d="M1.321,43.832c-.937-.01-1.367.306-1.317,1.294.06,1.169.019,2.344.025,3.516.008,1.42.094,1.5,1.561,1.5H25.623V50.14H49.539c1.53,0,1.641-.117,1.642-1.685q0-1.466,0-2.931c0-1.58-.109-1.688-1.642-1.687-2.188,0-4.378-.033-6.565.022-.79.02-1.068-.147-1.043-1,.068-2.382.03-4.767.031-7.151,0-7.112.02-14.225-.023-21.337-.005-.9.237-1.14,1.1-1.072.971.076,1.952.028,2.929.015,4.062-.055,3.438.612,3.536-3.548a2.106,2.106,0,0,0-.91-1.882c-3.11-2.423-6.209-4.862-9.264-7.353A2.011,2.011,0,0,0,37.094.189C30.515,2.553,23.967,5.02,17.308,7.137a14.287,14.287,0,0,0-6.468,4.5c-.285.32-.607.645-.345,1.131a1.153,1.153,0,0,0,1.077.557c.838.055,1.983-.4,2.429.225.409.575.11,1.653.122,2.51a2.385,2.385,0,0,0,0,.351,1.363,1.363,0,0,1-.785,1.518,22.13,22.13,0,0,0-3.114,2.065,7.032,7.032,0,0,1-5.9,1.775c-1.23-.186-1.5.383-1.494,1.527.046,6.33.02,12.661.016,18.992,0,1.522,0,1.559-1.524,1.544M47.87,10.66c-.022.739-.181,1.041-.981,1.005-1.394-.061-2.794-.054-4.189,0-.795.031-.744-.42-.756-.958-.012-.56,0-.972.768-.9.73.072,1.473.015,2.21.015v0c.66,0,1.321.033,1.978-.009.638-.041.993.044.969.846m-1.6-2.484c-1.112,0-1.882,0-2.651,0-.9.006-1.976.274-1.686-1.3a.607.607,0,0,0-.392-.668c-1.678-.317-1.1-1.876-1.5-2.966l6.227,4.931M38.16,3.442l.812,2.57H37.4l.761-2.57m.322,4.23c1.855.166,1.865.038,1.858,1.952,0,1.091-.075,2.188.014,3.272.083,1.014-.306,1.286-1.245,1.178a17.571,17.571,0,0,0-1.986-.015,4.341,4.341,0,0,1-.584,0c-.885-.125-2.377.431-2.543-.293A5.091,5.091,0,0,1,34.5,9.64a3.8,3.8,0,0,1,3.978-1.969m-1.348,26.2c-.336-.265-.3-.473.027-.727.982-.757,1.949-1.533,3.109-2.449v5.676c-1.11-.885-2.12-1.7-3.136-2.5M39.363,38.5c-.991.8-1.986,1.6-3.159,2.541V35.261c1.175.933,2.247,1.78,3.313,2.633.375.3.043.448-.155.607m-3.115-6.763V26.085l3.541,2.828-3.541,2.826m.668-7.232c-.3-.239-.016-.379.152-.515,1.019-.825,2.039-1.648,3.22-2.6V27.15c-1.229-.961-2.308-1.792-3.372-2.643M36.2,22.554v-5.58c.218-.132.326.036.421.121a19.111,19.111,0,0,1,3.042,2.6L36.2,22.554m.368,20.316c1.18-.937,2.353-1.881,3.76-3.007,0,.424,0,.565,0,.7.055,3.4.055,3.4-3.4,3.264-.242-.01-.573.153-.708-.185s.089-.572.347-.777m3.686-25.154c-.073,0-.17.031-.215,0-.762-.6-1.519-1.2-2.4-1.9,2.859-.366,2.859-.366,2.614,1.909M30.808,34.04c.014-.9-.306-1.249-1.227-1.255-2.539-.016-2.538-.047-2.537-2.624,0-2.384-.025-4.769.013-7.153.014-.9-.294-1.389-1.215-1.234a7.846,7.846,0,0,1-6.719-2.186,7.985,7.985,0,0,0-.865-.6c-2.706-1.793-2.691-1.792-2.493-5.033.032-.518.178-.65.674-.649Q24,13.329,31.567,13.3c.662,0,.693.325.635.791-.151,1.21.314,1.8,1.58,1.6.832-.134.726.427.726.941q-.007,6.567,0,13.133h0c0,4.378-.02,8.756.019,13.133.007.775-.208.97-.971.968-2.761-.009-2.76.021-2.759-2.787,0-2.345-.025-4.691.011-7.035M36.84,2.075c-.37,1.285-.378,2.769-1.123,3.547C34.683,6.7,34.1,8.43,31.835,8.257c-3.917-.3-7.873-.083-11.812-.083,0-.065,0-.129,0-.194L36.84,2.075M13.232,11.638c.885-1.182,1.649-1.885,3.135-1.855,5.312.108,10.627.042,15.908.042.047.085.079.114.074.137C32,11.654,32,11.65,30.245,11.649q-7.857-.007-15.714-.011h-1.3m1.411,7.368c.277-.189.482-.088.717.07,1.244.839,2.494,1.669,3.958,2.646h-8.7c1.484-1,2.759-1.852,4.025-2.717M4.477,24.175c-.007-.615.169-.781.781-.779q9.72.035,19.441.008c.56,0,.725.155.719.719-.028,2.654-.038,5.309,0,7.963.011.7-.312.721-.843.718-3.24-.016-6.48-.008-9.72-.008-3.162,0-6.325-.024-9.486.019-.731.01-.917-.193-.9-.911.046-2.576.041-5.153.01-7.729m-.012,18.63c.08-2.458.05-4.921.012-7.381-.011-.706.09-1,.921-1q11.424.056,22.849.01c.667,0,.951.088.933.868-.058,2.577-.048,5.156,0,7.733.012.7-.234.819-.863.815-3.867-.026-7.734-.013-11.6-.015-3.71,0-7.421-.025-11.131.017-.816.009-1.147-.108-1.116-1.049M14.857,45.49h10.78v-.005c7.538,0,15.076.029,22.613-.031,1.132-.009,1.429.355,1.284,1.366a3.968,3.968,0,0,0,0,.936c.053.546-.142.813-.718.745a5.05,5.05,0,0,0-.585,0Q25.614,48.5,3,48.518c-1.018,0-1.546-.187-1.336-1.308a2.088,2.088,0,0,0,0-.7c-.129-.81.174-1.047,1.005-1.038,4.062.044,8.124.02,12.186.019" transform="translate(0 0)" fill="#fff"/>
        <path id="Trazado_1033344" data-name="Trazado 1033344" d="M32.164,35.5c0,.6-.069,1.275.78,1.284.914.01.866-.708.866-1.347q0-5.741,0-11.482c0-.642.04-1.4-.8-1.424s-.852.713-.848,1.371c.013,1.914,0,3.827,0,5.741,0,1.953,0,3.905,0,5.858" transform="translate(-25.781 -18.059)" fill="#fff"/>
        <path id="Trazado_1033345" data-name="Trazado 1033345" d="M227.357,134.694c-.844-.022-.851.646-.851,1.248q0,5.863.016,11.726c0,.631.08,1.264.865,1.25.725-.013.765-.624.762-1.205-.01-1.954,0-3.909,0-5.863s0-3.909,0-5.863c0-.592.059-1.27-.787-1.293" transform="translate(-181.562 -107.967)" fill="#fff"/>
        <path id="Trazado_1033346" data-name="Trazado 1033346" d="M245.469,166.236a.808.808,0,0,0,.85-.908q.01-4.036,0-8.071c0-.532-.239-.957-.793-.97-.636-.015-.832.442-.827,1.026.01,1.326,0,2.651,0,3.977h.011c0,1.326.008,2.652,0,3.977,0,.544.2.955.763.969" transform="translate(-196.143 -125.275)" fill="#fff"/>
        <path id="Trazado_1033347" data-name="Trazado 1033347" d="M15.077,54.757a.786.786,0,0,0,.884-.865q.026-3.98,0-7.96a.89.89,0,0,0-.929-.988c-.616.011-.7.491-.7,1,.007,1.288,0,2.576,0,3.863h0c0,1.327,0,2.654,0,3.98,0,.528.143.944.748.969" transform="translate(-11.486 -36.026)" fill="#fff"/>
        <path id="Trazado_1033348" data-name="Trazado 1033348" d="M127.979,185.864c0,.62.315.987.892.98.543-.007.785-.406.776-.958-.014-.816,0-1.632,0-2.449s-.013-1.633.005-2.449c.014-.622-.29-.995-.881-.976-.53.017-.794.394-.79.954q.018,2.449,0,4.9" transform="translate(-102.584 -144.294)" fill="#fff"/>
        <path id="Trazado_1033349" data-name="Trazado 1033349" d="M71.143,185.941c0,.6.378.831.9.819a.734.734,0,0,0,.756-.839q0-1.224,0-2.448h-.005c0-.894.015-1.788-.006-2.681a.79.79,0,0,0-.892-.847.779.779,0,0,0-.751.868c0,1.709,0,3.419,0,5.128" transform="translate(-57.026 -144.238)" fill="#fff"/>
        <path id="Trazado_1033350" data-name="Trazado 1033350" d="M90.912,186.76c.541.02.829-.332.82-.9-.013-.817,0-1.634,0-2.451,0-.856-.007-1.712,0-2.568a.813.813,0,0,0-.834-.919c-.523-.006-.826.345-.823.919.01,1.673.015,3.346,0,5.019a.806.806,0,0,0,.841.9" transform="translate(-72.199 -144.219)" fill="#fff"/>
        <path id="Trazado_1033351" data-name="Trazado 1033351" d="M109.982,186.779c.579-.024.744-.443.729-.983-.022-.777-.006-1.554-.006-2.332,0-.855-.014-1.71,0-2.565a.814.814,0,0,0-.81-.939.791.791,0,0,0-.85.89c0,1.671.007,3.343,0,5.014a.811.811,0,0,0,.937.914" transform="translate(-87.408 -144.252)" fill="#fff"/>
        <path id="Trazado_1033352" data-name="Trazado 1033352" d="M53.012,186.785a.751.751,0,0,0,.8-.814q.021-2.564,0-5.128a.818.818,0,0,0-.864-.9c-.542.007-.8.379-.786.942.019.815,0,1.631,0,2.447,0,.855.013,1.71-.007,2.564a.78.78,0,0,0,.849.883" transform="translate(-41.813 -144.243)" fill="#fff"/>
        <path id="Trazado_1033353" data-name="Trazado 1033353" d="M33.924,186.783a.774.774,0,0,0,.772-.851c.012-1.709.018-3.419-.01-5.127a.807.807,0,0,0-.894-.86.785.785,0,0,0-.758.867c0,.855,0,1.709,0,2.564h-.018c0,.854-.01,1.709,0,2.563a.8.8,0,0,0,.905.844" transform="translate(-26.462 -144.239)" fill="#fff"/>
        <path id="Trazado_1033354" data-name="Trazado 1033354" d="M33.067,130.154c0,.55.225.9.821.912s.834-.363.847-.891c.021-.82.006-1.641.006-2.462h0c0-.821.008-1.642,0-2.462-.008-.592-.309-1-.91-.992-.561.011-.773.429-.771.971.007,1.642,0,3.283,0,4.924" transform="translate(-26.502 -99.602)" fill="#fff"/>
        <path id="Trazado_1033355" data-name="Trazado 1033355" d="M52.2,127.63c0,.859,0,1.717,0,2.576a.729.729,0,0,0,.761.836.751.751,0,0,0,.884-.837c.015-1.678.012-3.357.005-5.035a.826.826,0,0,0-.842-.925c-.561-.008-.814.369-.809.926.007.82,0,1.639,0,2.459" transform="translate(-41.841 -99.592)" fill="#fff"/>
        <path id="Trazado_1033356" data-name="Trazado 1033356" d="M72.01,131.048c.614-.022.754-.449.752-.973,0-.82,0-1.641,0-2.461s.008-1.641,0-2.461c-.008-.548-.305-.928-.848-.912s-.81.387-.808.949c.007,1.641.009,3.282,0,4.923,0,.636.29.958.913.936" transform="translate(-56.99 -99.588)" fill="#fff"/>
        <path id="Trazado_1033357" data-name="Trazado 1033357" d="M90.063,127.574c0,.819.013,1.639,0,2.458-.012.61.222.986.867.983.608,0,.789-.4.789-.934q0-2.458,0-4.917c0-.554-.276-.94-.809-.95-.613-.011-.862.415-.85,1.017.016.78,0,1.561,0,2.341" transform="translate(-72.188 -99.568)" fill="#fff"/>
        <path id="Trazado_1033358" data-name="Trazado 1033358" d="M109.915,131.08c.592.02.82-.348.816-.9-.006-.82,0-1.641,0-2.461h0c0-.859,0-1.719,0-2.578a.826.826,0,1,0-1.65,0c-.011,1.68,0,3.36-.008,5.04a.8.8,0,0,0,.848.9" transform="translate(-87.426 -99.612)" fill="#fff"/>
      </g>
    </g>
  </g>
</svg>
