<svg xmlns="http://www.w3.org/2000/svg" xmlns:xlink="http://www.w3.org/1999/xlink" width="98" height="98" viewBox="0 0 98 98">
  <defs>
    <clipPath id="clip-path">
      <rect id="Rectángulo_456277" data-name="Rectángulo 456277" width="98" height="98" transform="translate(0.31 0.309)" fill="#d35560"/>
    </clipPath>
    <clipPath id="clip-path-2">
      <rect id="Rectángulo_459968" data-name="Rectángulo 459968" width="55.425" height="54.669" fill="#fff"/>
    </clipPath>
  </defs>
  <g id="Grupo_1180342" data-name="Grupo 1180342" transform="translate(13435.691 12680.691)">
    <g id="Grupo_1179924" data-name="Grupo 1179924" transform="translate(-13436.001 -12681)">
      <g id="Grupo_1179923" data-name="Grupo 1179923" transform="translate(0 0)" clip-path="url(#clip-path)">
        <path id="Trazado_1004716" data-name="Trazado 1004716" d="M48.95,97.9c-1.59,0-3.077-1.816-4.627-1.968-1.579-.154-3.391,1.337-4.922,1.033-1.554-.309-2.657-2.381-4.153-2.835-1.513-.46-3.582.647-5.028.045s-2.134-2.855-3.515-3.6-3.636-.066-4.94-.94-1.533-3.214-2.747-4.212-3.552-.768-4.664-1.88-.88-3.448-1.88-4.664-3.335-1.438-4.212-2.747-.194-3.55-.94-4.94-2.99-2.057-3.6-3.515.505-3.515.046-5.028c-.455-1.5-2.527-2.6-2.835-4.153-.3-1.531,1.187-3.343,1.033-4.921C1.816,52.028,0,50.54,0,48.95s1.816-3.077,1.968-4.627C2.122,42.744.631,40.932.935,39.4c.308-1.554,2.38-2.657,2.835-4.153.46-1.513-.646-3.583-.045-5.029s2.855-2.133,3.6-3.515.066-3.636.94-4.94,3.214-1.533,4.212-2.747.768-3.552,1.881-4.664,3.448-.88,4.664-1.88,1.438-3.335,2.747-4.212,3.55-.194,4.94-.94,2.057-2.99,3.515-3.6,3.515.505,5.029.045c1.5-.454,2.6-2.527,4.153-2.835,1.531-.3,3.343,1.187,4.921,1.033C45.873,1.816,47.36,0,48.95,0s3.077,1.816,4.627,1.968C55.157,2.122,56.969.631,58.5.935c1.554.309,2.657,2.381,4.154,2.835,1.513.46,3.582-.647,5.028-.045s2.134,2.855,3.515,3.6,3.636.066,4.94.94,1.533,3.214,2.747,4.212,3.552.768,4.664,1.881.88,3.448,1.88,4.664,3.335,1.438,4.212,2.747.194,3.55.94,4.94,2.99,2.057,3.6,3.515-.505,3.515-.045,5.028c.455,1.5,2.527,2.6,2.835,4.153.3,1.531-1.187,3.343-1.033,4.922.152,1.551,1.968,3.038,1.968,4.627s-1.816,3.077-1.968,4.628c-.154,1.579,1.337,3.39,1.033,4.921-.308,1.554-2.38,2.657-2.835,4.154-.46,1.513.646,3.582.045,5.028s-2.855,2.134-3.6,3.515-.066,3.636-.94,4.94-3.214,1.533-4.212,2.747-.768,3.552-1.881,4.664-3.448.88-4.664,1.88-1.438,3.335-2.747,4.212-3.55.194-4.94.94-2.057,2.99-3.515,3.6-3.515-.505-5.028-.045c-1.5.454-2.6,2.527-4.153,2.835-1.531.3-3.343-1.187-4.921-1.033-1.551.151-3.038,1.968-4.628,1.968" transform="translate(0.359 0.359)" fill="#d35560"/>
        <path id="Trazado_1004717" data-name="Trazado 1004717" d="M14,58.32a44.32,44.32,0,1,1,44.32,44.32A44.32,44.32,0,0,1,14,58.32" transform="translate(-9.01 -9.011)" fill="#a2cbcf"/>
        <path id="Trazado_1021102" data-name="Trazado 1021102" d="M14,55.014A41.014,41.014,0,1,1,55.014,96.029,41.015,41.015,0,0,1,14,55.014" transform="translate(-5.706 -5.705)" fill="#952d36"/>
      </g>
    </g>
    <g id="Grupo_1180053" data-name="Grupo 1180053" transform="translate(-13413.503 -12658.826)">
      <rect id="Rectángulo_401104" data-name="Rectángulo 401104" width="53.625" height="54.271" transform="translate(0 0)" fill="none"/>
    </g>
    <g id="Grupo_1187774" data-name="Grupo 1187774" transform="translate(-13414.403 -12661.753)">
      <g id="Grupo_1187773" data-name="Grupo 1187773" clip-path="url(#clip-path-2)">
        <path id="Trazado_1033359" data-name="Trazado 1033359" d="M47.047,36.975c1.488-.825,1.5-.838,2.613.481.59.7,1.565,1.283.723,2.478-.257.364.178.825.469,1.146,3.687,4.077,7.348,8.178,11.09,12.2a4.484,4.484,0,0,0,6.584-6.08c-3.662-4.1-7.4-8.133-11.1-12.192-.392-.429-.9-.834-1.451-.5-.608.366-.839.019-1.156-.335-.425-.475-.843-.958-1.3-1.406a.951.951,0,0,1-.087-1.49,19.563,19.563,0,0,0,3.825-11.557,17.574,17.574,0,0,0-.2-2.62A19.693,19.693,0,1,0,47.047,36.975m8.75-.628c.414-.395.657-.382,1.047.047,3.526,3.892,7.078,7.762,10.614,11.645a3.091,3.091,0,0,1-1.178,4.95,2.919,2.919,0,0,1-3.48-.766c-1.822-1.946-3.586-3.945-5.371-5.926-1.651-1.833-3.281-3.686-4.956-5.5-.525-.568-.641-.933.05-1.491,1.143-.924,2.209-1.946,3.274-2.962M53.45,34.7l.859.97c-.023.4-.367.515-.586.717-1.728,1.6-1.676,1.538-3.321-.125-.8-.808-.584-1.173.163-1.788,1.55-1.277,1.517-1.317,2.885.226M37.774,1.343A18.365,18.365,0,1,1,19.239,19.636,18.362,18.362,0,0,1,37.774,1.343" transform="translate(-14.23 0)" fill="#fff"/>
        <path id="Trazado_1033360" data-name="Trazado 1033360" d="M1.624,166.466c7.728.012,15.456,0,23.184.015,1.127,0,1.543-.457,1.53-1.583-.043-3.7-.01-7.409-.018-11.114,0-.485.182-1.157-.608-1.186-.874-.032-.713.686-.714,1.213,0,2.788.019,5.577.01,8.365a4.229,4.229,0,0,1-.106,1.742,4.153,4.153,0,0,1-2.1-4.111,60.841,60.841,0,0,0,.01-6.09c0-.492-.07-1.049-.713-1.032s-.64.573-.637,1.067q.013,2.868.015,5.736c0,2.083,0,2.032-2.044,2.072-.886.017-1.04-.3-1.023-1.094.049-2.349.016-4.7.017-7.05,0-.483.037-.95-.563-1.17-1.092-.4-2.073-.576-2.885.586a14.533,14.533,0,0,1-1.648,1.726c-2.15,2.187-4.316,4.357-6.443,6.566a1.508,1.508,0,0,1-1.746.334c-.417-.191-.227-.95-.123-1.435.058-.269.367-.5.586-.718q3.77-3.834,7.545-7.662c.357-.363.848-.76.313-1.3-.564-.567-.932.029-1.277.351-.951.885-1.869,1.805-2.983,2.889,0-1.922.007-3.653,0-5.384,0-.548.073-1.264-.727-1.244-.735.018-.6.7-.6,1.2q-.009,3.047,0,6.095a1.408,1.408,0,0,1-.381,1.193c-.843.765-1.654,1.566-2.473,2.348-.023-.034-.1-.093-.1-.152-.016-3.983-.012-7.967-.049-11.95-.006-.61.222-.746.762-.72a.632.632,0,0,0,.723-.625.663.663,0,0,0-.7-.679c-1.521.187-2.054-1.144-3.249-2,.529-.04.8-.038,1.066-.086.393-.071.827-.139.809-.686-.02-.587-.424-.687-.91-.679-.557.01-1.115,0-1.673,0-1.392.016-1.69.3-1.691,1.667Q0,153.357,0,164.829c0,1.28.33,1.635,1.621,1.637m12.24-9.917a.976.976,0,0,1,.207-.775c.934-.947,1.859-1.9,2.985-3.058,0,2.975,0,5.618,0,8.261,0,.292-.007.566-.411.564-.794,0-1.588.008-2.382,0-.5-.008-.392-.4-.394-.7-.007-1.429,0-2.859-.006-4.288m-4.136,3.568c.891-.825,1.769-1.664,2.756-2.6,0,1.166-.025,2.268.011,3.368.017.526-.162.7-.675.668s-1.029.033-1.538-.013c-.344-.031-.83.27-1.007-.3a1.053,1.053,0,0,1,.452-1.132M6.7,162.873c4.172.161,8.359.144,12.533.005,1.945-.065,3.5.29,4.548,2.191H2.578a4.386,4.386,0,0,1,4.118-2.2M3.608,146.437c-.175,4.332-.053,8.676-.052,13.016,0,2.646,0,2.646-2.008,4.526-.078-.154-.138-.217-.138-.281,0-6.966,0-13.931,0-21.061,1.236,1.08,2.278,1.923,2.2,3.8" transform="translate(0 -111.847)" fill="#fff"/>
        <path id="Trazado_1033361" data-name="Trazado 1033361" d="M206.867,110.236a1.75,1.75,0,0,1,.358,0c.37.067.9-.238,1.084.214.2.474-.29.772-.586,1.072-1.343,1.362-2.706,2.7-4.042,4.074-.283.29-.733.619-.262,1.1s.864.127,1.232-.187c.181-.155.336-.34.5-.51,1.762-1.789,3.541-3.56,5.275-5.375a1.766,1.766,0,0,1,1.883-.362c.512.138.184.825.231,1.265.04.377-.337.5-.551.722-1.652,1.673-3.312,3.338-4.962,5.013-.3.3-.711.614-.3,1.105.422.51.826.3,1.218-.069.059-.056.177-.05.328-.087,0,.618-.034,1.178.011,1.731a.838.838,0,0,0,.814.874c.532-.007.542-.487.545-.894,0-.638-.037-1.278.006-1.912.039-.573-.238-1.2.253-1.709.816-.839,1.635-1.675,2.65-2.713,0,1.249,0,2.19,0,3.131,0,2.431.009,4.862,0,7.294,0,.542-.008,1.184.647,1.2.759.023.737-.674.739-1.241,0-.239,0-.478,0-.717,0-3.866.144-7.739-.048-11.6-.093-1.868.841-2.787,2.209-3.86,0,.545,0,.928,0,1.311q-.011,9.386-.022,18.772c0,.478-.078,1.064.592,1.1.746.038.727-.579.728-1.1q.012-10.522.027-21.044c0-1.063-.441-1.52-1.51-1.491-1.593.043-3.188.024-4.782.026-1.156,0-2.312-.012-3.467-.007-.55,0-1.27-.074-1.26.7.008.7.687.619,1.2.617.319,0,.637,0,.957,0h6.431c-1.123,1.415-2.152,2.456-4.033,2.193a27.016,27.016,0,0,0-4.06-.027c-.519.007-1.131.015-1.1.758.025.668.575.649,1.069.633" transform="translate(-162.102 -84.031)" fill="#fff"/>
        <path id="Trazado_1033362" data-name="Trazado 1033362" d="M144.106,192.119c-.6-.026-.78.461-.78.987q0,2.746.02,5.492a1.1,1.1,0,0,0,1.264,1.224c1.194-.008,2.388-.007,3.582,0,1.711,0,3.423.021,5.134.014.439,0,.933-.031.927-.658-.005-.6-.442-.673-.917-.666-.318,0-.637,0-.955,0H145.8c1.082-1.3,1.953-2.535,3.772-2.149a2.521,2.521,0,0,0,.833-.008c.373-.049.722-.2.716-.646a.717.717,0,0,0-.708-.684,6.84,6.84,0,0,0-1.429-.036c-.573.046-.766-.155-.733-.733.047-.833.012-1.671.012-2.506,0-.485-.124-.907-.705-.894s-.694.442-.7.918a9.086,9.086,0,0,0,.016,1.788c.353,1.841-.756,2.806-2.172,3.842,0-1.542-.009-2.919.005-4.3.005-.472-.04-.957-.6-.98" transform="translate(-114.33 -152.238)" fill="#fff"/>
        <path id="Trazado_1033363" data-name="Trazado 1033363" d="M50.342,49A16.481,16.481,0,1,0,34.135,32.5,16.482,16.482,0,0,0,50.342,49m.144-31.545A15.077,15.077,0,1,1,35.546,32.5,15.052,15.052,0,0,1,50.486,17.453" transform="translate(-27.229 -12.793)" fill="#fff"/>
        <path id="Trazado_1033364" data-name="Trazado 1033364" d="M70.462,66.006a1.65,1.65,0,0,0,1.575.016q4.706-2.276,9.442-4.491a1.4,1.4,0,0,0,.913-1.468q-.062-5.558-.011-11.117a1.569,1.569,0,0,0-1.018-1.664c-3.132-1.447-6.242-2.94-9.354-4.43a1.534,1.534,0,0,0-1.447-.015c-3.143,1.511-6.289,3.015-9.455,4.475a1.442,1.442,0,0,0-.947,1.565c.052,1.832.017,3.665.016,5.5s.056,3.669-.024,5.5a1.631,1.631,0,0,0,1.08,1.747q4.624,2.173,9.23,4.386m10.525-6.374a.857.857,0,0,1-.58.9c-2.786,1.313-5.558,2.657-8.474,4.057,0-3.565,0-6.95,0-10.335,0-.4-.016-.754.464-.977,2.827-1.313,5.639-2.657,8.584-4.051,0,3.575-.007,6.99.008,10.405m-.831-11.518c-2.991,1.412-5.741,2.767-8.544,4-.994.438-1.63-.731-2.522-1.037,2.593-1.259,5.19-2.51,7.777-3.781,1.27-.624,2.023.54,3.289.816m-4.113-1.921c-2.855,1.4-5.531,2.692-8.184,4.028-.7.352-1.1-.123-1.74-.424,2.821-1.347,5.54-2.635,8.247-3.946.646-.313.992.253,1.677.343m-9.469,7.872c-1.545-.468-1.545-.468-1.356-2.993,1.576.474,1.576.474,1.356,2.993m4.287-9.86c.886-.418,1.415.5,2.157.785-2.706,1.292-5.4,2.6-8.122,3.866-.912.425-1.5-.449-2.424-.675,2.891-1.371,5.638-2.677,8.389-3.976m-9.293,5.172c.119-.021.165-.046.2-.033,2.044.841,2.025.841,2.056,3.162.009.651-.331,1.494.307,1.914a10.022,10.022,0,0,0,3.211,1.494c.582.134.673-.422.678-.881.01-.864,0-1.728,0-2.579.115-.019.16-.041.193-.029,2.393.922,2.4.923,2.4,3.521.005,2.823,0,5.646,0,8.642-2.94-1.414-5.715-2.759-8.5-4.078a.777.777,0,0,1-.553-.793c.012-3.452.007-6.9.007-10.341" transform="translate(-47.981 -34.031)" fill="#fff"/>
        <path id="Trazado_1033365" data-name="Trazado 1033365" d="M126.5,128.238c-.9.39-1.795.8-2.659,1.265-.3.16-.29.535-.168.857a.486.486,0,0,0,.577.295,15.258,15.258,0,0,0,2.878-1.338.672.672,0,0,0,.071-.774.545.545,0,0,0-.7-.305" transform="translate(-98.592 -102.261)" fill="#fff"/>
      </g>
    </g>
  </g>
</svg>
