<svg xmlns="http://www.w3.org/2000/svg" xmlns:xlink="http://www.w3.org/1999/xlink" width="224" height="200" viewBox="0 0 224 200">
  <defs>
    <clipPath id="clip-path">
      <rect id="Rectángulo_459835" data-name="Rectángulo 459835" width="204.001" height="136.109" fill="none"/>
    </clipPath>
  </defs>
  <g id="Grupo_1186165" data-name="Grupo 1186165" transform="translate(-289.84 -2219)">
    <rect id="Rectángulo_456600" data-name="Rectángulo 456600" width="224" height="200" transform="translate(289.84 2219)" fill="#a2cbcf"/>
    <g id="Grupo_1187597" data-name="Grupo 1187597" transform="translate(299.839 2250.946)">
      <rect id="Rectángulo_459819" data-name="Rectángulo 459819" width="86.15" height="103.735" transform="translate(48.119 10.293)" fill="#fff"/>
      <g id="Grupo_1187596" data-name="Grupo 1187596">
        <g id="Grupo_1187595" data-name="Grupo 1187595" clip-path="url(#clip-path)">
          <path id="Trazado_1030652" data-name="Trazado 1030652" d="M379.456,165.982H293.307a.163.163,0,0,1-.164-.164V62.084a.163.163,0,0,1,.164-.164h86.149a.163.163,0,0,1,.164.164V165.818a.163.163,0,0,1-.164.164m-85.986-.327h85.822V62.247H293.47Z" transform="translate(-245.187 -51.79)"/>
          <rect id="Rectángulo_459820" data-name="Rectángulo 459820" width="83.99" height="103.342" transform="translate(66.09 0.164)" fill="#fff"/>
          <path id="Trazado_1030653" data-name="Trazado 1030653" d="M487.147,103.669h-83.99a.163.163,0,0,1-.164-.164V.164A.163.163,0,0,1,403.157,0h83.99a.163.163,0,0,1,.164.164V103.506a.163.163,0,0,1-.164.164m-83.826-.327h83.663V.327H403.32Z" transform="translate(-337.067)"/>
          <path id="Trazado_1030654" data-name="Trazado 1030654" d="M542.443,87.788H487.882a2.228,2.228,0,0,1-2.226-2.226V81.141a2.228,2.228,0,0,1,2.226-2.226h54.561a2.228,2.228,0,0,1,2.226,2.226v4.422a2.228,2.228,0,0,1-2.226,2.226m-54.561-8.546a1.9,1.9,0,0,0-1.9,1.9v4.422a1.9,1.9,0,0,0,1.9,1.9h54.561a1.9,1.9,0,0,0,1.9-1.9V81.141a1.9,1.9,0,0,0-1.9-1.9Z" transform="translate(-406.207 -66.005)"/>
          <path id="Trazado_1030655" data-name="Trazado 1030655" d="M544.333,213.732h0Z" transform="translate(-407.043 -178.767)" fill="#fff"/>
          <path id="Trazado_1030656" data-name="Trazado 1030656" d="M543.5,213.058H485.821a.164.164,0,0,1,0-.327H543.5a.164.164,0,0,1,0,.327" transform="translate(-406.207 -177.93)"/>
          <path id="Trazado_1030657" data-name="Trazado 1030657" d="M544.333,261.39h0Z" transform="translate(-407.043 -218.629)" fill="#fff"/>
          <path id="Trazado_1030658" data-name="Trazado 1030658" d="M543.5,260.718H485.821a.164.164,0,0,1,0-.327H543.5a.164.164,0,0,1,0,.327" transform="translate(-406.207 -217.793)"/>
          <path id="Trazado_1030659" data-name="Trazado 1030659" d="M544.333,309.049h0Z" transform="translate(-407.043 -258.491)" fill="#fff"/>
          <path id="Trazado_1030660" data-name="Trazado 1030660" d="M543.5,308.376H485.821a.164.164,0,1,1,0-.327H543.5a.164.164,0,1,1,0,.327" transform="translate(-406.207 -257.655)"/>
          <path id="Trazado_1030661" data-name="Trazado 1030661" d="M689.9,356.707h0Z" transform="translate(-552.614 -298.353)" fill="#fff"/>
          <path id="Trazado_1030662" data-name="Trazado 1030662" d="M689.068,356.034h-29.2a.164.164,0,0,1,0-.327h29.2a.164.164,0,0,1,0,.327" transform="translate(-551.778 -297.516)"/>
          <rect id="Rectángulo_459821" data-name="Rectángulo 459821" width="73.526" height="43.872" transform="translate(89.271 80.379)" fill="#fff"/>
          <path id="Trazado_1030663" data-name="Trazado 1030663" d="M618.379,534.536H544.854a.164.164,0,0,1-.164-.164V490.5a.163.163,0,0,1,.164-.164h73.526a.164.164,0,0,1,.164.164v43.872a.164.164,0,0,1-.164.164m-73.362-.327h73.2V490.664h-73.2Z" transform="translate(-455.583 -410.122)"/>
          <path id="Trazado_1030664" data-name="Trazado 1030664" d="M623.285,466.444a.164.164,0,0,1,0-.327,5.174,5.174,0,1,0-5.174-5.174.164.164,0,1,1-.327,0,5.5,5.5,0,1,1,5.5,5.5" transform="translate(-516.719 -380.935)"/>
          <path id="Trazado_1030665" data-name="Trazado 1030665" d="M742.288,466.444a.164.164,0,0,1,0-.327,5.174,5.174,0,1,0-5.174-5.174.164.164,0,1,1-.327,0,5.5,5.5,0,1,1,5.5,5.5" transform="translate(-616.254 -380.935)"/>
          <path id="Trazado_1030666" data-name="Trazado 1030666" d="M861.291,466.444a.164.164,0,0,1,0-.327,5.174,5.174,0,1,0-5.174-5.174.164.164,0,1,1-.327,0,5.5,5.5,0,1,1,5.5,5.5" transform="translate(-715.789 -380.935)"/>
          <rect id="Rectángulo_459822" data-name="Rectángulo 459822" width="11.848" height="11.848" transform="translate(97.299 89.498)" fill="#e2eaff"/>
          <rect id="Rectángulo_459823" data-name="Rectángulo 459823" width="11.848" height="11.848" transform="translate(111.903 89.498)" fill="#e2eaff"/>
          <rect id="Rectángulo_459824" data-name="Rectángulo 459824" width="11.848" height="11.848" transform="translate(126.506 89.498)" fill="#e2eaff"/>
          <rect id="Rectángulo_459825" data-name="Rectángulo 459825" width="11.848" height="11.848" transform="translate(141.11 89.498)" fill="#e2eaff"/>
          <rect id="Rectángulo_459826" data-name="Rectángulo 459826" width="11.848" height="11.848" transform="translate(155.713 89.498)" fill="#e2eaff"/>
          <rect id="Rectángulo_459827" data-name="Rectángulo 459827" width="11.848" height="11.848" transform="translate(97.299 103.533)" fill="#5479f7"/>
          <rect id="Rectángulo_459828" data-name="Rectángulo 459828" width="11.848" height="11.848" transform="translate(111.903 103.533)" fill="#e2eaff"/>
          <rect id="Rectángulo_459829" data-name="Rectángulo 459829" width="11.848" height="11.848" transform="translate(126.506 103.533)" fill="#e2eaff"/>
          <rect id="Rectángulo_459830" data-name="Rectángulo 459830" width="11.848" height="11.848" transform="translate(141.11 103.533)" fill="#e2eaff"/>
          <rect id="Rectángulo_459831" data-name="Rectángulo 459831" width="11.848" height="11.848" transform="translate(155.713 103.533)" fill="#e2eaff"/>
          <rect id="Rectángulo_459832" data-name="Rectángulo 459832" width="11.848" height="11.848" transform="translate(97.299 117.569)" fill="#e2eaff"/>
          <rect id="Rectángulo_459833" data-name="Rectángulo 459833" width="11.848" height="11.848" transform="translate(111.903 117.569)" fill="#e2eaff"/>
          <rect id="Rectángulo_459834" data-name="Rectángulo 459834" width="11.848" height="11.848" transform="translate(126.506 117.569)" fill="#e2eaff"/>
          <path id="Trazado_1030667" data-name="Trazado 1030667" d="M120.133,118.367c-.4-2.429-3.208-3.809-4.5-5.955-2.23-3.713.557-8.635-1.285-12.528a6.875,6.875,0,0,0-7.4-3.473c-2.291.481-4.112,2.054-5.761,3.61a92.551,92.551,0,0,0-11.163,12.495,9.506,9.506,0,0,0-2.159,4.534,6.174,6.174,0,0,0,1.369,4.221,12.7,12.7,0,0,0,3.55,3.019,24.812,24.812,0,0,0,17.873,2.964c2.751-.595,5.626-1.909,6.828-4.219a7.379,7.379,0,0,0,.789-.556,4.568,4.568,0,0,0,1.857-4.113" transform="translate(-73.475 -80.527)"/>
          <path id="Trazado_1030668" data-name="Trazado 1030668" d="M243.768,299.826a29.63,29.63,0,0,0,13.231-6.6l-6.248-27.864s9.553,8.869,16.627,7.726,11.344-14.119,12.946-24.338c0,0,10.142.941,13.345-2.824,0,0,.833-1.192,0-1.614,0,0,1.582-1.884.385-2.76a2.211,2.211,0,0,0-2.852,0s-.556-1.009-3.051-.525-7.173,1.214-10.194-.131-2.07-4.432-2.235-5.849-1.987-2.127-2.649,1.251-10.183,17.1-10.183,17.1-9.1-10.794-13.814-15.992a9.082,9.082,0,0,0-5.424-2.891l-4.559-.072Z" transform="translate(-199.978 -195.608)" fill="#fff"/>
          <path id="Trazado_1030669" data-name="Trazado 1030669" d="M242.932,299.154a.163.163,0,0,1-.163-.152l-4.676-65.384a.163.163,0,0,1,.044-.124.157.157,0,0,1,.121-.051l4.56.072.021,0a9.273,9.273,0,0,1,5.521,2.943c4.347,4.792,12.518,14.457,13.68,15.833,1.11-1.611,9.427-13.761,10.035-16.861.462-2.357,1.418-2.575,1.8-2.562a1.368,1.368,0,0,1,1.168,1.323,7.643,7.643,0,0,1,0,1.12c-.061,1.513-.144,3.584,2.135,4.6,2.157.96,5.554,1,10.1.12,2.045-.4,2.858.187,3.12.469a2.334,2.334,0,0,1,2.911.084,1.193,1.193,0,0,1,.5.847,3.231,3.231,0,0,1-.747,2,.756.756,0,0,1,.267.416,1.985,1.985,0,0,1-.373,1.332c-3.052,3.588-12.008,3.013-13.341,2.906a62.488,62.488,0,0,1-4.41,15.465c-2.468,5.35-5.378,8.33-8.647,8.858a8.488,8.488,0,0,1-1.351.105c-6.108,0-13.286-5.988-15.03-7.527l6.136,27.363a.164.164,0,0,1-.048.156,30.047,30.047,0,0,1-13.312,6.641.145.145,0,0,1-.029,0m-4.5-65.382,4.65,65.021a29.683,29.683,0,0,0,12.9-6.459l-6.227-27.772a.164.164,0,0,1,.271-.156c.095.088,9.577,8.8,16.489,7.684,6.829-1.1,11.168-13.727,12.81-24.2a.161.161,0,0,1,.177-.138c.1.009,10.094.89,13.205-2.767a1.633,1.633,0,0,0,.314-1.052.465.465,0,0,0-.263-.309.164.164,0,0,1-.052-.251,3.256,3.256,0,0,0,.787-1.9.868.868,0,0,0-.373-.622,2.054,2.054,0,0,0-2.668.006.165.165,0,0,1-.128.02.163.163,0,0,1-.1-.079c0-.007-.555-.893-2.877-.444-4.61.894-8.073.846-10.292-.142-2.482-1.1-2.39-3.4-2.329-4.911a7.493,7.493,0,0,0,0-1.069,1.064,1.064,0,0,0-.856-1.034h-.023c-.487,0-1.115.6-1.448,2.3-.661,3.373-9.819,16.6-10.209,17.161a.164.164,0,0,1-.127.07.158.158,0,0,1-.133-.058c-.091-.108-9.151-10.851-13.81-15.987a8.945,8.945,0,0,0-5.316-2.837Z" transform="translate(-199.142 -194.772)"/>
          <path id="Trazado_1030670" data-name="Trazado 1030670" d="M409.277,344.263a13.528,13.528,0,0,1-11.027-5.793.164.164,0,1,1,.272-.182,13.11,13.11,0,0,0,12.792,5.472.164.164,0,0,1,.057.322,12.106,12.106,0,0,1-2.093.18" transform="translate(-333.076 -282.885)"/>
          <path id="Trazado_1030671" data-name="Trazado 1030671" d="M359.1,360.3a.164.164,0,0,1-.143-.243l3.945-7.066a.164.164,0,0,1,.286.159l-3.945,7.066a.164.164,0,0,1-.143.084" transform="translate(-300.219 -295.172)"/>
          <path id="Trazado_1030672" data-name="Trazado 1030672" d="M508.185,305.586a14.436,14.436,0,0,1-3.315-.384.164.164,0,0,1,.075-.319,14.166,14.166,0,0,0,6.126.078l.276-.059a4.181,4.181,0,0,1,2.443-.05.164.164,0,1,1-.12.3,3.938,3.938,0,0,0-2.254.065l-.278.06a14.406,14.406,0,0,1-2.953.3" transform="translate(-422.172 -254.84)"/>
          <path id="Trazado_1030673" data-name="Trazado 1030673" d="M502.358,283.843a22.787,22.787,0,0,1-2.469-.133.164.164,0,0,1,.035-.325,22.906,22.906,0,0,0,8.654-.727.164.164,0,1,1,.089.315,23.243,23.243,0,0,1-6.31.871" transform="translate(-417.989 -236.412)"/>
          <path id="Trazado_1030674" data-name="Trazado 1030674" d="M510.527,295.765a13.163,13.163,0,0,1-2.657-.269.164.164,0,1,1,.066-.32,12.9,12.9,0,0,0,5.2,0c.278-.058.56-.126.833-.193.465-.113.945-.23,1.429-.3a4.4,4.4,0,0,1,2.356.2.164.164,0,1,1-.125.3,4.083,4.083,0,0,0-2.183-.182c-.469.068-.942.183-1.4.294-.275.067-.56.136-.843.2a13.143,13.143,0,0,1-2.677.274" transform="translate(-424.677 -246.414)"/>
          <path id="Trazado_1030675" data-name="Trazado 1030675" d="M297.759,378.809a.164.164,0,0,1-.16-.127l-1.862-8.19a.164.164,0,0,1,.319-.072l1.862,8.19a.164.164,0,0,1-.123.2.172.172,0,0,1-.036,0" transform="translate(-247.354 -309.714)"/>
          <path id="Trazado_1030676" data-name="Trazado 1030676" d="M136.035,239.824l2.651-4.53a102.043,102.043,0,0,1,13.49-.1,2.046,2.046,0,0,1,1.746,1.261l3.895,9.39a20.8,20.8,0,0,1,1.442,10.408l-1.092,9.242-23.4,1.158Z" transform="translate(-112.72 -196.565)" fill="#5479f7"/>
          <path id="Trazado_1030677" data-name="Trazado 1030677" d="M70.017,299.21V233.867A16.606,16.606,0,0,0,56.934,242.2c-4.326,7.449-4.367,22.334-4.367,22.334l3.835,2.318-6.424,27.737s5.561,3.353,20.039,4.616" transform="translate(-41.802 -195.608)" fill="#fff"/>
          <path id="Trazado_1030678" data-name="Trazado 1030678" d="M69.18,298.537h-.014c-14.35-1.251-20.053-4.6-20.109-4.639a.164.164,0,0,1-.075-.177l6.4-27.621-3.734-2.257a.164.164,0,0,1-.079-.141c0-.149.091-15.014,4.389-22.416a16.908,16.908,0,0,1,13.221-8.419h0a.164.164,0,0,1,0,.327,16.573,16.573,0,0,0-12.945,8.256c-4.079,7.023-4.33,20.892-4.344,22.16l3.755,2.27a.163.163,0,0,1,.075.177l-6.4,27.617c.82.447,6.593,3.356,19.688,4.52v-12a.164.164,0,0,1,.327,0v12.181a.164.164,0,0,1-.164.164" transform="translate(-40.965 -194.772)"/>
          <path id="Trazado_1030679" data-name="Trazado 1030679" d="M182.287,174.773l-3.746,9.951,10.6,11.732L188.1,185.78l-1.952-1.1,1.351-6.455Z" transform="translate(-149.332 -146.181)" fill="#fff"/>
          <path id="Trazado_1030680" data-name="Trazado 1030680" d="M179.261,135.013a1.352,1.352,0,0,0-1.7-.162,1.717,1.717,0,0,0-.683,1.635,2.372,2.372,0,0,0,.964,1.541,3.9,3.9,0,0,0,1.721.674,8.329,8.329,0,0,0,2.72,3.436,3.483,3.483,0,0,0,5.654-2.153,9.129,9.129,0,0,0,.1-2.816,29.8,29.8,0,0,0-1.537-7.284,10.633,10.633,0,0,0-2.811.126,4.034,4.034,0,0,0-2.383,1.4,4.705,4.705,0,0,0-.7,3.337c.037.363.243,1.574-.423,1.528-.448-.031-.657-.971-.921-1.263" transform="translate(-147.926 -108.607)" fill="#fff"/>
          <path id="Trazado_1030681" data-name="Trazado 1030681" d="M183.809,142.187a4.608,4.608,0,0,1-2.457-.75,8.525,8.525,0,0,1-2.74-3.426,3.987,3.987,0,0,1-1.71-.69,2.528,2.528,0,0,1-1.028-1.65,1.881,1.881,0,0,1,.754-1.792,1.517,1.517,0,0,1,1.917.188,2.265,2.265,0,0,1,.3.519c.142.3.319.677.514.691a.2.2,0,0,0,.175-.058c.2-.212.121-.888.087-1.177-.005-.044-.01-.082-.013-.114a4.768,4.768,0,0,1,.732-3.453,4.192,4.192,0,0,1,2.479-1.461,10.8,10.8,0,0,1,2.854-.13.164.164,0,0,1,.146.11,29.951,29.951,0,0,1,1.546,7.324,9.264,9.264,0,0,1-.107,2.866,3.992,3.992,0,0,1-1.542,2.436,3.327,3.327,0,0,1-1.9.567m-6.326-8.235a1.208,1.208,0,0,0-.672.2,1.547,1.547,0,0,0-.612,1.477,2.2,2.2,0,0,0,.9,1.432,3.714,3.714,0,0,0,1.65.643.164.164,0,0,1,.121.09,8.321,8.321,0,0,0,2.662,3.371,3.321,3.321,0,0,0,5.4-2.053,8.974,8.974,0,0,0,.1-2.765,29.617,29.617,0,0,0-1.493-7.139,10.2,10.2,0,0,0-2.658.128,3.866,3.866,0,0,0-2.288,1.339,4.458,4.458,0,0,0-.667,3.222c0,.031.008.067.012.109.046.391.133,1.118-.175,1.441a.535.535,0,0,1-.435.159c-.387-.027-.6-.479-.788-.878a2.159,2.159,0,0,0-.243-.439,1.1,1.1,0,0,0-.819-.334" transform="translate(-147.089 -107.771)"/>
          <path id="Trazado_1030682" data-name="Trazado 1030682" d="M187.335,173.155a.163.163,0,0,1-.135-.071,2.008,2.008,0,0,0-1.392-.848.164.164,0,1,1,.04-.325,2.338,2.338,0,0,1,1.622.988.164.164,0,0,1-.135.256" transform="translate(-155.291 -143.787)"/>
          <path id="Trazado_1030683" data-name="Trazado 1030683" d="M88.975,403.329l18.507,4.044a2.04,2.04,0,0,0,2.292-1.157l11.851-26.142a2.09,2.09,0,0,0-1.445-2.907l-18.031-3.94a2.068,2.068,0,0,0-2.323,1.173L87.791,400.947a1.712,1.712,0,0,0,1.184,2.382" transform="translate(-73.3 -312.13)"/>
          <path id="Trazado_1030684" data-name="Trazado 1030684" d="M45.771,272.451s-5.812-13.229-6-13.057S27.763,270.929,25.752,283.04s5.9,16.486,18.465,21.091,15.662,5.134,15.235,3.166a2.085,2.085,0,0,0,1.767-1.508,2.8,2.8,0,0,0,1.645-1.934s3.221-1.4.239-4.613l-.729,1.609s-3.9-.633-5.36-1.969-.5-2.3.274-2.671,3.062-2.026,2.651-2.947-4.068.507-5.393.461-12.843-5.666-15.814-7.835c0,0,3.885-9.245,7.039-13.438" transform="translate(-21.279 -216.958)" fill="#fff"/>
          <path id="Trazado_1030685" data-name="Trazado 1030685" d="M57.506,307.708c-1.87,0-5.995-1.262-14.154-4.252-11.8-4.325-20.668-8.638-18.57-21.271,1.046-6.3,4.776-12.379,7.721-16.37a61.205,61.205,0,0,1,6.347-7.37.164.164,0,0,1,.22.242c-.118.108-11.973,11.549-13.966,23.552-2.057,12.386,6.7,16.638,18.36,20.91,8.486,3.109,13.939,4.869,14.9,4.033.1-.084.216-.247.122-.679a.164.164,0,0,1,.141-.2,1.9,1.9,0,0,0,1.626-1.378.164.164,0,0,1,.1-.118A2.649,2.649,0,0,0,61.894,303a.165.165,0,0,1,.1-.128A2.53,2.53,0,0,0,63.36,301.3a3.13,3.13,0,0,0-1.019-2.6l-.626,1.381a.162.162,0,0,1-.175.094c-.161-.026-3.963-.657-5.444-2.01a1.609,1.609,0,0,1,.314-2.939c.8-.382,2.91-1.974,2.572-2.733-.2-.459-1.858-.081-3.066.194a10.46,10.46,0,0,1-2.184.363c-1.46-.051-13.055-5.785-15.9-7.866a.164.164,0,0,1-.054-.2c.039-.093,3.929-9.311,7.059-13.473a.164.164,0,1,1,.261.2c-2.912,3.871-6.5,12.186-6.968,13.283,3.138,2.229,14.382,7.685,15.618,7.728a10.667,10.667,0,0,0,2.1-.356c1.606-.366,3.123-.711,3.437-.008.474,1.061-1.934,2.784-2.73,3.162a1.6,1.6,0,0,0-.932,1.039,1.625,1.625,0,0,0,.7,1.363c1.266,1.156,4.484,1.786,5.153,1.907l.677-1.493a.164.164,0,0,1,.269-.044,3.6,3.6,0,0,1,1.264,3.071,2.767,2.767,0,0,1-1.475,1.764,2.906,2.906,0,0,1-1.652,1.94,2.2,2.2,0,0,1-1.72,1.523.886.886,0,0,1-.255.829,1.611,1.611,0,0,1-1.071.279" transform="translate(-20.47 -216.13)"/>
          <path id="Trazado_1030686" data-name="Trazado 1030686" d="M140.553,468.753a.164.164,0,0,1-.164-.16,17.362,17.362,0,0,1,4.2-11.638.164.164,0,1,1,.247.215,17.03,17.03,0,0,0-4.123,11.416.164.164,0,0,1-.16.167Z" transform="translate(-117.419 -382.153)"/>
          <path id="Trazado_1030687" data-name="Trazado 1030687" d="M91.1,409.624a.163.163,0,0,1-.094-.03,19.082,19.082,0,0,1-2.425-2.032.164.164,0,1,1,.23-.232,18.78,18.78,0,0,0,2.384,2,.164.164,0,0,1-.094.3" transform="translate(-74.046 -340.654)"/>
          <path id="Trazado_1030688" data-name="Trazado 1030688" d="M207.513,545.505a8.57,8.57,0,0,1-4.4-1.222.164.164,0,0,1,.169-.28,8.227,8.227,0,0,0,4.759,1.157.162.162,0,0,1,.174.152.164.164,0,0,1-.152.174q-.275.018-.552.018" transform="translate(-169.82 -454.989)"/>
          <path id="Trazado_1030689" data-name="Trazado 1030689" d="M216.584,536.1a9.081,9.081,0,0,1-4.578-1.244.164.164,0,1,1,.166-.282,8.735,8.735,0,0,0,5.067,1.173.164.164,0,1,1,.026.326q-.34.026-.681.026" transform="translate(-177.256 -447.105)"/>
          <path id="Trazado_1030690" data-name="Trazado 1030690" d="M220.619,526.151a7.406,7.406,0,0,1-4.162-1.274.164.164,0,1,1,.185-.27,7.074,7.074,0,0,0,5.823.967.163.163,0,1,1,.088.315,7.206,7.206,0,0,1-1.934.262" transform="translate(-180.986 -438.762)"/>
          <path id="Trazado_1030691" data-name="Trazado 1030691" d="M65.054,497.249V494.36a2.666,2.666,0,0,0-2.666-2.666H46.59a2.666,2.666,0,0,0-2.666,2.666v2.889H1v44.942A5.011,5.011,0,0,0,6.011,547.2H72.493V497.249Z" transform="translate(-0.836 -411.257)" fill="#fff"/>
          <path id="Trazado_1030692" data-name="Trazado 1030692" d="M71.656,546.529H5.174A5.18,5.18,0,0,1,0,541.355V496.413a.163.163,0,0,1,.164-.164h42.76v-2.725a2.833,2.833,0,0,1,2.83-2.83h15.8a2.833,2.833,0,0,1,2.83,2.83v2.725h7.275a.164.164,0,0,1,.164.164v49.953a.164.164,0,0,1-.164.164M.327,496.576v44.778A4.852,4.852,0,0,0,5.174,546.2H71.493V496.576H64.217a.163.163,0,0,1-.164-.164v-2.889a2.506,2.506,0,0,0-2.5-2.5h-15.8a2.505,2.505,0,0,0-2.5,2.5v2.889a.164.164,0,0,1-.164.164Z" transform="translate(0 -410.42)"/>
          <path id="Trazado_1030693" data-name="Trazado 1030693" d="M438.017,563.047v43.835l6.7-43.835Z" transform="translate(-366.361 -470.937)" fill="#fff"/>
          <path id="Trazado_1030694" data-name="Trazado 1030694" d="M437.343,606.07l-.325-.025v-44h7.055l-.029.188Zm0-43.7v41.519l6.347-41.519Z" transform="translate(-365.525 -470.1)"/>
          <path id="Trazado_1030695" data-name="Trazado 1030695" d="M956.5,54.163l-2.059-5.8s.928-2.645-.7-3.945-4.27-.464-4.27-.464a23.3,23.3,0,0,0-2.6,5.662c-.357,1.681.418,2.777,3.806,2.92l.65,1.628Z" transform="translate(-791.905 -36.541)" fill="#fff"/>
          <path id="Trazado_1030696" data-name="Trazado 1030696" d="M955.66,53.472h-5.169a.164.164,0,0,1-.152-.1l-.61-1.53c-1.843-.09-3.005-.478-3.553-1.185a2.238,2.238,0,0,1-.3-1.928,23.1,23.1,0,0,1,2.62-5.715.162.162,0,0,1,.089-.069c.111-.035,2.748-.846,4.421.492,1.582,1.266.9,3.664.767,4.071l2.04,5.748a.164.164,0,0,1-.154.218m-5.058-.327h4.826l-1.982-5.583a.164.164,0,0,1,0-.109c.009-.025.869-2.552-.644-3.763-1.41-1.128-3.674-.561-4.061-.452a22.762,22.762,0,0,0-2.545,5.556,1.936,1.936,0,0,0,.238,1.659c.5.639,1.612.987,3.414,1.063a.163.163,0,0,1,.145.1Z" transform="translate(-791.069 -35.687)"/>
          <path id="Trazado_1030697" data-name="Trazado 1030697" d="M964.41,80.928a.163.163,0,0,1-.156-.114l-.859-2.712a.164.164,0,0,1,.312-.1l.859,2.712a.164.164,0,0,1-.156.213" transform="translate(-805.784 -65.147)"/>
          <path id="Trazado_1030698" data-name="Trazado 1030698" d="M953.75,18.834c1.365-1.038,4.695-.263,6.385.179a5.674,5.674,0,0,1,3.759,3.231,5.549,5.549,0,0,1-.322,4.821,1.887,1.887,0,0,1-1.038.968q-.038-.518-.077-1.036c-.011-.144-.046-.322-.217-.341a.277.277,0,0,0-.3.212c-.44,1.928-2.415,2.166-4.157,2.1a.588.588,0,0,1-.557-.777c.017-.046.03-.093.045-.14a2.709,2.709,0,0,0,.515-.593,3.439,3.439,0,0,0,.542-1.555,1.625,1.625,0,0,0-.411-1.344,1.219,1.219,0,0,0-1.188-.258,1.433,1.433,0,0,0-.374.18c-1.361,2.375-.965-.731-1.551-.9-.533-.158-1.2-.274-1.223-.932,0-.11-2.21-2.008.164-3.814" transform="translate(-796.804 -15.321)"/>
          <path id="Trazado_1030699" data-name="Trazado 1030699" d="M971.343,75.728a1.053,1.053,0,0,1-.41-.082,1.073,1.073,0,0,1-.62-.748.164.164,0,1,1,.32-.07.73.73,0,0,0,1.1.465.163.163,0,1,1,.172.278,1.064,1.064,0,0,1-.56.157" transform="translate(-811.574 -62.479)"/>
          <path id="Trazado_1030700" data-name="Trazado 1030700" d="M972.028,65.9a.164.164,0,0,1-.141-.246,2.145,2.145,0,0,1,.905-.837.164.164,0,0,1,.143.294,1.815,1.815,0,0,0-.766.708.163.163,0,0,1-.141.081" transform="translate(-812.875 -54.2)"/>
          <path id="Trazado_1030701" data-name="Trazado 1030701" d="M767.686,108.392s-6.355,1.133-9.891.647a19.245,19.245,0,0,1-3.31-5.827c-1.068-3.246,1.685-3.41,1.685-3.41a1.651,1.651,0,0,1,2.547-.863s.308-.945,1.725-.575,4.458,2.013,4.56,3.739a2.869,2.869,0,0,1,1.52,1.616c.194.579,1.163,4.673,1.163,4.673" transform="translate(-630.851 -82.201)" fill="#fff"/>
          <path id="Trazado_1030702" data-name="Trazado 1030702" d="M759.024,108.488a15.7,15.7,0,0,1-2.09-.121.164.164,0,0,1-.1-.055,19.591,19.591,0,0,1-3.342-5.883,3,3,0,0,1,.1-2.678,2.367,2.367,0,0,1,1.618-.935,1.926,1.926,0,0,1,.967-1.039,1.99,1.99,0,0,1,1.625.112c.177-.288.674-.822,1.84-.518,1.264.33,4.455,1.927,4.674,3.787a3,3,0,0,1,1.521,1.674c.195.58,1.127,4.519,1.167,4.687a.164.164,0,0,1-.13.2,54.006,54.006,0,0,1-7.852.769m-1.984-.437c3.157.413,8.578-.452,9.607-.625-.185-.779-.951-3.99-1.119-4.489a2.725,2.725,0,0,0-1.426-1.516.164.164,0,0,1-.1-.142c-.1-1.6-2.982-3.21-4.439-3.59-1.241-.324-1.518.436-1.529.469a.165.165,0,0,1-.228.095,1.77,1.77,0,0,0-1.5-.173,1.648,1.648,0,0,0-.821.938.164.164,0,0,1-.146.115,2.113,2.113,0,0,0-1.477.806,2.707,2.707,0,0,0-.062,2.39,19.21,19.21,0,0,0,3.239,5.724" transform="translate(-630.013 -81.367)"/>
          <path id="Trazado_1030703" data-name="Trazado 1030703" d="M781.254,104.547a.164.164,0,0,1-.149-.094,7.709,7.709,0,0,1-.694-2.588.164.164,0,0,1,.326-.029,7.386,7.386,0,0,0,.665,2.479.164.164,0,0,1-.148.233" transform="translate(-652.741 -85.051)"/>
          <path id="Trazado_1030704" data-name="Trazado 1030704" d="M765.748,109.748a.164.164,0,0,1-.148-.093,7.705,7.705,0,0,1-.722-2.766.164.164,0,1,1,.327-.022,7.373,7.373,0,0,0,.666,2.594l.007.014.019.041a.163.163,0,0,1-.08.216.161.161,0,0,1-.069.015" transform="translate(-639.75 -89.257)"/>
          <path id="Trazado_1030705" data-name="Trazado 1030705" d="M802.01,122.6a.167.167,0,0,1-.055-.01,11.507,11.507,0,0,0-3.383-.752.164.164,0,0,1-.153-.174.16.16,0,0,1,.173-.153,11.8,11.8,0,0,1,3.473.77.164.164,0,0,1-.055.318" transform="translate(-667.804 -101.638)"/>
          <path id="Trazado_1030706" data-name="Trazado 1030706" d="M798.232,106.867a.163.163,0,0,1-.147-.091,22.868,22.868,0,0,0-1.351-2.373.164.164,0,1,1,.274-.179,23.153,23.153,0,0,1,1.37,2.408.163.163,0,0,1-.075.219.162.162,0,0,1-.072.017" transform="translate(-666.372 -87.111)"/>
          <path id="Trazado_1030707" data-name="Trazado 1030707" d="M811.536,122.482a.634.634,0,0,0,.427-1.1l-5.856-5.329a.634.634,0,1,0-.854.938l5.856,5.329a.631.631,0,0,0,.427.165" transform="translate(-673.347 -96.926)"/>
          <path id="Trazado_1030708" data-name="Trazado 1030708" d="M1057.173,258.253l6.306-1.788s-1.912-6.722-3.42-7.234l-5.442.566Z" transform="translate(-882.09 -208.459)" fill="#fff"/>
          <path id="Trazado_1030709" data-name="Trazado 1030709" d="M1056.337,257.58a.164.164,0,0,1-.157-.116l-2.556-8.456a.163.163,0,0,1,.14-.21l5.442-.566a.163.163,0,0,1,.069.008c1.545.524,3.327,6.648,3.525,7.344a.164.164,0,0,1-.113.2l-6.306,1.788a.156.156,0,0,1-.045.006m-2.342-8.478,2.452,8.113,5.994-1.7c-.563-1.934-2.1-6.5-3.239-6.955Z" transform="translate(-881.253 -207.622)"/>
          <path id="Trazado_1030710" data-name="Trazado 1030710" d="M830.759,133.329l-3.909-8.268,3.42-3.673-6.378-6.193a22.541,22.541,0,0,0,1.017,7.4c1.2,3.42.046,6.378-3.7,7.21-2.978.662-16.246.271-21.553.083a2.285,2.285,0,0,1-2.2-2.285v-1.866s-6.84,7.9-13.866,7.025-8-9.706-7.765-21.631c0,0,6.517-2.08,9.891-.647l.924,1.664,5.816-7.242a11.042,11.042,0,0,1,9.4-4.1c5.771.414,14.709,1.1,21.352,1.812a23.014,23.014,0,0,1,13.873,6.66c3.716,3.741,8.631,8.954,8.633,12.225.006,9.4-14.955,11.83-14.955,11.83" transform="translate(-648.88 -84.289)" fill="#5479f7"/>
          <path id="Trazado_1030711" data-name="Trazado 1030711" d="M898.325,201.837h-.005a.163.163,0,0,1-.158-.169,22.405,22.405,0,0,0-1.62-9.063.164.164,0,1,1,.3-.123,22.731,22.731,0,0,1,1.643,9.2.163.163,0,0,1-.163.158" transform="translate(-749.864 -160.908)"/>
          <path id="Trazado_1030712" data-name="Trazado 1030712" d="M1069.405,173.2a.164.164,0,0,1-.164-.163,3.645,3.645,0,0,1,1.339-2.829.164.164,0,1,1,.206.254,3.36,3.36,0,0,0-1.218,2.573.164.164,0,0,1-.163.165Z" transform="translate(-894.322 -142.337)"/>
          <path id="Trazado_1030713" data-name="Trazado 1030713" d="M1111.928,229.219a.163.163,0,0,1-.112-.045l-2.579-2.431a.164.164,0,1,1,.224-.238l2.579,2.431a.163.163,0,0,1-.112.283" transform="translate(-927.731 -189.414)"/>
          <path id="Trazado_1030714" data-name="Trazado 1030714" d="M798.983,177.234a.163.163,0,0,1-.158-.12l-.4-1.446a.164.164,0,1,1,.315-.087l.319,1.153c1.3-1.5,6.326-7.344,6.379-7.407a.164.164,0,0,1,.248.213c-.057.066-5.73,6.666-6.581,7.638a.164.164,0,0,1-.123.056" transform="translate(-667.803 -141.579)"/>
          <path id="Trazado_1030715" data-name="Trazado 1030715" d="M921.055,352.113h13.181a15.985,15.985,0,0,0,8.7-2.573,4.22,4.22,0,0,0,1.773-4.664c-3.743-13.569-19.5-69.468-29.359-85.446,0,0-12.85.717-21.546-.937a2.575,2.575,0,0,0-3.05,2.529c-.037,15.014-.176,76.972.008,84.883l-4.377,3.969a1.286,1.286,0,0,0,.864,2.239h21.57a4.577,4.577,0,0,0,4.564-4.924l-3.868-53.113,12.232,51.067a5.549,5.549,0,0,1-1.433,5.2,1.042,1.042,0,0,0,.744,1.772" transform="translate(-741.023 -216.168)" fill="#fff"/>
          <path id="Trazado_1030716" data-name="Trazado 1030716" d="M933.39,356.462H920.209a1.206,1.206,0,0,1-.86-2.05,5.353,5.353,0,0,0,1.391-5.044l-11.763-49.113,3.722,51.108a4.74,4.74,0,0,1-4.727,5.1H886.4a1.45,1.45,0,0,1-.974-2.523l4.322-3.919c-.183-8.309-.038-72.078-.007-84.812a.164.164,0,0,1,.164-.163h0a.164.164,0,0,1,.163.164c-.031,12.772-.178,76.889.008,84.878a.164.164,0,0,1-.054.125l-4.377,3.969a1.122,1.122,0,0,0,.754,1.954h21.57a4.413,4.413,0,0,0,4.4-4.748L908.5,298.273a.164.164,0,0,1,.322-.05l12.231,51.067a5.678,5.678,0,0,1-1.475,5.35.878.878,0,0,0,.627,1.494H933.39A15.788,15.788,0,0,0,942,353.588a4.042,4.042,0,0,0,1.7-4.483c-3.154-11.432-19.391-69.275-29.34-85.4a.164.164,0,0,1,.279-.172c9.722,15.761,24.943,69.419,29.377,85.489a4.368,4.368,0,0,1-1.842,4.844,16.114,16.114,0,0,1-8.786,2.6" transform="translate(-740.177 -220.353)"/>
          <path id="Trazado_1030717" data-name="Trazado 1030717" d="M1023.911,370.06a.164.164,0,0,1-.163-.151l-1.15-15.147a6.733,6.733,0,0,1,.288-3.237,2.434,2.434,0,0,1,2.753-1.515.164.164,0,0,1-.1.312,2.1,2.1,0,0,0-2.354,1.335,6.486,6.486,0,0,0-.262,3.081l1.15,15.147a.164.164,0,0,1-.151.176h-.013" transform="translate(-855.256 -292.68)"/>
          <path id="Trazado_1030718" data-name="Trazado 1030718" d="M929.056,793.32a81.236,81.236,0,0,1-10.608-.7.163.163,0,0,1-.141-.184.162.162,0,0,1,.184-.141,80.932,80.932,0,0,0,21.154,0,.164.164,0,1,1,.043.324,81.25,81.25,0,0,1-10.632.7" transform="translate(-768.078 -662.682)"/>
          <path id="Trazado_1030719" data-name="Trazado 1030719" d="M1109.766,778.061a.164.164,0,0,1-.009-.327,73.579,73.579,0,0,0,20.866-4.27.164.164,0,0,1,.111.308,73.893,73.893,0,0,1-20.959,4.289h-.009" transform="translate(-928.08 -646.923)"/>
        </g>
      </g>
    </g>
  </g>
</svg>
