<svg xmlns="http://www.w3.org/2000/svg" xmlns:xlink="http://www.w3.org/1999/xlink" width="150" height="150" viewBox="0 0 150 150">
  <defs>
    <clipPath id="clip-path">
      <rect id="Rectángulo_456277" data-name="Rectángulo 456277" width="150" height="150" transform="translate(-0.059 -0.059)" fill="#d35560"/>
    </clipPath>
    <clipPath id="clip-path-2">
      <rect id="Rectángulo_459887" data-name="Rectángulo 459887" width="79.16" height="68.501" fill="none"/>
    </clipPath>
  </defs>
  <g id="Grupo_1180100" data-name="Grupo 1180100" transform="translate(-413.192 -9435.133)">
    <g id="Grupo_1180081" data-name="Grupo 1180081" transform="translate(413.25 9435.191)">
      <g id="Grupo_1179924" data-name="Grupo 1179924" transform="translate(0 0)">
        <g id="Grupo_1179923" data-name="Grupo 1179923" transform="translate(0 0)" clip-path="url(#clip-path)">
          <path id="Trazado_1004716" data-name="Trazado 1004716" d="M74.59,149.181c-2.423,0-4.689-2.768-7.051-3-2.407-.235-5.167,2.037-7.5,1.574-2.367-.47-4.049-3.628-6.329-4.321-2.305-.7-5.459.985-7.662.069-2.222-.923-3.251-4.35-5.356-5.479s-5.541-.1-7.528-1.432-2.336-4.9-4.186-6.418-5.412-1.171-7.107-2.865-1.342-5.254-2.865-7.107-5.082-2.192-6.418-4.186-.3-5.41-1.432-7.527-4.556-3.135-5.48-5.356c-.916-2.2.77-5.357.07-7.662-.693-2.28-3.85-3.961-4.32-6.329C.962,86.809,3.234,84.048,3,81.642c-.231-2.363-3-4.629-3-7.052S2.768,69.9,3,67.539c.235-2.407-2.037-5.166-1.573-7.5.47-2.367,3.627-4.049,4.32-6.329.7-2.306-.985-5.459-.069-7.663.924-2.222,4.35-3.251,5.48-5.356s.1-5.54,1.432-7.528,4.9-2.336,6.418-4.186,1.171-5.412,2.866-7.107,5.254-1.342,7.107-2.865,2.192-5.082,4.186-6.418,5.41-.3,7.528-1.432,3.134-4.556,5.356-5.48c2.2-.916,5.357.77,7.663.069,2.28-.692,3.961-3.85,6.328-4.32C62.372.962,65.133,3.234,67.539,3c2.363-.231,4.629-3,7.052-3s4.689,2.768,7.051,3c2.407.235,5.167-2.037,7.5-1.574,2.367.47,4.049,3.628,6.329,4.321,2.305.7,5.459-.985,7.662-.069,2.222.923,3.251,4.35,5.356,5.48s5.541.1,7.528,1.432,2.337,4.9,4.186,6.418,5.412,1.171,7.107,2.866,1.342,5.254,2.865,7.107,5.082,2.192,6.418,4.186.3,5.41,1.432,7.528,4.556,3.135,5.479,5.356c.916,2.2-.77,5.357-.069,7.662.693,2.28,3.85,3.961,4.32,6.328.463,2.333-1.809,5.093-1.574,7.5.231,2.363,3,4.629,3,7.051s-2.768,4.689-3,7.052c-.235,2.406,2.037,5.166,1.574,7.5-.47,2.367-3.627,4.049-4.32,6.329-.7,2.305.985,5.459.069,7.662-.924,2.222-4.35,3.251-5.48,5.357s-.1,5.54-1.432,7.528-4.9,2.336-6.418,4.186-1.171,5.412-2.866,7.107-5.254,1.342-7.107,2.865-2.192,5.081-4.186,6.418-5.41.3-7.528,1.432-3.134,4.557-5.356,5.48c-2.2.916-5.357-.77-7.662-.069-2.28.692-3.961,3.85-6.328,4.32-2.333.463-5.093-1.809-7.5-1.574-2.363.231-4.629,3-7.052,3" transform="translate(0.35 0.35)" fill="#d35560"/>
          <path id="Trazado_1004717" data-name="Trazado 1004717" d="M14,81.535a67.535,67.535,0,1,1,67.535,67.535A67.535,67.535,0,0,1,14,81.535" transform="translate(-6.594 -6.594)" fill="#4d787e"/>
          <path id="Trazado_1004718" data-name="Trazado 1004718" d="M132.334,270.213c-.179-.759-.348-1.543-.509-2.312l-2.36-.3q1.057-.562,2.072-1.13-.225-1.156-.423-2.309c.54.53,1.093,1.077,1.663,1.6q.994-.618,1.945-1.239-.422,1.09-.87,2.178c.589.505,1.191,1.019,1.808,1.521l-2.372-.177q-.464,1.087-.955,2.171" transform="translate(-63.866 -130.676)" fill="#ffffc5"/>
          <path id="Trazado_1004719" data-name="Trazado 1004719" d="M113.789,266.762c-.064-.775-.113-1.577-.157-2.361l-2.288-.652q1.129-.4,2.219-.806-.049-1.177-.072-2.347c.455.6.919,1.229,1.4,1.829q1.075-.461,2.108-.932-.58,1.014-1.185,2.022c.507.586,1.024,1.192,1.561,1.772-.776-.161-1.546-.353-2.319-.528q-.621,1-1.269,2" transform="translate(-54.878 -128.909)" fill="#ffffc5"/>
          <path id="Trazado_1004720" data-name="Trazado 1004720" d="M96.012,260.643c.058-.789.127-1.579.2-2.363l-2.166-.983c.783-.146,1.556-.305,2.315-.467q.129-1.169.28-2.329c.358.667.728,1.343,1.113,2.021q1.132-.3,2.225-.608-.726.916-1.477,1.822c.413.657.836,1.325,1.277,1.987l-2.214-.87q-.766.9-1.556,1.79" transform="translate(-46.299 -125.885)" fill="#ffffc5"/>
          <path id="Trazado_1004721" data-name="Trazado 1004721" d="M79.414,251.99q.265-1.159.551-2.3c-.663-.434-1.344-.843-1.993-1.3.783-.008,1.584-.069,2.356-.112q.3-1.136.623-2.258.384,1.067.8,2.159c.766-.066,1.54-.171,2.29-.266q-.856.8-1.734,1.584.466,1.066.968,2.153l-2.062-1.187c-.594.517-1.2,1.036-1.8,1.531" transform="translate(-38.325 -121.677)" fill="#ffffc5"/>
          <path id="Trazado_1004722" data-name="Trazado 1004722" d="M64.353,241.022q.432-1.105.885-2.194c-.593-.526-1.215-1.021-1.777-1.582.769.115,1.567.177,2.343.242q.464-1.078.948-2.139.225,1.109.481,2.247c.755.064,1.543.065,2.3.082q-.965.664-1.952,1.311.3,1.12.643,2.265l-1.87-1.471c-.669.429-1.327.83-2,1.238" transform="translate(-31.127 -116.386)" fill="#ffffc5"/>
          <path id="Trazado_1004723" data-name="Trazado 1004723" d="M51.149,227.995q.589-1.028,1.2-2.037l-.779-.9c-.258-.3-.494-.62-.741-.929l1.128.317,1.149.273q.617-1,1.25-1.973.063,1.127.152,2.286l1.121.234,1.138.191q-1.055.516-2.127,1.012.14,1.148.309,2.327c-.545-.576-1.1-1.142-1.635-1.727q-1.07.473-2.159.926" transform="translate(-24.859 -110.134)" fill="#ffffc5"/>
          <path id="Trazado_1004724" data-name="Trazado 1004724" d="M39.841,213.191q.733-.928,1.481-1.835c-.212-.336-.434-.664-.637-1l-.594-1.031c.724.322,1.417.646,2.16.923.507-.6,1.006-1.179,1.532-1.767-.079.754-.131,1.508-.186,2.282.723.269,1.425.535,2.166.758-.746.236-1.5.467-2.255.686-.022.772-.029,1.551-.032,2.344-.451-.652-.939-1.279-1.359-1.952q-1.13.31-2.275.6" transform="translate(-19.411 -103.056)" fill="#ffffc5"/>
          <path id="Trazado_1004725" data-name="Trazado 1004725" d="M30.615,196.931q.862-.808,1.735-1.593c-.343-.716-.614-1.462-.909-2.2.671.425,1.309.848,1.992,1.237.582-.511,1.181-1.02,1.787-1.522-.212.742-.356,1.472-.529,2.229.683.37,1.327.742,2.024,1.074-.778.124-1.554.238-2.322.338-.159.771-.262,1.529-.386,2.314-.358-.707-.739-1.4-1.051-2.133q-1.165.138-2.342.253" transform="translate(-14.835 -95.309)" fill="#ffffc5"/>
          <path id="Trazado_1004726" data-name="Trazado 1004726" d="M24.019,179.289q.973-.669,1.952-1.313c-.235-.758-.377-1.54-.566-2.31.6.522,1.176,1.033,1.781,1.524.651-.417,1.333-.834,2-1.237-.326.7-.579,1.4-.86,2.124.617.469,1.213.929,1.836,1.366-.791.008-1.557,0-2.34-.016-.284.741-.492,1.474-.731,2.231-.259-.75-.515-1.5-.717-2.268q-1.174-.038-2.355-.1" transform="translate(-11.564 -86.782)" fill="#ffffc5"/>
          <path id="Trazado_1004727" data-name="Trazado 1004727" d="M20.215,160.664q1.062-.516,2.127-1.005c-.119-.785-.143-1.579-.214-2.369.513.605,1.005,1.2,1.532,1.774.706-.315,1.441-.624,2.164-.924-.429.647-.781,1.3-1.168,1.972.539.556,1.062,1.1,1.608,1.627-.781-.112-1.537-.237-2.309-.368-.392.69-.711,1.384-1.058,2.1l-.21-1.171c-.066-.391-.1-.786-.158-1.179q-1.155-.214-2.313-.453" transform="translate(-9.677 -77.667)" fill="#ffffc5"/>
          <path id="Trazado_1004728" data-name="Trazado 1004728" d="M19.269,141.764q1.128-.352,2.255-.679c0-.793.074-1.584.135-2.374.421.674.8,1.333,1.259,1.981.751-.207,1.5-.406,2.266-.595-.5.578-.959,1.172-1.441,1.779.453.63.873,1.246,1.353,1.848q-1.134-.34-2.237-.706c-.483.624-.9,1.263-1.353,1.915-.018-.792-.055-1.585-.018-2.378q-1.109-.382-2.218-.79" transform="translate(-9.207 -68.451)" fill="#ffffc5"/>
          <path id="Trazado_1004729" data-name="Trazado 1004729" d="M21.174,123q1.169-.181,2.333-.336c.074-.39.132-.783.218-1.169l.268-1.159c.312.729.595,1.437.951,2.146.778-.092,1.538-.178,2.325-.25-.574.5-1.122,1.015-1.688,1.543.353.69.672,1.36,1.067,2.028-.706-.335-1.426-.681-2.114-1.031-.553.548-1.077,1.115-1.619,1.694.111-.785.174-1.577.333-2.355q-1.039-.543-2.074-1.112" transform="translate(-10.152 -59.337)" fill="#ffffc5"/>
          <path id="Trazado_1004730" data-name="Trazado 1004730" d="M25.928,104.79q1.182,0,2.357.018c.239-.757.539-1.491.832-2.228.2.769.37,1.51.616,2.264.779.025,1.552.056,2.341.1-.65.4-1.263.834-1.9,1.271.247.736.46,1.445.75,2.165-.649-.438-1.3-.887-1.934-1.337-.633.458-1.233.941-1.857,1.432.226-.761.412-1.533.684-2.279q-.946-.692-1.884-1.411" transform="translate(-12.51 -50.53)" fill="#ffffc5"/>
          <path id="Trazado_1004731" data-name="Trazado 1004731" d="M33.429,87.557q1.169.173,2.325.37c.346-.714.77-1.386,1.158-2.077.083.789.155,1.557.267,2.329.761.139,1.54.3,2.306.457-.718.293-1.376.634-2.077.969.134.765.248,1.5.414,2.252-.582-.533-1.146-1.067-1.705-1.608-.709.35-1.361.744-2.054,1.134.327-.722.644-1.45,1.02-2.149q-.833-.827-1.654-1.678" transform="translate(-16.231 -42.232)" fill="#ffffc5"/>
          <path id="Trazado_1004732" data-name="Trazado 1004732" d="M43.489,71.68q1.128.345,2.241.71c.461-.645.972-1.253,1.456-1.881q-.054,1.188-.083,2.343,1.117.389,2.219.8c-.749.187-1.473.41-2.2.647q.023,1.16.07,2.287-.728-.91-1.438-1.839c-.753.241-1.471.524-2.2.813l.643-1,.688-.97q-.7-.943-1.388-1.908" transform="translate(-21.221 -34.623)" fill="#ffffc5"/>
          <path id="Trazado_1004733" data-name="Trazado 1004733" d="M55.356,57.5q1.064.506,2.109,1.031l1.72-1.643q-.226,1.17-.421,2.312,1.046.548,2.073,1.115c-.759.084-1.53.176-2.278.31Q58.413,61.78,58.3,62.9q-.585-1.008-1.152-2.034l-1.161.215c-.384.079-.76.17-1.144.259.508-.61,1.064-1.175,1.611-1.75q-.556-1.038-1.094-2.095" transform="translate(-26.851 -27.867)" fill="#ffffc5"/>
          <path id="Trazado_1004734" data-name="Trazado 1004734" d="M69.217,45.319c.65.436,1.293.879,1.939,1.34l1.938-1.379q-.394,1.129-.753,2.233.952.7,1.883,1.406c-.754-.018-1.544-.058-2.3-.035q-.311,1.124-.59,2.223-.431-1.084-.841-2.184c-.774.032-1.582.045-2.354.123.592-.529,1.238-.991,1.854-1.49q-.4-1.111-.775-2.237" transform="translate(-33.447 -22.109)" fill="#ffffc5"/>
          <path id="Trazado_1004735" data-name="Trazado 1004735" d="M84.831,34.886c.578.528,1.158,1.078,1.724,1.623l2.117-1.086q-.555,1.061-1.073,2.1.838.828,1.652,1.667c-.745-.133-1.508-.269-2.274-.382q-.473,1.07-.908,2.119-.266-1.138-.51-2.288c-.77-.084-1.562-.176-2.349-.232.677-.412,1.372-.8,2.057-1.2q-.23-1.158-.436-2.33" transform="translate(-40.923 -16.954)" fill="#ffffc5"/>
          <path id="Trazado_1004736" data-name="Trazado 1004736" d="M101.868,26.946q.744.928,1.463,1.866c.752-.251,1.5-.517,2.255-.756-.476.632-.93,1.284-1.376,1.919q.7.943,1.382,1.893-1.075-.365-2.191-.718c-.421.651-.822,1.313-1.214,1.961q-.094-1.166-.163-2.342-1.124-.3-2.289-.582l2.213-.874c-.035-.785-.066-1.583-.081-2.367" transform="translate(-49.12 -13.015)" fill="#ffffc5"/>
          <path id="Trazado_1004737" data-name="Trazado 1004737" d="M119.95,21.733q.6,1.029,1.166,2.064c.781-.136,1.56-.289,2.344-.41-.566.55-1.113,1.13-1.649,1.69q.554,1.037,1.082,2.079-1.008-.522-2.058-1.037c-.516.571-1.01,1.175-1.494,1.755q.082-1.167.19-2.341-1.066-.463-2.174-.916l2.318-.536c.083-.782.173-1.578.276-2.349" transform="translate(-57.86 -10.43)" fill="#ffffc5"/>
          <path id="Trazado_1004738" data-name="Trazado 1004738" d="M138.658,19.35q.436,1.108.845,2.216l2.378-.059q-.962.715-1.882,1.43.394,1.11.761,2.219-.92-.668-1.882-1.336c-.595.5-1.175,1.012-1.741,1.515q.256-1.142.539-2.285-.986-.619-2.013-1.234l2.372-.18c.2-.761.407-1.532.623-2.286" transform="translate(-66.94 -9.248)" fill="#ffffc5"/>
          <path id="Trazado_1004739" data-name="Trazado 1004739" d="M157.568,19.831c.179.759.348,1.543.509,2.312l2.36.3q-1.057.562-2.072,1.13.224,1.156.423,2.309c-.54-.53-1.093-1.077-1.662-1.6q-.994.618-1.945,1.239.422-1.09.87-2.178c-.589-.505-1.191-1.02-1.808-1.521l2.372.177q.464-1.087.955-2.171" transform="translate(-76.155 -9.486)" fill="#ffffc5"/>
          <path id="Trazado_1004740" data-name="Trazado 1004740" d="M176.272,23.17c.064.775.113,1.577.157,2.361l2.288.652q-1.129.4-2.219.806.049,1.177.072,2.347c-.455-.6-.918-1.229-1.4-1.829q-1.075.461-2.108.932.58-1.014,1.185-2.022c-.506-.586-1.024-1.192-1.561-1.771.776.161,1.546.352,2.319.527q.622-1,1.269-2" transform="translate(-85.303 -11.142)" fill="#ffffc5"/>
          <path id="Trazado_1004741" data-name="Trazado 1004741" d="M194.147,29.313c-.058.789-.126,1.578-.2,2.363l2.166.983c-.783.147-1.556.306-2.315.467q-.128,1.169-.28,2.329c-.358-.667-.728-1.343-1.113-2.021q-1.132.3-2.225.608.726-.916,1.476-1.822c-.412-.657-.836-1.325-1.277-1.987l2.214.87q.766-.9,1.556-1.79" transform="translate(-93.98 -14.189)" fill="#ffffc5"/>
          <path id="Trazado_1004742" data-name="Trazado 1004742" d="M210.61,38.133q-.265,1.159-.551,2.3c.663.434,1.344.843,1.993,1.3-.783.008-1.584.069-2.356.112q-.3,1.136-.623,2.258-.384-1.067-.8-2.159c-.766.066-1.54.171-2.29.266q.856-.8,1.734-1.584-.466-1.066-.968-2.153l2.062,1.187c.594-.517,1.2-1.036,1.8-1.531" transform="translate(-101.818 -18.564)" fill="#ffffc5"/>
          <path id="Trazado_1004743" data-name="Trazado 1004743" d="M225.67,49.168q-.432,1.105-.884,2.194c.593.526,1.215,1.021,1.777,1.582-.769-.115-1.567-.177-2.343-.242q-.464,1.078-.948,2.139-.225-1.109-.481-2.246c-.755-.064-1.543-.065-2.3-.082q.966-.664,1.952-1.311-.3-1.12-.643-2.264l1.87,1.47c.669-.429,1.326-.83,2-1.238" transform="translate(-109.015 -23.922)" fill="#ffffc5"/>
          <path id="Trazado_1004744" data-name="Trazado 1004744" d="M239.007,62.051q-.589,1.028-1.2,2.037l.779.9c.258.3.493.62.742.929L238.2,65.6l-1.149-.273q-.617,1-1.25,1.973-.063-1.127-.152-2.286l-1.121-.234-1.137-.191q1.055-.516,2.127-1.012-.14-1.148-.309-2.327c.545.576,1.1,1.142,1.635,1.727q1.071-.473,2.159-.926" transform="translate(-115.416 -30.03)" fill="#ffffc5"/>
          <path id="Trazado_1004745" data-name="Trazado 1004745" d="M250.33,76.837q-.733.928-1.481,1.835c.211.335.434.664.636,1l.594,1.031c-.724-.322-1.417-.646-2.16-.923-.507.6-1.006,1.179-1.532,1.767.079-.754.131-1.508.186-2.282-.723-.269-1.425-.535-2.166-.757.746-.236,1.5-.467,2.255-.686.022-.772.03-1.55.032-2.343.451.652.939,1.279,1.359,1.952q1.13-.31,2.275-.6" transform="translate(-120.879 -37.09)" fill="#ffffc5"/>
          <path id="Trazado_1004746" data-name="Trazado 1004746" d="M259.38,93.209q-.862.808-1.735,1.593c.343.716.614,1.462.909,2.2-.671-.425-1.309-.848-1.992-1.237-.582.511-1.181,1.02-1.787,1.522.212-.742.356-1.472.529-2.229-.683-.37-1.327-.742-2.024-1.074.778-.124,1.554-.238,2.322-.338.159-.771.262-1.529.385-2.314.358.708.739,1.4,1.051,2.134q1.165-.138,2.342-.253" transform="translate(-125.279 -44.949)" fill="#ffffc5"/>
          <path id="Trazado_1004747" data-name="Trazado 1004747" d="M265.935,110.814q-.973.67-1.952,1.313c.235.758.377,1.54.566,2.31-.6-.521-1.176-1.033-1.781-1.524-.651.417-1.333.834-2,1.237.327-.7.579-1.4.86-2.124-.617-.469-1.213-.929-1.836-1.366.791-.007,1.557,0,2.34.016.284-.741.492-1.474.731-2.231.259.75.515,1.5.717,2.268q1.174.038,2.355.1" transform="translate(-128.509 -53.44)" fill="#ffffc5"/>
          <path id="Trazado_1004748" data-name="Trazado 1004748" d="M269.832,129.258q-1.062.516-2.127,1.005c.119.785.143,1.579.214,2.369-.513-.605-1.005-1.2-1.532-1.774-.706.315-1.441.624-2.164.924.429-.647.781-1.3,1.168-1.972-.539-.556-1.062-1.1-1.608-1.627.781.112,1.537.237,2.309.367.392-.69.711-1.383,1.058-2.1l.21,1.171c.066.391.1.786.158,1.179q1.155.214,2.313.453" transform="translate(-130.489 -62.373)" fill="#ffffc5"/>
          <path id="Trazado_1004749" data-name="Trazado 1004749" d="M270.909,148.113q-1.128.352-2.255.679c0,.793-.074,1.584-.135,2.374-.421-.674-.8-1.333-1.259-1.981-.751.207-1.5.406-2.266.595.5-.578.959-1.172,1.441-1.779-.453-.63-.873-1.246-1.353-1.848q1.134.34,2.237.706c.483-.624.9-1.263,1.353-1.915.018.793.055,1.585.018,2.378q1.109.383,2.218.79" transform="translate(-131.09 -71.544)" fill="#ffffc5"/>
          <path id="Trazado_1004750" data-name="Trazado 1004750" d="M268.826,166.968q-1.17.181-2.334.336c-.074.39-.132.783-.218,1.169l-.268,1.159c-.312-.729-.595-1.437-.951-2.146-.778.092-1.538.178-2.326.25.574-.5,1.122-1.015,1.689-1.543-.353-.69-.672-1.36-1.067-2.028.706.335,1.426.681,2.114,1.031.553-.548,1.077-1.115,1.619-1.694-.111.785-.174,1.577-.333,2.355q1.039.542,2.074,1.111" transform="translate(-129.966 -80.748)" fill="#ffffc5"/>
          <path id="Trazado_1004751" data-name="Trazado 1004751" d="M264.024,185.4q-1.182,0-2.357-.018c-.24.757-.539,1.491-.832,2.228-.2-.769-.37-1.51-.616-2.264-.779-.025-1.552-.056-2.341-.1.65-.4,1.263-.834,1.9-1.271-.247-.735-.46-1.445-.75-2.165.649.437,1.3.886,1.934,1.337.633-.458,1.233-.941,1.857-1.431-.226.76-.412,1.532-.684,2.278q.946.692,1.884,1.411" transform="translate(-127.56 -89.783)" fill="#ffffc5"/>
          <path id="Trazado_1004752" data-name="Trazado 1004752" d="M256.61,202.53q-1.169-.173-2.325-.37c-.346.714-.77,1.386-1.158,2.077-.083-.789-.155-1.557-.267-2.329-.761-.139-1.54-.3-2.306-.457.718-.293,1.376-.635,2.077-.969-.134-.765-.248-1.5-.414-2.252.583.533,1.146,1.067,1.705,1.608.71-.35,1.361-.744,2.054-1.135-.327.722-.644,1.45-1.02,2.149q.832.827,1.654,1.678" transform="translate(-123.928 -97.974)" fill="#ffffc5"/>
          <path id="Trazado_1004753" data-name="Trazado 1004753" d="M246.77,218.341q-1.128-.344-2.241-.71c-.461.645-.972,1.253-1.456,1.881q.054-1.188.083-2.343-1.117-.389-2.219-.8c.749-.187,1.473-.41,2.2-.647q-.023-1.16-.07-2.287.728.91,1.438,1.839c.753-.241,1.471-.524,2.2-.813l-.643,1-.688.97q.7.943,1.388,1.908" transform="translate(-119.158 -105.517)" fill="#ffffc5"/>
          <path id="Trazado_1004754" data-name="Trazado 1004754" d="M234.741,232.58q-1.064-.506-2.109-1.031l-1.72,1.643q.226-1.17.421-2.312-1.046-.548-2.073-1.115c.759-.084,1.53-.176,2.278-.31q.146-1.154.263-2.279.585,1.007,1.152,2.034l1.161-.215c.384-.079.76-.17,1.144-.259-.508.61-1.064,1.175-1.611,1.75q.556,1.038,1.094,2.095" transform="translate(-113.365 -112.331)" fill="#ffffc5"/>
          <path id="Trazado_1004755" data-name="Trazado 1004755" d="M220.791,244.946c-.65-.436-1.293-.879-1.939-1.34l-1.938,1.379q.393-1.129.753-2.233-.952-.7-1.883-1.406c.754.018,1.544.058,2.3.035q.311-1.125.59-2.223.431,1.084.842,2.184c.774-.032,1.581-.045,2.353-.124-.591.529-1.238.991-1.854,1.49q.4,1.111.775,2.237" transform="translate(-106.68 -118.275)" fill="#ffffc5"/>
          <path id="Trazado_1004756" data-name="Trazado 1004756" d="M205.223,255.164c-.578-.528-1.158-1.078-1.724-1.622l-2.117,1.086q.555-1.061,1.072-2.1-.838-.829-1.652-1.668c.745.133,1.508.269,2.274.382q.472-1.069.908-2.119.266,1.139.51,2.289c.77.083,1.562.175,2.349.231-.677.413-1.371.8-2.057,1.2q.23,1.157.436,2.329" transform="translate(-99.25 -123.215)" fill="#ffffc5"/>
          <path id="Trazado_1004757" data-name="Trazado 1004757" d="M188.367,262.987q-.744-.928-1.463-1.866c-.752.251-1.5.517-2.255.756.476-.632.931-1.284,1.376-1.919q-.7-.943-1.382-1.894,1.075.365,2.191.718c.421-.651.822-1.313,1.214-1.961q.094,1.166.163,2.342,1.124.3,2.289.582l-2.213.874c.035.785.066,1.583.081,2.367" transform="translate(-91.235 -127.036)" fill="#ffffc5"/>
          <path id="Trazado_1004758" data-name="Trazado 1004758" d="M170.042,268.223q-.6-1.029-1.166-2.064c-.781.136-1.56.289-2.344.41.566-.55,1.113-1.13,1.649-1.69q-.554-1.037-1.082-2.079,1.008.522,2.058,1.037c.516-.571,1.01-1.175,1.495-1.755q-.082,1.167-.191,2.341,1.066.463,2.174.916l-2.318.536c-.083.782-.172,1.578-.276,2.349" transform="translate(-82.252 -129.645)" fill="#ffffc5"/>
          <path id="Trazado_1004759" data-name="Trazado 1004759" d="M151.223,270.76q-.435-1.108-.845-2.216L148,268.6q.962-.715,1.882-1.431-.394-1.109-.761-2.219.92.668,1.882,1.336c.595-.5,1.175-1.012,1.741-1.515q-.256,1.142-.539,2.285.986.618,2.013,1.233l-2.372.181c-.2.76-.407,1.532-.623,2.285" transform="translate(-73.059 -130.981)" fill="#ffffc5"/>
          <path id="Trazado_1004760" data-name="Trazado 1004760" d="M92.062,148.9A56.837,56.837,0,1,1,148.9,92.062,56.9,56.9,0,0,1,92.062,148.9" transform="translate(-17.122 -17.122)" fill="#d35560"/>
        </g>
      </g>
      <g id="Grupo_1180053" data-name="Grupo 1180053" transform="translate(39.422 38.995)">
        <rect id="Rectángulo_401104" data-name="Rectángulo 401104" width="71.038" height="71.894" transform="translate(0)" fill="#d35560"/>
      </g>
    </g>
    <g id="Grupo_1187613" data-name="Grupo 1187613" transform="translate(448.612 9475.883)">
      <g id="Grupo_1187612" data-name="Grupo 1187612" transform="translate(0 0)" clip-path="url(#clip-path-2)">
        <path id="Trazado_1031323" data-name="Trazado 1031323" d="M78.164,43.656,78.1,46.268q-.153.434-.983.407v1.888q.8-.115.981.36l.007,2.612-2.147.07-.357-.044a3.263,3.263,0,0,0-1.1-2.3q-3.57.044-7.1-.152l-.175-.358-.009-5.246a.927.927,0,0,0-.683-.819l-30.613-.04c-.776.1-.921.324-1.026,1.087L34.9,64.823q.363,1.193,2.2.886c.518.287.755,1.262.222,1.576a12.254,12.254,0,0,0-.117,2.684l-2.635.068q-.438-.062-.412-1.051H32.275q.111.751-.357.918H29.3q-.472.027-.355-.83-12.327-.158-24.709-.087c-1.15-.194-1.469-.551-1.66-1.667L2.582,26.73l.281-.468q36.9-.126,73.83-.071l.419.44,0,16.538a1.167,1.167,0,0,0,.844.152Z" transform="translate(-0.277 -2.819)" fill="#c4c4c3"/>
        <path id="Trazado_1031324" data-name="Trazado 1031324" d="M77.887,40.837l-1.379-.046,0-17.1-73.87.01-.01,40.785a1.321,1.321,0,0,0,1.349,1.346l25.007,0,.038,1.247-.03,1.417L3.617,68.454A3.791,3.791,0,0,1,0,64.829L0,11.543A3.822,3.822,0,0,1,3.43,7.948L6.571,7.9l.051-4.435a3.778,3.778,0,0,1,4-3.466,3.813,3.813,0,0,1,3.856,3.615l.031,4.3h3.934L18.5,3.466A3.779,3.779,0,0,1,22.5,0a3.811,3.811,0,0,1,3.856,3.615l.033,4.3H52.749l.05-4.451A3.766,3.766,0,0,1,56.638,0a3.879,3.879,0,0,1,4,3.465l.054,4.448h3.93l.052-4.448A3.768,3.768,0,0,1,68.512,0a3.879,3.879,0,0,1,4,3.465L72.563,7.9l2.987.027a3.719,3.719,0,0,1,3.57,3.606L79.155,40.8Z" transform="translate(0 0)" fill="#050605"/>
        <path id="Trazado_1031325" data-name="Trazado 1031325" d="M79.818,53.554l3.437,12.79a1.3,1.3,0,0,1-.3,1.2A1.414,1.414,0,0,1,81.807,68l-1.15,0a5.289,5.289,0,0,1-10.577-.011H51.633a5.3,5.3,0,0,1-10.444,1.247l-.136-1.246-1.312-.012a1.286,1.286,0,0,1-1.313-1.335l-.008-20.876a1.323,1.323,0,0,1,1.35-1.495l30.3,0a1.281,1.281,0,0,1,1.34,1.313l0,5.271,6.756.009a1.211,1.211,0,0,1,1.113.86Z" transform="translate(-4.139 -4.769)" fill="#050605"/>
        <path id="Trazado_1031326" data-name="Trazado 1031326" d="M87.059,48.694l1.326.009v2.634l-1.328.012-1.311-.023V48.706Z" transform="translate(-9.237 -5.245)" fill="#050605"/>
        <path id="Trazado_1031327" data-name="Trazado 1031327" d="M38.119,75.165,38.1,76.436H35.482l-.021-1.4.02-1.247H38.1Z" transform="translate(-3.82 -7.948)" fill="#050605"/>
        <path id="Trazado_1031328" data-name="Trazado 1031328" d="M77.321,40.051l-8,0A1.293,1.293,0,0,1,68,38.732V30.826a1.293,1.293,0,0,1,1.319-1.315h7.919a1.294,1.294,0,0,1,1.319,1.316v7.9a1.3,1.3,0,0,1-1.237,1.321" transform="translate(-7.325 -3.179)" fill="#050605"/>
        <path id="Trazado_1031329" data-name="Trazado 1031329" d="M18.175,54.809l-8,0A1.293,1.293,0,0,1,8.855,53.49V45.584a1.293,1.293,0,0,1,1.319-1.315h7.92a1.294,1.294,0,0,1,1.319,1.316v7.9a1.3,1.3,0,0,1-1.238,1.321" transform="translate(-0.954 -4.769)" fill="#050605"/>
        <path id="Trazado_1031330" data-name="Trazado 1031330" d="M18.175,69.566l-8,0a1.293,1.293,0,0,1-1.319-1.315V60.341a1.293,1.293,0,0,1,1.319-1.315h7.92a1.294,1.294,0,0,1,1.319,1.316v7.9a1.3,1.3,0,0,1-1.238,1.321" transform="translate(-0.954 -6.358)" fill="#050605"/>
        <path id="Trazado_1031331" data-name="Trazado 1031331" d="M32.961,69.566l-8,0a1.293,1.293,0,0,1-1.319-1.315V60.341a1.293,1.293,0,0,1,1.319-1.315h7.92A1.294,1.294,0,0,1,34.2,60.342v7.9a1.3,1.3,0,0,1-1.238,1.321" transform="translate(-2.547 -6.358)" fill="#050605"/>
        <path id="Trazado_1031332" data-name="Trazado 1031332" d="M32.961,54.809l-8,0a1.293,1.293,0,0,1-1.319-1.315V45.584a1.293,1.293,0,0,1,1.319-1.315h7.92A1.294,1.294,0,0,1,34.2,45.585v7.9a1.3,1.3,0,0,1-1.238,1.321" transform="translate(-2.547 -4.769)" fill="#050605"/>
        <path id="Trazado_1031333" data-name="Trazado 1031333" d="M32.961,40.051l-8,0a1.293,1.293,0,0,1-1.319-1.315V30.826a1.293,1.293,0,0,1,1.319-1.315h7.92A1.294,1.294,0,0,1,34.2,30.827v7.9a1.3,1.3,0,0,1-1.238,1.321" transform="translate(-2.547 -3.179)" fill="#050605"/>
        <path id="Trazado_1031334" data-name="Trazado 1031334" d="M47.748,40.051l-8,0a1.293,1.293,0,0,1-1.319-1.315V30.826a1.293,1.293,0,0,1,1.319-1.315h7.92a1.294,1.294,0,0,1,1.319,1.316v7.9a1.3,1.3,0,0,1-1.238,1.321" transform="translate(-4.14 -3.179)" fill="#050605"/>
        <path id="Trazado_1031335" data-name="Trazado 1031335" d="M62.534,40.051l-8,0a1.293,1.293,0,0,1-1.319-1.315V30.826a1.293,1.293,0,0,1,1.319-1.315h7.92a1.294,1.294,0,0,1,1.319,1.316v7.9a1.3,1.3,0,0,1-1.238,1.321" transform="translate(-5.732 -3.179)" fill="#050605"/>
        <path id="Trazado_1031336" data-name="Trazado 1031336" d="M58.582,22.329H26.2a5.617,5.617,0,0,0,3.954-3.306,5.221,5.221,0,0,0-.932-5.427V11.811h26.34V13.6a5.22,5.22,0,0,0-.933,5.427,5.623,5.623,0,0,0,3.956,3.306" transform="translate(-2.822 -1.272)" fill="#3a89be"/>
        <path id="Trazado_1031337" data-name="Trazado 1031337" d="M9.9,22.284l-6.963.069.011-9.22a1.238,1.238,0,0,1,1.174-1.29l2.767-.036L6.876,13.6a5.206,5.206,0,0,0-.93,5.427A5.381,5.381,0,0,0,9.9,22.284" transform="translate(-0.316 -1.272)" fill="#3a89be"/>
        <path id="Trazado_1031338" data-name="Trazado 1031338" d="M84.911,22.337l-6.967-.051A5.383,5.383,0,0,0,81.9,19.023a5.213,5.213,0,0,0-.929-5.426l-.015-1.792,2.628.017A1.314,1.314,0,0,1,84.9,13.129Z" transform="translate(-8.397 -1.272)" fill="#3a89be"/>
        <path id="Trazado_1031339" data-name="Trazado 1031339" d="M22.85,22.3H12.881a5.459,5.459,0,0,0,3.959-3.28,5.215,5.215,0,0,0-.93-5.426l-.014-1.79h3.939l-.014,1.79a5.209,5.209,0,0,0-.931,5.426,5.468,5.468,0,0,0,3.96,3.28" transform="translate(-1.388 -1.272)" fill="#3a89be"/>
        <path id="Trazado_1031340" data-name="Trazado 1031340" d="M74.6,22.3h-9.97a5.459,5.459,0,0,0,3.96-3.28,5.215,5.215,0,0,0-.93-5.426l-.015-1.79h3.939l-.014,1.79a5.213,5.213,0,0,0-.931,5.426A5.469,5.469,0,0,0,74.6,22.3" transform="translate(-6.963 -1.272)" fill="#3a89be"/>
        <path id="Trazado_1031341" data-name="Trazado 1031341" d="M12.971,12.084a1.334,1.334,0,0,1-1.248,1.381,1.312,1.312,0,0,1-1.375-1.307V4.28a1.309,1.309,0,1,1,2.617,0Z" transform="translate(-1.115 -0.32)" fill="#b3784b"/>
        <path id="Trazado_1031342" data-name="Trazado 1031342" d="M26.278,12.084a1.334,1.334,0,0,1-1.248,1.381,1.312,1.312,0,0,1-1.375-1.307V4.28a1.309,1.309,0,1,1,2.617,0Z" transform="translate(-2.548 -0.32)" fill="#b3784b"/>
        <path id="Trazado_1031343" data-name="Trazado 1031343" d="M64.723,12.084a1.334,1.334,0,0,1-1.248,1.381A1.312,1.312,0,0,1,62.1,12.158V4.28a1.309,1.309,0,1,1,2.617,0Z" transform="translate(-6.69 -0.32)" fill="#b3784b"/>
        <path id="Trazado_1031344" data-name="Trazado 1031344" d="M78.03,12.084a1.334,1.334,0,0,1-1.248,1.381,1.312,1.312,0,0,1-1.375-1.307V4.28a1.309,1.309,0,1,1,2.617,0Z" transform="translate(-8.123 -0.32)" fill="#b3784b"/>
        <path id="Trazado_1031345" data-name="Trazado 1031345" d="M79,16.789a2.482,2.482,0,0,1-.91,2.925,2.568,2.568,0,0,1-3.069,0,2.5,2.5,0,0,1-.915-2.947A3.973,3.973,0,0,0,79,16.789" transform="translate(-7.965 -1.806)" fill="#656464"/>
        <path id="Trazado_1031346" data-name="Trazado 1031346" d="M65.7,16.789a2.482,2.482,0,0,1-.91,2.925,2.568,2.568,0,0,1-3.069,0,2.5,2.5,0,0,1-.915-2.947,3.973,3.973,0,0,0,4.893.023" transform="translate(-6.532 -1.806)" fill="#656464"/>
        <path id="Trazado_1031347" data-name="Trazado 1031347" d="M27.251,16.789a2.482,2.482,0,0,1-.91,2.925,2.568,2.568,0,0,1-3.069,0,2.5,2.5,0,0,1-.915-2.947,3.973,3.973,0,0,0,4.893.023" transform="translate(-2.39 -1.806)" fill="#656464"/>
        <path id="Trazado_1031348" data-name="Trazado 1031348" d="M13.944,16.789a2.482,2.482,0,0,1-.91,2.925,2.568,2.568,0,0,1-3.069,0,2.5,2.5,0,0,1-.915-2.947,3.973,3.973,0,0,0,4.893.023" transform="translate(-0.957 -1.806)" fill="#656464"/>
        <path id="Trazado_1031349" data-name="Trazado 1031349" d="M66.457,47.241c.128.035.317.088.329.19a17.732,17.732,0,0,1,0,2.434q.178.97-.332,1.281l-.153.329-12.591.037a5.237,5.237,0,0,0-.066,1.978l12.612.019.2.329a.449.449,0,0,1,.33.184c.058.114.152,2.421-.332,2.39l-.114.329-17.9.038a6.546,6.546,0,0,0-.112,1.967l17.919.029.2.329c.484.081.369,1.392.3,1.845a2.791,2.791,0,0,1-2.765,2.383L49.2,63.374,47.3,63.05l-1.282.012a16.6,16.6,0,0,1-3.847.3q-.632.126-.782-.335l-.012-15.8Z" transform="translate(-4.458 -5.088)" fill="#408fcc"/>
        <path id="Trazado_1031350" data-name="Trazado 1031350" d="M48.02,63.051l16.666-.045a2.462,2.462,0,0,0,2.456-2.279l.019-1.62c-.128-.016-.315-.052-.33-.144a18.368,18.368,0,0,1,0-2.32.548.548,0,0,1,.33-.23l0-2.573c-.127-.016-.314-.051-.329-.144a19.889,19.889,0,0,1,0-2.319.553.553,0,0,1,.33-.231l.006-3.9,2.636,0,0,18.432-17.89-.01a5.581,5.581,0,0,0-3.9-2.61" transform="translate(-5.173 -5.089)" fill="#3a89be"/>
        <path id="Trazado_1031351" data-name="Trazado 1031351" d="M82.511,60.873l1.642,6.385a6.3,6.3,0,0,0-4.021-2.731,5.35,5.35,0,0,0-4.7,1.679l-.042-2.132.138-.419q3.331-1.506,6.665-3Z" transform="translate(-8.122 -6.534)" fill="#9ec3d5"/>
        <path id="Trazado_1031352" data-name="Trazado 1031352" d="M81.839,57.982l.671,2.59-7.117,3.2.019-2.927.135-.421,5.086-2.265q.755-.521,1.206-.178" transform="translate(-8.122 -6.231)" fill="#dadad8"/>
        <path id="Trazado_1031353" data-name="Trazado 1031353" d="M81.527,56.753q.139.357-.043.379l-5.8,2.561-.31-.223.024-2.938.176-.445a13.391,13.391,0,0,1,3.955-1.479l1.441.016Z" transform="translate(-8.12 -5.882)" fill="#e8e7e7"/>
        <path id="Trazado_1031354" data-name="Trazado 1031354" d="M46.488,67.961a2.608,2.608,0,1,1-2.042,3.187,2.6,2.6,0,0,1,2.042-3.187" transform="translate(-4.78 -7.315)" fill="#515151"/>
        <path id="Trazado_1031355" data-name="Trazado 1031355" d="M79.018,67.961a2.608,2.608,0,1,1-2.042,3.187,2.6,2.6,0,0,1,2.042-3.187" transform="translate(-8.284 -7.315)" fill="#515151"/>
        <path id="Trazado_1031356" data-name="Trazado 1031356" d="M81.527,57.012l.31.88L75.41,60.756l-.036-1.027Z" transform="translate(-8.12 -6.142)" fill="#9fc3d5"/>
        <path id="Trazado_1031357" data-name="Trazado 1031357" d="M46.024,64.969a5.609,5.609,0,0,0-3.876,2.536,1.009,1.009,0,0,1-.749.035l0-2.608Z" transform="translate(-4.459 -6.995)" fill="#3a88bd"/>
        <path id="Trazado_1031358" data-name="Trazado 1031358" d="M79.533,54.606,75.4,56.53l0-1.93Z" transform="translate(-8.123 -5.882)" fill="#9fc3d5"/>
        <path id="Trazado_1031359" data-name="Trazado 1031359" d="M76.241,37.719l-5.283.016V32.462h5.28Z" transform="translate(-7.644 -3.497)" fill="#69a854"/>
        <path id="Trazado_1031360" data-name="Trazado 1031360" d="M17.1,52.476l-5.283.016V47.22h5.28Z" transform="translate(-1.273 -5.087)" fill="#69a854"/>
        <path id="Trazado_1031361" data-name="Trazado 1031361" d="M17.1,67.234l-5.283.016V61.977h5.28Z" transform="translate(-1.273 -6.676)" fill="#69a854"/>
        <path id="Trazado_1031362" data-name="Trazado 1031362" d="M31.882,67.234,26.6,67.25V61.977h5.279Z" transform="translate(-2.865 -6.676)" fill="#69a854"/>
        <path id="Trazado_1031363" data-name="Trazado 1031363" d="M31.882,52.476l-5.283.016V47.22h5.279Z" transform="translate(-2.865 -5.087)" fill="#69a854"/>
        <path id="Trazado_1031364" data-name="Trazado 1031364" d="M31.882,37.719l-5.283.016V32.462h5.279Z" transform="translate(-2.865 -3.497)" fill="#69a854"/>
        <path id="Trazado_1031365" data-name="Trazado 1031365" d="M46.669,37.719l-5.283.016V32.462h5.28Z" transform="translate(-4.458 -3.497)" fill="#69a854"/>
        <path id="Trazado_1031366" data-name="Trazado 1031366" d="M61.455,37.719l-5.283.016V32.462h5.28Z" transform="translate(-6.051 -3.497)" fill="#69a854"/>
        <path id="Trazado_1031367" data-name="Trazado 1031367" d="M67.248,57.521l0,2.694L48.8,60.2l0-2.635Z" transform="translate(-5.256 -6.196)" fill="#050605"/>
        <path id="Trazado_1031368" data-name="Trazado 1031368" d="M67.886,51.618l0,2.693-13.181-.02,0-2.634Z" transform="translate(-5.893 -5.561)" fill="#050605"/>
        <path id="Trazado_1031369" data-name="Trazado 1031369" d="M48.468,71.984l-2.645.006V69.359l2.636,0Z" transform="translate(-4.936 -7.471)" fill="#050605"/>
        <path id="Trazado_1031370" data-name="Trazado 1031370" d="M81,71.984l-2.645.006V69.359l2.636,0Z" transform="translate(-8.441 -7.471)" fill="#050605"/>
      </g>
    </g>
  </g>
</svg>
