<svg xmlns="http://www.w3.org/2000/svg" xmlns:xlink="http://www.w3.org/1999/xlink" width="129" height="127" viewBox="0 0 129 127">
  <defs>
    <clipPath id="clip-path">
      <rect id="Rectángulo_454807" data-name="Rectángulo 454807" width="129" height="127" transform="translate(399.059 5904)" fill="#fee7bd"/>
    </clipPath>
    <clipPath id="clip-path-2">
      <rect id="Rectángulo_456277" data-name="Rectángulo 456277" width="113.227" height="113.227" transform="translate(0 0)" fill="#d35560"/>
    </clipPath>
    <clipPath id="clip-path-3">
      <rect id="Rectángulo_459951" data-name="Rectángulo 459951" width="62.885" height="62.831" fill="none"/>
    </clipPath>
  </defs>
  <g id="Grupo_1186114" data-name="Grupo 1186114" transform="translate(-398.059 -4702)">
    <path id="Trazado_1021132" data-name="Trazado 1021132" d="M0,0H129V127H0Z" transform="translate(398.059 4702)" fill="#fee7bd"/>
    <g id="Grupo_1180143" data-name="Grupo 1180143" transform="translate(406.625 4709.069)">
      <g id="Grupo_1179924" data-name="Grupo 1179924" transform="translate(-0.181 -0.182)">
        <g id="Grupo_1179923" data-name="Grupo 1179923" transform="translate(0 0)" clip-path="url(#clip-path-2)">
          <path id="Trazado_1004716" data-name="Trazado 1004716" d="M56.035,112.069c-1.82,0-3.522-2.079-5.3-2.253-1.808-.177-3.882,1.53-5.634,1.182-1.778-.353-3.042-2.725-4.755-3.246-1.732-.526-4.1.74-5.756.052s-2.442-3.268-4.024-4.116-4.162-.076-5.655-1.076-1.755-3.679-3.145-4.822-4.066-.88-5.339-2.152-1.008-3.947-2.152-5.339-3.818-1.647-4.822-3.145S9.234,83.091,8.381,81.5s-3.423-2.355-4.117-4.024.579-4.024.052-5.756c-.521-1.712-2.893-2.976-3.245-4.754C.723,65.213,2.43,63.14,2.253,61.332,2.079,59.557,0,57.855,0,56.035s2.079-3.522,2.253-5.3C2.43,48.93.722,46.856,1.071,45.1c.353-1.778,2.725-3.042,3.245-4.754.526-1.732-.74-4.1-.052-5.756s3.268-2.442,4.117-4.024.075-4.162,1.076-5.655,3.679-1.755,4.821-3.145.88-4.066,2.153-5.339,3.947-1.008,5.339-2.152,1.647-3.818,3.145-4.822,4.064-.222,5.655-1.076,2.355-3.423,4.024-4.117,4.024.578,5.756.052C42.062,3.8,43.325,1.424,45.1,1.07,46.856.722,48.93,2.43,50.737,2.253,52.512,2.079,54.215,0,56.035,0s3.522,2.079,5.3,2.253c1.808.177,3.882-1.53,5.634-1.182,1.778.353,3.042,2.725,4.755,3.246,1.732.526,4.1-.74,5.756-.052S79.919,7.532,81.5,8.381s4.162.075,5.655,1.076,1.755,3.679,3.145,4.821,4.066.88,5.339,2.153,1.008,3.947,2.152,5.339,3.818,1.647,4.822,3.145.222,4.064,1.076,5.655,3.423,2.355,4.116,4.024-.578,4.024-.052,5.756c.521,1.712,2.893,2.976,3.245,4.754.348,1.753-1.359,3.826-1.182,5.634.174,1.775,2.253,3.478,2.253,5.3s-2.079,3.522-2.253,5.3c-.176,1.807,1.53,3.881,1.182,5.634-.353,1.778-2.725,3.042-3.245,4.755-.526,1.732.74,4.1.052,5.756s-3.268,2.442-4.117,4.024-.075,4.162-1.076,5.655-3.679,1.755-4.821,3.145-.88,4.066-2.153,5.339-3.947,1.008-5.339,2.152-1.647,3.817-3.145,4.821-4.064.222-5.655,1.076-2.355,3.423-4.024,4.117-4.024-.578-5.756-.052c-1.712.52-2.976,2.892-4.754,3.245-1.753.348-3.826-1.359-5.634-1.182-1.775.173-3.478,2.253-5.3,2.253" transform="translate(0.579 0.578)" fill="#4d787e"/>
          <path id="Trazado_1004717" data-name="Trazado 1004717" d="M14,64.734a50.734,50.734,0,1,1,50.734,50.734A50.734,50.734,0,0,1,14,64.734" transform="translate(-8.12 -8.121)" fill="#fff7e8"/>
          <path id="Trazado_1021102" data-name="Trazado 1021102" d="M14,60.95A46.95,46.95,0,1,1,60.95,107.9,46.95,46.95,0,0,1,14,60.95" transform="translate(-4.338 -4.337)" fill="#4d787e"/>
        </g>
      </g>
    </g>
    <g id="Grupo_1187740" data-name="Grupo 1187740" transform="translate(431.615 4728.041)">
      <g id="Grupo_1187739" data-name="Grupo 1187739" clip-path="url(#clip-path-3)">
        <path id="Trazado_1033202" data-name="Trazado 1033202" d="M51.831,65.684l.338.193.011,3.878a.665.665,0,0,0,.322.5,55.11,55.11,0,0,0,6.4.09c.338-.048.573-.131.674-.493l.029-4.059.338-.242,4.05.069.027,1.01,7.868.019,10.477,6.06H29.411l10.563-6.09,7.78.017.028-1.02Z" transform="translate(-24.444 -54.477)" fill="#00aecc"/>
        <path id="Trazado_1033203" data-name="Trazado 1033203" d="M160.332,11.07l-.007,4.117A1,1,0,0,1,159.31,16.2h-6.067a1,1,0,0,1-1.013-1.014l-.007-3.98,0-3.085-1.01-.026a1.012,1.012,0,0,1-.8-1.64L155.394.465A1.148,1.148,0,0,1,156.206,0a1.126,1.126,0,0,1,.956.463l4.972,5.992a1.019,1.019,0,0,1,.109,1.087,1,1,0,0,1-.9.55l-1.009.029Z" transform="translate(-124.836 0.001)" fill="#040504"/>
        <path id="Trazado_1033204" data-name="Trazado 1033204" d="M173.984,26.891l-4.055.024-.006-7.089a1.125,1.125,0,0,0-.857-1.053l2.889-3.447,2.884,3.447a1.143,1.143,0,0,0-.859,1.051Z" transform="translate(-140.512 -12.738)" fill="#e1665e"/>
        <path id="Trazado_1033205" data-name="Trazado 1033205" d="M23.338,60.938c.612.2.375,1.075-.142,1.357L15.6,62.262l-9.37,5.431H56.652l-9.307-5.407-7.67,0c-.535-.3-.7-1.075-.128-1.348l.025-1.016,8.4.015,14.4,8.217a1.017,1.017,0,0,1,.448,1.258,1.051,1.051,0,0,1-.981.648l-2.027.028.016,32.453c.744-.117,1.686-.164,1.842.434l1.155,4.419a.987.987,0,0,1-1.007,1.175l-21.247.007,1.8,2.406a1.037,1.037,0,0,1,.038,1.195,1.158,1.158,0,0,1-1.02.453l-20.054,0a1.021,1.021,0,0,1-.821-1.643l1.8-2.408H1.066a1.136,1.136,0,0,1-.877-.432,1.066,1.066,0,0,1-.147-.9L1.2,102.957c.175-.649,1.254-.46,1.864-.451L3.07,70.089l-2.026-.025A1.018,1.018,0,0,1,.634,68.1l14.292-8.152,8.384-.03Z" transform="translate(0 -49.801)" fill="#040504"/>
        <path id="Trazado_1033206" data-name="Trazado 1033206" d="M65.669,124H47.4a1,1,0,0,0-1.031,1.029l0,13.159-13.157,0a1.006,1.006,0,0,0-1.029,1.024v13.14l-2.029-.01.009-32.4H82.842l.009,32.4-2.029.007V139.218a1.008,1.008,0,0,0-1.029-1.024l-13.157,0-.006-13.156A1,1,0,0,0,65.669,124" transform="translate(-25.06 -99.692)" fill="#c4e7f0"/>
        <path id="Trazado_1033207" data-name="Trazado 1033207" d="M232.554,249.735a1.088,1.088,0,0,0,1.121.314.927.927,0,0,0,.635-.823l.013-9.278,4.051,0v12.158H222.159V239.951h4.052l.005,9.106a.988.988,0,0,0,.668.957,1.027,1.027,0,0,0,1.138-.322l2.243-2.947Z" transform="translate(-184.638 -199.424)" fill="#cacec8"/>
        <path id="Trazado_1033208" data-name="Trazado 1033208" d="M64.553,249.737a1.084,1.084,0,0,0,1.125.313.925.925,0,0,0,.631-.822l.013-9.278,4.051,0v12.158H54.159V239.951h4.054l0,9.116a1.04,1.04,0,0,0,.642.994.987.987,0,0,0,1.187-.352l2.223-2.967Z" transform="translate(-45.012 -199.424)" fill="#cacec8"/>
        <path id="Trazado_1033209" data-name="Trazado 1033209" d="M35.554,326.016l-21.469,0,.464-2.024,22.513-.005Z" transform="translate(-11.706 -269.27)" fill="#78828b"/>
        <path id="Trazado_1033210" data-name="Trazado 1033210" d="M245.174,326H223.765l-1.548-2.025,22.459,0Z" transform="translate(-184.686 -269.253)" fill="#78828b"/>
        <path id="Trazado_1033211" data-name="Trazado 1033211" d="M170.272,252.093l-8.11.018V239.948h8.107Z" transform="translate(-134.774 -199.423)" fill="#c4e7f0"/>
        <path id="Trazado_1033212" data-name="Trazado 1033212" d="M154.329,330.032l-16.192,0,4.569-6.071,7.088,0Z" transform="translate(-114.807 -269.245)" fill="#cacec8"/>
        <path id="Trazado_1033213" data-name="Trazado 1033213" d="M148.551,165.744a1.08,1.08,0,0,0,1.123.319.933.933,0,0,0,.636-.825l.013-9.273h4.051v12.168H138.159V155.966l4.052,0,0,9.107a1,1,0,0,0,.55.91.979.979,0,0,0,1.173-.188l2.326-3.033Z" transform="translate(-114.825 -129.621)" fill="#78828b"/>
        <path id="Trazado_1033214" data-name="Trazado 1033214" d="M177.1,160.529a1.082,1.082,0,0,0-1.719-.138l-1.205,1.53-.019-5.961,4.056,0-.02,5.956Z" transform="translate(-144.744 -129.62)" fill="#ffeb81"/>
        <path id="Trazado_1033215" data-name="Trazado 1033215" d="M93.1,244.529a1.082,1.082,0,0,0-1.719-.138l-1.205,1.53-.019-5.961,4.056,0-.02,5.956Z" transform="translate(-74.931 -199.433)" fill="#ffeb81"/>
        <path id="Trazado_1033216" data-name="Trazado 1033216" d="M261.1,244.529a1.082,1.082,0,0,0-1.719-.138l-1.205,1.53-.019-5.961,4.056,0-.02,5.956Z" transform="translate(-214.557 -199.433)" fill="#ffeb81"/>
      </g>
    </g>
  </g>
</svg>
