<svg xmlns="http://www.w3.org/2000/svg" xmlns:xlink="http://www.w3.org/1999/xlink" width="129" height="127" viewBox="0 0 129 127">
  <defs>
    <clipPath id="clip-path">
      <rect id="Rectángulo_454807" data-name="Rectángulo 454807" width="129" height="127" transform="translate(399.059 5904)" fill="#fee7bd"/>
    </clipPath>
    <clipPath id="clip-path-2">
      <rect id="Rectángulo_456277" data-name="Rectángulo 456277" width="113.227" height="113.227" transform="translate(0 0)" fill="#d35560"/>
    </clipPath>
    <clipPath id="clip-path-3">
      <rect id="Rectángulo_459948" data-name="Rectángulo 459948" width="63.721" height="63.732" fill="none"/>
    </clipPath>
  </defs>
  <g id="Grupo_1186115" data-name="Grupo 1186115" transform="translate(-398.059 -4702)">
    <path id="Trazado_1021132" data-name="Trazado 1021132" d="M0,0H129V127H0Z" transform="translate(398.059 4702)" fill="#fee7bd"/>
    <g id="Grupo_1180143" data-name="Grupo 1180143" transform="translate(406.392 4709.069)">
      <g id="Grupo_1179924" data-name="Grupo 1179924" transform="translate(-0.181 -0.182)">
        <g id="Grupo_1179923" data-name="Grupo 1179923" transform="translate(0 0)" clip-path="url(#clip-path-2)">
          <path id="Trazado_1004716" data-name="Trazado 1004716" d="M56.035,112.069c-1.82,0-3.522-2.079-5.3-2.253-1.808-.177-3.882,1.53-5.634,1.182-1.778-.353-3.042-2.725-4.755-3.246-1.732-.526-4.1.74-5.756.052s-2.442-3.268-4.024-4.116-4.162-.076-5.655-1.076-1.755-3.679-3.145-4.822-4.066-.88-5.339-2.152-1.008-3.947-2.152-5.339-3.818-1.647-4.822-3.145S9.234,83.091,8.381,81.5s-3.423-2.355-4.117-4.024.579-4.024.052-5.756c-.521-1.712-2.893-2.976-3.245-4.754C.723,65.213,2.43,63.14,2.253,61.332,2.079,59.557,0,57.855,0,56.035s2.079-3.522,2.253-5.3C2.43,48.93.722,46.856,1.071,45.1c.353-1.778,2.725-3.042,3.245-4.754.526-1.732-.74-4.1-.052-5.756s3.268-2.442,4.117-4.024.075-4.162,1.076-5.655,3.679-1.755,4.821-3.145.88-4.066,2.153-5.339,3.947-1.008,5.339-2.152,1.647-3.818,3.145-4.822,4.064-.222,5.655-1.076,2.355-3.423,4.024-4.117,4.024.578,5.756.052C42.062,3.8,43.325,1.424,45.1,1.07,46.856.722,48.93,2.43,50.737,2.253,52.512,2.079,54.215,0,56.035,0s3.522,2.079,5.3,2.253c1.808.177,3.882-1.53,5.634-1.182,1.778.353,3.042,2.725,4.755,3.246,1.732.526,4.1-.74,5.756-.052S79.919,7.532,81.5,8.381s4.162.075,5.655,1.076,1.755,3.679,3.145,4.821,4.066.88,5.339,2.153,1.008,3.947,2.152,5.339,3.818,1.647,4.822,3.145.222,4.064,1.076,5.655,3.423,2.355,4.116,4.024-.578,4.024-.052,5.756c.521,1.712,2.893,2.976,3.245,4.754.348,1.753-1.359,3.826-1.182,5.634.174,1.775,2.253,3.478,2.253,5.3s-2.079,3.522-2.253,5.3c-.176,1.807,1.53,3.881,1.182,5.634-.353,1.778-2.725,3.042-3.245,4.755-.526,1.732.74,4.1.052,5.756s-3.268,2.442-4.117,4.024-.075,4.162-1.076,5.655-3.679,1.755-4.821,3.145-.88,4.066-2.153,5.339-3.947,1.008-5.339,2.152-1.647,3.817-3.145,4.821-4.064.222-5.655,1.076-2.355,3.423-4.024,4.117-4.024-.578-5.756-.052c-1.712.52-2.976,2.892-4.754,3.245-1.753.348-3.826-1.359-5.634-1.182-1.775.173-3.478,2.253-5.3,2.253" transform="translate(0.579 0.578)" fill="#4d787e"/>
          <path id="Trazado_1004717" data-name="Trazado 1004717" d="M14,64.734a50.734,50.734,0,1,1,50.734,50.734A50.734,50.734,0,0,1,14,64.734" transform="translate(-8.12 -8.121)" fill="#fff7e8"/>
          <path id="Trazado_1021102" data-name="Trazado 1021102" d="M14,60.95A46.95,46.95,0,1,1,60.95,107.9,46.95,46.95,0,0,1,14,60.95" transform="translate(-4.338 -4.337)" fill="#4d787e"/>
        </g>
      </g>
    </g>
    <g id="Grupo_1187734" data-name="Grupo 1187734" transform="translate(430.779 4734.635)">
      <path id="Trazado_1033120" data-name="Trazado 1033120" d="M284.038,110.018l-2.053,0v-2.038h2.039Z" transform="translate(-233.666 -89.479)" fill="#060707"/>
      <g id="Grupo_1187733" data-name="Grupo 1187733">
        <g id="Grupo_1187732" data-name="Grupo 1187732" clip-path="url(#clip-path-3)">
          <path id="Trazado_1033121" data-name="Trazado 1033121" d="M80.037,110.018a14.932,14.932,0,0,1-2.053,0v-2.038h2.039Z" transform="translate(-64.621 -89.479)" fill="#040505"/>
          <path id="Trazado_1033122" data-name="Trazado 1033122" d="M295.445,7.272l.856,3.872a.976.976,0,0,1-1.008,1.178c-2.267.047-2.8-1.979-4.022-2.045a1.639,1.639,0,0,0-1.324.634A3.76,3.76,0,0,1,287,12.331a4.013,4.013,0,0,1-2.987-1.613l-.026,5.708-2.052-.01V.013L283.987,0l.028,2.19c1.561.549,1.99,1.981,3.144,1.927,1.181-.055,1.685-2.017,3.955-2.056a3.622,3.622,0,0,1,2.86,1.325c.883,1.02,1.779.551,2.173,1.169a.977.977,0,0,1,.079,1Z" transform="translate(-233.629)" fill="#040504"/>
          <path id="Trazado_1033123" data-name="Trazado 1033123" d="M298.311,29.445a1.8,1.8,0,0,1-1.206.7c-1.175.045-1.592-1.388-3.168-1.934l.023-3.8a4.076,4.076,0,0,0,2.826,1.607,3.707,3.707,0,0,0,3.1-1.418,1.509,1.509,0,0,1,2.318-.161,7.023,7.023,0,0,0,1.522,1.272c-.186.449-.607.863-.523,1.343l.346,1.974a3.589,3.589,0,0,0-5.24.412" transform="translate(-243.571 -19.865)" fill="#99d8ed"/>
          <path id="Trazado_1033124" data-name="Trazado 1033124" d="M5.945,11.216l.906-3.866L5.977,5.415A.939.939,0,0,1,6.8,4.153c1.582-.1,1.866-2.128,4.336-2.093,2.271.032,2.776,2.006,3.955,2.057s1.591-1.392,3.145-1.93L18.258,0l2.048.013V16.42l-2.052.009-.026-5.708a4.124,4.124,0,0,1-2.828,1.6c-2.5.151-3.025-1.981-4.268-2.048-1.36-.073-1.819,2.077-4.187,2.045a.957.957,0,0,1-1-1.1" transform="translate(-4.894)" fill="#040504"/>
          <path id="Trazado_1033125" data-name="Trazado 1033125" d="M30.539,28.257c-1.561.55-2,2-3.144,1.93a1.717,1.717,0,0,1-1.169-.646,3.6,3.6,0,0,0-5.343-.413c.023-.819.465-1.416.388-2.176l-.51-1.189c1.209-.68,1.62-1.8,2.682-1.741,1.21.065,1.7,2.1,4.117,2.06a3.989,3.989,0,0,0,2.946-1.6Z" transform="translate(-17.203 -19.904)" fill="#99d8ed"/>
          <path id="Trazado_1033126" data-name="Trazado 1033126" d="M54.9,54.058A31.862,31.862,0,0,1,0,32.086a.961.961,0,0,1,.88-1.015l12.459-.017,0-8.219,2.054,0,0,8.231,12.419-.034-5.736-3.221a1.028,1.028,0,0,1-.512-.889V16.662a1.1,1.1,0,0,1,.62-.961l8.6-4.763.028-2.491-2.041-.011a1.026,1.026,0,0,1-.934-1.453L31.076.605a1.038,1.038,0,0,1,1.565,0l3.231,6.379a1.048,1.048,0,0,1-.077.99,1.015,1.015,0,0,1-.853.456l-2.05.015-.013,2.445,8.65,4.812a1.072,1.072,0,0,1,.608.959l.009,10.091a1.163,1.163,0,0,1-.612,1.121L35.9,31.028l12.409.035,0-8.23h2.055l0,8.223,12.322,0a.989.989,0,0,1,1.029,1.039A31.65,31.65,0,0,1,54.9,54.058" transform="translate(0 -0.208)" fill="#040504"/>
          <path id="Trazado_1033127" data-name="Trazado 1033127" d="M145.158,118.1l-7.176-3.972-.008-7.922,7.179,3.978Z" transform="translate(-114.332 -88.007)" fill="#fba033"/>
          <path id="Trazado_1033128" data-name="Trazado 1033128" d="M199.165,114.214l-7.193,3.988.008-7.927,7.175-3.967Z" transform="translate(-159.078 -88.093)" fill="#fec47d"/>
          <path id="Trazado_1033129" data-name="Trazado 1033129" d="M144.273,79.558l6.074-3.366.041,2.324,2.044.007.033-2.362,6.086,3.4-7.134,3.965Z" transform="translate(-119.552 -63.111)" fill="#fba033"/>
          <path id="Trazado_1033130" data-name="Trazado 1033130" d="M180.5,22.122l-2.814.032,1.414-2.87Z" transform="translate(-147.243 -15.98)" fill="#e27c80"/>
          <path id="Trazado_1033131" data-name="Trazado 1033131" d="M115.393,196.059l-13.135.006-.208-4.11,13.34-.009Z" transform="translate(-84.564 -159.057)" fill="#cbebf4"/>
          <path id="Trazado_1033132" data-name="Trazado 1033132" d="M205.12,196.069l-13.137.011v-4.116l13.336,0Z" transform="translate(-159.086 -159.07)" fill="#cbebf4"/>
          <path id="Trazado_1033133" data-name="Trazado 1033133" d="M294.081,194.907l.02.155-.156,1-13.111.014.182-4.117,13.351,0Z" transform="translate(-232.713 -159.07)" fill="#99d8ed"/>
          <path id="Trazado_1033134" data-name="Trazado 1033134" d="M12.419,194.99q.193-.563-.065-.28l-.227-2.758,13.349.01.177,4.108-13.107-.012Z" transform="translate(-10.049 -159.061)" fill="#99d8ed"/>
          <path id="Trazado_1033135" data-name="Trazado 1033135" d="M117.51,232.062l-12.223.007c-.3-1.35-.5-2.688-.683-4.114l12.9,0Z" transform="translate(-86.68 -188.892)" fill="#cbebf4"/>
          <path id="Trazado_1033136" data-name="Trazado 1033136" d="M204.672,229.257q-.185-.211-.018.3l-.467,2.515H191.978v-4.114l12.855,0a5.629,5.629,0,0,1-.161,1.3" transform="translate(-159.083 -188.898)" fill="#cbebf4"/>
          <path id="Trazado_1033137" data-name="Trazado 1033137" d="M288.12,232.069l-12.153.019.6-4.109,12.9-.008a33.438,33.438,0,0,1-1.345,4.1" transform="translate(-228.68 -188.908)" fill="#99d8ed"/>
          <path id="Trazado_1033138" data-name="Trazado 1033138" d="M123.051,268.06l-10.521.01a34.585,34.585,0,0,1-1.254-4.114l11.771-.006Z" transform="translate(-92.208 -218.721)" fill="#cbebf4"/>
          <path id="Trazado_1033139" data-name="Trazado 1033139" d="M202.546,268.06l-10.568.031v-4.12h11.76Z" transform="translate(-159.083 -218.739)" fill="#cbebf4"/>
          <path id="Trazado_1033140" data-name="Trazado 1033140" d="M43.352,268.054l-10.27.006a26.312,26.312,0,0,1-2.493-4.114l11.651.011c.286,1.4.682,2.583,1.112,4.1" transform="translate(-25.348 -218.719)" fill="#99d8ed"/>
          <path id="Trazado_1033141" data-name="Trazado 1033141" d="M277.049,268.038l-10.325.017c.413-1.4.826-2.665,1.127-4.116l11.653-.009a34.081,34.081,0,0,1-2.456,4.108" transform="translate(-221.021 -218.706)" fill="#99d8ed"/>
          <path id="Trazado_1033142" data-name="Trazado 1033142" d="M132.8,304.068l-7.615-.007a35.535,35.535,0,0,1-2.115-4.093l9.727-.011Z" transform="translate(-101.981 -248.559)" fill="#cbebf4"/>
          <path id="Trazado_1033143" data-name="Trazado 1033143" d="M199.568,304.045l-7.66.044v-4.124l9.747.009a43.72,43.72,0,0,1-2.087,4.071" transform="translate(-159.025 -248.566)" fill="#cbebf4"/>
          <path id="Trazado_1033144" data-name="Trazado 1033144" d="M66.223,304.094l-6.992,0a30.759,30.759,0,0,1-4.33-4.074l9.389-.029a33.533,33.533,0,0,0,1.933,4.105" transform="translate(-45.494 -248.586)" fill="#99d8ed"/>
          <path id="Trazado_1033145" data-name="Trazado 1033145" d="M257.937,304.065l-7.042.03a34.168,34.168,0,0,0,1.936-4.117l9.406.013a33.278,33.278,0,0,1-4.3,4.075" transform="translate(-207.904 -248.576)" fill="#99d8ed"/>
          <path id="Trazado_1033146" data-name="Trazado 1033146" d="M150.587,335.9l.01,4.041a10.279,10.279,0,0,1-6.054-3.963Z" transform="translate(-119.776 -278.34)" fill="#cbeaf4"/>
          <path id="Trazado_1033147" data-name="Trazado 1033147" d="M197.987,336.014a10.264,10.264,0,0,1-5.983,3.98l-.07-4.031Z" transform="translate(-159.047 -278.396)" fill="#cbeaf4"/>
          <path id="Trazado_1033148" data-name="Trazado 1033148" d="M235.72,336.363A25.492,25.492,0,0,1,228,339.452l2.621-3.082Z" transform="translate(-188.929 -278.727)" fill="#98d7eb"/>
          <path id="Trazado_1033149" data-name="Trazado 1033149" d="M103.641,335.848a38.663,38.663,0,0,0,2.583,3.187,26.86,26.86,0,0,1-7.752-3.121Z" transform="translate(-81.599 -278.3)" fill="#98d7eb"/>
          <path id="Trazado_1033150" data-name="Trazado 1033150" d="M13.517,205.627l-.065-.28c.07-.111.013-.277.14-.558.221.263.19.741-.074.838" transform="translate(-11.147 -169.698)" fill="#a4def3"/>
          <path id="Trazado_1033151" data-name="Trazado 1033151" d="M265.007,232.465l-.018.3a.764.764,0,0,1-.073-.938,1.174,1.174,0,0,1,.09.635" transform="translate(-219.417 -192.106)" fill="#d8f0f8"/>
          <path id="Trazado_1033152" data-name="Trazado 1033152" d="M356.98,205.519l.02.155c-.313-.073-.358-.679-.057-.9Z" transform="translate(-295.612 -169.682)" fill="#a6def3"/>
          <path id="Trazado_1033153" data-name="Trazado 1033153" d="M30.6,232.1H18.465a30.491,30.491,0,0,1-1.355-4.109H29.974Z" transform="translate(-14.178 -188.921)" fill="#99d8ed"/>
          <path id="Trazado_1033154" data-name="Trazado 1033154" d="M91.949,236.8a1.5,1.5,0,0,1-.064-.774.29.29,0,0,1,.1-.091,1.742,1.742,0,0,1,.077.774Z" transform="translate(-76.124 -195.509)" fill="#a1dcf2"/>
        </g>
      </g>
    </g>
  </g>
</svg>
