<svg xmlns="http://www.w3.org/2000/svg" xmlns:xlink="http://www.w3.org/1999/xlink" width="129" height="127" viewBox="0 0 129 127">
  <defs>
    <clipPath id="clip-path">
      <rect id="Rectángulo_454807" data-name="Rectángulo 454807" width="129" height="127" transform="translate(399.059 5904)" fill="#fee7bd"/>
    </clipPath>
    <clipPath id="clip-path-2">
      <rect id="Rectángulo_456277" data-name="Rectángulo 456277" width="113.227" height="113.227" transform="translate(0 0)" fill="#d35560"/>
    </clipPath>
    <clipPath id="clip-path-3">
      <rect id="Rectángulo_459949" data-name="Rectángulo 459949" width="62.885" height="62.881" fill="none"/>
    </clipPath>
  </defs>
  <g id="Grupo_1186117" data-name="Grupo 1186117" transform="translate(-398.059 -4702)">
    <path id="Trazado_1021132" data-name="Trazado 1021132" d="M0,0H129V127H0Z" transform="translate(398.059 4702)" fill="#fee7bd"/>
    <g id="Grupo_1180143" data-name="Grupo 1180143" transform="translate(406.625 4709.069)">
      <g id="Grupo_1179924" data-name="Grupo 1179924" transform="translate(-0.181 -0.182)">
        <g id="Grupo_1179923" data-name="Grupo 1179923" transform="translate(0 0)" clip-path="url(#clip-path-2)">
          <path id="Trazado_1004716" data-name="Trazado 1004716" d="M56.035,112.069c-1.82,0-3.522-2.079-5.3-2.253-1.808-.177-3.882,1.53-5.634,1.182-1.778-.353-3.042-2.725-4.755-3.246-1.732-.526-4.1.74-5.756.052s-2.442-3.268-4.024-4.116-4.162-.076-5.655-1.076-1.755-3.679-3.145-4.822-4.066-.88-5.339-2.152-1.008-3.947-2.152-5.339-3.818-1.647-4.822-3.145S9.234,83.091,8.381,81.5s-3.423-2.355-4.117-4.024.579-4.024.052-5.756c-.521-1.712-2.893-2.976-3.245-4.754C.723,65.213,2.43,63.14,2.253,61.332,2.079,59.557,0,57.855,0,56.035s2.079-3.522,2.253-5.3C2.43,48.93.722,46.856,1.071,45.1c.353-1.778,2.725-3.042,3.245-4.754.526-1.732-.74-4.1-.052-5.756s3.268-2.442,4.117-4.024.075-4.162,1.076-5.655,3.679-1.755,4.821-3.145.88-4.066,2.153-5.339,3.947-1.008,5.339-2.152,1.647-3.818,3.145-4.822,4.064-.222,5.655-1.076,2.355-3.423,4.024-4.117,4.024.578,5.756.052C42.062,3.8,43.325,1.424,45.1,1.07,46.856.722,48.93,2.43,50.737,2.253,52.512,2.079,54.215,0,56.035,0s3.522,2.079,5.3,2.253c1.808.177,3.882-1.53,5.634-1.182,1.778.353,3.042,2.725,4.755,3.246,1.732.526,4.1-.74,5.756-.052S79.919,7.532,81.5,8.381s4.162.075,5.655,1.076,1.755,3.679,3.145,4.821,4.066.88,5.339,2.153,1.008,3.947,2.152,5.339,3.818,1.647,4.822,3.145.222,4.064,1.076,5.655,3.423,2.355,4.116,4.024-.578,4.024-.052,5.756c.521,1.712,2.893,2.976,3.245,4.754.348,1.753-1.359,3.826-1.182,5.634.174,1.775,2.253,3.478,2.253,5.3s-2.079,3.522-2.253,5.3c-.176,1.807,1.53,3.881,1.182,5.634-.353,1.778-2.725,3.042-3.245,4.755-.526,1.732.74,4.1.052,5.756s-3.268,2.442-4.117,4.024-.075,4.162-1.076,5.655-3.679,1.755-4.821,3.145-.88,4.066-2.153,5.339-3.947,1.008-5.339,2.152-1.647,3.817-3.145,4.821-4.064.222-5.655,1.076-2.355,3.423-4.024,4.117-4.024-.578-5.756-.052c-1.712.52-2.976,2.892-4.754,3.245-1.753.348-3.826-1.359-5.634-1.182-1.775.173-3.478,2.253-5.3,2.253" transform="translate(0.579 0.578)" fill="#4d787e"/>
          <path id="Trazado_1004717" data-name="Trazado 1004717" d="M14,64.734a50.734,50.734,0,1,1,50.734,50.734A50.734,50.734,0,0,1,14,64.734" transform="translate(-8.12 -8.121)" fill="#fff7e8"/>
          <path id="Trazado_1021102" data-name="Trazado 1021102" d="M14,60.95A46.95,46.95,0,1,1,60.95,107.9,46.95,46.95,0,0,1,14,60.95" transform="translate(-4.338 -4.337)" fill="#4d787e"/>
        </g>
      </g>
    </g>
    <g id="Grupo_1187736" data-name="Grupo 1187736" transform="translate(431.615 4734.06)">
      <g id="Grupo_1187735" data-name="Grupo 1187735" transform="translate(0 -0.001)" clip-path="url(#clip-path-3)">
        <path id="Trazado_1033155" data-name="Trazado 1033155" d="M56.12,145.991a15.222,15.222,0,0,1-2.093,0v-2.078h2.079Z" transform="translate(-44.591 -118.779)" fill="#040505"/>
        <path id="Trazado_1033156" data-name="Trazado 1033156" d="M296.121,145.991l-2.093,0v-2.078h2.079Z" transform="translate(-242.673 -118.779)" fill="#040505"/>
        <path id="Trazado_1033157" data-name="Trazado 1033157" d="M56.12,169.991a15.218,15.218,0,0,1-2.093,0v-2.078h2.079Z" transform="translate(-44.591 -138.587)" fill="#040505"/>
        <path id="Trazado_1033158" data-name="Trazado 1033158" d="M296.121,169.991l-2.093,0v-2.078h2.079Z" transform="translate(-242.673 -138.587)" fill="#040505"/>
        <path id="Trazado_1033159" data-name="Trazado 1033159" d="M56.12,193.991l-2.093,0v-2.078h2.079Z" transform="translate(-44.591 -158.395)" fill="#040505"/>
        <path id="Trazado_1033160" data-name="Trazado 1033160" d="M80.12,193.991l-2.093,0v-2.078h2.079Z" transform="translate(-64.399 -158.395)" fill="#040505"/>
        <path id="Trazado_1033161" data-name="Trazado 1033161" d="M272.121,193.991l-2.093,0v-2.078h2.079Z" transform="translate(-222.865 -158.395)" fill="#040505"/>
        <path id="Trazado_1033162" data-name="Trazado 1033162" d="M296.121,193.991l-2.093,0v-2.078h2.079Z" transform="translate(-242.673 -158.395)" fill="#040505"/>
        <path id="Trazado_1033163" data-name="Trazado 1033163" d="M62.948,57.7c-.518.635-1.769.127-2.471-.163a8.8,8.8,0,0,1-1.688-.96c-2.4-2.178-4.8-4.17-7.841-1.6-3.01,3.425-7.116,4.093-10.75,1.179-2.076-2.366-4.465-3.314-7.128-1.222-3.358,3.945-8.631,4.122-12,.088a4.219,4.219,0,0,0-5.86-.14C12.169,58,8.6,59.253,4.767,56.492A8.47,8.47,0,0,0,.35,53.728l-.272-.357L.1,51.332c2.7-.025,3.985,1.227,5.786,2.913a4.6,4.6,0,0,0,6.347.016L14.2,52.555a5.843,5.843,0,0,1,4.369-1.206L14.853,40.238a1.125,1.125,0,0,1,.487-1.389l2.565-1.7.007-11.988A1.007,1.007,0,0,1,18.93,24.1l4.2-.023.04-3.275a.965.965,0,0,1,1-.9l6.293-.017.026-2.493-5.7-2.842a1.019,1.019,0,0,1-.445-1.475l6.122-8.2L30.477.018l2.074,0L32.605,1.5l5.6,2.78a1.073,1.073,0,0,1,.637,1.042,1.057,1.057,0,0,1-.611.89L32.573,9.056V19.911l6.41.022a.986.986,0,0,1,.917,1l.012,3.162,4.312.027a.986.986,0,0,1,.921,1.018l0,12.007,2.631,1.76a1.086,1.086,0,0,1,.446,1.231L43.211,55.188a4.8,4.8,0,0,0,5.437-1.362,7.2,7.2,0,0,1,5.295-2.5c4.722-.03,5.348,4.27,8.988,4.193Z" transform="translate(-0.064 -0.011)" fill="#040504"/>
        <path id="Trazado_1033164" data-name="Trazado 1033164" d="M114.956,207.454l.349.119q.018,9.057.017,18.106l-.216.267a4.531,4.531,0,0,1-5.949-.709,15.466,15.466,0,0,0-2.646-2.072l-2.753-8.289Z" transform="translate(-85.637 -171.22)" fill="#616467"/>
        <path id="Trazado_1033165" data-name="Trazado 1033165" d="M190.354,223.172l-.348-.164q.053-7.519.105-15.042l.351-.207,11.125,7.367-3.412,10.231a10.9,10.9,0,0,0-3-2.135,7.609,7.609,0,0,0-4.818-.05" transform="translate(-156.82 -171.472)" fill="#616467"/>
        <path id="Trazado_1033166" data-name="Trazado 1033166" d="M112.869,177.264a1.191,1.191,0,0,0-1.5.037L98.2,186.077a2.039,2.039,0,0,1-.42-1.384l14.357-9.577,13.68,9.126c.331.221.595.429.634.747a1.35,1.35,0,0,1-.395,1.067Z" transform="translate(-80.697 -144.531)" fill="#cae9f4"/>
        <path id="Trazado_1033167" data-name="Trazado 1033167" d="M126.157,152.249a1.171,1.171,0,0,0-1.386-.044L113.9,159.433l-.014-9.547,23.075,0-.015,9.548Z" transform="translate(-93.997 -123.704)" fill="#919aa2"/>
        <path id="Trazado_1033168" data-name="Trazado 1033168" d="M156.633,128H144.1v-2.1l12.534,0Z" transform="translate(-118.931 -103.91)" fill="#99d8ec"/>
        <path id="Trazado_1033169" data-name="Trazado 1033169" d="M156.773,54.954l-3.632-1.774,3.608-4.78Z" transform="translate(-126.394 -39.946)" fill="#e67f83"/>
        <path id="Trazado_1033170" data-name="Trazado 1033170" d="M188.82,23.047,185.888,24.5c.028-1.036.028-1.862,0-2.9Z" transform="translate(-153.421 -17.83)" fill="#c6e4ee"/>
        <path id="Trazado_1033171" data-name="Trazado 1033171" d="M172.188,204.232l-.108,15.413c-.351.1-.676.556-1.074.448l.025-5-2.092.007-.049,6.781c-.02.334-.636.619-.875.789a.354.354,0,0,1-.126-.278l-.025-18.213a3.852,3.852,0,0,1,1.06-.682l.012,5.287,2.091.006.012-5.3a5.23,5.23,0,0,1,1.149.747" transform="translate(-138.545 -167.944)" fill="#a5a5a5"/>
        <path id="Trazado_1033172" data-name="Trazado 1033172" d="M176.1,248l-2.091,0,0-2.074,2.084-.008Z" transform="translate(-143.611 -202.961)" fill="#040504"/>
        <path id="Trazado_1033173" data-name="Trazado 1033173" d="M62.884,309.836v3.136c-.672.791-2.152-.163-2.894-.659-3.05-2.981-6.137-4.683-10.034-1.84-2.548,2.506-5.2,4.072-8.46,1.462-2.624-3.007-6.27-3.964-9.6-1.429-2.44,2.658-5.294,3.919-8.385,1.422-2.384-2.776-5.712-3.839-8.975-1.857-2.788,2.6-5.145,4.459-8.807,1.964a8.372,8.372,0,0,0-5.417-3.021L0,308.646.014,305.5c3.612-.016,4.252,4.3,8.979,4.278,4.794-.021,5.282-4.31,9.082-4.213a5.158,5.158,0,0,1,3.674,1.828,6.8,6.8,0,0,0,9.9.461A11.545,11.545,0,0,1,33.62,306.2a4.8,4.8,0,0,1,6.1,1.2,6.832,6.832,0,0,0,10.348.013,4.838,4.838,0,0,1,6.1-1.238l1.991,1.662a7.336,7.336,0,0,0,4.722,2" transform="translate(0 -252.145)" fill="#99d8ed"/>
        <path id="Trazado_1033174" data-name="Trazado 1033174" d="M62.885,327.813l-.009,2.017a5.917,5.917,0,0,1-4.142-1.436l-2.248-1.934c-2.137-1.5-4.727-.822-6.417,1.026a6.825,6.825,0,0,1-10.345,0,4.82,4.82,0,0,0-5.885-1.33,9.26,9.26,0,0,0-2.1,1.7,6.833,6.833,0,0,1-10.08-.458,5,5,0,0,0-3.752-1.746c-3.6.005-4.2,4.192-8.916,4.22-4.692.028-5.343-4.273-8.98-4.2L0,323.488a6.191,6.191,0,0,1,3.944,1.365l1.863,1.631a4.759,4.759,0,0,0,6.364-.008l2.165-1.849A6.806,6.806,0,0,1,23.224,326a4.744,4.744,0,0,0,7.025.377,11.086,11.086,0,0,1,2.719-2.14,6.88,6.88,0,0,1,8.235,1.772,5.049,5.049,0,0,0,3.6,1.75c3.776.095,4.33-4.2,9.081-4.22,4.721-.018,5.393,4.316,9.005,4.277" transform="translate(0 -266.988)" fill="#040504"/>
        <path id="Trazado_1033175" data-name="Trazado 1033175" d="M251.277,22.789a1.234,1.234,0,0,1-1.279.086l-9.306-5.167a1.087,1.087,0,0,1-.612-.974V6.282a1.087,1.087,0,0,1,.612-.974L250,.142a1.188,1.188,0,0,1,1.211.053L260.4,5.3a1.1,1.1,0,0,1,.62.978l0,10.454a1.1,1.1,0,0,1-.621.982Z" transform="translate(-198.148 0.001)" fill="#040504"/>
        <path id="Trazado_1033176" data-name="Trazado 1033176" d="M259.339,58.262l-7.315-4.048-.008-8.075,7.318,4.055Z" transform="translate(-207.999 -38.08)" fill="#fba033"/>
        <path id="Trazado_1033177" data-name="Trazado 1033177" d="M313.3,54.3l-7.327,4.067-.016-8.056,7.332-4.076Z" transform="translate(-252.515 -38.157)" fill="#fec47d"/>
        <path id="Trazado_1033178" data-name="Trazado 1033178" d="M265.659,20.82l-7.37-4.028,7.28-4.055,7.275,4.044Z" transform="translate(-213.176 -10.512)" fill="#fba033"/>
        <path id="Trazado_1033179" data-name="Trazado 1033179" d="M11.212,22.788a1.245,1.245,0,0,1-1.281.091L.625,17.71A1.093,1.093,0,0,1,0,16.734V6.282A1.094,1.094,0,0,1,.624,5.3L9.933.142a1.187,1.187,0,0,1,1.211.053L20.334,5.3a1.1,1.1,0,0,1,.621.978V16.735a1.04,1.04,0,0,1-.513.912Z" transform="translate(-0.002 0)" fill="#040504"/>
        <path id="Trazado_1033180" data-name="Trazado 1033180" d="M19.339,58.262l-7.315-4.048-.008-8.075,7.318,4.055Z" transform="translate(-9.917 -38.08)" fill="#fba033"/>
        <path id="Trazado_1033181" data-name="Trazado 1033181" d="M73.3,54.3l-7.327,4.067-.016-8.056,7.332-4.076Z" transform="translate(-54.433 -38.157)" fill="#fec47d"/>
        <path id="Trazado_1033182" data-name="Trazado 1033182" d="M25.659,20.82l-7.37-4.028,7.28-4.055,7.275,4.044Z" transform="translate(-15.094 -10.512)" fill="#fba033"/>
      </g>
    </g>
  </g>
</svg>
