<svg xmlns="http://www.w3.org/2000/svg" xmlns:xlink="http://www.w3.org/1999/xlink" width="129" height="127" viewBox="0 0 129 127">
  <defs>
    <clipPath id="clip-path">
      <rect id="Rectángulo_454807" data-name="Rectángulo 454807" width="129" height="127" transform="translate(399.059 5904)" fill="#fee7bd"/>
    </clipPath>
    <clipPath id="clip-path-2">
      <rect id="Rectángulo_456277" data-name="Rectángulo 456277" width="113.227" height="113.227" transform="translate(0 0)" fill="#d35560"/>
    </clipPath>
    <clipPath id="clip-path-3">
      <rect id="Rectángulo_459950" data-name="Rectángulo 459950" width="65.203" height="58.912" fill="none"/>
    </clipPath>
  </defs>
  <g id="Grupo_1186119" data-name="Grupo 1186119" transform="translate(-398.059 -4702)">
    <path id="Trazado_1021132" data-name="Trazado 1021132" d="M0,0H129V127H0Z" transform="translate(398.059 4702)" fill="#fee7bd"/>
    <g id="Grupo_1180143" data-name="Grupo 1180143" transform="translate(406.392 4709.208)">
      <g id="Grupo_1179924" data-name="Grupo 1179924" transform="translate(-0.181 -0.182)">
        <g id="Grupo_1179923" data-name="Grupo 1179923" transform="translate(0 0)" clip-path="url(#clip-path-2)">
          <path id="Trazado_1004716" data-name="Trazado 1004716" d="M56.035,112.069c-1.82,0-3.522-2.079-5.3-2.253-1.808-.177-3.882,1.53-5.634,1.182-1.778-.353-3.042-2.725-4.755-3.246-1.732-.526-4.1.74-5.756.052s-2.442-3.268-4.024-4.116-4.162-.076-5.655-1.076-1.755-3.679-3.145-4.822-4.066-.88-5.339-2.152-1.008-3.947-2.152-5.339-3.818-1.647-4.822-3.145S9.234,83.091,8.381,81.5s-3.423-2.355-4.117-4.024.579-4.024.052-5.756c-.521-1.712-2.893-2.976-3.245-4.754C.723,65.213,2.43,63.14,2.253,61.332,2.079,59.557,0,57.855,0,56.035s2.079-3.522,2.253-5.3C2.43,48.93.722,46.856,1.071,45.1c.353-1.778,2.725-3.042,3.245-4.754.526-1.732-.74-4.1-.052-5.756s3.268-2.442,4.117-4.024.075-4.162,1.076-5.655,3.679-1.755,4.821-3.145.88-4.066,2.153-5.339,3.947-1.008,5.339-2.152,1.647-3.818,3.145-4.822,4.064-.222,5.655-1.076,2.355-3.423,4.024-4.117,4.024.578,5.756.052C42.062,3.8,43.325,1.424,45.1,1.07,46.856.722,48.93,2.43,50.737,2.253,52.512,2.079,54.215,0,56.035,0s3.522,2.079,5.3,2.253c1.808.177,3.882-1.53,5.634-1.182,1.778.353,3.042,2.725,4.755,3.246,1.732.526,4.1-.74,5.756-.052S79.919,7.532,81.5,8.381s4.162.075,5.655,1.076,1.755,3.679,3.145,4.821,4.066.88,5.339,2.153,1.008,3.947,2.152,5.339,3.818,1.647,4.822,3.145.222,4.064,1.076,5.655,3.423,2.355,4.116,4.024-.578,4.024-.052,5.756c.521,1.712,2.893,2.976,3.245,4.754.348,1.753-1.359,3.826-1.182,5.634.174,1.775,2.253,3.478,2.253,5.3s-2.079,3.522-2.253,5.3c-.176,1.807,1.53,3.881,1.182,5.634-.353,1.778-2.725,3.042-3.245,4.755-.526,1.732.74,4.1.052,5.756s-3.268,2.442-4.117,4.024-.075,4.162-1.076,5.655-3.679,1.755-4.821,3.145-.88,4.066-2.153,5.339-3.947,1.008-5.339,2.152-1.647,3.817-3.145,4.821-4.064.222-5.655,1.076-2.355,3.423-4.024,4.117-4.024-.578-5.756-.052c-1.712.52-2.976,2.892-4.754,3.245-1.753.348-3.826-1.359-5.634-1.182-1.775.173-3.478,2.253-5.3,2.253" transform="translate(0.579 0.578)" fill="#4d787e"/>
          <path id="Trazado_1004717" data-name="Trazado 1004717" d="M14,64.734a50.734,50.734,0,1,1,50.734,50.734A50.734,50.734,0,0,1,14,64.734" transform="translate(-8.12 -8.121)" fill="#fff7e8"/>
          <path id="Trazado_1021102" data-name="Trazado 1021102" d="M14,60.95A46.95,46.95,0,1,1,60.95,107.9,46.95,46.95,0,0,1,14,60.95" transform="translate(-4.338 -4.337)" fill="#4d787e"/>
        </g>
      </g>
    </g>
    <g id="Grupo_1187738" data-name="Grupo 1187738" transform="translate(430.211 4736.028)">
      <g id="Grupo_1187737" data-name="Grupo 1187737" clip-path="url(#clip-path-3)">
        <path id="Trazado_1033183" data-name="Trazado 1033183" d="M41.412,8.166a1.8,1.8,0,0,0,2.071-.094l1.983.51a3.745,3.745,0,0,0-.316,1.134l27.78,9.25v4.088L42.471,12.9l-30.5,10.168-.04-4.071L39.8,9.71l-.345-1.068Z" transform="translate(-9.842 -6.657)" fill="#e77f84"/>
        <path id="Trazado_1033184" data-name="Trazado 1033184" d="M182.051,1.415l-.02.683H180a1.488,1.488,0,0,1-.019-.59V0h2.065Z" transform="translate(-148.41)" fill="#060706"/>
        <path id="Trazado_1033185" data-name="Trazado 1033185" d="M29.612,6.96c.657.025.792.972.34,1.439L2.52,17.54a31.26,31.26,0,0,0-.042,3.35L32.606,10.879l30.131,10a31.082,31.082,0,0,0-.076-3.368L35.4,8.434A.832.832,0,0,1,35.624,6.9a2.971,2.971,0,0,1,.354-.868l28.457,9.486a1.054,1.054,0,0,1,.767,1.029v6.3a1.035,1.035,0,0,1-1.335,1L58.9,22.212l0,39.556,5.246,0-.025,2.115H1.088l-.025-2.114,5.246,0L6.3,22.2,1.48,23.822a1.176,1.176,0,0,1-1.023-.11A1.041,1.041,0,0,1,0,22.844l0-6.3a.985.985,0,0,1,.65-.971L29.237,6.043a3.386,3.386,0,0,1,.375.917" transform="translate(0 -4.975)" fill="#040504"/>
        <path id="Trazado_1033186" data-name="Trazado 1033186" d="M79.357,262.389l-7.342-4.063-.008-8.1,7.345,4.07Z" transform="translate(-59.384 -206.355)" fill="#fba033"/>
        <path id="Trazado_1033187" data-name="Trazado 1033187" d="M133.365,258.411l-7.359,4.08.008-8.11,7.341-4.058Z" transform="translate(-103.916 -206.44)" fill="#fec47d"/>
        <path id="Trazado_1033188" data-name="Trazado 1033188" d="M85.677,224.932l-7.4-4.043,7.307-4.07,7.3,4.059Z" transform="translate(-64.557 -178.809)" fill="#fba033"/>
        <path id="Trazado_1033189" data-name="Trazado 1033189" d="M211.357,262.389l-7.342-4.063-.008-8.1,7.345,4.07Z" transform="translate(-168.243 -206.355)" fill="#fba033"/>
        <path id="Trazado_1033190" data-name="Trazado 1033190" d="M265.365,258.411l-7.359,4.08.008-8.11,7.341-4.058Z" transform="translate(-212.776 -206.44)" fill="#fec47d"/>
        <path id="Trazado_1033191" data-name="Trazado 1033191" d="M217.677,224.932l-7.4-4.043,7.307-4.07,7.3,4.059Z" transform="translate(-173.416 -178.809)" fill="#fba033"/>
        <path id="Trazado_1033192" data-name="Trazado 1033192" d="M79.591,96.579l-14.853,0,5.743-3.225a1.09,1.09,0,0,0,.624-.976v-10.5a1.1,1.1,0,0,0-.626-.984l-9.223-5.127a1.187,1.187,0,0,0-1.217-.048l-9.447,5.252a1.024,1.024,0,0,0-.5.909l0,10.49a1.1,1.1,0,0,0,.5.91l5.866,3.288-8.489.027V56.328l24.213-8.071L96.35,56.319V96.594l-8.476-.027,5.747-3.221a1.116,1.116,0,0,0,.625-.975L94.24,81.88a1.1,1.1,0,0,0-.622-.982l-9.339-5.186a1.092,1.092,0,0,0-1.1.007L73.837,80.9a1.089,1.089,0,0,0-.614.977l0,10.49a1.109,1.109,0,0,0,.614.973Z" transform="translate(-39.552 -39.797)" fill="#cbebf5"/>
        <path id="Trazado_1033193" data-name="Trazado 1033193" d="M181.053,250.451V239.9c.062-.019.16.046.16.1l0,10.172c0,.136,0,.229-.165.282" transform="translate(-149.313 -197.84)" fill="#cfedf7"/>
        <path id="Trazado_1033194" data-name="Trazado 1033194" d="M158.257,153.964l-6.894,3.415-6.85-3.386a1.015,1.015,0,0,1-.51-.9v-5.249a1.064,1.064,0,0,1,.624-.969l6.734-3.318,6.735,3.316a1.066,1.066,0,0,1,.624.97v5.253a1,1,0,0,1-.461.87" transform="translate(-118.757 -118.39)" fill="#040504"/>
        <path id="Trazado_1033195" data-name="Trazado 1033195" d="M167.564,160.769l-3.984-1.949,3.931-2.006,3.965,1.968Z" transform="translate(-134.903 -129.323)" fill="#faa032"/>
        <path id="Trazado_1033196" data-name="Trazado 1033196" d="M160.231,182.847l-4.137-2.023-.015-2.909,4.138,2.036Z" transform="translate(-128.718 -146.725)" fill="#faa032"/>
        <path id="Trazado_1033197" data-name="Trazado 1033197" d="M192.048,182.842l-.028-2.862,4.178-2.1.027,2.876Z" transform="translate(-158.357 -146.695)" fill="#99d8ec"/>
        <path id="Trazado_1033198" data-name="Trazado 1033198" d="M213.814,108.306l-14.761-.006a1.037,1.037,0,0,1-1.063-1.051l-.006-4.2A1.045,1.045,0,0,1,199.053,102h14.688a1.044,1.044,0,0,1,1.068,1.052l0,4.2a1.071,1.071,0,0,1-1,1.061" transform="translate(-163.276 -84.115)" fill="#050606"/>
        <path id="Trazado_1033199" data-name="Trazado 1033199" d="M222.671,116.089h-12.58v-2.1l12.581,0Z" transform="translate(-173.26 -94)" fill="#99d8ed"/>
        <path id="Trazado_1033200" data-name="Trazado 1033200" d="M93.814,108.306,79.052,108.3a1.037,1.037,0,0,1-1.063-1.051l-.006-4.2A1.045,1.045,0,0,1,79.053,102H93.742a1.044,1.044,0,0,1,1.068,1.052l0,4.2a1.071,1.071,0,0,1-1,1.061" transform="translate(-64.313 -84.115)" fill="#040504"/>
        <path id="Trazado_1033201" data-name="Trazado 1033201" d="M102.671,116.089H90.091v-2.1l12.581,0Z" transform="translate(-74.297 -94)" fill="#99d8ec"/>
      </g>
    </g>
  </g>
</svg>
