<svg xmlns="http://www.w3.org/2000/svg" xmlns:xlink="http://www.w3.org/1999/xlink" width="292" height="147" viewBox="0 0 292 147">
  <defs>
    <clipPath id="clip-path">
      <rect id="Rectángulo_459751" data-name="Rectángulo 459751" width="193.648" height="129.102" fill="none"/>
    </clipPath>
  </defs>
  <g id="Grupo_1187563" data-name="Grupo 1187563" transform="translate(-185.711 -29267)">
    <rect id="Rectángulo_458643" data-name="Rectángulo 458643" width="292" height="147" rx="10" transform="translate(185.711 29267)" fill="#a2cbcf"/>
    <g id="Grupo_1187562" data-name="Grupo 1187562" transform="translate(234.887 29275.949)">
      <rect id="Rectángulo_459744" data-name="Rectángulo 459744" width="69.774" height="86.103" transform="translate(83.825 0.155)" fill="#fff"/>
      <g id="Grupo_1187561" data-name="Grupo 1187561">
        <g id="Grupo_1187560" data-name="Grupo 1187560" clip-path="url(#clip-path)">
          <path id="Trazado_1030078" data-name="Trazado 1030078" d="M608.414,86.414H538.64a.155.155,0,0,1-.155-.155V.155A.155.155,0,0,1,538.64,0h69.774a.155.155,0,0,1,.155.155v86.1a.155.155,0,0,1-.155.155M538.8,86.1h69.463V.311H538.8Z" transform="translate(-454.815)"/>
          <rect id="Rectángulo_459745" data-name="Rectángulo 459745" width="69.774" height="86.103" transform="translate(72.176 9.36)" fill="#fff"/>
          <path id="Trazado_1030079" data-name="Trazado 1030079" d="M533.442,145.656H463.668a.155.155,0,0,1-.155-.155V59.4a.155.155,0,0,1,.155-.155h69.774a.155.155,0,0,1,.155.155v86.1a.155.155,0,0,1-.155.155m-69.619-.311h69.463V59.553H463.824Z" transform="translate(-391.493 -50.037)"/>
          <path id="Trazado_1030080" data-name="Trazado 1030080" d="M539.122,136.589h44.835a1.959,1.959,0,0,0,1.959-1.959v-3.2a1.959,1.959,0,0,0-1.959-1.959H539.122a1.959,1.959,0,0,0-1.959,1.959v3.2a1.959,1.959,0,0,0,1.959,1.959" transform="translate(-453.699 -109.351)" fill="#e2eaff"/>
          <rect id="Rectángulo_459746" data-name="Rectángulo 459746" width="53.225" height="6.668" transform="translate(81.117 36.623)" fill="#fff"/>
          <path id="Trazado_1030081" data-name="Trazado 1030081" d="M574.436,241.679H521.211a.155.155,0,0,1-.155-.155v-6.668a.155.155,0,0,1,.155-.155h53.225a.155.155,0,0,1,.155.155v6.668a.155.155,0,0,1-.155.155m-53.07-.311h52.914v-6.357H521.367Z" transform="translate(-440.095 -198.232)"/>
          <path id="Trazado_1030082" data-name="Trazado 1030082" d="M627.174,241.679a.155.155,0,0,1-.155-.155v-6.668a.155.155,0,0,1,.311,0v6.668a.155.155,0,0,1-.155.155" transform="translate(-529.593 -198.233)"/>
          <rect id="Rectángulo_459747" data-name="Rectángulo 459747" width="53.225" height="6.668" transform="translate(81.117 48.388)" fill="#fff"/>
          <path id="Trazado_1030083" data-name="Trazado 1030083" d="M574.436,317.4H521.211a.155.155,0,0,1-.155-.155v-6.668a.155.155,0,0,1,.155-.155h53.225a.155.155,0,0,1,.155.155v6.668a.155.155,0,0,1-.155.155m-53.07-.311h52.914v-6.357H521.367Z" transform="translate(-440.095 -262.188)"/>
          <path id="Trazado_1030084" data-name="Trazado 1030084" d="M627.174,317.4a.155.155,0,0,1-.155-.155v-6.668a.155.155,0,1,1,.311,0v6.668a.155.155,0,0,1-.155.155" transform="translate(-529.593 -262.188)"/>
          <rect id="Rectángulo_459748" data-name="Rectángulo 459748" width="53.225" height="6.668" transform="translate(81.117 60.154)" fill="#fff"/>
          <path id="Trazado_1030085" data-name="Trazado 1030085" d="M574.436,393.12H521.211a.155.155,0,0,1-.155-.155V386.3a.155.155,0,0,1,.155-.155h53.225a.155.155,0,0,1,.155.155v6.668a.155.155,0,0,1-.155.155m-53.07-.311h52.914v-6.357H521.367Z" transform="translate(-440.095 -326.143)"/>
          <path id="Trazado_1030086" data-name="Trazado 1030086" d="M627.174,393.12a.155.155,0,0,1-.155-.155V386.3a.155.155,0,1,1,.311,0v6.668a.155.155,0,0,1-.155.155" transform="translate(-529.593 -326.143)"/>
          <rect id="Rectángulo_459749" data-name="Rectángulo 459749" width="53.225" height="6.668" transform="translate(81.117 71.919)" fill="#fff"/>
          <path id="Trazado_1030087" data-name="Trazado 1030087" d="M574.436,468.841H521.211a.155.155,0,0,1-.155-.155v-6.668a.155.155,0,0,1,.155-.155h53.225a.155.155,0,0,1,.155.155v6.668a.155.155,0,0,1-.155.155m-53.07-.311h52.914v-6.357H521.367Z" transform="translate(-440.095 -390.098)"/>
          <path id="Trazado_1030088" data-name="Trazado 1030088" d="M627.174,468.841a.155.155,0,0,1-.155-.155v-6.668a.155.155,0,1,1,.311,0v6.668a.155.155,0,0,1-.155.155" transform="translate(-529.593 -390.098)"/>
          <path id="Trazado_1030089" data-name="Trazado 1030089" d="M1100.085,459.178h-26.558a.155.155,0,0,1,0-.311h26.4l-.036-61.158-19.014.018a.155.155,0,1,1,0-.311l19.169-.018a.155.155,0,0,1,.156.155l.036,61.469a.155.155,0,0,1-.155.156" transform="translate(-906.592 -335.65)"/>
          <path id="Trazado_1030090" data-name="Trazado 1030090" d="M1048.994,127.212a13.417,13.417,0,0,0-13.4,13.437c0,12.942,13.4,26.57,13.4,26.57s13.4-13.752,13.4-26.57a13.418,13.418,0,0,0-13.4-13.437m0,20a6.261,6.261,0,1,1,6.243-6.261,6.252,6.252,0,0,1-6.243,6.261" transform="translate(-874.685 -107.446)" fill="#e2eaff"/>
          <rect id="Rectángulo_459750" data-name="Rectángulo 459750" width="74.737" height="32.551" transform="translate(55.078 88.245)" fill="#5479f7"/>
          <path id="Trazado_1030091" data-name="Trazado 1030091" d="M464.1,793.12H353.628a.155.155,0,1,1,0-.311H464.1a.155.155,0,1,1,0,.311" transform="translate(-298.551 -669.623)"/>
          <path id="Trazado_1030092" data-name="Trazado 1030092" d="M467.369,763.342a5.588,5.588,0,1,1-5.589-5.605,5.6,5.6,0,0,1,5.589,5.605" transform="translate(-385.309 -640)" fill="#fff"/>
          <path id="Trazado_1030093" data-name="Trazado 1030093" d="M460.935,768.258a5.76,5.76,0,1,1,5.744-5.76,5.759,5.759,0,0,1-5.744,5.76m0-11.21a5.45,5.45,0,1,0,5.433,5.449,5.448,5.448,0,0,0-5.433-5.449" transform="translate(-384.464 -639.156)"/>
          <path id="Trazado_1030094" data-name="Trazado 1030094" d="M482.134,781.49a2.26,2.26,0,1,1-2.26-2.267,2.263,2.263,0,0,1,2.26,2.267" transform="translate(-403.403 -658.148)" fill="#fff"/>
          <path id="Trazado_1030095" data-name="Trazado 1030095" d="M479.029,783.066a2.422,2.422,0,1,1,2.415-2.422,2.421,2.421,0,0,1-2.415,2.422m0-4.533a2.111,2.111,0,1,0,2.1,2.111,2.11,2.11,0,0,0-2.1-2.111" transform="translate(-402.558 -657.302)"/>
          <path id="Trazado_1030096" data-name="Trazado 1030096" d="M387.247,763.342a5.589,5.589,0,1,1-5.589-5.605,5.6,5.6,0,0,1,5.589,5.605" transform="translate(-317.636 -640)" fill="#fff"/>
          <path id="Trazado_1030097" data-name="Trazado 1030097" d="M380.813,768.258a5.76,5.76,0,1,1,5.744-5.76,5.759,5.759,0,0,1-5.744,5.76m0-11.21a5.45,5.45,0,1,0,5.433,5.449,5.448,5.448,0,0,0-5.433-5.449" transform="translate(-316.791 -639.156)"/>
          <path id="Trazado_1030098" data-name="Trazado 1030098" d="M402.012,781.49a2.26,2.26,0,1,1-2.26-2.267,2.263,2.263,0,0,1,2.26,2.267" transform="translate(-335.73 -658.148)" fill="#fff"/>
          <path id="Trazado_1030099" data-name="Trazado 1030099" d="M398.907,783.066a2.422,2.422,0,1,1,2.415-2.422,2.421,2.421,0,0,1-2.415,2.422m0-4.533a2.111,2.111,0,1,0,2.1,2.111,2.11,2.11,0,0,0-2.1-2.111" transform="translate(-334.885 -657.302)"/>
          <path id="Trazado_1030100" data-name="Trazado 1030100" d="M856.857,660.149h32.407v-6.814l-8.014-2.1-3.075-4.732-.9-1.377a46.932,46.932,0,0,0-20.422-6.549Z" transform="translate(-723.719 -539.353)" fill="#fff"/>
          <path id="Trazado_1030101" data-name="Trazado 1030101" d="M888.419,659.459H856.012a.155.155,0,0,1-.155-.155V637.729a.155.155,0,0,1,.172-.154,46.842,46.842,0,0,1,20.485,6.57.159.159,0,0,1,.051.049l3.938,6.059,7.956,2.087a.155.155,0,0,1,.116.15V659.3a.155.155,0,0,1-.156.155m-32.251-.311h32.1v-6.539l-7.9-2.072a.156.156,0,0,1-.091-.066l-3.951-6.079a46.455,46.455,0,0,0-20.156-6.491Z" transform="translate(-722.874 -538.508)"/>
          <path id="Trazado_1030102" data-name="Trazado 1030102" d="M885.774,680.035h-18.7a.155.155,0,1,1,0-.311h18.7a.155.155,0,1,1,0,.311" transform="translate(-732.214 -574.109)"/>
          <path id="Trazado_1030103" data-name="Trazado 1030103" d="M1056.286,742.019a.155.155,0,0,1-.156-.155v-6.387a.155.155,0,0,1,.311,0v6.387a.155.155,0,0,1-.155.155" transform="translate(-892.03 -621.067)"/>
          <path id="Trazado_1030104" data-name="Trazado 1030104" d="M947.252,693.59H936.62a.155.155,0,0,1-.155-.155v-4.692a.155.155,0,1,1,.311,0v4.536h10.476a.155.155,0,0,1,0,.311" transform="translate(-790.958 -581.596)"/>
          <path id="Trazado_1030105" data-name="Trazado 1030105" d="M870.754,693.59H867.07a.155.155,0,0,1-.155-.155v-4.692a.155.155,0,0,1,.155-.155h3.684a.155.155,0,0,1,.155.155v4.692a.155.155,0,0,1-.155.155m-3.528-.311H870.6V688.9h-3.373Z" transform="translate(-732.214 -581.596)"/>
          <path id="Trazado_1030106" data-name="Trazado 1030106" d="M962.273,763.342a5.588,5.588,0,1,1-5.589-5.605,5.6,5.6,0,0,1,5.589,5.605" transform="translate(-803.315 -640)" fill="#fff"/>
          <path id="Trazado_1030107" data-name="Trazado 1030107" d="M955.839,768.258a5.76,5.76,0,1,1,5.744-5.76,5.759,5.759,0,0,1-5.744,5.76m0-11.21a5.45,5.45,0,1,0,5.433,5.449,5.448,5.448,0,0,0-5.433-5.449" transform="translate(-802.47 -639.156)"/>
          <path id="Trazado_1030108" data-name="Trazado 1030108" d="M977.037,781.49a2.26,2.26,0,1,1-2.26-2.267,2.263,2.263,0,0,1,2.26,2.267" transform="translate(-821.408 -658.148)" fill="#fff"/>
          <path id="Trazado_1030109" data-name="Trazado 1030109" d="M973.933,783.066a2.422,2.422,0,1,1,2.415-2.422,2.421,2.421,0,0,1-2.415,2.422m0-4.533a2.111,2.111,0,1,0,2.1,2.111,2.11,2.11,0,0,0-2.1-2.111" transform="translate(-820.564 -657.302)"/>
          <path id="Trazado_1030110" data-name="Trazado 1030110" d="M774.535,763.342a5.589,5.589,0,1,1-5.589-5.605,5.6,5.6,0,0,1,5.589,5.605" transform="translate(-644.748 -640)" fill="#fff"/>
          <path id="Trazado_1030111" data-name="Trazado 1030111" d="M768.1,768.258a5.76,5.76,0,1,1,5.744-5.76,5.759,5.759,0,0,1-5.744,5.76m0-11.21a5.45,5.45,0,1,0,5.433,5.449,5.447,5.447,0,0,0-5.433-5.449" transform="translate(-643.902 -639.156)"/>
          <path id="Trazado_1030112" data-name="Trazado 1030112" d="M789.3,781.49a2.26,2.26,0,1,1-2.26-2.267,2.263,2.263,0,0,1,2.26,2.267" transform="translate(-662.84 -658.148)" fill="#fff"/>
          <path id="Trazado_1030113" data-name="Trazado 1030113" d="M786.194,783.066a2.422,2.422,0,1,1,2.415-2.422,2.421,2.421,0,0,1-2.415,2.422m0-4.533a2.111,2.111,0,1,0,2.1,2.111,2.11,2.11,0,0,0-2.1-2.111" transform="translate(-661.996 -657.302)"/>
          <path id="Trazado_1030114" data-name="Trazado 1030114" d="M694.413,763.342a5.588,5.588,0,1,1-5.588-5.605,5.6,5.6,0,0,1,5.588,5.605" transform="translate(-577.075 -640)" fill="#fff"/>
          <path id="Trazado_1030115" data-name="Trazado 1030115" d="M687.979,768.258a5.76,5.76,0,1,1,5.744-5.76,5.759,5.759,0,0,1-5.744,5.76m0-11.21a5.45,5.45,0,1,0,5.433,5.449,5.448,5.448,0,0,0-5.433-5.449" transform="translate(-576.23 -639.156)"/>
          <path id="Trazado_1030116" data-name="Trazado 1030116" d="M709.177,781.49a2.26,2.26,0,1,1-2.26-2.267,2.263,2.263,0,0,1,2.26,2.267" transform="translate(-595.168 -658.148)" fill="#fff"/>
          <path id="Trazado_1030117" data-name="Trazado 1030117" d="M706.073,783.066a2.422,2.422,0,1,1,2.415-2.422,2.421,2.421,0,0,1-2.415,2.422m0-4.533a2.111,2.111,0,1,0,2.1,2.111,2.11,2.11,0,0,0-2.1-2.111" transform="translate(-594.324 -657.302)"/>
          <path id="Trazado_1030118" data-name="Trazado 1030118" d="M68.814,226.325a83.929,83.929,0,0,0-9.944-14.068,16.192,16.192,0,0,0-12.125-5.2l-26.673.4a9.039,9.039,0,0,0-8.891,8.823l-1.03,41.431,41.008-21.123Z" transform="translate(-8.574 -174.88)" fill="#fff"/>
          <path id="Trazado_1030119" data-name="Trazado 1030119" d="M9.305,257.017a.156.156,0,0,1-.155-.159l1.03-41.431a9.169,9.169,0,0,1,9.044-8.975l26.673-.4a16.369,16.369,0,0,1,12.242,5.254A84.752,84.752,0,0,1,68.1,225.4a.155.155,0,0,1-.058.209L50.391,235.872,9.376,257a.155.155,0,0,1-.071.017M46.14,206.361l-.238,0-26.673.4a8.859,8.859,0,0,0-8.738,8.672L9.467,256.6l40.775-21,17.517-10.177a83.761,83.761,0,0,0-9.848-13.9,16.065,16.065,0,0,0-11.771-5.156" transform="translate(-7.728 -174.035)"/>
          <path id="Trazado_1030120" data-name="Trazado 1030120" d="M19.5,207.437s9.735,5.837,11.1,23.74L44.98,227.7s-.468-15.318-8.321-20.639H39.3s7.875.122,10.633,21.23l-.536,32.561H1.332V246.936l23.378-4.753s3.408-23.187-9-34.746Z" transform="translate(-1.125 -174.889)" fill="#5479f7"/>
          <path id="Trazado_1030121" data-name="Trazado 1030121" d="M406.565,208.019c-2.019,1.305-14.928,14.491-14.928,14.491l-.079-1.245s-8.639-.888-14.276,1.525a16.5,16.5,0,0,0,6.909,13.679c12,8.977,27.5-18.447,27.5-18.447a2.45,2.45,0,0,0,2.874-.03c1.577-1.063,2.3-2.187.765-3.124,0,0,2.378-1.742.505-3.283,0,0,1.961-2.9-2.389-2.75,0,0,7.386-2.56,5.711-4.7-.461-.589-.543-1.091-2.451-.259s-8.12,2.841-10.139,4.147" transform="translate(-318.647 -171.824)" fill="#fff"/>
          <path id="Trazado_1030122" data-name="Trazado 1030122" d="M388.585,237.575a8.717,8.717,0,0,1-5.318-1.835,16.8,16.8,0,0,1-6.97-13.816.155.155,0,1,1,.31.026,16.482,16.482,0,0,0,6.847,13.542,8.422,8.422,0,0,0,7.044,1.568c10.029-2.106,20.127-19.789,20.228-19.968a.156.156,0,0,1,.232-.045,2.28,2.28,0,0,0,2.69-.038c1.039-.7,1.559-1.325,1.547-1.858-.008-.358-.269-.7-.776-1a.155.155,0,0,1-.011-.258,2.92,2.92,0,0,0,1.16-1.812,1.539,1.539,0,0,0-.662-1.226.155.155,0,0,1-.03-.207c.007-.01.688-1.038.29-1.755-.3-.541-1.179-.8-2.544-.753a.158.158,0,0,1-.158-.127.156.156,0,0,1,.1-.175c.053-.018,5.29-1.853,5.814-3.629a.872.872,0,0,0-.175-.83c-.048-.061-.092-.121-.134-.179-.343-.471-.532-.731-2.133-.033-.625.273-1.7.667-2.945,1.124a48.948,48.948,0,0,0-7.172,3.01c-1.982,1.281-14.773,14.338-14.9,14.47a.155.155,0,0,1-.266-.1l-.08-1.245a.155.155,0,0,1,.31-.02l.057.9c1.84-1.875,12.83-13.048,14.711-14.264a48.958,48.958,0,0,1,7.234-3.041c1.24-.455,2.311-.849,2.928-1.118,1.745-.761,2.075-.461,2.508.135.04.055.082.112.127.17a1.18,1.18,0,0,1,.228,1.11c-.443,1.5-3.7,2.942-5.231,3.544a2.294,2.294,0,0,1,1.992.9,2.134,2.134,0,0,1-.231,1.96,1.775,1.775,0,0,1,.672,1.387A2.943,2.943,0,0,1,414.763,214a1.472,1.472,0,0,1,.742,1.143c.015.655-.536,1.35-1.684,2.123a2.627,2.627,0,0,1-2.908.122,79.137,79.137,0,0,1-6.267,9.094c-3.489,4.347-8.764,9.763-14.085,10.881a9.607,9.607,0,0,1-1.975.211" transform="translate(-317.817 -170.971)"/>
          <path id="Trazado_1030123" data-name="Trazado 1030123" d="M554.174,237.987a2.9,2.9,0,0,1-2.071-.858.155.155,0,0,1,.224-.216,2.585,2.585,0,0,0,2.737.6,5.525,5.525,0,0,0,.816-.434,2.588,2.588,0,0,1,2.376-.5c.12.023.241.047.362.064a1.341,1.341,0,0,0,1.066-.2,1.023,1.023,0,0,0,.22-1.038,2.561,2.561,0,0,0-.675-1,8.184,8.184,0,0,0-3.958-2.219.155.155,0,0,1,.07-.3,8.5,8.5,0,0,1,4.11,2.3,2.883,2.883,0,0,1,.75,1.131,1.327,1.327,0,0,1-.31,1.36,1.568,1.568,0,0,1-1.318.281c-.126-.018-.252-.043-.377-.067a2.3,2.3,0,0,0-2.155.465,5.745,5.745,0,0,1-.863.458,2.751,2.751,0,0,1-1,.185" transform="translate(-466.281 -195.84)"/>
          <path id="Trazado_1030124" data-name="Trazado 1030124" d="M584.074,258.863a2.055,2.055,0,0,1-.36-.031,1.41,1.41,0,0,1-1.06-.769.974.974,0,0,1,.4-1.25.155.155,0,0,1,.137.279.677.677,0,0,0-.254.846,1.1,1.1,0,0,0,.83.587,2.672,2.672,0,0,0,1.128-.1,7.294,7.294,0,0,0,3.922-2.639.155.155,0,0,1,.248.187,7.606,7.606,0,0,1-4.09,2.752,3.538,3.538,0,0,1-.9.139" transform="translate(-492.05 -215.989)"/>
          <path id="Trazado_1030125" data-name="Trazado 1030125" d="M589.879,276.321a2.262,2.262,0,0,1-.922-.187,1.747,1.747,0,0,1-1.027-1.978.155.155,0,0,1,.3.087,1.429,1.429,0,0,0,.855,1.607,2.418,2.418,0,0,0,2-.132,7.562,7.562,0,0,0,1.73-1.286.155.155,0,1,1,.208.231,7.794,7.794,0,0,1-1.8,1.336,3.132,3.132,0,0,1-1.342.323" transform="translate(-496.532 -231.463)"/>
          <path id="Trazado_1030126" data-name="Trazado 1030126" d="M596.18,288.66a.155.155,0,0,1-.1-.036,1.155,1.155,0,0,1-.269-1.388.155.155,0,0,1,.274.147.846.846,0,0,0,.194,1,.155.155,0,0,1-.1.275" transform="translate(-503.129 -242.535)"/>
          <path id="Trazado_1030127" data-name="Trazado 1030127" d="M230.056,181.424H263.21l20.961-44.408H251.017Z" transform="translate(-194.31 -115.726)"/>
          <path id="Trazado_1030128" data-name="Trazado 1030128" d="M72.475,264.981s-3.854.555-5.448,5.763c0,0-10.733,6.078-16.913,8.3l-4-6.53L29.78,282.329s6.992,14.23,15.59,16.251,30.988-16.251,30.988-16.251,11.879.4,12.008-2.025-5.247-1.659-5.247-1.659,7.307-1.062,7.665-3.112-7.548,0-7.548,0,8.4-1.691,8-3.891-3.861-.93-3.861-.93.151-2.368-2.848-2.034c-1.449.162-4.348.546-6.958.9a4.494,4.494,0,0,1-5.091-4.6" transform="translate(-25.153 -223.808)" fill="#fff"/>
          <path id="Trazado_1030129" data-name="Trazado 1030129" d="M36.624,292.738a.155.155,0,0,1-.112-.048A51.439,51.439,0,0,1,28.8,281.552a.156.156,0,0,1,.06-.2l16.332-9.812a.155.155,0,0,1,.212.052l3.936,6.422c5.891-2.146,15.892-7.754,16.716-8.218,1.616-5.187,5.516-5.806,5.556-5.812a.156.156,0,0,1,.178.159,4.339,4.339,0,0,0,4.915,4.44c2.341-.318,5.45-.732,6.961-.9a2.868,2.868,0,0,1,2.388.579,2.156,2.156,0,0,1,.628,1.395,4.433,4.433,0,0,1,3.091-.023,1.568,1.568,0,0,1,.772,1.139c.221,1.209-1.82,2.229-3.92,2.948,1.411-.162,2.745-.158,3.253.31a.723.723,0,0,1,.22.688c-.244,1.394-3.359,2.329-5.579,2.823a4.462,4.462,0,0,1,2.7.775,1.4,1.4,0,0,1,.464,1.155c-.132,2.466-10.634,2.22-12.11,2.174-.469.38-4.5,3.625-9.585,7.092a.155.155,0,0,1-.175-.257c5.372-3.664,9.567-7.079,9.609-7.113a.151.151,0,0,1,.1-.035c3.262.109,11.749-.016,11.848-1.878a1.085,1.085,0,0,0-.363-.909c-1.173-1.075-4.671-.592-4.706-.587a.155.155,0,0,1-.044-.308c2-.291,7.257-1.394,7.535-2.985a.411.411,0,0,0-.124-.406c-.678-.625-3.485-.225-5.554.2-.83.21-1.468.343-1.686.387a.155.155,0,0,1-.07-.3c.194-.05.843-.215,1.689-.391,2.675-.689,6.44-1.968,6.193-3.321a1.255,1.255,0,0,0-.621-.925c-1.055-.6-3.014.106-3.034.114a.155.155,0,0,1-.209-.156,1.924,1.924,0,0,0-.539-1.376,2.587,2.587,0,0,0-2.137-.493c-1.509.168-4.614.582-6.954.9a4.649,4.649,0,0,1-5.269-4.56c-.768.191-3.793,1.209-5.142,5.616a.155.155,0,0,1-.072.09c-.108.061-10.815,6.11-16.937,8.313a.155.155,0,0,1-.185-.065l-3.922-6.4L29.14,281.542a50.941,50.941,0,0,0,7.6,10.933.155.155,0,0,1-.112.263" transform="translate(-24.309 -222.963)"/>
          <path id="Trazado_1030130" data-name="Trazado 1030130" d="M12.34,209.513S19.9,219.593,23.32,226.875c0,0-8.939,9.535-17.852,12.449,0,0-5.036-4.615-4.42-17.333.658-13.579,11.292-12.478,11.292-12.478" transform="translate(-0.841 -176.941)" fill="#fff"/>
          <path id="Trazado_1030131" data-name="Trazado 1030131" d="M4.628,238.648a.156.156,0,0,1-.105-.041,12.108,12.108,0,0,1-2.479-3.95c-1.085-2.518-2.312-6.905-1.992-13.5.224-4.617,1.614-8.055,4.132-10.218a10.653,10.653,0,0,1,7.33-2.407.155.155,0,0,1-.032.309,10.329,10.329,0,0,0-7.1,2.337c-2.449,2.105-3.8,5.468-4.021,9.994-.567,11.708,3.73,16.554,4.307,17.148,8.324-2.764,16.756-11.4,17.624-12.3a73.787,73.787,0,0,0-4.239-7.507.155.155,0,0,1,.263-.166,73.4,73.4,0,0,1,4.3,7.637.155.155,0,0,1-.027.172c-.09.1-9.069,9.6-17.917,12.491a.156.156,0,0,1-.048.008" transform="translate(0 -176.11)"/>
          <path id="Trazado_1030132" data-name="Trazado 1030132" d="M356.222,305.143a.155.155,0,0,1-.027-.308,32.078,32.078,0,0,0,6.247-1.779.155.155,0,1,1,.115.289,32.373,32.373,0,0,1-6.307,1.8l-.027,0" transform="translate(-300.742 -255.958)"/>
          <path id="Trazado_1030133" data-name="Trazado 1030133" d="M151.266,152.456l-2.372,5.732,2.285-.137s-.092,4.652-5.725,4.491a11.351,11.351,0,0,1-8.535-4.238l4.142-1.1,3.138-8.17Z" transform="translate(-115.645 -125.878)" fill="#fff"/>
          <path id="Trazado_1030134" data-name="Trazado 1030134" d="M144.9,161.857q-.143,0-.288,0a11.608,11.608,0,0,1-8.657-4.3.155.155,0,0,1,.087-.24l4.065-1.078,3.109-8.1a.155.155,0,0,1,.213-.084l7.067,3.421a.155.155,0,0,1,.076.2l-2.277,5.5,2.037-.122a.151.151,0,0,1,.117.043.155.155,0,0,1,.048.115,4.966,4.966,0,0,1-1.472,3.237,5.76,5.76,0,0,1-4.124,1.41m-8.551-4.308a11.335,11.335,0,0,0,8.272,3.993,5.619,5.619,0,0,0,4.186-1.318,4.725,4.725,0,0,0,1.366-2.852l-2.108.126a.155.155,0,0,1-.153-.214l2.316-5.6L143.44,148.4l-3.077,8.013a.155.155,0,0,1-.105.094Z" transform="translate(-114.802 -125.033)"/>
          <path id="Trazado_1030135" data-name="Trazado 1030135" d="M207.156,210.578a.155.155,0,0,1-.141-.22l.786-1.73a.155.155,0,0,1,.283.129l-.787,1.73a.155.155,0,0,1-.142.091" transform="translate(-174.837 -176.134)"/>
          <path id="Trazado_1030136" data-name="Trazado 1030136" d="M142.818,55.133c.579-.871,1.785-1.2,2.262-2.135a4.347,4.347,0,0,0,.119-2.384,8.956,8.956,0,0,1,1.684-6.059,7.176,7.176,0,0,1,2.148-1.965c.047.069.092.139.14.208a12.348,12.348,0,0,0,1.876,2.2l-.167.024c-.212.032-.158.383.05.371.184-.01.369-.023.553-.038a6.023,6.023,0,0,0,1.017.629,4.08,4.08,0,0,0,2.047.439,4.412,4.412,0,0,0,1.078-.209,7.687,7.687,0,0,0,1.011-.47,4.3,4.3,0,0,1,1.58,1.29,6.045,6.045,0,0,1,1.178,3.394,8.344,8.344,0,0,1-.454,3.01,11.745,11.745,0,0,1-5.579,4.743,17.611,17.611,0,0,1-5.608,1.165,8.5,8.5,0,0,1-2.681-.179,3.692,3.692,0,0,1-2.184-1.48,2.394,2.394,0,0,1-.071-2.554" transform="translate(-120.343 -35.972)"/>
          <path id="Trazado_1030137" data-name="Trazado 1030137" d="M169.817,100.765a6.231,6.231,0,0,1-.224,3.511,4.493,4.493,0,0,1-4.5,2.387,7.385,7.385,0,0,1-4.645-2.582,2.714,2.714,0,0,0-.967-.813,3.96,3.96,0,0,0-1.6,0,3.153,3.153,0,0,1-2.9-1.7,2.017,2.017,0,0,1,0-2,1.963,1.963,0,0,1,1.774-.736,5.788,5.788,0,0,1,1.909.6,1.435,1.435,0,0,1-.242-1.235,2.546,2.546,0,0,1,.647-1.116,8.221,8.221,0,0,1,3.833-2c3.118-.913,3.516-2.089,3.858-2.035s.73,1.041.883,1.322a19.953,19.953,0,0,1,2.182,6.39" transform="translate(-130.669 -78.593)" fill="#fff"/>
          <path id="Trazado_1030138" data-name="Trazado 1030138" d="M164.678,105.994q-.225,0-.452-.021a7.5,7.5,0,0,1-4.747-2.632l-.073-.082a2.342,2.342,0,0,0-.833-.69,2.261,2.261,0,0,0-1.075-.035c-.152.018-.31.037-.466.045a3.318,3.318,0,0,1-3.049-1.781,2.174,2.174,0,0,1,.01-2.153,2.124,2.124,0,0,1,1.914-.8,4.9,4.9,0,0,1,1.542.428,1.7,1.7,0,0,1-.037-.946,2.687,2.687,0,0,1,.685-1.185,8.373,8.373,0,0,1,3.9-2.042,7.8,7.8,0,0,0,3.4-1.751c.213-.191.355-.316.531-.289.327.051.592.559.881,1.167.046.1.085.179.115.234a20.005,20.005,0,0,1,2.2,6.439,6.438,6.438,0,0,1-.236,3.6,4.606,4.606,0,0,1-4.207,2.5m-6.607-3.817a1.7,1.7,0,0,1,.613.1,2.57,2.57,0,0,1,.954.773l.072.081a7.2,7.2,0,0,0,4.544,2.531,4.342,4.342,0,0,0,4.345-2.3,6.16,6.16,0,0,0,.213-3.423,19.7,19.7,0,0,0-2.165-6.34c-.032-.058-.074-.146-.123-.25-.125-.263-.457-.963-.648-.993a1.164,1.164,0,0,0-.276.214,8.182,8.182,0,0,1-3.515,1.817,8.1,8.1,0,0,0-3.762,1.956,2.383,2.383,0,0,0-.61,1.046,1.286,1.286,0,0,0,.21,1.1.155.155,0,0,1-.183.241,5.65,5.65,0,0,0-1.857-.585,1.81,1.81,0,0,0-1.634.669,1.867,1.867,0,0,0,.01,1.839,3.008,3.008,0,0,0,2.756,1.61c.145-.007.3-.025.445-.043a5.131,5.131,0,0,1,.609-.049" transform="translate(-129.819 -77.749)"/>
          <path id="Trazado_1030139" data-name="Trazado 1030139" d="M169.191,145.162a.155.155,0,0,1-.126-.064,2.1,2.1,0,0,0-1.9-.83.155.155,0,0,1-.038-.308,2.384,2.384,0,0,1,2.19.956.156.156,0,0,1-.035.217.154.154,0,0,1-.091.03" transform="translate(-141.043 -121.577)"/>
          <path id="Trazado_1030140" data-name="Trazado 1030140" d="M144.118,55.193l16.651-10.824a.73.73,0,1,0-.8-1.221L142.732,54.664a.918.918,0,0,0,1.386.53" transform="translate(-120.554 -36.34)" fill="#5479f7"/>
          <path id="Trazado_1030141" data-name="Trazado 1030141" d="M140.48,40.526l1.414-1.259s-4.683-8.111-11.874-3.469c-7.75,5-1.23,11.549-1.23,11.549Z" transform="translate(-106.612 -29.024)" fill="#5479f7"/>
          <path id="Trazado_1030142" data-name="Trazado 1030142" d="M232.287,541a1.751,1.751,0,0,0-1.132-2.2,1.8,1.8,0,0,0-.206-.051,7.157,7.157,0,0,0-.178-2.122,1.738,1.738,0,0,0,.945-2.442,1.743,1.743,0,0,0-2.351-.753,1.692,1.692,0,0,0-.182.11,7.125,7.125,0,0,0-1.622-1.375,1.746,1.746,0,1,0-3.3-1.056,7.1,7.1,0,0,0-2.116.178,1.738,1.738,0,0,0-2.435-.948,1.742,1.742,0,0,0-.641,2.539,7.124,7.124,0,0,0-1.371,1.626,1.748,1.748,0,1,0-1.258,3.255,1.724,1.724,0,0,0,.206.051,7.158,7.158,0,0,0,.178,2.122,1.716,1.716,0,0,0-.195.085,1.749,1.749,0,0,0,1.6,3.109,1.726,1.726,0,0,0,.182-.11,7.126,7.126,0,0,0,1.622,1.375,1.743,1.743,0,0,0,1.054,2.4,1.744,1.744,0,0,0,2.193-1.135,1.8,1.8,0,0,0,.051-.207,7.1,7.1,0,0,0,2.116-.178,1.745,1.745,0,1,0,3.186-1.409,1.771,1.771,0,0,0-.11-.182,7.137,7.137,0,0,0,1.371-1.626,1.733,1.733,0,0,0,2.39-1.056m-5.4-1.729a3.241,3.241,0,1,1-2.1-4.083,3.238,3.238,0,0,1,2.1,4.083m5.4,1.729a1.751,1.751,0,0,0-1.132-2.2,1.8,1.8,0,0,0-.206-.051,7.157,7.157,0,0,0-.178-2.122,1.738,1.738,0,0,0,.945-2.442,1.743,1.743,0,0,0-2.351-.753,1.692,1.692,0,0,0-.182.11,7.125,7.125,0,0,0-1.622-1.375,1.746,1.746,0,1,0-3.3-1.056,7.1,7.1,0,0,0-2.116.178,1.738,1.738,0,0,0-2.435-.948,1.742,1.742,0,0,0-.641,2.539,7.124,7.124,0,0,0-1.371,1.626,1.748,1.748,0,1,0-1.258,3.255,1.724,1.724,0,0,0,.206.051,7.158,7.158,0,0,0,.178,2.122,1.716,1.716,0,0,0-.195.085,1.749,1.749,0,0,0,1.6,3.109,1.726,1.726,0,0,0,.182-.11,7.126,7.126,0,0,0,1.622,1.375,1.743,1.743,0,0,0,1.054,2.4,1.744,1.744,0,0,0,2.193-1.135,1.8,1.8,0,0,0,.051-.207,7.1,7.1,0,0,0,2.116-.178,1.745,1.745,0,1,0,3.186-1.409,1.771,1.771,0,0,0-.11-.182,7.137,7.137,0,0,0,1.371-1.626,1.733,1.733,0,0,0,2.39-1.056" transform="translate(-181.786 -447.383)" fill="#fff"/>
          <path id="Trazado_1030143" data-name="Trazado 1030143" d="M69.264,628.043a3.423,3.423,0,0,0-2.634-4.429,14.1,14.1,0,0,0-.35-4.177,3.441,3.441,0,1,0-2.768-6.288,3.511,3.511,0,0,0-.358.216,14.028,14.028,0,0,0-3.193-2.706,3.5,3.5,0,0,0,.153-.39,3.436,3.436,0,1,0-6.644-1.688,13.982,13.982,0,0,0-4.166.35,3.466,3.466,0,0,0-.167-.384,3.436,3.436,0,1,0-5.888,3.517,14.038,14.038,0,0,0-2.7,3.2,3.487,3.487,0,0,0-.389-.154,3.443,3.443,0,1,0-1.683,6.662,14.091,14.091,0,0,0,.35,4.177,3.443,3.443,0,1,0,3.125,6.071,14.028,14.028,0,0,0,3.193,2.706,3.43,3.43,0,0,0,2.075,4.718,3.432,3.432,0,0,0,4.316-2.233,3.487,3.487,0,0,0,.1-.406,13.988,13.988,0,0,0,4.166-.35,3.436,3.436,0,1,0,6.055-3.133,14.045,14.045,0,0,0,2.7-3.2,3.411,3.411,0,0,0,4.7-2.08m-10.632-3.4a6.38,6.38,0,1,1-4.138-8.038,6.374,6.374,0,0,1,4.138,8.038" transform="translate(-30.139 -511.652)" fill="#fff"/>
          <path id="Trazado_1030144" data-name="Trazado 1030144" d="M47.431,638.917a3.6,3.6,0,0,1-3.425-4.7c.029-.09.063-.183.1-.282a14.183,14.183,0,0,1-3.024-2.562c-.09.057-.175.107-.259.15a3.586,3.586,0,0,1-4.837-1.548,3.607,3.607,0,0,1,1.543-4.849c.084-.044.174-.085.273-.125a14.245,14.245,0,0,1-.332-3.956c-.1-.023-.2-.049-.289-.078a3.6,3.6,0,0,1-.552-6.629,3.558,3.558,0,0,1,2.735-.228c.09.029.182.063.28.1a14.185,14.185,0,0,1,2.556-3.032c-.058-.091-.107-.177-.15-.26a3.608,3.608,0,0,1,1.543-4.849,3.586,3.586,0,0,1,4.837,1.548c.043.084.084.174.125.273a14.143,14.143,0,0,1,3.945-.331c.023-.1.048-.2.077-.29a3.591,3.591,0,1,1,6.841,2.189c-.029.09-.064.183-.105.282a14.175,14.175,0,0,1,3.024,2.562c.09-.057.175-.107.259-.15a3.586,3.586,0,0,1,4.837,1.548,3.607,3.607,0,0,1-1.543,4.849c-.084.043-.174.084-.273.125a14.231,14.231,0,0,1,.331,3.956c.1.023.2.049.29.078a3.6,3.6,0,0,1,.552,6.629,3.558,3.558,0,0,1-2.735.228c-.09-.029-.183-.063-.281-.1a14.193,14.193,0,0,1-2.555,3.032c.058.091.107.177.15.26a3.607,3.607,0,0,1-1.543,4.849,3.586,3.586,0,0,1-4.837-1.548c-.043-.084-.084-.174-.125-.273a14.13,14.13,0,0,1-3.945.331c-.023.1-.049.2-.077.29a3.595,3.595,0,0,1-3.416,2.506m-6.317-7.9a.155.155,0,0,1,.117.053,13.87,13.87,0,0,0,3.158,2.676.155.155,0,0,1,.06.2,3.256,3.256,0,0,0-.146.372,3.294,3.294,0,0,0,2.127,4.133,3.277,3.277,0,0,0,4.121-2.132,3.294,3.294,0,0,0,.1-.388.156.156,0,0,1,.163-.126,13.816,13.816,0,0,0,4.12-.346.155.155,0,0,1,.182.1,3.273,3.273,0,0,0,4.577,1.781,3.276,3.276,0,0,0,1.2-4.773.155.155,0,0,1,.026-.2,13.884,13.884,0,0,0,2.669-3.166.155.155,0,0,1,.2-.06,3.3,3.3,0,0,0,.371.147,3.277,3.277,0,0,0,4.121-2.132,3.3,3.3,0,0,0-2.127-4.133,3.23,3.23,0,0,0-.387-.1.155.155,0,0,1-.126-.163,13.927,13.927,0,0,0-.346-4.131.155.155,0,0,1,.1-.181,3.29,3.29,0,0,0-.144-6.215,3.25,3.25,0,0,0-2.5.211,3.283,3.283,0,0,0-.342.206.155.155,0,0,1-.2-.026,13.865,13.865,0,0,0-3.158-2.676.155.155,0,0,1-.06-.2A3.276,3.276,0,0,0,57,605.24a3.277,3.277,0,0,0-4.121,2.132,3.284,3.284,0,0,0-.1.388.155.155,0,0,1-.163.126,13.808,13.808,0,0,0-4.12.346.155.155,0,0,1-.182-.1,3.335,3.335,0,0,0-.159-.367,3.275,3.275,0,0,0-4.418-1.414,3.276,3.276,0,0,0-1.2,4.773.155.155,0,0,1-.026.2,13.884,13.884,0,0,0-2.669,3.166.155.155,0,0,1-.2.06,3.273,3.273,0,0,0-4.492,1.985,3.3,3.3,0,0,0,2.127,4.133,3.237,3.237,0,0,0,.387.1.156.156,0,0,1,.126.163,13.936,13.936,0,0,0,.346,4.131.155.155,0,0,1-.1.182,3.267,3.267,0,0,0-1.776,4.59,3.258,3.258,0,0,0,4.76,1.208.154.154,0,0,1,.087-.027M51.723,628.4a6.543,6.543,0,1,1,2.983-.73,6.533,6.533,0,0,1-2.983.73m-.016-12.8a6.232,6.232,0,0,0-5.921,4.345,6.252,6.252,0,0,0,4.037,7.843,6.219,6.219,0,0,0,7.82-4.046,6.241,6.241,0,0,0-5.937-8.141" transform="translate(-29.298 -510.803)"/>
          <path id="Trazado_1030145" data-name="Trazado 1030145" d="M220.78,565.478a1.906,1.906,0,0,1-1.813-2.485c.009-.029.02-.059.032-.09a7.3,7.3,0,0,1-1.456-1.234c-.028.016-.055.032-.082.046a1.9,1.9,0,0,1-2.56-.82,1.909,1.909,0,0,1,.817-2.566c.027-.014.055-.028.085-.041a7.309,7.309,0,0,1-.16-1.9c-.032-.008-.062-.017-.091-.026a1.907,1.907,0,0,1-.292-3.508,1.884,1.884,0,0,1,1.448-.121c.03.009.059.02.089.031a7.316,7.316,0,0,1,.813-1.047.155.155,0,0,1,.227.212,7,7,0,0,0-.846,1.111.156.156,0,0,1-.2.06,1.593,1.593,0,1,0-.958,3.012.155.155,0,0,1,.126.163,7,7,0,0,0,.174,2.076.155.155,0,0,1-.1.181,1.619,1.619,0,0,0-.177.077,1.6,1.6,0,0,0-.684,2.148,1.578,1.578,0,0,0,2.307.585.155.155,0,0,1,.2.026,6.973,6.973,0,0,0,1.587,1.345.155.155,0,0,1,.06.2,1.568,1.568,0,0,0-.071.181,1.6,1.6,0,0,0,1.031,2,1.583,1.583,0,0,0,2.044-1.222.158.158,0,0,1,.163-.126,6.947,6.947,0,0,0,2.07-.174.155.155,0,0,1,.182.1,1.646,1.646,0,0,0,.077.178,1.587,1.587,0,0,0,2.141.686,1.6,1.6,0,0,0,.684-2.148,1.637,1.637,0,0,0-.1-.166.156.156,0,0,1,.026-.2,6.97,6.97,0,0,0,1.341-1.591.155.155,0,0,1,.2-.06,1.568,1.568,0,0,0,1.391-.03,1.59,1.59,0,0,0-.432-2.983.155.155,0,0,1-.126-.163,7,7,0,0,0-.174-2.076.155.155,0,0,1,.1-.182,1.57,1.57,0,0,0,.177-.077,1.595,1.595,0,0,0-.849-3.007.155.155,0,0,1-.023-.31,1.906,1.906,0,0,1,1.015,3.593c-.027.014-.055.028-.085.041a7.309,7.309,0,0,1,.16,1.9c.032.008.062.017.091.026a1.907,1.907,0,0,1,.292,3.508,1.883,1.883,0,0,1-1.448.121c-.029-.009-.058-.02-.089-.031a7.277,7.277,0,0,1-1.23,1.459c.017.028.032.056.046.083a1.909,1.909,0,0,1-.817,2.566,1.9,1.9,0,0,1-2.56-.819c-.014-.027-.027-.056-.041-.085a7.267,7.267,0,0,1-1.9.16c-.008.031-.017.062-.026.091a1.9,1.9,0,0,1-1.808,1.326m2.18-5.344A3.407,3.407,0,0,1,221.4,553.7a3.366,3.366,0,0,1,2.587-.216,3.407,3.407,0,0,1,.522,6.27,3.373,3.373,0,0,1-1.55.379m-.008-6.5a3.088,3.088,0,0,0-2.935,2.154,3.1,3.1,0,0,0,2,3.888,3.082,3.082,0,0,0,3.876-2.006,3.094,3.094,0,0,0-2.943-4.036" transform="translate(-180.943 -465.833)"/>
        </g>
      </g>
    </g>
  </g>
</svg>
