<svg xmlns="http://www.w3.org/2000/svg" xmlns:xlink="http://www.w3.org/1999/xlink" width="150" height="150" viewBox="0 0 150 150">
  <defs>
    <clipPath id="clip-path">
      <rect id="Rectángulo_456277" data-name="Rectángulo 456277" width="150" height="150" transform="translate(-0.059 -0.059)" fill="#d35560"/>
    </clipPath>
    <clipPath id="clip-path-2">
      <rect id="Rectángulo_459900" data-name="Rectángulo 459900" width="70.366" height="70.354" fill="none"/>
    </clipPath>
  </defs>
  <g id="Grupo_1186132" data-name="Grupo 1186132" transform="translate(-413.192 -9435.133)">
    <g id="Grupo_1180081" data-name="Grupo 1180081" transform="translate(413.25 9435.191)">
      <g id="Grupo_1179924" data-name="Grupo 1179924" transform="translate(0 0)">
        <g id="Grupo_1179923" data-name="Grupo 1179923" transform="translate(0 0)" clip-path="url(#clip-path)">
          <path id="Trazado_1004716" data-name="Trazado 1004716" d="M74.59,149.181c-2.423,0-4.689-2.768-7.051-3-2.407-.235-5.167,2.037-7.5,1.574-2.367-.47-4.049-3.628-6.329-4.321-2.305-.7-5.459.985-7.662.069-2.222-.923-3.251-4.35-5.356-5.479s-5.541-.1-7.528-1.432-2.336-4.9-4.186-6.418-5.412-1.171-7.107-2.865-1.342-5.254-2.865-7.107-5.082-2.192-6.418-4.186-.3-5.41-1.432-7.527-4.556-3.135-5.48-5.356c-.916-2.2.77-5.357.07-7.662-.693-2.28-3.85-3.961-4.32-6.329C.962,86.809,3.234,84.048,3,81.642c-.231-2.363-3-4.629-3-7.052S2.768,69.9,3,67.539c.235-2.407-2.037-5.166-1.573-7.5.47-2.367,3.627-4.049,4.32-6.329.7-2.306-.985-5.459-.069-7.663.924-2.222,4.35-3.251,5.48-5.356s.1-5.54,1.432-7.528,4.9-2.336,6.418-4.186,1.171-5.412,2.866-7.107,5.254-1.342,7.107-2.865,2.192-5.082,4.186-6.418,5.41-.3,7.528-1.432,3.134-4.556,5.356-5.48c2.2-.916,5.357.77,7.663.069,2.28-.692,3.961-3.85,6.328-4.32C62.372.962,65.133,3.234,67.539,3c2.363-.231,4.629-3,7.052-3s4.689,2.768,7.051,3c2.407.235,5.167-2.037,7.5-1.574,2.367.47,4.049,3.628,6.329,4.321,2.305.7,5.459-.985,7.662-.069,2.222.923,3.251,4.35,5.356,5.48s5.541.1,7.528,1.432,2.337,4.9,4.186,6.418,5.412,1.171,7.107,2.866,1.342,5.254,2.865,7.107,5.082,2.192,6.418,4.186.3,5.41,1.432,7.528,4.556,3.135,5.479,5.356c.916,2.2-.77,5.357-.069,7.662.693,2.28,3.85,3.961,4.32,6.328.463,2.333-1.809,5.093-1.574,7.5.231,2.363,3,4.629,3,7.051s-2.768,4.689-3,7.052c-.235,2.406,2.037,5.166,1.574,7.5-.47,2.367-3.627,4.049-4.32,6.329-.7,2.305.985,5.459.069,7.662-.924,2.222-4.35,3.251-5.48,5.357s-.1,5.54-1.432,7.528-4.9,2.336-6.418,4.186-1.171,5.412-2.866,7.107-5.254,1.342-7.107,2.865-2.192,5.081-4.186,6.418-5.41.3-7.528,1.432-3.134,4.557-5.356,5.48c-2.2.916-5.357-.77-7.662-.069-2.28.692-3.961,3.85-6.328,4.32-2.333.463-5.093-1.809-7.5-1.574-2.363.231-4.629,3-7.052,3" transform="translate(0.35 0.35)" fill="#d35560"/>
          <path id="Trazado_1004717" data-name="Trazado 1004717" d="M14,81.535a67.535,67.535,0,1,1,67.535,67.535A67.535,67.535,0,0,1,14,81.535" transform="translate(-6.594 -6.594)" fill="#4d787e"/>
          <path id="Trazado_1004718" data-name="Trazado 1004718" d="M132.334,270.213c-.179-.759-.348-1.543-.509-2.312l-2.36-.3q1.057-.562,2.072-1.13-.225-1.156-.423-2.309c.54.53,1.093,1.077,1.663,1.6q.994-.618,1.945-1.239-.422,1.09-.87,2.178c.589.505,1.191,1.019,1.808,1.521l-2.372-.177q-.464,1.087-.955,2.171" transform="translate(-63.866 -130.676)" fill="#ffffc5"/>
          <path id="Trazado_1004719" data-name="Trazado 1004719" d="M113.789,266.762c-.064-.775-.113-1.577-.157-2.361l-2.288-.652q1.129-.4,2.219-.806-.049-1.177-.072-2.347c.455.6.919,1.229,1.4,1.829q1.075-.461,2.108-.932-.58,1.014-1.185,2.022c.507.586,1.024,1.192,1.561,1.772-.776-.161-1.546-.353-2.319-.528q-.621,1-1.269,2" transform="translate(-54.878 -128.909)" fill="#ffffc5"/>
          <path id="Trazado_1004720" data-name="Trazado 1004720" d="M96.012,260.643c.058-.789.127-1.579.2-2.363l-2.166-.983c.783-.146,1.556-.305,2.315-.467q.129-1.169.28-2.329c.358.667.728,1.343,1.113,2.021q1.132-.3,2.225-.608-.726.916-1.477,1.822c.413.657.836,1.325,1.277,1.987l-2.214-.87q-.766.9-1.556,1.79" transform="translate(-46.299 -125.885)" fill="#ffffc5"/>
          <path id="Trazado_1004721" data-name="Trazado 1004721" d="M79.414,251.99q.265-1.159.551-2.3c-.663-.434-1.344-.843-1.993-1.3.783-.008,1.584-.069,2.356-.112q.3-1.136.623-2.258.384,1.067.8,2.159c.766-.066,1.54-.171,2.29-.266q-.856.8-1.734,1.584.466,1.066.968,2.153l-2.062-1.187c-.594.517-1.2,1.036-1.8,1.531" transform="translate(-38.325 -121.677)" fill="#ffffc5"/>
          <path id="Trazado_1004722" data-name="Trazado 1004722" d="M64.353,241.022q.432-1.105.885-2.194c-.593-.526-1.215-1.021-1.777-1.582.769.115,1.567.177,2.343.242q.464-1.078.948-2.139.225,1.109.481,2.247c.755.064,1.543.065,2.3.082q-.965.664-1.952,1.311.3,1.12.643,2.265l-1.87-1.471c-.669.429-1.327.83-2,1.238" transform="translate(-31.127 -116.386)" fill="#ffffc5"/>
          <path id="Trazado_1004723" data-name="Trazado 1004723" d="M51.149,227.995q.589-1.028,1.2-2.037l-.779-.9c-.258-.3-.494-.62-.741-.929l1.128.317,1.149.273q.617-1,1.25-1.973.063,1.127.152,2.286l1.121.234,1.138.191q-1.055.516-2.127,1.012.14,1.148.309,2.327c-.545-.576-1.1-1.142-1.635-1.727q-1.07.473-2.159.926" transform="translate(-24.859 -110.134)" fill="#ffffc5"/>
          <path id="Trazado_1004724" data-name="Trazado 1004724" d="M39.841,213.191q.733-.928,1.481-1.835c-.212-.336-.434-.664-.637-1l-.594-1.031c.724.322,1.417.646,2.16.923.507-.6,1.006-1.179,1.532-1.767-.079.754-.131,1.508-.186,2.282.723.269,1.425.535,2.166.758-.746.236-1.5.467-2.255.686-.022.772-.029,1.551-.032,2.344-.451-.652-.939-1.279-1.359-1.952q-1.13.31-2.275.6" transform="translate(-19.411 -103.056)" fill="#ffffc5"/>
          <path id="Trazado_1004725" data-name="Trazado 1004725" d="M30.615,196.931q.862-.808,1.735-1.593c-.343-.716-.614-1.462-.909-2.2.671.425,1.309.848,1.992,1.237.582-.511,1.181-1.02,1.787-1.522-.212.742-.356,1.472-.529,2.229.683.37,1.327.742,2.024,1.074-.778.124-1.554.238-2.322.338-.159.771-.262,1.529-.386,2.314-.358-.707-.739-1.4-1.051-2.133q-1.165.138-2.342.253" transform="translate(-14.835 -95.309)" fill="#ffffc5"/>
          <path id="Trazado_1004726" data-name="Trazado 1004726" d="M24.019,179.289q.973-.669,1.952-1.313c-.235-.758-.377-1.54-.566-2.31.6.522,1.176,1.033,1.781,1.524.651-.417,1.333-.834,2-1.237-.326.7-.579,1.4-.86,2.124.617.469,1.213.929,1.836,1.366-.791.008-1.557,0-2.34-.016-.284.741-.492,1.474-.731,2.231-.259-.75-.515-1.5-.717-2.268q-1.174-.038-2.355-.1" transform="translate(-11.564 -86.782)" fill="#ffffc5"/>
          <path id="Trazado_1004727" data-name="Trazado 1004727" d="M20.215,160.664q1.062-.516,2.127-1.005c-.119-.785-.143-1.579-.214-2.369.513.605,1.005,1.2,1.532,1.774.706-.315,1.441-.624,2.164-.924-.429.647-.781,1.3-1.168,1.972.539.556,1.062,1.1,1.608,1.627-.781-.112-1.537-.237-2.309-.368-.392.69-.711,1.384-1.058,2.1l-.21-1.171c-.066-.391-.1-.786-.158-1.179q-1.155-.214-2.313-.453" transform="translate(-9.677 -77.667)" fill="#ffffc5"/>
          <path id="Trazado_1004728" data-name="Trazado 1004728" d="M19.269,141.764q1.128-.352,2.255-.679c0-.793.074-1.584.135-2.374.421.674.8,1.333,1.259,1.981.751-.207,1.5-.406,2.266-.595-.5.578-.959,1.172-1.441,1.779.453.63.873,1.246,1.353,1.848q-1.134-.34-2.237-.706c-.483.624-.9,1.263-1.353,1.915-.018-.792-.055-1.585-.018-2.378q-1.109-.382-2.218-.79" transform="translate(-9.207 -68.451)" fill="#ffffc5"/>
          <path id="Trazado_1004729" data-name="Trazado 1004729" d="M21.174,123q1.169-.181,2.333-.336c.074-.39.132-.783.218-1.169l.268-1.159c.312.729.595,1.437.951,2.146.778-.092,1.538-.178,2.325-.25-.574.5-1.122,1.015-1.688,1.543.353.69.672,1.36,1.067,2.028-.706-.335-1.426-.681-2.114-1.031-.553.548-1.077,1.115-1.619,1.694.111-.785.174-1.577.333-2.355q-1.039-.543-2.074-1.112" transform="translate(-10.152 -59.337)" fill="#ffffc5"/>
          <path id="Trazado_1004730" data-name="Trazado 1004730" d="M25.928,104.79q1.182,0,2.357.018c.239-.757.539-1.491.832-2.228.2.769.37,1.51.616,2.264.779.025,1.552.056,2.341.1-.65.4-1.263.834-1.9,1.271.247.736.46,1.445.75,2.165-.649-.438-1.3-.887-1.934-1.337-.633.458-1.233.941-1.857,1.432.226-.761.412-1.533.684-2.279q-.946-.692-1.884-1.411" transform="translate(-12.51 -50.53)" fill="#ffffc5"/>
          <path id="Trazado_1004731" data-name="Trazado 1004731" d="M33.429,87.557q1.169.173,2.325.37c.346-.714.77-1.386,1.158-2.077.083.789.155,1.557.267,2.329.761.139,1.54.3,2.306.457-.718.293-1.376.634-2.077.969.134.765.248,1.5.414,2.252-.582-.533-1.146-1.067-1.705-1.608-.709.35-1.361.744-2.054,1.134.327-.722.644-1.45,1.02-2.149q-.833-.827-1.654-1.678" transform="translate(-16.231 -42.232)" fill="#ffffc5"/>
          <path id="Trazado_1004732" data-name="Trazado 1004732" d="M43.489,71.68q1.128.345,2.241.71c.461-.645.972-1.253,1.456-1.881q-.054,1.188-.083,2.343,1.117.389,2.219.8c-.749.187-1.473.41-2.2.647q.023,1.16.07,2.287-.728-.91-1.438-1.839c-.753.241-1.471.524-2.2.813l.643-1,.688-.97q-.7-.943-1.388-1.908" transform="translate(-21.221 -34.623)" fill="#ffffc5"/>
          <path id="Trazado_1004733" data-name="Trazado 1004733" d="M55.356,57.5q1.064.506,2.109,1.031l1.72-1.643q-.226,1.17-.421,2.312,1.046.548,2.073,1.115c-.759.084-1.53.176-2.278.31Q58.413,61.78,58.3,62.9q-.585-1.008-1.152-2.034l-1.161.215c-.384.079-.76.17-1.144.259.508-.61,1.064-1.175,1.611-1.75q-.556-1.038-1.094-2.095" transform="translate(-26.851 -27.867)" fill="#ffffc5"/>
          <path id="Trazado_1004734" data-name="Trazado 1004734" d="M69.217,45.319c.65.436,1.293.879,1.939,1.34l1.938-1.379q-.394,1.129-.753,2.233.952.7,1.883,1.406c-.754-.018-1.544-.058-2.3-.035q-.311,1.124-.59,2.223-.431-1.084-.841-2.184c-.774.032-1.582.045-2.354.123.592-.529,1.238-.991,1.854-1.49q-.4-1.111-.775-2.237" transform="translate(-33.447 -22.109)" fill="#ffffc5"/>
          <path id="Trazado_1004735" data-name="Trazado 1004735" d="M84.831,34.886c.578.528,1.158,1.078,1.724,1.623l2.117-1.086q-.555,1.061-1.073,2.1.838.828,1.652,1.667c-.745-.133-1.508-.269-2.274-.382q-.473,1.07-.908,2.119-.266-1.138-.51-2.288c-.77-.084-1.562-.176-2.349-.232.677-.412,1.372-.8,2.057-1.2q-.23-1.158-.436-2.33" transform="translate(-40.923 -16.954)" fill="#ffffc5"/>
          <path id="Trazado_1004736" data-name="Trazado 1004736" d="M101.868,26.946q.744.928,1.463,1.866c.752-.251,1.5-.517,2.255-.756-.476.632-.93,1.284-1.376,1.919q.7.943,1.382,1.893-1.075-.365-2.191-.718c-.421.651-.822,1.313-1.214,1.961q-.094-1.166-.163-2.342-1.124-.3-2.289-.582l2.213-.874c-.035-.785-.066-1.583-.081-2.367" transform="translate(-49.12 -13.015)" fill="#ffffc5"/>
          <path id="Trazado_1004737" data-name="Trazado 1004737" d="M119.95,21.733q.6,1.029,1.166,2.064c.781-.136,1.56-.289,2.344-.41-.566.55-1.113,1.13-1.649,1.69q.554,1.037,1.082,2.079-1.008-.522-2.058-1.037c-.516.571-1.01,1.175-1.494,1.755q.082-1.167.19-2.341-1.066-.463-2.174-.916l2.318-.536c.083-.782.173-1.578.276-2.349" transform="translate(-57.86 -10.43)" fill="#ffffc5"/>
          <path id="Trazado_1004738" data-name="Trazado 1004738" d="M138.658,19.35q.436,1.108.845,2.216l2.378-.059q-.962.715-1.882,1.43.394,1.11.761,2.219-.92-.668-1.882-1.336c-.595.5-1.175,1.012-1.741,1.515q.256-1.142.539-2.285-.986-.619-2.013-1.234l2.372-.18c.2-.761.407-1.532.623-2.286" transform="translate(-66.94 -9.248)" fill="#ffffc5"/>
          <path id="Trazado_1004739" data-name="Trazado 1004739" d="M157.568,19.831c.179.759.348,1.543.509,2.312l2.36.3q-1.057.562-2.072,1.13.224,1.156.423,2.309c-.54-.53-1.093-1.077-1.662-1.6q-.994.618-1.945,1.239.422-1.09.87-2.178c-.589-.505-1.191-1.02-1.808-1.521l2.372.177q.464-1.087.955-2.171" transform="translate(-76.155 -9.486)" fill="#ffffc5"/>
          <path id="Trazado_1004740" data-name="Trazado 1004740" d="M176.272,23.17c.064.775.113,1.577.157,2.361l2.288.652q-1.129.4-2.219.806.049,1.177.072,2.347c-.455-.6-.918-1.229-1.4-1.829q-1.075.461-2.108.932.58-1.014,1.185-2.022c-.506-.586-1.024-1.192-1.561-1.771.776.161,1.546.352,2.319.527q.622-1,1.269-2" transform="translate(-85.303 -11.142)" fill="#ffffc5"/>
          <path id="Trazado_1004741" data-name="Trazado 1004741" d="M194.147,29.313c-.058.789-.126,1.578-.2,2.363l2.166.983c-.783.147-1.556.306-2.315.467q-.128,1.169-.28,2.329c-.358-.667-.728-1.343-1.113-2.021q-1.132.3-2.225.608.726-.916,1.476-1.822c-.412-.657-.836-1.325-1.277-1.987l2.214.87q.766-.9,1.556-1.79" transform="translate(-93.98 -14.189)" fill="#ffffc5"/>
          <path id="Trazado_1004742" data-name="Trazado 1004742" d="M210.61,38.133q-.265,1.159-.551,2.3c.663.434,1.344.843,1.993,1.3-.783.008-1.584.069-2.356.112q-.3,1.136-.623,2.258-.384-1.067-.8-2.159c-.766.066-1.54.171-2.29.266q.856-.8,1.734-1.584-.466-1.066-.968-2.153l2.062,1.187c.594-.517,1.2-1.036,1.8-1.531" transform="translate(-101.818 -18.564)" fill="#ffffc5"/>
          <path id="Trazado_1004743" data-name="Trazado 1004743" d="M225.67,49.168q-.432,1.105-.884,2.194c.593.526,1.215,1.021,1.777,1.582-.769-.115-1.567-.177-2.343-.242q-.464,1.078-.948,2.139-.225-1.109-.481-2.246c-.755-.064-1.543-.065-2.3-.082q.966-.664,1.952-1.311-.3-1.12-.643-2.264l1.87,1.47c.669-.429,1.326-.83,2-1.238" transform="translate(-109.015 -23.922)" fill="#ffffc5"/>
          <path id="Trazado_1004744" data-name="Trazado 1004744" d="M239.007,62.051q-.589,1.028-1.2,2.037l.779.9c.258.3.493.62.742.929L238.2,65.6l-1.149-.273q-.617,1-1.25,1.973-.063-1.127-.152-2.286l-1.121-.234-1.137-.191q1.055-.516,2.127-1.012-.14-1.148-.309-2.327c.545.576,1.1,1.142,1.635,1.727q1.071-.473,2.159-.926" transform="translate(-115.416 -30.03)" fill="#ffffc5"/>
          <path id="Trazado_1004745" data-name="Trazado 1004745" d="M250.33,76.837q-.733.928-1.481,1.835c.211.335.434.664.636,1l.594,1.031c-.724-.322-1.417-.646-2.16-.923-.507.6-1.006,1.179-1.532,1.767.079-.754.131-1.508.186-2.282-.723-.269-1.425-.535-2.166-.757.746-.236,1.5-.467,2.255-.686.022-.772.03-1.55.032-2.343.451.652.939,1.279,1.359,1.952q1.13-.31,2.275-.6" transform="translate(-120.879 -37.09)" fill="#ffffc5"/>
          <path id="Trazado_1004746" data-name="Trazado 1004746" d="M259.38,93.209q-.862.808-1.735,1.593c.343.716.614,1.462.909,2.2-.671-.425-1.309-.848-1.992-1.237-.582.511-1.181,1.02-1.787,1.522.212-.742.356-1.472.529-2.229-.683-.37-1.327-.742-2.024-1.074.778-.124,1.554-.238,2.322-.338.159-.771.262-1.529.385-2.314.358.708.739,1.4,1.051,2.134q1.165-.138,2.342-.253" transform="translate(-125.279 -44.949)" fill="#ffffc5"/>
          <path id="Trazado_1004747" data-name="Trazado 1004747" d="M265.935,110.814q-.973.67-1.952,1.313c.235.758.377,1.54.566,2.31-.6-.521-1.176-1.033-1.781-1.524-.651.417-1.333.834-2,1.237.327-.7.579-1.4.86-2.124-.617-.469-1.213-.929-1.836-1.366.791-.007,1.557,0,2.34.016.284-.741.492-1.474.731-2.231.259.75.515,1.5.717,2.268q1.174.038,2.355.1" transform="translate(-128.509 -53.44)" fill="#ffffc5"/>
          <path id="Trazado_1004748" data-name="Trazado 1004748" d="M269.832,129.258q-1.062.516-2.127,1.005c.119.785.143,1.579.214,2.369-.513-.605-1.005-1.2-1.532-1.774-.706.315-1.441.624-2.164.924.429-.647.781-1.3,1.168-1.972-.539-.556-1.062-1.1-1.608-1.627.781.112,1.537.237,2.309.367.392-.69.711-1.383,1.058-2.1l.21,1.171c.066.391.1.786.158,1.179q1.155.214,2.313.453" transform="translate(-130.489 -62.373)" fill="#ffffc5"/>
          <path id="Trazado_1004749" data-name="Trazado 1004749" d="M270.909,148.113q-1.128.352-2.255.679c0,.793-.074,1.584-.135,2.374-.421-.674-.8-1.333-1.259-1.981-.751.207-1.5.406-2.266.595.5-.578.959-1.172,1.441-1.779-.453-.63-.873-1.246-1.353-1.848q1.134.34,2.237.706c.483-.624.9-1.263,1.353-1.915.018.793.055,1.585.018,2.378q1.109.383,2.218.79" transform="translate(-131.09 -71.544)" fill="#ffffc5"/>
          <path id="Trazado_1004750" data-name="Trazado 1004750" d="M268.826,166.968q-1.17.181-2.334.336c-.074.39-.132.783-.218,1.169l-.268,1.159c-.312-.729-.595-1.437-.951-2.146-.778.092-1.538.178-2.326.25.574-.5,1.122-1.015,1.689-1.543-.353-.69-.672-1.36-1.067-2.028.706.335,1.426.681,2.114,1.031.553-.548,1.077-1.115,1.619-1.694-.111.785-.174,1.577-.333,2.355q1.039.542,2.074,1.111" transform="translate(-129.966 -80.748)" fill="#ffffc5"/>
          <path id="Trazado_1004751" data-name="Trazado 1004751" d="M264.024,185.4q-1.182,0-2.357-.018c-.24.757-.539,1.491-.832,2.228-.2-.769-.37-1.51-.616-2.264-.779-.025-1.552-.056-2.341-.1.65-.4,1.263-.834,1.9-1.271-.247-.735-.46-1.445-.75-2.165.649.437,1.3.886,1.934,1.337.633-.458,1.233-.941,1.857-1.431-.226.76-.412,1.532-.684,2.278q.946.692,1.884,1.411" transform="translate(-127.56 -89.783)" fill="#ffffc5"/>
          <path id="Trazado_1004752" data-name="Trazado 1004752" d="M256.61,202.53q-1.169-.173-2.325-.37c-.346.714-.77,1.386-1.158,2.077-.083-.789-.155-1.557-.267-2.329-.761-.139-1.54-.3-2.306-.457.718-.293,1.376-.635,2.077-.969-.134-.765-.248-1.5-.414-2.252.583.533,1.146,1.067,1.705,1.608.71-.35,1.361-.744,2.054-1.135-.327.722-.644,1.45-1.02,2.149q.832.827,1.654,1.678" transform="translate(-123.928 -97.974)" fill="#ffffc5"/>
          <path id="Trazado_1004753" data-name="Trazado 1004753" d="M246.77,218.341q-1.128-.344-2.241-.71c-.461.645-.972,1.253-1.456,1.881q.054-1.188.083-2.343-1.117-.389-2.219-.8c.749-.187,1.473-.41,2.2-.647q-.023-1.16-.07-2.287.728.91,1.438,1.839c.753-.241,1.471-.524,2.2-.813l-.643,1-.688.97q.7.943,1.388,1.908" transform="translate(-119.158 -105.517)" fill="#ffffc5"/>
          <path id="Trazado_1004754" data-name="Trazado 1004754" d="M234.741,232.58q-1.064-.506-2.109-1.031l-1.72,1.643q.226-1.17.421-2.312-1.046-.548-2.073-1.115c.759-.084,1.53-.176,2.278-.31q.146-1.154.263-2.279.585,1.007,1.152,2.034l1.161-.215c.384-.079.76-.17,1.144-.259-.508.61-1.064,1.175-1.611,1.75q.556,1.038,1.094,2.095" transform="translate(-113.365 -112.331)" fill="#ffffc5"/>
          <path id="Trazado_1004755" data-name="Trazado 1004755" d="M220.791,244.946c-.65-.436-1.293-.879-1.939-1.34l-1.938,1.379q.393-1.129.753-2.233-.952-.7-1.883-1.406c.754.018,1.544.058,2.3.035q.311-1.125.59-2.223.431,1.084.842,2.184c.774-.032,1.581-.045,2.353-.124-.591.529-1.238.991-1.854,1.49q.4,1.111.775,2.237" transform="translate(-106.68 -118.275)" fill="#ffffc5"/>
          <path id="Trazado_1004756" data-name="Trazado 1004756" d="M205.223,255.164c-.578-.528-1.158-1.078-1.724-1.622l-2.117,1.086q.555-1.061,1.072-2.1-.838-.829-1.652-1.668c.745.133,1.508.269,2.274.382q.472-1.069.908-2.119.266,1.139.51,2.289c.77.083,1.562.175,2.349.231-.677.413-1.371.8-2.057,1.2q.23,1.157.436,2.329" transform="translate(-99.25 -123.215)" fill="#ffffc5"/>
          <path id="Trazado_1004757" data-name="Trazado 1004757" d="M188.367,262.987q-.744-.928-1.463-1.866c-.752.251-1.5.517-2.255.756.476-.632.931-1.284,1.376-1.919q-.7-.943-1.382-1.894,1.075.365,2.191.718c.421-.651.822-1.313,1.214-1.961q.094,1.166.163,2.342,1.124.3,2.289.582l-2.213.874c.035.785.066,1.583.081,2.367" transform="translate(-91.235 -127.036)" fill="#ffffc5"/>
          <path id="Trazado_1004758" data-name="Trazado 1004758" d="M170.042,268.223q-.6-1.029-1.166-2.064c-.781.136-1.56.289-2.344.41.566-.55,1.113-1.13,1.649-1.69q-.554-1.037-1.082-2.079,1.008.522,2.058,1.037c.516-.571,1.01-1.175,1.495-1.755q-.082,1.167-.191,2.341,1.066.463,2.174.916l-2.318.536c-.083.782-.172,1.578-.276,2.349" transform="translate(-82.252 -129.645)" fill="#ffffc5"/>
          <path id="Trazado_1004759" data-name="Trazado 1004759" d="M151.223,270.76q-.435-1.108-.845-2.216L148,268.6q.962-.715,1.882-1.431-.394-1.109-.761-2.219.92.668,1.882,1.336c.595-.5,1.175-1.012,1.741-1.515q-.256,1.142-.539,2.285.986.618,2.013,1.233l-2.372.181c-.2.76-.407,1.532-.623,2.285" transform="translate(-73.059 -130.981)" fill="#ffffc5"/>
          <path id="Trazado_1004760" data-name="Trazado 1004760" d="M92.062,148.9A56.837,56.837,0,1,1,148.9,92.062,56.9,56.9,0,0,1,92.062,148.9" transform="translate(-17.122 -17.122)" fill="#d35560"/>
        </g>
      </g>
      <g id="Grupo_1180053" data-name="Grupo 1180053" transform="translate(39.422 38.995)">
        <rect id="Rectángulo_401104" data-name="Rectángulo 401104" width="71.038" height="71.894" transform="translate(0)" fill="#d35560"/>
      </g>
    </g>
    <g id="Grupo_1187636" data-name="Grupo 1187636" transform="translate(453.009 9474.956)">
      <g id="Grupo_1187636-2" data-name="Grupo 1187636" clip-path="url(#clip-path-2)">
        <path id="Trazado_1031752" data-name="Trazado 1031752" d="M59.312.192q.258.485-.012.27L69.66,10.835l.561.278a2.563,2.563,0,0,1,.14.8l-.005,22.046a1.168,1.168,0,0,1-1.172,1.2l-3.521.023a7.05,7.05,0,0,1-6.324,7.025L70.365,64.253l-.017,4.918a1.163,1.163,0,0,1-1.217,1.182H1.231a1.17,1.17,0,0,1-1.216-1.18L0,64.254,11.024,42.206A7.04,7.04,0,0,1,4.7,35.186l-3.519-.021A1.185,1.185,0,0,1,.007,33.973V19.937a1.139,1.139,0,0,1,1.171-1.175l4.687-.013L5.873,3.521a1.13,1.13,0,0,1,1.2-1.176l37.447,0a1.134,1.134,0,0,1,1.2,1.178l.008,15.211,2.343,0,0-17.552A1.14,1.14,0,0,1,49.261,0h9.375a1.318,1.318,0,0,1,.676.192" transform="translate(0.001)" fill="#040504"/>
        <path id="Trazado_1031753" data-name="Trazado 1031753" d="M108.779,195.258c-.146.621-2.106.594-2.306,0q-.482.067-.477-.871h-1.363a.91.91,0,0,1-.544.713c-.1.63-2.065.738-2.307.159q-.5.068-.466-.876a48.176,48.176,0,0,0-5.789.1.737.737,0,0,0-.4.579l-.037,3.555-.56.464-16.116,0-.493-.518-.009-8.116c.24-1.024-3.507-.866-3.866-.746q.033.6-.45.69c-.1.63-2.061.74-2.3.16q-.483-.064-.481-.846l-1.491.025c.022.356,0,.579-.418.661-.144.621-2.1.6-2.3,0l-.045-1.079-2.756.016,1.331-2.673a7.072,7.072,0,0,0,4.97-6.726l32.823,0a7.079,7.079,0,0,0,4.989,6.734l3.674,7.335-2.776,0Z" transform="translate(-51.337 -144.759)" fill="#4c773b"/>
        <path id="Trazado_1031754" data-name="Trazado 1031754" d="M30.207,233.425q.532-.065.434.872l1.516,0q-.058-.633.439-.709l2.3-.16q.48-.054.489.876a6.37,6.37,0,0,1,2.021.147l.243.39q-.113,4.318.165,8.546l.678.3,28.99,0,.44.148a5.356,5.356,0,0,1,.224,2.175q.629-.084.711.425c.621.153.584,2.118-.012,2.318l-1.082.034-.05,2.328-52.01,0L23.911,234.7l3.945-.014.049-1.263Z" transform="translate(-12.635 -187.802)" fill="#68a652"/>
        <path id="Trazado_1031755" data-name="Trazado 1031755" d="M77.816,338.261H12.246v-2.338H77.822Z" transform="translate(-9.852 -270.271)" fill="#284920"/>
        <path id="Trazado_1031756" data-name="Trazado 1031756" d="M239.191,257.58q.483.067.477.851,1.6.246,1.508-.458l.4-.235h2.306l.044,1.083,3.978.055,5.831,11.677-9.818-.007-.022-2.326-1.245-.027.012-2.319q.072-.522.848-.431c.086-.181.179-3.786-.471-3.825l-10.61-.063c-.931-.182-.938-2.911-.021-3.112l4.018-.006q-.014-.61.459-.7Z" transform="translate(-186.439 -207.24)" fill="#3a5b2a"/>
        <path id="Trazado_1031757" data-name="Trazado 1031757" d="M142.1,233.868l-.046,1.089-4.656.007.012,2.329,10.523,0a1.151,1.151,0,0,1,1.176,1.171l.009,3.507-1.24.028-1.1-.041-.039-2.316-29.253,0a1.157,1.157,0,0,1-1.2-1.183l-.012-8.186-2.317-.019-.045-1.263.047-1.081,3.49,0a1.163,1.163,0,0,1,1.169,1.181l.01,8.2h16.4l.02-3.514a1.161,1.161,0,0,1,1.172-1.178l5.831,0Z" transform="translate(-91.651 -183.369)" fill="#040504"/>
        <path id="Trazado_1031758" data-name="Trazado 1031758" d="M92.3,229.169l-.048,1.1-2.3,0-.044-1.263.043-1.077h2.3Z" transform="translate(-72.341 -183.386)" fill="#050606"/>
        <path id="Trazado_1031759" data-name="Trazado 1031759" d="M272.309,253.193l-.042,1.089-2.306-.007-.037-1.24.039-1.1h2.307Z" transform="translate(-217.172 -202.695)" fill="#040505"/>
        <path id="Trazado_1031760" data-name="Trazado 1031760" d="M313.424,11.9c-.306.174-.462.106-.7-.134L302.3,1.333c-.084-.085.076-.346.214-.349Z" transform="translate(-243.202 -0.792)" fill="#080909"/>
        <path id="Trazado_1031761" data-name="Trazado 1031761" d="M62.843,22.149a2.742,2.742,0,0,0-.4,1.079l-.006,14.059c0,.472.5,1.244,1.03,1.25l12.188.071q0,11.36,0,11.36l-.479.206a.528.528,0,0,1-.413-.384,7.034,7.034,0,0,0-13.1.408H28.034a7.04,7.04,0,0,0-13.251-.036,20.816,20.816,0,0,1-2.766-.006V38.47l46.678.007c.595,0,1.478-.4,1.483-1.052l.027-15.465c.561-.508,2.222-.544,2.636.189" transform="translate(-9.668 -17.368)" fill="#3d8fcf"/>
        <path id="Trazado_1031762" data-name="Trazado 1031762" d="M152.166,23.972l.39.183-.082,9.253a2.711,2.711,0,0,1-2.734,2.643l-11.481-.068-.233-.392-.012-11.638,4.689,0,.006,5.851a1.18,1.18,0,0,0,1.177,1.18l4.679,0a1.154,1.154,0,0,0,1.17-1.175l.011-5.841Z" transform="translate(-111.041 -19.271)" fill="#b27749"/>
        <path id="Trazado_1031763" data-name="Trazado 1031763" d="M138.077,35.661l11.707.069a2.377,2.377,0,0,0,2.361-2.524l.072-9.164,2.266,0V38.094l-16.391,0Z" transform="translate(-111.092 -19.341)" fill="#9d6643"/>
        <path id="Trazado_1031764" data-name="Trazado 1031764" d="M80.384,28.636l-2.355.017V23.992l2.344,0Z" transform="translate(-62.78 -19.303)" fill="#e3e5e4"/>
        <path id="Trazado_1031765" data-name="Trazado 1031765" d="M176.384,28.636l-2.355.017V23.992l2.344,0Z" transform="translate(-140.018 -19.303)" fill="#e3e5e4"/>
        <path id="Trazado_1031766" data-name="Trazado 1031766" d="M56.174,23.945l.389.184-.079,9.12c-.25,1.883-1.083,2.581-2.934,2.8l-11.3-.094-.228-.393-.013-11.642,4.688-.005.006,5.858a1.19,1.19,0,0,0,1.178,1.188l4.675-.01a1.152,1.152,0,0,0,1.173-1.177l.011-5.843Z" transform="translate(-33.802 -19.239)" fill="#92613f"/>
        <path id="Trazado_1031767" data-name="Trazado 1031767" d="M42,35.648l11.518.1a2.453,2.453,0,0,0,2.553-2.555l.077-9.155,2.258-.011V38.075l-16.39,0c-.071-.85-.01-1.6-.015-2.426" transform="translate(-33.776 -19.327)" fill="#80543a"/>
        <path id="Trazado_1031768" data-name="Trazado 1031768" d="M286.993,119.669a1.911,1.911,0,0,0,.155-.766l.011-10.742-11.873-.129,14.215-.068v11.707Z" transform="translate(-221.486 -86.864)" fill="#3687bd"/>
        <path id="Trazado_1031769" data-name="Trazado 1031769" d="M260.777,14.309a10.007,10.007,0,0,0-2.537-.079l-.127,15.355-.082-17.717,7.653-.025,2.359,2.336h-5.721c-.551,0-1.125.189-1.545.129" transform="translate(-207.603 -9.528)" fill="#3688be"/>
        <path id="Trazado_1031770" data-name="Trazado 1031770" d="M291.04,37.278c.374.5-.868,1.816-1.416,1.542l.143.405L282.436,46.3,282,46.182l.007-6.385a5.948,5.948,0,0,1,1.948-2.5,3.88,3.88,0,0,1,1.968-1.412l3.707-.017a6.585,6.585,0,0,1,1.412,1.408" transform="translate(-226.886 -28.86)" fill="#e7e7e7"/>
        <path id="Trazado_1031771" data-name="Trazado 1031771" d="M302.879,53.43c.095.118.227.3.165.392-.341.491-1.483,1.787-2.034,1.547l-.325.869-3.623,3.568a2.139,2.139,0,0,1-1.172.606l-3.075,0c-.434-.258-.245-.53.077-.835l6.6-6.548.441.113c-.35-.507.87-1.619,1.375-1.294a8.471,8.471,0,0,1,1.575,1.584" transform="translate(-235.385 -41.666)" fill="#d8d7d7"/>
        <path id="Trazado_1031772" data-name="Trazado 1031772" d="M291.43,52.266l-6.512,6.467a1.812,1.812,0,0,0-.6.8l-2.291-.009L282,58.115l7.626-7.362c.6-.324,1.587.972,1.806,1.513" transform="translate(-226.886 -40.793)" fill="#9dc1d3"/>
        <path id="Trazado_1031773" data-name="Trazado 1031773" d="M333.812,67.164c-.152-.041-.379-.107-.39-.225a25.5,25.5,0,0,1,.02-3.713,2.635,2.635,0,0,1,.4-1.1l1.869-1.939a.772.772,0,0,1,.524.728l0,6.239Z" transform="translate(-268.214 -48.428)" fill="#8bb0c0"/>
        <path id="Trazado_1031774" data-name="Trazado 1031774" d="M314.683,75.147l-5.094.011,5.121-5.043Z" transform="translate(-249.085 -56.411)" fill="#9dc1d3"/>
        <path id="Trazado_1031775" data-name="Trazado 1031775" d="M285.951,35.958l-3.916,3.91,0-3.908Z" transform="translate(-226.916 -28.931)" fill="#9dc1d3"/>
        <path id="Trazado_1031776" data-name="Trazado 1031776" d="M324.2,44.834l-1.375,1.294a1.154,1.154,0,0,1-.742-.431l-1.064-1.082,1.416-1.542a11.069,11.069,0,0,1,1.765,1.762" transform="translate(-258.281 -34.654)" fill="#8bb0c0"/>
        <path id="Trazado_1031777" data-name="Trazado 1031777" d="M39.768,156.086a4.678,4.678,0,1,1-3.569,5.7,4.659,4.659,0,0,1,3.569-5.7" transform="translate(-29.014 -125.494)" fill="#4f4f4f"/>
        <path id="Trazado_1031778" data-name="Trazado 1031778" d="M44.789,162.06a3.51,3.51,0,1,1-2.594,4.354,3.486,3.486,0,0,1,2.594-4.354" transform="translate(-33.847 -130.313)" fill="#040505"/>
        <path id="Trazado_1031779" data-name="Trazado 1031779" d="M54.88,174.143a1.319,1.319,0,0,1,1.457.687,1.156,1.156,0,0,1-2.111.932,1.125,1.125,0,0,1,.654-1.619" transform="translate(-43.52 -140.071)" fill="#dee1e0"/>
        <path id="Trazado_1031780" data-name="Trazado 1031780" d="M279.765,156.078a4.678,4.678,0,1,1-3.569,5.7,4.66,4.66,0,0,1,3.569-5.7" transform="translate(-222.107 -125.487)" fill="#4f4f4f"/>
        <path id="Trazado_1031781" data-name="Trazado 1031781" d="M284.789,162.065a3.507,3.507,0,1,1-2.6,4.352,3.479,3.479,0,0,1,2.6-4.352" transform="translate(-226.942 -130.316)" fill="#040505"/>
        <path id="Trazado_1031782" data-name="Trazado 1031782" d="M294.872,174.145a1.318,1.318,0,0,1,1.457.686,1.154,1.154,0,0,1-2.108.931,1.119,1.119,0,0,1,.651-1.617" transform="translate(-236.608 -140.072)" fill="#dee1e0"/>
      </g>
    </g>
  </g>
</svg>
