<svg xmlns="http://www.w3.org/2000/svg" width="84" height="84" viewBox="0 0 84 84">
  <g id="Grupo_1180374" data-name="Grupo 1180374" transform="translate(-527.711 -4568)">
    <rect id="Rectángulo_456492" data-name="Rectángulo 456492" width="84" height="84" rx="10" transform="translate(527.711 4568)" fill="#a2cbcf"/>
    <g id="Grupo_1180373" data-name="Grupo 1180373" transform="translate(457.425 4423.521)">
      <path id="Trazado_1021267" data-name="Trazado 1021267" d="M146.36,343.724l-4.737,7.53L122.25,341.3l4.086-7.092Z" transform="translate(-35.647 -159.005)" fill="#ff8f00"/>
      <path id="Trazado_1021268" data-name="Trazado 1021268" d="M211.722,511.129v18.517L191.86,520.21v-9.94l14.533,7.465a1.088,1.088,0,0,0,1.418-.388Z" transform="translate(-100.524 -323.095)" fill="#ff8f00"/>
      <path id="Trazado_1021269" data-name="Trazado 1021269" d="M547.24,341.3l-19.373,9.952-4.737-7.53,20.024-9.514Z" transform="translate(-409.272 -159.005)" fill="#ff8f00"/>
      <path id="Trazado_1021270" data-name="Trazado 1021270" d="M535.862,510.27v9.94L516,529.647V511.129l3.911,6.217a1.088,1.088,0,0,0,1.418.388Z" transform="translate(-402.626 -323.095)" fill="#ff8f00"/>
      <path id="Trazado_1021271" data-name="Trazado 1021271" d="M233.55,203.34v16.233l-18.27-8.68Z" transform="translate(-122.352 -37.033)" fill="#ff6f00"/>
      <path id="Trazado_1021272" data-name="Trazado 1021272" d="M534.242,211.251,516,219.918V203.71Z" transform="translate(-402.626 -37.378)" fill="#ff6f00"/>
      <g id="Grupo_1180371" data-name="Grupo 1180371" transform="translate(85.923 166.987)" opacity="0.5">
        <path id="Trazado_1021273" data-name="Trazado 1021273" d="M136.36,353.724l-4.737,7.53L112.25,351.3l4.086-7.092Z" transform="translate(-112.25 -335.312)" fill="#fff"/>
        <path id="Trazado_1021274" data-name="Trazado 1021274" d="M201.722,521.129v18.517L181.86,530.21v-9.94l14.533,7.465a1.088,1.088,0,0,0,1.418-.388Z" transform="translate(-177.127 -499.402)" fill="#fff"/>
        <path id="Trazado_1021275" data-name="Trazado 1021275" d="M537.24,351.3l-19.373,9.952-4.737-7.53,20.024-9.514Z" transform="translate(-485.875 -335.312)" fill="#fff"/>
        <path id="Trazado_1021276" data-name="Trazado 1021276" d="M525.862,520.27v9.94L506,539.647V521.129l3.911,6.218a1.088,1.088,0,0,0,1.418.388Z" transform="translate(-479.229 -499.402)" fill="#fff"/>
        <path id="Trazado_1021277" data-name="Trazado 1021277" d="M223.55,213.34v16.233l-18.27-8.68Z" transform="translate(-198.955 -213.34)" fill="#fff"/>
        <path id="Trazado_1021278" data-name="Trazado 1021278" d="M524.242,221.251,506,229.918V213.71Z" transform="translate(-479.229 -213.685)" fill="#fff"/>
      </g>
      <g id="Grupo_1180372" data-name="Grupo 1180372" transform="translate(84.003 163.606)">
        <path id="Trazado_1021279" data-name="Trazado 1021279" d="M184.074,309.376v24.012a1.088,1.088,0,0,1-.638.991l-.01,0c-.019.009-.038.017-.057.024l-.016.005c-.022.008-.044.015-.068.022l-.068.016-.029.005-.033.006h-.029l-.054.006h-.17l-.054-.006a.087.087,0,0,1-.023,0,.321.321,0,0,1-.044-.008l-.029-.005-.068-.016-.068-.022-.016-.005c-.019-.007-.038-.015-.057-.024l-.01,0h-.005l-.012-.005L160.481,323.9a1.088,1.088,0,0,1-.621-.982V311.351a1.11,1.11,0,0,1,.014-.173,1.088,1.088,0,0,1,2.162.173v10.878l19.862,9.437v-21.6l-.485-.231-20.024-9.514-.884-.422-.018-.009c-.024-.012-.048-.024-.071-.037l-.06-.036-.013-.009-.052-.037-.015-.012-.046-.039-.011-.01q-.021-.018-.04-.039l-.016-.016c-.015-.016-.029-.031-.042-.048s-.009-.01-.012-.016a.606.606,0,0,1-.037-.048c-.014-.019-.027-.039-.039-.06s-.022-.037-.033-.056-.008-.016-.012-.024-.013-.026-.019-.039l-.012-.026a.064.064,0,0,1,0-.012c-.007-.017-.014-.034-.02-.051s-.015-.044-.021-.068-.013-.046-.018-.068v-.006c0-.022-.008-.044-.012-.068a.019.019,0,0,1,0-.006c0-.021-.005-.041-.007-.062v-.01a.036.036,0,0,1,0-.008v-.16a.6.6,0,0,1,.008-.068c0-.022,0-.026.007-.039s.006-.032.01-.048.008-.033.013-.05a.832.832,0,0,1,.032-.1c0-.011.008-.022.013-.033s.012-.029.019-.043L160,298.4l.006-.012a.017.017,0,0,0,0,0l0-.007.012-.019.025-.041.014-.02a.308.308,0,0,1,.022-.03l0-.006.007-.01.01-.012c.012-.015.024-.03.037-.044l.009-.01.029-.03.016-.016,0,0c.013-.013.027-.025.04-.037l.006,0,.008-.008.025-.02.016-.013.007,0,.008-.006,0,0,.023-.015a.091.091,0,0,1,.018-.012l.016-.011h.005l.005,0,.021-.011.007,0h.006l.02-.012.019-.009.007,0,.007,0,.017-.007.018-.009.008,0h.007l.02-.009.02-.007.022-.008c.02-.008.041-.014.062-.02h0a.547.547,0,0,1,.065-.016h.01l.068-.012c.025,0,.05-.006.075-.008s.051,0,.076,0a1.087,1.087,0,0,1,.466.105L163.62,299l18.277,8.65,1.088.517.467.222a.888.888,0,0,1,.08.042c.019.011.038.022.056.035l.061.044q.031.024.059.049c.016.014.032.03.048.046s.04.042.058.063.032.039.047.06.029.041.042.063l.019.031c.012.02.022.04.033.061a.95.95,0,0,1,.056.136c.006.017.012.033.016.05s.007.023.01.035.007.027.009.041.01.05.014.075A1.043,1.043,0,0,1,184.074,309.376Z" transform="translate(-154.703 -288.72)" fill="#413b32"/>
        <path id="Trazado_1021280" data-name="Trazado 1021280" d="M486.176,331.278l19.862-9.437V310.962a1.088,1.088,0,0,1,2.162-.173,1.122,1.122,0,0,1,.014.173v11.566a1.088,1.088,0,0,1-.621.98l-22.037,10.47-.018.008-.01,0c-.019.009-.038.017-.057.024l-.016.005c-.022.008-.044.015-.068.022l-.068.016-.029.005-.033.006h-.029l-.054.006H485l-.054-.006a.089.089,0,0,1-.023,0,.334.334,0,0,1-.044-.007l-.029-.005-.068-.016-.068-.022-.016-.005c-.019-.007-.038-.015-.057-.024l-.01,0h-.005A1.088,1.088,0,0,1,484,333V308.987a1.041,1.041,0,0,1,.011-.152.373.373,0,0,1,.014-.076.182.182,0,0,1,.01-.041c0-.014.006-.023.01-.035s.01-.033.016-.05a.955.955,0,0,1,.056-.136c.01-.02.021-.041.033-.06s.012-.021.019-.031.028-.042.042-.062.031-.041.047-.06.038-.043.058-.063.031-.031.048-.046.039-.033.059-.049l.061-.044c.021-.014.037-.024.056-.035a.867.867,0,0,1,.079-.042l.467-.222,1.088-.517,18.245-8.667,2.244-1.065a1.1,1.1,0,0,1,.136-.052,1.069,1.069,0,0,1,.292-.052h.113a.247.247,0,0,1,.053.005h.02l.058.01h.007a.214.214,0,0,1,.054.012l.021.005.05.015.016.005.06.022a.614.614,0,0,1,.058.026l.016.007.046.024.014.007a.529.529,0,0,1,.048.029l.018.012a.375.375,0,0,1,.039.027l.023.018.033.027.024.021.033.03.01.011.042.044a.852.852,0,0,1,.058.072.979.979,0,0,1,.063.094l.008.014v0c.014.023.026.047.037.071a1.086,1.086,0,0,1,.105.466v.009a1.088,1.088,0,0,1-.625.98l-.209.1-.7.332-20.024,9.514-.485.231Z" transform="translate(-456.805 -288.331)" fill="#413b32"/>
        <path id="Trazado_1021281" data-name="Trazado 1021281" d="M113.363,308.854c0-.025-.008-.05-.014-.076a.176.176,0,0,0-.01-.041c0-.014-.006-.023-.009-.035s-.01-.033-.016-.05a.945.945,0,0,0-.056-.136c-.01-.021-.021-.041-.033-.061l-.019-.031c-.014-.022-.028-.042-.042-.062s-.031-.041-.047-.06-.038-.043-.058-.063-.031-.031-.048-.046-.039-.033-.059-.049l-.061-.044c-.021-.014-.037-.024-.056-.035a.872.872,0,0,0-.08-.042l-.47-.222-1.088-.517-18.27-8.68-2.213-1.049a1.087,1.087,0,0,0-.466-.105h-.076a.473.473,0,0,0-.075.008l-.068.012h-.01a.548.548,0,0,0-.065.016h0c-.021.006-.041.012-.062.02l-.022.008-.02.007-.02.009H89.82l-.008,0-.018.009-.017.007-.007,0-.007,0-.019.009-.02.012h-.006l-.007,0-.021.012-.005,0-.021.014a.1.1,0,0,0-.018.012l-.026.018,0,0-.008.006-.007,0-.016.013-.033.027-.006,0c-.014.012-.027.024-.04.037l0,0-.016.016-.029.03-.01.01c-.013.014-.025.029-.037.044l-.01.012-.007.01,0,.006a.3.3,0,0,0-.022.03l-.014.02-.025.041-.012.019,0,.007a.017.017,0,0,1,0,0l0,.007-5.158,8.946a1.088,1.088,0,0,0,.445,1.511l4.58,2.352,2.162,1.111,14.533,7.465a1.088,1.088,0,0,0,1.418-.388l3.911-6.218,1.088-1.73.9-1.428a.023.023,0,0,1,0-.005l.018-.03c.014-.022.027-.044.039-.068s.022-.045.033-.068.019-.046.028-.068.016-.046.023-.068a.016.016,0,0,0,0-.005c.007-.026.014-.052.019-.078s.009-.045.012-.068a.624.624,0,0,0,.007-.063.025.025,0,0,0,0-.007.042.042,0,0,0,0-.01v-.07A1.048,1.048,0,0,0,113.363,308.854Zm-7.386,8.14L86.6,307.042l4.086-7.092,20.024,9.514Z" transform="translate(-84.003 -288.35)" fill="#413b32"/>
        <path id="Trazado_1021282" data-name="Trazado 1021282" d="M113.363,308.854c0-.025-.008-.05-.014-.076a.176.176,0,0,0-.01-.041c0-.014-.006-.023-.009-.035s-.01-.033-.016-.05a.945.945,0,0,0-.056-.136c-.01-.021-.021-.041-.033-.061l-.019-.031c-.014-.022-.028-.042-.042-.062s-.031-.041-.047-.06-.038-.043-.058-.063-.031-.031-.048-.046-.039-.033-.059-.049l-.061-.044c-.021-.014-.037-.024-.056-.035a.872.872,0,0,0-.08-.042l-.47-.222-1.088-.517-18.27-8.68-2.213-1.049a1.087,1.087,0,0,0-.466-.105h-.076a.473.473,0,0,0-.075.008l-.068.012h-.01a.548.548,0,0,0-.065.016h0c-.021.006-.041.012-.062.02l-.022.008-.02.007-.02.009H89.82l-.008,0-.018.009-.017.007-.007,0-.007,0-.019.009-.02.012h-.006l-.007,0-.021.012-.005,0-.021.014a.1.1,0,0,0-.018.012l-.026.018,0,0-.008.006-.007,0-.016.013-.033.027-.006,0c-.014.012-.027.024-.04.037l0,0-.016.016-.029.03-.01.01c-.013.014-.025.029-.037.044l-.01.012-.007.01,0,.006a.3.3,0,0,0-.022.03l-.014.02-.025.041-.012.019,0,.007a.017.017,0,0,1,0,0l0,.007-5.158,8.946a1.088,1.088,0,0,0,.445,1.511l4.58,2.352,2.162,1.111,14.533,7.465a1.088,1.088,0,0,0,1.418-.388l3.911-6.218,1.088-1.73.9-1.428a.023.023,0,0,1,0-.005l.018-.03c.014-.022.027-.044.039-.068s.022-.045.033-.068.019-.046.028-.068.016-.046.023-.068a.016.016,0,0,0,0-.005c.007-.026.014-.052.019-.078s.009-.045.012-.068a.624.624,0,0,0,.007-.063.025.025,0,0,0,0-.007.042.042,0,0,0,0-.01v-.07A1.048,1.048,0,0,0,113.363,308.854Zm-7.386,8.14L86.6,307.042l4.086-7.092,20.024,9.514Z" transform="translate(-84.003 -288.35)" fill="#413b32"/>
        <path id="Trazado_1021283" data-name="Trazado 1021283" d="M513.259,306.993l-5.158-8.948v0l-.008-.014a.948.948,0,0,0-.063-.094.82.82,0,0,0-.058-.072l-.042-.044-.01-.011-.033-.03a.224.224,0,0,0-.024-.021l-.033-.027-.023-.018a.386.386,0,0,0-.039-.027l-.018-.012a.487.487,0,0,0-.048-.029l-.014-.008-.046-.025-.018-.007a.629.629,0,0,0-.058-.026l-.061-.022-.016-.005-.05-.015-.021-.005-.054-.012h-.007l-.058-.009h-.02c-.018,0-.035,0-.053-.005s-.05,0-.076,0h-.037a1.066,1.066,0,0,0-.292.052,1.087,1.087,0,0,0-.136.052l-2.244,1.065-18.234,8.661-1.088.517-.467.224q-.041.019-.08.042c-.019.011-.038.022-.056.035l-.061.044c-.021.016-.04.032-.059.049s-.032.03-.048.046-.04.041-.058.063-.032.039-.047.06-.029.041-.042.063l-.019.031c-.011.02-.022.04-.033.061a.941.941,0,0,0-.056.136c-.006.017-.011.033-.016.05s-.007.023-.01.035-.007.027-.01.041-.01.05-.014.076a1.042,1.042,0,0,0-.011.152v.068a.061.061,0,0,0,0,.009,1.025,1.025,0,0,0,.038.216.014.014,0,0,0,0,.005,1.287,1.287,0,0,0,.051.136c.01.023.021.046.033.068s.025.045.039.068l.018.03.906,1.441,1.088,1.73,3.911,6.218a1.088,1.088,0,0,0,1.418.388l14.533-7.465,2.162-1.111,4.58-2.352a1.088,1.088,0,0,0,.445-1.511Zm-21.828,10.049-4.737-7.53L506.718,300l4.086,7.093Z" transform="translate(-456.838 -288.398)" fill="#413b32"/>
        <path id="Trazado_1021284" data-name="Trazado 1021284" d="M184.229,164.68v19.651a.038.038,0,0,1,0,.01.028.028,0,0,1,0,.007q0,.031-.007.063a.333.333,0,0,1-.012.068c0,.022-.012.052-.019.078a.016.016,0,0,1,0,.005c-.007.023-.014.046-.023.068s-.018.046-.028.068l-.033.068c-.012.023-.025.045-.039.068l-.018.03a.023.023,0,0,0,0,.005,1.088,1.088,0,0,1-1.8-.005l-.018-.03c-.014-.022-.026-.044-.039-.068s-.023-.045-.033-.068a1,1,0,0,1-.051-.136.018.018,0,0,1,0-.005,1.02,1.02,0,0,1-.038-.216.038.038,0,0,1,0-.01V166.307l-18.286,7.553-2.263.936a1.088,1.088,0,0,1-.863-.014l-.018-.009c-.024-.012-.048-.024-.071-.037l-.06-.036-.013-.009-.052-.037-.015-.012-.046-.039-.011-.01a.534.534,0,0,1-.04-.039l-.016-.016c-.015-.016-.029-.031-.042-.048s-.009-.01-.012-.016a.606.606,0,0,1-.037-.048c-.014-.019-.027-.039-.039-.06s-.022-.037-.033-.056-.008-.016-.012-.024l-.019-.039-.012-.026a.067.067,0,0,1,0-.012c-.007-.017-.014-.034-.02-.051s-.015-.044-.021-.068-.013-.046-.018-.068v-.006c0-.022-.008-.043-.012-.068a.021.021,0,0,1,0-.006c0-.021-.005-.041-.007-.063v-.01a.033.033,0,0,1,0-.008v-.16a.6.6,0,0,1,.007-.068c0-.022,0-.027.007-.039s.006-.032.01-.048.008-.033.013-.05a.966.966,0,0,1,.032-.1c0-.011.008-.022.013-.033s.012-.029.019-.043l.029-.058a.015.015,0,0,0,0,0l0-.007.012-.019.025-.041.014-.02a.3.3,0,0,1,.022-.03l0-.006.007-.01.01-.012c.012-.015.024-.03.037-.044l.009-.01.029-.03.016-.016,0,0c.013-.013.027-.025.04-.037l.014-.012.025-.02.016-.013.007,0,.008-.006,0,0,.023-.015a.1.1,0,0,1,.018-.012l.016-.011.011-.007.021-.012.007,0,.029-.016.033-.016.017-.008.018-.009.024-.011,22.038-9.11a1.088,1.088,0,0,1,1.02.1l.007,0a1.088,1.088,0,0,1,.481.887Z" transform="translate(-154.858 -163.606)" fill="#413b32"/>
        <path id="Trazado_1021285" data-name="Trazado 1021285" d="M508.21,173.962a1.087,1.087,0,0,1-1.5,1.023l-2.292-.948L486.172,166.5l-1.5-.621a1.088,1.088,0,1,1,.831-2.011l.2.081,21.629,8.941.214.088A1.088,1.088,0,0,1,508.21,173.962Z" transform="translate(-456.801 -163.769)" fill="#413b32"/>
      </g>
    </g>
  </g>
</svg>
