<svg xmlns="http://www.w3.org/2000/svg" xmlns:xlink="http://www.w3.org/1999/xlink" width="396" height="277" viewBox="0 0 396 277">
  <defs>
    <clipPath id="clip-path">
      <rect id="Rectángulo_458952" data-name="Rectángulo 458952" width="375.289" height="192.529" fill="none"/>
    </clipPath>
    <clipPath id="clip-path-3">
      <path id="Rectángulo_458732" data-name="Rectángulo 458732" d="M1.149,0H2.624A1.149,1.149,0,0,1,3.773,1.149v0A1.149,1.149,0,0,1,2.624,2.3H1.149A1.149,1.149,0,0,1,0,1.149v0A1.149,1.149,0,0,1,1.149,0Z" fill="none"/>
    </clipPath>
    <clipPath id="clip-path-5">
      <rect id="Rectángulo_458735" data-name="Rectángulo 458735" width="24.701" height="1.037" fill="none"/>
    </clipPath>
    <clipPath id="clip-path-6">
      <rect id="Rectángulo_458737" data-name="Rectángulo 458737" width="1.037" height="14.001" fill="none"/>
    </clipPath>
    <clipPath id="clip-path-7">
      <rect id="Rectángulo_458757" data-name="Rectángulo 458757" width="1.709" height="5.29" fill="none"/>
    </clipPath>
    <clipPath id="clip-path-8">
      <rect id="Rectángulo_458758" data-name="Rectángulo 458758" width="1.708" height="7.036" fill="none"/>
    </clipPath>
    <clipPath id="clip-path-9">
      <rect id="Rectángulo_458769" data-name="Rectángulo 458769" width="20.063" height="20.063" fill="none"/>
    </clipPath>
    <clipPath id="clip-path-10">
      <rect id="Rectángulo_458781" data-name="Rectángulo 458781" width="28.368" height="1.191" fill="none"/>
    </clipPath>
    <clipPath id="clip-path-11">
      <rect id="Rectángulo_458783" data-name="Rectángulo 458783" width="1.191" height="16.079" fill="none"/>
    </clipPath>
    <clipPath id="clip-path-12">
      <rect id="Rectángulo_458802" data-name="Rectángulo 458802" width="19.851" height="0.833" fill="none"/>
    </clipPath>
    <clipPath id="clip-path-13">
      <rect id="Rectángulo_458804" data-name="Rectángulo 458804" width="0.833" height="11.252" fill="none"/>
    </clipPath>
    <clipPath id="clip-path-14">
      <rect id="Rectángulo_458823" data-name="Rectángulo 458823" width="17.35" height="0.729" fill="none"/>
    </clipPath>
    <clipPath id="clip-path-15">
      <rect id="Rectángulo_458825" data-name="Rectángulo 458825" width="0.729" height="9.834" fill="none"/>
    </clipPath>
    <clipPath id="clip-path-16">
      <rect id="Rectángulo_458845" data-name="Rectángulo 458845" width="1.2" height="3.715" fill="none"/>
    </clipPath>
    <clipPath id="clip-path-17">
      <rect id="Rectángulo_458846" data-name="Rectángulo 458846" width="1.201" height="4.942" fill="none"/>
    </clipPath>
    <clipPath id="clip-path-20">
      <rect id="Rectángulo_458870" data-name="Rectángulo 458870" width="46.502" height="1.952" fill="none"/>
    </clipPath>
    <clipPath id="clip-path-21">
      <rect id="Rectángulo_458872" data-name="Rectángulo 458872" width="1.953" height="26.357" fill="none"/>
    </clipPath>
    <clipPath id="clip-path-22">
      <rect id="Rectángulo_458891" data-name="Rectángulo 458891" width="22.33" height="0.938" fill="none"/>
    </clipPath>
    <clipPath id="clip-path-23">
      <rect id="Rectángulo_458893" data-name="Rectángulo 458893" width="0.937" height="12.656" fill="none"/>
    </clipPath>
    <clipPath id="clip-path-25">
      <rect id="Rectángulo_458914" data-name="Rectángulo 458914" width="0.938" height="12.656" fill="none"/>
    </clipPath>
    <clipPath id="clip-path-26">
      <rect id="Rectángulo_458934" data-name="Rectángulo 458934" width="1.201" height="3.716" fill="none"/>
    </clipPath>
    <clipPath id="clip-path-28">
      <path id="Trazado_1028468" data-name="Trazado 1028468" d="M1790.949,891.575v15.007c2.072.025,18.86.016,18.86.016V903.62a1.555,1.555,0,0,0-.353-.984l-8.628-10.494a1.545,1.545,0,0,0-1.2-.566Z" transform="translate(-1790.949 -891.575)" fill="none"/>
    </clipPath>
  </defs>
  <g id="Grupo_1186261" data-name="Grupo 1186261" transform="translate(-185.711 -5767)">
    <rect id="Rectángulo_456655" data-name="Rectángulo 456655" width="396" height="277" rx="10" transform="translate(185.711 5767)" fill="#a2cbcf"/>
    <g id="Grupo_1186181" data-name="Grupo 1186181" transform="translate(196.066 5824.5)">
      <g id="Grupo_1186260" data-name="Grupo 1186260" clip-path="url(#clip-path)">
        <g id="Grupo_1186182" data-name="Grupo 1186182">
          <g id="Grupo_1186181-2" data-name="Grupo 1186181" clip-path="url(#clip-path)">
            <path id="Trazado_1028284" data-name="Trazado 1028284" d="M285.152,39.086a90.307,90.307,0,0,0-24.545,3.381A109.7,109.7,0,0,0,66.923,85.537,21.619,21.619,0,0,0,41.3,111.008,55.071,55.071,0,0,0,7.768,192.529H349.314A90.136,90.136,0,0,0,285.152,39.086" fill="#eff2f5"/>
            <path id="Trazado_1028285" data-name="Trazado 1028285" d="M560.9,1359.682H361.629a6.668,6.668,0,0,1,0-13.337H560.9a6.668,6.668,0,0,1,0,13.337" transform="translate(-312.762 -1186.286)" fill="#e6e6e9"/>
            <path id="Trazado_1028286" data-name="Trazado 1028286" d="M1219.362,1359.682H1020.089a6.668,6.668,0,0,1,0-13.337h199.273a6.668,6.668,0,1,1,0,13.337" transform="translate(-892.941 -1186.286)" fill="#e6e6e9"/>
            <rect id="Rectángulo_458722" data-name="Rectángulo 458722" width="2.298" height="2.298" transform="translate(210.727 24.828)" fill="#f8535b"/>
            <path id="Trazado_1028287" data-name="Trazado 1028287" d="M1769.737,199.832h-3.032a.37.37,0,0,1-.37-.37V197.9a.37.37,0,0,1,.37-.37h3.032a.37.37,0,0,1,.37.37v1.558a.37.37,0,0,1-.37.37" transform="translate(-1556.345 -174.05)" fill="#fa8c91"/>
            <rect id="Rectángulo_458723" data-name="Rectángulo 458723" width="1.317" height="1.317" transform="translate(216.639 27.63) rotate(-63.725)" fill="#f8535b"/>
            <path id="Trazado_1028288" data-name="Trazado 1028288" d="M1824.223,217.669l-1.558-.769a.212.212,0,0,1-.1-.284l.4-.8a.212.212,0,0,1,.284-.1l1.558.769a.212.212,0,0,1,.1.284l-.4.8a.213.213,0,0,1-.284.1" transform="translate(-1605.874 -190.053)" fill="#f9747a"/>
            <rect id="Rectángulo_458724" data-name="Rectángulo 458724" width="1.317" height="1.317" transform="matrix(0.897, -0.443, 0.443, 0.897, 205.35, 27.032)" fill="#f8535b"/>
            <path id="Trazado_1028289" data-name="Trazado 1028289" d="M1722.558,217.669l1.558-.769a.212.212,0,0,0,.1-.284l-.4-.8a.212.212,0,0,0-.284-.1l-1.559.769a.212.212,0,0,0-.1.284l.4.8a.212.212,0,0,0,.284.1" transform="translate(-1517.154 -190.053)" fill="#f9747a"/>
            <path id="Trazado_1028290" data-name="Trazado 1028290" d="M1672.72,234.611a13.01,13.01,0,1,1,13.01,13.01,13.01,13.01,0,0,1-13.01-13.01" transform="translate(-1473.859 -195.256)" fill="#f8535b"/>
            <path id="Trazado_1028291" data-name="Trazado 1028291" d="M1684.733,249.9a11.8,11.8,0,1,1,16.288,3.628,11.8,11.8,0,0,1-16.288-3.628" transform="translate(-1482.82 -204.217)" fill="#fde4b5"/>
            <path id="Trazado_1028292" data-name="Trazado 1028292" d="M1694.7,243.584l11.763-.922q.036.46.036.922a11.8,11.8,0,1,1-11.8-11.8h.069Z" transform="translate(-1482.83 -204.228)" fill="#fff"/>
            <path id="Trazado_1028293" data-name="Trazado 1028293" d="M1777.572,244.411l-.619,11.334h1.237Z" transform="translate(-1565.701 -215.354)" fill="#3b3e54"/>
            <path id="Trazado_1028294" data-name="Trazado 1028294" d="M1778.248,324.873l-9.164-.118.038.958Z" transform="translate(-1558.768 -286.147)" fill="#3b3e54"/>
            <path id="Trazado_1028295" data-name="Trazado 1028295" d="M1701.024,332.921a11.8,11.8,0,0,1-18.1-9.1,11.8,11.8,0,1,0,23.54-.022,11.78,11.78,0,0,1-5.44,9.12" transform="translate(-1482.823 -285.306)" fill="#efedec"/>
          </g>
        </g>
        <g id="Grupo_1186184" data-name="Grupo 1186184" transform="translate(209.99 23.484)">
          <g id="Grupo_1186183" data-name="Grupo 1186183" clip-path="url(#clip-path-3)">
            <rect id="Rectángulo_458726" data-name="Rectángulo 458726" width="0.241" height="2.992" transform="translate(0.26 -0.304)" fill="#f96970"/>
            <rect id="Rectángulo_458727" data-name="Rectángulo 458727" width="0.241" height="2.992" transform="translate(0.863 -0.304)" fill="#f96970"/>
            <rect id="Rectángulo_458728" data-name="Rectángulo 458728" width="0.241" height="2.992" transform="translate(1.465 -0.304)" fill="#f96970"/>
            <rect id="Rectángulo_458729" data-name="Rectángulo 458729" width="0.241" height="2.992" transform="translate(2.067 -0.304)" fill="#f96970"/>
            <rect id="Rectángulo_458730" data-name="Rectángulo 458730" width="0.241" height="2.992" transform="translate(2.67 -0.304)" fill="#f96970"/>
            <rect id="Rectángulo_458731" data-name="Rectángulo 458731" width="0.241" height="2.992" transform="translate(3.272 -0.304)" fill="#f96970"/>
          </g>
        </g>
        <g id="Grupo_1186255" data-name="Grupo 1186255">
          <g id="Grupo_1186254" data-name="Grupo 1186254" clip-path="url(#clip-path)">
            <path id="Trazado_1028296" data-name="Trazado 1028296" d="M2451.181,935.74a2.94,2.94,0,1,0-.31-5.452,8.6,8.6,0,0,0,.31,5.452" transform="translate(-2159.226 -819.691)" fill="#d8d8dd"/>
            <path id="Trazado_1028297" data-name="Trazado 1028297" d="M2401.066,1032.723a2.94,2.94,0,1,0-1.211-5.325,8.594,8.594,0,0,0,1.211,5.325" transform="translate(-2114.515 -905.256)" fill="#d8d8dd"/>
            <path id="Trazado_1028298" data-name="Trazado 1028298" d="M2533.4,889.984a2.94,2.94,0,1,0,4.888-2.436,8.6,8.6,0,0,0-4.888,2.436" transform="translate(-2230.575 -782.032)" fill="#d8d8dd"/>
            <path id="Trazado_1028299" data-name="Trazado 1028299" d="M2493.313,989.693a8.6,8.6,0,0,0-4.972,2.26,7.365,7.365,0,0,0,10.133-.474,8.6,8.6,0,0,0-5.161-1.786" transform="translate(-2192.515 -872.028)" fill="#d8d8dd"/>
            <path id="Trazado_1028300" data-name="Trazado 1028300" d="M2453.709,1078.057a8.6,8.6,0,0,0-4.972,2.26,7.364,7.364,0,0,0,10.132-.474,8.6,8.6,0,0,0-5.161-1.785" transform="translate(-2157.621 -949.887)" fill="#d8d8dd"/>
            <path id="Trazado_1028301" data-name="Trazado 1028301" d="M2411.161,977.633l.571,0a77.367,77.367,0,0,1,1.988-15.06,65.766,65.766,0,0,1,4.573-13.428,42.79,42.79,0,0,1,8.8-12.567l-.4-.411a43.339,43.339,0,0,0-8.922,12.74,66.318,66.318,0,0,0-4.615,13.551,77.941,77.941,0,0,0-2,15.171" transform="translate(-2124.511 -824.875)" fill="#d8d8dd"/>
            <path id="Trazado_1028302" data-name="Trazado 1028302" d="M2630.344,1025.829a2.422,2.422,0,1,0,1.352-4.29,7.085,7.085,0,0,0-1.352,4.29" transform="translate(-2317.625 -900.093)" fill="#d8d8dd"/>
            <path id="Trazado_1028303" data-name="Trazado 1028303" d="M2566.319,1085.324a2.422,2.422,0,1,0,.622-4.455,7.083,7.083,0,0,0-.622,4.455" transform="translate(-2261.093 -952.37)" fill="#d8d8dd"/>
            <path id="Trazado_1028304" data-name="Trazado 1028304" d="M2699,1027.193a2.422,2.422,0,1,0,4.476-.45,7.085,7.085,0,0,0-4.476.45" transform="translate(-2375.549 -904.523)" fill="#d8d8dd"/>
            <path id="Trazado_1028305" data-name="Trazado 1028305" d="M2650.5,1087.89a2.422,2.422,0,1,0,3.455,2.881,7.081,7.081,0,0,0-3.455-2.881" transform="translate(-2331.441 -958.33)" fill="#d8d8dd"/>
            <path id="Trazado_1028306" data-name="Trazado 1028306" d="M2594.215,1144.4a2.421,2.421,0,1,0,3.454,2.881,7.083,7.083,0,0,0-3.454-2.881" transform="translate(-2281.848 -1008.121)" fill="#d8d8dd"/>
            <path id="Trazado_1028307" data-name="Trazado 1028307" d="M2505.988,1079.342l.438.169a63.776,63.776,0,0,1,5.925-11.02,54.22,54.22,0,0,1,7.44-9.009,35.25,35.25,0,0,1,10.444-7.112l-.185-.432a35.715,35.715,0,0,0-10.589,7.21,54.677,54.677,0,0,0-7.507,9.092,64.152,64.152,0,0,0-5.966,11.1" transform="translate(-2208.065 -926.879)" fill="#d8d8dd"/>
            <path id="Trazado_1028308" data-name="Trazado 1028308" d="M816.814,513.729a3.863,3.863,0,0,1,3.714,2.8H813.1a3.863,3.863,0,0,1,3.714-2.8" transform="translate(-716.435 -452.654)" fill="#6c7080"/>
            <path id="Trazado_1028309" data-name="Trazado 1028309" d="M861.9,521.027a2.666,2.666,0,0,1,2.563,1.932h-5.126a2.666,2.666,0,0,1,2.563-1.932" transform="translate(-757.176 -459.085)" fill="#6c7080"/>
            <path id="Trazado_1028310" data-name="Trazado 1028310" d="M762.711,514.931c-.5-1.726-2.476-3.015-4.839-3.015s-4.339,1.289-4.838,3.015Z" transform="translate(-663.51 -451.057)" fill="#6c7080"/>
            <path id="Trazado_1028311" data-name="Trazado 1028311" d="M916.153,332.083a13.929,13.929,0,0,1,13.39,10.094h-26.78a13.929,13.929,0,0,1,13.39-10.094" transform="translate(-795.438 -292.603)" fill="#fff"/>
            <path id="Trazado_1028312" data-name="Trazado 1028312" d="M320.218,291.912a20.519,20.519,0,0,1,19.725,14.87h-39.45a20.519,20.519,0,0,1,19.725-14.87" transform="translate(-264.769 -257.208)" fill="#fff"/>
            <path id="Trazado_1028313" data-name="Trazado 1028313" d="M546.45,281.488c-3.025-10.466-15.01-18.283-29.337-18.283s-26.313,7.817-29.337,18.283Z" transform="translate(-429.787 -231.914)" fill="#fff"/>
            <path id="Trazado_1028314" data-name="Trazado 1028314" d="M710.064,379.51a10.594,10.594,0,0,1,10.184,7.678H699.88a10.6,10.6,0,0,1,10.185-7.678" transform="translate(-616.675 -334.392)" fill="#b3cbd4"/>
            <path id="Trazado_1028315" data-name="Trazado 1028315" d="M833.711,399.525a7.312,7.312,0,0,1,7.028,5.3H826.683a7.311,7.311,0,0,1,7.028-5.3" transform="translate(-728.403 -352.028)" fill="#b3cbd4"/>
            <path id="Trazado_1028316" data-name="Trazado 1028316" d="M561.692,382.807c-1.368-4.734-6.789-8.269-13.269-8.269s-11.9,3.536-13.269,8.269Z" transform="translate(-471.532 -330.011)" fill="#b3cbd4"/>
            <path id="Trazado_1028317" data-name="Trazado 1028317" d="M2511.472,547.9a13.906,13.906,0,0,1,13.368,10.078H2498.1a13.907,13.907,0,0,1,13.368-10.078" transform="translate(-2201.118 -482.76)" fill="#b3cbd4"/>
            <path id="Trazado_1028318" data-name="Trazado 1028318" d="M2673.766,574.167a9.6,9.6,0,0,1,9.225,6.955h-18.45a9.6,9.6,0,0,1,9.225-6.955" transform="translate(-2347.768 -505.907)" fill="#b3cbd4"/>
            <path id="Trazado_1028319" data-name="Trazado 1028319" d="M2316.725,552.224c-1.8-6.213-8.911-10.854-17.416-10.854s-15.62,4.641-17.416,10.854Z" transform="translate(-2010.611 -477.009)" fill="#b3cbd4"/>
            <path id="Trazado_1028320" data-name="Trazado 1028320" d="M2549.146,604.718a6.9,6.9,0,0,1,6.628,5h-13.256a6.9,6.9,0,0,1,6.628-5" transform="translate(-2240.252 -532.826)" fill="#fff"/>
            <path id="Trazado_1028321" data-name="Trazado 1028321" d="M2629.612,617.743a4.757,4.757,0,0,1,4.573,3.448h-9.147a4.758,4.758,0,0,1,4.574-3.448" transform="translate(-2312.961 -544.303)" fill="#fff"/>
            <path id="Trazado_1028322" data-name="Trazado 1028322" d="M2452.591,606.864c-.89-3.08-4.418-5.381-8.635-5.381s-7.745,2.3-8.634,5.381Z" transform="translate(-2145.799 -529.976)" fill="#fff"/>
            <path id="Trazado_1028323" data-name="Trazado 1028323" d="M2294.915,1236.159a17.988,17.988,0,0,1,17.292,13.036h-34.583a17.987,17.987,0,0,1,17.291-13.036" transform="translate(-2006.849 -1089.199)" fill="#d8d8dd"/>
            <path id="Trazado_1028324" data-name="Trazado 1028324" d="M2504.846,1270.14a12.413,12.413,0,0,1,11.932,9h-23.865a12.413,12.413,0,0,1,11.933-9" transform="translate(-2196.544 -1119.14)" fill="#d8d8dd"/>
            <path id="Trazado_1028325" data-name="Trazado 1028325" d="M2043.006,1241.756c-2.322-8.037-11.526-14.039-22.528-14.039s-20.206,6-22.528,14.039Z" transform="translate(-1760.424 -1081.76)" fill="#d8d8dd"/>
            <path id="Trazado_1028326" data-name="Trazado 1028326" d="M2660.185,764.5a6.061,6.061,0,0,1,5.827,4.393h-11.654a6.062,6.062,0,0,1,5.827-4.393" transform="translate(-2338.795 -673.614)" fill="#96a7ad"/>
            <path id="Trazado_1028327" data-name="Trazado 1028327" d="M2730.932,775.953a4.183,4.183,0,0,1,4.021,3.032h-8.042a4.181,4.181,0,0,1,4.021-3.032" transform="translate(-2402.724 -683.704)" fill="#96a7ad"/>
            <path id="Trazado_1028328" data-name="Trazado 1028328" d="M2575.293,766.388c-.783-2.708-3.885-4.731-7.592-4.731s-6.81,2.023-7.592,4.731Z" transform="translate(-2255.751 -671.107)" fill="#96a7ad"/>
            <path id="Trazado_1028329" data-name="Trazado 1028329" d="M1936.917,1308.614a7.44,7.44,0,0,1,7.152,5.392h-14.3a7.44,7.44,0,0,1,7.152-5.392" transform="translate(-1700.345 -1153.04)" fill="#84979e"/>
            <path id="Trazado_1028330" data-name="Trazado 1028330" d="M2023.743,1322.668a5.134,5.134,0,0,1,4.936,3.721h-9.871a5.134,5.134,0,0,1,4.935-3.721" transform="translate(-1778.803 -1165.423)" fill="#84979e"/>
            <path id="Trazado_1028331" data-name="Trazado 1028331" d="M1832.727,1310.929c-.961-3.324-4.768-5.807-9.318-5.807s-8.357,2.483-9.317,5.807Z" transform="translate(-1598.425 -1149.963)" fill="#84979e"/>
            <path id="Trazado_1028332" data-name="Trazado 1028332" d="M554.255,1268.6a15.786,15.786,0,0,0-15.175,11.44h30.35a15.786,15.786,0,0,0-15.175-11.44" transform="translate(-474.992 -1117.785)" fill="#d5cfcc"/>
            <path id="Trazado_1028333" data-name="Trazado 1028333" d="M439.731,1298.424a10.894,10.894,0,0,0-10.472,7.895H450.2a10.894,10.894,0,0,0-10.472-7.895" transform="translate(-378.227 -1144.062)" fill="#d5cfcc"/>
            <path id="Trazado_1028334" data-name="Trazado 1028334" d="M707.209,1273.514c2.038-7.053,10.115-12.321,19.77-12.321s17.732,5.268,19.77,12.321Z" transform="translate(-623.133 -1111.257)" fill="#d5cfcc"/>
            <path id="Trazado_1028335" data-name="Trazado 1028335" d="M643.264,966.569a15.382,15.382,0,0,0-4.577,2.177l-.042-.19c-.363-1.63-.817-3.46-1.381-5.423a15.371,15.371,0,0,0,4.883-1.736,15.157,15.157,0,0,0,4.23-3.675,15.153,15.153,0,0,0-5.307,1.8,15.371,15.371,0,0,0-3.9,3.272c-.474-1.626-1.022-3.34-1.656-5.106a15.385,15.385,0,0,0,4.244-2.912,15.16,15.16,0,0,0,3.149-4.635,15.161,15.161,0,0,0-4.671,3.1,15.357,15.357,0,0,0-2.874,4.031c-.642-1.76-1.37-3.568-2.192-5.389a15.375,15.375,0,0,0,3.755-3.528,15.16,15.16,0,0,0,2.405-5.061,15.164,15.164,0,0,0-4.144,3.772,15.363,15.363,0,0,0-2.213,4.384c-.562-1.224-1.167-2.452-1.819-3.675a15.38,15.38,0,0,0,2.135-4.675,15.162,15.162,0,0,0,.314-5.595,14.458,14.458,0,0,0-2.829,9.569q-.7-1.276-1.47-2.537a14.457,14.457,0,0,0-5.409-8.394,14.456,14.456,0,0,0,4.753,8.746q.8,1.3,1.519,2.625a15.361,15.361,0,0,0-4.741-1.22,15.157,15.157,0,0,0-5.568.629,15.161,15.161,0,0,0,5.391,1.528,15.375,15.375,0,0,0,5.154-.5c.658,1.225,1.268,2.458,1.835,3.687a15.381,15.381,0,0,0-5.1.175,15.161,15.161,0,0,0-5.149,2.21,15.156,15.156,0,0,0,5.6-.094,15.374,15.374,0,0,0,4.79-1.972c.851,1.867,1.6,3.722,2.26,5.527a15.382,15.382,0,0,0-5.065-.269,15.164,15.164,0,0,0-5.324,1.747,15.158,15.158,0,0,0,5.589.4,15.381,15.381,0,0,0,4.926-1.531c.643,1.783,1.2,3.513,1.676,5.153a15.388,15.388,0,0,0-5.025-.445,15.163,15.163,0,0,0-5.384,1.554,15.163,15.163,0,0,0,5.571.6,15.385,15.385,0,0,0,4.946-1.338c.556,1.937,1,3.743,1.362,5.351l.053.24a15.311,15.311,0,0,0-5.449.122,15.158,15.158,0,0,0-5.149,2.21,14.515,14.515,0,0,0,10.624-2.215,80.863,80.863,0,0,1,1.723,11.343l.743-.042a81.2,81.2,0,0,0-1.691-11.237,15.377,15.377,0,0,0,5.069-.467,15.158,15.158,0,0,0,5.014-2.5,15.164,15.164,0,0,0-5.588.414" transform="translate(-546.164 -824.846)" fill="#d5cfcc"/>
            <path id="Trazado_1028336" data-name="Trazado 1028336" d="M503.692,1092.584a10.433,10.433,0,0,0-2.553,2.3l-.064-.116c-.552-.989-1.2-2.091-1.95-3.258a10.433,10.433,0,0,0,2.838-2.077,10.285,10.285,0,0,0,2.036-3.211,10.29,10.29,0,0,0-3.1,2.2,10.439,10.439,0,0,0-1.9,2.886c-.624-.965-1.313-1.973-2.068-3a10.431,10.431,0,0,0,2.194-2.717,10.283,10.283,0,0,0,1.148-3.625,10.289,10.289,0,0,0-2.436,2.919,10.429,10.429,0,0,0-1.086,3.179c-.759-1.02-1.583-2.054-2.471-3.078a10.44,10.44,0,0,0,1.756-3.023,10.285,10.285,0,0,0,.581-3.758,10.291,10.291,0,0,0-1.962,3.257,10.425,10.425,0,0,0-.588,3.281c-.6-.687-1.235-1.368-1.9-2.036a10.441,10.441,0,0,0,.481-3.454,10.286,10.286,0,0,0-.882-3.7,9.809,9.809,0,0,0,.019,6.771q-.7-.694-1.448-1.364a9.81,9.81,0,0,0-5.146-4.407,9.8,9.8,0,0,0,4.788,4.763q.771.691,1.5,1.412a10.415,10.415,0,0,0-3.319.127,10.288,10.288,0,0,0-3.5,1.49,10.284,10.284,0,0,0,3.8-.053,10.443,10.443,0,0,0,3.253-1.328c.666.669,1.3,1.352,1.909,2.04a10.437,10.437,0,0,0-3.279,1.1,10.283,10.283,0,0,0-2.919,2.437,10.289,10.289,0,0,0,3.624-1.149,10.441,10.441,0,0,0,2.731-2.212c.916,1.048,1.763,2.109,2.543,3.155a10.429,10.429,0,0,0-3.345.808,10.289,10.289,0,0,0-3.122,2.17,10.3,10.3,0,0,0,3.712-.824,10.445,10.445,0,0,0,2.905-1.952c.764,1.034,1.461,2.051,2.09,3.025a10.433,10.433,0,0,0-3.354.686,10.287,10.287,0,0,0-3.2,2.055,10.282,10.282,0,0,0,3.739-.69,10.429,10.429,0,0,0,2.956-1.83c.737,1.151,1.379,2.239,1.925,3.215l.081.146a10.4,10.4,0,0,0-3.519,1.137,10.285,10.285,0,0,0-2.919,2.437,10.293,10.293,0,0,0,3.625-1.149,10.4,10.4,0,0,0,2.852-2.355,54.852,54.852,0,0,1,3.323,7.04l.475-.171a55.135,55.135,0,0,0-3.281-6.977,10.432,10.432,0,0,0,3.2-1.288,10.285,10.285,0,0,0,2.774-2.6,10.3,10.3,0,0,0-3.553,1.354" transform="translate(-427.04 -947.694)" fill="#d5cfcc"/>
            <path id="Trazado_1028337" data-name="Trazado 1028337" d="M979.413,1336a6.585,6.585,0,0,1,6.33,4.772h-12.66a6.585,6.585,0,0,1,6.33-4.772" transform="translate(-857.398 -1177.167)" fill="#faa743"/>
            <path id="Trazado_1028338" data-name="Trazado 1028338" d="M1056.262,1348.437a4.544,4.544,0,0,1,4.368,3.293h-8.736a4.544,4.544,0,0,1,4.368-3.293" transform="translate(-926.84 -1188.128)" fill="#faa743"/>
            <path id="Trazado_1028339" data-name="Trazado 1028339" d="M887.2,1338.046c-.85-2.942-4.219-5.139-8.247-5.139s-7.4,2.2-8.247,5.139Z" transform="translate(-767.192 -1174.445)" fill="#faa743"/>
            <path id="Trazado_1028340" data-name="Trazado 1028340" d="M1013.882,1222.077a.939.939,0,0,0-1.274,1.134,27.044,27.044,0,0,0-2.414,2.214,14.645,14.645,0,0,0,.475-3.456.945.945,0,1,0-.507.026,15.473,15.473,0,0,1-.726,4.24,40.733,40.733,0,0,0-6.391,9.656l.463.205a38.082,38.082,0,0,1,2.543-4.573c.495-.771,1.094-1.646,1.787-2.561a9.99,9.99,0,0,1,3.5.193.939.939,0,1,0,.164-.483,10.97,10.97,0,0,0-3.235-.267,30.177,30.177,0,0,1,4.614-4.763.94.94,0,1,0,1-1.564" transform="translate(-883.798 -1075.083)" fill="#faa743"/>
            <path id="Trazado_1028341" data-name="Trazado 1028341" d="M978.984,1217a9.978,9.978,0,0,1,3.344-1.053.939.939,0,1,0-.016-.51,10.957,10.957,0,0,0-3.122.889,30.189,30.189,0,0,1,2.641-6.084.929.929,0,0,0,.289.062.941.941,0,1,0-.7-.367,27.043,27.043,0,0,0-1.48,2.922,14.628,14.628,0,0,0-.773-3.4.937.937,0,1,0-.465.2,15.478,15.478,0,0,1,.814,4.224,40.741,40.741,0,0,0-2.58,11.288l.506.029a38.119,38.119,0,0,1,.769-5.176c.192-.9.444-1.925.771-3.027" transform="translate(-860.795 -1064.205)" fill="#faa743"/>
            <path id="Trazado_1028342" data-name="Trazado 1028342" d="M1070.038,214.017a5.645,5.645,0,0,1,5.426,4.09h-10.852a5.644,5.644,0,0,1,5.426-4.09" transform="translate(-938.046 -188.574)" fill="#c9dbe1"/>
            <path id="Trazado_1028343" data-name="Trazado 1028343" d="M1135.91,224.679a3.9,3.9,0,0,1,3.744,2.823h-7.489a3.9,3.9,0,0,1,3.744-2.823" transform="translate(-997.569 -197.968)" fill="#c9dbe1"/>
            <path id="Trazado_1028344" data-name="Trazado 1028344" d="M990.992,215.772c-.729-2.522-3.617-4.405-7.069-4.405s-6.34,1.884-7.069,4.405Z" transform="translate(-860.721 -186.239)" fill="#c9dbe1"/>
            <rect id="Rectángulo_458733" data-name="Rectángulo 458733" width="24.701" height="14.001" transform="translate(84.617 88.763)" fill="#e8bba0"/>
            <g id="Grupo_1186187" data-name="Grupo 1186187" transform="translate(84.617 95.245)" opacity="0.46">
              <g id="Grupo_1186186" data-name="Grupo 1186186">
                <g id="Grupo_1186185" data-name="Grupo 1186185" clip-path="url(#clip-path-5)">
                  <rect id="Rectángulo_458734" data-name="Rectángulo 458734" width="24.701" height="1.037" transform="translate(0)" fill="#fff"/>
                </g>
              </g>
            </g>
            <g id="Grupo_1186190" data-name="Grupo 1186190" transform="translate(96.448 88.763)" opacity="0.46">
              <g id="Grupo_1186189" data-name="Grupo 1186189">
                <g id="Grupo_1186188" data-name="Grupo 1186188" clip-path="url(#clip-path-6)">
                  <rect id="Rectángulo_458736" data-name="Rectángulo 458736" width="1.037" height="14.001" transform="translate(0 0)" fill="#fff"/>
                </g>
              </g>
            </g>
            <rect id="Rectángulo_458738" data-name="Rectángulo 458738" width="0.487" height="4.198" transform="translate(86.432 97.845)" fill="#ba927c"/>
            <path id="Trazado_1028345" data-name="Trazado 1028345" d="M721.675,820.252l-.806-.806-.806.806-.3-.3,1.107-1.106,1.106,1.106Z" transform="translate(-634.194 -721.496)" fill="#ba927c"/>
            <rect id="Rectángulo_458739" data-name="Rectángulo 458739" width="5.186" height="2.17" transform="translate(99.173 99.511)" fill="#fff"/>
            <rect id="Rectángulo_458740" data-name="Rectángulo 458740" width="0.19" height="1.397" transform="translate(99.614 99.898)" fill="#8f7d7f"/>
            <rect id="Rectángulo_458741" data-name="Rectángulo 458741" width="0.095" height="1.397" transform="translate(99.907 99.898)" fill="#8f7d7f"/>
            <rect id="Rectángulo_458742" data-name="Rectángulo 458742" width="0.063" height="1.397" transform="translate(100.202 99.898)" fill="#8f7d7f"/>
            <rect id="Rectángulo_458743" data-name="Rectángulo 458743" width="0.551" height="1.397" transform="translate(100.429 99.898)" fill="#8f7d7f"/>
            <rect id="Rectángulo_458744" data-name="Rectángulo 458744" width="0.066" height="1.397" transform="translate(101.207 99.898)" fill="#8f7d7f"/>
            <rect id="Rectángulo_458745" data-name="Rectángulo 458745" width="0.056" height="1.397" transform="translate(101.511 99.898)" fill="#8f7d7f"/>
            <rect id="Rectángulo_458746" data-name="Rectángulo 458746" width="0.054" height="1.397" transform="translate(101.807 99.898)" fill="#8f7d7f"/>
            <rect id="Rectángulo_458747" data-name="Rectángulo 458747" width="0.067" height="1.397" transform="translate(101.965 99.898)" fill="#8f7d7f"/>
            <rect id="Rectángulo_458748" data-name="Rectángulo 458748" width="0.323" height="1.397" transform="translate(102.126 99.898)" fill="#8f7d7f"/>
            <rect id="Rectángulo_458749" data-name="Rectángulo 458749" width="0.055" height="1.397" transform="translate(102.688 99.898)" fill="#8f7d7f"/>
            <rect id="Rectángulo_458750" data-name="Rectángulo 458750" width="0.071" height="1.397" transform="translate(102.785 99.898)" fill="#8f7d7f"/>
            <rect id="Rectángulo_458751" data-name="Rectángulo 458751" width="0.401" height="1.397" transform="translate(102.93 99.898)" fill="#8f7d7f"/>
            <rect id="Rectángulo_458752" data-name="Rectángulo 458752" width="0.074" height="1.397" transform="translate(103.551 99.898)" fill="#8f7d7f"/>
            <rect id="Rectángulo_458753" data-name="Rectángulo 458753" width="0.19" height="1.397" transform="translate(103.729 99.898)" fill="#8f7d7f"/>
            <rect id="Rectángulo_458754" data-name="Rectángulo 458754" width="15.435" height="22.756" transform="translate(105.404 80.008)" fill="#d4a58c"/>
            <rect id="Rectángulo_458755" data-name="Rectángulo 458755" width="15.435" height="2.911" transform="translate(105.404 80.008)" fill="#ba927c"/>
            <rect id="Rectángulo_458756" data-name="Rectángulo 458756" width="16.015" height="2.533" transform="translate(105.114 79.709)" fill="#d4a58c"/>
            <g id="Grupo_1186193" data-name="Grupo 1186193" transform="translate(107.37 79.709)" opacity="0.46">
              <g id="Grupo_1186192" data-name="Grupo 1186192">
                <g id="Grupo_1186191" data-name="Grupo 1186191" clip-path="url(#clip-path-7)">
                  <path id="Trazado_1028346" data-name="Trazado 1028346" d="M904.853,670.47v5.185l-.208.1-.086-.092-.208.092-.171-.092-.073.092-.246-.184-.073.092-.123-.092-.184.184-.1-.184-.147.184-.092-.066V670.47Z" transform="translate(-903.144 -670.47)" fill="#fff"/>
                </g>
              </g>
            </g>
            <g id="Grupo_1186196" data-name="Grupo 1186196" transform="translate(117.072 79.709)" opacity="0.46">
              <g id="Grupo_1186195" data-name="Grupo 1186195">
                <g id="Grupo_1186194" data-name="Grupo 1186194" clip-path="url(#clip-path-8)">
                  <path id="Trazado_1028347" data-name="Trazado 1028347" d="M986.461,670.47v6.913l-.239.122-.123-.061-.086.061-.049-.122-.208.122v-.159l-.15.141-.108-.141-.085.141-.159-.141-.269.141-.061-.079-.172.024V670.47Z" transform="translate(-984.752 -670.47)" fill="#fff"/>
                </g>
              </g>
            </g>
            <rect id="Rectángulo_458759" data-name="Rectángulo 458759" width="0.57" height="4.906" transform="translate(107.655 96.482)" fill="#846f71"/>
            <path id="Trazado_1028348" data-name="Trazado 1028348" d="M899.293,808.317l-.942-.942-.942.942-.351-.352,1.293-1.293,1.293,1.293Z" transform="translate(-790.412 -710.771)" fill="#846f71"/>
            <rect id="Rectángulo_458760" data-name="Rectángulo 458760" width="0.57" height="4.906" transform="translate(118.08 96.482)" fill="#846f71"/>
            <path id="Trazado_1028349" data-name="Trazado 1028349" d="M986.986,808.317l-.942-.942-.942.942-.351-.352,1.293-1.293,1.293,1.293Z" transform="translate(-867.68 -710.771)" fill="#846f71"/>
            <rect id="Rectángulo_458761" data-name="Rectángulo 458761" width="4.686" height="2.024" transform="translate(107.37 86.745)" fill="#f0dacc"/>
            <rect id="Rectángulo_458762" data-name="Rectángulo 458762" width="3.528" height="0.141" transform="translate(107.866 87.176)" fill="#846f71"/>
            <rect id="Rectángulo_458763" data-name="Rectángulo 458763" width="1.07" height="0.141" transform="translate(107.866 87.488)" fill="#846f71"/>
            <rect id="Rectángulo_458764" data-name="Rectángulo 458764" width="1.8" height="0.141" transform="translate(109.148 87.488)" fill="#846f71"/>
            <rect id="Rectángulo_458765" data-name="Rectángulo 458765" width="3.528" height="0.141" transform="translate(107.866 87.801)" fill="#846f71"/>
            <rect id="Rectángulo_458766" data-name="Rectángulo 458766" width="2.811" height="0.141" transform="translate(107.866 88.114)" fill="#846f71"/>
            <rect id="Rectángulo_458767" data-name="Rectángulo 458767" width="38.968" height="1.9" transform="translate(79.643 102.763)" fill="#40455a"/>
            <path id="Trazado_1028350" data-name="Trazado 1028350" d="M947.272,877.924a2.333,2.333,0,1,0-2.333,2.333,2.333,2.333,0,0,0,2.333-2.333" transform="translate(-830.545 -771.497)" fill="#40455a"/>
            <path id="Trazado_1028351" data-name="Trazado 1028351" d="M954.18,885.91a1.256,1.256,0,1,0-1.256,1.256,1.256,1.256,0,0,0,1.256-1.256" transform="translate(-838.53 -779.482)" fill="#798e96"/>
            <path id="Trazado_1028352" data-name="Trazado 1028352" d="M693.438,877.924a2.333,2.333,0,1,0-2.333,2.333,2.333,2.333,0,0,0,2.333-2.333" transform="translate(-606.888 -771.497)" fill="#40455a"/>
            <path id="Trazado_1028353" data-name="Trazado 1028353" d="M700.346,885.91a1.256,1.256,0,1,0-1.256,1.256,1.256,1.256,0,0,0,1.256-1.256" transform="translate(-614.873 -779.482)" fill="#798e96"/>
            <path id="Trazado_1028354" data-name="Trazado 1028354" d="M571.154,570.612v-2.651a6.935,6.935,0,0,0-3.162-5.819l-13.836-8.971a16.569,16.569,0,0,1-6.649-8.5l-4.65-13.477-10.822-1.667" transform="translate(-468.784 -466.575)" fill="none" stroke="#40455a" stroke-linecap="round" stroke-linejoin="round" stroke-width="7.898"/>
            <path id="Trazado_1028355" data-name="Trazado 1028355" d="M2380.131,1316.967a7.7,7.7,0,0,1,7.4,5.58h-14.8a7.7,7.7,0,0,1,7.4-5.58" transform="translate(-2090.648 -1160.4)" fill="#b7aea9"/>
            <path id="Trazado_1028356" data-name="Trazado 1028356" d="M2469.992,1331.513a5.313,5.313,0,0,1,5.107,3.851h-10.215a5.313,5.313,0,0,1,5.108-3.851" transform="translate(-2171.848 -1173.217)" fill="#b7aea9"/>
            <path id="Trazado_1028357" data-name="Trazado 1028357" d="M2272.3,1319.364c-.995-3.44-4.934-6.01-9.644-6.01s-8.649,2.569-9.643,6.01Z" transform="translate(-1985.165 -1157.216)" fill="#b7aea9"/>
            <path id="Trazado_1028358" data-name="Trazado 1028358" d="M1145.706,922a13.612,13.612,0,1,0,4.521-18.712A13.611,13.611,0,0,0,1145.706,922m5.461-3.336a7.213,7.213,0,1,1,9.915,2.4,7.213,7.213,0,0,1-9.915-2.4" transform="translate(-1007.739 -794.139)" fill="#d0d1d6"/>
            <path id="Trazado_1028359" data-name="Trazado 1028359" d="M1175.838,900.567l4.677-2.856-2.829-3.628a14.844,14.844,0,0,0-3.784,2.311Z" transform="translate(-1034.343 -787.789)" fill="#d0d1d6"/>
            <path id="Trazado_1028360" data-name="Trazado 1028360" d="M1232.889,887.974l5.479-.135-.636-4.557a14.835,14.835,0,0,0-4.432.11Z" transform="translate(-1086.317 -778.17)" fill="#d0d1d6"/>
            <path id="Trazado_1028361" data-name="Trazado 1028361" d="M1282.379,895.4l4.812,2.622,1.728-4.264a14.844,14.844,0,0,0-3.893-2.121Z" transform="translate(-1129.924 -785.636)" fill="#d0d1d6"/>
            <path id="Trazado_1028362" data-name="Trazado 1028362" d="M1325.4,933.418l2.856,4.677,3.628-2.829a14.831,14.831,0,0,0-2.311-3.784Z" transform="translate(-1167.826 -820.743)" fill="#d0d1d6"/>
            <path id="Trazado_1028363" data-name="Trazado 1028363" d="M1350.413,990.469l.135,5.479,4.557-.636a14.836,14.836,0,0,0-.11-4.432Z" transform="translate(-1189.869 -872.717)" fill="#d0d1d6"/>
            <path id="Trazado_1028364" data-name="Trazado 1028364" d="M1331.295,1039.958l-2.622,4.812,4.265,1.728a14.851,14.851,0,0,0,2.121-3.893Z" transform="translate(-1170.714 -916.323)" fill="#d0d1d6"/>
            <path id="Trazado_1028365" data-name="Trazado 1028365" d="M1291.595,1082.974l-4.677,2.857,2.829,3.628a14.831,14.831,0,0,0,3.783-2.311Z" transform="translate(-1133.923 -954.225)" fill="#d0d1d6"/>
            <path id="Trazado_1028366" data-name="Trazado 1028366" d="M1242.953,1107.992l-5.479.135.636,4.557a14.821,14.821,0,0,0,4.432-.109Z" transform="translate(-1090.358 -976.269)" fill="#d0d1d6"/>
            <path id="Trazado_1028367" data-name="Trazado 1028367" d="M1185.6,1088.874l-4.812-2.622-1.728,4.264a14.842,14.842,0,0,0,3.893,2.121Z" transform="translate(-1038.885 -957.113)" fill="#d0d1d6"/>
            <path id="Trazado_1028368" data-name="Trazado 1028368" d="M1142.988,1049.174l-2.856-4.677-3.628,2.829a14.876,14.876,0,0,0,2.311,3.784Z" transform="translate(-1001.39 -920.322)" fill="#d0d1d6"/>
            <path id="Trazado_1028369" data-name="Trazado 1028369" d="M1130.394,1000.532l-.135-5.479-4.557.636a14.859,14.859,0,0,0,.109,4.432Z" transform="translate(-991.77 -876.757)" fill="#d0d1d6"/>
            <path id="Trazado_1028370" data-name="Trazado 1028370" d="M1137.823,943.176l2.622-4.812-4.264-1.728a14.843,14.843,0,0,0-2.121,3.893Z" transform="translate(-999.237 -825.284)" fill="#d0d1d6"/>
            <path id="Trazado_1028371" data-name="Trazado 1028371" d="M1010.285,925.814a6.219,6.219,0,1,0,2.066-8.548,6.219,6.219,0,0,0-2.066,8.548m2.495-1.524a3.3,3.3,0,1,1,4.53,1.095,3.3,3.3,0,0,1-4.53-1.095" transform="translate(-889.374 -807.412)" fill="#c2c3ca"/>
            <path id="Trazado_1028372" data-name="Trazado 1028372" d="M1024.052,916.024l2.136-1.305-1.292-1.657a6.785,6.785,0,0,0-1.729,1.056Z" transform="translate(-901.528 -804.512)" fill="#c2c3ca"/>
            <path id="Trazado_1028373" data-name="Trazado 1028373" d="M1050.115,910.27l2.5-.062-.291-2.082a6.785,6.785,0,0,0-2.025.05Z" transform="translate(-925.272 -800.117)" fill="#c2c3ca"/>
            <path id="Trazado_1028374" data-name="Trazado 1028374" d="M1072.724,913.663l2.2,1.2.789-1.948a6.777,6.777,0,0,0-1.779-.969Z" transform="translate(-945.194 -803.528)" fill="#c2c3ca"/>
            <path id="Trazado_1028375" data-name="Trazado 1028375" d="M1092.377,931.031l1.305,2.136,1.657-1.292a6.764,6.764,0,0,0-1.055-1.729Z" transform="translate(-962.51 -819.567)" fill="#c2c3ca"/>
            <path id="Trazado_1028376" data-name="Trazado 1028376" d="M1103.806,957.095l.062,2.5,2.082-.291a6.8,6.8,0,0,0-.05-2.025Z" transform="translate(-972.58 -843.311)" fill="#c2c3ca"/>
            <path id="Trazado_1028377" data-name="Trazado 1028377" d="M1095.072,979.7l-1.2,2.2,1.948.789a6.728,6.728,0,0,0,.551-.853,6.652,6.652,0,0,0,.418-.926Z" transform="translate(-963.829 -863.232)" fill="#c2c3ca"/>
            <path id="Trazado_1028378" data-name="Trazado 1028378" d="M1076.936,999.357l-2.137,1.305,1.292,1.658a6.757,6.757,0,0,0,1.729-1.056Z" transform="translate(-947.022 -880.549)" fill="#c2c3ca"/>
            <path id="Trazado_1028379" data-name="Trazado 1028379" d="M1054.712,1010.786l-2.5.062.291,2.082a6.774,6.774,0,0,0,2.025-.05Z" transform="translate(-927.117 -890.619)" fill="#c2c3ca"/>
            <path id="Trazado_1028380" data-name="Trazado 1028380" d="M1028.51,1002.052l-2.2-1.2-.789,1.948a6.782,6.782,0,0,0,1.779.969Z" transform="translate(-903.603 -881.868)" fill="#c2c3ca"/>
            <path id="Trazado_1028381" data-name="Trazado 1028381" d="M1009.044,983.915l-1.3-2.136-1.658,1.292a6.774,6.774,0,0,0,1.056,1.729Z" transform="translate(-886.473 -865.061)" fill="#c2c3ca"/>
            <path id="Trazado_1028382" data-name="Trazado 1028382" d="M1003.289,961.692l-.062-2.5-2.082.291a6.781,6.781,0,0,0,.05,2.025Z" transform="translate(-882.078 -845.156)" fill="#c2c3ca"/>
            <path id="Trazado_1028383" data-name="Trazado 1028383" d="M1006.683,935.49l1.2-2.2-1.948-.789a6.683,6.683,0,0,0-.552.853,6.759,6.759,0,0,0-.418.926Z" transform="translate(-885.489 -821.642)" fill="#c2c3ca"/>
            <path id="Trazado_1028384" data-name="Trazado 1028384" d="M1058.862,768.1a8.783,8.783,0,1,0,2.917-12.074,8.783,8.783,0,0,0-2.917,12.074m3.524-2.152a4.654,4.654,0,1,1,6.4,1.546,4.653,4.653,0,0,1-6.4-1.546" transform="translate(-931.844 -665.011)" fill="#e0e0e4"/>
            <path id="Trazado_1028385" data-name="Trazado 1028385" d="M1078.305,754.273l3.018-1.843-1.825-2.341a9.563,9.563,0,0,0-2.441,1.491Z" transform="translate(-949.011 -660.915)" fill="#e0e0e4"/>
            <path id="Trazado_1028386" data-name="Trazado 1028386" d="M1115.118,746.147l3.535-.087-.41-2.94a9.575,9.575,0,0,0-2.86.071Z" transform="translate(-982.548 -654.707)" fill="#e0e0e4"/>
            <path id="Trazado_1028387" data-name="Trazado 1028387" d="M1147.052,750.939l3.105,1.692,1.115-2.752a9.572,9.572,0,0,0-2.512-1.369Z" transform="translate(-1010.685 -659.524)" fill="#e0e0e4"/>
            <path id="Trazado_1028388" data-name="Trazado 1028388" d="M1174.809,775.47l1.843,3.018,2.341-1.826a9.579,9.579,0,0,0-1.491-2.442Z" transform="translate(-1035.142 -682.178)" fill="#e0e0e4"/>
            <path id="Trazado_1028389" data-name="Trazado 1028389" d="M1190.952,812.283l.087,3.535,2.94-.41a9.58,9.58,0,0,0-.071-2.86Z" transform="translate(-1049.366 -715.715)" fill="#e0e0e4"/>
            <path id="Trazado_1028390" data-name="Trazado 1028390" d="M1178.617,844.217l-1.692,3.105,2.751,1.115a9.555,9.555,0,0,0,1.369-2.512Z" transform="translate(-1037.007 -743.853)" fill="#e0e0e4"/>
            <path id="Trazado_1028391" data-name="Trazado 1028391" d="M1153,871.974l-3.018,1.843,1.825,2.341a9.588,9.588,0,0,0,2.442-1.491Z" transform="translate(-1013.266 -768.31)" fill="#e0e0e4"/>
            <path id="Trazado_1028392" data-name="Trazado 1028392" d="M1121.611,888.117l-3.535.087.41,2.94a9.574,9.574,0,0,0,2.86-.071Z" transform="translate(-985.154 -782.533)" fill="#e0e0e4"/>
            <path id="Trazado_1028393" data-name="Trazado 1028393" d="M1084.6,875.781l-3.105-1.692-1.115,2.752a9.584,9.584,0,0,0,2.512,1.369Z" transform="translate(-951.941 -770.173)" fill="#e0e0e4"/>
            <path id="Trazado_1028394" data-name="Trazado 1028394" d="M1057.107,850.164l-1.843-3.018-2.341,1.826a9.566,9.566,0,0,0,1.491,2.441Z" transform="translate(-927.747 -746.433)" fill="#e0e0e4"/>
            <path id="Trazado_1028395" data-name="Trazado 1028395" d="M1048.982,818.776l-.088-3.535-2.94.41a9.531,9.531,0,0,0,.071,2.86Z" transform="translate(-921.54 -718.321)" fill="#e0e0e4"/>
            <path id="Trazado_1028396" data-name="Trazado 1028396" d="M1053.775,781.767l1.692-3.105-2.752-1.115a9.581,9.581,0,0,0-1.369,2.512Z" transform="translate(-926.357 -685.109)" fill="#e0e0e4"/>
            <rect id="Rectángulo_458768" data-name="Rectángulo 458768" width="1.747" height="18.312" transform="matrix(0.763, -0.647, 0.647, 0.763, 127.839, 87.396)" fill="#2f354c"/>
            <path id="Trazado_1028397" data-name="Trazado 1028397" d="M1115.264,773.514h0a1.4,1.4,0,0,0,.162-1.974l-7.807-9.208-2.136,1.811,7.807,9.208a1.4,1.4,0,0,0,1.974.162" transform="translate(-974.058 -671.702)" fill="#767000"/>
            <path id="Trazado_1028398" data-name="Trazado 1028398" d="M934.076,588.9a11.025,11.025,0,1,0,1.279-15.539,11.025,11.025,0,0,0-1.279,15.539m.758-.642a10.032,10.032,0,1,1,14.139,1.164,10.032,10.032,0,0,1-14.139-1.164" transform="translate(-820.723 -502.895)" fill="#2f354c"/>
            <g id="Grupo_1186199" data-name="Grupo 1186199" transform="translate(111.73 68.847)" opacity="0.33">
              <g id="Grupo_1186198" data-name="Grupo 1186198">
                <g id="Grupo_1186197" data-name="Grupo 1186197" clip-path="url(#clip-path-9)">
                  <path id="Trazado_1028399" data-name="Trazado 1028399" d="M956.337,596.789A10.039,10.039,0,1,1,957.5,582.65a10.035,10.035,0,0,1-1.164,14.139" transform="translate(-939.817 -579.107)" fill="#2d334a"/>
                </g>
              </g>
            </g>
            <rect id="Rectángulo_458770" data-name="Rectángulo 458770" width="22.656" height="24.113" transform="translate(148.934 139.216)" fill="#e8bba0"/>
            <rect id="Rectángulo_458771" data-name="Rectángulo 458771" width="22.656" height="24.113" transform="translate(171.614 139.216)" fill="#c7977d"/>
            <path id="Trazado_1028400" data-name="Trazado 1028400" d="M1477.515,1179.74h-22.656l-11.328-8.724h22.656Z" transform="translate(-1271.917 -1031.801)" fill="#ddad99"/>
            <path id="Trazado_1028401" data-name="Trazado 1028401" d="M1157.676,1179.74h22.656l11.328-8.724H1169Z" transform="translate(-1020.046 -1031.801)" fill="#d4a58c"/>
            <rect id="Rectángulo_458772" data-name="Rectángulo 458772" width="3.969" height="26.914" transform="translate(174.723 104.954)" fill="#f9bd4b"/>
            <path id="Trazado_1028402" data-name="Trazado 1028402" d="M1439.583,821.533l-5.933,13.357,6.146-4.984,6.392,4.663Z" transform="translate(-1263.211 -723.866)" fill="#f9bd4b"/>
            <rect id="Rectángulo_458773" data-name="Rectángulo 458773" width="3.969" height="26.914" transform="translate(163.162 101.16)" fill="#798e96"/>
            <path id="Trazado_1028403" data-name="Trazado 1028403" d="M1343.007,1034.484l5.932-13.357-6.146,4.984-6.392-4.663Z" transform="translate(-1177.524 -899.731)" fill="#798e96"/>
            <rect id="Rectángulo_458774" data-name="Rectángulo 458774" width="1.36" height="69.112" transform="translate(147.891 3.369)" fill="#575c6e"/>
            <rect id="Rectángulo_458775" data-name="Rectángulo 458775" width="1.36" height="69.112" transform="translate(182.953 3.369)" fill="#575c6e"/>
            <rect id="Rectángulo_458776" data-name="Rectángulo 458776" width="36.823" height="2.385" transform="translate(147.697 62.782)" fill="#767a89"/>
            <path id="Trazado_1028404" data-name="Trazado 1028404" d="M1266.792,534.035h0a.3.3,0,0,1-.3-.3v-.675a.3.3,0,1,1,.6,0v.675a.3.3,0,0,1-.3.3" transform="translate(-1115.926 -469.423)" fill="#2d334a"/>
            <path id="Trazado_1028405" data-name="Trazado 1028405" d="M1288.151,534.035h0a.3.3,0,0,1-.3-.3v-.675a.3.3,0,0,1,.6,0v.675a.3.3,0,0,1-.3.3" transform="translate(-1134.745 -469.423)" fill="#2d334a"/>
            <path id="Trazado_1028406" data-name="Trazado 1028406" d="M1309.51,534.035h0a.3.3,0,0,1-.3-.3v-.675a.3.3,0,1,1,.6,0v.675a.3.3,0,0,1-.3.3" transform="translate(-1153.565 -469.423)" fill="#2d334a"/>
            <path id="Trazado_1028407" data-name="Trazado 1028407" d="M1330.869,534.035h0a.3.3,0,0,1-.3-.3v-.675a.3.3,0,1,1,.6,0v.675a.3.3,0,0,1-.3.3" transform="translate(-1172.385 -469.423)" fill="#2d334a"/>
            <path id="Trazado_1028408" data-name="Trazado 1028408" d="M1352.228,534.035h0a.3.3,0,0,1-.3-.3v-.675a.3.3,0,1,1,.6,0v.675a.3.3,0,0,1-.3.3" transform="translate(-1191.205 -469.423)" fill="#2d334a"/>
            <path id="Trazado_1028409" data-name="Trazado 1028409" d="M1373.587,534.035h0a.3.3,0,0,1-.3-.3v-.675a.3.3,0,0,1,.6,0v.675a.3.3,0,0,1-.3.3" transform="translate(-1210.024 -469.423)" fill="#2d334a"/>
            <path id="Trazado_1028410" data-name="Trazado 1028410" d="M1394.947,534.035h0a.3.3,0,0,1-.3-.3v-.675a.3.3,0,1,1,.6,0v.675a.3.3,0,0,1-.3.3" transform="translate(-1228.845 -469.423)" fill="#2d334a"/>
            <path id="Trazado_1028411" data-name="Trazado 1028411" d="M1416.306,534.035h0a.3.3,0,0,1-.3-.3v-.675a.3.3,0,1,1,.6,0v.675a.3.3,0,0,1-.3.3" transform="translate(-1247.665 -469.423)" fill="#2d334a"/>
            <path id="Trazado_1028412" data-name="Trazado 1028412" d="M1437.665,534.035h0a.3.3,0,0,1-.3-.3v-.675a.3.3,0,1,1,.6,0v.675a.3.3,0,0,1-.3.3" transform="translate(-1266.484 -469.423)" fill="#2d334a"/>
            <path id="Trazado_1028413" data-name="Trazado 1028413" d="M1459.024,534.035h0a.3.3,0,0,1-.3-.3v-.675a.3.3,0,1,1,.6,0v.675a.3.3,0,0,1-.3.3" transform="translate(-1285.304 -469.423)" fill="#2d334a"/>
            <path id="Trazado_1028414" data-name="Trazado 1028414" d="M1480.383,534.035h0a.3.3,0,0,1-.3-.3v-.675a.3.3,0,1,1,.6,0v.675a.3.3,0,0,1-.3.3" transform="translate(-1304.124 -469.423)" fill="#2d334a"/>
            <path id="Trazado_1028415" data-name="Trazado 1028415" d="M1501.742,534.035h0a.3.3,0,0,1-.3-.3v-.675a.3.3,0,1,1,.6,0v.675a.3.3,0,0,1-.3.3" transform="translate(-1322.944 -469.423)" fill="#2d334a"/>
            <path id="Trazado_1028416" data-name="Trazado 1028416" d="M1523.1,534.035h0a.3.3,0,0,1-.3-.3v-.675a.3.3,0,1,1,.6,0v.675a.3.3,0,0,1-.3.3" transform="translate(-1341.764 -469.423)" fill="#2d334a"/>
            <rect id="Rectángulo_458777" data-name="Rectángulo 458777" width="36.823" height="2.385" transform="translate(147.697 41.522)" fill="#767a89"/>
            <path id="Trazado_1028417" data-name="Trazado 1028417" d="M1266.792,355.209h0a.3.3,0,0,1-.3-.3v-.675a.3.3,0,1,1,.6,0v.675a.3.3,0,0,1-.3.3" transform="translate(-1115.926 -311.857)" fill="#2d334a"/>
            <path id="Trazado_1028418" data-name="Trazado 1028418" d="M1288.151,355.209h0a.3.3,0,0,1-.3-.3v-.675a.3.3,0,0,1,.6,0v.675a.3.3,0,0,1-.3.3" transform="translate(-1134.745 -311.857)" fill="#2d334a"/>
            <path id="Trazado_1028419" data-name="Trazado 1028419" d="M1309.51,355.209h0a.3.3,0,0,1-.3-.3v-.675a.3.3,0,1,1,.6,0v.675a.3.3,0,0,1-.3.3" transform="translate(-1153.565 -311.857)" fill="#2d334a"/>
            <path id="Trazado_1028420" data-name="Trazado 1028420" d="M1330.869,355.209h0a.3.3,0,0,1-.3-.3v-.675a.3.3,0,1,1,.6,0v.675a.3.3,0,0,1-.3.3" transform="translate(-1172.385 -311.857)" fill="#2d334a"/>
            <path id="Trazado_1028421" data-name="Trazado 1028421" d="M1352.228,355.209h0a.3.3,0,0,1-.3-.3v-.675a.3.3,0,1,1,.6,0v.675a.3.3,0,0,1-.3.3" transform="translate(-1191.205 -311.857)" fill="#2d334a"/>
            <path id="Trazado_1028422" data-name="Trazado 1028422" d="M1373.587,355.209h0a.3.3,0,0,1-.3-.3v-.675a.3.3,0,0,1,.6,0v.675a.3.3,0,0,1-.3.3" transform="translate(-1210.024 -311.857)" fill="#2d334a"/>
            <path id="Trazado_1028423" data-name="Trazado 1028423" d="M1394.947,355.209h0a.3.3,0,0,1-.3-.3v-.675a.3.3,0,1,1,.6,0v.675a.3.3,0,0,1-.3.3" transform="translate(-1228.845 -311.857)" fill="#2d334a"/>
            <path id="Trazado_1028424" data-name="Trazado 1028424" d="M1416.306,355.209h0a.3.3,0,0,1-.3-.3v-.675a.3.3,0,1,1,.6,0v.675a.3.3,0,0,1-.3.3" transform="translate(-1247.665 -311.857)" fill="#2d334a"/>
            <path id="Trazado_1028425" data-name="Trazado 1028425" d="M1437.665,355.209h0a.3.3,0,0,1-.3-.3v-.675a.3.3,0,1,1,.6,0v.675a.3.3,0,0,1-.3.3" transform="translate(-1266.484 -311.857)" fill="#2d334a"/>
            <path id="Trazado_1028426" data-name="Trazado 1028426" d="M1459.024,355.209h0a.3.3,0,0,1-.3-.3v-.675a.3.3,0,1,1,.6,0v.675a.3.3,0,0,1-.3.3" transform="translate(-1285.304 -311.857)" fill="#2d334a"/>
            <path id="Trazado_1028427" data-name="Trazado 1028427" d="M1480.383,355.209h0a.3.3,0,0,1-.3-.3v-.675a.3.3,0,1,1,.6,0v.675a.3.3,0,0,1-.3.3" transform="translate(-1304.124 -311.857)" fill="#2d334a"/>
            <path id="Trazado_1028428" data-name="Trazado 1028428" d="M1501.742,355.209h0a.3.3,0,0,1-.3-.3v-.675a.3.3,0,1,1,.6,0v.675a.3.3,0,0,1-.3.3" transform="translate(-1322.944 -311.857)" fill="#2d334a"/>
            <path id="Trazado_1028429" data-name="Trazado 1028429" d="M1523.1,355.209h0a.3.3,0,0,1-.3-.3v-.675a.3.3,0,1,1,.6,0v.675a.3.3,0,0,1-.3.3" transform="translate(-1341.764 -311.857)" fill="#2d334a"/>
            <rect id="Rectángulo_458778" data-name="Rectángulo 458778" width="36.823" height="2.385" transform="translate(147.697 20.263)" fill="#767a89"/>
            <path id="Trazado_1028430" data-name="Trazado 1028430" d="M1266.792,176.383h0a.3.3,0,0,1-.3-.3v-.675a.3.3,0,0,1,.6,0v.675a.3.3,0,0,1-.3.3" transform="translate(-1115.926 -154.29)" fill="#2d334a"/>
            <path id="Trazado_1028431" data-name="Trazado 1028431" d="M1288.151,176.383h0a.3.3,0,0,1-.3-.3v-.675a.3.3,0,0,1,.6,0v.675a.3.3,0,0,1-.3.3" transform="translate(-1134.745 -154.29)" fill="#2d334a"/>
            <path id="Trazado_1028432" data-name="Trazado 1028432" d="M1309.51,176.383h0a.3.3,0,0,1-.3-.3v-.675a.3.3,0,0,1,.6,0v.675a.3.3,0,0,1-.3.3" transform="translate(-1153.565 -154.29)" fill="#2d334a"/>
            <path id="Trazado_1028433" data-name="Trazado 1028433" d="M1330.869,176.383h0a.3.3,0,0,1-.3-.3v-.675a.3.3,0,0,1,.6,0v.675a.3.3,0,0,1-.3.3" transform="translate(-1172.385 -154.29)" fill="#2d334a"/>
            <path id="Trazado_1028434" data-name="Trazado 1028434" d="M1352.228,176.383h0a.3.3,0,0,1-.3-.3v-.675a.3.3,0,0,1,.6,0v.675a.3.3,0,0,1-.3.3" transform="translate(-1191.205 -154.29)" fill="#2d334a"/>
            <path id="Trazado_1028435" data-name="Trazado 1028435" d="M1373.587,176.383h0a.3.3,0,0,1-.3-.3v-.675a.3.3,0,0,1,.6,0v.675a.3.3,0,0,1-.3.3" transform="translate(-1210.024 -154.29)" fill="#2d334a"/>
            <path id="Trazado_1028436" data-name="Trazado 1028436" d="M1394.947,176.383h0a.3.3,0,0,1-.3-.3v-.675a.3.3,0,0,1,.6,0v.675a.3.3,0,0,1-.3.3" transform="translate(-1228.845 -154.29)" fill="#2d334a"/>
            <path id="Trazado_1028437" data-name="Trazado 1028437" d="M1416.306,176.383h0a.3.3,0,0,1-.3-.3v-.675a.3.3,0,0,1,.6,0v.675a.3.3,0,0,1-.3.3" transform="translate(-1247.665 -154.29)" fill="#2d334a"/>
            <path id="Trazado_1028438" data-name="Trazado 1028438" d="M1437.665,176.383h0a.3.3,0,0,1-.3-.3v-.675a.3.3,0,1,1,.6,0v.675a.3.3,0,0,1-.3.3" transform="translate(-1266.484 -154.29)" fill="#2d334a"/>
            <path id="Trazado_1028439" data-name="Trazado 1028439" d="M1459.024,176.383h0a.3.3,0,0,1-.3-.3v-.675a.3.3,0,0,1,.6,0v.675a.3.3,0,0,1-.3.3" transform="translate(-1285.304 -154.29)" fill="#2d334a"/>
            <path id="Trazado_1028440" data-name="Trazado 1028440" d="M1480.383,176.383h0a.3.3,0,0,1-.3-.3v-.675a.3.3,0,0,1,.6,0v.675a.3.3,0,0,1-.3.3" transform="translate(-1304.124 -154.29)" fill="#2d334a"/>
            <path id="Trazado_1028441" data-name="Trazado 1028441" d="M1501.742,176.383h0a.3.3,0,0,1-.3-.3v-.675a.3.3,0,0,1,.6,0v.675a.3.3,0,0,1-.3.3" transform="translate(-1322.944 -154.29)" fill="#2d334a"/>
            <path id="Trazado_1028442" data-name="Trazado 1028442" d="M1523.1,176.383h0a.3.3,0,0,1-.3-.3v-.675a.3.3,0,0,1,.6,0v.675a.3.3,0,0,1-.3.3" transform="translate(-1341.764 -154.29)" fill="#2d334a"/>
            <rect id="Rectángulo_458779" data-name="Rectángulo 458779" width="28.369" height="16.079" transform="translate(152.161 25.592)" fill="#e8bba0"/>
            <g id="Grupo_1186202" data-name="Grupo 1186202" transform="translate(152.16 33.036)" opacity="0.46">
              <g id="Grupo_1186201" data-name="Grupo 1186201">
                <g id="Grupo_1186200" data-name="Grupo 1186200" clip-path="url(#clip-path-10)">
                  <rect id="Rectángulo_458780" data-name="Rectángulo 458780" width="28.368" height="1.191" fill="#fff"/>
                </g>
              </g>
            </g>
            <g id="Grupo_1186205" data-name="Grupo 1186205" transform="translate(165.749 25.592)" opacity="0.46">
              <g id="Grupo_1186204" data-name="Grupo 1186204">
                <g id="Grupo_1186203" data-name="Grupo 1186203" clip-path="url(#clip-path-11)">
                  <rect id="Rectángulo_458782" data-name="Rectángulo 458782" width="1.191" height="16.079" transform="translate(0 -0.001)" fill="#fff"/>
                </g>
              </g>
            </g>
            <rect id="Rectángulo_458784" data-name="Rectángulo 458784" width="0.56" height="4.821" transform="translate(154.245 36.022)" fill="#ba927c"/>
            <path id="Trazado_1028443" data-name="Trazado 1028443" d="M1291.294,299.814l-.925-.925-.925.925-.346-.345,1.271-1.271,1.271,1.271Z" transform="translate(-1135.844 -262.747)" fill="#ba927c"/>
            <rect id="Rectángulo_458785" data-name="Rectángulo 458785" width="5.956" height="2.492" transform="translate(168.878 37.936)" fill="#fff"/>
            <rect id="Rectángulo_458786" data-name="Rectángulo 458786" width="0.218" height="1.604" transform="translate(169.384 38.38)" fill="#8f7d7f"/>
            <rect id="Rectángulo_458787" data-name="Rectángulo 458787" width="0.109" height="1.604" transform="translate(169.722 38.38)" fill="#8f7d7f"/>
            <rect id="Rectángulo_458788" data-name="Rectángulo 458788" width="0.073" height="1.604" transform="translate(170.059 38.38)" fill="#8f7d7f"/>
            <rect id="Rectángulo_458789" data-name="Rectángulo 458789" width="0.632" height="1.604" transform="translate(170.32 38.38)" fill="#8f7d7f"/>
            <rect id="Rectángulo_458790" data-name="Rectángulo 458790" width="0.076" height="1.604" transform="translate(171.215 38.38)" fill="#8f7d7f"/>
            <rect id="Rectángulo_458791" data-name="Rectángulo 458791" width="0.065" height="1.604" transform="translate(171.563 38.38)" fill="#8f7d7f"/>
            <rect id="Rectángulo_458792" data-name="Rectángulo 458792" width="0.062" height="1.604" transform="translate(171.904 38.38)" fill="#8f7d7f"/>
            <rect id="Rectángulo_458793" data-name="Rectángulo 458793" width="0.077" height="1.604" transform="translate(172.085 38.38)" fill="#8f7d7f"/>
            <rect id="Rectángulo_458794" data-name="Rectángulo 458794" width="0.371" height="1.604" transform="translate(172.27 38.38)" fill="#8f7d7f"/>
            <rect id="Rectángulo_458795" data-name="Rectángulo 458795" width="0.063" height="1.604" transform="translate(172.916 38.38)" fill="#8f7d7f"/>
            <rect id="Rectángulo_458796" data-name="Rectángulo 458796" width="0.081" height="1.604" transform="translate(173.026 38.38)" fill="#8f7d7f"/>
            <rect id="Rectángulo_458797" data-name="Rectángulo 458797" width="0.461" height="1.604" transform="translate(173.193 38.38)" fill="#8f7d7f"/>
            <rect id="Rectángulo_458798" data-name="Rectángulo 458798" width="0.085" height="1.604" transform="translate(173.906 38.38)" fill="#8f7d7f"/>
            <rect id="Rectángulo_458799" data-name="Rectángulo 458799" width="0.218" height="1.604" transform="translate(174.111 38.38)" fill="#8f7d7f"/>
            <rect id="Rectángulo_458800" data-name="Rectángulo 458800" width="19.852" height="11.252" transform="translate(151.431 9.227)" fill="#e8bba0"/>
            <g id="Grupo_1186208" data-name="Grupo 1186208" transform="translate(151.432 14.436)" opacity="0.46">
              <g id="Grupo_1186207" data-name="Grupo 1186207">
                <g id="Grupo_1186206" data-name="Grupo 1186206" clip-path="url(#clip-path-12)">
                  <rect id="Rectángulo_458801" data-name="Rectángulo 458801" width="19.852" height="0.834" transform="translate(0 0)" fill="#fff"/>
                </g>
              </g>
            </g>
            <g id="Grupo_1186211" data-name="Grupo 1186211" transform="translate(160.94 9.227)" opacity="0.46">
              <g id="Grupo_1186210" data-name="Grupo 1186210">
                <g id="Grupo_1186209" data-name="Grupo 1186209" clip-path="url(#clip-path-13)">
                  <rect id="Rectángulo_458803" data-name="Rectángulo 458803" width="0.833" height="11.252" transform="translate(0 0)" fill="#fff"/>
                </g>
              </g>
            </g>
            <rect id="Rectángulo_458805" data-name="Rectángulo 458805" width="0.392" height="3.374" transform="translate(152.89 16.526)" fill="#ba927c"/>
            <path id="Trazado_1028444" data-name="Trazado 1028444" d="M1281.74,136.78l-.648-.648-.647.648-.242-.242.889-.889.89.889Z" transform="translate(-1128.006 -119.523)" fill="#ba927c"/>
            <rect id="Rectángulo_458806" data-name="Rectángulo 458806" width="4.168" height="1.744" transform="translate(163.13 17.865)" fill="#fff"/>
            <rect id="Rectángulo_458807" data-name="Rectángulo 458807" width="0.153" height="1.122" transform="translate(163.484 18.176)" fill="#8f7d7f"/>
            <rect id="Rectángulo_458808" data-name="Rectángulo 458808" width="0.076" height="1.122" transform="translate(163.72 18.176)" fill="#8f7d7f"/>
            <rect id="Rectángulo_458809" data-name="Rectángulo 458809" width="0.051" height="1.122" transform="translate(163.957 18.176)" fill="#8f7d7f"/>
            <rect id="Rectángulo_458810" data-name="Rectángulo 458810" width="0.443" height="1.122" transform="translate(164.139 18.176)" fill="#8f7d7f"/>
            <rect id="Rectángulo_458811" data-name="Rectángulo 458811" width="0.053" height="1.122" transform="translate(164.765 18.176)" fill="#8f7d7f"/>
            <rect id="Rectángulo_458812" data-name="Rectángulo 458812" width="0.045" height="1.122" transform="translate(165.009 18.176)" fill="#8f7d7f"/>
            <rect id="Rectángulo_458813" data-name="Rectángulo 458813" width="0.043" height="1.122" transform="translate(165.247 18.176)" fill="#8f7d7f"/>
            <rect id="Rectángulo_458814" data-name="Rectángulo 458814" width="0.054" height="1.122" transform="translate(165.374 18.176)" fill="#8f7d7f"/>
            <rect id="Rectángulo_458815" data-name="Rectángulo 458815" width="0.26" height="1.122" transform="translate(165.503 18.176)" fill="#8f7d7f"/>
            <rect id="Rectángulo_458816" data-name="Rectángulo 458816" width="0.044" height="1.122" transform="translate(165.955 18.176)" fill="#8f7d7f"/>
            <rect id="Rectángulo_458817" data-name="Rectángulo 458817" width="0.057" height="1.122" transform="translate(166.033 18.176)" fill="#8f7d7f"/>
            <rect id="Rectángulo_458818" data-name="Rectángulo 458818" width="0.323" height="1.122" transform="translate(166.15 18.176)" fill="#8f7d7f"/>
            <rect id="Rectángulo_458819" data-name="Rectángulo 458819" width="0.06" height="1.122" transform="translate(166.649 18.176)" fill="#8f7d7f"/>
            <rect id="Rectángulo_458820" data-name="Rectángulo 458820" width="0.153" height="1.122" transform="translate(166.792 18.176)" fill="#8f7d7f"/>
            <rect id="Rectángulo_458821" data-name="Rectángulo 458821" width="17.351" height="9.834" transform="translate(152.528 53.039)" fill="#e8bba0"/>
            <g id="Grupo_1186214" data-name="Grupo 1186214" transform="translate(152.528 57.591)" opacity="0.46">
              <g id="Grupo_1186213" data-name="Grupo 1186213">
                <g id="Grupo_1186212" data-name="Grupo 1186212" clip-path="url(#clip-path-14)">
                  <rect id="Rectángulo_458822" data-name="Rectángulo 458822" width="17.35" height="0.729" transform="translate(0 0)" fill="#fff"/>
                </g>
              </g>
            </g>
            <g id="Grupo_1186217" data-name="Grupo 1186217" transform="translate(160.839 53.039)" opacity="0.46">
              <g id="Grupo_1186216" data-name="Grupo 1186216">
                <g id="Grupo_1186215" data-name="Grupo 1186215" clip-path="url(#clip-path-15)">
                  <rect id="Rectángulo_458824" data-name="Rectángulo 458824" width="0.729" height="9.834" transform="translate(0 -0.001)" fill="#fff"/>
                </g>
              </g>
            </g>
            <rect id="Rectángulo_458826" data-name="Rectángulo 458826" width="0.342" height="2.949" transform="translate(153.803 59.418)" fill="#ba927c"/>
            <path id="Trazado_1028445" data-name="Trazado 1028445" d="M1289.96,497.846l-.566-.566-.566.566-.211-.211.777-.777.777.777Z" transform="translate(-1135.42 -437.789)" fill="#ba927c"/>
            <rect id="Rectángulo_458827" data-name="Rectángulo 458827" width="3.643" height="1.524" transform="translate(162.753 60.588)" fill="#fff"/>
            <rect id="Rectángulo_458828" data-name="Rectángulo 458828" width="0.133" height="0.981" transform="translate(163.062 60.86)" fill="#8f7d7f"/>
            <rect id="Rectángulo_458829" data-name="Rectángulo 458829" width="0.067" height="0.981" transform="translate(163.269 60.86)" fill="#8f7d7f"/>
            <rect id="Rectángulo_458830" data-name="Rectángulo 458830" width="0.045" height="0.981" transform="translate(163.475 60.86)" fill="#8f7d7f"/>
            <rect id="Rectángulo_458831" data-name="Rectángulo 458831" width="0.387" height="0.981" transform="translate(163.635 60.86)" fill="#8f7d7f"/>
            <rect id="Rectángulo_458832" data-name="Rectángulo 458832" width="0.046" height="0.981" transform="translate(164.182 60.86)" fill="#8f7d7f"/>
            <rect id="Rectángulo_458833" data-name="Rectángulo 458833" width="0.039" height="0.981" transform="translate(164.395 60.86)" fill="#8f7d7f"/>
            <rect id="Rectángulo_458834" data-name="Rectángulo 458834" width="0.038" height="0.981" transform="translate(164.603 60.86)" fill="#8f7d7f"/>
            <rect id="Rectángulo_458835" data-name="Rectángulo 458835" width="0.047" height="0.981" transform="translate(164.714 60.86)" fill="#8f7d7f"/>
            <rect id="Rectángulo_458836" data-name="Rectángulo 458836" width="0.227" height="0.981" transform="translate(164.827 60.86)" fill="#8f7d7f"/>
            <rect id="Rectángulo_458837" data-name="Rectángulo 458837" width="0.039" height="0.981" transform="translate(165.222 60.86)" fill="#8f7d7f"/>
            <rect id="Rectángulo_458838" data-name="Rectángulo 458838" width="0.05" height="0.981" transform="translate(165.289 60.86)" fill="#8f7d7f"/>
            <rect id="Rectángulo_458839" data-name="Rectángulo 458839" width="0.282" height="0.981" transform="translate(165.392 60.86)" fill="#8f7d7f"/>
            <rect id="Rectángulo_458840" data-name="Rectángulo 458840" width="0.052" height="0.981" transform="translate(165.828 60.86)" fill="#8f7d7f"/>
            <rect id="Rectángulo_458841" data-name="Rectángulo 458841" width="0.133" height="0.981" transform="translate(165.953 60.86)" fill="#8f7d7f"/>
            <rect id="Rectángulo_458842" data-name="Rectángulo 458842" width="10.842" height="15.984" transform="translate(167.129 46.889)" fill="#d4a58c"/>
            <rect id="Rectángulo_458843" data-name="Rectángulo 458843" width="10.842" height="2.045" transform="translate(167.129 46.889)" fill="#ba927c"/>
            <rect id="Rectángulo_458844" data-name="Rectángulo 458844" width="11.249" height="1.779" transform="translate(166.925 46.679)" fill="#d4a58c"/>
            <g id="Grupo_1186220" data-name="Grupo 1186220" transform="translate(168.511 46.679)" opacity="0.46">
              <g id="Grupo_1186219" data-name="Grupo 1186219">
                <g id="Grupo_1186218" data-name="Grupo 1186218" clip-path="url(#clip-path-16)">
                  <path id="Trazado_1028446" data-name="Trazado 1028446" d="M1418.627,392.637v3.642l-.146.073-.06-.065-.146.065-.12-.065-.051.065-.173-.129-.052.065-.086-.065-.129.129-.069-.129-.1.129-.064-.046v-3.669Z" transform="translate(-1417.427 -392.637)" fill="#fff"/>
                </g>
              </g>
            </g>
            <g id="Grupo_1186223" data-name="Grupo 1186223" transform="translate(175.325 46.679)" opacity="0.46">
              <g id="Grupo_1186222" data-name="Grupo 1186222">
                <g id="Grupo_1186221" data-name="Grupo 1186221" clip-path="url(#clip-path-17)">
                  <path id="Trazado_1028447" data-name="Trazado 1028447" d="M1475.95,392.637v4.856l-.168.086-.086-.043-.06.043-.034-.086-.146.086v-.112l-.106.1-.075-.1-.06.1-.112-.1-.189.1-.043-.056-.121.017v-4.891Z" transform="translate(-1474.75 -392.637)" fill="#fff"/>
                </g>
              </g>
            </g>
            <rect id="Rectángulo_458847" data-name="Rectángulo 458847" width="0.4" height="3.446" transform="translate(168.71 58.46)" fill="#846f71"/>
            <path id="Trazado_1028448" data-name="Trazado 1028448" d="M1414.722,489.462l-.662-.661-.661.661-.247-.247.908-.908.908.908Z" transform="translate(-1245.15 -430.255)" fill="#846f71"/>
            <rect id="Rectángulo_458848" data-name="Rectángulo 458848" width="0.4" height="3.446" transform="translate(176.033 58.46)" fill="#846f71"/>
            <path id="Trazado_1028449" data-name="Trazado 1028449" d="M1476.319,489.462l-.661-.661-.661.661-.247-.247.908-.908.909.908Z" transform="translate(-1299.424 -430.255)" fill="#846f71"/>
            <rect id="Rectángulo_458849" data-name="Rectángulo 458849" width="3.291" height="1.421" transform="translate(168.51 51.621)" fill="#f0dacc"/>
            <rect id="Rectángulo_458850" data-name="Rectángulo 458850" width="2.478" height="0.099" transform="translate(168.859 51.923)" fill="#846f71"/>
            <rect id="Rectángulo_458851" data-name="Rectángulo 458851" width="0.751" height="0.099" transform="translate(168.859 52.143)" fill="#846f71"/>
            <rect id="Rectángulo_458852" data-name="Rectángulo 458852" width="1.264" height="0.099" transform="translate(169.759 52.143)" fill="#846f71"/>
            <rect id="Rectángulo_458853" data-name="Rectángulo 458853" width="2.478" height="0.099" transform="translate(168.859 52.363)" fill="#846f71"/>
            <rect id="Rectángulo_458854" data-name="Rectángulo 458854" width="1.975" height="0.099" transform="translate(168.859 52.582)" fill="#846f71"/>
            <rect id="Rectángulo_458855" data-name="Rectángulo 458855" width="10.842" height="15.984" transform="translate(169.432 4.495)" fill="#d4a58c"/>
            <rect id="Rectángulo_458856" data-name="Rectángulo 458856" width="10.842" height="2.045" transform="translate(169.432 4.495)" fill="#ba927c"/>
            <rect id="Rectángulo_458857" data-name="Rectángulo 458857" width="11.249" height="1.779" transform="translate(169.228 4.285)" fill="#d4a58c"/>
            <g id="Grupo_1186226" data-name="Grupo 1186226" transform="translate(170.813 4.285)" opacity="0.46">
              <g id="Grupo_1186225" data-name="Grupo 1186225">
                <g id="Grupo_1186224" data-name="Grupo 1186224" clip-path="url(#clip-path-16)">
                  <path id="Trazado_1028450" data-name="Trazado 1028450" d="M1438,36.042v3.642l-.146.073-.06-.065-.146.065-.12-.065-.051.065-.173-.129-.052.065-.086-.065-.129.129-.069-.129-.1.129-.064-.046V36.042Z" transform="translate(-1436.797 -36.041)" fill="#fff"/>
                </g>
              </g>
            </g>
            <g id="Grupo_1186229" data-name="Grupo 1186229" transform="translate(177.628 4.285)" opacity="0.46">
              <g id="Grupo_1186228" data-name="Grupo 1186228">
                <g id="Grupo_1186227" data-name="Grupo 1186227" clip-path="url(#clip-path-17)">
                  <path id="Trazado_1028451" data-name="Trazado 1028451" d="M1495.32,36.042V40.9l-.167.086-.086-.043-.06.043-.035-.086-.146.086v-.112l-.105.1-.076-.1-.06.1-.112-.1-.189.1-.043-.056-.121.017V36.042Z" transform="translate(-1494.12 -36.041)" fill="#fff"/>
                </g>
              </g>
            </g>
            <rect id="Rectángulo_458860" data-name="Rectángulo 458860" width="0.4" height="3.446" transform="translate(171.013 16.067)" fill="#846f71"/>
            <path id="Trazado_1028452" data-name="Trazado 1028452" d="M1434.092,132.867l-.662-.661-.661.661-.247-.247.909-.908.908.908Z" transform="translate(-1262.217 -116.053)" fill="#846f71"/>
            <rect id="Rectángulo_458861" data-name="Rectángulo 458861" width="0.4" height="3.446" transform="translate(178.336 16.067)" fill="#846f71"/>
            <path id="Trazado_1028453" data-name="Trazado 1028453" d="M1495.689,132.867l-.661-.661-.661.661-.247-.247.908-.908.908.908Z" transform="translate(-1316.492 -116.053)" fill="#846f71"/>
            <rect id="Rectángulo_458862" data-name="Rectángulo 458862" width="3.291" height="1.421" transform="translate(170.813 9.227)" fill="#f0dacc"/>
            <rect id="Rectángulo_458863" data-name="Rectángulo 458863" width="2.478" height="0.099" transform="translate(171.162 9.53)" fill="#846f71"/>
            <rect id="Rectángulo_458864" data-name="Rectángulo 458864" width="0.751" height="0.099" transform="translate(171.162 9.749)" fill="#846f71"/>
            <rect id="Rectángulo_458865" data-name="Rectángulo 458865" width="1.264" height="0.099" transform="translate(172.062 9.749)" fill="#846f71"/>
            <rect id="Rectángulo_458866" data-name="Rectángulo 458866" width="2.478" height="0.099" transform="translate(171.162 9.969)" fill="#846f71"/>
            <rect id="Rectángulo_458867" data-name="Rectángulo 458867" width="1.975" height="0.099" transform="translate(171.162 10.189)" fill="#846f71"/>
            <rect id="Rectángulo_458868" data-name="Rectángulo 458868" width="46.502" height="26.357" transform="translate(212.887 45.624)" fill="#e8bba0"/>
            <g id="Grupo_1186232" data-name="Grupo 1186232" transform="translate(212.887 57.827)" opacity="0.46">
              <g id="Grupo_1186231" data-name="Grupo 1186231">
                <g id="Grupo_1186230" data-name="Grupo 1186230" clip-path="url(#clip-path-20)">
                  <rect id="Rectángulo_458869" data-name="Rectángulo 458869" width="46.502" height="1.953" transform="translate(0 0)" fill="#fff"/>
                </g>
              </g>
            </g>
            <g id="Grupo_1186235" data-name="Grupo 1186235" transform="translate(235.161 45.624)" opacity="0.46">
              <g id="Grupo_1186234" data-name="Grupo 1186234">
                <g id="Grupo_1186233" data-name="Grupo 1186233" clip-path="url(#clip-path-21)">
                  <rect id="Rectángulo_458871" data-name="Rectángulo 458871" width="1.952" height="26.357" transform="translate(0)" fill="#fff"/>
                </g>
              </g>
            </g>
            <rect id="Rectángulo_458873" data-name="Rectángulo 458873" width="0.918" height="7.903" transform="translate(216.304 62.722)" fill="#ba927c"/>
            <path id="Trazado_1028454" data-name="Trazado 1028454" d="M1809.379,522.362l-1.517-1.517-1.517,1.517-.566-.566,2.083-2.083,2.083,2.083Z" transform="translate(-1591.1 -457.927)" fill="#ba927c"/>
            <rect id="Rectángulo_458874" data-name="Rectángulo 458874" width="9.764" height="4.085" transform="translate(247.363 48.281)" fill="#fff"/>
            <rect id="Rectángulo_458875" data-name="Rectángulo 458875" width="0.357" height="2.629" transform="translate(248.192 49.009)" fill="#8f7d7f"/>
            <rect id="Rectángulo_458876" data-name="Rectángulo 458876" width="0.179" height="2.629" transform="translate(248.746 49.009)" fill="#8f7d7f"/>
            <rect id="Rectángulo_458877" data-name="Rectángulo 458877" width="0.12" height="2.629" transform="translate(249.299 49.009)" fill="#8f7d7f"/>
            <rect id="Rectángulo_458878" data-name="Rectángulo 458878" width="1.037" height="2.629" transform="translate(249.727 49.009)" fill="#8f7d7f"/>
            <rect id="Rectángulo_458879" data-name="Rectángulo 458879" width="0.124" height="2.629" transform="translate(251.193 49.009)" fill="#8f7d7f"/>
            <rect id="Rectángulo_458880" data-name="Rectángulo 458880" width="0.106" height="2.629" transform="translate(251.764 49.009)" fill="#8f7d7f"/>
            <rect id="Rectángulo_458881" data-name="Rectángulo 458881" width="0.102" height="2.629" transform="translate(252.322 49.009)" fill="#8f7d7f"/>
            <rect id="Rectángulo_458882" data-name="Rectángulo 458882" width="0.126" height="2.629" transform="translate(252.62 49.009)" fill="#8f7d7f"/>
            <rect id="Rectángulo_458883" data-name="Rectángulo 458883" width="0.609" height="2.629" transform="translate(252.922 49.009)" fill="#8f7d7f"/>
            <rect id="Rectángulo_458884" data-name="Rectángulo 458884" width="0.103" height="2.629" transform="translate(253.981 49.009)" fill="#8f7d7f"/>
            <rect id="Rectángulo_458885" data-name="Rectángulo 458885" width="0.133" height="2.629" transform="translate(254.162 49.009)" fill="#8f7d7f"/>
            <rect id="Rectángulo_458886" data-name="Rectángulo 458886" width="0.756" height="2.629" transform="translate(254.436 49.009)" fill="#8f7d7f"/>
            <rect id="Rectángulo_458887" data-name="Rectángulo 458887" width="0.14" height="2.629" transform="translate(255.605 49.009)" fill="#8f7d7f"/>
            <rect id="Rectángulo_458888" data-name="Rectángulo 458888" width="0.357" height="2.629" transform="translate(255.941 49.009)" fill="#8f7d7f"/>
            <path id="Trazado_1028455" data-name="Trazado 1028455" d="M1855.916,570.586a9.615,9.615,0,1,1,9.615,9.615,9.615,9.615,0,0,1-9.615-9.615" transform="translate(-1635.276 -494.28)" fill="#aaa661"/>
            <path id="Trazado_1028456" data-name="Trazado 1028456" d="M1897.949,590.827l4.338,4.338,10.2-10.2" transform="translate(-1672.312 -515.419)" fill="none" stroke="#2d334a" stroke-miterlimit="10" stroke-width="17"/>
            <rect id="Rectángulo_458889" data-name="Rectángulo 458889" width="22.33" height="12.656" transform="translate(255.136 123.127)" fill="#e8bba0"/>
            <g id="Grupo_1186238" data-name="Grupo 1186238" transform="translate(255.136 128.986)" opacity="0.46">
              <g id="Grupo_1186237" data-name="Grupo 1186237">
                <g id="Grupo_1186236" data-name="Grupo 1186236" clip-path="url(#clip-path-22)">
                  <rect id="Rectángulo_458890" data-name="Rectángulo 458890" width="22.33" height="0.938" fill="#fff"/>
                </g>
              </g>
            </g>
            <g id="Grupo_1186241" data-name="Grupo 1186241" transform="translate(265.832 123.127)" opacity="0.46">
              <g id="Grupo_1186240" data-name="Grupo 1186240">
                <g id="Grupo_1186239" data-name="Grupo 1186239" clip-path="url(#clip-path-23)">
                  <rect id="Rectángulo_458892" data-name="Rectángulo 458892" width="0.938" height="12.656" transform="translate(0)" fill="#fff"/>
                </g>
              </g>
            </g>
            <rect id="Rectángulo_458894" data-name="Rectángulo 458894" width="0.441" height="3.795" transform="translate(256.777 131.337)" fill="#ba927c"/>
            <path id="Trazado_1028457" data-name="Trazado 1028457" d="M2155.048,1102.231l-.729-.728-.728.728-.271-.272,1-1,1,1Z" transform="translate(-1897.324 -970.072)" fill="#ba927c"/>
            <rect id="Rectángulo_458895" data-name="Rectángulo 458895" width="4.688" height="1.961" transform="translate(268.295 132.843)" fill="#fff"/>
            <rect id="Rectángulo_458896" data-name="Rectángulo 458896" width="0.172" height="1.262" transform="translate(268.693 133.192)" fill="#8f7d7f"/>
            <rect id="Rectángulo_458897" data-name="Rectángulo 458897" width="0.086" height="1.262" transform="translate(268.959 133.192)" fill="#8f7d7f"/>
            <rect id="Rectángulo_458898" data-name="Rectángulo 458898" width="0.057" height="1.262" transform="translate(269.225 133.192)" fill="#8f7d7f"/>
            <rect id="Rectángulo_458899" data-name="Rectángulo 458899" width="0.498" height="1.262" transform="translate(269.43 133.192)" fill="#8f7d7f"/>
            <rect id="Rectángulo_458900" data-name="Rectángulo 458900" width="0.06" height="1.262" transform="translate(270.134 133.192)" fill="#8f7d7f"/>
            <rect id="Rectángulo_458901" data-name="Rectángulo 458901" width="0.051" height="1.262" transform="translate(270.408 133.192)" fill="#8f7d7f"/>
            <rect id="Rectángulo_458902" data-name="Rectángulo 458902" width="0.049" height="1.262" transform="translate(270.676 133.192)" fill="#8f7d7f"/>
            <rect id="Rectángulo_458903" data-name="Rectángulo 458903" width="0.06" height="1.262" transform="translate(270.819 133.192)" fill="#8f7d7f"/>
            <rect id="Rectángulo_458904" data-name="Rectángulo 458904" width="0.292" height="1.262" transform="translate(270.964 133.192)" fill="#8f7d7f"/>
            <rect id="Rectángulo_458905" data-name="Rectángulo 458905" width="0.05" height="1.262" transform="translate(271.473 133.192)" fill="#8f7d7f"/>
            <rect id="Rectángulo_458906" data-name="Rectángulo 458906" width="0.064" height="1.262" transform="translate(271.56 133.192)" fill="#8f7d7f"/>
            <rect id="Rectángulo_458907" data-name="Rectángulo 458907" width="0.363" height="1.262" transform="translate(271.691 133.192)" fill="#8f7d7f"/>
            <rect id="Rectángulo_458908" data-name="Rectángulo 458908" width="0.067" height="1.262" transform="translate(272.252 133.192)" fill="#8f7d7f"/>
            <rect id="Rectángulo_458909" data-name="Rectángulo 458909" width="0.172" height="1.262" transform="translate(272.414 133.192)" fill="#8f7d7f"/>
            <rect id="Rectángulo_458910" data-name="Rectángulo 458910" width="22.33" height="12.656" transform="translate(239.087 103.031)" fill="#e8bba0"/>
            <g id="Grupo_1186244" data-name="Grupo 1186244" transform="translate(239.086 108.89)" opacity="0.46">
              <g id="Grupo_1186243" data-name="Grupo 1186243">
                <g id="Grupo_1186242" data-name="Grupo 1186242" clip-path="url(#clip-path-22)">
                  <rect id="Rectángulo_458911" data-name="Rectángulo 458911" width="22.33" height="0.938" transform="translate(0.001)" fill="#fff"/>
                </g>
              </g>
            </g>
            <g id="Grupo_1186247" data-name="Grupo 1186247" transform="translate(249.783 103.031)" opacity="0.46">
              <g id="Grupo_1186246" data-name="Grupo 1186246">
                <g id="Grupo_1186245" data-name="Grupo 1186245" clip-path="url(#clip-path-25)">
                  <rect id="Rectángulo_458913" data-name="Rectángulo 458913" width="0.938" height="12.656" transform="translate(0 0)" fill="#fff"/>
                </g>
              </g>
            </g>
            <rect id="Rectángulo_458915" data-name="Rectángulo 458915" width="0.441" height="3.795" transform="translate(240.728 111.241)" fill="#ba927c"/>
            <path id="Trazado_1028458" data-name="Trazado 1028458" d="M2020.053,933.2l-.728-.728-.729.728-.272-.272,1-1,1,1Z" transform="translate(-1778.377 -821.133)" fill="#ba927c"/>
            <rect id="Rectángulo_458916" data-name="Rectángulo 458916" width="4.688" height="1.961" transform="translate(252.246 112.747)" fill="#fff"/>
            <rect id="Rectángulo_458917" data-name="Rectángulo 458917" width="0.172" height="1.262" transform="translate(252.644 113.096)" fill="#8f7d7f"/>
            <rect id="Rectángulo_458918" data-name="Rectángulo 458918" width="0.086" height="1.262" transform="translate(252.91 113.096)" fill="#8f7d7f"/>
            <rect id="Rectángulo_458919" data-name="Rectángulo 458919" width="0.057" height="1.262" transform="translate(253.176 113.096)" fill="#8f7d7f"/>
            <rect id="Rectángulo_458920" data-name="Rectángulo 458920" width="0.498" height="1.262" transform="translate(253.381 113.096)" fill="#8f7d7f"/>
            <rect id="Rectángulo_458921" data-name="Rectángulo 458921" width="0.06" height="1.262" transform="translate(254.085 113.096)" fill="#8f7d7f"/>
            <rect id="Rectángulo_458922" data-name="Rectángulo 458922" width="0.051" height="1.262" transform="translate(254.359 113.096)" fill="#8f7d7f"/>
            <rect id="Rectángulo_458923" data-name="Rectángulo 458923" width="0.049" height="1.262" transform="translate(254.627 113.096)" fill="#8f7d7f"/>
            <rect id="Rectángulo_458924" data-name="Rectángulo 458924" width="0.06" height="1.262" transform="translate(254.77 113.096)" fill="#8f7d7f"/>
            <rect id="Rectángulo_458925" data-name="Rectángulo 458925" width="0.292" height="1.262" transform="translate(254.915 113.096)" fill="#8f7d7f"/>
            <rect id="Rectángulo_458926" data-name="Rectángulo 458926" width="0.05" height="1.262" transform="translate(255.424 113.096)" fill="#8f7d7f"/>
            <rect id="Rectángulo_458927" data-name="Rectángulo 458927" width="0.064" height="1.262" transform="translate(255.511 113.096)" fill="#8f7d7f"/>
            <rect id="Rectángulo_458928" data-name="Rectángulo 458928" width="0.363" height="1.262" transform="translate(255.642 113.096)" fill="#8f7d7f"/>
            <rect id="Rectángulo_458929" data-name="Rectángulo 458929" width="0.067" height="1.262" transform="translate(256.204 113.096)" fill="#8f7d7f"/>
            <rect id="Rectángulo_458930" data-name="Rectángulo 458930" width="0.172" height="1.262" transform="translate(256.365 113.096)" fill="#8f7d7f"/>
            <rect id="Rectángulo_458931" data-name="Rectángulo 458931" width="10.842" height="15.984" transform="translate(247.223 87.221)" fill="#d4a58c"/>
            <rect id="Rectángulo_458932" data-name="Rectángulo 458932" width="10.842" height="2.045" transform="translate(247.223 87.221)" fill="#ba927c"/>
            <rect id="Rectángulo_458933" data-name="Rectángulo 458933" width="11.249" height="1.779" transform="translate(247.02 87.011)" fill="#d4a58c"/>
            <g id="Grupo_1186250" data-name="Grupo 1186250" transform="translate(248.604 87.011)" opacity="0.46">
              <g id="Grupo_1186249" data-name="Grupo 1186249">
                <g id="Grupo_1186248" data-name="Grupo 1186248" clip-path="url(#clip-path-26)">
                  <path id="Trazado_1028459" data-name="Trazado 1028459" d="M2092.339,731.894v3.642l-.146.073-.06-.065-.146.065-.121-.065-.051.065-.173-.129-.052.065-.086-.065-.129.129-.069-.129-.1.129-.065-.046v-3.669Z" transform="translate(-2091.139 -731.894)" fill="#fff"/>
                </g>
              </g>
            </g>
            <g id="Grupo_1186253" data-name="Grupo 1186253" transform="translate(255.419 87.011)" opacity="0.46">
              <g id="Grupo_1186252" data-name="Grupo 1186252">
                <g id="Grupo_1186251" data-name="Grupo 1186251" clip-path="url(#clip-path-17)">
                  <path id="Trazado_1028460" data-name="Trazado 1028460" d="M2149.663,731.894v4.856l-.167.086-.086-.043-.061.043-.034-.086-.146.086v-.112l-.105.1-.076-.1-.06.1-.112-.1-.189.1-.043-.056-.12.017v-4.891Z" transform="translate(-2148.462 -731.894)" fill="#fff"/>
                </g>
              </g>
            </g>
            <rect id="Rectángulo_458936" data-name="Rectángulo 458936" width="0.4" height="3.446" transform="translate(248.804 98.793)" fill="#846f71"/>
            <path id="Trazado_1028461" data-name="Trazado 1028461" d="M2088.435,828.719l-.662-.661-.661.661-.247-.247.908-.909.909.909Z" transform="translate(-1838.769 -729.18)" fill="#846f71"/>
            <rect id="Rectángulo_458937" data-name="Rectángulo 458937" width="0.4" height="3.446" transform="translate(256.127 98.793)" fill="#846f71"/>
            <path id="Trazado_1028462" data-name="Trazado 1028462" d="M2150.032,828.719l-.662-.661-.662.661-.247-.247.908-.909.908.909Z" transform="translate(-1893.043 -729.18)" fill="#846f71"/>
            <rect id="Rectángulo_458938" data-name="Rectángulo 458938" width="3.291" height="1.421" transform="translate(248.604 91.953)" fill="#f0dacc"/>
            <rect id="Rectángulo_458939" data-name="Rectángulo 458939" width="2.478" height="0.099" transform="translate(248.953 92.256)" fill="#846f71"/>
            <rect id="Rectángulo_458940" data-name="Rectángulo 458940" width="0.751" height="0.099" transform="translate(248.953 92.476)" fill="#846f71"/>
            <rect id="Rectángulo_458941" data-name="Rectángulo 458941" width="1.264" height="0.099" transform="translate(249.853 92.476)" fill="#846f71"/>
            <rect id="Rectángulo_458942" data-name="Rectángulo 458942" width="2.478" height="0.099" transform="translate(248.953 92.695)" fill="#846f71"/>
            <rect id="Rectángulo_458943" data-name="Rectángulo 458943" width="1.975" height="0.099" transform="translate(248.953 92.915)" fill="#846f71"/>
          </g>
        </g>
        <g id="Grupo_1186257" data-name="Grupo 1186257" transform="translate(212.916 105.995)">
          <g id="Grupo_1186256" data-name="Grupo 1186256" clip-path="url(#clip-path-28)">
            <path id="Trazado_1028463" data-name="Trazado 1028463" d="M1794.429,950.639l-3.284,2.227v-9.238a.744.744,0,0,1,.7-.782h1.126a.876.876,0,0,1,.831.84Z" transform="translate(-1791.122 -936.752)" fill="#798e96"/>
            <rect id="Rectángulo_458945" data-name="Rectángulo 458945" width="0.709" height="1.683" transform="matrix(0.663, -0.749, 0.749, 0.663, 13.681, 12.031)" fill="#798e96"/>
            <path id="Trazado_1028464" data-name="Trazado 1028464" d="M1888.8,966.577l-3.523,3.98a.266.266,0,1,1-.4-.352l3.523-3.98a.266.266,0,1,1,.4.352" transform="translate(-1873.65 -957.271)" fill="#798e96"/>
            <path id="Trazado_1028465" data-name="Trazado 1028465" d="M1891.144,972.274l-.474.535-2.145.819,3.171-3.582Z" transform="translate(-1876.925 -960.716)" fill="#798e96"/>
            <path id="Trazado_1028466" data-name="Trazado 1028466" d="M1911.309,990.814s-5.328-7.555-5.328-8.226a29.836,29.836,0,0,1,.267-3.02c.063-.238,4.175-3.223,4.175-3.223s2.859,3.338,2.656,6.4a46.2,46.2,0,0,1-1.77,8.072" transform="translate(-1892.306 -966.268)" fill="#515669"/>
            <path id="Trazado_1028467" data-name="Trazado 1028467" d="M1799.112,1000.713l-7.862-.286.255-4.056,7.448.343a.6.6,0,0,1,.567.635Z" transform="translate(-1791.214 -983.913)" fill="#798e96"/>
          </g>
        </g>
        <g id="Grupo_1186259" data-name="Grupo 1186259">
          <g id="Grupo_1186258" data-name="Grupo 1186258" clip-path="url(#clip-path)">
            <path id="Trazado_1028469" data-name="Trazado 1028469" d="M1790.949,906.581V891.575h8.682a1.545,1.545,0,0,1,1.2.566l8.628,10.494a1.554,1.554,0,0,1,.353.984V906.6S1793.021,906.607,1790.949,906.581Z" transform="translate(-1578.033 -785.58)" fill="none" stroke="#33394f" stroke-linecap="round" stroke-linejoin="round" stroke-width="6.246"/>
            <path id="Trazado_1028470" data-name="Trazado 1028470" d="M1781.206,984.853l-4.741,3.713h-11.938l-.8-4.4h-2.534a1.552,1.552,0,0,0-1.537,1.337l-1.184,8.487h28.846s-.4-8.568-6.112-9.139" transform="translate(-1549.417 -867.166)" fill="#f8535b"/>
            <path id="Trazado_1028471" data-name="Trazado 1028471" d="M1748.94,1042.682a3.258,3.258,0,1,1,3.258,3.258,3.258,3.258,0,0,1-3.258-3.258" transform="translate(-1541.018 -915.852)" fill="#2d334a"/>
            <path id="Trazado_1028472" data-name="Trazado 1028472" d="M1763.886,1055.852a1.481,1.481,0,1,1,1.481,1.48,1.481,1.481,0,0,1-1.481-1.48" transform="translate(-1554.187 -929.022)" fill="#5f6475"/>
            <path id="Trazado_1028473" data-name="Trazado 1028473" d="M1970.668,1067.839h-12.8v-1.028h9.472l3.323.561Z" transform="translate(-1725.112 -939.984)" fill="#2d334a"/>
            <path id="Trazado_1028474" data-name="Trazado 1028474" d="M2014.6,968.128h-13.481v-1.257h8.392l5.089.734Z" transform="translate(-1763.214 -851.925)" fill="#515669"/>
            <path id="Trazado_1028475" data-name="Trazado 1028475" d="M1930.563,1042.682a3.258,3.258,0,1,1,3.258,3.258,3.258,3.258,0,0,1-3.258-3.258" transform="translate(-1701.049 -915.852)" fill="#2d334a"/>
            <path id="Trazado_1028476" data-name="Trazado 1028476" d="M1945.509,1055.852a1.481,1.481,0,1,1,1.48,1.48,1.481,1.481,0,0,1-1.48-1.48" transform="translate(-1714.218 -929.022)" fill="#5f6475"/>
            <rect id="Rectángulo_458946" data-name="Rectángulo 458946" width="0.857" height="18.279" transform="translate(238.302 109.063)" fill="#2d334a"/>
            <path id="Trazado_1028477" data-name="Trazado 1028477" d="M2002.85,947.548h-1.734v-4.941h1.734a.489.489,0,0,1,.489.488v3.964a.489.489,0,0,1-.489.488" transform="translate(-1763.214 -830.546)" fill="#798e96"/>
            <rect id="Rectángulo_458947" data-name="Rectángulo 458947" width="26.863" height="1.021" transform="translate(252.87 135.783)" fill="#515669"/>
            <rect id="Rectángulo_458948" data-name="Rectángulo 458948" width="26.863" height="1.021" transform="translate(252.87 139.298)" fill="#515669"/>
            <rect id="Rectángulo_458949" data-name="Rectángulo 458949" width="0.712" height="3.516" transform="translate(253.498 136.294)" fill="#515669"/>
            <rect id="Rectángulo_458950" data-name="Rectángulo 458950" width="0.712" height="3.516" transform="translate(278.392 136.294)" fill="#515669"/>
            <path id="Trazado_1028478" data-name="Trazado 1028478" d="M1949.531,135.117S1975.175,81,1963.98,69.294s-33.635,4.724-26.944,9.28,29.555-17.658,18.742-26.4-34.182,8.43-38.348,17.115" transform="translate(-1689.477 -43.851)" fill="none" stroke="#2d334a" stroke-miterlimit="10" stroke-width="2"/>
            <path id="Trazado_1028479" data-name="Trazado 1028479" d="M1189.286,669.925s-7.179-25.365-33.4-19.881" transform="translate(-1018.472 -572.08)" fill="none" stroke="#2d334a" stroke-miterlimit="10" stroke-width="2"/>
            <path id="Trazado_1028480" data-name="Trazado 1028480" d="M946.2,332.111s4.239-21.39-6.669-28.138,2.887,28.077,25.535,12.246" transform="translate(-824.486 -267.061)" fill="none" stroke="#2d334a" stroke-miterlimit="10" stroke-width="2"/>
            <path id="Trazado_1028481" data-name="Trazado 1028481" d="M1172.031,404.253a1.247,1.247,0,1,1,1.247,1.247,1.247,1.247,0,0,1-1.247-1.247" transform="translate(-1032.695 -355.095)" fill="#2d334a"/>
            <path id="Trazado_1028482" data-name="Trazado 1028482" d="M1012.677,537.923a1.247,1.247,0,1,1,1.247,1.247,1.247,1.247,0,0,1-1.247-1.247" transform="translate(-892.285 -472.874)" fill="#2d334a"/>
            <path id="Trazado_1028483" data-name="Trazado 1028483" d="M1145.4,647.284a1.247,1.247,0,1,1,1.247,1.247,1.247,1.247,0,0,1-1.247-1.247" transform="translate(-1009.23 -569.233)" fill="#2d334a"/>
            <path id="Trazado_1028484" data-name="Trazado 1028484" d="M1426.306,813.784a1.247,1.247,0,1,1,1.247,1.247,1.247,1.247,0,0,1-1.247-1.247" transform="translate(-1256.74 -715.939)" fill="#2d334a"/>
            <path id="Trazado_1028485" data-name="Trazado 1028485" d="M1906.939,206.022a1.247,1.247,0,1,1,1.247,1.247,1.247,1.247,0,0,1-1.247-1.247" transform="translate(-1680.234 -180.43)" fill="#2d334a"/>
            <path id="Trazado_1028486" data-name="Trazado 1028486" d="M2177.786,756.3a1.247,1.247,0,1,1,1.247,1.247,1.247,1.247,0,0,1-1.247-1.247" transform="translate(-1918.881 -665.285)" fill="#2d334a"/>
            <path id="Trazado_1028487" data-name="Trazado 1028487" d="M1562.962,1146.065a1.921,1.921,0,0,0-2.1-.73,1.614,1.614,0,0,0-1.028,2.082l8.584,23.978a.745.745,0,0,0,1.419-.454l-.3-1.059c-3.948-17.028-4.313-21.148-6.571-23.817" transform="translate(-1374.306 -1009.09)" fill="#ebc7b3"/>
            <path id="Trazado_1028488" data-name="Trazado 1028488" d="M1567.23,936.463c-.2-3.041-1.707-3.769-2.8-3.888a1.639,1.639,0,0,0-.22-.066,1.614,1.614,0,0,0-1.929,1.293l-4.5,25.067a.744.744,0,0,0,.958.841,2.581,2.581,0,0,0,2.1-1.631c1.809-4.677,6.665-17.662,6.4-21.617" transform="translate(-1372.569 -821.615)" fill="#fff"/>
            <path id="Trazado_1028489" data-name="Trazado 1028489" d="M1635.087,1146.065a1.921,1.921,0,0,0-2.1-.73,1.615,1.615,0,0,0-1.028,2.082l8.584,23.978a.745.745,0,0,0,1.418-.454l-.3-1.059c-3.949-17.028-4.314-21.148-6.571-23.817" transform="translate(-1437.856 -1009.09)" fill="#ebc7b3"/>
            <path id="Trazado_1028490" data-name="Trazado 1028490" d="M1637.573,935.384c-.691-2.969-2.293-3.444-3.394-3.385a1.634,1.634,0,0,0-.227-.029,1.615,1.615,0,0,0-1.695,1.587l-.4,25.465a.744.744,0,0,0,1.082.676,2.582,2.582,0,0,0,1.805-1.948c1.029-4.907,3.724-18.506,2.826-22.367" transform="translate(-1437.857 -821.171)" fill="#fff"/>
            <path id="Trazado_1028491" data-name="Trazado 1028491" d="M1661.982,1362.82a3.6,3.6,0,0,1-1.314-.205c-1.909.267-5.8,1.163-5.678,2.118.044.352,7.632.122,8.159.061.371-.043.219-1.142.1-1.787a.333.333,0,0,0-.393-.263,4.674,4.674,0,0,1-.871.077" transform="translate(-1458.235 -1200.621)" fill="#3b3e54"/>
            <path id="Trazado_1028492" data-name="Trazado 1028492" d="M1587.221,1362.82a3.6,3.6,0,0,1-1.314-.205c-1.909.267-5.8,1.163-5.678,2.118.045.352,7.632.122,8.159.061.371-.043.219-1.142.1-1.787a.334.334,0,0,0-.394-.263,4.665,4.665,0,0,1-.87.077" transform="translate(-1392.361 -1200.621)" fill="#3b3e54"/>
            <path id="Trazado_1028493" data-name="Trazado 1028493" d="M1560.246,924.654s-4.963,24.38-5.035,26.224a9.212,9.212,0,0,0,.937,4.327c.558,1.365,6.558,18.2,6.558,18.2l2.28-.3s-2.44-17.924-5.8-21.963c0,0,8.494-24.44,8.494-26.494Z" transform="translate(-1370.313 -814.727)" fill="#2f354c"/>
            <path id="Trazado_1028494" data-name="Trazado 1028494" d="M1638.6,972.317l-2.115.528s-7.311-19.041-7.261-19.989,0-28.2,0-28.2l6.41.326a81.293,81.293,0,0,1-2.735,26.23s2.718,1.081,5.7,21.107" transform="translate(-1435.53 -814.727)" fill="#2f354c"/>
            <path id="Trazado_1028495" data-name="Trazado 1028495" d="M1605.663,734.965c.122-.577.233-1.145.329-1.7q.1-.553.182-1.09c.128-.814.231-1.607.312-2.388.038-.37.07-.74.1-1.1.072-.9.116-1.782.133-2.645.007-.373.013-.739.009-1.1a44.34,44.34,0,0,0-.564-6.809,24.74,24.74,0,0,0-.764-3.345,4.069,4.069,0,0,0-6.7-1.741l-.472.449a4.559,4.559,0,0,0-1.25,4.473c.462,1.774.575,4.362-.114,8.366q-.064.369-.136.754c-.071.365-.147.738-.225,1.127-.116.543-.245,1.112-.386,1.7-.086.356-.177.719-.271,1.091-.169.659-.352,1.345-.556,2.06-.057.2-.115.4-.175.606q-.068.238-.14.479c-.111.383-.23.779-.353,1.179q-.162.525-.335,1.071-.233.734-.488,1.5a7.985,7.985,0,0,0,3.387.474c1.9-.1,3.836-.549,5.7-.123a14.013,14.013,0,0,1,1.816.605q.405-1.439.723-2.814c.086-.362.163-.722.238-1.077" transform="translate(-1404.325 -627.275)" fill="#f8535b"/>
            <path id="Trazado_1028496" data-name="Trazado 1028496" d="M1481.343,705.341a1.953,1.953,0,0,0-.9-1.486c-1.321-.841-3.866-2.344-4.789-2.065-1.27.384,2.538,3.7,5.716,3.9Z" transform="translate(-1300.001 -618.329)" fill="#ebc7b3"/>
            <path id="Trazado_1028497" data-name="Trazado 1028497" d="M1556.016,718.879a1.676,1.676,0,0,1,2.664.148c.535.347.527,1.594.052,2.21l-11.3,13.194c-.161.23-1.3.232-1.534.079a.515.515,0,0,1-.178-.2c-.4-.52.273-1.682.606-2.266,1.638-2.867,7.6-11.351,9.688-13.167" transform="translate(-1361.849 -632.895)" fill="#f8535b"/>
            <path id="Trazado_1028498" data-name="Trazado 1028498" d="M1518.339,730.074c1.558,3.274,3.872,10.88,4.021,13.173.125,1.9-1.032,1.95-1.079,1.967a1.558,1.558,0,0,1-1.693-1.009l-2.911-13.633Z" transform="translate(-1336.367 -643.279)" fill="#f8535b"/>
            <path id="Trazado_1028499" data-name="Trazado 1028499" d="M1663.656,726.031a1.677,1.677,0,0,1,.447-2.63c.406-.492,1.643-.345,2.2.2l11.84,12.71c.21.186-.092.54-.27.756a.516.516,0,0,1-.217.155,2.1,2.1,0,0,1-2.007-.081c-3.017-1.776-10.424-8.828-11.994-11.107" transform="translate(-1465.48 -637.136)" fill="#f8535b"/>
            <path id="Trazado_1028500" data-name="Trazado 1028500" d="M1632.49,736.337c-.826,5.392,1.426,10.05-.006,15.593-.693.593-1.431,1.138-2.157,1.69a27.588,27.588,0,0,1-1.281-2.555c2.175-5.28.964-9.773,2.4-14.851.348.035.695.081,1.042.123" transform="translate(-1435.377 -648.689)" fill="#88aebc"/>
            <path id="Trazado_1028501" data-name="Trazado 1028501" d="M1617.548,687.408a2.906,2.906,0,0,1,.115-2.127c.526-.994.868.156.868.156Z" transform="translate(-1425.112 -603.454)" fill="#2d334a"/>
            <path id="Trazado_1028502" data-name="Trazado 1028502" d="M1666.352,686.145c-.057.107-.878,2.139-1.226,2.168-.477.04-.3-1.542-.3-1.542Z" transform="translate(-1466.875 -604.573)" fill="#2d334a"/>
            <path id="Trazado_1028503" data-name="Trazado 1028503" d="M1623.328,642.345a2.261,2.261,0,0,1-.064-1.759c.387-.689,1.065-1.416,3.74-.844a.811.811,0,0,1,.64.816l-.03,1.106Z" transform="translate(-1430.136 -563.505)" fill="#2d334a"/>
            <path id="Trazado_1028504" data-name="Trazado 1028504" d="M1624.278,649.1c-.273,1.592-.616,2.891-1.642,3.547a3.063,3.063,0,0,1-2.4.42,1.994,1.994,0,0,1-1.675-1.535,9.11,9.11,0,0,1,.186-3.378c.427-2.5,1.884-3.56,3.412-3.3s2.548,1.745,2.121,4.245" transform="translate(-1426.051 -568.155)" fill="#ebc7b3"/>
            <path id="Trazado_1028505" data-name="Trazado 1028505" d="M1648.4,680.817l-2.657-.18a42.31,42.31,0,0,0-.026,5.125c.109.4.775.563,1.488.367.64-.176,1.1-.582,1.1-.952h0a35.086,35.086,0,0,1,.09-4.36" transform="translate(-1450.003 -599.72)" fill="#ebc7b3"/>
            <path id="Trazado_1028506" data-name="Trazado 1028506" d="M1656.673,647.914a1.271,1.271,0,0,1-1.21-.423,8.642,8.642,0,0,1-1.48-3.24c-.265-1.344.133-1.688.133-1.688s2.548.28,3.068,1.147c.778,1.3-.511,4.2-.511,4.2" transform="translate(-1457.27 -566.171)" fill="#2d334a"/>
            <path id="Trazado_1028507" data-name="Trazado 1028507" d="M1623.37,669.387l-.622,3.648a.973.973,0,0,1-.734.784l-.436.1a.438.438,0,0,1-.539-.41l-.028-.754a.38.38,0,0,0-.287-.354L1619.1,672a.38.38,0,0,0-.434.2l-.327.671a1.21,1.21,0,0,0,.719,1.681l.974.312a1.343,1.343,0,0,0,.643.044l.049-.009.029-.007h0l.337-.081,1.1-.263a1.722,1.722,0,0,0,1.3-1.387l.622-3.648Z" transform="translate(-1425.833 -589.807)" fill="#2d334a"/>
            <path id="Trazado_1028508" data-name="Trazado 1028508" d="M1628.576,643.174l-1.613-.262a2.278,2.278,0,0,0-1.561.31l-.634.391,1-1.386,1.377-.275,1.626.39Z" transform="translate(-1431.609 -565.634)" fill="#2d334a"/>
            <path id="Trazado_1028509" data-name="Trazado 1028509" d="M1665.339,677.478c-.088.534-.732,1.128-1.118,1.064s-.412-.513-.323-1.046.485-.981.871-.917a.7.7,0,0,1,.57.9" transform="translate(-1466.049 -596.138)" fill="#ebc7b3"/>
            <path id="Trazado_1028510" data-name="Trazado 1028510" d="M1686.72,924.967a1.953,1.953,0,0,0-1.244,1.211c-.521,1.477-1.411,4.3-.93,5.132.661,1.15,3.027-3.307,2.505-6.449Z" transform="translate(-1484.158 -814.909)" fill="#ebc7b3"/>
            <path id="Trazado_1028511" data-name="Trazado 1028511" d="M1696.511,843.158c1.885-3.1,6.981-9.2,8.818-10.58,1.523-1.146,2.2-.2,2.237-.175a1.559,1.559,0,0,1,.083,1.97l-9.811,9.9Z" transform="translate(-1494.822 -733.097)" fill="#f8535b"/>
            <path id="Trazado_1028512" data-name="Trazado 1028512" d="M1004.039,606.3a3.558,3.558,0,1,1,7.116,0,3.558,3.558,0,1,1-7.116,0" transform="translate(-884.674 -531.081)" fill="#fff"/>
            <path id="Trazado_1028513" data-name="Trazado 1028513" d="M1840.342,787.218a3.558,3.558,0,1,1,7.116,0,3.558,3.558,0,1,1-7.116,0" transform="translate(-1621.553 -690.495)" fill="#fff"/>
            <path id="Trazado_1028514" data-name="Trazado 1028514" d="M976.532,681.77a1.985,1.985,0,1,1,3.971,0,1.985,1.985,0,0,1-3.971,0" transform="translate(-860.437 -598.969)" fill="#fff"/>
          </g>
        </g>
      </g>
    </g>
  </g>
</svg>
