<svg xmlns="http://www.w3.org/2000/svg" width="292" height="309" viewBox="0 0 292 309">
  <g id="Grupo_1186336" data-name="Grupo 1186336" transform="translate(-1121.711 -715)">
    <rect id="Rectángulo_456482" data-name="Rectángulo 456482" width="292" height="309" rx="10" transform="translate(1121.711 715)" fill="#f2a4ab"/>
    <g id="WORK" transform="translate(857.177 606.875)">
      <line id="Línea_3247" data-name="Línea 3247" x2="259.758" transform="translate(285.983 331.622)" fill="none" stroke="#2d334a" stroke-linecap="round" stroke-linejoin="round" stroke-miterlimit="10" stroke-width="0.5"/>
      <g id="Grupo_1186262" data-name="Grupo 1186262" transform="translate(288.844 168.923)">
        <path id="Trazado_1028515" data-name="Trazado 1028515" d="M457.74,743.111l.93-6.511.8,6.532a1.526,1.526,0,0,0,1.244,1.319l4.651.876-4.661.746a1.55,1.55,0,0,0-1.276,1.3l-.919,6.435-.789-6.467a1.54,1.54,0,0,0-1.233-1.319l-4.586-.876,4.6-.746A1.5,1.5,0,0,0,457.74,743.111Z" transform="translate(-451.9 -736.6)" fill="#a0a995"/>
        <path id="Trazado_1028516" data-name="Trazado 1028516" d="M457.74,743.111l.93-6.511.8,6.532a1.526,1.526,0,0,0,1.244,1.319l4.651.876-4.661.746a1.55,1.55,0,0,0-1.276,1.3l-.919,6.435-.789-6.467a1.54,1.54,0,0,0-1.233-1.319l-4.586-.876,4.6-.746A1.5,1.5,0,0,0,457.74,743.111Z" transform="translate(-451.9 -736.6)" fill="none" stroke="#2d334a" stroke-linecap="round" stroke-linejoin="round" stroke-miterlimit="10" stroke-width="0.5"/>
      </g>
      <g id="Grupo_1186263" data-name="Grupo 1186263" transform="translate(454.318 227.873)">
        <line id="Línea_3248" data-name="Línea 3248" y1="30.877" x2="30.877" transform="translate(0 0)" fill="none" stroke="#2d334a" stroke-linecap="round" stroke-linejoin="round" stroke-miterlimit="10" stroke-width="0.5"/>
        <line id="Línea_3249" data-name="Línea 3249" y1="10.934" x2="10.934" transform="translate(15.422 12.297)" fill="none" stroke="#2d334a" stroke-linecap="round" stroke-linejoin="round" stroke-miterlimit="10" stroke-width="0.5"/>
      </g>
      <g id="Grupo_1186264" data-name="Grupo 1186264" transform="translate(300.741 137.462)">
        <path id="Trazado_1028517" data-name="Trazado 1028517" d="M572.6,457.564l1.687-11.864,1.449,11.907a2.8,2.8,0,0,0,2.26,2.412l8.49,1.6-8.5,1.373a2.8,2.8,0,0,0-2.325,2.369L573.97,477.1l-1.46-11.789a2.8,2.8,0,0,0-2.25-2.412l-8.36-1.59,8.382-1.363A2.824,2.824,0,0,0,572.6,457.564Z" transform="translate(-561.9 -445.7)" fill="#a0a995"/>
        <path id="Trazado_1028518" data-name="Trazado 1028518" d="M572.6,457.564l1.687-11.864,1.449,11.907a2.8,2.8,0,0,0,2.26,2.412l8.49,1.6-8.5,1.373a2.8,2.8,0,0,0-2.325,2.369L573.97,477.1l-1.46-11.789a2.8,2.8,0,0,0-2.25-2.412l-8.36-1.59,8.382-1.363A2.824,2.824,0,0,0,572.6,457.564Z" transform="translate(-561.9 -445.7)" fill="none" stroke="#2d334a" stroke-linecap="round" stroke-linejoin="round" stroke-miterlimit="10" stroke-width="0.5"/>
      </g>
      <g id="Grupo_1186265" data-name="Grupo 1186265" transform="translate(275.144 303.07)">
        <line id="Línea_3250" data-name="Línea 3250" y1="8.728" x2="8.728" transform="translate(0 0.649)" fill="none" stroke="#2d334a" stroke-linecap="round" stroke-linejoin="round" stroke-miterlimit="10" stroke-width="0.5"/>
        <line id="Línea_3251" data-name="Línea 3251" y1="5.927" x2="5.916" transform="translate(7.7 0)" fill="none" stroke="#2d334a" stroke-linecap="round" stroke-linejoin="round" stroke-miterlimit="10" stroke-width="0.5"/>
      </g>
      <line id="Línea_3252" data-name="Línea 3252" y1="5.927" x2="5.916" transform="translate(374.2 331.86)" fill="none" stroke="#2d334a" stroke-linecap="round" stroke-linejoin="round" stroke-miterlimit="10" stroke-width="0.5"/>
      <g id="Grupo_1186266" data-name="Grupo 1186266" transform="translate(467.318 191.577)">
        <path id="Trazado_1028519" data-name="Trazado 1028519" d="M2296.859,269.467l.746-5.267.649,5.289a1.24,1.24,0,0,0,1.006,1.071l3.774.714-3.785.606a1.251,1.251,0,0,0-1.039,1.049l-.746,5.213-.638-5.235a1.24,1.24,0,0,0-1.005-1.071l-3.72-.714,3.72-.606A1.239,1.239,0,0,0,2296.859,269.467Z" transform="translate(-2292.101 -264.2)" fill="#2d334a"/>
        <path id="Trazado_1028520" data-name="Trazado 1028520" d="M2296.859,269.467l.746-5.267.649,5.289a1.24,1.24,0,0,0,1.006,1.071l3.774.714-3.785.606a1.251,1.251,0,0,0-1.039,1.049l-.746,5.213-.638-5.235a1.24,1.24,0,0,0-1.005-1.071l-3.72-.714,3.72-.606A1.239,1.239,0,0,0,2296.859,269.467Z" transform="translate(-2292.101 -264.2)" fill="none" stroke="#2d334a" stroke-linecap="round" stroke-linejoin="round" stroke-miterlimit="10" stroke-width="0.5"/>
      </g>
      <g id="Grupo_1186278" data-name="Grupo 1186278" transform="translate(507.414 239.333)">
        <path id="Trazado_1028521" data-name="Trazado 1028521" d="M2696.406,889.241c1.849-1.276,2.131-4.121,2.141-4.164.141-.9-.509-3.147-1.265-2.79l-12.849,7.83c-.27.119-.119.476-.032.692a.4.4,0,0,0,.152.173,3.59,3.59,0,0,0,2.4.595C2690.739,890.874,2693.995,890.9,2696.406,889.241Z" transform="translate(-2681.963 -863.162)" fill="#fee9d2"/>
        <g id="Grupo_1186267" data-name="Grupo 1186267" transform="translate(2.428 8.043)">
          <path id="Trazado_1028522" data-name="Trazado 1028522" d="M2708.692,785.925l-1.471,4.553a.409.409,0,0,0,.271.519h0a.409.409,0,0,0,.519-.27l1.471-4.553a.409.409,0,0,0-.271-.519h0A.427.427,0,0,0,2708.692,785.925Z" transform="translate(-2704.83 -785.042)" fill="#fee9d2"/>
          <path id="Trazado_1028523" data-name="Trazado 1028523" d="M2703.894,780.425l-1.373,4.25a.408.408,0,0,0,.27.519h0a.409.409,0,0,0,.519-.27l1.374-4.25a.409.409,0,0,0-.271-.519h0A.422.422,0,0,0,2703.894,780.425Z" transform="translate(-2700.639 -780.137)" fill="#fee9d2"/>
          <path id="Trazado_1028524" data-name="Trazado 1028524" d="M2695.594,783.725l-1.374,4.25a.41.41,0,0,0,.271.519h0a.409.409,0,0,0,.519-.27l1.374-4.25a.409.409,0,0,0-.271-.519h0A.423.423,0,0,0,2695.594,783.725Z" transform="translate(-2693.237 -783.08)" fill="#fee9d2"/>
          <path id="Trazado_1028525" data-name="Trazado 1028525" d="M2688.612,790.123l-1.168,3.623a.352.352,0,0,0,.238.454h0a.352.352,0,0,0,.454-.238l1.168-3.623a.353.353,0,0,0-.238-.454h0A.369.369,0,0,0,2688.612,790.123Z" transform="translate(-2687.196 -788.818)" fill="#fee9d2"/>
          <path id="Trazado_1028526" data-name="Trazado 1028526" d="M2687.961,826.006c-.021.011-.032.011-.054.022a.224.224,0,0,0-.043.065l-.433,1.017-2.131-.681.292-1.114c-.3-.238-.259-.757.032-1.482l1.763-.032-.4,1.525Z" transform="translate(-2685.3 -819.078)" fill="#fee9d2"/>
          <path id="Trazado_1028527" data-name="Trazado 1028527" d="M2695.4,819.624l1.309-.681a.925.925,0,0,1,.551.13.253.253,0,0,0,.238.043h0c.325-.151.173-.335.9-.746s1.028.022,1.071.141-.346.227-.508.3-.455.541-.649.725a3.235,3.235,0,0,0-.432.681,5.627,5.627,0,0,1-.433.681.24.24,0,0,0-.043.065.882.882,0,0,1-.789.379l-.746-.043Z" transform="translate(-2694.308 -814.08)" fill="#fee9d2"/>
          <path id="Trazado_1028528" data-name="Trazado 1028528" d="M2691.815,814.007l-2.315-1.017.649-1.59,2.4.1Z" transform="translate(-2689.046 -808.019)" fill="#fee9d2"/>
        </g>
        <g id="Grupo_1186268" data-name="Grupo 1186268" transform="translate(1.649 14.204)">
          <path id="Trazado_1028529" data-name="Trazado 1028529" d="M2679.013,837.241c-.573,3.666-1.255,10.274-.735,12.567a2.169,2.169,0,0,0,2.5,1.579,1.972,1.972,0,0,0,1.525-2.174l-1.222-12.113Z" transform="translate(-2678.093 -837.1)" fill="#fee9d2"/>
        </g>
        <path id="Trazado_1028530" data-name="Trazado 1028530" d="M2677.563,798.061,2677,795.8l1-9.842h.011a1.667,1.667,0,0,1,.119-.9c0-.032.011-.065.011-.1l1.168-3.623a.369.369,0,0,1,.454-.238h0a.361.361,0,0,1,.249.3l.238-.725a.422.422,0,0,1,.519-.271h0a.413.413,0,0,1,.26.26l.108-.346a.422.422,0,0,1,.519-.27h0a.422.422,0,0,1,.27.519l-.054.151a.417.417,0,0,1,.389-.076.422.422,0,0,1,.27.519l-1.189,3.666a1.78,1.78,0,0,1,.627-.5c.725-.411,1.028.022,1.071.141s-.346.227-.509.3-.454.541-.649.725a3.236,3.236,0,0,0-.433.681,5.547,5.547,0,0,1-.432.682.219.219,0,0,0-.043.065.853.853,0,0,1-.627.368l-.087.205c.509,3.764.985,9.128.53,11.161-.433,1.9-1.893,1.493-1.946,1.493C2678.255,800.214,2677.455,799.338,2677.563,798.061Z" transform="translate(-2675.469 -772.004)" fill="none" stroke="#2d334a" stroke-linecap="round" stroke-linejoin="round" stroke-miterlimit="10" stroke-width="0.5"/>
        <g id="Grupo_1186269" data-name="Grupo 1186269" transform="translate(1.548 18.627)">
          <path id="Trazado_1028531" data-name="Trazado 1028531" d="M2690.9,878.26l-9.474,5.829-.616-6.089-3.277.606c-.335,3.072-.53,6.251-.206,7.7.433,1.9,2.6,1.784,2.65,1.8a.739.739,0,0,0,.292-.043,1.941,1.941,0,0,0,.368-.032c3.785-.7,7.041-.681,9.452-2.336,1.849-1.276,2.1-4.358,2.109-4.4C2692.341,880.379,2691.66,877.9,2690.9,878.26Z" transform="translate(-2677.163 -878)" fill="#a0a995"/>
        </g>
        <g id="Grupo_1186270" data-name="Grupo 1186270" transform="translate(1.548 18.627)">
          <path id="Trazado_1028532" data-name="Trazado 1028532" d="M2690.9,878.26l-9.474,5.829-.616-6.089-3.277.606c-.335,3.072-.53,6.251-.206,7.7.433,1.9,2.6,1.784,2.65,1.8a.739.739,0,0,0,.292-.043,1.941,1.941,0,0,0,.368-.032c3.785-.7,7.041-.681,9.452-2.336,1.849-1.276,2.1-4.358,2.109-4.4C2692.341,880.379,2691.66,877.9,2690.9,878.26Z" transform="translate(-2677.163 -878)" fill="none" stroke="#2d334a" stroke-linecap="round" stroke-linejoin="round" stroke-miterlimit="10" stroke-width="0.5"/>
        </g>
        <path id="Trazado_1028533" data-name="Trazado 1028533" d="M2726.268,1319.24c-2.4-5.851-5.3-.854-5.343.1l-1.427,26.432c-.021.422,1.222-.346,1.644-.314s.973-1.817.973-1.817C2726.69,1328.227,2727.361,1322.7,2726.268,1319.24Z" transform="translate(-2713.371 -1250.398)" fill="#fee9d2"/>
        <path id="Trazado_1028534" data-name="Trazado 1028534" d="M2742.378,1115.713c-1.006-2.488-4.823-2.325-4.888-2.336a1.416,1.416,0,0,0-1.471,1.352l-3.493,23.458a.689.689,0,0,0,.433.779c1.146.4,3.969-1.2,4.348-2.012C2743.308,1124.052,2743.795,1119.217,2742.378,1115.713Z" transform="translate(-2724.982 -1069.28)" fill="#fee9d2"/>
        <path id="Trazado_1028535" data-name="Trazado 1028535" d="M2848.875,1315.385c-4.142-4.78-5.288.887-5.04,1.806l7.095,25.5c.108.4,1.049-.724,1.46-.822s.346-2.033.346-2.033C2852.141,1323.767,2851.016,1318.316,2848.875,1315.385Z" transform="translate(-2824.232 -1247.766)" fill="#fee9d2"/>
        <path id="Trazado_1028536" data-name="Trazado 1028536" d="M2824.668,1122.955c-1.633-2.12-5.278-.941-5.332-.93a1.418,1.418,0,0,0-1.06,1.7l2.942,23.534a.662.662,0,0,0,.616.627c1.211.076,3.5-2.228,3.645-3.115C2827.8,1130.731,2826.971,1125.94,2824.668,1122.955Z" transform="translate(-2801.453 -1076.706)" fill="#fee9d2"/>
        <path id="Trazado_1028537" data-name="Trazado 1028537" d="M2756.473,891.595l-1.525,12.135h12.967l-1.243-20.127a5.721,5.721,0,0,0-3.2-4.953,4.062,4.062,0,0,0-1.049-.335c-1.936-.3-4.186-.227-7.192,5.613C2752.223,889.745,2756.473,891.595,2756.473,891.595Z" transform="translate(-2744.279 -859.568)" fill="#a0a995"/>
        <g id="Grupo_1186271" data-name="Grupo 1186271" transform="translate(0 93.316)">
          <path id="Trazado_1028538" data-name="Trazado 1028538" d="M2663.22,1574.938a5.958,5.958,0,0,0,5.678-.93h.53a7.748,7.748,0,0,0,1.763-.205,1.882,1.882,0,0,0,.444-.195.441.441,0,0,0,.216-.292,5.2,5.2,0,0,0-.249-2.3,6.554,6.554,0,0,1,.054-2.011l-3.083-.4s.022,2.347-.724,2.931c0,0-2.726,2.282-4.056,2.315S2662.8,1574.83,2663.22,1574.938Z" transform="translate(-2662.847 -1568.6)" fill="#2d334a"/>
          <path id="Trazado_1028539" data-name="Trazado 1028539" d="M2723.344,1615.3l-.043,1.633,2.13.281.108-2.314a1.7,1.7,0,0,1-.444.195A7.652,7.652,0,0,1,2723.344,1615.3Z" transform="translate(-2716.762 -1609.893)" fill="#2d334a"/>
        </g>
        <g id="Grupo_1186272" data-name="Grupo 1186272" transform="translate(22.305 92.711)">
          <path id="Trazado_1028540" data-name="Trazado 1028540" d="M2869.625,1571.349a5.989,5.989,0,0,0,5.072-2.726,1.361,1.361,0,0,0,.13-.043c.087-.032.216-.076.367-.13a7.522,7.522,0,0,0,1.6-.778,1.78,1.78,0,0,0,.357-.325.443.443,0,0,0,.108-.346,5.138,5.138,0,0,0-.984-2.087,6.831,6.831,0,0,1-.606-1.914l-3.05.627s.79,2.206.27,3.007c0,0-1.828,3.039-3.082,3.5C2868.576,1570.592,2869.192,1571.382,2869.625,1571.349Z" transform="translate(-2869.083 -1563)" fill="#2d334a"/>
          <path id="Trazado_1028541" data-name="Trazado 1028541" d="M2925.6,1604.392l.487,1.558,2.109-.433-.649-2.217a1.774,1.774,0,0,1-.356.325A7.661,7.661,0,0,1,2925.6,1604.392Z" transform="translate(-2919.488 -1598.942)" fill="#2d334a"/>
        </g>
        <path id="Trazado_1028542" data-name="Trazado 1028542" d="M2839.392,902.784c-1.384-1.763-.8-4.575-.8-4.618.129-.908,1.427-2.855,2.033-2.293l9.917,11.313c.227.195-.021.5-.173.671a.367.367,0,0,1-.195.119,3.573,3.573,0,0,1-2.466-.151C2844.3,906.029,2841.187,905.077,2839.392,902.784Z" transform="translate(-2819.476 -875.224)" fill="#fee9d2"/>
        <g id="Grupo_1186273" data-name="Grupo 1186273" transform="translate(32.408 14.392)">
          <path id="Trazado_1028543" data-name="Trazado 1028543" d="M2990.03,845.981l-2.747,3.9a.414.414,0,0,0,.1.573h0a.413.413,0,0,0,.573-.1l2.747-3.9a.413.413,0,0,0-.1-.573h0A.414.414,0,0,0,2990.03,845.981Z" transform="translate(-2984.537 -845.054)" fill="#fee9d2"/>
          <path id="Trazado_1028544" data-name="Trazado 1028544" d="M2987.658,839.017l-2.574,3.655a.414.414,0,0,0,.1.573h0a.414.414,0,0,0,.573-.1l2.574-3.656a.414.414,0,0,0-.1-.573h0A.4.4,0,0,0,2987.658,839.017Z" transform="translate(-2982.574 -838.837)" fill="#fee9d2"/>
          <path id="Trazado_1028545" data-name="Trazado 1028545" d="M2978.758,839.742l-2.574,3.656a.414.414,0,0,0,.1.573h0a.413.413,0,0,0,.573-.1l2.574-3.655a.414.414,0,0,0-.1-.573h0A.406.406,0,0,0,2978.758,839.742Z" transform="translate(-2974.637 -839.486)" fill="#fee9d2"/>
          <path id="Trazado_1028546" data-name="Trazado 1028546" d="M2971.926,843.2l-2.185,3.115a.365.365,0,0,0,.087.508h0a.365.365,0,0,0,.509-.087l2.184-3.115a.364.364,0,0,0-.086-.508h0A.353.353,0,0,0,2971.926,843.2Z" transform="translate(-2968.898 -842.591)" fill="#fee9d2"/>
          <path id="Trazado_1028547" data-name="Trazado 1028547" d="M2965.053,874.769H2965c-.022.022-.043.032-.065.054l-.714.844-1.719-1.276.487-.984c-.216-.324-.021-.8.465-1.406l1.7.5-.833,1.341Z" transform="translate(-2962.5 -868.414)" fill="#fee9d2"/>
          <path id="Trazado_1028548" data-name="Trazado 1028548" d="M2975.565,878.2l1.449-.27a1,1,0,0,1,.487.292.3.3,0,0,0,.216.119h0c.346-.043.26-.27,1.071-.443s.973.324.984.454-.389.108-.583.141-.6.389-.833.5a3.735,3.735,0,0,0-.616.519,5.489,5.489,0,0,1-.605.519c-.021.011-.043.032-.065.043a.891.891,0,0,1-.865.13l-.7-.27Z" transform="translate(-2974.094 -873.645)" fill="#fee9d2"/>
          <path id="Trazado_1028549" data-name="Trazado 1028549" d="M2973.9,864.885l-1.9-1.655,1.093-1.33,2.26.8Z" transform="translate(-2970.973 -859.406)" fill="#fee9d2"/>
        </g>
        <g id="Grupo_1186274" data-name="Grupo 1186274" transform="translate(27.936 19.071)">
          <path id="Trazado_1028550" data-name="Trazado 1028550" d="M2928.021,882.846c-.552,3.677-1.871,10.188-3.05,12.221a2.158,2.158,0,0,1-2.855.757,1.972,1.972,0,0,1-.811-2.531L2926.1,882.1Z" transform="translate(-2921.148 -882.1)" fill="#fee9d2"/>
        </g>
        <path id="Trazado_1028551" data-name="Trazado 1028551" d="M2931.741,839.729a.41.41,0,0,0-.4-.043l.1-.13a.411.411,0,1,0-.67-.476l-.217.3a.4.4,0,0,0-.173-.324.414.414,0,0,0-.573.1l-.443.627a.37.37,0,0,0-.151-.357h0a.365.365,0,0,0-.508.087l-2.185,3.115a.218.218,0,0,0-.043.086,1.416,1.416,0,0,0-.368.984l-4.737,11.075a1.961,1.961,0,0,0,.811,2.531,2.157,2.157,0,0,0,2.855-.757c1.06-1.817,2.227-7.214,2.855-10.966l.054-.065a.9.9,0,0,0,.714-.173.225.225,0,0,1,.065-.043,5.681,5.681,0,0,0,.606-.519,3.245,3.245,0,0,1,.616-.519c.249-.119.649-.476.833-.5s.595-.011.584-.141-.162-.627-.984-.454a1.917,1.917,0,0,0-.746.292l2.217-3.147A.418.418,0,0,0,2931.741,839.729Z" transform="translate(-2893.265 -824.509)" fill="none" stroke="#2d334a" stroke-linecap="round" stroke-linejoin="round" stroke-miterlimit="10" stroke-width="0.5"/>
        <g id="Grupo_1186275" data-name="Grupo 1186275" transform="translate(18.751 20.544)">
          <path id="Trazado_1028552" data-name="Trazado 1028552" d="M2847.852,899.67l-1.795,4.391-7.43-8.23c-.606-.562-2.142,1.265-2.271,2.174-.01.043-.583,2.844.8,4.618,1.806,2.293,5.148,3.483,8.555,5.289a2.587,2.587,0,0,0,.8.238,2.091,2.091,0,0,0,2.725-.811c.768-1.309,1.58-4.6,2.217-7.657h-3.6Z" transform="translate(-2836.229 -895.725)" fill="#a0a995"/>
        </g>
        <path id="Trazado_1028553" data-name="Trazado 1028553" d="M2774.653,883.968l-1.795,4.391-7.333-8.122a5.22,5.22,0,0,0-2.055-1.687,4.068,4.068,0,0,0-1.049-.335c-1.936-.3-4.185-.227-7.192,5.613s1.243,7.679,1.243,7.679l-1.525,12.135h12.967l-.876-14.222c1.622.941,3.537,1.774,5.472,2.79a2.589,2.589,0,0,0,.8.238,2.092,2.092,0,0,0,2.726-.811c.768-1.309,1.579-4.6,2.217-7.657h-3.6Z" transform="translate(-2744.279 -859.478)" fill="none" stroke="#2d334a" stroke-linecap="round" stroke-linejoin="round" stroke-miterlimit="10" stroke-width="0.5"/>
        <path id="Trazado_1028554" data-name="Trazado 1028554" d="M2691.741,1102.2s-3.407,22.755-3.958,26.021-4.683,26.605-4.683,26.605l9.6.833s3.115-24.453,1.557-28.9c0,0,5.17-13.811,6.208-18.386l.281-6.176Z" transform="translate(-2680.909 -1059.325)" fill="#2d334a"/>
        <path id="Trazado_1028555" data-name="Trazado 1028555" d="M2803.492,1104.22s3.125,24.053,3.742,25.848,4.023,24.972,4.023,24.972l8.187-1.947s-2.531-21.025-6.024-26.995c0,0,1-12.275.811-15.228,0,0-.411-7.181-2.78-8.771H2803.2Z" transform="translate(-2788.021 -1059.236)" fill="#2d334a"/>
        <path id="Trazado_1028556" data-name="Trazado 1028556" d="M2706.32,1126.2s1-12.275.811-15.228c0,0-.411-7.181-2.779-8.771h-12.611s-3.407,22.755-3.958,26.021-4.683,26.605-4.683,26.605l9.6.833s3.115-24.453,1.557-28.9c0,0,1.979-5.289,3.731-10.4.865,6.294,1.816,12.892,2.13,13.8.627,1.806,4.023,24.972,4.023,24.972l8.187-1.947C2712.344,1153.193,2709.8,1132.169,2706.32,1126.2Z" transform="translate(-2680.909 -1059.325)" fill="none" stroke="#2d334a" stroke-linecap="round" stroke-linejoin="round" stroke-miterlimit="10" stroke-width="0.5"/>
        <path id="Trazado_1028557" data-name="Trazado 1028557" d="M2761.936,1086.8l-.335,2.639,13.53-.195-.746-2.444Z" transform="translate(-2750.92 -1045.591)" fill="#f95a37"/>
        <path id="Trazado_1028558" data-name="Trazado 1028558" d="M2761.936,1086.8l-.335,2.639,13.53-.195-.746-2.444Z" transform="translate(-2750.92 -1045.591)" fill="none" stroke="#2d334a" stroke-linecap="round" stroke-linejoin="round" stroke-miterlimit="10" stroke-width="0.5"/>
        <line id="Línea_3253" data-name="Línea 3253" x1="0.649" y1="4.91" transform="translate(16.585 53.246)" fill="none" stroke="#2d334a" stroke-linecap="round" stroke-linejoin="round" stroke-miterlimit="10" stroke-width="0.5"/>
        <g id="Grupo_1186276" data-name="Grupo 1186276" transform="translate(13.092)">
          <path id="Trazado_1028559" data-name="Trazado 1028559" d="M2833.5,788.2Z" transform="translate(-2828.136 -779.285)" fill="#2d334a"/>
          <path id="Trazado_1028560" data-name="Trazado 1028560" d="M2792.233,806.194c-.195.627-1.071,1.233-1.525,1.092a.056.056,0,0,1-.043-.022,20.894,20.894,0,0,0,.065,2.812,4.121,4.121,0,0,1-1.838,1.071c-.8.216-2.066.216-2.2-.227a9.734,9.734,0,0,1,.011-2.022,2.211,2.211,0,0,1-.811-.141c-1.222-.476-1.73-2.239-1.363-4.2a7.8,7.8,0,0,1,.4-1.4,4.194,4.194,0,0,1,1.59-2.066,1.638,1.638,0,0,0-.065.573v.011a3.078,3.078,0,0,0,.086.887,4.613,4.613,0,0,0,2.011,2.542,5.435,5.435,0,0,0,.757.422c.065.022.119.054.173.076a2.354,2.354,0,0,0,1.114.141,1.812,1.812,0,0,1,.14-.249c.022-.032.054-.065.075-.1h0c.054-.065.109-.119.162-.173a.794.794,0,0,1,.746-.227.923.923,0,0,1,.184.076.848.848,0,0,1,.293.26A1.191,1.191,0,0,1,2792.233,806.194Z" transform="translate(-2784.36 -790.79)" fill="#fee9d2"/>
          <path id="Trazado_1028561" data-name="Trazado 1028561" d="M2842.433,839.111v.054l-.032-.065Z" transform="translate(-2836.074 -824.68)" fill="#edc2a8"/>
          <path id="Trazado_1028562" data-name="Trazado 1028562" d="M2842.433,839.111v.054l-.032-.065Z" transform="translate(-2836.074 -824.68)" fill="#edc2a8"/>
          <path id="Trazado_1028563" data-name="Trazado 1028563" d="M2826.233,787.195a8.154,8.154,0,0,0-.833-.108A2.714,2.714,0,0,1,2826.233,787.195Z" transform="translate(-2820.913 -778.29)" fill="#2d334a"/>
          <path id="Trazado_1028564" data-name="Trazado 1028564" d="M2842.433,839.111v.054l-.032-.065Z" transform="translate(-2836.074 -824.68)" fill="#2d334a"/>
          <path id="Trazado_1028565" data-name="Trazado 1028565" d="M2801.975,718.51c.4.5.79.93,1.157,1.309a45.812,45.812,0,0,1,2.682-6.046c-6.046-9.647-11.939-8.976-14.189-6.219-1.547,1.893-1.731,5.851-1.741,7.354a3.831,3.831,0,0,0-.616-.238h-.054a8.179,8.179,0,0,0-.833-.108c-1.7-.13-5.19.173-4.347,4.986a7.744,7.744,0,0,1,.4-1.4,4.185,4.185,0,0,1,1.59-2.066,1.649,1.649,0,0,0-.065.573v.011a3.107,3.107,0,0,0,.087.887,4.614,4.614,0,0,0,2.011,2.542,5.426,5.426,0,0,0,.758.422c.065.022.119.054.172.076a2.355,2.355,0,0,0,1.114.141,1.858,1.858,0,0,1,.141-.249c.021-.033.054-.065.075-.1h0c.054-.065.108-.119.163-.173a.792.792,0,0,1,.746-.227.953.953,0,0,1,.184.076.848.848,0,0,1,.292.259l.184-.433a4.779,4.779,0,0,0-.216-3.331,4.326,4.326,0,0,0-.389-.552c2.13-1.092,5.007.779,8.241,5.3a11.184,11.184,0,0,0,2.369,2.487c.173-.725.454-1.655.789-2.682a14.919,14.919,0,0,1-1.244-1.774,9.74,9.74,0,0,0-4.65-4.207S2799.174,715.027,2801.975,718.51Zm-11.712,1.752-.033-.065h.033Z" transform="translate(-2783.904 -705.766)" fill="#2d334a"/>
          <path id="Trazado_1028566" data-name="Trazado 1028566" d="M2842.433,839.111v.054l-.032-.065Z" transform="translate(-2836.074 -824.68)" fill="#2d334a"/>
        </g>
        <g id="Grupo_1186277" data-name="Grupo 1186277" transform="translate(13.148 10.31)">
          <path id="Trazado_1028567" data-name="Trazado 1028567" d="M2792.233,806.194c-.195.627-1.071,1.233-1.525,1.092a.056.056,0,0,1-.043-.022,20.894,20.894,0,0,0,.065,2.812,4.121,4.121,0,0,1-1.838,1.071c-.8.216-2.066.216-2.2-.227a9.734,9.734,0,0,1,.011-2.022,2.211,2.211,0,0,1-.811-.141c-1.222-.476-1.73-2.239-1.363-4.2a7.8,7.8,0,0,1,.4-1.4,4.194,4.194,0,0,1,1.59-2.066,1.638,1.638,0,0,0-.065.573v.011a3.078,3.078,0,0,0,.086.887,4.613,4.613,0,0,0,2.011,2.542,5.435,5.435,0,0,0,.757.422c.065.022.119.054.173.076a2.354,2.354,0,0,0,1.114.141,1.812,1.812,0,0,1,.14-.249c.022-.032.054-.065.075-.1h0c.054-.065.109-.119.162-.173a.794.794,0,0,1,.746-.227.923.923,0,0,1,.184.076.848.848,0,0,1,.293.26A1.191,1.191,0,0,1,2792.233,806.194Z" transform="translate(-2784.416 -801.1)" fill="none" stroke="#2d334a" stroke-linecap="round" stroke-linejoin="round" stroke-miterlimit="10" stroke-width="0.5"/>
        </g>
      </g>
      <g id="Grupo_1186279" data-name="Grupo 1186279" transform="translate(455.464 219.416)">
        <path id="Trazado_1028568" data-name="Trazado 1028568" d="M2184.522,523.839l.314-2.239.27,2.25a.542.542,0,0,0,.422.454l1.6.3-1.6.259a.528.528,0,0,0-.443.444l-.314,2.217-.27-2.217a.529.529,0,0,0-.422-.454l-1.579-.3,1.579-.26A.552.552,0,0,0,2184.522,523.839Z" transform="translate(-2182.5 -521.6)" fill="#2d334a"/>
        <path id="Trazado_1028569" data-name="Trazado 1028569" d="M2184.522,523.839l.314-2.239.27,2.25a.542.542,0,0,0,.422.454l1.6.3-1.6.259a.528.528,0,0,0-.443.444l-.314,2.217-.27-2.217a.529.529,0,0,0-.422-.454l-1.579-.3,1.579-.26A.552.552,0,0,0,2184.522,523.839Z" transform="translate(-2182.5 -521.6)" fill="none" stroke="#2d334a" stroke-linecap="round" stroke-linejoin="round" stroke-miterlimit="10" stroke-width="0.5"/>
      </g>
      <g id="Grupo_1186292" data-name="Grupo 1186292" transform="translate(355.468 182.253)">
        <path id="Trazado_1028570" data-name="Trazado 1028570" d="M1345.275,424.96h-83.6a3.771,3.771,0,0,1-3.775-3.774V312.774a3.771,3.771,0,0,1,3.775-3.774h83.6a3.771,3.771,0,0,1,3.774,3.774V421.185A3.771,3.771,0,0,1,1345.275,424.96Z" transform="translate(-1257.9 -294.83)" fill="#bbafb1"/>
        <path id="Trazado_1028571" data-name="Trazado 1028571" d="M1345.275,424.96h-83.6a3.771,3.771,0,0,1-3.775-3.774V312.774a3.771,3.771,0,0,1,3.775-3.774h83.6a3.771,3.771,0,0,1,3.774,3.774V421.185A3.771,3.771,0,0,1,1345.275,424.96Z" transform="translate(-1257.9 -294.83)" fill="none" stroke="#2d334a" stroke-linecap="round" stroke-linejoin="round" stroke-miterlimit="10" stroke-width="0.5"/>
        <g id="Grupo_1186291" data-name="Grupo 1186291" transform="translate(7.462 22.011)">
          <g id="Grupo_1186280" data-name="Grupo 1186280">
            <path id="Trazado_1028572" data-name="Trazado 1028572" d="M1403.136,381.5H1326.9v90.49l9,9h67.237Z" transform="translate(-1326.9 -381.5)" fill="#fffefc"/>
            <path id="Trazado_1028573" data-name="Trazado 1028573" d="M1403.136,381.5H1326.9v90.49l9,9h67.237Z" transform="translate(-1326.9 -381.5)" fill="none" stroke="#2d334a" stroke-linecap="round" stroke-linejoin="round" stroke-miterlimit="10" stroke-width="0.5"/>
            <path id="Trazado_1028574" data-name="Trazado 1028574" d="M1335.9,1218.2h-9l9,9Z" transform="translate(-1326.9 -1127.71)" fill="#2d334a"/>
          </g>
          <g id="Grupo_1186290" data-name="Grupo 1186290" transform="translate(14.341 13.443)">
            <line id="Línea_3254" data-name="Línea 3254" x2="35.895" transform="translate(8.241 9.593)" fill="none" stroke="#2d334a" stroke-linecap="round" stroke-linejoin="round" stroke-miterlimit="10" stroke-width="0.5"/>
            <line id="Línea_3255" data-name="Línea 3255" x2="35.852" transform="translate(8.284 13.14)" fill="none" stroke="#2d334a" stroke-linecap="round" stroke-linejoin="round" stroke-miterlimit="10" stroke-width="0.5"/>
            <line id="Línea_3256" data-name="Línea 3256" x2="39.659" transform="translate(4.477 16.699)" fill="none" stroke="#2d334a" stroke-linecap="round" stroke-linejoin="round" stroke-miterlimit="10" stroke-width="0.5"/>
            <line id="Línea_3257" data-name="Línea 3257" x2="35.895" transform="translate(8.241 33.484)" fill="none" stroke="#2d334a" stroke-linecap="round" stroke-linejoin="round" stroke-miterlimit="10" stroke-width="0.5"/>
            <line id="Línea_3258" data-name="Línea 3258" x2="35.852" transform="translate(8.284 37.042)" fill="none" stroke="#2d334a" stroke-linecap="round" stroke-linejoin="round" stroke-miterlimit="10" stroke-width="0.5"/>
            <line id="Línea_3259" data-name="Línea 3259" x2="39.659" transform="translate(4.477 40.6)" fill="none" stroke="#2d334a" stroke-linecap="round" stroke-linejoin="round" stroke-miterlimit="10" stroke-width="0.5"/>
            <g id="Grupo_1186283" data-name="Grupo 1186283">
              <g id="Grupo_1186281" data-name="Grupo 1186281">
                <path id="Trazado_1028575" data-name="Trazado 1028575" d="M1465.914,520.487h-2.336L1459.5,516.4l2.325-2.336,2.92,2.92,11.183-11.183,2.336,2.336Z" transform="translate(-1459.5 -505.8)" fill="#f95a37"/>
              </g>
              <g id="Grupo_1186282" data-name="Grupo 1186282">
                <path id="Trazado_1028576" data-name="Trazado 1028576" d="M1465.914,520.487h-2.336L1459.5,516.4l2.325-2.336,2.92,2.92,11.183-11.183,2.336,2.336Z" transform="translate(-1459.5 -505.8)" fill="none" stroke="#2d334a" stroke-linecap="round" stroke-linejoin="round" stroke-miterlimit="10" stroke-width="0.5"/>
              </g>
            </g>
            <line id="Línea_3260" data-name="Línea 3260" x2="35.895" transform="translate(8.241 56.065)" fill="none" stroke="#2d334a" stroke-linecap="round" stroke-linejoin="round" stroke-miterlimit="10" stroke-width="0.5"/>
            <line id="Línea_3261" data-name="Línea 3261" x2="35.852" transform="translate(8.284 59.624)" fill="none" stroke="#2d334a" stroke-linecap="round" stroke-linejoin="round" stroke-miterlimit="10" stroke-width="0.5"/>
            <line id="Línea_3262" data-name="Línea 3262" x2="39.659" transform="translate(4.477 63.171)" fill="none" stroke="#2d334a" stroke-linecap="round" stroke-linejoin="round" stroke-miterlimit="10" stroke-width="0.5"/>
            <g id="Grupo_1186286" data-name="Grupo 1186286" transform="translate(0 46.938)">
              <g id="Grupo_1186284" data-name="Grupo 1186284">
                <path id="Trazado_1028577" data-name="Trazado 1028577" d="M1465.914,954.487h-2.336L1459.5,950.4l2.325-2.336,2.92,2.92,11.183-11.183,2.336,2.336Z" transform="translate(-1459.5 -939.8)" fill="#f95a37"/>
              </g>
              <g id="Grupo_1186285" data-name="Grupo 1186285">
                <path id="Trazado_1028578" data-name="Trazado 1028578" d="M1465.914,954.487h-2.336L1459.5,950.4l2.325-2.336,2.92,2.92,11.183-11.183,2.336,2.336Z" transform="translate(-1459.5 -939.8)" fill="none" stroke="#2d334a" stroke-linecap="round" stroke-linejoin="round" stroke-miterlimit="10" stroke-width="0.5"/>
              </g>
            </g>
            <g id="Grupo_1186289" data-name="Grupo 1186289" transform="translate(0 23.858)">
              <g id="Grupo_1186287" data-name="Grupo 1186287">
                <path id="Trazado_1028579" data-name="Trazado 1028579" d="M1465.914,741.087h-2.336L1459.5,737l2.325-2.336,2.92,2.92,11.183-11.183,2.336,2.336Z" transform="translate(-1459.5 -726.4)" fill="#f95a37"/>
              </g>
              <g id="Grupo_1186288" data-name="Grupo 1186288">
                <path id="Trazado_1028580" data-name="Trazado 1028580" d="M1465.914,741.087h-2.336L1459.5,737l2.325-2.336,2.92,2.92,11.183-11.183,2.336,2.336Z" transform="translate(-1459.5 -726.4)" fill="none" stroke="#2d334a" stroke-linecap="round" stroke-linejoin="round" stroke-miterlimit="10" stroke-width="0.5"/>
              </g>
            </g>
          </g>
        </g>
        <path id="Trazado_1028581" data-name="Trazado 1028581" d="M1500.917,188.808a7.122,7.122,0,0,0,.973-3.6,7.2,7.2,0,1,0-13.432,3.6,1.132,1.132,0,0,1-.973,1.7h-12.524a2.659,2.659,0,0,0-2.66,2.66v9.571l1.006-.7,1.255.887,1.255-.887,1.255.887,1.255-.887,1.255.887,1.255-.887,1.255.887,1.254-.887,1.255.887,1.255-.887,1.255.887,1.255-.887,1.255.887,1.254-.887,1.255.887,1.255-.887,1.255.887,1.255-.887,1.255.887,1.255-.887,1.255.887,1.255-.887,1.255.887,1.255-.887,1.255.887,1.254-.887,1.255.887,1.255-.887,1.255.887,1.255-.887,1.255.887,1.254-.887,1.255.887,1.255-.887,1.017.714v-9.571a2.659,2.659,0,0,0-2.661-2.661h-12.524A1.138,1.138,0,0,1,1500.917,188.808Zm-6.4-6.348a2.737,2.737,0,1,1-2.552,2.552A2.736,2.736,0,0,1,1494.514,182.46Z" transform="translate(-1449.113 -177.98)" fill="#2d334a"/>
      </g>
      <g id="Grupo_1186310" data-name="Grupo 1186310" transform="translate(288.845 236.761)">
        <path id="Trazado_1028582" data-name="Trazado 1028582" d="M1014.8,1312.108c2.617-6.381,4.834-.562,4.9.465l1.557,28.833c.021.454-2.1.584-2.552.627s-1.06-1.979-1.06-1.979C1012.642,1323.247,1013.615,1315.893,1014.8,1312.108Z" transform="translate(-973.618 -1241.332)" fill="#edc2a8"/>
        <path id="Trazado_1028583" data-name="Trazado 1028583" d="M791.224,1324.848c6.035-3.342,4.131,2.585,3.526,3.428l-16.818,23.469c-.27.368-2-.854-2.379-1.114s.411-2.206.411-2.206C782.583,1332.18,787.936,1327.054,791.224,1324.848Z" transform="translate(-761.004 -1254.417)" fill="#edc2a8"/>
        <path id="Trazado_1028584" data-name="Trazado 1028584" d="M1014.8,1312.108c2.617-6.381,4.834-.562,4.9.465l1.557,28.833c.021.454-2.1.584-2.552.627s-1.06-1.979-1.06-1.979C1012.642,1323.247,1013.615,1315.893,1014.8,1312.108Z" transform="translate(-973.618 -1241.332)" fill="none" stroke="#2d334a" stroke-linecap="round" stroke-linejoin="round" stroke-miterlimit="10" stroke-width="0.5"/>
        <path id="Trazado_1028585" data-name="Trazado 1028585" d="M791.224,1324.848c6.035-3.342,4.131,2.585,3.526,3.428l-16.818,23.469c-.27.368-2-.854-2.379-1.114s.411-2.206.411-2.206C782.583,1332.18,787.936,1327.054,791.224,1324.848Z" transform="translate(-761.004 -1254.417)" fill="none" stroke="#2d334a" stroke-linecap="round" stroke-linejoin="round" stroke-miterlimit="10" stroke-width="0.5"/>
        <path id="Trazado_1028586" data-name="Trazado 1028586" d="M963.665,1092.707c1.092-2.715,5.267-2.531,5.332-2.542a1.546,1.546,0,0,1,1.611,1.471l3.807,25.589a.735.735,0,0,1-.465.844c-1.244.443-3.591,1.244-4,.357C963.405,1104.355,962.129,1096.525,963.665,1092.707Z" transform="translate(-928.341 -1046.006)" fill="#edc2a8"/>
        <path id="Trazado_1028587" data-name="Trazado 1028587" d="M907.911,1094.591c1.849-2.26,5.775-.854,5.84-.854a1.54,1.54,0,0,1,1.1,1.882l-3.958,25.567a.747.747,0,0,1-.692.671c-1.319.043-3.8.13-3.926-.844C904.2,1105.633,905.316,1097.771,907.911,1094.591Z" transform="translate(-876.718 -1048.819)" fill="#edc2a8"/>
        <g id="Grupo_1186293" data-name="Grupo 1186293" transform="translate(11.797 93.945)">
          <path id="Trazado_1028588" data-name="Trazado 1028588" d="M765.785,1559.5l-9.885-6.478a8.014,8.014,0,0,1,2.228-2.25c1.006-.562-.238.714.833,1.806s2.444.13,2.6.271a2.126,2.126,0,0,1,.3.984,8.773,8.773,0,0,0,2.444,3.136C765.45,1557.862,766.034,1558.922,765.785,1559.5Z" transform="translate(-755.366 -1550.63)" fill="#2d334a"/>
          <rect id="Rectángulo_458953" data-name="Rectángulo 458953" width="0.876" height="12.026" transform="matrix(0.548, -0.836, 0.836, 0.548, 0, 3.09)" fill="#6a6e7e"/>
          <path id="Trazado_1028589" data-name="Trazado 1028589" d="M756,1553.017a8.016,8.016,0,0,1,2.228-2.25c1.006-.562-.238.714.833,1.806s2.444.13,2.6.271a2.127,2.127,0,0,1,.3.984,8.771,8.771,0,0,0,2.444,3.136c1.135.887,1.719,1.958,1.471,2.531" transform="translate(-755.455 -1550.63)" fill="none" stroke="#2d334a" stroke-linecap="round" stroke-linejoin="round" stroke-miterlimit="10" stroke-width="0.5"/>
          <rect id="Rectángulo_458954" data-name="Rectángulo 458954" width="0.876" height="12.026" transform="matrix(0.548, -0.836, 0.836, 0.548, 0, 3.09)" fill="none" stroke="#2d334a" stroke-linecap="round" stroke-linejoin="round" stroke-miterlimit="10" stroke-width="0.5"/>
        </g>
        <g id="Grupo_1186294" data-name="Grupo 1186294" transform="translate(43.122 98.635)">
          <path id="Trazado_1028590" data-name="Trazado 1028590" d="M1052.921,1597.407H1041.1a8.031,8.031,0,0,1,.627-3.1c.53-1.017.195.724,1.687,1.06s2.109-1.233,2.325-1.2.454.3.79.649a8.849,8.849,0,0,0,3.764,1.287C1051.742,1596.218,1052.824,1596.791,1052.921,1597.407Z" transform="translate(-1041.046 -1593.989)" fill="#2d334a"/>
          <rect id="Rectángulo_458955" data-name="Rectángulo 458955" width="12.026" height="0.876" transform="translate(0 3.419)" fill="#6a6e7e"/>
          <path id="Trazado_1028591" data-name="Trazado 1028591" d="M1041.2,1597.407a8.026,8.026,0,0,1,.627-3.1c.53-1.017.195.724,1.687,1.06s2.109-1.233,2.325-1.2.454.3.789.649a8.852,8.852,0,0,0,3.764,1.287c1.438.119,2.509.692,2.617,1.309" transform="translate(-1041.135 -1593.989)" fill="none" stroke="#2d334a" stroke-linecap="round" stroke-linejoin="round" stroke-miterlimit="10" stroke-width="0.5"/>
          <rect id="Rectángulo_458956" data-name="Rectángulo 458956" width="12.026" height="0.876" transform="translate(0 3.419)" fill="none" stroke="#2d334a" stroke-linecap="round" stroke-linejoin="round" stroke-miterlimit="10" stroke-width="0.5"/>
        </g>
        <path id="Trazado_1028592" data-name="Trazado 1028592" d="M959.126,1120.8s2.66,16.266,3.2,22.214,1.384,24.767,1.384,24.767h-5.84s-4.348-17.964-2.228-24.55c0,0-6.857-18.321-6.943-21.706l6.381-4.229Z" transform="translate(-915.517 -1070.22)" fill="#6a6e7e"/>
        <path id="Trazado_1028593" data-name="Trazado 1028593" d="M807.59,1133.275s-2.855,18.894-3.645,20.343-14.384,20.365-14.384,20.365l-4.661-3s5.764-14.622,13.011-20.214c0,0-1.622-16.85,0-19.835l2.909-2.639,5.548,1.428Z" transform="translate(-769.432 -1080.03)" fill="#6a6e7e"/>
        <path id="Trazado_1028594" data-name="Trazado 1028594" d="M816.242,1143.118c-.53-5.948-3.2-22.214-3.2-22.214l-4.056-3.5-3.569,2.369-4.6-1.19-2.909,2.639c-1.622,2.974,0,19.835,0,19.835-7.257,5.6-13.01,20.214-13.01,20.214l4.661,3s13.595-18.916,14.384-20.365c.389-.714,1.276-5.6,2.076-10.415,1.752,5.1,3.526,9.853,3.526,9.853-2.12,6.586,2.228,24.55,2.228,24.55h5.84C817.627,1167.874,816.772,1149.067,816.242,1143.118Z" transform="translate(-769.432 -1070.309)" fill="none" stroke="#2d334a" stroke-linecap="round" stroke-linejoin="round" stroke-miterlimit="10" stroke-width="0.5"/>
        <path id="Trazado_1028595" data-name="Trazado 1028595" d="M975.572,815.363c-1.958,1.168-2.444,3.9-2.455,3.948-.206.865.292,3.039,1.081,2.715l13.552-7.181c.292-.108.162-.454.086-.671A.315.315,0,0,0,987.7,814c-.389-.389-1.709-1.449-2.433-1.352C981.369,813.222,978.125,813.838,975.572,815.363Z" transform="translate(-937.252 -798.511)" fill="#edc2a8"/>
        <g id="Grupo_1186297" data-name="Grupo 1186297" transform="translate(54.629 0.007)">
          <g id="Grupo_1186295" data-name="Grupo 1186295" transform="translate(0.346)">
            <path id="Trazado_1028596" data-name="Trazado 1028596" d="M1171.977,682.832l-4.186,2.509a.431.431,0,0,1-.584-.141h0a.431.431,0,0,1,.141-.584l4.185-2.509a.431.431,0,0,1,.584.141h0A.431.431,0,0,1,1171.977,682.832Z" transform="translate(-1165.315 -682.048)" fill="#edc2a8"/>
            <path id="Trazado_1028597" data-name="Trazado 1028597" d="M1181.007,687.132l-3.915,2.347a.431.431,0,0,1-.584-.141h0a.431.431,0,0,1,.141-.584l3.915-2.347a.431.431,0,0,1,.584.141h0A.412.412,0,0,1,1181.007,687.132Z" transform="translate(-1173.609 -685.883)" fill="#edc2a8"/>
            <path id="Trazado_1028598" data-name="Trazado 1028598" d="M1179.607,696.132l-3.915,2.347a.43.43,0,0,1-.584-.141h0a.43.43,0,0,1,.141-.584l3.915-2.347a.431.431,0,0,1,.584.141h0A.412.412,0,0,1,1179.607,696.132Z" transform="translate(-1172.36 -693.91)" fill="#edc2a8"/>
            <path id="Trazado_1028599" data-name="Trazado 1028599" d="M1181,707l-3.331,2a.372.372,0,0,1-.508-.13h0a.372.372,0,0,1,.13-.508l3.331-2a.372.372,0,0,1,.508.13h0A.37.37,0,0,1,1181,707Z" transform="translate(-1174.201 -703.687)" fill="#edc2a8"/>
            <path id="Trazado_1028600" data-name="Trazado 1028600" d="M1153.444,713.076l.044.184.011.043.173.789.011.032.108.487.043.216a2.371,2.371,0,0,1-.249.162c-.541.325-.952.422-1.222.206l-.335.238-.043.033-1.244-.692-.541-.746.357-.508.26-.357.065-.087.173.043c.022-.022.032-.043.054-.065V713l.909.811.616-.324.487-.26.076-.043Z" transform="translate(-1150.2 -709.653)" fill="#edc2a8"/>
            <path id="Trazado_1028601" data-name="Trazado 1028601" d="M1157.995,689.2l.379-1.46a.952.952,0,0,0-.26-.519.251.251,0,0,1-.1-.227h0c.076-.357.292-.249.53-1.06s-.26-1.017-.389-1.038-.141.389-.184.584-.433.573-.573.811a2.942,2.942,0,0,1-.584.584,5.831,5.831,0,0,0-.573.584c-.021.022-.032.043-.054.065a.925.925,0,0,0-.195.876l.216.736Z" transform="translate(-1155.334 -684.585)" fill="#edc2a8"/>
            <path id="Trazado_1028602" data-name="Trazado 1028602" d="M1167.2,699.409l1.547,2.066,1.427-1.006-.649-2.369Z" transform="translate(-1165.361 -696.364)" fill="#edc2a8"/>
          </g>
          <g id="Grupo_1186296" data-name="Grupo 1186296" transform="translate(0 3.65)">
            <path id="Trazado_1028603" data-name="Trazado 1028603" d="M1149.758,716.871l-.595,1.082-.022.043-.022-.011-1.244-.692-.876-.487c.249-.27.476-.519.7-.757.076-.087.151-.162.227-.249l.032.022,1.568.93Z" transform="translate(-1147 -715.8)" fill="#edc2a8"/>
          </g>
        </g>
        <path id="Trazado_1028604" data-name="Trazado 1028604" d="M964.18,812.167c-2.163,1.4-2.693,4.542-2.7,4.6-.205.963.422,3.309,1.3,2.92l14.979-8.6c.314-.13.162-.508.076-.735a.382.382,0,0,0-.162-.184c-.443-.411-1.871-1.741-2.671-1.579C970.637,809.42,966.992,810.361,964.18,812.167Z" transform="translate(-926.877 -794.883)" fill="#2d334a"/>
        <path id="Trazado_1028605" data-name="Trazado 1028605" d="M934.2,827.557l.032.065,6.046,10.61-.779-9.972-.032-.368a7.047,7.047,0,0,0-3.05-.692A7.262,7.262,0,0,0,934.2,827.557Z" transform="translate(-902.585 -811.494)" fill="#fcf1d8"/>
        <path id="Trazado_1028606" data-name="Trazado 1028606" d="M934.2,827.557l.032.065,6.046,10.61-.779-9.972-.032-.368a7.047,7.047,0,0,0-3.05-.692A7.262,7.262,0,0,0,934.2,827.557Z" transform="translate(-902.585 -811.494)" fill="none" stroke="#2d334a" stroke-linecap="round" stroke-linejoin="round" stroke-miterlimit="10" stroke-width="0.5"/>
        <path id="Trazado_1028607" data-name="Trazado 1028607" d="M888.1,837.608c0,.184.011.368.022.552l1.265,25.383H904.42l-.541-7.473-1.352-18.981a7.466,7.466,0,0,0-1.676-4.218,7.2,7.2,0,0,0-2.477-1.936l.032.368.779,9.971-6.046-10.61-.032-.065c-.086.033-.184.065-.27.1A7.356,7.356,0,0,0,888.1,837.608Z" transform="translate(-861.471 -814.527)" fill="#2d334a"/>
        <path id="Trazado_1028608" data-name="Trazado 1028608" d="M848.384,864.779c.822-2.131-.487-4.586-.5-4.618-.368-.811-2.109-2.206-2.52-1.471l-6.229,14.016c-.162.26.162.454.346.573a.3.3,0,0,0,.216.043c.541.076,2.563.844,3.071.314A27.463,27.463,0,0,0,848.384,864.779Z" transform="translate(-817.764 -839.394)" fill="#edc2a8"/>
        <path id="Trazado_1028609" data-name="Trazado 1028609" d="M847.542,864.058c.822-2.131-.357-4.834-.368-4.878-.368-.811-2.228-2.228-2.715-1.3L838.111,871.9c-.162.26.281.454.465.573a.3.3,0,0,0,.216.043c.541.076,2.682.844,3.19.314A27.045,27.045,0,0,0,847.542,864.058Z" transform="translate(-816.857 -838.586)" fill="#2d334a"/>
        <path id="Trazado_1028610" data-name="Trazado 1028610" d="M926.447,832.559l-1.19,2.087,6.111,5.245-.087-1.125-6.046-10.61-.043-.065-.162-.292-.1.389-.032.108-.8,3.1Z" transform="translate(-893.577 -812.029)" fill="#6a6e7e"/>
        <path id="Trazado_1028611" data-name="Trazado 1028611" d="M982.7,829.5l.043.443.022.357.779,9.982.087,1.125.151,1.914.389-1.449.087-.335,1.828-6.684-2-.973.833-1.471.3-.53.065-.119Z" transform="translate(-945.84 -813.546)" fill="#6a6e7e"/>
        <path id="Trazado_1028612" data-name="Trazado 1028612" d="M926.447,832.559l-1.19,2.087,6.111,5.245-.087-1.125-6.046-10.61-.043-.065-.162-.292-.1.389-.032.108-.8,3.1Z" transform="translate(-893.577 -812.029)" fill="none" stroke="#2d334a" stroke-linecap="round" stroke-linejoin="round" stroke-miterlimit="10" stroke-width="0.5"/>
        <path id="Trazado_1028613" data-name="Trazado 1028613" d="M982.7,829.5l.043.443.022.357.779,9.982.087,1.125.151,1.914.389-1.449.087-.335,1.828-6.684-2-.973.833-1.471.3-.53.065-.119Z" transform="translate(-945.84 -813.546)" fill="none" stroke="#2d334a" stroke-linecap="round" stroke-linejoin="round" stroke-miterlimit="10" stroke-width="0.5"/>
        <path id="Trazado_1028614" data-name="Trazado 1028614" d="M901.6,1041l3.472,12.254-5.04.5-1.687-4.412v4.629l-12.448.357,1.525-11.172Z" transform="translate(-859.509 -1002.172)" fill="#2d334a"/>
        <g id="Grupo_1186305" data-name="Grupo 1186305" transform="translate(0 36.319)">
          <g id="Grupo_1186300" data-name="Grupo 1186300" transform="translate(15.695)">
            <g id="Grupo_1186298" data-name="Grupo 1186298">
              <path id="Trazado_1028615" data-name="Trazado 1028615" d="M1069.3,1017.8l-.313.043-1.082.93,2.369,1.049-1.958,1.7,2.369,1.049-1.969,1.687,1.363.605.26-.032,7.711-3.288-.411-2.833Z" transform="translate(-1037.521 -1017.8)" fill="#fcf1d8"/>
              <path id="Trazado_1028616" data-name="Trazado 1028616" d="M1157.9,1026.2l.411,2.833,5.234-2.217Z" transform="translate(-1117.787 -1025.292)" fill="#2d334a"/>
              <path id="Trazado_1028617" data-name="Trazado 1028617" d="M820.159,1022.926l-2.369-1.049,1.958-1.7-2.368-1.049,1.081-.93L787,1022.862l1.038,7.019,31.515-4.661-1.363-.606Z" transform="translate(-787 -1018.157)" fill="#f95a37"/>
            </g>
            <line id="Línea_3263" data-name="Línea 3263" x1="32.434" y2="4.802" transform="translate(0.314 2.022)" fill="none" stroke="#2d334a" stroke-linecap="round" stroke-linejoin="round" stroke-miterlimit="10" stroke-width="0.5"/>
            <line id="Línea_3264" data-name="Línea 3264" x1="32.434" y2="4.802" transform="translate(0.725 4.769)" fill="none" stroke="#2d334a" stroke-linecap="round" stroke-linejoin="round" stroke-miterlimit="10" stroke-width="0.5"/>
            <g id="Grupo_1186299" data-name="Grupo 1186299">
              <path id="Trazado_1028618" data-name="Trazado 1028618" d="M1069.3,1017.8l-.313.043-1.082.93,2.369,1.049-1.958,1.7,2.369,1.049-1.969,1.687,1.363.605.26-.032,7.711-3.288-.411-2.833Z" transform="translate(-1037.521 -1017.8)" fill="none" stroke="#2d334a" stroke-linecap="round" stroke-linejoin="round" stroke-miterlimit="10" stroke-width="0.5"/>
              <path id="Trazado_1028619" data-name="Trazado 1028619" d="M1157.9,1026.2l.411,2.833,5.234-2.217Z" transform="translate(-1117.787 -1025.292)" fill="none" stroke="#2d334a" stroke-linecap="round" stroke-linejoin="round" stroke-miterlimit="10" stroke-width="0.5"/>
              <path id="Trazado_1028620" data-name="Trazado 1028620" d="M820.159,1022.926l-2.369-1.049,1.958-1.7-2.368-1.049,1.081-.93L787,1022.862l1.038,7.019,31.515-4.661-1.363-.606Z" transform="translate(-787 -1018.157)" fill="none" stroke="#2d334a" stroke-linecap="round" stroke-linejoin="round" stroke-miterlimit="10" stroke-width="0.5"/>
            </g>
          </g>
          <g id="Grupo_1186304" data-name="Grupo 1186304" transform="translate(0 4.137)">
            <path id="Trazado_1028621" data-name="Trazado 1028621" d="M656.449,1065.53l.692,4.661a1.2,1.2,0,0,1-1.006,1.363l-12.189,1.8a1.2,1.2,0,0,1-1.363-1.006l-.692-4.661a1.2,1.2,0,0,1,1.006-1.363l12.189-1.806A1.215,1.215,0,0,1,656.449,1065.53Z" transform="translate(-641.879 -1063.589)" fill="#2d334a"/>
            <rect id="Rectángulo_458957" data-name="Rectángulo 458957" width="8.187" height="11.875" transform="translate(5.265 9.837) rotate(-98.419)" fill="#fcc07e"/>
            <circle id="Elipse_13750" data-name="Elipse 13750" cx="0.497" cy="0.497" r="0.497" transform="translate(10.33 6.847) rotate(-8.419)" fill="#2d334a"/>
            <circle id="Elipse_13751" data-name="Elipse 13751" cx="0.497" cy="0.497" r="0.497" transform="translate(9.984 4.489) rotate(-8.419)" fill="#2d334a"/>
            <circle id="Elipse_13752" data-name="Elipse 13752" cx="0.497" cy="0.497" r="0.497" transform="translate(9.638 2.131) rotate(-8.419)" fill="#2d334a"/>
            <g id="Grupo_1186303" data-name="Grupo 1186303" transform="translate(4.066 0)">
              <rect id="Rectángulo_458958" data-name="Rectángulo 458958" width="8.187" height="11.875" transform="translate(1.199 9.837) rotate(-98.419)" fill="none" stroke="#2d334a" stroke-linecap="round" stroke-linejoin="round" stroke-miterlimit="10" stroke-width="0.5"/>
              <g id="Grupo_1186301" data-name="Grupo 1186301" transform="translate(7.206 0.254)">
                <line id="Línea_3265" data-name="Línea 3265" x1="1.2" y1="8.101" transform="translate(2.812)" fill="none" stroke="#2d334a" stroke-linecap="round" stroke-linejoin="round" stroke-miterlimit="10" stroke-width="0.5"/>
                <line id="Línea_3266" data-name="Línea 3266" x1="1.2" y1="8.101" transform="translate(1.406 0.205)" fill="none" stroke="#2d334a" stroke-linecap="round" stroke-linejoin="round" stroke-miterlimit="10" stroke-width="0.5"/>
                <line id="Línea_3267" data-name="Línea 3267" x1="1.2" y1="8.111" transform="translate(0 0.411)" fill="none" stroke="#2d334a" stroke-linecap="round" stroke-linejoin="round" stroke-miterlimit="10" stroke-width="0.5"/>
              </g>
              <g id="Grupo_1186302" data-name="Grupo 1186302" transform="translate(1.657 1.076)">
                <line id="Línea_3268" data-name="Línea 3268" x1="1.19" y1="8.101" transform="translate(2.823)" fill="none" stroke="#2d334a" stroke-linecap="round" stroke-linejoin="round" stroke-miterlimit="10" stroke-width="0.5"/>
                <line id="Línea_3269" data-name="Línea 3269" x1="1.2" y1="8.101" transform="translate(1.406 0.205)" fill="none" stroke="#2d334a" stroke-linecap="round" stroke-linejoin="round" stroke-miterlimit="10" stroke-width="0.5"/>
                <line id="Línea_3270" data-name="Línea 3270" x1="1.2" y1="8.101" transform="translate(0 0.411)" fill="none" stroke="#2d334a" stroke-linecap="round" stroke-linejoin="round" stroke-miterlimit="10" stroke-width="0.5"/>
              </g>
            </g>
          </g>
        </g>
        <path id="Trazado_1028622" data-name="Trazado 1028622" d="M1089.855,734.044l-4.759,8.176a2,2,0,0,1-2.542.941,2.189,2.189,0,0,1-1.19-2.769c.033-.065.054-.141.1-.216a42.933,42.933,0,0,1,5.862-8.176l.184.151,2.152,1.741Z" transform="translate(-1033.679 -726.59)" fill="#2d334a"/>
        <path id="Trazado_1028623" data-name="Trazado 1028623" d="M1142.542,726.2l-.79,1.438L1139.6,725.9c.281-.314.552-.616.811-.9l.876.487,1.244.692Z" transform="translate(-1085.771 -720.347)" fill="#fcf1d8"/>
        <path id="Trazado_1028624" data-name="Trazado 1028624" d="M835.515,992.7H832.4l.108-9.442a2.227,2.227,0,0,1,1.622-2.011c.022,0,.043-.011.065-.011a.872.872,0,0,1,.238,0c.011,0,.086,0,.216.011a.371.371,0,0,1,.108.011h0a2.144,2.144,0,0,1,2.141,1.871C837.1,984.932,836.359,989.161,835.515,992.7Z" transform="translate(-811.795 -948.862)" fill="#2d334a"/>
        <path id="Trazado_1028625" data-name="Trazado 1028625" d="M835.888,1087.3c-.108.476-.227.93-.335,1.373h-.173l-1.492-.011-.887-.011.022-1.352Z" transform="translate(-812.33 -1043.464)" fill="#fcf1d8"/>
        <path id="Trazado_1028626" data-name="Trazado 1028626" d="M835.888,1087.3c-.108.476-.227.93-.335,1.373h-.173l-1.492-.011-.887-.011.022-1.352Z" transform="translate(-812.33 -1043.464)" fill="none" stroke="#2d334a" stroke-linecap="round" stroke-linejoin="round" stroke-miterlimit="10" stroke-width="0.5"/>
        <path id="Trazado_1028627" data-name="Trazado 1028627" d="M1154.4,682.512l-.141.087a.427.427,0,0,0-.011-.411.412.412,0,0,0-.584-.141l-3.374,2.022a1.848,1.848,0,0,0,.357-.735c.238-.822-.26-1.017-.389-1.038s-.141.389-.184.584-.433.573-.573.811a2.946,2.946,0,0,1-.584.584,5.826,5.826,0,0,0-.573.584c-.022.022-.033.043-.054.065a.87.87,0,0,0-.227.595h0l-.26.357c-.227.238-.454.5-.7.757l.876.487,1.244.692.021.011.022-.043.335-.238c.271.205.681.119,1.222-.206h0a.724.724,0,0,0,.087-.032l3.331-2a.372.372,0,0,0,.13-.508h0a.349.349,0,0,0-.357-.173l.67-.4a.412.412,0,0,0,.141-.584.464.464,0,0,0-.314-.205l.324-.195a.412.412,0,0,0,.141-.584A.42.42,0,0,0,1154.4,682.512Z" transform="translate(-1092.46 -681.98)" fill="none" stroke="#2d334a" stroke-linecap="round" stroke-linejoin="round" stroke-miterlimit="10" stroke-width="0.5"/>
        <path id="Trazado_1028628" data-name="Trazado 1028628" d="M1142.542,726.2l-.79,1.438L1139.6,725.9c.281-.314.552-.616.811-.9l.876.487,1.244.692Z" transform="translate(-1085.771 -720.347)" fill="none" stroke="#2d334a" stroke-linecap="round" stroke-linejoin="round" stroke-miterlimit="10" stroke-width="0.5"/>
        <path id="Trazado_1028629" data-name="Trazado 1028629" d="M978.6,1227.776s.735-5.224,1.017-5.776" transform="translate(-942.183 -1163.596)" fill="none" stroke="#2d334a" stroke-linecap="round" stroke-linejoin="round" stroke-miterlimit="10" stroke-width="0.5"/>
        <g id="Grupo_1186308" data-name="Grupo 1186308" transform="translate(20.614 45.188)">
          <g id="Grupo_1186306" data-name="Grupo 1186306" transform="translate(0 0.011)">
            <path id="Trazado_1028630" data-name="Trazado 1028630" d="M854.791,1122.528l-.952-4.791a.428.428,0,0,1,.335-.5h0a.429.429,0,0,1,.5.335l.952,4.791a.428.428,0,0,1-.335.5h0A.428.428,0,0,1,854.791,1122.528Z" transform="translate(-851.523 -1115.357)" fill="#edc2a8"/>
            <path id="Trazado_1028631" data-name="Trazado 1028631" d="M848.837,1130.114l-.9-4.478a.428.428,0,0,1,.335-.5h0a.428.428,0,0,1,.5.335l.9,4.478a.428.428,0,0,1-.335.5h0A.428.428,0,0,1,848.837,1130.114Z" transform="translate(-846.261 -1122.403)" fill="#edc2a8"/>
            <path id="Trazado_1028632" data-name="Trazado 1028632" d="M840.837,1125.714l-.9-4.478a.428.428,0,0,1,.335-.5h0a.428.428,0,0,1,.5.335l.9,4.478a.428.428,0,0,1-.335.5h0A.428.428,0,0,1,840.837,1125.714Z" transform="translate(-839.127 -1118.479)" fill="#edc2a8"/>
            <path id="Trazado_1028633" data-name="Trazado 1028633" d="M833.789,1124.571l-.757-3.807a.356.356,0,0,1,.292-.432h0a.356.356,0,0,1,.433.292l.757,3.807a.357.357,0,0,1-.292.433h0A.384.384,0,0,1,833.789,1124.571Z" transform="translate(-832.965 -1118.115)" fill="#edc2a8"/>
            <path id="Trazado_1028634" data-name="Trazado 1028634" d="M834.8,1101.036l-.616.335.033.227.065.465.076.541.011.087.043.281-.184-.022h-.043l-.8-.108-.043-.011-.5-.065-.227-.032c-.022-.1-.054-.195-.065-.281a1.8,1.8,0,0,1-.011-.93.518.518,0,0,1,.227-.292l-.162-1.168.833-.162,1.492.011.087.314.065.216.076.271a.28.28,0,0,0,.043.076c.022.011.033.011.054.022Z" transform="translate(-832.487 -1099.9)" fill="#edc2a8"/>
            <path id="Trazado_1028635" data-name="Trazado 1028635" d="M841.8,1105.676l1.244.844a.929.929,0,0,0,.584-.076.3.3,0,0,1,.249-.022h0c.314.184.13.357.822.854s1.038.1,1.1-.022-.325-.271-.487-.368-.389-.606-.573-.811a3.007,3.007,0,0,1-.357-.746,4.624,4.624,0,0,0-.357-.735.466.466,0,0,1-.043-.076.928.928,0,0,0-.757-.476l-.768-.043Z" transform="translate(-840.793 -1103.557)" fill="#edc2a8"/>
            <path id="Trazado_1028636" data-name="Trazado 1028636" d="M837.655,1117.1l-2.455.768.465,1.687,2.444.184Z" transform="translate(-834.907 -1115.24)" fill="#edc2a8"/>
          </g>
          <g id="Grupo_1186307" data-name="Grupo 1186307" transform="translate(0.034)">
            <path id="Trazado_1028637" data-name="Trazado 1028637" d="M835.374,1099.811c-.022.108-.054.205-.076.313-.022.065-.032.13-.054.195-.054.216-.108.422-.162.627s-.108.4-.162.584l-.433-.022-.541-.021-1.136-.054H832.8l.022-1.633.887.011,1.493.011Z" transform="translate(-832.8 -1099.8)" fill="#edc2a8"/>
          </g>
        </g>
        <path id="Trazado_1028638" data-name="Trazado 1028638" d="M836.951,1102.974c-.162-.1-.389-.606-.573-.811a3,3,0,0,1-.357-.746,4.618,4.618,0,0,0-.357-.735.473.473,0,0,1-.043-.076.966.966,0,0,0-.595-.454h0l-.065-.216c.022-.108.054-.206.076-.314h-.173l-1.492-.011-.887-.011-.021,1.633h.011a1.88,1.88,0,0,0,.011.919v.1l.757,3.807a.366.366,0,0,0,.433.292h0a.376.376,0,0,0,.281-.27l.151.768a.428.428,0,0,0,.5.335.418.418,0,0,0,.292-.227l.076.368a.424.424,0,1,0,.833-.162l-.032-.162a.421.421,0,0,0,.389.119.428.428,0,0,0,.335-.5l-.768-3.861a1.77,1.77,0,0,0,.573.584c.692.5,1.038.1,1.1-.022C837.492,1103.234,837.114,1103.083,836.951,1102.974Z" transform="translate(-811.815 -1054.434)" fill="none" stroke="#2d334a" stroke-linecap="round" stroke-linejoin="round" stroke-miterlimit="10" stroke-width="0.5"/>
        <g id="Grupo_1186309" data-name="Grupo 1186309" transform="translate(29.089 3.578)">
          <path id="Trazado_1028639" data-name="Trazado 1028639" d="M912.488,724.855a10.3,10.3,0,0,1,1.525,1.287c-.032-.5-.076-1.071-.13-1.633a.082.082,0,0,1-.043.022c-.443.184-1.373-.368-1.622-.984a.975.975,0,0,1,0-.854.9.9,0,0,1,.443-.379.735.735,0,0,1,.562.043,1.193,1.193,0,0,1,.378.292c.022.022.043.054.065.076s.011.011.011.022v.043l.368,1.168.065.206.379,1.19a2.208,2.208,0,0,0,.292.573,2.02,2.02,0,0,0,.865.66,2.1,2.1,0,0,0,.584.141l1.341.13.411.043h.108a1.6,1.6,0,0,0,.735-.151l1.1-.508a1.352,1.352,0,0,0,.595-2.012l-.227-.335h-.054c0-.022.011-.043.011-.065l-.216-.314a.457.457,0,0,0-.541-.162l-1.86.7h-.011a.455.455,0,0,0-.292.443l.076.865a.518.518,0,0,1-.573.552l-.443-.043-.086-.011a1.159,1.159,0,0,1-.865-.519.956.956,0,0,1-.119-.26l-.032-.119-.833-2.639-.324-1.017a.655.655,0,0,1,.3-.314l2.293-1.2a1.587,1.587,0,0,0,.768-1.9,3.979,3.979,0,0,1,1.276.984c.66-1.493.411-3.666-2.2-3.807-2.9-.151-4.651,4.023-4.651,4.023C909.9,719.717,911.1,723.9,912.488,724.855Z" transform="translate(-910.849 -715.063)" fill="#2d334a"/>
          <path id="Trazado_1028640" data-name="Trazado 1028640" d="M998.1,796.365h.043l-.043-.065Z" transform="translate(-988.664 -787.514)" fill="#2d334a"/>
          <path id="Trazado_1028641" data-name="Trazado 1028641" d="M937,786l.022.065v-.043Z" transform="translate(-934.172 -778.328)" fill="#2d334a"/>
          <path id="Trazado_1028642" data-name="Trazado 1028642" d="M941.5,744.639l.324,1.016.865,2.758a1.394,1.394,0,0,0,.119.26,1.129,1.129,0,0,0,.865.519l.087.011.443.043a.513.513,0,0,0,.573-.552l-.076-.865a.42.42,0,0,1,.292-.443H945l1.86-.7a.458.458,0,0,1,.541.162l.216.314a7.1,7.1,0,0,0-.724-3.807,4.354,4.354,0,0,0-2.033-2.152,1.582,1.582,0,0,1-.768,1.9l-2.293,1.2A.985.985,0,0,0,941.5,744.639Z" transform="translate(-938.185 -738.373)" fill="#edc2a8"/>
          <path id="Trazado_1028643" data-name="Trazado 1028643" d="M937,786l.022.065v-.043Z" transform="translate(-934.172 -778.328)" fill="#2d334a"/>
          <path id="Trazado_1028644" data-name="Trazado 1028644" d="M922.674,783.047c.249.616,1.168,1.157,1.622.984.011-.011.032-.011.043-.022.076.735.13,1.482.151,2.066.011.314.054,1.06.033,1.244a4.206,4.206,0,0,0,1.936.93c.811.151,2.1.065,2.2-.389a13.842,13.842,0,0,0-.065-1.428h-.119l-.411-.043-1.341-.13a2.1,2.1,0,0,1-.584-.141,1.955,1.955,0,0,1-1.157-1.233l-.378-1.19-.065-.206-.368-1.179-.032-.076c-.022-.022-.043-.054-.065-.076a1.322,1.322,0,0,0-.378-.292.652.652,0,0,0-.562-.043.812.812,0,0,0-.443.379A.88.88,0,0,0,922.674,783.047Z" transform="translate(-921.306 -774.564)" fill="#edc2a8"/>
          <path id="Trazado_1028645" data-name="Trazado 1028645" d="M941.5,744.639l.324,1.016.865,2.758a1.394,1.394,0,0,0,.119.26,1.129,1.129,0,0,0,.865.519l.087.011.443.043a.513.513,0,0,0,.573-.552l-.076-.865a.42.42,0,0,1,.292-.443H945l1.86-.7a.458.458,0,0,1,.541.162l.216.314a7.1,7.1,0,0,0-.724-3.807,4.354,4.354,0,0,0-2.033-2.152,1.582,1.582,0,0,1-.768,1.9l-2.293,1.2A.985.985,0,0,0,941.5,744.639Z" transform="translate(-938.185 -738.373)" fill="none" stroke="#2d334a" stroke-linecap="round" stroke-linejoin="round" stroke-miterlimit="10" stroke-width="0.5"/>
          <path id="Trazado_1028646" data-name="Trazado 1028646" d="M922.674,783.047c.249.616,1.168,1.157,1.622.984.011-.011.032-.011.043-.022.076.735.13,1.482.151,2.066.011.314.054,1.06.033,1.244a4.206,4.206,0,0,0,1.936.93c.811.151,2.1.065,2.2-.389a13.842,13.842,0,0,0-.065-1.428h-.119l-.411-.043-1.341-.13a2.1,2.1,0,0,1-.584-.141,1.955,1.955,0,0,1-1.157-1.233l-.378-1.19-.065-.206-.368-1.179-.032-.076c-.022-.022-.043-.054-.065-.076a1.322,1.322,0,0,0-.378-.292.652.652,0,0,0-.562-.043.812.812,0,0,0-.443.379A.88.88,0,0,0,922.674,783.047Z" transform="translate(-921.306 -774.564)" fill="none" stroke="#2d334a" stroke-linecap="round" stroke-linejoin="round" stroke-miterlimit="10" stroke-width="0.5"/>
          <path id="Trazado_1028647" data-name="Trazado 1028647" d="M937,786l.022.065v-.043Z" transform="translate(-934.172 -778.328)" fill="#2d334a"/>
          <path id="Trazado_1028648" data-name="Trazado 1028648" d="M998.1,796.365h.043l-.043-.065Z" transform="translate(-988.664 -787.514)" fill="#2d334a"/>
          <path id="Trazado_1028649" data-name="Trazado 1028649" d="M937,786l.022.065v-.043Z" transform="translate(-934.172 -778.328)" fill="#2d334a"/>
        </g>
      </g>
      <g id="Grupo_1186315" data-name="Grupo 1186315" transform="translate(474.185 204.858)">
        <g id="Grupo_1186311" data-name="Grupo 1186311" transform="translate(38.069 3.526)">
          <rect id="Rectángulo_458959" data-name="Rectángulo 458959" width="1.049" height="47.803" fill="#2d334a"/>
        </g>
        <g id="Grupo_1186312" data-name="Grupo 1186312" transform="translate(37.442)">
          <path id="Trazado_1028650" data-name="Trazado 1028650" d="M2704.115,389.552a1.539,1.539,0,1,0-1.157,2.552A4.08,4.08,0,0,0,2704.115,389.552Z" transform="translate(-2701.8 -387)" fill="#2d334a"/>
        </g>
        <g id="Grupo_1186313" data-name="Grupo 1186313" transform="translate(37.128 3.634)">
          <circle id="Elipse_13753" data-name="Elipse 13753" cx="1.471" cy="1.471" r="1.471" fill="#2d334a"/>
        </g>
        <g id="Grupo_1186314" data-name="Grupo 1186314" transform="translate(0 7.559)">
          <rect id="Rectángulo_458960" data-name="Rectángulo 458960" width="15.639" height="8.663" transform="translate(40.4 8.663) rotate(180)" fill="#f95a37"/>
          <path id="Trazado_1028651" data-name="Trazado 1028651" d="M2355.6,495.463h31.277V486.8H2355.6l3.948,4.326Z" transform="translate(-2355.6 -483.566)" fill="#f95a37"/>
          <path id="Trazado_1028652" data-name="Trazado 1028652" d="M2355.6,460.134h24.766V456.9h15.639v8.663h-9.128V468.8H2355.6l3.948-4.337Z" transform="translate(-2355.6 -456.9)" fill="none" stroke="#2d334a" stroke-linecap="round" stroke-linejoin="round" stroke-miterlimit="10" stroke-width="0.5"/>
          <path id="Trazado_1028653" data-name="Trazado 1028653" d="M2584.6,460.134h6.51l-6.51-3.234" transform="translate(-2559.834 -456.9)" fill="none" stroke="#2d334a" stroke-linecap="round" stroke-linejoin="round" stroke-miterlimit="10" stroke-width="0.5"/>
          <line id="Línea_3271" data-name="Línea 3271" y1="5.429" transform="translate(31.277 3.234)" fill="none" stroke="#2d334a" stroke-linecap="round" stroke-linejoin="round" stroke-miterlimit="10" stroke-width="0.5"/>
        </g>
      </g>
      <g id="Grupo_1186317" data-name="Grupo 1186317" transform="translate(410.657 300.28)">
        <rect id="Rectángulo_458961" data-name="Rectángulo 458961" width="81.751" height="69.476" transform="translate(0)" fill="#fdd5a9"/>
        <rect id="Rectángulo_458962" data-name="Rectángulo 458962" width="9.442" height="23.555" transform="translate(14.687)" fill="#d3cccd"/>
        <rect id="Rectángulo_458963" data-name="Rectángulo 458963" width="9.442" height="23.555" transform="translate(14.687)" fill="none" stroke="#2d334a" stroke-linecap="round" stroke-linejoin="round" stroke-miterlimit="10" stroke-width="0.5"/>
        <rect id="Rectángulo_458964" data-name="Rectángulo 458964" width="9.442" height="23.555" transform="translate(56.855)" fill="#d3cccd"/>
        <rect id="Rectángulo_458965" data-name="Rectángulo 458965" width="9.442" height="23.555" transform="translate(56.855)" fill="none" stroke="#2d334a" stroke-linecap="round" stroke-linejoin="round" stroke-miterlimit="10" stroke-width="0.5"/>
        <rect id="Rectángulo_458966" data-name="Rectángulo 458966" width="81.751" height="69.476" transform="translate(0)" fill="none" stroke="#2d334a" stroke-linecap="round" stroke-linejoin="round" stroke-miterlimit="10" stroke-width="0.5"/>
        <g id="Grupo_1186316" data-name="Grupo 1186316" transform="translate(8.652 37.669)">
          <rect id="Rectángulo_458967" data-name="Rectángulo 458967" width="64.447" height="22.604" fill="#fffefc"/>
          <rect id="Rectángulo_458968" data-name="Rectángulo 458968" width="0.854" height="17.986" transform="translate(60.64 2.314)" fill="#2d334a"/>
          <rect id="Rectángulo_458969" data-name="Rectángulo 458969" width="0.854" height="17.986" transform="translate(58.78 2.314)" fill="#2d334a"/>
          <rect id="Rectángulo_458970" data-name="Rectángulo 458970" width="0.854" height="17.986" transform="translate(56.931 2.314)" fill="#2d334a"/>
          <rect id="Rectángulo_458971" data-name="Rectángulo 458971" width="0.854" height="17.986" transform="translate(55.07 2.314)" fill="#2d334a"/>
          <rect id="Rectángulo_458972" data-name="Rectángulo 458972" width="0.854" height="17.986" transform="translate(53.221 2.314)" fill="#2d334a"/>
          <rect id="Rectángulo_458973" data-name="Rectángulo 458973" width="5.992" height="17.986" transform="translate(47.651 2.314)" fill="#2d334a"/>
          <rect id="Rectángulo_458974" data-name="Rectángulo 458974" width="0.854" height="17.986" transform="translate(45.791 2.314)" fill="#2d334a"/>
          <rect id="Rectángulo_458975" data-name="Rectángulo 458975" width="0.854" height="17.986" transform="translate(43.942 2.314)" fill="#2d334a"/>
          <rect id="Rectángulo_458976" data-name="Rectángulo 458976" width="0.854" height="17.986" transform="translate(42.082 2.314)" fill="#2d334a"/>
          <rect id="Rectángulo_458977" data-name="Rectángulo 458977" width="0.854" height="17.986" transform="translate(36.523 2.314)" fill="#2d334a"/>
          <rect id="Rectángulo_458978" data-name="Rectángulo 458978" width="0.854" height="17.986" transform="translate(34.662 2.314)" fill="#2d334a"/>
          <rect id="Rectángulo_458979" data-name="Rectángulo 458979" width="0.324" height="17.986" transform="translate(31.472 2.314)" fill="#2d334a"/>
          <rect id="Rectángulo_458980" data-name="Rectángulo 458980" width="0.324" height="17.986" transform="translate(30.78 2.314)" fill="#2d334a"/>
          <rect id="Rectángulo_458981" data-name="Rectángulo 458981" width="0.324" height="17.986" transform="translate(32.91 2.314)" fill="#2d334a"/>
          <rect id="Rectángulo_458982" data-name="Rectángulo 458982" width="0.324" height="17.986" transform="translate(32.218 2.314)" fill="#2d334a"/>
          <rect id="Rectángulo_458983" data-name="Rectángulo 458983" width="0.324" height="17.986" transform="translate(39.486 2.314)" fill="#2d334a"/>
          <rect id="Rectángulo_458984" data-name="Rectángulo 458984" width="0.324" height="17.986" transform="translate(38.794 2.314)" fill="#2d334a"/>
          <rect id="Rectángulo_458985" data-name="Rectángulo 458985" width="0.324" height="17.986" transform="translate(40.924 2.314)" fill="#2d334a"/>
          <rect id="Rectángulo_458986" data-name="Rectángulo 458986" width="0.324" height="17.986" transform="translate(40.232 2.314)" fill="#2d334a"/>
          <rect id="Rectángulo_458987" data-name="Rectángulo 458987" width="0.324" height="17.986" transform="translate(20.051 2.314)" fill="#2d334a"/>
          <rect id="Rectángulo_458988" data-name="Rectángulo 458988" width="0.324" height="17.986" transform="translate(19.359 2.314)" fill="#2d334a"/>
          <rect id="Rectángulo_458989" data-name="Rectángulo 458989" width="0.324" height="17.986" transform="translate(21.49 2.314)" fill="#2d334a"/>
          <rect id="Rectángulo_458990" data-name="Rectángulo 458990" width="0.324" height="17.986" transform="translate(20.797 2.314)" fill="#2d334a"/>
          <rect id="Rectángulo_458991" data-name="Rectángulo 458991" width="4.131" height="17.986" transform="translate(25.826 2.314)" fill="#2d334a"/>
          <rect id="Rectángulo_458992" data-name="Rectángulo 458992" width="0.854" height="17.986" transform="translate(25.394 2.314)" fill="#2d334a"/>
          <rect id="Rectángulo_458993" data-name="Rectángulo 458993" width="0.854" height="17.986" transform="translate(23.534 2.314)" fill="#2d334a"/>
          <rect id="Rectángulo_458994" data-name="Rectángulo 458994" width="0.854" height="17.986" transform="translate(16.115 2.314)" fill="#2d334a"/>
          <rect id="Rectángulo_458995" data-name="Rectángulo 458995" width="0.854" height="17.986" transform="translate(14.254 2.314)" fill="#2d334a"/>
          <rect id="Rectángulo_458996" data-name="Rectángulo 458996" width="0.854" height="17.986" transform="translate(12.405 2.314)" fill="#2d334a"/>
          <rect id="Rectángulo_458997" data-name="Rectángulo 458997" width="0.854" height="17.986" transform="translate(8.695 2.314)" fill="#2d334a"/>
          <rect id="Rectángulo_458998" data-name="Rectángulo 458998" width="0.854" height="17.986" transform="translate(6.835 2.314)" fill="#2d334a"/>
          <rect id="Rectángulo_458999" data-name="Rectángulo 458999" width="2.639" height="17.986" transform="translate(2.963 2.314)" fill="#2d334a"/>
          <rect id="Rectángulo_459000" data-name="Rectángulo 459000" width="64.447" height="22.604" fill="none" stroke="#2d334a" stroke-linecap="round" stroke-linejoin="round" stroke-miterlimit="10" stroke-width="0.5"/>
        </g>
      </g>
      <g id="Grupo_1186322" data-name="Grupo 1186322" transform="translate(431.481 331.622)">
        <g id="Grupo_1186319" data-name="Grupo 1186319" transform="translate(0 0)">
          <g id="Grupo_1186318" data-name="Grupo 1186318">
            <path id="Trazado_1028654" data-name="Trazado 1028654" d="M1691.071,1270.49,1709,1252.559a20.731,20.731,0,1,0-5.937-5.937l-17.932,17.931a4.2,4.2,0,1,0,5.938,5.938Zm13.259-35.268a16.071,16.071,0,1,1,16.071,16.071A16.074,16.074,0,0,1,1704.33,1235.222Z" transform="translate(-1683.9 -1214.5)" fill="#a0a995"/>
            <path id="Trazado_1028655" data-name="Trazado 1028655" d="M1691.071,1270.49,1709,1252.559a20.731,20.731,0,1,0-5.937-5.937l-17.932,17.931a4.2,4.2,0,1,0,5.938,5.938Zm13.259-35.268a16.071,16.071,0,1,1,16.071,16.071A16.074,16.074,0,0,1,1704.33,1235.222Z" transform="translate(-1683.9 -1214.5)" fill="#a0a995"/>
          </g>
        </g>
        <g id="Grupo_1186321" data-name="Grupo 1186321" transform="translate(0 0)">
          <g id="Grupo_1186320" data-name="Grupo 1186320">
            <path id="Trazado_1028656" data-name="Trazado 1028656" d="M1691.071,1270.49,1709,1252.559a20.731,20.731,0,1,0-5.937-5.937l-17.932,17.931a4.2,4.2,0,1,0,5.938,5.938Zm13.259-35.268a16.071,16.071,0,1,1,16.071,16.071A16.074,16.074,0,0,1,1704.33,1235.222Z" transform="translate(-1683.9 -1214.5)" fill="none" stroke="#2d334a" stroke-linecap="round" stroke-linejoin="round" stroke-miterlimit="10" stroke-width="0.5"/>
            <path id="Trazado_1028657" data-name="Trazado 1028657" d="M1691.071,1270.49,1709,1252.559a20.731,20.731,0,1,0-5.937-5.937l-17.932,17.931a4.2,4.2,0,1,0,5.938,5.938Zm13.259-35.268a16.071,16.071,0,1,1,16.071,16.071A16.074,16.074,0,0,1,1704.33,1235.222Z" transform="translate(-1683.9 -1214.5)" fill="none" stroke="#2d334a" stroke-linecap="round" stroke-linejoin="round" stroke-miterlimit="10" stroke-width="0.5"/>
          </g>
        </g>
      </g>
      <g id="Grupo_1186331" data-name="Grupo 1186331" transform="translate(392.821 247.319)">
        <path id="Trazado_1028658" data-name="Trazado 1028658" d="M1689.028,864.453c.26-6.489-4.585-3.061-5.04-2.2l-12.632,24.085c-.195.379,1.3.195,1.665.411s1.687-1.276,1.687-1.276C1685.578,873.029,1688.563,868.151,1689.028,864.453Z" transform="translate(-1663.979 -815.168)" fill="#857073"/>
        <path id="Trazado_1028659" data-name="Trazado 1028659" d="M1825.437,843.352c2.25-1.59,1.179-5.375,1.168-5.44a1.462,1.462,0,0,0-1.7-1.157l-24.28,2.077a.7.7,0,0,0-.671.616c-.13,1.244,2.141,3.688,3.05,3.872C1817.325,846.261,1822.279,845.591,1825.437,843.352Z" transform="translate(-1778.681 -793.916)" fill="#857073"/>
        <path id="Trazado_1028660" data-name="Trazado 1028660" d="M1826.7,918.585c-1.611-6.294-5.278-1.611-5.462-.649l-5.17,26.7c-.086.422,1.3-.184,1.72-.086s1.244-1.709,1.244-1.709C1825.867,927.8,1827.327,922.273,1826.7,918.585Z" transform="translate(-1793.051 -864.023)" fill="#857073"/>
        <path id="Trazado_1028661" data-name="Trazado 1028661" d="M1689.028,864.453c.26-6.489-4.585-3.061-5.04-2.2l-12.632,24.085c-.195.379,1.3.195,1.665.411s1.687-1.276,1.687-1.276C1685.578,873.029,1688.563,868.151,1689.028,864.453Z" transform="translate(-1663.979 -815.168)" fill="none" stroke="#2d334a" stroke-linecap="round" stroke-linejoin="round" stroke-miterlimit="10" stroke-width="0.5"/>
        <path id="Trazado_1028662" data-name="Trazado 1028662" d="M1826.7,918.585c-1.611-6.294-5.278-1.611-5.462-.649l-5.17,26.7c-.086.422,1.3-.184,1.72-.086s1.244-1.709,1.244-1.709C1825.867,927.8,1827.327,922.273,1826.7,918.585Z" transform="translate(-1793.051 -864.023)" fill="none" stroke="#2d334a" stroke-linecap="round" stroke-linejoin="round" stroke-miterlimit="10" stroke-width="0.5"/>
        <path id="Trazado_1028663" data-name="Trazado 1028663" d="M1889.41,829.5c.995-2.563-1.979-5.137-2.011-5.18a1.46,1.46,0,0,0-2.055-.032L1866.223,839.4a.692.692,0,0,0-.227.876c.573,1.1,3.818,1.893,4.672,1.557C1884.24,836.4,1888,833.112,1889.41,829.5Z" transform="translate(-1837.517 -782.443)" fill="#857073"/>
        <g id="Grupo_1186323" data-name="Grupo 1186323" transform="translate(0 69.109)">
          <path id="Trazado_1028664" data-name="Trazado 1028664" d="M1603.455,1083.312a6.134,6.134,0,0,0,5.71,1.557l.13.065c.086.043.216.1.368.162a7.814,7.814,0,0,0,1.741.562,1.865,1.865,0,0,0,.487.011.458.458,0,0,0,.324-.173,5.2,5.2,0,0,0,.746-2.26,6.7,6.7,0,0,1,.909-1.849l-2.715-1.687s-.984,2.2-1.925,2.423c0,0-3.515.963-4.78.422S1603.109,1083.031,1603.455,1083.312Z" transform="translate(-1603.279 -1079.7)" fill="#2d334a"/>
          <path id="Trazado_1028665" data-name="Trazado 1028665" d="M1656.135,1129.6l-.735,1.5,1.871,1.168,1.092-2.109a1.5,1.5,0,0,1-.487-.011A7.286,7.286,0,0,1,1656.135,1129.6Z" transform="translate(-1649.763 -1124.203)" fill="#2d334a"/>
        </g>
        <g id="Grupo_1186324" data-name="Grupo 1186324" transform="translate(16.351 78.767)">
          <path id="Trazado_1028666" data-name="Trazado 1028666" d="M1754.787,1174.732a6.132,6.132,0,0,0,5.916-.184s.054.011.141.022.227.033.4.054a7.9,7.9,0,0,0,1.828.022,1.77,1.77,0,0,0,.476-.141.453.453,0,0,0,.26-.271,5.246,5.246,0,0,0,.054-2.379,6.856,6.856,0,0,1,.324-2.033l-3.093-.822s-.292,2.39-1.125,2.888c0,0-3.082,1.958-4.445,1.806S1754.366,1174.559,1754.787,1174.732Z" transform="translate(-1754.471 -1169)" fill="#2d334a"/>
          <path id="Trazado_1028667" data-name="Trazado 1028667" d="M1814.86,1220.008l-.26,1.655,2.141.573.422-2.336a1.766,1.766,0,0,1-.476.141A8.527,8.527,0,0,1,1814.86,1220.008Z" transform="translate(-1808.097 -1214.395)" fill="#2d334a"/>
        </g>
        <path id="Trazado_1028668" data-name="Trazado 1028668" d="M1787.505,811.7l-2.292,3.115s-9.972.454-14.849,1.1c-2.552.335-4.64,5.267-5.235,6.759-.3.768,7.365,12.091,18.678,14.168,0,0,.173-4.11-1.136-5.905,0,0,12.859-4.3,16.4-9.853s-1.33-8.62-1.33-8.62Z" transform="translate(-1747.617 -771.576)" fill="#2d334a"/>
        <path id="Trazado_1028669" data-name="Trazado 1028669" d="M1787.505,811.7l-2.292,3.115s-9.972.454-14.849,1.1c-2.552.335-4.64,5.267-5.235,6.759-.3.768,7.365,12.091,18.678,14.168,0,0,.173-4.11-1.136-5.905,0,0,12.859-4.3,16.4-9.853s-1.33-8.62-1.33-8.62Z" transform="translate(-1747.617 -771.576)" fill="none" stroke="#2d334a" stroke-linecap="round" stroke-linejoin="round" stroke-miterlimit="10" stroke-width="0.5"/>
        <path id="Trazado_1028670" data-name="Trazado 1028670" d="M1929,608c2.163-.573,4.51,1.071,4.553,1.092.778.476,2.055,2.433,1.3,2.769l-14.3,4.64c-.271.13-.443-.216-.552-.433a.4.4,0,0,1-.032-.227,3.557,3.557,0,0,1,1.114-2.206C1924.076,611.223,1926.186,608.746,1929,608Z" transform="translate(-1885.713 -589.798)" fill="#857073"/>
        <g id="Grupo_1186325" data-name="Grupo 1186325" transform="translate(31.876 12.654)">
          <path id="Trazado_1028671" data-name="Trazado 1028671" d="M1902.9,558.1c.086,3.71-.108,10.339-.93,12.546a2.159,2.159,0,0,1-2.682,1.233,1.957,1.957,0,0,1-1.222-2.347l2.812-11.832Z" transform="translate(-1898.013 -557.7)" fill="#857073"/>
        </g>
        <g id="Grupo_1186326" data-name="Grupo 1186326" transform="translate(33.596 6.34)">
          <path id="Trazado_1028672" data-name="Trazado 1028672" d="M1927.832,499.764l.822,4.045a.368.368,0,0,0,.433.281h.011a.368.368,0,0,0,.281-.433l-.822-4.045a.368.368,0,0,0-.433-.281h-.011A.367.367,0,0,0,1927.832,499.764Z" transform="translate(-1926.32 -499.323)" fill="#857073"/>
          <path id="Trazado_1028673" data-name="Trazado 1028673" d="M1913.932,529.1l.3,1.492a.384.384,0,0,0,.433.292l.043-.011a.384.384,0,0,0,.292-.433l-.3-1.493a.384.384,0,0,0-.433-.292l-.043.011A.357.357,0,0,0,1913.932,529.1Z" transform="translate(-1913.923 -525.482)" fill="#857073"/>
          <path id="Trazado_1028674" data-name="Trazado 1028674" d="M1926.127,522.538l.411,2.033a.343.343,0,0,0,.411.27h0a.343.343,0,0,0,.271-.411l-.411-2.033a.344.344,0,0,0-.411-.27h0A.344.344,0,0,0,1926.127,522.538Z" transform="translate(-1924.799 -519.653)" fill="#857073"/>
          <path id="Trazado_1028675" data-name="Trazado 1028675" d="M1920.056,525.353l.389,1.882a.357.357,0,0,0,.422.281h.021a.357.357,0,0,0,.281-.422l-.389-1.882a.357.357,0,0,0-.422-.281h-.022A.36.36,0,0,0,1920.056,525.353Z" transform="translate(-1919.388 -522.154)" fill="#857073"/>
          <path id="Trazado_1028676" data-name="Trazado 1028676" d="M1918.3,541.7l.3,1.525,1.157.184-.032.033c0,.032-.011.054-.011.087l-.032.616-2.163.443-.152-.768c-.162-.162-.324-.5-.573-1.687Z" transform="translate(-1916.489 -537.117)" fill="#857073"/>
          <path id="Trazado_1028677" data-name="Trazado 1028677" d="M1926,525.752l.627-1.309a.94.94,0,0,1,.519-.216.291.291,0,0,0,.216-.1h0c.173-.3-.065-.368.271-1.114s.822-.584.93-.519-.141.378-.227.541a7.363,7.363,0,0,0-.087.952,3.779,3.779,0,0,0,.054.8,4.767,4.767,0,0,1,.065.789v.076a.891.891,0,0,1-.4.768l-.617.4Z" transform="translate(-1924.694 -519.936)" fill="#857073"/>
        </g>
        <path id="Trazado_1028678" data-name="Trazado 1028678" d="M1914,512.266c-.043-.022-2.38-1.665-4.553-1.092-2.5.66-4.434,2.682-6.922,4.813a76.343,76.343,0,0,0,.4-9.625h.021l.032-.53.054-.032a.877.877,0,0,0,.4-.768v-.076a4.865,4.865,0,0,0-.065-.789,3.161,3.161,0,0,1-.054-.8,7.364,7.364,0,0,1,.087-.952c.086-.162.335-.476.227-.541s-.595-.227-.93.519c-.043.086-.065.162-.1.227l-.616-3.007a.367.367,0,0,0-.433-.281h-.011a.367.367,0,0,0-.281.433l.443,2.185a.349.349,0,0,0-.627.27.352.352,0,0,0-.346-.119h-.021a.357.357,0,0,0-.281.422l.021.108a.357.357,0,0,0-.367-.13l-.043.011a.384.384,0,0,0-.292.433l.3,1.493a.321.321,0,0,0,.043.108c.227,1.027.378,1.33.53,1.482l.076.357-2.606,11.075a1.96,1.96,0,0,0,1.222,2.347,2.644,2.644,0,0,0,1.849-.173l14.135-4.586C1916.056,514.71,1914.78,512.753,1914,512.266Z" transform="translate(-1866.164 -492.983)" fill="none" stroke="#2d334a" stroke-linecap="round" stroke-linejoin="round" stroke-miterlimit="10" stroke-width="0.5"/>
        <path id="Trazado_1028679" data-name="Trazado 1028679" d="M1966.855,607.379,1964,619.265l12.88,1.428.984-20.116a5.718,5.718,0,0,0-2.639-5.278,4.135,4.135,0,0,0-1.006-.454c-1.893-.508-4.132-.692-7.765,4.78S1966.855,607.379,1966.855,607.379Z" transform="translate(-1924.988 -577.962)" fill="#2d334a"/>
        <path id="Trazado_1028680" data-name="Trazado 1028680" d="M1966.855,607.379,1964,619.265l12.88,1.428.984-20.116a5.718,5.718,0,0,0-2.639-5.278,4.135,4.135,0,0,0-1.006-.454c-1.893-.508-4.132-.692-7.765,4.78S1966.855,607.379,1966.855,607.379Z" transform="translate(-1924.988 -577.962)" fill="none" stroke="#2d334a" stroke-linecap="round" stroke-linejoin="round" stroke-miterlimit="10" stroke-width="0.5"/>
        <path id="Trazado_1028681" data-name="Trazado 1028681" d="M2065.709,620.291c-1.644-1.525-1.525-4.38-1.525-4.424-.011-.908.952-3.039,1.644-2.585l11.583,9.571c.26.162.054.487-.065.692a.393.393,0,0,1-.173.151,3.6,3.6,0,0,1-2.455.249C2071.063,622.713,2067.851,622.27,2065.709,620.291Z" transform="translate(-2014.335 -594.561)" fill="#857073"/>
        <g id="Grupo_1186327" data-name="Grupo 1186327" transform="translate(47.59 36.588)">
          <path id="Trazado_1028682" data-name="Trazado 1028682" d="M2043.962,792.83l3.959-2.661a.407.407,0,0,0,.108-.573h0a.407.407,0,0,0-.573-.108l-3.958,2.661a.407.407,0,0,0-.108.573h0A.426.426,0,0,0,2043.962,792.83Z" transform="translate(-2043.314 -788.288)" fill="#857073"/>
          <path id="Trazado_1028683" data-name="Trazado 1028683" d="M2044.962,802.057l3.71-2.488a.406.406,0,0,0,.108-.573h0a.406.406,0,0,0-.573-.108l-3.71,2.487a.407.407,0,0,0-.108.573h0A.416.416,0,0,0,2044.962,802.057Z" transform="translate(-2044.206 -796.671)" fill="#857073"/>
          <path id="Trazado_1028684" data-name="Trazado 1028684" d="M2053.561,804.557l3.709-2.487a.407.407,0,0,0,.108-.573h0a.407.407,0,0,0-.573-.108l-3.71,2.488a.407.407,0,0,0-.108.573h0A.414.414,0,0,0,2053.561,804.557Z" transform="translate(-2051.876 -798.901)" fill="#857073"/>
          <path id="Trazado_1028685" data-name="Trazado 1028685" d="M2064.779,808.9l3.158-2.12a.364.364,0,0,0,.1-.508h0a.364.364,0,0,0-.509-.1l-3.158,2.12a.364.364,0,0,0-.1.508h0A.377.377,0,0,0,2064.779,808.9Z" transform="translate(-2061.947 -803.174)" fill="#857073"/>
          <path id="Trazado_1028686" data-name="Trazado 1028686" d="M2085.02,779.53c.022.011.032.011.054.022a.281.281,0,0,1,.076-.022l.962-.53,1.255,1.849-.919.7c.086.379-.26.757-.941,1.146l-1.406-1.071,1.254-.952Z" transform="translate(-2079.689 -779)" fill="#857073"/>
          <path id="Trazado_1028687" data-name="Trazado 1028687" d="M2063.968,783.687l-1.449-.27a.972.972,0,0,1-.357-.443c-.032-.1-.086-.173-.151-.184h0c-.346-.087-.335.162-1.157.032s-.79-.649-.757-.768.411.032.595.076a6.518,6.518,0,0,0,.963-.173,3.146,3.146,0,0,0,.768-.27,6.267,6.267,0,0,1,.757-.27c.021-.011.054-.011.076-.022a.884.884,0,0,1,.854.195l.563.5Z" transform="translate(-2058.27 -781.102)" fill="#857073"/>
          <path id="Trazado_1028688" data-name="Trazado 1028688" d="M2068.831,790.2l1.19,2.228-1.492.844-1.828-1.557Z" transform="translate(-2064.171 -788.989)" fill="#857073"/>
        </g>
        <g id="Grupo_1186328" data-name="Grupo 1186328" transform="translate(52.769 27.301)">
          <path id="Trazado_1028689" data-name="Trazado 1028689" d="M2091.2,703.946c1.817-3.234,5.354-8.847,7.181-10.328a2.166,2.166,0,0,1,2.942.3,1.955,1.955,0,0,1-.141,2.65l-8.436,8.76Z" transform="translate(-2091.2 -693.134)" fill="#857073"/>
        </g>
        <path id="Trazado_1028690" data-name="Trazado 1028690" d="M2058.83,623.069a.235.235,0,0,0-.119-.227.956.956,0,0,0-.195-.216,3.029,3.029,0,0,0-.682-.508l-10.718-8.858c-.692-.465-1.655,1.666-1.644,2.585,0,.043-.13,2.909,1.525,4.423,1.839,1.7,4.467,2.271,7.484,3.169a63.775,63.775,0,0,0-5.375,7.971l-.2.108a.9.9,0,0,0-.724-.1c-.022.011-.054.011-.076.022a4.859,4.859,0,0,0-.757.271,3.141,3.141,0,0,1-.768.27,6.556,6.556,0,0,1-.963.173c-.184-.043-.552-.206-.595-.076s-.065.638.757.768a1.623,1.623,0,0,0,.8-.011l-3.19,2.141a.407.407,0,0,0-.108.573.436.436,0,0,0,.357.184l-.13.086a.407.407,0,0,0-.108.573h0a.407.407,0,0,0,.573.108l.3-.206a.408.408,0,0,0,.616.476l.638-.422a.387.387,0,0,0,.011.389h0a.364.364,0,0,0,.509.1l3.158-2.12a.457.457,0,0,0,.076-.065,1.733,1.733,0,0,0,.649-.638l.011.011,8.436-8.76A2.163,2.163,0,0,0,2058.83,623.069Z" transform="translate(-1995.635 -594.538)" fill="none" stroke="#2d334a" stroke-linecap="round" stroke-linejoin="round" stroke-miterlimit="10" stroke-width="0.5"/>
        <g id="Grupo_1186329" data-name="Grupo 1186329" transform="translate(40.631 0)">
          <path id="Trazado_1028691" data-name="Trazado 1028691" d="M1995.4,449.642a1.066,1.066,0,0,0-.4,1.947,1.069,1.069,0,0,0-.866,1.8,1.068,1.068,0,0,0-1.265,1.536.9.9,0,0,1-1.2.043.907.907,0,0,1-.39,1.136,1.065,1.065,0,0,0-1.828.779.914.914,0,0,1-1.092-.519.9.9,0,0,1-.39.671c-.011-.5-.011-1.1,0-1.709a1.576,1.576,0,0,0,1.33-1.006.772.772,0,0,0-.27-.973.782.782,0,0,0-.216-.1.667.667,0,0,0-.541.1h0a1.792,1.792,0,0,0-.173.13.273.273,0,0,1-.076-.043h0a.846.846,0,0,1-.4-.714.854.854,0,0,1,.108-.411h-.108a1.375,1.375,0,0,1-1.374-1.374,1.158,1.158,0,0,1,.011-.195.958.958,0,0,1-1.6-.476,1.467,1.467,0,0,1-1.3.779,1.374,1.374,0,0,1-.368-.043,4.443,4.443,0,0,0-.259.562,5.516,5.516,0,0,0-.184,3.958.977.977,0,0,1-.606-.206,1.067,1.067,0,0,0-1.373-1.438,1.07,1.07,0,0,0-.984-1.73.912.912,0,0,1,.379-1.146.91.91,0,0,1-.281-1.785,3.186,3.186,0,0,0-.313-2.92,1.069,1.069,0,0,0,.865-1.8,1.068,1.068,0,0,0,1.265-1.536.9.9,0,0,1,1.2-.043.907.907,0,0,1,.389-1.136,1.065,1.065,0,0,0,1.828-.779.926.926,0,0,1,1.093.519.9.9,0,0,1,.876-.822,1.065,1.065,0,0,0,1.979.162,1.066,1.066,0,0,0,1.882.638.911.911,0,0,1,.476,1.1.9.9,0,0,1,1.2-.032,1.067,1.067,0,0,0,1.374,1.438,1.07,1.07,0,0,0,.984,1.73,1.069,1.069,0,0,0,.552,1.914,1.068,1.068,0,0,0,.065,1.99Z" transform="translate(-1978.963 -440.698)" fill="#2d334a"/>
          <path id="Trazado_1028692" data-name="Trazado 1028692" d="M2016.323,533.056a1.576,1.576,0,0,1-1.33,1.006c-.011.606-.011,1.211,0,1.709.011.346.033.627.054.822a3.763,3.763,0,0,1-1.676.973c-.725.195-1.882.195-2-.206a9.588,9.588,0,0,1,.011-1.849,2.02,2.02,0,0,1-.735-.119,1.95,1.95,0,0,1-1.071-1.136,5.578,5.578,0,0,1,.184-3.958,3.839,3.839,0,0,1,.26-.562,1.372,1.372,0,0,0,.367.043,1.456,1.456,0,0,0,1.3-.779.953.953,0,0,0,.941.746.915.915,0,0,0,.66-.27,1.182,1.182,0,0,0-.011.195,1.375,1.375,0,0,0,1.374,1.373h.108a.86.86,0,0,0-.108.411.831.831,0,0,0,.4.714h0a.468.468,0,0,0,.076.043.657.657,0,0,1,.173-.13h0a.659.659,0,0,1,.541-.1.765.765,0,0,1,.487,1.071Z" transform="translate(-2006.012 -519.45)" fill="#857073"/>
        </g>
        <g id="Grupo_1186330" data-name="Grupo 1186330" transform="translate(40.631 0)">
          <path id="Trazado_1028693" data-name="Trazado 1028693" d="M1995.4,449.642a1.066,1.066,0,0,0-.4,1.947,1.069,1.069,0,0,0-.866,1.8,1.068,1.068,0,0,0-1.265,1.536.9.9,0,0,1-1.2.043.907.907,0,0,1-.39,1.136,1.065,1.065,0,0,0-1.828.779.914.914,0,0,1-1.092-.519.9.9,0,0,1-.39.671c-.011-.5-.011-1.1,0-1.709a1.576,1.576,0,0,0,1.33-1.006.772.772,0,0,0-.27-.973.782.782,0,0,0-.216-.1.667.667,0,0,0-.541.1h0a1.792,1.792,0,0,0-.173.13.273.273,0,0,1-.076-.043h0a.846.846,0,0,1-.4-.714.854.854,0,0,1,.108-.411h-.108a1.375,1.375,0,0,1-1.374-1.374,1.158,1.158,0,0,1,.011-.195.958.958,0,0,1-1.6-.476,1.467,1.467,0,0,1-1.3.779,1.374,1.374,0,0,1-.368-.043,4.443,4.443,0,0,0-.259.562,5.516,5.516,0,0,0-.184,3.958.977.977,0,0,1-.606-.206,1.067,1.067,0,0,0-1.373-1.438,1.07,1.07,0,0,0-.984-1.73.912.912,0,0,1,.379-1.146.91.91,0,0,1-.281-1.785,3.186,3.186,0,0,0-.313-2.92,1.069,1.069,0,0,0,.865-1.8,1.068,1.068,0,0,0,1.265-1.536.9.9,0,0,1,1.2-.043.907.907,0,0,1,.389-1.136,1.065,1.065,0,0,0,1.828-.779.926.926,0,0,1,1.093.519.9.9,0,0,1,.876-.822,1.065,1.065,0,0,0,1.979.162,1.066,1.066,0,0,0,1.882.638.911.911,0,0,1,.476,1.1.9.9,0,0,1,1.2-.032,1.067,1.067,0,0,0,1.374,1.438,1.07,1.07,0,0,0,.984,1.73,1.069,1.069,0,0,0,.552,1.914,1.068,1.068,0,0,0,.065,1.99Z" transform="translate(-1978.963 -440.698)" fill="none" stroke="#2d334a" stroke-linecap="round" stroke-linejoin="round" stroke-miterlimit="10" stroke-width="0.5"/>
          <path id="Trazado_1028694" data-name="Trazado 1028694" d="M2016.323,533.056a1.576,1.576,0,0,1-1.33,1.006c-.011.606-.011,1.211,0,1.709.011.346.033.627.054.822a3.763,3.763,0,0,1-1.676.973c-.725.195-1.882.195-2-.206a9.588,9.588,0,0,1,.011-1.849,2.02,2.02,0,0,1-.735-.119,1.95,1.95,0,0,1-1.071-1.136,5.578,5.578,0,0,1,.184-3.958,3.839,3.839,0,0,1,.26-.562,1.372,1.372,0,0,0,.367.043,1.456,1.456,0,0,0,1.3-.779.953.953,0,0,0,.941.746.915.915,0,0,0,.66-.27,1.182,1.182,0,0,0-.011.195,1.375,1.375,0,0,0,1.374,1.373h.108a.86.86,0,0,0-.108.411.831.831,0,0,0,.4.714h0a.468.468,0,0,0,.076.043.657.657,0,0,1,.173-.13h0a.659.659,0,0,1,.541-.1.765.765,0,0,1,.487,1.071Z" transform="translate(-2006.012 -519.45)" fill="none" stroke="#2d334a" stroke-linecap="round" stroke-linejoin="round" stroke-miterlimit="10" stroke-width="0.5"/>
        </g>
      </g>
      <g id="Grupo_1186335" data-name="Grupo 1186335" transform="translate(433.852 135.541)">
        <g id="Grupo_1186332" data-name="Grupo 1186332" transform="translate(11.226 0)">
          <path id="Trazado_1028695" data-name="Trazado 1028695" d="M1004.307,202.153a20,20,0,0,0-3.028-1.979,20.254,20.254,0,0,0-3.342-1.4l-2.606,2.92a16.724,16.724,0,0,0-3.5-.335l-2-3.364a19.618,19.618,0,0,0-6.9,2.12l.227,3.9a16.146,16.146,0,0,0-2.714,2.239l-3.785-.963a20.041,20.041,0,0,0-1.99,3.028,20.282,20.282,0,0,0-1.4,3.342l2.92,2.6a16.725,16.725,0,0,0-.335,3.5l-3.353,2a19.616,19.616,0,0,0,2.12,6.9l3.9-.227a16.148,16.148,0,0,0,2.239,2.715l-.963,3.785a19.989,19.989,0,0,0,3.028,1.979,20.26,20.26,0,0,0,3.342,1.4l2.6-2.92a16.726,16.726,0,0,0,3.5.335l2,3.353a19.618,19.618,0,0,0,6.9-2.12l-.227-3.9a16.151,16.151,0,0,0,2.715-2.239l3.8.963a19.992,19.992,0,0,0,1.979-3.028,21.29,21.29,0,0,0,1.406-3.342l-2.92-2.606a16.716,16.716,0,0,0,.335-3.5l3.363-2a19.842,19.842,0,0,0-2.12-6.9l-3.9.227a16.152,16.152,0,0,0-2.239-2.715Zm-7.506,9.431a7.488,7.488,0,0,1,2.012,2.433,7.751,7.751,0,0,1,.822,2.671,7.632,7.632,0,0,1-.3,3.147,7.486,7.486,0,0,1-.541,1.3,8.856,8.856,0,0,1-.768,1.179,7.489,7.489,0,0,1-2.434,2.012,7.75,7.75,0,0,1-2.671.822,7.631,7.631,0,0,1-3.147-.3,7.485,7.485,0,0,1-1.3-.541,8.846,8.846,0,0,1-1.179-.768,7.487,7.487,0,0,1-2.011-2.433,7.748,7.748,0,0,1-.822-2.671,7.63,7.63,0,0,1,.3-3.147,7.494,7.494,0,0,1,.541-1.3,8.82,8.82,0,0,1,.768-1.179,7.487,7.487,0,0,1,2.433-2.012,7.75,7.75,0,0,1,2.671-.822,7.632,7.632,0,0,1,3.147.3,7.484,7.484,0,0,1,1.3.541A8.183,8.183,0,0,1,996.8,211.584Z" transform="translate(-972.273 -196.594)" fill="#2d334a"/>
          <path id="Trazado_1028696" data-name="Trazado 1028696" d="M1002.207,189.153a20,20,0,0,0-3.028-1.979,20.252,20.252,0,0,0-3.342-1.4l-2.606,2.92a16.729,16.729,0,0,0-3.5-.335l-2-3.363a19.616,19.616,0,0,0-6.9,2.12l.227,3.9a16.142,16.142,0,0,0-2.715,2.239l-3.785-.963a20.039,20.039,0,0,0-1.99,3.028,20.25,20.25,0,0,0-1.4,3.342l2.92,2.6a16.733,16.733,0,0,0-.335,3.5l-3.353,2a19.618,19.618,0,0,0,2.12,6.9l3.9-.227a16.147,16.147,0,0,0,2.239,2.715l-.963,3.785a19.988,19.988,0,0,0,3.028,1.979,20.248,20.248,0,0,0,3.342,1.4l2.6-2.92a16.727,16.727,0,0,0,3.5.335l2,3.353a19.618,19.618,0,0,0,6.9-2.12l-.227-3.9a16.152,16.152,0,0,0,2.715-2.239l3.8.963a19.983,19.983,0,0,0,1.979-3.028,21.291,21.291,0,0,0,1.406-3.342l-2.92-2.606a16.716,16.716,0,0,0,.335-3.5l3.364-2a19.843,19.843,0,0,0-2.12-6.9l-3.9.227a16.148,16.148,0,0,0-2.239-2.715Zm-7.506,9.431a7.486,7.486,0,0,1,2.012,2.433,7.748,7.748,0,0,1,.822,2.671,7.632,7.632,0,0,1-.3,3.147,7.477,7.477,0,0,1-.541,1.3,8.819,8.819,0,0,1-.768,1.179,7.486,7.486,0,0,1-2.433,2.012,7.751,7.751,0,0,1-2.671.822,7.631,7.631,0,0,1-3.147-.3,7.486,7.486,0,0,1-1.3-.541,8.843,8.843,0,0,1-1.179-.768,7.489,7.489,0,0,1-2.012-2.433,7.75,7.75,0,0,1-.822-2.671,7.631,7.631,0,0,1,.3-3.147,7.477,7.477,0,0,1,.541-1.3,8.819,8.819,0,0,1,.768-1.179,7.486,7.486,0,0,1,2.433-2.012,7.75,7.75,0,0,1,2.671-.822,7.631,7.631,0,0,1,3.147.3,7.484,7.484,0,0,1,1.3.541A8.829,8.829,0,0,1,994.7,198.584Z" transform="translate(-970.4 -185)" fill="#d3cccd"/>
          <path id="Trazado_1028697" data-name="Trazado 1028697" d="M1002.207,189.153a20,20,0,0,0-3.028-1.979,20.252,20.252,0,0,0-3.342-1.4l-2.606,2.92a16.729,16.729,0,0,0-3.5-.335l-2-3.363a19.616,19.616,0,0,0-6.9,2.12l.227,3.9a16.142,16.142,0,0,0-2.715,2.239l-3.785-.963a20.039,20.039,0,0,0-1.99,3.028,20.25,20.25,0,0,0-1.4,3.342l2.92,2.6a16.733,16.733,0,0,0-.335,3.5l-3.353,2a19.618,19.618,0,0,0,2.12,6.9l3.9-.227a16.147,16.147,0,0,0,2.239,2.715l-.963,3.785a19.988,19.988,0,0,0,3.028,1.979,20.248,20.248,0,0,0,3.342,1.4l2.6-2.92a16.727,16.727,0,0,0,3.5.335l2,3.353a19.618,19.618,0,0,0,6.9-2.12l-.227-3.9a16.152,16.152,0,0,0,2.715-2.239l3.8.963a19.983,19.983,0,0,0,1.979-3.028,21.291,21.291,0,0,0,1.406-3.342l-2.92-2.606a16.716,16.716,0,0,0,.335-3.5l3.364-2a19.843,19.843,0,0,0-2.12-6.9l-3.9.227a16.148,16.148,0,0,0-2.239-2.715Zm-7.506,9.431a7.486,7.486,0,0,1,2.012,2.433,7.748,7.748,0,0,1,.822,2.671,7.632,7.632,0,0,1-.3,3.147,7.477,7.477,0,0,1-.541,1.3,8.819,8.819,0,0,1-.768,1.179,7.486,7.486,0,0,1-2.433,2.012,7.751,7.751,0,0,1-2.671.822,7.631,7.631,0,0,1-3.147-.3,7.486,7.486,0,0,1-1.3-.541,8.843,8.843,0,0,1-1.179-.768,7.489,7.489,0,0,1-2.012-2.433,7.75,7.75,0,0,1-.822-2.671,7.631,7.631,0,0,1,.3-3.147,7.477,7.477,0,0,1,.541-1.3,8.819,8.819,0,0,1,.768-1.179,7.486,7.486,0,0,1,2.433-2.012,7.75,7.75,0,0,1,2.671-.822,7.631,7.631,0,0,1,3.147.3,7.484,7.484,0,0,1,1.3.541A8.829,8.829,0,0,1,994.7,198.584Z" transform="translate(-970.4 -185)" fill="none" stroke="#2d334a" stroke-linecap="round" stroke-linejoin="round" stroke-miterlimit="10" stroke-width="0.5"/>
        </g>
        <g id="Grupo_1186333" data-name="Grupo 1186333" transform="translate(0 30.369)">
          <path id="Trazado_1028698" data-name="Trazado 1028698" d="M880.671,467.639a8.667,8.667,0,0,0-1.341-.876,7.95,7.95,0,0,0-1.482-.616l-1.146,1.287a7.567,7.567,0,0,0-1.547-.151l-.887-1.482a8.63,8.63,0,0,0-3.05.941l.1,1.73a6.989,6.989,0,0,0-1.2,1l-1.676-.422a8.672,8.672,0,0,0-.876,1.341,7.963,7.963,0,0,0-.617,1.482l1.287,1.146a7.571,7.571,0,0,0-.151,1.547l-1.482.887a8.63,8.63,0,0,0,.941,3.05l1.73-.1a6.981,6.981,0,0,0,.995,1.2l-.422,1.676a8.661,8.661,0,0,0,1.341.876,7.948,7.948,0,0,0,1.482.616l1.146-1.287a7.57,7.57,0,0,0,1.546.151l.887,1.482a8.631,8.631,0,0,0,3.05-.941l-.1-1.73a6.987,6.987,0,0,0,1.2-1l1.676.422a8.666,8.666,0,0,0,.876-1.341,7.947,7.947,0,0,0,.617-1.482l-1.287-1.146a7.567,7.567,0,0,0,.151-1.547l1.482-.887a8.632,8.632,0,0,0-.941-3.05l-1.73.1a6.986,6.986,0,0,0-.995-1.2Zm-3.32,4.175a3.4,3.4,0,0,1,.887,1.082,3.486,3.486,0,0,1,.368,1.179,3.432,3.432,0,0,1-.13,1.4,3.759,3.759,0,0,1-.238.573,4.269,4.269,0,0,1-.335.519,3.4,3.4,0,0,1-1.082.887,3.483,3.483,0,0,1-1.179.368,3.428,3.428,0,0,1-1.4-.13,3.768,3.768,0,0,1-.573-.238,4.259,4.259,0,0,1-.519-.335,3.4,3.4,0,0,1-.887-1.082,3.483,3.483,0,0,1-.368-1.179,3.429,3.429,0,0,1,.13-1.4,3.765,3.765,0,0,1,.238-.573,4.264,4.264,0,0,1,.335-.519,3.394,3.394,0,0,1,1.081-.887,3.483,3.483,0,0,1,1.179-.368,3.43,3.43,0,0,1,1.4.13,3.779,3.779,0,0,1,.573.238A3.274,3.274,0,0,1,877.35,471.813Z" transform="translate(-866.6 -465.8)" fill="#d3cccd"/>
          <path id="Trazado_1028699" data-name="Trazado 1028699" d="M880.671,467.639a8.667,8.667,0,0,0-1.341-.876,7.95,7.95,0,0,0-1.482-.616l-1.146,1.287a7.567,7.567,0,0,0-1.547-.151l-.887-1.482a8.63,8.63,0,0,0-3.05.941l.1,1.73a6.989,6.989,0,0,0-1.2,1l-1.676-.422a8.672,8.672,0,0,0-.876,1.341,7.963,7.963,0,0,0-.617,1.482l1.287,1.146a7.571,7.571,0,0,0-.151,1.547l-1.482.887a8.63,8.63,0,0,0,.941,3.05l1.73-.1a6.981,6.981,0,0,0,.995,1.2l-.422,1.676a8.661,8.661,0,0,0,1.341.876,7.948,7.948,0,0,0,1.482.616l1.146-1.287a7.57,7.57,0,0,0,1.546.151l.887,1.482a8.631,8.631,0,0,0,3.05-.941l-.1-1.73a6.987,6.987,0,0,0,1.2-1l1.676.422a8.666,8.666,0,0,0,.876-1.341,7.947,7.947,0,0,0,.617-1.482l-1.287-1.146a7.567,7.567,0,0,0,.151-1.547l1.482-.887a8.632,8.632,0,0,0-.941-3.05l-1.73.1a6.986,6.986,0,0,0-.995-1.2Zm-3.32,4.175a3.4,3.4,0,0,1,.887,1.082,3.486,3.486,0,0,1,.368,1.179,3.432,3.432,0,0,1-.13,1.4,3.759,3.759,0,0,1-.238.573,4.269,4.269,0,0,1-.335.519,3.4,3.4,0,0,1-1.082.887,3.483,3.483,0,0,1-1.179.368,3.428,3.428,0,0,1-1.4-.13,3.768,3.768,0,0,1-.573-.238,4.259,4.259,0,0,1-.519-.335,3.4,3.4,0,0,1-.887-1.082,3.483,3.483,0,0,1-.368-1.179,3.429,3.429,0,0,1,.13-1.4,3.765,3.765,0,0,1,.238-.573,4.264,4.264,0,0,1,.335-.519,3.394,3.394,0,0,1,1.081-.887,3.483,3.483,0,0,1,1.179-.368,3.43,3.43,0,0,1,1.4.13,3.779,3.779,0,0,1,.573.238A3.274,3.274,0,0,1,877.35,471.813Z" transform="translate(-866.6 -465.8)" fill="none" stroke="#2d334a" stroke-linecap="round" stroke-linejoin="round" stroke-miterlimit="10" stroke-width="0.5"/>
        </g>
        <g id="Grupo_1186334" data-name="Grupo 1186334" transform="translate(41.44 32.052)">
          <path id="Trazado_1028700" data-name="Trazado 1028700" d="M1266.263,484.355a9.044,9.044,0,0,0-1.319-1.157,9.8,9.8,0,0,0-1.514-.9l-1.449,1.222a8.191,8.191,0,0,0-1.655-.4l-.735-1.752a9.665,9.665,0,0,0-3.461.541l-.162,1.893a8.089,8.089,0,0,0-1.46.887l-1.752-.714a9.53,9.53,0,0,0-2.055,2.834l1.222,1.449a8.218,8.218,0,0,0-.4,1.655l-1.752.735a9.653,9.653,0,0,0,.541,3.461l1.893.162a8.482,8.482,0,0,0,.887,1.46l-.725,1.752a9.526,9.526,0,0,0,2.834,2.055l1.449-1.222a8.2,8.2,0,0,0,1.655.4l.735,1.752a9.663,9.663,0,0,0,3.461-.541l.162-1.893a8.1,8.1,0,0,0,1.46-.887l1.752.725a9.029,9.029,0,0,0,1.157-1.319,9.788,9.788,0,0,0,.9-1.514l-1.222-1.449a8.2,8.2,0,0,0,.4-1.655l1.752-.735a9.668,9.668,0,0,0-.541-3.461l-1.893-.162a8.109,8.109,0,0,0-.887-1.46Zm-2.9,9.506a4.994,4.994,0,1,1-1.1-6.976A5,5,0,0,1,1263.365,493.861Z" transform="translate(-1249.767 -481.366)" fill="#d3cccd"/>
          <path id="Trazado_1028701" data-name="Trazado 1028701" d="M1266.263,484.355a9.044,9.044,0,0,0-1.319-1.157,9.8,9.8,0,0,0-1.514-.9l-1.449,1.222a8.191,8.191,0,0,0-1.655-.4l-.735-1.752a9.665,9.665,0,0,0-3.461.541l-.162,1.893a8.089,8.089,0,0,0-1.46.887l-1.752-.714a9.53,9.53,0,0,0-2.055,2.834l1.222,1.449a8.218,8.218,0,0,0-.4,1.655l-1.752.735a9.653,9.653,0,0,0,.541,3.461l1.893.162a8.482,8.482,0,0,0,.887,1.46l-.725,1.752a9.526,9.526,0,0,0,2.834,2.055l1.449-1.222a8.2,8.2,0,0,0,1.655.4l.735,1.752a9.663,9.663,0,0,0,3.461-.541l.162-1.893a8.1,8.1,0,0,0,1.46-.887l1.752.725a9.029,9.029,0,0,0,1.157-1.319,9.788,9.788,0,0,0,.9-1.514l-1.222-1.449a8.2,8.2,0,0,0,.4-1.655l1.752-.735a9.668,9.668,0,0,0-.541-3.461l-1.893-.162a8.109,8.109,0,0,0-.887-1.46Zm-2.9,9.506a4.994,4.994,0,1,1-1.1-6.976A5,5,0,0,1,1263.365,493.861Z" transform="translate(-1249.767 -481.366)" fill="none" stroke="#2d334a" stroke-linecap="round" stroke-linejoin="round" stroke-miterlimit="10" stroke-width="0.5"/>
        </g>
      </g>
    </g>
  </g>
</svg>
