<svg xmlns="http://www.w3.org/2000/svg" xmlns:xlink="http://www.w3.org/1999/xlink" width="150" height="150" viewBox="0 0 150 150">
  <defs>
    <clipPath id="clip-path">
      <rect id="Rectángulo_456277" data-name="Rectángulo 456277" width="150" height="150" transform="translate(-0.059 -0.059)" fill="#d35560"/>
    </clipPath>
    <clipPath id="clip-path-2">
      <rect id="Rectángulo_459914" data-name="Rectángulo 459914" width="82.056" height="78.184" fill="none"/>
    </clipPath>
  </defs>
  <g id="Grupo_1186008" data-name="Grupo 1186008" transform="translate(-413.192 -9435.133)">
    <g id="Grupo_1180081" data-name="Grupo 1180081" transform="translate(413.25 9435.191)">
      <g id="Grupo_1179924" data-name="Grupo 1179924" transform="translate(0 0)">
        <g id="Grupo_1179923" data-name="Grupo 1179923" transform="translate(0 0)" clip-path="url(#clip-path)">
          <path id="Trazado_1004716" data-name="Trazado 1004716" d="M74.59,149.181c-2.423,0-4.689-2.768-7.051-3-2.407-.235-5.167,2.037-7.5,1.574-2.367-.47-4.049-3.628-6.329-4.321-2.305-.7-5.459.985-7.662.069-2.222-.923-3.251-4.35-5.356-5.479s-5.541-.1-7.528-1.432-2.336-4.9-4.186-6.418-5.412-1.171-7.107-2.865-1.342-5.254-2.865-7.107-5.082-2.192-6.418-4.186-.3-5.41-1.432-7.527-4.556-3.135-5.48-5.356c-.916-2.2.77-5.357.07-7.662-.693-2.28-3.85-3.961-4.32-6.329C.962,86.809,3.234,84.048,3,81.642c-.231-2.363-3-4.629-3-7.052S2.768,69.9,3,67.539c.235-2.407-2.037-5.166-1.573-7.5.47-2.367,3.627-4.049,4.32-6.329.7-2.306-.985-5.459-.069-7.663.924-2.222,4.35-3.251,5.48-5.356s.1-5.54,1.432-7.528,4.9-2.336,6.418-4.186,1.171-5.412,2.866-7.107,5.254-1.342,7.107-2.865,2.192-5.082,4.186-6.418,5.41-.3,7.528-1.432,3.134-4.556,5.356-5.48c2.2-.916,5.357.77,7.663.069,2.28-.692,3.961-3.85,6.328-4.32C62.372.962,65.133,3.234,67.539,3c2.363-.231,4.629-3,7.052-3s4.689,2.768,7.051,3c2.407.235,5.167-2.037,7.5-1.574,2.367.47,4.049,3.628,6.329,4.321,2.305.7,5.459-.985,7.662-.069,2.222.923,3.251,4.35,5.356,5.48s5.541.1,7.528,1.432,2.337,4.9,4.186,6.418,5.412,1.171,7.107,2.866,1.342,5.254,2.865,7.107,5.082,2.192,6.418,4.186.3,5.41,1.432,7.528,4.556,3.135,5.479,5.356c.916,2.2-.77,5.357-.069,7.662.693,2.28,3.85,3.961,4.32,6.328.463,2.333-1.809,5.093-1.574,7.5.231,2.363,3,4.629,3,7.051s-2.768,4.689-3,7.052c-.235,2.406,2.037,5.166,1.574,7.5-.47,2.367-3.627,4.049-4.32,6.329-.7,2.305.985,5.459.069,7.662-.924,2.222-4.35,3.251-5.48,5.357s-.1,5.54-1.432,7.528-4.9,2.336-6.418,4.186-1.171,5.412-2.866,7.107-5.254,1.342-7.107,2.865-2.192,5.081-4.186,6.418-5.41.3-7.528,1.432-3.134,4.557-5.356,5.48c-2.2.916-5.357-.77-7.662-.069-2.28.692-3.961,3.85-6.328,4.32-2.333.463-5.093-1.809-7.5-1.574-2.363.231-4.629,3-7.052,3" transform="translate(0.35 0.35)" fill="#d35560"/>
          <path id="Trazado_1004717" data-name="Trazado 1004717" d="M14,81.535a67.535,67.535,0,1,1,67.535,67.535A67.535,67.535,0,0,1,14,81.535" transform="translate(-6.594 -6.594)" fill="#4d787e"/>
          <path id="Trazado_1004718" data-name="Trazado 1004718" d="M132.334,270.213c-.179-.759-.348-1.543-.509-2.312l-2.36-.3q1.057-.562,2.072-1.13-.225-1.156-.423-2.309c.54.53,1.093,1.077,1.663,1.6q.994-.618,1.945-1.239-.422,1.09-.87,2.178c.589.505,1.191,1.019,1.808,1.521l-2.372-.177q-.464,1.087-.955,2.171" transform="translate(-63.866 -130.676)" fill="#ffffc5"/>
          <path id="Trazado_1004719" data-name="Trazado 1004719" d="M113.789,266.762c-.064-.775-.113-1.577-.157-2.361l-2.288-.652q1.129-.4,2.219-.806-.049-1.177-.072-2.347c.455.6.919,1.229,1.4,1.829q1.075-.461,2.108-.932-.58,1.014-1.185,2.022c.507.586,1.024,1.192,1.561,1.772-.776-.161-1.546-.353-2.319-.528q-.621,1-1.269,2" transform="translate(-54.878 -128.909)" fill="#ffffc5"/>
          <path id="Trazado_1004720" data-name="Trazado 1004720" d="M96.012,260.643c.058-.789.127-1.579.2-2.363l-2.166-.983c.783-.146,1.556-.305,2.315-.467q.129-1.169.28-2.329c.358.667.728,1.343,1.113,2.021q1.132-.3,2.225-.608-.726.916-1.477,1.822c.413.657.836,1.325,1.277,1.987l-2.214-.87q-.766.9-1.556,1.79" transform="translate(-46.299 -125.885)" fill="#ffffc5"/>
          <path id="Trazado_1004721" data-name="Trazado 1004721" d="M79.414,251.99q.265-1.159.551-2.3c-.663-.434-1.344-.843-1.993-1.3.783-.008,1.584-.069,2.356-.112q.3-1.136.623-2.258.384,1.067.8,2.159c.766-.066,1.54-.171,2.29-.266q-.856.8-1.734,1.584.466,1.066.968,2.153l-2.062-1.187c-.594.517-1.2,1.036-1.8,1.531" transform="translate(-38.325 -121.677)" fill="#ffffc5"/>
          <path id="Trazado_1004722" data-name="Trazado 1004722" d="M64.353,241.022q.432-1.105.885-2.194c-.593-.526-1.215-1.021-1.777-1.582.769.115,1.567.177,2.343.242q.464-1.078.948-2.139.225,1.109.481,2.247c.755.064,1.543.065,2.3.082q-.965.664-1.952,1.311.3,1.12.643,2.265l-1.87-1.471c-.669.429-1.327.83-2,1.238" transform="translate(-31.127 -116.386)" fill="#ffffc5"/>
          <path id="Trazado_1004723" data-name="Trazado 1004723" d="M51.149,227.995q.589-1.028,1.2-2.037l-.779-.9c-.258-.3-.494-.62-.741-.929l1.128.317,1.149.273q.617-1,1.25-1.973.063,1.127.152,2.286l1.121.234,1.138.191q-1.055.516-2.127,1.012.14,1.148.309,2.327c-.545-.576-1.1-1.142-1.635-1.727q-1.07.473-2.159.926" transform="translate(-24.859 -110.134)" fill="#ffffc5"/>
          <path id="Trazado_1004724" data-name="Trazado 1004724" d="M39.841,213.191q.733-.928,1.481-1.835c-.212-.336-.434-.664-.637-1l-.594-1.031c.724.322,1.417.646,2.16.923.507-.6,1.006-1.179,1.532-1.767-.079.754-.131,1.508-.186,2.282.723.269,1.425.535,2.166.758-.746.236-1.5.467-2.255.686-.022.772-.029,1.551-.032,2.344-.451-.652-.939-1.279-1.359-1.952q-1.13.31-2.275.6" transform="translate(-19.411 -103.056)" fill="#ffffc5"/>
          <path id="Trazado_1004725" data-name="Trazado 1004725" d="M30.615,196.931q.862-.808,1.735-1.593c-.343-.716-.614-1.462-.909-2.2.671.425,1.309.848,1.992,1.237.582-.511,1.181-1.02,1.787-1.522-.212.742-.356,1.472-.529,2.229.683.37,1.327.742,2.024,1.074-.778.124-1.554.238-2.322.338-.159.771-.262,1.529-.386,2.314-.358-.707-.739-1.4-1.051-2.133q-1.165.138-2.342.253" transform="translate(-14.835 -95.309)" fill="#ffffc5"/>
          <path id="Trazado_1004726" data-name="Trazado 1004726" d="M24.019,179.289q.973-.669,1.952-1.313c-.235-.758-.377-1.54-.566-2.31.6.522,1.176,1.033,1.781,1.524.651-.417,1.333-.834,2-1.237-.326.7-.579,1.4-.86,2.124.617.469,1.213.929,1.836,1.366-.791.008-1.557,0-2.34-.016-.284.741-.492,1.474-.731,2.231-.259-.75-.515-1.5-.717-2.268q-1.174-.038-2.355-.1" transform="translate(-11.564 -86.782)" fill="#ffffc5"/>
          <path id="Trazado_1004727" data-name="Trazado 1004727" d="M20.215,160.664q1.062-.516,2.127-1.005c-.119-.785-.143-1.579-.214-2.369.513.605,1.005,1.2,1.532,1.774.706-.315,1.441-.624,2.164-.924-.429.647-.781,1.3-1.168,1.972.539.556,1.062,1.1,1.608,1.627-.781-.112-1.537-.237-2.309-.368-.392.69-.711,1.384-1.058,2.1l-.21-1.171c-.066-.391-.1-.786-.158-1.179q-1.155-.214-2.313-.453" transform="translate(-9.677 -77.667)" fill="#ffffc5"/>
          <path id="Trazado_1004728" data-name="Trazado 1004728" d="M19.269,141.764q1.128-.352,2.255-.679c0-.793.074-1.584.135-2.374.421.674.8,1.333,1.259,1.981.751-.207,1.5-.406,2.266-.595-.5.578-.959,1.172-1.441,1.779.453.63.873,1.246,1.353,1.848q-1.134-.34-2.237-.706c-.483.624-.9,1.263-1.353,1.915-.018-.792-.055-1.585-.018-2.378q-1.109-.382-2.218-.79" transform="translate(-9.207 -68.451)" fill="#ffffc5"/>
          <path id="Trazado_1004729" data-name="Trazado 1004729" d="M21.174,123q1.169-.181,2.333-.336c.074-.39.132-.783.218-1.169l.268-1.159c.312.729.595,1.437.951,2.146.778-.092,1.538-.178,2.325-.25-.574.5-1.122,1.015-1.688,1.543.353.69.672,1.36,1.067,2.028-.706-.335-1.426-.681-2.114-1.031-.553.548-1.077,1.115-1.619,1.694.111-.785.174-1.577.333-2.355q-1.039-.543-2.074-1.112" transform="translate(-10.152 -59.337)" fill="#ffffc5"/>
          <path id="Trazado_1004730" data-name="Trazado 1004730" d="M25.928,104.79q1.182,0,2.357.018c.239-.757.539-1.491.832-2.228.2.769.37,1.51.616,2.264.779.025,1.552.056,2.341.1-.65.4-1.263.834-1.9,1.271.247.736.46,1.445.75,2.165-.649-.438-1.3-.887-1.934-1.337-.633.458-1.233.941-1.857,1.432.226-.761.412-1.533.684-2.279q-.946-.692-1.884-1.411" transform="translate(-12.51 -50.53)" fill="#ffffc5"/>
          <path id="Trazado_1004731" data-name="Trazado 1004731" d="M33.429,87.557q1.169.173,2.325.37c.346-.714.77-1.386,1.158-2.077.083.789.155,1.557.267,2.329.761.139,1.54.3,2.306.457-.718.293-1.376.634-2.077.969.134.765.248,1.5.414,2.252-.582-.533-1.146-1.067-1.705-1.608-.709.35-1.361.744-2.054,1.134.327-.722.644-1.45,1.02-2.149q-.833-.827-1.654-1.678" transform="translate(-16.231 -42.232)" fill="#ffffc5"/>
          <path id="Trazado_1004732" data-name="Trazado 1004732" d="M43.489,71.68q1.128.345,2.241.71c.461-.645.972-1.253,1.456-1.881q-.054,1.188-.083,2.343,1.117.389,2.219.8c-.749.187-1.473.41-2.2.647q.023,1.16.07,2.287-.728-.91-1.438-1.839c-.753.241-1.471.524-2.2.813l.643-1,.688-.97q-.7-.943-1.388-1.908" transform="translate(-21.221 -34.623)" fill="#ffffc5"/>
          <path id="Trazado_1004733" data-name="Trazado 1004733" d="M55.356,57.5q1.064.506,2.109,1.031l1.72-1.643q-.226,1.17-.421,2.312,1.046.548,2.073,1.115c-.759.084-1.53.176-2.278.31Q58.413,61.78,58.3,62.9q-.585-1.008-1.152-2.034l-1.161.215c-.384.079-.76.17-1.144.259.508-.61,1.064-1.175,1.611-1.75q-.556-1.038-1.094-2.095" transform="translate(-26.851 -27.867)" fill="#ffffc5"/>
          <path id="Trazado_1004734" data-name="Trazado 1004734" d="M69.217,45.319c.65.436,1.293.879,1.939,1.34l1.938-1.379q-.394,1.129-.753,2.233.952.7,1.883,1.406c-.754-.018-1.544-.058-2.3-.035q-.311,1.124-.59,2.223-.431-1.084-.841-2.184c-.774.032-1.582.045-2.354.123.592-.529,1.238-.991,1.854-1.49q-.4-1.111-.775-2.237" transform="translate(-33.447 -22.109)" fill="#ffffc5"/>
          <path id="Trazado_1004735" data-name="Trazado 1004735" d="M84.831,34.886c.578.528,1.158,1.078,1.724,1.623l2.117-1.086q-.555,1.061-1.073,2.1.838.828,1.652,1.667c-.745-.133-1.508-.269-2.274-.382q-.473,1.07-.908,2.119-.266-1.138-.51-2.288c-.77-.084-1.562-.176-2.349-.232.677-.412,1.372-.8,2.057-1.2q-.23-1.158-.436-2.33" transform="translate(-40.923 -16.954)" fill="#ffffc5"/>
          <path id="Trazado_1004736" data-name="Trazado 1004736" d="M101.868,26.946q.744.928,1.463,1.866c.752-.251,1.5-.517,2.255-.756-.476.632-.93,1.284-1.376,1.919q.7.943,1.382,1.893-1.075-.365-2.191-.718c-.421.651-.822,1.313-1.214,1.961q-.094-1.166-.163-2.342-1.124-.3-2.289-.582l2.213-.874c-.035-.785-.066-1.583-.081-2.367" transform="translate(-49.12 -13.015)" fill="#ffffc5"/>
          <path id="Trazado_1004737" data-name="Trazado 1004737" d="M119.95,21.733q.6,1.029,1.166,2.064c.781-.136,1.56-.289,2.344-.41-.566.55-1.113,1.13-1.649,1.69q.554,1.037,1.082,2.079-1.008-.522-2.058-1.037c-.516.571-1.01,1.175-1.494,1.755q.082-1.167.19-2.341-1.066-.463-2.174-.916l2.318-.536c.083-.782.173-1.578.276-2.349" transform="translate(-57.86 -10.43)" fill="#ffffc5"/>
          <path id="Trazado_1004738" data-name="Trazado 1004738" d="M138.658,19.35q.436,1.108.845,2.216l2.378-.059q-.962.715-1.882,1.43.394,1.11.761,2.219-.92-.668-1.882-1.336c-.595.5-1.175,1.012-1.741,1.515q.256-1.142.539-2.285-.986-.619-2.013-1.234l2.372-.18c.2-.761.407-1.532.623-2.286" transform="translate(-66.94 -9.248)" fill="#ffffc5"/>
          <path id="Trazado_1004739" data-name="Trazado 1004739" d="M157.568,19.831c.179.759.348,1.543.509,2.312l2.36.3q-1.057.562-2.072,1.13.224,1.156.423,2.309c-.54-.53-1.093-1.077-1.662-1.6q-.994.618-1.945,1.239.422-1.09.87-2.178c-.589-.505-1.191-1.02-1.808-1.521l2.372.177q.464-1.087.955-2.171" transform="translate(-76.155 -9.486)" fill="#ffffc5"/>
          <path id="Trazado_1004740" data-name="Trazado 1004740" d="M176.272,23.17c.064.775.113,1.577.157,2.361l2.288.652q-1.129.4-2.219.806.049,1.177.072,2.347c-.455-.6-.918-1.229-1.4-1.829q-1.075.461-2.108.932.58-1.014,1.185-2.022c-.506-.586-1.024-1.192-1.561-1.771.776.161,1.546.352,2.319.527q.622-1,1.269-2" transform="translate(-85.303 -11.142)" fill="#ffffc5"/>
          <path id="Trazado_1004741" data-name="Trazado 1004741" d="M194.147,29.313c-.058.789-.126,1.578-.2,2.363l2.166.983c-.783.147-1.556.306-2.315.467q-.128,1.169-.28,2.329c-.358-.667-.728-1.343-1.113-2.021q-1.132.3-2.225.608.726-.916,1.476-1.822c-.412-.657-.836-1.325-1.277-1.987l2.214.87q.766-.9,1.556-1.79" transform="translate(-93.98 -14.189)" fill="#ffffc5"/>
          <path id="Trazado_1004742" data-name="Trazado 1004742" d="M210.61,38.133q-.265,1.159-.551,2.3c.663.434,1.344.843,1.993,1.3-.783.008-1.584.069-2.356.112q-.3,1.136-.623,2.258-.384-1.067-.8-2.159c-.766.066-1.54.171-2.29.266q.856-.8,1.734-1.584-.466-1.066-.968-2.153l2.062,1.187c.594-.517,1.2-1.036,1.8-1.531" transform="translate(-101.818 -18.564)" fill="#ffffc5"/>
          <path id="Trazado_1004743" data-name="Trazado 1004743" d="M225.67,49.168q-.432,1.105-.884,2.194c.593.526,1.215,1.021,1.777,1.582-.769-.115-1.567-.177-2.343-.242q-.464,1.078-.948,2.139-.225-1.109-.481-2.246c-.755-.064-1.543-.065-2.3-.082q.966-.664,1.952-1.311-.3-1.12-.643-2.264l1.87,1.47c.669-.429,1.326-.83,2-1.238" transform="translate(-109.015 -23.922)" fill="#ffffc5"/>
          <path id="Trazado_1004744" data-name="Trazado 1004744" d="M239.007,62.051q-.589,1.028-1.2,2.037l.779.9c.258.3.493.62.742.929L238.2,65.6l-1.149-.273q-.617,1-1.25,1.973-.063-1.127-.152-2.286l-1.121-.234-1.137-.191q1.055-.516,2.127-1.012-.14-1.148-.309-2.327c.545.576,1.1,1.142,1.635,1.727q1.071-.473,2.159-.926" transform="translate(-115.416 -30.03)" fill="#ffffc5"/>
          <path id="Trazado_1004745" data-name="Trazado 1004745" d="M250.33,76.837q-.733.928-1.481,1.835c.211.335.434.664.636,1l.594,1.031c-.724-.322-1.417-.646-2.16-.923-.507.6-1.006,1.179-1.532,1.767.079-.754.131-1.508.186-2.282-.723-.269-1.425-.535-2.166-.757.746-.236,1.5-.467,2.255-.686.022-.772.03-1.55.032-2.343.451.652.939,1.279,1.359,1.952q1.13-.31,2.275-.6" transform="translate(-120.879 -37.09)" fill="#ffffc5"/>
          <path id="Trazado_1004746" data-name="Trazado 1004746" d="M259.38,93.209q-.862.808-1.735,1.593c.343.716.614,1.462.909,2.2-.671-.425-1.309-.848-1.992-1.237-.582.511-1.181,1.02-1.787,1.522.212-.742.356-1.472.529-2.229-.683-.37-1.327-.742-2.024-1.074.778-.124,1.554-.238,2.322-.338.159-.771.262-1.529.385-2.314.358.708.739,1.4,1.051,2.134q1.165-.138,2.342-.253" transform="translate(-125.279 -44.949)" fill="#ffffc5"/>
          <path id="Trazado_1004747" data-name="Trazado 1004747" d="M265.935,110.814q-.973.67-1.952,1.313c.235.758.377,1.54.566,2.31-.6-.521-1.176-1.033-1.781-1.524-.651.417-1.333.834-2,1.237.327-.7.579-1.4.86-2.124-.617-.469-1.213-.929-1.836-1.366.791-.007,1.557,0,2.34.016.284-.741.492-1.474.731-2.231.259.75.515,1.5.717,2.268q1.174.038,2.355.1" transform="translate(-128.509 -53.44)" fill="#ffffc5"/>
          <path id="Trazado_1004748" data-name="Trazado 1004748" d="M269.832,129.258q-1.062.516-2.127,1.005c.119.785.143,1.579.214,2.369-.513-.605-1.005-1.2-1.532-1.774-.706.315-1.441.624-2.164.924.429-.647.781-1.3,1.168-1.972-.539-.556-1.062-1.1-1.608-1.627.781.112,1.537.237,2.309.367.392-.69.711-1.383,1.058-2.1l.21,1.171c.066.391.1.786.158,1.179q1.155.214,2.313.453" transform="translate(-130.489 -62.373)" fill="#ffffc5"/>
          <path id="Trazado_1004749" data-name="Trazado 1004749" d="M270.909,148.113q-1.128.352-2.255.679c0,.793-.074,1.584-.135,2.374-.421-.674-.8-1.333-1.259-1.981-.751.207-1.5.406-2.266.595.5-.578.959-1.172,1.441-1.779-.453-.63-.873-1.246-1.353-1.848q1.134.34,2.237.706c.483-.624.9-1.263,1.353-1.915.018.793.055,1.585.018,2.378q1.109.383,2.218.79" transform="translate(-131.09 -71.544)" fill="#ffffc5"/>
          <path id="Trazado_1004750" data-name="Trazado 1004750" d="M268.826,166.968q-1.17.181-2.334.336c-.074.39-.132.783-.218,1.169l-.268,1.159c-.312-.729-.595-1.437-.951-2.146-.778.092-1.538.178-2.326.25.574-.5,1.122-1.015,1.689-1.543-.353-.69-.672-1.36-1.067-2.028.706.335,1.426.681,2.114,1.031.553-.548,1.077-1.115,1.619-1.694-.111.785-.174,1.577-.333,2.355q1.039.542,2.074,1.111" transform="translate(-129.966 -80.748)" fill="#ffffc5"/>
          <path id="Trazado_1004751" data-name="Trazado 1004751" d="M264.024,185.4q-1.182,0-2.357-.018c-.24.757-.539,1.491-.832,2.228-.2-.769-.37-1.51-.616-2.264-.779-.025-1.552-.056-2.341-.1.65-.4,1.263-.834,1.9-1.271-.247-.735-.46-1.445-.75-2.165.649.437,1.3.886,1.934,1.337.633-.458,1.233-.941,1.857-1.431-.226.76-.412,1.532-.684,2.278q.946.692,1.884,1.411" transform="translate(-127.56 -89.783)" fill="#ffffc5"/>
          <path id="Trazado_1004752" data-name="Trazado 1004752" d="M256.61,202.53q-1.169-.173-2.325-.37c-.346.714-.77,1.386-1.158,2.077-.083-.789-.155-1.557-.267-2.329-.761-.139-1.54-.3-2.306-.457.718-.293,1.376-.635,2.077-.969-.134-.765-.248-1.5-.414-2.252.583.533,1.146,1.067,1.705,1.608.71-.35,1.361-.744,2.054-1.135-.327.722-.644,1.45-1.02,2.149q.832.827,1.654,1.678" transform="translate(-123.928 -97.974)" fill="#ffffc5"/>
          <path id="Trazado_1004753" data-name="Trazado 1004753" d="M246.77,218.341q-1.128-.344-2.241-.71c-.461.645-.972,1.253-1.456,1.881q.054-1.188.083-2.343-1.117-.389-2.219-.8c.749-.187,1.473-.41,2.2-.647q-.023-1.16-.07-2.287.728.91,1.438,1.839c.753-.241,1.471-.524,2.2-.813l-.643,1-.688.97q.7.943,1.388,1.908" transform="translate(-119.158 -105.517)" fill="#ffffc5"/>
          <path id="Trazado_1004754" data-name="Trazado 1004754" d="M234.741,232.58q-1.064-.506-2.109-1.031l-1.72,1.643q.226-1.17.421-2.312-1.046-.548-2.073-1.115c.759-.084,1.53-.176,2.278-.31q.146-1.154.263-2.279.585,1.007,1.152,2.034l1.161-.215c.384-.079.76-.17,1.144-.259-.508.61-1.064,1.175-1.611,1.75q.556,1.038,1.094,2.095" transform="translate(-113.365 -112.331)" fill="#ffffc5"/>
          <path id="Trazado_1004755" data-name="Trazado 1004755" d="M220.791,244.946c-.65-.436-1.293-.879-1.939-1.34l-1.938,1.379q.393-1.129.753-2.233-.952-.7-1.883-1.406c.754.018,1.544.058,2.3.035q.311-1.125.59-2.223.431,1.084.842,2.184c.774-.032,1.581-.045,2.353-.124-.591.529-1.238.991-1.854,1.49q.4,1.111.775,2.237" transform="translate(-106.68 -118.275)" fill="#ffffc5"/>
          <path id="Trazado_1004756" data-name="Trazado 1004756" d="M205.223,255.164c-.578-.528-1.158-1.078-1.724-1.622l-2.117,1.086q.555-1.061,1.072-2.1-.838-.829-1.652-1.668c.745.133,1.508.269,2.274.382q.472-1.069.908-2.119.266,1.139.51,2.289c.77.083,1.562.175,2.349.231-.677.413-1.371.8-2.057,1.2q.23,1.157.436,2.329" transform="translate(-99.25 -123.215)" fill="#ffffc5"/>
          <path id="Trazado_1004757" data-name="Trazado 1004757" d="M188.367,262.987q-.744-.928-1.463-1.866c-.752.251-1.5.517-2.255.756.476-.632.931-1.284,1.376-1.919q-.7-.943-1.382-1.894,1.075.365,2.191.718c.421-.651.822-1.313,1.214-1.961q.094,1.166.163,2.342,1.124.3,2.289.582l-2.213.874c.035.785.066,1.583.081,2.367" transform="translate(-91.235 -127.036)" fill="#ffffc5"/>
          <path id="Trazado_1004758" data-name="Trazado 1004758" d="M170.042,268.223q-.6-1.029-1.166-2.064c-.781.136-1.56.289-2.344.41.566-.55,1.113-1.13,1.649-1.69q-.554-1.037-1.082-2.079,1.008.522,2.058,1.037c.516-.571,1.01-1.175,1.495-1.755q-.082,1.167-.191,2.341,1.066.463,2.174.916l-2.318.536c-.083.782-.172,1.578-.276,2.349" transform="translate(-82.252 -129.645)" fill="#ffffc5"/>
          <path id="Trazado_1004759" data-name="Trazado 1004759" d="M151.223,270.76q-.435-1.108-.845-2.216L148,268.6q.962-.715,1.882-1.431-.394-1.109-.761-2.219.92.668,1.882,1.336c.595-.5,1.175-1.012,1.741-1.515q-.256,1.142-.539,2.285.986.618,2.013,1.233l-2.372.181c-.2.76-.407,1.532-.623,2.285" transform="translate(-73.059 -130.981)" fill="#ffffc5"/>
          <path id="Trazado_1004760" data-name="Trazado 1004760" d="M92.062,148.9A56.837,56.837,0,1,1,148.9,92.062,56.9,56.9,0,0,1,92.062,148.9" transform="translate(-17.122 -17.122)" fill="#d35560"/>
        </g>
      </g>
      <g id="Grupo_1180053" data-name="Grupo 1180053" transform="translate(39.422 38.995)">
        <rect id="Rectángulo_401104" data-name="Rectángulo 401104" width="71.038" height="71.894" transform="translate(0)" fill="#d35560"/>
      </g>
    </g>
    <g id="Grupo_1187664" data-name="Grupo 1187664" transform="translate(447.424 9465.954)">
      <g id="Grupo_1187663" data-name="Grupo 1187663" clip-path="url(#clip-path-2)">
        <path id="Trazado_1032289" data-name="Trazado 1032289" d="M37.308,222.8l.214.4L14.993,247.753c-.766.616-2.322,1.54-3.2.968A3.414,3.414,0,0,1,12.5,244.2L30.02,228.027c.57-.526.145-1.463-.259-1.786a.568.568,0,0,0,.532-.081l2.027-1.854a1.385,1.385,0,0,0,1.722.01l2.479-2.311c.439.181.571.578.786.79" transform="translate(-8.83 -174.559)" fill="#732e23"/>
        <path id="Trazado_1032290" data-name="Trazado 1032290" d="M13.854,251.628c1.023-.4,2.178-.483,3-1.378L39.371,225.7l2.229,2.2-22.64,24.441c-1.528,1.65-4.144.834-5.105-.713" transform="translate(-10.893 -177.466)" fill="#58241e"/>
        <path id="Trazado_1032291" data-name="Trazado 1032291" d="M321.482,290.66l.029,1.248c.016.685.827.974,1.407.928-.49.716.313,1.869.265,3.2a1.494,1.494,0,0,0-.463,1.9.579.579,0,0,1,.076.492,18.7,18.7,0,0,1-4.463.105,1.244,1.244,0,0,1-.681-.385,11.386,11.386,0,0,1-1.137-3.286c-.273-1.239-.7-3.244.1-4.2-.22.006-.242-.069-.074-.221.063-.141.134-.138.214,0l4.629.022Z" transform="translate(-248.586 -228.287)" fill="#c1b0ac"/>
        <path id="Trazado_1032292" data-name="Trazado 1032292" d="M160.464,263.87c.56.442-.334,2.567-1.039,2.56q-5.654.1-11.4.207a.218.218,0,0,1,.071.278c-.583,0-.99.886-.944,1.317a1.406,1.406,0,0,0,1.187,1.16l-.508.241,10.985.218a14.629,14.629,0,0,0,1.717,7.876l-42.821-.163q.537.312-.532.409a11.328,11.328,0,0,1-1.71-5.092l-.008-1.982c.059-.733.357-1.5,1.146-1.059q-.062-.355.57-.1,10.89.09,21.7-.105-.273-.1-.233-.23a1.3,1.3,0,0,0,.02-2.533q-.077-.127.212-.23-9.531-.141-19.118-.171l.1-.256c-.105-.125-.24-.294-.188-.426a5.011,5.011,0,0,1,2.362-1.913Z" transform="translate(-90.786 -207.476)" fill="#d8c8c2"/>
        <path id="Trazado_1032293" data-name="Trazado 1032293" d="M123.5,326.763c.179-.1.5-.116.532-.409l42.821.163,3.786-.177a.61.61,0,0,0,.6-.42,1.033,1.033,0,0,1,.314.744l-2.265.084Z" transform="translate(-97.104 -256.265)" fill="#c8b6b2"/>
        <path id="Trazado_1032294" data-name="Trazado 1032294" d="M118.6,289.641q11,.1,22.022.212a.236.236,0,0,1-.252.215l-22.014-.006c-.577.305-.8.161-.6-.475a3.331,3.331,0,0,0,.842.054" transform="translate(-92.534 -227.697)" fill="#d5c5bf"/>
        <path id="Trazado_1032295" data-name="Trazado 1032295" d="M143.754,289.752c.142,0,.243.059.233.23H122.21a.221.221,0,0,1-.244-.212Z" transform="translate(-95.898 -227.827)" fill="#e5d3cd"/>
        <path id="Trazado_1032296" data-name="Trazado 1032296" d="M132.882,276.192l.147-.173q9.571.032,19.1.172a.19.19,0,0,1-.212.23l-19.46-.024c-.186-.06-.183-.129,0-.207Z" transform="translate(-104.036 -217.029)" fill="#e9d8d0"/>
        <path id="Trazado_1032297" data-name="Trazado 1032297" d="M278.6,276.322c.185.067.18.14-.007.216l-11.286.063c-.28.014-.306-.287-.071-.278,3.722-.184,7.664-.174,11.364,0" transform="translate(-210.001 -217.162)" fill="#e9d8d0"/>
        <path id="Trazado_1032298" data-name="Trazado 1032298" d="M267.427,289.68l10.617.025c.187.061.184.132,0,.214h-.214a106.4,106.4,0,0,1-10.91,0c.048-.318.28-.241.508-.241" transform="translate(-209.873 -227.763)" fill="#e5d3cd"/>
        <path id="Trazado_1032299" data-name="Trazado 1032299" d="M115.513,289.465a2.176,2.176,0,0,0,.6.475c-.31.232-1,.592-1.014,1.079l-.124,1.962a11.1,11.1,0,0,1-.017-3.442c.021-.144.429-.114.558-.074" transform="translate(-90.289 -227.574)" fill="#bcaca8"/>
        <path id="Trazado_1032300" data-name="Trazado 1032300" d="M277.822,290.828a.362.362,0,0,0,.074.221l-10.761,0c-.191,0-.237-.138-.225-.216Z" transform="translate(-209.866 -228.673)" fill="#d5c5bf"/>
        <path id="Trazado_1032301" data-name="Trazado 1032301" d="M180.769,306.276H152.744a1.161,1.161,0,0,1-.936-1.187c-.008-.412.287-1.14.934-1.14l28.544.009c.7,0,.978.891.891,1.321a1.17,1.17,0,0,1-1.408,1" transform="translate(-119.363 -238.989)" fill="#070808"/>
        <path id="Trazado_1032302" data-name="Trazado 1032302" d="M168.81,328.112l-42.821-.163Z" transform="translate(-99.063 -257.86)" fill="#e3d1cb"/>
        <path id="Trazado_1032303" data-name="Trazado 1032303" d="M184.564,302.028l-28.693,0c-.016-.083.072-.2.131-.2l28.208,0c.168,0,.286,0,.354.209" transform="translate(-122.556 -237.315)" fill="#e3d1cb"/>
        <path id="Trazado_1032304" data-name="Trazado 1032304" d="M184.342,316.013,156,316.027a.208.208,0,0,1-.132-.2L184,315.806c.175,0,.283-.01.346.207" transform="translate(-122.555 -248.312)" fill="#decec7"/>
        <path id="Trazado_1032305" data-name="Trazado 1032305" d="M154.212,275.253H134.97a.589.589,0,0,1,.221-.428c-.015.117.077.214.243.214h18.531a.233.233,0,0,1,.248.214" transform="translate(-106.124 -216.09)" fill="#d4c4be"/>
        <path id="Trazado_1032306" data-name="Trazado 1032306" d="M279.227,275.833a.6.6,0,0,0-.035.206l-11.364,0a.275.275,0,0,1,.261-.212Z" transform="translate(-210.588 -216.879)" fill="#d4c4be"/>
        <path id="Trazado_1032307" data-name="Trazado 1032307" d="M210.246,62.741l1.257,1.24-.075.46L191.982,83.668l-.486-.121-2.655-2.661,18.989-18.98c.671,1.051,1.567,1.407,2.416.834" transform="translate(-148.482 -48.676)" fill="#fdb054"/>
        <path id="Trazado_1032308" data-name="Trazado 1032308" d="M221.272,71.612l1.053.917a1.4,1.4,0,0,0-.257,1.454,6.438,6.438,0,0,0,1.056,1.152L204.159,94.1l-2.894-2.923,19.306-19.14a1.177,1.177,0,0,1,.7-.427" transform="translate(-158.251 -56.307)" fill="#fc921b"/>
        <path id="Trazado_1032309" data-name="Trazado 1032309" d="M61.764,14.065c-.035,1.3-1.824.562-2.52-.126L40.968,32.215l2.138,2.143-.091.514.476-.127L45.9,37.18q9.241-9.14,18.325-18.395c-.908-.577-1.539-2.461-.152-2.562a1.373,1.373,0,0,1,1.664.076l1.748,1.63A3.355,3.355,0,0,1,69.4,19.7l1.07,2.746c.558,1.431-.278,2.894-1.572,3.888l2.083,2.193a4.235,4.235,0,0,1,5.863.4,4.11,4.11,0,0,1,.212,5.813L63.191,48.663l15.243.045a3.774,3.774,0,0,1,3.587,4.327,3.957,3.957,0,0,1-4.684,3.318,12.624,12.624,0,0,0-2.048,6.863,1.408,1.408,0,0,1-.957,1.334c-.151.608-.727.448-1.166.157-.711-.472-1.066-1.932-.27-2.333l-.161-.227q-2.306-.108-4.565-.2a96.845,96.845,0,0,1-10.617-.025c-1.149.43-1.944-.757-1.49-1.846.275-.658.714-1.25,1.247-.631A100.444,100.444,0,0,1,68.6,59.377a21.619,21.619,0,0,1,4.784,0l-.28-.523.67-2.016-3.789-.015-.3-.429-.406.427-37.768,0-.262-.427a3.948,3.948,0,0,1-2.582.443A7.225,7.225,0,0,1,25.9,59.233q1.3.039,2.521.137c6.27-.167,13.128-.189,19.46.024.465-.427.957-.013,1.213.5.5.995-.133,2.519-1.234,2.037-7.019.21-14.656.194-21.789.018q-.111.447-.842-.054a6.152,6.152,0,0,0-.54,3.516l.493.362a11.091,11.091,0,0,0,1.333,4.153l-.116.578.583-.2q23.425.155,46.747-.057.284-.053.41-.582c-1.084-.205-.6-2.166.463-1.9,1.87-.372,1.585,1.292,2.828,2.733a3.871,3.871,0,1,1,.748,7.667l-50.783,0a3.891,3.891,0,0,1-3.851-4.355l-1.97-.031c-2.38.018-3.381-2.811-4.271-5.264L9.86,76.49a5.712,5.712,0,0,1-8.386-.3,5.914,5.914,0,0,1,.7-8.466L19.162,52.075a1.472,1.472,0,0,1,1.769-.393c1.172-.045,1.13,1.154.573,2.075L3.524,70.42a2.9,2.9,0,0,0-.352,3.248l-.211.494.541.025a2.885,2.885,0,0,0,4.166.486L30,50.571a6.68,6.68,0,0,0-1.605-1.819l.086-.515q-.373.351-.763-.228l-2.234,2.08c-.741.442-1.909.751-1.991-.341-.223-.356-.486-1.136-.06-1.541l2.885-2.741a4.14,4.14,0,0,1,1.023-4.378,4.247,4.247,0,0,1,4.434-.86l5.979-7.144a2.8,2.8,0,0,1-1.827-1.509l-1.1-2.755a3.555,3.555,0,0,1,1.539-4.13l-2.15-2.153a4.175,4.175,0,0,1-5.789-.362,4.137,4.137,0,0,1-.169-5.948L43.173,1.284a4.184,4.184,0,0,1,6.089.062A4.157,4.157,0,0,1,49.6,7.131L51.755,9.3A3.885,3.885,0,0,1,57.01,8.151c.881.457,2.139.624,2.67,1.572,1.462,2.608,3.157,2.759,2.083,4.342" transform="translate(0 0)" fill="#040504"/>
        <path id="Trazado_1032310" data-name="Trazado 1032310" d="M193.01,190.527l2.212,2.1a4.316,4.316,0,0,0-.48,4.784l-16.909,0a13.194,13.194,0,0,0-.275-2.341l7.073-5.906a3.233,3.233,0,0,0,1.907,1.948l2.291.924a3.542,3.542,0,0,0,4.182-1.509" transform="translate(-139.61 -148.735)" fill="#f4f4f4"/>
        <path id="Trazado_1032311" data-name="Trazado 1032311" d="M269.652,158.316c-.744.745-1.831.18-2.3-.251-.541-.5-1.181-1.685-.464-2.4L282.346,140.2c.692-.692,1.786-.135,2.236.253.608.524,1.2,1.718.466,2.448Z" transform="translate(-209.597 -109.982)" fill="#58241e"/>
        <path id="Trazado_1032312" data-name="Trazado 1032312" d="M225.221,115.1a1.036,1.036,0,0,1-1.151.309l-2.722-1.2,19.592-19.6,1.146,2.53a1.12,1.12,0,0,1-.2,1.29Z" transform="translate(-174.042 -74.392)" fill="#58241e"/>
        <path id="Trazado_1032313" data-name="Trazado 1032313" d="M140.837,29.484c-.751.751-1.831.179-2.326-.276s-1.146-1.648-.428-2.365l15.463-15.468c.691-.691,1.789-.155,2.28.308.525.494,1.149,1.656.417,2.388Z" transform="translate(-108.32 -8.684)" fill="#732e23"/>
        <path id="Trazado_1032314" data-name="Trazado 1032314" d="M174.864,67.711c-.845-1.43-1.7-3.054-1-3.753L190.842,47.01c.862-.274,2.555.494,3.515,1.217Z" transform="translate(-136.502 -36.919)" fill="#732e23"/>
        <path id="Trazado_1032315" data-name="Trazado 1032315" d="M170.352,55.606,168.243,53.5l11.923-11.94,2.133,2.089Z" transform="translate(-132.286 -32.674)" fill="#aa473d"/>
        <path id="Trazado_1032316" data-name="Trazado 1032316" d="M260.523,145.7l-2.146-2.076,11.939-11.939,2.115,2.08Z" transform="translate(-203.157 -103.538)" fill="#903b31"/>
        <path id="Trazado_1032317" data-name="Trazado 1032317" d="M161.175,170.414l-.111-.481,3.64-3.466.222-.748a2.782,2.782,0,0,1-.188-1.358l1.419-1.7,3.877,3.849-6.914,5.83a15.512,15.512,0,0,1-1.945-1.928" transform="translate(-126.642 -127.899)" fill="#58241e"/>
        <path id="Trazado_1032318" data-name="Trazado 1032318" d="M139,201.361c.719,1.056-1.424,3.082-2.469,2.3l-2.558-2.538a2.829,2.829,0,0,1-.506-.89,1.2,1.2,0,0,0,.085-.918,1.588,1.588,0,0,1,1.142-1.077,1.623,1.623,0,0,1,1.567.389Z" transform="translate(-104.941 -155.826)" fill="#aa463d"/>
        <path id="Trazado_1032319" data-name="Trazado 1032319" d="M158.579,176.659c-.26-.276-.687-.416-.817-.874l4.38-5.179a1.82,1.82,0,0,1,.032,2.7Z" transform="translate(-124.045 -134.144)" fill="#722d22"/>
        <path id="Trazado_1032320" data-name="Trazado 1032320" d="M147.8,215.363a3.119,3.119,0,0,0,2.469-2.3l1.41,1.452a1.62,1.62,0,0,1-.307,2.3,1.562,1.562,0,0,1-2.04.039Z" transform="translate(-116.216 -167.527)" fill="#903b31"/>
        <path id="Trazado_1032321" data-name="Trazado 1032321" d="M133.2,204.41c-.159-.337-.024-.587.085-.918.256.066.24.273.259.4.048.308-.039.509-.344.522" transform="translate(-104.673 -160.002)" fill="#b84c41"/>
        <path id="Trazado_1032322" data-name="Trazado 1032322" d="M170.743,341.486c1.062-.13.881,2.6-.193,2.38l-.336-.131-47.824.271c-.748-.035-1.032-.964-1.179-1.359s.348-1.515.814-1.516l.285.182,48.169-.044Z" transform="translate(-95.285 -268.224)" fill="#e4246e"/>
        <path id="Trazado_1032323" data-name="Trazado 1032323" d="M160.938,238.995l38.178.287.327-.131c1.087-.212,1.174,2.582.177,2.6-.075.1-.15.09-.224-.013q-20.683-.1-41.33-.25c-.6-.67.783-1.377,1.424-1.685a4.814,4.814,0,0,0,1.449-.807" transform="translate(-124.168 -187.917)" fill="#e4246f"/>
        <path id="Trazado_1032324" data-name="Trazado 1032324" d="M126.826,343.711l47.749-.271.412.13a2.225,2.225,0,0,0,.193-2.38c-.4-.078-.551-.2-.183-.435l2.957.012a1.452,1.452,0,0,1,1.419,1.589,1.542,1.542,0,0,1-1.509,1.3l-3.61.1Z" transform="translate(-99.721 -267.93)" fill="#e40053"/>
        <path id="Trazado_1032325" data-name="Trazado 1032325" d="M173.622,340.756l.182.435-48.484.009c-.229-.033-.26-.153-.234-.364Z" transform="translate(-98.347 -267.93)" fill="#e42671"/>
        <path id="Trazado_1032326" data-name="Trazado 1032326" d="M213.91,241.811a26.885,26.885,0,0,1-3.18-.143,2.7,2.7,0,0,0-.177-2.6l-.408.13-38.1-.287,41.2-.022a1.663,1.663,0,0,1,1.674,1.178c.144.486-.288,1.742-1.008,1.742" transform="translate(-135.279 -187.836)" fill="#e40053"/>
        <path id="Trazado_1032327" data-name="Trazado 1032327" d="M148.48,242.642l-1.424,1.685-.021.121q20.482-.069,41.351.129l.224.012,3.18.144-47.874.041,1.923-2.166a4.574,4.574,0,0,0,2.64.034" transform="translate(-113.159 -190.758)" fill="#e40052"/>
        <path id="Trazado_1032328" data-name="Trazado 1032328" d="M325.3,266.853q-2.412-.114-4.777-.217c-.187-.084-.171-.152.035-.206l1.039-2.56,4.88.019a13.97,13.97,0,0,0-1.177,2.963" transform="translate(-251.916 -207.477)" fill="#c0afab"/>
        <path id="Trazado_1032329" data-name="Trazado 1032329" d="M95.843,309a14.092,14.092,0,0,0,1.563,4.795c-.854-.044-1.823.245-2.549-.1-.828-.4-1.1-1.646-1.437-2.4-.3-1.166,1.268-2.45,2.218-2.912Z" transform="translate(-73.424 -242.473)" fill="#e4236e"/>
        <path id="Trazado_1032330" data-name="Trazado 1032330" d="M93.41,299.456c-.025-.137-.271-.3-.348-.244l-1.648,1.766a1.634,1.634,0,0,0-.427.766,9.047,9.047,0,0,1-.7-2.54l2.792-2.968Z" transform="translate(-70.992 -232.925)" fill="#e40053"/>
        <path id="Trazado_1032331" data-name="Trazado 1032331" d="M126.51,263.881l-2.175,2.339c.307.254.106.321-.221.428-.057.172-.314.149-.428,0a6.847,6.847,0,0,1-2.523.07l2.576-2.821Z" transform="translate(-95.269 -207.485)" fill="#c0aeaa"/>
        <path id="Trazado_1032332" data-name="Trazado 1032332" d="M139,287.019,116,287.035c-.06,0-.144-.125-.124-.2l22.991-.016c.06,0,.144.125.124.2" transform="translate(-91.112 -225.519)" fill="#070808"/>
        <path id="Trazado_1032333" data-name="Trazado 1032333" d="M283.52,287.012l-15.508.022c-.063,0-.143-.125-.121-.2l15.508-.022c.063,0,.143.125.121.2" transform="translate(-210.635 -225.517)" fill="#070808"/>
        <path id="Trazado_1032334" data-name="Trazado 1032334" d="M323.7,290.208a1.714,1.714,0,0,0-.867-.229l-3.859.011v-.214l4.291-.013a.512.512,0,0,1,.392.135.5.5,0,0,1,.043.311" transform="translate(-250.801 -227.834)" fill="#cdbbb6"/>
        <path id="Trazado_1032335" data-name="Trazado 1032335" d="M325.753,277h-4.784l.007-.216,4.284-.007a.577.577,0,0,1,.493.224" transform="translate(-252.372 -217.627)" fill="#d2bfbb"/>
        <path id="Trazado_1032336" data-name="Trazado 1032336" d="M123.686,276.824l0,.207a8.09,8.09,0,0,1-2.521-.137Z" transform="translate(-95.268 -217.662)" fill="#d0beb9"/>
        <path id="Trazado_1032337" data-name="Trazado 1032337" d="M174.986,352.962l-48.16.14,47.85-.4a.339.339,0,0,1,.31.263" transform="translate(-99.721 -277.321)" fill="#e42672"/>
        <path id="Trazado_1032338" data-name="Trazado 1032338" d="M157.443,250.577l41.066.038c.2,0,.265.134.264.212l-41.635,0a.214.214,0,0,1,.3-.252" transform="translate(-123.546 -197.008)" fill="#e42875"/>
        <path id="Trazado_1032339" data-name="Trazado 1032339" d="M210.554,239.151c-.034.081-.12.264-.315.263l-38.19-.42Z" transform="translate(-135.279 -187.917)" fill="#e42773"/>
      </g>
    </g>
  </g>
</svg>
