<svg xmlns="http://www.w3.org/2000/svg" xmlns:xlink="http://www.w3.org/1999/xlink" width="84" height="84" viewBox="0 0 84 84">
  <defs>
    <clipPath id="clip-path">
      <rect id="Rectángulo_459910" data-name="Rectángulo 459910" width="65.218" height="65.223" fill="none"/>
    </clipPath>
  </defs>
  <g id="Grupo_1180382" data-name="Grupo 1180382" transform="translate(-497.711 -7941)">
    <rect id="Rectángulo_456503" data-name="Rectángulo 456503" width="84" height="84" transform="translate(497.711 7941)" fill="#f2a4ab"/>
    <g id="Grupo_1187656" data-name="Grupo 1187656" transform="translate(507.102 7950.389)">
      <g id="Grupo_1187655" data-name="Grupo 1187655" clip-path="url(#clip-path)">
        <path id="Trazado_1032073" data-name="Trazado 1032073" d="M68.2,134.115a15.789,15.789,0,0,1-2.171,0v-2.155h2.156Z" transform="translate(-54.065 -108.053)" fill="#040505"/>
        <path id="Trazado_1032074" data-name="Trazado 1032074" d="M146.2,314.115l-2.171,0v-2.155h2.156Z" transform="translate(-117.932 -255.44)" fill="#040505"/>
        <path id="Trazado_1032075" data-name="Trazado 1032075" d="M170.2,314.115l-2.171,0v-2.155h2.156Z" transform="translate(-137.584 -255.44)" fill="#040505"/>
        <path id="Trazado_1032076" data-name="Trazado 1032076" d="M194.2,314.115l-2.171,0v-2.155h2.156Z" transform="translate(-157.235 -255.44)" fill="#040505"/>
        <path id="Trazado_1032077" data-name="Trazado 1032077" d="M26.87,158.067c.078.556-1.427.575-1.552.043H8.342a6.49,6.49,0,0,0,.174,12.97l8.865.025,0,2.2-9.218-.07a8.658,8.658,0,0,1-8.154-8.585c-.04-4.442,3.454-8.678,8.157-8.693l27.688-.091.006,2.193Z" transform="translate(-0.006 -127.622)" fill="#040505"/>
        <path id="Trazado_1032078" data-name="Trazado 1032078" d="M203.866,259.47l-2.7-.026a5.39,5.39,0,0,1-4.9-5.4l-.037-8.879a3.3,3.3,0,0,0-4.217-3.005,9.314,9.314,0,0,1-.107-2.192,5.833,5.833,0,0,1,4.586,1.206,5.594,5.594,0,0,1,1.95,4.354l0,8.514a3.28,3.28,0,0,0,3.428,3.276l1.989-.013Z" transform="translate(-157.125 -196.436)" fill="#040505"/>
        <path id="Trazado_1032079" data-name="Trazado 1032079" d="M73.52,292.187l.007,2.178-2.169.013A5.475,5.475,0,0,1,66,287.833l2.167.106a3.377,3.377,0,0,0,2.842,4.235Z" transform="translate(-53.973 -235.682)" fill="#040505"/>
        <path id="Trazado_1032080" data-name="Trazado 1032080" d="M68.2,176.115a15.789,15.789,0,0,1-2.171,0v-2.155h2.156Z" transform="translate(-54.065 -142.443)" fill="#060707"/>
        <path id="Trazado_1032081" data-name="Trazado 1032081" d="M68.2,200.115l-2.171,0v-2.155h2.156Z" transform="translate(-54.064 -162.095)" fill="#060707"/>
        <path id="Trazado_1032082" data-name="Trazado 1032082" d="M68.2,224.115l-2.171,0v-2.155h2.156Z" transform="translate(-54.064 -181.746)" fill="#060707"/>
        <path id="Trazado_1032083" data-name="Trazado 1032083" d="M68.2,266.115l-2.171,0v-2.155h2.156Z" transform="translate(-54.064 -216.137)" fill="#060707"/>
        <path id="Trazado_1032084" data-name="Trazado 1032084" d="M122.2,314.115l-2.171,0v-2.155h2.156Z" transform="translate(-98.281 -255.44)" fill="#040505"/>
        <path id="Trazado_1032085" data-name="Trazado 1032085" d="M115.323,168.037c.054.263.427.175.72.3a4.792,4.792,0,0,1,2.564,6.1l-1.743,4.66c2.18.33,4.423,1.487,4.177,3.313-.543,4.035-12.466,4.009-12.991,0-.243-1.856,2.017-2.978,4.168-3.286l-1.811-4.964a4.7,4.7,0,0,1,3.364-6.072Z" transform="translate(-88.458 -137.591)" fill="#040504"/>
        <path id="Trazado_1032086" data-name="Trazado 1032086" d="M134.881,180.813a2.5,2.5,0,0,1,1.253,3l-2.066,5.632-2.047-5.5a2.564,2.564,0,0,1,1.329-3.186Z" transform="translate(-107.976 -148.014)" fill="#ffd26e"/>
        <path id="Trazado_1032087" data-name="Trazado 1032087" d="M149.613,242.551a2.146,2.146,0,0,1-.879-.217l.627-1.649a4.173,4.173,0,0,1,2.848.967,5.209,5.209,0,0,1-2.6.9" transform="translate(-121.786 -197.072)" fill="#c2c2c2"/>
        <path id="Trazado_1032088" data-name="Trazado 1032088" d="M123.376,242.578q.024.41-.723.52a5.2,5.2,0,0,1-2.508-.879,3.255,3.255,0,0,1,2.846-.837Z" transform="translate(-98.378 -197.618)" fill="#c2c1c1"/>
        <path id="Trazado_1032089" data-name="Trazado 1032089" d="M141.574,180.092a1.452,1.452,0,0,1-1.531-.047,1.7,1.7,0,0,1,1.531.047" transform="translate(-114.67 -147.292)" fill="#ffda72"/>
        <path id="Trazado_1032090" data-name="Trazado 1032090" d="M148.172,249.982l-1.2.152c.038-.192.237-.287.319-.369.324-.012.74-.055.879.217" transform="translate(-120.346 -204.503)" fill="#cfcece"/>
        <path id="Trazado_1032091" data-name="Trazado 1032091" d="M135,249.857c.214-.154.511-.32.729-.186a1.389,1.389,0,0,0,.547.282,1.338,1.338,0,0,1-1.276-.1" transform="translate(-110.544 -204.394)" fill="#6f7070"/>
        <path id="Trazado_1032092" data-name="Trazado 1032092" d="M134.9,248.467c-.158.24-.487.161-.729.186l-.184.019.723-.52a1.135,1.135,0,0,0,.191.316" transform="translate(-109.711 -203.19)" fill="#cacaca"/>
        <path id="Trazado_1032093" data-name="Trazado 1032093" d="M283.05,278.375c-.281,4.209-12.464,4.208-13,.159-.247-1.856,2.014-2.973,4.185-3.291l-1.742-4.681a4.9,4.9,0,0,1,.795-4.778,4.069,4.069,0,0,1,3.179-1.586,4.115,4.115,0,0,1,3.336,1.583,5,5,0,0,1,.752,4.92l-1.7,4.517c2.094.319,4.311,1.416,4.195,3.158" transform="translate(-221.104 -216.329)" fill="#040504"/>
        <path id="Trazado_1032094" data-name="Trazado 1032094" d="M298.228,279.42l-2.04,5.37-1.953-5.17c-.614-1.625.288-3.425,1.732-3.574a1.979,1.979,0,0,1,1.815.761,2.746,2.746,0,0,1,.446,2.613" transform="translate(-240.764 -226.022)" fill="#f07169"/>
        <path id="Trazado_1032095" data-name="Trazado 1032095" d="M311.766,338.619a1.22,1.22,0,0,1-.862-.247l.617-1.628a4.054,4.054,0,0,1,2.828.947,5.018,5.018,0,0,1-2.582.928" transform="translate(-254.573 -275.723)" fill="#c2c1c1"/>
        <path id="Trazado_1032096" data-name="Trazado 1032096" d="M285.514,338.439a3.215,3.215,0,0,0-.925.164,4.893,4.893,0,0,1-2.522-.9,4.085,4.085,0,0,1,2.825-.954Z" transform="translate(-230.962 -275.726)" fill="#c2c2c1"/>
        <path id="Trazado_1032097" data-name="Trazado 1032097" d="M310.117,346.01a2.6,2.6,0,0,1-1.227.1l.365-.348c.315,0,.738-.054.862.247" transform="translate(-252.924 -283.113)" fill="#d3d2d2"/>
        <path id="Trazado_1032098" data-name="Trazado 1032098" d="M297.02,346.27a2.272,2.272,0,0,1,.737-.139,2.218,2.218,0,0,0,.533.235,1.3,1.3,0,0,1-1.27-.1" transform="translate(-243.205 -283.418)" fill="#7d7d7d"/>
        <path id="Trazado_1032099" data-name="Trazado 1032099" d="M296.91,345.91c-.156.235-.5.109-.737.139l-.188.025c.17-.269.587-.231.925-.164" transform="translate(-242.357 -283.197)" fill="#d3d2d2"/>
        <path id="Trazado_1032100" data-name="Trazado 1032100" d="M33.784,19.54,32.6,19.6a4.347,4.347,0,0,1-8.694-.027H10.87a4.347,4.347,0,0,1-8.694.032l-1.089-.046A1.085,1.085,0,0,1,0,18.449V1.1A1.052,1.052,0,0,1,1.11,0L23.888,0a1.049,1.049,0,0,1,1.1,1.082l.016,4.35,5.425,0a1.052,1.052,0,0,1,1.043.784l3.251,11.941a1.045,1.045,0,0,1-.942,1.38" fill="#040504"/>
        <path id="Trazado_1032101" data-name="Trazado 1032101" d="M12.426,11.9q9.112.142,18.319.115c.058.592.22,2.789-.07,3.139-.152.183-.277.145-.4-.087q-4.286-.07-8.51.1c.576.146.546,1.974-.006,2.167a66.773,66.773,0,0,0,8.856-.038,3.467,3.467,0,0,1,.038,2.21c-4.354-.144-8.9-.155-13.233.009.576.147.545,1.975-.008,2.168q6.4.172,12.86.1c.706-.373.6,1.029.47,1.565a2.353,2.353,0,0,1-1.65,1.828q-5.715.272-11.4-.015a5.293,5.293,0,0,0-2.829.063l-2.65.071-.15-.239q.08-6.441-.089-12.845c0-.165.038-.255.109-.288a.7.7,0,0,1,.343-.022" transform="translate(-9.805 -9.736)" fill="#3d8fcf"/>
        <path id="Trazado_1032102" data-name="Trazado 1032102" d="M19.531,25.2a1.46,1.46,0,0,1,.806-.2l10.11-.083c1.449-.012,2.128-1.692,1.775-3l-12.771-.009c-.145,0-.215-.1-.2-.184l.169-.362,12.49-.043-.041-1.408-12.391.007-.219-.362c-.028-.076.044-.184.189-.184l12.815,0,0-1.816-8.477,0c-.137,0-.212-.106-.191-.186l.167-.362,8.147-.04-.032-1.412-8.06.009-.217-.362c-.027-.078.048-.183.185-.183h8.492l.011-2.907-17.913.01c-.147,0-.215-.116-.118-.183l20.206,0V27.17l-12.58-.015a4.871,4.871,0,0,0-2.36-1.952" transform="translate(-11.644 -9.779)" fill="#3788be"/>
        <path id="Trazado_1032103" data-name="Trazado 1032103" d="M145.189,51.721c-1.019-1.05-1.956-1.973-3.285-2.131a4.389,4.389,0,0,0-3.913,1.4l-.022-9.08,4.617-.019Z" transform="translate(-112.971 -34.299)" fill="#d8d8d7"/>
        <path id="Trazado_1032104" data-name="Trazado 1032104" d="M14.863,26.665c-1.93.727-2.07,2.256-2.882,1.833l-.007-14.847a.436.436,0,0,1,.191.415l-.019,12.319,2.019-.016a.791.791,0,0,1,.7.295" transform="translate(-9.805 -11.178)" fill="#3686bb"/>
        <path id="Trazado_1032105" data-name="Trazado 1032105" d="M42.007,56.085l.008-2.168,13.017-.007,0,2.188Z" transform="translate(-34.396 -44.141)" fill="#040505"/>
        <path id="Trazado_1032106" data-name="Trazado 1032106" d="M66.006,32.076l.006-2.167,8.674-.009,0,2.192Z" transform="translate(-54.047 -24.482)" fill="#040504"/>
        <path id="Trazado_1032107" data-name="Trazado 1032107" d="M145.651,96.1a2.142,2.142,0,0,1,2.644,1.528,2.164,2.164,0,0,1-4.143,1.244,2.14,2.14,0,0,1,1.5-2.772" transform="translate(-117.941 -78.622)" fill="#4f4f4f"/>
        <path id="Trazado_1032108" data-name="Trazado 1032108" d="M152.2,104.14l-2.17,0v-2.16h2.158Z" transform="translate(-122.844 -83.504)" fill="#040505"/>
        <path id="Trazado_1032109" data-name="Trazado 1032109" d="M25.651,96.1a2.142,2.142,0,0,1,2.644,1.528,2.164,2.164,0,0,1-4.143,1.244,2.14,2.14,0,0,1,1.5-2.772" transform="translate(-19.683 -78.622)" fill="#4f4f4f"/>
        <path id="Trazado_1032110" data-name="Trazado 1032110" d="M32.2,104.14l-2.17,0v-2.16h2.158Z" transform="translate(-24.586 -83.504)" fill="#040505"/>
        <path id="Trazado_1032111" data-name="Trazado 1032111" d="M246.737,74.033c-.088.167-.548.136-.717,0l.009-2.186,12.491.078c4.687.029,8.185,4.223,8.144,8.72a8.711,8.711,0,0,1-8.315,8.607l-3.626.01V87.083l3.44,0a6.509,6.509,0,0,0,0-13.014Z" transform="translate(-201.445 -58.829)" fill="#040505"/>
        <path id="Trazado_1032112" data-name="Trazado 1032112" d="M200.2,74.115l-2.171,0V71.964h2.156Z" transform="translate(-162.148 -58.924)" fill="#040505"/>
        <path id="Trazado_1032113" data-name="Trazado 1032113" d="M224.2,74.113l-2.171.005V71.963l2.156,0Z" transform="translate(-181.801 -58.923)" fill="#040505"/>
        <path id="Trazado_1032114" data-name="Trazado 1032114" d="M215.863,84.413a2.536,2.536,0,0,1,1.48.02c2.127.029,4.359,3.257,3.254,6.219l-1.74,4.661c2.183.333,4.426,1.488,4.18,3.315-.543,4.034-12.464,4.01-12.991,0-.244-1.858,2.015-2.973,4.185-3.29l-1.743-4.687c-1.127-3.03,1.2-6.269,3.373-6.239" transform="translate(-171.975 -69.037)" fill="#040504"/>
        <path id="Trazado_1032115" data-name="Trazado 1032115" d="M242.916,83.9h.717l.076.192-1.48-.02c.135-.2.422-.173.687-.173" transform="translate(-198.341 -68.699)" fill="#3e3e3e"/>
        <path id="Trazado_1032116" data-name="Trazado 1032116" d="M238.184,99.4l-2.022,5.422-2.012-5.355a2.552,2.552,0,0,1,1.772-3.441,2.036,2.036,0,0,1,1.823.756,2.806,2.806,0,0,1,.44,2.618" transform="translate(-191.591 -78.618)" fill="#67a652"/>
        <path id="Trazado_1032117" data-name="Trazado 1032117" d="M251.766,158.619a1.22,1.22,0,0,1-.862-.247l.617-1.628a4.054,4.054,0,0,1,2.828.947,5.018,5.018,0,0,1-2.582.928" transform="translate(-205.444 -128.336)" fill="#c2c1c1"/>
        <path id="Trazado_1032118" data-name="Trazado 1032118" d="M225.514,158.439a3.214,3.214,0,0,0-.925.164,4.893,4.893,0,0,1-2.522-.9,4.085,4.085,0,0,1,2.825-.954Z" transform="translate(-181.833 -128.339)" fill="#c2c2c1"/>
        <path id="Trazado_1032119" data-name="Trazado 1032119" d="M250.117,166.01a2.6,2.6,0,0,1-1.227.1l.365-.348c.315,0,.738-.054.862.247" transform="translate(-203.795 -135.726)" fill="#d3d2d2"/>
        <path id="Trazado_1032120" data-name="Trazado 1032120" d="M237.02,166.27a2.272,2.272,0,0,1,.737-.139,2.218,2.218,0,0,0,.533.235,1.3,1.3,0,0,1-1.27-.1" transform="translate(-194.076 -136.031)" fill="#7d7d7d"/>
        <path id="Trazado_1032121" data-name="Trazado 1032121" d="M236.91,165.91c-.156.235-.5.109-.737.139l-.188.025c.17-.269.587-.231.925-.164" transform="translate(-193.228 -135.81)" fill="#d3d2d2"/>
      </g>
    </g>
  </g>
</svg>
