<svg xmlns="http://www.w3.org/2000/svg" width="84" height="84" viewBox="0 0 84 84">
  <g id="Grupo_1186003" data-name="Grupo 1186003" transform="translate(-527.711 -2513)">
    <rect id="Rectángulo_456484" data-name="Rectángulo 456484" width="84" height="84" transform="translate(527.711 2513)" fill="#f2a4ab"/>
    <g id="Grupo_1180369" data-name="Grupo 1180369" transform="translate(456.711 2390)">
      <path id="Trazado_1021237" data-name="Trazado 1021237" d="M251.425,174.124a.813.813,0,0,0-.6-.542,6.18,6.18,0,0,0-4.361,1.164,2.056,2.056,0,0,1-1.752.188,2.033,2.033,0,0,1-1.246-1.22,2.234,2.234,0,0,0-4.335,0,2.036,2.036,0,0,1-1.247,1.22,2.058,2.058,0,0,1-1.753-.188,6.181,6.181,0,0,0-4.36-1.164.812.812,0,0,0-.6.542.822.822,0,0,0,.153.8l5.618,6.667a12.791,12.791,0,0,1,8.7,0l5.618-6.667A.823.823,0,0,0,251.425,174.124Zm-11.87,6.187a1.112,1.112,0,0,1-1.442-.626L237.054,177a1.112,1.112,0,0,1,2.066-.82l1.058,2.686a1.112,1.112,0,0,1-.625,1.442Zm6-3.313-1.058,2.686a1.112,1.112,0,1,1-2.07-.815l1.059-2.686a1.112,1.112,0,1,1,2.07.815Z" transform="translate(-136.907 -29.794)" fill="#ffd54f"/>
      <path id="Trazado_1021238" data-name="Trazado 1021238" d="M630.508,398.76v3.646c0,.91-.973,1.9-2.6,2.656l-.009,0-.022.01-.02.009a18.619,18.619,0,0,1-13.643,0l-.018-.008-.022-.01c-1.632-.754-2.606-1.748-2.606-2.659V398.76a9.894,9.894,0,0,0,1.505.884,20.634,20.634,0,0,0,15.928,0A9.893,9.893,0,0,0,630.508,398.76Z" transform="translate(-490.895 -240.772)" fill="#ffc400"/>
      <path id="Trazado_1021239" data-name="Trazado 1021239" d="M630.508,292.144c0,.894-.9,1.839-2.469,2.594a18.455,18.455,0,0,1-14,0c-1.569-.754-2.469-1.7-2.469-2.594s.9-1.84,2.469-2.594a18.447,18.447,0,0,1,14,0C629.608,290.3,630.508,291.249,630.508,292.144Z" transform="translate(-490.895 -137.87)" fill="#ffc400"/>
      <path id="Trazado_1021240" data-name="Trazado 1021240" d="M138.444,331.656a10.761,10.761,0,0,0-8.541,0l-.008,0-.009,0c-3.5,1.432-7.081,4.664-9.821,8.868-2.545,3.9-4.065,8.129-4.065,11.3,0,3.507,1.908,6.862,5.373,9.447a21.76,21.76,0,0,0,12.8,4.061,21.218,21.218,0,0,0,14.056-5.1V340.449C145.487,336.278,141.935,333.08,138.444,331.656Zm-3.162,28.188v.936a1.112,1.112,0,0,1-2.225,0v-.817a5.313,5.313,0,0,1-3.754-2.594,1.112,1.112,0,1,1,1.929-1.107,3.068,3.068,0,1,0,3.079-4.564c-.155,0-.311-.015-.466-.032h-.021a5.292,5.292,0,0,1-.765-10.363v-.939a1.112,1.112,0,1,1,2.225,0v.818a5.315,5.315,0,0,1,3.754,2.594,1.112,1.112,0,0,1-1.93,1.107,3.079,3.079,0,0,0-2.663-1.544,2.078,2.078,0,0,0-.219.008,3.068,3.068,0,0,0-.162,6.1h.022a3.051,3.051,0,0,0,.309.02h.042a.319.319,0,0,1,.081.007,5.293,5.293,0,0,1,.765,10.363Z" transform="translate(-29.775 -177.508)" fill="#ffd54f"/>
      <path id="Trazado_1021241" data-name="Trazado 1021241" d="M630.508,504.65v3.643c0,.917-.983,1.914-2.63,2.669a18.574,18.574,0,0,1-13.679,0c-1.646-.754-2.629-1.752-2.629-2.669V504.65a10.108,10.108,0,0,0,1.679.966l.021.01.026.011.012.006a20.806,20.806,0,0,0,15.47,0h.007l.025-.011.017-.008A10.079,10.079,0,0,0,630.508,504.65Z" transform="translate(-490.895 -339.301)" fill="#ffc400"/>
      <path id="Trazado_1021242" data-name="Trazado 1021242" d="M630.508,610.52v3.644c0,.916-.983,1.914-2.629,2.669a18.581,18.581,0,0,1-13.68,0c-1.646-.755-2.629-1.753-2.629-2.669V610.52a10.1,10.1,0,0,0,1.7.973,20.763,20.763,0,0,0,15.534,0A10.11,10.11,0,0,0,630.508,610.52Z" transform="translate(-490.895 -437.811)" fill="#ffc400"/>
      <path id="Trazado_1021243" data-name="Trazado 1021243" d="M630.508,716.39v3.644c0,.916-.983,1.914-2.629,2.669a18.567,18.567,0,0,1-13.68,0c-1.646-.755-2.629-1.752-2.629-2.669V716.39a10.139,10.139,0,0,0,1.7.973,20.765,20.765,0,0,0,15.535,0A10.189,10.189,0,0,0,630.508,716.39Z" transform="translate(-490.895 -536.321)" fill="#ffc400"/>
      <g id="Grupo_1180367" data-name="Grupo 1180367" transform="translate(85.529 142.921)" opacity="0.5">
        <path id="Trazado_1021244" data-name="Trazado 1021244" d="M241.425,184.124a.813.813,0,0,0-.6-.542,6.18,6.18,0,0,0-4.361,1.164,2.056,2.056,0,0,1-1.752.188,2.033,2.033,0,0,1-1.246-1.22,2.234,2.234,0,0,0-4.335,0,2.036,2.036,0,0,1-1.247,1.22,2.058,2.058,0,0,1-1.753-.188,6.181,6.181,0,0,0-4.36-1.164.812.812,0,0,0-.6.542.822.822,0,0,0,.153.8l5.618,6.667a12.791,12.791,0,0,1,8.7,0l5.618-6.667A.823.823,0,0,0,241.425,184.124Zm-11.87,6.187a1.112,1.112,0,0,1-1.442-.626L227.054,187a1.112,1.112,0,0,1,2.066-.82l1.058,2.686a1.112,1.112,0,0,1-.625,1.442Zm6-3.313-1.058,2.686a1.112,1.112,0,1,1-2.07-.815l1.059-2.686a1.112,1.112,0,1,1,2.07.815Z" transform="translate(-213.132 -182.02)" fill="#fff"/>
        <path id="Trazado_1021245" data-name="Trazado 1021245" d="M620.508,408.76v3.645c0,.91-.973,1.9-2.6,2.656l-.009,0-.021.01-.02.009a18.618,18.618,0,0,1-13.643,0l-.018-.008-.022-.01c-1.632-.754-2.606-1.748-2.606-2.659V408.76a9.9,9.9,0,0,0,1.505.884,20.634,20.634,0,0,0,15.928,0A9.911,9.911,0,0,0,620.508,408.76Z" transform="translate(-567.12 -392.998)" fill="#fff"/>
        <path id="Trazado_1021246" data-name="Trazado 1021246" d="M620.508,302.144c0,.894-.9,1.839-2.469,2.594a18.455,18.455,0,0,1-14,0c-1.569-.754-2.469-1.7-2.469-2.594s.9-1.84,2.469-2.594a18.446,18.446,0,0,1,14,0C619.608,300.3,620.508,301.249,620.508,302.144Z" transform="translate(-567.12 -290.096)" fill="#fff"/>
        <path id="Trazado_1021247" data-name="Trazado 1021247" d="M128.444,341.656a10.762,10.762,0,0,0-8.541,0l-.008,0-.009,0c-3.5,1.432-7.081,4.664-9.821,8.868-2.545,3.9-4.065,8.129-4.065,11.3,0,3.507,1.908,6.862,5.373,9.447a21.76,21.76,0,0,0,12.8,4.061,21.219,21.219,0,0,0,14.056-5.1V350.449C135.487,346.278,131.935,343.08,128.444,341.656Zm-3.162,28.188v.936a1.112,1.112,0,0,1-2.225,0v-.817a5.313,5.313,0,0,1-3.754-2.594,1.112,1.112,0,1,1,1.929-1.107,3.068,3.068,0,1,0,3.08-4.564c-.155,0-.311-.015-.466-.032h-.021a5.292,5.292,0,0,1-.765-10.363v-.939a1.112,1.112,0,0,1,2.225,0v.818a5.315,5.315,0,0,1,3.754,2.594,1.112,1.112,0,1,1-1.93,1.107,3.079,3.079,0,0,0-2.663-1.544,2.1,2.1,0,0,0-.219.008,3.068,3.068,0,0,0-.162,6.1h.022a3.051,3.051,0,0,0,.309.02h.042a.319.319,0,0,1,.081.007,5.293,5.293,0,0,1,.765,10.363Z" transform="translate(-106 -329.734)" fill="#fff"/>
        <path id="Trazado_1021248" data-name="Trazado 1021248" d="M620.508,514.65v3.643c0,.917-.983,1.915-2.63,2.669a18.576,18.576,0,0,1-13.68,0c-1.646-.754-2.629-1.752-2.629-2.669V514.65a10.117,10.117,0,0,0,1.679.966l.021.01.026.011.012.006a20.806,20.806,0,0,0,15.47,0h.007l.025-.011.017-.008a10.063,10.063,0,0,0,1.682-.97Z" transform="translate(-567.12 -491.527)" fill="#fff"/>
        <path id="Trazado_1021249" data-name="Trazado 1021249" d="M620.508,620.52v3.644c0,.916-.983,1.914-2.629,2.669a18.579,18.579,0,0,1-13.68,0c-1.646-.755-2.629-1.752-2.629-2.669V620.52a10.09,10.09,0,0,0,1.7.973,20.763,20.763,0,0,0,15.534,0,10.089,10.089,0,0,0,1.7-.974Z" transform="translate(-567.12 -590.037)" fill="#fff"/>
        <path id="Trazado_1021250" data-name="Trazado 1021250" d="M620.508,726.39v3.644c0,.916-.983,1.914-2.629,2.669a18.566,18.566,0,0,1-13.68,0c-1.646-.755-2.629-1.752-2.629-2.669V726.39a10.135,10.135,0,0,0,1.7.973,20.764,20.764,0,0,0,15.535,0,10.189,10.189,0,0,0,1.7-.974Z" transform="translate(-567.12 -688.547)" fill="#fff"/>
      </g>
      <g id="Grupo_1180368" data-name="Grupo 1180368" transform="translate(84 140)">
        <path id="Trazado_1021251" data-name="Trazado 1021251" d="M315.225,493.239a5.293,5.293,0,0,1-9.885,2.631,1.112,1.112,0,1,1,1.929-1.107,3.068,3.068,0,1,0,3.079-4.564c-.155,0-.311-.015-.466-.032h-.021a5.292,5.292,0,1,1,5.214-7.887,1.112,1.112,0,1,1-1.93,1.107,3.079,3.079,0,0,0-2.663-1.544,2.087,2.087,0,0,0-.219.008,3.068,3.068,0,0,0-.162,6.1h.022a3.051,3.051,0,0,0,.309.02h.042a.319.319,0,0,1,.081.007A5.291,5.291,0,0,1,315.225,493.239Z" transform="translate(-289.815 -456.009)" fill="#413b32"/>
        <path id="Trazado_1021252" data-name="Trazado 1021252" d="M363.594,720.662v1.873a1.112,1.112,0,1,1-2.224,0v-1.873a1.112,1.112,0,1,1,2.224,0Z" transform="translate(-342.088 -679.262)" fill="#413b32"/>
        <path id="Trazado_1021253" data-name="Trazado 1021253" d="M363.594,453.892v1.873a1.112,1.112,0,0,1-1.055,1.112h-.057a1.112,1.112,0,0,1-1.112-1.112v-1.873a1.112,1.112,0,1,1,2.224,0Z" transform="translate(-342.088 -431.037)" fill="#413b32"/>
        <path id="Trazado_1021254" data-name="Trazado 1021254" d="M223.189,146.567,218,152.722l-.938,1.112a1.111,1.111,0,1,1-1.7-1.433l.507-.6,5.618-6.667a.823.823,0,0,0,.153-.8.813.813,0,0,0-.6-.542,6.18,6.18,0,0,0-4.361,1.164,2.056,2.056,0,0,1-1.752.188,2.033,2.033,0,0,1-1.246-1.22,2.234,2.234,0,0,0-4.335,0,2.036,2.036,0,0,1-1.247,1.22,2.058,2.058,0,0,1-1.753-.188,6.18,6.18,0,0,0-4.36-1.164.812.812,0,0,0-.6.542.822.822,0,0,0,.153.8l5.618,6.667.507.6a1.112,1.112,0,0,1-.422,1.743l-.008,0-.009,0a1.112,1.112,0,0,1-1.262-.317l-.938-1.112-5.187-6.154a3.055,3.055,0,0,1,1.646-4.946,8.026,8.026,0,0,1,5.846,1.331A4.486,4.486,0,0,1,211.471,140h.1a4.479,4.479,0,0,1,4.129,2.95,8.024,8.024,0,0,1,5.846-1.331,3.054,3.054,0,0,1,1.646,4.946Z" transform="translate(-191.126 -140)" fill="#413b32"/>
        <path id="Trazado_1021255" data-name="Trazado 1021255" d="M120.363,330.17a1.112,1.112,0,0,1,.283,1.021,1.1,1.1,0,0,1-.311.552q-.431.417-.894.806-.305.26-.626.5a23.886,23.886,0,0,1-14.423,4.727,24.8,24.8,0,0,1-7.654-1.2,22.229,22.229,0,0,1-6.473-3.3,16.676,16.676,0,0,1-4.537-4.982A12.365,12.365,0,0,1,84,322.05c0-3.586,1.654-8.266,4.425-12.516a26.157,26.157,0,0,1,9.485-9.082q.681-.352,1.369-.633.382-.156.765-.289a12.791,12.791,0,0,1,8.7,0q.382.132.765.289.688.278,1.368.633a24.232,24.232,0,0,1,7.573,6.44q.53.66,1.036,1.364.521.721,1.008,1.488a1.112,1.112,0,0,1-1.511,1.554,1.1,1.1,0,0,1-.359-.348c-.058-.09-.116-.181-.175-.27-2.739-4.179-6.291-7.377-9.782-8.8a10.761,10.761,0,0,0-8.541,0l-.008,0-.009,0c-3.5,1.432-7.081,4.664-9.821,8.868-2.545,3.9-4.065,8.129-4.065,11.3,0,3.507,1.908,6.862,5.373,9.447a21.76,21.76,0,0,0,12.8,4.061,21.218,21.218,0,0,0,14.056-5.1c.115-.1.228-.209.339-.318A1.112,1.112,0,0,1,120.363,330.17Z" transform="translate(-84 -287.73)" fill="#413b32"/>
        <path id="Trazado_1021256" data-name="Trazado 1021256" d="M317.913,227.079a1.112,1.112,0,0,1-1.443-.626l-1.058-2.686a1.112,1.112,0,0,1,2.067-.817l1.058,2.686A1.112,1.112,0,0,1,317.913,227.079Z" transform="translate(-299.266 -216.565)" fill="#413b32"/>
        <path id="Trazado_1021257" data-name="Trazado 1021257" d="M395.568,223.231l-1.058,2.686a1.113,1.113,0,0,1-2.07-.815l1.059-2.686a1.112,1.112,0,1,1,2.07.815Z" transform="translate(-370.926 -216.03)" fill="#413b32"/>
        <path id="Trazado_1021258" data-name="Trazado 1021258" d="M839.049,489.212a1.112,1.112,0,0,1-.63,1l-.017.008-.025.011h-.007a1.113,1.113,0,0,1-.919-2.026l.02-.009.021-.01.009,0a1.112,1.112,0,0,1,1.545,1.025Z" transform="translate(-784.488 -463.899)" fill="#413b32"/>
        <path id="Trazado_1021259" data-name="Trazado 1021259" d="M628.928,489.252a1.113,1.113,0,0,1-1.539,1.027l-.012-.006-.026-.011-.021-.01a1.113,1.113,0,0,1,.951-2.012l.018.008A1.112,1.112,0,0,1,628.928,489.252Z" transform="translate(-588.976 -463.938)" fill="#413b32"/>
        <path id="Trazado_1021260" data-name="Trazado 1021260" d="M599.228,257.779a20.635,20.635,0,0,0-15.928,0c-2.405,1.155-3.73,2.789-3.73,4.6a4.651,4.651,0,0,0,2.225,3.714,9.9,9.9,0,0,0,1.505.884,20.634,20.634,0,0,0,15.928,0,9.9,9.9,0,0,0,1.505-.884,4.651,4.651,0,0,0,2.225-3.714C602.957,260.568,601.632,258.934,599.228,257.779Zm-.964,7.192a18.455,18.455,0,0,1-14,0c-1.569-.754-2.469-1.7-2.469-2.594s.9-1.84,2.469-2.594a18.447,18.447,0,0,1,14,0c1.569.754,2.469,1.7,2.469,2.594S599.833,264.217,598.264,264.971Z" transform="translate(-545.12 -248.104)" fill="#413b32"/>
        <path id="Trazado_1021261" data-name="Trazado 1021261" d="M602.958,436.275a4.645,4.645,0,0,1-2.225,3.716,10.079,10.079,0,0,1-1.682.967l-.017.008-.025.011H599a20.806,20.806,0,0,1-15.469,0l-.012-.006-.026-.011-.021-.01a10.11,10.11,0,0,1-1.679-.966,5.9,5.9,0,0,1-1.69-1.786,3.808,3.808,0,0,1-.535-1.93,1.112,1.112,0,0,1,1.036-1.112h.076a1.112,1.112,0,0,1,1.112,1.112c0,.911.973,1.9,2.606,2.659l.022.01.018.008a18.618,18.618,0,0,0,13.643,0l.02-.009.022-.01.009,0c1.625-.751,2.6-1.743,2.6-2.653a1.112,1.112,0,0,1,2.225,0Z" transform="translate(-545.12 -414.641)" fill="#413b32"/>
        <path id="Trazado_1021262" data-name="Trazado 1021262" d="M602.958,542.163a4.646,4.646,0,0,1-2.225,3.716,10.111,10.111,0,0,1-1.7.973,20.764,20.764,0,0,1-15.534,0,10.1,10.1,0,0,1-1.7-.973,4.643,4.643,0,0,1-2.225-3.716,1.112,1.112,0,0,1,2.225,0c0,.917.983,1.915,2.629,2.669a18.575,18.575,0,0,0,13.679,0c1.647-.754,2.63-1.752,2.63-2.669a1.112,1.112,0,0,1,2.225,0Z" transform="translate(-545.12 -513.17)" fill="#413b32"/>
        <path id="Trazado_1021263" data-name="Trazado 1021263" d="M602.958,648.043a4.645,4.645,0,0,1-2.225,3.716,10.191,10.191,0,0,1-1.7.973,20.765,20.765,0,0,1-15.535,0,10.145,10.145,0,0,1-1.7-.973,4.643,4.643,0,0,1-2.225-3.716,1.112,1.112,0,0,1,2.225,0c0,.916.983,1.914,2.629,2.669a18.579,18.579,0,0,0,13.68,0c1.646-.754,2.629-1.752,2.629-2.668a1.112,1.112,0,1,1,2.225,0Z" transform="translate(-545.12 -611.69)" fill="#413b32"/>
        <path id="Trazado_1021264" data-name="Trazado 1021264" d="M602.958,753.922c0,1.864-1.395,3.53-3.926,4.691a20.757,20.757,0,0,1-15.535,0,6.957,6.957,0,0,1-3.56-3.081,3.745,3.745,0,0,1-.366-1.61,1.112,1.112,0,0,1,2.2-.252,1.082,1.082,0,0,1,.029.252c0,.916.983,1.914,2.629,2.669a18.581,18.581,0,0,0,13.68,0c1.646-.757,2.629-1.754,2.629-2.671a1.112,1.112,0,1,1,2.225,0Z" transform="translate(-545.12 -710.21)" fill="#413b32"/>
        <path id="Trazado_1021265" data-name="Trazado 1021265" d="M581.795,330.442v29.439a1.112,1.112,0,0,1-1.112,1.112,1.024,1.024,0,0,1-.122-.007,1.112,1.112,0,0,1-.99-1.105V330.442a1.112,1.112,0,0,1,2.225,0Z" transform="translate(-545.12 -316.168)" fill="#413b32"/>
        <path id="Trazado_1021266" data-name="Trazado 1021266" d="M886.225,330.442v29.439a1.112,1.112,0,0,1-2.225,0V330.442a1.112,1.112,0,0,1,2.225,0Z" transform="translate(-828.387 -316.168)" fill="#413b32"/>
      </g>
    </g>
  </g>
</svg>
