<svg xmlns="http://www.w3.org/2000/svg" width="84" height="84" viewBox="0 0 84 84">
  <g id="Grupo_1186011" data-name="Grupo 1186011" transform="translate(-319.711 -7487.154)">
    <rect id="Rectángulo_456562" data-name="Rectángulo 456562" width="84" height="84" transform="translate(319.711 7487.154)" fill="#f2a4ab"/>
    <g id="Grupo_1180417" data-name="Grupo 1180417" transform="translate(250.353 7408.79)">
      <path id="Trazado_1021668" data-name="Trazado 1021668" d="M130.2,532.357v2.18H116v-2.18A5.364,5.364,0,0,1,121.358,527h3.486A5.364,5.364,0,0,1,130.2,532.357Z" transform="translate(-29.896 -404.86)" fill="#ff3d00"/>
      <circle id="Elipse_13686" data-name="Elipse 13686" cx="2.833" cy="2.833" r="2.833" transform="translate(90.371 111.052)" fill="#ffab91"/>
      <path id="Trazado_1021669" data-name="Trazado 1021669" d="M748.249,669.55v3.976l-1.772-.561a1.058,1.058,0,0,0-.635,0l-1.772.561V669.55Z" transform="translate(-616.66 -538.035)" fill="#f57f17"/>
      <path id="Trazado_1021670" data-name="Trazado 1021670" d="M679,669.55v5.415a1.052,1.052,0,0,1-1.369,1l-2.825-.894-2.824.894a1.052,1.052,0,0,1-1.37-1V669.55H667.69v13.469h14.226V669.55Zm.433,11.02h-9.253a1.052,1.052,0,0,1,0-2.1h9.253a1.052,1.052,0,0,1,0,2.1Z" transform="translate(-545.304 -538.035)" fill="#fcb64d"/>
      <path id="Trazado_1021671" data-name="Trazado 1021671" d="M496.63,753.6h4.954v2.414H496.63Z" transform="translate(-385.493 -616.558)" fill="#039be5"/>
      <path id="Trazado_1021672" data-name="Trazado 1021672" d="M376.8,717.67v7.139l-6.183-3.57Z" transform="translate(-267.77 -582.991)" fill="#039be5"/>
      <path id="Trazado_1021673" data-name="Trazado 1021673" d="M664.78,215.3h5.007v2.448H664.78Z" transform="translate(-542.585 -113.659)" fill="#ff3d00"/>
      <path id="Trazado_1021674" data-name="Trazado 1021674" d="M779.173,182.62l-6.253,3.61v-7.22Z" transform="translate(-643.613 -79.756)" fill="#ff3d00"/>
      <path id="Trazado_1021675" data-name="Trazado 1021675" d="M361.721,125.64a7.12,7.12,0,1,0,7.12,7.12A7.12,7.12,0,0,0,361.721,125.64Zm1.052,12.035v.1a1.052,1.052,0,0,1-2.1,0,3.117,3.117,0,0,1-1.779-1.423,1.052,1.052,0,1,1,1.826-1.048,1,1,0,0,0,.87.505h.082a1,1,0,0,0,.079-1.988c-.08,0-.16-.009-.239-.018h-.015a3.106,3.106,0,0,1-.823-5.955v-.1a1.052,1.052,0,0,1,2.1,0,3.114,3.114,0,0,1,1.779,1.423,1.052,1.052,0,1,1-1.825,1.048,1.006,1.006,0,0,0-.867-.508h-.051a1,1,0,0,0-.08,2h.014a.943.943,0,0,0,.1.006,1.083,1.083,0,0,1,.123.009,3.107,3.107,0,0,1,.813,5.954Z" transform="translate(-252.804 -29.896)" fill="#7cb342"/>
      <g id="Grupo_1180415" data-name="Grupo 1180415" transform="translate(85.447 96.402)" opacity="0.5">
        <path id="Trazado_1021676" data-name="Trazado 1021676" d="M120.2,542.357v2.18H106v-2.18A5.364,5.364,0,0,1,111.358,537h3.486A5.364,5.364,0,0,1,120.2,542.357Z" transform="translate(-106 -510.605)" fill="#fff"/>
        <circle id="Elipse_13687" data-name="Elipse 13687" cx="2.833" cy="2.833" r="2.833" transform="translate(4.267 15.307)" fill="#fff"/>
        <path id="Trazado_1021677" data-name="Trazado 1021677" d="M738.249,679.55v3.975l-1.772-.561a1.058,1.058,0,0,0-.635,0l-1.772.561V679.55Z" transform="translate(-692.765 -643.78)" fill="#fff"/>
        <path id="Trazado_1021678" data-name="Trazado 1021678" d="M669,679.55v5.415a1.052,1.052,0,0,1-1.369,1l-2.825-.894-2.824.894a1.052,1.052,0,0,1-1.37-1V679.55H657.69v13.469h14.226V679.55Zm.433,11.02h-9.252a1.052,1.052,0,0,1,0-2.1h9.252a1.052,1.052,0,0,1,0,2.1Z" transform="translate(-621.408 -643.78)" fill="#fff"/>
        <path id="Trazado_1021679" data-name="Trazado 1021679" d="M486.63,763.6h4.954v2.414H486.63Z" transform="translate(-461.598 -722.302)" fill="#fff"/>
        <path id="Trazado_1021680" data-name="Trazado 1021680" d="M366.8,727.67v7.139l-6.183-3.57Z" transform="translate(-343.875 -688.735)" fill="#fff"/>
        <path id="Trazado_1021681" data-name="Trazado 1021681" d="M654.78,225.3h5.007v2.448H654.78Z" transform="translate(-618.69 -219.404)" fill="#fff"/>
        <path id="Trazado_1021682" data-name="Trazado 1021682" d="M769.173,192.62l-6.253,3.61v-7.22Z" transform="translate(-719.718 -185.5)" fill="#fff"/>
        <path id="Trazado_1021683" data-name="Trazado 1021683" d="M351.721,135.64a7.12,7.12,0,1,0,7.12,7.12A7.121,7.121,0,0,0,351.721,135.64Zm1.052,12.035v.1a1.052,1.052,0,1,1-2.1,0,3.116,3.116,0,0,1-1.779-1.423,1.052,1.052,0,1,1,1.826-1.048,1,1,0,0,0,.87.505h.082a1,1,0,0,0,.079-1.988c-.08,0-.16-.009-.239-.018h-.015a3.106,3.106,0,0,1-.823-5.955v-.1a1.052,1.052,0,0,1,2.1,0,3.114,3.114,0,0,1,1.779,1.423,1.052,1.052,0,1,1-1.825,1.048,1.006,1.006,0,0,0-.867-.508h-.051a1,1,0,0,0-.08,2h.014a.943.943,0,0,0,.1.006,1.084,1.084,0,0,1,.123.009,3.107,3.107,0,0,1,.813,5.954Z" transform="translate(-328.909 -135.64)" fill="#fff"/>
      </g>
      <g id="Grupo_1180416" data-name="Grupo 1180416" transform="translate(84 93.64)">
        <path id="Trazado_1021684" data-name="Trazado 1021684" d="M94.946,495H91.46A7.471,7.471,0,0,0,84,502.461v3.232a1.052,1.052,0,0,0,1.052,1.052h16.3a1.052,1.052,0,0,0,1.052-1.052v-3.232A7.471,7.471,0,0,0,94.946,495Zm5.359,9.641H86.1v-2.18a5.364,5.364,0,0,1,5.358-5.357h3.486a5.364,5.364,0,0,1,5.359,5.358Z" transform="translate(-84 -468.605)" fill="#413b32"/>
        <path id="Trazado_1021685" data-name="Trazado 1021685" d="M153.783,326.4a4.938,4.938,0,1,0,4.932,4.938A4.938,4.938,0,0,0,153.783,326.4Zm0,7.771a2.833,2.833,0,1,1,2.828-2.833A2.833,2.833,0,0,1,153.783,334.171Z" transform="translate(-144.576 -311.093)" fill="#413b32"/>
        <path id="Trazado_1021686" data-name="Trazado 1021686" d="M653.072,637.55h-16.33a1.052,1.052,0,0,0-1.052,1.052v15.574a1.052,1.052,0,0,0,1.052,1.052h16.33a1.052,1.052,0,0,0,1.052-1.052V638.6A1.052,1.052,0,0,0,653.072,637.55Zm-1.052,15.574H637.794V639.654H652.02Z" transform="translate(-599.408 -601.78)" fill="#413b32"/>
        <path id="Trazado_1021687" data-name="Trazado 1021687" d="M720.458,638.612v6.467a1.052,1.052,0,0,1-1.369,1l-2.825-.894-2.824.894a1.052,1.052,0,0,1-1.37-1v-6.467a1.052,1.052,0,0,1,2.1,0v5.027l1.771-.558a1.059,1.059,0,0,1,.635,0l1.772.558v-5.027a1.052,1.052,0,0,1,2.1,0Z" transform="translate(-670.765 -601.789)" fill="#413b32"/>
        <path id="Trazado_1021688" data-name="Trazado 1021688" d="M700.857,806.172a1.052,1.052,0,0,1-1.052,1.052h-9.252a1.052,1.052,0,1,1,0-2.1H699.8A1.052,1.052,0,0,1,700.857,806.172Z" transform="translate(-649.679 -758.33)" fill="#413b32"/>
        <path id="Trazado_1021689" data-name="Trazado 1021689" d="M472.743,721.6h-7.061a1.052,1.052,0,0,0-1.052,1.052v4.518a1.052,1.052,0,0,0,1.052,1.052h7.061a1.052,1.052,0,0,0,1.052-1.052v-4.518A1.052,1.052,0,0,0,472.743,721.6Zm-1.052,4.518h-4.957V723.7h4.957Z" transform="translate(-439.598 -680.302)" fill="#413b32"/>
        <path id="Trazado_1021690" data-name="Trazado 1021690" d="M333.549,674.1a1.052,1.052,0,0,0-1.052,0l-9.339,5.393a1.052,1.052,0,0,0,0,1.822l9.339,5.393a1.052,1.052,0,0,0,1.578-.911V675.011A1.052,1.052,0,0,0,333.549,674.1Zm-1.578,9.873-6.182-3.57,6.182-3.57Z" transform="translate(-306.939 -635.792)" fill="#413b32"/>
        <path id="Trazado_1021691" data-name="Trazado 1021691" d="M640.944,183.3h-7.112a1.052,1.052,0,0,0-1.052,1.052V188.9a1.052,1.052,0,0,0,1.052,1.052h7.112A1.052,1.052,0,0,0,642,188.9v-4.552A1.052,1.052,0,0,0,640.944,183.3Zm-1.052,4.552h-5.007V185.4h5.007Z" transform="translate(-596.689 -177.404)" fill="#413b32"/>
        <path id="Trazado_1021692" data-name="Trazado 1021692" d="M751.908,140.87l-9.41-5.433a1.052,1.052,0,0,0-1.578.911v10.865a1.052,1.052,0,0,0,1.578.911l9.41-5.433a1.052,1.052,0,0,0,0-1.822Zm-8.884,4.521v-7.221l6.253,3.611Z" transform="translate(-697.718 -132.557)" fill="#413b32"/>
        <path id="Trazado_1021693" data-name="Trazado 1021693" d="M423.647,162.8a3.107,3.107,0,0,1-5.8,1.545,1.052,1.052,0,1,1,1.826-1.048,1,1,0,0,0,.87.505h.082a1,1,0,0,0,.079-1.988c-.08,0-.16-.009-.239-.018h-.015a3.106,3.106,0,1,1,3.061-4.63,1.052,1.052,0,1,1-1.825,1.048,1.006,1.006,0,0,0-.867-.508h-.051a1,1,0,0,0-.08,2h.014a.944.944,0,0,0,.1.006,1.08,1.08,0,0,1,.123.009A3.106,3.106,0,0,1,423.647,162.8Z" transform="translate(-395.758 -151.529)" fill="#413b32"/>
        <path id="Trazado_1021694" data-name="Trazado 1021694" d="M448.984,281.3v.921a1.052,1.052,0,0,1-2.1,0V281.3a1.052,1.052,0,0,1,.968-1.049h.084A1.052,1.052,0,0,1,448.984,281.3Z" transform="translate(-423.015 -267.978)" fill="#413b32"/>
        <path id="Trazado_1021695" data-name="Trazado 1021695" d="M448.984,142.672v.921a1.052,1.052,0,0,1-.968,1.049c-.027,0-.056,0-.085,0a1.052,1.052,0,0,1-1.052-1.052v-.921a1.052,1.052,0,0,1,2.1,0Z" transform="translate(-423.015 -138.465)" fill="#413b32"/>
        <path id="Trazado_1021696" data-name="Trazado 1021696" d="M331.844,93.64a9.225,9.225,0,1,0,9.224,9.225A9.235,9.235,0,0,0,331.844,93.64Zm0,16.345a7.12,7.12,0,1,1,7.12-7.12A7.121,7.121,0,0,1,331.844,109.985Z" transform="translate(-306.927 -93.64)" fill="#413b32"/>
      </g>
    </g>
  </g>
</svg>
