<svg xmlns="http://www.w3.org/2000/svg" xmlns:xlink="http://www.w3.org/1999/xlink" width="84" height="84" viewBox="0 0 84 84">
  <defs>
    <clipPath id="clip-path">
      <rect id="Rectángulo_459920" data-name="Rectángulo 459920" width="54.252" height="54.247" fill="none"/>
    </clipPath>
  </defs>
  <g id="Grupo_1186015" data-name="Grupo 1186015" transform="translate(-527.711 -5323)">
    <rect id="Rectángulo_456547" data-name="Rectángulo 456547" width="84" height="84" transform="translate(527.711 5323)" fill="#f2a4ab"/>
    <g id="Grupo_1187677" data-name="Grupo 1187677" transform="translate(542.585 5337.876)">
      <g id="Grupo_1187676" data-name="Grupo 1187676" clip-path="url(#clip-path)">
        <path id="Trazado_1032484" data-name="Trazado 1032484" d="M49.718,28.033A22.333,22.333,0,0,1,47.666,36.5,9.042,9.042,0,1,1,36.514,47.665a22.5,22.5,0,0,1-20.231-.727l-.016,6.39a.9.9,0,0,1-.918.914H.924A.911.911,0,0,1,0,53.325V44.3a.879.879,0,0,1,.907-.9H9.033l0-2.728A22.347,22.347,0,0,1,4.526,28.038L2.72,28.011V26.218L4.527,26.2A22.613,22.613,0,0,1,8.4,14.473L.914,14.458A.909.909,0,0,1,0,13.54L0,.912A.876.876,0,0,1,.92,0L15.354,0a.878.878,0,0,1,.913.9l.019,6.39A22.567,22.567,0,0,1,34.345,5.7L34.362.9a.872.872,0,0,1,.912-.9L47.9,0a.874.874,0,0,1,.913.9l.014,1.81,2.7,0a.873.873,0,0,1,.867.648L54.2,10.57a.983.983,0,0,1-.183.87,1.38,1.38,0,0,1-.952.329,2.717,2.717,0,0,1-5.434-.024l-3.9.031A22.643,22.643,0,0,1,49.718,26.2l1.807.017v1.793Z" transform="translate(0 -0.001)" fill="#040504"/>
        <path id="Trazado_1032485" data-name="Trazado 1032485" d="M240.349,11.91q4.421.115,8.918.094a26.323,26.323,0,0,1-.055,5.087,2.1,2.1,0,0,1-1.89,1.432l-7.122.018-.143-.194q.059-3.118-.079-6.193c0-.119.032-.2.092-.229a.585.585,0,0,1,.278-.017" transform="translate(-203.819 -10.109)" fill="#3d8fcf"/>
        <path id="Trazado_1032486" data-name="Trazado 1032486" d="M239.979,12.2c.062.044.155.108.155.214l-.01,5.875,7.092-.018a1.8,1.8,0,0,0,1.8-1.65l.013-4.526-8.581.01c-.111,0-.173-.095-.1-.151l10.482,0V20.1l-6.735-.008a2.761,2.761,0,0,0-4.1.066Z" transform="translate(-203.819 -10.154)" fill="#3788be"/>
        <path id="Trazado_1032487" data-name="Trazado 1032487" d="M327.205,35.13a2.789,2.789,0,0,0-3.268-.161L323.927,30l2.014,0Z" transform="translate(-275.117 -25.475)" fill="#d8d7d7"/>
        <path id="Trazado_1032488" data-name="Trazado 1032488" d="M248.7,72.053a.888.888,0,0,1,1.091.55.9.9,0,1,1-1.681.616.888.888,0,0,1,.59-1.166" transform="translate(-210.679 -61.166)" fill="#4e4e4e"/>
        <path id="Trazado_1032489" data-name="Trazado 1032489" d="M328.727,72.06a.886.886,0,0,1,1.093.545.9.9,0,0,1-.531,1.156.9.9,0,1,1-.561-1.7" transform="translate(-278.65 -61.17)" fill="#4d4e4e"/>
        <path id="Trazado_1032490" data-name="Trazado 1032490" d="M22.906,11.942l.3.141-.063,7.134a2.09,2.09,0,0,1-2.108,2.038L12.183,21.2,12,20.9l-.01-8.973h3.615l0,4.511a.91.91,0,0,0,.907.91l3.608,0a.89.89,0,0,0,.9-.906l.008-4.5c.654-.035,1.237-.011,1.866.006" transform="translate(-10.187 -10.122)" fill="#b27749"/>
        <path id="Trazado_1032491" data-name="Trazado 1032491" d="M11.976,21.022,21,21.075a1.833,1.833,0,0,0,1.821-1.946l.056-7.066,1.747,0V22.9H11.988c-.054-.658-.007-1.237-.012-1.875" transform="translate(-10.16 -10.244)" fill="#9d6643"/>
        <path id="Trazado_1032492" data-name="Trazado 1032492" d="M49.825,15.6l-1.816.013V12.015l1.807,0Z" transform="translate(-40.776 -10.205)" fill="#e2e4e3"/>
        <path id="Trazado_1032493" data-name="Trazado 1032493" d="M261.285,252.153l.153.246a7.88,7.88,0,0,1,3.016,9.117l-.423.319c-1.161-1.284-2.444-.733-3.709-1.047a3.681,3.681,0,0,0,2.475-4.233,3.613,3.613,0,0,0-7.1.118,3.685,3.685,0,0,0,2.5,4.114,6.8,6.8,0,0,1-1.937.146,2.78,2.78,0,0,0-2.459,2.891,7.225,7.225,0,0,1,7.481-11.67" transform="translate(-214.056 -213.91)" fill="#d8d8d7"/>
        <path id="Trazado_1032494" data-name="Trazado 1032494" d="M283.288,326.634a7.273,7.273,0,0,1-7.188.012l-.021-1.759a.874.874,0,0,1,.9-.9l5.41,0a.882.882,0,0,1,.9.9Z" transform="translate(-234.479 -275.17)" fill="#505050"/>
        <path id="Trazado_1032495" data-name="Trazado 1032495" d="M316.99,259.448q-.146.431.064.252a7.27,7.27,0,0,1-1.695,5.758,3.336,3.336,0,0,0-.7-1.97,7.739,7.739,0,0,0-3.014-9.43c-.016-.072.173-.188.269-.252a7.177,7.177,0,0,1,5.076,5.643" transform="translate(-264.686 -215.561)" fill="#cbcbcb"/>
        <path id="Trazado_1032496" data-name="Trazado 1032496" d="M289.4,276.085a1.784,1.784,0,0,1,2.2,1.272,1.8,1.8,0,0,1-3.446,1.035,1.782,1.782,0,0,1,1.246-2.307" transform="translate(-244.652 -234.43)" fill="#505050"/>
        <path id="Trazado_1032497" data-name="Trazado 1032497" d="M346.11,291.506c-.072.1-.023.242-.14.476a.511.511,0,0,1,.077-.727.864.864,0,0,0,.064.252" transform="translate(-293.742 -247.368)" fill="#d7d7d6"/>
        <path id="Trazado_1032498" data-name="Trazado 1032498" d="M83.773,60.688q.1.826-.243.564A3.584,3.584,0,0,0,80.1,59.175l-3.039-.005a14.466,14.466,0,0,0-28.025,0l-3.308.024a3.513,3.513,0,0,0-3.184,2.271q-.332-.011-.173-.864A20.82,20.82,0,0,1,46.6,50.138l4.709,0a.893.893,0,0,0,.9-.9l.031-4.16a20.579,20.579,0,0,1,18.049-1.742l.034,3.325c.006.565.6.815,1.169.775a2.706,2.706,0,0,0,2.8,2.7,2.76,2.76,0,0,0,2.669-2.769,20.784,20.784,0,0,1,6.813,13.327" transform="translate(-35.944 -35.679)" fill="#696969"/>
        <path id="Trazado_1032499" data-name="Trazado 1032499" d="M139.014,189.746a19.213,19.213,0,0,1-1.977,6.919,9.071,9.071,0,0,0-9.648,9.634,20.559,20.559,0,0,1-19.9-.989l-.042-8.01c-.086-.1-.054-.119.079-.054a14.471,14.471,0,0,0,24.837-6l3.163-.011a3.762,3.762,0,0,0,3.314-2.256c.347-.056.237.478.177.769" transform="translate(-91.214 -160.498)" fill="#696969"/>
        <path id="Trazado_1032500" data-name="Trazado 1032500" d="M113.1,95.82q-.121.173.267.044c.322.052.586.07.919.139l.058.2a13.121,13.121,0,0,1,6.984,8.786.519.519,0,0,1-.038.27,1.39,1.39,0,0,1-.141.293,3.714,3.714,0,0,0-1.235,1.909l-2.04-.027a3.53,3.53,0,0,0-3.21-2.64l-5.581-.036a3.665,3.665,0,0,0-3.635,2.7l-2.065-.01a3.668,3.668,0,0,0-3.861-2.691,12.62,12.62,0,0,1,10.353-8.918q.939.276.265-.046a8.939,8.939,0,0,1,2.961.02" transform="translate(-84.524 -81.267)" fill="#dadada"/>
        <path id="Trazado_1032501" data-name="Trazado 1032501" d="M121.315,188.1c.093.089.181.208.143.321-1.143,3.433-2.986,6.772-6.325,8.549-.343.182-1.223.541-.951.256.05-.053.213.137.04.3l-.9.136q-.663-.212-.247.006a7.587,7.587,0,0,1-2.823,0q.1-.182-.395,0a12.618,12.618,0,0,1-10.317-8.906,3.681,3.681,0,0,0,3.858-2.7h2.066a3.674,3.674,0,0,0,3.634,2.7l5.434-.023a3.568,3.568,0,0,0,3.335-2.663l2.05-.016a3.818,3.818,0,0,0,1.4,2.043" transform="translate(-84.539 -158.018)" fill="#dadada"/>
        <path id="Trazado_1032502" data-name="Trazado 1032502" d="M42.453,190.407c-.061-.276-.142-.767.2-.631a3.578,3.578,0,0,0,3.3,2.121l3.194,0a14.489,14.489,0,0,0,2.646,5.368,3.684,3.684,0,0,0-.875.184l-4.965,2.483a20.329,20.329,0,0,1-3.5-9.529" transform="translate(-36.009 -161.161)" fill="#696969"/>
        <path id="Trazado_1032503" data-name="Trazado 1032503" d="M195.216,209.038a.677.677,0,0,0-.315-.243,13.385,13.385,0,0,0,7.034-8.3,2.3,2.3,0,0,1,.375-.884,4.062,4.062,0,0,0,2.469.669,12.59,12.59,0,0,1-9.563,8.757" transform="translate(-165.533 -169.534)" fill="#c6c6c6"/>
        <path id="Trazado_1032504" data-name="Trazado 1032504" d="M202.216,107.343a13.3,13.3,0,0,0-7.245-9.318,3.944,3.944,0,0,0,.382-.235,12.606,12.606,0,0,1,9.489,8.756,3.879,3.879,0,0,0-2.626.8" transform="translate(-165.593 -83.055)" fill="#c6c6c6"/>
        <path id="Trazado_1032505" data-name="Trazado 1032505" d="M62.9,171.593l-5.5.014a1.736,1.736,0,0,1-1.524-.877L57.4,170.7v-1.788l-1.52-.031A1.728,1.728,0,0,1,57.407,168l5.42,0a1.718,1.718,0,0,1,1.529.877l-1.522.026V170.7l1.513.035a1.657,1.657,0,0,1-1.446.859" transform="translate(-47.459 -142.687)" fill="#b29c59"/>
        <path id="Trazado_1032506" data-name="Trazado 1032506" d="M158.9,171.593l-5.5.014a1.736,1.736,0,0,1-1.524-.877l1.518-.035v-1.788l-1.52-.031a1.728,1.728,0,0,1,1.528-.875l5.42,0a1.718,1.718,0,0,1,1.529.877l-1.522.026V170.7l1.513.035a1.657,1.657,0,0,1-1.446.859" transform="translate(-128.994 -142.687)" fill="#b29b59"/>
        <path id="Trazado_1032507" data-name="Trazado 1032507" d="M254.9,171.593l-5.5.014a1.736,1.736,0,0,1-1.524-.877l1.518-.035v-1.788l-1.52-.031a1.728,1.728,0,0,1,1.528-.875l5.42,0a1.718,1.718,0,0,1,1.529.877l-1.522.026V170.7l1.513.035a1.657,1.657,0,0,1-1.446.859" transform="translate(-210.529 -142.687)" fill="#b29c59"/>
        <path id="Trazado_1032508" data-name="Trazado 1032508" d="M42.2,186.5a.7.7,0,0,0-.2.631,1.857,1.857,0,0,1-.062-1.236,2.172,2.172,0,0,1,.259.605" transform="translate(-35.555 -157.881)" fill="#474848"/>
        <path id="Trazado_1032509" data-name="Trazado 1032509" d="M315.8,166.537c.22-.09.226-.364.243-.564a2.209,2.209,0,0,1,.028,1.214Z" transform="translate(-268.217 -140.964)" fill="#494949"/>
        <path id="Trazado_1032510" data-name="Trazado 1032510" d="M316.23,187.124a1,1,0,0,0-.177-.769l.229-.469a1.763,1.763,0,0,1-.052,1.239" transform="translate(-268.43 -157.876)" fill="#4e4e4e"/>
        <path id="Trazado_1032511" data-name="Trazado 1032511" d="M42.134,166.24c-.057.143-.11.247-.2.438-.212-.418-.027-.834.025-1.3.02.329-.011.668.173.864" transform="translate(-35.533 -140.457)" fill="#4e4f4e"/>
        <path id="Trazado_1032512" data-name="Trazado 1032512" d="M168.4,261.987h-.395a1.035,1.035,0,0,1,1.07-.094,1.346,1.346,0,0,1-.675.094" transform="translate(-142.69 -222.343)" fill="#e5e5e5"/>
        <path id="Trazado_1032513" data-name="Trazado 1032513" d="M105.233,240.823l-.079.054a1.282,1.282,0,0,1-.454-.585c.4-.09.4.379.533.531" transform="translate(-88.924 -204.075)" fill="#151515"/>
        <path id="Trazado_1032514" data-name="Trazado 1032514" d="M185.808,261.971l-.248.006a1.363,1.363,0,0,1-.674-.09.773.773,0,0,1,.921.084" transform="translate(-157.028 -222.332)" fill="#e3e3e2"/>
        <path id="Trazado_1032515" data-name="Trazado 1032515" d="M186.448,96.577l.267.044a.653.653,0,0,1-.832.072,1.818,1.818,0,0,1,.565-.116" transform="translate(-157.874 -82.025)" fill="#e3e3e2"/>
        <path id="Trazado_1032516" data-name="Trazado 1032516" d="M168.49,96.442c.094.066.24.016.475.133-.229.178-.635.156-.741-.086Z" transform="translate(-142.877 -81.91)" fill="#e7e7e7"/>
        <path id="Trazado_1032517" data-name="Trazado 1032517" d="M12.089,267.81h1.779q.412.053.336.658l1.167,0q-.045-.462.337-.531l1.777-.123q.412.053.336.658l1.167,0q-.045-.462.337-.531l1.774-.06q.355-.07.375.595l1.147-.05.024-1.489a2.8,2.8,0,0,0,.273-1.762c-.48-.132-.456-1.665,0-1.838l-.009-6.441c-.034-.067-.287-.052-.277-.064l2.1-1.04,0,13.887H12.1Z" transform="translate(-10.267 -217.243)" fill="#558445"/>
        <path id="Trazado_1032518" data-name="Trazado 1032518" d="M73.424,329.748c.2.037.3.2.3.463l-.027,1.371-1.779.007-.038-.9.037-.913Z" transform="translate(-61.047 -280.061)" fill="#050606"/>
        <path id="Trazado_1032519" data-name="Trazado 1032519" d="M22.571,262.165q.646-.269.579.24l.009,6.044-.3.221-.161.3-1.334.055.042,1.163,1.249.013.2.3c.567.11.395,1.993-.273,1.762q-.241.482-1.21.326.068.536-.335.617c-.1.482-1.606.513-1.774.06q-.374-.054-.366-.662l-1.15,0c.009.285.014.478-.324.537-.08.485-1.59.569-1.777.123q-.374-.054-.366-.662l-1.15,0c.009.285.014.478-.324.537-.113.479-1.625.458-1.779,0l-.011-5.364,8.125-.007a.9.9,0,0,0,.908-.905l.012-3.911a8.511,8.511,0,0,1,1.51-.8" transform="translate(-10.205 -222.582)" fill="#68a652"/>
        <path id="Trazado_1032520" data-name="Trazado 1032520" d="M25.849,307.771l-1.808.006v-1.8l1.8.007Z" transform="translate(-20.419 -259.874)" fill="#060706"/>
        <path id="Trazado_1032521" data-name="Trazado 1032521" d="M49.849,307.771l-1.808.006v-1.8l1.8.007Z" transform="translate(-40.802 -259.874)" fill="#060706"/>
        <path id="Trazado_1032522" data-name="Trazado 1032522" d="M73.845,305.858l0,1.838-1.793-.019v-1.8Z" transform="translate(-61.192 -259.771)" fill="#050606"/>
        <path id="Trazado_1032523" data-name="Trazado 1032523" d="M25.733,330.939l-.036.832-1.767.006-.037-.96.035-.847,1.778.008Z" transform="translate(-20.293 -280.249)" fill="#050606"/>
        <path id="Trazado_1032524" data-name="Trazado 1032524" d="M49.733,330.939l-.036.832-1.767.006-.037-.96.035-.847,1.778.008Z" transform="translate(-40.677 -280.249)" fill="#050606"/>
      </g>
    </g>
  </g>
</svg>
