<svg xmlns="http://www.w3.org/2000/svg" xmlns:xlink="http://www.w3.org/1999/xlink" width="84" height="84" viewBox="0 0 84 84">
  <defs>
    <clipPath id="clip-path">
      <rect id="Rectángulo_459921" data-name="Rectángulo 459921" width="51.289" height="51.289" fill="none"/>
    </clipPath>
  </defs>
  <g id="Grupo_1186019" data-name="Grupo 1186019" transform="translate(-217.711 -4044)">
    <rect id="Rectángulo_456489" data-name="Rectángulo 456489" width="84" height="84" rx="10" transform="translate(217.711 4044)" fill="#f2a4ab"/>
    <g id="Grupo_1187679" data-name="Grupo 1187679" transform="translate(234.066 4060.355)">
      <g id="Grupo_1187678" data-name="Grupo 1187678" clip-path="url(#clip-path)">
        <path id="Trazado_1032525" data-name="Trazado 1032525" d="M33.622,20.29a.472.472,0,0,1,.538.126l19.193,9.27c.2.086.2.269.03.409l-37.232-.037c-.359.312-.765.47-.748.983l0,6.823a.843.843,0,0,0,.855.863l1.707.028V66.936l-5.986,0,0-36.225Z" transform="translate(-10.275 -17.366)" fill="#3d8fcf"/>
        <path id="Trazado_1032526" data-name="Trazado 1032526" d="M79.267,60.392l.253-.332Q80.839,60,82.1,59.987l-.006-33.56-.119-.47-.107,5.37-.288.161-.038-6.937a.873.873,0,0,0-.9-.865L41.25,23.566l37.235-.04L59.43,14.319c-.316-.153-.551-.218-.71-.521l2.323-1.117L84.961,24.23l-.008,36.211Z" transform="translate(-35.373 -10.873)" fill="#3688be"/>
        <path id="Trazado_1032527" data-name="Trazado 1032527" d="M301.118,135.154a.247.247,0,0,1-.293.022l-.007-1.657-.853-.024v-1.7q-.058-.38.566-.307l0-1.1q-.436.062-.511-.306l-.057-1.706.855-.039,0-21.309,1.729-.024c.341,0,.875-.348.883-.747l.127-6.388a1.722,1.722,0,0,1,.671,1.32l.007,33.9a17.9,17.9,0,0,0-3.118.074" transform="translate(-257.224 -85.635)" fill="#3d8fcf"/>
        <path id="Trazado_1032528" data-name="Trazado 1032528" d="M64.571,208.088a3.506,3.506,0,0,0,.654.748l-3.756,0a2.176,2.176,0,0,0,.751-.746q-.062-12.15.029-24.285a.411.411,0,0,0,.175-.042c.1-.059,2.032-.073,2.177.176Z" transform="translate(-52.712 -157.548)" fill="#d2d2d1"/>
        <path id="Trazado_1032529" data-name="Trazado 1032529" d="M279.377,191.93c.457.1.486,1.538.057,1.707q-.051.355-.622.34v.992a.668.668,0,0,1,.565.382c.453.113.434,1.551,0,1.7l-.855.022.021,2.672c0,.359.341.565.509.727l-2.306-.006-.285-.1q.119-11.771.011-23.5l-.227-.683q-.074,11.53-.144,23.585c-.049.122-.1.118-.15-.008l.007-25.773,2.564,0V191.9Z" transform="translate(-236.635 -149.196)" fill="#c3c2c2"/>
        <path id="Trazado_1032530" data-name="Trazado 1032530" d="M272.8,213.7l-1.45.015c.284-.17.655-.417.655-.725l.15.008q.07-11.8.144-23.585a1.431,1.431,0,0,1,.558,1.236Z" transform="translate(-232.693 -162.426)" fill="#d2d1d0"/>
        <path id="Trazado_1032531" data-name="Trazado 1032531" d="M294.936,311.924l.8.024,0,1.667-.85.023-.85-.014v-1.679Z" transform="translate(-252.137 -267.483)" fill="#050606"/>
        <path id="Trazado_1032532" data-name="Trazado 1032532" d="M42.416,51.281l-.607-.2a8.463,8.463,0,0,1-.109-3.333c.179-.222,1.008-.3,1.041.109-.18-.348.707-.325.813-.253.44.3.428,1.714.252,1.8-.018.009-.161-.263.089.114l3.061-.023.111-.234a9.374,9.374,0,0,0,2.228-.084L49.3,13.63Q37.581,7.8,25.7,2.139a14.62,14.62,0,0,1-2.2.9l-.158-.118.035.3L2.078,13.481c-.147,11.775-.141,24.029-.007,35.8l5.259,0q.178-13.785.034-27.617-2.189.337-2.517-1.154l.015-7.063c.122-.446.549-1.008,1.015-.76l37.233.037c.045-.115.09-.205.14-.207a7.675,7.675,0,0,1,2.678.195c.463.323.771,1.175.326,1.521l-.046,6.378c.105.071.224.163.224.283,0,.822-1.988.815-2.551.769V42.52a.625.625,0,0,1-1.14.215c-.145.5-.91.333-1.141-.127l-.01-17.534-1.972,0L39.608,26.9l-.214.137q.062,11.831-.078,23.527.593.519-.655.725l-26.147,0q-1.031-.191-.654-.747l.03-24.033-.215-.123,0-1.308H9.7l0,1.308-.214.123.028,24.032q.413.569-.751.746l-7.893,0A.85.85,0,0,1,0,50.393V12.849a.825.825,0,0,1,.532-.822L25.182.124a.948.948,0,0,1,.928,0l24.648,11.9a.838.838,0,0,1,.53.826V50.392a.847.847,0,0,1-.865.89Z" transform="translate(0 0)" fill="#080909"/>
        <path id="Trazado_1032533" data-name="Trazado 1032533" d="M68.458,199.752l-.04-24.042H66.15l-.042,24.042L66,174h2.562Z" transform="translate(-56.599 -149.212)" fill="#c2c1c1"/>
        <path id="Trazado_1032534" data-name="Trazado 1032534" d="M68.606,151.668H66.053v-1.7H68.6Z" transform="translate(-56.642 -128.599)" fill="#9dc1d4"/>
        <path id="Trazado_1032535" data-name="Trazado 1032535" d="M278.606,151.668h-2.553v-1.7H278.6Z" transform="translate(-236.722 -128.599)" fill="#9cc0d2"/>
        <path id="Trazado_1032536" data-name="Trazado 1032536" d="M154.338,121.644l-10.225,0v-1.711l10.229,0Z" transform="translate(-123.581 -102.849)" fill="#636364"/>
        <path id="Trazado_1032537" data-name="Trazado 1032537" d="M277.139,189l0,23.419c0,.137-.084.169-.142.166V188.97c.088-.081.175-.019.146.029" transform="translate(-237.529 -162.013)" fill="#d5d4d3"/>
        <path id="Trazado_1032538" data-name="Trazado 1032538" d="M149.092,257.383v1.7c-5.529.129-11.5.132-17.094,0l0-1.7c5.605-.124,11.5-.127,17.092,0" transform="translate(-113.192 -220.629)" fill="#040505"/>
        <path id="Trazado_1032539" data-name="Trazado 1032539" d="M149.093,281.383v1.7c-5.529.129-11.5.132-17.094,0l0-1.7c5.605-.124,11.5-.127,17.092,0" transform="translate(-113.193 -241.209)" fill="#040505"/>
        <path id="Trazado_1032540" data-name="Trazado 1032540" d="M149.093,305.383v1.7c-5.529.129-11.5.132-17.094,0l0-1.7c5.605-.124,11.5-.127,17.092,0" transform="translate(-113.193 -261.79)" fill="#040505"/>
        <path id="Trazado_1032541" data-name="Trazado 1032541" d="M148.06,226.862l-1.462.054-.022-.855-8.51,0-.008-1.71.132-.285,7.987,0c.016-.212.117-.288.343-.313a4.322,4.322,0,0,0,1.539,3.108" transform="translate(-118.388 -191.875)" fill="#9d6643"/>
        <path id="Trazado_1032542" data-name="Trazado 1032542" d="M210.6,170.554l.054.853a4.432,4.432,0,0,0-2.513.762c-.112-.01-.28-.042-.288-.12a28.192,28.192,0,0,1,0-3.952.4.4,0,0,1,.188-.1l1.762,0,.007,2.534Z" transform="translate(-178.174 -144.058)" fill="#9d6543"/>
        <path id="Trazado_1032543" data-name="Trazado 1032543" d="M146.5,343.076v.284H128.978a.4.4,0,0,1,.133-.36.518.518,0,0,1,.293-.067q8.549.073,17.1.143" transform="translate(-110.6 -294.074)" fill="#e9e8e8"/>
        <path id="Trazado_1032544" data-name="Trazado 1032544" d="M149.078,340.179l0,.148c-5.536.124-11.5.127-17.1,0l0-.142.1-.285,16.823-.006Z" transform="translate(-113.178 -291.468)" fill="#dadada"/>
        <path id="Trazado_1032545" data-name="Trazado 1032545" d="M115.666,141.668c.051-.117.095-.1.132.027l.318-.207a7.752,7.752,0,0,1,2.387.213,1.819,1.819,0,0,1,1.153,1.57l.028,5.016-.284.21-.163.006a.339.339,0,0,1-.485.081,2.456,2.456,0,0,1-.723.806,9.33,9.33,0,0,0-1.806-.459l-.253-.292c-.424.079-.455-.751-.054-.853q-.055-.39.577-.3a15.249,15.249,0,0,0-.066-3.476.524.524,0,0,0-.3-.191l-13.925-.011c-.363.065-.426.237-.476.582V156.3c.063.437.168.529.593.6h8.98a.726.726,0,0,1,.4-.57c.045-.559,1.06-.3,1.462-.054l.405-.051a4.059,4.059,0,0,0,5.256-.462l.408-.024c.072-.079.124-.079.174.021.109.015.266.042.284.124a6.425,6.425,0,0,1,0,1.144q.134.691-.289.867-8.5.074-17.1.143c.453.114.432,1.551,0,1.7q8.55.076,17.1.148c.446.081.426,1.305,0,1.425q-8.5.074-17.1.143c.453.114.432,1.551,0,1.7q8.55.076,17.1.148c.446.081.426,1.305,0,1.425q-8.5.074-17.1.143c.453.114.432,1.551,0,1.7q8.55.076,17.1.148c.446.081.426,1.305,0,1.425q-8.478.168-17.1.142a4.415,4.415,0,0,0,0,1.71c.124.042.122.089,0,.142-.079.2-.172.42-.426.427q-2.178.124-4.466.07-.1-14.432.05-28.839l.162-.288,4.656-.077.311.28c.33-.006.71.085,1.146.085l10.812-.008a3.277,3.277,0,0,0,1.124-.133" transform="translate(-83.491 -121.292)" fill="#eaeaea"/>
        <path id="Trazado_1032546" data-name="Trazado 1032546" d="M109.727,283.686l-1.707,0,0-1.7h1.7Z" transform="translate(-92.628 -241.818)" fill="#050606"/>
        <path id="Trazado_1032547" data-name="Trazado 1032547" d="M109.727,331.686l-1.707,0,0-1.7h1.7Z" transform="translate(-92.628 -282.979)" fill="#050606"/>
        <path id="Trazado_1032548" data-name="Trazado 1032548" d="M109.727,259.686l-1.707,0,0-1.7h1.7Z" transform="translate(-92.628 -221.237)" fill="#050606"/>
        <path id="Trazado_1032549" data-name="Trazado 1032549" d="M109.727,307.686l-1.707,0,0-1.7h1.7Z" transform="translate(-92.628 -262.398)" fill="#050606"/>
        <path id="Trazado_1032550" data-name="Trazado 1032550" d="M149.093,269.894l.008.148-16.945,0c-.151,0-.156-.1-.156-.15Z" transform="translate(-113.193 -231.441)" fill="#dadada"/>
        <path id="Trazado_1032551" data-name="Trazado 1032551" d="M149.1,280.931l-.008.148-17.092,0c-.013-.058.036-.144.163-.144Z" transform="translate(-113.194 -240.905)" fill="#dadada"/>
        <path id="Trazado_1032552" data-name="Trazado 1032552" d="M149.093,293.894l.008.148-16.945,0c-.151,0-.156-.1-.156-.15Z" transform="translate(-113.193 -252.022)" fill="#dadada"/>
        <path id="Trazado_1032553" data-name="Trazado 1032553" d="M149.1,304.931l-.008.148-17.092,0c-.013-.058.036-.144.163-.144Z" transform="translate(-113.194 -261.485)" fill="#dadada"/>
        <path id="Trazado_1032554" data-name="Trazado 1032554" d="M149.093,317.894l.008.148-16.945,0c-.151,0-.156-.1-.156-.15Z" transform="translate(-113.193 -272.602)" fill="#dadada"/>
        <path id="Trazado_1032555" data-name="Trazado 1032555" d="M149.1,328.934l-.008.148-.1.285-16.824-.006-.173-.285Z" transform="translate(-113.188 -282.069)" fill="#dadada"/>
        <path id="Trazado_1032556" data-name="Trazado 1032556" d="M149.1,256.931l0,.148-17.092,0c-.013-.058.036-.144.163-.144Z" transform="translate(-113.193 -220.324)" fill="#dadada"/>
        <path id="Trazado_1032557" data-name="Trazado 1032557" d="M131.013,331.642c-.2,0-.231-.984,0-1.71.453.115.434,1.555,0,1.71" transform="translate(-112.207 -282.925)" fill="#e9e8e8"/>
        <path id="Trazado_1032558" data-name="Trazado 1032558" d="M149.089,329.938v1.7l-17.095.006v-1.71Z" transform="translate(-113.188 -282.925)" fill="#060707"/>
        <path id="Trazado_1032559" data-name="Trazado 1032559" d="M149.076,342.933v.142l-16.938,0c-.143,0-.166-.1-.161-.144Z" transform="translate(-113.173 -294.074)" fill="#ededed"/>
        <path id="Trazado_1032560" data-name="Trazado 1032560" d="M101.4,133.577l-5.13.085q-.133,14.33-.074,28.737l.1.1q10.989-.055,21.91.072c.082-.048.082-.1,0-.142-.378-.045-.362-.176,0-.284-.124-.04-.123-.088,0-.142-.125-.04-.124-.09,0-.148-.451-.108-.436-1.541,0-1.7-.122-.049-.118-.1.008-.148v-1.425c-.127-.036-.127-.085-.008-.148-.456-.117-.431-1.552,0-1.7-.122-.049-.118-.1.008-.148v-1.425c-.127-.036-.127-.085-.008-.148-.453-.112-.434-1.547,0-1.7-.122-.049-.118-.1.008-.148v-1.425c-.127-.036-.127-.085-.008-.148-.453-.112-.434-1.547,0-1.7-.123-.046-.12-.1,0-.148l.009-2.135a4.369,4.369,0,0,0,.86-2.165c-.518-.085-.483-1.1-.008-1.245a.9.9,0,0,0-.214-.845c-.235.152-.287.047-.083-.16a2.442,2.442,0,0,0-.482-1.1,3.1,3.1,0,0,0,.648-1.03c-.323-.068-.3-.188.03-.18a2.981,2.981,0,0,0-.757-.537l-.026-5.12a1.792,1.792,0,0,0-2.107-1.6,3.539,3.539,0,0,1-1.47-.083,1.567,1.567,0,0,0,.179-.488l.013-1.117,5.116,0v30.772l-23.937,0V131.951l5.143-.006a2.479,2.479,0,0,0,.273,1.632" transform="translate(-82.31 -113.145)" fill="#dadad9"/>
        <path id="Trazado_1032561" data-name="Trazado 1032561" d="M225.957,140.27c-.035-.013-.1-.04-.132-.027a1.312,1.312,0,0,1,.31-.46c.018.091.231.161.076.313a1.058,1.058,0,0,1-.255.175" transform="translate(-193.651 -119.867)" fill="#dadada"/>
        <path id="Trazado_1032562" data-name="Trazado 1032562" d="M101.486,172.774l.1-.165q8.642.043,17.326.023l.1.142c.124.041.122.089,0,.142l-22.085,0V144.3c-.038-.2.033-.283.144-.293l0,28.765Z" transform="translate(-83.108 -123.488)" fill="#ededed"/>
        <path id="Trazado_1032563" data-name="Trazado 1032563" d="M253.586,249.466c.128-1.227,0-2.332.019-3.478s.053-2.262-.006-3.428a13.828,13.828,0,0,0-.116-3.557,1.592,1.592,0,0,1,.358-1.251c.161-.27.133-.663.669-.729l0,14.786a.529.529,0,0,1-.361.555.435.435,0,0,1-.506-.523c.149-.769-.142-1.593-.06-2.374" transform="translate(-217.335 -203.253)" fill="#dadada"/>
        <path id="Trazado_1032564" data-name="Trazado 1032564" d="M234.819,142.931c-.178-.1-.656-.387-.667-.68-.067-1.778.058-3.462-.122-5.237-.121-1.185-1.66-1.134-2.9-1.178-.347-.012-.41-.837-.06-.888a22.654,22.654,0,0,1,3.62-.062c.288,0,.43.279.43.544l.012,6.977a.551.551,0,0,1-.31.524" transform="translate(-197.946 -115.632)" fill="#dadada"/>
        <path id="Trazado_1032565" data-name="Trazado 1032565" d="M232.2,163.415v-.142l1.423-.022V133.08l-4.522-.006a1.065,1.065,0,0,1-.12.579,1.3,1.3,0,0,1-.037-.727l4.823,0v30.464Z" transform="translate(-196.297 -113.987)" fill="#dddddc"/>
        <path id="Trazado_1032566" data-name="Trazado 1032566" d="M257.138,201.651a.691.691,0,0,0,.008-.712.36.36,0,0,1,.468-.15c.1.042.123.577.038.755-.042.088-.179.27-.514.107" transform="translate(-220.502 -172.152)" fill="#dadada"/>
        <path id="Trazado_1032567" data-name="Trazado 1032567" d="M253.046,259.637l-.039-1.654a.127.127,0,0,1,.1-.075l.045,1.5c0,.126,0,.173-.107.226" transform="translate(-216.96 -221.163)" fill="#dadada"/>
        <path id="Trazado_1032568" data-name="Trazado 1032568" d="M253.046,283.636l-.039-1.654a.127.127,0,0,1,.1-.075l.045,1.5c0,.126,0,.173-.107.226" transform="translate(-216.96 -241.743)" fill="#dadada"/>
        <path id="Trazado_1032569" data-name="Trazado 1032569" d="M253.046,307.636l-.039-1.654a.127.127,0,0,1,.1-.075l.045,1.5c0,.126,0,.173-.107.226" transform="translate(-216.96 -262.324)" fill="#dadada"/>
        <path id="Trazado_1032570" data-name="Trazado 1032570" d="M253.047,331.621l-.039-1.642a.124.124,0,0,1,.106-.076l.033,1.642a.125.125,0,0,1-.1.075" transform="translate(-216.961 -282.901)" fill="#dadada"/>
        <path id="Trazado_1032571" data-name="Trazado 1032571" d="M148.186,167.973l.1,4.171a4.334,4.334,0,0,0-1.833,3.769l-.078.6-8.385,0-.011-8.548H141.4l0,4.266a.86.86,0,0,0,.858.861l3.411,0a.841.841,0,0,0,.853-.857l.008-4.258Z" transform="translate(-118.324 -144.033)" fill="#b27749"/>
        <path id="Trazado_1032572" data-name="Trazado 1032572" d="M140.48,160.26c-.067.467-.824.32-1.041-.017l-.043-2.251-1.286,0-.192-.284-.122.285-1.244.022-.048,4.254a1.122,1.122,0,0,1-.651.749,21.843,21.843,0,0,1-4.255.015,1.14,1.14,0,0,1-.744-1.047l-.006-3.988-2.831-.013-.007,8.091-.285.172.286.154.038,1.271,8.132,0c.418.243.569.927.084,1.133l-.026.855-9.369,0a.845.845,0,0,1-.861-.868V156.848a.817.817,0,0,1,.74-.85l13.775-.009a.828.828,0,0,1,.864.851l.007,3.4Z" transform="translate(-108.057 -133.765)" fill="#040504"/>
        <path id="Trazado_1032573" data-name="Trazado 1032573" d="M175.718,171.39,174,171.4V168l1.709,0Z" transform="translate(-149.211 -144.068)" fill="#e3e5e4"/>
        <path id="Trazado_1032574" data-name="Trazado 1032574" d="M203.359,189.2a1.7,1.7,0,0,1,.92.531.1.1,0,0,0-.03.18,5.464,5.464,0,0,1-.652,1.1,1.8,1.8,0,0,1,.486,1.037l.083.16a.842.842,0,0,1,.214.845,3.708,3.708,0,0,0,.008,1.245,2.9,2.9,0,0,1-1.034,2.144,4.343,4.343,0,0,1-6.069.536c-1.1-.182-1.509-1.506-1.746-2.481a.549.549,0,0,0,.207-.626c-.584-.387-.131-1.6.14-2.174.284-.6.994-1.785,1.693-1.6a1.214,1.214,0,0,1,1.121-.845q.938-.4,1.392.083a4.372,4.372,0,0,1,2.021.514l.683-.948a3.162,3.162,0,0,1,.563.3" transform="translate(-167.613 -161.991)" fill="#040504"/>
        <path id="Trazado_1032575" data-name="Trazado 1032575" d="M251.032,228.918l-.174-.021a5.738,5.738,0,0,0,1.034-2.144.728.728,0,0,1-.006.766c-.243.487-.41,1.1-.853,1.4" transform="translate(-215.117 -194.447)" fill="#dadada"/>
        <path id="Trazado_1032576" data-name="Trazado 1032576" d="M251.809,191.445l-.92-.531a.4.4,0,0,1,.163-.006c.275.068.737.244.757.537" transform="translate(-215.144 -163.703)" fill="#dadada"/>
        <path id="Trazado_1032577" data-name="Trazado 1032577" d="M252.316,198.115a6.621,6.621,0,0,0-.608-1.033l.773-1.1c.093.357-.306.7-.573,1.03.4.594.72,1.072.407,1.1" transform="translate(-215.846 -168.059)" fill="#dadada"/>
        <path id="Trazado_1032578" data-name="Trazado 1032578" d="M256.771,212.928l-.214-.845a.577.577,0,0,1,.34.357c.112.227-.115.359-.127.488" transform="translate(-220.004 -181.867)" fill="#dadada"/>
        <path id="Trazado_1032579" data-name="Trazado 1032579" d="M210.553,216.055q-.053-.567.227-.663l1.495,1.372a1.06,1.06,0,0,0,.816.381.889.889,0,0,0,.669-.4l1.582-2.38a2.553,2.553,0,1,1-4.79,1.694" transform="translate(-180.547 -183.82)" fill="#7abb65"/>
        <path id="Trazado_1032580" data-name="Trazado 1032580" d="M211.954,204.691l1.363.014c.071.037.325.013.383.168l-1.179,1.773-.99-.945-.82.788a1.137,1.137,0,0,0-.315.611l-.227.663a2.536,2.536,0,0,1,1.786-3.072" transform="translate(-180.162 -175.528)" fill="#7abb65"/>
        <path id="Trazado_1032581" data-name="Trazado 1032581" d="M224.5,204.053a1.368,1.368,0,0,1-1.363-.014,2.082,2.082,0,0,1,1.363.014" transform="translate(-191.347 -174.876)" fill="#81be69"/>
      </g>
    </g>
  </g>
</svg>
