<svg xmlns="http://www.w3.org/2000/svg" xmlns:xlink="http://www.w3.org/1999/xlink" width="98" height="98" viewBox="0 0 98 98">
  <defs>
    <clipPath id="clip-path">
      <rect id="Rectángulo_456277" data-name="Rectángulo 456277" width="98" height="98" transform="translate(0.31 0.309)" fill="#d35560"/>
    </clipPath>
    <clipPath id="clip-path-2">
      <rect id="Rectángulo_459925" data-name="Rectángulo 459925" width="46.712" height="55.096" fill="#fff"/>
    </clipPath>
  </defs>
  <g id="Grupo_1186023" data-name="Grupo 1186023" transform="translate(13435.691 12680.69)">
    <g id="Grupo_1179924" data-name="Grupo 1179924" transform="translate(-13436.001 -12681)">
      <g id="Grupo_1179923" data-name="Grupo 1179923" transform="translate(0 0)" clip-path="url(#clip-path)">
        <path id="Trazado_1004716" data-name="Trazado 1004716" d="M48.95,97.9c-1.59,0-3.077-1.816-4.627-1.968-1.579-.154-3.391,1.337-4.922,1.033-1.554-.309-2.657-2.381-4.153-2.835-1.513-.46-3.582.647-5.028.045s-2.134-2.855-3.515-3.6-3.636-.066-4.94-.94-1.533-3.214-2.747-4.212-3.552-.768-4.664-1.88-.88-3.448-1.88-4.664-3.335-1.438-4.212-2.747-.194-3.55-.94-4.94-2.99-2.057-3.6-3.515.505-3.515.046-5.028c-.455-1.5-2.527-2.6-2.835-4.153-.3-1.531,1.187-3.343,1.033-4.921C1.816,52.028,0,50.54,0,48.95s1.816-3.077,1.968-4.627C2.122,42.744.631,40.932.935,39.4c.308-1.554,2.38-2.657,2.835-4.153.46-1.513-.646-3.583-.045-5.029s2.855-2.133,3.6-3.515.066-3.636.94-4.94,3.214-1.533,4.212-2.747.768-3.552,1.881-4.664,3.448-.88,4.664-1.88,1.438-3.335,2.747-4.212,3.55-.194,4.94-.94,2.057-2.99,3.515-3.6,3.515.505,5.029.045c1.5-.454,2.6-2.527,4.153-2.835,1.531-.3,3.343,1.187,4.921,1.033C45.873,1.816,47.36,0,48.95,0s3.077,1.816,4.627,1.968C55.157,2.122,56.969.631,58.5.935c1.554.309,2.657,2.381,4.154,2.835,1.513.46,3.582-.647,5.028-.045s2.134,2.855,3.515,3.6,3.636.066,4.94.94,1.533,3.214,2.747,4.212,3.552.768,4.664,1.881.88,3.448,1.88,4.664,3.335,1.438,4.212,2.747.194,3.55.94,4.94,2.99,2.057,3.6,3.515-.505,3.515-.045,5.028c.455,1.5,2.527,2.6,2.835,4.153.3,1.531-1.187,3.343-1.033,4.922.152,1.551,1.968,3.038,1.968,4.627s-1.816,3.077-1.968,4.628c-.154,1.579,1.337,3.39,1.033,4.921-.308,1.554-2.38,2.657-2.835,4.154-.46,1.513.646,3.582.045,5.028s-2.855,2.134-3.6,3.515-.066,3.636-.94,4.94-3.214,1.533-4.212,2.747-.768,3.552-1.881,4.664-3.448.88-4.664,1.88-1.438,3.335-2.747,4.212-3.55.194-4.94.94-2.057,2.99-3.515,3.6-3.515-.505-5.028-.045c-1.5.454-2.6,2.527-4.153,2.835-1.531.3-3.343-1.187-4.921-1.033-1.551.151-3.038,1.968-4.628,1.968" transform="translate(0.359 0.359)" fill="#d35560"/>
        <path id="Trazado_1004717" data-name="Trazado 1004717" d="M14,58.32a44.32,44.32,0,1,1,44.32,44.32A44.32,44.32,0,0,1,14,58.32" transform="translate(-9.01 -9.011)" fill="#a2cbcf"/>
        <path id="Trazado_1021102" data-name="Trazado 1021102" d="M14,55.014A41.014,41.014,0,1,1,55.014,96.029,41.015,41.015,0,0,1,14,55.014" transform="translate(-5.706 -5.705)" fill="#952d36"/>
      </g>
    </g>
    <g id="Grupo_1180053" data-name="Grupo 1180053" transform="translate(-13413.503 -12658.826)">
      <rect id="Rectángulo_401104" data-name="Rectángulo 401104" width="53.625" height="54.271" transform="translate(0 0)" fill="none"/>
    </g>
    <g id="Grupo_1187687" data-name="Grupo 1187687" transform="translate(-13410.047 -12661.536)">
      <g id="Grupo_1187686" data-name="Grupo 1187686" clip-path="url(#clip-path-2)">
        <path id="Trazado_1032663" data-name="Trazado 1032663" d="M.023,50.425c0,3.07,1.48,4.643,4.556,4.667,2.056.016,4.113-.011,6.169-.011q13.017,0,26.035.007c2.653,0,4.424-1.481,4.558-3.813a15.559,15.559,0,0,0,0-1.85,1.678,1.678,0,0,1,.637-1.475c3.177-2.928,4.533-6.495,3.37-10.76-.342-1.254-.261-2.15.818-2.941.761-.558.7-1.221.022-1.864s-1.354-1.32-2.007-2a1.084,1.084,0,0,0-1.79-.043c-.256.263-.531.508-1.06,1.01V29.478c0-6.334.015-12.668,0-19a3.9,3.9,0,0,0-4.2-4.246c-1.6-.013-3.209-.024-4.812.018-.676.018-1.13-.076-1.372-.829a1.376,1.376,0,0,0-1.478-.886c-.657.017-1.322-.057-1.973.011a1.43,1.43,0,0,1-1.757-1.136A5.055,5.055,0,0,0,21.023.017C18.832-.13,16.817.646,16.039,2.68c-.724,1.894-1.871,2.012-3.432,1.857-.2-.02-.412.01-.617,0a1.485,1.485,0,0,0-1.715,1.081c-.163.586-.511.635-1.006.627Q6.8,6.207,4.334,6.223C1.525,6.24.053,7.726.006,10.57,0,11.187,0,11.8,0,12.421q.014,19,.022,38M42.635,32.582c.2-.2.375-.677.708-.472a9.57,9.57,0,0,1,1.307,1.162c-.226.272-.368.47-.537.642q-4.661,4.74-9.321,9.481c-.426.435-.735.526-1.205.034-1.134-1.187-2.293-2.355-3.5-3.473-.644-.6-.066-.831.245-1.137s.542-.9,1.1-.205A17.42,17.42,0,0,0,32.911,40.1c1.076,1.057,1.253,1.063,2.277.026q3.724-3.77,7.446-7.541m-2.811.43q-2.66,2.659-5.289,5.348c-.341.35-.578.34-.9,0-.6-.619-1.227-1.213-1.846-1.814a1.064,1.064,0,0,0-1.709.033c-.6.622-1.174,1.27-1.819,1.84a1.253,1.253,0,0,0-.024,2.152c1.574,1.505,3.1,3.06,4.673,4.567,1.144,1.1,1.409,1.055,2.527-.018,2.724-2.612,5.466-5.2,8.2-7.8a8.57,8.57,0,0,1-2.408,8.918A8.436,8.436,0,0,1,32.035,48.3a8.574,8.574,0,0,1-6.006-7.4A9.006,9.006,0,0,1,38.722,31.55c.339.137.638.37.967.537.494.251.538.524.136.927M31.938,7.961c1.764.066,3.531.008,5.3.027a2.067,2.067,0,0,1,2.244,1.957,2.362,2.362,0,0,1,.042.366q0,9.779,0,19.568c-1.908-.464-1.917-.464-1.92-2.229q-.014-7.7-.017-15.4c0-2.282-.006-2.281-2.218-2.282-1.15,0-2.3-.054-3.449.013-.9.053-.731-.512-.753-1.031-.024-.559-.078-1.02.773-.988M12.724,6.231c.9.051,1.809-.024,2.71.027A1.3,1.3,0,0,0,16.91,5.1c.507-2.141,1.879-3.419,3.709-3.438s3.163,1.107,3.73,3.275a1.555,1.555,0,0,0,1.841,1.335c1.05-.039,2.425-.472,3.08.186s.2,2.028.207,3.085c.024,2.388,0,2.39-2.325,2.392q-3.266,0-6.533,0c-2.629,0-5.259-.025-7.888.019-.719.012-.929-.218-.91-.9.037-1.314.048-2.631-.014-3.943-.035-.736.238-.918.917-.879m-2.4,6.663c.047.571.722.8,1.369.8q8.945-.019,17.89,0a1.367,1.367,0,0,0,1.55-1.242c.085-.632.33-.795.929-.762,1.185.064,2.72-.383,3.468.2.786.616.215,2.219.225,3.386.036,4.277,0,8.554.028,12.831,0,.67-.121.9-.856.911a10.763,10.763,0,0,0-5.4,20.06c.147.09.409.089.42.462H22.226c-2.55,0-5.1-.032-7.649.022-.782.017-.962-.209-.936-.965.061-1.807,0-3.618.024-5.428.012-1.125-.448-1.646-1.63-1.61-1.89.058-3.784-.015-5.675.032-.663.017-.815-.184-.814-.825q.025-14.126-.011-28.253c0-.639.168-.878.821-.824s1.315.014,1.973.018c.887.006,1.871-.276,1.992,1.186m1.5,35.125L6.859,43.3c1.6,0,2.979.021,4.357-.011.539-.012.606.275.6.684,0,1.385,0,2.77,0,4.042M1.806,10.432a2.119,2.119,0,0,1,2.379-2.44c1.728-.013,3.458.046,5.184-.026.925-.039.723.525.731,1.03.01.537.1,1.044-.779.991-1.394-.084-2.8,0-4.2-.031-.9-.021-1.347.242-1.344,1.259q.045,15.43.012,30.86a2.012,2.012,0,0,0,.687,1.506q3.534,3.533,7.085,7.049a2.328,2.328,0,0,0,1.767.7q11.356-.046,22.712-.042c.68,0,1.276-.016,1.626-.79.254-.563.966-.541,1.478-.758.338-.143.365.155.408.415a2.441,2.441,0,0,1-2.628,3.129q-13.517,0-27.033-.011-2.654,0-5.308,0c-2.01,0-2.763-.725-2.764-2.718q-.008-10,0-20H1.8q0-10.06,0-20.12" transform="translate(0 0)" fill="#fff"/>
        <path id="Trazado_1032664" data-name="Trazado 1032664" d="M42.433,113.641c-.026.615.458.814.983.883a5.673,5.673,0,0,0,.737.034q10.225.014,20.45.022c.715,0,1.539,0,1.5-.992-.039-.919-.837-.841-1.5-.841H54.378v-.008H47.6q-2.033,0-4.066.005c-.609,0-1.076.251-1.1.9" transform="translate(-33.635 -89.364)" fill="#fff"/>
        <path id="Trazado_1032665" data-name="Trazado 1032665" d="M62.608,89.337q4.259,0,8.518,0v-.006q4.259,0,8.518,0c.616,0,1.356.078,1.348-.826-.008-.833-.673-.9-1.334-.9q-8.518.006-17.036.005c-.67,0-1.442-.026-1.407.928.032.877.775.8,1.394.8" transform="translate(-48.522 -69.438)" fill="#fff"/>
        <path id="Trazado_1032666" data-name="Trazado 1032666" d="M59.784,137.992a1.863,1.863,0,0,0-1.07-.192q-7.324.02-14.649.027a6.785,6.785,0,0,0-.976.084.726.726,0,0,0-.6.69.808.808,0,0,0,.515.883,2.745,2.745,0,0,0,1.21.144h7.017v-.012q1.354,0,2.708,0c1.724,0,3.447.011,5.17,0a.981.981,0,0,0,1.05-.68.79.79,0,0,0-.376-.949" transform="translate(-33.672 -109.23)" fill="#fff"/>
        <path id="Trazado_1032667" data-name="Trazado 1032667" d="M55.262,163.407q-5.733,0-11.467,0c-.635,0-1.366,0-1.335.863.03.812.738.856,1.384.856q2.836,0,5.672,0v-.008c1.891,0,3.781.006,5.672,0,.614,0,1.342.059,1.375-.828s-.657-.878-1.3-.877" transform="translate(-33.656 -129.528)" fill="#fff"/>
        <path id="Trazado_1032668" data-name="Trazado 1032668" d="M91.131,20.6a2.176,2.176,0,0,0,2.184-2.184,2.222,2.222,0,0,0-2.186-2.205,2.337,2.337,0,0,0-2.214,2.075A2.258,2.258,0,0,0,91.131,20.6m-.488-2.322a.438.438,0,0,1,.53-.384.51.51,0,0,1,.441.438c-.113.3-.227.537-.514.528a.457.457,0,0,1-.457-.583" transform="translate(-70.479 -12.847)" fill="#fff"/>
      </g>
    </g>
  </g>
</svg>
