<svg xmlns="http://www.w3.org/2000/svg" xmlns:xlink="http://www.w3.org/1999/xlink" width="98" height="98" viewBox="0 0 98 98">
  <defs>
    <clipPath id="clip-path">
      <rect id="Rectángulo_456277" data-name="Rectángulo 456277" width="98" height="98" transform="translate(0.31 0.309)" fill="#d35560"/>
    </clipPath>
    <clipPath id="clip-path-2">
      <rect id="Rectángulo_459927" data-name="Rectángulo 459927" width="48.656" height="52.891" fill="#fff"/>
    </clipPath>
  </defs>
  <g id="Grupo_1186024" data-name="Grupo 1186024" transform="translate(13435.691 12680.69)">
    <g id="Grupo_1179924" data-name="Grupo 1179924" transform="translate(-13436.001 -12681)">
      <g id="Grupo_1179923" data-name="Grupo 1179923" transform="translate(0 0)" clip-path="url(#clip-path)">
        <path id="Trazado_1004716" data-name="Trazado 1004716" d="M48.95,97.9c-1.59,0-3.077-1.816-4.627-1.968-1.579-.154-3.391,1.337-4.922,1.033-1.554-.309-2.657-2.381-4.153-2.835-1.513-.46-3.582.647-5.028.045s-2.134-2.855-3.515-3.6-3.636-.066-4.94-.94-1.533-3.214-2.747-4.212-3.552-.768-4.664-1.88-.88-3.448-1.88-4.664-3.335-1.438-4.212-2.747-.194-3.55-.94-4.94-2.99-2.057-3.6-3.515.505-3.515.046-5.028c-.455-1.5-2.527-2.6-2.835-4.153-.3-1.531,1.187-3.343,1.033-4.921C1.816,52.028,0,50.54,0,48.95s1.816-3.077,1.968-4.627C2.122,42.744.631,40.932.935,39.4c.308-1.554,2.38-2.657,2.835-4.153.46-1.513-.646-3.583-.045-5.029s2.855-2.133,3.6-3.515.066-3.636.94-4.94,3.214-1.533,4.212-2.747.768-3.552,1.881-4.664,3.448-.88,4.664-1.88,1.438-3.335,2.747-4.212,3.55-.194,4.94-.94,2.057-2.99,3.515-3.6,3.515.505,5.029.045c1.5-.454,2.6-2.527,4.153-2.835,1.531-.3,3.343,1.187,4.921,1.033C45.873,1.816,47.36,0,48.95,0s3.077,1.816,4.627,1.968C55.157,2.122,56.969.631,58.5.935c1.554.309,2.657,2.381,4.154,2.835,1.513.46,3.582-.647,5.028-.045s2.134,2.855,3.515,3.6,3.636.066,4.94.94,1.533,3.214,2.747,4.212,3.552.768,4.664,1.881.88,3.448,1.88,4.664,3.335,1.438,4.212,2.747.194,3.55.94,4.94,2.99,2.057,3.6,3.515-.505,3.515-.045,5.028c.455,1.5,2.527,2.6,2.835,4.153.3,1.531-1.187,3.343-1.033,4.922.152,1.551,1.968,3.038,1.968,4.627s-1.816,3.077-1.968,4.628c-.154,1.579,1.337,3.39,1.033,4.921-.308,1.554-2.38,2.657-2.835,4.154-.46,1.513.646,3.582.045,5.028s-2.855,2.134-3.6,3.515-.066,3.636-.94,4.94-3.214,1.533-4.212,2.747-.768,3.552-1.881,4.664-3.448.88-4.664,1.88-1.438,3.335-2.747,4.212-3.55.194-4.94.94-2.057,2.99-3.515,3.6-3.515-.505-5.028-.045c-1.5.454-2.6,2.527-4.153,2.835-1.531.3-3.343-1.187-4.921-1.033-1.551.151-3.038,1.968-4.628,1.968" transform="translate(0.359 0.359)" fill="#d35560"/>
        <path id="Trazado_1004717" data-name="Trazado 1004717" d="M14,58.32a44.32,44.32,0,1,1,44.32,44.32A44.32,44.32,0,0,1,14,58.32" transform="translate(-9.01 -9.011)" fill="#a2cbcf"/>
        <path id="Trazado_1021102" data-name="Trazado 1021102" d="M14,55.014A41.014,41.014,0,1,1,55.014,96.029,41.015,41.015,0,0,1,14,55.014" transform="translate(-5.706 -5.705)" fill="#952d36"/>
      </g>
    </g>
    <g id="Grupo_1180053" data-name="Grupo 1180053" transform="translate(-13413.503 -12658.826)">
      <rect id="Rectángulo_401104" data-name="Rectángulo 401104" width="53.625" height="54.271" transform="translate(0 0)" fill="none"/>
    </g>
    <g id="Grupo_1187691" data-name="Grupo 1187691" transform="translate(-13411.019 -12657.445)">
      <g id="Grupo_1187690" data-name="Grupo 1187690" clip-path="url(#clip-path-2)">
        <path id="Trazado_1032682" data-name="Trazado 1032682" d="M28.427,174.5H44.048q7.868,0,15.735,0c1.605,0,1.771-.169,1.771-1.764q0-10.49-.007-20.98a6.681,6.681,0,0,0-.022-.8.529.529,0,0,0-.547-.477c-.33-.024-.629.055-.7.421a4.542,4.542,0,0,0-.064.9c0,6.727-.014,13.455.042,20.181.008,1-.227,1.26-1.235,1.257-10.033-.029-20.067,0-30.1.007-.19,0-.38-.006-.57,0-.379.006-.5-.18-.545-.553-.113-.839.255-.985,1.019-.983q13.967.038,27.935.017c1.746,0,1.909-.134,1.916-1.868.021-5.511.021-11.022.027-16.533,0-.722.008-1.444-.018-2.165a.64.64,0,0,0-.724-.692c-.434.016-.577.305-.6.685-.01.189,0,.38,0,.57.006,5.853-.006,11.706.036,17.559.006.858-.164,1.146-1.1,1.142-10.034-.037-20.068-.021-30.1-.021-.545,0-1.135.185-1.118-.788s.661-.65,1.095-.651q10.889-.022,21.778-.006,3.136,0,6.271,0c.784,0,1.575-.175,1.582-1.086.043-5.587.021-11.174.017-16.76a.576.576,0,0,0-.634-.639.618.618,0,0,0-.681.613,9.072,9.072,0,0,0-.016.911c0,4.865-.024,9.73.025,14.595.009.858-.2,1.053-1.049,1.05q-15.051-.047-30.1,0c-.852,0-1.07-.2-1.062-1.058.047-4.979.03-9.958.026-14.937,0-.5.162-1.189-.664-1.175-.791.014-.672.681-.672,1.194q0,7.7.02,15.393c0,1.547.335,1.922,1.868,1.864.823-.031,1.016.231,1,1.014-.039,1.648.138,1.831,1.716,1.777.776-.027,1.046.145,1.015.977-.063,1.683.11,1.8,1.818,1.8" transform="translate(-16.961 -121.614)" fill="#fff"/>
        <path id="Trazado_1032683" data-name="Trazado 1032683" d="M60.907,25.057c.938.043.667-.749.669-1.256.016-4.409.007-8.818.006-13.227,0-2.1-.045-2.166-2.152-2.241-.536-.019-.708-.159-.733-.708-.092-2.032-.114-2.043-2.15-2.125-.437-.017-.658-.049-.691-.6-.123-2.07-.214-2.127-2.273-2.134a6.6,6.6,0,0,0-1.025,0A4.064,4.064,0,0,1,48.26.936,2.341,2.341,0,0,0,46.084,0c-3.8.044-7.6.019-11.4.019V.005q-5.758,0-11.517,0c-1.785,0-2.121.318-2.122,2.113q-.007,10.776-.01,21.551a4.353,4.353,0,0,0,.1,1.009c.087.359.4.42.728.388a.507.507,0,0,0,.494-.524c.017-.3.015-.608.015-.912q0-10.662-.017-21.323c0-.669.058-1,.89-1q11.174.053,22.349,0c.731,0,.894.236.874.916-.05,1.709-.032,3.42-.031,5.131,0,1.736.427,2.168,2.121,2.171,1.634,0,3.273.067,4.9-.024.949-.053,1.093.3,1.086,1.138-.037,4.333-.014,8.666-.012,13,0,.266-.013.533.009.8a.684.684,0,0,0,.745.694.616.616,0,0,0,.591-.7c-.01-.342,0-.684,0-1.026,0-5.207.008-10.415-.016-15.622,0-.684.084-1.032.905-1,.838.034.653.56.654,1.017q.007,7.925,0,15.85c0,.3,0,.609.02.911a.541.541,0,0,0,.618.526.55.55,0,0,0,.619-.53c.032-.339.041-.682.041-1.023q0-6.442,0-12.885c0-.573-.123-1.108.816-1.1s.684.605.686,1.071c.02,4.371.017,8.742.04,13.113,0,.524-.223,1.282.647,1.322M48.128,8.216c-.393-.005-.425-.353-.424-.676,0-1.654,0-3.307,0-5.052l5.909,5.738c-2,0-3.743.013-5.486-.01m6.4-1.254-3.144-2.9c1.042,0,1.851.016,2.659-.007.433-.012.493.216.488.563-.01.795,0,1.589,0,2.341" transform="translate(-16.999 0)" fill="#fff"/>
        <path id="Trazado_1032684" data-name="Trazado 1032684" d="M.442,137.322a.5.5,0,0,0-.442.57.529.529,0,0,0,.425.592,6.581,6.581,0,0,0,.908.047q22.917,0,45.835,0a6.984,6.984,0,0,0,1.022-.049.555.555,0,0,0,.466-.568.533.533,0,0,0-.45-.574,5.373,5.373,0,0,0-.906-.059q-11.516,0-23.031,0v0q-11.459,0-22.918,0c-.3,0-.606.02-.908.048" transform="translate(0 -110.944)" fill="#fff"/>
        <path id="Trazado_1032685" data-name="Trazado 1032685" d="M73.332,93.538q-5.245-.009-10.49,0-5.188,0-10.376,0c-.511,0-1.207-.149-1.211.634,0,.743.662.695,1.194.694q10.432,0,20.865-.012c.536,0,1.2.057,1.215-.675.014-.786-.689-.641-1.2-.642" transform="translate(-41.425 -75.589)" fill="#fff"/>
        <path id="Trazado_1032686" data-name="Trazado 1032686" d="M73.461,115.118q-10.425.006-20.85.006c-.514,0-1.19-.119-1.164.69.025.784.691.656,1.208.657q5.127.007,10.254,0,5.3,0,10.6,0c.54,0,1.2.059,1.178-.688-.025-.705-.676-.67-1.222-.669" transform="translate(-41.58 -93.039)" fill="#fff"/>
        <path id="Trazado_1032687" data-name="Trazado 1032687" d="M74.128,177.29a.6.6,0,0,0,.577-.591.615.615,0,0,0-.511-.662,3.456,3.456,0,0,0-.9-.055q-5.121,0-10.243,0t-10.243,0a4.7,4.7,0,0,0-.9.065.537.537,0,0,0-.459.564.581.581,0,0,0,.491.659,5.355,5.355,0,0,0,.908.031q10.243,0,20.485,0c.265,0,.531,0,.8-.016" transform="translate(-41.58 -142.228)" fill="#fff"/>
        <path id="Trazado_1032688" data-name="Trazado 1032688" d="M52.624,155.656q5.183.008,10.367,0,5.24,0,10.48,0c.544,0,1.21.036,1.2-.684-.014-.7-.68-.664-1.223-.664q-10.423,0-20.847,0c-.5,0-1.185-.158-1.167.672.018.795.676.671,1.193.671" transform="translate(-41.566 -124.707)" fill="#fff"/>
        <path id="Trazado_1032689" data-name="Trazado 1032689" d="M58.055,197.929v.01c-1.861,0-3.722-.007-5.583,0-.474,0-1.094-.111-1.077.647.015.652.562.608,1.017.608q5.7,0,11.393,0c.469,0,1.024,0,1.034-.6.011-.679-.586-.668-1.088-.668q-2.848,0-5.7,0" transform="translate(-41.538 -159.967)" fill="#fff"/>
        <path id="Trazado_1032690" data-name="Trazado 1032690" d="M52.6,73.194c1.824.011,3.647,0,5.471,0v-.015c1.862,0,3.723,0,5.585,0,.519,0,1.208.107,1.194-.658-.012-.693-.671-.577-1.148-.578q-5.585-.008-11.171,0c-.456,0-1.12-.169-1.123.587,0,.81.683.654,1.19.657" transform="translate(-41.551 -58.138)" fill="#fff"/>
      </g>
    </g>
  </g>
</svg>
