<svg xmlns="http://www.w3.org/2000/svg" xmlns:xlink="http://www.w3.org/1999/xlink" width="84" height="84" viewBox="0 0 84 84">
  <defs>
    <clipPath id="clip-path">
      <rect id="Rectángulo_459930" data-name="Rectángulo 459930" width="56.289" height="56.273" fill="none"/>
    </clipPath>
  </defs>
  <g id="Grupo_1186028" data-name="Grupo 1186028" transform="translate(-320 -5775)">
    <rect id="Rectángulo_456614" data-name="Rectángulo 456614" width="84" height="84" transform="translate(320 5775)" fill="#f2a4ab"/>
    <g id="Grupo_1187697" data-name="Grupo 1187697" transform="translate(333.855 5788.862)">
      <g id="Grupo_1187696" data-name="Grupo 1187696" transform="translate(0 0.001)" clip-path="url(#clip-path)">
        <path id="Trazado_1032773" data-name="Trazado 1032773" d="M39.876,10.437q-.141.187.278.063a.412.412,0,0,1,.8.123A27.116,27.116,0,0,1,59,39.783a.869.869,0,0,1-.152.336,2.033,2.033,0,0,1-.26.32l-.589,0q-1.53-.8-3.142-1.456C56.595,24.114,41.088,12.972,27.7,20.256a18.5,18.5,0,0,0,1.038,32.979,16.392,16.392,0,0,0,4.3,1.392A28.471,28.471,0,0,0,39,54.857a14.717,14.717,0,0,0,4.147,6.336c.579.74.576.822-.423,1.1a26.442,26.442,0,0,1-19.571-2.838.71.71,0,0,1-.7.413,5.282,5.282,0,0,0-1.613-.993l-.11-.379a2.5,2.5,0,0,0-3.652-3.318l-.386-.075a12.964,12.964,0,0,0-1.31-1.309q-.212-.392.369-.732a25.169,25.169,0,0,1-4.3-7.632,18.308,18.308,0,0,1-1.157-4.4,1.7,1.7,0,0,1,.191-.8q.165-.268.019-.141a2.241,2.241,0,0,1-.261-.353c-.465-.813-.465-5.727,0-6.541a2.244,2.244,0,0,1,.261-.353q.241.367-.02-.141a1.7,1.7,0,0,1-.191-.8,18.35,18.35,0,0,1,1.157-4.4,25.648,25.648,0,0,1,4.29-7.636c-.271-.185-.488-.347-.355-.729a7.05,7.05,0,0,0,1.252-1.366l.387-.062a2.5,2.5,0,0,0,3.75-3.214l.125-.371,1.593-.938a.519.519,0,0,1,.556.321,26.872,26.872,0,0,1,16.078-3.483,1.105,1.105,0,0,1,.381.146,2.33,2.33,0,0,1,.368.255" transform="translate(-8.347 -8.338)" fill="#3d8fcf"/>
        <path id="Trazado_1032774" data-name="Trazado 1032774" d="M218.059,15.916l1.509,1.135.126.369a2.509,2.509,0,0,0,3.711,3.266l.389.07a14.508,14.508,0,0,0,1.3,1.294,2.75,2.75,0,0,1-.778.673,26.305,26.305,0,0,1,5.7,13.055q-.161.207-.022.138a25.292,25.292,0,0,1-.671,10.39,12.976,12.976,0,0,0-3.224-2.951,27,27,0,0,0-17.2-29.412c-.243-.092-.459-.1-.444-.4a2.015,2.015,0,0,1,.383-.151.949.949,0,0,1,.365-.042,24.852,24.852,0,0,1,8.2,3.117q.207-.652.66-.547" transform="translate(-175.853 -11.254)" fill="#3688be"/>
        <path id="Trazado_1032775" data-name="Trazado 1032775" d="M7.038,66.335a5.1,5.1,0,0,0,.786.656,26.221,26.221,0,0,0-5.687,12.9l.02.141a24.354,24.354,0,0,0,0,7.246l-.019.141a26.239,26.239,0,0,0,5.686,12.9c-.351.247-.552.471-.786.656l-.659.519a28.138,28.138,0,0,1,0-35.682c.214.257.489.343.659.52" transform="translate(0 -55.522)" fill="#040504"/>
        <path id="Trazado_1032776" data-name="Trazado 1032776" d="M115.988,4.662c-.174.316-.328.579-.525.962a25.611,25.611,0,0,0-9.079-3.34c-.274-.041-.526-.062-.8-.123q-.265.143-.278-.063A26.159,26.159,0,0,0,88.456,5.6a2.253,2.253,0,0,1-.528-.739l-.467-.868a28.143,28.143,0,0,1,28.9,0Z" transform="translate(-73.781 0)" fill="#040505"/>
        <path id="Trazado_1032777" data-name="Trazado 1032777" d="M198.375,13.422l.278.063a.673.673,0,0,1-.875.065,2.8,2.8,0,0,1,.6-.127" transform="translate(-166.846 -11.323)" fill="#4597d4"/>
        <path id="Trazado_1032778" data-name="Trazado 1032778" d="M13.662,199.548a.384.384,0,0,1,.019-.141l.068-.677a.54.54,0,0,1-.087.818" transform="translate(-11.524 -167.649)" fill="#4496d3"/>
        <path id="Trazado_1032779" data-name="Trazado 1032779" d="M13.678,155.963a.385.385,0,0,1-.02-.141.541.541,0,0,1,.089.818,2.11,2.11,0,0,1-.069-.677" transform="translate(-11.521 -131.452)" fill="#4396d3"/>
        <path id="Trazado_1032780" data-name="Trazado 1032780" d="M52.967,298.518a2.809,2.809,0,1,1-4.148-3.773,2.831,2.831,0,0,1,3.907-.02,2.8,2.8,0,0,1,.241,3.793" transform="translate(-40.472 -247.98)" fill="#040505"/>
        <path id="Trazado_1032781" data-name="Trazado 1032781" d="M60.613,306.01a.909.909,0,0,1,1.194.547.931.931,0,0,1-1.7.752.923.923,0,0,1,.506-1.3" transform="translate(-50.621 -258.1)" fill="#fbcf6d"/>
        <path id="Trazado_1032782" data-name="Trazado 1032782" d="M280.734,34.746a2.818,2.818,0,1,1-.107-4.117,2.809,2.809,0,0,1,.107,4.117" transform="translate(-232.792 -25.245)" fill="#040505"/>
        <path id="Trazado_1032783" data-name="Trazado 1032783" d="M288.672,42.01a.916.916,0,0,1,1.138.568.93.93,0,1,1-1.747.641.918.918,0,0,1,.609-1.209" transform="translate(-242.965 -35.408)" fill="#fbcf6d"/>
        <path id="Trazado_1032784" data-name="Trazado 1032784" d="M53.033,31.053a2.81,2.81,0,1,1-4.024-.482,2.809,2.809,0,0,1,4.024.482" transform="translate(-40.48 -25.254)" fill="#040505"/>
        <path id="Trazado_1032785" data-name="Trazado 1032785" d="M60.674,42.007a.918.918,0,0,1,1.138.569.93.93,0,1,1-1.746.641.917.917,0,0,1,.609-1.209" transform="translate(-50.625 -35.407)" fill="#fbcf6d"/>
        <path id="Trazado_1032786" data-name="Trazado 1032786" d="M100.883,82.607l.6.03q1.329,1.028,2.512,2.124a24.989,24.989,0,0,0,.559-8.849.722.722,0,0,0,.223-.744c-.069-.045-.056-.091.022-.138l-.424-.7a26.005,26.005,0,0,0-4.16-10.337q-2.329-2.565-.338-2.69l.694-.478A28.094,28.094,0,0,1,105.449,87.6a13.137,13.137,0,0,1-17.657,17.688,28.031,28.031,0,0,1-23.438-2.493l.394-.752a5.079,5.079,0,0,0,.5-.891,26.1,26.1,0,0,0,20.431,2.817,13.182,13.182,0,0,1-4.523-6.714,18.51,18.51,0,0,1-5.811-.151c-.275.171-.471-.014-.639-.113a18.779,18.779,0,1,1,22.67-15.975,13.708,13.708,0,0,1,3.505,1.6" transform="translate(-50.64 -50.507)" fill="#040504"/>
        <path id="Trazado_1032787" data-name="Trazado 1032787" d="M344.96,156.942l-.039.687c-.274-.215-.23-.765.062-.825a.375.375,0,0,1-.022.138" transform="translate(-290.821 -132.28)" fill="#3b90c9"/>
        <path id="Trazado_1032788" data-name="Trazado 1032788" d="M79.468,120.538l-7.511.017a16.718,16.718,0,0,1,3.909-9.894,20.044,20.044,0,0,0,4.428,3.127,33.339,33.339,0,0,0-.825,6.75" transform="translate(-60.703 -93.354)" fill="#68a652"/>
        <path id="Trazado_1032789" data-name="Trazado 1032789" d="M72.087,186.786c.158-.156.179-.523-.035-.575-.05-.084-.13-.156-.058-.314l7.476,0a33.693,33.693,0,0,0,.8,6.768,18.566,18.566,0,0,0-4.367,3.117,16.612,16.612,0,0,1-3.818-9" transform="translate(-60.71 -156.823)" fill="#68a652"/>
        <path id="Trazado_1032790" data-name="Trazado 1032790" d="M138.57,141.693l-6.558.014a34.588,34.588,0,0,1,.663-5.97,18.367,18.367,0,0,0,5.893,1.271Z" transform="translate(-111.366 -114.508)" fill="#68a652"/>
        <path id="Trazado_1032791" data-name="Trazado 1032791" d="M138.563,190.59a18.27,18.27,0,0,0-5.851,1.26,32.04,32.04,0,0,1-.714-5.945h6.555Z" transform="translate(-111.354 -156.83)" fill="#68a652"/>
        <path id="Trazado_1032792" data-name="Trazado 1032792" d="M185.943,141.885l-.021-4.676,2.27-.193c1.2-.385,2.341-.548,3.581-1.071a32.2,32.2,0,0,1,.712,5.937Z" transform="translate(-156.844 -114.683)" fill="#68a652"/>
        <path id="Trazado_1032793" data-name="Trazado 1032793" d="M143.747,227.991a.453.453,0,0,0,.577-.013c0-.157.293-.162.293-.093l0,9.191c-3-1.1-4.535-4.945-5.431-7.946a13.1,13.1,0,0,1,4.556-1.139" transform="translate(-117.422 -192.209)" fill="#68a652"/>
        <path id="Trazado_1032794" data-name="Trazado 1032794" d="M142.878,81.831l-.134.008a15.892,15.892,0,0,1-3.549-1c.9-3,2.421-6.831,5.428-7.941l.007,9.162a5.9,5.9,0,0,1-1.753-.224" transform="translate(-117.425 -61.493)" fill="#68a652"/>
        <path id="Trazado_1032795" data-name="Trazado 1032795" d="M187.82,81.849q-.517-.244-.143-.014a6.067,6.067,0,0,1-1.746.223l.007-9.162c3.006,1.1,4.525,4.94,5.428,7.939a15.986,15.986,0,0,1-3.547,1.013" transform="translate(-156.852 -61.496)" fill="#68a652"/>
        <path id="Trazado_1032796" data-name="Trazado 1032796" d="M237.691,119.333a1.15,1.15,0,0,1,.555.351c.853,1.218,2.777,6.7,2.128,7.9a1.542,1.542,0,0,1-.209.284l-4.488,0a35.881,35.881,0,0,0-.784-6.8,13.261,13.261,0,0,0,2.8-1.737" transform="translate(-198.155 -100.67)" fill="#68a652"/>
        <path id="Trazado_1032797" data-name="Trazado 1032797" d="M192.25,189.439a12.44,12.44,0,0,0-2.1,1.9,17.219,17.219,0,0,0-4.2-.747V185.9l6.556,0a27.786,27.786,0,0,1-.256,3.54" transform="translate(-156.867 -156.825)" fill="#68a652"/>
        <path id="Trazado_1032798" data-name="Trazado 1032798" d="M255.26,120.648a16.817,16.817,0,0,0-2.474-8.536l1.547-1.339a16.526,16.526,0,0,1,3.947,9.863Z" transform="translate(-213.251 -93.448)" fill="#558445"/>
        <path id="Trazado_1032799" data-name="Trazado 1032799" d="M108.986,83.362a14.892,14.892,0,0,1-3.568-2.595,16.53,16.53,0,0,1,6.722-3.919,18.722,18.722,0,0,0-3.153,6.513" transform="translate(-88.931 -64.83)" fill="#67a652"/>
        <path id="Trazado_1032800" data-name="Trazado 1032800" d="M112.111,247.8a16.216,16.216,0,0,1-6.678-3.9,16.822,16.822,0,0,1,3.543-2.593,18.784,18.784,0,0,0,3.135,6.493" transform="translate(-88.943 -203.566)" fill="#67a652"/>
        <path id="Trazado_1032801" data-name="Trazado 1032801" d="M186.906,236.653a1.381,1.381,0,0,1-1,.521l.006-9.185a12.715,12.715,0,0,1,2.991.443,12.992,12.992,0,0,0-2,8.221" transform="translate(-156.831 -192.332)" fill="#67a552"/>
        <path id="Trazado_1032802" data-name="Trazado 1032802" d="M217.447,82.4l-.556-.243a25.174,25.174,0,0,0-3.807-3.7c-.236-.392-.67-.7-.7-1.173a16.493,16.493,0,0,1,6.563,3.835,9.973,9.973,0,0,1-1.5,1.281" transform="translate(-179.165 -65.195)" fill="#558344"/>
        <path id="Trazado_1032803" data-name="Trazado 1032803" d="M221.242,88.723a13.1,13.1,0,0,1-2.063,1.342,18.757,18.757,0,0,0-2.3-5.285,1.127,1.127,0,0,1,.4.1,14.379,14.379,0,0,1,3.967,3.843" transform="translate(-182.96 -71.521)" fill="#67a552"/>
        <path id="Trazado_1032804" data-name="Trazado 1032804" d="M243.915,185.927c.538.061.378.951-.117.971a13.873,13.873,0,0,0-4.619,1.279l.111-2.26Z" transform="translate(-201.772 -156.839)" fill="#67a552"/>
        <path id="Trazado_1032805" data-name="Trazado 1032805" d="M268.711,186.911a2.668,2.668,0,0,0,.117-.971l2.843-.009a3.006,3.006,0,0,1-.118,1.062,13.329,13.329,0,0,0-2.841-.083" transform="translate(-226.685 -156.852)" fill="#548243"/>
        <path id="Trazado_1032806" data-name="Trazado 1032806" d="M72.554,187.854a.889.889,0,0,0-.035-.575c.168-.282.368.023.179.125.14.272.011.465-.145.45" transform="translate(-61.177 -157.891)" fill="#6fb258"/>
        <path id="Trazado_1032807" data-name="Trazado 1032807" d="M193.605,128.921l-.143-.014a2.035,2.035,0,0,1-.673-.074.554.554,0,0,1,.816.088" transform="translate(-162.637 -108.568)" fill="#6fb158"/>
        <path id="Trazado_1032808" data-name="Trazado 1032808" d="M168.885,228.709c.267.131-.037.33-.139.142-.271.14-.465.011-.438-.129Z" transform="translate(-141.983 -192.94)" fill="#6fb258"/>
        <path id="Trazado_1032809" data-name="Trazado 1032809" d="M162.019,128.909l-.134.008a.561.561,0,0,1,.815-.081Z" transform="translate(-136.566 -108.571)" fill="#6fb258"/>
        <path id="Trazado_1032810" data-name="Trazado 1032810" d="M232.73,204.069c1.248.5,3.556,1.861,4.111,3.1a.8.8,0,0,1-.013.532l-.145.313-12.935.006q-.6.3-.844-.09a.944.944,0,0,1,.259-.6,11.211,11.211,0,0,1,9.567-3.261" transform="translate(-188.043 -172.063)" fill="#dadada"/>
        <path id="Trazado_1032811" data-name="Trazado 1032811" d="M236.5,322.2l0,.548a9.361,9.361,0,0,1-3.977,3.06,11.113,11.113,0,0,1-2.9.047q.069-.233-.414-.053a10.712,10.712,0,0,1-6.689-3.607l.124-.314q6.824-.006,13.675.007Z" transform="translate(-187.715 -271.538)" fill="#dadada"/>
        <path id="Trazado_1032812" data-name="Trazado 1032812" d="M206.882,244.1c-.16-.2-.251-.242-.42-.454a11.273,11.273,0,0,1,0-14.109.448.448,0,0,1,.478-.223q.415.157.163.76v13.055q.383.9-.226.97" transform="translate(-172.081 -193.442)" fill="#dadada"/>
        <path id="Trazado_1032813" data-name="Trazado 1032813" d="M330.584,234.023q-.233,1.1.045.422a10.909,10.909,0,0,1,.023,2.606q-.221.043-.054.4a10.848,10.848,0,0,1-2.6,5.684c-.195.2-.3.124-.215-.136a1.5,1.5,0,0,1-.165-1.277V229.743a1.184,1.184,0,0,1,.17-1.145c-.177-.208-.1-.292.161-.2a10.245,10.245,0,0,1,2.635,5.63" transform="translate(-276.326 -192.644)" fill="#b9b8b8"/>
        <path id="Trazado_1032814" data-name="Trazado 1032814" d="M293.35,321.025a10.987,10.987,0,0,1-6.864,3.776c-.025-.181.1-.3.3-.4a9.965,9.965,0,0,0,3.677-3.2l.172-.312a5.27,5.27,0,0,0,2.206-.2l.292.2c.043-.023.163.062.215.136" transform="translate(-241.677 -270.531)" fill="#b8b7b7"/>
        <path id="Trazado_1032815" data-name="Trazado 1032815" d="M292.664,208.387a.362.362,0,0,1-.161.2.552.552,0,0,1-.716.018l-1.751-.015-.211-.314a9.942,9.942,0,0,0-3.672-3.214.966.966,0,0,1-.425-.422,11.092,11.092,0,0,1,6.936,3.743" transform="translate(-241.041 -172.638)" fill="#b8b7b7"/>
        <path id="Trazado_1032816" data-name="Trazado 1032816" d="M346.011,265c-.032.126.035.254-.11.43a.708.708,0,0,1,.065-.853Z" transform="translate(-291.707 -223.194)" fill="#c4c4c4"/>
        <path id="Trazado_1032817" data-name="Trazado 1032817" d="M346.041,282.107l-.054.4c-.232-.118-.244-.509-.081-.743.141.175.082.306.135.339" transform="translate(-291.714 -237.7)" fill="#c4c4c4"/>
        <path id="Trazado_1032818" data-name="Trazado 1032818" d="M265.7,345.991l-.414-.053a.541.541,0,0,1,.748-.08c-.172.146-.3.08-.335.133" transform="translate(-223.795 -291.674)" fill="#e7e7e7"/>
        <path id="Trazado_1032819" data-name="Trazado 1032819" d="M236.035,227.892l1.878.011a1.712,1.712,0,0,1,.8.3,4.18,4.18,0,0,1,.143,1.261v11.869a3.986,3.986,0,0,1-.148,1.275,2.5,2.5,0,0,1-1.261.314l-1.409-.01-13.121-.013-.866.007c.186-.391-.086-.661-.086-.952V228.847l.147-.726.806-.218Z" transform="translate(-187.25 -192.25)" fill="#040504"/>
        <path id="Trazado_1032820" data-name="Trazado 1032820" d="M245.258,239.938l.312.147-.065,7.4a2.169,2.169,0,0,1-2.188,2.115l-9.188-.054-.186-.314-.01-9.313h3.752l.005,4.683a.944.944,0,0,0,.942.945l3.744,0a.923.923,0,0,0,.936-.94l.009-4.674Z" transform="translate(-197.346 -202.399)" fill="#b27749"/>
        <path id="Trazado_1032821" data-name="Trazado 1032821" d="M233.995,249.31l9.368.055a1.9,1.9,0,0,0,1.89-2.02l.058-7.334,1.813,0v11.248H234.008Z" transform="translate(-197.399 -202.472)" fill="#9d6643"/>
        <path id="Trazado_1032822" data-name="Trazado 1032822" d="M271.833,243.679l-1.884.014v-3.73l1.876,0Z" transform="translate(-227.729 -202.433)" fill="#e2e4e3"/>
      </g>
    </g>
  </g>
</svg>
