<svg id="Grupo_1186075" data-name="Grupo 1186075" xmlns="http://www.w3.org/2000/svg" width="84" height="84" viewBox="0 0 84 84">
  <rect id="Rectángulo_456489" data-name="Rectángulo 456489" width="84" height="84" rx="10" fill="#f2a4ab"/>
  <g id="Grupo_1180557" data-name="Grupo 1180557" transform="translate(17 8)">
    <g id="Grupo_1180556" data-name="Grupo 1180556" transform="translate(1.309 1.302)">
      <path id="Trazado_1022681" data-name="Trazado 1022681" d="M111.954,42.158h38.978a1.916,1.916,0,0,1,.25-1.5c2.593-3.866.779-5.653-1.809-5.924-2.058-.215-4.4-.077-4.889-.832-1.73-2.7-3.177-3.229-4.806-3.4-10.955-1.134-5.052-5.23-8.426-6.968-4.1-2.113,2.083-9.357,6.542-9.546,2.922-.124-.565-8.022-7.761-1.405-1.219,1.121-5.115,2.2-7.246,2.828-2.456.721-1.17,1.671-3.207,4.724-1.964,2.943-1.706.3-2.629,2.124-1.159,2.287-2.228,2.561-3.085,2.627-2.4.186-4.628,4.425-2.986,6.757,1.8,2.558.581,9.051.827,9.65A4.318,4.318,0,0,1,111.954,42.158Z" transform="translate(-105.818 -9.943)" fill="#ffc144" fill-rule="evenodd"/>
      <path id="Trazado_1022682" data-name="Trazado 1022682" d="M121.086,255.943H82.109c.474,2.612-.994,6.265-3.176,6.395-4.155.247-1.25,2.077-2.619,2.907-1.29.782,1.445,3.22,1.914,3.2,2.931-.116,5.8,5.69,7.47,2.823.208-.358,1.855.079,3.636.781h23c.648-1.491,2.2-.836,2.779-1.954,1.008-1.944-1.26-3.619.165-4.473,2.825-1.692,4.474,2.9,7.131,1.329,2.286-1.355-1.8-5.5-.526-6.919.918-1.024-.5-2.6-.794-4.09Z" transform="translate(-75.972 -223.728)" fill="#60a4ff" fill-rule="evenodd"/>
      <path id="Trazado_1022683" data-name="Trazado 1022683" d="M201.02,378.943H178.025c2.241.883,4.7,2.186,4.779,2.854.313,2.558,1.938,1.05,1.9,2.182-.08,2.689,1.93,1.711,2.036,2.483.5,3.643,5.155,1.813,6.3,1.68,5.381-.629,2.89,7.43,6.119,6.882s1.5-4.466,1.986-7.738c.334-2.264,1.352-2.479.655-5.022-.445-1.626-1.292-2.081-.8-3.274Z" transform="translate(-164.661 -330.621)" fill="#ff5a58" fill-rule="evenodd"/>
    </g>
    <path id="Trazado_1022684" data-name="Trazado 1022684" d="M113.61,203.563a1.31,1.31,0,0,0,1.31-1.31h0a1.31,1.31,0,1,0-1.31,1.31Z" transform="translate(-106.234 -174.63)"/>
    <path id="Trazado_1022685" data-name="Trazado 1022685" d="M115.7,42.706a10.392,10.392,0,0,0-.843-2.559,7.771,7.771,0,0,1-.608-1.758c1.057-1.288.366-2.836-.1-3.869-.376-.843-.627-1.463-.417-1.777,1.468-2.189,1.851-4.07,1.138-5.593a4.544,4.544,0,0,0-3.9-2.363c-.588-.061-1.18-.095-1.752-.127a12.034,12.034,0,0,1-2.261-.25c-1.9-2.9-3.65-3.643-5.683-3.853-3.527-.365-4.926-1.027-5.479-1.518-.461-.409-.493-.833-.518-1.678a3.652,3.652,0,0,0-1.965-3.634c-.481-.248-.764-.586-.579-1.428.493-2.238,3.977-5.536,6.576-5.645A2.285,2.285,0,0,0,101.524,4.9,4.11,4.11,0,0,0,99.415.687C98.264,0,95.1-1.148,90.616,2.978c-.912.839-4.537,1.9-6.278,2.4l-.45.132a3.449,3.449,0,0,0-2.77,2.76,8.374,8.374,0,0,1-1.158,2.493,6.517,6.517,0,0,1-.653.857c-1.25-.186-1.827.952-2.054,1.4-.928,1.83-1.584,1.88-2.018,1.914a4.723,4.723,0,0,0-3.266,1.974,6.7,6.7,0,0,0-1.42,5.039,1.31,1.31,0,0,0,2.582-.441,4.136,4.136,0,0,1,.9-2.988,2.275,2.275,0,0,1,1.4-.973c1.179-.091,2.707-.545,4.107-3.253,1-.031,1.782-.858,2.595-2.076a10.951,10.951,0,0,0,1.485-3.185c.239-.785.239-.785,1-1.009l.446-.13c3.138-.915,6.059-1.833,7.318-2.991,2.226-2.047,4.287-2.771,5.654-1.988a1.934,1.934,0,0,1,.922,1.136,9.99,9.99,0,0,0-5.407,2.613,10.156,10.156,0,0,0-3.373,5.07,3.662,3.662,0,0,0,1.938,4.319c.46.237.516.379.546,1.383A4.472,4.472,0,0,0,94.065,21c1.257,1.116,3.465,1.8,6.949,2.165,1.2.124,2.311.42,3.839,2.8.715,1.114,2.266,1.2,4.229,1.311.542.03,1.1.062,1.626.117a2.183,2.183,0,0,1,1.8.869c.284.606-.059,1.708-.941,3.023a3.031,3.031,0,0,0-.421.924H73.425a1.31,1.31,0,0,0-1.288,1.544,5.812,5.812,0,0,1-1,4.194,1.57,1.57,0,0,1-.964.659c-1.665.1-2.61.445-3.159,1.157a2.438,2.438,0,0,0-.333,2.088l.007.037a2.021,2.021,0,0,0-.6,2.214c.368,1.222,2.24,3.283,3.512,3.227h.036c.772,0,1.888.953,2.787,1.721,1.218,1.041,2.373,2.023,3.708,1.885h.044a1.3,1.3,0,0,0,.68-.192,2.618,2.618,0,0,0,.893-.676,18.121,18.121,0,0,1,3.241,1.112,14.118,14.118,0,0,1,3.187,1.738,2.625,2.625,0,0,0,1.878,2.417,2.756,2.756,0,0,0,2.157,2.629,3.562,3.562,0,0,0,1.413,2.046c1.711,1.17,4.12.6,5.56.253.25-.059.533-.127.64-.139,1.609-.189,2.021.528,2.6,3.089a8.823,8.823,0,0,0,.794,2.449,2.541,2.541,0,0,0,2.27,1.38,3.14,3.14,0,0,0,.525-.046,3.4,3.4,0,0,0,2.905-2.53,10.607,10.607,0,0,0,.146-3.434,14.46,14.46,0,0,1,.012-2.875,6.829,6.829,0,0,1,.444-1.579,5.446,5.446,0,0,0,.18-3.98,8.736,8.736,0,0,0-.653-1.641c-.287-.58-.282-.592-.2-.79.094-.228.145-.272.719-.441a2.967,2.967,0,0,0,2.03-1.454,4.363,4.363,0,0,0,.008-3.657c-.042-.124-.094-.274-.131-.4.532-.228.985-.012,2.075.724,1.127.761,2.829,1.911,4.85.713a2.763,2.763,0,0,0,1.312-2.948ZM103.065,55.649a9.375,9.375,0,0,0-.586,2.127,16.632,16.632,0,0,0-.035,3.415c.165,2.745-.031,3.081-.875,3.224l-.049.007a7,7,0,0,1-.547-1.782,9.466,9.466,0,0,0-1.259-3.424,4.045,4.045,0,0,0-3.482-1.735,6.143,6.143,0,0,0-.715.043,8.758,8.758,0,0,0-.943.193c-.883.21-2.721.648-3.475.133a1.137,1.137,0,0,1-.429-.884,1.866,1.866,0,0,0-1.639-1.5,2.281,2.281,0,0,1-.31-.083,1.66,1.66,0,0,1-.076-.687,1.727,1.727,0,0,0-1.731-1.861l-.072-.008a2.245,2.245,0,0,1-.11-.51,2.116,2.116,0,0,0-.856-1.385h16.359a5.032,5.032,0,0,0,.458,1.184,6.2,6.2,0,0,1,.475,1.173A2.938,2.938,0,0,1,103.065,55.649Zm10.047-12.29a.241.241,0,0,1-.058.042c-.5.3-.824.2-2.048-.63-1.17-.79-2.937-1.984-5.088-.7-1.627.974-1.068,2.606-.8,3.39.239.7.374,1.149.149,1.6a2.856,2.856,0,0,1-.447.155,3.6,3.6,0,0,0-1.894,1.1H80.9a17.527,17.527,0,0,0-2.562-.8c-.5-.1-1.844-.379-2.453.668a1.278,1.278,0,0,1-.079.122,8.964,8.964,0,0,1-1.683-1.248c-1.248-1.066-2.652-2.266-4.311-2.345a5.2,5.2,0,0,1-1.077-1.1,2.349,2.349,0,0,0,.519-2.255,5.956,5.956,0,0,1,1.074-.141A3.959,3.959,0,0,0,73.2,39.564a8.423,8.423,0,0,0,1.622-4.736h36.623c.106.274.221.53.324.761a5.109,5.109,0,0,1,.428,1.178c-1.088,1.255-.373,2.93.258,4.409a6.037,6.037,0,0,1,.662,2.184Z" transform="translate(-65.98 -0.001)"/>
  </g>
</svg>
