<svg xmlns="http://www.w3.org/2000/svg" xmlns:xlink="http://www.w3.org/1999/xlink" width="84" height="84" viewBox="0 0 84 84">
  <defs>
    <clipPath id="clip-path">
      <rect id="Rectángulo_459939" data-name="Rectángulo 459939" width="58.289" height="58.272" fill="none"/>
    </clipPath>
  </defs>
  <g id="Grupo_1186081" data-name="Grupo 1186081" transform="translate(-320 -5775)">
    <rect id="Rectángulo_456614" data-name="Rectángulo 456614" width="84" height="84" transform="translate(320 5775)" fill="#f2a4ab"/>
    <g id="Grupo_1187713" data-name="Grupo 1187713" transform="translate(332.855 5787.864)">
      <g id="Grupo_1187712" data-name="Grupo 1187712" clip-path="url(#clip-path)">
        <path id="Trazado_1032991" data-name="Trazado 1032991" d="M49.134,23.475q.214.4-.009.224l8.583,8.593.465.23a2.113,2.113,0,0,1,.116.666l0,18.265a.953.953,0,0,1-.971.991l-2.917.023a5.825,5.825,0,0,1-11.649-.009H15.538a5.824,5.824,0,0,1-11.649.01L.972,52.447A.962.962,0,0,1,0,51.463V39.829c0-.7.587-1.034,1.279-.985l.55-12.286-1.8-1.881L.048,19.85l2.859-2.885.008-5.807L0,8.2.1,3.432A23.819,23.819,0,0,1,3.436.086L8.213,0l2.965,2.912L21.5,2.924a.921.921,0,0,1,.833.948V7.755a.955.955,0,0,1-.972.974l-4.844.014.017,1.947c.429-.014,1-.087,1.323.258l2.5,2.658a15.514,15.514,0,0,1,0,3.851L17.905,20.1l-1.379-1.378,1.851-2a5.256,5.256,0,0,0-.028-2.4,5.674,5.674,0,0,0-1.6-1.609,5.525,5.525,0,0,0-2.424-.005,5.8,5.8,0,0,0-1.593,1.617,5.209,5.209,0,0,0-.031,2.392l1.889,2.022L13.18,20.089l-2.4-2.562a13.15,13.15,0,0,1,.023-3.987,20.166,20.166,0,0,1,2.519-2.648c.276-.306.857-.2,1.219-.2l.009-1.979-3.432.117L8.735,11.168l.026,5.821,2.783,2.986.156,4.287a1.579,1.579,0,0,1-.515.966l10.187.035,0-12.631a.942.942,0,0,1,.984-.974l15.51,0a.944.944,0,0,1,.985.99l0,26.158a1.733,1.733,0,0,0,.971.007l0-14.519a.944.944,0,0,1,.974-.977h7.768a1.089,1.089,0,0,1,.56.159" transform="translate(0 0.001)" fill="#040504"/>
        <path id="Trazado_1032992" data-name="Trazado 1032992" d="M155.706,167.943l.323.152-.066,7.556a2.322,2.322,0,0,1-2.431,2.318l-9.358-.078-.189-.325-.011-9.646,3.884,0,.005,4.854a.986.986,0,0,0,.976.984l3.873-.008a.954.954,0,0,0,.971-.975l.009-4.841Z" transform="translate(-120.662 -140.727)" fill="#92613f"/>
        <path id="Trazado_1032993" data-name="Trazado 1032993" d="M148.231,89.368c.014.489.6.814,1,.815l3.9,0a1.031,1.031,0,0,0,1-.843l.05-4.893,2.122.01q.107,3.909.051,7.842a2.324,2.324,0,0,1-2.416,2.105l-9.343-.014-.142-.211,0-9.721,3.689-.022Z" transform="translate(-121.066 -70.767)" fill="#b27749"/>
        <path id="Trazado_1032994" data-name="Trazado 1032994" d="M52.233,173.145c.014.486.608.811,1,.812l3.9,0a1.04,1.04,0,0,0,1-.842l.05-4.893a5,5,0,0,1,2.184.168l-.007,7.45a2.241,2.241,0,0,1-2.261,2.319l-9.5,0-.142-.21,0-9.721,3.689-.021Z" transform="translate(-40.612 -140.942)" fill="#a86f43"/>
        <path id="Trazado_1032995" data-name="Trazado 1032995" d="M147.831,88.928l-.142-4.847h-3.547l-.01,9.558,9.4,0a2.023,2.023,0,0,0,2.1-1.8l.008-7.771-1.771.02-.139,4.816-.039-4.989,3.885.008V95.573h-13.6V83.919l3.887,0Z" transform="translate(-120.665 -70.326)" fill="#a86f47"/>
        <path id="Trazado_1032996" data-name="Trazado 1032996" d="M51.83,172.933l-.142-4.847-3.547,0-.009,9.557,9.56-.014a1.951,1.951,0,0,0,1.941-2.089l.01-7.465-1.772.019-.138,4.816-.039-4.988,3.887.013v11.649h-13.6V167.924l3.887,0Z" transform="translate(-40.209 -140.73)" fill="#9e6740"/>
        <path id="Trazado_1032997" data-name="Trazado 1032997" d="M144.042,177.658l9.542.079a2.033,2.033,0,0,0,2.115-2.117l.064-7.585,1.87-.009v11.643H144.054Z" transform="translate(-120.719 -140.82)" fill="#80543a"/>
        <path id="Trazado_1032998" data-name="Trazado 1032998" d="M181.942,87.843l-1.951.014V84l1.942,0Z" transform="translate(-150.847 -70.395)" fill="#e2e4e3"/>
        <path id="Trazado_1032999" data-name="Trazado 1032999" d="M85.942,171.843l-1.951.014V168l1.942,0Z" transform="translate(-70.391 -140.794)" fill="#e2e4e3"/>
        <path id="Trazado_1033000" data-name="Trazado 1033000" d="M181.942,171.843l-1.951.014V168l1.942,0Z" transform="translate(-150.847 -140.794)" fill="#e2e4e3"/>
        <path id="Trazado_1033001" data-name="Trazado 1033001" d="M22.575,184.657l-2.6.027.469-10.655,2.122-.006Z" transform="translate(-16.745 -145.846)" fill="#d2d1d1"/>
        <path id="Trazado_1033002" data-name="Trazado 1033002" d="M12.033,182.173l-.042-2.19a.143.143,0,0,1,.117-.086l.042,2.19a.142.142,0,0,1-.117.085" transform="translate(-10.049 -150.769)" fill="#080909"/>
        <path id="Trazado_1033003" data-name="Trazado 1033003" d="M80.77,31.876H72.059l-.005-1.939,8.715-.005Z" transform="translate(-60.387 -25.086)" fill="#d2d1d0"/>
        <path id="Trazado_1033004" data-name="Trazado 1033004" d="M31.918,76.809l-1.95.017,0-4.822,1.945-.01Z" transform="translate(-25.112 -60.336)" fill="#d3d2d1"/>
        <path id="Trazado_1033005" data-name="Trazado 1033005" d="M17.545,19.688l-3.253.011-2.277-2.279V14.215l2.278-2.281,3.209,0,2.276,2.278v3.207Z" transform="translate(-10.069 -10.002)" fill="#3687bd"/>
        <path id="Trazado_1033006" data-name="Trazado 1033006" d="M20.289,18.074a2.906,2.906,0,1,1-2.15,3.6,2.893,2.893,0,0,1,2.15-3.6" transform="translate(-15.114 -15.084)" fill="#040505"/>
        <path id="Trazado_1033007" data-name="Trazado 1033007" d="M30.743,30.019a.947.947,0,0,1,1.174.591.957.957,0,0,1-.571,1.236.968.968,0,0,1-1.236-.573.954.954,0,0,1,.633-1.255" transform="translate(-25.188 -25.126)" fill="#626262"/>
        <path id="Trazado_1033008" data-name="Trazado 1033008" d="M18.406,120.674c-.656.313-2.223-.478-2.557,1.007a4.41,4.41,0,0,1-1.556-.029l-2.3-2.223,0-3.213,2.278-2.28,3.208,0,2.277,2.277,0,3.209c-.46.391-.788.981-1.352,1.25" transform="translate(-10.052 -95.488)" fill="#3687bd"/>
        <path id="Trazado_1033009" data-name="Trazado 1033009" d="M20.288,120.074a2.905,2.905,0,1,1-2.151,3.6,2.893,2.893,0,0,1,2.151-3.6" transform="translate(-15.113 -100.568)" fill="#040505"/>
        <path id="Trazado_1033010" data-name="Trazado 1033010" d="M30.743,132.019a.947.947,0,0,1,1.174.591.957.957,0,0,1-.571,1.236.968.968,0,0,1-1.236-.573.954.954,0,0,1,.633-1.255" transform="translate(-25.188 -110.61)" fill="#626262"/>
        <path id="Trazado_1033011" data-name="Trazado 1033011" d="M311.473,154.037c-.254.144-.382.088-.581-.111l-8.635-8.648c-.07-.07.063-.287.177-.289Z" transform="translate(-253.301 -121.513)" fill="#080909"/>
        <path id="Trazado_1033012" data-name="Trazado 1033012" d="M54.087,166.057a2.272,2.272,0,0,0-.33.894L53.752,178.6c0,.391.414,1.031.854,1.036l10.1.059q0,9.412,0,9.412l-.4.17a.437.437,0,0,1-.3-.207,5.827,5.827,0,0,0-10.895.227H25.248a5.833,5.833,0,0,0-10.978-.03l-2.292,0v-9.683l38.673.006c.493,0,1.224-.33,1.229-.872L51.9,165.9c.465-.421,1.841-.451,2.184.157" transform="translate(-10.039 -138.779)" fill="#3d8fcf"/>
        <path id="Trazado_1033013" data-name="Trazado 1033013" d="M289.449,181.171c.311.415-.714,1.51-1.17,1.286l.119.336-6.074,5.863-.363-.1.009-5.376.222-.656q1.18-1.165,2.414-2.272l.648-.211,3.114.05a4.6,4.6,0,0,1,1.081,1.082" transform="translate(-236.307 -150.888)" fill="#e7e7e7"/>
        <path id="Trazado_1033014" data-name="Trazado 1033014" d="M284.946,261.666a1.583,1.583,0,0,0,.128-.635l.009-8.9-9.837-.107,11.778-.057v9.7Z" transform="translate(-230.68 -211.17)" fill="#3788be"/>
        <path id="Trazado_1033015" data-name="Trazado 1033015" d="M301.071,197.155c.079.1.188.25.136.325-.283.407-1.229,1.481-1.685,1.282l-.27.72-3,2.956a1.775,1.775,0,0,1-.971.5l-2.547,0c-.359-.214-.2-.439.064-.692l5.465-5.425.366.093c-.29-.42.722-1.341,1.139-1.071a7,7,0,0,1,1.3,1.311" transform="translate(-245.158 -164.093)" fill="#d8d7d7"/>
        <path id="Trazado_1033016" data-name="Trazado 1033016" d="M289.775,196l-5.395,5.358a1.5,1.5,0,0,0-.5.666l-1.9-.007-.022-1.171,6.318-6.1c.494-.269,1.315.805,1.5,1.254" transform="translate(-236.307 -163.179)" fill="#9dc1d3"/>
        <path id="Trazado_1033017" data-name="Trazado 1033017" d="M260.267,157.89a8.291,8.291,0,0,0-2.1-.065l-.1,12.722-.068-14.679,6.34-.021,1.954,1.936h-4.74c-.456,0-.932.157-1.28.107" transform="translate(-216.219 -130.613)" fill="#3688be"/>
        <path id="Trazado_1033018" data-name="Trazado 1033018" d="M333.7,209.971c-.126-.034-.314-.088-.323-.186a21.12,21.12,0,0,1,.017-3.076,2.185,2.185,0,0,1,.329-.907l1.548-1.607a.64.64,0,0,1,.434.6l0,5.169Z" transform="translate(-279.354 -171.132)" fill="#8bb0c0"/>
        <path id="Trazado_1033019" data-name="Trazado 1033019" d="M313.771,218.287l-4.22.009,4.243-4.178Z" transform="translate(-259.429 -179.448)" fill="#9dc1d3"/>
        <path id="Trazado_1033020" data-name="Trazado 1033020" d="M285.3,179.987l-3.284,3.139,0-3.15Z" transform="translate(-236.352 -150.835)" fill="#9dc1d3"/>
        <path id="Trazado_1033021" data-name="Trazado 1033021" d="M323.616,188.5l-1.14,1.071a.956.956,0,0,1-.615-.357l-.882-.9,1.17-1.286a9.578,9.578,0,0,1,1.466,1.468" transform="translate(-269.008 -156.744)" fill="#8bb0c0"/>
        <path id="Trazado_1033022" data-name="Trazado 1033022" d="M39.09,300.062a3.876,3.876,0,1,1-2.957,4.72,3.861,3.861,0,0,1,2.957-4.72" transform="translate(-30.187 -251.401)" fill="#4f4f4f"/>
        <path id="Trazado_1033023" data-name="Trazado 1033023" d="M44.283,306.053a2.906,2.906,0,1,1-2.151,3.605,2.883,2.883,0,0,1,2.151-3.605" transform="translate(-35.224 -256.432)" fill="#040505"/>
        <path id="Trazado_1033024" data-name="Trazado 1033024" d="M54.7,318.141a1.092,1.092,0,0,1,1.207.568.956.956,0,0,1-1.746.772.927.927,0,0,1,.539-1.34" transform="translate(-45.292 -266.594)" fill="#dee1e0"/>
        <path id="Trazado_1033025" data-name="Trazado 1033025" d="M279.09,300.062a3.876,3.876,0,1,1-2.957,4.72,3.861,3.861,0,0,1,2.957-4.72" transform="translate(-231.326 -251.401)" fill="#4f4f4f"/>
        <path id="Trazado_1033026" data-name="Trazado 1033026" d="M284.283,306.053a2.905,2.905,0,1,1-2.151,3.605,2.883,2.883,0,0,1,2.151-3.605" transform="translate(-236.363 -256.432)" fill="#040505"/>
        <path id="Trazado_1033027" data-name="Trazado 1033027" d="M294.7,318.141a1.092,1.092,0,0,1,1.207.568.956.956,0,0,1-1.746.772.927.927,0,0,1,.539-1.34" transform="translate(-246.432 -266.594)" fill="#dee1e0"/>
      </g>
    </g>
  </g>
</svg>
