<svg xmlns="http://www.w3.org/2000/svg" xmlns:xlink="http://www.w3.org/1999/xlink" width="292" height="139" viewBox="0 0 292 139">
  <defs>
    <clipPath id="clip-path">
      <rect id="Rectángulo_459743" data-name="Rectángulo 459743" width="193.202" height="128.684" fill="none"/>
    </clipPath>
  </defs>
  <g id="Grupo_1187559" data-name="Grupo 1187559" transform="translate(-185.711 -21692)">
    <rect id="Rectángulo_458602" data-name="Rectángulo 458602" width="292" height="139" rx="10" transform="translate(185.711 21692)" fill="#f2a4ab"/>
    <g id="Grupo_1187558" data-name="Grupo 1187558" transform="translate(235.109 21702.316)">
      <rect id="Rectángulo_459734" data-name="Rectángulo 459734" width="29.883" height="59.243" transform="translate(99.022 6.516)" fill="#fff"/>
      <g id="Grupo_1187557" data-name="Grupo 1187557">
        <g id="Grupo_1187556" data-name="Grupo 1187556" clip-path="url(#clip-path)">
          <path id="Trazado_1029972" data-name="Trazado 1029972" d="M667.022,100.535H637.139a.155.155,0,0,1-.155-.155V41.137a.155.155,0,0,1,.155-.155h29.883a.155.155,0,0,1,.155.155V100.38a.155.155,0,0,1-.155.155m-29.728-.31h29.572V41.292H637.294Z" transform="translate(-538.117 -34.621)"/>
          <rect id="Rectángulo_459735" data-name="Rectángulo 459735" width="26.568" height="52.672" transform="translate(102.337 9.802)" fill="#e2eaff"/>
          <path id="Trazado_1029973" data-name="Trazado 1029973" d="M830.515,101.225l18.37,6.543V48.525l-18.37-6.543Z" transform="translate(-701.61 -35.466)" fill="#fff"/>
          <path id="Trazado_1029974" data-name="Trazado 1029974" d="M848.04,107.078a.153.153,0,0,1-.052-.009l-18.37-6.543a.155.155,0,0,1-.1-.146V41.137a.155.155,0,0,1,.207-.146l18.37,6.543a.155.155,0,0,1,.1.146v59.243a.155.155,0,0,1-.155.155m-18.214-6.808,18.059,6.432V47.79l-18.059-6.432Z" transform="translate(-700.765 -34.621)"/>
          <rect id="Rectángulo_459736" data-name="Rectángulo 459736" width="30.041" height="59.243" transform="translate(147.275 13.059)" fill="#fff"/>
          <path id="Trazado_1029975" data-name="Trazado 1029975" d="M978.065,142.69H948.024a.155.155,0,0,1-.155-.155V83.292a.155.155,0,0,1,.155-.155h30.041a.155.155,0,0,1,.155.155v59.243a.155.155,0,0,1-.155.155m-29.885-.31h29.73V83.447h-29.73Z" transform="translate(-800.749 -70.233)"/>
          <rect id="Rectángulo_459737" data-name="Rectángulo 459737" width="26.454" height="52.171" transform="translate(147.275 16.595)" fill="#e2eaff"/>
          <path id="Trazado_1029976" data-name="Trazado 1029976" d="M830.515,115.822l18.37,6.144V69.824l-18.37-6.674Z" transform="translate(-701.61 -53.349)" fill="#e2eaff"/>
          <path id="Trazado_1029977" data-name="Trazado 1029977" d="M847.85,120.482l-18.835-6.3V61.01l18.835,6.843Zm-18.37-6.635,17.9,5.988V68.179l-17.9-6.5Z" transform="translate(-700.343 -51.541)" fill="#fff"/>
          <path id="Trazado_1029978" data-name="Trazado 1029978" d="M929.209,134.561c-.457-.685-17.36-17.434-26.3-26.256h-8.33V86.972h.466v20.867H903.1l.068.067c.066.065,6.677,6.592,13.2,13.073,3.833,3.807,6.887,6.853,9.078,9.055,4.194,4.215,4.194,4.279,4.194,4.419h-.466a.207.207,0,0,0,.029.108" transform="translate(-755.733 -73.473)" fill="#fff"/>
          <path id="Trazado_1029979" data-name="Trazado 1029979" d="M705.651,92.964,697.72,85.04V63.151h.466v21.7l7.795,7.788Z" transform="translate(-589.426 -53.349)" fill="#fff"/>
          <path id="Trazado_1029980" data-name="Trazado 1029980" d="M666.9,144.351H651.375v-.466h15.056V120.851h12.492l18.722,18.706H713.9V106.92h.466v33.1H697.453L678.73,121.316H666.9Z" transform="translate(-550.274 -90.325)" fill="#fff"/>
          <path id="Trazado_1029981" data-name="Trazado 1029981" d="M711.351,23.381a5.631,5.631,0,1,0,5.631-5.625,5.628,5.628,0,0,0-5.631,5.625" transform="translate(-600.942 -15)" fill="#fff"/>
          <path id="Trazado_1029982" data-name="Trazado 1029982" d="M703,.019a8.2,8.2,0,0,0-8.2,8.192c0,7.89,8.2,16.2,8.2,16.2s8.2-8.384,8.2-16.2A8.2,8.2,0,0,0,703,.019m0,12.2A3.817,3.817,0,1,1,706.817,8.4,3.819,3.819,0,0,1,703,12.215" transform="translate(-586.956 -0.016)" fill="#5479f7"/>
          <path id="Trazado_1029983" data-name="Trazado 1029983" d="M1171.262,202.565a4.188,4.188,0,1,0,4.188-4.185,4.187,4.187,0,0,0-4.188,4.185" transform="translate(-989.469 -167.589)" fill="#fff"/>
          <path id="Trazado_1029984" data-name="Trazado 1029984" d="M1165.048,185.186a6.1,6.1,0,0,0-6.1,6.094c0,5.87,6.1,12.05,6.1,12.05s6.1-6.237,6.1-12.05a6.1,6.1,0,0,0-6.1-6.094m0,9.072a2.84,2.84,0,1,1,2.842-2.84,2.841,2.841,0,0,1-2.842,2.84" transform="translate(-979.067 -156.443)" fill="#5479f7"/>
          <path id="Trazado_1029985" data-name="Trazado 1029985" d="M818.523,38.611a.155.155,0,0,1-.155-.155V13.12H768.819V38.1a.155.155,0,0,1-.155.155H749.035a.155.155,0,0,1,0-.31h19.473V12.965a.155.155,0,0,1,.155-.155h49.86a.155.155,0,0,1,.155.155V38.456a.155.155,0,0,1-.155.155" transform="translate(-632.646 -10.822)" fill="#5479f7"/>
          <rect id="Rectángulo_459738" data-name="Rectángulo 459738" width="33.707" height="26.439" transform="translate(159.34 48.91)" fill="#fff"/>
          <path id="Trazado_1029986" data-name="Trazado 1029986" d="M1059.469,340.869h-33.707a.155.155,0,0,1-.155-.155V314.274a.155.155,0,0,1,.155-.155h33.707a.155.155,0,0,1,.155.155v26.439a.155.155,0,0,1-.155.155m-33.551-.31h33.4V314.429h-33.4Z" transform="translate(-866.422 -265.364)"/>
          <path id="Trazado_1029987" data-name="Trazado 1029987" d="M1118.721,345.377a.155.155,0,0,1-.155-.155v-24.41a.155.155,0,0,1,.31,0v24.41a.155.155,0,0,1-.155.155" transform="translate(-944.952 -270.888)"/>
          <path id="Trazado_1029988" data-name="Trazado 1029988" d="M1179.69,321.829a.155.155,0,0,1-.155-.155v-7.4a.155.155,0,1,1,.31,0v7.4a.155.155,0,0,1-.155.155" transform="translate(-996.458 -265.364)"/>
          <rect id="Rectángulo_459739" data-name="Rectángulo 459739" width="5.248" height="3.929" transform="translate(186.147 69.808)" fill="#e2eaff"/>
          <path id="Trazado_1029989" data-name="Trazado 1029989" d="M221.149,599.79c3.118-.131,5.847,4.532,6.095,10.415s-2.08,10.758-5.2,10.889l-5.551.252s1.537-21.426,4.655-21.557" transform="translate(-182.892 -506.694)" fill="#fff"/>
          <path id="Trazado_1029990" data-name="Trazado 1029990" d="M215.649,620.658a.155.155,0,0,1-.155-.166c0-.054.393-5.424,1.159-10.74a58.5,58.5,0,0,1,1.459-7.425c.674-2.346,1.389-3.5,2.186-3.536,3.2-.137,6.006,4.6,6.256,10.564a16.591,16.591,0,0,1-1.352,7.675c-1.008,2.111-2.427,3.31-4,3.376l-5.55.253h-.007m4.784-21.56c-.041,0-.081,0-.122,0-2.421.1-4.051,15.2-4.494,21.239l5.376-.245c1.449-.061,2.773-1.2,3.729-3.2a16.281,16.281,0,0,0,1.322-7.528c-.24-5.71-2.834-10.269-5.811-10.269" transform="translate(-182.047 -505.849)"/>
          <path id="Trazado_1029991" data-name="Trazado 1029991" d="M191.384,611.972c0,5.888-2.53,10.662-5.652,10.662s-5.652-4.773-5.652-10.662,2.53-10.662,5.652-10.662,5.652,4.773,5.652,10.662" transform="translate(-152.13 -507.98)" fill="#fff"/>
          <path id="Trazado_1029992" data-name="Trazado 1029992" d="M184.888,621.944c-3.2,0-5.807-4.853-5.807-10.817s2.6-10.817,5.807-10.817,5.807,4.853,5.807,10.817-2.6,10.817-5.807,10.817m0-21.323c-3.031,0-5.5,4.713-5.5,10.507s2.466,10.507,5.5,10.507,5.5-4.713,5.5-10.507-2.466-10.507-5.5-10.507" transform="translate(-151.286 -507.135)"/>
          <path id="Trazado_1029993" data-name="Trazado 1029993" d="M207.99,650.35c0,1.994-.857,3.611-1.914,3.611s-1.914-1.617-1.914-3.611.857-3.611,1.914-3.611,1.914,1.617,1.914,3.611" transform="translate(-172.474 -546.358)" fill="#fff"/>
          <path id="Trazado_1029994" data-name="Trazado 1029994" d="M205.231,653.271c-1.16,0-2.069-1.654-2.069-3.766s.909-3.766,2.069-3.766,2.069,1.654,2.069,3.766-.909,3.766-2.069,3.766m0-7.221c-.953,0-1.759,1.582-1.759,3.455s.805,3.455,1.759,3.455,1.759-1.582,1.759-3.455-.805-3.455-1.759-3.455" transform="translate(-171.629 -545.513)"/>
          <path id="Trazado_1029995" data-name="Trazado 1029995" d="M313.72,610.963c3.118-.131,5.847,4.532,6.095,10.415s-2.08,10.758-5.2,10.889l-5.551.252s1.537-21.426,4.655-21.557" transform="translate(-261.095 -516.133)" fill="#fff"/>
          <path id="Trazado_1029996" data-name="Trazado 1029996" d="M308.22,631.83a.155.155,0,0,1-.155-.166c0-.054.393-5.424,1.159-10.74a58.5,58.5,0,0,1,1.458-7.425c.674-2.346,1.389-3.5,2.186-3.536l.007.155-.007-.155c3.2-.138,6.006,4.6,6.256,10.564a16.593,16.593,0,0,1-1.352,7.675c-1.008,2.111-2.427,3.31-4,3.376l-5.55.253h-.007M313,610.27l-.122,0c-2.421.1-4.051,15.2-4.494,21.239l5.376-.244c1.449-.061,2.773-1.2,3.729-3.2a16.28,16.28,0,0,0,1.322-7.528c-.24-5.71-2.834-10.269-5.81-10.269" transform="translate(-260.25 -515.288)"/>
          <path id="Trazado_1029997" data-name="Trazado 1029997" d="M283.955,623.145c0,5.888-2.53,10.662-5.652,10.662s-5.652-4.773-5.652-10.662,2.53-10.662,5.652-10.662,5.652,4.773,5.652,10.662" transform="translate(-230.333 -517.419)" fill="#fff"/>
          <path id="Trazado_1029998" data-name="Trazado 1029998" d="M277.458,633.117c-3.2,0-5.807-4.853-5.807-10.817s2.605-10.817,5.807-10.817,5.807,4.852,5.807,10.817-2.6,10.817-5.807,10.817m0-21.324c-3.031,0-5.5,4.713-5.5,10.507s2.466,10.507,5.5,10.507,5.5-4.713,5.5-10.507-2.466-10.507-5.5-10.507" transform="translate(-229.488 -516.574)"/>
          <path id="Trazado_1029999" data-name="Trazado 1029999" d="M300.561,661.523c0,1.994-.857,3.611-1.914,3.611s-1.914-1.617-1.914-3.611.857-3.611,1.914-3.611,1.914,1.617,1.914,3.611" transform="translate(-250.677 -555.797)" fill="#fff"/>
          <path id="Trazado_1030000" data-name="Trazado 1030000" d="M297.8,664.444c-1.16,0-2.069-1.654-2.069-3.766s.909-3.766,2.069-3.766,2.069,1.654,2.069,3.766-.909,3.766-2.069,3.766m0-7.221c-.953,0-1.759,1.582-1.759,3.455s.805,3.455,1.759,3.455,1.759-1.582,1.759-3.455-.805-3.455-1.759-3.455" transform="translate(-249.832 -554.952)"/>
          <path id="Trazado_1030001" data-name="Trazado 1030001" d="M482.24,281.949h62.1L544.153,208l-61.914-.328Z" transform="translate(-407.391 -175.437)" fill="#fff"/>
          <path id="Trazado_1030002" data-name="Trazado 1030002" d="M543.491,281.259H481.4a.155.155,0,0,1-.155-.155V206.824a.155.155,0,0,1,.155-.155h0L543.31,207a.155.155,0,0,1,.154.155l.182,73.951a.155.155,0,0,1-.155.156m-61.94-.31h61.785l-.181-73.641-61.6-.327Z" transform="translate(-406.546 -174.592)"/>
          <path id="Trazado_1030003" data-name="Trazado 1030003" d="M102.55,274.253l58.63,7.7V207.669L102.193,215Z" transform="translate(-86.331 -175.437)" fill="#fff"/>
          <path id="Trazado_1030004" data-name="Trazado 1030004" d="M160.336,281.259h-.02l-58.63-7.7a.156.156,0,0,1-.135-.153l-.358-59.248a.155.155,0,0,1,.136-.155l58.987-7.335a.155.155,0,0,1,.174.154V281.1a.155.155,0,0,1-.155.155m-58.475-7.988,58.32,7.655V207L101.5,214.3Z" transform="translate(-85.487 -174.592)"/>
          <path id="Trazado_1030005" data-name="Trazado 1030005" d="M613.756,579.922c4.343-.182,8.143,6.312,8.488,14.5s-2.9,14.983-7.24,15.165l-7.73.352s2.14-29.839,6.483-30.022" transform="translate(-513.018 -489.908)" fill="#fff"/>
          <path id="Trazado_1030006" data-name="Trazado 1030006" d="M606.428,609.253a.155.155,0,0,1-.155-.166c.005-.075.548-7.551,1.614-14.953,1.443-10.015,3.131-15.133,5.018-15.212l.006.155-.006-.155c4.423-.188,8.3,6.388,8.649,14.654a23.043,23.043,0,0,1-1.877,10.66c-1.393,2.919-3.351,4.576-5.511,4.667l-7.73.352h-.007m6.662-30.025q-.086,0-.172,0c-3.426.144-5.711,21.319-6.323,29.7l7.556-.344c2.041-.086,3.9-1.68,5.245-4.49a22.731,22.731,0,0,0,1.847-10.513c-.336-7.985-3.975-14.36-8.153-14.36" transform="translate(-512.173 -489.063)"/>
          <path id="Trazado_1030007" data-name="Trazado 1030007" d="M572.3,596.886c0,8.2-3.524,14.848-7.871,14.848s-7.871-6.648-7.871-14.848,3.524-14.848,7.871-14.848,7.871,6.648,7.871,14.848" transform="translate(-470.178 -491.699)" fill="#fff"/>
          <path id="Trazado_1030008" data-name="Trazado 1030008" d="M563.588,611.045c-4.426,0-8.026-6.73-8.026-15s3.6-15,8.026-15,8.026,6.73,8.026,15-3.6,15-8.026,15m0-29.7c-4.255,0-7.716,6.591-7.716,14.693s3.461,14.693,7.716,14.693,7.716-6.591,7.716-14.693-3.461-14.693-7.716-14.693" transform="translate(-469.333 -490.855)"/>
          <path id="Trazado_1030009" data-name="Trazado 1030009" d="M595.431,650.333c0,2.777-1.193,5.028-2.666,5.028s-2.665-2.251-2.665-5.028,1.193-5.028,2.665-5.028,2.666,2.251,2.666,5.028" transform="translate(-498.51 -545.147)" fill="#fff"/>
          <path id="Trazado_1030010" data-name="Trazado 1030010" d="M591.92,654.672c-1.555,0-2.821-2.325-2.821-5.184s1.265-5.184,2.821-5.184,2.821,2.325,2.821,5.184-1.265,5.184-2.821,5.184m0-10.057c-1.384,0-2.51,2.186-2.51,4.873s1.126,4.873,2.51,4.873,2.51-2.186,2.51-4.873-1.126-4.873-2.51-4.873" transform="translate(-497.664 -544.302)"/>
          <path id="Trazado_1030011" data-name="Trazado 1030011" d="M901.267,566.091c4.343-.182,8.143,6.312,8.487,14.5s-2.9,14.983-7.24,15.165l-7.73.352s2.14-29.839,6.483-30.022" transform="translate(-755.904 -478.224)" fill="#fff"/>
          <path id="Trazado_1030012" data-name="Trazado 1030012" d="M893.94,595.423a.155.155,0,0,1-.155-.166c.005-.075.548-7.551,1.614-14.953,1.443-10.015,3.131-15.133,5.018-15.212l.007.155-.007-.155c4.419-.184,8.3,6.388,8.649,14.654a23.045,23.045,0,0,1-1.877,10.66c-1.393,2.919-3.351,4.576-5.511,4.667l-7.73.352h-.007M900.6,565.4q-.086,0-.172,0c-3.425.144-5.711,21.319-6.323,29.7l7.556-.344c2.041-.086,3.9-1.68,5.245-4.49a22.729,22.729,0,0,0,1.847-10.513c-.336-7.985-3.975-14.36-8.153-14.36" transform="translate(-755.059 -477.38)"/>
          <path id="Trazado_1030013" data-name="Trazado 1030013" d="M859.815,583.056c0,8.2-3.524,14.848-7.871,14.848s-7.871-6.648-7.871-14.848,3.524-14.848,7.871-14.848,7.871,6.648,7.871,14.848" transform="translate(-713.064 -480.016)" fill="#fff"/>
          <path id="Trazado_1030014" data-name="Trazado 1030014" d="M851.1,597.214c-4.426,0-8.026-6.73-8.026-15s3.6-15,8.026-15,8.026,6.73,8.026,15-3.6,15-8.026,15m0-29.7c-4.255,0-7.716,6.591-7.716,14.693S846.845,596.9,851.1,596.9s7.716-6.591,7.716-14.693-3.461-14.693-7.716-14.693" transform="translate(-712.219 -479.171)"/>
          <path id="Trazado_1030015" data-name="Trazado 1030015" d="M540.615,248.933l52.817.164,12.868,9.575-50.709.606Z" transform="translate(-456.706 -210.296)" fill="#fff"/>
          <path id="Trazado_1030016" data-name="Trazado 1030016" d="M554.746,258.589a.156.156,0,0,1-.088-.027l-14.976-10.346a.155.155,0,0,1,.088-.283h0l52.817.164a.154.154,0,0,1,.092.031l12.868,9.575a.155.155,0,0,1-.091.28l-50.709.606Zm-14.476-10.344,14.523,10.033,50.2-.6-12.458-9.27Z" transform="translate(-455.861 -209.451)"/>
          <path id="Trazado_1030017" data-name="Trazado 1030017" d="M970.215,379.534l.458-.1a3.509,3.509,0,0,0,2.8-3.434v-9.474a3.508,3.508,0,0,0-2.8-3.434l-.458-.1a1.256,1.256,0,0,0-1.512,1.229v14.076a1.256,1.256,0,0,0,1.512,1.229" transform="translate(-818.35 -306.637)" fill="#fff"/>
          <path id="Trazado_1030018" data-name="Trazado 1030018" d="M969.112,378.871a1.411,1.411,0,0,1-1.409-1.41V363.385a1.411,1.411,0,0,1,1.7-1.38l.458.1a3.679,3.679,0,0,1,2.919,3.586v9.473a3.679,3.679,0,0,1-2.919,3.586l-.458.1a1.419,1.419,0,0,1-.289.03m0-16.586a1.1,1.1,0,0,0-1.1,1.1v14.076a1.1,1.1,0,0,0,1.325,1.077h0l.458-.1a3.367,3.367,0,0,0,2.672-3.283v-9.473A3.367,3.367,0,0,0,969.8,362.4l-.458-.1a1.119,1.119,0,0,0-.226-.023" transform="translate(-817.505 -305.793)"/>
          <path id="Trazado_1030019" data-name="Trazado 1030019" d="M567.171,317.105l-8.489-1.583c-.421-3.041-.235-3.035-.977-5.366a18.558,18.558,0,0,0-13.937-12.7l-3.315-.577-.016-47.592,14.145,9.685,15.712,36.993Z" transform="translate(-456.556 -210.593)" fill="#fff"/>
          <path id="Trazado_1030020" data-name="Trazado 1030020" d="M566.327,316.417l-.029,0-8.489-1.583a.155.155,0,0,1-.125-.131c-.119-.856-.189-1.471-.246-1.965a13.6,13.6,0,0,0-.725-3.376,18.368,18.368,0,0,0-13.817-12.6l-3.314-.577a.155.155,0,0,1-.128-.153l-.016-47.592a.155.155,0,0,1,.243-.128L553.827,258a.156.156,0,0,1,.055.067l15.712,36.993a.155.155,0,0,1,.011.083l-3.123,21.142a.155.155,0,0,1-.154.133m-8.35-1.87,8.22,1.533,3.093-20.94-15.677-36.911-13.864-9.493.016,47.167,3.186.555a18.684,18.684,0,0,1,14.059,12.807,13.844,13.844,0,0,1,.738,3.434c.054.471.121,1.052.23,1.847" transform="translate(-455.712 -209.75)"/>
          <path id="Trazado_1030021" data-name="Trazado 1030021" d="M635.67,338h51.385l-4.1-26.322H631.57Z" transform="translate(-533.544 -263.305)" fill="#fff"/>
          <path id="Trazado_1030022" data-name="Trazado 1030022" d="M686.209,337.314H634.824a.155.155,0,0,1-.154-.131l-4.1-26.322a.155.155,0,0,1,.153-.179h51.385a.155.155,0,0,1,.154.131l4.1,26.322a.155.155,0,0,1-.154.179M634.957,337h51.07l-4.052-26.011h-51.07Z" transform="translate(-532.698 -262.461)"/>
          <path id="Trazado_1030023" data-name="Trazado 1030023" d="M697.964,344.631H651.14a.155.155,0,0,1-.154-.131L647.5,322.174a.155.155,0,0,1,.153-.179h46.824a.155.155,0,0,1,.153.131l3.488,22.326a.155.155,0,0,1-.153.179m-46.692-.31h46.51l-3.44-22.015h-46.51Z" transform="translate(-546.998 -272.018)"/>
          <path id="Trazado_1030024" data-name="Trazado 1030024" d="M657.984,481.27H709.33l8.216,10.671H666.2Z" transform="translate(-555.858 -406.571)" fill="#fff"/>
          <path id="Trazado_1030025" data-name="Trazado 1030025" d="M716.7,491.252H665.355a.155.155,0,0,1-.123-.061l-8.216-10.671a.155.155,0,0,1,.123-.25h51.346a.155.155,0,0,1,.123.061L716.824,491a.155.155,0,0,1-.123.25m-51.27-.31h50.954l-7.977-10.361H657.455Z" transform="translate(-555.013 -405.727)"/>
          <rect id="Rectángulo_459740" data-name="Rectángulo 459740" width="51.073" height="21.142" transform="translate(110.615 85.369)" fill="#fff"/>
          <path id="Trazado_1030026" data-name="Trazado 1030026" d="M762.9,570.476H711.831a.155.155,0,0,1-.155-.155V549.178a.155.155,0,0,1,.155-.155H762.9a.155.155,0,0,1,.155.155V570.32a.155.155,0,0,1-.155.155m-50.918-.31h50.762V549.333H711.986Z" transform="translate(-601.216 -463.809)"/>
          <path id="Trazado_1030027" data-name="Trazado 1030027" d="M569.179,347.859h-.02L555.7,346.1a.155.155,0,0,1,.04-.308L569,347.524l-3.136-24.185a.155.155,0,1,1,.308-.04l3.161,24.384a.155.155,0,0,1-.154.175" transform="translate(-469.333 -273.006)"/>
          <path id="Trazado_1030028" data-name="Trazado 1030028" d="M619.473,360l-.458.1a3.509,3.509,0,0,0-2.8,3.434V373a3.508,3.508,0,0,0,2.8,3.434l.458.1a1.256,1.256,0,0,0,1.512-1.229V361.23A1.256,1.256,0,0,0,619.473,360" transform="translate(-520.575 -304.102)" fill="#fff"/>
          <path id="Trazado_1030029" data-name="Trazado 1030029" d="M618.885,375.872a1.432,1.432,0,0,1-.29-.03l-.458-.1a3.679,3.679,0,0,1-2.919-3.586v-9.474a3.679,3.679,0,0,1,2.919-3.586l.458-.1a1.411,1.411,0,0,1,1.7,1.38v14.076a1.411,1.411,0,0,1-1.409,1.41m-.227-16.563-.458.1a3.367,3.367,0,0,0-2.672,3.282v9.474a3.367,3.367,0,0,0,2.672,3.282l.458.1a1.1,1.1,0,0,0,1.325-1.077V360.386a1.1,1.1,0,0,0-1.325-1.077" transform="translate(-519.729 -303.258)"/>
          <rect id="Rectángulo_459741" data-name="Rectángulo 459741" width="49.76" height="10.695" transform="translate(113.738 92.804)" fill="#fff"/>
          <path id="Trazado_1030030" data-name="Trazado 1030030" d="M781.713,607.928h-49.76a.155.155,0,0,1-.155-.155v-10.7a.155.155,0,0,1,.155-.155h49.76a.155.155,0,0,1,.155.155v10.7a.155.155,0,0,1-.155.155m-49.605-.31h49.45V597.232h-49.45Z" transform="translate(-618.214 -504.273)"/>
          <path id="Trazado_1030031" data-name="Trazado 1030031" d="M740.694,622.88h8.47l-1.653-4.748h-8.47Z" transform="translate(-624.334 -522.191)" fill="#fff"/>
          <path id="Trazado_1030032" data-name="Trazado 1030032" d="M748.32,622.19h-8.47a.155.155,0,0,1-.146-.1l-1.653-4.749a.155.155,0,0,1,.147-.206h8.47a.155.155,0,0,1,.147.1l1.653,4.748a.155.155,0,0,1-.147.206m-8.36-.31H748.1l-1.545-4.438h-8.142Z" transform="translate(-623.49 -521.346)"/>
          <path id="Trazado_1030033" data-name="Trazado 1030033" d="M985.612,618.131h8.47l-1.653,4.748h-8.47Z" transform="translate(-831.238 -522.19)" fill="#fff"/>
          <path id="Trazado_1030034" data-name="Trazado 1030034" d="M991.584,622.19h-8.47a.155.155,0,0,1-.147-.206l1.653-4.748a.155.155,0,0,1,.146-.1h8.47a.155.155,0,0,1,.146.206l-1.653,4.749a.155.155,0,0,1-.146.1m-8.252-.31h8.141l1.545-4.438h-8.141Z" transform="translate(-830.393 -521.346)"/>
          <rect id="Rectángulo_459742" data-name="Rectángulo 459742" width="11.776" height="4.748" transform="translate(134.21 95.941)" fill="#fff"/>
          <path id="Trazado_1030035" data-name="Trazado 1030035" d="M875.626,622.19H863.85a.155.155,0,0,1-.155-.155v-4.748a.155.155,0,0,1,.155-.155h11.776a.155.155,0,0,1,.155.155v4.748a.155.155,0,0,1-.155.155m-11.62-.31h11.465v-4.438H864.005Z" transform="translate(-729.64 -521.346)"/>
          <path id="Trazado_1030036" data-name="Trazado 1030036" d="M846.3,563.962H825.62a.155.155,0,0,1,0-.31H846.3a.155.155,0,1,1,0,.31" transform="translate(-697.344 -476.167)"/>
          <path id="Trazado_1030037" data-name="Trazado 1030037" d="M846.3,579.921H825.62a.155.155,0,0,1,0-.31H846.3a.155.155,0,1,1,0,.31" transform="translate(-697.344 -489.649)"/>
          <path id="Trazado_1030038" data-name="Trazado 1030038" d="M566.018,310.262a.148.148,0,0,1-.036,0l-10.3-2.427a.155.155,0,1,1,.071-.3l10.3,2.427a.155.155,0,0,1-.035.306" transform="translate(-469.333 -259.793)"/>
          <path id="Trazado_1030039" data-name="Trazado 1030039" d="M52.105,585.822,30.828,585.6l-4.493-26.494-4.274,26.567H0l6.856-44.549H43.612Z" transform="translate(0 -457.138)" fill="#5479f7"/>
          <path id="Trazado_1030040" data-name="Trazado 1030040" d="M53.969,274.3A41.072,41.072,0,0,1,34.238,268.1c-1.4-.937-3.023-2.251-2.951-3.933l1.1-15.6-.657-33.72,7.111-2.417,15.425-1.707.326.163c5.03-.024,11.7.547,13.668,1.848,3.909,2.59,3.247,39.774,3.247,39.774s.19,10.592.365,13.045a4.021,4.021,0,0,1-1.4,3.341c-2.412,2.064-6.233,5.349-14.907,5.424l-.767-2.381Z" transform="translate(-26.428 -178.019)" fill="#fff"/>
          <path id="Trazado_1030041" data-name="Trazado 1030041" d="M70.371,267.353a.155.155,0,0,1-.13-.24,3.876,3.876,0,0,0,.625-2.391c-.173-2.429-.363-12.947-.365-13.053,0-.375.166-37.118-3.629-39.633-1.954-1.3-8.183-1.859-13.13-1.837a.122.122,0,0,1-.07-.016l-.285-.142-15.363,1.7-6.988,2.375.655,33.606-1.1,15.615a3.312,3.312,0,0,0,1.209,2.475.155.155,0,0,1-.218.221,3.6,3.6,0,0,1-1.3-2.714l1.1-15.6-.658-33.706a.155.155,0,0,1,.105-.15l7.111-2.417a.16.16,0,0,1,.033-.007L53.4,209.727a.154.154,0,0,1,.087.015l.292.146c5-.023,11.262.561,13.266,1.889,3.934,2.607,3.776,38.368,3.768,39.89,0,.1.192,10.612.364,13.033a4.189,4.189,0,0,1-.675,2.584.155.155,0,0,1-.13.07" transform="translate(-25.583 -177.174)"/>
          <path id="Trazado_1030042" data-name="Trazado 1030042" d="M179.311,310.425H179.3a.155.155,0,0,1-.143-.166c.02-.267,1.952-27-.538-52.633a.155.155,0,0,1,.309-.03c2.493,25.663.559,52.419.539,52.686a.155.155,0,0,1-.155.144" transform="translate(-150.894 -217.495)"/>
          <path id="Trazado_1030043" data-name="Trazado 1030043" d="M151.276,234.7s-1.276-8.964-2.057-10.862-7.555-9.34-3.956-10.356c3.1-.874,12.382-.858,17.076,4.68,3.916,4.621,8.944,11.885,10.593,19.405,1.036,4.73-1.291,9.455-5.936,10.838-7.955,2.37-19.518-3-32.455-6.887l9.5-7.746Z" transform="translate(-113.659 -179.987)" fill="#fff"/>
          <path id="Trazado_1030044" data-name="Trazado 1030044" d="M222.82,247.932c-2.881,0-5.386-.814-9.514-2.156-.66-.214-1.361-.442-2.113-.683a.155.155,0,0,1,.095-.3c.752.241,1.454.469,2.115.684,6.094,1.981,8.616,2.8,14.093,1.528a7.846,7.846,0,0,0,4.955-3.668,9.171,9.171,0,0,0,.984-7.043c-1.891-7.131-6.08-14.7-10.671-19.28-4.546-4.536-7.692-4.685-13.961-4.983-.733-.035-1.507-.072-2.329-.118a.155.155,0,1,1,.017-.31c.821.046,1.594.083,2.326.118,6.149.292,9.536.453,14.166,5.073s8.847,12.24,10.752,19.421a9.484,9.484,0,0,1-1.018,7.283,8.154,8.154,0,0,1-5.151,3.81,20.739,20.739,0,0,1-4.746.621" transform="translate(-174.303 -178.763)"/>
          <path id="Trazado_1030045" data-name="Trazado 1030045" d="M24.95,232.3s-2.029-18.383-3.166-20.093c-.906-1.362-1.4-1.5-4.21-1.943-.718-.113-1.8.023-2.849-.041-4.219-.255-9.511,2.384-10.212,2.854-5.822,3.91-4.738,10.84-1.972,17.05C4.936,235.5,6.164,244.149,12.68,250.9a11.37,11.37,0,0,0,13.04,2.153c5.711-2.7,15.5-12.5,15.5-12.5L35.673,229.27Z" transform="translate(-0.252 -177.577)" fill="#fff"/>
          <path id="Trazado_1030046" data-name="Trazado 1030046" d="M20.711,253.14a10.655,10.655,0,0,1-2.083-.206,11.494,11.494,0,0,1-6.015-3.353c-4.594-4.756-6.679-10.926-8.354-15.883-.605-1.792-1.177-3.485-1.8-4.9-2-4.586-4.359-12.956,2.368-17.477,2.025-1.361,7.526-3.054,11.878-2.72a.155.155,0,0,1-.024.309c-4.288-.33-9.694,1.332-11.681,2.668-6.54,4.4-4.221,12.6-2.257,17.1.624,1.429,1.2,3.128,1.806,4.927,1.665,4.928,3.737,11.062,8.283,15.767a10.617,10.617,0,0,0,12.451,2.419c5.343-2.523,14.83-11.641,15.849-12.627l-6.525-10.7-7.55,2.882a.155.155,0,1,1-.111-.29l7.671-2.929a.155.155,0,0,1,.188.064l6.657,10.92a.155.155,0,0,1-.024.192c-.1.1-10.353,10.095-16.022,12.772a11.005,11.005,0,0,1-4.709,1.074" transform="translate(-0.315 -176.186)"/>
          <path id="Trazado_1030047" data-name="Trazado 1030047" d="M94.627,338.29l-1.756-3.16c-3.486-7.429-9.231-6.5-14.616-4a7.961,7.961,0,0,0-2.045,1.423c-.629.589-.776,1.359-.183,1.7.629.358,1.113.1,2.487-.6,0,0-3.255,1.53-2.578,2.66.74,1.236,3.3.021,3.3.021s-2.066.934-1.41,1.722c.731.877,3.169.138,3.169.138s-1.457.764-.923,1.641c.279.457.7.749,1.982.52a8.063,8.063,0,0,0,1.924-.74l1.795.411a6.179,6.179,0,0,0,4.705.317Z" transform="translate(-63.911 -278.201)" fill="#fff"/>
          <path id="Trazado_1030048" data-name="Trazado 1030048" d="M87.736,340.006a6.712,6.712,0,0,1-2.858-.646l-1.722-.394a7.889,7.889,0,0,1-1.918.728c-1.333.238-1.82-.065-2.141-.592a.884.884,0,0,1-.107-.72,1.541,1.541,0,0,1,.445-.672c-.813.151-2.052.255-2.571-.368a.649.649,0,0,1-.147-.578,1.374,1.374,0,0,1,.462-.664c-.809.185-1.78.213-2.219-.52a.8.8,0,0,1-.074-.672,2.7,2.7,0,0,1,.982-1.161,1.222,1.222,0,0,1-.76-.174.849.849,0,0,1-.447-.655,1.623,1.623,0,0,1,.6-1.291,8.033,8.033,0,0,1,2.086-1.451c4.552-2.107,11.041-3.977,14.822,4.08l1.751,3.151a.155.155,0,1,1-.271.151l-1.756-3.16c-1.588-3.383-3.707-5.226-6.483-5.645-2.185-.33-4.705.212-7.932,1.706a7.724,7.724,0,0,0-2,1.4,1.342,1.342,0,0,0-.5,1.027.543.543,0,0,0,.292.421c.5.283.9.125,1.943-.4.224-.119.377-.192.4-.2a.155.155,0,0,1,.136.279l-.073.037-.337.171c-.761.409-1.951,1.165-2.149,1.813a.5.5,0,0,0,.043.422c.621,1.039,2.806.093,3.073-.027l.029-.013a.155.155,0,0,1,.131.282l-.045.021c-.391.184-1.29.693-1.4,1.152a.337.337,0,0,0,.083.31c.545.655,2.354.286,3,.089a.155.155,0,0,1,.117.286c-.008,0-.79.42-.935.947a.577.577,0,0,0,.073.475c.215.353.533.678,1.822.448a7.936,7.936,0,0,0,1.877-.723.154.154,0,0,1,.108-.015l1.795.41a.155.155,0,0,1,.032.011,6.046,6.046,0,0,0,4.584.312.155.155,0,1,1,.11.29,5.587,5.587,0,0,1-1.953.331" transform="translate(-63.066 -277.394)"/>
          <path id="Trazado_1030049" data-name="Trazado 1030049" d="M93.537,351.432a.155.155,0,0,1-.071-.293,13.385,13.385,0,0,1,2.287-.923.155.155,0,0,1,.089.3,13.046,13.046,0,0,0-2.235.9.155.155,0,0,1-.071.017" transform="translate(-78.888 -295.853)"/>
          <path id="Trazado_1030050" data-name="Trazado 1030050" d="M98.352,365.6a.155.155,0,0,1-.076-.291c.971-.546,1.98-1.051,3-1.5a.155.155,0,0,1,.125.284c-1.01.445-2.01.946-2.972,1.487a.156.156,0,0,1-.076.02" transform="translate(-82.955 -307.328)"/>
          <path id="Trazado_1030051" data-name="Trazado 1030051" d="M109.234,379.554a.155.155,0,0,1-.068-.295c.565-.275,1.2-.533,1.814-.784.308-.125.608-.248.886-.367a.155.155,0,1,1,.122.285c-.279.12-.581.243-.891.369-.61.248-1.24.505-1.8.775a.155.155,0,0,1-.068.016" transform="translate(-92.149 -319.411)"/>
          <path id="Trazado_1030052" data-name="Trazado 1030052" d="M316.705,360.121h-.018l-5.4-.641a.155.155,0,0,1,.037-.308l5.4.641a.155.155,0,0,1-.018.309" transform="translate(-262.857 -303.423)"/>
          <path id="Trazado_1030053" data-name="Trazado 1030053" d="M232.927,332.249c-.749-1.277-3.251-5.438-3.479-5.885,1.655-.551,5.109-1.994,6.684-2.19,0,0,4.758-.5,5.925,5.555l-2.081-.128s-4.208,3.953-5.734,5.056a24.81,24.81,0,0,1-1.315-2.409" transform="translate(-193.835 -273.851)" fill="#fff"/>
          <path id="Trazado_1030054" data-name="Trazado 1030054" d="M233.4,333.981a.155.155,0,0,1-.124-.062,8.937,8.937,0,0,1-.835-1.476c-.154-.317-.312-.644-.49-.947-.273-.467-.781-1.318-1.326-2.232-.942-1.58-2.01-3.372-2.157-3.66a.155.155,0,0,1,.089-.218c.476-.159,1.116-.4,1.793-.648a29.51,29.51,0,0,1,4.921-1.548c.051-.005,4.916-.446,6.1,5.68a.155.155,0,0,1-.162.184l-2.014-.124c-.5.466-4.255,3.977-5.7,5.023a.153.153,0,0,1-.091.029m-1.181-2.642c.184.314.346.647.5.969a9.678,9.678,0,0,0,.714,1.3c1.594-1.2,5.552-4.913,5.593-4.951a.153.153,0,0,1,.116-.042l1.88.116c-1.191-5.643-5.67-5.239-5.717-5.233a29.475,29.475,0,0,0-4.848,1.531c-.6.223-1.171.435-1.627.592.3.538,1.231,2.093,2.061,3.484.546.915,1.053,1.768,1.327,2.234" transform="translate(-192.99 -273.019)"/>
          <path id="Trazado_1030055" data-name="Trazado 1030055" d="M101.749,349.175l3.2-2.317a64.133,64.133,0,0,1,16.491-9.05c.649.459,3.982,7.765,4.438,8.375-2.377,1.725-2.423,1.2-4.479,3.539-3.43,3.908-9.439,10.435-15.327,9.6s-4.319-10.145-4.319-10.145" transform="translate(-85.796 -285.376)" fill="#fff"/>
          <path id="Trazado_1030056" data-name="Trazado 1030056" d="M101.7,366.475a.155.155,0,0,1-.1-.271c.525-.466,3.072-2.193,5.769-4.022,2.57-1.743,5.227-3.545,5.737-4a.155.155,0,1,1,.206.232c-.525.466-3.072,2.193-5.769,4.022-2.57,1.743-5.227,3.545-5.737,4a.154.154,0,0,1-.1.039" transform="translate(-85.785 -302.557)"/>
          <path id="Trazado_1030057" data-name="Trazado 1030057" d="M190.023,341.69c-1.982-4.093-4.692-7.961-6.082-10.633a1.571,1.571,0,0,0-2.328-.533l-5.021,2.915c-1.314.766-.884,1.4-.006,2.637a69.4,69.4,0,0,1,5.923,9.582c.639,1.315,1.226,2.178,2.707,1.241l4.149-3.385c.358-.324.993-1.134.659-1.823" transform="translate(-148.479 -278.975)" fill="#fff"/>
          <path id="Trazado_1030058" data-name="Trazado 1030058" d="M183.274,346.6a1.2,1.2,0,0,1-.331-.045c-.65-.185-1.043-.9-1.421-1.677a70.164,70.164,0,0,0-5.91-9.56c-.554-.783-.954-1.348-.835-1.9a1.618,1.618,0,0,1,.889-.964l5.022-2.915a1.99,1.99,0,0,1,1.551-.25,1.624,1.624,0,0,1,.993.845c.562,1.08,1.359,2.387,2.2,3.771,1.266,2.076,2.7,4.428,3.881,6.867.366.755-.265,1.616-.695,2.006l-4.155,3.39-.015.011a2.26,2.26,0,0,1-1.177.418m-1.5-17.062a1.862,1.862,0,0,0-.93.273l-5.022,2.915c-.45.262-.686.5-.741.761-.09.415.277.934.785,1.652a70.432,70.432,0,0,1,5.936,9.6c.332.684.7,1.364,1.227,1.514a1.594,1.594,0,0,0,1.249-.332l4.141-3.379c.335-.3.9-1.044.617-1.635-1.174-2.425-2.6-4.771-3.867-6.84-.847-1.388-1.647-2.7-2.213-3.789a1.319,1.319,0,0,0-.8-.69,1.36,1.36,0,0,0-.379-.052m2.594,16.512h0Z" transform="translate(-147.632 -278.13)"/>
          <path id="Trazado_1030059" data-name="Trazado 1030059" d="M128.667,139.25l.11,9.47,7.734,7.937,2.1-8.526-.149-6.96Z" transform="translate(-108.697 -117.637)" fill="#fff"/>
          <path id="Trazado_1030060" data-name="Trazado 1030060" d="M135.667,155.968a.156.156,0,0,1-.111-.047l-7.734-7.937a.154.154,0,0,1-.044-.106l-.11-9.47a.155.155,0,0,1,.185-.154l9.8,1.922a.155.155,0,0,1,.125.149l.149,6.96a.153.153,0,0,1,0,.04l-2.1,8.526a.155.155,0,0,1-.11.113.153.153,0,0,1-.041.005m-7.58-8.156,7.5,7.693,2.028-8.235-.146-6.814-9.485-1.861Z" transform="translate(-107.852 -116.793)"/>
          <path id="Trazado_1030061" data-name="Trazado 1030061" d="M135.975,80.918s.659,9.547.547,12.043c0,0-5.753,2.256-7.385,1.816s-4.232-5.2-4.437-9.57,0-4.465,0-4.465Z" transform="translate(-105.269 -68.211)" fill="#fff"/>
          <path id="Trazado_1030062" data-name="Trazado 1030062" d="M128.81,94.143a2.187,2.187,0,0,1-.559-.061c-1.774-.478-4.348-5.367-4.551-9.712-.209-4.478-.006-4.57.091-4.613a.176.176,0,0,1,.066-.014l11.274.175a.155.155,0,0,1,.152.145c.007.1.658,9.585.547,12.061a.156.156,0,0,1-.1.138c-.215.084-4.826,1.882-6.923,1.882m-4.84-14.088a28.57,28.57,0,0,0,.04,4.3c.208,4.457,2.841,9.028,4.322,9.427,1.453.391,6.443-1.487,7.193-1.775.083-2.427-.461-10.6-.541-11.782Z" transform="translate(-104.424 -67.366)"/>
          <path id="Trazado_1030063" data-name="Trazado 1030063" d="M104.362,62.906s-3.76-1.825-.39-5.711a5.539,5.539,0,0,1,1.863-4.242c3.014-2.342,7.342-.657,7.342-.657s3.953-1.694,5.451.739c1.534,2.491.284,3.856-.725,4.2-2.247.775-9.068.139-9.17,2.508s.1,8.149,2.11,8.764,3.643-.79,7.164-1.325l.45,3.02a1.538,1.538,0,0,1-1.111,1.654c-2.741.773-9.155,2.04-10.806-2.432-2.116-5.732-2.178-6.522-2.178-6.522" transform="translate(-86.649 -43.683)"/>
          <path id="Trazado_1030064" data-name="Trazado 1030064" d="M106.223,115.956a2.112,2.112,0,0,0-2.145-1.517c-1.617.192-.77,6.543,2.719,4.88Z" transform="translate(-87.257 -96.664)" fill="#fff"/>
          <path id="Trazado_1030065" data-name="Trazado 1030065" d="M104.83,118.906a2,2,0,0,1-1.326-.5,4.456,4.456,0,0,1-1.108-4.125c.152-.5.436-.795.8-.838a2.279,2.279,0,0,1,2.312,1.626.124.124,0,0,1,0,.02l.574,3.363a.155.155,0,0,1-.086.166,2.717,2.717,0,0,1-1.17.292m-1.367-5.172a1.979,1.979,0,0,0-.23.014c-.3.036-.459.357-.539.62a4.169,4.169,0,0,0,1.013,3.8,1.819,1.819,0,0,0,2.053.215l-.552-3.235a1.979,1.979,0,0,0-1.745-1.414" transform="translate(-86.393 -95.819)"/>
          <path id="Trazado_1030066" data-name="Trazado 1030066" d="M112.138,132.114a.155.155,0,0,1-.136-.08,2.991,2.991,0,0,0-1.129-1.147.155.155,0,1,1,.155-.269,3.3,3.3,0,0,1,1.246,1.265.155.155,0,0,1-.136.23" transform="translate(-93.599 -110.327)"/>
          <path id="Trazado_1030067" data-name="Trazado 1030067" d="M105.193,187.55l3.643-4.215,7.716,10.163,2.144-8.428,3.746,2.954-1.811.858-3.94,5.964-8.375-6.859Z" transform="translate(-88.866 -154.879)" fill="#fff"/>
          <path id="Trazado_1030068" data-name="Trazado 1030068" d="M115.846,194.156a.156.156,0,0,1-.1-.035l-8.341-6.831-3.08-.432a.155.155,0,0,1-.1-.255l3.644-4.215a.156.156,0,0,1,.122-.054.154.154,0,0,1,.119.061l7.521,9.907,2.064-8.116a.155.155,0,0,1,.246-.084l3.746,2.954a.155.155,0,0,1-.03.262l-1.772.839-3.916,5.928a.155.155,0,0,1-.106.068l-.023,0m-11.194-7.566,2.841.4a.155.155,0,0,1,.077.034l8.242,6.75,3.845-5.821a.154.154,0,0,1,.063-.055l1.585-.751-3.362-2.651-2.085,8.2a.155.155,0,0,1-.274.056l-7.6-10.011Z" transform="translate(-88.021 -154.034)"/>
          <path id="Trazado_1030069" data-name="Trazado 1030069" d="M315.674,28.764a.155.155,0,0,1-.155-.155V.155A.155.155,0,0,1,315.674,0h46.635a.155.155,0,0,1,.155.157l-.055,6.2a.155.155,0,0,1-.155.154h0a.155.155,0,0,1-.154-.156L362.152.31H315.829V28.453l4.857-.025h0a.155.155,0,0,1,0,.31l-5.013.025Z" transform="translate(-266.547)"/>
          <path id="Trazado_1030070" data-name="Trazado 1030070" d="M335.274,41.339A11.306,11.306,0,1,0,346.58,30.031a11.307,11.307,0,0,0-11.306,11.308m20.194-.9a23.126,23.126,0,0,0-17.765-.1,8.933,8.933,0,0,1,17.765.1m-7.611,9.739a8.158,8.158,0,0,1,7.559-7.534,8.938,8.938,0,0,1-7.559,7.534m-10.113-7.524a8.159,8.159,0,0,1,7.428,7.505,8.939,8.939,0,0,1-7.428-7.505" transform="translate(-283.236 -25.37)" fill="#fff"/>
          <path id="Trazado_1030071" data-name="Trazado 1030071" d="M345.736,51.958A11.463,11.463,0,1,1,357.2,40.495a11.476,11.476,0,0,1-11.461,11.463m0-22.617a11.153,11.153,0,1,0,11.151,11.153,11.165,11.165,0,0,0-11.151-11.153m1.278,20.151a.155.155,0,0,1-.155-.167,8.347,8.347,0,0,1,7.7-7.678.158.158,0,0,1,.125.049.155.155,0,0,1,.04.128,9.128,9.128,0,0,1-7.691,7.665l-.022,0m7.375-7.518a8.038,8.038,0,0,0-7.2,7.179,8.82,8.82,0,0,0,7.2-7.179m-10.061,7.5-.024,0a9.152,9.152,0,0,1-7.557-7.636.155.155,0,0,1,.167-.177,8.272,8.272,0,0,1,7.569,7.648.155.155,0,0,1-.155.167m-7.243-7.486a8.847,8.847,0,0,0,7.07,7.144,7.96,7.96,0,0,0-7.07-7.144m17.539-2.233a.156.156,0,0,1-.061-.012,22.971,22.971,0,0,0-17.646-.1.155.155,0,0,1-.213-.16,9.088,9.088,0,0,1,18.074.1.156.156,0,0,1-.155.171m-9-2.133a23.079,23.079,0,0,1,8.816,1.733,8.778,8.778,0,0,0-17.394-.094,23.088,23.088,0,0,1,8.579-1.638" transform="translate(-282.391 -24.525)" fill="#5479f7"/>
          <path id="Trazado_1030072" data-name="Trazado 1030072" d="M387.8,95.508c0,1.188,1.415,2.152,3.16,2.152s3.16-.963,3.16-2.152-1.415-2.152-3.16-2.152-3.16.963-3.16,2.152" transform="translate(-327.605 -78.866)" fill="#fff"/>
          <path id="Trazado_1030073" data-name="Trazado 1030073" d="M390.11,96.97c-1.828,0-3.315-1.035-3.315-2.307s1.487-2.307,3.315-2.307,3.315,1.035,3.315,2.307-1.487,2.307-3.315,2.307m0-4.3c-1.657,0-3,.9-3,2s1.348,2,3,2,3-.9,3-2-1.348-2-3-2" transform="translate(-326.76 -78.021)" fill="#5479f7"/>
          <path id="Trazado_1030074" data-name="Trazado 1030074" d="M576.758,51.011a.722.722,0,0,0-.791-.743,2.957,2.957,0,0,0-.313-.825.769.769,0,0,0,.068-.056.725.725,0,0,0-.994-1.055.738.738,0,0,0-.06.065,2.965,2.965,0,0,0-.8-.362.7.7,0,0,0,.008-.088.725.725,0,1,0-1.449-.043.705.705,0,0,0,0,.088,2.955,2.955,0,0,0-.825.313.736.736,0,0,0-.056-.068.725.725,0,0,0-1.055.994.7.7,0,0,0,.065.06,2.959,2.959,0,0,0-.362.8.776.776,0,0,0-.088-.008.725.725,0,0,0-.043,1.449.75.75,0,0,0,.088,0,2.961,2.961,0,0,0,.313.825.745.745,0,0,0-.068.056.725.725,0,0,0,.994,1.055.7.7,0,0,0,.06-.065,2.964,2.964,0,0,0,.8.362.738.738,0,0,0-.009.088.725.725,0,1,0,1.446-.045,2.957,2.957,0,0,0,.825-.313.694.694,0,0,0,.056.068.725.725,0,1,0,.99-1.054,2.964,2.964,0,0,0,.362-.8.739.739,0,0,0,.088.009.725.725,0,0,0,.746-.7m-2.354-.07a1.346,1.346,0,1,1-1.306-1.385,1.346,1.346,0,0,1,1.306,1.385" transform="translate(-480.988 -39.875)" fill="#fff"/>
          <path id="Trazado_1030075" data-name="Trazado 1030075" d="M572.126,53.91H572.1a.88.88,0,0,1-.854-.876,3.114,3.114,0,0,1-.616-.277.88.88,0,0,1-1.206-1.28,3.1,3.1,0,0,1-.24-.631.88.88,0,0,1,.052-1.759,3.112,3.112,0,0,1,.277-.616.882.882,0,0,1,.057-1.222.857.857,0,0,1,.63-.239.874.874,0,0,1,.594.255,3.11,3.11,0,0,1,.631-.24.874.874,0,0,1,.275-.585.859.859,0,0,1,.63-.239.881.881,0,0,1,.854.876,3.107,3.107,0,0,1,.616.277A.88.88,0,0,1,575,48.632a3.113,3.113,0,0,1,.24.632.88.88,0,0,1-.052,1.759,3.094,3.094,0,0,1-.277.616.881.881,0,0,1-.057,1.222.88.88,0,0,1-1.224-.016,3.114,3.114,0,0,1-.631.24.88.88,0,0,1-.878.825M570.6,52.4a.155.155,0,0,1,.084.025,2.809,2.809,0,0,0,.763.343.155.155,0,0,1,.112.173.535.535,0,0,0-.007.069.57.57,0,0,0,.552.586.576.576,0,0,0,.407-.155.566.566,0,0,0,.179-.4.612.612,0,0,0,0-.07.155.155,0,0,1,.122-.165,2.8,2.8,0,0,0,.781-.3.155.155,0,0,1,.2.043.589.589,0,0,0,.044.054.566.566,0,0,0,.4.179.578.578,0,0,0,.408-.155.571.571,0,0,0,.024-.806.56.56,0,0,0-.051-.047.155.155,0,0,1-.031-.2,2.8,2.8,0,0,0,.343-.763.156.156,0,0,1,.173-.112.6.6,0,0,0,.069.007.572.572,0,0,0,.407-.155.57.57,0,0,0-.374-.984.575.575,0,0,0-.069,0,.156.156,0,0,1-.166-.122,2.8,2.8,0,0,0-.3-.782.155.155,0,0,1,.043-.2.579.579,0,0,0,.053-.044.57.57,0,1,0-.781-.829.6.6,0,0,0-.047.051.155.155,0,0,1-.2.031,2.8,2.8,0,0,0-.762-.343.155.155,0,0,1-.112-.173.548.548,0,0,0,.007-.069.57.57,0,0,0-.552-.586.57.57,0,0,0-.586.553.6.6,0,0,0,0,.07.155.155,0,0,1-.122.165,2.8,2.8,0,0,0-.781.3.155.155,0,0,1-.2-.043.589.589,0,0,0-.044-.054.57.57,0,1,0-.829.782.612.612,0,0,0,.051.047.155.155,0,0,1,.031.2,2.8,2.8,0,0,0-.343.763.154.154,0,0,1-.173.112.557.557,0,0,0-.069-.007.57.57,0,0,0-.034,1.139.647.647,0,0,0,.069,0,.155.155,0,0,1,.166.122,2.805,2.805,0,0,0,.3.782.155.155,0,0,1-.043.2.545.545,0,0,0-.054.044.57.57,0,1,0,.781.829.609.609,0,0,0,.047-.051.155.155,0,0,1,.119-.056m1.609-.848h-.045a1.5,1.5,0,1,1,.045,0m0-2.693a1.189,1.189,0,1,0,.036,0h-.036m1.346,1.231h0Z" transform="translate(-480.143 -39.028)"/>
          <path id="Trazado_1030076" data-name="Trazado 1030076" d="M510.956,83.651a1.329,1.329,0,0,0-.8-1.7,1.31,1.31,0,0,0-.155-.045,5.421,5.421,0,0,0-.071-1.617,1.346,1.346,0,0,0,.151-.059,1.329,1.329,0,1,0-1.125-2.409,1.344,1.344,0,0,0-.142.078,5.416,5.416,0,0,0-1.194-1.092,1.3,1.3,0,0,0,.065-.148,1.329,1.329,0,1,0-2.544-.751,5.422,5.422,0,0,0-1.617.072,1.3,1.3,0,0,0-.059-.151,1.33,1.33,0,1,0-2.331,1.268,5.427,5.427,0,0,0-1.093,1.194,1.33,1.33,0,1,0-.9,2.479,5.421,5.421,0,0,0,.071,1.617,1.329,1.329,0,1,0,1.116,2.389,5.419,5.419,0,0,0,1.194,1.092,1.3,1.3,0,0,0-.065.148,1.329,1.329,0,1,0,2.5.907,1.3,1.3,0,0,0,.045-.155,5.428,5.428,0,0,0,1.617-.072,1.347,1.347,0,0,0,.059.151,1.33,1.33,0,0,0,2.409-1.126,1.348,1.348,0,0,0-.078-.142,5.44,5.44,0,0,0,1.093-1.194,1.323,1.323,0,0,0,1.852-.731m-4.06-1.473a2.469,2.469,0,1,1-1.477-3.163,2.471,2.471,0,0,1,1.477,3.163" transform="translate(-420.802 -63.253)" fill="#fff"/>
          <path id="Trazado_1030077" data-name="Trazado 1030077" d="M501.86,87.109a1.484,1.484,0,0,1-1.393-1.991l.016-.041a5.573,5.573,0,0,1-1.035-.946l-.039.019a1.484,1.484,0,1,1-1.256-2.69l.04-.018a5.576,5.576,0,0,1-.062-1.4l-.041-.014a1.485,1.485,0,0,1,1.014-2.791l.041.016a5.59,5.59,0,0,1,.948-1.035l-.019-.039a1.485,1.485,0,0,1,2.691-1.258l.018.04a5.6,5.6,0,0,1,1.4-.063c0-.014.009-.028.014-.042a1.484,1.484,0,1,1,2.791,1.013l-.016.041a5.569,5.569,0,0,1,1.035.947l.039-.019a1.484,1.484,0,1,1,1.256,2.69l-.04.018a5.581,5.581,0,0,1,.062,1.4l.042.014a1.485,1.485,0,0,1-1.014,2.791l-.041-.016a5.578,5.578,0,0,1-.948,1.035l.019.039a1.485,1.485,0,0,1-2.691,1.258l-.018-.04a5.578,5.578,0,0,1-1.4.063l-.014.042a1.488,1.488,0,0,1-1.4.979m-2.376-3.333a.155.155,0,0,1,.121.058,5.263,5.263,0,0,0,1.16,1.061.156.156,0,0,1,.052.2,1.131,1.131,0,0,0-.058.131,1.174,1.174,0,1,0,2.247.663.157.157,0,0,1,.167-.12,5.276,5.276,0,0,0,1.571-.07.155.155,0,0,1,.178.1,1.181,1.181,0,0,0,.051.133,1.175,1.175,0,0,0,2.128-.995,1.206,1.206,0,0,0-.069-.125.155.155,0,0,1,.034-.2,5.268,5.268,0,0,0,1.062-1.16.155.155,0,0,1,.2-.052,1.223,1.223,0,0,0,.131.058,1.175,1.175,0,1,0,.665-2.247.155.155,0,0,1-.119-.168,5.264,5.264,0,0,0-.069-1.57.155.155,0,0,1,.1-.177,1.144,1.144,0,0,0,.133-.052,1.174,1.174,0,1,0-1.118-2.058.155.155,0,0,1-.2-.034,5.264,5.264,0,0,0-1.16-1.061.155.155,0,0,1-.052-.2,1.153,1.153,0,0,0,.058-.131,1.174,1.174,0,1,0-2.207-.8,1.194,1.194,0,0,0-.04.138.156.156,0,0,1-.167.119,5.262,5.262,0,0,0-1.57.07.155.155,0,0,1-.178-.1,1.177,1.177,0,0,0-.052-.133,1.174,1.174,0,0,0-1.56-.566,1.176,1.176,0,0,0-.568,1.561,1.157,1.157,0,0,0,.069.125.155.155,0,0,1-.034.2,5.274,5.274,0,0,0-1.062,1.16.155.155,0,0,1-.2.052,1.219,1.219,0,0,0-.131-.058,1.175,1.175,0,1,0-.665,2.247.155.155,0,0,1,.119.168,5.269,5.269,0,0,0,.069,1.571.156.156,0,0,1-.1.177,1.174,1.174,0,1,0,.86,2.179,1.2,1.2,0,0,0,.125-.069.155.155,0,0,1,.082-.023m10.624-.968h0Zm-6.385.309a2.626,2.626,0,1,1,2.471-1.729,2.613,2.613,0,0,1-2.471,1.729m.008-4.938a2.315,2.315,0,0,0-2.1,3.294,2.315,2.315,0,1,0,2.1-3.294" transform="translate(-419.954 -62.408)"/>
        </g>
      </g>
    </g>
  </g>
</svg>
