<svg xmlns="http://www.w3.org/2000/svg" xmlns:xlink="http://www.w3.org/1999/xlink" width="98" height="98" viewBox="0 0 98 98">
  <defs>
    <clipPath id="clip-path">
      <rect id="Rectángulo_456277" data-name="Rectángulo 456277" width="98" height="98" transform="translate(0.31 0.309)" fill="#d35560"/>
    </clipPath>
    <clipPath id="clip-path-2">
      <rect id="Rectángulo_459946" data-name="Rectángulo 459946" width="43.847" height="50.345" fill="#fff"/>
    </clipPath>
  </defs>
  <g id="Grupo_1186105" data-name="Grupo 1186105" transform="translate(13435.691 12680.691)">
    <g id="Grupo_1179924" data-name="Grupo 1179924" transform="translate(-13436.001 -12681)">
      <g id="Grupo_1179923" data-name="Grupo 1179923" transform="translate(0 0)" clip-path="url(#clip-path)">
        <path id="Trazado_1004716" data-name="Trazado 1004716" d="M48.95,97.9c-1.59,0-3.077-1.816-4.627-1.968-1.579-.154-3.391,1.337-4.922,1.033-1.554-.309-2.657-2.381-4.153-2.835-1.513-.46-3.582.647-5.028.045s-2.134-2.855-3.515-3.6-3.636-.066-4.94-.94-1.533-3.214-2.747-4.212-3.552-.768-4.664-1.88-.88-3.448-1.88-4.664-3.335-1.438-4.212-2.747-.194-3.55-.94-4.94-2.99-2.057-3.6-3.515.505-3.515.046-5.028c-.455-1.5-2.527-2.6-2.835-4.153-.3-1.531,1.187-3.343,1.033-4.921C1.816,52.028,0,50.54,0,48.95s1.816-3.077,1.968-4.627C2.122,42.744.631,40.932.935,39.4c.308-1.554,2.38-2.657,2.835-4.153.46-1.513-.646-3.583-.045-5.029s2.855-2.133,3.6-3.515.066-3.636.94-4.94,3.214-1.533,4.212-2.747.768-3.552,1.881-4.664,3.448-.88,4.664-1.88,1.438-3.335,2.747-4.212,3.55-.194,4.94-.94,2.057-2.99,3.515-3.6,3.515.505,5.029.045c1.5-.454,2.6-2.527,4.153-2.835,1.531-.3,3.343,1.187,4.921,1.033C45.873,1.816,47.36,0,48.95,0s3.077,1.816,4.627,1.968C55.157,2.122,56.969.631,58.5.935c1.554.309,2.657,2.381,4.154,2.835,1.513.46,3.582-.647,5.028-.045s2.134,2.855,3.515,3.6,3.636.066,4.94.94,1.533,3.214,2.747,4.212,3.552.768,4.664,1.881.88,3.448,1.88,4.664,3.335,1.438,4.212,2.747.194,3.55.94,4.94,2.99,2.057,3.6,3.515-.505,3.515-.045,5.028c.455,1.5,2.527,2.6,2.835,4.153.3,1.531-1.187,3.343-1.033,4.922.152,1.551,1.968,3.038,1.968,4.627s-1.816,3.077-1.968,4.628c-.154,1.579,1.337,3.39,1.033,4.921-.308,1.554-2.38,2.657-2.835,4.154-.46,1.513.646,3.582.045,5.028s-2.855,2.134-3.6,3.515-.066,3.636-.94,4.94-3.214,1.533-4.212,2.747-.768,3.552-1.881,4.664-3.448.88-4.664,1.88-1.438,3.335-2.747,4.212-3.55.194-4.94.94-2.057,2.99-3.515,3.6-3.515-.505-5.028-.045c-1.5.454-2.6,2.527-4.153,2.835-1.531.3-3.343-1.187-4.921-1.033-1.551.151-3.038,1.968-4.628,1.968" transform="translate(0.359 0.359)" fill="#d35560"/>
        <path id="Trazado_1004717" data-name="Trazado 1004717" d="M14,58.32a44.32,44.32,0,1,1,44.32,44.32A44.32,44.32,0,0,1,14,58.32" transform="translate(-9.01 -9.011)" fill="#a2cbcf"/>
        <path id="Trazado_1021102" data-name="Trazado 1021102" d="M14,55.014A41.014,41.014,0,1,1,55.014,96.029,41.015,41.015,0,0,1,14,55.014" transform="translate(-5.706 -5.705)" fill="#952d36"/>
      </g>
    </g>
    <g id="Grupo_1180053" data-name="Grupo 1180053" transform="translate(-13413.503 -12658.826)">
      <rect id="Rectángulo_401104" data-name="Rectángulo 401104" width="53.625" height="54.271" transform="translate(0 0)" fill="none"/>
    </g>
    <g id="Grupo_1187729" data-name="Grupo 1187729" transform="translate(-13408.613 -12656.924)">
      <g id="Grupo_1187728" data-name="Grupo 1187728" clip-path="url(#clip-path-2)">
        <path id="Trazado_1033099" data-name="Trazado 1033099" d="M40.439.006Q21.945-.006,3.452.008A3.128,3.128,0,0,0,0,3.465Q0,14.3,0,25.132q0,10.888,0,21.776a3.1,3.1,0,0,0,3.349,3.436q18.658,0,37.315-.031a2.953,2.953,0,0,0,3.154-3.145q.031-21.886.021-43.771a3.089,3.089,0,0,0-3.4-3.391m1.853,46.3c0,2.119-.351,2.468-2.45,2.468q-17.891,0-35.782.007c-2.195,0-2.527-.335-2.525-2.512q.006-10.559,0-21.119h.012q0-10.669,0-21.338c0-1.719.568-2.289,2.28-2.288q17.945.007,35.891.019c2.2,0,2.586.422,2.585,2.635q-.013,21.064-.013,42.128" transform="translate(0.001 0)" fill="#fff"/>
        <path id="Trazado_1033100" data-name="Trazado 1033100" d="M32.956,185.4c-1.458.026-2.917.007-4.375.007v0c-1.495,0-2.99.015-4.485-.006-.852-.011-1.311.358-1.313,1.22q-.01,4.485,0,8.969a1.039,1.039,0,0,0,1.144,1.164c3.026.01,6.053.006,9.079.016a.976.976,0,0,0,1.113-1.056q.029-4.594,0-9.188a1.008,1.008,0,0,0-1.161-1.122m-.357,9.15c0,.523-.155.686-.683.68q-3.5-.037-7,0c-.489,0-.624-.164-.621-.629.017-2.334.024-4.668,0-7-.006-.538.172-.683.684-.67,1.166.031,2.334.01,3.5.009s2.335.017,3.5-.009c.468-.01.632.128.627.616q-.036,3.5,0,7" transform="translate(-18.589 -151.318)" fill="#fff"/>
        <path id="Trazado_1033101" data-name="Trazado 1033101" d="M23.991,39.652c1.457-.028,2.916-.008,4.374-.008v.009c1.494,0,2.989-.011,4.483,0,.8.009,1.254-.325,1.259-1.148q.013-2.187,0-4.374c0-.465-.132-.884-.721-.884s-.824.333-.814.911c.019,1.057-.027,2.116.022,3.17.029.62-.169.8-.788.793-2.223-.034-4.448-.048-6.67.007-.766.019-.881-.266-.869-.934.04-2.15.051-4.3,0-6.451-.017-.741.14-1.009.94-.98,1.857.066,3.717.021,5.576.033.556,0,.946-.2.955-.792.009-.631-.442-.758-.969-.757-2.26.005-4.52.016-6.779.006-.876,0-1.242.41-1.237,1.272.014,2.952.008,5.9,0,8.857,0,.843.342,1.283,1.24,1.266" transform="translate(-18.568 -23.058)" fill="#fff"/>
        <path id="Trazado_1033102" data-name="Trazado 1033102" d="M24.051,118.189c1.457-.047,2.916-.013,4.374-.013v.009c1.458,0,2.918-.032,4.375.011.958.029,1.312-.433,1.31-1.312,0-1.349-.008-2.7,0-4.047,0-.523-.118-1.009-.726-1.008s-.845.427-.825,1.038c.032.983-.032,1.972.033,2.952.047.708-.224.847-.871.836-2.223-.037-4.448-.042-6.671,0-.655.012-.781-.22-.773-.81.03-2.223.05-4.448-.006-6.671-.019-.766.26-.891.932-.876,1.858.041,3.718.007,5.577.022.555,0,.975-.191,1-.759.026-.593-.4-.785-.953-.782q-3.445.017-6.89.01c-.761,0-1.172.346-1.174,1.106q-.013,4.539,0,9.078c0,.831.4,1.243,1.292,1.214" transform="translate(-18.57 -87.152)" fill="#fff"/>
        <path id="Trazado_1033103" data-name="Trazado 1033103" d="M104.132,46.847A4.631,4.631,0,0,0,105,46.9q4.423,0,8.845,0v.01c3.021,0,6.042,0,9.064,0,.592,0,1.257,0,1.218-.856-.035-.79-.7-.691-1.224-.75a3.974,3.974,0,0,0-.437,0q-8.791,0-17.581,0a3.939,3.939,0,0,0-.759.043.766.766,0,0,0,.007,1.511" transform="translate(-84.466 -36.967)" fill="#fff"/>
        <path id="Trazado_1033104" data-name="Trazado 1033104" d="M123,201.962q-9.08.009-18.16.013c-.591,0-1.282-.068-1.233.806.042.741.642.734,1.222.731,2.99-.013,5.98-.006,8.97,0q4.595,0,9.189,0c.54,0,1.194.081,1.233-.711.042-.863-.618-.833-1.222-.833" transform="translate(-84.559 -164.837)" fill="#fff"/>
        <path id="Trazado_1033105" data-name="Trazado 1033105" d="M123.632,123.609a3.577,3.577,0,0,0-.868-.04q-4.423,0-8.845,0-4.477,0-8.955,0c-.612,0-1.349-.123-1.349.815,0,.9.72.738,1.281.739q8.845.011,17.691.01c.327,0,.655,0,.982-.02a.643.643,0,0,0,.662-.706.736.736,0,0,0-.6-.8" transform="translate(-84.568 -100.85)" fill="#fff"/>
        <path id="Trazado_1033106" data-name="Trazado 1033106" d="M104.609,66.717c2.043-.006,4.087,0,6.13,0v.008c2.043,0,4.087-.008,6.13.005.551,0,1.079-.028,1.105-.727.029-.767-.525-.836-1.122-.835q-6.13.006-12.259,0c-.538,0-1.087.021-1.112.729-.028.776.539.828,1.129.827" transform="translate(-84.457 -53.183)" fill="#fff"/>
        <path id="Trazado_1033107" data-name="Trazado 1033107" d="M116.917,221.427q-6.18.028-12.36.041c-.556,0-1.081.084-1.042.794.037.66.511.757,1.091.75,2.042-.025,4.084-.01,6.125-.01v.008c2.042,0,4.084-.011,6.125.007.6.006,1.157-.028,1.137-.8-.017-.66-.506-.8-1.077-.793" transform="translate(-84.486 -180.724)" fill="#fff"/>
        <path id="Trazado_1033108" data-name="Trazado 1033108" d="M104.613,145.136c2.04-.013,4.081-.005,6.122-.005v0c2,0,4.009-.015,6.012.01.6.008,1.175-.022,1.2-.748s-.534-.814-1.141-.812q-6.121.019-12.243,0c-.543,0-1.092.014-1.1.727,0,.744.54.824,1.144.82" transform="translate(-84.449 -117.19)" fill="#fff"/>
        <path id="Trazado_1033109" data-name="Trazado 1033109" d="M45.756,105.218a5.42,5.42,0,0,0-.531.548c-1.324,1.452-2.636,2.915-3.971,4.356-1.278,1.379-1.289,1.37-2.568.046a1.352,1.352,0,0,0-.906-.543c-.473-.022-.773.167-.81.663-.04.53,2.58,3.165,3.281,3.122.319-.029.564-.426.85-.739q2.062-2.256,4.1-4.538c.557-.623,1.1-1.26,1.637-1.9a.7.7,0,0,0-.01-1.065c-.368-.355-.733-.226-1.067.049" transform="translate(-30.174 -85.66)" fill="#fff"/>
        <path id="Trazado_1033110" data-name="Trazado 1033110" d="M38.608,31.9c-.1-.1-.207-.2-.319-.3a.806.806,0,0,0-1.172-.057c-.418.4-.209.818.1,1.155.594.641,1.247,1.229,1.828,1.881.628.7,1.154.72,1.793-.009,1.873-2.136,3.784-4.239,5.678-6.356a1.214,1.214,0,0,0,.452-.841.606.606,0,0,0-.395-.6.993.993,0,0,0-1.141.415q-2.086,2.316-4.2,4.608c-1.291,1.4-1.3,1.4-2.63.1" transform="translate(-30.103 -21.811)" fill="#fff"/>
      </g>
    </g>
  </g>
</svg>
