<svg xmlns="http://www.w3.org/2000/svg" xmlns:xlink="http://www.w3.org/1999/xlink" width="98" height="98" viewBox="0 0 98 98">
  <defs>
    <clipPath id="clip-path">
      <rect id="Rectángulo_456277" data-name="Rectángulo 456277" width="98" height="98" transform="translate(0.31 0.309)" fill="#d35560"/>
    </clipPath>
    <clipPath id="clip-path-2">
      <rect id="Rectángulo_459947" data-name="Rectángulo 459947" width="48.461" height="47.513" fill="#fff"/>
    </clipPath>
  </defs>
  <g id="Grupo_1186107" data-name="Grupo 1186107" transform="translate(13435.691 12680.691)">
    <g id="Grupo_1179924" data-name="Grupo 1179924" transform="translate(-13436.001 -12681)">
      <g id="Grupo_1179923" data-name="Grupo 1179923" transform="translate(0 0)" clip-path="url(#clip-path)">
        <path id="Trazado_1004716" data-name="Trazado 1004716" d="M48.95,97.9c-1.59,0-3.077-1.816-4.627-1.968-1.579-.154-3.391,1.337-4.922,1.033-1.554-.309-2.657-2.381-4.153-2.835-1.513-.46-3.582.647-5.028.045s-2.134-2.855-3.515-3.6-3.636-.066-4.94-.94-1.533-3.214-2.747-4.212-3.552-.768-4.664-1.88-.88-3.448-1.88-4.664-3.335-1.438-4.212-2.747-.194-3.55-.94-4.94-2.99-2.057-3.6-3.515.505-3.515.046-5.028c-.455-1.5-2.527-2.6-2.835-4.153-.3-1.531,1.187-3.343,1.033-4.921C1.816,52.028,0,50.54,0,48.95s1.816-3.077,1.968-4.627C2.122,42.744.631,40.932.935,39.4c.308-1.554,2.38-2.657,2.835-4.153.46-1.513-.646-3.583-.045-5.029s2.855-2.133,3.6-3.515.066-3.636.94-4.94,3.214-1.533,4.212-2.747.768-3.552,1.881-4.664,3.448-.88,4.664-1.88,1.438-3.335,2.747-4.212,3.55-.194,4.94-.94,2.057-2.99,3.515-3.6,3.515.505,5.029.045c1.5-.454,2.6-2.527,4.153-2.835,1.531-.3,3.343,1.187,4.921,1.033C45.873,1.816,47.36,0,48.95,0s3.077,1.816,4.627,1.968C55.157,2.122,56.969.631,58.5.935c1.554.309,2.657,2.381,4.154,2.835,1.513.46,3.582-.647,5.028-.045s2.134,2.855,3.515,3.6,3.636.066,4.94.94,1.533,3.214,2.747,4.212,3.552.768,4.664,1.881.88,3.448,1.88,4.664,3.335,1.438,4.212,2.747.194,3.55.94,4.94,2.99,2.057,3.6,3.515-.505,3.515-.045,5.028c.455,1.5,2.527,2.6,2.835,4.153.3,1.531-1.187,3.343-1.033,4.922.152,1.551,1.968,3.038,1.968,4.627s-1.816,3.077-1.968,4.628c-.154,1.579,1.337,3.39,1.033,4.921-.308,1.554-2.38,2.657-2.835,4.154-.46,1.513.646,3.582.045,5.028s-2.855,2.134-3.6,3.515-.066,3.636-.94,4.94-3.214,1.533-4.212,2.747-.768,3.552-1.881,4.664-3.448.88-4.664,1.88-1.438,3.335-2.747,4.212-3.55.194-4.94.94-2.057,2.99-3.515,3.6-3.515-.505-5.028-.045c-1.5.454-2.6,2.527-4.153,2.835-1.531.3-3.343-1.187-4.921-1.033-1.551.151-3.038,1.968-4.628,1.968" transform="translate(0.359 0.359)" fill="#d35560"/>
        <path id="Trazado_1004717" data-name="Trazado 1004717" d="M14,58.32a44.32,44.32,0,1,1,44.32,44.32A44.32,44.32,0,0,1,14,58.32" transform="translate(-9.01 -9.011)" fill="#a2cbcf"/>
        <path id="Trazado_1021102" data-name="Trazado 1021102" d="M14,55.014A41.014,41.014,0,1,1,55.014,96.029,41.015,41.015,0,0,1,14,55.014" transform="translate(-5.706 -5.705)" fill="#952d36"/>
      </g>
    </g>
    <g id="Grupo_1180053" data-name="Grupo 1180053" transform="translate(-13413.503 -12658.826)">
      <rect id="Rectángulo_401104" data-name="Rectángulo 401104" width="53.625" height="54.271" transform="translate(0 0)" fill="none"/>
    </g>
    <g id="Grupo_1187731" data-name="Grupo 1187731" transform="translate(-13410.922 -12655.447)">
      <g id="Grupo_1187730" data-name="Grupo 1187730" clip-path="url(#clip-path-2)">
        <path id="Trazado_1033111" data-name="Trazado 1033111" d="M145.239,144.009a10.784,10.784,0,0,0-7.178,1.228,3.087,3.087,0,0,0-1.59,2.9c.063,2.445.13,4.9-.012,7.338a3.542,3.542,0,0,0,2.488,3.785,11.564,11.564,0,0,0,8.219.305,4.051,4.051,0,0,0,2.678-1.741c.52-1.1,1.189-.924,2.092-.823a9.87,9.87,0,0,0,6.422-1.222,3.127,3.127,0,0,0,1.669-2.973c-.062-1.751-.015-3.505-.016-5.258,0-1.717-.1-3.44.025-5.147a3.415,3.415,0,0,0-2.242-3.613,11.055,11.055,0,0,0-7.782-.58c-3.115.829-3.865,1.769-3.83,4.961.008.77-.126.931-.942.843m2.885,13.737a9.807,9.807,0,0,1-9.417-.028,1.673,1.673,0,0,1-.919-1.969,11.694,11.694,0,0,0,11.4-.084,1.826,1.826,0,0,1-1.059,2.082m-10.275-7.835a11.589,11.589,0,0,0,11.305-.061c.263.966-.328,1.514-1,1.975-2.257,1.558-7.25,1.519-9.484-.046a1.614,1.614,0,0,1-.825-1.868m10.48,4.733c-2.3,1.679-7.357,1.713-9.684.068-.782-.553-.884-.794-.822-1.935a11.343,11.343,0,0,0,11.32-.05,1.629,1.629,0,0,1-.815,1.917m1.219-8.864a3.074,3.074,0,0,0-1.507-1.035c-.354-.146-.8-.289-.531-.9a11.567,11.567,0,0,0,11.194-.008c.157.889-.083,1.416-1.061,2.018a9.245,9.245,0,0,1-5.895,1.068,2.582,2.582,0,0,1-2.2-1.139m8.427,8.719a9.263,9.263,0,0,1-7.016,1.114c-.885-.147-.456-.854-.491-1.317-.053-.7.46-.328.746-.3,2.65.259,5.229.142,7.559-1.424a1.693,1.693,0,0,1-.8,1.927m-.56-2.587a9.357,9.357,0,0,1-6.379.767c-.912-.183-.567-.926-.536-1.422.038-.6.559-.263.851-.218a10.891,10.891,0,0,0,7.441-1.422,2.039,2.039,0,0,1-1.377,2.3m.361-3.164a9.472,9.472,0,0,1-6.751.982c-.873-.14-.522-.833-.558-1.3-.052-.677.5-.358.778-.331a11.169,11.169,0,0,0,7.532-1.465,1.905,1.905,0,0,1-1,2.113m-9.343-8.529a9.4,9.4,0,0,1,9.176-.086c1.606.827,1.578,1.863.05,2.819a9.33,9.33,0,0,1-4.823,1.075,7.96,7.96,0,0,1-4.459-1.221c-1.282-.869-1.3-1.858.056-2.587m-.012,6.2c.99.723.982,1.642-.084,2.372a9.88,9.88,0,0,1-9.674.049c-1.223-.843-1.191-1.735.04-2.567,2.341-1.58,7.457-1.5,9.717.146" transform="translate(-111.587 -112.661)" fill="#fff"/>
        <path id="Trazado_1033112" data-name="Trazado 1033112" d="M0,4.538q0,7.345,0,14.69,0,3.727,0,7.454c0,2.521-.007,5.043.008,7.564.016,2.821,1.444,4.244,4.242,4.246q8.989.006,17.978,0a6.125,6.125,0,0,0,.657-.006.668.668,0,0,0,.665-.609c.016-.423-.294-.64-.711-.662-.255-.013-.511,0-.767,0q-8.825,0-17.65,0c-2.369,0-3.165-.779-3.166-3.129Q1.247,19.232,1.251,4.378c0-2.233.888-3.132,3.092-3.133q12.223-.007,24.446-.008c2.285,0,3.142.851,3.143,3.165q.007,12.168.007,24.337c0,.507-.086,1.16.618,1.186.745.028.619-.652.648-1.144.011-.182,0-.365,0-.548q0-11.73.008-23.46C33.221,1.246,31.963,0,28.4,0Q16.449.009,4.5,0C1.344,0,0,1.343,0,4.538" transform="translate(0 0)" fill="#fff"/>
        <path id="Trazado_1033113" data-name="Trazado 1033113" d="M47.337,30.882q.024-3.343,0-6.686c-.008-1.4-.5-1.873-1.931-1.875q-5.261-.008-10.522,0-5.316,0-10.632,0c-1.455,0-1.961.513-1.966,1.977q-.011,3.233,0,6.467c.008,1.248.541,1.824,1.793,1.827q10.8.023,21.592,0c1.137,0,1.649-.562,1.658-1.707m-12.6.437c-3.432,0-6.864-.017-10.3.015-.7.006-.962-.15-.938-.9.063-2.006.062-4.016.041-6.023-.006-.611.168-.814.8-.812q10.46.029,20.92,0c.645,0,.906.154.889.852-.048,2.007-.051,4.016-.022,6.023.01.673-.213.868-.88.863-3.5-.03-7.01-.014-10.515-.013" transform="translate(-18.224 -18.25)" fill="#fff"/>
        <path id="Trazado_1033114" data-name="Trazado 1033114" d="M203.992,62.312c.219,0,.439.008.657-.009.778-.062.99-.471.531-1.081-1.863-2.477-3.758-4.93-5.642-7.391a.654.654,0,0,0-1.173-.008c-1.884,2.46-3.768,4.919-5.606,7.414-.432.586-.214,1.054.585,1.079a10.562,10.562,0,0,0,1.532-.007c.8-.093.988.259.955,1-.053,1.166-.013,2.336-.008,3.5,0,.435.123.862.618.876.585.016.646-.439.64-.921-.016-1.314-.007-2.629-.007-3.943,0-1.684,0-1.676-1.633-1.7-.262,0-.577.153-.864-.223l4.374-5.783,4.6,6.025c-.825,0-1.373.006-1.92,0a.7.7,0,0,0-.811.793q0,2.464.006,4.929c0,.459.215.843.675.821s.609-.432.6-.887c-.017-.839-.01-1.679-.011-2.519,0-1.954,0-1.953,1.9-1.961" transform="translate(-157.459 -43.721)" fill="#fff"/>
        <path id="Trazado_1033115" data-name="Trazado 1033115" d="M125.4,101.274c1.441,0,1.47.029,1.468,1.474q-.007,4.165,0,8.33c0,.445,0,.931.647.924.507-.005.552-.374.552-.767,0-3.142.024-6.284-.01-9.425a1.615,1.615,0,0,0-1.719-1.727c-1.021-.045-2.045-.026-3.068-.015-1.643.017-2.248.619-2.253,2.238-.006,1.936,0,3.873,0,5.809,0,2.046.013,4.092-.007,6.138a1.8,1.8,0,0,0,.825,1.674c.224.142.495.38.778.062.219-.246.284-.637.115-.808-.676-.684-.419-1.512-.427-2.282-.029-2.813-.01-5.626-.016-8.439-.007-3.175-.01-3.175,3.12-3.185" transform="translate(-98.957 -81.823)" fill="#fff"/>
        <path id="Trazado_1033116" data-name="Trazado 1033116" d="M75.344,157.049c3.3.071,3.588-.313,3.479-3.487,0-3.493-.076-3.565-3.621-3.571-3.263-.005-3.435.167-3.438,3.447,0,3.529.058,3.535,3.581,3.611m-2.3-3.53c-.02-2.248-.01-2.248,2.23-2.252,2.622.023,2.342-.422,2.351,2.387.008,2.39.164,2.22-2.266,2.216-2.659,0-2.293.216-2.315-2.35" transform="translate(-58.687 -122.661)" fill="#fff"/>
        <path id="Trazado_1033117" data-name="Trazado 1033117" d="M25.634,107.264c3.481-.07,3.608-.139,3.609-3.622,0-3.367-.108-3.475-3.507-3.476-3.473,0-3.56.085-3.56,3.529-.16,3.191.363,3.631,3.458,3.569m-2.241-3.525c.034-2.67-.249-2.359,2.417-2.365,2.083,0,2.268-.427,2.188,2.142,0,.073,0,.145,0,.218-.006,2.274-.005,2.274-2.342,2.268-2.351-.056-2.3.476-2.262-2.264" transform="translate(-18.115 -81.916)" fill="#fff"/>
        <path id="Trazado_1033118" data-name="Trazado 1033118" d="M75.284,107.268c3.343,0,3.52-.179,3.511-3.485-.01-3.568-.033-3.591-3.6-3.591-3.321,0-3.48.161-3.475,3.514.005,3.382.189,3.565,3.562,3.563m-.041-5.874c2.531,0,2.374-.2,2.352,2.352-.02,2.452.38,2.282-2.274,2.264-2.709-.019-2.272.335-2.317-2.432.025-2.383-.341-2.182,2.238-2.184" transform="translate(-58.654 -81.935)" fill="#fff"/>
        <path id="Trazado_1033119" data-name="Trazado 1033119" d="M25.757,157.036c3.381.121,3.67-.2,3.612-3.464-.061-3.411-.187-3.58-3.558-3.582-3.423,0-3.525.1-3.524,3.553,0,3.406.083,3.488,3.47,3.493M23.5,153.561c.02-2.3.011-2.323,2.342-2.3,2.491.024,2.285-.492,2.3,2.337.019,2.649-.044,2.254-2.351,2.263-2.358-.012-2.319.342-2.3-2.3" transform="translate(-18.226 -122.66)" fill="#fff"/>
      </g>
    </g>
  </g>
</svg>
