<svg xmlns="http://www.w3.org/2000/svg" xmlns:xlink="http://www.w3.org/1999/xlink" width="396" height="157" viewBox="0 0 396 157">
  <defs>
    <clipPath id="clip-path">
      <rect id="Rectángulo_459857" data-name="Rectángulo 459857" width="141.166" height="142.93" fill="none"/>
    </clipPath>
    <clipPath id="clip-path-2">
      <rect id="Rectángulo_459863" data-name="Rectángulo 459863" width="139.961" height="140.366" fill="none"/>
    </clipPath>
  </defs>
  <g id="Grupo_1187608" data-name="Grupo 1187608" transform="translate(-1017.711 -25946)">
    <rect id="Rectángulo_458633" data-name="Rectángulo 458633" width="396" height="157" rx="10" transform="translate(1017.711 25946)" fill="#eeadb6"/>
    <g id="Grupo_1187605" data-name="Grupo 1187605" transform="translate(1059.199 25953)">
      <g id="Grupo_1187604" data-name="Grupo 1187604" transform="translate(0 0)" clip-path="url(#clip-path)">
        <path id="Trazado_1030974" data-name="Trazado 1030974" d="M131.3,64.866c-3.843-4.784-11.473-5.365-19.67-4.147v-35.5h-37.5l-.051-1.166a1.858,1.858,0,0,0-1.469-1.65L10.479,10.931c-1.058-.195-1.889.376-1.85,1.278l2.23,50.5a2.041,2.041,0,0,0,1.983,1.753l6.881.437V88.512H34.208l.936,14.794c-6.741,3.441-10.956,8.339-10.956,13.776,0,10.412,15.454,18.852,34.516,18.852,16.959,0,31.063-6.682,33.966-15.488,26.062,10.393,60.687-28.122,38.631-55.581" transform="translate(1.942 2.452)" fill="#d7e4f2"/>
        <path id="Trazado_1030975" data-name="Trazado 1030975" d="M73.142,75.689a2.059,2.059,0,1,0-2.059,2.059,2.06,2.06,0,0,0,2.059-2.059" transform="translate(15.538 16.575)" fill="#89b9e6"/>
        <path id="Trazado_1030976" data-name="Trazado 1030976" d="M76.807,97.188a2.216,2.216,0,1,1,2.215-2.216,2.218,2.218,0,0,1-2.215,2.216m0-4.119a1.9,1.9,0,1,0,1.9,1.9,1.906,1.906,0,0,0-1.9-1.9" transform="translate(16.791 20.88)"/>
        <path id="Trazado_1030977" data-name="Trazado 1030977" d="M104.552,98.3a.156.156,0,0,1-.107-.271,43.993,43.993,0,0,0,6.579-8.385c2.885-4.733,6.115-12.108,5.116-20.374a.156.156,0,1,1,.31-.037c1.009,8.356-2.252,15.8-5.165,20.581a44.442,44.442,0,0,1-6.627,8.443.156.156,0,0,1-.107.042" transform="translate(23.5 15.553)" fill="#89b9e6"/>
        <path id="Trazado_1030978" data-name="Trazado 1030978" d="M104.338,99.759a.149.149,0,0,1-.116-.053.157.157,0,0,1,.011-.221c.1-.089,10.114-9.085,13.174-22.241a.155.155,0,1,1,.3.071c-3.082,13.254-13.166,22.314-13.268,22.4a.159.159,0,0,1-.1.039" transform="translate(23.452 17.361)" fill="#89b9e6"/>
        <path id="Trazado_1030979" data-name="Trazado 1030979" d="M107.824,77.727a.156.156,0,0,1-.156-.156V76.409a.156.156,0,1,1,.312,0v1.163a.157.157,0,0,1-.157.156" transform="translate(24.237 17.165)"/>
        <path id="Trazado_1030980" data-name="Trazado 1030980" d="M107.824,79.975a.156.156,0,0,1-.156-.156V78.657a.156.156,0,1,1,.312,0v1.163a.157.157,0,0,1-.157.156" transform="translate(24.237 17.671)"/>
        <path id="Trazado_1030981" data-name="Trazado 1030981" d="M109.635,78.163h-1.163a.156.156,0,0,1,0-.312h1.163a.156.156,0,0,1,0,.312" transform="translate(24.383 17.525)"/>
        <path id="Trazado_1030982" data-name="Trazado 1030982" d="M107.387,78.163h-1.163a.156.156,0,0,1,0-.312h1.163a.156.156,0,1,1,0,.312" transform="translate(23.877 17.525)"/>
        <path id="Trazado_1030983" data-name="Trazado 1030983" d="M20.476,27.933l-.9,2.236,1.571,4.078L18.21,35.38,12.715,21.106l2.94-1.132,2.492,6.47.61-2.273,1.829-6.1L24.2,16.683l-2.627,8.294L29.846,30.9l-3.5,1.348Z" transform="translate(2.862 3.756)" fill="#fff"/>
        <path id="Trazado_1030984" data-name="Trazado 1030984" d="M20.476,27.933l-.9,2.236,1.571,4.078L18.21,35.38,12.715,21.106l2.94-1.132,2.492,6.47.61-2.273,1.829-6.1L24.2,16.683l-2.627,8.294L29.846,30.9l-3.5,1.348Z" transform="translate(2.862 3.756)" fill="none" stroke="#89b9e6" stroke-linecap="round" stroke-linejoin="round" stroke-width="0.403"/>
        <rect id="Rectángulo_459854" data-name="Rectángulo 459854" width="3.151" height="15.295" transform="matrix(0.973, -0.23, 0.23, 0.973, 60.267, 49.274)" fill="#fff"/>
        <rect id="Rectángulo_459855" data-name="Rectángulo 459855" width="3.151" height="15.295" transform="matrix(0.973, -0.23, 0.23, 0.973, 60.267, 49.274)" fill="none" stroke="#89b9e6" stroke-linecap="round" stroke-linejoin="round" stroke-width="0.403"/>
        <path id="Trazado_1030985" data-name="Trazado 1030985" d="M30.182,62.06v5.388H27.031V52.154H33a6.907,6.907,0,0,1,3.031.63,4.655,4.655,0,0,1,2.012,1.791,5,5,0,0,1,.7,2.643A4.394,4.394,0,0,1,37.2,60.763a6.412,6.412,0,0,1-4.26,1.3Zm0-2.553H33a2.768,2.768,0,0,0,1.906-.588,2.14,2.14,0,0,0,.657-1.681,2.521,2.521,0,0,0-.662-1.817,2.467,2.467,0,0,0-1.828-.714H30.182Z" transform="translate(6.085 11.74)" fill="#d7e4f2"/>
        <path id="Trazado_1030986" data-name="Trazado 1030986" d="M30.182,62.06v5.388H27.031V52.154H33a6.907,6.907,0,0,1,3.031.63,4.655,4.655,0,0,1,2.012,1.791,5,5,0,0,1,.7,2.643A4.394,4.394,0,0,1,37.2,60.763a6.412,6.412,0,0,1-4.26,1.3Zm0-2.553H33a2.768,2.768,0,0,0,1.906-.588,2.14,2.14,0,0,0,.657-1.681,2.521,2.521,0,0,0-.662-1.817,2.467,2.467,0,0,0-1.828-.714H30.182Z" transform="translate(6.085 11.74)" fill="none" stroke="#4666c8" stroke-linecap="round" stroke-linejoin="round" stroke-width="0.403"/>
        <path id="Trazado_1030987" data-name="Trazado 1030987" d="M28.872,80.36a.25.25,0,0,1-.031-.5c4.744-.594,9.747-1.353,14.192-3.488,4.885-2.349,8.341-6.151,9.48-10.433,1.3-4.877-.98-10.371-5.078-12.247-3.092-1.415-6.656-.866-10.1-.334s-7.022,1.082-10.22-.282c-3.835-1.634-6.409-6.116-6.118-10.656A15.317,15.317,0,0,1,27.32,31.516a26.166,26.166,0,0,1,11.934-4.586.25.25,0,0,1,.075.494,25.692,25.692,0,0,0-11.71,4.491A14.825,14.825,0,0,0,21.49,42.454c-.276,4.336,2.17,8.61,5.817,10.165,3.066,1.308,6.564.769,9.948.247,3.52-.543,7.16-1.1,10.388.375C52.025,55.246,54.376,60.882,53,66.07c-1.177,4.423-4.73,8.343-9.747,10.754-4.512,2.168-9.561,2.935-14.346,3.533a.129.129,0,0,1-.031,0" transform="translate(4.721 6.062)"/>
        <path id="Trazado_1030988" data-name="Trazado 1030988" d="M77.714,44.1l-44.3.2a1.349,1.349,0,0,1-1.476-1.3L33.772,4.3A1.618,1.618,0,0,1,35.353,2.93L79.119.132c.952-.06,1.708.5,1.683,1.247L79.506,42.7A1.673,1.673,0,0,1,77.714,44.1" transform="translate(7.19 0.029)" fill="#fff"/>
        <path id="Trazado_1030989" data-name="Trazado 1030989" d="M33.436,44.492a1.733,1.733,0,0,1-1.255-.5,1.3,1.3,0,0,1-.37-.96L33.644,4.322A1.779,1.779,0,0,1,35.371,2.8L79.137,0A1.919,1.919,0,0,1,80.6.481a1.236,1.236,0,0,1,.388.931l-1.3,41.319a1.83,1.83,0,0,1-1.948,1.556l-44.3.2ZM79.29.312q-.066,0-.132,0l-43.767,2.8a1.463,1.463,0,0,0-1.436,1.221L32.124,43.043a.986.986,0,0,0,.283.73,1.429,1.429,0,0,0,1.038.407l44.3-.2a1.522,1.522,0,0,0,1.637-1.255L80.675,1.4a.911.911,0,0,0-.294-.7A1.553,1.553,0,0,0,79.29.312" transform="translate(7.161 0)"/>
        <path id="Trazado_1030990" data-name="Trazado 1030990" d="M36.491,5.976l39.86-2.407-1.274,36-40.356.606Z" transform="translate(7.816 0.803)" fill="#d7e4f2"/>
        <path id="Trazado_1030991" data-name="Trazado 1030991" d="M45.73,39.861h-.007a.155.155,0,0,1-.148-.163l1.6-34.8a.156.156,0,0,1,.312.015l-1.6,34.8a.155.155,0,0,1-.156.149" transform="translate(10.259 1.069)" fill="#89b9e6"/>
        <path id="Trazado_1030992" data-name="Trazado 1030992" d="M56.711,39.807H56.7a.155.155,0,0,1-.149-.163l1.438-35.4a.156.156,0,0,1,.312.013l-1.44,35.4a.156.156,0,0,1-.156.149" transform="translate(12.731 0.922)" fill="#89b9e6"/>
        <path id="Trazado_1030993" data-name="Trazado 1030993" d="M35.713,15.354a.156.156,0,0,1-.007-.312l40.025-1.807a.159.159,0,0,1,.163.149.157.157,0,0,1-.149.163L35.72,15.354h-.007" transform="translate(8.004 2.979)" fill="#89b9e6"/>
        <path id="Trazado_1030994" data-name="Trazado 1030994" d="M35.232,24.549a.156.156,0,0,1,0-.312L75.418,23.03a.158.158,0,0,1,.16.152.156.156,0,0,1-.152.16l-40.19,1.207h0" transform="translate(7.896 5.184)" fill="#89b9e6"/>
        <path id="Trazado_1030995" data-name="Trazado 1030995" d="M39.968,28.409l25.731-.4a1.9,1.9,0,0,0,1.881-1.648l1.3-15.968a1.436,1.436,0,0,0-1.629-1.523L41.333,10.465a1.806,1.806,0,0,0-1.651,1.612L38.557,26.925a1.359,1.359,0,0,0,1.411,1.484" transform="translate(8.678 1.996)" fill="#fff"/>
        <path id="Trazado_1030996" data-name="Trazado 1030996" d="M39.737,28.313h0l25.731-.4A2.061,2.061,0,0,0,67.5,26.122l1.3-15.968a.156.156,0,0,0-.143-.168.154.154,0,0,0-.168.142L67.192,26.1a1.743,1.743,0,0,1-1.727,1.5L39.734,28a.156.156,0,0,0,0,.312" transform="translate(8.91 2.248)"/>
        <path id="Trazado_1030997" data-name="Trazado 1030997" d="M41.339,24.246c.432-5.664,5.524-10.5,11.533-10.8,6.193-.308,10.963,4.3,10.481,10.281Z" transform="translate(9.306 3.024)" fill="#d7e4f2"/>
        <path id="Trazado_1030998" data-name="Trazado 1030998" d="M52.044,23.307l-10.7.251a10.787,10.787,0,0,1,1-3.754,12.045,12.045,0,0,1,2.317-3.315Z" transform="translate(9.306 3.712)" fill="#4666c8"/>
        <path id="Trazado_1030999" data-name="Trazado 1030999" d="M51.617,23.982l-8.381-5.675A12.545,12.545,0,0,1,47,15.041a12.378,12.378,0,0,1,4.764-1.552Z" transform="translate(9.733 3.036)" fill="#89b9e6"/>
        <path id="Trazado_1031000" data-name="Trazado 1031000" d="M45.091,23.29A6.883,6.883,0,0,1,51.666,17.2,5.385,5.385,0,0,1,57.5,23Z" transform="translate(10.15 3.872)" fill="#fff"/>
        <path id="Trazado_1031001" data-name="Trazado 1031001" d="M51.124,24.168l3.952-10.885-5.656,10.1a.94.94,0,1,0,1.64.919,1.078,1.078,0,0,0,.064-.138" transform="translate(11.098 2.99)"/>
        <path id="Trazado_1031002" data-name="Trazado 1031002" d="M41.465,12.644h.009l4.589-.25a.156.156,0,1,0-.017-.311l-4.589.249a.156.156,0,0,0,.009.312" transform="translate(9.299 2.72)"/>
        <path id="Trazado_1031003" data-name="Trazado 1031003" d="M56.862,11.812h.009l5.046-.274a.156.156,0,0,0,.148-.164.158.158,0,0,0-.164-.148l-5.047.274a.156.156,0,0,0,.009.312" transform="translate(12.765 2.527)"/>
        <path id="Trazado_1031004" data-name="Trazado 1031004" d="M58.83,12.652h.009l2.537-.131a.156.156,0,1,0-.016-.311l-2.537.13a.156.156,0,0,0,.007.312" transform="translate(13.208 2.749)"/>
        <path id="Trazado_1031005" data-name="Trazado 1031005" d="M103.52,69.064l-44.3.2a1.351,1.351,0,0,1-1.477-1.3l1.833-38.707a1.618,1.618,0,0,1,1.582-1.37l43.766-2.8c.952-.06,1.708.5,1.683,1.247l-1.3,41.319a1.673,1.673,0,0,1-1.792,1.405" transform="translate(12.999 5.648)" fill="#fff"/>
        <path id="Trazado_1031006" data-name="Trazado 1031006" d="M59.242,69.453a1.733,1.733,0,0,1-1.255-.5,1.3,1.3,0,0,1-.37-.96L59.45,29.283a1.778,1.778,0,0,1,1.727-1.519l43.766-2.8a1.919,1.919,0,0,1,1.462.477,1.236,1.236,0,0,1,.388.931l-1.3,41.319a1.829,1.829,0,0,1-1.948,1.556l-44.3.2ZM105.1,25.273q-.066,0-.132,0L61.2,28.076A1.463,1.463,0,0,0,59.761,29.3L57.93,68a.986.986,0,0,0,.283.73,1.424,1.424,0,0,0,1.038.407l44.3-.2a1.522,1.522,0,0,0,1.637-1.255l1.3-41.319a.912.912,0,0,0-.293-.7,1.559,1.559,0,0,0-1.092-.394" transform="translate(12.97 5.619)"/>
        <path id="Trazado_1031007" data-name="Trazado 1031007" d="M62.3,30.936l39.86-2.407-1.274,36-40.355.606Z" transform="translate(13.625 6.422)" fill="#d7e4f2"/>
        <path id="Trazado_1031008" data-name="Trazado 1031008" d="M71.536,64.821h-.007a.155.155,0,0,1-.148-.163l1.6-34.8a.156.156,0,1,1,.312.013l-1.6,34.8a.155.155,0,0,1-.156.149" transform="translate(16.068 6.688)" fill="#89b9e6"/>
        <path id="Trazado_1031009" data-name="Trazado 1031009" d="M82.517,64.767h-.007a.155.155,0,0,1-.149-.163l1.44-35.4a.156.156,0,0,1,.311.012l-1.438,35.4a.156.156,0,0,1-.156.149" transform="translate(18.54 6.541)" fill="#89b9e6"/>
        <path id="Trazado_1031010" data-name="Trazado 1031010" d="M61.519,40.315A.156.156,0,0,1,61.511,40L101.537,38.2a.159.159,0,0,1,.163.149.157.157,0,0,1-.149.163L61.526,40.315h-.007" transform="translate(13.813 8.598)" fill="#89b9e6"/>
        <path id="Trazado_1031011" data-name="Trazado 1031011" d="M61.037,49.51a.156.156,0,0,1,0-.312l40.191-1.207a.159.159,0,0,1,.16.151.156.156,0,0,1-.152.162L61.042,49.51h0" transform="translate(13.705 10.803)" fill="#89b9e6"/>
        <path id="Trazado_1031012" data-name="Trazado 1031012" d="M69.654,56.769l-4.495-.012.666-11.541,4.54-.766Z" transform="translate(14.668 10.006)" fill="#88b8e5"/>
        <path id="Trazado_1031013" data-name="Trazado 1031013" d="M69.038,52.467A.035.035,0,0,1,69,52.429l.461-7.971a.04.04,0,0,1,.039-.038.035.035,0,0,1,.036.038l-.461,7.972a.04.04,0,0,1-.039.037" transform="translate(15.533 9.999)"/>
        <path id="Trazado_1031014" data-name="Trazado 1031014" d="M75.422,57.39l-4.495-.012.866-15.014,4.54-.764Z" transform="translate(15.966 9.364)" fill="#88b8e5"/>
        <path id="Trazado_1031015" data-name="Trazado 1031015" d="M73.551,43.805c-.453,0-.788-.6-.745-1.344s.446-1.341.9-1.34.788.6.745,1.344-.446,1.343-.9,1.34M73.7,41.2c-.412,0-.78.567-.821,1.266s.262,1.269.675,1.27.779-.567.82-1.267S74.113,41.2,73.7,41.2" transform="translate(16.388 9.257)"/>
        <path id="Trazado_1031016" data-name="Trazado 1031016" d="M74.011,42.356c-.025.415-.245.751-.495.75s-.432-.337-.408-.752.245-.751.495-.75.432.337.408.752" transform="translate(16.457 9.365)" fill="#4666c7"/>
        <path id="Trazado_1031017" data-name="Trazado 1031017" d="M74.6,57.434a.035.035,0,0,1-.036-.038l.911-15.79a.041.041,0,0,1,.04-.037.034.034,0,0,1,.034.038L74.64,57.4a.04.04,0,0,1-.039.037" transform="translate(16.785 9.358)"/>
        <path id="Trazado_1031018" data-name="Trazado 1031018" d="M81.187,58.086l-4.495-.012,1.04-18.025L82.3,38.76Z" transform="translate(17.264 8.725)" fill="#88b8e5"/>
        <path id="Trazado_1031019" data-name="Trazado 1031019" d="M80.37,58.058c-.022,0-.038-.023-.036-.053l1.111-19.234c0-.029.02-.053.039-.053s.037.025.036.053L80.41,58c0,.029-.02.053-.04.053" transform="translate(18.084 8.716)"/>
        <path id="Trazado_1031020" data-name="Trazado 1031020" d="M86.955,58.653l-4.495-.012L83.7,37.1l4.551-.952Z" transform="translate(18.562 8.138)" fill="#88b8e5"/>
        <path id="Trazado_1031021" data-name="Trazado 1031021" d="M85.528,38.575c-.453,0-.777-.789-.72-1.757s.47-1.753.924-1.752.777.789.72,1.757-.47,1.753-.924,1.752m.2-3.411c-.412,0-.79.741-.843,1.654s.24,1.658.652,1.659.79-.741.843-1.654-.24-1.658-.652-1.659" transform="translate(19.089 7.894)"/>
        <path id="Trazado_1031022" data-name="Trazado 1031022" d="M86.013,36.68c-.031.542-.258.981-.508.98s-.426-.441-.394-.983.258-.98.508-.98.425.441.394.983" transform="translate(19.158 8.036)" fill="#4666c7"/>
        <path id="Trazado_1031023" data-name="Trazado 1031023" d="M86.165,58.022a.041.041,0,0,1-.034-.049L87.39,36.16a.047.047,0,0,1,.04-.049c.021,0,.036.022.034.049L86.206,57.973a.047.047,0,0,1-.04.049" transform="translate(19.389 8.129)"/>
        <path id="Trazado_1031024" data-name="Trazado 1031024" d="M66.464,46.182q.939-1.512,1.931-2.994.5-.741,1.011-1.473c.344-.486.7-.969,1.065-1.441.185-.236.375-.47.575-.7.1-.114.2-.227.31-.338a4.612,4.612,0,0,1,.345-.323,1.965,1.965,0,0,1,.207-.152,1.24,1.24,0,0,1,.127-.069c.023-.011.049-.021.076-.031s.051-.016.077-.022a.924.924,0,0,1,.305-.015,1.185,1.185,0,0,1,.267.069,1.835,1.835,0,0,1,.426.24,3.3,3.3,0,0,1,.349.3,6.422,6.422,0,0,1,.587.658c.18.229.349.464.51.7s.315.483.462.73c.075.123.147.247.218.372s.14.25.209.383l-.641-.031q1.1-1.5,2.222-2.977c.753-.984,1.517-1.96,2.318-2.916.2-.239.4-.477.613-.712s.421-.467.647-.695c.114-.114.23-.227.357-.338.062-.056.127-.111.2-.165a1.851,1.851,0,0,1,.243-.164A.882.882,0,0,1,81.653,34a.87.87,0,0,1,.2-.04.858.858,0,0,1,.383.06,1.1,1.1,0,0,1,.278.163,1.674,1.674,0,0,1,.2.191,2.788,2.788,0,0,1,.3.407c.083.137.157.276.225.417.135.279.249.564.353.849s.195.575.279.864c.042.146.082.29.121.437s.075.29.11.445l-.562-.209q.941-.619,1.877-1.253t1.865-1.274q.93-.641,1.844-1.3c.609-.44,1.215-.883,1.8-1.346h0a.372.372,0,0,1,.526.047.376.376,0,0,1-.076.526c-.6.478-1.213.926-1.828,1.371s-1.234.878-1.856,1.308-1.246.856-1.872,1.279-1.255.843-1.887,1.259a.368.368,0,0,1-.516-.1A.338.338,0,0,1,83.369,38v0c-.031-.135-.066-.279-.1-.418s-.076-.281-.116-.419q-.121-.417-.266-.822a8.05,8.05,0,0,0-.325-.782,3.979,3.979,0,0,0-.194-.358,1.979,1.979,0,0,0-.221-.3.635.635,0,0,0-.216-.173.118.118,0,0,0-.056-.011l-.022,0s-.015.006-.033.017a1.179,1.179,0,0,0-.141.1c-.051.039-.105.085-.158.131-.105.094-.212.2-.316.3-.21.212-.415.436-.617.663s-.4.461-.6.695c-.788.94-1.546,1.91-2.3,2.886s-1.486,1.968-2.209,2.961a.386.386,0,0,1-.527.1.33.33,0,0,1-.113-.131v0c-.055-.12-.116-.247-.178-.371s-.125-.249-.189-.371q-.195-.369-.406-.726c-.141-.238-.288-.47-.445-.695a5.852,5.852,0,0,0-.5-.633,2.89,2.89,0,0,0-.282-.268,1.319,1.319,0,0,0-.3-.195.48.48,0,0,0-.274-.051.785.785,0,0,0-.287.153,3.805,3.805,0,0,0-.32.272c-.105.1-.208.2-.31.305-.2.209-.4.429-.594.652-.386.446-.76.907-1.127,1.373s-.726.938-1.082,1.415q-1.066,1.428-2.083,2.892" transform="translate(14.962 7.276)" fill="#f37a3e"/>
        <path id="Trazado_1031025" data-name="Trazado 1031025" d="M83.674,33.341a9.495,9.495,0,0,1,.937-.436c.316-.129.633-.246.954-.354s.642-.206.965-.3.648-.174.975-.249l.013,0a.345.345,0,0,1,.426.272.366.366,0,0,1-.017.192c-.176.481-.372.958-.594,1.428q-.164.351-.353.7a7.372,7.372,0,0,1-.409.681,7.318,7.318,0,0,1,.093-.773q.062-.382.149-.757c.114-.5.254-.995.412-1.482l.423.461c-.323.087-.649.168-.976.24s-.655.137-.986.191-.664.1-1,.136a8.692,8.692,0,0,1-1.014.053" transform="translate(18.836 7.202)" fill="#f37a3e"/>
        <path id="Trazado_1031026" data-name="Trazado 1031026" d="M80.166,68.769a.489.489,0,0,0,.451-.679l-1.942-4.622a.489.489,0,0,0-.9.379l1.942,4.622a.488.488,0,0,0,.451.3" transform="translate(17.499 14.22)" fill="#f57a3e"/>
        <path id="Trazado_1031027" data-name="Trazado 1031027" d="M76.91,64.677A7.714,7.714,0,0,1,74.484,58.9a1.781,1.781,0,0,1,3.2-1.343,7.731,7.731,0,0,1,2.426,5.775,2.094,2.094,0,0,1-1.067,1.937,1.386,1.386,0,0,1-.544.108,2.546,2.546,0,0,1-1.585-.7m-1.2-7.325c-.462.194-.751.756-.811,1.58a7.315,7.315,0,0,0,2.279,5.425,1.718,1.718,0,0,0,1.7.528c.462-.195.75-.756.811-1.582A7.309,7.309,0,0,0,77.41,57.88a2.153,2.153,0,0,0-1.313-.6.977.977,0,0,0-.383.075" transform="translate(16.764 12.799)"/>
        <path id="Trazado_1031028" data-name="Trazado 1031028" d="M118.266,73.5a7.5,7.5,0,0,1,2.473,5.563c-.009,1.947-4.553,44.649-4.553,44.649H103.222l4-2.4,3.919-39.528L93.364,123.713H80.239L86,120.673l-1.221-.381,18.034-43.948Z" transform="translate(18.062 16.546)"/>
        <path id="Trazado_1031029" data-name="Trazado 1031029" d="M92.922,67.654l7.211,12.321s10.564,2.72,19.367-1.441c0,0-8.554-19.226-14.636-20.88-3.4-.925-7.114.56-9.932,2.233a5.69,5.69,0,0,0-2.009,7.766" transform="translate(20.742 12.914)" fill="#89b9e6"/>
        <path id="Trazado_1031030" data-name="Trazado 1031030" d="M83.093,68.056,95.923,70.6l6.132-10.759c2.059-3.216,8.782-.111,7.273,3.175-1.9,4.145-6.8,13.623-10.008,15.248-2.665,1.351-18.385-4.481-18.385-4.481-.428-4.081,2.159-5.726,2.159-5.726" transform="translate(18.208 13.166)" fill="#89b9e6"/>
        <path id="Trazado_1031031" data-name="Trazado 1031031" d="M83.337,67.262a5.8,5.8,0,0,1-1.1,4.195c-6.687,1.068-3.931-8.535,1.1-4.195" transform="translate(17.62 14.886)" fill="#fff"/>
        <path id="Trazado_1031032" data-name="Trazado 1031032" d="M78.316,70.106a3.187,3.187,0,0,1,1.043-3.669c.546-.394,2.043-1.115,4.153.7a.2.2,0,0,1,.071.13,5.937,5.937,0,0,1-1.155,4.365.206.206,0,0,1-.121.066,6.533,6.533,0,0,1-1.028.087,2.906,2.906,0,0,1-2.962-1.683m4.86-2.7c-1.306-1.1-2.6-1.328-3.571-.63a2.794,2.794,0,0,0-.9,3.171c.464,1.121,1.724,1.612,3.463,1.353a5.567,5.567,0,0,0,1.009-3.893" transform="translate(17.581 14.848)"/>
        <path id="Trazado_1031033" data-name="Trazado 1031033" d="M97.5,59.408,95.27,55.937,91.563,58.3l1.774,3.021S95,64.692,97.5,59.408" transform="translate(20.612 12.592)" fill="#fff"/>
        <path id="Trazado_1031034" data-name="Trazado 1031034" d="M93.192,61.464l-1.77-3.016a.21.21,0,0,1,.069-.283L95.2,55.8a.208.208,0,0,1,.288.062l2.233,3.471a.211.211,0,0,1,.013.2c-.968,2.045-1.95,3.086-2.921,3.093H94.8a2.065,2.065,0,0,1-1.606-1.166m2.055-5.2-3.36,2.145,1.671,2.847.007.013c0,.009.478.94,1.235.94h.01c.539,0,1.405-.49,2.493-2.749Z" transform="translate(20.573 12.553)"/>
        <path id="Trazado_1031035" data-name="Trazado 1031035" d="M88.714,55.818c.48,3.667,2.788,6.388,5.155,6.078s3.895-3.534,3.414-7.2-2.788-6.388-5.155-6.078-3.895,3.534-3.414,7.2" transform="translate(19.95 10.939)" fill="#fff"/>
        <path id="Trazado_1031036" data-name="Trazado 1031036" d="M88.545,55.883h0a9.039,9.039,0,0,1,.658-4.976,3.568,3.568,0,0,1,6.41-.839,9.7,9.7,0,0,1,1.259,9.613,3.936,3.936,0,0,1-2.937,2.46,3.024,3.024,0,0,1-.392.026c-2.336,0-4.53-2.707-5-6.284m3.65-7.02a3.538,3.538,0,0,0-2.613,2.224,8.624,8.624,0,0,0-.621,4.742c.441,3.365,2.451,5.919,4.577,5.919a2.687,2.687,0,0,0,.343-.022A3.538,3.538,0,0,0,96.493,59.5a9.279,9.279,0,0,0-1.2-9.164,3.708,3.708,0,0,0-2.754-1.5,2.687,2.687,0,0,0-.343.022" transform="translate(19.912 10.9)"/>
        <path id="Trazado_1031037" data-name="Trazado 1031037" d="M92.457,55.036c1.268,1.976,3.087,3.069,4.065,2.443s.74-2.737-.528-4.713S92.906,49.7,91.93,50.325s-.741,2.736.527,4.712" transform="translate(20.558 11.289)" fill="#f47a3e"/>
        <path id="Trazado_1031038" data-name="Trazado 1031038" d="M93.764,69.383a.21.21,0,0,0,.183-.107l5.438-9.542a.21.21,0,0,0-.365-.207L93.581,69.07a.21.21,0,0,0,.078.285.2.2,0,0,0,.1.028" transform="translate(21.06 13.376)"/>
        <path id="Trazado_1031039" data-name="Trazado 1031039" d="M97.35,76a.209.209,0,0,0,.153-.066c4.1-4.394,7.52-12.162,7.554-12.24a.21.21,0,0,0-.385-.168c-.033.077-3.423,7.779-7.476,12.121a.211.211,0,0,0,.01.3A.208.208,0,0,0,97.35,76" transform="translate(21.867 14.271)"/>
        <path id="Trazado_1031040" data-name="Trazado 1031040" d="M92.468,54.648a1.871,1.871,0,1,0,1.818-2.313,2.111,2.111,0,0,0-1.818,2.313" transform="translate(20.815 11.781)" fill="#fff"/>
        <path id="Trazado_1031041" data-name="Trazado 1031041" d="M94.324,57.209A2.583,2.583,0,1,0,92.3,54.686a.209.209,0,1,0,.419,0,1.666,1.666,0,1,1,1.609,2.1.209.209,0,0,0,0,.419" transform="translate(20.777 11.743)"/>
        <rect id="Rectángulo_459856" data-name="Rectángulo 459856" width="62.285" height="11.013" transform="matrix(0.542, -0.841, 0.841, 0.542, 33.959, 134.335)" fill="#89b9e6"/>
        <path id="Trazado_1031042" data-name="Trazado 1031042" d="M53.7,89.4a.09.09,0,0,1-.018-.043,13.2,13.2,0,0,1,.734-4.878c1.563-5.295,5.035-10.625,7.672-14.163a.089.089,0,0,1,.143.105c-2.625,3.522-6.081,8.826-7.639,14.091a13.344,13.344,0,0,0-.734,4.822.089.089,0,0,1-.077.1A.085.085,0,0,1,53.7,89.4" transform="translate(12.079 15.821)" fill="#d7e4f2"/>
        <path id="Trazado_1031043" data-name="Trazado 1031043" d="M30.878,112.606a.1.1,0,0,1-.016-.032.09.09,0,0,1,.064-.109c6.487-1.718,12.216-5.794,17.025-12.115A58.766,58.766,0,0,0,56.14,84.959c3.016-8.219,9.785-15.229,9.854-15.3a.089.089,0,0,1,.127.124c-.069.07-6.812,7.054-9.814,15.237a58.958,58.958,0,0,1-8.214,15.438c-4.834,6.353-10.595,10.45-17.121,12.179a.088.088,0,0,1-.093-.031" transform="translate(6.947 15.675)" fill="#d7e4f2"/>
        <path id="Trazado_1031044" data-name="Trazado 1031044" d="M28.03,112.39a.089.089,0,0,1-.018-.044.09.09,0,0,1,.078-.1,28.289,28.289,0,0,0,8.342-2.81,38.107,38.107,0,0,0,7.893-5.286A43.8,43.8,0,0,0,52.454,94.7a.089.089,0,1,1,.149.1,44,44,0,0,1-8.165,9.493A38.27,38.27,0,0,1,36.5,109.6a28.426,28.426,0,0,1-8.393,2.824.085.085,0,0,1-.08-.033" transform="translate(6.306 21.308)" fill="#d7e4f2"/>
        <path id="Trazado_1031045" data-name="Trazado 1031045" d="M30.76,113.278a.088.088,0,0,1-.017-.036.089.089,0,0,1,.069-.105,26.821,26.821,0,0,0,13.161-8.469.088.088,0,1,1,.134.115,28.007,28.007,0,0,1-8.851,6.866,21.594,21.594,0,0,1-4.407,1.661.088.088,0,0,1-.088-.032" transform="translate(6.92 23.555)" fill="#d7e4f2"/>
        <path id="Trazado_1031046" data-name="Trazado 1031046" d="M33.208,106.6a.083.083,0,0,1-.018-.045.089.089,0,0,1,.08-.1,13.561,13.561,0,0,0,6.9-3.2,35.184,35.184,0,0,0,6.32-6.791c3.711-5.09,6.6-11.287,7.186-15.42.233-1.629.209-3.692-1.214-4.262a.088.088,0,1,1,.066-.164c1.212.484,1.67,2.024,1.324,4.452-1.149,8.069-11.173,24.642-20.571,25.563a.091.091,0,0,1-.078-.034" transform="translate(7.471 17.247)" fill="#d7e4f2"/>
        <path id="Trazado_1031047" data-name="Trazado 1031047" d="M35.539,101.392a.089.089,0,0,1,.08-.143c1.921.218,4.757-1.525,7.779-4.782a31.938,31.938,0,0,0,6.42-10.059c1.383-3.882.428-5.5-.617-6.172a.09.09,0,0,1-.027-.123.089.089,0,0,1,.124-.027c1.575,1.016,1.814,3.222.687,6.38a32.094,32.094,0,0,1-6.456,10.121c-3.062,3.3-5.952,5.062-7.929,4.838a.087.087,0,0,1-.06-.033" transform="translate(7.996 18.025)" fill="#d7e4f2"/>
        <path id="Trazado_1031048" data-name="Trazado 1031048" d="M38.646,94.775a.089.089,0,0,1,.1-.137c.946.385,2.258.007,3.7-1.063a13.539,13.539,0,0,0,3.53-4.069c1.533-2.709,1.549-5,.04-6.13a.089.089,0,0,1,.107-.142c1.585,1.188,1.588,3.566.007,6.361-1.794,3.167-5.292,6.086-7.446,5.209a.078.078,0,0,1-.037-.028" transform="translate(8.695 18.733)" fill="#d7e4f2"/>
        <path id="Trazado_1031049" data-name="Trazado 1031049" d="M50.264,75.913a.088.088,0,0,1,.094-.14c3.964,1.11,9.678-6.825,9.736-6.906a.089.089,0,0,1,.124-.021.091.091,0,0,1,.021.125,32.172,32.172,0,0,1-3.4,3.909c-2.612,2.514-4.809,3.544-6.529,3.063a.083.083,0,0,1-.047-.031" transform="translate(11.311 15.494)" fill="#d7e4f2"/>
        <path id="Trazado_1031050" data-name="Trazado 1031050" d="M35.225,124.213a.088.088,0,0,1,0-.1L68.946,71.746a.089.089,0,1,1,.149.1L35.369,124.207a.089.089,0,0,1-.123.026.085.085,0,0,1-.022-.02" transform="translate(7.925 16.142)" fill="#fff"/>
        <path id="Trazado_1031051" data-name="Trazado 1031051" d="M27.666,119.345a.09.09,0,0,1,0-.1L61.388,66.878a.092.092,0,0,1,.124-.027l5.317,3.425a.09.09,0,0,1,.027.123.089.089,0,0,1-.124.027L61.489,67.05,27.811,119.339a.089.089,0,0,1-.123.026.084.084,0,0,1-.022-.02" transform="translate(6.224 15.046)"/>
        <path id="Trazado_1031052" data-name="Trazado 1031052" d="M54.149,68.606a.09.09,0,0,1,0-.1.089.089,0,0,1,.123-.026L57.3,70.427a.089.089,0,0,1,.026.123.088.088,0,0,1-.123.027l-3.027-1.95a.085.085,0,0,1-.022-.02" transform="translate(12.185 15.412)"/>
        <path id="Trazado_1031053" data-name="Trazado 1031053" d="M53,70.384a.09.09,0,0,1,0-.1.088.088,0,0,1,.123-.026l1.469.945a.089.089,0,0,1,.026.123.088.088,0,0,1-.123.027L53.026,70.4a.085.085,0,0,1-.022-.02" transform="translate(11.928 15.812)"/>
        <path id="Trazado_1031054" data-name="Trazado 1031054" d="M51.859,72.161a.09.09,0,0,1,0-.1.089.089,0,0,1,.123-.026l1.469.945a.089.089,0,0,1,.026.123.088.088,0,0,1-.123.027l-1.468-.946a.085.085,0,0,1-.022-.02" transform="translate(11.67 16.212)"/>
        <path id="Trazado_1031055" data-name="Trazado 1031055" d="M50.716,73.938a.088.088,0,0,1,.118-.129l1.468.945a.089.089,0,1,1-.1.149l-1.468-.946a.084.084,0,0,1-.022-.02" transform="translate(11.412 16.612)"/>
        <path id="Trazado_1031056" data-name="Trazado 1031056" d="M49.57,75.715a.09.09,0,0,1,0-.1.089.089,0,0,1,.123-.026l3.028,1.949a.089.089,0,0,1,.026.123.088.088,0,0,1-.123.027l-3.027-1.95a.085.085,0,0,1-.022-.02" transform="translate(11.155 17.012)"/>
        <path id="Trazado_1031057" data-name="Trazado 1031057" d="M48.425,77.493a.09.09,0,0,1,0-.1.088.088,0,0,1,.123-.026l1.469.945a.089.089,0,0,1,.026.123.088.088,0,0,1-.123.027l-1.468-.946a.085.085,0,0,1-.022-.02" transform="translate(10.897 17.412)"/>
        <path id="Trazado_1031058" data-name="Trazado 1031058" d="M47.281,79.27a.09.09,0,0,1,0-.1.089.089,0,0,1,.123-.026l1.468.945a.089.089,0,1,1-.1.149L47.3,79.29a.085.085,0,0,1-.022-.02" transform="translate(10.639 17.812)"/>
        <path id="Trazado_1031059" data-name="Trazado 1031059" d="M46.136,81.047a.09.09,0,0,1,0-.1.089.089,0,0,1,.123-.026l1.469.945a.089.089,0,0,1,.026.123.088.088,0,0,1-.123.027l-1.468-.946a.085.085,0,0,1-.022-.02" transform="translate(10.381 18.212)"/>
        <path id="Trazado_1031060" data-name="Trazado 1031060" d="M44.991,82.824a.09.09,0,0,1,0-.1.089.089,0,0,1,.123-.026l3.028,1.949a.089.089,0,0,1,.026.123.088.088,0,0,1-.123.027l-3.027-1.95a.085.085,0,0,1-.022-.02" transform="translate(10.124 18.612)"/>
        <path id="Trazado_1031061" data-name="Trazado 1031061" d="M43.847,84.6a.09.09,0,0,1,0-.1.088.088,0,0,1,.123-.026l1.469.945a.089.089,0,0,1,.026.123.088.088,0,0,1-.123.027l-1.468-.946a.085.085,0,0,1-.022-.02" transform="translate(9.866 19.012)"/>
        <path id="Trazado_1031062" data-name="Trazado 1031062" d="M42.7,86.379a.09.09,0,0,1,0-.1.089.089,0,0,1,.123-.026l1.469.945a.089.089,0,0,1,.026.123.088.088,0,0,1-.123.027L42.724,86.4a.085.085,0,0,1-.022-.02" transform="translate(9.608 19.412)"/>
        <path id="Trazado_1031063" data-name="Trazado 1031063" d="M41.558,88.156a.088.088,0,0,1,.118-.129l1.468.945a.089.089,0,0,1-.1.149l-1.468-.946a.085.085,0,0,1-.022-.02" transform="translate(9.351 19.812)"/>
        <path id="Trazado_1031064" data-name="Trazado 1031064" d="M40.413,89.933a.09.09,0,0,1,0-.1.088.088,0,0,1,.123-.026l3.027,1.949a.089.089,0,0,1-.1.149l-3.027-1.95a.084.084,0,0,1-.022-.02" transform="translate(9.093 20.212)"/>
        <path id="Trazado_1031065" data-name="Trazado 1031065" d="M39.268,91.71a.09.09,0,0,1,0-.1.089.089,0,0,1,.123-.026l1.469.945a.089.089,0,0,1,.026.123.088.088,0,0,1-.123.027L39.29,91.73a.084.084,0,0,1-.022-.02" transform="translate(8.835 20.613)"/>
        <path id="Trazado_1031066" data-name="Trazado 1031066" d="M38.123,93.487a.09.09,0,0,1,0-.1.089.089,0,0,1,.123-.026l1.468.945a.089.089,0,0,1-.1.149l-1.468-.946a.084.084,0,0,1-.022-.02" transform="translate(8.578 21.013)"/>
        <path id="Trazado_1031067" data-name="Trazado 1031067" d="M36.979,95.265a.09.09,0,0,1,0-.1.089.089,0,0,1,.123-.026l1.469.945a.089.089,0,0,1,.026.123.088.088,0,0,1-.123.027L37,95.285a.084.084,0,0,1-.022-.02" transform="translate(8.32 21.413)"/>
        <path id="Trazado_1031068" data-name="Trazado 1031068" d="M35.835,97.042a.088.088,0,0,1,0-.1.09.09,0,0,1,.123-.027l3.027,1.95a.089.089,0,0,1-.1.149l-3.027-1.95a.084.084,0,0,1-.022-.02" transform="translate(8.062 21.813)"/>
        <path id="Trazado_1031069" data-name="Trazado 1031069" d="M34.689,98.819a.09.09,0,0,1,0-.1.089.089,0,0,1,.123-.026l1.469.945a.089.089,0,0,1,.026.123.088.088,0,0,1-.123.027l-1.468-.946a.084.084,0,0,1-.022-.02" transform="translate(7.805 22.213)"/>
        <path id="Trazado_1031070" data-name="Trazado 1031070" d="M33.545,100.6a.09.09,0,0,1,0-.1.088.088,0,0,1,.123-.026l1.469.945a.089.089,0,0,1,.026.122.088.088,0,0,1-.123.027l-1.468-.946a.084.084,0,0,1-.022-.02" transform="translate(7.547 22.613)"/>
        <path id="Trazado_1031071" data-name="Trazado 1031071" d="M32.4,102.374a.09.09,0,0,1,0-.1.089.089,0,0,1,.123-.026l1.469.945a.089.089,0,0,1,.026.123.088.088,0,0,1-.123.027l-1.468-.946a.085.085,0,0,1-.022-.02" transform="translate(7.289 23.013)"/>
        <path id="Trazado_1031072" data-name="Trazado 1031072" d="M31.256,104.151a.088.088,0,0,1,.118-.129l3.028,1.949a.089.089,0,0,1,.026.123.088.088,0,0,1-.123.027l-3.027-1.95a.085.085,0,0,1-.022-.02" transform="translate(7.032 23.413)"/>
        <path id="Trazado_1031073" data-name="Trazado 1031073" d="M30.111,105.928a.09.09,0,0,1,0-.1.089.089,0,0,1,.123-.026l1.469.945a.089.089,0,0,1,.026.123.088.088,0,0,1-.123.027l-1.468-.946a.085.085,0,0,1-.022-.02" transform="translate(6.774 23.813)"/>
        <path id="Trazado_1031074" data-name="Trazado 1031074" d="M28.966,107.705a.09.09,0,0,1,0-.1.089.089,0,0,1,.123-.026l1.469.945a.089.089,0,0,1,.026.123.088.088,0,0,1-.123.027l-1.468-.946a.085.085,0,0,1-.022-.02" transform="translate(6.516 24.213)"/>
        <path id="Trazado_1031075" data-name="Trazado 1031075" d="M36.66,107.322l-.1.151-1.642-1.058-.136.615-.14-.091.169-.769.016-.025Z" transform="translate(7.799 23.894)"/>
        <path id="Trazado_1031076" data-name="Trazado 1031076" d="M41.538,99.8l-.736,1.142-.114-.075-.306-1.081a2.022,2.022,0,0,0-.158-.406.568.568,0,0,0-.187-.206A.435.435,0,0,0,39.7,99.1a.45.45,0,0,0-.281.214.465.465,0,0,0-.072.372.491.491,0,0,0,.232.31l-.1.149a.678.678,0,0,1-.236-.25.587.587,0,0,1-.07-.326.686.686,0,0,1,.115-.339.659.659,0,0,1,.383-.306.554.554,0,0,1,.448.091.7.7,0,0,1,.228.258,2.329,2.329,0,0,1,.2.523l.246.878.619-.957Z" transform="translate(8.818 22.265)"/>
        <path id="Trazado_1031077" data-name="Trazado 1031077" d="M44.6,92.86l.1-.156a.619.619,0,0,0,.1-.255.409.409,0,0,0-.031-.227.4.4,0,0,0-.151-.169.44.44,0,0,0-.338-.078A.462.462,0,0,0,44,92.2a.488.488,0,0,0-.082.354.424.424,0,0,0,.2.288l-.1.149a.577.577,0,0,1-.213-.238.571.571,0,0,1-.053-.314.719.719,0,0,1,.116-.322.652.652,0,0,1,.386-.3.578.578,0,0,1,.463.1.471.471,0,0,1,.189.239.6.6,0,0,1,.018.336.558.558,0,0,1,.33-.153.521.521,0,0,1,.332.091.585.585,0,0,1,.279.394.683.683,0,0,1-.12.5.809.809,0,0,1-.258.257.6.6,0,0,1-.317.093.587.587,0,0,1-.32-.1l.1-.149a.431.431,0,0,0,.361.061.53.53,0,0,0,.31-.241.513.513,0,0,0,.1-.366.441.441,0,0,0-.219-.294.4.4,0,0,0-.354-.062.631.631,0,0,0-.319.283l-.1.149Z" transform="translate(9.849 20.664)"/>
        <path id="Trazado_1031078" data-name="Trazado 1031078" d="M49.91,85.435l.183-.284.127.081-.184.284.461.3-.1.151-.461-.3-.553.858-.085-.055L48.569,84.8l.107-.164Zm-.53.823.434-.674-1.041-.67.072.14Z" transform="translate(10.933 19.053)"/>
        <path id="Trazado_1031079" data-name="Trazado 1031079" d="M53.682,78.955l-.832-.662.587-.91.14.089-.5.782.575.461a.706.706,0,0,1,.12-.408.6.6,0,0,1,.414-.289.717.717,0,0,1,.521.129.771.771,0,0,1,.355.43.612.612,0,0,1-.1.5.662.662,0,0,1-.381.3.651.651,0,0,1-.48-.071l.093-.143a.524.524,0,0,0,.364.055A.491.491,0,0,0,54.831,79a.419.419,0,0,0,.066-.375.657.657,0,0,0-.289-.326.562.562,0,0,0-.4-.1.456.456,0,0,0-.322.222.706.706,0,0,0-.093.2.616.616,0,0,0,0,.234Z" transform="translate(11.897 17.42)"/>
        <path id="Trazado_1031080" data-name="Trazado 1031080" d="M57.82,70.444l.13.083-.011.018a.812.812,0,0,0-.14.638.961.961,0,0,0,.4.553.607.607,0,0,1-.037-.3.707.707,0,0,1,.11-.3.568.568,0,0,1,.413-.276.762.762,0,0,1,.524.137.9.9,0,0,1,.278.273.608.608,0,0,1,.1.333.617.617,0,0,1-.1.334.636.636,0,0,1-.464.3.857.857,0,0,1-.6-.151l-.151-.1a1.375,1.375,0,0,1-.614-.712.935.935,0,0,1,.134-.807Zm.568.807a.549.549,0,0,0-.087.321.475.475,0,0,0,.109.3l.127.083a.713.713,0,0,0,.466.127.464.464,0,0,0,.354-.221.406.406,0,0,0,.044-.374.655.655,0,0,0-.281-.333.611.611,0,0,0-.414-.114.427.427,0,0,0-.319.208" transform="translate(12.971 15.858)"/>
        <path id="Trazado_1031081" data-name="Trazado 1031081" d="M7.534,107.47l28.25,11.575,49.83-3.139v-2.649l-26.827-8.207-51.252-.327Z" transform="translate(1.696 23.574)" fill="#89b9e6"/>
        <path id="Trazado_1031082" data-name="Trazado 1031082" d="M7.534,104.724l28.381,11.444,49.7-2.91-26.827-8.207Z" transform="translate(1.696 23.574)" fill="#d7e4f2"/>
        <path id="Trazado_1031083" data-name="Trazado 1031083" d="M35.842,119.412a.3.3,0,0,1-.118-.023L7.473,107.816a.311.311,0,0,1-.192-.288v-2.747a.313.313,0,0,1,.092-.221.307.307,0,0,1,.221-.089l51.252.326a.318.318,0,0,1,.089.015l26.827,8.207a.31.31,0,0,1,.219.3v2.649a.311.311,0,0,1-.29.31l-49.83,3.139h-.02M7.9,107.319l27.991,11.468,49.467-3.115v-2.128L58.8,105.418,7.9,105.093Z" transform="translate(1.639 23.517)"/>
        <path id="Trazado_1031084" data-name="Trazado 1031084" d="M60.425,113.662,50.567,72.2,2.237,66.472.254,68.366l8.919,44.969Z" transform="translate(0.057 14.963)" fill="#89b9e6"/>
        <path id="Trazado_1031085" data-name="Trazado 1031085" d="M60.482,114.03h0L9.229,113.7a.31.31,0,0,1-.3-.251L.006,68.483A.308.308,0,0,1,.1,68.2L2.08,66.3a.318.318,0,0,1,.251-.085l48.331,5.731a.308.308,0,0,1,.265.236l9.858,41.459a.311.311,0,0,1-.3.383m-51-.947,50.6.322L50.373,72.542,2.4,66.855.649,68.53Z" transform="translate(0 14.906)"/>
        <path id="Trazado_1031086" data-name="Trazado 1031086" d="M3.05,68.16l8.109,39.76,45.5.85L48.515,73.064Z" transform="translate(0.687 15.343)" fill="#fff"/>
        <path id="Trazado_1031087" data-name="Trazado 1031087" d="M15.648,106.058l12.982,4.726,39.2-1.2L56.649,106.14Z" transform="translate(3.522 23.875)" fill="#89b9e6"/>
        <path id="Trazado_1031088" data-name="Trazado 1031088" d="M28.688,111.153a.315.315,0,0,1-.107-.018L15.6,106.408a.311.311,0,0,1,.212-.584l12.927,4.707,39.141-1.194a.311.311,0,1,1,.02.621l-39.2,1.2h-.01" transform="translate(3.465 23.817)"/>
        <path id="Trazado_1031089" data-name="Trazado 1031089" d="M44.246,113.793a.311.311,0,0,1-.018-.621l13.939-.816a.31.31,0,0,1,.037.62l-13.939.817h-.018" transform="translate(9.89 25.292)"/>
        <path id="Trazado_1031090" data-name="Trazado 1031090" d="M29.9,86.511a11.539,11.539,0,0,0-11.053-9.673,8.193,8.193,0,0,0-8.294,9.673,11.539,11.539,0,0,0,11.053,9.673A8.193,8.193,0,0,0,29.9,86.511" transform="translate(2.353 17.297)" fill="#89b9e6"/>
        <path id="Trazado_1031091" data-name="Trazado 1031091" d="M19.92,86.511l7.515-5.071a11.415,11.415,0,0,0-8.894-4.6,8.31,8.31,0,0,0-6.726,3.193Z" transform="translate(2.66 17.297)" fill="#4666c8"/>
        <path id="Trazado_1031092" data-name="Trazado 1031092" d="M37.725,81.177a4.884,4.884,0,0,0-4.677-4.094,3.468,3.468,0,0,0-3.51,4.094,4.884,4.884,0,0,0,4.677,4.094,3.468,3.468,0,0,0,3.51-4.094" transform="translate(6.64 17.352)" fill="#89b9e6"/>
        <path id="Trazado_1031093" data-name="Trazado 1031093" d="M32.872,80.994h4.094a4.6,4.6,0,0,0-.615-1.7A5.061,5.061,0,0,0,35.107,77.9Z" transform="translate(7.4 17.535)" fill="#4666c8"/>
        <path id="Trazado_1031094" data-name="Trazado 1031094" d="M40.385,92.235a4.883,4.883,0,0,0-4.677-4.094,3.467,3.467,0,0,0-3.51,4.094,4.883,4.883,0,0,0,4.677,4.093,3.467,3.467,0,0,0,3.51-4.093" transform="translate(7.239 19.841)" fill="#d7e4f2"/>
        <path id="Trazado_1031095" data-name="Trazado 1031095" d="M35.532,92.052h4.093a4.574,4.574,0,0,0-.614-1.7,5.061,5.061,0,0,0-1.245-1.394Z" transform="translate(7.999 20.024)" fill="#89b9e6"/>
        <path id="Trazado_1031096" data-name="Trazado 1031096" d="M69.54,110.626c-.01,1.416-4.479,2.535-9.982,2.5s-9.958-1.214-9.949-2.63l.317-.637v0l2.993-6a.274.274,0,0,0-.006.064c-.006.953,2.99,1.746,6.694,1.77s6.709-.728,6.715-1.681a.4.4,0,0,0,0-.066l2.912,6.047h0Z" transform="translate(11.167 23.377)" fill="#89b9e6"/>
        <path id="Trazado_1031097" data-name="Trazado 1031097" d="M59.83,113.31h-.244a29.743,29.743,0,0,1-7.081-.8c-1.383-.366-3.03-1.007-3.024-1.985a.146.146,0,0,1,.017-.069l.317-.637.006-.012,2.987-5.994a.156.156,0,0,1,.293.1.173.173,0,0,0,0,.036c0,.742,2.679,1.587,6.538,1.612a19.709,19.709,0,0,0,4.7-.469c1.159-.289,1.851-.685,1.854-1.056a.179.179,0,0,0,0-.037.157.157,0,0,1,.3-.1l2.906,6.036.006.011.309.642a.145.145,0,0,1,.016.069c-.011,1.675-5,2.654-9.9,2.654M49.8,110.557c.036.579,1.072,1.193,2.79,1.647a29.48,29.48,0,0,0,7,.794c5.8.038,9.74-1.157,9.823-2.309l-.287-.6-.006-.011-2.732-5.673a3.611,3.611,0,0,1-1.969.984,20.218,20.218,0,0,1-4.783.478c-2.966-.02-6.095-.565-6.732-1.55L50.1,109.953l-.006.012Z" transform="translate(11.139 23.349)"/>
        <path id="Trazado_1031098" data-name="Trazado 1031098" d="M49.61,109.39a.911.911,0,0,1,.317-.637Z" transform="translate(11.168 24.481)" fill="#89b9e6"/>
        <path id="Trazado_1031099" data-name="Trazado 1031099" d="M49.639,109.574a.167.167,0,0,1-.036,0,.156.156,0,0,1-.12-.153,1.063,1.063,0,0,1,.363-.747.156.156,0,0,1,.25.18l-.317.637a.156.156,0,0,1-.14.087" transform="translate(11.139 24.452)"/>
        <path id="Trazado_1031100" data-name="Trazado 1031100" d="M65.935,109.5l-.309-.641a.915.915,0,0,1,.309.641" transform="translate(14.773 24.505)" fill="#89b9e6"/>
        <path id="Trazado_1031101" data-name="Trazado 1031101" d="M65.963,109.684a.157.157,0,0,1-.141-.088l-.309-.642a.156.156,0,0,1,.252-.176,1.059,1.059,0,0,1,.353.751.155.155,0,0,1-.121.152.163.163,0,0,1-.034,0" transform="translate(14.744 24.476)"/>
        <path id="Trazado_1031102" data-name="Trazado 1031102" d="M52.312,103.906a.594.594,0,0,1,.152-.305Z" transform="translate(11.776 23.321)" fill="#89b9e6"/>
        <path id="Trazado_1031103" data-name="Trazado 1031103" d="M52.341,104.09a.154.154,0,0,1-.047-.007.156.156,0,0,1-.108-.172.756.756,0,0,1,.189-.385.158.158,0,0,1,.2-.028.155.155,0,0,1,.053.2L52.48,104a.156.156,0,0,1-.14.086" transform="translate(11.747 23.293)"/>
        <path id="Trazado_1031104" data-name="Trazado 1031104" d="M63.276,103.978l-.147-.305a.6.6,0,0,1,.147.305" transform="translate(14.211 23.338)" fill="#89b9e6"/>
        <path id="Trazado_1031105" data-name="Trazado 1031105" d="M63.3,104.162a.157.157,0,0,1-.141-.088l-.147-.305a.156.156,0,0,1,.261-.168.751.751,0,0,1,.181.385.155.155,0,0,1-.109.17.192.192,0,0,1-.045.006" transform="translate(14.182 23.309)"/>
        <path id="Trazado_1031106" data-name="Trazado 1031106" d="M65.717,105.192c-.006.953-3.013,1.705-6.716,1.681s-6.7-.817-6.693-1.77a.372.372,0,0,1,0-.064l.153-.305,3.066-6.154c.114.463,1.637.838,3.5.851,1.941.012,3.516-.372,3.52-.862l3.013,6.253.147.305a.386.386,0,0,1,0,.065" transform="translate(11.775 22.189)" fill="#d7e4f2"/>
        <path id="Trazado_1031107" data-name="Trazado 1031107" d="M59.207,107.058h-.179c-3.326-.022-6.857-.706-6.848-1.927a.479.479,0,0,1,.009-.093A.174.174,0,0,1,52.2,105l3.218-6.459a.153.153,0,0,1,.157-.085.155.155,0,0,1,.135.118c.071.29,1.3.719,3.349.733,2.2.015,3.36-.453,3.363-.707a.155.155,0,0,1,.121-.152.157.157,0,0,1,.175.085l3.16,6.558a.143.143,0,0,1,.013.04.6.6,0,0,1,.007.093c0,.691-1.139,1.12-2.09,1.359a19.794,19.794,0,0,1-4.6.479m-6.715-1.944v.017c0,.742,2.679,1.588,6.54,1.613a19.7,19.7,0,0,0,4.7-.469c1.158-.289,1.851-.685,1.854-1.056v-.02l-3.021-6.268c-.495.462-2.01.693-3.509.684a6.659,6.659,0,0,1-3.476-.7Z" transform="translate(11.746 22.16)"/>
        <path id="Trazado_1031108" data-name="Trazado 1031108" d="M61.959,99.883h0c0,.49-1.578.875-3.52.862-1.862-.012-3.386-.387-3.5-.851l.163-.327,3.409-6.841,3.343,6.943Z" transform="translate(12.367 20.874)" fill="#fff"/>
        <path id="Trazado_1031109" data-name="Trazado 1031109" d="M58.56,100.931h-.092c-1.647-.011-3.492-.32-3.651-.97a.156.156,0,0,1,.011-.108l.164-.326L58.4,92.686a.156.156,0,0,1,.14-.087h0a.154.154,0,0,1,.14.088l3.447,7.156a.144.144,0,0,1,.016.067v0c0,.673-1.791,1.018-3.585,1.018m-3.421-1c.178.288,1.388.675,3.33.689,2.129.016,3.281-.421,3.359-.68l-.085-.173L58.538,93.11Z" transform="translate(12.339 20.845)"/>
        <path id="Trazado_1031110" data-name="Trazado 1031110" d="M53.1,111.078a.2.2,0,0,1-.045-.006.157.157,0,0,1-.1-.195l1.541-5.147a.156.156,0,0,1,.3.089l-1.541,5.147a.157.157,0,0,1-.149.111" transform="translate(11.918 23.776)" fill="#fff"/>
        <path id="Trazado_1031111" data-name="Trazado 1031111" d="M54.777,105.548a.2.2,0,0,1-.045-.006.157.157,0,0,1-.1-.195l1.649-5.506a.156.156,0,0,1,.3.089l-1.649,5.506a.157.157,0,0,1-.149.111" transform="translate(12.296 22.45)" fill="#fff"/>
        <path id="Trazado_1031112" data-name="Trazado 1031112" d="M56.578,99.408a.192.192,0,0,1-.045-.006.157.157,0,0,1-.1-.195l1.438-4.8a.156.156,0,1,1,.3.089l-1.438,4.8a.157.157,0,0,1-.149.111" transform="translate(12.701 21.226)" fill="#d7e4f2"/>
      </g>
    </g>
    <g id="Grupo_1187607" data-name="Grupo 1187607" transform="translate(1234.262 25954)">
      <g id="Grupo_1187606" data-name="Grupo 1187606" transform="translate(0 0)" clip-path="url(#clip-path-2)">
        <path id="Trazado_1031113" data-name="Trazado 1031113" d="M92.465,66.438c5.846-4.187,9.345-8.687,9.56-12.9,10.9-2.355,18.55-7.9,18.55-14.368,0-4.645-3.95-8.815-10.213-11.669a5.509,5.509,0,0,0,.119-1.133c0-5.632-8.607-10.228-19.416-10.488l.013-.112H8.3L0,60.9l9.22-.029c-3.493,3.591-5.158,7.263-4.458,10.668.674,3.276,3.457,5.916,7.789,7.824-4.7,5.19-7.391,11.187-7.391,17.574C5.16,116.688,30.833,132.7,62.5,132.7s57.341-16.013,57.341-35.764c0-12.9-10.955-24.208-27.379-30.5" transform="translate(0 3.204)" fill="#d7e4f2"/>
        <path id="Trazado_1031114" data-name="Trazado 1031114" d="M21.561,110.716c0,3.188-4.428,5.773-9.891,5.773s-9.89-2.584-9.89-5.773,4.428-5.773,9.89-5.773,9.891,2.584,9.891,5.773" transform="translate(0.362 21.318)" fill="#d7e4f2"/>
        <path id="Trazado_1031115" data-name="Trazado 1031115" d="M14.486,111.742c-3.211,0-5.824-1.553-5.824-3.461s2.613-3.46,5.824-3.46,5.824,1.552,5.824,3.46-2.613,3.461-5.824,3.461m0-6.627c-3.049,0-5.528,1.42-5.528,3.165s2.48,3.165,5.528,3.165,5.528-1.42,5.528-3.165-2.48-3.165-5.528-3.165" transform="translate(1.76 21.293)" fill="#89b9e6"/>
        <path id="Trazado_1031116" data-name="Trazado 1031116" d="M22.75,109.525a.14.14,0,0,1-.075-.02C13.057,103.852,8.537,97.022,6.439,92.289a24.414,24.414,0,0,1-2.274-9.032.146.146,0,0,1,.149-.147.149.149,0,0,1,.147.149,24.129,24.129,0,0,0,2.256,8.925c2.081,4.69,6.566,11.457,16.108,17.065a.148.148,0,0,1-.075.276" transform="translate(0.846 16.883)" fill="#89b9e6"/>
        <path id="Trazado_1031117" data-name="Trazado 1031117" d="M45.049,112.911h-.022A63.265,63.265,0,0,1,21.97,104.8a44.2,44.2,0,0,1-8-5.9.148.148,0,1,1,.209-.208,43.976,43.976,0,0,0,7.956,5.863,62.971,62.971,0,0,0,22.94,8.062.148.148,0,0,1-.022.294" transform="translate(2.828 20.039)" fill="#89b9e6"/>
        <path id="Trazado_1031118" data-name="Trazado 1031118" d="M11.389,109.455a1.327,1.327,0,1,0-1.327,1.327,1.327,1.327,0,0,0,1.327-1.327" transform="translate(1.774 21.965)" fill="#4666c8"/>
        <path id="Trazado_1031119" data-name="Trazado 1031119" d="M6.378,100.879a.148.148,0,0,1-.148-.148V99.485a.148.148,0,1,1,.3,0v1.246a.148.148,0,0,1-.148.148" transform="translate(1.266 20.179)"/>
        <path id="Trazado_1031120" data-name="Trazado 1031120" d="M6.378,102.922a.148.148,0,0,1-.148-.148v-1.248a.148.148,0,0,1,.3,0v1.248a.148.148,0,0,1-.148.148" transform="translate(1.266 20.594)"/>
        <path id="Trazado_1031121" data-name="Trazado 1031121" d="M8.128,101.172H6.881a.148.148,0,0,1,0-.3H8.128a.148.148,0,0,1,0,.3" transform="translate(1.368 20.492)"/>
        <path id="Trazado_1031122" data-name="Trazado 1031122" d="M6.086,101.172H4.838a.148.148,0,0,1,0-.3H6.086a.148.148,0,0,1,0,.3" transform="translate(0.953 20.492)"/>
        <path id="Trazado_1031123" data-name="Trazado 1031123" d="M9.433,62.608a.147.147,0,0,1-.141-.1l-1.2-3.837a.149.149,0,0,1,.032-.143.145.145,0,0,1,.141-.045l3.923.879a.145.145,0,0,1,.108.1.148.148,0,0,1-.032.144L9.541,62.56a.151.151,0,0,1-.108.048M8.45,58.823,9.5,62.171l2.377-2.581Z" transform="translate(1.642 11.878)"/>
        <path id="Trazado_1031124" data-name="Trazado 1031124" d="M104.186,39.219a.148.148,0,0,1-.147-.132c-.886-8.27-10.021-11.513-10.114-11.544a.149.149,0,0,1-.1-.141c.031-3.585-2.143-6.5-6.462-8.651a26.251,26.251,0,0,0-6.57-2.179.148.148,0,0,1,.048-.292,26.637,26.637,0,0,1,6.649,2.2c4.328,2.158,6.618,5.2,6.632,8.815a19.654,19.654,0,0,1,4.708,2.648,13.355,13.355,0,0,1,5.5,9.108.146.146,0,0,1-.131.162h-.016" transform="translate(16.387 3.307)" fill="#89b9e6"/>
        <path id="Trazado_1031125" data-name="Trazado 1031125" d="M96,24.062a.147.147,0,0,1-.136-.09c-2.072-4.841-7.735-7.154-12.122-8.241a43.627,43.627,0,0,0-9.155-1.213.147.147,0,1,1,0-.295,43.98,43.98,0,0,1,9.22,1.22c4.453,1.1,10.207,3.459,12.327,8.414a.147.147,0,0,1-.078.194.138.138,0,0,1-.058.012" transform="translate(15.122 2.889)" fill="#89b9e6"/>
        <path id="Trazado_1031126" data-name="Trazado 1031126" d="M63.915,22.441a.148.148,0,0,1-.1-.253L66.5,19.5a.15.15,0,0,1,.209,0,.148.148,0,0,1,0,.209L64.02,22.4a.147.147,0,0,1-.1.043" transform="translate(12.953 3.952)"/>
        <path id="Trazado_1031127" data-name="Trazado 1031127" d="M66.608,22.441a.149.149,0,0,1-.1-.043L63.81,19.706a.148.148,0,0,1,0-.209.15.15,0,0,1,.209,0l2.693,2.693a.148.148,0,0,1-.1.253" transform="translate(12.953 3.952)"/>
        <rect id="Rectángulo_459858" data-name="Rectángulo 459858" width="5.532" height="5.532" transform="translate(107.34 37.31)" fill="#89b9e6"/>
        <path id="Trazado_1031128" data-name="Trazado 1031128" d="M89.723,34.96a3.36,3.36,0,1,1,3.36-3.36,3.364,3.364,0,0,1-3.36,3.36m0-6.426A3.065,3.065,0,1,0,92.789,31.6a3.069,3.069,0,0,0-3.066-3.066" transform="translate(17.543 5.736)"/>
        <path id="Trazado_1031129" data-name="Trazado 1031129" d="M55.222,111.167C12.351,93.633,7.264,80.373,7.264,80.373V74.3l55.261,36.309,30.966,4.45v1.781l-1.308,1.04s-13.286-5.443-42.917-1.5v-3.57Z" transform="translate(1.476 15.092)" fill="#fff"/>
        <path id="Trazado_1031130" data-name="Trazado 1031130" d="M25.746,80.007C23.838,72.714,37.911,69.66,66.783,69.66s46.488-4.9,49.135-13.921V50.813L89.422,64.58l-63.87,6.4-2.882,5.364Z" transform="translate(4.605 10.322)" fill="#fff"/>
        <path id="Trazado_1031131" data-name="Trazado 1031131" d="M31.465,76.009c12.426-6.052,43.288-4.826,43.288-4.826,60.715,0,52.656-32.517,16.062-32.517H40.527L40.1,41.107H78.828c33.309,0,30.323,25.719-4.075,25.719,0,0-32.606-1.062-50.877,3.131C3.653,74.6,2.092,84.254,18.114,96.622c16.352,12.622,42.022,21.222,42.022,21.222l15.252-4.329,7.048-6.136C25.986,89.5,26.584,78.386,31.465,76.009" transform="translate(1.476 7.854)" fill="#4666c8"/>
        <path id="Trazado_1031132" data-name="Trazado 1031132" d="M96.7,52.684l-.026,0a.148.148,0,0,1-.119-.172,7.6,7.6,0,0,0-2.015-5.817c-2.492-3-8.146-6.57-20.93-6.57H34.71a.148.148,0,1,1,0-.3h38.9c12.9,0,18.625,3.631,21.157,6.677a7.906,7.906,0,0,1,2.079,6.06.148.148,0,0,1-.146.12" transform="translate(7.021 8.09)"/>
        <path id="Trazado_1031133" data-name="Trazado 1031133" d="M25.281,79.347a.149.149,0,0,1-.143-.111,4.382,4.382,0,0,1,.762-3.968c1.767-2.29,5.98-3.929,12.875-5.012,6.65-1.044,15.659-1.552,27.543-1.552C95.3,68.7,112.7,63.8,115.31,54.89a.148.148,0,0,1,.284.083C112.941,64.018,95.441,69,66.317,69c-23.69,0-36.834,2.109-40.185,6.449a4.045,4.045,0,0,0-.709,3.713.148.148,0,0,1-.106.18.132.132,0,0,1-.037,0" transform="translate(5.071 11.129)"/>
        <path id="Trazado_1031134" data-name="Trazado 1031134" d="M42.175,110.6s23.852-3.889,42.917,1.5l1.308-.937C75.9,101.508,79.458,94.04,79.458,94.04L77.9,93.482s-3.873,7.061-35.73,15.428Z" transform="translate(8.567 18.99)" fill="#4666c8"/>
        <path id="Trazado_1031135" data-name="Trazado 1031135" d="M55.247,110.314a.146.146,0,0,1-.055-.011c-12.233-5-29.119-12.881-40.094-22C8.513,82.839,7.2,79.562,7.151,79.425a.148.148,0,0,1,.085-.19.146.146,0,0,1,.19.084c.013.034,1.354,3.366,7.9,8.795C26.276,97.192,43.109,105.042,55.3,110.03a.148.148,0,0,1,.082.192.15.15,0,0,1-.137.091" transform="translate(1.451 16.093)"/>
        <path id="Trazado_1031136" data-name="Trazado 1031136" d="M85.117,111.176a.131.131,0,0,1-.048-.008c-15.384-5.36-42.574-1.532-42.847-1.492a.15.15,0,0,1-.118-.035.146.146,0,0,1-.051-.112v-1.376a.147.147,0,1,1,.295,0v1.207c1.108-.15,7.524-.99,15.457-1.266,8-.278,19.212-.02,27.284,2.768l1.244-.989a.148.148,0,1,1,.184.231l-1.308,1.04a.144.144,0,0,1-.091.032" transform="translate(8.542 21.94)"/>
        <path id="Trazado_1031137" data-name="Trazado 1031137" d="M61.646,15.028a5.258,5.258,0,1,0-5.258,5.258,5.258,5.258,0,0,0,5.258-5.258" transform="translate(10.387 1.985)" fill="#fff"/>
        <path id="Trazado_1031138" data-name="Trazado 1031138" d="M56.413,20.458a5.405,5.405,0,1,1,5.406-5.406,5.411,5.411,0,0,1-5.406,5.406m0-10.515a5.11,5.11,0,1,0,5.11,5.11,5.115,5.115,0,0,0-5.11-5.11" transform="translate(10.362 1.96)"/>
        <path id="Trazado_1031139" data-name="Trazado 1031139" d="M59.8,15.526c0-1.53-1.646-.693-3.676-.693s-3.674-.837-3.674.693S54.092,18.3,56.121,18.3s3.676-1.24,3.676-2.771" transform="translate(10.654 2.967)" fill="#d7e4f2"/>
        <path id="Trazado_1031140" data-name="Trazado 1031140" d="M59.047,14.169l.6-.61c-.209-.5-.226-.544-.437-1.047l-.857,0-.609-.541-.1-.851-1.09-.31-.535.668c-.307.053-.5.087-.8.138l-.728-.45-.923.658.188.836-.392.713-.806.29c-.029.544-.031.587-.061,1.131l.771.374c.119.286.194.466.314.752l-.278.811.848.753.772-.369.783.224.461.722,1.118-.193.192-.835.664-.473.852.089.545-.994L59,14.982c.017-.309.028-.5.043-.813m-2.934,1.781a1.517,1.517,0,1,1,1.517-1.517,1.517,1.517,0,0,1-1.517,1.517" transform="translate(10.663 2.195)" fill="#89b9e6"/>
        <path id="Trazado_1031141" data-name="Trazado 1031141" d="M77.409,48.394a5.258,5.258,0,1,0-5.258,5.258,5.258,5.258,0,0,0,5.258-5.258" transform="translate(13.589 8.762)" fill="#fff"/>
        <path id="Trazado_1031142" data-name="Trazado 1031142" d="M72.177,53.823a5.4,5.4,0,1,1,5.4-5.4,5.411,5.411,0,0,1-5.4,5.4m0-10.514a5.11,5.11,0,1,0,5.11,5.11,5.115,5.115,0,0,0-5.11-5.11" transform="translate(13.564 8.738)"/>
        <path id="Trazado_1031143" data-name="Trazado 1031143" d="M75.559,48.892c0-1.53-1.646-.693-3.676-.693s-3.674-.837-3.674.693,1.645,2.771,3.674,2.771,3.676-1.24,3.676-2.771" transform="translate(13.856 9.744)" fill="#d7e4f2"/>
        <path id="Trazado_1031144" data-name="Trazado 1031144" d="M74.81,47.535l.6-.61c-.209-.5-.226-.544-.437-1.047l-.857,0-.609-.541-.1-.849-1.09-.312-.535.668-.8.138-.728-.45-.923.658.188.836-.392.713-.806.289c-.029.544-.032.588-.061,1.132l.771.374c.119.286.194.466.314.752l-.278.811.848.753.772-.369.783.224.461.722,1.118-.193.193-.835.664-.473.852.089.545-.994-.532-.671c.017-.309.026-.5.043-.813m-2.934,1.781A1.517,1.517,0,1,1,73.392,47.8a1.517,1.517,0,0,1-1.517,1.517" transform="translate(13.865 8.973)" fill="#89b9e6"/>
        <path id="Trazado_1031145" data-name="Trazado 1031145" d="M92.823,119.685l-.648-14.908-5.555,15.97a128.507,128.507,0,0,1-13.848,1.043L83.5,91.443l22.973,4.391v18.78c-2.629,1.7-6.875,3.633-13.65,5.071" transform="translate(14.783 18.575)"/>
        <path id="Trazado_1031146" data-name="Trazado 1031146" d="M110.1,71.038S96.15,66.03,87.26,67.1,81.8,96.418,81.8,96.418c5.864,10.763,22.973,4.391,22.973,4.391Z" transform="translate(16.484 13.6)" fill="#fff"/>
        <path id="Trazado_1031147" data-name="Trazado 1031147" d="M93.14,95.443a18.271,18.271,0,0,0,3.141-.244.225.225,0,1,0-.088-.44c-.082.016-8.243,1.56-13.872-3.445a.225.225,0,0,0-.3.337c3.576,3.177,8.13,3.792,11.117,3.792" transform="translate(16.646 18.538)"/>
        <path id="Trazado_1031148" data-name="Trazado 1031148" d="M102.182,68.186S93.14,79.461,91.747,112.875l11.781-1.822,1.82-18.45s5.623-16.994,2.892-21.472c-.843-1.382-6.059-2.945-6.059-2.945" transform="translate(18.637 13.851)" fill="#89b9e6"/>
        <path id="Trazado_1031149" data-name="Trazado 1031149" d="M81.433,94.645s.858-25.6,4.606-27.391a11.923,11.923,0,0,1,6.574-.949L80.684,109.853l-3.535-1.82Z" transform="translate(15.672 13.446)" fill="#89b9e6"/>
        <path id="Trazado_1031150" data-name="Trazado 1031150" d="M74.367,71.535c-1.071-2.051-5.5-2.1-5.5-2.1l-2.928-3.624-3.57,1.76s.83,5.763,6.449,7.552,5.546-3.584,5.546-3.584" transform="translate(12.67 13.368)" fill="#fff"/>
        <path id="Trazado_1031151" data-name="Trazado 1031151" d="M69.593,70.581l-.839-4.456,1.39.233a8.216,8.216,0,0,1,2.5,5.386Z" transform="translate(13.966 13.432)" fill="#fff"/>
        <path id="Trazado_1031152" data-name="Trazado 1031152" d="M87.933,67.867l-8.078,9.3-6.466-6.046-6.2,4.009S77.971,89.993,80.112,90.207,91.168,76.634,91.168,76.634Z" transform="translate(13.648 13.786)" fill="#89b9e6"/>
        <path id="Trazado_1031153" data-name="Trazado 1031153" d="M90,68.541s.6,4.993,3.064,5.743,9.471-3.457,9.471-3.457-4.651-1.47-2.938-10.359-9.1-4.927-8.46,0S92.4,68.368,90,68.541" transform="translate(18.282 11.21)" fill="#fff"/>
        <path id="Trazado_1031154" data-name="Trazado 1031154" d="M93.038,74.537c-2.574-.783-3.2-5.721-3.222-5.93a.223.223,0,0,1,.207-.251,1.415,1.415,0,0,0,1.061-.48c.733-.9.437-3.106.026-6.158-.052-.38-.1-.775-.158-1.181-.261-2.009,1.226-3.686,2.7-4.586,1.817-1.106,3.792-1.263,5.032-.4.858.6,1.758,1.949,1.168,5-.478,2.48-.732,5.936.775,8.317a4.257,4.257,0,0,0,2.01,1.784.225.225,0,0,1,.047.408c-.265.159-5.993,3.576-8.908,3.576a2.577,2.577,0,0,1-.744-.1m7.236-5.4c-1.607-2.507-1.354-6.1-.858-8.677.43-2.229.09-3.8-.984-4.548s-2.9-.58-4.541.417c-1.358.827-2.726,2.35-2.492,4.144.053.408.106.8.156,1.181.442,3.28.733,5.448-.123,6.5a1.745,1.745,0,0,1-1.138.617c.152.963.867,4.72,2.874,5.331.953.29,2.854-.207,5.5-1.435,1.473-.683,2.8-1.425,3.421-1.782a5.087,5.087,0,0,1-1.812-1.749" transform="translate(18.245 11.172)"/>
        <path id="Trazado_1031155" data-name="Trazado 1031155" d="M88.033,48.513c-.6,1.106,2.79,4.1,7.568,6.683s9.135,3.783,9.733,2.677-2.789-4.1-7.567-6.682-9.137-3.784-9.735-2.678" transform="translate(17.869 9.771)" fill="#f57a3e"/>
        <path id="Trazado_1031156" data-name="Trazado 1031156" d="M88.671,61.012C88.4,57.8,90.1,44.948,95.355,46.126s10.153,5.783,6.757,13.28c-4.9,10.816-13.025,6.576-13.441,1.606" transform="translate(18.007 9.354)" fill="#fff"/>
        <path id="Trazado_1031157" data-name="Trazado 1031157" d="M93.443,66.349a6.076,6.076,0,0,1-4.958-5.279c-.217-2.583.845-11.519,4.064-14.326a3.173,3.173,0,0,1,2.894-.8,10.505,10.505,0,0,1,7.222,5.169c1.2,2.411,1.095,5.323-.309,8.423-2.671,5.894-6.018,6.892-7.977,6.892a5.459,5.459,0,0,1-.936-.079m-.6-19.266c-3.106,2.708-4.122,11.425-3.911,13.948a5.618,5.618,0,0,0,4.588,4.875c1.521.262,5.388.149,8.426-6.555,1.348-2.973,1.457-5.752.318-8.037a10.064,10.064,0,0,0-6.919-4.932,2.716,2.716,0,0,0-2.5.7M88.707,61.05h0Z" transform="translate(17.969 9.316)"/>
        <path id="Trazado_1031158" data-name="Trazado 1031158" d="M95.765,55.271c0,2.731,1.417,4.945,3.164,4.945s3.164-2.214,3.164-4.945-1.416-4.944-3.164-4.944-3.164,2.213-3.164,4.944" transform="translate(19.453 10.223)"/>
        <path id="Trazado_1031159" data-name="Trazado 1031159" d="M104.073,57.921A86.3,86.3,0,0,0,89.013,50.1S92.985,42.713,100,45.592c7.53,3.09,4.07,12.329,4.07,12.329" transform="translate(18.082 9.126)" fill="#f57a3e"/>
        <path id="Trazado_1031160" data-name="Trazado 1031160" d="M104.452,58.059a.225.225,0,0,0,.158-.386,30.744,30.744,0,0,0-4.068-3.15,50.128,50.128,0,0,0-11.765-5.735.225.225,0,0,0-.143.426,49.7,49.7,0,0,1,11.648,5.675A30.766,30.766,0,0,1,104.294,58a.229.229,0,0,0,.158.064" transform="translate(17.973 9.908)"/>
        <path id="Trazado_1031161" data-name="Trazado 1031161" d="M104.226,56.663a.225.225,0,0,0,.162-.38c-2.41-2.523-6.226-4.661-9-6.011a59.316,59.316,0,0,0-5.5-2.344.225.225,0,1,0-.149.424c.1.035,9.795,3.5,14.325,8.241a.222.222,0,0,0,.162.07" transform="translate(18.199 9.733)"/>
        <path id="Trazado_1031162" data-name="Trazado 1031162" d="M92.476,49.818a.223.223,0,0,0,.19-.106c.022-.032,2.124-3.328,5.133-3.4a.224.224,0,0,0,.219-.23.227.227,0,0,0-.231-.219A6.186,6.186,0,0,0,93.792,47.7a9.7,9.7,0,0,0-1.506,1.77.223.223,0,0,0,.071.309.218.218,0,0,0,.119.035" transform="translate(18.74 9.316)"/>
        <path id="Trazado_1031163" data-name="Trazado 1031163" d="M100.055,54.865a.225.225,0,0,0,.214-.155c1.351-4.16.043-6.855-.013-6.967a.225.225,0,1,0-.4.2,9.4,9.4,0,0,1-.013,6.627.225.225,0,0,0,.144.284.234.234,0,0,0,.07.011" transform="translate(20.279 9.673)"/>
        <path id="Trazado_1031164" data-name="Trazado 1031164" d="M96.488,51.942a.224.224,0,0,0,.2-.131l1.453-3.162a.225.225,0,1,0-.409-.188l-1.453,3.162a.225.225,0,0,0,.111.3.236.236,0,0,0,.094.02" transform="translate(19.554 9.818)"/>
        <path id="Trazado_1031165" data-name="Trazado 1031165" d="M97.356,61.406a2.71,2.71,0,1,0-.107-3.572,2.539,2.539,0,0,0,.107,3.572" transform="translate(19.617 11.533)" fill="#fff"/>
        <path id="Trazado_1031166" data-name="Trazado 1031166" d="M98.664,62.155a2.721,2.721,0,0,0,.438-.036,3.186,3.186,0,0,0,2.607-3.158,2.384,2.384,0,0,0-2.831-2.336A3.092,3.092,0,0,0,97,57.728a.225.225,0,1,0,.346.286,2.648,2.648,0,0,1,1.6-.947,1.933,1.933,0,0,1,2.309,1.906,2.735,2.735,0,0,1-2.229,2.7,1.983,1.983,0,0,1-1.606-.4.225.225,0,1,0-.286.347,2.372,2.372,0,0,0,1.527.538" transform="translate(19.694 11.495)"/>
        <path id="Trazado_1031167" data-name="Trazado 1031167" d="M100.665,96a9.171,9.171,0,0,0-4.841,4.142c-.415.724-2,4.855-2,4.855l3.419,2.321,3.105-3.428s4.685.464,5.4-3.319-3.159-6.039-5.083-4.571" transform="translate(19.059 19.409)" fill="#fff"/>
        <path id="Trazado_1031168" data-name="Trazado 1031168" d="M84.838,90.02c-.006-.012-.65-1.257-1.236-2.613-1.216-2.812-1-3.36-.931-3.541.355-.911,2.713-1.867,3.707-2.234a11.3,11.3,0,0,1-2.4-2.14c-.087-.172-.247-.493,2.441-6.945,1.31-3.144,2.676-6.249,2.69-6.28a.225.225,0,1,1,.411.182c-2.02,4.588-5.186,12.1-5.131,12.86a13.6,13.6,0,0,0,2.6,2.207.221.221,0,0,1,.093.215.226.226,0,0,1-.149.182c-1.344.458-3.576,1.44-3.839,2.118s1.177,3.909,2.148,5.783a.224.224,0,0,1-.1.3.225.225,0,0,1-.3-.1" transform="translate(16.781 13.434)" fill="#8abae7"/>
        <path id="Trazado_1031169" data-name="Trazado 1031169" d="M93.863,105.183a.224.224,0,0,0,.221-.191,11.191,11.191,0,0,1,6.692-8.818.225.225,0,0,0,.138-.286.222.222,0,0,0-.285-.138,11.647,11.647,0,0,0-6.989,9.175.224.224,0,0,0,.188.256l.035,0" transform="translate(19.021 19.447)"/>
        <path id="Trazado_1031170" data-name="Trazado 1031170" d="M94.861,105.08a.227.227,0,0,0,.22-.178,17.946,17.946,0,0,1,1.841-4.311.222.222,0,0,0-.078-.308.225.225,0,0,0-.308.078,18.082,18.082,0,0,0-1.9,4.447.225.225,0,0,0,.174.267.208.208,0,0,0,.047,0" transform="translate(19.224 20.365)"/>
        <path id="Trazado_1031171" data-name="Trazado 1031171" d="M95.792,105.589a.222.222,0,0,0,.191-.107l2.247-3.646a.225.225,0,1,0-.383-.236L95.6,105.247a.225.225,0,0,0,.191.343" transform="translate(19.413 20.617)"/>
        <path id="Trazado_1031172" data-name="Trazado 1031172" d="M100.4,82.237a86.912,86.912,0,0,1,6.6,9.942l-7.961,8.373s1.25,6,5.212,7.068c0,0,15.209-9.532,15.744-11.46s-11.5-23.3-12.638-24.633c-3.106-3.641-13.8,2.518-6.961,10.71" transform="translate(19.94 14.312)" fill="#89b9e6"/>
        <path id="Trazado_1031173" data-name="Trazado 1031173" d="M93.571,92.264a.213.213,0,0,0,.081-.016c.014-.006,1.521-.594,2.991-1.274,2.74-1.268,3.062-1.766,3-2.115-.13-.738-2.741-3.955-3.625-5.028,1.268-.195,4.855-.809,5.534-1.586.764-.873,3.393-11.81,3.691-13.054a.225.225,0,1,0-.438-.1c-1.156,4.843-3.068,12.265-3.591,12.863-.51.582-3.661,1.214-5.656,1.5a.23.23,0,0,0-.178.142.222.222,0,0,0,.037.225c1.4,1.683,3.66,4.549,3.78,5.116-.093.362-2.292,1.569-5.708,2.9a.225.225,0,0,0,.082.434" transform="translate(18.962 13.999)" fill="#8abae7"/>
        <path id="Trazado_1031174" data-name="Trazado 1031174" d="M105.038,101.938a.225.225,0,0,0,.1-.427c-3.507-1.713-4.9-7.124-4.918-7.178a.225.225,0,1,0-.436.109,16.573,16.573,0,0,0,1.171,3.042,9.669,9.669,0,0,0,3.986,4.431.227.227,0,0,0,.1.023" transform="translate(20.268 19.128)" fill="#8abae7"/>
        <path id="Trazado_1031175" data-name="Trazado 1031175" d="M98.936,98.572a.221.221,0,0,0,.162-.07l7.962-8.371a.227.227,0,0,0,.026-.277l-5.433-8.446a.225.225,0,0,0-.379.244l5.338,8.3-7.84,8.244a.224.224,0,0,0,.162.38" transform="translate(20.052 16.516)"/>
        <path id="Trazado_1031176" data-name="Trazado 1031176" d="M80.748,93.036a.225.225,0,0,0,.224-.209c.008-.124.9-12.534,1.713-17.343a.225.225,0,0,0-.444-.075c-.821,4.829-1.708,17.261-1.718,17.387a.224.224,0,0,0,.209.239h.016" transform="translate(16.357 15.28)"/>
        <path id="Trazado_1031177" data-name="Trazado 1031177" d="M70.127,69.857a.225.225,0,0,0,.019-.449l-1.727-.155L65.553,65.7a.225.225,0,1,0-.35.283l2.927,3.624a.232.232,0,0,0,.155.083l1.822.162h.02" transform="translate(13.235 13.33)"/>
        <path id="Trazado_1031178" data-name="Trazado 1031178" d="M66.277,71.157a.229.229,0,0,0,.186-.1.225.225,0,0,0-.061-.312A9.657,9.657,0,0,1,63.266,66.9a.225.225,0,0,0-.416.17,9.929,9.929,0,0,0,3.3,4.045.226.226,0,0,0,.128.038" transform="translate(12.764 13.562)"/>
        <path id="Trazado_1031179" data-name="Trazado 1031179" d="M67.349,70.267a.225.225,0,0,0,.128-.41A9.788,9.788,0,0,1,64.4,66.272a.225.225,0,0,0-.416.17,10.043,10.043,0,0,0,3.24,3.786.231.231,0,0,0,.128.04" transform="translate(12.994 13.434)"/>
        <path id="Trazado_1031180" data-name="Trazado 1031180" d="M69.565,70.5a.249.249,0,0,0,.042,0,.225.225,0,0,0,.179-.262l-.774-4.109a.225.225,0,1,0-.442.083l.774,4.109a.224.224,0,0,0,.22.183" transform="translate(13.929 13.394)"/>
        <path id="Trazado_1031181" data-name="Trazado 1031181" d="M72.268,70.913a.208.208,0,0,0,.06-.008.223.223,0,0,0,.156-.276,13.765,13.765,0,0,0-1.451-3.33.225.225,0,1,0-.38.241,13.568,13.568,0,0,1,1.4,3.209.226.226,0,0,0,.217.165" transform="translate(14.345 13.65)"/>
        <path id="Trazado_1031182" data-name="Trazado 1031182" d="M68.408,74.846a.225.225,0,0,0,.034-.448c-4.037-.614-5.8-6.685-5.815-6.746a.225.225,0,1,0-.433.123,15.28,15.28,0,0,0,1.435,3.265c1.305,2.215,2.946,3.53,4.745,3.8l.034,0" transform="translate(12.632 13.709)"/>
        <path id="Trazado_1031183" data-name="Trazado 1031183" d="M68.651,76.385a.224.224,0,0,0,.126-.04l6.188-4.231a.225.225,0,1,0-.254-.372l-6.188,4.233a.225.225,0,0,0,.128.41" transform="translate(13.9 14.566)" fill="#8abae7"/>
        <path id="Trazado_1031184" data-name="Trazado 1031184" d="M29.038,7.049,28.661.173h-4.1l-.377,6.876Z" transform="translate(4.913 0.035)" fill="#f37a3e"/>
        <path id="Trazado_1031185" data-name="Trazado 1031185" d="M23.872,12.764H29.48L29.1,5.888H24.25Z" transform="translate(4.849 1.196)" fill="#d7e4f2"/>
        <path id="Trazado_1031186" data-name="Trazado 1031186" d="M23.559,18.479h6.362L29.543,11.6H23.936Z" transform="translate(4.786 2.357)" fill="#f37a3e"/>
        <path id="Trazado_1031187" data-name="Trazado 1031187" d="M23.245,24.195h7.117l-.378-6.876H23.622Z" transform="translate(4.722 3.518)" fill="#fff"/>
        <path id="Trazado_1031188" data-name="Trazado 1031188" d="M22.931,29.91H30.8l-.378-6.876H23.309Z" transform="translate(4.658 4.679)" fill="#f37a3e"/>
        <path id="Trazado_1031189" data-name="Trazado 1031189" d="M22.618,35.625h8.625l-.378-6.876H23Z" transform="translate(4.595 5.84)" fill="#fff"/>
        <path id="Trazado_1031190" data-name="Trazado 1031190" d="M23.844,41.673h-.007a.207.207,0,0,1-.2-.214L25.129.2a.21.21,0,0,1,.214-.2.207.207,0,0,1,.2.214L24.051,41.473a.207.207,0,0,1-.207.2" transform="translate(4.801 0)" fill="#fff"/>
        <path id="Trazado_1031191" data-name="Trazado 1031191" d="M28.512,6.13H26.985a.207.207,0,1,1,0-.414h1.527a.207.207,0,1,1,0,.414" transform="translate(5.44 1.161)"/>
        <path id="Trazado_1031192" data-name="Trazado 1031192" d="M28.685,6.865H26.377a.207.207,0,0,1,0-.414h2.308a.207.207,0,0,1,0,.414" transform="translate(5.316 1.31)"/>
        <path id="Trazado_1031193" data-name="Trazado 1031193" d="M28.633.415h-4.1a.207.207,0,1,1,0-.414h4.1a.207.207,0,0,1,0,.414" transform="translate(4.942 0)"/>
        <path id="Trazado_1031194" data-name="Trazado 1031194" d="M40.251,7.049,39.873.173h-4.1L35.4,7.049Z" transform="translate(7.191 0.035)" fill="#f37a3e"/>
        <path id="Trazado_1031195" data-name="Trazado 1031195" d="M35.084,12.764h5.608l-.378-6.876H35.462Z" transform="translate(7.127 1.196)" fill="#d7e4f2"/>
        <path id="Trazado_1031196" data-name="Trazado 1031196" d="M34.771,18.479h6.361L40.755,11.6H35.147Z" transform="translate(7.063 2.357)" fill="#f37a3e"/>
        <path id="Trazado_1031197" data-name="Trazado 1031197" d="M34.457,24.195h7.117L41.2,17.319H34.835Z" transform="translate(7 3.518)" fill="#fff"/>
        <path id="Trazado_1031198" data-name="Trazado 1031198" d="M34.144,29.91h7.871l-.378-6.876H34.522Z" transform="translate(6.936 4.679)" fill="#f37a3e"/>
        <path id="Trazado_1031199" data-name="Trazado 1031199" d="M33.83,35.625h8.625l-.378-6.876H34.207Z" transform="translate(6.872 5.84)" fill="#fff"/>
        <path id="Trazado_1031200" data-name="Trazado 1031200" d="M35.056,41.673h-.007a.207.207,0,0,1-.2-.214L36.341.2a.206.206,0,0,1,.207-.2h.007a.207.207,0,0,1,.2.214L35.263,41.473a.207.207,0,0,1-.207.2" transform="translate(7.079 0)" fill="#fff"/>
        <path id="Trazado_1031201" data-name="Trazado 1031201" d="M39.724,6.13H38.2a.207.207,0,0,1,0-.414h1.527a.207.207,0,1,1,0,.414" transform="translate(7.717 1.161)"/>
        <path id="Trazado_1031202" data-name="Trazado 1031202" d="M39.9,6.865H37.59a.207.207,0,1,1,0-.414H39.9a.207.207,0,1,1,0,.414" transform="translate(7.594 1.31)"/>
        <path id="Trazado_1031203" data-name="Trazado 1031203" d="M39.845.415h-4.1a.207.207,0,1,1,0-.414h4.1a.207.207,0,1,1,0,.414" transform="translate(7.219 0)"/>
        <path id="Trazado_1031204" data-name="Trazado 1031204" d="M7.344,56.3V30.5l9.045-9.045V56.121Z" transform="translate(1.492 4.359)" fill="#88b8e5"/>
        <path id="Trazado_1031205" data-name="Trazado 1031205" d="M14.248,50.81a.207.207,0,0,1-.207-.207V42.436a.207.207,0,0,1,.414,0V50.6a.207.207,0,0,1-.207.207" transform="translate(2.852 8.578)"/>
        <path id="Trazado_1031206" data-name="Trazado 1031206" d="M14.862,56.3V30.5l9.045-9.045V56.121Z" transform="translate(3.019 4.359)" fill="#88b8e5"/>
        <path id="Trazado_1031207" data-name="Trazado 1031207" d="M22.379,56.3V30.5l9.045-9.045V56.121Z" transform="translate(4.546 4.359)" fill="#88b8e5"/>
        <path id="Trazado_1031208" data-name="Trazado 1031208" d="M29.9,56.3V30.5l9.045-9.045V56.121Z" transform="translate(6.073 4.359)" fill="#88b8e5"/>
        <path id="Trazado_1031209" data-name="Trazado 1031209" d="M37.415,56.3V30.5l9.045-9.045V56.121Z" transform="translate(7.6 4.359)" fill="#88b8e5"/>
        <path id="Trazado_1031210" data-name="Trazado 1031210" d="M15.639,53.421H11.231a.207.207,0,0,1-.207-.207V38.081a5.036,5.036,0,0,1,5.029-5.03H31.112a5.036,5.036,0,0,1,5.03,5.03v15.05a.207.207,0,0,1-.207.207H31.527a.207.207,0,0,1-.207-.207V38.081a.208.208,0,0,0-.208-.208H16.053a.208.208,0,0,0-.207.208V53.214a.207.207,0,0,1-.207.207m-4.2-.414h3.993V38.081a.623.623,0,0,1,.622-.622H31.112a.623.623,0,0,1,.623.622V52.924h3.993V38.081a4.621,4.621,0,0,0-4.616-4.615H16.053a4.621,4.621,0,0,0-4.615,4.615Z" transform="translate(2.239 6.714)"/>
        <path id="Trazado_1031211" data-name="Trazado 1031211" d="M31.116,51.408a.207.207,0,0,1-.207-.207V38.58a.207.207,0,0,1,.414,0V51.2a.207.207,0,0,1-.207.207" transform="translate(6.279 7.795)"/>
        <rect id="Rectángulo_459859" data-name="Rectángulo 459859" width="7.203" height="2.45" transform="translate(12.072 58.703)" fill="#d6e3f1"/>
        <rect id="Rectángulo_459860" data-name="Rectángulo 459860" width="7.203" height="2.45" transform="translate(32.369 58.703)" fill="#d6e3f1"/>
        <rect id="Rectángulo_459861" data-name="Rectángulo 459861" width="1.523" height="6.403" transform="translate(13.819 41.379) rotate(-45)" fill="#88b8e5"/>
        <path id="Trazado_1031212" data-name="Trazado 1031212" d="M16.049,39.344a.209.209,0,0,1-.147-.061l-4.527-4.527a.206.206,0,0,1,0-.294l1.077-1.077a.214.214,0,0,1,.292,0l4.527,4.529a.2.2,0,0,1,0,.292l-1.077,1.077a.208.208,0,0,1-.146.061m-4.235-4.736,4.235,4.235.783-.784L12.6,33.825Z" transform="translate(2.298 6.77)"/>
        <rect id="Rectángulo_459862" data-name="Rectángulo 459862" width="6.403" height="1.523" transform="translate(32.301 44.829) rotate(-45)" fill="#88b8e5"/>
        <path id="Trazado_1031213" data-name="Trazado 1031213" d="M27.959,39.343a.207.207,0,0,1-.146-.06l-1.077-1.077a.206.206,0,0,1,0-.294l4.527-4.527a.209.209,0,0,1,.147-.061.213.213,0,0,1,.147.061l1.076,1.077a.2.2,0,0,1,0,.292l-4.527,4.529a.208.208,0,0,1-.147.06m-.783-1.284.783.784,4.235-4.235-.783-.784Z" transform="translate(5.419 6.769)"/>
        <path id="Trazado_1031214" data-name="Trazado 1031214" d="M11.949,49.624a.207.207,0,0,1-.207-.207V39.14a.207.207,0,1,1,.414,0V49.417a.207.207,0,0,1-.207.207" transform="translate(2.385 7.908)" fill="#d6e3f1"/>
        <path id="Trazado_1031215" data-name="Trazado 1031215" d="M11.949,38.517a.207.207,0,0,1-.207-.207v-1.6a.207.207,0,1,1,.414,0v1.6a.207.207,0,0,1-.207.207" transform="translate(2.385 7.415)" fill="#d6e3f1"/>
        <path id="Trazado_1031216" data-name="Trazado 1031216" d="M21.476,34.044h-6.4a.207.207,0,1,1,0-.414h6.4a.207.207,0,1,1,0,.414" transform="translate(3.02 6.831)" fill="#d6e3f1"/>
        <path id="Trazado_1031217" data-name="Trazado 1031217" d="M22.888,34.044H21.5a.207.207,0,1,1,0-.414h1.391a.207.207,0,1,1,0,.414" transform="translate(4.325 6.831)" fill="#d6e3f1"/>
        <path id="Trazado_1031218" data-name="Trazado 1031218" d="M13.506,35.78a.207.207,0,0,1-.147-.061l-1.073-1.072a.208.208,0,0,1,.294-.294l1.073,1.073a.208.208,0,0,1-.147.354" transform="translate(2.483 6.966)" fill="#d6e3f1"/>
        <path id="Trazado_1031219" data-name="Trazado 1031219" d="M65.118,50.656H4.6a.207.207,0,0,1,0-.414H65.118a.207.207,0,1,1,0,.414" transform="translate(0.893 10.206)"/>
        <path id="Trazado_1031220" data-name="Trazado 1031220" d="M43.558,30.745a.2.2,0,0,1-.079-.016.207.207,0,0,1-.128-.191V21.994L34.66,30.685a.208.208,0,0,1-.354-.147V21.994l-8.691,8.691a.208.208,0,0,1-.354-.147V21.994l-8.69,8.691a.207.207,0,0,1-.354-.147V21.994L7.526,30.685a.207.207,0,0,1-.292-.294l9.044-9.045a.207.207,0,0,1,.354.147v8.545l8.691-8.691a.207.207,0,0,1,.354.147v8.545l8.691-8.691a.208.208,0,0,1,.354.147v8.545l8.69-8.691a.207.207,0,0,1,.354.147v8.545l8.691-8.691a.208.208,0,1,1,.294.294l-9.045,9.045a.212.212,0,0,1-.147.06" transform="translate(1.457 4.324)"/>
        <path id="Trazado_1031221" data-name="Trazado 1031221" d="M25.111,52.405H19.84a.207.207,0,0,1-.207-.207V41.838a.207.207,0,0,1,.207-.208h5.271a.207.207,0,0,1,.207.208V52.2a.207.207,0,0,1-.207.207m-5.063-.415H24.9V42.044H20.048Z" transform="translate(3.988 8.457)"/>
        <path id="Trazado_1031222" data-name="Trazado 1031222" d="M76.1,69.578c-.007,1.112-3.513,1.989-7.83,1.96s-7.812-.953-7.8-2.065l.249-.5h0l2.346-4.71a.352.352,0,0,0,0,.049c0,.748,2.346,1.37,5.25,1.39s5.264-.571,5.269-1.319a.251.251,0,0,0,0-.052l2.285,4.743h0Z" transform="translate(12.283 13.054)" fill="#89b9e6"/>
        <path id="Trazado_1031223" data-name="Trazado 1031223" d="M68.484,71.683h-.191a23.318,23.318,0,0,1-5.555-.629c-1.085-.288-2.376-.79-2.371-1.557a.12.12,0,0,1,.013-.054l.248-.5,0-.01,2.344-4.7a.124.124,0,0,1,.149-.061.123.123,0,0,1,.081.14.108.108,0,0,0,0,.028c0,.582,2.1,1.245,5.129,1.266a15.481,15.481,0,0,0,3.691-.368c.908-.227,1.452-.538,1.453-.829v-.029a.122.122,0,0,1,.231-.075l2.28,4.734,0,.01.242.5a.1.1,0,0,1,.012.053c-.008,1.315-3.92,2.083-7.761,2.083m-7.872-2.16c.028.455.841.936,2.188,1.292a23.121,23.121,0,0,0,5.494.622c4.554.03,7.641-.907,7.706-1.812l-.225-.468,0-.008L73.627,64.7a2.838,2.838,0,0,1-1.544.77,15.805,15.805,0,0,1-3.753.375C66,65.83,63.549,65.4,63.05,64.63l-2.2,4.419,0,.01Z" transform="translate(12.262 13.034)"/>
        <path id="Trazado_1031224" data-name="Trazado 1031224" d="M60.468,68.679a.713.713,0,0,1,.249-.5Z" transform="translate(12.283 13.85)" fill="#89b9e6"/>
        <path id="Trazado_1031225" data-name="Trazado 1031225" d="M60.489,68.823a.119.119,0,0,1-.029,0,.122.122,0,0,1-.094-.119.835.835,0,0,1,.285-.587.125.125,0,0,1,.159-.012.124.124,0,0,1,.037.154l-.249.5a.121.121,0,0,1-.109.067" transform="translate(12.262 13.829)"/>
        <path id="Trazado_1031226" data-name="Trazado 1031226" d="M73.5,68.766l-.242-.5a.714.714,0,0,1,.242.5" transform="translate(14.882 13.867)" fill="#89b9e6"/>
        <path id="Trazado_1031227" data-name="Trazado 1031227" d="M73.525,68.909a.125.125,0,0,1-.111-.07l-.242-.5a.123.123,0,0,1,.04-.153.121.121,0,0,1,.158.014.836.836,0,0,1,.278.59.121.121,0,0,1-.1.118.1.1,0,0,1-.026,0" transform="translate(14.861 13.846)"/>
        <path id="Trazado_1031228" data-name="Trazado 1031228" d="M62.626,64.3a.474.474,0,0,1,.119-.239Z" transform="translate(12.722 13.014)" fill="#89b9e6"/>
        <path id="Trazado_1031229" data-name="Trazado 1031229" d="M62.647,64.447a.1.1,0,0,1-.036-.006.123.123,0,0,1-.085-.135.594.594,0,0,1,.148-.3.123.123,0,0,1,.2.135l-.12.239a.123.123,0,0,1-.109.067" transform="translate(12.701 12.993)"/>
        <path id="Trazado_1031230" data-name="Trazado 1031230" d="M71.382,64.361l-.116-.239a.476.476,0,0,1,.116.239" transform="translate(14.477 13.025)" fill="#89b9e6"/>
        <path id="Trazado_1031231" data-name="Trazado 1031231" d="M71.4,64.5a.126.126,0,0,1-.111-.069l-.115-.239a.124.124,0,0,1,.045-.156.122.122,0,0,1,.16.024.6.6,0,0,1,.143.3.123.123,0,0,1-.087.134.111.111,0,0,1-.035,0" transform="translate(14.456 13.005)"/>
        <path id="Trazado_1031232" data-name="Trazado 1031232" d="M73.142,65.24c0,.748-2.363,1.338-5.267,1.319s-5.257-.641-5.252-1.388a.24.24,0,0,1,0-.051l.119-.239,2.405-4.827c.09.363,1.285.658,2.747.668,1.522.01,2.758-.292,2.761-.676l2.363,4.905.116.238a.374.374,0,0,1,0,.052" transform="translate(12.721 12.197)" fill="#d7e4f2"/>
        <path id="Trazado_1031233" data-name="Trazado 1031233" d="M68.034,66.7h-.14c-2.61-.018-5.379-.553-5.373-1.512a.389.389,0,0,1,.007-.073.1.1,0,0,1,.011-.03l2.524-5.068a.123.123,0,0,1,.229.026c.057.227,1.024.563,2.628.574,1.729.012,2.636-.355,2.637-.555a.123.123,0,0,1,.1-.118.121.121,0,0,1,.137.066l2.478,5.143a.147.147,0,0,1,.011.032.5.5,0,0,1,.006.073c0,.541-.894.878-1.64,1.065a15.537,15.537,0,0,1-3.612.375m-5.267-1.524v.014c0,.582,2.1,1.244,5.129,1.265a15.481,15.481,0,0,0,3.691-.368c.908-.227,1.451-.537,1.453-.829v-.014l-2.37-4.917a5.02,5.02,0,0,1-2.752.537,5.223,5.223,0,0,1-2.728-.552Z" transform="translate(12.7 12.177)"/>
        <path id="Trazado_1031234" data-name="Trazado 1031234" d="M70.232,60.992h0c0,.384-1.238.686-2.761.676-1.461-.01-2.657-.3-2.746-.668l.128-.256,2.675-5.367,2.623,5.447Z" transform="translate(13.148 11.249)" fill="#fff"/>
        <path id="Trazado_1031235" data-name="Trazado 1031235" d="M67.562,61.812h-.071c-1.292-.008-2.74-.25-2.865-.76a.119.119,0,0,1,.01-.084l.129-.256,2.675-5.367a.119.119,0,0,1,.108-.067.123.123,0,0,1,.111.07l2.7,5.613a.136.136,0,0,1,.011.054c0,.528-1.4.8-2.812.8m-2.682-.784c.138.226,1.089.529,2.612.54,1.67.012,2.572-.331,2.635-.534l-.066-.135-2.516-5.222Z" transform="translate(13.127 11.229)"/>
        <path id="Trazado_1031236" data-name="Trazado 1031236" d="M63.255,69.959a.111.111,0,0,1-.035,0,.122.122,0,0,1-.082-.153l1.209-4.037a.122.122,0,0,1,.152-.083.124.124,0,0,1,.083.153l-1.209,4.037a.125.125,0,0,1-.118.088" transform="translate(12.824 13.341)" fill="#fff"/>
        <path id="Trazado_1031237" data-name="Trazado 1031237" d="M64.594,65.537a.112.112,0,0,1-.035,0,.124.124,0,0,1-.083-.153L65.77,61.06a.122.122,0,0,1,.152-.082.123.123,0,0,1,.083.153l-1.293,4.318a.125.125,0,0,1-.118.088" transform="translate(13.096 12.386)" fill="#fff"/>
        <path id="Trazado_1031238" data-name="Trazado 1031238" d="M66.032,60.642a.111.111,0,0,1-.035,0,.123.123,0,0,1-.083-.153l1.129-3.768a.123.123,0,0,1,.153-.082.121.121,0,0,1,.082.152l-1.129,3.768a.122.122,0,0,1-.117.088" transform="translate(13.388 11.503)" fill="#d7e4f2"/>
        <path id="Trazado_1031239" data-name="Trazado 1031239" d="M64.652,89.7c0,4.174-7.553,7.556-16.872,7.556S30.909,93.877,30.909,89.7s7.554-7.556,16.872-7.556S64.652,85.53,64.652,89.7" transform="translate(6.279 16.687)" fill="#f57a3e"/>
        <path id="Trazado_1031240" data-name="Trazado 1031240" d="M62.672,92.991c0,3.754-6.8,6.8-15.178,6.8s-15.178-3.044-15.178-6.8,6.8-6.8,15.178-6.8,15.178,3.044,15.178,6.8" transform="translate(6.565 17.509)" fill="#89b9e6"/>
        <path id="Trazado_1031241" data-name="Trazado 1031241" d="M31,89.136l1.842,4.5H62.685l1.842-4.5Z" transform="translate(6.297 18.107)" fill="#89b9e6"/>
        <path id="Trazado_1031242" data-name="Trazado 1031242" d="M64.652,89.7c0,4.174-7.553,7.556-16.872,7.556S30.909,93.877,30.909,89.7s7.554-7.556,16.872-7.556S64.652,85.53,64.652,89.7" transform="translate(6.279 16.687)" fill="#fff"/>
        <path id="Trazado_1031243" data-name="Trazado 1031243" d="M47.81,96.186a30.222,30.222,0,0,1-12-2.228c-3.252-1.457-5.044-3.411-5.044-5.5a.173.173,0,1,1,.347,0c0,4.07,7.491,7.382,16.7,7.382s16.7-3.312,16.7-7.382a.173.173,0,1,1,.347,0c0,2.09-1.791,4.044-5.045,5.5a30.216,30.216,0,0,1-12,2.228" transform="translate(6.249 17.934)"/>
        <path id="Trazado_1031244" data-name="Trazado 1031244" d="M47.349,95.516a26.293,26.293,0,0,1-10.067-1.794c-2.74-1.177-4.247-2.758-4.247-4.454s1.508-3.279,4.247-4.454A26.293,26.293,0,0,1,47.349,83.02a26.293,26.293,0,0,1,10.067,1.794c2.738,1.175,4.247,2.758,4.247,4.454s-1.509,3.277-4.247,4.454a26.293,26.293,0,0,1-10.067,1.794m0-12.149c-7.7,0-13.967,2.647-13.967,5.9s6.266,5.9,13.967,5.9,13.967-2.648,13.967-5.9-6.266-5.9-13.967-5.9" transform="translate(6.711 16.864)"/>
        <path id="Trazado_1031245" data-name="Trazado 1031245" d="M35.185,96.1a.174.174,0,0,1-.16-.1l-1.631-3.821a.176.176,0,0,1,.091-.227.173.173,0,0,1,.227.091l1.631,3.821a.174.174,0,0,1-.159.241" transform="translate(6.781 18.676)"/>
        <path id="Trazado_1031246" data-name="Trazado 1031246" d="M36.778,96.869a.172.172,0,0,1-.162-.113l-1.328-3.625a.173.173,0,1,1,.325-.119l1.328,3.625a.172.172,0,0,1-.1.221.182.182,0,0,1-.06.011" transform="translate(7.166 18.871)"/>
        <path id="Trazado_1031247" data-name="Trazado 1031247" d="M55.161,95.941a.2.2,0,0,1-.045-.006.173.173,0,0,1-.123-.212l.889-3.381a.173.173,0,1,1,.334.088l-.889,3.382a.173.173,0,0,1-.167.129" transform="translate(11.17 18.732)"/>
        <path id="Trazado_1031248" data-name="Trazado 1031248" d="M48.873,97.978A.173.173,0,0,1,48.7,97.8V94.49a.173.173,0,0,1,.346,0V97.8a.173.173,0,0,1-.173.173" transform="translate(9.893 19.159)"/>
        <path id="Trazado_1031249" data-name="Trazado 1031249" d="M48.273,93.018a.173.173,0,0,1-.1-.031l-.971-.68-2.469-.1L43.4,92.8a.177.177,0,0,1-.106.011l-2.7-.576a.176.176,0,0,1-.125-.107.174.174,0,0,1,.022-.164l.44-.616-1.4-.677-2.024.052a.168.168,0,0,1-.143-.069l-.873-1.159a.173.173,0,0,1,.1-.273l1.7-.375.2-.748-1.4-.484a.173.173,0,0,1-.046-.3l1.468-1.061a.172.172,0,0,1,.12-.031l1.958.217,1.823-.58-.108-.664a.172.172,0,0,1,.15-.2l2.949-.343a.176.176,0,0,1,.119.03l.972.68,2.468.1,1.331-.594a.177.177,0,0,1,.106-.011l2.7.576a.173.173,0,0,1,.1.27l-.442.616,1.4.679,2.025-.052a.17.17,0,0,1,.142.069l.873,1.159a.173.173,0,0,1-.1.273l-1.7.375-.2.747,1.4.485a.173.173,0,0,1,.045.3l-1.468,1.062a.179.179,0,0,1-.12.031l-1.958-.217-1.823.58.109.664a.175.175,0,0,1-.034.132.17.17,0,0,1-.118.067l-2.949.343h-.019M44.7,91.857h.007l2.56.106a.167.167,0,0,1,.091.031l.959.671,2.7-.314-.1-.633a.172.172,0,0,1,.118-.193l2-.636a.181.181,0,0,1,.072-.007l1.926.213,1.144-.828-1.24-.427a.173.173,0,0,1-.111-.209l.27-1a.171.171,0,0,1,.13-.124l1.542-.34-.657-.871-1.978.049a.178.178,0,0,1-.079-.017l-1.619-.786a.178.178,0,0,1-.093-.113.173.173,0,0,1,.028-.143l.407-.568-2.389-.51-1.315.588a.168.168,0,0,1-.078.014L46.436,85.7a.171.171,0,0,1-.093-.031L45.384,85l-2.7.314.1.633a.172.172,0,0,1-.118.193l-2,.636a.177.177,0,0,1-.071.007l-1.927-.213-1.144.827,1.24.428a.172.172,0,0,1,.111.208l-.27,1.006a.171.171,0,0,1-.13.124l-1.542.34.657.871,1.978-.049a.153.153,0,0,1,.079.017l1.619.786a.173.173,0,0,1,.066.256l-.408.568,2.389.51,1.315-.588a.183.183,0,0,1,.071-.014M46.851,90.8c-2.661,0-4.745-.865-4.745-1.97s2.084-1.968,4.745-1.968,4.745.865,4.745,1.968-2.084,1.97-4.745,1.97m0-3.591c-2.631,0-4.4.839-4.4,1.622s1.767,1.623,4.4,1.623,4.4-.839,4.4-1.623-1.767-1.622-4.4-1.622" transform="translate(7.406 17.194)"/>
        <path id="Trazado_1031250" data-name="Trazado 1031250" d="M36.148,74.148c0,2.915-5.276,5.277-11.784,5.277s-11.782-2.362-11.782-5.277,5.276-5.277,11.782-5.277,11.784,2.362,11.784,5.277" transform="translate(2.556 13.99)" fill="#f57a3e"/>
        <path id="Trazado_1031251" data-name="Trazado 1031251" d="M34.764,76.444c0,2.622-4.746,4.748-10.6,4.748s-10.6-2.126-10.6-4.748S18.31,71.7,24.165,71.7s10.6,2.126,10.6,4.748" transform="translate(2.755 14.564)" fill="#f47a3e"/>
        <path id="Trazado_1031252" data-name="Trazado 1031252" d="M12.644,73.752,13.93,76.9H34.773l1.287-3.146Z" transform="translate(2.568 14.982)" fill="#f47a3e"/>
        <path id="Trazado_1031253" data-name="Trazado 1031253" d="M36.148,74.148c0,2.915-5.276,5.277-11.784,5.277s-11.782-2.362-11.782-5.277,5.276-5.277,11.782-5.277,11.784,2.362,11.784,5.277" transform="translate(2.556 13.99)" fill="#fff"/>
        <path id="Trazado_1031254" data-name="Trazado 1031254" d="M24.385,78.676A21.078,21.078,0,0,1,16,77.119c-2.272-1.017-3.523-2.381-3.523-3.842a.121.121,0,0,1,.242,0c0,2.843,5.231,5.157,11.662,5.157s11.662-2.314,11.662-5.157a.121.121,0,0,1,.242,0c0,1.461-1.251,2.825-3.523,3.842a21.078,21.078,0,0,1-8.381,1.557" transform="translate(2.535 14.861)"/>
        <path id="Trazado_1031255" data-name="Trazado 1031255" d="M24.063,78.206a18.371,18.371,0,0,1-7.031-1.252c-1.913-.822-2.966-1.926-2.966-3.11s1.053-2.29,2.966-3.111a18.371,18.371,0,0,1,7.031-1.252,18.371,18.371,0,0,1,7.031,1.252c1.912.822,2.966,1.926,2.966,3.111s-1.054,2.288-2.966,3.11a18.371,18.371,0,0,1-7.031,1.252m0-8.485c-5.379,0-9.755,1.849-9.755,4.122s4.376,4.121,9.755,4.121,9.755-1.849,9.755-4.121-4.376-4.122-9.755-4.122" transform="translate(2.857 14.114)"/>
        <path id="Trazado_1031256" data-name="Trazado 1031256" d="M15.567,78.617a.12.12,0,0,1-.111-.073l-1.139-2.669a.121.121,0,0,1,.223-.1l1.138,2.669a.121.121,0,0,1-.064.159.126.126,0,0,1-.047.01" transform="translate(2.906 15.379)"/>
        <path id="Trazado_1031257" data-name="Trazado 1031257" d="M16.68,79.152a.12.12,0,0,1-.113-.079l-.928-2.531a.12.12,0,1,1,.226-.083l.928,2.531a.121.121,0,0,1-.071.155.135.135,0,0,1-.042.007" transform="translate(3.175 15.515)"/>
        <path id="Trazado_1031258" data-name="Trazado 1031258" d="M29.519,78.5a.157.157,0,0,1-.032,0,.122.122,0,0,1-.084-.148l.62-2.362a.121.121,0,1,1,.233.061l-.621,2.362a.121.121,0,0,1-.115.09" transform="translate(5.972 15.418)"/>
        <path id="Trazado_1031259" data-name="Trazado 1031259" d="M25.128,79.927a.122.122,0,0,1-.122-.12V77.49a.121.121,0,0,1,.242,0v2.316a.121.121,0,0,1-.12.12" transform="translate(5.08 15.717)"/>
        <path id="Trazado_1031260" data-name="Trazado 1031260" d="M24.708,76.462a.128.128,0,0,1-.069-.022l-.679-.475-1.724-.071-.929.414a.124.124,0,0,1-.075.008l-1.888-.4a.12.12,0,0,1-.073-.188l.308-.431-.976-.473-1.414.035a.119.119,0,0,1-.1-.048L16.482,74a.118.118,0,0,1-.017-.114.12.12,0,0,1,.087-.076l1.19-.262.14-.522-.979-.338a.126.126,0,0,1-.081-.1.123.123,0,0,1,.049-.116l1.025-.741a.122.122,0,0,1,.084-.022l1.367.15,1.273-.4-.076-.464a.113.113,0,0,1,.023-.091.119.119,0,0,1,.082-.048l2.06-.239a.121.121,0,0,1,.083.022l.679.475,1.724.071.929-.415a.123.123,0,0,1,.075-.008l1.888.4a.12.12,0,0,1,.088.075.121.121,0,0,1-.014.114l-.308.43.976.474,1.414-.036a.119.119,0,0,1,.1.048l.609.809a.118.118,0,0,1,.017.114.121.121,0,0,1-.087.077l-1.19.262-.14.522.979.338a.12.12,0,0,1,.031.212l-1.025.741a.123.123,0,0,1-.084.023l-1.367-.152-1.273.405.076.463a.121.121,0,0,1-.1.14l-2.06.239h-.014m-2.5-.811h0l1.788.073a.127.127,0,0,1,.065.022l.67.469L26.628,76l-.073-.443a.123.123,0,0,1,.083-.135l1.4-.444a.145.145,0,0,1,.051,0l1.346.149.8-.578-.866-.3a.122.122,0,0,1-.078-.146l.189-.7a.12.12,0,0,1,.09-.088l1.078-.237-.46-.609L28.8,72.5a.124.124,0,0,1-.055-.012l-1.131-.549a.12.12,0,0,1-.046-.179l.284-.4L26.185,71l-.918.41a.118.118,0,0,1-.054.011l-1.788-.075a.127.127,0,0,1-.065-.022l-.669-.469-1.889.22.073.442a.122.122,0,0,1-.083.135l-1.4.444a.121.121,0,0,1-.051,0L18,71.958l-.8.577.866.3a.122.122,0,0,1,.078.146l-.189.7a.118.118,0,0,1-.09.087l-1.078.237.46.609,1.381-.035a.112.112,0,0,1,.055.012l1.131.549a.12.12,0,0,1,.046.179l-.284.4,1.669.356.918-.411a.138.138,0,0,1,.049-.01m1.5-.739c-1.859,0-3.313-.6-3.313-1.374s1.455-1.375,3.313-1.375,3.313.6,3.313,1.375-1.455,1.374-3.313,1.374m0-2.507c-1.837,0-3.072.586-3.072,1.133s1.234,1.132,3.072,1.132,3.072-.586,3.072-1.132-1.234-1.133-3.072-1.133" transform="translate(3.343 14.344)"/>
        <path id="Trazado_1031261" data-name="Trazado 1031261" d="M47.64,63.18c0,1.67-3.023,3.025-6.756,3.025s-6.752-1.355-6.752-3.025,3.023-3.025,6.752-3.025,6.756,1.354,6.756,3.025" transform="translate(6.933 12.22)" fill="#f57a3e"/>
        <path id="Trazado_1031262" data-name="Trazado 1031262" d="M46.847,64.5c0,1.5-2.72,2.721-6.076,2.721S34.695,66,34.695,64.5s2.72-2.722,6.076-2.722,6.076,1.219,6.076,2.722" transform="translate(7.048 12.548)" fill="#f47a3e"/>
        <path id="Trazado_1031263" data-name="Trazado 1031263" d="M34.167,62.953l.738,1.8H46.852l.738-1.8Z" transform="translate(6.941 12.788)" fill="#f47a3e"/>
        <path id="Trazado_1031264" data-name="Trazado 1031264" d="M47.64,63.18c0,1.67-3.023,3.025-6.756,3.025s-6.752-1.355-6.752-3.025,3.023-3.025,6.752-3.025,6.756,1.354,6.756,3.025" transform="translate(6.933 12.22)" fill="#fff"/>
        <path id="Trazado_1031265" data-name="Trazado 1031265" d="M40.9,65.775a12.1,12.1,0,0,1-4.8-.892c-1.3-.584-2.019-1.366-2.019-2.2a.069.069,0,0,1,.138,0c0,1.63,3,2.956,6.685,2.956s6.685-1.326,6.685-2.956a.069.069,0,0,1,.138,0c0,.837-.717,1.619-2.019,2.2a12.1,12.1,0,0,1-4.8.892" transform="translate(6.922 12.719)"/>
        <path id="Trazado_1031266" data-name="Trazado 1031266" d="M40.713,65.506a10.549,10.549,0,0,1-4.031-.717c-1.1-.472-1.7-1.1-1.7-1.783s.6-1.313,1.7-1.783a10.525,10.525,0,0,1,4.031-.718,10.525,10.525,0,0,1,4.031.718c1.1.47,1.7,1.1,1.7,1.783s-.6,1.311-1.7,1.783a10.549,10.549,0,0,1-4.031.717m0-4.863c-3.084,0-5.591,1.06-5.591,2.363s2.507,2.362,5.591,2.362,5.591-1.06,5.591-2.362-2.507-2.363-5.591-2.363" transform="translate(7.106 12.291)"/>
        <path id="Trazado_1031267" data-name="Trazado 1031267" d="M35.843,65.742a.07.07,0,0,1-.065-.042l-.652-1.529a.07.07,0,0,1,.036-.091.069.069,0,0,1,.09.036l.653,1.53a.069.069,0,0,1-.036.09.051.051,0,0,1-.026.006" transform="translate(7.134 13.016)"/>
        <path id="Trazado_1031268" data-name="Trazado 1031268" d="M36.48,66.048A.068.068,0,0,1,36.416,66l-.532-1.451a.069.069,0,1,1,.13-.047l.532,1.451a.069.069,0,0,1-.041.089.083.083,0,0,1-.024,0" transform="translate(7.288 13.094)"/>
        <path id="Trazado_1031269" data-name="Trazado 1031269" d="M43.84,65.677l-.018,0a.07.07,0,0,1-.049-.084l.356-1.354a.07.07,0,0,1,.135.035l-.356,1.354a.07.07,0,0,1-.067.052" transform="translate(8.891 13.038)"/>
        <path id="Trazado_1031270" data-name="Trazado 1031270" d="M41.323,66.492a.07.07,0,0,1-.07-.07V65.1a.07.07,0,0,1,.14,0v1.327a.07.07,0,0,1-.07.07" transform="translate(8.38 13.209)"/>
        <path id="Trazado_1031271" data-name="Trazado 1031271" d="M41.083,64.507a.069.069,0,0,1-.041-.013l-.389-.272-.989-.041-.532.238a.066.066,0,0,1-.043,0l-1.08-.23a.069.069,0,0,1-.051-.043.067.067,0,0,1,.008-.065l.176-.247-.559-.272-.81.02a.071.071,0,0,1-.058-.026l-.349-.464a.07.07,0,0,1-.01-.065.068.068,0,0,1,.049-.045l.683-.15.079-.3-.562-.194a.066.066,0,0,1-.045-.055.069.069,0,0,1,.026-.067l.587-.425a.071.071,0,0,1,.049-.012l.783.087.729-.232-.043-.266a.061.061,0,0,1,.014-.053.061.061,0,0,1,.046-.028l1.18-.137a.072.072,0,0,1,.048.012l.39.272.988.041.533-.237a.071.071,0,0,1,.042,0l1.082.231a.069.069,0,0,1,.051.042.072.072,0,0,1-.008.066l-.177.247.559.271.81-.02a.066.066,0,0,1,.058.028l.35.463a.072.072,0,0,1,.008.066.067.067,0,0,1-.049.043l-.682.15-.079.3.561.194a.07.07,0,0,1,.046.055.068.068,0,0,1-.028.066l-.587.425a.072.072,0,0,1-.049.013l-.783-.087-.729.232.043.266a.065.065,0,0,1-.012.053.074.074,0,0,1-.048.026l-1.179.137h-.008m-1.432-.466h0l1.024.043a.066.066,0,0,1,.037.012l.385.268,1.082-.125-.042-.254a.07.07,0,0,1,.047-.077l.8-.254a.06.06,0,0,1,.029,0l.772.085.458-.331-.5-.172a.068.068,0,0,1-.043-.083l.108-.4a.066.066,0,0,1,.051-.049l.618-.136-.263-.349-.79.02a.065.065,0,0,1-.032-.007l-.65-.314a.072.072,0,0,1-.036-.046.07.07,0,0,1,.011-.058l.162-.227-.956-.2-.527.235a.048.048,0,0,1-.03.006l-1.024-.042a.081.081,0,0,1-.039-.012l-.384-.27-1.08.126.041.253a.07.07,0,0,1-.048.077l-.8.255a.074.074,0,0,1-.028,0l-.772-.084-.457.331.5.171a.067.067,0,0,1,.045.083l-.108.4a.064.064,0,0,1-.052.049l-.617.136.263.35.79-.02a.059.059,0,0,1,.032.007l.648.314a.068.068,0,0,1,.025.1l-.161.227.955.2.527-.236a.071.071,0,0,1,.028-.006m.863-.422c-1.066,0-1.9-.347-1.9-.788s.835-.788,1.9-.788,1.9.346,1.9.788-.835.788-1.9.788m0-1.438c-1.055,0-1.761.336-1.761.65s.706.65,1.761.65,1.76-.337,1.76-.65-.706-.65-1.76-.65" transform="translate(7.384 12.423)"/>
        <path id="Trazado_1031272" data-name="Trazado 1031272" d="M95.4,41.728c0,1.328-2.405,2.405-5.372,2.405s-5.371-1.077-5.371-2.405,2.405-2.406,5.371-2.406S95.4,40.4,95.4,41.728" transform="translate(17.196 7.988)" fill="#f57a3e"/>
        <path id="Trazado_1031273" data-name="Trazado 1031273" d="M94.768,42.775c0,1.195-2.163,2.164-4.832,2.164S85.1,43.97,85.1,42.775s2.163-2.164,4.833-2.164,4.832.97,4.832,2.164" transform="translate(17.287 8.25)" fill="#f47a3e"/>
        <path id="Trazado_1031274" data-name="Trazado 1031274" d="M84.683,41.548l.587,1.434h9.5l.587-1.434Z" transform="translate(17.202 8.44)" fill="#f47a3e"/>
        <path id="Trazado_1031275" data-name="Trazado 1031275" d="M95.4,41.728c0,1.328-2.405,2.405-5.372,2.405s-5.371-1.077-5.371-2.405,2.405-2.406,5.371-2.406S95.4,40.4,95.4,41.728" transform="translate(17.196 7.988)" fill="#fff"/>
        <path id="Trazado_1031276" data-name="Trazado 1031276" d="M90.035,43.793a9.6,9.6,0,0,1-3.821-.71c-1.035-.463-1.6-1.085-1.6-1.751a.055.055,0,1,1,.109,0c0,1.3,2.386,2.35,5.317,2.35s5.317-1.054,5.317-2.35a.055.055,0,1,1,.109,0c0,.665-.57,1.287-1.6,1.751a9.6,9.6,0,0,1-3.821.71" transform="translate(17.187 8.385)"/>
        <path id="Trazado_1031277" data-name="Trazado 1031277" d="M89.888,43.579a8.367,8.367,0,0,1-3.205-.571c-.872-.374-1.352-.878-1.352-1.417s.48-1.044,1.352-1.418a9.274,9.274,0,0,1,6.41,0c.872.374,1.352.878,1.352,1.418s-.48,1.043-1.352,1.417a8.367,8.367,0,0,1-3.205.571m0-3.868c-2.452,0-4.447.843-4.447,1.879s1.995,1.878,4.447,1.878,4.447-.842,4.447-1.878-1.995-1.879-4.447-1.879" transform="translate(17.334 8.044)"/>
        <path id="Trazado_1031278" data-name="Trazado 1031278" d="M86.016,43.766a.053.053,0,0,1-.051-.034l-.52-1.216a.055.055,0,0,1,.029-.072.056.056,0,0,1,.073.029l.519,1.216a.055.055,0,0,1-.029.072.047.047,0,0,1-.022,0" transform="translate(17.356 8.621)"/>
        <path id="Trazado_1031279" data-name="Trazado 1031279" d="M86.524,44.009a.056.056,0,0,1-.052-.036L86.05,42.82a.055.055,0,1,1,.1-.038l.422,1.154a.055.055,0,0,1-.032.071l-.019,0" transform="translate(17.479 8.683)"/>
        <path id="Trazado_1031280" data-name="Trazado 1031280" d="M92.376,43.714l-.014,0a.053.053,0,0,1-.039-.066l.283-1.077a.054.054,0,0,1,.067-.04.056.056,0,0,1,.04.067l-.284,1.077a.055.055,0,0,1-.053.041" transform="translate(18.754 8.639)"/>
        <path id="Trazado_1031281" data-name="Trazado 1031281" d="M90.374,44.363a.056.056,0,0,1-.055-.055V43.252a.055.055,0,1,1,.111,0v1.055a.056.056,0,0,1-.055.055" transform="translate(18.347 8.775)"/>
        <path id="Trazado_1031282" data-name="Trazado 1031282" d="M90.183,42.783a.06.06,0,0,1-.031-.01l-.309-.217-.786-.032-.424.189a.058.058,0,0,1-.035,0l-.86-.183a.058.058,0,0,1-.04-.035.057.057,0,0,1,.006-.052l.141-.2-.444-.215-.645.016a.053.053,0,0,1-.046-.022l-.278-.368a.056.056,0,0,1-.007-.053.058.058,0,0,1,.04-.035l.543-.119.064-.238-.448-.154a.057.057,0,0,1-.036-.045.053.053,0,0,1,.023-.052l.467-.338a.056.056,0,0,1,.038-.011l.623.07.58-.185-.035-.212a.051.051,0,0,1,.011-.041.052.052,0,0,1,.037-.022l.94-.109a.052.052,0,0,1,.037.01l.309.217.787.032.422-.189a.058.058,0,0,1,.035,0l.86.183a.056.056,0,0,1,.04.034.055.055,0,0,1-.006.053l-.141.2.444.215.645-.017a.057.057,0,0,1,.046.023l.278.368a.056.056,0,0,1,.007.053.054.054,0,0,1-.04.034l-.543.12-.064.238.448.154a.054.054,0,0,1,.036.043.056.056,0,0,1-.022.053l-.468.338a.048.048,0,0,1-.038.01l-.623-.069-.58.185.035.211a.056.056,0,0,1-.048.064l-.938.109h-.007m-1.137-.369h0l.815.034a.049.049,0,0,1,.029.01l.306.214.861-.1-.034-.2a.056.056,0,0,1,.037-.061l.638-.2a.048.048,0,0,1,.023,0l.614.067.363-.262-.395-.137a.055.055,0,0,1-.035-.066l.085-.32a.059.059,0,0,1,.042-.04l.491-.108-.209-.278-.629.017a.056.056,0,0,1-.025-.006l-.516-.25a.055.055,0,0,1-.029-.036.052.052,0,0,1,.008-.046l.129-.18-.76-.162-.419.188a.054.054,0,0,1-.024,0l-.816-.034a.059.059,0,0,1-.029-.01l-.306-.214-.861.1.034.2a.054.054,0,0,1-.037.061l-.638.2a.07.07,0,0,1-.023,0l-.614-.069-.363.263.395.136a.056.056,0,0,1,.035.067l-.085.32a.057.057,0,0,1-.041.04l-.492.107.209.278.629-.016a.052.052,0,0,1,.026,0l.515.25a.06.06,0,0,1,.03.036.057.057,0,0,1-.01.046l-.129.182.76.161.419-.186a.049.049,0,0,1,.023,0m.685-.337c-.847,0-1.511-.276-1.511-.627s.664-.627,1.511-.627,1.511.276,1.511.627-.664.627-1.511.627m0-1.143c-.837,0-1.4.267-1.4.516s.563.517,1.4.517,1.4-.267,1.4-.517-.563-.516-1.4-.516" transform="translate(17.555 8.149)"/>
        <path id="Trazado_1031283" data-name="Trazado 1031283" d="M73.019,38.012c0,.836-2.168,1.515-4.844,1.515s-4.844-.679-4.844-1.515S65.5,36.5,68.175,36.5s4.844.679,4.844,1.515" transform="translate(12.865 7.414)" fill="#f57a3e"/>
        <path id="Trazado_1031284" data-name="Trazado 1031284" d="M72.45,38.671c0,.753-1.951,1.363-4.358,1.363s-4.357-.61-4.357-1.363,1.95-1.363,4.357-1.363,4.358.61,4.358,1.363" transform="translate(12.947 7.579)" fill="#f47a3e"/>
        <path id="Trazado_1031285" data-name="Trazado 1031285" d="M63.357,37.9l.529.9h8.568l.529-.9Z" transform="translate(12.87 7.699)" fill="#f47a3e"/>
        <path id="Trazado_1031286" data-name="Trazado 1031286" d="M73.019,38.012c0,.836-2.168,1.515-4.844,1.515s-4.844-.679-4.844-1.515S65.5,36.5,68.175,36.5s4.844.679,4.844,1.515" transform="translate(12.865 7.414)" fill="#fff"/>
        <path id="Trazado_1031287" data-name="Trazado 1031287" d="M68.183,39.313a12.053,12.053,0,0,1-3.446-.446c-.934-.292-1.447-.685-1.447-1.1,0-.019.022-.035.049-.035s.051.016.051.035c0,.816,2.15,1.48,4.793,1.48s4.793-.664,4.793-1.48c0-.019.023-.035.051-.035s.049.016.049.035c0,.419-.514.811-1.447,1.1a12.052,12.052,0,0,1-3.446.446" transform="translate(12.856 7.664)"/>
        <path id="Trazado_1031288" data-name="Trazado 1031288" d="M68.051,39.178a10.472,10.472,0,0,1-2.89-.36c-.787-.236-1.219-.553-1.219-.893s.432-.658,1.219-.894a11.788,11.788,0,0,1,5.78,0c.787.236,1.219.553,1.219.894s-.432.657-1.219.893a10.472,10.472,0,0,1-2.89.36m0-2.436c-2.211,0-4.01.531-4.01,1.184s1.8,1.183,4.01,1.183,4.01-.531,4.01-1.183-1.8-1.184-4.01-1.184" transform="translate(12.989 7.449)"/>
        <path id="Trazado_1031289" data-name="Trazado 1031289" d="M64.558,39.3a.054.054,0,0,1-.046-.022l-.468-.765c-.011-.018,0-.039.026-.046a.059.059,0,0,1,.065.018l.468.766c.011.018,0,.037-.026.046l-.019,0" transform="translate(13.009 7.813)"/>
        <path id="Trazado_1031290" data-name="Trazado 1031290" d="M65.017,39.449a.052.052,0,0,1-.047-.023l-.381-.727c-.008-.018,0-.037.03-.045a.059.059,0,0,1,.064.02l.381.727c.01.018,0,.038-.03.045l-.017,0" transform="translate(13.12 7.852)"/>
        <path id="Trazado_1031291" data-name="Trazado 1031291" d="M70.293,39.263h-.012c-.028,0-.043-.024-.036-.042l.255-.679a.056.056,0,0,1,.061-.024c.026,0,.042.024.035.042l-.255.677a.051.051,0,0,1-.048.026" transform="translate(14.269 7.824)"/>
        <path id="Trazado_1031292" data-name="Trazado 1031292" d="M68.488,39.671c-.028,0-.049-.016-.049-.035v-.664c0-.019.022-.035.049-.035s.049.016.049.035v.664c0,.019-.022.035-.049.035" transform="translate(13.902 7.909)"/>
      </g>
    </g>
  </g>
</svg>
