<svg xmlns="http://www.w3.org/2000/svg" xmlns:xlink="http://www.w3.org/1999/xlink" width="150" height="150" viewBox="0 0 150 150">
  <defs>
    <clipPath id="clip-path">
      <rect id="Rectángulo_456277" data-name="Rectángulo 456277" width="150" height="150" transform="translate(-0.059 -0.059)" fill="#d35560"/>
    </clipPath>
    <clipPath id="clip-path-2">
      <rect id="Rectángulo_459904" data-name="Rectángulo 459904" width="82.868" height="80.098" fill="none"/>
    </clipPath>
  </defs>
  <g id="Grupo_1180099" data-name="Grupo 1180099" transform="translate(-413.192 -9435.133)">
    <g id="Grupo_1180081" data-name="Grupo 1180081" transform="translate(413.25 9435.191)">
      <g id="Grupo_1179924" data-name="Grupo 1179924" transform="translate(0 0)">
        <g id="Grupo_1179923" data-name="Grupo 1179923" transform="translate(0 0)" clip-path="url(#clip-path)">
          <path id="Trazado_1004716" data-name="Trazado 1004716" d="M74.59,149.181c-2.423,0-4.689-2.768-7.051-3-2.407-.235-5.167,2.037-7.5,1.574-2.367-.47-4.049-3.628-6.329-4.321-2.305-.7-5.459.985-7.662.069-2.222-.923-3.251-4.35-5.356-5.479s-5.541-.1-7.528-1.432-2.336-4.9-4.186-6.418-5.412-1.171-7.107-2.865-1.342-5.254-2.865-7.107-5.082-2.192-6.418-4.186-.3-5.41-1.432-7.527-4.556-3.135-5.48-5.356c-.916-2.2.77-5.357.07-7.662-.693-2.28-3.85-3.961-4.32-6.329C.962,86.809,3.234,84.048,3,81.642c-.231-2.363-3-4.629-3-7.052S2.768,69.9,3,67.539c.235-2.407-2.037-5.166-1.573-7.5.47-2.367,3.627-4.049,4.32-6.329.7-2.306-.985-5.459-.069-7.663.924-2.222,4.35-3.251,5.48-5.356s.1-5.54,1.432-7.528,4.9-2.336,6.418-4.186,1.171-5.412,2.866-7.107,5.254-1.342,7.107-2.865,2.192-5.082,4.186-6.418,5.41-.3,7.528-1.432,3.134-4.556,5.356-5.48c2.2-.916,5.357.77,7.663.069,2.28-.692,3.961-3.85,6.328-4.32C62.372.962,65.133,3.234,67.539,3c2.363-.231,4.629-3,7.052-3s4.689,2.768,7.051,3c2.407.235,5.167-2.037,7.5-1.574,2.367.47,4.049,3.628,6.329,4.321,2.305.7,5.459-.985,7.662-.069,2.222.923,3.251,4.35,5.356,5.48s5.541.1,7.528,1.432,2.337,4.9,4.186,6.418,5.412,1.171,7.107,2.866,1.342,5.254,2.865,7.107,5.082,2.192,6.418,4.186.3,5.41,1.432,7.528,4.556,3.135,5.479,5.356c.916,2.2-.77,5.357-.069,7.662.693,2.28,3.85,3.961,4.32,6.328.463,2.333-1.809,5.093-1.574,7.5.231,2.363,3,4.629,3,7.051s-2.768,4.689-3,7.052c-.235,2.406,2.037,5.166,1.574,7.5-.47,2.367-3.627,4.049-4.32,6.329-.7,2.305.985,5.459.069,7.662-.924,2.222-4.35,3.251-5.48,5.357s-.1,5.54-1.432,7.528-4.9,2.336-6.418,4.186-1.171,5.412-2.866,7.107-5.254,1.342-7.107,2.865-2.192,5.081-4.186,6.418-5.41.3-7.528,1.432-3.134,4.557-5.356,5.48c-2.2.916-5.357-.77-7.662-.069-2.28.692-3.961,3.85-6.328,4.32-2.333.463-5.093-1.809-7.5-1.574-2.363.231-4.629,3-7.052,3" transform="translate(0.35 0.35)" fill="#d35560"/>
          <path id="Trazado_1004717" data-name="Trazado 1004717" d="M14,81.535a67.535,67.535,0,1,1,67.535,67.535A67.535,67.535,0,0,1,14,81.535" transform="translate(-6.594 -6.594)" fill="#4d787e"/>
          <path id="Trazado_1004718" data-name="Trazado 1004718" d="M132.334,270.213c-.179-.759-.348-1.543-.509-2.312l-2.36-.3q1.057-.562,2.072-1.13-.225-1.156-.423-2.309c.54.53,1.093,1.077,1.663,1.6q.994-.618,1.945-1.239-.422,1.09-.87,2.178c.589.505,1.191,1.019,1.808,1.521l-2.372-.177q-.464,1.087-.955,2.171" transform="translate(-63.866 -130.676)" fill="#ffffc5"/>
          <path id="Trazado_1004719" data-name="Trazado 1004719" d="M113.789,266.762c-.064-.775-.113-1.577-.157-2.361l-2.288-.652q1.129-.4,2.219-.806-.049-1.177-.072-2.347c.455.6.919,1.229,1.4,1.829q1.075-.461,2.108-.932-.58,1.014-1.185,2.022c.507.586,1.024,1.192,1.561,1.772-.776-.161-1.546-.353-2.319-.528q-.621,1-1.269,2" transform="translate(-54.878 -128.909)" fill="#ffffc5"/>
          <path id="Trazado_1004720" data-name="Trazado 1004720" d="M96.012,260.643c.058-.789.127-1.579.2-2.363l-2.166-.983c.783-.146,1.556-.305,2.315-.467q.129-1.169.28-2.329c.358.667.728,1.343,1.113,2.021q1.132-.3,2.225-.608-.726.916-1.477,1.822c.413.657.836,1.325,1.277,1.987l-2.214-.87q-.766.9-1.556,1.79" transform="translate(-46.299 -125.885)" fill="#ffffc5"/>
          <path id="Trazado_1004721" data-name="Trazado 1004721" d="M79.414,251.99q.265-1.159.551-2.3c-.663-.434-1.344-.843-1.993-1.3.783-.008,1.584-.069,2.356-.112q.3-1.136.623-2.258.384,1.067.8,2.159c.766-.066,1.54-.171,2.29-.266q-.856.8-1.734,1.584.466,1.066.968,2.153l-2.062-1.187c-.594.517-1.2,1.036-1.8,1.531" transform="translate(-38.325 -121.677)" fill="#ffffc5"/>
          <path id="Trazado_1004722" data-name="Trazado 1004722" d="M64.353,241.022q.432-1.105.885-2.194c-.593-.526-1.215-1.021-1.777-1.582.769.115,1.567.177,2.343.242q.464-1.078.948-2.139.225,1.109.481,2.247c.755.064,1.543.065,2.3.082q-.965.664-1.952,1.311.3,1.12.643,2.265l-1.87-1.471c-.669.429-1.327.83-2,1.238" transform="translate(-31.127 -116.386)" fill="#ffffc5"/>
          <path id="Trazado_1004723" data-name="Trazado 1004723" d="M51.149,227.995q.589-1.028,1.2-2.037l-.779-.9c-.258-.3-.494-.62-.741-.929l1.128.317,1.149.273q.617-1,1.25-1.973.063,1.127.152,2.286l1.121.234,1.138.191q-1.055.516-2.127,1.012.14,1.148.309,2.327c-.545-.576-1.1-1.142-1.635-1.727q-1.07.473-2.159.926" transform="translate(-24.859 -110.134)" fill="#ffffc5"/>
          <path id="Trazado_1004724" data-name="Trazado 1004724" d="M39.841,213.191q.733-.928,1.481-1.835c-.212-.336-.434-.664-.637-1l-.594-1.031c.724.322,1.417.646,2.16.923.507-.6,1.006-1.179,1.532-1.767-.079.754-.131,1.508-.186,2.282.723.269,1.425.535,2.166.758-.746.236-1.5.467-2.255.686-.022.772-.029,1.551-.032,2.344-.451-.652-.939-1.279-1.359-1.952q-1.13.31-2.275.6" transform="translate(-19.411 -103.056)" fill="#ffffc5"/>
          <path id="Trazado_1004725" data-name="Trazado 1004725" d="M30.615,196.931q.862-.808,1.735-1.593c-.343-.716-.614-1.462-.909-2.2.671.425,1.309.848,1.992,1.237.582-.511,1.181-1.02,1.787-1.522-.212.742-.356,1.472-.529,2.229.683.37,1.327.742,2.024,1.074-.778.124-1.554.238-2.322.338-.159.771-.262,1.529-.386,2.314-.358-.707-.739-1.4-1.051-2.133q-1.165.138-2.342.253" transform="translate(-14.835 -95.309)" fill="#ffffc5"/>
          <path id="Trazado_1004726" data-name="Trazado 1004726" d="M24.019,179.289q.973-.669,1.952-1.313c-.235-.758-.377-1.54-.566-2.31.6.522,1.176,1.033,1.781,1.524.651-.417,1.333-.834,2-1.237-.326.7-.579,1.4-.86,2.124.617.469,1.213.929,1.836,1.366-.791.008-1.557,0-2.34-.016-.284.741-.492,1.474-.731,2.231-.259-.75-.515-1.5-.717-2.268q-1.174-.038-2.355-.1" transform="translate(-11.564 -86.782)" fill="#ffffc5"/>
          <path id="Trazado_1004727" data-name="Trazado 1004727" d="M20.215,160.664q1.062-.516,2.127-1.005c-.119-.785-.143-1.579-.214-2.369.513.605,1.005,1.2,1.532,1.774.706-.315,1.441-.624,2.164-.924-.429.647-.781,1.3-1.168,1.972.539.556,1.062,1.1,1.608,1.627-.781-.112-1.537-.237-2.309-.368-.392.69-.711,1.384-1.058,2.1l-.21-1.171c-.066-.391-.1-.786-.158-1.179q-1.155-.214-2.313-.453" transform="translate(-9.677 -77.667)" fill="#ffffc5"/>
          <path id="Trazado_1004728" data-name="Trazado 1004728" d="M19.269,141.764q1.128-.352,2.255-.679c0-.793.074-1.584.135-2.374.421.674.8,1.333,1.259,1.981.751-.207,1.5-.406,2.266-.595-.5.578-.959,1.172-1.441,1.779.453.63.873,1.246,1.353,1.848q-1.134-.34-2.237-.706c-.483.624-.9,1.263-1.353,1.915-.018-.792-.055-1.585-.018-2.378q-1.109-.382-2.218-.79" transform="translate(-9.207 -68.451)" fill="#ffffc5"/>
          <path id="Trazado_1004729" data-name="Trazado 1004729" d="M21.174,123q1.169-.181,2.333-.336c.074-.39.132-.783.218-1.169l.268-1.159c.312.729.595,1.437.951,2.146.778-.092,1.538-.178,2.325-.25-.574.5-1.122,1.015-1.688,1.543.353.69.672,1.36,1.067,2.028-.706-.335-1.426-.681-2.114-1.031-.553.548-1.077,1.115-1.619,1.694.111-.785.174-1.577.333-2.355q-1.039-.543-2.074-1.112" transform="translate(-10.152 -59.337)" fill="#ffffc5"/>
          <path id="Trazado_1004730" data-name="Trazado 1004730" d="M25.928,104.79q1.182,0,2.357.018c.239-.757.539-1.491.832-2.228.2.769.37,1.51.616,2.264.779.025,1.552.056,2.341.1-.65.4-1.263.834-1.9,1.271.247.736.46,1.445.75,2.165-.649-.438-1.3-.887-1.934-1.337-.633.458-1.233.941-1.857,1.432.226-.761.412-1.533.684-2.279q-.946-.692-1.884-1.411" transform="translate(-12.51 -50.53)" fill="#ffffc5"/>
          <path id="Trazado_1004731" data-name="Trazado 1004731" d="M33.429,87.557q1.169.173,2.325.37c.346-.714.77-1.386,1.158-2.077.083.789.155,1.557.267,2.329.761.139,1.54.3,2.306.457-.718.293-1.376.634-2.077.969.134.765.248,1.5.414,2.252-.582-.533-1.146-1.067-1.705-1.608-.709.35-1.361.744-2.054,1.134.327-.722.644-1.45,1.02-2.149q-.833-.827-1.654-1.678" transform="translate(-16.231 -42.232)" fill="#ffffc5"/>
          <path id="Trazado_1004732" data-name="Trazado 1004732" d="M43.489,71.68q1.128.345,2.241.71c.461-.645.972-1.253,1.456-1.881q-.054,1.188-.083,2.343,1.117.389,2.219.8c-.749.187-1.473.41-2.2.647q.023,1.16.07,2.287-.728-.91-1.438-1.839c-.753.241-1.471.524-2.2.813l.643-1,.688-.97q-.7-.943-1.388-1.908" transform="translate(-21.221 -34.623)" fill="#ffffc5"/>
          <path id="Trazado_1004733" data-name="Trazado 1004733" d="M55.356,57.5q1.064.506,2.109,1.031l1.72-1.643q-.226,1.17-.421,2.312,1.046.548,2.073,1.115c-.759.084-1.53.176-2.278.31Q58.413,61.78,58.3,62.9q-.585-1.008-1.152-2.034l-1.161.215c-.384.079-.76.17-1.144.259.508-.61,1.064-1.175,1.611-1.75q-.556-1.038-1.094-2.095" transform="translate(-26.851 -27.867)" fill="#ffffc5"/>
          <path id="Trazado_1004734" data-name="Trazado 1004734" d="M69.217,45.319c.65.436,1.293.879,1.939,1.34l1.938-1.379q-.394,1.129-.753,2.233.952.7,1.883,1.406c-.754-.018-1.544-.058-2.3-.035q-.311,1.124-.59,2.223-.431-1.084-.841-2.184c-.774.032-1.582.045-2.354.123.592-.529,1.238-.991,1.854-1.49q-.4-1.111-.775-2.237" transform="translate(-33.447 -22.109)" fill="#ffffc5"/>
          <path id="Trazado_1004735" data-name="Trazado 1004735" d="M84.831,34.886c.578.528,1.158,1.078,1.724,1.623l2.117-1.086q-.555,1.061-1.073,2.1.838.828,1.652,1.667c-.745-.133-1.508-.269-2.274-.382q-.473,1.07-.908,2.119-.266-1.138-.51-2.288c-.77-.084-1.562-.176-2.349-.232.677-.412,1.372-.8,2.057-1.2q-.23-1.158-.436-2.33" transform="translate(-40.923 -16.954)" fill="#ffffc5"/>
          <path id="Trazado_1004736" data-name="Trazado 1004736" d="M101.868,26.946q.744.928,1.463,1.866c.752-.251,1.5-.517,2.255-.756-.476.632-.93,1.284-1.376,1.919q.7.943,1.382,1.893-1.075-.365-2.191-.718c-.421.651-.822,1.313-1.214,1.961q-.094-1.166-.163-2.342-1.124-.3-2.289-.582l2.213-.874c-.035-.785-.066-1.583-.081-2.367" transform="translate(-49.12 -13.015)" fill="#ffffc5"/>
          <path id="Trazado_1004737" data-name="Trazado 1004737" d="M119.95,21.733q.6,1.029,1.166,2.064c.781-.136,1.56-.289,2.344-.41-.566.55-1.113,1.13-1.649,1.69q.554,1.037,1.082,2.079-1.008-.522-2.058-1.037c-.516.571-1.01,1.175-1.494,1.755q.082-1.167.19-2.341-1.066-.463-2.174-.916l2.318-.536c.083-.782.173-1.578.276-2.349" transform="translate(-57.86 -10.43)" fill="#ffffc5"/>
          <path id="Trazado_1004738" data-name="Trazado 1004738" d="M138.658,19.35q.436,1.108.845,2.216l2.378-.059q-.962.715-1.882,1.43.394,1.11.761,2.219-.92-.668-1.882-1.336c-.595.5-1.175,1.012-1.741,1.515q.256-1.142.539-2.285-.986-.619-2.013-1.234l2.372-.18c.2-.761.407-1.532.623-2.286" transform="translate(-66.94 -9.248)" fill="#ffffc5"/>
          <path id="Trazado_1004739" data-name="Trazado 1004739" d="M157.568,19.831c.179.759.348,1.543.509,2.312l2.36.3q-1.057.562-2.072,1.13.224,1.156.423,2.309c-.54-.53-1.093-1.077-1.662-1.6q-.994.618-1.945,1.239.422-1.09.87-2.178c-.589-.505-1.191-1.02-1.808-1.521l2.372.177q.464-1.087.955-2.171" transform="translate(-76.155 -9.486)" fill="#ffffc5"/>
          <path id="Trazado_1004740" data-name="Trazado 1004740" d="M176.272,23.17c.064.775.113,1.577.157,2.361l2.288.652q-1.129.4-2.219.806.049,1.177.072,2.347c-.455-.6-.918-1.229-1.4-1.829q-1.075.461-2.108.932.58-1.014,1.185-2.022c-.506-.586-1.024-1.192-1.561-1.771.776.161,1.546.352,2.319.527q.622-1,1.269-2" transform="translate(-85.303 -11.142)" fill="#ffffc5"/>
          <path id="Trazado_1004741" data-name="Trazado 1004741" d="M194.147,29.313c-.058.789-.126,1.578-.2,2.363l2.166.983c-.783.147-1.556.306-2.315.467q-.128,1.169-.28,2.329c-.358-.667-.728-1.343-1.113-2.021q-1.132.3-2.225.608.726-.916,1.476-1.822c-.412-.657-.836-1.325-1.277-1.987l2.214.87q.766-.9,1.556-1.79" transform="translate(-93.98 -14.189)" fill="#ffffc5"/>
          <path id="Trazado_1004742" data-name="Trazado 1004742" d="M210.61,38.133q-.265,1.159-.551,2.3c.663.434,1.344.843,1.993,1.3-.783.008-1.584.069-2.356.112q-.3,1.136-.623,2.258-.384-1.067-.8-2.159c-.766.066-1.54.171-2.29.266q.856-.8,1.734-1.584-.466-1.066-.968-2.153l2.062,1.187c.594-.517,1.2-1.036,1.8-1.531" transform="translate(-101.818 -18.564)" fill="#ffffc5"/>
          <path id="Trazado_1004743" data-name="Trazado 1004743" d="M225.67,49.168q-.432,1.105-.884,2.194c.593.526,1.215,1.021,1.777,1.582-.769-.115-1.567-.177-2.343-.242q-.464,1.078-.948,2.139-.225-1.109-.481-2.246c-.755-.064-1.543-.065-2.3-.082q.966-.664,1.952-1.311-.3-1.12-.643-2.264l1.87,1.47c.669-.429,1.326-.83,2-1.238" transform="translate(-109.015 -23.922)" fill="#ffffc5"/>
          <path id="Trazado_1004744" data-name="Trazado 1004744" d="M239.007,62.051q-.589,1.028-1.2,2.037l.779.9c.258.3.493.62.742.929L238.2,65.6l-1.149-.273q-.617,1-1.25,1.973-.063-1.127-.152-2.286l-1.121-.234-1.137-.191q1.055-.516,2.127-1.012-.14-1.148-.309-2.327c.545.576,1.1,1.142,1.635,1.727q1.071-.473,2.159-.926" transform="translate(-115.416 -30.03)" fill="#ffffc5"/>
          <path id="Trazado_1004745" data-name="Trazado 1004745" d="M250.33,76.837q-.733.928-1.481,1.835c.211.335.434.664.636,1l.594,1.031c-.724-.322-1.417-.646-2.16-.923-.507.6-1.006,1.179-1.532,1.767.079-.754.131-1.508.186-2.282-.723-.269-1.425-.535-2.166-.757.746-.236,1.5-.467,2.255-.686.022-.772.03-1.55.032-2.343.451.652.939,1.279,1.359,1.952q1.13-.31,2.275-.6" transform="translate(-120.879 -37.09)" fill="#ffffc5"/>
          <path id="Trazado_1004746" data-name="Trazado 1004746" d="M259.38,93.209q-.862.808-1.735,1.593c.343.716.614,1.462.909,2.2-.671-.425-1.309-.848-1.992-1.237-.582.511-1.181,1.02-1.787,1.522.212-.742.356-1.472.529-2.229-.683-.37-1.327-.742-2.024-1.074.778-.124,1.554-.238,2.322-.338.159-.771.262-1.529.385-2.314.358.708.739,1.4,1.051,2.134q1.165-.138,2.342-.253" transform="translate(-125.279 -44.949)" fill="#ffffc5"/>
          <path id="Trazado_1004747" data-name="Trazado 1004747" d="M265.935,110.814q-.973.67-1.952,1.313c.235.758.377,1.54.566,2.31-.6-.521-1.176-1.033-1.781-1.524-.651.417-1.333.834-2,1.237.327-.7.579-1.4.86-2.124-.617-.469-1.213-.929-1.836-1.366.791-.007,1.557,0,2.34.016.284-.741.492-1.474.731-2.231.259.75.515,1.5.717,2.268q1.174.038,2.355.1" transform="translate(-128.509 -53.44)" fill="#ffffc5"/>
          <path id="Trazado_1004748" data-name="Trazado 1004748" d="M269.832,129.258q-1.062.516-2.127,1.005c.119.785.143,1.579.214,2.369-.513-.605-1.005-1.2-1.532-1.774-.706.315-1.441.624-2.164.924.429-.647.781-1.3,1.168-1.972-.539-.556-1.062-1.1-1.608-1.627.781.112,1.537.237,2.309.367.392-.69.711-1.383,1.058-2.1l.21,1.171c.066.391.1.786.158,1.179q1.155.214,2.313.453" transform="translate(-130.489 -62.373)" fill="#ffffc5"/>
          <path id="Trazado_1004749" data-name="Trazado 1004749" d="M270.909,148.113q-1.128.352-2.255.679c0,.793-.074,1.584-.135,2.374-.421-.674-.8-1.333-1.259-1.981-.751.207-1.5.406-2.266.595.5-.578.959-1.172,1.441-1.779-.453-.63-.873-1.246-1.353-1.848q1.134.34,2.237.706c.483-.624.9-1.263,1.353-1.915.018.793.055,1.585.018,2.378q1.109.383,2.218.79" transform="translate(-131.09 -71.544)" fill="#ffffc5"/>
          <path id="Trazado_1004750" data-name="Trazado 1004750" d="M268.826,166.968q-1.17.181-2.334.336c-.074.39-.132.783-.218,1.169l-.268,1.159c-.312-.729-.595-1.437-.951-2.146-.778.092-1.538.178-2.326.25.574-.5,1.122-1.015,1.689-1.543-.353-.69-.672-1.36-1.067-2.028.706.335,1.426.681,2.114,1.031.553-.548,1.077-1.115,1.619-1.694-.111.785-.174,1.577-.333,2.355q1.039.542,2.074,1.111" transform="translate(-129.966 -80.748)" fill="#ffffc5"/>
          <path id="Trazado_1004751" data-name="Trazado 1004751" d="M264.024,185.4q-1.182,0-2.357-.018c-.24.757-.539,1.491-.832,2.228-.2-.769-.37-1.51-.616-2.264-.779-.025-1.552-.056-2.341-.1.65-.4,1.263-.834,1.9-1.271-.247-.735-.46-1.445-.75-2.165.649.437,1.3.886,1.934,1.337.633-.458,1.233-.941,1.857-1.431-.226.76-.412,1.532-.684,2.278q.946.692,1.884,1.411" transform="translate(-127.56 -89.783)" fill="#ffffc5"/>
          <path id="Trazado_1004752" data-name="Trazado 1004752" d="M256.61,202.53q-1.169-.173-2.325-.37c-.346.714-.77,1.386-1.158,2.077-.083-.789-.155-1.557-.267-2.329-.761-.139-1.54-.3-2.306-.457.718-.293,1.376-.635,2.077-.969-.134-.765-.248-1.5-.414-2.252.583.533,1.146,1.067,1.705,1.608.71-.35,1.361-.744,2.054-1.135-.327.722-.644,1.45-1.02,2.149q.832.827,1.654,1.678" transform="translate(-123.928 -97.974)" fill="#ffffc5"/>
          <path id="Trazado_1004753" data-name="Trazado 1004753" d="M246.77,218.341q-1.128-.344-2.241-.71c-.461.645-.972,1.253-1.456,1.881q.054-1.188.083-2.343-1.117-.389-2.219-.8c.749-.187,1.473-.41,2.2-.647q-.023-1.16-.07-2.287.728.91,1.438,1.839c.753-.241,1.471-.524,2.2-.813l-.643,1-.688.97q.7.943,1.388,1.908" transform="translate(-119.158 -105.517)" fill="#ffffc5"/>
          <path id="Trazado_1004754" data-name="Trazado 1004754" d="M234.741,232.58q-1.064-.506-2.109-1.031l-1.72,1.643q.226-1.17.421-2.312-1.046-.548-2.073-1.115c.759-.084,1.53-.176,2.278-.31q.146-1.154.263-2.279.585,1.007,1.152,2.034l1.161-.215c.384-.079.76-.17,1.144-.259-.508.61-1.064,1.175-1.611,1.75q.556,1.038,1.094,2.095" transform="translate(-113.365 -112.331)" fill="#ffffc5"/>
          <path id="Trazado_1004755" data-name="Trazado 1004755" d="M220.791,244.946c-.65-.436-1.293-.879-1.939-1.34l-1.938,1.379q.393-1.129.753-2.233-.952-.7-1.883-1.406c.754.018,1.544.058,2.3.035q.311-1.125.59-2.223.431,1.084.842,2.184c.774-.032,1.581-.045,2.353-.124-.591.529-1.238.991-1.854,1.49q.4,1.111.775,2.237" transform="translate(-106.68 -118.275)" fill="#ffffc5"/>
          <path id="Trazado_1004756" data-name="Trazado 1004756" d="M205.223,255.164c-.578-.528-1.158-1.078-1.724-1.622l-2.117,1.086q.555-1.061,1.072-2.1-.838-.829-1.652-1.668c.745.133,1.508.269,2.274.382q.472-1.069.908-2.119.266,1.139.51,2.289c.77.083,1.562.175,2.349.231-.677.413-1.371.8-2.057,1.2q.23,1.157.436,2.329" transform="translate(-99.25 -123.215)" fill="#ffffc5"/>
          <path id="Trazado_1004757" data-name="Trazado 1004757" d="M188.367,262.987q-.744-.928-1.463-1.866c-.752.251-1.5.517-2.255.756.476-.632.931-1.284,1.376-1.919q-.7-.943-1.382-1.894,1.075.365,2.191.718c.421-.651.822-1.313,1.214-1.961q.094,1.166.163,2.342,1.124.3,2.289.582l-2.213.874c.035.785.066,1.583.081,2.367" transform="translate(-91.235 -127.036)" fill="#ffffc5"/>
          <path id="Trazado_1004758" data-name="Trazado 1004758" d="M170.042,268.223q-.6-1.029-1.166-2.064c-.781.136-1.56.289-2.344.41.566-.55,1.113-1.13,1.649-1.69q-.554-1.037-1.082-2.079,1.008.522,2.058,1.037c.516-.571,1.01-1.175,1.495-1.755q-.082,1.167-.191,2.341,1.066.463,2.174.916l-2.318.536c-.083.782-.172,1.578-.276,2.349" transform="translate(-82.252 -129.645)" fill="#ffffc5"/>
          <path id="Trazado_1004759" data-name="Trazado 1004759" d="M151.223,270.76q-.435-1.108-.845-2.216L148,268.6q.962-.715,1.882-1.431-.394-1.109-.761-2.219.92.668,1.882,1.336c.595-.5,1.175-1.012,1.741-1.515q-.256,1.142-.539,2.285.986.618,2.013,1.233l-2.372.181c-.2.76-.407,1.532-.623,2.285" transform="translate(-73.059 -130.981)" fill="#ffffc5"/>
          <path id="Trazado_1004760" data-name="Trazado 1004760" d="M92.062,148.9A56.837,56.837,0,1,1,148.9,92.062,56.9,56.9,0,0,1,92.062,148.9" transform="translate(-17.122 -17.122)" fill="#d35560"/>
        </g>
      </g>
      <g id="Grupo_1180053" data-name="Grupo 1180053" transform="translate(39.422 38.995)">
        <rect id="Rectángulo_401104" data-name="Rectángulo 401104" width="71.038" height="71.894" transform="translate(0)" fill="#d35560"/>
      </g>
    </g>
    <g id="Grupo_1187644" data-name="Grupo 1187644" transform="translate(446.757 9470.085)">
      <g id="Grupo_1187643" data-name="Grupo 1187643" clip-path="url(#clip-path-2)">
        <path id="Trazado_1031876" data-name="Trazado 1031876" d="M37.3,1.427l.473.081q.507,1.849-1.05,1.453c-.022.28-.359.15-.585.029l-.861.617C21.03,6.295,10.239,18.392,7.912,32.525l-.6.868q.288.3.06.466A1.484,1.484,0,0,0,7.51,35.44l-.205.262a87.593,87.593,0,0,1,10.447.027,2.312,2.312,0,0,1,.011-2.22c.393-.6.7-1.024,1.351-.547a72.912,72.912,0,0,1,9.666,0,.794.794,0,0,0-.241-.605l.033-17.586c.179-.793.806-1.683,1.588-1.153,7.246-.208,15.189-.213,22.518,0,.767-.513,1.393.278,1.612,1.136l.036,17.67a.524.524,0,0,0-.241.523,66.415,66.415,0,0,1,9.63.069c.612-.553.908-.315,1.316.372a2.5,2.5,0,0,1,.089,2.344,37.157,37.157,0,0,1,6.691-.043,26.826,26.826,0,0,1,3.932-.106c-.6-.23-.581-.421-.132-.737l-.084-1.071q-.2.05.014-.387l-.6-.886A35.659,35.659,0,0,0,50.568,4.221l-.461.29A7.734,7.734,0,0,0,47.03,3.5l-.339-.453a.982.982,0,0,1-1.1-.1c-.708.12-.844-.327-.2-.636-.569-.306-.417-.684.164-.889A4.857,4.857,0,0,1,45.828.037C64.017,2.4,77.3,17.783,78.6,35.773l2.837.017a1.436,1.436,0,0,1,1.43,1.515l-.016,9.659a1.35,1.35,0,0,1-1.379,1.388l-2.526.015a6,6,0,0,0-5.415,3.063,5.489,5.489,0,0,0,.751,6.41l2.293,2.331a1.421,1.421,0,0,1,.028,1.977l-11.859,11.8a1.412,1.412,0,0,1-1.838-.093l-2.568-2.516a5.709,5.709,0,0,0-9.184,3.741l-.04,3.44a1.454,1.454,0,0,1-1.419,1.606l-16.521,0a1.381,1.381,0,0,1-1.4-1.385l-.013-3a5.673,5.673,0,0,0-3.172-5.031,5.424,5.424,0,0,0-6.188.725l-2.469,2.389a1.35,1.35,0,0,1-1.814.137L6.4,62.243a1.446,1.446,0,0,1-.125-2.1L8.9,57.479c1.446-1.471,1.471-3.679.686-5.615a5.451,5.451,0,0,0-4.291-3.5l-3.666-.059a1.48,1.48,0,0,1-1.6-1.334L0,37.312c0-1.966,2.02-1.242,4.266-1.517C5.567,17.772,18.87,2.4,37.034.042A4.433,4.433,0,0,1,37.3,1.427" transform="translate(0 -0.028)" fill="#040504"/>
        <path id="Trazado_1031877" data-name="Trazado 1031877" d="M67.159,4.741c.129-.56,1.829-.3,2.356-.142l.248.489c-.083.2.144.472.2.636a1,1,0,0,0,1.1.1A8.114,8.114,0,0,1,74.939,7a1.9,1.9,0,0,1,1,.188A35.585,35.585,0,0,1,93.777,25.73c.856,2.023,3.131,8.809,2.51,10.593a2.891,2.891,0,0,1-.263.532l0,1.276q-3.18-.08-6.291.116.076.179-.249.265c-.361,0,.133-2.7-1.4-2.716q-.054-.2.28-.311a79.714,79.714,0,0,0-9.674,0q.1.144-.236.24c-.112.047-.266-.021-.219-.247l-.033-17.9c0-.647-.769-.9-1.155-1.177q-.009-.137.27-.246c-7.547-.2-15.48-.2-23.032,0l.243.241c-.347.25-1.129.542-1.13,1.18L53.37,35.481c.044.226-.105.3-.218.258q-.316-.087-.237-.252a80.144,80.144,0,0,0-9.675,0q.31.115.245.255c-1.852.665-.823,2.768-1.362,2.767q-.321-.077-.255-.258-5.191-.136-10.211-.2l.081-.258q.041-.33.243-.225a1.426,1.426,0,0,0,0-1.162q-.2.142-.3-.229C33.806,21.017,45.286,8.2,60.51,5.768c.491.139,1.236.324.585-.029a.96.96,0,0,1,.727-.242L61.672,4.2a5.385,5.385,0,0,0,2.716-.56q.693.053.5,1.454a3.467,3.467,0,0,0,2.267-.358" transform="translate(-24.37 -2.806)" fill="#dadada"/>
        <path id="Trazado_1031878" data-name="Trazado 1031878" d="M176.667,1.25c.657.033.614.549-.02.685l-.068.814-2.648.006L173.876.839l.086-.833L176.634,0Z" transform="translate(-133.859)" fill="#060707"/>
        <path id="Trazado_1031879" data-name="Trazado 1031879" d="M188.685,5.44a3,3,0,0,1-.164.889l-2.6-.346.02-.685a11.039,11.039,0,0,1,2.749.142" transform="translate(-143.128 -4.048)" fill="#bfbfbe"/>
        <path id="Trazado_1031880" data-name="Trazado 1031880" d="M45.212,190.7c.324-.681,2.594-.193,2.7.543q.62.094.356,1.035a16.4,16.4,0,0,0,4.816-.089c-.087-.413-.1-.681.369-.851.055-.749,2.351-1.128,2.732-.479l.352,1.383a24.428,24.428,0,0,0,12.619-7.607l3.613-.054a1.353,1.353,0,0,0,1.378-1.385l0-15.162,15.194,0L89.271,175a8.42,8.42,0,0,0-9.061,4.837,8.582,8.582,0,0,0,2.812,10.641l-9.9,9.886a8.6,8.6,0,0,0-15.485,6.347l-13.945-.052a8.579,8.579,0,0,0-15.451-6.38L18.416,190.4a8.554,8.554,0,0,0-6.41-15.4l.008-6.966H27.2l0,15.162a1.376,1.376,0,0,0,1.381,1.391l3.61.048a24.376,24.376,0,0,0,12.629,7.6Z" transform="translate(-9.243 -129.364)" fill="#3d8fcf"/>
        <path id="Trazado_1031881" data-name="Trazado 1031881" d="M199.828,155.078q.233.017.226.187,1.288.119,2.524.242l.307.018q.276,5.271.152,10.721a3.159,3.159,0,0,1-3.21,3.123l-13.532-.151-.272-.463-.012-13.7,5.524,0,.019,7.116a1.184,1.184,0,0,0,1.125,1.162l6,0a1.2,1.2,0,0,0,1.122-1.16Z" transform="translate(-143.201 -119.365)" fill="#92613f"/>
        <path id="Trazado_1031882" data-name="Trazado 1031882" d="M103.813,155.014q.233.017.226.187,1.293.113,2.516.256c.19-.029.458.02.461.154.058,3.7.031,7.437-.063,11.123-.394,1.7-1.575,2.377-3.21,2.6q-6.71.011-13.43-.023l-.194-.31q.091-6.856-.127-13.643c0-.206.016-.324.23-.392l5.3.021-.005,6.9a1.256,1.256,0,0,0,1.149,1.373h6a1.2,1.2,0,0,0,1.124-1.161Z" transform="translate(-69.28 -119.3)" fill="#a86f43"/>
        <path id="Trazado_1031883" data-name="Trazado 1031883" d="M151.814,71.014q.232.017.226.187,1.295.112,2.518.257c.19-.029.458.02.461.154.058,3.692.046,7.435-.07,11.116-.407,1.671-1.606,2.34-3.206,2.556q-6.71.019-13.43-.006l-.194-.31q.092-6.84-.126-13.609c0-.206.015-.324.231-.392l5.3.022.023,7.108a1.239,1.239,0,0,0,1.346,1.185l5.78-.02a1.2,1.2,0,0,0,1.122-1.16Z" transform="translate(-106.234 -54.632)" fill="#b27749"/>
        <path id="Trazado_1031884" data-name="Trazado 1031884" d="M136.753,246.3l-2.732.479q-.609-.071-.591-.952a37.988,37.988,0,0,1-4.35.143c-.037.422-.1.687-.6.713l-2.7-.543a2.277,2.277,0,0,0,.139-1.2,21.166,21.166,0,0,1-9.259-4.891l29.164,0a21.344,21.344,0,0,1-9.355,4.931Z" transform="translate(-89.812 -184.804)" fill="#646464"/>
        <path id="Trazado_1031885" data-name="Trazado 1031885" d="M244.693,46.853q-.347,1.156-.014.387a3.214,3.214,0,0,1,.216,1.808,28,28,0,0,1-3.943-.118l-.277-.126a1.538,1.538,0,0,0,.132-1.264,36.265,36.265,0,0,0-21.086-29.857,1.186,1.186,0,0,1,.986-.091,35.849,35.849,0,0,1,23.987,29.262" transform="translate(-169.152 -13.49)" fill="#c3c2c2"/>
        <path id="Trazado_1031886" data-name="Trazado 1031886" d="M157.014,87.708c-6.2-.2-12.754-.208-18.991.014l-.03-16.2a.408.408,0,0,1,.24.325l-.013,13.149,13.358,0a2.876,2.876,0,0,0,2.995-3.032l-.015-10.337q-1.218-.173-2.518-.257l-.226-.187,5.515.048.008,16.253c0,.251-.139.325-.324.23" transform="translate(-106.234 -54.796)" fill="#a87048"/>
        <path id="Trazado_1031887" data-name="Trazado 1031887" d="M109.014,171.707c-6.2-.2-12.754-.209-18.991.016l-.03-16.2a.407.407,0,0,1,.239.325l-.01,13.18,13.355.013a2.864,2.864,0,0,0,2.989-3.084l-.01-10.335q-1.218-.171-2.516-.256l-.226-.187,5.515.041.008,16.26c0,.25-.139.324-.324.23" transform="translate(-69.281 -119.462)" fill="#9e6740"/>
        <path id="Trazado_1031888" data-name="Trazado 1031888" d="M205.067,171.707c-6.182-.2-12.725-.209-18.939.015l-.067-2.87,13.8.154a2.743,2.743,0,0,0,2.761-2.82l0-10.581q-1.232-.149-2.524-.242l-.226-.187,5.516.048.007,16.253c0,.254-.137.329-.323.23" transform="translate(-143.239 -119.462)" fill="#81543a"/>
        <path id="Trazado_1031889" data-name="Trazado 1031889" d="M176.47,76.64a4.233,4.233,0,0,0-2.412.018L174,71.09h2.771v5.287c0,.226-.122.284-.3.263" transform="translate(-133.953 -54.729)" fill="#e2e4e4"/>
        <path id="Trazado_1031890" data-name="Trazado 1031890" d="M224.47,160.64a4.233,4.233,0,0,0-2.412.018L222,155.09h2.771v5.287c0,.226-.122.284-.3.263" transform="translate(-170.905 -119.396)" fill="#e2e4e4"/>
        <path id="Trazado_1031891" data-name="Trazado 1031891" d="M128.47,160.64a4.233,4.233,0,0,0-2.412.018L126,155.09h2.771v5.287c0,.226-.122.284-.3.263" transform="translate(-97 -119.396)" fill="#e2e4e4"/>
        <path id="Trazado_1031892" data-name="Trazado 1031892" d="M153,57.488a.211.211,0,0,1-.27.246l-22.518,0a.2.2,0,0,1-.244-.242c7.554-.2,15.472-.2,23.032,0" transform="translate(-100.056 -44.141)" fill="#ecebeb"/>
        <path id="Trazado_1031893" data-name="Trazado 1031893" d="M157.114,142.22l-18.991.014c.179-.078.263-.249.46-.249h18.369c.2,0,.281.174.162.235" transform="translate(-106.334 -109.307)" fill="#b5784c"/>
        <path id="Trazado_1031894" data-name="Trazado 1031894" d="M205.292,226.22l-18.939.015c.126-.078.209-.25.407-.25h18.369c.2,0,.282.176.163.235" transform="translate(-143.464 -173.975)" fill="#8b593e"/>
        <path id="Trazado_1031895" data-name="Trazado 1031895" d="M109.114,226.22l-18.991.016c.178-.077.261-.251.459-.251h18.369c.2,0,.281.174.162.234" transform="translate(-69.381 -173.976)" fill="#a86d44"/>
        <path id="Trazado_1031896" data-name="Trazado 1031896" d="M31.1,148.145a.217.217,0,0,0,.236.234l9.649,0a.233.233,0,0,1,.245.231q-4.98.129-10.192.231a1.881,1.881,0,0,1,.069-1.843c.219.225.146.833-.008,1.151" transform="translate(-23.738 -113.163)" fill="#d6d6d5"/>
        <path id="Trazado_1031897" data-name="Trazado 1031897" d="M41.933,154c.125,0,.24.153.255.258l-10.447-.027a.381.381,0,0,1,.312-.232Z" transform="translate(-24.436 -118.553)" fill="#ebebeb"/>
        <path id="Trazado_1031898" data-name="Trazado 1031898" d="M244.913,141.505c.024.155-.087.286-.28.311l-9.63-.069a.272.272,0,0,1,.236-.24,79.9,79.9,0,0,1,9.674,0" transform="translate(-180.917 -108.826)" fill="#ebebeb"/>
        <path id="Trazado_1031899" data-name="Trazado 1031899" d="M91.659,141.508a.275.275,0,0,1,.237.252H82.229a.217.217,0,0,1-.245-.254,79.955,79.955,0,0,1,9.675,0" transform="translate(-63.115 -108.826)" fill="#ebebeb"/>
        <path id="Trazado_1031900" data-name="Trazado 1031900" d="M289.625,152.979c.192.04.189.116.011.224l-6.691.044a.323.323,0,0,1,.249-.265q3.02-.2,6.1-.116c.158-.289.268-.237.336.113" transform="translate(-217.826 -117.54)" fill="#ebebeb"/>
        <path id="Trazado_1031901" data-name="Trazado 1031901" d="M315.885,154.1l-3.932.106a.658.658,0,0,1-.011-.224Z" transform="translate(-240.143 -118.544)" fill="#d1d0d0"/>
        <path id="Trazado_1031902" data-name="Trazado 1031902" d="M45.1,231.743l-.064-2.652a.2.2,0,0,1,.16-.121l.064,2.652a.2.2,0,0,1-.16.121" transform="translate(-34.673 -176.273)" fill="#080808"/>
        <path id="Trazado_1031903" data-name="Trazado 1031903" d="M176.671,94.107l-2.412.018c.507-.459,2.147-.459,2.412-.018" transform="translate(-134.153 -72.196)" fill="#f2f5f5"/>
        <path id="Trazado_1031904" data-name="Trazado 1031904" d="M128.671,178.107l-2.412.018c.507-.459,2.147-.459,2.412-.018" transform="translate(-97.201 -136.863)" fill="#f2f5f5"/>
        <path id="Trazado_1031905" data-name="Trazado 1031905" d="M110.338,302.136l-2.209.068a.216.216,0,0,1-.119-.147l1.963-.082c.186-.008.28.016.366.161" transform="translate(-83.151 -232.475)" fill="#080909"/>
        <path id="Trazado_1031906" data-name="Trazado 1031906" d="M224.671,178.107l-2.412.018c.507-.459,2.147-.459,2.412-.018" transform="translate(-171.106 -136.863)" fill="#f2f5f5"/>
        <path id="Trazado_1031907" data-name="Trazado 1031907" d="M245.106,302.133l-1.978.07a.232.232,0,0,1-.12-.142l1.733-.085c.186-.009.278.016.365.157" transform="translate(-187.08 -232.475)" fill="#080909"/>
        <path id="Trazado_1031908" data-name="Trazado 1031908" d="M327.175,145.348a3.289,3.289,0,0,1-.133,1.262,1.573,1.573,0,0,1,.147-1.649Z" transform="translate(-251.648 -111.598)" fill="#c4c3c3"/>
        <path id="Trazado_1031909" data-name="Trazado 1031909" d="M32.076,145.2a1.39,1.39,0,0,1,0,1.163l-.243.225.008-1.151-.06-.466Z" transform="translate(-24.466 -111.607)" fill="#dbdbdb"/>
        <path id="Trazado_1031910" data-name="Trazado 1031910" d="M199.193,12.776c-.069.238-.343.221-.543.236-.322.024-.463-.048-.558-.336a5.619,5.619,0,0,0,1.1.1" transform="translate(-152.501 -9.758)" fill="#e6e6e6"/>
        <path id="Trazado_1031911" data-name="Trazado 1031911" d="M157.614,12.743a1.1,1.1,0,0,1,.567.192.882.882,0,0,1-1.151-.163Z" transform="translate(-120.889 -9.81)" fill="#e8e8e8"/>
        <path id="Trazado_1031912" data-name="Trazado 1031912" d="M153.022,57.221H129.99a.252.252,0,0,1,.27-.231h22.491a.252.252,0,0,1,.27.231" transform="translate(-100.073 -43.874)" fill="#d6d6d5"/>
        <path id="Trazado_1031913" data-name="Trazado 1031913" d="M245.7,141.223l-9.674,0a.233.233,0,0,1,.245-.232h9.176a.247.247,0,0,1,.253.23" transform="translate(-181.701 -108.544)" fill="#d6d6d5"/>
        <path id="Trazado_1031914" data-name="Trazado 1031914" d="M91.663,141.226l-9.675,0a.248.248,0,0,1,.254-.23h9.176a.233.233,0,0,1,.245.232" transform="translate(-63.118 -108.544)" fill="#d6d6d5"/>
        <path id="Trazado_1031915" data-name="Trazado 1031915" d="M290.453,149.335l-6.431,0a.228.228,0,0,1,.24-.226l5.937,0,.109-1.163c.03.384.326.922.145,1.39" transform="translate(-218.653 -113.896)" fill="#d6d5d5"/>
        <path id="Trazado_1031916" data-name="Trazado 1031916" d="M33.064,147.13v-1.162a.791.791,0,0,1,0,1.162" transform="translate(-25.454 -112.374)" fill="#d6d6d5"/>
        <path id="Trazado_1031917" data-name="Trazado 1031917" d="M173.014,264.528l.148,1.335a22.649,22.649,0,0,1-5.849,0l.16-1.43.247-1.329a20.424,20.424,0,0,0,5.026,0,4.5,4.5,0,0,1,.269,1.421" transform="translate(-128.806 -202.55)" fill="#050606"/>
        <path id="Trazado_1031918" data-name="Trazado 1031918" d="M176.815,314.646l-2.756.013v-2.773l2.746.007Z" transform="translate(-133.999 -240.106)" fill="#050606"/>
        <path id="Trazado_1031919" data-name="Trazado 1031919" d="M275.387,270.94l-1.922-1.907,1.9-2.009,1.94,1.936Z" transform="translate(-210.528 -205.569)" fill="#060707"/>
        <path id="Trazado_1031920" data-name="Trazado 1031920" d="M71.857,270.941l-1.965-1.948,1.947-1.98,1.892,1.916Z" transform="translate(-53.806 -205.56)" fill="#060707"/>
        <path id="Trazado_1031921" data-name="Trazado 1031921" d="M220.46,192.137l-6.357.044a.22.22,0,0,1-.126-.2l6.116-.049c.2,0,.292,0,.367.2" transform="translate(-164.73 -147.761)" fill="#996542"/>
        <path id="Trazado_1031922" data-name="Trazado 1031922" d="M192.079,156.119l-4.976.049a.219.219,0,0,1-.126-.2l4.736-.052c.206,0,.288-.006.365.2" transform="translate(-143.945 -120.035)" fill="#996542"/>
        <path id="Trazado_1031923" data-name="Trazado 1031923" d="M249.552,156.168l-2.083,0c-.245,0-.416-.088-.441-.243l2.31-.019c.22,0,.214.183.214.261" transform="translate(-190.175 -120.025)" fill="#996542"/>
        <path id="Trazado_1031924" data-name="Trazado 1031924" d="M124.46,192.137l-6.357.044a.22.22,0,0,1-.126-.2l6.116-.049c.2,0,.292,0,.367.2" transform="translate(-90.824 -147.761)" fill="#b07546"/>
        <path id="Trazado_1031925" data-name="Trazado 1031925" d="M96.079,156.119l-4.976.049a.219.219,0,0,1-.126-.2l4.736-.052c.206,0,.288-.006.365.2" transform="translate(-70.039 -120.035)" fill="#b07546"/>
        <path id="Trazado_1031926" data-name="Trazado 1031926" d="M153.544,156.161l-2.075-.012c-.245,0-.417-.09-.441-.244l2.315-.025a.2.2,0,0,1,.2.281" transform="translate(-116.269 -120.005)" fill="#af7445"/>
        <path id="Trazado_1031927" data-name="Trazado 1031927" d="M172.46,108.137l-6.357.044a.22.22,0,0,1-.126-.2l6.116-.049c.2,0,.292,0,.367.2" transform="translate(-127.777 -83.094)" fill="#ba7c4c"/>
        <path id="Trazado_1031928" data-name="Trazado 1031928" d="M144.079,72.119l-4.976.05a.219.219,0,0,1-.126-.2l4.736-.052c.206,0,.288-.006.365.2" transform="translate(-106.992 -55.367)" fill="#ba7c4b"/>
        <path id="Trazado_1031929" data-name="Trazado 1031929" d="M201.546,72.16l-2.076-.013c-.245,0-.417-.09-.441-.244l2.315-.026a.205.205,0,0,1,.2.283" transform="translate(-153.222 -55.335)" fill="#b97b4b"/>
        <path id="Trazado_1031930" data-name="Trazado 1031930" d="M177.334,72.11l-2.209.066a.2.2,0,0,1-.12-.159l1.965-.077c.213-.008.278-.011.364.17" transform="translate(-134.728 -55.381)" fill="#ecefef"/>
        <path id="Trazado_1031931" data-name="Trazado 1031931" d="M225.334,156.11l-2.209.066a.2.2,0,0,1-.12-.159l1.965-.077c.213-.008.278-.011.364.17" transform="translate(-171.681 -120.049)" fill="#ecefef"/>
        <path id="Trazado_1031932" data-name="Trazado 1031932" d="M129.334,156.11l-2.209.066a.2.2,0,0,1-.12-.159l1.965-.077c.213-.008.278-.011.364.17" transform="translate(-97.775 -120.049)" fill="#ecefef"/>
      </g>
    </g>
  </g>
</svg>
