<svg xmlns="http://www.w3.org/2000/svg" xmlns:xlink="http://www.w3.org/1999/xlink" width="128" height="128" viewBox="0 0 128 128">
  <defs>
    <clipPath id="clip-path">
      <rect id="Rectángulo_456277" data-name="Rectángulo 456277" width="128" height="128" transform="translate(0 0)" fill="#d35560"/>
    </clipPath>
    <clipPath id="clip-path-2">
      <rect id="Rectángulo_459953" data-name="Rectángulo 459953" width="63.538" height="67.487" fill="#4d787e"/>
    </clipPath>
  </defs>
  <g id="Grupo_1185910" data-name="Grupo 1185910" transform="translate(13436 12681)">
    <g id="Grupo_1179924" data-name="Grupo 1179924" transform="translate(-13436 -12681)">
      <g id="Grupo_1179923" data-name="Grupo 1179923" transform="translate(0 0)" clip-path="url(#clip-path)">
        <path id="Trazado_1004716" data-name="Trazado 1004716" d="M63.534,127.068c-2.064,0-3.994-2.358-6.006-2.554-2.05-.2-4.4,1.735-6.388,1.341-2.016-.4-3.449-3.09-5.391-3.68-1.964-.6-4.65.839-6.526.059-1.892-.786-2.769-3.705-4.562-4.667s-4.72-.086-6.412-1.22-1.99-4.172-3.566-5.467-4.61-1-6.054-2.44-1.143-4.475-2.44-6.054-4.328-1.867-5.467-3.566-.252-4.608-1.22-6.411-3.881-2.67-4.668-4.562c-.78-1.877.656-4.563.059-6.526-.59-1.942-3.28-3.374-3.68-5.391-.395-1.987,1.541-4.338,1.34-6.388C2.358,67.528,0,65.6,0,63.534s2.358-3.994,2.554-6.006c.2-2.05-1.735-4.4-1.34-6.388.4-2.016,3.09-3.449,3.68-5.391.6-1.964-.839-4.65-.059-6.527C5.622,37.33,8.54,36.453,9.5,34.66s.085-4.719,1.22-6.412,4.171-1.99,5.466-3.566,1-4.61,2.441-6.054,4.475-1.143,6.053-2.44,1.867-4.328,3.566-5.467,4.608-.252,6.412-1.22,2.67-3.881,4.562-4.668c1.877-.78,4.563.656,6.527.059,1.942-.59,3.374-3.279,5.39-3.68,1.987-.395,4.338,1.541,6.388,1.341C59.54,2.358,61.47,0,63.534,0s3.994,2.358,6.006,2.554c2.05.2,4.4-1.735,6.388-1.341,2.016.4,3.449,3.09,5.391,3.68,1.964.6,4.65-.839,6.526-.059,1.892.786,2.769,3.705,4.562,4.668s4.72.085,6.412,1.22,1.99,4.171,3.566,5.466,4.61,1,6.054,2.441,1.143,4.475,2.44,6.053,4.328,1.867,5.467,3.566.252,4.608,1.22,6.412,3.881,2.67,4.667,4.562c.78,1.877-.656,4.563-.059,6.526.59,1.942,3.28,3.374,3.68,5.39.395,1.987-1.541,4.338-1.341,6.388.2,2.012,2.555,3.943,2.555,6.006s-2.358,3.994-2.555,6.007c-.2,2.049,1.735,4.4,1.341,6.388-.4,2.016-3.09,3.449-3.68,5.391-.6,1.964.839,4.65.059,6.526-.787,1.893-3.705,2.769-4.668,4.563s-.085,4.719-1.22,6.412-4.171,1.99-5.466,3.566-1,4.61-2.441,6.053-4.475,1.143-6.053,2.44-1.867,4.328-3.566,5.466-4.608.252-6.412,1.22-2.67,3.881-4.562,4.668c-1.877.78-4.563-.656-6.526-.059-1.942.59-3.374,3.279-5.39,3.68-1.987.395-4.338-1.541-6.388-1.341-2.013.2-3.943,2.554-6.007,2.554" transform="translate(0.466 0.466)" fill="#d35560"/>
        <path id="Trazado_1004717" data-name="Trazado 1004717" d="M14,71.524a57.524,57.524,0,1,1,57.524,57.524A57.524,57.524,0,0,1,14,71.524" transform="translate(-7.524 -7.524)" fill="#4d787e"/>
        <path id="Trazado_1004718" data-name="Trazado 1004718" d="M131.909,269.316c-.153-.646-.3-1.314-.433-1.969l-2.01-.256q.9-.478,1.765-.962-.191-.985-.361-1.967c.46.452.931.917,1.416,1.362q.847-.526,1.657-1.055-.359.929-.741,1.855c.5.431,1.015.868,1.54,1.3l-2.02-.151q-.4.926-.813,1.849" transform="translate(-73.422 -150.295)" fill="#ffffc5"/>
        <path id="Trazado_1004719" data-name="Trazado 1004719" d="M113.426,265.848c-.055-.66-.1-1.343-.133-2.011l-1.949-.555q.962-.338,1.89-.686-.042-1-.061-2c.387.515.783,1.047,1.2,1.558q.916-.393,1.8-.794-.494.863-1.01,1.722c.431.5.872,1.016,1.329,1.509-.661-.137-1.317-.3-1.976-.449q-.529.856-1.081,1.706" transform="translate(-63.08 -148.261)" fill="#ffffc5"/>
        <path id="Trazado_1004720" data-name="Trazado 1004720" d="M95.721,259.733c.05-.672.108-1.345.172-2.013l-1.845-.838c.667-.124,1.326-.26,1.972-.4q.109-1,.239-1.984c.305.568.62,1.144.948,1.721q.965-.252,1.9-.518-.618.78-1.258,1.552c.352.559.712,1.129,1.088,1.693l-1.886-.741q-.652.767-1.325,1.525" transform="translate(-53.209 -144.782)" fill="#ffffc5"/>
        <path id="Trazado_1004721" data-name="Trazado 1004721" d="M79.2,251.1q.225-.987.47-1.963c-.565-.37-1.144-.718-1.7-1.105.667-.007,1.349-.058,2.007-.1q.256-.968.531-1.924.327.909.684,1.839c.652-.056,1.311-.146,1.95-.226q-.729.68-1.477,1.349.4.908.824,1.833L80.734,249.8c-.506.44-1.023.883-1.534,1.3" transform="translate(-44.034 -139.94)" fill="#ffffc5"/>
        <path id="Trazado_1004722" data-name="Trazado 1004722" d="M64.221,240.181q.368-.941.753-1.869c-.505-.448-1.035-.87-1.513-1.347.655.1,1.335.151,2,.207q.4-.918.807-1.822.192.945.41,1.914c.643.054,1.314.055,1.959.07q-.822.565-1.663,1.117.26.954.548,1.929l-1.593-1.253c-.57.365-1.13.707-1.7,1.054" transform="translate(-35.752 -133.852)" fill="#ffffc5"/>
        <path id="Trazado_1004723" data-name="Trazado 1004723" d="M51.1,227.217q.5-.876,1.018-1.735l-.663-.766c-.22-.256-.421-.528-.631-.792l.961.27.978.232q.525-.849,1.065-1.68.053.96.129,1.947l.955.2.969.162q-.9.439-1.812.862.119.978.263,1.982c-.464-.491-.938-.973-1.393-1.471q-.912.4-1.839.789" transform="translate(-28.54 -126.659)" fill="#ffffc5"/>
        <path id="Trazado_1004724" data-name="Trazado 1004724" d="M39.841,212.493q.625-.791,1.262-1.563c-.18-.286-.37-.565-.542-.856l-.506-.878c.616.274,1.207.55,1.839.786.431-.508.857-1,1.3-1.505-.067.643-.112,1.285-.159,1.943.616.229,1.214.456,1.845.645-.636.2-1.279.4-1.921.584-.019.658-.025,1.321-.027,2-.384-.555-.8-1.089-1.158-1.663q-.963.264-1.938.509" transform="translate(-22.272 -118.515)" fill="#ffffc5"/>
        <path id="Trazado_1004725" data-name="Trazado 1004725" d="M30.615,196.327q.734-.688,1.478-1.357c-.292-.61-.523-1.245-.774-1.872.571.362,1.115.723,1.7,1.054.5-.435,1.006-.868,1.522-1.3-.18.632-.3,1.253-.45,1.9.582.315,1.13.632,1.724.915-.662.106-1.323.2-1.978.288-.136.656-.223,1.3-.328,1.971-.3-.6-.629-1.2-.9-1.817q-.992.118-1.994.216" transform="translate(-17.006 -109.601)" fill="#ffffc5"/>
        <path id="Trazado_1004726" data-name="Trazado 1004726" d="M24.019,178.752q.829-.57,1.663-1.119c-.2-.646-.321-1.312-.483-1.967.509.444,1,.88,1.517,1.3.554-.355,1.135-.71,1.7-1.054-.278.6-.493,1.2-.732,1.809.526.4,1.033.792,1.563,1.164-.674.006-1.326,0-1.993-.014-.242.632-.419,1.256-.622,1.9-.221-.639-.438-1.278-.611-1.932q-1-.032-2.006-.086" transform="translate(-13.242 -99.79)" fill="#ffffc5"/>
        <path id="Trazado_1004727" data-name="Trazado 1004727" d="M20.215,160.164q.9-.439,1.812-.856c-.1-.668-.122-1.345-.182-2.018.437.516.856,1.02,1.3,1.511.6-.268,1.228-.532,1.843-.787-.365.551-.665,1.108-1,1.68.459.473.9.937,1.37,1.386-.665-.1-1.309-.2-1.967-.313-.334.588-.606,1.179-.9,1.785l-.179-1c-.056-.333-.089-.67-.135-1q-.984-.182-1.97-.386" transform="translate(-11.071 -89.302)" fill="#ffffc5"/>
        <path id="Trazado_1004728" data-name="Trazado 1004728" d="M19.269,141.311q.961-.3,1.921-.579c0-.676.063-1.349.115-2.022.359.574.682,1.135,1.072,1.687.64-.176,1.276-.346,1.93-.507-.428.492-.816,1-1.228,1.515.386.537.744,1.062,1.152,1.574q-.966-.29-1.905-.6c-.412.532-.767,1.076-1.153,1.631-.015-.675-.047-1.35-.015-2.025q-.945-.325-1.889-.673" transform="translate(-10.531 -78.698)" fill="#ffffc5"/>
        <path id="Trazado_1004729" data-name="Trazado 1004729" d="M21.174,122.6q1-.154,1.988-.286c.063-.332.112-.667.186-1l.228-.987c.266.621.507,1.224.81,1.828.663-.078,1.31-.152,1.981-.213-.489.424-.956.865-1.438,1.314.3.588.572,1.159.909,1.727-.6-.285-1.214-.58-1.8-.878-.471.467-.917.95-1.379,1.443.094-.668.149-1.343.283-2.006q-.885-.462-1.767-.947" transform="translate(-11.618 -68.211)" fill="#ffffc5"/>
        <path id="Trazado_1004730" data-name="Trazado 1004730" d="M25.928,104.462q1.007,0,2.007.015c.2-.644.459-1.27.708-1.9.173.655.316,1.286.525,1.929.664.021,1.322.048,1.994.088-.554.343-1.076.71-1.622,1.083.211.627.392,1.231.639,1.844-.553-.373-1.111-.756-1.647-1.139-.539.39-1.05.8-1.581,1.22.192-.648.351-1.305.583-1.941q-.806-.59-1.605-1.2" transform="translate(-14.331 -58.078)" fill="#ffffc5"/>
        <path id="Trazado_1004731" data-name="Trazado 1004731" d="M33.429,87.3q1,.147,1.98.315c.295-.608.656-1.181.986-1.77.071.672.132,1.326.228,1.984.648.118,1.311.252,1.964.389-.612.249-1.172.54-1.769.826.114.651.212,1.281.353,1.918-.5-.454-.976-.909-1.452-1.37-.6.3-1.159.634-1.749.966.279-.615.548-1.235.869-1.83q-.71-.7-1.409-1.43" transform="translate(-18.612 -48.53)" fill="#ffffc5"/>
        <path id="Trazado_1004732" data-name="Trazado 1004732" d="M43.489,71.506q.961.294,1.909.6c.393-.549.828-1.067,1.24-1.6q-.046,1.012-.071,2,.952.332,1.89.68c-.638.159-1.255.349-1.876.551q.02.988.06,1.948-.62-.775-1.225-1.566c-.642.206-1.253.446-1.878.692l.547-.853.586-.826q-.6-.8-1.183-1.625" transform="translate(-24.354 -39.775)" fill="#ffffc5"/>
        <path id="Trazado_1004733" data-name="Trazado 1004733" d="M55.279,57.409q.906.431,1.8.878l1.465-1.4q-.193,1-.359,1.97.891.467,1.766.95c-.646.071-1.3.15-1.94.264q-.124.983-.224,1.941-.5-.858-.981-1.732l-.989.183c-.327.067-.647.145-.974.22.432-.519.906-1,1.372-1.49q-.474-.884-.932-1.784" transform="translate(-30.831 -32.001)" fill="#ffffc5"/>
        <path id="Trazado_1004734" data-name="Trazado 1004734" d="M69.057,45.313c.553.372,1.1.749,1.652,1.141l1.651-1.175q-.335.961-.641,1.9.811.592,1.6,1.2c-.643-.015-1.315-.05-1.961-.03q-.265.958-.5,1.893-.367-.923-.716-1.861c-.659.027-1.347.038-2,.105.5-.451,1.054-.844,1.579-1.269q-.339-.946-.66-1.905" transform="translate(-38.421 -25.376)" fill="#ffffc5"/>
        <path id="Trazado_1004735" data-name="Trazado 1004735" d="M84.591,34.886c.492.45.986.918,1.469,1.382l1.8-.925q-.473.9-.914,1.792.713.705,1.407,1.42c-.634-.113-1.284-.229-1.937-.325q-.4.911-.774,1.8-.227-.969-.434-1.949c-.656-.071-1.331-.15-2-.2.577-.351,1.169-.678,1.752-1.018q-.2-.986-.371-1.985" transform="translate(-47.023 -19.444)" fill="#ffffc5"/>
        <path id="Trazado_1004736" data-name="Trazado 1004736" d="M101.552,26.946q.634.791,1.246,1.589c.64-.214,1.278-.44,1.921-.644-.405.538-.792,1.094-1.172,1.634q.6.8,1.177,1.613-.916-.311-1.866-.611c-.358.554-.7,1.119-1.034,1.67q-.08-.993-.139-1.994-.958-.254-1.949-.5l1.885-.745c-.03-.669-.056-1.348-.069-2.016" transform="translate(-56.455 -14.913)" fill="#ffffc5"/>
        <path id="Trazado_1004737" data-name="Trazado 1004737" d="M119.566,21.733q.507.876.993,1.758c.665-.115,1.329-.246,2-.349-.482.468-.948.962-1.4,1.439q.472.883.922,1.771-.858-.444-1.753-.883c-.439.486-.86,1-1.273,1.495q.07-.994.162-1.994-.908-.394-1.852-.78l1.974-.457c.071-.666.147-1.344.235-2" transform="translate(-66.511 -11.938)" fill="#ffffc5"/>
        <path id="Trazado_1004738" data-name="Trazado 1004738" d="M138.214,19.35q.371.944.72,1.888l2.025-.051q-.819.609-1.6,1.218.335.945.648,1.89-.784-.569-1.6-1.138c-.507.424-1,.862-1.483,1.29q.218-.972.459-1.946-.84-.527-1.715-1.051l2.02-.154c.17-.648.346-1.305.531-1.947" transform="translate(-76.959 -10.578)" fill="#ffffc5"/>
        <path id="Trazado_1004739" data-name="Trazado 1004739" d="M157.075,19.831c.153.647.3,1.314.433,1.969l2.01.256q-.9.478-1.765.962.191.985.36,1.967c-.46-.452-.931-.917-1.416-1.362q-.847.526-1.657,1.055.359-.929.741-1.855c-.5-.431-1.014-.868-1.54-1.3l2.021.151q.4-.926.813-1.849" transform="translate(-87.562 -10.852)" fill="#ffffc5"/>
        <path id="Trazado_1004740" data-name="Trazado 1004740" d="M175.741,23.17c.055.66.1,1.343.134,2.011l1.949.555q-.962.338-1.89.686.042,1,.061,2c-.387-.515-.782-1.047-1.2-1.558q-.916.393-1.8.794.494-.864,1.01-1.722c-.431-.5-.872-1.016-1.329-1.509.661.137,1.317.3,1.976.449q.53-.856,1.081-1.706" transform="translate(-98.088 -12.758)" fill="#ffffc5"/>
        <path id="Trazado_1004741" data-name="Trazado 1004741" d="M193.559,29.313c-.05.672-.108,1.345-.172,2.012l1.845.838c-.667.125-1.326.261-1.972.4q-.109,1-.239,1.984c-.305-.568-.62-1.144-.948-1.721q-.965.252-1.9.518.618-.78,1.257-1.552c-.351-.559-.712-1.129-1.087-1.693l1.886.741q.652-.767,1.325-1.525" transform="translate(-108.072 -16.264)" fill="#ffffc5"/>
        <path id="Trazado_1004742" data-name="Trazado 1004742" d="M209.923,38.133q-.225.987-.47,1.963c.565.37,1.144.718,1.7,1.105-.667.007-1.349.058-2.007.1q-.256.968-.531,1.924-.327-.909-.684-1.839c-.652.056-1.311.146-1.95.226q.729-.68,1.477-1.349-.4-.908-.824-1.833l1.756,1.011c.506-.44,1.022-.883,1.534-1.3" transform="translate(-117.09 -21.297)" fill="#ffffc5"/>
        <path id="Trazado_1004743" data-name="Trazado 1004743" d="M224.9,49.134q-.368.941-.753,1.869c.505.448,1.035.87,1.513,1.347-.655-.1-1.335-.151-2-.206q-.4.918-.807,1.822-.192-.945-.41-1.913c-.643-.055-1.314-.055-1.959-.07q.823-.565,1.663-1.117-.26-.954-.548-1.929l1.593,1.252c.57-.365,1.13-.707,1.7-1.054" transform="translate(-125.371 -27.463)" fill="#ffffc5"/>
        <path id="Trazado_1004744" data-name="Trazado 1004744" d="M238.176,61.933q-.5.876-1.018,1.735l.663.766c.22.256.42.528.632.792l-.961-.27-.978-.232q-.525.849-1.065,1.68-.053-.96-.129-1.947l-.955-.2-.969-.162q.9-.439,1.812-.862-.119-.978-.263-1.982c.464.491.938.973,1.393,1.471q.912-.4,1.839-.789" transform="translate(-132.736 -34.491)" fill="#ffffc5"/>
        <path id="Trazado_1004745" data-name="Trazado 1004745" d="M249.453,76.636q-.625.791-1.261,1.563c.18.285.37.565.542.856l.506.878c-.616-.274-1.207-.55-1.839-.786-.431.508-.857,1-1.3,1.505.067-.643.112-1.285.159-1.943-.616-.229-1.214-.455-1.845-.645.636-.2,1.279-.4,1.921-.585.019-.657.025-1.32.027-2,.384.555.8,1.089,1.158,1.663q.963-.264,1.938-.509" transform="translate(-139.022 -42.614)" fill="#ffffc5"/>
        <path id="Trazado_1004746" data-name="Trazado 1004746" d="M258.476,92.93q-.734.688-1.478,1.357c.292.61.523,1.245.774,1.872-.571-.362-1.115-.722-1.7-1.054-.5.435-1.006.868-1.522,1.3.18-.632.3-1.253.45-1.9-.582-.315-1.13-.632-1.724-.915.662-.106,1.324-.2,1.978-.288.136-.656.223-1.3.328-1.971.3.6.629,1.2.9,1.818q.992-.118,1.994-.215" transform="translate(-144.085 -51.657)" fill="#ffffc5"/>
        <path id="Trazado_1004747" data-name="Trazado 1004747" d="M265.025,110.463q-.829.571-1.663,1.119c.2.646.321,1.312.483,1.967-.509-.444-1-.88-1.517-1.3-.554.355-1.135.71-1.7,1.054.278-.6.493-1.195.733-1.809-.526-.4-1.033-.792-1.563-1.164.674-.006,1.326,0,1.993.014.242-.631.419-1.256.622-1.9.221.639.438,1.278.611,1.932q1,.032,2.006.086" transform="translate(-147.801 -61.426)" fill="#ffffc5"/>
        <path id="Trazado_1004748" data-name="Trazado 1004748" d="M268.935,128.842q-.9.439-1.812.856c.1.668.122,1.345.182,2.018-.437-.516-.856-1.02-1.3-1.511-.6.268-1.228.532-1.843.787.365-.551.665-1.108,1-1.68-.459-.473-.9-.937-1.37-1.386.665.1,1.309.2,1.967.313.334-.588.606-1.178.9-1.785l.179,1c.056.333.089.67.135,1q.984.182,1.97.386" transform="translate(-150.079 -71.704)" fill="#ffffc5"/>
        <path id="Trazado_1004749" data-name="Trazado 1004749" d="M270.032,147.643q-.961.3-1.921.579c0,.676-.063,1.349-.115,2.022-.359-.574-.682-1.135-1.072-1.687-.64.176-1.276.346-1.93.507.428-.492.816-1,1.228-1.515-.386-.537-.744-1.062-1.152-1.574q.966.29,1.905.6c.412-.532.767-1.076,1.153-1.631.015.675.047,1.35.015,2.025q.945.326,1.889.673" transform="translate(-150.77 -82.257)" fill="#ffffc5"/>
        <path id="Trazado_1004750" data-name="Trazado 1004750" d="M267.922,166.455q-1,.154-1.988.286c-.063.332-.112.667-.186,1l-.228.987c-.266-.621-.507-1.224-.81-1.828-.663.078-1.31.152-1.981.213.489-.424.956-.865,1.439-1.314-.3-.588-.572-1.159-.909-1.727.6.285,1.214.58,1.8.878.471-.467.917-.95,1.379-1.443-.094.668-.149,1.343-.283,2.006q.885.462,1.767.947" transform="translate(-149.478 -92.847)" fill="#ffffc5"/>
        <path id="Trazado_1004751" data-name="Trazado 1004751" d="M263.113,184.858q-1.007,0-2.007-.015c-.2.644-.459,1.27-.708,1.9-.173-.655-.315-1.287-.525-1.929-.664-.021-1.322-.048-1.994-.088.554-.343,1.076-.71,1.622-1.083-.211-.626-.391-1.231-.639-1.844.553.373,1.111.755,1.647,1.138.539-.39,1.05-.8,1.581-1.219-.192.647-.351,1.305-.583,1.94q.806.59,1.605,1.2" transform="translate(-146.71 -103.243)" fill="#ffffc5"/>
        <path id="Trazado_1004752" data-name="Trazado 1004752" d="M255.713,201.893q-1-.147-1.98-.315c-.295.608-.656,1.181-.986,1.769-.071-.672-.132-1.326-.228-1.984-.648-.118-1.311-.252-1.964-.389.612-.249,1.172-.54,1.769-.826-.114-.651-.211-1.281-.353-1.918.5.454.976.909,1.452,1.37.6-.3,1.159-.634,1.749-.966-.279.615-.548,1.235-.868,1.83q.709.7,1.408,1.429" transform="translate(-142.53 -112.667)" fill="#ffffc5"/>
        <path id="Trazado_1004753" data-name="Trazado 1004753" d="M245.906,217.614q-.961-.293-1.909-.6c-.393.549-.828,1.067-1.24,1.6q.046-1.012.071-2-.952-.332-1.89-.68c.638-.159,1.255-.349,1.876-.551q-.02-.988-.06-1.948.62.775,1.225,1.566c.642-.206,1.253-.446,1.878-.692l-.547.853-.586.826q.6.8,1.183,1.625" transform="translate(-137.041 -121.346)" fill="#ffffc5"/>
        <path id="Trazado_1004754" data-name="Trazado 1004754" d="M233.928,231.779q-.906-.431-1.8-.878l-1.465,1.4q.193-1,.359-1.97-.891-.467-1.766-.95c.646-.071,1.3-.15,1.94-.264q.124-.983.224-1.941.5.858.981,1.732l.989-.183c.327-.067.647-.145.974-.22-.432.519-.906,1-1.372,1.49q.474.884.932,1.784" transform="translate(-130.376 -129.187)" fill="#ffffc5"/>
        <path id="Trazado_1004755" data-name="Trazado 1004755" d="M220.049,244.088c-.553-.372-1.1-.749-1.652-1.141l-1.651,1.175q.335-.961.641-1.9-.811-.592-1.6-1.2c.643.015,1.315.05,1.961.03q.265-.958.5-1.893.367.923.717,1.861c.659-.027,1.347-.038,2-.105-.5.451-1.054.844-1.579,1.269q.339.946.66,1.905" transform="translate(-122.685 -136.026)" fill="#ffffc5"/>
        <path id="Trazado_1004756" data-name="Trazado 1004756" d="M204.568,254.268c-.492-.449-.986-.918-1.469-1.382l-1.8.925q.473-.9.914-1.792-.713-.706-1.407-1.421c.634.113,1.284.229,1.937.325q.4-.91.774-1.8.227.97.434,1.95c.656.071,1.33.149,2,.2-.577.352-1.168.678-1.752,1.019q.2.986.371,1.984" transform="translate(-114.135 -141.71)" fill="#ffffc5"/>
        <path id="Trazado_1004757" data-name="Trazado 1004757" d="M187.815,262.073q-.634-.791-1.246-1.589c-.64.214-1.278.44-1.921.644.405-.538.793-1.094,1.172-1.634q-.6-.8-1.177-1.613.916.311,1.866.611c.358-.554.7-1.119,1.034-1.67q.08.993.139,1.995.958.254,1.949.5l-1.885.745c.03.669.056,1.348.069,2.016" transform="translate(-104.913 -146.107)" fill="#ffffc5"/>
        <path id="Trazado_1004758" data-name="Trazado 1004758" d="M169.522,267.312q-.507-.876-.993-1.758c-.665.116-1.329.246-2,.349.482-.468.948-.963,1.4-1.439q-.472-.883-.922-1.771.858.444,1.753.883c.439-.486.86-1,1.273-1.495q-.07.994-.162,1.994.908.394,1.852.78l-1.974.457c-.071.666-.147,1.344-.235,2" transform="translate(-94.577 -149.108)" fill="#ffffc5"/>
        <path id="Trazado_1004759" data-name="Trazado 1004759" d="M150.745,269.873q-.371-.943-.719-1.888l-2.025.051q.819-.609,1.6-1.219-.336-.945-.648-1.89.784.569,1.6,1.138c.507-.424,1-.862,1.483-1.29q-.218.972-.459,1.946.84.527,1.715,1.05l-2.02.154c-.17.648-.346,1.305-.531,1.946" transform="translate(-84 -150.646)" fill="#ffffc5"/>
        <path id="Trazado_1004760" data-name="Trazado 1004760" d="M83.637,132.05A48.412,48.412,0,1,1,132.05,83.637,48.467,48.467,0,0,1,83.637,132.05" transform="translate(-19.637 -19.638)" fill="#fff7e8"/>
      </g>
    </g>
    <g id="Grupo_1180053" data-name="Grupo 1180053" transform="translate(-13402.254 -12647.618)">
      <rect id="Rectángulo_401104" data-name="Rectángulo 401104" width="60.508" height="61.237" transform="translate(0)" fill="none"/>
    </g>
    <g id="Grupo_1187744" data-name="Grupo 1187744" transform="translate(-13403.77 -12650.743)">
      <g id="Grupo_1187743" data-name="Grupo 1187743" clip-path="url(#clip-path-2)">
        <path id="Trazado_1033228" data-name="Trazado 1033228" d="M1.043,14.429c.661.445,1.344.859,2.234,1.423-.826.36-1.4.652-2.011.867A1.454,1.454,0,0,0,.184,18.3q.033,16.366,0,32.733a1.444,1.444,0,0,0,.932,1.529Q16.97,59.894,32.8,67.286a1.971,1.971,0,0,0,1.99-.159Q48.594,59.3,62.413,51.489a1.92,1.92,0,0,0,1.125-1.9q-.046-16.225,0-32.449A1.716,1.716,0,0,0,62.46,15.37Q46.527,7.826,30.6.265A2.366,2.366,0,0,0,28.449.253c-1.8.809-3.631,1.538-5.445,2.314Q12.125,7.22,1.248,11.88C.689,12.12.043,12.253,0,13.035c-.039.745.537,1.056,1.041,1.394m.72,5.963c1.592,2.63,3.311,4.659,3.16,7.829C4.636,34.2,4.78,40.2,4.882,46.188c.026,1.515-.344,2.5-1.743,3.095a11.524,11.524,0,0,0-1.376.845ZM24.1,43.834A1.579,1.579,0,0,1,25.138,42.1c.975-.434,1.9-.991,2.953-1.556V57.985a1.845,1.845,0,0,1-.273,0c-3.072-.761-4.138-2.626-3.756-5.807a58.919,58.919,0,0,0,.037-8.342m3.224-4.69c-5.826,3.127-11.647,6.267-17.409,9.51-1.228.691-2.033.082-2.98-.347-.909-.411-.362-1.241-.5-1.873s.284-.9.779-1.162c5.907-3.174,11.8-6.373,17.708-9.546a2.193,2.193,0,0,1,3.2,1.979,1.242,1.242,0,0,1-.806,1.439M18.2,46.763c0-.427-.041-.847.431-1.1C19.9,45,21.168,44.311,22.6,43.545V55.43a29.328,29.328,0,0,1-3.971-1.775c-.521-.238-.414-.684-.417-1.092-.009-1.934-.005-3.867-.012-5.8m-1.547-.044V52.8c-1.393-.633-2.722-1.185-4-1.838a1.307,1.307,0,0,1,.03-2.028c1.234-.746,2.517-1.412,3.968-2.216m-5.939-5.853c0,.445-.026.82-.488,1.057-1.2.615-2.392,1.257-3.742,1.97V26.265c1.3.611,2.464,1.189,3.655,1.706.564.245.565.67.565,1.155q0,5.87.01,11.74M12.236,29c1.407.629,2.636,1.2,3.882,1.726.555.236.56.662.557,1.154-.011,1.89-.024,3.78.016,5.669a1.172,1.172,0,0,1-.682,1.243c-.968.48-1.946.95-2.871,1.5-.828.5-.917.156-.912-.6.021-3.494.009-6.989.009-10.7m6.014,8.516V31.723c1.317.629,2.605,1.165,3.811,1.846a1.01,1.01,0,0,1,.1,1.829,44.178,44.178,0,0,1-3.909,2.114m9.738-2.935q-10.425-4.832-20.85-9.664a3.627,3.627,0,0,1-1.731-1.571,29.216,29.216,0,0,1-1.918-3.631l28.476,13.11c-1.04.7-1.939,1.271-2.807,1.89-.463.33-.8.035-1.17-.135M2.677,51.525c.96-.652,1.8-1.2,2.611-1.782.446-.318.786-.063,1.171.114q10.548,4.863,21.1,9.717A2.581,2.581,0,0,1,28.8,60.659c.764,1.341,1.588,2.649,2.578,4.285L2.677,51.525M32.756,64.059c-.172-.236-.246-.352-.334-.457-2.412-2.875-2.909-6.188-2.739-9.864.242-5.233.127-10.487.025-15.73a2.656,2.656,0,0,1,1.622-2.874,11.7,11.7,0,0,0,1.425-.938Zm1.73-.352V34.492c2.446.6,2.922,2.166,2.864,4.419-.15,5.845-.075,11.7,0,17.545a6.783,6.783,0,0,1-1.229,4.5,27.753,27.753,0,0,0-1.632,2.756m23.081-18.27a2.214,2.214,0,0,1-1.483,2.493,17.918,17.918,0,0,0-1.946,1.08c0-4.047.009-7.866-.01-11.684a3.027,3.027,0,0,1,.592-1.55c.841-1.467,1.7-2.923,2.57-4.412.454.358.228.81.23,1.185.02,4.3-.046,8.593.047,12.888M52.532,49a1.4,1.4,0,0,1-.85,1.439c-.866.439-1.711.923-2.5,1.352-.994-4.473.363-8.288,3.334-11.846,0,3.125-.023,6.09.017,9.054M41.154,55.949c-.526.907-1.4,1.133-2.235,1.747a5.075,5.075,0,0,1,.567-3.509q7.952-13.48,15.794-27.025c.492-.846,1.358-1.085,2.151-1.674a5.318,5.318,0,0,1-.908,4.163q-7.756,13.107-15.369,26.3m2.484-1.171,3.615-6.233c.439,4.333.3,4.576-3.615,6.233M38.833,36.66a.893.893,0,0,1,.522-.891c.9-.482,1.786-.983,2.885-1.592a63.408,63.408,0,0,0,.041,6.71,13.89,13.89,0,0,1-3.44,10.925c0-5.118,0-10.135-.009-15.152m4.992,5.757c0-2.778.032-5.556.026-8.333a1.143,1.143,0,0,1,.668-1.236c.915-.443,1.779-.993,2.7-1.519.672,4.6.273,6.086-3.105,11.73-.457-.048-.289-.412-.288-.642M52.8,28.225l-3.779,6.458c-.23-4.511-.23-4.511,3.779-6.458m4.206-4.26Q47.948,29.128,38.891,34.3a1.256,1.256,0,0,1-1.648-.1c-.567-.474-1.218-.849-2.033-1.4L60.256,18.664l.183.246c-.789,1.386-1.581,2.771-2.364,4.16a2.531,2.531,0,0,1-1.066.9m-21.15,40.7c1.575-2.829,2.713-5.291,5.606-6.74,5.156-2.583,10.1-5.594,15.066-8.545,1.364-.811,2.424-.917,3.584.17a8.961,8.961,0,0,0,1.094.753L35.86,64.668M61.806,48.744a1.36,1.36,0,0,1-.2-.041c-1.958-.815-2.622-2.164-2.535-4.373.212-5.369.243-10.757.042-16.126a11.96,11.96,0,0,1,2.691-8.334ZM9.2,10.2q9.517-4.059,19.032-8.124a2.353,2.353,0,0,1,2.137-.126q15.133,7.2,30.259,14.3c.087.484-.286.511-.5.633q-12.778,7.2-25.563,14.387a1.731,1.731,0,0,1-1.805.219Q18.258,24.745,3.72,18.076a6.351,6.351,0,0,1-.586-.347c1.13-.872,2.082-.613,3.328-.008,5.743,2.788,11.573,5.395,17.373,8.065,2.814,1.3,5.643,2.56,8.438,3.895a2.389,2.389,0,0,0,2.483-.126c6.812-3.9,13.655-7.748,20.488-11.612.4-.227.888-.359.914-.957.031-.705-.559-.82-1-1.027Q42.8,10.123,30.426,4.307a1.8,1.8,0,0,0-1.6-.029Q18.542,8.694,8.247,13.086c-.424.182-.927.342-.993.9-.075.635.432.872.867,1.156,1.209.79,2.654,1.326,3.132,3.03C7.965,17.057,5.18,15.084,2,13.249,4.539,12.174,6.874,11.19,9.2,10.2m34.621,6.248q-5.566-2.578-11.115-5.193a1.4,1.4,0,0,0-1.33.035c-3.656,1.717-7.313,3.429-10.989,5.1a1.549,1.549,0,0,0-1.033,1.639c.036,1.224.009,2.451.009,3.88-1.92-.92-3.694-1.748-5.447-2.619-.687-.341-.841-1.111-1.139-1.729-.645-1.335-1.3-2.63-2.839-3.149.215-.617.761-.6,1.15-.77,5.821-2.508,11.654-4.987,17.478-7.488a1.852,1.852,0,0,1,1.7-.138q11.275,5.325,22.571,10.6c.186.087.49.076.529.538l-8.608,4.9c0-1.5-.039-2.788.015-4.07a1.451,1.451,0,0,0-.955-1.541M36.3,21.8c2.168-1,4.324-2.025,6.487-3.037.035-.016.089.007.116.01,1.024,3.107-.215,4.933-3.078,6.127a53.362,53.362,0,0,0-5.782,3.189c-.815.467-1.239.361-1.18-.665,0-.047,0-.094,0-.141-.1-3.862-.1-3.855,3.435-5.484M20.989,18.63c1.328.618,2.5,1.2,3.693,1.7a1.052,1.052,0,0,1,.686,1.086c.043.748-.292,1.921.8,1.959.986.035.621-1.157.86-1.949,1.3.621,2.544,1.239,3.811,1.819.472.216.382.6.386.96.014.989,0,1.977,0,3.072a5.849,5.849,0,0,1-2.066-.824c-2.354-1.063-4.683-2.186-7.051-3.216-.844-.367-1.262-.809-1.144-1.786a25,25,0,0,0,.022-2.823m1.31-1.193c.322-.576.98-.624,1.487-.869,2.236-1.083,4.518-2.073,6.735-3.192a2.874,2.874,0,0,1,3.121-.006,25.332,25.332,0,0,0,2.329,1.153c-3.329,1.585-6.446,3.053-9.543,4.559-.441.215-.739-.018-1.049-.156-1.026-.457-2.026-.973-3.081-1.489M30.77,21.46c-.793-.476-1.653-.84-2.733-1.378,1.816-.867,3.421-1.634,5.028-2.4a9.708,9.708,0,0,0,2.022-.974c2.54-2.072,4.631-.538,6.864.7-2.921,1.362-5.78,2.643-8.585,4.033a2.436,2.436,0,0,1-2.6.015" transform="translate(0 0)" fill="#4d787e"/>
      </g>
    </g>
  </g>
</svg>
