<svg xmlns="http://www.w3.org/2000/svg" xmlns:xlink="http://www.w3.org/1999/xlink" width="103" height="175.436" viewBox="0 0 103 175.436">
  <defs>
    <clipPath id="clip-path">
      <rect id="Rectángulo_459896" data-name="Rectángulo 459896" width="72.5" height="72.494" fill="none"/>
    </clipPath>
  </defs>
  <g id="Grupo_1187631" data-name="Grupo 1187631" transform="translate(-622.711 -5974)">
    <rect id="Rectángulo_458693" data-name="Rectángulo 458693" width="103" height="175.436" rx="10" transform="translate(622.711 5974)" fill="#f2a4ab"/>
    <g id="Grupo_1187630" data-name="Grupo 1187630" transform="translate(638.711 6025)">
      <g id="Grupo_1187629" data-name="Grupo 1187629" clip-path="url(#clip-path)">
        <path id="Trazado_1031620" data-name="Trazado 1031620" d="M41.095,22.948l4.815-.007a1.18,1.18,0,0,0,1.2-1.291,1.248,1.248,0,0,0-1.392-1.127l-2.21,0A1.179,1.179,0,0,1,42.3,19.315l-.009-3.6L39.88,15.7a1.246,1.246,0,0,1-1.236-.995l-.909-3.823L13.9,10.872,10.87,13.913l.023,7.215,3.414,3.655.15,5.9a28,28,0,0,1-2.37,2.431l2.4,38.123a1.185,1.185,0,0,1-1.215,1.253H1.218A1.2,1.2,0,0,1,0,71.241l2.4-38.125c-.874-.838-1.629-1.505-2.382-2.38V24.8l3.592-3.7.01-7.222L.005,10.2.126,4.271A29.688,29.688,0,0,1,4.273.108L10.213,0l3.706,3.627,57.324,0a1.156,1.156,0,0,1,1.245,1.2l0,4.823a1.2,1.2,0,0,1-1.229,1.219l-21.959,0-.95,3.83a1.243,1.243,0,0,1-1.237.994l-2.4.02L44.8,18.19A3.945,3.945,0,0,1,48.8,19.54a3.681,3.681,0,0,1,.18,4.135c-.79,1.3-2.219,1.767-3.92,1.748l22.825,8.349,3.4.054A1.152,1.152,0,0,1,72.5,35.068V66.413a1.206,1.206,0,0,1-1.256,1.255H18.173a1.213,1.213,0,0,1-1.256-1.254V35.068a1.149,1.149,0,0,1,1.215-1.236l3.409-.051L44.3,25.444l-3.209-.1Z" transform="translate(0)" fill="#040504"/>
        <path id="Trazado_1031621" data-name="Trazado 1031621" d="M19.969,178.695a6.372,6.372,0,0,0-.126,1.742q-.039-.548.228-.615l1.818,29.2-9.51.006.258-3.959.368-.311c1.664.378,4.416.688,4.745-1.528l-1.718-28.97.387-.273,3.281,0Z" transform="translate(-9.886 -138.944)" fill="#b9b8b8"/>
        <path id="Trazado_1031622" data-name="Trazado 1031622" d="M49.178,198.491c-.1.09-.018.35-.228.615-.17-.812-.195-1.743.126-1.742a2.365,2.365,0,0,0,.1,1.126" transform="translate(-38.993 -157.615)" fill="#c5c6c6"/>
        <path id="Trazado_1031623" data-name="Trazado 1031623" d="M17.443,174l1.75,28.557a2.584,2.584,0,0,1-.771,2.215c-.906.842-3.229.8-4.761.31l1.915-31.069Z" transform="translate(-10.91 -138.954)" fill="#d3d2d1"/>
        <path id="Trazado_1031624" data-name="Trazado 1031624" d="M23.983,175.93a2.057,2.057,0,0,1-.084-.92l.118-.107a1.046,1.046,0,0,1-.034,1.027" transform="translate(-19.077 -139.677)" fill="#dadad9"/>
        <path id="Trazado_1031625" data-name="Trazado 1031625" d="M18.889,123.578l-4.045.016-2.833-2.834v-3.988l2.834-2.838,3.99,0,2.832,2.834,0,3.987Z" transform="translate(-9.592 -90.987)" fill="#3687bd"/>
        <path id="Trazado_1031626" data-name="Trazado 1031626" d="M20.824,120.068a3.616,3.616,0,1,1-2.674,4.485,3.585,3.585,0,0,1,2.674-4.485" transform="translate(-14.39 -95.808)" fill="#040505"/>
        <path id="Trazado_1031627" data-name="Trazado 1031627" d="M30.906,132.044a1.2,1.2,0,0,1,.75,2.273,1.2,1.2,0,0,1-1.537-.714,1.185,1.185,0,0,1,.787-1.559" transform="translate(-23.997 -105.412)" fill="#626262"/>
        <path id="Trazado_1031628" data-name="Trazado 1031628" d="M174.58,144.263H142.555l16-5.952Z" transform="translate(-113.844 -110.455)" fill="#f4f4f4"/>
        <path id="Trazado_1031629" data-name="Trazado 1031629" d="M142.558,165.057l-.012,29.837a.774.774,0,0,1-.849.835H89.822a.777.777,0,0,1-.85-.835V164.741a.779.779,0,0,1,.817-.839l3.517-.1,6.162-2.146c-.323.5-.683.867-.623,1.351a1.194,1.194,0,0,0,1.072.888l31.322.01a2.922,2.922,0,0,0,1.477-.368c.29-.18.2-.773.135-1.086-.072-.339-.575-.413-.825-.82l6.339,2.2,3.351.072c.668.014.843.394.842,1.153" transform="translate(-71.052 -129.078)" fill="#040504"/>
        <path id="Trazado_1031630" data-name="Trazado 1031630" d="M144.362,179.91c.637.169.567,2.195-.05,2.393l-.212.406a4.481,4.481,0,0,0-1.8.173l-.017,23.356-.4.244c-.042.157-.105.384-.232.4a33.984,33.984,0,0,1-4.274.007l-.292-.4-.4-.139-.075-23.6a3.471,3.471,0,0,0-1.554.136l-.017,23.358-.4.244c-.043.157-.107.387-.233.4a21.788,21.788,0,0,1-2.991,0q-1.19.221-1.575-.4l-.4-.139q.037-11.812-.074-23.6a3.465,3.465,0,0,0-1.554.136l-.018,23.366-.4.244c-.025.154-.071.379-.187.4-.573.093-2.447.1-2.628-.475a1.355,1.355,0,0,1,.017-1.311l-.007-3.014q-.685.076-.8-.443c-.6.063-.652-1.033-.082-1.2q.073-.5.88-.48.247-1.653-.47-1.539l-.246-.409c-.646-.111-.762-2.136-.162-2.4q.071-.5.878-.485.247-1.653-.47-1.539l-.246-.409c-.65-.116-.759-2.145-.162-2.4q.071-.5.878-.485.247-1.653-.47-1.539l-.247-.409c-.6.065-.723-1.014-.164-1.2q.064-.55.789-.423c.173-.133.2-3.453-.133-3.782a12.462,12.462,0,0,0-3.759-.232q.075.685-.444.8c-.16.641-2.192.613-2.408,0q-.483.085-.479-.8h-1.4a.956.956,0,0,1-.546.8c-.16.641-2.192.613-2.407,0q-.483.085-.479-.8h-1.4a.956.956,0,0,1-.546.8c-.16.641-2.192.613-2.407,0q-.483.085-.479-.8h-1.4a.956.956,0,0,1-.546.8c-.16.641-2.192.613-2.408,0q-.537.094-.422-.713a9.9,9.9,0,0,0-3.782.142,12.078,12.078,0,0,0-.229,3.761q.7-.079.805.443c.6-.058.646,1.041.08,1.2q-.074.5-.88.476-.247,1.656.469,1.538l.248.408c.651.119.76,2.151.163,2.411q-.074.5-.88.476-.247,1.656.469,1.538l.248.408c.651.119.76,2.151.163,2.411q-.074.5-.88.477v1.4a.956.956,0,0,1,.8.545c.6-.073.573,1.094,0,1.2q-.017.46-.8.516l.007,3.085a1.139,1.139,0,0,1,.005,1.167c.066.578-2.07.48-2.423.375-.226-.067-.356-.141-.4-.407L95.981,179.9Z" transform="translate(-76.65 -143.666)" fill="#b27749"/>
        <path id="Trazado_1031631" data-name="Trazado 1031631" d="M96.02,206.433l2.826.032a5.385,5.385,0,0,1,4.436.069c.076-.652,2.145-.606,2.339-.005.021-.154.054-.372.172-.4.421-.112,2.283-.148,2.364.4.066-.651,2.118-.6,2.3,0,.021-.154.056-.375.172-.4.458-.109,2.259-.15,2.364.4.066-.651,2.118-.6,2.3,0,.021-.154.055-.372.172-.4.421-.111,2.283-.145,2.364.4.079-.652,2.146-.6,2.336.006a5.314,5.314,0,0,1,4.437-.068l2.815.077c.18-.646,2.226-.615,2.452-.005l4.8,0c.174-.642,2.222-.613,2.452,0l4.8-.007.218-.405a4.67,4.67,0,0,0,1.816-.158l-.008-23.371.4-.245.05-2.393,2.375.025,0,28.977-50.713,0Z" transform="translate(-76.681 -143.712)" fill="#9e6643"/>
        <path id="Trazado_1031632" data-name="Trazado 1031632" d="M326.323,191.838l.008,24.155-2.436.024.018-24.139Z" transform="translate(-258.661 -153.201)" fill="#040505"/>
        <path id="Trazado_1031633" data-name="Trazado 1031633" d="M254.344,216.209l-2.452.005.018-24.149h2.416Z" transform="translate(-201.159 -153.382)" fill="#040505"/>
        <path id="Trazado_1031634" data-name="Trazado 1031634" d="M290.346,216.206h-2.452l.018-24.14h2.416Z" transform="translate(-229.91 -153.383)" fill="#040505"/>
        <path id="Trazado_1031635" data-name="Trazado 1031635" d="M112.825,193.139l-.029,1.2-2.383.019-.018,2.382-1.2.03-1.209-.029.006-3.6a1.175,1.175,0,0,1,1.206-1.2l3.593-.009Z" transform="translate(-86.239 -153.276)" fill="#040505"/>
        <path id="Trazado_1031636" data-name="Trazado 1031636" d="M219.507,196.774l-1.118-.038-.018-2.376-2.383-.019-.028-1.2.031-1.207,3.6.009a1.175,1.175,0,0,1,1.2,1.2l.006,3.6Z" transform="translate(-172.464 -153.278)" fill="#040505"/>
        <path id="Trazado_1031637" data-name="Trazado 1031637" d="M109.191,287.911l1.205.033.013,2.387,2.389.014.023,1.194c.6-.08.588,1.094.015,1.208-1.492,0-2.972-.1-4.437-.069a3.06,3.06,0,0,1-.406-1.139l-.01-3.6Z" transform="translate(-86.235 -229.924)" fill="#040505"/>
        <path id="Trazado_1031638" data-name="Trazado 1031638" d="M217.8,287.913l1.2.029.017,3.2a3.059,3.059,0,0,1-.428,1.534c-1.46-.04-2.945.072-4.437.068-.6-.01-.56-1.117.015-1.208l.02-1.192,2.392-.019.013-2.384Z" transform="translate(-170.679 -229.926)" fill="#040505"/>
        <path id="Trazado_1031639" data-name="Trazado 1031639" d="M170.384,193.154l-.028,1.2h-2.37l-.029-1.2.027-1.2h2.372Z" transform="translate(-134.13 -153.291)" fill="#050605"/>
        <path id="Trazado_1031640" data-name="Trazado 1031640" d="M109.3,245.92l1.125.033-.005,2.358-1.283.032-1.12-.024v-2.374Z" transform="translate(-86.261 -196.39)" fill="#050605"/>
        <path id="Trazado_1031641" data-name="Trazado 1031641" d="M194.384,193.154l-.028,1.2h-2.37l-.029-1.2.027-1.2h2.372Z" transform="translate(-153.297 -153.291)" fill="#050605"/>
        <path id="Trazado_1031642" data-name="Trazado 1031642" d="M109.3,269.92l1.125.033,0,2.358-1.2.035-1.2-.025v-2.376Z" transform="translate(-86.262 -215.557)" fill="#050605"/>
        <path id="Trazado_1031643" data-name="Trazado 1031643" d="M146.384,193.154l-.028,1.2h-2.37l-.029-1.2.027-1.2h2.372Z" transform="translate(-114.964 -153.291)" fill="#050605"/>
        <path id="Trazado_1031644" data-name="Trazado 1031644" d="M109.3,221.92l1.125.033-.005,2.358-1.283.032-1.12-.024v-2.374Z" transform="translate(-86.261 -177.224)" fill="#050605"/>
        <path id="Trazado_1031645" data-name="Trazado 1031645" d="M134.415,305.857c.6.032.522,1.143-.057,1.216l-2.339.005-.014-1.208Z" transform="translate(-105.419 -244.256)" fill="#b17648"/>
        <path id="Trazado_1031646" data-name="Trazado 1031646" d="M156.775,305.857c.6.032.522,1.142-.056,1.215h-2.3c-.6.025-.627-1.087-.058-1.214Z" transform="translate(-122.945 -244.256)" fill="#b17648"/>
        <path id="Trazado_1031647" data-name="Trazado 1031647" d="M180.775,305.857c.6.032.522,1.142-.056,1.215h-2.3c-.6.026-.627-1.087-.058-1.214Z" transform="translate(-142.112 -244.256)" fill="#b17648"/>
        <path id="Trazado_1031648" data-name="Trazado 1031648" d="M146.167,301.127l.058,1.214-2.536,0,.057-1.216.02-1.193h2.383Z" transform="translate(-114.749 -239.526)" fill="#090909"/>
        <path id="Trazado_1031649" data-name="Trazado 1031649" d="M147.026,302.947l-2.011,0v-2l2,0Z" transform="translate(-115.808 -240.337)" fill="#040504"/>
        <path id="Trazado_1031650" data-name="Trazado 1031650" d="M170.168,301.127l.058,1.214H167.69l.056-1.215.02-1.193h2.383Z" transform="translate(-133.916 -239.526)" fill="#090909"/>
        <path id="Trazado_1031651" data-name="Trazado 1031651" d="M171.026,302.947l-2.011,0v-2l2,0Z" transform="translate(-134.975 -240.337)" fill="#040504"/>
        <path id="Trazado_1031652" data-name="Trazado 1031652" d="M194.168,301.127l.058,1.216H191.69l.056-1.215.02-1.193h2.383Z" transform="translate(-153.083 -239.526)" fill="#090909"/>
        <path id="Trazado_1031653" data-name="Trazado 1031653" d="M195.026,302.947l-2.011,0v-2l2,0Z" transform="translate(-154.141 -240.337)" fill="#040504"/>
        <path id="Trazado_1031654" data-name="Trazado 1031654" d="M119.7,197.9q.483-.086.479.8h1.4a.953.953,0,0,1,.547-.8h2.407q.483-.086.479.8h1.4a.953.953,0,0,1,.547-.8h2.407q.483-.086.479.8h1.4a.953.953,0,0,1,.547-.8H134.2q.477-.085.485.8a6.213,6.213,0,0,1,2.14.173,5.585,5.585,0,0,1,.2,2.231c.375-.018.628-.017.718.428l.164,1.2q-.081.556-.885.431l0,1.557q.621-.072.72.444l.162,2.4q-.08.556-.885.432l0,1.556q.621-.072.72.444l.162,2.4q-.08.556-.885.432l0,1.557q.617-.079.718.438l.082,1.2q.085.477-.805.488a6.192,6.192,0,0,1-.169,2.141,5.037,5.037,0,0,1-2.11.2.974.974,0,0,1-.546.794c-.165.64-2.2.6-2.41-.014q-.482.085-.472-.79h-1.408a.946.946,0,0,1-.541.79c-.162.641-2.195.613-2.412,0q-.482.085-.472-.79h-1.408a.946.946,0,0,1-.541.79c-.162.641-2.195.613-2.412,0q-.482.085-.472-.79H120.24a.946.946,0,0,1-.541.79c-.157.642-2.19.626-2.41.013q-.478.085-.479-.794a6.21,6.21,0,0,1-2.145-.17,5.012,5.012,0,0,1-.2-2.106,1,1,0,0,1-.805-.557l0-1.2q-.083-.537.8-.436l0-1.557q-.616.088-.722-.433l-.163-2.411q.079-.553.881-.433l0-1.557q-.616.089-.722-.433l-.163-2.411q.079-.553.881-.433l0-1.557q-.616.089-.722-.433l-.08-1.2q-.086-.477.8-.486a6.2,6.2,0,0,1,.173-2.139,5.02,5.02,0,0,1,2.1-.2.988.988,0,0,1,.553-.8Z" transform="translate(-90.702 -158.032)" fill="#bbdae7"/>
        <path id="Trazado_1031655" data-name="Trazado 1031655" d="M229.279,221.914l1.12.028v2.371l-1.281.034L228,224.3l-.005-2.357Z" transform="translate(-182.072 -177.219)" fill="#050605"/>
        <path id="Trazado_1031656" data-name="Trazado 1031656" d="M229.279,245.911l1.12.028v2.371l-1.281.034L228,248.3l-.005-2.357Z" transform="translate(-182.072 -196.384)" fill="#050605"/>
        <path id="Trazado_1031657" data-name="Trazado 1031657" d="M229.279,269.911l1.12.028v2.371l-1.283.029-1.12-.037,0-2.358Z" transform="translate(-182.072 -215.55)" fill="#050605"/>
        <path id="Trazado_1031658" data-name="Trazado 1031658" d="M204.773,305.871l-.015,1.208-2.337-.006c-.6.025-.627-1.089-.058-1.216Z" transform="translate(-161.278 -244.256)" fill="#b17648"/>
        <path id="Trazado_1031659" data-name="Trazado 1031659" d="M147.778,230.439l-14.555-.01A1.2,1.2,0,0,1,132,229.212V217.154a1.185,1.185,0,0,1,1.221-1.215l14.469-.006a1.2,1.2,0,0,1,1.219,1.22v12.056a1.219,1.219,0,0,1-1.133,1.23" transform="translate(-105.416 -172.443)" fill="#040504"/>
        <path id="Trazado_1031660" data-name="Trazado 1031660" d="M144.072,235.259l.235-.4h6.79c1.248-.12,2.223-.654,2.158-2.069l.4-.55c.047-1.36.109-2.733.049-4.223l2.432,0,0,9.651H144.082Z" transform="translate(-115.055 -182.089)" fill="#578945"/>
        <path id="Trazado_1031661" data-name="Trazado 1031661" d="M153.581,232.22c-.024.7.124,1.406-.417,2.039a2.66,2.66,0,0,1-2.137.983H144L143.977,228l2.41-.005.015,3.609a1.18,1.18,0,0,0,1.209,1.208l4.819,0a1.621,1.621,0,0,0,1.151-.591" transform="translate(-114.979 -182.072)" fill="#68a652"/>
        <path id="Trazado_1031662" data-name="Trazado 1031662" d="M170.44,230.364l-2.409.006v-2.395l2.4,0Z" transform="translate(-134.188 -182.06)" fill="#e3e5e5"/>
        <path id="Trazado_1031663" data-name="Trazado 1031663" d="M127.668,32.344h-55.5l0-2.416h55.507Z" transform="translate(-57.632 -23.9)" fill="#d2d1d0"/>
        <path id="Trazado_1031664" data-name="Trazado 1031664" d="M32.392,77.983,29.966,78l-.005-6,2.419-.012Z" transform="translate(-23.927 -57.494)" fill="#d1d1d0"/>
        <path id="Trazado_1031665" data-name="Trazado 1031665" d="M205.8,56.3l-5.374.045-.609-2.409,6.514-.01Z" transform="translate(-159.571 -43.066)" fill="#505050"/>
        <path id="Trazado_1031666" data-name="Trazado 1031666" d="M18.892,21.58l-4.047.014L12.012,18.76V14.772l2.834-2.838,3.991,0,2.831,2.834,0,3.989Z" transform="translate(-9.593 -9.53)" fill="#3687bd"/>
        <path id="Trazado_1031667" data-name="Trazado 1031667" d="M20.824,18.068a3.616,3.616,0,1,1-2.674,4.485,3.585,3.585,0,0,1,2.674-4.485" transform="translate(-14.39 -14.352)" fill="#040505"/>
        <path id="Trazado_1031668" data-name="Trazado 1031668" d="M30.906,30.044a1.2,1.2,0,0,1,.75,2.273,1.2,1.2,0,0,1-1.537-.714,1.184,1.184,0,0,1,.787-1.559" transform="translate(-23.997 -23.956)" fill="#626262"/>
      </g>
    </g>
  </g>
</svg>
