<svg xmlns="http://www.w3.org/2000/svg" xmlns:xlink="http://www.w3.org/1999/xlink" width="292" height="163" viewBox="0 0 292 163">
  <defs>
    <clipPath id="clip-path">
      <rect id="Rectángulo_459781" data-name="Rectángulo 459781" width="213" height="142" transform="translate(0 -0.001)" fill="none"/>
    </clipPath>
    <clipPath id="clip-path-2">
      <path id="Trazado_1030384" data-name="Trazado 1030384" d="M719.387,169.205a8.483,8.483,0,1,0,8.483-8.483,8.483,8.483,0,0,0-8.483,8.483" transform="translate(-719.387 -160.722)" fill="none"/>
    </clipPath>
    <clipPath id="clip-path-4">
      <path id="Trazado_1030393" data-name="Trazado 1030393" d="M438.177,148.887a12.655,12.655,0,1,0,12.655-12.655,12.655,12.655,0,0,0-12.655,12.655" transform="translate(-438.177 -136.232)" fill="none"/>
    </clipPath>
    <clipPath id="clip-path-6">
      <path id="Trazado_1030403" data-name="Trazado 1030403" d="M593.665,17.291A8.892,8.892,0,1,0,602.557,8.4a8.892,8.892,0,0,0-8.892,8.892" transform="translate(-593.665 -8.399)" fill="none"/>
    </clipPath>
  </defs>
  <g id="Grupo_1187587" data-name="Grupo 1187587" transform="translate(-1122 -8174)">
    <rect id="Rectángulo_458707" data-name="Rectángulo 458707" width="292" height="163" rx="10" transform="translate(1122 8174)" fill="#f2a4ab"/>
    <g id="Grupo_1187586" data-name="Grupo 1187586" transform="translate(1162.133 8185.47)">
      <path id="Trazado_1030369" data-name="Trazado 1030369" d="M657.629,148.628H623.052l4.732-39.781h26.86Z" transform="translate(-517.021 -90.409)" fill="#fff"/>
      <g id="Grupo_1187573" data-name="Grupo 1187573" transform="translate(-0.422 -0.469)">
        <g id="Grupo_1187572" data-name="Grupo 1187572" clip-path="url(#clip-path)">
          <path id="Trazado_1030370" data-name="Trazado 1030370" d="M656.8,147.969H622.224a.17.17,0,0,1-.169-.19L626.786,108a.17.17,0,0,1,.169-.15h26.86a.17.17,0,0,1,.17.158l2.985,39.781a.17.17,0,0,1-.17.183m-34.385-.341h34.2l-2.959-39.44h-26.55Z" transform="translate(-515.77 -89.111)"/>
          <path id="Trazado_1030371" data-name="Trazado 1030371" d="M703.852,148.628H670.5l-4.652-39.781h30.96Z" transform="translate(-552.103 -89.94)" fill="#fff"/>
          <path id="Trazado_1030372" data-name="Trazado 1030372" d="M703.023,147.969H669.668a.17.17,0,0,1-.169-.151l-4.652-39.781a.17.17,0,0,1,.169-.19h30.96a.17.17,0,0,1,.168.141l7.046,39.781a.17.17,0,0,1-.168.2m-33.2-.341h33l-6.986-39.44H665.208Z" transform="translate(-551.274 -89.111)"/>
          <path id="Trazado_1030373" data-name="Trazado 1030373" d="M731.985,25.55a.17.17,0,0,1-.17-.17V9.086a6.467,6.467,0,0,0-12.934,0V25.379a.17.17,0,0,1-.341,0V9.086a6.808,6.808,0,0,1,13.616,0V25.379a.17.17,0,0,1-.17.17" transform="translate(-595.823 -1.536)"/>
          <path id="Trazado_1030374" data-name="Trazado 1030374" d="M555.369,85.562H511.643a.17.17,0,0,1-.127-.284l22.722-25.52a.174.174,0,0,1,.131-.057.169.169,0,0,1,.128.062l21,25.52a.17.17,0,0,1-.132.278m-43.346-.341h42.986L534.359,60.134Z" transform="translate(-424.025 -49.166)" fill="#5479f7"/>
          <path id="Trazado_1030375" data-name="Trazado 1030375" d="M731.7,163.35a9.685,9.685,0,1,1-9.685-9.685,9.686,9.686,0,0,1,9.685,9.685" transform="translate(-590.669 -127.125)" fill="#fff"/>
          <path id="Trazado_1030376" data-name="Trazado 1030376" d="M721.184,172.375a9.856,9.856,0,1,1,9.856-9.856,9.867,9.867,0,0,1-9.856,9.856m0-19.371a9.515,9.515,0,1,0,9.515,9.515A9.526,9.526,0,0,0,721.184,153" transform="translate(-589.839 -126.294)" fill="#5479f7"/>
        </g>
      </g>
      <g id="Grupo_1187575" data-name="Grupo 1187575" transform="translate(122.44 27.273)">
        <g id="Grupo_1187574" data-name="Grupo 1187574" clip-path="url(#clip-path-2)">
          <path id="Trazado_1030377" data-name="Trazado 1030377" d="M747.835,183.824H737.229a.171.171,0,0,1-.17-.179l.528-10.544c.169-3.375,2.341-6.019,4.945-6.019s4.776,2.644,4.945,6.019L748,183.645a.17.17,0,0,1-.17.179m-10.426-.341h10.247l-.519-10.366c-.16-3.193-2.182-5.7-4.6-5.7s-4.445,2.5-4.6,5.7Z" transform="translate(-734.049 -165.999)"/>
          <path id="Trazado_1030378" data-name="Trazado 1030378" d="M735.146,217.237a3.649,3.649,0,0,0-2.687-2.542l-2.729-.629v-3.447h-4.138v3.447l-2.729.629a3.65,3.65,0,0,0-2.687,2.542l-1.041,5.5h17.052Z" transform="translate(-719.179 -202.12)" fill="#fff"/>
          <path id="Trazado_1030379" data-name="Trazado 1030379" d="M735.358,222.078H718.307a.17.17,0,0,1-.167-.2l1.041-5.5A3.826,3.826,0,0,1,722,213.7l2.6-.6v-3.311a.17.17,0,0,1,.17-.17H728.9a.17.17,0,0,1,.17.17V213.1l2.6.6a3.822,3.822,0,0,1,2.812,2.661.146.146,0,0,1,0,.016l1.041,5.5a.17.17,0,0,1-.167.2m-16.846-.341h16.641l-1-5.291a3.481,3.481,0,0,0-2.559-2.416l-2.729-.629a.17.17,0,0,1-.132-.166V209.96h-3.8v3.277a.17.17,0,0,1-.132.166l-2.729.629a3.481,3.481,0,0,0-2.561,2.423Z" transform="translate(-718.349 -201.29)"/>
          <path id="Trazado_1030380" data-name="Trazado 1030380" d="M752.821,179.364a.737.737,0,0,0-.445.031,3.026,3.026,0,1,0-6.041,0,.737.737,0,0,0-.445-.031,1,1,0,0,0,.475,1.911.71.71,0,0,0,.2-.085,2.807,2.807,0,0,0,5.58,0,.711.711,0,0,0,.2.085,1,1,0,0,0,.475-1.911" transform="translate(-740.873 -173.549)" fill="#fff"/>
          <path id="Trazado_1030381" data-name="Trazado 1030381" d="M748.525,183.027a3.343,3.343,0,0,1-2.889-2.434l-.059.017a1.089,1.089,0,0,1-1.254-.878,1.241,1.241,0,0,1,.082-.851.938.938,0,0,1,.615-.512.887.887,0,0,1,.333-.018,3.173,3.173,0,0,1,6.346,0,.888.888,0,0,1,.333.018.938.938,0,0,1,.615.512,1.283,1.283,0,0,1-.389,1.565.939.939,0,0,1-.783.164l-.059-.017a3.343,3.343,0,0,1-2.89,2.434m-2.79-2.837a.174.174,0,0,1,.059.011.171.171,0,0,1,.1.107,2.641,2.641,0,0,0,5.256,0,.17.17,0,0,1,.251-.093.541.541,0,0,0,.152.065.6.6,0,0,0,.5-.11.943.943,0,0,0,.282-1.137.6.6,0,0,0-.392-.332.573.573,0,0,0-.343.025.17.17,0,0,1-.231-.148,2.857,2.857,0,1,0-5.7,0,.17.17,0,0,1-.231.148.564.564,0,0,0-.343-.025.6.6,0,0,0-.392.332.9.9,0,0,0-.057.618.751.751,0,0,0,.841.63.534.534,0,0,0,.153-.065.17.17,0,0,1,.089-.025" transform="translate(-740.042 -172.72)"/>
          <path id="Trazado_1030382" data-name="Trazado 1030382" d="M751.046,177.331a7.679,7.679,0,0,0,4.03-2.842,4.157,4.157,0,0,0,2.136,2.776s.476-4.285-3.1-4.147-3.071,4.213-3.071,4.213" transform="translate(-745.634 -171.004)" fill="#fff"/>
          <path id="Trazado_1030383" data-name="Trazado 1030383" d="M750.215,183.365a.17.17,0,0,1-.169-.15,5.717,5.717,0,0,1,.069-1.581.17.17,0,0,1,.335.062,5.635,5.635,0,0,0-.081,1.291,7.8,7.8,0,0,0,3.741-2.739.17.17,0,0,1,.3.076,4.09,4.09,0,0,0,1.815,2.535,6,6,0,0,0-.106-1.364.17.17,0,0,1,.334-.067,6.158,6.158,0,0,1,.094,1.719.17.17,0,0,1-.238.137,4.387,4.387,0,0,1-2.153-2.556,7.661,7.661,0,0,1-3.913,2.634l-.031,0" transform="translate(-744.802 -176.868)"/>
        </g>
      </g>
      <g id="Grupo_1187577" data-name="Grupo 1187577" transform="translate(-0.422 -0.469)">
        <g id="Grupo_1187576" data-name="Grupo 1187576" clip-path="url(#clip-path)">
          <path id="Trazado_1030385" data-name="Trazado 1030385" d="M456.543,140.15A14.448,14.448,0,1,1,442.1,125.7a14.448,14.448,0,0,1,14.448,14.448" transform="translate(-354.477 -103.924)" fill="#fff"/>
          <path id="Trazado_1030386" data-name="Trazado 1030386" d="M441.266,153.939a14.619,14.619,0,1,1,14.618-14.618,14.635,14.635,0,0,1-14.618,14.618m0-28.9a14.278,14.278,0,1,0,14.278,14.278,14.294,14.294,0,0,0-14.278-14.278" transform="translate(-353.648 -103.095)" fill="#5479f7"/>
        </g>
      </g>
      <g id="Grupo_1187579" data-name="Grupo 1187579" transform="translate(74.542 23.102)">
        <g id="Grupo_1187578" data-name="Grupo 1187578" clip-path="url(#clip-path-4)">
          <path id="Trazado_1030387" data-name="Trazado 1030387" d="M461.686,220.536a5.443,5.443,0,0,0-4.008-3.792l-4.071-.938v-5.142h-6.172v5.142l-4.072.938a5.443,5.443,0,0,0-4.007,3.792l-1.553,8.206H463.24Z" transform="translate(-437.867 -197.986)" fill="#fff"/>
          <path id="Trazado_1030388" data-name="Trazado 1030388" d="M462.41,228.081H436.974a.17.17,0,0,1-.167-.2l1.553-8.206a5.622,5.622,0,0,1,4.137-3.927l3.939-.907v-5.006a.17.17,0,0,1,.17-.17h6.172a.17.17,0,0,1,.17.17v5.006l3.939.907a5.618,5.618,0,0,1,4.133,3.911l0,.016,1.553,8.206a.17.17,0,0,1-.167.2m-25.231-.341H462.2l-1.514-8a5.276,5.276,0,0,0-3.88-3.666l-4.071-.938a.17.17,0,0,1-.132-.166V210h-5.832v4.972a.17.17,0,0,1-.132.166l-4.071.938a5.277,5.277,0,0,0-3.882,3.673Z" transform="translate(-437.037 -197.156)"/>
          <path id="Trazado_1030389" data-name="Trazado 1030389" d="M488.288,164.817a1.09,1.09,0,0,0-.657.046c-.178-2.828-2.107-4.746-4.462-4.746s-4.285,1.918-4.462,4.746a1.09,1.09,0,0,0-.657-.046,1.474,1.474,0,0,0,.7,2.823,1.062,1.062,0,0,0,.3-.125c.681,2.089,2.27,3.688,4.122,3.688s3.441-1.6,4.122-3.688a1.06,1.06,0,0,0,.3.125,1.474,1.474,0,0,0,.7-2.823" transform="translate(-470.514 -156.049)" fill="#fff"/>
          <path id="Trazado_1030390" data-name="Trazado 1030390" d="M482.336,170.544c-1.77,0-3.446-1.446-4.22-3.618a1.2,1.2,0,0,1-.156.051,1.307,1.307,0,0,1-1.09-.23,1.814,1.814,0,0,1-.549-2.21,1.307,1.307,0,0,1,.855-.714,1.24,1.24,0,0,1,.545-.01c.259-2.733,2.172-4.7,4.615-4.7s4.356,1.962,4.616,4.7a1.239,1.239,0,0,1,.545.01,1.307,1.307,0,0,1,.855.714,1.756,1.756,0,0,1,.115,1.2,1.529,1.529,0,0,1-1.754,1.238,1.17,1.17,0,0,1-.156-.051c-.774,2.173-2.451,3.618-4.22,3.618m-4.122-4.028a.175.175,0,0,1,.059.011.17.17,0,0,1,.1.107c.7,2.136,2.288,3.57,3.96,3.57s3.264-1.435,3.96-3.57a.171.171,0,0,1,.251-.093.89.89,0,0,0,.248.105,1.19,1.19,0,0,0,1.341-.99,1.415,1.415,0,0,0-.09-.968.971.971,0,0,0-.632-.534.925.925,0,0,0-.555.04.17.17,0,0,1-.231-.148c-.167-2.658-1.972-4.587-4.292-4.587s-4.125,1.929-4.292,4.587a.17.17,0,0,1-.231.148.926.926,0,0,0-.555-.04.971.971,0,0,0-.632.534,1.474,1.474,0,0,0,.443,1.782.972.972,0,0,0,.809.176.886.886,0,0,0,.248-.105.17.17,0,0,1,.089-.025" transform="translate(-469.682 -155.22)"/>
          <path id="Trazado_1030391" data-name="Trazado 1030391" d="M488.052,146.482c-3.825-.642-8.271.154-6.391,6.18l.488,1.445.781.529s-.22-3.973,1.025-4.179c1.177-.2,1.252.586,2.664.549,1.413.036,1.488-.745,2.664-.549,1.245.207,1.025,4.179,1.025,4.179l.781-.529.488-1.445c1.243-4.682-.749-6.527-3.526-6.18" transform="translate(-473.885 -144.583)" fill="#fff"/>
          <path id="Trazado_1030392" data-name="Trazado 1030392" d="M482.1,153.975a.171.171,0,0,1-.1-.029l-.781-.53a.169.169,0,0,1-.066-.086l-.488-1.445c-.718-2.3-.583-4.039.4-5.167,1.5-1.717,4.489-1.518,6.156-1.241a3.528,3.528,0,0,1,3.2,1.008c.963,1.1,1.133,2.966.49,5.388l-.491,1.456a.168.168,0,0,1-.066.087l-.781.53a.17.17,0,0,1-.266-.15c.081-1.477-.087-3.869-.883-4a1.639,1.639,0,0,0-1.157.208,3.358,3.358,0,0,1-2.96,0,1.637,1.637,0,0,0-1.157-.208c-.8.132-.965,2.525-.883,4a.17.17,0,0,1-.17.18m5.994-4.552a2.355,2.355,0,0,1,.387.034c1.171.195,1.207,2.987,1.181,4.017l.455-.308.47-1.391c.609-2.3.464-4.052-.421-5.066a3.168,3.168,0,0,0-2.922-.891.171.171,0,0,1-.049,0c-1.592-.267-4.47-.476-5.867,1.124-.9,1.032-1.012,2.66-.333,4.837l.469,1.387.454.308c-.027-1.031.009-3.823,1.18-4.017a1.96,1.96,0,0,1,1.361.237,3.015,3.015,0,0,0,2.662,0,2.047,2.047,0,0,1,.974-.271" transform="translate(-473.056 -143.75)"/>
        </g>
      </g>
      <g id="Grupo_1187581" data-name="Grupo 1187581" transform="translate(-0.422 -0.469)">
        <g id="Grupo_1187580" data-name="Grupo 1187580" clip-path="url(#clip-path)">
          <path id="Trazado_1030394" data-name="Trazado 1030394" d="M606.572,11.153A10.152,10.152,0,1,1,596.419,1a10.153,10.153,0,0,1,10.153,10.153" transform="translate(-486.08 -0.463)" fill="#fff"/>
          <path id="Trazado_1030395" data-name="Trazado 1030395" d="M595.59,20.646a10.323,10.323,0,1,1,10.323-10.323A10.334,10.334,0,0,1,595.59,20.646m0-20.3a9.982,9.982,0,1,0,9.982,9.982A9.993,9.993,0,0,0,595.59.341" transform="translate(-485.25 0.367)" fill="#5479f7"/>
        </g>
      </g>
      <g id="Grupo_1187583" data-name="Grupo 1187583" transform="translate(101.026 1.329)">
        <g id="Grupo_1187582" data-name="Grupo 1187582" clip-path="url(#clip-path-6)">
          <path id="Trazado_1030396" data-name="Trazado 1030396" d="M623.526,25.606H612.409a.17.17,0,0,1-.169-.193l.553-4.013c.175-3.519,2.449-6.286,5.174-6.286s5,2.768,5.176,6.3l.552,4a.17.17,0,0,1-.169.193M612.6,25.266H623.33l-.526-3.82c-.169-3.367-2.293-5.992-4.837-5.992s-4.667,2.626-4.835,5.977Z" transform="translate(-609.075 -13.969)"/>
          <path id="Trazado_1030397" data-name="Trazado 1030397" d="M610.185,67.638a3.825,3.825,0,0,0-2.816-2.665l-2.861-.659V60.7H600.17v3.613l-2.861.659a3.825,3.825,0,0,0-2.816,2.665L593.4,73.4h17.874Z" transform="translate(-593.447 -51.793)" fill="#fff"/>
          <path id="Trazado_1030398" data-name="Trazado 1030398" d="M610.447,72.744H592.573a.17.17,0,0,1-.167-.2l1.091-5.766a4,4,0,0,1,2.945-2.8l2.729-.629V59.871a.17.17,0,0,1,.17-.17h4.337a.17.17,0,0,1,.17.17v3.478l2.729.629a4,4,0,0,1,2.941,2.783c0,.005,0,.01,0,.015l1.091,5.766a.17.17,0,0,1-.167.2M592.778,72.4h17.463l-1.052-5.556a3.658,3.658,0,0,0-2.689-2.539l-2.861-.659a.17.17,0,0,1-.132-.166V60.042h-4v3.443a.17.17,0,0,1-.132.166l-2.861.659a3.658,3.658,0,0,0-2.691,2.546Z" transform="translate(-592.617 -50.963)"/>
          <path id="Trazado_1030399" data-name="Trazado 1030399" d="M628.712,27.94a.773.773,0,0,0-.466.033,3.172,3.172,0,1,0-6.332,0,.772.772,0,0,0-.466-.033,1.046,1.046,0,0,0,.5,2,.744.744,0,0,0,.21-.089,2.943,2.943,0,0,0,5.849,0,.743.743,0,0,0,.21.089,1.046,1.046,0,0,0,.5-2" transform="translate(-616.187 -21.845)" fill="#fff"/>
          <path id="Trazado_1030400" data-name="Trazado 1030400" d="M624.251,31.81a3.5,3.5,0,0,1-3.024-2.553c-.023.008-.046.015-.07.02a1.214,1.214,0,0,1-.58-2.333.922.922,0,0,1,.355-.017,3.319,3.319,0,1,1,6.637,0,.922.922,0,0,1,.354.017,1.214,1.214,0,0,1-.58,2.333c-.023-.006-.046-.013-.069-.02a3.5,3.5,0,0,1-3.024,2.553m-2.925-2.957a.17.17,0,0,1,.162.118,2.777,2.777,0,0,0,5.525,0,.17.17,0,0,1,.251-.093.587.587,0,0,0,.162.069.879.879,0,0,0,.416-1.672.607.607,0,0,0-.364.026.17.17,0,0,1-.231-.148,3,3,0,1,0-5.992,0,.17.17,0,0,1-.231.148.607.607,0,0,0-.364-.026.879.879,0,0,0,.415,1.672.57.57,0,0,0,.162-.069.17.17,0,0,1,.089-.025" transform="translate(-615.359 -21.014)"/>
          <path id="Trazado_1030401" data-name="Trazado 1030401" d="M626.852,25.809a8.049,8.049,0,0,0,4.224-2.979,4.357,4.357,0,0,0,2.239,2.909s.5-4.491-3.245-4.346-3.219,4.416-3.219,4.416" transform="translate(-621.178 -19.177)" fill="#fff"/>
          <path id="Trazado_1030402" data-name="Trazado 1030402" d="M626.021,37.829a.17.17,0,0,1-.169-.15,6,6,0,0,1,.072-1.655.17.17,0,1,1,.335.062,5.918,5.918,0,0,0-.084,1.372,20.5,20.5,0,0,1,6.154-.1,6.3,6.3,0,0,0-.109-1.479.17.17,0,0,1,.334-.067,6.44,6.44,0,0,1,.1,1.8.171.171,0,0,1-.238.137c-1.005-.445-4.831-.207-6.363.081l-.031,0" transform="translate(-620.347 -31.027)"/>
        </g>
      </g>
      <g id="Grupo_1187585" data-name="Grupo 1187585" transform="translate(-0.422 -0.469)">
        <g id="Grupo_1187584" data-name="Grupo 1187584" clip-path="url(#clip-path)">
          <rect id="Rectángulo_459784" data-name="Rectángulo 459784" width="64.578" height="35.367" transform="translate(141.036 57.452)" fill="#fff"/>
          <path id="Trazado_1030404" data-name="Trazado 1030404" d="M889.837,369.859H825.259a.17.17,0,0,1-.17-.17V334.322a.17.17,0,0,1,.17-.17h64.578a.17.17,0,0,1,.17.17v35.367a.17.17,0,0,1-.17.17m-64.408-.341h64.238V334.492H825.43Z" transform="translate(-684.224 -276.87)"/>
          <rect id="Rectángulo_459785" data-name="Rectángulo 459785" width="52.6" height="32.394" transform="translate(146.942 54.923)" fill="#fff"/>
          <path id="Trazado_1030405" data-name="Trazado 1030405" d="M912.538,352.032h-52.6a.17.17,0,0,1-.17-.17V319.468a.17.17,0,0,1,.17-.17h52.6a.17.17,0,0,1,.17.17v32.394a.17.17,0,0,1-.17.17m-52.429-.341h52.259V319.639H860.109Z" transform="translate(-712.996 -264.546)"/>
          <path id="Trazado_1030406" data-name="Trazado 1030406" d="M845.793,269.151l-1.032,16.379c-.006.188,0,.354-.009.535a4.461,4.461,0,0,1-4.4,4.4,4.375,4.375,0,0,1-4.367-4.933l2.263-16.381Z" transform="translate(-693.232 -222.94)" fill="#e2eaff"/>
          <path id="Trazado_1030407" data-name="Trazado 1030407" d="M1040.959,285.557l-.021-16.281v-.1h8.3l.484,16.381v.545a4.385,4.385,0,1,1-8.77-.011Z" transform="translate(-863.308 -222.961)" fill="#e2eaff"/>
          <path id="Trazado_1030408" data-name="Trazado 1030408" d="M947.3,285.553l.364-16.377h-8.654l-.484,16.381v.544a4.385,4.385,0,1,0,8.77-.011Z" transform="translate(-778.336 -222.961)" fill="#e2eaff"/>
          <path id="Trazado_1030409" data-name="Trazado 1030409" d="M998.655,285.557l.01-16.381H989.9l-.007,16.384c0,.171,0,.359,0,.54a4.39,4.39,0,1,0,8.78-.009Z" transform="translate(-820.95 -222.961)" fill="#5479f7"/>
          <path id="Trazado_1030410" data-name="Trazado 1030410" d="M1137.421,269.373l.987,16.379c.006.188,0,.354.009.535a4.462,4.462,0,0,0,4.4,4.4,4.375,4.375,0,0,0,4.367-4.933l-2.264-16.381Z" transform="translate(-943.357 -223.124)" fill="#e2eaff"/>
          <path id="Trazado_1030411" data-name="Trazado 1030411" d="M795.455,269.175,793.2,285.556c-.02.186-.029.354-.048.534a4.568,4.568,0,0,1-4.4,4.4,4.376,4.376,0,0,1-4.367-4.933h-.014l4.7-16.381Z" transform="translate(-650.425 -222.96)" fill="#5479f7"/>
          <path id="Trazado_1030412" data-name="Trazado 1030412" d="M896.66,269.109h-8.19l-1.009,16.381c0,.176-.019.374-.019.555a4.394,4.394,0,0,0,8.788-.021l.007-.534Z" transform="translate(-735.957 -222.905)" fill="#5479f7"/>
          <path id="Trazado_1030413" data-name="Trazado 1030413" d="M1180.807,269.175l2.251,16.381c.02.186.029.354.048.534a4.568,4.568,0,0,0,4.4,4.4,4.4,4.4,0,0,0,4.4-4.4,4.449,4.449,0,0,0-.036-.534h.014l-4.7-16.381Z" transform="translate(-979.353 -222.96)" fill="#5479f7"/>
          <path id="Trazado_1030414" data-name="Trazado 1030414" d="M1089.584,269.373h8.19l1.009,16.381c0,.176.019.374.019.555a4.394,4.394,0,0,1-8.788-.021l-.007-.534Z" transform="translate(-903.668 -223.124)" fill="#5479f7"/>
          <rect id="Rectángulo_459786" data-name="Rectángulo 459786" width="78.3" height="55.948" transform="translate(23.778 85.961)" fill="#fff"/>
          <path id="Trazado_1030415" data-name="Trazado 1030415" d="M215.134,557.815h-78.3a.17.17,0,0,1-.17-.17V501.7a.17.17,0,0,1,.17-.17h78.3a.17.17,0,0,1,.17.17v55.948a.17.17,0,0,1-.17.17M137,557.474h77.96V501.867H137Z" transform="translate(-113.055 -415.735)"/>
          <rect id="Rectángulo_459787" data-name="Rectángulo 459787" width="24.869" height="18.788" transform="translate(29.234 121.579)" fill="#5479f7"/>
          <path id="Trazado_1030416" data-name="Trazado 1030416" d="M231.365,732.564a.17.17,0,0,1-.17-.17V715.047a.17.17,0,1,1,.341,0v17.346a.17.17,0,0,1-.17.17" transform="translate(-191.486 -592.747)"/>
          <path id="Trazado_1030417" data-name="Trazado 1030417" d="M272.358,716.243a.17.17,0,0,1-.17-.17v-5.259a.17.17,0,1,1,.341,0v5.259a.17.17,0,0,1-.17.17" transform="translate(-225.497 -589.235)"/>
          <rect id="Rectángulo_459788" data-name="Rectángulo 459788" width="24.869" height="18.788" transform="translate(55.903 121.579)" fill="#5479f7"/>
          <path id="Trazado_1030418" data-name="Trazado 1030418" d="M387.942,732.564a.17.17,0,0,1-.17-.17V715.047a.17.17,0,1,1,.341,0v17.346a.17.17,0,0,1-.17.17" transform="translate(-321.394 -592.747)"/>
          <path id="Trazado_1030419" data-name="Trazado 1030419" d="M428.934,716.243a.17.17,0,0,1-.17-.17v-5.259a.17.17,0,1,1,.341,0v5.259a.17.17,0,0,1-.17.17" transform="translate(-355.404 -589.235)"/>
          <rect id="Rectángulo_459789" data-name="Rectángulo 459789" width="24.869" height="18.788" transform="translate(29.234 100.937)" fill="#5479f7"/>
          <path id="Trazado_1030420" data-name="Trazado 1030420" d="M231.365,611.373a.17.17,0,0,1-.17-.17V593.856a.17.17,0,0,1,.341,0V611.2a.17.17,0,0,1-.17.17" transform="translate(-191.486 -492.198)"/>
          <path id="Trazado_1030421" data-name="Trazado 1030421" d="M272.358,595.052a.17.17,0,0,1-.17-.17v-5.259a.17.17,0,0,1,.341,0v5.259a.17.17,0,0,1-.17.17" transform="translate(-225.497 -488.686)"/>
          <rect id="Rectángulo_459790" data-name="Rectángulo 459790" width="24.869" height="18.788" transform="translate(55.903 100.937)" fill="#5479f7"/>
          <path id="Trazado_1030422" data-name="Trazado 1030422" d="M387.942,611.373a.17.17,0,0,1-.17-.17V593.856a.17.17,0,0,1,.341,0V611.2a.17.17,0,0,1-.17.17" transform="translate(-321.394 -492.198)"/>
          <path id="Trazado_1030423" data-name="Trazado 1030423" d="M428.934,595.052a.17.17,0,0,1-.17-.17v-5.259a.17.17,0,0,1,.341,0v5.259a.17.17,0,0,1-.17.17" transform="translate(-355.404 -488.686)"/>
          <path id="Trazado_1030424" data-name="Trazado 1030424" d="M236.775,589.374a.17.17,0,0,1-.17-.17V542.633H169.827v5.818a.17.17,0,0,1-.341,0v-5.989a.17.17,0,0,1,.17-.17h67.119a.17.17,0,0,1,.17.17V589.2a.17.17,0,0,1-.17.17" transform="translate(-140.288 -449.558)"/>
          <path id="Trazado_1030425" data-name="Trazado 1030425" d="M219.585,477.307a.17.17,0,0,1-.17-.17v-4.854H136.833a.17.17,0,0,1,0-.341h82.751a.17.17,0,0,1,.17.17v5.024a.17.17,0,0,1-.17.17" transform="translate(-113.055 -391.19)"/>
          <path id="Trazado_1030426" data-name="Trazado 1030426" d="M123.145,69.725h8.141L129.775,4.5h-5.119Z" transform="translate(-101.84 -3.363)" fill="#fff"/>
          <path id="Trazado_1030427" data-name="Trazado 1030427" d="M130.457,69.066h-8.141a.17.17,0,0,1-.17-.174l1.511-65.23a.17.17,0,0,1,.17-.166h5.119a.17.17,0,0,1,.17.166l1.511,65.23a.17.17,0,0,1-.17.174m-7.967-.341h7.792l-1.5-64.889h-4.787Z" transform="translate(-101.011 -2.533)"/>
          <path id="Trazado_1030428" data-name="Trazado 1030428" d="M128.857,2.272h5.257a.636.636,0,0,0,0-1.272h-5.257a.636.636,0,0,0,0,1.272" transform="translate(-106.051 -0.463)" fill="#fff"/>
          <path id="Trazado_1030429" data-name="Trazado 1030429" d="M133.285,1.613h-5.257a.806.806,0,0,1,0-1.613h5.257a.806.806,0,0,1,0,1.613M128.028.341a.466.466,0,0,0,0,.932h5.257a.466.466,0,0,0,0-.932Z" transform="translate(-105.222 0.367)"/>
          <path id="Trazado_1030430" data-name="Trazado 1030430" d="M126.565,59.583h5.843a.636.636,0,0,0,0-1.272h-5.843a.636.636,0,0,0,0,1.272" transform="translate(-104.15 -48.012)" fill="#fff"/>
          <path id="Trazado_1030431" data-name="Trazado 1030431" d="M131.579,58.925h-5.843a.806.806,0,0,1,0-1.613h5.843a.806.806,0,0,1,0,1.613m-5.843-1.272a.466.466,0,0,0,0,.932h5.843a.466.466,0,0,0,0-.932Z" transform="translate(-103.321 -47.183)"/>
          <path id="Trazado_1030432" data-name="Trazado 1030432" d="M125.419,116.9h6.233a.636.636,0,0,0,0-1.272h-6.233a.636.636,0,0,0,0,1.272" transform="translate(-103.199 -95.562)" fill="#fff"/>
          <path id="Trazado_1030433" data-name="Trazado 1030433" d="M130.823,116.236H124.59a.806.806,0,0,1,0-1.613h6.233a.806.806,0,0,1,0,1.613m-6.233-1.272a.466.466,0,0,0,0,.932h6.233a.466.466,0,0,0,0-.932Z" transform="translate(-102.37 -94.732)"/>
          <path id="Trazado_1030434" data-name="Trazado 1030434" d="M125.419,185.669h6.428a.636.636,0,0,0,0-1.272h-6.428a.636.636,0,0,0,0,1.272" transform="translate(-103.199 -152.622)" fill="#fff"/>
          <path id="Trazado_1030435" data-name="Trazado 1030435" d="M131.018,185.01H124.59a.806.806,0,0,1,0-1.613h6.428a.806.806,0,1,1,0,1.613m-6.428-1.272a.466.466,0,0,0,0,.932h6.428a.466.466,0,1,0,0-.932Z" transform="translate(-102.37 -151.792)"/>
          <path id="Trazado_1030436" data-name="Trazado 1030436" d="M42.923,69.725h8.141L49.554,4.5H44.434Z" transform="translate(-35.282 -3.363)" fill="#fff"/>
          <path id="Trazado_1030437" data-name="Trazado 1030437" d="M50.234,69.066H42.093a.17.17,0,0,1-.17-.174l1.511-65.23a.17.17,0,0,1,.17-.166h5.119a.17.17,0,0,1,.17.166L50.4,68.891a.17.17,0,0,1-.17.174m-7.967-.341H50.06l-1.5-64.889H43.771Z" transform="translate(-34.452 -2.533)"/>
          <path id="Trazado_1030438" data-name="Trazado 1030438" d="M48.636,2.272h5.257a.636.636,0,0,0,0-1.272H48.636a.636.636,0,0,0,0,1.272" transform="translate(-39.494 -0.463)" fill="#fff"/>
          <path id="Trazado_1030439" data-name="Trazado 1030439" d="M53.063,1.613H47.806a.806.806,0,0,1,0-1.613h5.257a.806.806,0,0,1,0,1.613M47.806.341a.466.466,0,0,0,0,.932h5.257a.466.466,0,0,0,0-.932Z" transform="translate(-38.664 0.367)"/>
          <path id="Trazado_1030440" data-name="Trazado 1030440" d="M46.343,59.583h5.843a.636.636,0,0,0,0-1.272H46.343a.636.636,0,0,0,0,1.272" transform="translate(-37.592 -48.012)" fill="#fff"/>
          <path id="Trazado_1030441" data-name="Trazado 1030441" d="M51.357,58.925H45.514a.806.806,0,0,1,0-1.613h5.843a.806.806,0,0,1,0,1.613m-5.843-1.272a.466.466,0,0,0,0,.932h5.843a.466.466,0,0,0,0-.932Z" transform="translate(-36.763 -47.183)"/>
          <path id="Trazado_1030442" data-name="Trazado 1030442" d="M45.2,116.9H51.43a.636.636,0,0,0,0-1.272H45.2a.636.636,0,0,0,0,1.272" transform="translate(-36.641 -95.562)" fill="#fff"/>
          <path id="Trazado_1030443" data-name="Trazado 1030443" d="M50.6,116.236H44.368a.806.806,0,0,1,0-1.613H50.6a.806.806,0,0,1,0,1.613m-6.233-1.272a.466.466,0,0,0,0,.932H50.6a.466.466,0,0,0,0-.932Z" transform="translate(-35.812 -94.732)"/>
          <path id="Trazado_1030444" data-name="Trazado 1030444" d="M45.2,185.669h6.428a.636.636,0,0,0,0-1.272H45.2a.636.636,0,0,0,0,1.272" transform="translate(-36.641 -152.622)" fill="#fff"/>
          <path id="Trazado_1030445" data-name="Trazado 1030445" d="M50.8,185.01H44.368a.806.806,0,0,1,0-1.613H50.8a.806.806,0,0,1,0,1.613m-6.428-1.272a.466.466,0,0,0,0,.932H50.8a.466.466,0,0,0,0-.932Z" transform="translate(-35.812 -151.792)"/>
          <path id="Trazado_1030446" data-name="Trazado 1030446" d="M233.1,140.347h10.518l-1.952-44.214h-6.614Z" transform="translate(-193.063 -79.392)" fill="#fff"/>
          <path id="Trazado_1030447" data-name="Trazado 1030447" d="M242.784,139.688H232.266a.17.17,0,0,1-.17-.178L234.048,95.3a.17.17,0,0,1,.17-.163h6.614a.17.17,0,0,1,.17.163l1.952,44.214a.17.17,0,0,1-.17.178m-10.34-.341h10.162l-1.937-43.874h-6.288Z" transform="translate(-192.234 -78.562)"/>
          <path id="Trazado_1030448" data-name="Trazado 1030448" d="M242.987,102.19l.267-6.056h6.614l.267,6.056Z" transform="translate(-201.269 -79.392)" fill="#fff"/>
          <path id="Trazado_1030449" data-name="Trazado 1030449" d="M249.3,101.53h-7.149a.17.17,0,0,1-.17-.178l.267-6.056a.17.17,0,0,1,.17-.163h6.614a.17.17,0,0,1,.17.163l.267,6.056a.171.171,0,0,1-.17.178m-6.971-.341h6.793l-.252-5.716h-6.288Z" transform="translate(-200.439 -78.562)"/>
          <path id="Trazado_1030450" data-name="Trazado 1030450" d="M248.133,170.964H239.95l.267-6.056h7.648Z" transform="translate(-198.75 -136.452)" fill="#fff"/>
          <path id="Trazado_1030451" data-name="Trazado 1030451" d="M247.3,170.3H239.12a.17.17,0,0,1-.17-.178l.267-6.056a.17.17,0,0,1,.17-.163h7.648a.17.17,0,0,1,.17.163l.267,6.056a.17.17,0,0,1-.17.178m-8-.341h7.827l-.252-5.716h-7.322Z" transform="translate(-197.92 -135.622)"/>
          <path id="Trazado_1030452" data-name="Trazado 1030452" d="M246.132,239.738h-9.217l.267-6.056h8.682Z" transform="translate(-196.231 -193.512)" fill="#fff"/>
          <path id="Trazado_1030453" data-name="Trazado 1030453" d="M245.3,239.079h-9.217a.17.17,0,0,1-.17-.178l.267-6.056a.17.17,0,0,1,.17-.163h8.683a.17.17,0,0,1,.17.163l.267,6.056a.17.17,0,0,1-.17.178m-9.039-.341h8.861l-.252-5.716h-8.357Z" transform="translate(-195.401 -192.683)"/>
          <path id="Trazado_1030454" data-name="Trazado 1030454" d="M41.877,266.147v-9.464l13.872,9.464v-9.464l13.872,9.464v-9.464l14.791,10.091v15.058H28V256.683Z" transform="translate(-22.905 -212.596)" fill="#fff"/>
          <path id="Trazado_1030455" data-name="Trazado 1030455" d="M83.583,281.174H27.175A.17.17,0,0,1,27,281V255.854a.17.17,0,0,1,.266-.141L40.877,265v-9.142a.17.17,0,0,1,.266-.141L54.75,265v-9.142a.17.17,0,0,1,.266-.141L68.622,265v-9.142a.17.17,0,0,1,.266-.141L83.679,265.8a.17.17,0,0,1,.074.141V281a.17.17,0,0,1-.17.17m-56.238-.341H83.413v-14.8l-14.45-9.858v9.142a.17.17,0,0,1-.266.141L55.09,256.177v9.142a.17.17,0,0,1-.266.141l-13.606-9.282v9.142a.17.17,0,0,1-.266.141l-13.606-9.282Z" transform="translate(-22.075 -211.767)"/>
          <rect id="Rectángulo_459791" data-name="Rectángulo 459791" width="54.373" height="14.12" transform="translate(24.332 59.542)" fill="#fff"/>
          <path id="Trazado_1030456" data-name="Trazado 1030456" d="M194.459,360.882H140.086a.17.17,0,0,1-.17-.17v-14.12a.17.17,0,0,1,.17-.17h54.373a.17.17,0,0,1,.17.17v14.12a.17.17,0,0,1-.17.17m-54.2-.341h54.032v-13.78H140.257Z" transform="translate(-115.754 -287.049)"/>
          <rect id="Rectángulo_459792" data-name="Rectángulo 459792" width="5.342" height="8.587" transform="translate(60.696 65.076)" fill="#5479f7"/>
          <rect id="Rectángulo_459793" data-name="Rectángulo 459793" width="5.342" height="8.587" transform="translate(48.985 65.076)" fill="#5479f7"/>
          <rect id="Rectángulo_459794" data-name="Rectángulo 459794" width="5.342" height="8.587" transform="translate(37.272 65.076)" fill="#5479f7"/>
          <rect id="Rectángulo_459795" data-name="Rectángulo 459795" width="23.832" height="9.03" transform="translate(0.501 64.633)" fill="#fff"/>
          <path id="Trazado_1030457" data-name="Trazado 1030457" d="M24,385.679H.17a.17.17,0,0,1-.17-.17v-9.03a.17.17,0,0,1,.17-.17H24a.17.17,0,0,1,.17.17v9.03a.17.17,0,0,1-.17.17M.341,385.339H23.832V376.65H.341Z" transform="translate(0.33 -311.846)"/>
          <path id="Trazado_1030458" data-name="Trazado 1030458" d="M41.7,524.5H27.175a.17.17,0,0,1-.17-.17V461.538a.17.17,0,0,1,.341,0v62.618H41.7a.17.17,0,0,1,0,.341" transform="translate(-22.075 -382.417)" fill="#5479f7"/>
          <rect id="Rectángulo_459796" data-name="Rectángulo 459796" width="60.296" height="32.589" transform="translate(85.738 101.16)" fill="#5479f7"/>
          <path id="Trazado_1030459" data-name="Trazado 1030459" d="M581.6,797.4h-81a.17.17,0,1,1,0-.341h81a.17.17,0,0,1,0,.341" transform="translate(-414.865 -660.928)"/>
          <path id="Trazado_1030460" data-name="Trazado 1030460" d="M891.434,683.718h-17.56v-20.4h14.093l3.468,10.878Z" transform="translate(-724.699 -549.969)" fill="#fff"/>
          <path id="Trazado_1030461" data-name="Trazado 1030461" d="M890.6,683.059h-17.56a.17.17,0,0,1-.17-.17v-20.4a.17.17,0,0,1,.17-.17h14.092a.17.17,0,0,1,.162.119l3.468,10.878a.168.168,0,0,1,.008.052v9.523a.17.17,0,0,1-.17.17m-17.39-.341h17.219v-9.326l-3.422-10.734h-13.8Z" transform="translate(-723.87 -549.14)"/>
          <path id="Trazado_1030462" data-name="Trazado 1030462" d="M915.886,678.027H904.615a.17.17,0,0,1-.17-.17v-9.788a.17.17,0,0,1,.341,0v9.617h11.1a.17.17,0,0,1,0,.341" transform="translate(-750.063 -553.77)"/>
          <path id="Trazado_1030463" data-name="Trazado 1030463" d="M886.826,642.877a.17.17,0,0,1-.138-.07l-1.339-1.832L873.028,639.8a.17.17,0,0,1-.153-.186.168.168,0,0,1,.186-.153l12.4,1.187a.17.17,0,0,1,.121.069l1.384,1.894a.17.17,0,0,1-.037.238.168.168,0,0,1-.1.033" transform="translate(-723.87 -530.172)"/>
          <path id="Trazado_1030464" data-name="Trazado 1030464" d="M903.786,770.721a5.611,5.611,0,1,1-5.611-5.611,5.611,5.611,0,0,1,5.611,5.611" transform="translate(-740.205 -634.424)" fill="#fff"/>
          <path id="Trazado_1030465" data-name="Trazado 1030465" d="M897.346,775.673a5.782,5.782,0,1,1,5.782-5.782,5.788,5.788,0,0,1-5.782,5.782m0-11.223a5.441,5.441,0,1,0,5.441,5.441,5.447,5.447,0,0,0-5.441-5.441" transform="translate(-739.376 -633.594)"/>
          <path id="Trazado_1030466" data-name="Trazado 1030466" d="M916.724,787a2.269,2.269,0,1,1-2.269-2.269A2.269,2.269,0,0,1,916.724,787" transform="translate(-756.485 -650.705)" fill="#fff"/>
          <path id="Trazado_1030467" data-name="Trazado 1030467" d="M913.625,788.611a2.44,2.44,0,1,1,2.439-2.44,2.442,2.442,0,0,1-2.439,2.44m0-4.538a2.1,2.1,0,1,0,2.1,2.1,2.1,2.1,0,0,0-2.1-2.1" transform="translate(-755.656 -649.874)"/>
          <path id="Trazado_1030468" data-name="Trazado 1030468" d="M605.828,770.721a5.611,5.611,0,1,1-5.611-5.611,5.611,5.611,0,0,1,5.611,5.611" transform="translate(-492.997 -634.424)" fill="#fff"/>
          <path id="Trazado_1030469" data-name="Trazado 1030469" d="M599.388,775.673a5.782,5.782,0,1,1,5.782-5.782,5.788,5.788,0,0,1-5.782,5.782m0-11.223a5.441,5.441,0,1,0,5.441,5.441,5.447,5.447,0,0,0-5.441-5.441" transform="translate(-492.169 -633.594)"/>
          <path id="Trazado_1030470" data-name="Trazado 1030470" d="M618.766,787a2.269,2.269,0,1,1-2.269-2.269A2.269,2.269,0,0,1,618.766,787" transform="translate(-509.278 -650.705)" fill="#fff"/>
          <path id="Trazado_1030471" data-name="Trazado 1030471" d="M615.668,788.611a2.44,2.44,0,1,1,2.439-2.44,2.442,2.442,0,0,1-2.439,2.44m0-4.538a2.1,2.1,0,1,0,2.1,2.1,2.1,2.1,0,0,0-2.1-2.1" transform="translate(-508.448 -649.874)"/>
          <path id="Trazado_1030472" data-name="Trazado 1030472" d="M532.438,770.721a5.611,5.611,0,1,1-5.611-5.611,5.611,5.611,0,0,1,5.611,5.611" transform="translate(-432.108 -634.424)" fill="#fff"/>
          <path id="Trazado_1030473" data-name="Trazado 1030473" d="M526,775.673a5.782,5.782,0,1,1,5.782-5.782A5.788,5.788,0,0,1,526,775.673m0-11.223a5.441,5.441,0,1,0,5.441,5.441A5.447,5.447,0,0,0,526,764.451" transform="translate(-431.278 -633.594)"/>
          <path id="Trazado_1030474" data-name="Trazado 1030474" d="M545.375,787a2.269,2.269,0,1,1-2.269-2.269A2.269,2.269,0,0,1,545.375,787" transform="translate(-448.388 -650.705)" fill="#fff"/>
          <path id="Trazado_1030475" data-name="Trazado 1030475" d="M542.277,788.611a2.44,2.44,0,1,1,2.439-2.44,2.442,2.442,0,0,1-2.439,2.44m0-4.538a2.1,2.1,0,1,0,2.1,2.1,2.1,2.1,0,0,0-2.1-2.1" transform="translate(-447.558 -649.874)"/>
          <path id="Trazado_1030476" data-name="Trazado 1030476" d="M1004.506,601.351H970.786a.17.17,0,0,1,0-.341h33.549V554.17a.17.17,0,0,1,.341,0v47.01a.17.17,0,0,1-.17.17" transform="translate(-804.963 -459.272)" fill="#5479f7"/>
          <path id="Trazado_1030477" data-name="Trazado 1030477" d="M935.37,127.547a.17.17,0,0,1-.17-.17V105.894H888.153a.17.17,0,0,1,0-.341H935.37a.17.17,0,0,1,.17.17v21.653a.17.17,0,0,1-.17.17" transform="translate(-736.405 -87.207)" fill="#5479f7"/>
          <path id="Trazado_1030478" data-name="Trazado 1030478" d="M961.243,188.079H938a.17.17,0,1,1,0-.341h23.017a2.468,2.468,0,0,0-1.148-1.472,2.4,2.4,0,0,0-2.149.256.17.17,0,0,1-.244-.11,6.127,6.127,0,0,0-6.166-4.391h-.154c-4.965,0-6.773,2.917-6.791,2.947a.17.17,0,0,1-.292-.175c.078-.13,1.968-3.172,7.241-3.112a6.564,6.564,0,0,1,6.431,4.448,2.6,2.6,0,0,1,2.271-.17,2.946,2.946,0,0,1,1.393,1.914.171.171,0,0,1-.167.206" transform="translate(-777.762 -150.368)"/>
          <path id="Trazado_1030479" data-name="Trazado 1030479" d="M292.791,12.9H247.861a.17.17,0,0,1,0-.341h44.706a5.374,5.374,0,0,0-2.5-3.193c-1.486-.756-3.4-.628-5.686.38a.17.17,0,0,1-.238-.136A13.365,13.365,0,0,0,282.5,4.957,8.942,8.942,0,0,0,274.31.341a9.231,9.231,0,0,0-8.317,4.619,13.706,13.706,0,0,0-1.774,4.654.17.17,0,0,1-.288.1A6.15,6.15,0,0,0,260,8.108a5.231,5.231,0,0,0-3.705,1.855.17.17,0,0,1-.248-.234,5.557,5.557,0,0,1,3.949-1.962,6.273,6.273,0,0,1,3.942,1.494,14.078,14.078,0,0,1,1.761-4.47A9.682,9.682,0,0,1,274.31,0,9.378,9.378,0,0,1,282.8,4.794a13.686,13.686,0,0,1,1.654,4.552c2.3-.97,4.239-1.065,5.775-.282a5.723,5.723,0,0,1,2.732,3.629.17.17,0,0,1-.166.206" transform="translate(-205.172 0.367)"/>
          <path id="Trazado_1030480" data-name="Trazado 1030480" d="M527.781,309.913H511.643a.17.17,0,0,1-.17-.17v-6.064a.17.17,0,0,1,.341,0v5.894h15.967a.17.17,0,0,1,0,.341" transform="translate(-424.025 -251.445)" fill="#5479f7"/>
        </g>
      </g>
    </g>
  </g>
</svg>
