<svg xmlns="http://www.w3.org/2000/svg" xmlns:xlink="http://www.w3.org/1999/xlink" width="128" height="128" viewBox="0 0 128 128">
  <defs>
    <clipPath id="clip-path">
      <rect id="Rectángulo_456277" data-name="Rectángulo 456277" width="128" height="128" transform="translate(0 0)" fill="#d35560"/>
    </clipPath>
    <clipPath id="clip-path-2">
      <rect id="Rectángulo_459960" data-name="Rectángulo 459960" width="60.507" height="59.214" fill="#4d787e"/>
    </clipPath>
  </defs>
  <g id="Grupo_1186153" data-name="Grupo 1186153" transform="translate(13436 12681)">
    <g id="Grupo_1179924" data-name="Grupo 1179924" transform="translate(-13436 -12681)">
      <g id="Grupo_1179923" data-name="Grupo 1179923" transform="translate(0 0)" clip-path="url(#clip-path)">
        <path id="Trazado_1004716" data-name="Trazado 1004716" d="M63.534,127.068c-2.064,0-3.994-2.358-6.006-2.554-2.05-.2-4.4,1.735-6.388,1.341-2.016-.4-3.449-3.09-5.391-3.68-1.964-.6-4.65.839-6.526.059-1.892-.786-2.769-3.705-4.562-4.667s-4.72-.086-6.412-1.22-1.99-4.172-3.566-5.467-4.61-1-6.054-2.44-1.143-4.475-2.44-6.054-4.328-1.867-5.467-3.566-.252-4.608-1.22-6.411-3.881-2.67-4.668-4.562c-.78-1.877.656-4.563.059-6.526-.59-1.942-3.28-3.374-3.68-5.391-.395-1.987,1.541-4.338,1.34-6.388C2.358,67.528,0,65.6,0,63.534s2.358-3.994,2.554-6.006c.2-2.05-1.735-4.4-1.34-6.388.4-2.016,3.09-3.449,3.68-5.391.6-1.964-.839-4.65-.059-6.527C5.622,37.33,8.54,36.453,9.5,34.66s.085-4.719,1.22-6.412,4.171-1.99,5.466-3.566,1-4.61,2.441-6.054,4.475-1.143,6.053-2.44,1.867-4.328,3.566-5.467,4.608-.252,6.412-1.22,2.67-3.881,4.562-4.668c1.877-.78,4.563.656,6.527.059,1.942-.59,3.374-3.279,5.39-3.68,1.987-.395,4.338,1.541,6.388,1.341C59.54,2.358,61.47,0,63.534,0s3.994,2.358,6.006,2.554c2.05.2,4.4-1.735,6.388-1.341,2.016.4,3.449,3.09,5.391,3.68,1.964.6,4.65-.839,6.526-.059,1.892.786,2.769,3.705,4.562,4.668s4.72.085,6.412,1.22,1.99,4.171,3.566,5.466,4.61,1,6.054,2.441,1.143,4.475,2.44,6.053,4.328,1.867,5.467,3.566.252,4.608,1.22,6.412,3.881,2.67,4.667,4.562c.78,1.877-.656,4.563-.059,6.526.59,1.942,3.28,3.374,3.68,5.39.395,1.987-1.541,4.338-1.341,6.388.2,2.012,2.555,3.943,2.555,6.006s-2.358,3.994-2.555,6.007c-.2,2.049,1.735,4.4,1.341,6.388-.4,2.016-3.09,3.449-3.68,5.391-.6,1.964.839,4.65.059,6.526-.787,1.893-3.705,2.769-4.668,4.563s-.085,4.719-1.22,6.412-4.171,1.99-5.466,3.566-1,4.61-2.441,6.053-4.475,1.143-6.053,2.44-1.867,4.328-3.566,5.466-4.608.252-6.412,1.22-2.67,3.881-4.562,4.668c-1.877.78-4.563-.656-6.526-.059-1.942.59-3.374,3.279-5.39,3.68-1.987.395-4.338-1.541-6.388-1.341-2.013.2-3.943,2.554-6.007,2.554" transform="translate(0.466 0.466)" fill="#d35560"/>
        <path id="Trazado_1004717" data-name="Trazado 1004717" d="M14,71.524a57.524,57.524,0,1,1,57.524,57.524A57.524,57.524,0,0,1,14,71.524" transform="translate(-7.524 -7.524)" fill="#4d787e"/>
        <path id="Trazado_1004718" data-name="Trazado 1004718" d="M131.909,269.316c-.153-.646-.3-1.314-.433-1.969l-2.01-.256q.9-.478,1.765-.962-.191-.985-.361-1.967c.46.452.931.917,1.416,1.362q.847-.526,1.657-1.055-.359.929-.741,1.855c.5.431,1.015.868,1.54,1.3l-2.02-.151q-.4.926-.813,1.849" transform="translate(-73.422 -150.295)" fill="#ffffc5"/>
        <path id="Trazado_1004719" data-name="Trazado 1004719" d="M113.426,265.848c-.055-.66-.1-1.343-.133-2.011l-1.949-.555q.962-.338,1.89-.686-.042-1-.061-2c.387.515.783,1.047,1.2,1.558q.916-.393,1.8-.794-.494.863-1.01,1.722c.431.5.872,1.016,1.329,1.509-.661-.137-1.317-.3-1.976-.449q-.529.856-1.081,1.706" transform="translate(-63.08 -148.261)" fill="#ffffc5"/>
        <path id="Trazado_1004720" data-name="Trazado 1004720" d="M95.721,259.733c.05-.672.108-1.345.172-2.013l-1.845-.838c.667-.124,1.326-.26,1.972-.4q.109-1,.239-1.984c.305.568.62,1.144.948,1.721q.965-.252,1.9-.518-.618.78-1.258,1.552c.352.559.712,1.129,1.088,1.693l-1.886-.741q-.652.767-1.325,1.525" transform="translate(-53.209 -144.782)" fill="#ffffc5"/>
        <path id="Trazado_1004721" data-name="Trazado 1004721" d="M79.2,251.1q.225-.987.47-1.963c-.565-.37-1.144-.718-1.7-1.105.667-.007,1.349-.058,2.007-.1q.256-.968.531-1.924.327.909.684,1.839c.652-.056,1.311-.146,1.95-.226q-.729.68-1.477,1.349.4.908.824,1.833L80.734,249.8c-.506.44-1.023.883-1.534,1.3" transform="translate(-44.034 -139.94)" fill="#ffffc5"/>
        <path id="Trazado_1004722" data-name="Trazado 1004722" d="M64.221,240.181q.368-.941.753-1.869c-.505-.448-1.035-.87-1.513-1.347.655.1,1.335.151,2,.207q.4-.918.807-1.822.192.945.41,1.914c.643.054,1.314.055,1.959.07q-.822.565-1.663,1.117.26.954.548,1.929l-1.593-1.253c-.57.365-1.13.707-1.7,1.054" transform="translate(-35.752 -133.852)" fill="#ffffc5"/>
        <path id="Trazado_1004723" data-name="Trazado 1004723" d="M51.1,227.217q.5-.876,1.018-1.735l-.663-.766c-.22-.256-.421-.528-.631-.792l.961.27.978.232q.525-.849,1.065-1.68.053.96.129,1.947l.955.2.969.162q-.9.439-1.812.862.119.978.263,1.982c-.464-.491-.938-.973-1.393-1.471q-.912.4-1.839.789" transform="translate(-28.54 -126.659)" fill="#ffffc5"/>
        <path id="Trazado_1004724" data-name="Trazado 1004724" d="M39.841,212.493q.625-.791,1.262-1.563c-.18-.286-.37-.565-.542-.856l-.506-.878c.616.274,1.207.55,1.839.786.431-.508.857-1,1.3-1.505-.067.643-.112,1.285-.159,1.943.616.229,1.214.456,1.845.645-.636.2-1.279.4-1.921.584-.019.658-.025,1.321-.027,2-.384-.555-.8-1.089-1.158-1.663q-.963.264-1.938.509" transform="translate(-22.272 -118.515)" fill="#ffffc5"/>
        <path id="Trazado_1004725" data-name="Trazado 1004725" d="M30.615,196.327q.734-.688,1.478-1.357c-.292-.61-.523-1.245-.774-1.872.571.362,1.115.723,1.7,1.054.5-.435,1.006-.868,1.522-1.3-.18.632-.3,1.253-.45,1.9.582.315,1.13.632,1.724.915-.662.106-1.323.2-1.978.288-.136.656-.223,1.3-.328,1.971-.3-.6-.629-1.2-.9-1.817q-.992.118-1.994.216" transform="translate(-17.006 -109.601)" fill="#ffffc5"/>
        <path id="Trazado_1004726" data-name="Trazado 1004726" d="M24.019,178.752q.829-.57,1.663-1.119c-.2-.646-.321-1.312-.483-1.967.509.444,1,.88,1.517,1.3.554-.355,1.135-.71,1.7-1.054-.278.6-.493,1.2-.732,1.809.526.4,1.033.792,1.563,1.164-.674.006-1.326,0-1.993-.014-.242.632-.419,1.256-.622,1.9-.221-.639-.438-1.278-.611-1.932q-1-.032-2.006-.086" transform="translate(-13.242 -99.79)" fill="#ffffc5"/>
        <path id="Trazado_1004727" data-name="Trazado 1004727" d="M20.215,160.164q.9-.439,1.812-.856c-.1-.668-.122-1.345-.182-2.018.437.516.856,1.02,1.3,1.511.6-.268,1.228-.532,1.843-.787-.365.551-.665,1.108-1,1.68.459.473.9.937,1.37,1.386-.665-.1-1.309-.2-1.967-.313-.334.588-.606,1.179-.9,1.785l-.179-1c-.056-.333-.089-.67-.135-1q-.984-.182-1.97-.386" transform="translate(-11.071 -89.302)" fill="#ffffc5"/>
        <path id="Trazado_1004728" data-name="Trazado 1004728" d="M19.269,141.311q.961-.3,1.921-.579c0-.676.063-1.349.115-2.022.359.574.682,1.135,1.072,1.687.64-.176,1.276-.346,1.93-.507-.428.492-.816,1-1.228,1.515.386.537.744,1.062,1.152,1.574q-.966-.29-1.905-.6c-.412.532-.767,1.076-1.153,1.631-.015-.675-.047-1.35-.015-2.025q-.945-.325-1.889-.673" transform="translate(-10.531 -78.698)" fill="#ffffc5"/>
        <path id="Trazado_1004729" data-name="Trazado 1004729" d="M21.174,122.6q1-.154,1.988-.286c.063-.332.112-.667.186-1l.228-.987c.266.621.507,1.224.81,1.828.663-.078,1.31-.152,1.981-.213-.489.424-.956.865-1.438,1.314.3.588.572,1.159.909,1.727-.6-.285-1.214-.58-1.8-.878-.471.467-.917.95-1.379,1.443.094-.668.149-1.343.283-2.006q-.885-.462-1.767-.947" transform="translate(-11.618 -68.211)" fill="#ffffc5"/>
        <path id="Trazado_1004730" data-name="Trazado 1004730" d="M25.928,104.462q1.007,0,2.007.015c.2-.644.459-1.27.708-1.9.173.655.316,1.286.525,1.929.664.021,1.322.048,1.994.088-.554.343-1.076.71-1.622,1.083.211.627.392,1.231.639,1.844-.553-.373-1.111-.756-1.647-1.139-.539.39-1.05.8-1.581,1.22.192-.648.351-1.305.583-1.941q-.806-.59-1.605-1.2" transform="translate(-14.331 -58.078)" fill="#ffffc5"/>
        <path id="Trazado_1004731" data-name="Trazado 1004731" d="M33.429,87.3q1,.147,1.98.315c.295-.608.656-1.181.986-1.77.071.672.132,1.326.228,1.984.648.118,1.311.252,1.964.389-.612.249-1.172.54-1.769.826.114.651.212,1.281.353,1.918-.5-.454-.976-.909-1.452-1.37-.6.3-1.159.634-1.749.966.279-.615.548-1.235.869-1.83q-.71-.7-1.409-1.43" transform="translate(-18.612 -48.53)" fill="#ffffc5"/>
        <path id="Trazado_1004732" data-name="Trazado 1004732" d="M43.489,71.506q.961.294,1.909.6c.393-.549.828-1.067,1.24-1.6q-.046,1.012-.071,2,.952.332,1.89.68c-.638.159-1.255.349-1.876.551q.02.988.06,1.948-.62-.775-1.225-1.566c-.642.206-1.253.446-1.878.692l.547-.853.586-.826q-.6-.8-1.183-1.625" transform="translate(-24.354 -39.775)" fill="#ffffc5"/>
        <path id="Trazado_1004733" data-name="Trazado 1004733" d="M55.279,57.409q.906.431,1.8.878l1.465-1.4q-.193,1-.359,1.97.891.467,1.766.95c-.646.071-1.3.15-1.94.264q-.124.983-.224,1.941-.5-.858-.981-1.732l-.989.183c-.327.067-.647.145-.974.22.432-.519.906-1,1.372-1.49q-.474-.884-.932-1.784" transform="translate(-30.831 -32.001)" fill="#ffffc5"/>
        <path id="Trazado_1004734" data-name="Trazado 1004734" d="M69.057,45.313c.553.372,1.1.749,1.652,1.141l1.651-1.175q-.335.961-.641,1.9.811.592,1.6,1.2c-.643-.015-1.315-.05-1.961-.03q-.265.958-.5,1.893-.367-.923-.716-1.861c-.659.027-1.347.038-2,.105.5-.451,1.054-.844,1.579-1.269q-.339-.946-.66-1.905" transform="translate(-38.421 -25.376)" fill="#ffffc5"/>
        <path id="Trazado_1004735" data-name="Trazado 1004735" d="M84.591,34.886c.492.45.986.918,1.469,1.382l1.8-.925q-.473.9-.914,1.792.713.705,1.407,1.42c-.634-.113-1.284-.229-1.937-.325q-.4.911-.774,1.8-.227-.969-.434-1.949c-.656-.071-1.331-.15-2-.2.577-.351,1.169-.678,1.752-1.018q-.2-.986-.371-1.985" transform="translate(-47.023 -19.444)" fill="#ffffc5"/>
        <path id="Trazado_1004736" data-name="Trazado 1004736" d="M101.552,26.946q.634.791,1.246,1.589c.64-.214,1.278-.44,1.921-.644-.405.538-.792,1.094-1.172,1.634q.6.8,1.177,1.613-.916-.311-1.866-.611c-.358.554-.7,1.119-1.034,1.67q-.08-.993-.139-1.994-.958-.254-1.949-.5l1.885-.745c-.03-.669-.056-1.348-.069-2.016" transform="translate(-56.455 -14.913)" fill="#ffffc5"/>
        <path id="Trazado_1004737" data-name="Trazado 1004737" d="M119.566,21.733q.507.876.993,1.758c.665-.115,1.329-.246,2-.349-.482.468-.948.962-1.4,1.439q.472.883.922,1.771-.858-.444-1.753-.883c-.439.486-.86,1-1.273,1.495q.07-.994.162-1.994-.908-.394-1.852-.78l1.974-.457c.071-.666.147-1.344.235-2" transform="translate(-66.511 -11.938)" fill="#ffffc5"/>
        <path id="Trazado_1004738" data-name="Trazado 1004738" d="M138.214,19.35q.371.944.72,1.888l2.025-.051q-.819.609-1.6,1.218.335.945.648,1.89-.784-.569-1.6-1.138c-.507.424-1,.862-1.483,1.29q.218-.972.459-1.946-.84-.527-1.715-1.051l2.02-.154c.17-.648.346-1.305.531-1.947" transform="translate(-76.959 -10.578)" fill="#ffffc5"/>
        <path id="Trazado_1004739" data-name="Trazado 1004739" d="M157.075,19.831c.153.647.3,1.314.433,1.969l2.01.256q-.9.478-1.765.962.191.985.36,1.967c-.46-.452-.931-.917-1.416-1.362q-.847.526-1.657,1.055.359-.929.741-1.855c-.5-.431-1.014-.868-1.54-1.3l2.021.151q.4-.926.813-1.849" transform="translate(-87.562 -10.852)" fill="#ffffc5"/>
        <path id="Trazado_1004740" data-name="Trazado 1004740" d="M175.741,23.17c.055.66.1,1.343.134,2.011l1.949.555q-.962.338-1.89.686.042,1,.061,2c-.387-.515-.782-1.047-1.2-1.558q-.916.393-1.8.794.494-.864,1.01-1.722c-.431-.5-.872-1.016-1.329-1.509.661.137,1.317.3,1.976.449q.53-.856,1.081-1.706" transform="translate(-98.088 -12.758)" fill="#ffffc5"/>
        <path id="Trazado_1004741" data-name="Trazado 1004741" d="M193.559,29.313c-.05.672-.108,1.345-.172,2.012l1.845.838c-.667.125-1.326.261-1.972.4q-.109,1-.239,1.984c-.305-.568-.62-1.144-.948-1.721q-.965.252-1.9.518.618-.78,1.257-1.552c-.351-.559-.712-1.129-1.087-1.693l1.886.741q.652-.767,1.325-1.525" transform="translate(-108.072 -16.264)" fill="#ffffc5"/>
        <path id="Trazado_1004742" data-name="Trazado 1004742" d="M209.923,38.133q-.225.987-.47,1.963c.565.37,1.144.718,1.7,1.105-.667.007-1.349.058-2.007.1q-.256.968-.531,1.924-.327-.909-.684-1.839c-.652.056-1.311.146-1.95.226q.729-.68,1.477-1.349-.4-.908-.824-1.833l1.756,1.011c.506-.44,1.022-.883,1.534-1.3" transform="translate(-117.09 -21.297)" fill="#ffffc5"/>
        <path id="Trazado_1004743" data-name="Trazado 1004743" d="M224.9,49.134q-.368.941-.753,1.869c.505.448,1.035.87,1.513,1.347-.655-.1-1.335-.151-2-.206q-.4.918-.807,1.822-.192-.945-.41-1.913c-.643-.055-1.314-.055-1.959-.07q.823-.565,1.663-1.117-.26-.954-.548-1.929l1.593,1.252c.57-.365,1.13-.707,1.7-1.054" transform="translate(-125.371 -27.463)" fill="#ffffc5"/>
        <path id="Trazado_1004744" data-name="Trazado 1004744" d="M238.176,61.933q-.5.876-1.018,1.735l.663.766c.22.256.42.528.632.792l-.961-.27-.978-.232q-.525.849-1.065,1.68-.053-.96-.129-1.947l-.955-.2-.969-.162q.9-.439,1.812-.862-.119-.978-.263-1.982c.464.491.938.973,1.393,1.471q.912-.4,1.839-.789" transform="translate(-132.736 -34.491)" fill="#ffffc5"/>
        <path id="Trazado_1004745" data-name="Trazado 1004745" d="M249.453,76.636q-.625.791-1.261,1.563c.18.285.37.565.542.856l.506.878c-.616-.274-1.207-.55-1.839-.786-.431.508-.857,1-1.3,1.505.067-.643.112-1.285.159-1.943-.616-.229-1.214-.455-1.845-.645.636-.2,1.279-.4,1.921-.585.019-.657.025-1.32.027-2,.384.555.8,1.089,1.158,1.663q.963-.264,1.938-.509" transform="translate(-139.022 -42.614)" fill="#ffffc5"/>
        <path id="Trazado_1004746" data-name="Trazado 1004746" d="M258.476,92.93q-.734.688-1.478,1.357c.292.61.523,1.245.774,1.872-.571-.362-1.115-.722-1.7-1.054-.5.435-1.006.868-1.522,1.3.18-.632.3-1.253.45-1.9-.582-.315-1.13-.632-1.724-.915.662-.106,1.324-.2,1.978-.288.136-.656.223-1.3.328-1.971.3.6.629,1.2.9,1.818q.992-.118,1.994-.215" transform="translate(-144.085 -51.657)" fill="#ffffc5"/>
        <path id="Trazado_1004747" data-name="Trazado 1004747" d="M265.025,110.463q-.829.571-1.663,1.119c.2.646.321,1.312.483,1.967-.509-.444-1-.88-1.517-1.3-.554.355-1.135.71-1.7,1.054.278-.6.493-1.195.733-1.809-.526-.4-1.033-.792-1.563-1.164.674-.006,1.326,0,1.993.014.242-.631.419-1.256.622-1.9.221.639.438,1.278.611,1.932q1,.032,2.006.086" transform="translate(-147.801 -61.426)" fill="#ffffc5"/>
        <path id="Trazado_1004748" data-name="Trazado 1004748" d="M268.935,128.842q-.9.439-1.812.856c.1.668.122,1.345.182,2.018-.437-.516-.856-1.02-1.3-1.511-.6.268-1.228.532-1.843.787.365-.551.665-1.108,1-1.68-.459-.473-.9-.937-1.37-1.386.665.1,1.309.2,1.967.313.334-.588.606-1.178.9-1.785l.179,1c.056.333.089.67.135,1q.984.182,1.97.386" transform="translate(-150.079 -71.704)" fill="#ffffc5"/>
        <path id="Trazado_1004749" data-name="Trazado 1004749" d="M270.032,147.643q-.961.3-1.921.579c0,.676-.063,1.349-.115,2.022-.359-.574-.682-1.135-1.072-1.687-.64.176-1.276.346-1.93.507.428-.492.816-1,1.228-1.515-.386-.537-.744-1.062-1.152-1.574q.966.29,1.905.6c.412-.532.767-1.076,1.153-1.631.015.675.047,1.35.015,2.025q.945.326,1.889.673" transform="translate(-150.77 -82.257)" fill="#ffffc5"/>
        <path id="Trazado_1004750" data-name="Trazado 1004750" d="M267.922,166.455q-1,.154-1.988.286c-.063.332-.112.667-.186,1l-.228.987c-.266-.621-.507-1.224-.81-1.828-.663.078-1.31.152-1.981.213.489-.424.956-.865,1.439-1.314-.3-.588-.572-1.159-.909-1.727.6.285,1.214.58,1.8.878.471-.467.917-.95,1.379-1.443-.094.668-.149,1.343-.283,2.006q.885.462,1.767.947" transform="translate(-149.478 -92.847)" fill="#ffffc5"/>
        <path id="Trazado_1004751" data-name="Trazado 1004751" d="M263.113,184.858q-1.007,0-2.007-.015c-.2.644-.459,1.27-.708,1.9-.173-.655-.315-1.287-.525-1.929-.664-.021-1.322-.048-1.994-.088.554-.343,1.076-.71,1.622-1.083-.211-.626-.391-1.231-.639-1.844.553.373,1.111.755,1.647,1.138.539-.39,1.05-.8,1.581-1.219-.192.647-.351,1.305-.583,1.94q.806.59,1.605,1.2" transform="translate(-146.71 -103.243)" fill="#ffffc5"/>
        <path id="Trazado_1004752" data-name="Trazado 1004752" d="M255.713,201.893q-1-.147-1.98-.315c-.295.608-.656,1.181-.986,1.769-.071-.672-.132-1.326-.228-1.984-.648-.118-1.311-.252-1.964-.389.612-.249,1.172-.54,1.769-.826-.114-.651-.211-1.281-.353-1.918.5.454.976.909,1.452,1.37.6-.3,1.159-.634,1.749-.966-.279.615-.548,1.235-.868,1.83q.709.7,1.408,1.429" transform="translate(-142.53 -112.667)" fill="#ffffc5"/>
        <path id="Trazado_1004753" data-name="Trazado 1004753" d="M245.906,217.614q-.961-.293-1.909-.6c-.393.549-.828,1.067-1.24,1.6q.046-1.012.071-2-.952-.332-1.89-.68c.638-.159,1.255-.349,1.876-.551q-.02-.988-.06-1.948.62.775,1.225,1.566c.642-.206,1.253-.446,1.878-.692l-.547.853-.586.826q.6.8,1.183,1.625" transform="translate(-137.041 -121.346)" fill="#ffffc5"/>
        <path id="Trazado_1004754" data-name="Trazado 1004754" d="M233.928,231.779q-.906-.431-1.8-.878l-1.465,1.4q.193-1,.359-1.97-.891-.467-1.766-.95c.646-.071,1.3-.15,1.94-.264q.124-.983.224-1.941.5.858.981,1.732l.989-.183c.327-.067.647-.145.974-.22-.432.519-.906,1-1.372,1.49q.474.884.932,1.784" transform="translate(-130.376 -129.187)" fill="#ffffc5"/>
        <path id="Trazado_1004755" data-name="Trazado 1004755" d="M220.049,244.088c-.553-.372-1.1-.749-1.652-1.141l-1.651,1.175q.335-.961.641-1.9-.811-.592-1.6-1.2c.643.015,1.315.05,1.961.03q.265-.958.5-1.893.367.923.717,1.861c.659-.027,1.347-.038,2-.105-.5.451-1.054.844-1.579,1.269q.339.946.66,1.905" transform="translate(-122.685 -136.026)" fill="#ffffc5"/>
        <path id="Trazado_1004756" data-name="Trazado 1004756" d="M204.568,254.268c-.492-.449-.986-.918-1.469-1.382l-1.8.925q.473-.9.914-1.792-.713-.706-1.407-1.421c.634.113,1.284.229,1.937.325q.4-.91.774-1.8.227.97.434,1.95c.656.071,1.33.149,2,.2-.577.352-1.168.678-1.752,1.019q.2.986.371,1.984" transform="translate(-114.135 -141.71)" fill="#ffffc5"/>
        <path id="Trazado_1004757" data-name="Trazado 1004757" d="M187.815,262.073q-.634-.791-1.246-1.589c-.64.214-1.278.44-1.921.644.405-.538.793-1.094,1.172-1.634q-.6-.8-1.177-1.613.916.311,1.866.611c.358-.554.7-1.119,1.034-1.67q.08.993.139,1.995.958.254,1.949.5l-1.885.745c.03.669.056,1.348.069,2.016" transform="translate(-104.913 -146.107)" fill="#ffffc5"/>
        <path id="Trazado_1004758" data-name="Trazado 1004758" d="M169.522,267.312q-.507-.876-.993-1.758c-.665.116-1.329.246-2,.349.482-.468.948-.963,1.4-1.439q-.472-.883-.922-1.771.858.444,1.753.883c.439-.486.86-1,1.273-1.495q-.07.994-.162,1.994.908.394,1.852.78l-1.974.457c-.071.666-.147,1.344-.235,2" transform="translate(-94.577 -149.108)" fill="#ffffc5"/>
        <path id="Trazado_1004759" data-name="Trazado 1004759" d="M150.745,269.873q-.371-.943-.719-1.888l-2.025.051q.819-.609,1.6-1.219-.336-.945-.648-1.89.784.569,1.6,1.138c.507-.424,1-.862,1.483-1.29q-.218.972-.459,1.946.84.527,1.715,1.05l-2.02.154c-.17.648-.346,1.305-.531,1.946" transform="translate(-84 -150.646)" fill="#ffffc5"/>
        <path id="Trazado_1004760" data-name="Trazado 1004760" d="M83.637,132.05A48.412,48.412,0,1,1,132.05,83.637,48.467,48.467,0,0,1,83.637,132.05" transform="translate(-19.637 -19.638)" fill="#fff7e8"/>
      </g>
    </g>
    <g id="Grupo_1180053" data-name="Grupo 1180053" transform="translate(-13402.254 -12647.618)">
      <rect id="Rectángulo_401104" data-name="Rectángulo 401104" width="60.508" height="61.237" transform="translate(0)" fill="none"/>
    </g>
    <g id="Grupo_1187758" data-name="Grupo 1187758" transform="translate(-13402.254 -12646.607)">
      <g id="Grupo_1187757" data-name="Grupo 1187757" clip-path="url(#clip-path-2)">
        <path id="Trazado_1033268" data-name="Trazado 1033268" d="M97.2,49.307c-2.28-2.329-4.6-4.621-6.906-6.92a1.7,1.7,0,0,0-1.424-.637,1.953,1.953,0,0,1-1.723-2.774C89.353,34.44,89.155,30,86.05,26A11.325,11.325,0,0,0,73.529,21.71a11.247,11.247,0,0,0-8.775,9.6A11.413,11.413,0,0,0,69.846,43.19c4.047,2.781,8.353,2.775,12.7.556.352-.18.694-.842,1.167-.276.493.59,1.567.91,1.4,1.792a1.917,1.917,0,0,0,.7,1.888c.854.881,1.737,1.734,2.592,2.614.253.26.569.463.554.934-.057,1.69-.043,3.383-.1,5.073-.048,1.419-.618,1.965-2.058,1.966q-17.649.012-35.3,0c-1.463,0-2.076-.618-2.077-2.092q-.018-23.3-.009-46.6A1.877,1.877,0,0,1,51.5,6.919c2.328-.025,4.656.009,6.983-.019.611-.007.912.089.884.809-.025.649-.089.992-.882.97-1.988-.054-3.979.032-5.967-.029-1.036-.032-1.39.283-1.387,1.364q.053,22.22,0,44.441c0,1.276.437,1.549,1.613,1.54,6.687-.048,13.374-.024,20.061-.025,4.359,0,8.719-.009,13.078.01.717,0,1.282-.08,1.276-.967-.013-1.777-.019-3.554-.057-5.331-.01-.475-.11-.971-.78-.9-.58.06-.593.5-.592.942,0,1.185-.067,2.376.025,3.554.083,1.062-.164,1.409-1.339,1.4-9.564-.059-19.129-.025-28.693-.045-1.04,0-2.375.471-3.042-.216-.606-.624-.162-1.935-.162-2.941q-.016-20.125-.025-40.25c0-.9.154-1.289,1.164-1.234,1.6.087,3.215.028,4.824.008.5-.006.863-.01.957.663A1.514,1.514,0,0,0,61.15,12q8.063-.006,16.126,0c.608,0,1.282-.194,1.34-.731.177-1.636,1.323-1.24,2.292-1.251,1.227-.014,2.461.074,3.68-.024,1-.08,1.178.282,1.168,1.2-.051,4.19-.023,8.38-.021,12.57,0,.5-.089,1.12.633,1.165.817.051.78-.612.781-1.163.011-4.613-.006-9.227.033-13.84.009-1.027-.419-1.309-1.376-1.283-1.861.051-3.725.032-5.586-.006-.572-.011-1.364.382-1.385-.842-.021-1.185.707-.885,1.313-.89,1.947-.015,3.894-.007,5.841-.006,2.414,0,2.86.45,2.861,2.876q.006,14.665.015,29.33a7.669,7.669,0,0,0,.093,1.26.6.6,0,0,0,.625.521.668.668,0,0,0,.641-.526,3.44,3.44,0,0,0,.051-.881q0-15.173-.006-30.347a3.278,3.278,0,0,0-3.6-3.631c-2.243-.027-4.486.013-6.729,0-.36,0-.88.212-1.06-.174-.77-1.66-2.235-1.431-3.613-1.385-.91.031-1.47-.083-1.848-1.142A4.339,4.339,0,0,0,68.907,0a4.23,4.23,0,0,0-4.128,2.983,1.169,1.169,0,0,1-1.438.953,13.177,13.177,0,0,0-1.65,0c-.78.033-1.59.15-1.958.925-.306.644-.76.669-1.334.663C56.2,5.5,54,5.486,51.8,5.5c-2.53.016-3.743,1.217-3.744,3.725q-.013,23.173,0,46.345c0,2.405,1.264,3.636,3.691,3.642,2.92.007,5.841,0,8.761,0q13.078,0,26.157,0c2.376,0,3.6-1.229,3.619-3.569.007-1.22,0-2.441,0-4.074.946.994,1.609,1.754,2.339,2.444a3.171,3.171,0,0,0,4.732.083,3.377,3.377,0,0,0-.149-4.785M60.767,9.787c.056-1.138.042-2.282.008-3.422-.023-.774.306-1.081,1.06-1.021.378.03.763-.02,1.14.013,1.548.135,2.83.121,3.145-1.979.194-1.293,1.848-2.113,3.164-2.038a3.461,3.461,0,0,1,3.151,2.674c.178,1.194.74,1.453,1.786,1.355.712-.066,1.44.032,2.153-.03.912-.079,1.2.347,1.181,1.181-.027,1.056-.054,2.115,0,3.168.043.787-.238,1.02-1.012,1.007-2.492-.042-4.985-.016-7.478-.017-2.451,0-4.9-.026-7.352.014-.7.011-.985-.16-.949-.906M76.581,43.972A10.841,10.841,0,0,1,65.929,33.3,10.634,10.634,0,1,1,76.581,43.972m9.575-.229a2.351,2.351,0,0,1-1.386-1.494c-.1-.322.472-.729.878-.939.159-.082,1.526,1.406,1.5,1.618-.306.308-.585.959-.994.814M95.81,53.47a1.549,1.549,0,0,1-1.888-.169c-2.41-2.369-4.788-4.77-7.177-7.159-.03-.03-.081-.056-.087-.09-.225-1.3,1.11-1.467,1.655-2.209.217-.3.538-.959,1.179-.3,2.242,2.3,4.525,4.556,6.779,6.843a1.87,1.87,0,0,1-.461,3.085" transform="translate(-37.764 0)" fill="#4d787e"/>
        <path id="Trazado_1033269" data-name="Trazado 1033269" d="M2.481,64.714v1.367q0,12.685,0,25.371a8.38,8.38,0,0,0,.36,2.222c.535,1.982,1.736,3.726,2.007,5.8a.646.646,0,0,0,.7.6c.445-.007.571-.308.636-.654a6.991,6.991,0,0,1,.457-1.663c.842-1.869,1.868-3.771,1.885-5.838.085-9.978.039-19.958.046-29.937,0-.567-.007-1.228-.462-1.519-.9-.578-.784-1.4-.758-2.222A1.843,1.843,0,0,0,6.476,56.4a1.879,1.879,0,0,0-2.819,1.442c-.126.728.315,1.629-.359,2.162a2.363,2.363,0,0,0-.813,2.257c.029.521.031.936-.644,1.137A2.606,2.606,0,0,0,.015,66.252C.013,69,0,71.75,0,74.5c0,.553-.054,1.2.76,1.181s.7-.693.7-1.227q0-4.123-.01-8.246c0-.657.034-1.272,1.031-1.493M5.51,96.974l-1.338-3.48H6.849L5.51,96.974m.824-4.82c-2.518.067-2.517.1-2.517-2.38,0-2.238.026-4.477-.016-6.714-.013-.71.183-.93.914-.941,2.453-.037,2.452-.069,2.443,2.319,0,.929,0,1.858,0,2.787h.015c0,1.351-.028,2.7.012,4.053.019.648-.173.857-.851.875m.817-19.54c0,2.365-.032,4.731.018,7.1.016.781-.116,1.091-1,1.076-2.361-.04-2.358.009-2.353-2.393.008-4.224.032-8.448,0-12.672-.007-.872.105-1.275,1.139-1.24,2.177.073,2.178.007,2.178,2.177q0,2.978,0,5.956ZM5.454,57.62c.861-.073.416.722.6,1.091-.194.429.333,1.174-.566,1.175-.8,0-.478-.67-.455-1.032.027-.428-.375-1.167.417-1.235m-.416,3.563c.253,0,.507.018.757,0,.838-.071,1.4-.016,1.395,1.142-.006,1.192-.732.834-1.328.881-.125.01-.253,0-.478,0-.42-.294-1.325.569-1.563-.531-.257-1.189,0-1.482,1.218-1.49" transform="translate(0 -44.122)" fill="#4d787e"/>
        <path id="Trazado_1033270" data-name="Trazado 1033270" d="M90.562,69.085c-1.434.047-2.871.012-4.307.011-1.562,0-3.125.021-4.687-.011-.784-.016-1.175.245-1.17,1.085q.029,4.56,0,9.121c-.005.754.3,1.082,1.049,1.077,3.125-.017,6.249-.033,9.374-.023.749,0,1.052-.269,1.044-1.044q-.041-4.5.005-8.994c.011-.959-.4-1.252-1.3-1.223M88.154,79c-1.514-.015-3.028-.005-4.548-.005.142-1.838.9-2.715,2.332-2.792a2.656,2.656,0,0,1,2.729,2.136c.135.542-.01.667-.513.662M86.06,72.475c.695-.062,1.022.47,1.181,1.115-.128.539-.3,1.06-.99,1.1a1.043,1.043,0,0,1-1.22-1,1.07,1.07,0,0,1,1.028-1.219m4.423,6.35c0,.043-.113.086-.285.209a4.637,4.637,0,0,0-2.042-3.675c-.335-.2.087-.527.182-.769a2.344,2.344,0,0,0-.762-2.941,2.284,2.284,0,0,0-2.933-.011,2.414,2.414,0,0,0-.723,2.949c.1.259.525.523.021.84A4.447,4.447,0,0,0,82.1,79l-.371-.068c0-2.638.006-5.276-.005-7.915,0-.466.246-.576.636-.576q3.743,0,7.485,0c.459,0,.7.143.691.654-.027,2.578-.032,5.156-.053,7.733" transform="translate(-63.191 -54.3)" fill="#4d787e"/>
        <path id="Trazado_1033271" data-name="Trazado 1033271" d="M122.5,219.8c-.572,0-1.243-.027-1.288.67-.048.747.651.746,1.206.747q8.55.017,17.1.02c.538,0,1.212.073,1.192-.744s-.71-.677-1.236-.679c-2.829-.008-5.658,0-8.487,0v-.006c-2.829,0-5.658.007-8.487-.006" transform="translate(-95.274 -172.764)" fill="#4d787e"/>
        <path id="Trazado_1033272" data-name="Trazado 1033272" d="M82.637,135.774c1.86.05,3.723.031,5.585.015.5,0,1.112,0,1.067-.75-.038-.637-.567-.631-1.046-.63h-3.3c-1.143,0-2.285.012-3.428,0-.794-.012-1.154.323-1.136,1.142q.049,2.157,0,4.316c-.017.819.343,1.14,1.14,1.133,2.116-.019,4.231-.016,6.347,0,.559,0,1.1-.082,1.088-.736-.01-.593-.561-.654-1.047-.655-1.143,0-2.285.006-3.428,0-2.842-.01-2.817-.011-2.773-2.891.011-.713.191-.957.926-.937" transform="translate(-63.178 -105.642)" fill="#4d787e"/>
        <path id="Trazado_1033273" data-name="Trazado 1033273" d="M158.677,71.417c-.009-.732-.613-.691-1.115-.692q-6.2,0-12.4.013c-.522,0-1.132.051-1.107.724.024.636.6.684,1.139.681,2.024-.012,4.049,0,6.074,0v.009h6.327c.526,0,1.092-.013,1.083-.729" transform="translate(-113.227 -55.591)" fill="#4d787e"/>
        <path id="Trazado_1033274" data-name="Trazado 1033274" d="M132.421,234.3q-5.119-.007-10.237-.012c-.552,0-1.1.129-1.113.749-.011.653.559.722,1.1.719,1.685-.009,3.37,0,5.056,0,1.727,0,3.455-.005,5.182,0,.554,0,1.079-.091,1.041-.776-.033-.59-.541-.676-1.031-.676" transform="translate(-95.162 -184.155)" fill="#4d787e"/>
        <path id="Trazado_1033275" data-name="Trazado 1033275" d="M83.07,221.832a.951.951,0,0,0,.373-.172c1.288-1.4,2.572-2.8,3.831-4.219a.63.63,0,0,0-.948-.823c-.605.587-1.175,1.211-1.768,1.811-.5.507-.94,1.222-1.549,1.432-.469.162-.8-.732-1.276-1.057a.789.789,0,0,0-.936-.111.583.583,0,0,0-.3.522,7.643,7.643,0,0,0,2.569,2.617" transform="translate(-63.274 -170.103)" fill="#4d787e"/>
        <path id="Trazado_1033276" data-name="Trazado 1033276" d="M82.589,183.266a2.149,2.149,0,0,0,.4.255,1.539,1.539,0,0,0,.368-.2c1.295-1.389,2.6-2.772,3.861-4.187a.573.573,0,0,0-.15-.888.663.663,0,0,0-.91.138c-.493.521-.993,1.036-1.487,1.556s-.895,1.24-1.5,1.52c-.832.386-.957-.807-1.581-1.066-.334-.139-.6-.3-.906,0a.569.569,0,0,0-.046.887q.962,1.006,1.951,1.985" transform="translate(-63.232 -140.003)" fill="#4d787e"/>
        <path id="Trazado_1033277" data-name="Trazado 1033277" d="M152.18,86.844c.477,0,.871-.123.859-.675s-.41-.666-.883-.665q-3.613.007-7.225,0c-.483,0-.9.17-.887.674.014.484.415.665.911.657,1.183-.02,2.366-.006,3.549-.006v.012c1.225,0,2.451,0,3.676,0" transform="translate(-113.219 -67.207)" fill="#4d787e"/>
        <path id="Trazado_1033278" data-name="Trazado 1033278" d="M123.663,195.408c-.457-.037-.919-.026-1.378-.025-.553,0-1.232-.013-1.245.708s.651.727,1.211.71c.167,0,.334,0,.5,0v0c.293,0,.585,0,.878,0,.445.007.885-.049.935-.593.058-.623-.421-.756-.9-.8" transform="translate(-95.138 -153.57)" fill="#4d787e"/>
        <path id="Trazado_1033279" data-name="Trazado 1033279" d="M122.8,181.254c-.3.118-.526.313-.5.644a.428.428,0,0,0,.536.39.458.458,0,0,0,.41-.536c-.027-.269-.139-.474-.446-.5" transform="translate(-96.125 -142.467)" fill="#4d787e"/>
        <path id="Trazado_1033280" data-name="Trazado 1033280" d="M138.511,16.325a2.1,2.1,0,0,0,2.138-2.169,2.065,2.065,0,0,0-2.118-2.168,2.1,2.1,0,0,0-2.232,2.07,2.228,2.228,0,0,0,2.212,2.268m.025-2.976a.828.828,0,0,1,.8.77.793.793,0,0,1-.9.753.684.684,0,0,1-.689-.751.7.7,0,0,1,.79-.772" transform="translate(-107.131 -9.422)" fill="#4d787e"/>
        <path id="Trazado_1033281" data-name="Trazado 1033281" d="M146.852,111.959a9.359,9.359,0,1,0,9.432,9.249,9.43,9.43,0,0,0-9.432-9.249m.031,17.279a7.922,7.922,0,1,1,7.963-7.888,7.8,7.8,0,0,1-7.963,7.888" transform="translate(-108.148 -88)" fill="#4d787e"/>
        <path id="Trazado_1033282" data-name="Trazado 1033282" d="M155.956,139.912c1.521-.012,3.042,0,4.563,0s3.042,0,4.563,0c.47,0,1,.034,1.038-.622.042-.725-.495-.776-1.036-.776q-4.563-.005-9.127-.008c-.506,0-1.125-.022-1.112.7.012.672.568.716,1.11.712" transform="translate(-121.71 -108.864)" fill="#4d787e"/>
        <path id="Trazado_1033283" data-name="Trazado 1033283" d="M165.252,153.312c-1.565.021-3.131.008-4.7.008s-3.131.007-4.7,0c-.523,0-.961.108-.967.724-.006.571.443.662.887.664q4.76.02,9.52.019c.5,0,1-.159.976-.745s-.5-.674-1.023-.667" transform="translate(-121.746 -120.504)" fill="#4d787e"/>
        <path id="Trazado_1033284" data-name="Trazado 1033284" d="M161.182,168.346q-2.774,0-5.549.01c-.451,0-.9.11-.893.651.009.587.451.718.976.707.882-.018,1.765,0,2.648-.006.925,0,1.85-.021,2.774.007.545.016.952-.149.948-.725,0-.538-.459-.645-.9-.646" transform="translate(-121.627 -132.32)" fill="#4d787e"/>
      </g>
    </g>
  </g>
</svg>
