<svg xmlns="http://www.w3.org/2000/svg" xmlns:xlink="http://www.w3.org/1999/xlink" width="126" height="126" viewBox="0 0 126 126">
  <defs>
    <clipPath id="clip-path">
      <rect id="Rectángulo_456277" data-name="Rectángulo 456277" width="126" height="126" transform="translate(-0.173 -0.173)" fill="#d35560"/>
    </clipPath>
    <clipPath id="clip-path-2">
      <rect id="Rectángulo_459895" data-name="Rectángulo 459895" width="74.292" height="74.318" fill="none"/>
    </clipPath>
  </defs>
  <g id="Grupo_1187788" data-name="Grupo 1187788" transform="translate(-269.711 -1786.363)">
    <g id="Grupo_1180210" data-name="Grupo 1180210" transform="translate(-625.347 -5497.637)">
      <g id="Grupo_1180176" data-name="Grupo 1180176" transform="translate(14330.847 19964.789)">
        <g id="Grupo_1179924" data-name="Grupo 1179924" transform="translate(-13435.616 -12680.616)">
          <g id="Grupo_1179923" data-name="Grupo 1179923" transform="translate(0 0)" clip-path="url(#clip-path)">
            <path id="Trazado_1004716" data-name="Trazado 1004716" d="M62.806,125.612c-2.04,0-3.948-2.331-5.937-2.525-2.026-.2-4.351,1.715-6.315,1.325-1.993-.4-3.409-3.055-5.329-3.638-1.941-.59-4.6.83-6.452.058-1.871-.777-2.738-3.663-4.51-4.614s-4.665-.085-6.338-1.206-1.967-4.124-3.525-5.4-4.557-.986-5.984-2.413-1.13-4.424-2.412-5.984-4.279-1.846-5.4-3.525-.249-4.555-1.206-6.338-3.836-2.64-4.614-4.51c-.771-1.855.648-4.511.059-6.452C4.254,78.467,1.6,77.051,1.2,75.058c-.39-1.964,1.523-4.289,1.325-6.315C2.331,66.754,0,64.846,0,62.806s2.331-3.948,2.525-5.937c.2-2.026-1.715-4.35-1.325-6.315.4-1.993,3.054-3.409,3.638-5.329.59-1.941-.829-4.6-.058-6.452.778-1.871,3.663-2.737,4.614-4.51S9.478,29.6,10.6,27.924,14.723,25.957,16,24.4s.986-4.557,2.413-5.984S22.84,17.286,24.4,16s1.846-4.279,3.525-5.4,4.555-.249,6.338-1.206,2.639-3.836,4.51-4.614,4.511.648,6.452.058C47.145,4.254,48.56,1.6,50.554,1.2c1.964-.39,4.289,1.523,6.315,1.325C58.858,2.331,60.766,0,62.806,0s3.948,2.331,5.937,2.525c2.026.2,4.351-1.715,6.315-1.325,1.993.4,3.409,3.055,5.329,3.638,1.941.59,4.6-.83,6.452-.058,1.871.777,2.738,3.663,4.51,4.614s4.665.084,6.338,1.206,1.967,4.124,3.525,5.4,4.557.986,5.984,2.413,1.13,4.424,2.412,5.984,4.279,1.846,5.4,3.525.249,4.555,1.206,6.338,3.836,2.64,4.614,4.51c.771,1.855-.648,4.511-.058,6.452.583,1.919,3.242,3.335,3.638,5.328.39,1.964-1.523,4.289-1.325,6.315.195,1.989,2.525,3.9,2.525,5.937s-2.331,3.948-2.525,5.938c-.2,2.026,1.715,4.35,1.325,6.315-.4,1.993-3.054,3.409-3.638,5.329-.59,1.941.829,4.6.058,6.452-.778,1.871-3.663,2.738-4.614,4.511s-.084,4.665-1.206,6.338-4.124,1.967-5.4,3.525-.986,4.557-2.413,5.984-4.424,1.13-5.984,2.413-1.846,4.278-3.525,5.4-4.555.249-6.338,1.206-2.639,3.837-4.51,4.614c-1.855.771-4.511-.648-6.452-.058-1.919.583-3.335,3.242-5.328,3.638-1.964.39-4.289-1.523-6.315-1.325-1.99.194-3.9,2.525-5.938,2.525" transform="translate(0.021 0.022)" fill="#3342a4"/>
            <path id="Trazado_1004717" data-name="Trazado 1004717" d="M14,70.865A56.865,56.865,0,1,1,70.865,127.73,56.865,56.865,0,0,1,14,70.865" transform="translate(-8.038 -8.037)" fill="#fff7e8"/>
            <path id="Trazado_1021102" data-name="Trazado 1021102" d="M14,66.624a52.624,52.624,0,1,1,52.624,52.624A52.624,52.624,0,0,1,14,66.624" transform="translate(-3.798 -3.795)" fill="#3342a4"/>
          </g>
        </g>
        <g id="Grupo_1180053" data-name="Grupo 1180053" transform="translate(-13407.189 -12652.604)">
          <rect id="Rectángulo_401104" data-name="Rectángulo 401104" width="68.804" height="69.633" transform="translate(0 0)" fill="none"/>
        </g>
      </g>
    </g>
    <g id="Grupo_1187628" data-name="Grupo 1187628" transform="translate(295.564 1811.841)">
      <g id="Grupo_1187627" data-name="Grupo 1187627" clip-path="url(#clip-path-2)">
        <path id="Trazado_1031602" data-name="Trazado 1031602" d="M73.057,74.314l-71.757,0A1.236,1.236,0,0,1,.014,73.072L0,67.873,14.961,37.929a1.2,1.2,0,0,1,1.144-.749l7.494-.035a21.045,21.045,0,1,1,27.1,0l7.491.034a1.217,1.217,0,0,1,1.145.752L74.292,67.871l-.019,5.206a1.2,1.2,0,0,1-1.216,1.237" transform="translate(0 0)" fill="#040505"/>
        <path id="Trazado_1031603" data-name="Trazado 1031603" d="M31.007,231.758q.562-.069.458.921l1.6,0q-.061-.669.463-.749c.109-.665,2.176-.781,2.43-.169q.507-.057.516.924a6.726,6.726,0,0,1,2.134.155l.256.412q-.119,4.559.175,9.024l.716.319,30.609,0,.465.156a5.655,5.655,0,0,1,.236,2.3q.664-.089.751.448c.655.161.617,2.236-.013,2.448l-1.143.035-.053,2.458-54.915,0,8.665-17.331,4.166-.015.052-1.333c.152-.656,2.22-.63,2.43,0" transform="translate(-12.456 -183.553)" fill="#68a652"/>
        <path id="Trazado_1031604" data-name="Trazado 1031604" d="M110.924,12.442q.055.154.356-.013a18.4,18.4,0,0,1,10.986,5.617c7.208,11.14.86,26.3-11.757,29.8l-2.9,7.448-.473.077-2.341-5.885a1.207,1.207,0,0,0-.737-.716A18.565,18.565,0,0,1,90.407,33.3q.258-.843-.045-.548a23.625,23.625,0,0,1,0-3.853q.288.015.044-.517a18.437,18.437,0,0,1,20.517-15.941" transform="translate(-71.654 -9.765)" fill="#dadada"/>
        <path id="Trazado_1031605" data-name="Trazado 1031605" d="M111.227,205.766c-.154.656-2.224.627-2.435,0q-.509.071-.5-.92H106.85a.96.96,0,0,1-.575.753c-.111.665-2.18.779-2.435.167q-.528.072-.492-.925a50.869,50.869,0,0,0-6.113.1.778.778,0,0,0-.42.611l-.039,3.753-.592.489-17.016,0-.521-.547-.01-8.57c.253-1.081-3.7-.914-4.082-.787q.035.636-.475.728l-2.43.169q-.51-.067-.508-.894l-1.574.026c.023.376,0,.611-.441.7l-2.43,0-.048-1.14-2.923.006,3.691-7.428,10.382.106,3.818,1.442,4.958,12.561a1.237,1.237,0,0,0,1.227.735,1.276,1.276,0,0,0,1.108-.885l4.9-12.409,3.7-1.421,10.45-.147,6.165,12.327-2.854.061Z" transform="translate(-50.578 -152.413)" fill="#4c773b"/>
        <path id="Trazado_1031606" data-name="Trazado 1031606" d="M81.469,338.554H12.236v-2.468H81.475Z" transform="translate(-9.711 -266.733)" fill="#284a20"/>
        <path id="Trazado_1031607" data-name="Trazado 1031607" d="M239.6,257.742q.51.071.5.9,1.692.26,1.592-.484l.422-.248h2.435l.047,1.143,4.2.058,6.157,12.329-10.366-.007-.023-2.456-1.314-.029.012-2.448q.076-.551.9-.455c.091-.191.189-4-.5-4.039l-11.2-.066c-.983-.193-.99-3.074-.022-3.285l4.242-.007q-.014-.644.484-.738Z" transform="translate(-183.902 -204.557)" fill="#3a5b2a"/>
        <path id="Trazado_1031608" data-name="Trazado 1031608" d="M191.979,50.442q-.237.948.009.547A18.432,18.432,0,0,1,178.8,70.718c-.437.128-.943.258-1.127.718l-4.051,10.159-1.688-4.142,3.08-7.9A19.795,19.795,0,0,0,187.548,41.53c-.26-.525-.552-.855-.481-1.4a18.336,18.336,0,0,1,4.913,10.314" transform="translate(-136.454 -31.848)" fill="#b9b8b8"/>
        <path id="Trazado_1031609" data-name="Trazado 1031609" d="M268.127,90.66A2.407,2.407,0,0,1,268,91.783a1.906,1.906,0,0,1,.113-1.67Z" transform="translate(-212.593 -71.518)" fill="#c2c2c1"/>
        <path id="Trazado_1031610" data-name="Trazado 1031610" d="M186.017,12.923l.356-.013a1.4,1.4,0,0,1-1.471.128,2.8,2.8,0,0,1,1.116-.115" transform="translate(-146.747 -10.246)" fill="#e5e5e4"/>
        <path id="Trazado_1031611" data-name="Trazado 1031611" d="M90.709,109.218l-.045-.548a1.86,1.86,0,0,1,.165-.71,1.07,1.07,0,0,1-.12,1.259" transform="translate(-71.955 -85.682)" fill="#e6e6e6"/>
        <path id="Trazado_1031612" data-name="Trazado 1031612" d="M90.665,90.74l.044-.517c.327.17.338.718.116,1.028-.183-.234-.108-.407-.16-.512" transform="translate(-71.956 -71.605)" fill="#e7e7e7"/>
        <path id="Trazado_1031613" data-name="Trazado 1031613" d="M143.661,234.362l-.049,1.15-4.916.007.013,2.459,11.111,0a1.216,1.216,0,0,1,1.242,1.237l.009,3.7-1.31.029-1.157-.043-.041-2.445-30.887,0a1.221,1.221,0,0,1-1.266-1.249l-.013-8.643-2.446-.02-.048-1.333.05-1.142,3.685,0a1.228,1.228,0,0,1,1.234,1.247l.01,8.659H136.2l.021-3.711a1.226,1.226,0,0,1,1.237-1.244l6.157,0Z" transform="translate(-90.4 -181.01)" fill="#040504"/>
        <path id="Trazado_1031614" data-name="Trazado 1031614" d="M92.426,229.4l-.051,1.161-2.425,0L89.9,229.23l.045-1.137h2.432Z" transform="translate(-71.352 -181.026)" fill="#050606"/>
        <path id="Trazado_1031615" data-name="Trazado 1031615" d="M147.136,73.914l-19.848-.006a1.221,1.221,0,0,1-1.257-1.255V55.36a1.216,1.216,0,0,1,1.258-1.253h19.762a1.219,1.219,0,0,1,1.258,1.254V72.652a1.231,1.231,0,0,1-1.172,1.263" transform="translate(-100.024 -42.942)" fill="#040504"/>
        <path id="Trazado_1031616" data-name="Trazado 1031616" d="M272.432,253.426l-.044,1.15-2.434-.007-.039-1.31.041-1.166h2.436Z" transform="translate(-214.217 -200.074)" fill="#040505"/>
        <path id="Trazado_1031617" data-name="Trazado 1031617" d="M152.946,66.135l.411.194-.086,9.769a2.862,2.862,0,0,1-2.887,2.791l-12.123-.071-.246-.414L138,66.116l4.951,0,.007,6.178a1.246,1.246,0,0,0,1.243,1.246l4.94,0a1.218,1.218,0,0,0,1.235-1.241l.012-6.167Z" transform="translate(-109.526 -52.471)" fill="#b27749"/>
        <path id="Trazado_1031618" data-name="Trazado 1031618" d="M138.067,78.472l12.361.073a2.51,2.51,0,0,0,2.493-2.665L153,66.2l2.392,0V81.042l-17.307,0Z" transform="translate(-109.577 -52.54)" fill="#9d6643"/>
        <path id="Trazado_1031619" data-name="Trazado 1031619" d="M176.506,71.057l-2.486.018V66.155l2.475,0Z" transform="translate(-138.11 -52.503)" fill="#e1e3e3"/>
      </g>
    </g>
  </g>
</svg>
