<svg xmlns="http://www.w3.org/2000/svg" xmlns:xlink="http://www.w3.org/1999/xlink" width="126" height="126" viewBox="0 0 126 126">
  <defs>
    <clipPath id="clip-path">
      <rect id="Rectángulo_456277" data-name="Rectángulo 456277" width="126" height="126" transform="translate(-0.173 -0.173)" fill="#d35560"/>
    </clipPath>
    <clipPath id="clip-path-2">
      <rect id="Rectángulo_459894" data-name="Rectángulo 459894" width="68.382" height="68.382" fill="none"/>
    </clipPath>
  </defs>
  <g id="Grupo_1187787" data-name="Grupo 1187787" transform="translate(-581.711 -1786)">
    <g id="Grupo_1180208" data-name="Grupo 1180208" transform="translate(-313.347 -5498)">
      <g id="Grupo_1180176" data-name="Grupo 1180176" transform="translate(14330.847 19964.789)">
        <g id="Grupo_1179924" data-name="Grupo 1179924" transform="translate(-13435.616 -12680.616)">
          <g id="Grupo_1179923" data-name="Grupo 1179923" transform="translate(0 0)" clip-path="url(#clip-path)">
            <path id="Trazado_1004716" data-name="Trazado 1004716" d="M62.806,125.612c-2.04,0-3.948-2.331-5.937-2.525-2.026-.2-4.351,1.715-6.315,1.325-1.993-.4-3.409-3.055-5.329-3.638-1.941-.59-4.6.83-6.452.058-1.871-.777-2.738-3.663-4.51-4.614s-4.665-.085-6.338-1.206-1.967-4.124-3.525-5.4-4.557-.986-5.984-2.413-1.13-4.424-2.412-5.984-4.279-1.846-5.4-3.525-.249-4.555-1.206-6.338-3.836-2.64-4.614-4.51c-.771-1.855.648-4.511.059-6.452C4.254,78.467,1.6,77.051,1.2,75.058c-.39-1.964,1.523-4.289,1.325-6.315C2.331,66.754,0,64.846,0,62.806s2.331-3.948,2.525-5.937c.2-2.026-1.715-4.35-1.325-6.315.4-1.993,3.054-3.409,3.638-5.329.59-1.941-.829-4.6-.058-6.452.778-1.871,3.663-2.737,4.614-4.51S9.478,29.6,10.6,27.924,14.723,25.957,16,24.4s.986-4.557,2.413-5.984S22.84,17.286,24.4,16s1.846-4.279,3.525-5.4,4.555-.249,6.338-1.206,2.639-3.836,4.51-4.614,4.511.648,6.452.058C47.145,4.254,48.56,1.6,50.554,1.2c1.964-.39,4.289,1.523,6.315,1.325C58.858,2.331,60.766,0,62.806,0s3.948,2.331,5.937,2.525c2.026.2,4.351-1.715,6.315-1.325,1.993.4,3.409,3.055,5.329,3.638,1.941.59,4.6-.83,6.452-.058,1.871.777,2.738,3.663,4.51,4.614s4.665.084,6.338,1.206,1.967,4.124,3.525,5.4,4.557.986,5.984,2.413,1.13,4.424,2.412,5.984,4.279,1.846,5.4,3.525.249,4.555,1.206,6.338,3.836,2.64,4.614,4.51c.771,1.855-.648,4.511-.058,6.452.583,1.919,3.242,3.335,3.638,5.328.39,1.964-1.523,4.289-1.325,6.315.195,1.989,2.525,3.9,2.525,5.937s-2.331,3.948-2.525,5.938c-.2,2.026,1.715,4.35,1.325,6.315-.4,1.993-3.054,3.409-3.638,5.329-.59,1.941.829,4.6.058,6.452-.778,1.871-3.663,2.738-4.614,4.511s-.084,4.665-1.206,6.338-4.124,1.967-5.4,3.525-.986,4.557-2.413,5.984-4.424,1.13-5.984,2.413-1.846,4.278-3.525,5.4-4.555.249-6.338,1.206-2.639,3.837-4.51,4.614c-1.855.771-4.511-.648-6.452-.058-1.919.583-3.335,3.242-5.328,3.638-1.964.39-4.289-1.523-6.315-1.325-1.99.194-3.9,2.525-5.938,2.525" transform="translate(0.021 0.022)" fill="#3342a4"/>
            <path id="Trazado_1004717" data-name="Trazado 1004717" d="M14,70.865A56.865,56.865,0,1,1,70.865,127.73,56.865,56.865,0,0,1,14,70.865" transform="translate(-8.038 -8.037)" fill="#fff7e8"/>
            <path id="Trazado_1021102" data-name="Trazado 1021102" d="M14,66.624a52.624,52.624,0,1,1,52.624,52.624A52.624,52.624,0,0,1,14,66.624" transform="translate(-3.798 -3.795)" fill="#3342a4"/>
          </g>
        </g>
        <g id="Grupo_1180053" data-name="Grupo 1180053" transform="translate(-13407.189 -12652.604)">
          <rect id="Rectángulo_401104" data-name="Rectángulo 401104" width="68.804" height="69.633" transform="translate(0 0)" fill="none"/>
        </g>
      </g>
    </g>
    <g id="Grupo_1187626" data-name="Grupo 1187626" transform="translate(610.521 1814.809)">
      <g id="Grupo_1187625" data-name="Grupo 1187625" clip-path="url(#clip-path-2)">
        <path id="Trazado_1031537" data-name="Trazado 1031537" d="M56.214,76.046l.134-.38,38.594.01a2.626,2.626,0,0,1,2.683,2.586l-.073,16.189-.381.23a1.052,1.052,0,0,1-1.1,0l-7.724-.007-.529-.323q-.056-7.642-.18-15.268l-.7-.369H68.78l-.7.368Q68,86.763,67.85,94.432l-.38.239-8.015.025a.756.756,0,0,0-.6.786q-.073,8.17.106,16.3l.718.372H96.047a1.059,1.059,0,0,1,1.1-.015c.149.037.373.1.385.211a34.129,34.129,0,0,1,.092,4.446l-.374.281c.6.167.552,2.093-.03,2.3l-2.231.008-.383-.2-.077-1.693-1.463.059-.024,1.579-.384.25-2.231.007-.383-.2-.077-1.694-1.463.059-.024,1.579-.384.25-2.231.007-.383-.2-.077-1.694-1.463.059-.024,1.579-.384.25-2.231.007-.383-.2-.077-1.694-1.463.059-.024,1.579-.384.25-2.231.007-.383-.2-.077-1.694-1.463.059L74.8,119.13l-.384.25-2.231.007-.383-.2-.077-1.694-1.463.059-.024,1.579-.384.25-2.231.007-.383-.2-.077-1.694-1.463.059-.024,1.579-.384.25-2.231.007-.383-.2-.077-1.694-1.463.059-.024,1.579-.384.25-2.231.005-.383-.2-.082-1.7-1.583-.006-.256-.381-.381-.205L55.75,115.2l-1.579-.021-.251-.383,0-2.242.2-.382L55.8,112.1l-.055-1.461-1.58-.021-.251-.384V108l.2-.382,1.685-.072-.055-1.461-1.58-.021-.251-.384v-2.242l.2-.382,1.685-.072-.055-1.461-1.58-.021-.251-.384V98.873l.2-.382,1.685-.072-.055-1.461-1.58-.021-.251-.384V94.312l.2-.382,1.685-.072L55.749,92.4l-1.58-.021-.251-.384V89.751l.2-.382L55.8,89.3l-.055-1.461-1.58-.021-.251-.384V85.189l.2-.382,1.685-.072-.055-1.461-1.58-.021-.251-.384V80.628l.2-.382,1.685-.072-.055-1.461-1.58-.021-.251-.384V76.067c.153-.607,2.079-.6,2.3-.021" transform="translate(-43.67 -61.242)" fill="#d3d2d1"/>
        <path id="Trazado_1031538" data-name="Trazado 1031538" d="M68.581,53.961l.384.2.088,1.679a7.457,7.457,0,0,0,1.461-.057l.029-1.574.385-.249,2.216,0,.384.2.087,1.683,1.461-.057.029-1.575.385-.249,2.216,0,.384.2.087,1.683,1.461-.057.029-1.575.385-.249,2.216,0,.384.2.087,1.683,1.461-.057.029-1.575.385-.249,2.216,0,.384.2.087,1.683,1.461-.057.029-1.575.385-.249,2.216,0,.384.2.087,1.683,1.461-.057.029-1.575.385-.249,2.216,0,.384.2.087,1.683,1.461-.057.029-1.575.385-.249,2.216,0,.384.2.087,1.683,1.461-.057.029-1.574.385-.249h2.216l.384.2.091,1.683,1.581,0,.256.38.381.206.065,1.7,1.58.016.252.383v2.236l-.2.383-1.69.081.059,1.462,1.58.017.253.383v2.236l-.2.383-1.69.081.059,1.462,1.58.017.252.383v2.236l-.2.383-1.69.081.059,1.462,1.58.017.252.383v2.236l-.2.383-1.69.081.059,1.462,1.58.017.252.383v2.236l-.2.383-1.69.081.059,1.462,1.58.017.252.383v2.236l-.2.383-1.69.081.059,1.462,1.58.017.252.383v2.236l-.2.383-1.69.081.059,1.462,1.58.017.252.383V92.69l-.2.383-1.69.081.059,1.462,1.58.017.253.383v2.236l-.2.383-1.691.083,0,1.581-.38.256c-.159.6-2.078.561-2.279-.019L105,94.6q-.57-.352-.266-1.53l-.009-14.4q-.267-1.129.3-1.532l.083-16.154a2.3,2.3,0,0,0-2.32-2.472L64.072,58.5c-.606-.146-.6-2.064-.019-2.273.15-.605,2.068-.583,2.274,0q.113-1.143.2-2.272Z" transform="translate(-51.528 -43.696)" fill="#b9b8b8"/>
        <path id="Trazado_1031539" data-name="Trazado 1031539" d="M66.309,296.195l-2.3,0c-.608-.161-.576-2.079,0-2.28l2.273.008Z" transform="translate(-51.482 -238.052)" fill="#050606"/>
        <path id="Trazado_1031540" data-name="Trazado 1031540" d="M92.087,296.24l-2.33-.007.035-2.266,2.267,0Z" transform="translate(-72.698 -238.095)" fill="#060706"/>
        <path id="Trazado_1031541" data-name="Trazado 1031541" d="M116.088,296.24l-2.33-.007.035-2.266,2.267,0Z" transform="translate(-92.137 -238.095)" fill="#050606"/>
        <path id="Trazado_1031542" data-name="Trazado 1031542" d="M140.088,296.24l-2.33-.007.035-2.267,2.267,0Z" transform="translate(-111.576 -238.095)" fill="#050606"/>
        <path id="Trazado_1031543" data-name="Trazado 1031543" d="M164.088,296.24l-2.33-.007.035-2.267,2.267,0Z" transform="translate(-131.015 -238.095)" fill="#050606"/>
        <path id="Trazado_1031544" data-name="Trazado 1031544" d="M188.088,296.24l-2.33-.007.035-2.267,2.267,0Z" transform="translate(-150.453 -238.095)" fill="#050606"/>
        <path id="Trazado_1031545" data-name="Trazado 1031545" d="M236.088,296.24l-2.33-.007.035-2.266,2.267,0Z" transform="translate(-189.331 -238.095)" fill="#050606"/>
        <path id="Trazado_1031546" data-name="Trazado 1031546" d="M260.087,296.24l-2.33-.007.035-2.266,2.267,0Z" transform="translate(-208.77 -238.095)" fill="#050606"/>
        <path id="Trazado_1031547" data-name="Trazado 1031547" d="M10.245,293.913c.607.156.6,2.086.019,2.3.165.049.157.107-.011.175a1.31,1.31,0,0,0-.764-.191H0v-2.285Z" transform="translate(0 -238.054)" fill="#040504"/>
        <path id="Trazado_1031548" data-name="Trazado 1031548" d="M304.014,296.19c-.6-.154-.579-2.074,0-2.28l10.243,0V296.2Z" transform="translate(-245.876 -238.052)" fill="#040505"/>
        <path id="Trazado_1031549" data-name="Trazado 1031549" d="M284.066,293.83c.6.154.578,2.074,0,2.28h-2.309l.03-2.3Z" transform="translate(-228.208 -237.971)" fill="#050606"/>
        <path id="Trazado_1031550" data-name="Trazado 1031550" d="M212.088,296.24l-2.33-.007.035-2.267,2.267,0Z" transform="translate(-169.892 -238.095)" fill="#050606"/>
        <path id="Trazado_1031551" data-name="Trazado 1031551" d="M10.246,53.932c.6.154.579,2.074,0,2.281L0,56.216l0-2.287Z" transform="translate(0 -43.68)" fill="#040505"/>
        <path id="Trazado_1031552" data-name="Trazado 1031552" d="M304.009,56.207c-.6-.154-.58-2.075,0-2.282l10.245,0v2.288Z" transform="translate(-245.871 -43.675)" fill="#040505"/>
        <path id="Trazado_1031553" data-name="Trazado 1031553" d="M260.075,53.991l-.042,2.259H257.77l-.04-2.263Z" transform="translate(-208.748 -43.727)" fill="#040504"/>
        <path id="Trazado_1031554" data-name="Trazado 1031554" d="M284.044,53.914c.6.154.577,2.075,0,2.281l-2.269,0-.043-2.261Z" transform="translate(-228.186 -43.667)" fill="#040504"/>
        <path id="Trazado_1031555" data-name="Trazado 1031555" d="M116.075,53.99l-.042,2.26H113.77l-.04-2.263Z" transform="translate(-92.115 -43.727)" fill="#040504"/>
        <path id="Trazado_1031556" data-name="Trazado 1031556" d="M66.29,53.931a5.228,5.228,0,0,1-.007,2.275l-2.274,0c-.6-.154-.579-2.074,0-2.281Z" transform="translate(-51.484 -43.68)" fill="#040504"/>
        <path id="Trazado_1031557" data-name="Trazado 1031557" d="M92.071,54.006l-.042,2.259H89.767l-.041-2.258Z" transform="translate(-72.673 -43.742)" fill="#040504"/>
        <path id="Trazado_1031558" data-name="Trazado 1031558" d="M140.075,53.99l-.042,2.26H137.77l-.04-2.263Z" transform="translate(-111.554 -43.727)" fill="#040504"/>
        <path id="Trazado_1031559" data-name="Trazado 1031559" d="M164.075,53.99l-.042,2.26H161.77l-.04-2.263Z" transform="translate(-130.992 -43.727)" fill="#040504"/>
        <path id="Trazado_1031560" data-name="Trazado 1031560" d="M188.075,53.99l-.042,2.26H185.77l-.04-2.263Z" transform="translate(-150.431 -43.727)" fill="#040504"/>
        <path id="Trazado_1031561" data-name="Trazado 1031561" d="M212.075,53.99l-.042,2.26H209.77l-.04-2.263Z" transform="translate(-169.87 -43.727)" fill="#040504"/>
        <path id="Trazado_1031562" data-name="Trazado 1031562" d="M236.075,53.989l-.042,2.26H233.77l-.04-2.263Z" transform="translate(-189.309 -43.726)" fill="#040504"/>
        <path id="Trazado_1031563" data-name="Trazado 1031563" d="M77.866,56.213l.007-2.275.2,0-.006,2.088a.174.174,0,0,1-.2.185" transform="translate(-63.067 -43.687)" fill="#b8b7b7"/>
        <path id="Trazado_1031564" data-name="Trazado 1031564" d="M56.188,53.93V56.21l-2.279,0V53.933Z" transform="translate(-43.664 -43.68)" fill="#b8b7b7"/>
        <path id="Trazado_1031565" data-name="Trazado 1031565" d="M296.177,53.918V56.2l-2.282,0,0-2.281Z" transform="translate(-238.04 -43.668)" fill="#b1b0b0"/>
        <path id="Trazado_1031566" data-name="Trazado 1031566" d="M296.835,56.818l-1.9,0V54.935l1.886,0Z" transform="translate(-238.883 -44.493)" fill="#bab9b8"/>
        <path id="Trazado_1031567" data-name="Trazado 1031567" d="M56.181,10.25c-.152.605-2.072.582-2.278,0L53.9,0h2.281Z" transform="translate(-43.657 -0.001)" fill="#040504"/>
        <path id="Trazado_1031568" data-name="Trazado 1031568" d="M56.173,304.072v10.243H53.89l.012-10.043.011-.175c.141-.606,2.054-.6,2.26-.025" transform="translate(-43.648 -245.933)" fill="#040504"/>
        <path id="Trazado_1031569" data-name="Trazado 1031569" d="M56.189,64.045l.019,2.273-2.3.021,0-2.292c.153-.6,2.073-.581,2.279,0" transform="translate(-43.664 -51.515)" fill="#050606"/>
        <path id="Trazado_1031570" data-name="Trazado 1031570" d="M53.917,92.12V89.8l2.267.029V92.1Z" transform="translate(-43.67 -72.733)" fill="#040504"/>
        <path id="Trazado_1031571" data-name="Trazado 1031571" d="M53.917,116.119V113.8l2.267.029V116.1Z" transform="translate(-43.67 -92.172)" fill="#040504"/>
        <path id="Trazado_1031572" data-name="Trazado 1031572" d="M53.917,140.119V137.8l2.267.029V140.1Z" transform="translate(-43.67 -111.611)" fill="#040504"/>
        <path id="Trazado_1031573" data-name="Trazado 1031573" d="M53.917,164.119V161.8l2.267.029V164.1Z" transform="translate(-43.67 -131.05)" fill="#040504"/>
        <path id="Trazado_1031574" data-name="Trazado 1031574" d="M53.917,212.119V209.8l2.267.029V212.1Z" transform="translate(-43.67 -169.927)" fill="#040504"/>
        <path id="Trazado_1031575" data-name="Trazado 1031575" d="M53.917,236.12V233.8l2.267.029V236.1Z" transform="translate(-43.67 -189.366)" fill="#040504"/>
        <path id="Trazado_1031576" data-name="Trazado 1031576" d="M53.919,260.12V257.8l2.267.029V260.1Z" transform="translate(-43.671 -208.804)" fill="#040504"/>
        <path id="Trazado_1031577" data-name="Trazado 1031577" d="M56.184,284.1c-.153.6-2.073.579-2.279,0l0-2.3,2.266.03Z" transform="translate(-43.66 -228.244)" fill="#050606"/>
        <path id="Trazado_1031578" data-name="Trazado 1031578" d="M53.917,188.119V185.8l2.267.029V188.1Z" transform="translate(-43.67 -150.488)" fill="#040504"/>
        <path id="Trazado_1031579" data-name="Trazado 1031579" d="M56.184,293.91v2.28l-2.26.025-.019-2.3Z" transform="translate(-43.661 -238.051)" fill="#d1d0d0"/>
        <path id="Trazado_1031580" data-name="Trazado 1031580" d="M116.594,106.272l.08,1.523.008,14.425-.113,1.515a2.515,2.515,0,0,1-1.078.394H79.078a1.124,1.124,0,0,1-1.174-1.155L77.9,107.044a1.127,1.127,0,0,1,1.151-1.151l7.972-.011.006-14.8a1.121,1.121,0,0,1,1.158-1.153h18.2a1.123,1.123,0,0,1,1.157,1.155l.006,14.8,7.976.01a2.977,2.977,0,0,1,1.07.38" transform="translate(-63.093 -72.833)" fill="#040504"/>
        <path id="Trazado_1031581" data-name="Trazado 1031581" d="M142.806,108.208c.017.575.71.956,1.171.956l4.582,0a1.21,1.21,0,0,0,1.176-.99l.059-5.743,2.49.012q.125,4.588.06,9.2c-.263,1.681-1.245,2.292-2.836,2.471l-10.966-.017-.166-.248.005-11.41,4.33-.025Z" transform="translate(-112.076 -82.956)" fill="#b27748"/>
        <path id="Trazado_1031582" data-name="Trazado 1031582" d="M142.419,107.783l-.167-5.688-4.163,0-.012,11.219,11.037.006a2.375,2.375,0,0,0,2.465-2.119l.01-9.121-2.078.023-.163,5.652L149.3,101.9l4.56.009v13.677H137.9l0-13.68,4.562,0Z" transform="translate(-111.689 -82.531)" fill="#a86f47"/>
        <path id="Trazado_1031583" data-name="Trazado 1031583" d="M176.2,106.495l-2.29.017v-4.533l2.279,0Z" transform="translate(-140.858 -82.598)" fill="#e2e4e3"/>
        <path id="Trazado_1031584" data-name="Trazado 1031584" d="M199.665,185.931l.379.178-.077,8.869c-.243,1.832-1.053,2.51-2.854,2.72l-10.984-.091-.222-.382-.013-11.322,4.559,0,.006,5.7a1.157,1.157,0,0,0,1.146,1.155l4.546-.01a1.12,1.12,0,0,0,1.14-1.145l.011-5.682Z" transform="translate(-150.564 -150.568)" fill="#92613f"/>
        <path id="Trazado_1031585" data-name="Trazado 1031585" d="M94.808,191.993c.017.571.714.952,1.171.953l4.58.006a1.221,1.221,0,0,0,1.178-.989l.059-5.743a5.872,5.872,0,0,1,2.564.2l-.008,8.745a2.631,2.631,0,0,1-2.654,2.722l-11.152.006-.167-.247,0-11.41,4.33-.025Z" transform="translate(-73.201 -150.776)" fill="#a86f43"/>
        <path id="Trazado_1031586" data-name="Trazado 1031586" d="M94.418,191.789l-.167-5.689-4.163,0-.01,11.218L101.3,197.3a2.29,2.29,0,0,0,2.279-2.452l.012-8.762-2.08.022-.162,5.653L101.3,185.9l4.562.016v13.674l-15.965,0,0-13.682,4.562,0Z" transform="translate(-72.811 -150.572)" fill="#9e6740"/>
        <path id="Trazado_1031587" data-name="Trazado 1031587" d="M185.961,197.315l11.2.093a2.386,2.386,0,0,0,2.482-2.485l.075-8.9,2.2-.011v13.666l-15.939,0Z" transform="translate(-150.619 -150.657)" fill="#80543a"/>
        <path id="Trazado_1031588" data-name="Trazado 1031588" d="M224.2,190.495l-2.29.017v-4.533l2.279,0Z" transform="translate(-179.736 -150.633)" fill="#e2e4e3"/>
        <path id="Trazado_1031589" data-name="Trazado 1031589" d="M128.2,190.495l-2.29.017v-4.533l2.279,0Z" transform="translate(-101.981 -150.633)" fill="#e2e4e3"/>
        <path id="Trazado_1031590" data-name="Trazado 1031590" d="M296.18,10.249c-.154.6-2.074.575-2.28,0V0h2.282Z" transform="translate(-238.043 0.001)" fill="#040504"/>
        <path id="Trazado_1031591" data-name="Trazado 1031591" d="M296.182,304.014v10.239H293.9V304.014c.154-.6,2.074-.579,2.281,0" transform="translate(-238.043 -245.876)" fill="#040504"/>
        <path id="Trazado_1031592" data-name="Trazado 1031592" d="M296.178,64.037l0,2.3-2.267-.023-.011-2.28c.15-.6,2.068-.578,2.282,0" transform="translate(-238.04 -51.505)" fill="#050606"/>
        <path id="Trazado_1031593" data-name="Trazado 1031593" d="M296.2,89.795V92.12l-2.268-.024,0-2.269Z" transform="translate(-238.065 -72.729)" fill="#050606"/>
        <path id="Trazado_1031594" data-name="Trazado 1031594" d="M296.2,113.795v2.325l-2.268-.024,0-2.269Z" transform="translate(-238.065 -92.168)" fill="#050606"/>
        <path id="Trazado_1031595" data-name="Trazado 1031595" d="M296.2,137.795v2.325l-2.268-.024,0-2.269Z" transform="translate(-238.065 -111.606)" fill="#050606"/>
        <path id="Trazado_1031596" data-name="Trazado 1031596" d="M296.2,161.795v2.325l-2.268-.024,0-2.269Z" transform="translate(-238.065 -131.045)" fill="#050606"/>
        <path id="Trazado_1031597" data-name="Trazado 1031597" d="M296.2,185.795v2.325l-2.268-.024,0-2.269Z" transform="translate(-238.065 -150.484)" fill="#050606"/>
        <path id="Trazado_1031598" data-name="Trazado 1031598" d="M296.2,209.795v2.326l-2.268-.024,0-2.269Z" transform="translate(-238.065 -169.923)" fill="#050606"/>
        <path id="Trazado_1031599" data-name="Trazado 1031599" d="M296.2,233.795v2.325l-2.268-.024,0-2.269Z" transform="translate(-238.065 -189.361)" fill="#050606"/>
        <path id="Trazado_1031600" data-name="Trazado 1031600" d="M296.2,257.795v2.326l-2.268-.024,0-2.269Z" transform="translate(-238.065 -208.8)" fill="#050606"/>
        <path id="Trazado_1031601" data-name="Trazado 1031601" d="M296.184,281.8l.006,2.3c-.154.6-2.074.579-2.28,0l0-2.269Z" transform="translate(-238.051 -228.239)" fill="#050606"/>
        <rect id="Rectángulo_459893" data-name="Rectángulo 459893" width="2.28" height="2.28" transform="translate(55.858 55.859)" fill="#b8b7b7"/>
      </g>
    </g>
  </g>
</svg>
