<svg xmlns="http://www.w3.org/2000/svg" xmlns:xlink="http://www.w3.org/1999/xlink" width="126" height="126" viewBox="0 0 126 126">
  <defs>
    <clipPath id="clip-path">
      <rect id="Rectángulo_456277" data-name="Rectángulo 456277" width="126" height="126" transform="translate(-0.173 -0.173)" fill="#d35560"/>
    </clipPath>
    <clipPath id="clip-path-2">
      <rect id="Rectángulo_459892" data-name="Rectángulo 459892" width="61.641" height="61.653" fill="none"/>
    </clipPath>
  </defs>
  <g id="Grupo_1187786" data-name="Grupo 1187786" transform="translate(-893.711 -1786.363)">
    <g id="Grupo_1180204" data-name="Grupo 1180204" transform="translate(-1.347 -5497.637)">
      <g id="Grupo_1180176" data-name="Grupo 1180176" transform="translate(14330.847 19964.789)">
        <g id="Grupo_1179924" data-name="Grupo 1179924" transform="translate(-13435.616 -12680.616)">
          <g id="Grupo_1179923" data-name="Grupo 1179923" transform="translate(0 0)" clip-path="url(#clip-path)">
            <path id="Trazado_1004716" data-name="Trazado 1004716" d="M62.806,125.612c-2.04,0-3.948-2.331-5.937-2.525-2.026-.2-4.351,1.715-6.315,1.325-1.993-.4-3.409-3.055-5.329-3.638-1.941-.59-4.6.83-6.452.058-1.871-.777-2.738-3.663-4.51-4.614s-4.665-.085-6.338-1.206-1.967-4.124-3.525-5.4-4.557-.986-5.984-2.413-1.13-4.424-2.412-5.984-4.279-1.846-5.4-3.525-.249-4.555-1.206-6.338-3.836-2.64-4.614-4.51c-.771-1.855.648-4.511.059-6.452C4.254,78.467,1.6,77.051,1.2,75.058c-.39-1.964,1.523-4.289,1.325-6.315C2.331,66.754,0,64.846,0,62.806s2.331-3.948,2.525-5.937c.2-2.026-1.715-4.35-1.325-6.315.4-1.993,3.054-3.409,3.638-5.329.59-1.941-.829-4.6-.058-6.452.778-1.871,3.663-2.737,4.614-4.51S9.478,29.6,10.6,27.924,14.723,25.957,16,24.4s.986-4.557,2.413-5.984S22.84,17.286,24.4,16s1.846-4.279,3.525-5.4,4.555-.249,6.338-1.206,2.639-3.836,4.51-4.614,4.511.648,6.452.058C47.145,4.254,48.56,1.6,50.554,1.2c1.964-.39,4.289,1.523,6.315,1.325C58.858,2.331,60.766,0,62.806,0s3.948,2.331,5.937,2.525c2.026.2,4.351-1.715,6.315-1.325,1.993.4,3.409,3.055,5.329,3.638,1.941.59,4.6-.83,6.452-.058,1.871.777,2.738,3.663,4.51,4.614s4.665.084,6.338,1.206,1.967,4.124,3.525,5.4,4.557.986,5.984,2.413,1.13,4.424,2.412,5.984,4.279,1.846,5.4,3.525.249,4.555,1.206,6.338,3.836,2.64,4.614,4.51c.771,1.855-.648,4.511-.058,6.452.583,1.919,3.242,3.335,3.638,5.328.39,1.964-1.523,4.289-1.325,6.315.195,1.989,2.525,3.9,2.525,5.937s-2.331,3.948-2.525,5.938c-.2,2.026,1.715,4.35,1.325,6.315-.4,1.993-3.054,3.409-3.638,5.329-.59,1.941.829,4.6.058,6.452-.778,1.871-3.663,2.738-4.614,4.511s-.084,4.665-1.206,6.338-4.124,1.967-5.4,3.525-.986,4.557-2.413,5.984-4.424,1.13-5.984,2.413-1.846,4.278-3.525,5.4-4.555.249-6.338,1.206-2.639,3.837-4.51,4.614c-1.855.771-4.511-.648-6.452-.058-1.919.583-3.335,3.242-5.328,3.638-1.964.39-4.289-1.523-6.315-1.325-1.99.194-3.9,2.525-5.938,2.525" transform="translate(0.021 0.022)" fill="#3342a4"/>
            <path id="Trazado_1004717" data-name="Trazado 1004717" d="M14,70.865A56.865,56.865,0,1,1,70.865,127.73,56.865,56.865,0,0,1,14,70.865" transform="translate(-8.038 -8.037)" fill="#fff7e8"/>
            <path id="Trazado_1021102" data-name="Trazado 1021102" d="M14,66.624a52.624,52.624,0,1,1,52.624,52.624A52.624,52.624,0,0,1,14,66.624" transform="translate(-3.798 -3.795)" fill="#3342a4"/>
          </g>
        </g>
        <g id="Grupo_1180053" data-name="Grupo 1180053" transform="translate(-13407.189 -12652.604)">
          <rect id="Rectángulo_401104" data-name="Rectángulo 401104" width="68.804" height="69.633" transform="translate(0 0)" fill="none"/>
        </g>
      </g>
    </g>
    <g id="Grupo_1187624" data-name="Grupo 1187624" transform="translate(925.89 1818.536)">
      <g id="Grupo_1187623" data-name="Grupo 1187623" clip-path="url(#clip-path-2)">
        <path id="Trazado_1031517" data-name="Trazado 1031517" d="M50.975,61.631l-.727-.236a10.18,10.18,0,0,1-.13-4.006c.214-.267,1.211-.362,1.251.13l.019-.228q1.732-.618,1.366,2.22l3.679-.016.133-.292a11.277,11.277,0,0,0,2.678-.1l.009-42.722Q45.166,9.372,30.893,2.571A17.6,17.6,0,0,1,28.25,3.655l-.19-.141.042.36L2.5,16.2c-.177,14.151-.169,28.879-.008,43.026l6.32,0q.215-16.567.041-33.19-2.631.4-3.024-1.387l.018-8.488c.147-.535.659-1.211,1.22-.913l44.748.045c.054-.138.109-.247.168-.249.679-.03,2.737-.1,3.219.234.556.388.927,1.412.392,1.828l-.055,7.665c.127.085.269.2.27.34,0,.988-2.389.979-3.066.924V51.107a.75.75,0,0,1-1.371.252c-.174.6-1.093.4-1.37-.153V30.254l-.055-.118-38.166,0a3.838,3.838,0,0,0-.121,1.572l-.26.148.035,28.879c.544.547-.365.784-.9.9l-9.485,0A1.023,1.023,0,0,1,0,60.564V15.443a.992.992,0,0,1,.639-.988L30.265.149A1.14,1.14,0,0,1,31.38.143L61,14.45a1.007,1.007,0,0,1,.637.993v45.12a1.017,1.017,0,0,1-1.04,1.069Z" transform="translate(0 0)" fill="#040504"/>
        <path id="Trazado_1031518" data-name="Trazado 1031518" d="M103.184,192.275q.164.411.121,0l6.964.019c.5.038.868.155.932.683q.555.256.428,1.361l-.015,13.7c-.045.507-.172.938-.729.943l-1.35.106-32.528-.017q-.941-.105-.987-.862l-.012-14.554c.182-.833.307-1.113,1.185-1.349l7.194-.024c-.176.267-.107.281.056-.007l.038-12.994c-.6-.565.415-1.416,1.158-1.377H101.8c.808-.115,1.953.72,1.342,1.376Z" transform="translate(-62.992 -147.43)" fill="#040504"/>
        <path id="Trazado_1031519" data-name="Trazado 1031519" d="M72.391,197.161c.155.014.213.21.08.347l-7.14.012a1.01,1.01,0,0,0-1.033,1.038l.01,14.505c0,.447.454.7.647.892l-3.489,0a2.658,2.658,0,0,0,.9-.9l-.005-29.185q4.939-.13,9.907-.057l.182.179Z" transform="translate(-50.941 -152.32)" fill="#d3d2d1"/>
        <path id="Trazado_1031520" data-name="Trazado 1031520" d="M106.081,195.564c.549.12.584,1.849.069,2.052q-.062.427-.748.409v1.193a.8.8,0,0,1,.679.459c.545.136.521,1.864,0,2.048l-1.028.027.025,3.211c0,.431.41.679.609.874a23.345,23.345,0,0,1-3.082-.083,2.1,2.1,0,0,0,.388-.958l.014-13.674-.086-1.373-.34-.381.068-11.374a1.787,1.787,0,0,0-.965-1.439c-.348-.158-6.252-.417-6.389-.127l-.047,12.418-.343.206-.126-12.993a1.016,1.016,0,0,0-1.046-1.038h-16.4a1.017,1.017,0,0,0-1.046,1.039l-.125,12.989-.05-13.012H66.189l-.047,28.911L66.017,174l39.035,0V195.53Z" transform="translate(-54.713 -144.205)" fill="#c3c2c2"/>
        <path id="Trazado_1031521" data-name="Trazado 1031521" d="M37.99,20.3a.568.568,0,0,1,.647.152L61.7,31.589c.243.1.241.324.036.492l-44.746-.045c-.432.375-.919.565-.9,1.181l0,8.2a1.014,1.014,0,0,0,1.027,1.037l2.052.034V76.358l-7.194-.005,0-43.536Z" transform="translate(-9.93 -16.782)" fill="#3d8fcf"/>
        <path id="Trazado_1031522" data-name="Trazado 1031522" d="M93.217,108.1l-45.192,0v-6.165H93.217Z" transform="translate(-39.8 -84.479)" fill="#b8d7ed"/>
        <path id="Trazado_1031523" data-name="Trazado 1031523" d="M86.941,70.018l.3-.4,3.094-.065V29.2l-.144-.564-.129,6.454-.346.193-.046-8.337a1.049,1.049,0,0,0-1.079-1.04L41.25,25.76,86,25.712,63.1,14.647c-.38-.184-.662-.262-.854-.627l2.793-1.343L93.783,26.559l-.009,43.52Z" transform="translate(-34.187 -10.506)" fill="#3688be"/>
        <path id="Trazado_1031524" data-name="Trazado 1031524" d="M301.352,142.275a.294.294,0,0,1-.352.028l-.008-1.991-1.026-.029v-2.048q-.069-.457.68-.369l0-1.323q-.524.075-.614-.368l-.069-2.052,1.028-.041,0-25.615,2.078-.029c.41-.006,1.052-.418,1.061-.9l.153-7.677a2.076,2.076,0,0,1,.808,1.586v40.762a18.255,18.255,0,0,0-3.74.064" transform="translate(-248.598 -82.763)" fill="#3d8fcf"/>
        <path id="Trazado_1031525" data-name="Trazado 1031525" d="M105.153,152H66.185v-2.062h38.973Z" transform="translate(-54.851 -124.261)" fill="#9dc1d3"/>
        <path id="Trazado_1031526" data-name="Trazado 1031526" d="M241.978,199.629a2.555,2.555,0,0,0-.956-.342l-7.141-.017c-.127-.069-.1-.356.08-.338l.05-13.01,5.984.007a2.086,2.086,0,0,1,2.068,2.221Z" transform="translate(-193.769 -154.087)" fill="#d3d2d1"/>
        <path id="Trazado_1031527" data-name="Trazado 1031527" d="M198.392,275.954l.341.161-.069,7.991c-.219,1.65-.948,2.262-2.571,2.451l-9.9-.082-.2-.344-.012-10.2,4.108,0,.006,5.133a1.043,1.043,0,0,0,1.032,1.041l4.1-.009a1.009,1.009,0,0,0,1.027-1.031l.01-5.119Z" transform="translate(-154.139 -228.678)" fill="#92613f"/>
        <path id="Trazado_1031528" data-name="Trazado 1031528" d="M142.458,197.661c.015.518.64.861,1.055.862l4.128,0a1.09,1.09,0,0,0,1.059-.892l.053-5.174,2.244.011q.113,4.134.054,8.293c-.237,1.515-1.121,2.065-2.555,2.226l-9.88-.015-.15-.223,0-10.281,3.9-.023Z" transform="translate(-114.756 -159.495)" fill="#b27748"/>
        <path id="Trazado_1031529" data-name="Trazado 1031529" d="M94.461,281.44c.015.514.643.858,1.055.858l4.127,0a1.1,1.1,0,0,0,1.061-.891l.053-5.175a5.291,5.291,0,0,1,2.31.177l-.008,7.879a2.37,2.37,0,0,1-2.391,2.452l-10.047.005-.151-.222,0-10.28,3.9-.022Z" transform="translate(-74.978 -228.89)" fill="#a87043"/>
        <path id="Trazado_1031530" data-name="Trazado 1031530" d="M142.062,197.226l-.151-5.125-3.751,0-.011,10.108,9.944,0a2.139,2.139,0,0,0,2.221-1.909l.009-8.218-1.873.021L148.3,197.2l-.041-5.275,4.109.008v12.323H137.99l0-12.325,4.11,0Z" transform="translate(-114.36 -159.06)" fill="#a87048"/>
        <path id="Trazado_1031531" data-name="Trazado 1031531" d="M94.062,281.231l-.151-5.126-3.751,0-.009,10.107,10.109-.015a2.064,2.064,0,0,0,2.053-2.21l.011-7.895-1.874.02L100.3,281.2l-.041-5.275,4.11.014v12.319H89.989V275.933l4.11,0Z" transform="translate(-74.579 -228.681)" fill="#9e6740"/>
        <path id="Trazado_1031532" data-name="Trazado 1031532" d="M186.052,286.22l10.091.084a2.149,2.149,0,0,0,2.236-2.239l.068-8.021,1.978-.01v12.313l-14.36,0Z" transform="translate(-154.194 -228.769)" fill="#81543a"/>
        <path id="Trazado_1031533" data-name="Trazado 1031533" d="M176.064,196.073l-2.063.015V192l2.054,0Z" transform="translate(-144.207 -159.128)" fill="#e1e3e3"/>
        <path id="Trazado_1031534" data-name="Trazado 1031534" d="M128.064,280.073l-2.063.015V276l2.054,0Z" transform="translate(-104.426 -228.744)" fill="#e1e3e3"/>
        <path id="Trazado_1031535" data-name="Trazado 1031535" d="M224.064,280.073l-2.063.015V276l2.054,0Z" transform="translate(-183.988 -228.744)" fill="#e1e3e3"/>
        <path id="Trazado_1031536" data-name="Trazado 1031536" d="M295.119,311.924l.957.029,0,2-1.022.028-1.021-.017V311.95Z" transform="translate(-243.682 -258.513)" fill="#040504"/>
      </g>
    </g>
  </g>
</svg>
