<svg xmlns="http://www.w3.org/2000/svg" xmlns:xlink="http://www.w3.org/1999/xlink" width="83" height="83" viewBox="0 0 83 83">
  <defs>
    <clipPath id="clip-path">
      <rect id="Rectángulo_456277" data-name="Rectángulo 456277" width="83" height="83" transform="translate(0.001 0)" fill="#d35560"/>
    </clipPath>
  </defs>
  <g id="Grupo_1186136" data-name="Grupo 1186136" transform="translate(-413.59 -9435.531)">
    <g id="Grupo_1180081" data-name="Grupo 1180081" transform="translate(413.589 9435.531)">
      <g id="Grupo_1179924" data-name="Grupo 1179924" transform="translate(0 0)">
        <g id="Grupo_1179923" data-name="Grupo 1179923" transform="translate(0 0)" clip-path="url(#clip-path)">
          <path id="Trazado_1004716" data-name="Trazado 1004716" d="M41.621,83.242c-1.352,0-2.616-1.544-3.935-1.673-1.343-.131-2.883,1.137-4.185.878-1.321-.262-2.259-2.024-3.532-2.411s-3.046.55-4.275.039-1.814-2.427-2.989-3.057-3.092-.056-4.2-.8-1.3-2.733-2.336-3.581-3.02-.653-3.966-1.6-.749-2.932-1.6-3.966S7.77,65.849,7.024,64.736s-.165-3.019-.8-4.2-2.542-1.749-3.058-2.989.43-2.989.039-4.275S1.057,51.061.8,49.74c-.258-1.3,1.009-2.842.878-4.185C1.544,44.237,0,42.973,0,41.621S1.544,39,1.673,37.686C1.8,36.343.537,34.8.8,33.5c.262-1.321,2.024-2.259,2.411-3.531s-.55-3.046-.039-4.276,2.427-1.814,3.058-2.989.056-3.091.8-4.2,2.733-1.3,3.581-2.336.653-3.02,1.6-3.966,2.931-.749,3.966-1.6,1.223-2.836,2.336-3.581,3.019-.165,4.2-.8,1.749-2.542,2.989-3.058,2.989.429,4.276.039S32.18,1.057,33.5.8c1.3-.258,2.842,1.01,4.185.878C39,1.544,40.269,0,41.621,0s2.616,1.544,3.935,1.673C46.9,1.8,48.438.537,49.74.8c1.321.262,2.259,2.024,3.532,2.411s3.046-.55,4.275-.039,1.814,2.427,2.989,3.058,3.092.056,4.2.8,1.3,2.733,2.336,3.581,3.02.653,3.966,1.6.749,2.932,1.6,3.966,2.836,1.223,3.581,2.336.165,3.019.8,4.2,2.542,1.749,3.057,2.989-.429,2.989-.039,4.275,2.149,2.21,2.411,3.531c.258,1.3-1.009,2.842-.878,4.185.129,1.318,1.674,2.583,1.674,3.935s-1.544,2.616-1.674,3.935c-.131,1.343,1.137,2.883.878,4.185-.262,1.321-2.024,2.259-2.411,3.532s.55,3.046.039,4.275-2.427,1.814-3.058,2.989-.056,3.091-.8,4.2-2.733,1.3-3.581,2.336-.653,3.02-1.6,3.965-2.932.749-3.965,1.6-1.223,2.835-2.336,3.581-3.019.165-4.2.8-1.749,2.543-2.989,3.058-2.989-.429-4.275-.039-2.21,2.148-3.531,2.411c-1.3.258-2.842-1.01-4.185-.878-1.319.129-2.583,1.673-3.935,1.673" transform="translate(0.007 0.006)" fill="#d35560"/>
          <path id="Trazado_1004717" data-name="Trazado 1004717" d="M14,51.684A37.684,37.684,0,1,1,51.684,89.367,37.684,37.684,0,0,1,14,51.684" transform="translate(-10.056 -10.057)" fill="#4d787e"/>
          <path id="Trazado_1004718" data-name="Trazado 1004718" d="M131.066,267.538c-.1-.423-.194-.861-.284-1.29l-1.317-.168q.59-.313,1.156-.631-.125-.645-.236-1.289c.3.3.61.6.928.892q.555-.345,1.086-.691-.235.608-.486,1.215c.329.282.665.569,1.009.849l-1.323-.1q-.259.607-.533,1.211" transform="translate(-93.05 -189.867)" fill="#ffffc5"/>
          <path id="Trazado_1004719" data-name="Trazado 1004719" d="M112.708,264.037c-.036-.432-.063-.88-.087-1.317l-1.277-.364q.63-.221,1.238-.45-.027-.657-.04-1.31c.254.337.513.686.783,1.021q.6-.257,1.176-.52-.324.566-.661,1.128c.283.327.571.665.871.989-.433-.09-.863-.2-1.294-.294q-.347.561-.708,1.117" transform="translate(-80.024 -187.305)" fill="#ffffc5"/>
          <path id="Trazado_1004720" data-name="Trazado 1004720" d="M95.144,257.928c.033-.44.071-.881.113-1.318l-1.209-.549c.437-.082.868-.17,1.292-.261q.072-.652.156-1.3c.2.372.406.749.621,1.128q.632-.165,1.242-.339-.4.511-.824,1.017c.23.366.467.74.713,1.109l-1.235-.486q-.427.5-.868,1" transform="translate(-67.592 -182.924)" fill="#ffffc5"/>
          <path id="Trazado_1004721" data-name="Trazado 1004721" d="M78.777,249.35q.148-.647.308-1.286c-.37-.242-.75-.47-1.112-.724.437,0,.884-.038,1.315-.063q.168-.634.348-1.26.214.6.448,1.2c.427-.037.859-.1,1.278-.148q-.477.445-.968.884.26.595.54,1.2l-1.15-.662c-.332.288-.67.578-1.005.854" transform="translate(-56.037 -176.825)" fill="#ffffc5"/>
          <path id="Trazado_1004722" data-name="Trazado 1004722" d="M63.959,238.515q.241-.617.494-1.224c-.331-.294-.678-.57-.991-.883.429.064.874.1,1.307.135q.259-.6.529-1.193.126.619.269,1.254c.421.035.861.036,1.283.046q-.539.37-1.089.732.17.625.359,1.264l-1.043-.821c-.373.239-.74.463-1.116.691" transform="translate(-45.607 -169.158)" fill="#ffffc5"/>
          <path id="Trazado_1004723" data-name="Trazado 1004723" d="M51.005,225.675q.329-.574.667-1.136l-.434-.5c-.144-.168-.276-.346-.414-.519l.629.177.641.152q.344-.556.7-1.1.035.629.085,1.276l.625.131.635.106q-.588.288-1.187.564.078.641.172,1.3c-.3-.321-.614-.637-.913-.964q-.6.264-1.2.517" transform="translate(-36.524 -160.099)" fill="#ffffc5"/>
          <path id="Trazado_1004724" data-name="Trazado 1004724" d="M39.841,211.108q.409-.518.827-1.024c-.118-.187-.242-.37-.355-.561l-.331-.575c.4.18.791.361,1.205.515.283-.333.562-.658.855-.986-.044.421-.073.842-.1,1.273.4.15.8.3,1.208.423-.416.132-.838.26-1.258.383-.012.431-.016.865-.018,1.308-.252-.364-.524-.713-.758-1.089q-.631.173-1.269.334" transform="translate(-28.63 -149.843)" fill="#ffffc5"/>
          <path id="Trazado_1004725" data-name="Trazado 1004725" d="M30.615,195.13q.481-.451.968-.889c-.191-.4-.343-.816-.507-1.226.374.237.731.473,1.112.69.325-.285.659-.569,1-.849-.118.414-.2.821-.295,1.244.381.206.74.414,1.129.6-.434.069-.867.133-1.3.189-.089.43-.146.853-.215,1.291-.2-.395-.412-.783-.586-1.19q-.65.077-1.307.141" transform="translate(-21.998 -138.615)" fill="#ffffc5"/>
          <path id="Trazado_1004726" data-name="Trazado 1004726" d="M24.019,177.688q.543-.373,1.089-.733c-.131-.423-.21-.859-.316-1.289.334.291.656.576.994.85.363-.233.744-.465,1.116-.69-.182.393-.323.783-.48,1.185.344.262.677.519,1.024.762-.442,0-.869,0-1.306-.009-.158.414-.275.823-.408,1.245-.145-.418-.287-.837-.4-1.265q-.655-.021-1.314-.056" transform="translate(-17.257 -126.259)" fill="#ffffc5"/>
          <path id="Trazado_1004727" data-name="Trazado 1004727" d="M20.215,159.173q.593-.288,1.187-.561c-.066-.438-.08-.881-.119-1.322.286.338.561.668.855.99.394-.176.8-.348,1.207-.515-.239.361-.436.726-.652,1.1.3.31.593.614.9.908-.436-.062-.858-.132-1.289-.205-.219.385-.4.772-.591,1.17l-.117-.653c-.037-.218-.058-.439-.088-.658q-.645-.119-1.291-.253" transform="translate(-14.523 -113.05)" fill="#ffffc5"/>
          <path id="Trazado_1004728" data-name="Trazado 1004728" d="M19.269,140.414q.629-.2,1.258-.379c0-.443.041-.884.075-1.325.235.376.447.744.7,1.105.419-.116.836-.226,1.264-.332-.28.322-.535.654-.8.992.253.352.487.7.755,1.031q-.633-.19-1.248-.394c-.27.348-.5.7-.755,1.069-.01-.442-.031-.884-.01-1.327q-.619-.213-1.238-.441" transform="translate(-13.843 -99.696)" fill="#ffffc5"/>
          <path id="Trazado_1004729" data-name="Trazado 1004729" d="M21.174,121.821q.652-.1,1.3-.187c.041-.217.073-.437.122-.652l.149-.647c.174.407.332.8.531,1.2.434-.051.858-.1,1.3-.139-.32.278-.626.566-.942.861.2.385.375.759.6,1.132-.394-.187-.8-.38-1.18-.575-.309.306-.6.622-.9.945.062-.438.1-.88.186-1.314q-.58-.3-1.157-.62" transform="translate(-15.212 -86.487)" fill="#ffffc5"/>
          <path id="Trazado_1004730" data-name="Trazado 1004730" d="M25.928,103.813q.66,0,1.315.01c.134-.422.3-.832.464-1.243.113.429.207.843.344,1.264.435.014.866.032,1.306.058-.363.225-.7.465-1.062.709.138.411.256.807.419,1.208-.362-.244-.728-.495-1.079-.746-.353.256-.688.525-1.036.8.126-.424.23-.855.382-1.271q-.528-.386-1.051-.787" transform="translate(-18.629 -73.726)" fill="#ffffc5"/>
          <path id="Trazado_1004731" data-name="Trazado 1004731" d="M33.429,86.8q.652.1,1.3.206c.193-.4.429-.773.646-1.159.046.44.087.869.149,1.3.425.077.859.165,1.287.255-.4.163-.768.354-1.159.541.075.427.139.839.231,1.257-.325-.3-.64-.6-.951-.9-.4.2-.76.415-1.146.633.183-.4.359-.809.569-1.2q-.465-.461-.923-.936" transform="translate(-24.021 -61.7)" fill="#ffffc5"/>
          <path id="Trazado_1004732" data-name="Trazado 1004732" d="M43.489,71.162q.629.192,1.251.4c.257-.36.542-.7.812-1.05q-.03.663-.046,1.307.623.217,1.238.446c-.418.1-.822.229-1.229.361q.013.648.039,1.276-.406-.508-.8-1.026c-.42.135-.821.292-1.23.454l.359-.559.384-.541q-.391-.526-.775-1.064" transform="translate(-31.252 -50.674)" fill="#ffffc5"/>
          <path id="Trazado_1004733" data-name="Trazado 1004733" d="M55.127,57.229q.594.282,1.177.575l.96-.917q-.126.653-.235,1.29.584.306,1.157.622c-.424.047-.854.1-1.271.173q-.081.644-.147,1.271-.326-.562-.643-1.135l-.648.12c-.214.044-.424.095-.638.144.283-.34.594-.656.9-.976q-.31-.579-.611-1.169" transform="translate(-39.41 -40.884)" fill="#ffffc5"/>
          <path id="Trazado_1004734" data-name="Trazado 1004734" d="M68.74,45.3c.362.244.722.49,1.082.747l1.082-.77q-.22.63-.42,1.246.531.388,1.051.785c-.421-.01-.861-.033-1.285-.019q-.174.627-.329,1.24-.24-.6-.469-1.219c-.432.018-.882.025-1.313.069.33-.3.691-.553,1.034-.831q-.222-.62-.432-1.248" transform="translate(-48.969 -32.539)" fill="#ffffc5"/>
          <path id="Trazado_1004735" data-name="Trazado 1004735" d="M84.114,34.886c.322.295.646.6.962.906l1.181-.606q-.31.592-.6,1.174.467.462.922.93c-.416-.074-.841-.15-1.269-.213q-.264.6-.507,1.182-.148-.635-.284-1.277c-.43-.047-.872-.1-1.311-.13.378-.23.765-.444,1.148-.667q-.128-.646-.243-1.3" transform="translate(-59.802 -25.069)" fill="#ffffc5"/>
          <path id="Trazado_1004736" data-name="Trazado 1004736" d="M100.926,26.946q.415.518.816,1.041c.42-.14.837-.288,1.258-.422-.265.353-.519.717-.768,1.071q.392.526.771,1.057-.6-.2-1.222-.4c-.235.363-.459.733-.677,1.094q-.052-.65-.091-1.307-.627-.167-1.277-.325l1.235-.488c-.02-.438-.037-.883-.045-1.321" transform="translate(-71.682 -19.362)" fill="#ffffc5"/>
          <path id="Trazado_1004737" data-name="Trazado 1004737" d="M118.8,21.733q.332.574.65,1.152c.436-.076.87-.161,1.308-.229-.316.307-.621.63-.92.943q.309.579.6,1.16-.562-.291-1.148-.578c-.288.319-.564.656-.834.979q.046-.651.106-1.306-.595-.258-1.213-.511l1.293-.3c.046-.436.1-.881.154-1.31" transform="translate(-84.346 -15.615)" fill="#ffffc5"/>
          <path id="Trazado_1004738" data-name="Trazado 1004738" d="M137.334,19.35q.243.618.471,1.237l1.327-.033q-.537.4-1.05.8.22.619.425,1.238-.513-.372-1.05-.746c-.332.278-.656.565-.971.845q.143-.637.3-1.275-.55-.345-1.123-.688l1.323-.1c.111-.424.227-.855.348-1.275" transform="translate(-97.504 -13.902)" fill="#ffffc5"/>
          <path id="Trazado_1004739" data-name="Trazado 1004739" d="M156.1,19.831c.1.424.194.861.284,1.29l1.317.168q-.59.313-1.156.631.125.645.236,1.289c-.3-.3-.61-.6-.927-.892q-.555.345-1.086.691.235-.608.485-1.215c-.328-.282-.665-.569-1.009-.849l1.324.1q.259-.607.533-1.211" transform="translate(-110.858 -14.248)" fill="#ffffc5"/>
          <path id="Trazado_1004740" data-name="Trazado 1004740" d="M174.686,23.17c.036.433.063.88.087,1.317l1.277.364q-.63.221-1.238.45.027.657.04,1.31c-.254-.337-.512-.686-.783-1.021q-.6.257-1.176.52.324-.566.661-1.128c-.283-.327-.571-.665-.871-.988.433.09.863.2,1.294.294q.347-.561.708-1.117" transform="translate(-124.114 -16.648)" fill="#ffffc5"/>
          <path id="Trazado_1004741" data-name="Trazado 1004741" d="M192.393,29.313c-.033.44-.071.881-.113,1.318l1.209.549c-.437.082-.868.171-1.292.261q-.072.653-.156,1.3c-.2-.372-.406-.749-.621-1.128q-.632.165-1.242.339.4-.511.824-1.017c-.23-.366-.466-.74-.712-1.109l1.235.486q.427-.5.868-1" transform="translate(-136.689 -21.063)" fill="#ffffc5"/>
          <path id="Trazado_1004742" data-name="Trazado 1004742" d="M208.563,38.133q-.148.647-.308,1.286c.37.242.75.47,1.112.724-.437,0-.884.038-1.315.063q-.168.634-.348,1.26-.214-.6-.448-1.2c-.427.037-.859.1-1.278.148q.478-.445.968-.884-.26-.595-.54-1.2l1.15.662c.332-.288.67-.578,1.005-.854" transform="translate(-148.047 -27.403)" fill="#ffffc5"/>
          <path id="Trazado_1004743" data-name="Trazado 1004743" d="M223.38,49.066q-.241.617-.493,1.224c.331.294.678.57.991.882-.429-.064-.874-.1-1.307-.135q-.259.6-.529,1.194-.126-.619-.269-1.253c-.421-.036-.861-.036-1.284-.046q.539-.37,1.089-.732-.17-.625-.359-1.264l1.043.82c.373-.239.74-.463,1.116-.691" transform="translate(-158.476 -35.168)" fill="#ffffc5"/>
          <path id="Trazado_1004744" data-name="Trazado 1004744" d="M236.527,61.7q-.329.574-.667,1.136l.434.5c.144.168.275.346.414.519l-.63-.177-.641-.152q-.344.556-.7,1.1-.035-.629-.085-1.276l-.625-.131-.635-.106q.588-.288,1.187-.564-.078-.641-.172-1.3c.3.321.614.637.913.964q.6-.264,1.2-.517" transform="translate(-167.752 -44.019)" fill="#ffffc5"/>
          <path id="Trazado_1004745" data-name="Trazado 1004745" d="M247.713,76.239q-.409.518-.826,1.024c.118.187.242.37.355.561l.331.575c-.4-.18-.791-.361-1.205-.515-.283.333-.562.658-.855.986.044-.421.073-.842.1-1.273-.4-.15-.8-.3-1.208-.423.416-.132.838-.261,1.258-.383.012-.431.017-.865.018-1.307.252.364.524.713.758,1.089q.631-.173,1.269-.334" transform="translate(-175.669 -54.249)" fill="#ffffc5"/>
          <path id="Trazado_1004746" data-name="Trazado 1004746" d="M256.684,92.378q-.481.451-.968.889c.191.4.343.816.507,1.226-.374-.237-.731-.473-1.112-.69-.325.285-.659.569-1,.849.118-.414.2-.821.3-1.244-.381-.206-.74-.414-1.129-.6.434-.069.867-.133,1.3-.189.089-.43.146-.853.215-1.291.2.395.412.783.586,1.191q.65-.077,1.307-.141" transform="translate(-182.045 -65.638)" fill="#ffffc5"/>
          <path id="Trazado_1004747" data-name="Trazado 1004747" d="M263.22,109.767q-.543.374-1.089.733c.131.423.21.859.316,1.289-.334-.291-.656-.577-.994-.85-.363.233-.744.465-1.117.69.182-.393.323-.783.48-1.185-.344-.262-.677-.519-1.024-.762.441,0,.869,0,1.306.009.158-.414.275-.823.408-1.245.145.418.287.837.4,1.265q.655.021,1.314.056" transform="translate(-186.726 -77.942)" fill="#ffffc5"/>
          <path id="Trazado_1004748" data-name="Trazado 1004748" d="M267.158,128.019q-.593.288-1.187.561c.066.438.08.881.119,1.322-.286-.338-.561-.668-.855-.99-.394.176-.8.348-1.207.515.239-.361.436-.726.652-1.1-.3-.31-.593-.614-.9-.908.436.062.858.132,1.289.205.219-.385.4-.772.591-1.169l.117.653c.037.218.058.439.088.658q.645.119,1.291.253" transform="translate(-189.594 -90.887)" fill="#ffffc5"/>
          <path id="Trazado_1004749" data-name="Trazado 1004749" d="M268.294,146.713q-.629.2-1.258.379c0,.443-.041.884-.075,1.325-.235-.376-.447-.744-.7-1.105-.419.116-.836.226-1.264.332.28-.322.535-.654.8-.992-.253-.352-.487-.7-.755-1.031q.633.19,1.248.394c.27-.348.5-.7.755-1.069.01.442.031.884.01,1.327q.619.213,1.238.441" transform="translate(-190.465 -104.177)" fill="#ffffc5"/>
          <path id="Trazado_1004750" data-name="Trazado 1004750" d="M266.131,165.436q-.653.1-1.3.187c-.041.217-.073.437-.122.652l-.149.647c-.174-.407-.332-.8-.531-1.2-.434.051-.858.1-1.3.139.32-.278.626-.566.942-.861-.2-.385-.375-.759-.6-1.132.394.187.8.38,1.18.575.309-.306.6-.622.9-.945-.062.438-.1.88-.186,1.314q.58.3,1.158.62" transform="translate(-188.837 -117.515)" fill="#ffffc5"/>
          <path id="Trazado_1004751" data-name="Trazado 1004751" d="M261.308,183.774q-.66,0-1.315-.01c-.134.422-.3.832-.464,1.243-.113-.429-.207-.843-.344-1.264-.435-.014-.866-.031-1.306-.058.363-.225.7-.465,1.062-.709-.138-.41-.256-.807-.419-1.208.362.244.728.495,1.079.746.353-.256.688-.525,1.036-.8-.126.424-.23.855-.382,1.271q.528.386,1.051.787" transform="translate(-185.351 -130.607)" fill="#ffffc5"/>
          <path id="Trazado_1004752" data-name="Trazado 1004752" d="M253.934,200.63q-.652-.1-1.3-.206c-.193.4-.429.773-.646,1.159-.046-.44-.086-.869-.149-1.3-.425-.077-.859-.165-1.287-.255.4-.163.768-.354,1.159-.541-.075-.427-.138-.839-.231-1.257.325.3.639.6.951.9.4-.2.76-.415,1.146-.633-.183.4-.359.809-.569,1.2q.464.461.923.936" transform="translate(-180.086 -142.477)" fill="#ffffc5"/>
          <path id="Trazado_1004753" data-name="Trazado 1004753" d="M244.192,216.174q-.629-.192-1.251-.4c-.257.36-.542.7-.812,1.05q.03-.663.046-1.307-.623-.217-1.238-.446c.418-.1.822-.229,1.229-.361q-.013-.647-.039-1.276.406.508.8,1.026c.42-.135.821-.292,1.23-.454l-.359.559-.384.541q.391.526.775,1.064" transform="translate(-173.174 -153.408)" fill="#ffffc5"/>
          <path id="Trazado_1004754" data-name="Trazado 1004754" d="M232.318,230.192q-.594-.283-1.177-.575l-.96.917q.126-.653.235-1.29-.584-.306-1.157-.622c.423-.047.854-.1,1.271-.173q.081-.644.147-1.271.326.562.643,1.135l.648-.12c.214-.044.424-.095.638-.144-.283.34-.594.656-.9.976q.31.579.611,1.169" transform="translate(-164.78 -163.283)" fill="#ffffc5"/>
          <path id="Trazado_1004755" data-name="Trazado 1004755" d="M218.578,242.388c-.363-.244-.722-.49-1.082-.747l-1.081.77q.219-.63.42-1.246-.531-.388-1.051-.785c.421.01.861.033,1.285.019q.174-.628.329-1.24.24.6.47,1.219c.432-.018.882-.025,1.313-.069-.33.3-.691.553-1.034.831q.222.62.432,1.248" transform="translate(-155.093 -171.896)" fill="#ffffc5"/>
          <path id="Trazado_1004756" data-name="Trazado 1004756" d="M203.269,252.492c-.322-.294-.646-.6-.962-.905l-1.181.606q.31-.592.6-1.174-.467-.462-.922-.931c.416.074.841.15,1.269.213q.264-.6.507-1.182.148.635.285,1.277c.43.046.871.1,1.31.129-.378.23-.765.444-1.148.667q.128.646.243,1.3" transform="translate(-144.326 -179.054)" fill="#ffffc5"/>
          <path id="Trazado_1004757" data-name="Trazado 1004757" d="M186.721,260.262q-.415-.518-.816-1.041c-.42.14-.837.288-1.258.422.266-.353.519-.717.768-1.071q-.392-.526-.771-1.057.6.2,1.222.4c.235-.363.459-.733.677-1.094q.052.65.091,1.307.627.167,1.277.325l-1.235.488c.02.438.037.883.045,1.321" transform="translate(-132.71 -184.592)" fill="#ffffc5"/>
          <path id="Trazado_1004758" data-name="Trazado 1004758" d="M168.491,265.508q-.332-.574-.65-1.152c-.436.076-.87.161-1.308.229.316-.307.621-.631.92-.943q-.309-.579-.6-1.16.562.291,1.148.578c.288-.319.564-.656.834-.979q-.046.651-.106,1.306.595.258,1.213.511l-1.293.3c-.046.436-.1.88-.154,1.31" transform="translate(-119.693 -188.372)" fill="#ffffc5"/>
          <path id="Trazado_1004759" data-name="Trazado 1004759" d="M149.8,268.115q-.243-.618-.471-1.237l-1.327.033q.537-.4,1.05-.8-.22-.619-.425-1.238.513.372,1.05.745c.332-.278.656-.565.971-.845q-.143.637-.3,1.275.55.345,1.123.688l-1.323.1c-.111.424-.227.855-.348,1.275" transform="translate(-106.372 -190.309)" fill="#ffffc5"/>
          <path id="Trazado_1004760" data-name="Trazado 1004760" d="M66.94,98.654A31.715,31.715,0,1,1,98.654,66.94,31.75,31.75,0,0,1,66.94,98.654" transform="translate(-25.312 -25.313)" fill="#d35560"/>
        </g>
      </g>
      <g id="Grupo_1180053" data-name="Grupo 1180053" transform="translate(21.809 21.57)">
        <rect id="Rectángulo_401104" data-name="Rectángulo 401104" width="39.638" height="40.116" transform="translate(0)" fill="#d35560"/>
      </g>
    </g>
    <g id="Grupo_1180428" data-name="Grupo 1180428" transform="translate(351.565 9353.658)">
      <path id="Trazado_1021767" data-name="Trazado 1021767" d="M676.921,348.56v3.255h-1.585a.752.752,0,0,0-.482.175L673.28,353.3v-3.348Z" transform="translate(-561.621 -232.294)" fill="#f57f17"/>
      <path id="Trazado_1021768" data-name="Trazado 1021768" d="M430.307,144.357l-4.156,1.594-16.781-6.36,4.255-1.631Z" transform="translate(-310.101 -31.582)" fill="#fcb64d"/>
      <path id="Trazado_1021769" data-name="Trazado 1021769" d="M319.619,196.289l-3.038,1.165-16.781-6.36,3.037-1.164Z" transform="translate(-205.675 -81.112)" fill="#f57f17"/>
      <path id="Trazado_1021770" data-name="Trazado 1021770" d="M166.637,238.3l-5.275,2.023-16.682-6.4,5.176-1.985h0Z" transform="translate(-57.838 -121.15)" fill="#fcb64d"/>
      <path id="Trazado_1021771" data-name="Trazado 1021771" d="M133.277,304.116v19.56L116,316.514V297.49Z" transform="translate(-30.505 -183.622)" fill="#fcb64d"/>
      <path id="Trazado_1021772" data-name="Trazado 1021772" d="M528.528,299.312v4.582a.751.751,0,0,1-.751.751h-2.066l-2.6,2.172a.751.751,0,0,1-1.233-.576v-4.38L516,304.116v19.56l17.277-7.161V297.49Zm1.215,16.156a.751.751,0,0,1-.463.694l-8.706,3.609a.751.751,0,0,1-1.039-.694V316A.751.751,0,0,1,520,315.3l8.706-3.608a.751.751,0,0,1,1.039.694Z" transform="translate(-411.725 -183.622)" fill="#fcb64d"/>
      <path id="Trazado_1021773" data-name="Trazado 1021773" d="M630.484,638.71v1.456l-7.2,2.986V641.7Z" transform="translate(-513.968 -508.822)" fill="#fcb64d"/>
      <g id="Grupo_1180426" data-name="Grupo 1180426" transform="translate(85.026 106.848)" opacity="0.5">
        <path id="Trazado_1021774" data-name="Trazado 1021774" d="M666.921,358.56v3.255h-1.585a.752.752,0,0,0-.482.175L663.28,363.3v-3.348Z" transform="translate(-637.116 -348.672)" fill="#fff"/>
        <path id="Trazado_1021775" data-name="Trazado 1021775" d="M420.307,154.357l-4.156,1.594-16.781-6.36,4.255-1.632Z" transform="translate(-385.596 -147.96)" fill="#fff"/>
        <path id="Trazado_1021776" data-name="Trazado 1021776" d="M309.619,206.289l-3.038,1.165-16.781-6.36,3.037-1.164Z" transform="translate(-281.171 -197.49)" fill="#fff"/>
        <path id="Trazado_1021777" data-name="Trazado 1021777" d="M156.637,248.3l-5.275,2.023-16.682-6.4,5.176-1.985h0Z" transform="translate(-133.333 -237.528)" fill="#fff"/>
        <path id="Trazado_1021778" data-name="Trazado 1021778" d="M123.277,314.116v19.56L106,326.514V307.49Z" transform="translate(-106 -300)" fill="#fff"/>
        <path id="Trazado_1021779" data-name="Trazado 1021779" d="M518.527,309.312v4.582a.751.751,0,0,1-.751.751h-2.066l-2.6,2.172a.751.751,0,0,1-1.233-.576v-4.38L506,314.116v19.56l17.277-7.161V307.49Zm1.216,16.156a.751.751,0,0,1-.463.694l-8.706,3.609a.751.751,0,0,1-1.039-.694V326A.751.751,0,0,1,510,325.3l8.706-3.609a.751.751,0,0,1,1.039.694Z" transform="translate(-487.22 -300)" fill="#fff"/>
        <path id="Trazado_1021780" data-name="Trazado 1021780" d="M620.484,648.71v1.456l-7.2,2.986V651.7Z" transform="translate(-589.464 -625.2)" fill="#fff"/>
      </g>
      <g id="Grupo_1180427" data-name="Grupo 1180427" transform="translate(83.993 104.822)">
        <path id="Trazado_1021781" data-name="Trazado 1021781" d="M104.275,266.125v21.2a.751.751,0,0,1-.334.624.714.714,0,0,1-.123.067l-.007,0a.734.734,0,0,1-.109.036l-.03.007a.647.647,0,0,1-.067.01h-.119a.155.155,0,0,1-.036,0,.6.6,0,0,1-.063-.009l-.024,0h-.006l-.023-.006-.052-.015-.026-.009-.027-.011-18.773-7.778a.751.751,0,0,1-.463-.694V258.888a.187.187,0,0,1,0-.023.281.281,0,0,1,0-.029A.542.542,0,0,1,84,258.78c0-.017.008-.035.012-.052a.787.787,0,0,1,.039-.109l.012-.025.013-.025.014-.024.014-.023.015-.023.033-.047.018-.022.019-.021.02-.02a.785.785,0,0,1,.087-.075.451.451,0,0,1,.047-.03l.031-.018.019-.01.026-.013c.017-.008.035-.016.053-.023l.013,0a.751.751,0,0,1,1.008.7V279.04l17.278,7.161V266.125a.751.751,0,1,1,1.5,0Z" transform="translate(-83.993 -250.97)" fill="#413b32"/>
        <path id="Trazado_1021782" data-name="Trazado 1021782" d="M504.282,259.009v20.619a.751.751,0,0,1-.464.694L485.045,288.1l-.007,0a.739.739,0,0,1-.109.036l-.03.007a.637.637,0,0,1-.067.01h-.119a.151.151,0,0,1-.036,0,.575.575,0,0,1-.063-.009l-.024,0h-.006l-.023-.006-.052-.016-.026-.009-.027-.011a.751.751,0,0,1,.007-1.385l1.039-.428,17.277-7.161V259.009a.751.751,0,0,1,1.008-.7l.013,0c.018.007.036.015.053.023l.026.013.019.01.031.018.047.03a.784.784,0,0,1,.087.075l.02.02.019.021.018.022a.411.411,0,0,1,.033.047l.016.023.014.023.014.024c0,.008.009.016.013.025l.012.025a.785.785,0,0,1,.039.109c0,.017.008.035.012.052s.007.038.008.056,0,.019,0,.029a.181.181,0,0,1,0,.023C504.282,258.985,504.282,259,504.282,259.009Z" transform="translate(-465.219 -251.056)" fill="#413b32"/>
        <path id="Trazado_1021783" data-name="Trazado 1021783" d="M647.888,310v5.1a.751.751,0,0,1-.751.751h-2.066l-2.6,2.172a.751.751,0,0,1-1.233-.576v-5.472a.751.751,0,0,1,1-.708h0l.011,0,.039.016.038.018a.5.5,0,0,1,.047.026.527.527,0,0,1,.044.029l.042.032h0a.491.491,0,0,1,.037.033l.037.037c.012.013.023.026.033.039l.031.041.016.024a.547.547,0,0,1,.029.049l.018.036c0,.009.009.019.013.029l.007.016v0l.011.032,0,.011v0c0,.012.008.024.01.037s.007.027.009.041v.008c0,.014,0,.029.007.043v3.958l1.573-1.315a.751.751,0,0,1,.482-.175h1.586V310a.751.751,0,0,1,.484-.7l.012,0a.751.751,0,0,1,.5,0l.017.007.055.023.02.01.047.025a.475.475,0,0,1,.043.028l.02.015.029.023.027.023.026.025.025.026.023.027c.015.018.029.036.042.055v0l.019.031c.006.01.013.021.018.031a.6.6,0,0,1,.031.066c0,.011.009.023.014.034s.007.019.01.029l.009.031c0,.01.006.02.008.031a.226.226,0,0,1,.006.026.2.2,0,0,0,0,.027l0,.036a.269.269,0,0,0,0,.038A.053.053,0,0,1,647.888,310Z" transform="translate(-615.078 -299.651)" fill="#413b32"/>
        <path id="Trazado_1021784" data-name="Trazado 1021784" d="M259.22,207.071a.746.746,0,0,1-.373.348l-.047.018a.751.751,0,0,1-.249.043.74.74,0,0,1-.282-.054l-.469-.178-1.358-.516-16.78-6.358-.268-.1a.751.751,0,0,1-.008-1.4l.026-.01a.748.748,0,0,1,.514.007l1.842.7,16.781,6.36.253.094h0l.011,0,.039.016.038.018a.506.506,0,0,1,.047.026c.015.009.03.019.044.029l.042.032h0a.483.483,0,0,1,.037.033l.037.037c.012.013.023.026.033.039l.031.041.016.024c.01.016.02.033.029.049A.751.751,0,0,1,259.22,207.071Z" transform="translate(-231.637 -194.405)" fill="#413b32"/>
        <path id="Trazado_1021785" data-name="Trazado 1021785" d="M368.836,164.7v.017a.74.74,0,0,1-.047.249.751.751,0,0,1-.4.423l-.052.02h-.008a.744.744,0,0,1-.505-.01l-.485-.184-1.357-.514-16.784-6.356-.268-.1a.751.751,0,0,1-.008-1.4l.026-.01a.751.751,0,0,1,.516.007l1.842.7,16.78,6.36.25.094.017.007.055.023.02.01.047.025a.445.445,0,0,1,.043.028l.02.015.029.023.027.023.026.025.025.026.023.027a.593.593,0,0,1,.042.055v0l.019.031c.006.01.013.021.018.031a.6.6,0,0,1,.031.066c0,.011.009.023.014.034s.007.019.01.029l.009.031c0,.01.006.02.008.031a.236.236,0,0,1,.006.026.174.174,0,0,0,0,.027l0,.036a.26.26,0,0,0,0,.038C368.836,164.679,368.836,164.691,368.836,164.7Z" transform="translate(-336.026 -154.354)" fill="#413b32"/>
        <path id="Trazado_1021786" data-name="Trazado 1021786" d="M601.155,598.892a.751.751,0,0,0-.7-.069l-8.707,3.609a.751.751,0,0,0-.463.694v3.082a.751.751,0,0,0,1.039.694l8.706-3.609a.751.751,0,0,0,.463-.694v-3.082a.751.751,0,0,0-.334-.624Zm-1.169,3.2-7.2,2.987v-1.456l7.2-2.987Z" transform="translate(-567.463 -575.576)" fill="#413b32"/>
        <path id="Trazado_1021787" data-name="Trazado 1021787" d="M113.953,115.177l-3.038,1.165.253.094h0l.011,0,.038.016.038.018a.5.5,0,0,1,.047.026c.015.009.03.019.044.029l.042.032h0a.479.479,0,0,1,.037.033c.013.011.025.024.037.037s.023.026.033.039l.031.041.016.024a.521.521,0,0,1,.029.049c.007.012.012.024.018.036s.009.019.013.029l.007.016v0l.011.032,0,.011v0c0,.012.008.024.01.037s.007.027.009.041V117c0,.014,0,.029.007.043v.033a.114.114,0,0,1,0,.013.016.016,0,0,1,0,0v.558l3.641-1.4v-.565Zm0,0-3.038,1.165.253.094h0l.011,0,.038.016.038.018a.5.5,0,0,1,.047.026c.015.009.03.019.044.029l.042.032h0a.479.479,0,0,1,.037.033c.013.011.025.024.037.037s.023.026.033.039l.031.041.016.024a.521.521,0,0,1,.029.049c.007.012.012.024.018.036s.009.019.013.029l.007.016v0l.011.032,0,.011v0c0,.012.008.024.01.037s.007.027.009.041V117c0,.014,0,.029.007.043v.033a.114.114,0,0,1,0,.013.016.016,0,0,1,0,0v.558l3.641-1.4v-.565Zm9.111-2.437a.193.193,0,0,0,0-.023.277.277,0,0,0,0-.029.54.54,0,0,0-.008-.056c0-.017-.008-.035-.012-.052a.79.79,0,0,0-.039-.109l-.012-.025-.013-.025-.014-.024-.014-.023-.015-.023-.033-.047-.018-.022-.019-.021-.02-.02a.778.778,0,0,0-.087-.075.447.447,0,0,0-.047-.03l-.031-.018-.019-.01-.026-.013c-.017-.008-.035-.016-.053-.023l-.013,0L103.8,104.872a.754.754,0,0,0-.538,0L96.921,107.3l-.026.01-5.117,1.963-.026.01L84.5,112.069l-.013,0c-.018.007-.036.015-.053.023l-.026.013-.019.01-.031.018-.047.03a.781.781,0,0,0-.087.075l-.02.02-.019.021-.018.022a.416.416,0,0,0-.033.047l-.015.023-.014.023-.014.024c0,.008-.009.016-.013.025l-.012.025a.79.79,0,0,0-.039.109c0,.017-.008.035-.012.052a.544.544,0,0,0-.008.056.281.281,0,0,0,0,.029.187.187,0,0,0,0,.023v.035a.751.751,0,0,0,.482.7l1.02.389,17.277,6.626.482.185a.751.751,0,0,0,.538,0l.482-.185,5.882-2.254,1-.384.047-.018.456-.175,3.641-1.4.991-.38h.008l.052-.02.451-.173,4.751-1.826,1.02-.391a.751.751,0,0,0,.482-.7Zm-7,1.629-.254.1-.012,0-1.841.707-3.038,1.165-2.107.808-5.275,2.023-16.682-6.4,5.176-1.985,2.107-.808,3.037-1.164,2.107-.808,4.256-1.63,16.682,6.4Zm-2.107.808-3.038,1.165.253.094h0l.011,0,.038.016.038.018a.5.5,0,0,1,.047.026c.015.009.03.019.044.029l.042.032h0a.479.479,0,0,1,.037.033c.013.011.025.024.037.037s.023.026.033.039l.031.041.016.024a.521.521,0,0,1,.029.049c.007.012.012.024.018.036s.009.019.013.029l.007.016v0l.011.032,0,.011v0c0,.012.008.024.01.037s.007.027.009.041V117c0,.014,0,.029.007.043v.033a.114.114,0,0,1,0,.013.016.016,0,0,1,0,0v.558l3.641-1.4v-.565Zm0,0-3.038,1.165.253.094h0l.011,0,.038.016.038.018a.5.5,0,0,1,.047.026c.015.009.03.019.044.029l.042.032h0a.479.479,0,0,1,.037.033c.013.011.025.024.037.037s.023.026.033.039l.031.041.016.024a.521.521,0,0,1,.029.049c.007.012.012.024.018.036s.009.019.013.029l.007.016v0l.011.032,0,.011v0c0,.012.008.024.01.037s.007.027.009.041V117c0,.014,0,.029.007.043v.033a.114.114,0,0,1,0,.013.016.016,0,0,1,0,0v.558l3.641-1.4v-.565Z" transform="translate(-84.002 -104.822)" fill="#413b32"/>
      </g>
    </g>
  </g>
</svg>
