<svg xmlns="http://www.w3.org/2000/svg" xmlns:xlink="http://www.w3.org/1999/xlink" width="126" height="126" viewBox="0 0 126 126">
  <defs>
    <clipPath id="clip-path">
      <rect id="Rectángulo_456277" data-name="Rectángulo 456277" width="126" height="126" transform="translate(-0.173 -0.173)" fill="#d35560"/>
    </clipPath>
  </defs>
  <g id="Grupo_1186005" data-name="Grupo 1186005" transform="translate(-1208.711 -14245.736)">
    <g id="Grupo_1186003" data-name="Grupo 1186003" transform="translate(313.653 6961.736)">
      <g id="Grupo_1180176" data-name="Grupo 1180176" transform="translate(14330.847 19964.789)">
        <g id="Grupo_1179924" data-name="Grupo 1179924" transform="translate(-13435.616 -12680.616)">
          <g id="Grupo_1179923" data-name="Grupo 1179923" transform="translate(0 0)" clip-path="url(#clip-path)">
            <path id="Trazado_1004716" data-name="Trazado 1004716" d="M62.806,125.612c-2.04,0-3.948-2.331-5.937-2.525-2.026-.2-4.351,1.715-6.315,1.325-1.993-.4-3.409-3.055-5.329-3.638-1.941-.59-4.6.83-6.452.058-1.871-.777-2.738-3.663-4.51-4.614s-4.665-.085-6.338-1.206-1.967-4.124-3.525-5.4-4.557-.986-5.984-2.413-1.13-4.424-2.412-5.984-4.279-1.846-5.4-3.525-.249-4.555-1.206-6.338-3.836-2.64-4.614-4.51c-.771-1.855.648-4.511.059-6.452C4.254,78.467,1.6,77.051,1.2,75.058c-.39-1.964,1.523-4.289,1.325-6.315C2.331,66.754,0,64.846,0,62.806s2.331-3.948,2.525-5.937c.2-2.026-1.715-4.35-1.325-6.315.4-1.993,3.054-3.409,3.638-5.329.59-1.941-.829-4.6-.058-6.452.778-1.871,3.663-2.737,4.614-4.51S9.478,29.6,10.6,27.924,14.723,25.957,16,24.4s.986-4.557,2.413-5.984S22.84,17.286,24.4,16s1.846-4.279,3.525-5.4,4.555-.249,6.338-1.206,2.639-3.836,4.51-4.614,4.511.648,6.452.058C47.145,4.254,48.56,1.6,50.554,1.2c1.964-.39,4.289,1.523,6.315,1.325C58.858,2.331,60.766,0,62.806,0s3.948,2.331,5.937,2.525c2.026.2,4.351-1.715,6.315-1.325,1.993.4,3.409,3.055,5.329,3.638,1.941.59,4.6-.83,6.452-.058,1.871.777,2.738,3.663,4.51,4.614s4.665.084,6.338,1.206,1.967,4.124,3.525,5.4,4.557.986,5.984,2.413,1.13,4.424,2.412,5.984,4.279,1.846,5.4,3.525.249,4.555,1.206,6.338,3.836,2.64,4.614,4.51c.771,1.855-.648,4.511-.058,6.452.583,1.919,3.242,3.335,3.638,5.328.39,1.964-1.523,4.289-1.325,6.315.195,1.989,2.525,3.9,2.525,5.937s-2.331,3.948-2.525,5.938c-.2,2.026,1.715,4.35,1.325,6.315-.4,1.993-3.054,3.409-3.638,5.329-.59,1.941.829,4.6.058,6.452-.778,1.871-3.663,2.738-4.614,4.511s-.084,4.665-1.206,6.338-4.124,1.967-5.4,3.525-.986,4.557-2.413,5.984-4.424,1.13-5.984,2.413-1.846,4.278-3.525,5.4-4.555.249-6.338,1.206-2.639,3.837-4.51,4.614c-1.855.771-4.511-.648-6.452-.058-1.919.583-3.335,3.242-5.328,3.638-1.964.39-4.289-1.523-6.315-1.325-1.99.194-3.9,2.525-5.938,2.525" transform="translate(0.021 0.022)" fill="#3342a4"/>
            <path id="Trazado_1004717" data-name="Trazado 1004717" d="M14,70.865A56.865,56.865,0,1,1,70.865,127.73,56.865,56.865,0,0,1,14,70.865" transform="translate(-8.038 -8.037)" fill="#fff7e8"/>
            <path id="Trazado_1021102" data-name="Trazado 1021102" d="M14,66.624a52.624,52.624,0,1,1,52.624,52.624A52.624,52.624,0,0,1,14,66.624" transform="translate(-3.798 -3.795)" fill="#3342a4"/>
          </g>
        </g>
        <g id="Grupo_1180053" data-name="Grupo 1180053" transform="translate(-13407.189 -12652.604)">
          <rect id="Rectángulo_401104" data-name="Rectángulo 401104" width="68.804" height="69.633" transform="translate(0 0)" fill="none"/>
        </g>
      </g>
    </g>
    <g id="Grupo_1180532" data-name="Grupo 1180532" transform="translate(1246.3 14279.584)">
      <g id="Grupo_1180530" data-name="Grupo 1180530" transform="translate(3.597 0.803)">
        <g id="Grupo_1180524" data-name="Grupo 1180524" transform="translate(0)">
          <g id="Grupo_1180523" data-name="Grupo 1180523">
            <g id="Grupo_1180522" data-name="Grupo 1180522">
              <g id="Grupo_1180521" data-name="Grupo 1180521">
                <g id="Grupo_1180520" data-name="Grupo 1180520">
                  <path id="Trazado_1022255" data-name="Trazado 1022255" d="M21.745,7.5H48.994a3.171,3.171,0,0,1,3.171,3.171V57.555a3.171,3.171,0,0,1-3.171,3.171H13.464a3.171,3.171,0,0,1-3.171-3.171v-38.6a3.17,3.17,0,0,1,.929-2.242L19.5,8.428A3.17,3.17,0,0,1,21.745,7.5Z" transform="translate(-10.293 -7.499)" fill="#f4fbff"/>
                  <path id="Trazado_1022256" data-name="Trazado 1022256" d="M314.9,7.5h-6.808a3.171,3.171,0,0,1,3.171,3.171V57.555a3.171,3.171,0,0,1-3.171,3.171H314.9a3.171,3.171,0,0,0,3.171-3.171V10.67A3.171,3.171,0,0,0,314.9,7.5Z" transform="translate(-276.196 -7.499)" fill="#e4f6ff"/>
                  <path id="Trazado_1022257" data-name="Trazado 1022257" d="M13.6,19.084,21.878,10.8a3.17,3.17,0,0,1,.929-.644v7.888a1.966,1.966,0,0,1-1.966,1.966H12.953a3.168,3.168,0,0,1,.644-.929Z" transform="translate(-12.668 -9.874)" fill="#e28086"/>
                </g>
              </g>
            </g>
          </g>
          <path id="Trazado_1022258" data-name="Trazado 1022258" d="M182.59,63.808H166.1a1,1,0,0,1-1-1V60.2a1,1,0,0,1,1-1H182.59a1,1,0,0,1,1,1V62.81a1,1,0,0,1-1,1Z" transform="translate(-148.524 -53.669)" fill="#cbe2ff"/>
        </g>
        <path id="Trazado_1022259" data-name="Trazado 1022259" d="M364.732,344.225l-2.945-1.813a.9.9,0,0,0-.945,0l-2.945,1.813a.9.9,0,0,1-1.374-.768V331.792h9.584v11.665a.9.9,0,0,1-1.374.768Z" transform="translate(-319.443 -297.062)" fill="#e8ae4d"/>
        <g id="Grupo_1180529" data-name="Grupo 1180529" transform="translate(31.116 17.618)">
          <g id="Grupo_1180528" data-name="Grupo 1180528">
            <g id="Grupo_1180527" data-name="Grupo 1180527">
              <g id="Grupo_1180526" data-name="Grupo 1180526">
                <g id="Grupo_1180525" data-name="Grupo 1180525">
                  <path id="Trazado_1022260" data-name="Trazado 1022260" d="M313.5,172.941a2.408,2.408,0,0,0,2.579.838,2.408,2.408,0,0,1,3.082,2.239,2.408,2.408,0,0,0,1.594,2.194,2.408,2.408,0,0,1,1.177,3.623,2.408,2.408,0,0,0,0,2.712,2.408,2.408,0,0,1-1.177,3.623,2.408,2.408,0,0,0-1.594,2.194,2.408,2.408,0,0,1-3.082,2.239,2.408,2.408,0,0,0-2.579.838,2.408,2.408,0,0,1-3.809,0,2.408,2.408,0,0,0-2.579-.838,2.408,2.408,0,0,1-3.082-2.239,2.408,2.408,0,0,0-1.594-2.194,2.408,2.408,0,0,1-1.177-3.623,2.408,2.408,0,0,0,0-2.712,2.408,2.408,0,0,1,1.177-3.623,2.408,2.408,0,0,0,1.594-2.194,2.408,2.408,0,0,1,3.082-2.239,2.408,2.408,0,0,0,2.579-.838A2.408,2.408,0,0,1,313.5,172.941Z" transform="translate(-300.838 -172.007)" fill="#ffe07d"/>
                  <path id="Trazado_1022261" data-name="Trazado 1022261" d="M391.851,184.547a2.408,2.408,0,0,1,0-2.712,2.408,2.408,0,0,0-1.177-3.623,2.408,2.408,0,0,1-1.594-2.194A2.408,2.408,0,0,0,386,173.78a2.408,2.408,0,0,1-2.579-.838,2.408,2.408,0,0,0-3.809,0,2.407,2.407,0,0,1-.465.457,10.76,10.76,0,0,1,0,19.586,2.4,2.4,0,0,1,.465.457,2.408,2.408,0,0,0,3.809,0A2.408,2.408,0,0,1,386,192.6a2.408,2.408,0,0,0,3.082-2.239,2.408,2.408,0,0,1,1.594-2.194A2.408,2.408,0,0,0,391.851,184.547Z" transform="translate(-370.759 -172.007)" fill="#ffd064"/>
                  <circle id="Elipse_13694" data-name="Elipse 13694" cx="5.928" cy="5.928" r="5.928" transform="translate(4.827 5.256)" fill="#e8ae4d"/>
                  <path id="Trazado_1022262" data-name="Trazado 1022262" d="M427.971,231.578a5.929,5.929,0,0,0-3.436-5.381,10.769,10.769,0,0,1,0,10.761A5.929,5.929,0,0,0,427.971,231.578Z" transform="translate(-411.288 -220.393)" fill="#e5a32e"/>
                </g>
              </g>
            </g>
          </g>
        </g>
      </g>
      <path id="Trazado_1022263" data-name="Trazado 1022263" d="M13.6,19.084,21.878,10.8a3.17,3.17,0,0,1,.929-.644v7.888a1.966,1.966,0,0,1-1.966,1.966H12.953a3.168,3.168,0,0,1,.644-.929Z" transform="translate(-9.071 -9.071)" fill="#e28086"/>
      <g id="Grupo_1180531" data-name="Grupo 1180531" transform="translate(2.794 0)">
        <path id="Trazado_1022264" data-name="Trazado 1022264" d="M80.654,181.506H60.093a.8.8,0,1,0,0,1.606H80.654a.8.8,0,1,0,0-1.606Z" transform="translate(-53.24 -162.068)"/>
        <path id="Trazado_1022265" data-name="Trazado 1022265" d="M80.654,234.2H60.093a.8.8,0,0,0,0,1.606H80.654a.8.8,0,1,0,0-1.606Z" transform="translate(-53.24 -209.12)"/>
        <path id="Trazado_1022266" data-name="Trazado 1022266" d="M80.654,286.9H60.093a.8.8,0,0,0,0,1.606H80.654a.8.8,0,1,0,0-1.606Z" transform="translate(-53.24 -256.172)"/>
        <path id="Trazado_1022267" data-name="Trazado 1022267" d="M81.457,340.4a.8.8,0,0,0-.8-.8H60.093a.8.8,0,1,0,0,1.606H80.654A.8.8,0,0,0,81.457,340.4Z" transform="translate(-53.24 -303.225)"/>
        <path id="Trazado_1022268" data-name="Trazado 1022268" d="M60.093,416.821a.8.8,0,1,0,0,1.606H70.4a.8.8,0,1,0,0-1.606Z" transform="translate(-53.24 -372.181)"/>
        <path id="Trazado_1022269" data-name="Trazado 1022269" d="M177.694,56.114V53.507a1.8,1.8,0,0,0-1.8-1.8H159.4a1.8,1.8,0,0,0-1.8,1.8v2.606a1.8,1.8,0,0,0,1.8,1.8H160.8a.8.8,0,1,0,0-1.606H159.4a.194.194,0,0,1-.194-.194V53.507a.194.194,0,0,1,.194-.194h16.489a.194.194,0,0,1,.194.194v2.606a.194.194,0,0,1-.194.194H164.552a.8.8,0,1,0,0,1.606h11.342A1.8,1.8,0,0,0,177.694,56.114Z" transform="translate(-141.025 -46.169)"/>
        <path id="Trazado_1022270" data-name="Trazado 1022270" d="M45.469,48.974a.8.8,0,0,0-.8.8v1.082A2.37,2.37,0,0,1,42.3,53.227H6.768A2.37,2.37,0,0,1,4.4,50.859v-38.6a2.384,2.384,0,0,1,.057-.51H11.77a2.772,2.772,0,0,0,2.769-2.769V1.663a2.383,2.383,0,0,1,.51-.057H42.3a2.37,2.37,0,0,1,2.368,2.368V14.666a.8.8,0,1,0,1.606,0V3.974A3.978,3.978,0,0,0,42.3,0H15.049a3.948,3.948,0,0,0-2.81,1.164L3.958,9.445a3.948,3.948,0,0,0-1.164,2.81v38.6a3.978,3.978,0,0,0,3.974,3.974H42.3a3.978,3.978,0,0,0,3.974-3.974V49.778A.8.8,0,0,0,45.469,48.974ZM12.932,2.742V8.976a1.164,1.164,0,0,1-1.163,1.163H5.536Z" transform="translate(-2.794 0)"/>
        <path id="Trazado_1022271" data-name="Trazado 1022271" d="M315.89,175.591a3.211,3.211,0,0,0-1.57-4.831,1.6,1.6,0,0,1-1.062-1.462,3.212,3.212,0,0,0-4.109-2.986,1.6,1.6,0,0,1-1.719-.559,3.211,3.211,0,0,0-5.08,0,1.6,1.6,0,0,1-1.719.559,3.211,3.211,0,0,0-4.109,2.986,1.6,1.6,0,0,1-1.062,1.462,3.211,3.211,0,0,0-1.57,4.831,1.6,1.6,0,0,1,0,1.807,3.212,3.212,0,0,0,1.57,4.831,1.6,1.6,0,0,1,1.062,1.462,3.211,3.211,0,0,0,2.773,3.084v7.312a1.7,1.7,0,0,0,2.6,1.452l2.946-1.813a.084.084,0,0,1,.1,0l2.945,1.813a1.7,1.7,0,0,0,2.6-1.452v-7.312a3.211,3.211,0,0,0,2.773-3.084,1.6,1.6,0,0,1,1.062-1.462,3.211,3.211,0,0,0,1.57-4.831A1.6,1.6,0,0,1,315.89,175.591Zm-7.161,18.581-2.946-1.813a1.7,1.7,0,0,0-1.787,0l-2.946,1.813a.1.1,0,0,1-.15-.084v-7.465a1.593,1.593,0,0,1,1.449.612,3.212,3.212,0,0,0,5.08,0,1.593,1.593,0,0,1,1.449-.612v7.465A.1.1,0,0,1,308.729,194.171Zm5.834-15.869a1.605,1.605,0,0,1-.785,2.414,3.193,3.193,0,0,0-2.126,2.926,1.605,1.605,0,0,1-2.054,1.492,3.194,3.194,0,0,0-3.439,1.117,1.605,1.605,0,0,1-2.539,0,3.191,3.191,0,0,0-2.53-1.248,3.243,3.243,0,0,0-.909.131,1.6,1.6,0,0,1-1.476-.307,1.582,1.582,0,0,1-.578-1.185A3.193,3.193,0,0,0,296,180.717a1.6,1.6,0,0,1-.784-2.414,3.193,3.193,0,0,0,0-3.616,1.605,1.605,0,0,1,.784-2.415,3.193,3.193,0,0,0,2.126-2.926,1.605,1.605,0,0,1,2.054-1.492,3.193,3.193,0,0,0,3.439-1.117,1.605,1.605,0,0,1,2.539,0,3.193,3.193,0,0,0,3.439,1.118,1.605,1.605,0,0,1,2.054,1.492,3.193,3.193,0,0,0,2.126,2.926,1.6,1.6,0,0,1,.785,2.414A3.193,3.193,0,0,0,314.563,178.3Z" transform="translate(-262.215 -146.889)"/>
        <path id="Trazado_1022272" data-name="Trazado 1022272" d="M345.145,213.583a6.731,6.731,0,1,0,6.731,6.731A6.739,6.739,0,0,0,345.145,213.583Zm0,11.857a5.125,5.125,0,1,1,5.125-5.125A5.131,5.131,0,0,1,345.145,225.44Z" transform="translate(-302.471 -190.709)"/>
      </g>
    </g>
  </g>
</svg>
