<svg xmlns="http://www.w3.org/2000/svg" width="16.521" height="16.521" viewBox="0 0 16.521 16.521">
  <path id="earth-africa-solid-full" d="M78.443,69.647a6.716,6.716,0,0,0-6.183-4.1,6.8,6.8,0,0,0-2.046.316,1.026,1.026,0,0,0-.019.2v2.369a.73.73,0,0,0,1.246.516l.516-.516a1.031,1.031,0,0,1,.729-.3h.177a1.033,1.033,0,0,1,0,2.065H70.88a1.031,1.031,0,0,0-.729.3l-.687.687a1.031,1.031,0,0,0-.3.729v1.378a1.031,1.031,0,0,0,1.033,1.033h1.033a1.031,1.031,0,0,1,1.033,1.033v1.033a1.031,1.031,0,0,0,1.033,1.033h.087a1.031,1.031,0,0,0,.729-.3l.945-.945a1.031,1.031,0,0,0,.3-.729v-.6a.518.518,0,0,1,.516-.516.518.518,0,0,0,.516-.516V72.69a1.031,1.031,0,0,0-.3-.729l-.516-.516a.73.73,0,0,1,.516-1.246h1.452a1.023,1.023,0,0,0,.9-.549ZM64,72.261a8.261,8.261,0,1,1,8.261,8.261A8.26,8.26,0,0,1,64,72.261Z" transform="translate(-64 -64)" fill="#a2cbcf"/>
</svg>
