<svg xmlns="http://www.w3.org/2000/svg" width="48" height="48" viewBox="0 0 48 48">
  <g id="Grupo_1186005" data-name="Grupo 1186005" transform="translate(-186.371 -11742)">
    <g id="Grupo_1180327" data-name="Grupo 1180327">
      <path id="Trazado_997746" data-name="Trazado 997746" d="M6,0H42a6,6,0,0,1,6,6V42a6,6,0,0,1-6,6H6a6,6,0,0,1-6-6V6A6,6,0,0,1,6,0Z" transform="translate(186.371 11742)" fill="#4d787e"/>
      <path id="handshake-solid-full" d="M49.322,99.427l-7.511,8.349a.839.839,0,0,0,.032,1.153,5.035,5.035,0,0,0,7.118,0l2.049-2.049a1.512,1.512,0,0,1,.96-.444,1.535,1.535,0,0,1,1.224.444L64.57,118.16l4.535-3.607V96l-7.215,4.123L60.357,99.1a6.2,6.2,0,0,0-3.434-1.037H52.389c-.071,0-.148,0-.219.006A4.141,4.141,0,0,0,49.322,99.427Zm-9.811,6.281,6.88-7.647H43.84a6.182,6.182,0,0,0-4.374,1.81l-.251.251L32,96v18.553l10.075,8.394a8.235,8.235,0,0,0,5.276,1.913h1.011l-.451-.451a1.544,1.544,0,0,1,2.184-2.184l2.641,2.641h.58a8.294,8.294,0,0,0,3.53-.792l-1.72-1.726a1.544,1.544,0,1,1,2.184-2.184l2.061,2.061L60.5,121.1a2.06,2.06,0,0,0,.49-2.132l-8.883-8.813-.96.96a8.122,8.122,0,0,1-11.492,0,3.931,3.931,0,0,1-.142-5.411Z" transform="translate(159.371 11656)" fill="#fff"/>
    </g>
  </g>
</svg>
