<svg xmlns="http://www.w3.org/2000/svg" xmlns:xlink="http://www.w3.org/1999/xlink" width="292" height="115" viewBox="0 0 292 115">
  <defs>
    <clipPath id="clip-path">
      <rect id="Rectángulo_457078" data-name="Rectángulo 457078" width="141.141" height="89.132" fill="none"/>
    </clipPath>
  </defs>
  <g id="Grupo_1180798" data-name="Grupo 1180798" transform="translate(-185.84 -323)">
    <rect id="Rectángulo_456590" data-name="Rectángulo 456590" width="292" height="115" rx="10" transform="translate(185.84 323)" fill="#a2cbcf"/>
    <g id="Grupo_1180797" data-name="Grupo 1180797" transform="translate(261.269 334)">
      <g id="Grupo_1180796" data-name="Grupo 1180796" clip-path="url(#clip-path)">
        <path id="Trazado_1024070" data-name="Trazado 1024070" d="M643.126,138.712h-59a1.255,1.255,0,0,1-1.287-1.219V65.7a1.255,1.255,0,0,1,1.287-1.219h59a1.255,1.255,0,0,1,1.287,1.219v71.791a1.255,1.255,0,0,1-1.287,1.219" transform="translate(-552.854 -61.342)" fill="#fff"/>
        <path id="Trazado_1024071" data-name="Trazado 1024071" d="M641.038,136.725h-59a1.367,1.367,0,0,1-1.4-1.326V63.607a1.367,1.367,0,0,1,1.4-1.326h59a1.367,1.367,0,0,1,1.4,1.326V135.4a1.367,1.367,0,0,1-1.4,1.326m-59-74.229a1.146,1.146,0,0,0-1.174,1.112V135.4a1.146,1.146,0,0,0,1.174,1.112h59a1.146,1.146,0,0,0,1.174-1.112V63.607a1.146,1.146,0,0,0-1.174-1.112Z" transform="translate(-550.765 -59.248)"/>
        <path id="Trazado_1024072" data-name="Trazado 1024072" d="M698.16,192.9H642.983a.11.11,0,0,1-.113-.107V124.624a.11.11,0,0,1,.113-.107H698.16a.11.11,0,0,1,.113.107v68.167a.11.11,0,0,1-.113.107m-55.064-.214h54.95V124.732H643.1Z" transform="translate(-609.802 -118.452)"/>
        <path id="Trazado_1024073" data-name="Trazado 1024073" d="M886.2,9.075h-25a4.082,4.082,0,0,1-4.189-3.966V0h33.373V5.109A4.082,4.082,0,0,1,886.2,9.075" transform="translate(-812.933)" fill="#e2eaff"/>
        <rect id="Rectángulo_457070" data-name="Rectángulo 457070" width="22.162" height="7.902" transform="translate(51.661 14.601)" fill="#fff"/>
        <path id="Trazado_1024074" data-name="Trazado 1024074" d="M1024.4,305.7h-22.162a.11.11,0,0,1-.113-.107v-7.9a.11.11,0,0,1,.113-.107H1024.4a.11.11,0,0,1,.113.107v7.9a.11.11,0,0,1-.113.107m-22.049-.215h21.935V297.8h-21.935Z" transform="translate(-950.575 -283.089)"/>
        <rect id="Rectángulo_457071" data-name="Rectángulo 457071" width="9.175" height="7.902" transform="translate(73.823 14.601)" fill="#fff"/>
        <path id="Trazado_1024075" data-name="Trazado 1024075" d="M1442.257,305.7h-9.175a.11.11,0,0,1-.113-.107v-7.9a.11.11,0,0,1,.113-.107h9.175a.11.11,0,0,1,.113.107v7.9a.11.11,0,0,1-.113.107m-9.061-.215h8.948V297.8H1433.2Z" transform="translate(-1359.26 -283.089)"/>
        <rect id="Rectángulo_457072" data-name="Rectángulo 457072" width="11.595" height="7.902" transform="translate(38.543 14.601)" fill="#e2eaff"/>
        <rect id="Rectángulo_457073" data-name="Rectángulo 457073" width="44.455" height="5.3" transform="translate(38.542 26.024)" fill="#fff"/>
        <path id="Trazado_1024076" data-name="Trazado 1024076" d="M791.664,537.611H747.209a.11.11,0,0,1-.113-.107v-5.3a.11.11,0,0,1,.113-.107h44.455a.11.11,0,0,1,.113.107v5.3a.11.11,0,0,1-.113.107m-44.341-.214h44.228v-5.085H747.323Z" transform="translate(-708.667 -506.181)"/>
        <path id="Trazado_1024077" data-name="Trazado 1024077" d="M1016.636,539.6v0Z" transform="translate(-964.342 -508.276)" fill="#fff"/>
        <path id="Trazado_1024078" data-name="Trazado 1024078" d="M1014.547,537.612a.11.11,0,0,1-.113-.107v-5.3a.113.113,0,0,1,.227,0v5.3a.11.11,0,0,1-.113.107" transform="translate(-962.253 -506.182)"/>
        <rect id="Rectángulo_457074" data-name="Rectángulo 457074" width="44.455" height="5.3" transform="translate(38.542 35.375)" fill="#fff"/>
        <path id="Trazado_1024079" data-name="Trazado 1024079" d="M791.664,729.607H747.209a.11.11,0,0,1-.113-.107v-5.3a.11.11,0,0,1,.113-.107h44.455a.11.11,0,0,1,.113.107v5.3a.11.11,0,0,1-.113.107m-44.341-.214h44.228v-5.085H747.323Z" transform="translate(-708.667 -688.825)"/>
        <path id="Trazado_1024080" data-name="Trazado 1024080" d="M1016.636,731.595v0Z" transform="translate(-964.342 -690.92)" fill="#fff"/>
        <path id="Trazado_1024081" data-name="Trazado 1024081" d="M1014.547,729.607a.11.11,0,0,1-.113-.107v-5.3a.113.113,0,0,1,.227,0v5.3a.11.11,0,0,1-.113.107" transform="translate(-962.253 -688.825)"/>
        <rect id="Rectángulo_457075" data-name="Rectángulo 457075" width="44.455" height="5.3" transform="translate(38.542 44.726)" fill="#fff"/>
        <path id="Trazado_1024082" data-name="Trazado 1024082" d="M791.664,921.6H747.209a.11.11,0,0,1-.113-.107v-5.3a.11.11,0,0,1,.113-.107h44.455a.11.11,0,0,1,.113.107v5.3a.11.11,0,0,1-.113.107m-44.341-.215h44.228V916.3H747.323Z" transform="translate(-708.667 -871.47)"/>
        <path id="Trazado_1024083" data-name="Trazado 1024083" d="M1016.636,923.591v0Z" transform="translate(-964.342 -873.565)" fill="#fff"/>
        <path id="Trazado_1024084" data-name="Trazado 1024084" d="M1014.547,921.6a.11.11,0,0,1-.113-.107v-5.3a.113.113,0,0,1,.227,0v5.3a.11.11,0,0,1-.113.107" transform="translate(-962.253 -871.469)"/>
        <rect id="Rectángulo_457076" data-name="Rectángulo 457076" width="44.455" height="5.3" transform="translate(38.542 54.077)" fill="#fff"/>
        <path id="Trazado_1024085" data-name="Trazado 1024085" d="M791.664,1113.6H747.209a.11.11,0,0,1-.113-.107v-5.3a.11.11,0,0,1,.113-.107h44.455a.11.11,0,0,1,.113.107v5.3a.11.11,0,0,1-.113.107m-44.341-.215h44.228V1108.3H747.323Z" transform="translate(-708.667 -1054.114)"/>
        <path id="Trazado_1024086" data-name="Trazado 1024086" d="M1016.636,1115.586v0Z" transform="translate(-964.342 -1056.208)" fill="#fff"/>
        <path id="Trazado_1024087" data-name="Trazado 1024087" d="M1014.547,1113.6a.11.11,0,0,1-.113-.107v-5.3a.113.113,0,0,1,.227,0v5.3a.11.11,0,0,1-.113.107" transform="translate(-962.253 -1054.115)"/>
        <path id="Trazado_1024088" data-name="Trazado 1024088" d="M1469.775,398.766c.644,1.632,2.554,14.872,2.554,14.872l.617-.688s5.71,3.227,8.071,7.068a12.741,12.741,0,0,1-10.485,4.943c-11.464.011-8.468-22.612-8.468-22.612a1.886,1.886,0,0,1-1.751-1.262c-.483-1.3-.416-2.266.956-2.144,0,0-.665-2.04,1.188-2.124,0,0,.121-2.535,2.722-.561,0,0-3.367-4.684-1.361-5.2.551-.142.831-.4,1.623.912s3.69,5.165,4.334,6.8" transform="translate(-1384.938 -371.897)" fill="#fff"/>
        <path id="Trazado_1024089" data-name="Trazado 1024089" d="M1468.408,423a6.851,6.851,0,0,1-5.21-2.219c-2.755-2.953-3.521-8.377-3.679-12.408a54.218,54.218,0,0,1,.3-7.992,2,2,0,0,1-1.731-1.328c-.351-.944-.373-1.584-.066-1.956a1.156,1.156,0,0,1,.979-.34,2.027,2.027,0,0,1,.187-1.6,1.375,1.375,0,0,1,1.046-.512,1.522,1.522,0,0,1,.749-1.237,1.847,1.847,0,0,1,1.651.35c-.659-1-2.023-3.27-1.607-4.337a.879.879,0,0,1,.642-.541c.055-.014.106-.029.156-.044.535-.157.873-.187,1.6,1.006.256.423.734,1.115,1.288,1.917a35.174,35.174,0,0,1,3.053,4.9c.6,1.523,2.257,12.809,2.526,14.657l.453-.505a.118.118,0,0,1,.16-.012.1.1,0,0,1,.013.151l-.617.688a.118.118,0,0,1-.118.033.109.109,0,0,1-.081-.088c-.019-.132-1.915-13.247-2.548-14.849a35.15,35.15,0,0,0-3.031-4.853c-.556-.8-1.036-1.5-1.3-1.928-.667-1.1-.917-1.029-1.332-.907-.052.015-.107.031-.164.046a.66.66,0,0,0-.49.408c-.491,1.259,1.89,4.6,1.914,4.629a.1.1,0,0,1-.017.139.118.118,0,0,1-.148,0c-.818-.621-1.479-.851-1.913-.665-.574.245-.625,1.138-.625,1.147a.11.11,0,0,1-.108.1,1.207,1.207,0,0,0-.97.427,2.014,2.014,0,0,0-.115,1.558.1.1,0,0,1-.02.1.117.117,0,0,1-.1.039,1.048,1.048,0,0,0-.939.248c-.252.305-.218.9.1,1.753a1.759,1.759,0,0,0,1.641,1.191.116.116,0,0,1,.087.035.1.1,0,0,1,.029.085c-.019.147-1.887,14.777,3.308,20.346a6.628,6.628,0,0,0,5.04,2.146h.008a12.723,12.723,0,0,0,10.389-4.892.117.117,0,0,1,.156-.034A.1.1,0,0,1,1479,418a10.673,10.673,0,0,1-2.555,2.5,13.6,13.6,0,0,1-8.026,2.5Z" transform="translate(-1382.822 -369.826)"/>
        <path id="Trazado_1024090" data-name="Trazado 1024090" d="M1544.342,534.1a2.262,2.262,0,0,1-1.861-.964,4.066,4.066,0,0,1-.321-.639,2.235,2.235,0,0,0-.562-.9,2.426,2.426,0,0,0-.552-.31c-.088-.04-.176-.08-.262-.124a1.152,1.152,0,0,1-.678-.73.932.932,0,0,1,.428-.918,2.244,2.244,0,0,1,.974-.33,6.842,6.842,0,0,1,3.572.443.105.105,0,0,1,.058.141.116.116,0,0,1-.149.055,6.6,6.6,0,0,0-3.446-.428,2.035,2.035,0,0,0-.874.291.729.729,0,0,0-.34.7,1,1,0,0,0,.564.584c.082.042.167.081.252.12a2.647,2.647,0,0,1,.6.342,2.429,2.429,0,0,1,.623.976,3.9,3.9,0,0,0,.3.606,2.033,2.033,0,0,0,1.96.841.113.113,0,0,1,.13.089.108.108,0,0,1-.094.123,2.141,2.141,0,0,1-.328.025" transform="translate(-1460.872 -503.345)"/>
        <path id="Trazado_1024091" data-name="Trazado 1024091" d="M1509.7,517.853a1.257,1.257,0,0,1-.535-.123,2.223,2.223,0,0,1-.724-.608,5.33,5.33,0,0,1-1.255-3.365.11.11,0,0,1,.112-.108.108.108,0,0,1,.114.106,5.122,5.122,0,0,0,1.205,3.233,2.024,2.024,0,0,0,.648.55.889.889,0,0,0,.783.019.482.482,0,0,0,.233-.608.1.1,0,0,1,.049-.144.116.116,0,0,1,.153.046.681.681,0,0,1-.322.892.972.972,0,0,1-.461.109" transform="translate(-1429.658 -488.631)"/>
        <path id="Trazado_1024092" data-name="Trazado 1024092" d="M1487,558.957a1.444,1.444,0,0,1-.3-.032,2.062,2.062,0,0,1-1.324-1.056,5.434,5.434,0,0,1-.5-1.555.108.108,0,0,1,.089-.126.113.113,0,0,1,.133.084,5.277,5.277,0,0,0,.476,1.5,1.84,1.84,0,0,0,1.174.947,1.115,1.115,0,0,0,1.265-.565.115.115,0,0,1,.146-.063.106.106,0,0,1,.067.138,1.3,1.3,0,0,1-1.223.732" transform="translate(-1408.491 -529.096)"/>
        <path id="Trazado_1024093" data-name="Trazado 1024093" d="M1499.228,608.846a.111.111,0,0,1-.113-.1.11.11,0,0,1,.107-.113.638.638,0,0,0,.582-.5.112.112,0,0,1,.129-.09.108.108,0,0,1,.1.122.859.859,0,0,1-.794.685h-.006" transform="translate(-1422.003 -578.423)"/>
        <path id="Trazado_1024094" data-name="Trazado 1024094" d="M1889.386,874.53l-.023,0a.108.108,0,0,1-.088-.127l1.315-5.962a.113.113,0,0,1,.134-.083.108.108,0,0,1,.088.127l-1.315,5.962a.112.112,0,0,1-.111.085" transform="translate(-1792.092 -826.059)" fill="#fff"/>
        <path id="Trazado_1024095" data-name="Trazado 1024095" d="M2255.241,969.825a.113.113,0,0,1-.109-.077c-.432-1.412-.934-2.824-1.492-4.2a.105.105,0,0,1,.065-.139.115.115,0,0,1,.146.062c.56,1.378,1.064,2.8,1.5,4.214a.106.106,0,0,1-.077.133.126.126,0,0,1-.032,0" transform="translate(-2137.71 -918.384)" fill="#fff"/>
        <path id="Trazado_1024096" data-name="Trazado 1024096" d="M1720.892,698.937l-.914-11.162-9.029-7.908s4.025-6.006,7.169-6.931,18.337-1.686,22.284-1.322c6.26.576,8.91,8.439,9.634,9.014l1.919,2.989-9.157,5.814.348,8.993Z" transform="translate(-1622.94 -638.814)" fill="#fff"/>
        <path id="Trazado_1024097" data-name="Trazado 1024097" d="M1718.8,696.914a.111.111,0,0,1-.113-.1l-.911-11.12-9-7.879a.1.1,0,0,1-.019-.136c.165-.247,4.084-6.05,7.231-6.976,3.1-.913,18.272-1.7,22.328-1.327,5.014.462,7.708,5.48,9,7.891a5.979,5.979,0,0,0,.693,1.148.106.106,0,0,1,.024.026l1.919,2.988a.1.1,0,0,1-.034.145l-9.1,5.781.346,8.933a.1.1,0,0,1-.031.077.117.117,0,0,1-.08.034l-22.253.513h0M1709,677.72l8.96,7.846a.106.106,0,0,1,.036.07l.906,11.061,22.031-.508-.344-8.884a.105.105,0,0,1,.05-.093l9.067-5.757-1.854-2.887a5.816,5.816,0,0,1-.734-1.2c-1.276-2.377-3.932-7.324-8.823-7.775-4.042-.372-19.153.41-22.239,1.318-2.879.847-6.579,6.117-7.056,6.811" transform="translate(-1620.85 -636.684)"/>
        <path id="Trazado_1024098" data-name="Trazado 1024098" d="M2372.521,599.13h-12.8a.529.529,0,0,1-.525-.687l5.885-16.954a.551.551,0,0,1,.525-.36h12.8a.529.529,0,0,1,.525.687l-5.885,16.954a.55.55,0,0,1-.525.36" transform="translate(-2237.817 -552.825)"/>
        <path id="Trazado_1024099" data-name="Trazado 1024099" d="M2336.277,848.857s-2.242-2.2-1.8-2.615,2.112,1.15,2.112,1.15-2.2-2.548-1.569-3.111,3.1,1.961,3.1,1.961-1.992-2.406-1.53-2.806,2.531,1.206,3.5,2.71c0,0-2.288-3-1.72-3.456s5.856,5.3,5.856,5.3-1.437,6.628-6.31,9.848a4.307,4.307,0,0,1-6.18-1.634,40.632,40.632,0,0,1-1.632-3.968l5.327-3.382.421.393Z" transform="translate(-2210.249 -801.623)" fill="#fff"/>
        <path id="Trazado_1024100" data-name="Trazado 1024100" d="M2333.482,856.4a4.522,4.522,0,0,1-1.128-.143,4.277,4.277,0,0,1-2.808-2.25,40.95,40.95,0,0,1-1.636-3.978.1.1,0,0,1,.044-.124l5.327-3.382a.118.118,0,0,1,.143.013l.342.319.265-.245c-.614-.61-2.183-2.256-1.719-2.689.286-.267.9.062,1.42.443-.623-.836-1.337-2-.875-2.406a.472.472,0,0,1,.343-.11A4.4,4.4,0,0,1,2335.13,843c-.528-.751-1.02-1.619-.7-1.892a.452.452,0,0,1,.37-.083,4.666,4.666,0,0,1,1.956,1.245c-.488-.811-.865-1.649-.542-1.909.141-.114.436-.352,3.3,2.487,1.379,1.369,2.705,2.812,2.719,2.826a.1.1,0,0,1,.026.092c-.014.067-1.5,6.707-6.356,9.915a4.373,4.373,0,0,1-2.411.717m-5.33-6.363a40.576,40.576,0,0,0,1.6,3.88,4.054,4.054,0,0,0,2.662,2.133,4.186,4.186,0,0,0,3.35-.542c4.554-3.01,6.1-9.107,6.252-9.731-.221-.24-1.391-1.5-2.615-2.72-2.558-2.545-2.987-2.554-3.046-2.529-.256.207.417,1.456,1.287,2.692a6.928,6.928,0,0,1,.458.625.1.1,0,0,1-.034.145.117.117,0,0,1-.155-.026c-.091-.119-.263-.348-.467-.637a6.332,6.332,0,0,0-2.681-2.086.237.237,0,0,0-.185.029c-.238.205.615,1.541,1.542,2.66a.1.1,0,0,1-.016.148.118.118,0,0,1-.157-.009c-.537-.551-2.08-1.985-2.757-2.008a.245.245,0,0,0-.18.053c-.406.36.753,2.01,1.579,2.965a.1.1,0,0,1-.011.147.118.118,0,0,1-.156,0c-.641-.6-1.7-1.381-1.953-1.15-.218.2.755,1.438,1.8,2.464a.1.1,0,0,1,0,.151l-.424.393a.118.118,0,0,1-.159,0l-.355-.332Z" transform="translate(-2208.16 -799.372)"/>
        <path id="Trazado_1024101" data-name="Trazado 1024101" d="M2375.2,971.8a.116.116,0,0,1-.073-.025.1.1,0,0,1-.014-.151c.159-.179.331-.375.512-.582a39.36,39.36,0,0,1,3.243-3.425.117.117,0,0,1,.16.007.1.1,0,0,1-.007.151,39.257,39.257,0,0,0-3.221,3.4l-.513.583a.116.116,0,0,1-.087.038" transform="translate(-2252.919 -920.464)"/>
        <path id="Trazado_1024102" data-name="Trazado 1024102" d="M2452.442,971.386a.117.117,0,0,1-.078-.029l-.655-.588a.1.1,0,0,1,0-.152.118.118,0,0,1,.16,0l.655.588a.1.1,0,0,1,0,.152.116.116,0,0,1-.082.034" transform="translate(-2325.564 -923.31)"/>
        <path id="Trazado_1024103" data-name="Trazado 1024103" d="M2457.6,941.083a.115.115,0,0,1-.086-.038l-.712-.793a.1.1,0,0,1,.013-.151.118.118,0,0,1,.16.012l.712.793a.1.1,0,0,1-.013.151.117.117,0,0,1-.073.026" transform="translate(-2330.398 -894.288)"/>
        <path id="Trazado_1024104" data-name="Trazado 1024104" d="M2487.947,917.144a.117.117,0,0,1-.081-.032l-.647-.627a.1.1,0,0,1,0-.152.118.118,0,0,1,.16,0l.647.627a.1.1,0,0,1,0,.152.116.116,0,0,1-.079.031" transform="translate(-2359.25 -871.673)"/>
        <path id="Trazado_1024105" data-name="Trazado 1024105" d="M1697.867,861.9a.112.112,0,0,1-.109-.08l-.88-3.161a.107.107,0,0,1,.081-.131.114.114,0,0,1,.138.076l.88,3.161a.107.107,0,0,1-.081.131.116.116,0,0,1-.029,0" transform="translate(-1609.59 -816.711)"/>
        <path id="Trazado_1024106" data-name="Trazado 1024106" d="M1983.918,543.113l1.748,3.989-1.543.669s-.073,2.473,4.077,2.361a9.015,9.015,0,0,0,6.288-2.536l-3.052-1.178-2.312-5.686Z" transform="translate(-1881.869 -514.395)" fill="#fff"/>
        <path id="Trazado_1024107" data-name="Trazado 1024107" d="M1985.838,548.148a4.56,4.56,0,0,1-3.208-.967,2.14,2.14,0,0,1-.709-1.508.108.108,0,0,1,.066-.094l1.444-.626-1.706-3.894a.1.1,0,0,1,.055-.138l5.206-2.381a.119.119,0,0,1,.091,0,.111.111,0,0,1,.064.061l2.294,5.643,3.006,1.161a.109.109,0,0,1,.067.073.1.1,0,0,1-.023.095,9.219,9.219,0,0,1-6.372,2.574c-.094,0-.185,0-.276,0m-3.688-2.4a2.013,2.013,0,0,0,.644,1.289,4.572,4.572,0,0,0,3.314.9,9.146,9.146,0,0,0,6.1-2.388l-2.9-1.12a.109.109,0,0,1-.063-.061l-2.268-5.578-5,2.286,1.707,3.9a.105.105,0,0,1-.058.139Z" transform="translate(-1879.78 -512.3)"/>
        <path id="Trazado_1024108" data-name="Trazado 1024108" d="M2018.435,674.276a.114.114,0,0,1-.1-.063l-.579-1.2a.105.105,0,0,1,.056-.142.116.116,0,0,1,.15.053l.579,1.2a.1.1,0,0,1-.056.142.118.118,0,0,1-.047.01" transform="translate(-1913.954 -640.085)"/>
        <path id="Trazado_1024109" data-name="Trazado 1024109" d="M1946.907,313.126c-.427-.606-1.315-.837-1.666-1.486a2.868,2.868,0,0,1-.088-1.659,5.984,5.984,0,0,0-1.24-4.217,5.189,5.189,0,0,0-1.583-1.368c-.034.048-.068.1-.1.145a8.74,8.74,0,0,1-1.382,1.531l.123.017c.156.022.117.267-.037.258-.136-.007-.272-.016-.407-.026a4.476,4.476,0,0,1-.749.438,3.153,3.153,0,0,1-1.508.306,3.421,3.421,0,0,1-.794-.146,5.817,5.817,0,0,1-.745-.327,3.14,3.14,0,0,0-1.164.9,4.061,4.061,0,0,0-.868,2.362,5.513,5.513,0,0,0,.335,2.095,8.542,8.542,0,0,0,4.11,3.3,13.629,13.629,0,0,0,4.131.811,6.616,6.616,0,0,0,1.975-.124,2.73,2.73,0,0,0,1.609-1.03,1.589,1.589,0,0,0,.052-1.778" transform="translate(-1835.173 -289.57)"/>
        <path id="Trazado_1024110" data-name="Trazado 1024110" d="M1931.464,421.8a4.11,4.11,0,0,0,.165,2.443,3.36,3.36,0,0,0,3.317,1.661,5.53,5.53,0,0,0,3.422-1.8,1.978,1.978,0,0,1,.712-.566,3.088,3.088,0,0,1,1.182,0,2.348,2.348,0,0,0,2.138-1.18,1.337,1.337,0,0,0,0-1.389,1.487,1.487,0,0,0-1.307-.512,4.445,4.445,0,0,0-1.406.416.955.955,0,0,0,.178-.86,1.752,1.752,0,0,0-.477-.776,6.182,6.182,0,0,0-2.824-1.391,8.19,8.19,0,0,1-2.843-1.416c-.252.037-.538.725-.651.92a13.376,13.376,0,0,0-1.607,4.447" transform="translate(-1832.013 -396.151)" fill="#fff"/>
        <path id="Trazado_1024111" data-name="Trazado 1024111" d="M1932.533,423.929a3.422,3.422,0,0,1-3.1-1.739,4.245,4.245,0,0,1-.174-2.5,13.415,13.415,0,0,1,1.62-4.481c.022-.038.051-.1.084-.163.212-.423.407-.776.648-.812.129-.019.228.064.39.2a5.847,5.847,0,0,0,2.5,1.219,6.293,6.293,0,0,1,2.875,1.421,1.847,1.847,0,0,1,.5.825,1.118,1.118,0,0,1-.028.66,3.779,3.779,0,0,1,1.138-.3,1.607,1.607,0,0,1,1.409.559,1.44,1.44,0,0,1,.008,1.5,2.475,2.475,0,0,1-2.245,1.239c-.115-.005-.231-.019-.344-.031a1.763,1.763,0,0,0-.792.024,1.709,1.709,0,0,0-.614.481l-.054.057a5.623,5.623,0,0,1-3.5,1.832q-.167.015-.333.014m-.885-9.487c-.141.021-.386.508-.478.692-.036.072-.067.133-.09.174a13.214,13.214,0,0,0-1.595,4.412,4.062,4.062,0,0,0,.157,2.383,3.246,3.246,0,0,0,3.2,1.6,5.394,5.394,0,0,0,3.349-1.762l.053-.056a1.873,1.873,0,0,1,.7-.538,1.963,1.963,0,0,1,.9-.037c.109.012.221.025.328.03a2.239,2.239,0,0,0,2.032-1.121,1.238,1.238,0,0,0,.007-1.281,1.377,1.377,0,0,0-1.205-.466,4.335,4.335,0,0,0-1.368.407.118.118,0,0,1-.136-.033.1.1,0,0,1,0-.133.857.857,0,0,0,.155-.766,1.637,1.637,0,0,0-.45-.728,6.1,6.1,0,0,0-2.772-1.361,6.134,6.134,0,0,1-2.589-1.265.824.824,0,0,0-.205-.149m-2.274,5.261h0Z" transform="translate(-1829.923 -394.052)"/>
        <path id="Trazado_1024112" data-name="Trazado 1024112" d="M2088.867,530.29a.117.117,0,0,1-.066-.021.1.1,0,0,1-.025-.15,1.8,1.8,0,0,1,1.612-.665.109.109,0,0,1,.1.119.112.112,0,0,1-.126.094,1.584,1.584,0,0,0-1.4.578.117.117,0,0,1-.092.044" transform="translate(-1981.312 -503.656)"/>
        <path id="Trazado_1024113" data-name="Trazado 1024113" d="M1925.883,313.833l-12.267-7.533a.5.5,0,0,1,.138-.913.562.562,0,0,1,.452.064l12.7,8.014a.689.689,0,0,1-1.021.369" transform="translate(-1814.951 -290.492)" fill="#5479f7"/>
        <path id="Trazado_1024114" data-name="Trazado 1024114" d="M1989.817,290.421l-1.042-.876s3.45-5.645,8.748-2.414c5.71,3.483.906,8.038.906,8.038Z" transform="translate(-1886.476 -272.196)" fill="#5479f7"/>
        <path id="Trazado_1024115" data-name="Trazado 1024115" d="M1866.229,664.651l-4.9,9.55-3.513-9.193-7.5.929.9,14.463v18.868h25.842l-2.421-19.021-.8-15.441Z" transform="translate(-1755.145 -632.278)" fill="#5479f7"/>
        <path id="Trazado_1024116" data-name="Trazado 1024116" d="M1897.488,986h-22.454a.107.107,0,1,1,0-.214h22.454a.107.107,0,1,1,0,.214" transform="translate(-1778.478 -937.774)" fill="#fff"/>
        <path id="Trazado_1024117" data-name="Trazado 1024117" d="M2210.248,684.947a.11.11,0,0,1-.113-.107V669.426a.113.113,0,0,1,.226,0V684.84a.11.11,0,0,1-.113.107" transform="translate(-2096.45 -636.719)" fill="#fff"/>
        <path id="Trazado_1024118" data-name="Trazado 1024118" d="M1919.772,700.978a.11.11,0,0,1-.113-.106l-.234-14.432a.11.11,0,0,1,.112-.109.115.115,0,0,1,.115.106l.234,14.432a.11.11,0,0,1-.112.109Z" transform="translate(-1820.693 -652.903)" fill="#fff"/>
        <path id="Trazado_1024119" data-name="Trazado 1024119" d="M13.986,267.85c-6.508,0-11.784,5-11.784,11.159,0,10.747,11.784,22.064,11.784,22.064s11.784-11.42,11.784-22.064c0-6.163-5.276-11.159-11.784-11.159m0,16.611a5.207,5.207,0,1,1,0-10.4,5.207,5.207,0,1,1,0,10.4" transform="translate(-2.089 -254.804)" fill="#fff"/>
        <path id="Trazado_1024120" data-name="Trazado 1024120" d="M11.9,299.086a.117.117,0,0,1-.081-.032,54.066,54.066,0,0,1-5.906-7.017C3.215,288.217,0,282.493,0,276.915c0-6.212,5.337-11.266,11.9-11.266s11.9,5.054,11.9,11.266c0,5.525-3.214,11.252-5.911,15.083a55.139,55.139,0,0,1-5.905,7.056.117.117,0,0,1-.081.032Zm0-33.222c-6.435,0-11.671,4.958-11.671,11.051,0,5.523,3.193,11.205,5.871,15a54.527,54.527,0,0,0,5.8,6.91,55.609,55.609,0,0,0,5.8-6.948c2.678-3.806,5.871-9.49,5.871-14.961,0-6.094-5.236-11.051-11.671-11.051m0,16.611a5.315,5.315,0,1,1,0-10.613,5.315,5.315,0,1,1,0,10.613m0-10.4a5.1,5.1,0,1,0,0,10.184,5.1,5.1,0,1,0,0-10.184" transform="translate(0 -252.71)"/>
        <rect id="Rectángulo_457077" data-name="Rectángulo 457077" width="63.218" height="25.995" transform="translate(11.884 56.521)" fill="#5479f7"/>
        <path id="Trazado_1024121" data-name="Trazado 1024121" d="M322.378,1733.911H228.936a.107.107,0,1,1,0-.215h93.442a.107.107,0,1,1,0,.215" transform="translate(-217.053 -1649.255)"/>
        <path id="Trazado_1024122" data-name="Trazado 1024122" d="M500.388,1648.473a4.734,4.734,0,1,1-4.727-4.476,4.607,4.607,0,0,1,4.727,4.476" transform="translate(-465.681 -1563.925)" fill="#fff"/>
        <path id="Trazado_1024123" data-name="Trazado 1024123" d="M493.571,1650.962a4.59,4.59,0,1,1,4.84-4.583,4.723,4.723,0,0,1-4.84,4.583m0-8.952a4.375,4.375,0,1,0,4.614,4.369,4.5,4.5,0,0,0-4.614-4.369" transform="translate(-463.592 -1561.83)"/>
        <path id="Trazado_1024124" data-name="Trazado 1024124" d="M549.494,1700.545a1.914,1.914,0,1,1-1.912-1.81,1.863,1.863,0,0,1,1.912,1.81" transform="translate(-517.603 -1615.996)" fill="#fff"/>
        <path id="Trazado_1024125" data-name="Trazado 1024125" d="M545.494,1700.367a1.92,1.92,0,1,1,2.025-1.917,1.975,1.975,0,0,1-2.025,1.917m0-3.62a1.705,1.705,0,1,0,1.8,1.7,1.754,1.754,0,0,0-1.8-1.7" transform="translate(-515.514 -1613.901)"/>
        <path id="Trazado_1024126" data-name="Trazado 1024126" d="M295.664,1648.473a4.734,4.734,0,1,1-4.727-4.476,4.607,4.607,0,0,1,4.727,4.476" transform="translate(-271.488 -1563.925)" fill="#fff"/>
        <path id="Trazado_1024127" data-name="Trazado 1024127" d="M288.848,1650.962a4.59,4.59,0,1,1,4.84-4.583,4.723,4.723,0,0,1-4.84,4.583m0-8.952a4.375,4.375,0,1,0,4.614,4.369,4.5,4.5,0,0,0-4.614-4.369" transform="translate(-269.399 -1561.83)"/>
        <path id="Trazado_1024128" data-name="Trazado 1024128" d="M344.771,1700.545a1.914,1.914,0,1,1-1.912-1.81,1.863,1.863,0,0,1,1.912,1.81" transform="translate(-323.41 -1615.996)" fill="#fff"/>
        <path id="Trazado_1024129" data-name="Trazado 1024129" d="M340.77,1700.367a1.92,1.92,0,1,1,2.025-1.917,1.975,1.975,0,0,1-2.025,1.917m0-3.62a1.705,1.705,0,1,0,1.8,1.7,1.754,1.754,0,0,0-1.8-1.7" transform="translate(-321.321 -1613.901)"/>
        <path id="Trazado_1024130" data-name="Trazado 1024130" d="M1514.7,1357.642h27.412V1352.2l-6.779-1.679-2.6-3.779-.757-1.1a41.347,41.347,0,0,0-17.275-5.23Z" transform="translate(-1436.782 -1275.126)" fill="#fff"/>
        <path id="Trazado_1024131" data-name="Trazado 1024131" d="M1540.019,1355.654h-27.412a.11.11,0,0,1-.113-.107v-17.23a.106.106,0,0,1,.037-.08.118.118,0,0,1,.088-.027,41.255,41.255,0,0,1,17.32,5.245.111.111,0,0,1,.037.034l3.335,4.844,6.737,1.668a.108.108,0,0,1,.085.1v5.442a.11.11,0,0,1-.113.107m-27.3-.214h27.186v-5.252l-6.695-1.658a.112.112,0,0,1-.066-.045l-3.344-4.858a40.958,40.958,0,0,0-17.081-5.19Z" transform="translate(-1434.693 -1273.031)"/>
        <path id="Trazado_1024132" data-name="Trazado 1024132" d="M1558.772,1447.8h0Z" transform="translate(-1463.585 -1377.28)" fill="#fff"/>
        <path id="Trazado_1024133" data-name="Trazado 1024133" d="M1556.683,1445.809h-15.821a.107.107,0,1,1,0-.214h15.821a.107.107,0,1,1,0,.214" transform="translate(-1461.496 -1375.185)"/>
        <path id="Trazado_1024134" data-name="Trazado 1024134" d="M2024.338,1592.549a.11.11,0,0,1-.113-.107v-5.1a.113.113,0,0,1,.227,0v5.1a.11.11,0,0,1-.113.107" transform="translate(-1920.103 -1509.926)"/>
        <path id="Trazado_1024135" data-name="Trazado 1024135" d="M1727.565,1472.136h-8.993a.11.11,0,0,1-.113-.107v-3.747a.114.114,0,0,1,.227,0v3.64h8.88a.107.107,0,1,1,0,.214" transform="translate(-1630.065 -1396.666)"/>
        <path id="Trazado_1024136" data-name="Trazado 1024136" d="M1543.978,1472.136h-3.116a.11.11,0,0,1-.113-.107v-3.747a.11.11,0,0,1,.113-.107h3.116a.11.11,0,0,1,.113.107v3.747a.11.11,0,0,1-.113.107m-3-.214h2.889v-3.532h-2.889Z" transform="translate(-1461.496 -1396.666)"/>
        <path id="Trazado_1024137" data-name="Trazado 1024137" d="M1764.942,1648.473a4.734,4.734,0,1,1-4.727-4.476,4.607,4.607,0,0,1,4.727,4.476" transform="translate(-1665.189 -1563.925)" fill="#fff"/>
        <path id="Trazado_1024138" data-name="Trazado 1024138" d="M1758.126,1650.962a4.59,4.59,0,1,1,4.84-4.583,4.722,4.722,0,0,1-4.84,4.583m0-8.952a4.375,4.375,0,1,0,4.614,4.369,4.5,4.5,0,0,0-4.614-4.369" transform="translate(-1663.1 -1561.83)"/>
        <path id="Trazado_1024139" data-name="Trazado 1024139" d="M1814.049,1700.545a1.914,1.914,0,1,1-1.912-1.81,1.863,1.863,0,0,1,1.912,1.81" transform="translate(-1717.111 -1615.996)" fill="#fff"/>
        <path id="Trazado_1024140" data-name="Trazado 1024140" d="M1810.048,1700.367a1.92,1.92,0,1,1,2.025-1.917,1.975,1.975,0,0,1-2.025,1.917m0-3.62a1.705,1.705,0,1,0,1.8,1.7,1.754,1.754,0,0,0-1.8-1.7" transform="translate(-1715.021 -1613.901)"/>
        <path id="Trazado_1024141" data-name="Trazado 1024141" d="M1285.242,1648.473a4.734,4.734,0,1,1-4.727-4.476,4.607,4.607,0,0,1,4.727,4.476" transform="translate(-1210.164 -1563.925)" fill="#fff"/>
        <path id="Trazado_1024142" data-name="Trazado 1024142" d="M1278.427,1650.962a4.59,4.59,0,1,1,4.84-4.583,4.723,4.723,0,0,1-4.84,4.583m0-8.952a4.375,4.375,0,1,0,4.614,4.369,4.5,4.5,0,0,0-4.614-4.369" transform="translate(-1208.075 -1561.83)"/>
        <path id="Trazado_1024143" data-name="Trazado 1024143" d="M1334.349,1700.545a1.914,1.914,0,1,1-1.912-1.81,1.863,1.863,0,0,1,1.912,1.81" transform="translate(-1262.086 -1615.996)" fill="#fff"/>
        <path id="Trazado_1024144" data-name="Trazado 1024144" d="M1330.349,1700.367a1.92,1.92,0,1,1,2.025-1.917,1.975,1.975,0,0,1-2.025,1.917m0-3.62a1.705,1.705,0,1,0,1.8,1.7,1.754,1.754,0,0,0-1.8-1.7" transform="translate(-1259.997 -1613.901)"/>
        <path id="Trazado_1024145" data-name="Trazado 1024145" d="M1080.519,1648.473a4.734,4.734,0,1,1-4.727-4.476,4.607,4.607,0,0,1,4.727,4.476" transform="translate(-1015.971 -1563.925)" fill="#fff"/>
        <path id="Trazado_1024146" data-name="Trazado 1024146" d="M1073.7,1650.962a4.59,4.59,0,1,1,4.84-4.583,4.722,4.722,0,0,1-4.84,4.583m0-8.952a4.375,4.375,0,1,0,4.614,4.369,4.5,4.5,0,0,0-4.614-4.369" transform="translate(-1013.883 -1561.83)"/>
        <path id="Trazado_1024147" data-name="Trazado 1024147" d="M1129.625,1700.545a1.914,1.914,0,1,1-1.912-1.81,1.863,1.863,0,0,1,1.912,1.81" transform="translate(-1067.893 -1615.996)" fill="#fff"/>
        <path id="Trazado_1024148" data-name="Trazado 1024148" d="M1125.625,1700.367a1.92,1.92,0,1,1,2.025-1.917,1.975,1.975,0,0,1-2.025,1.917m0-3.62a1.705,1.705,0,1,0,1.8,1.7,1.754,1.754,0,0,0-1.8-1.7" transform="translate(-1065.804 -1613.901)"/>
        <path id="Trazado_1024149" data-name="Trazado 1024149" d="M11.705,1023.083H2.041a.11.11,0,0,1-.113-.107V997.1a.11.11,0,0,1,.113-.107H13.826a.107.107,0,1,1,0,.215H2.155v25.665h9.551a.107.107,0,1,1,0,.214" transform="translate(-1.829 -948.43)"/>
        <path id="Trazado_1024150" data-name="Trazado 1024150" d="M1842.1,1390.074h-29.149a.107.107,0,1,1,0-.214h29.035v-17.333h-43.6a.107.107,0,1,1,0-.214H1842.1a.111.111,0,0,1,.113.107v17.548a.11.11,0,0,1-.113.107" transform="translate(-1705.771 -1305.472)"/>
        <path id="Trazado_1024151" data-name="Trazado 1024151" d="M2464.4,97.216a6.362,6.362,0,0,0-6.528,6.181c0,5.953,6.528,12.222,6.528,12.222s6.528-6.326,6.528-12.222a6.361,6.361,0,0,0-6.528-6.181m0,9.2a2.884,2.884,0,1,1,3.042-2.88,2.964,2.964,0,0,1-3.042,2.88" transform="translate(-2331.443 -92.481)" fill="#e2eaff"/>
      </g>
    </g>
  </g>
</svg>
