<svg xmlns="http://www.w3.org/2000/svg" xmlns:xlink="http://www.w3.org/1999/xlink" width="396" height="189.257" viewBox="0 0 396 189.257">
  <defs>
    <clipPath id="clip-path">
      <rect id="Rectángulo_459780" data-name="Rectángulo 459780" width="228" height="151.938" fill="none"/>
    </clipPath>
  </defs>
  <g id="Grupo_1187571" data-name="Grupo 1187571" transform="translate(-186 -3547.743)">
    <rect id="Rectángulo_458712" data-name="Rectángulo 458712" width="396" height="189.257" rx="10" transform="translate(186 3547.743)" fill="#f2a4ab"/>
    <g id="Grupo_1187570" data-name="Grupo 1187570" transform="translate(270 3564.031)">
      <path id="Trazado_1030251" data-name="Trazado 1030251" d="M281.372,253.066l8.167,11.807,26.848,1.919L308.2,284.965l-31.37,2.352-8.684-20.753.332-9.6Z" transform="translate(-219.12 -206.796)" fill="#fff"/>
      <g id="Grupo_1187569" data-name="Grupo 1187569">
        <g id="Grupo_1187568" data-name="Grupo 1187568" clip-path="url(#clip-path)">
          <path id="Trazado_1030252" data-name="Trazado 1030252" d="M276.014,286.683a.183.183,0,0,1-.169-.112l-8.685-20.753a.181.181,0,0,1-.014-.077l.332-9.6a.182.182,0,0,1,.13-.169l12.894-3.9a.183.183,0,0,1,.2.071l8.117,11.735,26.76,1.912a.183.183,0,0,1,.154.257l-8.185,18.174a.182.182,0,0,1-.153.107l-31.37,2.352h-.014m-8.5-20.969,8.618,20.594,31.13-2.334,8.033-17.836-26.586-1.9a.182.182,0,0,1-.137-.078l-8.091-11.7-12.641,3.824Z" transform="translate(-218.302 -205.979)"/>
          <path id="Trazado_1030253" data-name="Trazado 1030253" d="M97.261,176.518A81.382,81.382,0,0,0,87.6,162.877a15.754,15.754,0,0,0-11.785-5.046l-25.923.387a8.775,8.775,0,0,0-8.641,8.555l-1,40.173H81.378l.54-24.024Z" transform="translate(-32.888 -128.972)" fill="#fff"/>
          <path id="Trazado_1030254" data-name="Trazado 1030254" d="M80.56,206.311H39.429a.183.183,0,0,1-.183-.187l1-40.173a8.933,8.933,0,0,1,8.821-8.733l25.923-.387.236,0a15.964,15.964,0,0,1,11.686,5.106,82.214,82.214,0,0,1,9.69,13.676.183.183,0,0,1-.09.257l-15.233,6.358-.538,23.906a.183.183,0,0,1-.183.179m-40.945-.366H80.382l.536-23.846a.182.182,0,0,1,.112-.165l15.153-6.325a81.047,81.047,0,0,0-9.538-13.427A15.6,15.6,0,0,0,75,157.2l-25.924.387a8.568,8.568,0,0,0-8.461,8.377Z" transform="translate(-32.07 -128.155)"/>
          <path id="Trazado_1030255" data-name="Trazado 1030255" d="M50.615,158.2s8.221,3.161,10.785,19.648H75.384S74.929,163,67.3,157.839H69.86s7.654.118,10.334,20.585l-.521,41.234H32.962V196.5l22.721-4.609S59,169.41,46.936,158.2Z" transform="translate(-26.935 -128.98)" fill="#5479f7"/>
          <path id="Trazado_1030256" data-name="Trazado 1030256" d="M6.2,263.628S1.463,279.4,8.445,290.177,35.4,303.429,40.563,275.2l-12.913,1.311-2.269-7.664Z" transform="translate(-3.785 -215.427)" fill="#fff"/>
          <path id="Trazado_1030257" data-name="Trazado 1030257" d="M9,291.23a.182.182,0,0,1-.128-.052,10.139,10.139,0,0,1-1.391-1.718c-3.634-5.607-4.055-12.571-3.768-17.425a45.274,45.274,0,0,1,1.5-9.276.183.183,0,0,1,.35.105c-.047.157-4.635,15.818,2.219,26.4a9.782,9.782,0,0,0,1.34,1.657A.183.183,0,0,1,9,291.23" transform="translate(-2.977 -214.61)"/>
          <path id="Trazado_1030258" data-name="Trazado 1030258" d="M1,183.214H19.958l-2.14-23.265S4.922,159.337,1,183.214" transform="translate(-0.817 -130.703)" fill="#fff"/>
          <path id="Trazado_1030259" data-name="Trazado 1030259" d="M22.189,188.817a.182.182,0,0,1-.164-.1l-3-6.137H.183a.183.183,0,0,1-.18-.212c2.036-12.393,6.534-18.1,9.949-20.7a11.7,11.7,0,0,1,7.058-2.716.183.183,0,0,1,.174.191.186.186,0,0,1-.191.174,11.576,11.576,0,0,0-6.844,2.66C6.815,164.524,2.427,170.105.4,182.211H19.141a.183.183,0,0,1,.164.1l3.047,6.24a.183.183,0,0,1-.164.263" transform="translate(0 -129.883)"/>
          <path id="Trazado_1030260" data-name="Trazado 1030260" d="M117.412,354.216H68.681l-8.988-13.372h48.731Z" transform="translate(-48.779 -278.524)" fill="#fff"/>
          <path id="Trazado_1030261" data-name="Trazado 1030261" d="M116.6,353.581H67.864a.183.183,0,0,1-.152-.081l-8.988-13.372a.183.183,0,0,1,.152-.285H81.35a.183.183,0,0,1,0,.366H59.219l8.742,13.007h48.29l-8.742-13.007h-6.452a.183.183,0,1,1,0-.366h6.549a.183.183,0,0,1,.152.081l8.988,13.372a.183.183,0,0,1-.152.285" transform="translate(-47.962 -277.707)"/>
          <rect id="Rectángulo_459772" data-name="Rectángulo 459772" width="48.731" height="32.985" transform="translate(19.902 75.691)" fill="#fff"/>
          <path id="Trazado_1030262" data-name="Trazado 1030262" d="M156.766,446.333H108.035a.183.183,0,0,1-.183-.183v-18a.183.183,0,1,1,.366,0v17.816h48.365V413.348H108.218v6.4a.183.183,0,0,1-.366,0v-6.584a.183.183,0,0,1,.183-.183h48.731a.183.183,0,0,1,.183.183V446.15a.183.183,0,0,1-.183.183" transform="translate(-88.133 -337.473)"/>
          <rect id="Rectángulo_459773" data-name="Rectángulo 459773" width="22.339" height="32.985" transform="translate(68.633 75.691)" fill="#fff"/>
          <path id="Trazado_1030263" data-name="Trazado 1030263" d="M396.9,446.332H374.56a.183.183,0,0,1-.183-.183V413.164a.183.183,0,0,1,.183-.183H396.9a.183.183,0,0,1,.183.183v32.985a.183.183,0,0,1-.183.183m-22.157-.366h21.974V413.347H374.743Z" transform="translate(-305.927 -337.472)"/>
          <path id="Trazado_1030264" data-name="Trazado 1030264" d="M406.8,340.844H384.461l-9.083,13.372h22.339Z" transform="translate(-306.744 -278.525)" fill="#fff"/>
          <path id="Trazado_1030265" data-name="Trazado 1030265" d="M396.9,353.581H374.56a.183.183,0,0,1-.151-.286l9.084-13.372a.183.183,0,0,1,.151-.08h22.339a.183.183,0,0,1,.151.286L397.051,353.5a.183.183,0,0,1-.151.08m-21.994-.366h21.9l8.835-13.007h-21.9Z" transform="translate(-305.927 -277.707)"/>
          <path id="Trazado_1030266" data-name="Trazado 1030266" d="M121.343,326.519a1.768,1.768,0,0,1-1.777-1.514l-.748-5.151a1.936,1.936,0,1,1,3.845-.433l.416,5.189a1.768,1.768,0,0,1-1.736,1.909" transform="translate(-97.077 -259.563)" fill="#fff"/>
          <path id="Trazado_1030267" data-name="Trazado 1030267" d="M120.5,325.886a1.956,1.956,0,0,1-1.931-1.671l-.748-5.151a2.118,2.118,0,0,1,2.064-2.423h.032a2.123,2.123,0,0,1,2.112,1.949l.416,5.189a1.951,1.951,0,0,1-1.915,2.106H120.5m-.582-8.879h-.027a1.752,1.752,0,0,0-1.708,2l.748,5.151a1.589,1.589,0,0,0,1.569,1.357h.024a1.585,1.585,0,0,0,1.556-1.712l-.416-5.189a1.757,1.757,0,0,0-1.747-1.613" transform="translate(-96.262 -258.747)"/>
          <path id="Trazado_1030268" data-name="Trazado 1030268" d="M142.632,325.907a2.072,2.072,0,0,1-2.1-1.9l-.645-7.812a2.336,2.336,0,1,1,4.664-.227l.118,7.838a2.072,2.072,0,0,1-2.041,2.1" transform="translate(-114.307 -256.316)" fill="#fff"/>
          <path id="Trazado_1030269" data-name="Trazado 1030269" d="M141.783,325.273a2.262,2.262,0,0,1-2.248-2.07l-.644-7.812a2.52,2.52,0,0,1,3.456-2.542.183.183,0,1,1-.137.339,2.153,2.153,0,0,0-2.954,2.173l.644,7.812a1.89,1.89,0,0,0,3.773-.184l-.118-7.838a.183.183,0,0,1,.18-.186.186.186,0,0,1,.186.18l.118,7.838a2.258,2.258,0,0,1-2.221,2.289h-.034" transform="translate(-113.489 -255.498)"/>
          <path id="Trazado_1030270" data-name="Trazado 1030270" d="M167.366,325.534a2.072,2.072,0,0,1-2.1-2.041l-.118-7.838a2.336,2.336,0,1,1,4.669.086l-.408,7.828a2.072,2.072,0,0,1-2.038,1.964" transform="translate(-134.949 -256.004)" fill="#fff"/>
          <path id="Trazado_1030271" data-name="Trazado 1030271" d="M166.518,335.5a2.258,2.258,0,0,1-2.255-2.221l-.118-7.838a.183.183,0,0,1,.18-.186h0a.183.183,0,0,1,.183.18l.118,7.838a1.892,1.892,0,0,0,1.889,1.861h.029a1.9,1.9,0,0,0,1.859-1.791l.408-7.828a.183.183,0,0,1,.365.019l-.408,7.828a2.262,2.262,0,0,1-2.218,2.138h-.035" transform="translate(-134.133 -265.784)"/>
          <path id="Trazado_1030272" data-name="Trazado 1030272" d="M190.8,326.867a1.852,1.852,0,0,1-1.878-1.942l.312-6.4a2.08,2.08,0,1,1,4.143.35l-.767,6.365a1.852,1.852,0,0,1-1.811,1.63" transform="translate(-154.375 -258.668)" fill="#fff"/>
          <path id="Trazado_1030273" data-name="Trazado 1030273" d="M189.95,335.077a2.034,2.034,0,0,1-2.031-2.134l.312-6.4a.183.183,0,1,1,.365.018l-.312,6.4a1.668,1.668,0,0,0,1.666,1.75h.026a1.675,1.675,0,0,0,1.632-1.469l.493-4.089a.183.183,0,1,1,.363.044l-.493,4.089a2.043,2.043,0,0,1-1.99,1.791h-.032" transform="translate(-153.558 -266.694)"/>
          <path id="Trazado_1030274" data-name="Trazado 1030274" d="M487.516,387.677a1.768,1.768,0,0,0,.31,2.313l3.925,3.419a1.936,1.936,0,1,0,2.446-3l-4.137-3.16a1.768,1.768,0,0,0-2.545.425" transform="translate(-398.137 -316.151)" fill="#fff"/>
          <path id="Trazado_1030275" data-name="Trazado 1030275" d="M492.212,393.249a2.119,2.119,0,0,1-1.391-.521l-3.925-3.419a1.956,1.956,0,0,1-.342-2.552,1.951,1.951,0,0,1,2.808-.469l4.137,3.16a2.119,2.119,0,0,1-1.286,3.8m-4.03-7a1.608,1.608,0,0,0-.267.022,1.569,1.569,0,0,0-1.058.685,1.589,1.589,0,0,0,.278,2.074l3.925,3.419a1.753,1.753,0,1,0,2.215-2.715l-4.137-3.16a1.568,1.568,0,0,0-.957-.326m-1.477.606h0Z" transform="translate(-397.327 -315.331)"/>
          <path id="Trazado_1030276" data-name="Trazado 1030276" d="M487.192,360.6a2.073,2.073,0,0,0,.463,2.793l6.218,4.773a2.336,2.336,0,1,0,2.717-3.8l-6.524-4.345a2.073,2.073,0,0,0-2.874.577" transform="translate(-397.831 -293.913)" fill="#fff"/>
          <path id="Trazado_1030277" data-name="Trazado 1030277" d="M494.479,368.012a2.49,2.49,0,0,1-1.525-.522l-6.218-4.773a2.255,2.255,0,0,1,2.624-3.666l6.524,4.345a2.519,2.519,0,0,1-.984,4.582,2.56,2.56,0,0,1-.42.035m-7.943-8.131a1.9,1.9,0,0,0,.422,2.546l6.218,4.773a2.153,2.153,0,1,0,2.5-3.5l-6.525-4.345a1.89,1.89,0,0,0-2.62.526" transform="translate(-397.023 -293.094)"/>
          <path id="Trazado_1030278" data-name="Trazado 1030278" d="M499.6,341.97a2.072,2.072,0,0,0,.576,2.874l6.525,4.345a2.336,2.336,0,1,0,2.456-3.971l-6.8-3.9a2.072,2.072,0,0,0-2.755.65" transform="translate(-407.967 -278.69)" fill="#fff"/>
          <path id="Trazado_1030279" data-name="Trazado 1030279" d="M507.175,348.953a2.5,2.5,0,0,1-1.392-.421l-6.524-4.345a2.255,2.255,0,0,1,2.371-3.834l6.8,3.9a2.518,2.518,0,0,1-1.256,4.7m-6.662-8.532a1.889,1.889,0,0,0-1.052,3.461l6.524,4.345a2.156,2.156,0,0,0,2.986-.6,2.153,2.153,0,0,0-.722-3.062l-6.8-3.9a1.876,1.876,0,0,0-.935-.249m-1.729.74h0Z" transform="translate(-407.154 -277.881)"/>
          <path id="Trazado_1030280" data-name="Trazado 1030280" d="M517.739,327.94a1.852,1.852,0,0,0,.615,2.63l5.552,3.206a2.08,2.08,0,1,0,1.95-3.672l-5.766-2.8a1.852,1.852,0,0,0-2.351.639" transform="translate(-422.822 -267.305)" fill="#fff"/>
          <path id="Trazado_1030281" data-name="Trazado 1030281" d="M524.12,333.426a2.249,2.249,0,0,1-1.127-.3l-5.552-3.206a2.035,2.035,0,0,1-.676-2.89,2.042,2.042,0,0,1,2.583-.7l5.766,2.8a2.262,2.262,0,0,1-.994,4.3m-5.657-6.938a1.675,1.675,0,0,0-1.394.743,1.669,1.669,0,0,0,.555,2.371l5.552,3.206a1.9,1.9,0,1,0,1.778-3.35l-5.766-2.8a1.655,1.655,0,0,0-.725-.167m-1.546.642h0Z" transform="translate(-422.001 -266.495)"/>
          <path id="Trazado_1030282" data-name="Trazado 1030282" d="M142.641,58.134a2.979,2.979,0,0,1,3.224-1.085,2.111,2.111,0,0,1,2.788-3.162l-.858-.722a8.756,8.756,0,0,1,4.247,8.1,4.07,4.07,0,0,1-1.179,2.8,4.2,4.2,0,0,1-2.68.837,7.432,7.432,0,0,1-3.528-.711,4.929,4.929,0,0,1-2.43-2.59,3.705,3.705,0,0,1,.415-3.461" transform="translate(-116.02 -43.444)"/>
          <path id="Trazado_1030283" data-name="Trazado 1030283" d="M164.938,91.319l-3.051,5.673a2.5,2.5,0,0,0,.534,3.057c1.3,1.137,2.574,2.9.2,4.241-4.109,2.322-11.528-2.074-11.261-5.173l6.593-13.382Z" transform="translate(-123.682 -70.059)" fill="#fff"/>
          <path id="Trazado_1030284" data-name="Trazado 1030284" d="M159.107,104.3a11.036,11.036,0,0,1-5.674-1.808c-2.006-1.289-3.181-2.9-3.069-4.211a.185.185,0,0,1,.018-.065l6.594-13.382a.183.183,0,0,1,.278-.062l6.981,5.585a.183.183,0,0,1,.047.229l-3.051,5.673a2.3,2.3,0,0,0,.493,2.833c1.137,1,1.67,1.934,1.582,2.779a2.4,2.4,0,0,1-1.409,1.759,5.626,5.626,0,0,1-2.79.672m-8.381-5.955c-.077,1.168,1.032,2.635,2.9,3.839,2.347,1.508,5.758,2.442,8.087,1.126a2.069,2.069,0,0,0,1.225-1.478c.093-.9-.742-1.837-1.46-2.466a2.664,2.664,0,0,1-.574-3.281l2.979-5.539L157.2,85.2Z" transform="translate(-122.866 -69.241)"/>
          <path id="Trazado_1030285" data-name="Trazado 1030285" d="M191.209,48.084s2.412,12.3-2.764,13.8-10.06-2.56-10.781-8.271V47.555Z" transform="translate(-145.18 -38.86)" fill="#fff"/>
          <path id="Trazado_1030286" data-name="Trazado 1030286" d="M185.459,61.557a7.959,7.959,0,0,1-4.4-1.343,10.29,10.29,0,0,1-4.4-7.4.189.189,0,0,1,0-.023V46.737a.183.183,0,0,1,.19-.183l13.545.529a.183.183,0,0,1,.172.148c.1.509,2.384,12.484-2.893,14.008a7.985,7.985,0,0,1-2.219.318m-8.429-8.776a10.058,10.058,0,0,0,4.234,7.127,7.526,7.526,0,0,0,6.313.98c4.665-1.348,2.906-12.079,2.662-13.445l-13.209-.516Z" transform="translate(-144.363 -38.042)"/>
          <path id="Trazado_1030287" data-name="Trazado 1030287" d="M185.18,10.293S184.48.7,177.492.053,168.438,4.8,168.9,10.293Z" transform="translate(-137.966 0)" fill="#5479f7"/>
          <path id="Trazado_1030288" data-name="Trazado 1030288" d="M189.558,50.865l-4.106-.417-16.283,1.07,20.348.122a.388.388,0,0,0,.042-.774" transform="translate(-138.239 -41.224)" fill="#5479f7"/>
          <path id="Trazado_1030289" data-name="Trazado 1030289" d="M166.343,53.629a2.823,2.823,0,0,1,1.184-1.611,2.324,2.324,0,0,1,2.77.67,3.6,3.6,0,0,1,.748,1.618l-.022-.253a2.617,2.617,0,1,1-4.629,2.443,3.694,3.694,0,0,1-.051-2.867" transform="translate(-135.714 -42.325)" fill="#fff"/>
          <path id="Trazado_1030290" data-name="Trazado 1030290" d="M167.792,57.285h-.008a2.842,2.842,0,0,1-2.374-1.516,3.835,3.835,0,0,1-.061-3.01,2.95,2.95,0,0,1,1.268-1.712,2.524,2.524,0,0,1,3,.711,3.772,3.772,0,0,1,.788,1.7.183.183,0,0,1-.358.074A3.412,3.412,0,0,0,169.337,52a2.149,2.149,0,0,0-2.543-.628,2.606,2.606,0,0,0-1.1,1.511,3.575,3.575,0,0,0,.041,2.723,2.5,2.5,0,0,0,2.064,1.318.183.183,0,0,1-.007.365" transform="translate(-134.893 -41.514)"/>
          <path id="Trazado_1030291" data-name="Trazado 1030291" d="M183.2,70.559a.183.183,0,0,1-.182-.163,2.144,2.144,0,0,0-1.3-1.708.183.183,0,0,1,.136-.339,2.519,2.519,0,0,1,1.525,2.007.183.183,0,0,1-.162.2h-.02" transform="translate(-148.404 -55.841)"/>
          <path id="Trazado_1030292" data-name="Trazado 1030292" d="M1074.479,1.633s-6.6.244-7.382,6.356,1.674,9.816.456,11.757c-2.144,3.418,9.307,6.931,20.306,3.512,7.464-2.321.683-5.2,1.112-9.9.794-8.7-5.8-16.954-14.491-11.724" transform="translate(-871.862 0)"/>
          <path id="Trazado_1030293" data-name="Trazado 1030293" d="M810.314,131.144s-10.595,19.436-20.072,19.48c-10.816.05-14.523-15.3-16.757-28.488a23.423,23.423,0,0,1-5.649-.607c-2.32-.668-4.521-.995-4.49-1.883s1.84-1.119,3.061-.874c0,0-6.215-1.614-5.56-3.508s2.973-.343,2.973-.343-2.649-1.875-1.558-3.09,2.884.758,2.884.758-1.358-1.594-.354-2.346,3.833,2.39,6.847,2.027c0,0-3.282-1.891-2.62-3.116s2.942.235,5.211,1.206,5.532,1.966,7.633,6.61,7.084,17.213,7.084,17.213,16.6-21.633,27.826-21.633Z" transform="translate(-621.696 -88.814)" fill="#fff"/>
          <path id="Trazado_1030294" data-name="Trazado 1030294" d="M789.371,149.965c-10.563,0-14.456-14.369-16.858-28.487a22.734,22.734,0,0,1-5.546-.615c-.493-.142-.977-.267-1.444-.389-1.862-.483-3.207-.831-3.178-1.676a.873.873,0,0,1,.359-.66,2.768,2.768,0,0,1,1.418-.46c-1.467-.493-3.614-1.369-4.177-2.42a1.083,1.083,0,0,1-.09-.895,1.462,1.462,0,0,1,.909-.986,2.031,2.031,0,0,1,1.17.019,3.052,3.052,0,0,1-.93-1.595,1.155,1.155,0,0,1,.3-.935,1.29,1.29,0,0,1,.987-.456h0a2.437,2.437,0,0,1,1.287.468,1.818,1.818,0,0,1-.157-.873,1.055,1.055,0,0,1,.435-.75c.542-.406,1.4.059,2.485.647a8.989,8.989,0,0,0,3.874,1.371c-.948-.619-2.758-1.982-2.182-3.048.611-1.132,2.225-.371,4.094.509.441.208.9.422,1.349.616.194.083.4.167.6.252a11.69,11.69,0,0,1,7.124,6.45c1.9,4.2,6.2,14.994,6.969,16.925a115.78,115.78,0,0,1,9.524-10.583c7.405-7.211,13.546-10.868,18.251-10.868a.183.183,0,0,1,0,.366c-11.007,0-27.516,21.346-27.682,21.561a.183.183,0,0,1-.315-.044c-.05-.126-5.006-12.618-7.08-17.205-1.89-4.179-4.685-5.335-6.93-6.263-.209-.086-.412-.17-.608-.254-.459-.2-.918-.412-1.361-.622-1.7-.8-3.17-1.493-3.616-.666-.471.872,1.739,2.4,2.55,2.871a.183.183,0,0,1-.069.34c-1.725.208-3.358-.676-4.668-1.386-.932-.505-1.737-.942-2.091-.676a.693.693,0,0,0-.291.5,2.748,2.748,0,0,0,.674,1.583.183.183,0,0,1-.275.241c-.01-.011-1.006-1.094-1.894-1.094h0a.927.927,0,0,0-.715.335.793.793,0,0,0-.211.65c.113,1.008,1.722,2.158,1.739,2.169a.183.183,0,0,1-.207.3c-.012-.008-1.193-.786-2.019-.508a1.1,1.1,0,0,0-.679.758.723.723,0,0,0,.066.6c.785,1.465,5.321,2.657,5.367,2.669a.183.183,0,0,1-.082.356,3.845,3.845,0,0,0-2.621.315.507.507,0,0,0-.221.386c-.019.552,1.4.92,2.9,1.31.47.122.956.248,1.454.391a23.4,23.4,0,0,0,5.6.6.176.176,0,0,1,.184.152c2.374,14.015,6.2,28.336,16.524,28.336h.051c9.261-.042,19.807-19.191,19.912-19.384a.183.183,0,1,1,.321.175,79.1,79.1,0,0,1-6.5,9.749c-5.123,6.5-9.744,9.807-13.732,9.826h-.054" transform="translate(-620.878 -87.972)"/>
          <path id="Trazado_1030295" data-name="Trazado 1030295" d="M793.563,163.277a.184.184,0,0,1-.038,0l-1.866-.4a.183.183,0,1,1,.076-.358l1.866.4a.183.183,0,0,1-.038.362" transform="translate(-646.795 -132.798)"/>
          <path id="Trazado_1030296" data-name="Trazado 1030296" d="M783.019,143.808H783a18.71,18.71,0,0,1-4.842-1.268.183.183,0,0,1,.139-.338,18.341,18.341,0,0,0,4.747,1.243.183.183,0,0,1-.022.364" transform="translate(-635.786 -116.189)"/>
          <path id="Trazado_1030297" data-name="Trazado 1030297" d="M789.563,131.739h-.008a11.313,11.313,0,0,1-4.461-1.148.183.183,0,0,1,.162-.328,10.941,10.941,0,0,0,4.315,1.111.183.183,0,0,1-.008.365" transform="translate(-641.465 -106.43)"/>
          <path id="Trazado_1030298" data-name="Trazado 1030298" d="M823.236,133.7a.183.183,0,0,1-.169-.112,5.4,5.4,0,0,1-.318-1.534c-.024-.224-.049-.455-.086-.676a2.165,2.165,0,0,0-1.02-1.669.183.183,0,1,1,.148-.335,2.506,2.506,0,0,1,1.233,1.943c.039.232.064.469.089.7a5.051,5.051,0,0,0,.293,1.432.183.183,0,0,1-.169.254" transform="translate(-671.326 -105.71)"/>
          <path id="Trazado_1030299" data-name="Trazado 1030299" d="M833.048,181.928a.183.183,0,0,1-.078-.017,4.613,4.613,0,0,0-1.455-.411.183.183,0,1,1,.04-.363,4.978,4.978,0,0,1,1.569.443.183.183,0,0,1-.078.348" transform="translate(-679.35 -148.017)"/>
          <path id="Trazado_1030300" data-name="Trazado 1030300" d="M970.791,196.41l-4.7-61.9s-14.463-4.517-20.738-4.689c0,0-24.655,61.228-27.205,66.681Z" transform="translate(-750.273 -106.086)" fill="#5479f7"/>
          <path id="Trazado_1030301" data-name="Trazado 1030301" d="M916.571,195.854l.122-.261c2.519-5.386,26.955-66.06,27.2-66.672l.048-.118.127,0c6.227.171,20.642,4.652,20.787,4.7l.118.037.009.124,4.719,62.1Zm27.615-66.678c-1.207,3-24.021,59.624-27.042,66.311l52.164-.092-4.679-61.578c-1.388-.428-14.5-4.426-20.443-4.64" transform="translate(-748.987 -105.254)" fill="#5479f7"/>
          <path id="Trazado_1030302" data-name="Trazado 1030302" d="M797.915,303.669H760.8l5.08-42.7H794.71Z" transform="translate(-621.695 -213.252)" fill="#fff"/>
          <path id="Trazado_1030303" data-name="Trazado 1030303" d="M797.1,303.035H759.982a.183.183,0,0,1-.182-.2l5.08-42.7a.183.183,0,0,1,.182-.161h28.833a.183.183,0,0,1,.182.169l3.2,42.7a.183.183,0,0,1-.182.2m-36.911-.366H796.9l-3.177-42.337h-28.5Z" transform="translate(-620.879 -212.434)"/>
          <path id="Trazado_1030304" data-name="Trazado 1030304" d="M844.389,303.669h-35.8l-4.993-42.7h33.234Z" transform="translate(-656.664 -213.252)" fill="#fff"/>
          <path id="Trazado_1030305" data-name="Trazado 1030305" d="M843.572,303.035h-35.8a.183.183,0,0,1-.182-.162l-4.994-42.7a.183.183,0,0,1,.182-.2h33.234a.183.183,0,0,1,.18.151l7.564,42.7a.183.183,0,0,1-.18.215m-35.642-.366h35.424l-7.5-42.337H802.98Z" transform="translate(-655.847 -212.434)"/>
          <path id="Trazado_1030306" data-name="Trazado 1030306" d="M870.719,179.377a.183.183,0,0,1-.183-.183V161.7a6.942,6.942,0,0,0-13.884,0v17.49a.183.183,0,0,1-.366,0V161.7a7.308,7.308,0,0,1,14.616,0v17.49a.183.183,0,0,1-.183.183" transform="translate(-699.724 -126.18)"/>
          <path id="Trazado_1030307" data-name="Trazado 1030307" d="M913.434,337.019H882.8L887,301.778h16.987Z" transform="translate(-721.394 -246.602)" fill="#fff"/>
          <path id="Trazado_1030308" data-name="Trazado 1030308" d="M912.618,336.385H881.987a.183.183,0,0,1-.182-.2L886,300.939a.183.183,0,0,1,.182-.161h16.987a.183.183,0,0,1,.177.135l9.451,35.241a.183.183,0,0,1-.177.23m-30.425-.366H912.38l-9.353-34.875H886.341Z" transform="translate(-720.577 -245.784)"/>
          <path id="Trazado_1030309" data-name="Trazado 1030309" d="M951.787,337.019H922.239l-4.121-35.241h27.427Z" transform="translate(-750.252 -246.602)" fill="#fff"/>
          <path id="Trazado_1030310" data-name="Trazado 1030310" d="M950.97,336.385H921.421a.183.183,0,0,1-.182-.162l-4.121-35.241a.183.183,0,0,1,.182-.2h14.505a.183.183,0,1,1,0,.366h-14.3l4.078,34.875H950.97a.183.183,0,0,1,0,.366" transform="translate(-749.434 -245.784)"/>
          <path id="Trazado_1030311" data-name="Trazado 1030311" d="M973.375,234.335a.183.183,0,0,1-.183-.183V219.718a5.7,5.7,0,0,0-11.394,0v14.434a.183.183,0,1,1-.366,0V219.718a6.063,6.063,0,0,1,12.125,0v14.434a.183.183,0,0,1-.183.183" transform="translate(-785.646 -174.602)"/>
          <path id="Trazado_1030312" data-name="Trazado 1030312" d="M1021.214,178.078c1.071-1.759,7.35-6.519,13.584-2.133s14.3,12.469,14.3,12.469-2.8-27.412.974-32.945c0,0,10.96,6.7,11.934,26.2s-8.748,23.506-14.583,22.107-12.263-18.69-18.795-21.374c-1.55,1.131-3.926,1.014-2.933-1.193-1.9,1.293-3.2.283-2.41-1.446-2.636,1.442-2.62-.778-2.071-1.68" transform="translate(-834.257 -127.043)" fill="#fff"/>
          <path id="Trazado_1030313" data-name="Trazado 1030313" d="M1046.133,302.027a1.776,1.776,0,0,1-.743-.145,1.032,1.032,0,0,1-.623-.906.183.183,0,1,1,.365-.027.676.676,0,0,0,.411.6,2.785,2.785,0,0,0,2.464-.558.182.182,0,0,1,.177-.022,6.894,6.894,0,0,1,1.083.571.183.183,0,1,1-.2.308,6.621,6.621,0,0,0-.932-.5,3.691,3.691,0,0,1-2,.679" transform="translate(-853.744 -245.785)"/>
          <path id="Trazado_1030314" data-name="Trazado 1030314" d="M1183.165,202.508a.183.183,0,0,1-.075-.35c3.385-1.515,8.953-6.3,8.2-21.3-.5-10.025-3.7-16.579-6.3-20.311a21.474,21.474,0,0,0-5.547-5.737.183.183,0,1,1,.191-.312,21.875,21.875,0,0,1,5.656,5.84c2.625,3.772,5.859,10.391,6.365,20.5.76,15.222-4.948,20.1-8.419,21.654a.184.184,0,0,1-.075.016" transform="translate(-963.727 -126.226)"/>
          <path id="Trazado_1030315" data-name="Trazado 1030315" d="M1045.99,285.545a.183.183,0,0,1-.153-.282,4.788,4.788,0,0,1,3.323-2.36.183.183,0,0,1,.061.361,4.392,4.392,0,0,0-3.078,2.2.183.183,0,0,1-.154.083" transform="translate(-854.594 -231.175)"/>
          <path id="Trazado_1030316" data-name="Trazado 1030316" d="M1033.128,275.707a.183.183,0,0,1-.157-.276,4.631,4.631,0,0,1,3.472-2.684.183.183,0,0,1,.07.359,4.273,4.273,0,0,0-3.228,2.51.183.183,0,0,1-.158.09" transform="translate(-844.084 -222.876)"/>
          <path id="Trazado_1030317" data-name="Trazado 1030317" d="M1096.324,84.774l1.409,11.274a11.333,11.333,0,0,1-8.132,1.8c-5.16-.613.148-3.764.148-3.764l-.655-7.649Z" transform="translate(-888.538 -69.274)" fill="#fff"/>
          <path id="Trazado_1030318" data-name="Trazado 1030318" d="M1104.733,95.413a.183.183,0,0,1-.181-.16l-1.384-11.073-6.878,1.58.641,7.491a.183.183,0,1,1-.364.031l-.655-7.649a.183.183,0,0,1,.141-.194l7.23-1.661a.183.183,0,0,1,.222.156l1.409,11.274a.183.183,0,0,1-.159.2h-.023" transform="translate(-895.538 -68.457)"/>
          <path id="Trazado_1030319" data-name="Trazado 1030319" d="M1075.891,39.869c-.243,1.595-.523,5.006.044,6.513a5.621,5.621,0,0,0,3.207,3.367,5.386,5.386,0,0,0,4.014-.272,8.682,8.682,0,0,0,3.158-2.634,3.29,3.29,0,0,0,3.746-1.416,2.542,2.542,0,0,0,.176-2.415,1.65,1.65,0,0,0-2.106-.79c-.421.217-.714.645-1.144.844-.479.222-3.324-1.091-4.633-2.575a19.163,19.163,0,0,1-2.409-3.925,8.04,8.04,0,0,1-1.476,2.2,4.764,4.764,0,0,1-2.578,1.1" transform="translate(-878.942 -29.881)" fill="#fff"/>
          <path id="Trazado_1030320" data-name="Trazado 1030320" d="M1079.933,49.383a4.948,4.948,0,0,1-1.666-.279,5.805,5.805,0,0,1-3.317-3.474c-.619-1.645-.249-5.326-.054-6.605a.183.183,0,0,1,.146-.152,4.556,4.556,0,0,0,2.49-1.056,7.845,7.845,0,0,0,1.431-2.139.182.182,0,0,1,.167-.111.172.172,0,0,1,.168.108,19.029,19.029,0,0,0,2.379,3.878c1.363,1.544,4.093,2.672,4.419,2.53a2.389,2.389,0,0,0,.551-.4,2.919,2.919,0,0,1,.586-.437,1.827,1.827,0,0,1,2.352.868,2.7,2.7,0,0,1-.181,2.593,3.5,3.5,0,0,1-3.836,1.533,8.721,8.721,0,0,1-3.148,2.589,6,6,0,0,1-2.486.557m-4.694-10.177c-.257,1.77-.46,4.932.053,6.295a5.438,5.438,0,0,0,3.1,3.259,5.208,5.208,0,0,0,3.876-.266,8.438,8.438,0,0,0,3.09-2.58.183.183,0,0,1,.2-.061,3.117,3.117,0,0,0,3.531-1.336,2.365,2.365,0,0,0,.171-2.237,1.472,1.472,0,0,0-1.86-.712,2.6,2.6,0,0,0-.51.385,2.7,2.7,0,0,1-.64.463c-.635.295-3.591-1.2-4.847-2.62a19.049,19.049,0,0,1-2.273-3.619,7.957,7.957,0,0,1-1.352,1.91,4.766,4.766,0,0,1-2.538,1.119" transform="translate(-878.128 -29.064)"/>
          <path id="Trazado_1030321" data-name="Trazado 1030321" d="M1135.636,78.9a.18.18,0,0,1-.072-.015.183.183,0,0,1-.1-.24,2.15,2.15,0,0,1,1.931-1.284h.044a.183.183,0,1,1-.008.365,1.775,1.775,0,0,0-1.63,1.062.183.183,0,0,1-.168.111" transform="translate(-927.849 -63.216)"/>
          <rect id="Rectángulo_459774" data-name="Rectángulo 459774" width="163.531" height="0.366" transform="translate(53.12 90.235)" fill="#5479f7"/>
          <path id="Trazado_1030322" data-name="Trazado 1030322" d="M203.486,457.635a8.253,8.253,0,1,1-8.253-8.253,8.253,8.253,0,0,1,8.253,8.253" transform="translate(-152.792 -367.218)" fill="#fff"/>
          <path id="Trazado_1030323" data-name="Trazado 1030323" d="M194.414,465.255a8.436,8.436,0,1,1,8.437-8.436,8.446,8.446,0,0,1-8.437,8.436m0-16.507a8.071,8.071,0,1,0,8.071,8.071,8.08,8.08,0,0,0-8.071-8.071" transform="translate(-151.974 -366.401)"/>
          <path id="Trazado_1030324" data-name="Trazado 1030324" d="M217.479,475.662a4.22,4.22,0,1,1-4.22-4.22,4.22,4.22,0,0,1,4.22,4.22" transform="translate(-170.819 -385.245)" fill="#5479f7"/>
          <path id="Trazado_1030325" data-name="Trazado 1030325" d="M632.447,457.635a8.253,8.253,0,1,1-8.253-8.253,8.253,8.253,0,0,1,8.253,8.253" transform="translate(-503.323 -367.218)" fill="#fff"/>
          <path id="Trazado_1030326" data-name="Trazado 1030326" d="M623.376,465.255a8.436,8.436,0,1,1,8.436-8.436,8.446,8.446,0,0,1-8.436,8.436m0-16.507a8.071,8.071,0,1,0,8.071,8.071,8.08,8.08,0,0,0-8.071-8.071" transform="translate(-502.505 -366.401)"/>
          <path id="Trazado_1030327" data-name="Trazado 1030327" d="M646.44,475.662a4.22,4.22,0,1,1-4.22-4.22,4.22,4.22,0,0,1,4.22,4.22" transform="translate(-521.349 -385.245)" fill="#5479f7"/>
          <path id="Trazado_1030328" data-name="Trazado 1030328" d="M1172.225,457.635a8.253,8.253,0,1,1-8.253-8.253,8.253,8.253,0,0,1,8.253,8.253" transform="translate(-944.409 -367.218)" fill="#fff"/>
          <path id="Trazado_1030329" data-name="Trazado 1030329" d="M1163.153,465.254a8.446,8.446,0,0,1-8.436-8.436.183.183,0,0,1,.366,0,8.071,8.071,0,1,0,8.071-8.071.183.183,0,1,1,0-.366,8.436,8.436,0,1,1,0,16.873" transform="translate(-943.591 -366.4)"/>
          <path id="Trazado_1030330" data-name="Trazado 1030330" d="M1186.218,475.662a4.22,4.22,0,1,1-4.22-4.22,4.22,4.22,0,0,1,4.22,4.22" transform="translate(-962.435 -385.245)" fill="#5479f7"/>
          <path id="Trazado_1030331" data-name="Trazado 1030331" d="M510.212,559.737v-7.2l67.672,5.644v1.557H510.212Z" transform="translate(-416.926 -451.512)" fill="#fff"/>
          <path id="Trazado_1030332" data-name="Trazado 1030332" d="M577.067,559.1H509.395a.183.183,0,1,1,0-.366h67.49v-1.206l-67.5-5.63a.183.183,0,0,1,.03-.364l67.672,5.644a.183.183,0,0,1,.168.182v1.557a.183.183,0,0,1-.183.183" transform="translate(-416.109 -450.696)"/>
          <rect id="Rectángulo_459775" data-name="Rectángulo 459775" width="63.164" height="43.53" transform="translate(95.54 108.225)" fill="#fff"/>
          <path id="Trazado_1030333" data-name="Trazado 1030333" d="M584.887,634.815H521.723a.183.183,0,1,1,0-.366H584.7V591.285H521.723a.183.183,0,1,1,0-.366h63.164a.183.183,0,0,1,.183.183v43.53a.183.183,0,0,1-.183.183" transform="translate(-426.183 -482.877)"/>
          <rect id="Rectángulo_459776" data-name="Rectángulo 459776" width="32.085" height="32.085" transform="translate(122.62 119.671)" fill="#e2eaff"/>
          <path id="Trazado_1030334" data-name="Trazado 1030334" d="M601.3,639.677a.183.183,0,0,1-.183-.183v-39.91a.183.183,0,1,1,.366,0v39.91a.183.183,0,0,1-.183.183" transform="translate(-491.212 -489.808)"/>
          <path id="Trazado_1030335" data-name="Trazado 1030335" d="M669.831,685.969a.183.183,0,0,1-.183-.183V653.7a.183.183,0,0,1,.183-.183h32.084a.183.183,0,0,1,0,.366h-31.9v31.9a.183.183,0,0,1-.183.183" transform="translate(-547.211 -534.031)"/>
          <path id="Trazado_1030336" data-name="Trazado 1030336" d="M308.868,829.366H186.162a.183.183,0,1,1,0-.366H308.868a.183.183,0,1,1,0,.366" transform="translate(-151.975 -677.427)"/>
          <rect id="Rectángulo_459777" data-name="Rectángulo 459777" width="49.023" height="23.599" transform="translate(122.62 122.248)" fill="#fff"/>
          <path id="Trazado_1030337" data-name="Trazado 1030337" d="M718.853,691.577H669.83a.183.183,0,0,1-.183-.183v-23.6a.183.183,0,0,1,.183-.183h49.023a.183.183,0,0,1,.183.183v23.6a.183.183,0,0,1-.183.183m-48.84-.366H718.67V667.978H670.013Z" transform="translate(-547.21 -545.547)"/>
          <path id="Trazado_1030338" data-name="Trazado 1030338" d="M906.107,807.141H867.189a.183.183,0,0,1,0-.366h38.918a.183.183,0,0,1,0,.366" transform="translate(-708.484 -659.266)"/>
          <path id="Trazado_1030339" data-name="Trazado 1030339" d="M708.3,806.823H672.845a.274.274,0,0,1,0-.548H708.3a.274.274,0,1,1,0,.548" transform="translate(-549.599 -658.857)" fill="#fff"/>
          <path id="Trazado_1030340" data-name="Trazado 1030340" d="M951.986,727.775H975.55v-4.94l-5.827-1.524-2.236-3.43-.651-1a34.191,34.191,0,0,0-14.849-4.748Z" transform="translate(-777.927 -581.929)" fill="#fff"/>
          <path id="Trazado_1030341" data-name="Trazado 1030341" d="M974.731,727.141H951.168a.183.183,0,0,1-.183-.183V711.316a.183.183,0,0,1,.2-.182,34.193,34.193,0,0,1,14.923,4.773.183.183,0,0,1,.06.057l2.848,4.37,5.759,1.506a.183.183,0,0,1,.137.177v4.94a.183.183,0,0,1-.183.183m-23.381-.366h23.2v-4.616l-5.691-1.488a.183.183,0,0,1-.107-.077l-2.864-4.393a33.734,33.734,0,0,0-14.536-4.68Z" transform="translate(-777.109 -581.111)"/>
          <path id="Trazado_1030342" data-name="Trazado 1030342" d="M971.6,737.469H958a.183.183,0,1,1,0-.366h13.6a.183.183,0,1,1,0,.366" transform="translate(-782.693 -602.333)"/>
          <path id="Trazado_1030343" data-name="Trazado 1030343" d="M1074.922,776.352a.183.183,0,0,1-.183-.183v-4.63a.183.183,0,1,1,.366,0v4.63a.183.183,0,0,1-.183.183" transform="translate(-878.236 -630.323)"/>
          <path id="Trazado_1030344" data-name="Trazado 1030344" d="M1008.708,746.331h-7.73a.183.183,0,0,1-.183-.183v-3.4a.183.183,0,0,1,.366,0v3.218h7.547a.183.183,0,0,1,0,.366" transform="translate(-817.812 -606.795)"/>
          <path id="Trazado_1030345" data-name="Trazado 1030345" d="M960.68,746.331H958a.183.183,0,0,1-.183-.183v-3.4a.183.183,0,0,1,.183-.183h2.678a.183.183,0,0,1,.183.183v3.4a.183.183,0,0,1-.183.183m-2.5-.366H960.5V742.93h-2.312Z" transform="translate(-782.693 -606.795)"/>
          <path id="Trazado_1030346" data-name="Trazado 1030346" d="M1018.345,789.614a4.063,4.063,0,1,1-4.063-4.064,4.064,4.064,0,0,1,4.063,4.064" transform="translate(-825.512 -641.922)" fill="#fff"/>
          <path id="Trazado_1030347" data-name="Trazado 1030347" d="M1013.463,793.044a4.246,4.246,0,1,1,4.246-4.246,4.251,4.251,0,0,1-4.246,4.246m0-8.127a3.881,3.881,0,1,0,3.881,3.881,3.885,3.885,0,0,0-3.881-3.881" transform="translate(-824.694 -641.105)"/>
          <path id="Trazado_1030348" data-name="Trazado 1030348" d="M1026.741,800.432a1.643,1.643,0,1,1-1.643-1.643,1.643,1.643,0,0,1,1.643,1.643" transform="translate(-836.329 -652.74)" fill="#fff"/>
          <path id="Trazado_1030349" data-name="Trazado 1030349" d="M1024.281,801.44a1.826,1.826,0,1,1,1.826-1.826,1.828,1.828,0,0,1-1.826,1.826m0-3.287a1.46,1.46,0,1,0,1.46,1.46,1.462,1.462,0,0,0-1.46-1.46" transform="translate(-835.512 -651.922)"/>
          <path id="Trazado_1030350" data-name="Trazado 1030350" d="M902.337,789.614a4.063,4.063,0,1,1-4.063-4.064,4.064,4.064,0,0,1,4.063,4.064" transform="translate(-730.715 -641.922)" fill="#fff"/>
          <path id="Trazado_1030351" data-name="Trazado 1030351" d="M897.456,793.044A4.246,4.246,0,1,1,901.7,788.8a4.251,4.251,0,0,1-4.246,4.246m0-8.127a3.881,3.881,0,1,0,3.881,3.881,3.885,3.885,0,0,0-3.881-3.881" transform="translate(-729.897 -641.105)"/>
          <path id="Trazado_1030352" data-name="Trazado 1030352" d="M910.734,800.432a1.643,1.643,0,1,1-1.643-1.643,1.643,1.643,0,0,1,1.643,1.643" transform="translate(-741.532 -652.74)" fill="#fff"/>
          <path id="Trazado_1030353" data-name="Trazado 1030353" d="M908.274,801.44a1.826,1.826,0,1,1,1.826-1.826,1.828,1.828,0,0,1-1.826,1.826m0-3.287a1.46,1.46,0,1,0,1.46,1.46,1.462,1.462,0,0,0-1.46-1.46" transform="translate(-740.715 -651.922)"/>
          <path id="Trazado_1030354" data-name="Trazado 1030354" d="M852.828,789.614a4.064,4.064,0,1,1-4.064-4.064,4.064,4.064,0,0,1,4.064,4.064" transform="translate(-690.258 -641.922)" fill="#fff"/>
          <path id="Trazado_1030355" data-name="Trazado 1030355" d="M847.947,793.044a4.246,4.246,0,1,1,4.246-4.246,4.251,4.251,0,0,1-4.246,4.246m0-8.127a3.881,3.881,0,1,0,3.881,3.881,3.885,3.885,0,0,0-3.881-3.881" transform="translate(-689.44 -641.105)"/>
          <path id="Trazado_1030356" data-name="Trazado 1030356" d="M861.225,800.432a1.643,1.643,0,1,1-1.643-1.643,1.643,1.643,0,0,1,1.643,1.643" transform="translate(-701.075 -652.74)" fill="#fff"/>
          <path id="Trazado_1030357" data-name="Trazado 1030357" d="M858.765,801.44a1.826,1.826,0,1,1,1.826-1.826,1.828,1.828,0,0,1-1.826,1.826m0-3.287a1.46,1.46,0,1,0,1.46,1.46,1.462,1.462,0,0,0-1.46-1.46" transform="translate(-700.258 -651.922)"/>
          <rect id="Rectángulo_459778" data-name="Rectángulo 459778" width="41.025" height="32.598" transform="translate(19.902 119.157)" fill="#fff"/>
          <path id="Trazado_1030358" data-name="Trazado 1030358" d="M149.06,683.675H108.035a.183.183,0,0,1-.183-.183v-32.6a.183.183,0,0,1,.183-.183H149.06a.183.183,0,0,1,.183.183v32.6a.183.183,0,0,1-.183.183m-40.842-.366h40.659V651.077H108.218Z" transform="translate(-88.133 -531.736)"/>
          <path id="Trazado_1030359" data-name="Trazado 1030359" d="M204.081,688.015a.183.183,0,0,1-.183-.183v-30.1a.183.183,0,0,1,.366,0v30.1a.183.183,0,0,1-.183.183" transform="translate(-166.618 -537.327)"/>
          <path id="Trazado_1030360" data-name="Trazado 1030360" d="M267.075,660.2a.183.183,0,0,1-.183-.183v-9.124a.183.183,0,1,1,.366,0v9.124a.183.183,0,0,1-.183.183" transform="translate(-218.094 -531.737)"/>
          <rect id="Rectángulo_459779" data-name="Rectángulo 459779" width="41.025" height="32.598" transform="translate(63.721 119.157)" fill="#fff"/>
          <path id="Trazado_1030361" data-name="Trazado 1030361" d="M388.72,683.675H347.695a.183.183,0,0,1-.183-.183v-32.6a.183.183,0,0,1,.183-.183H388.72a.183.183,0,0,1,.183.183v32.6a.183.183,0,0,1-.183.183m-40.842-.366h40.659V651.077H347.878Z" transform="translate(-283.974 -531.736)"/>
          <path id="Trazado_1030362" data-name="Trazado 1030362" d="M443.741,688.015a.183.183,0,0,1-.183-.183v-30.1a.183.183,0,0,1,.366,0v30.1a.183.183,0,0,1-.183.183" transform="translate(-362.459 -537.327)"/>
          <path id="Trazado_1030363" data-name="Trazado 1030363" d="M506.734,660.2a.183.183,0,0,1-.183-.183v-9.124a.183.183,0,1,1,.366,0v9.124a.183.183,0,0,1-.183.183" transform="translate(-413.934 -531.737)"/>
          <path id="Trazado_1030364" data-name="Trazado 1030364" d="M1014.226,623.225H972.65a.183.183,0,1,1,0-.366h41.393V576.919a.183.183,0,0,1,.366,0v46.123a.183.183,0,0,1-.183.183" transform="translate(-794.663 -471.287)"/>
          <path id="Trazado_1030365" data-name="Trazado 1030365" d="M529.013,88.311a4.244,4.244,0,0,0-.511.034A17.229,17.229,0,0,0,526.54,83.6a4.2,4.2,0,0,0,.386-6.3,4.19,4.19,0,0,0-6.295.386,17.17,17.17,0,0,0-4.737-1.964,4.212,4.212,0,1,0-8.357,0,17.172,17.172,0,0,0-4.737,1.964A4.19,4.19,0,0,0,496.5,77.3a4.2,4.2,0,0,0,.385,6.3,17.225,17.225,0,0,0-1.962,4.743,4.218,4.218,0,1,0,0,8.367,17.219,17.219,0,0,0,1.962,4.743,4.214,4.214,0,1,0,5.572,6.3,4.167,4.167,0,0,0,.338-.386,17.178,17.178,0,0,0,4.737,1.964,4.212,4.212,0,1,0,8.357,0,17.176,17.176,0,0,0,4.737-1.964,4.215,4.215,0,1,0,5.909-5.916,17.218,17.218,0,0,0,1.962-4.743,4.216,4.216,0,1,0,.511-8.4m-17.3,12.05a7.832,7.832,0,1,1,7.823-7.832,7.828,7.828,0,0,1-7.823,7.832" transform="translate(-400.576 -58.012)" fill="#fff"/>
          <path id="Trazado_1030366" data-name="Trazado 1030366" d="M510.9,113.43a4.4,4.4,0,0,1-4.4-4.4c0-.117.006-.241.018-.374a17.357,17.357,0,0,1-4.5-1.864c-.084.1-.167.193-.25.277a4.364,4.364,0,0,1-3.108,1.289h0a4.363,4.363,0,0,1-3.108-1.289,4.409,4.409,0,0,1,0-6.223c.083-.083.174-.166.277-.251a17.382,17.382,0,0,1-1.862-4.5c-.133.012-.256.018-.373.018a4.4,4.4,0,0,1,0-8.8c.117,0,.24.006.373.018a17.381,17.381,0,0,1,1.862-4.5c-.1-.085-.194-.168-.277-.251a4.409,4.409,0,0,1,0-6.223,4.391,4.391,0,0,1,6.216,0c.083.083.166.175.251.277a17.352,17.352,0,0,1,4.5-1.864c-.012-.133-.018-.256-.018-.374a4.4,4.4,0,1,1,8.79,0c0,.117-.006.241-.018.374a17.341,17.341,0,0,1,4.5,1.864c.085-.1.168-.193.251-.277a4.364,4.364,0,0,1,3.108-1.289h0a4.364,4.364,0,0,1,3.108,1.289,4.408,4.408,0,0,1,0,6.223c-.083.083-.174.166-.277.251a17.392,17.392,0,0,1,1.862,4.5c.133-.012.256-.018.373-.018a4.4,4.4,0,0,1,0,8.8c-.117,0-.24-.006-.373-.018a17.381,17.381,0,0,1-1.862,4.5c.1.085.194.168.277.251a4.408,4.408,0,0,1,0,6.223,4.392,4.392,0,0,1-6.216,0c-.083-.083-.166-.174-.251-.277a17.341,17.341,0,0,1-4.5,1.864c.012.133.018.256.018.374a4.4,4.4,0,0,1-4.4,4.4m-8.916-7.059a.182.182,0,0,1,.094.026,16.992,16.992,0,0,0,4.687,1.943.183.183,0,0,1,.137.2,4.029,4.029,0,1,0,8.026.49,4.1,4.1,0,0,0-.033-.49.183.183,0,0,1,.137-.2,17,17,0,0,0,4.687-1.943.183.183,0,0,1,.238.044,4.13,4.13,0,0,0,.323.369,4.027,4.027,0,0,0,5.7,0,4.014,4.014,0,0,0-.369-6.029.183.183,0,0,1-.044-.238,17.023,17.023,0,0,0,1.941-4.693.184.184,0,0,1,.2-.137,4.033,4.033,0,1,0,.489-8.037,3.96,3.96,0,0,0-.489.033.183.183,0,0,1-.2-.138,17.044,17.044,0,0,0-1.941-4.693.183.183,0,0,1,.044-.238,3.982,3.982,0,0,0,.369-.323,4.043,4.043,0,0,0,0-5.706,4.026,4.026,0,0,0-5.7,0,4.154,4.154,0,0,0-.323.369.183.183,0,0,1-.238.044,16.988,16.988,0,0,0-4.687-1.943.183.183,0,0,1-.137-.2,4.1,4.1,0,0,0,.033-.49,4.03,4.03,0,1,0-8.026.49.183.183,0,0,1-.137.2,16.989,16.989,0,0,0-4.687,1.943.183.183,0,0,1-.239-.044,4.032,4.032,0,1,0-5.652,5.66.183.183,0,0,1,.044.238,17.037,17.037,0,0,0-1.941,4.693.182.182,0,0,1-.2.138,3.96,3.96,0,0,0-.489-.033,4.035,4.035,0,1,0,.489,8.037.184.184,0,0,1,.2.137,17.019,17.019,0,0,0,1.941,4.693.183.183,0,0,1-.044.238,4.033,4.033,0,1,0,5.652,5.66.184.184,0,0,1,.144-.07m8.916-6.645A8.015,8.015,0,1,1,518.9,91.71a8.02,8.02,0,0,1-8.006,8.015m0-15.665a7.65,7.65,0,1,0,7.64,7.65,7.654,7.654,0,0,0-7.64-7.65" transform="translate(-399.759 -57.194)"/>
          <path id="Trazado_1030367" data-name="Trazado 1030367" d="M389.395,88.007a2.208,2.208,0,0,0-.269.018,9.07,9.07,0,0,0-1.032-2.5,2.255,2.255,0,0,0,.2-.178,2.218,2.218,0,1,0-3.312-2.935,9.048,9.048,0,0,0-2.493-1.034,2.217,2.217,0,1,0-4.4,0,9.048,9.048,0,0,0-2.493,1.034,2.217,2.217,0,1,0-3.312,2.935,2.251,2.251,0,0,0,.2.178,9.065,9.065,0,0,0-1.032,2.5,2.219,2.219,0,1,0,0,4.4,9.059,9.059,0,0,0,1.032,2.5,2.251,2.251,0,0,0-.2.178,2.218,2.218,0,1,0,3.312,2.935,9.042,9.042,0,0,0,2.493,1.034,2.217,2.217,0,1,0,4.4,0,9.042,9.042,0,0,0,2.493-1.034A2.217,2.217,0,1,0,388.3,95.1a2.255,2.255,0,0,0-.2-.178,9.065,9.065,0,0,0,1.032-2.5,2.218,2.218,0,1,0,.269-4.42m-9.1,6.34a4.121,4.121,0,1,1,4.116-4.121,4.119,4.119,0,0,1-4.116,4.121" transform="translate(-301.512 -64.469)" fill="#fff"/>
          <path id="Trazado_1030368" data-name="Trazado 1030368" d="M379.476,100.924a2.4,2.4,0,0,1-2.4-2.4c0-.042,0-.086,0-.131a9.22,9.22,0,0,1-2.255-.935c-.03.034-.06.066-.089.1a2.4,2.4,0,0,1-3.393,0,2.407,2.407,0,0,1,0-3.4q.045-.045.1-.09a9.236,9.236,0,0,1-.934-2.258c-.045,0-.088,0-.131,0a2.4,2.4,0,0,1,0-4.8q.063,0,.131,0a9.248,9.248,0,0,1,.934-2.258q-.051-.045-.1-.089a2.407,2.407,0,0,1,0-3.4,2.4,2.4,0,0,1,3.393,0c.03.03.059.061.089.1a9.22,9.22,0,0,1,2.255-.935c0-.045,0-.089,0-.131a2.4,2.4,0,1,1,4.8,0c0,.042,0,.086,0,.131a9.219,9.219,0,0,1,2.255.935c.03-.034.06-.066.089-.1a2.4,2.4,0,0,1,3.393,0,2.407,2.407,0,0,1,0,3.4c-.03.03-.062.06-.1.09a9.248,9.248,0,0,1,.934,2.258c.045,0,.089,0,.131,0a2.4,2.4,0,0,1,0,4.8c-.042,0-.085,0-.131,0a9.231,9.231,0,0,1-.934,2.258c.034.03.066.06.1.09a2.4,2.4,0,0,1-1.7,4.1,2.383,2.383,0,0,1-1.7-.7c-.03-.03-.059-.061-.089-.1a9.22,9.22,0,0,1-2.255.935c0,.045,0,.089,0,.131a2.4,2.4,0,0,1-2.4,2.4m-4.691-3.888a.182.182,0,0,1,.094.026,8.847,8.847,0,0,0,2.442,1.013.183.183,0,0,1,.137.2,2.034,2.034,0,1,0,4.034,0,.183.183,0,0,1,.137-.2,8.847,8.847,0,0,0,2.442-1.013.183.183,0,0,1,.238.044,2.035,2.035,0,1,0,2.853-2.856.183.183,0,0,1-.044-.238,8.867,8.867,0,0,0,1.011-2.445.182.182,0,0,1,.2-.137,2.035,2.035,0,1,0,.247-4.056,2.008,2.008,0,0,0-.247.017.183.183,0,0,1-.2-.137,8.876,8.876,0,0,0-1.011-2.445.182.182,0,0,1,.044-.238,2.124,2.124,0,0,0,.186-.163,2.04,2.04,0,0,0,0-2.88,2.032,2.032,0,0,0-2.876,0,2.1,2.1,0,0,0-.163.187.183.183,0,0,1-.238.044,8.853,8.853,0,0,0-2.442-1.013.183.183,0,0,1-.137-.2,2.01,2.01,0,0,0,.017-.247,2.034,2.034,0,1,0-4.051.247.183.183,0,0,1-.137.2,8.852,8.852,0,0,0-2.442,1.013.183.183,0,0,1-.238-.044,2.075,2.075,0,0,0-.163-.187,2.032,2.032,0,0,0-2.876,0,2.041,2.041,0,0,0,0,2.88,2.1,2.1,0,0,0,.186.163.182.182,0,0,1,.044.238,8.878,8.878,0,0,0-1.011,2.445.184.184,0,0,1-.2.137,2.036,2.036,0,1,0,0,4.039.184.184,0,0,1,.2.137,8.883,8.883,0,0,0,1.011,2.445.182.182,0,0,1-.044.238,2.035,2.035,0,1,0,2.853,2.856.183.183,0,0,1,.144-.07m4.691-3.323a4.3,4.3,0,1,1,4.3-4.3,4.307,4.307,0,0,1-4.3,4.3m0-8.243a3.938,3.938,0,1,0,3.934,3.938,3.941,3.941,0,0,0-3.934-3.938" transform="translate(-300.695 -63.652)"/>
        </g>
      </g>
    </g>
  </g>
</svg>
