<svg xmlns="http://www.w3.org/2000/svg" xmlns:xlink="http://www.w3.org/1999/xlink" width="396" height="259" viewBox="0 0 396 259">
  <defs>
    <clipPath id="clip-path">
      <rect id="Rectángulo_459844" data-name="Rectángulo 459844" width="295.915" height="221.296" fill="none"/>
    </clipPath>
  </defs>
  <g id="Grupo_1187600" data-name="Grupo 1187600" transform="translate(-1017.711 -29788)">
    <rect id="Rectángulo_458644" data-name="Rectángulo 458644" width="396" height="259" rx="19" transform="translate(1017.711 29788)" fill="#fee7bd"/>
    <g id="Grupo_1187599" data-name="Grupo 1187599" transform="translate(1062.751 29813.248)">
      <g id="Grupo_1187598" data-name="Grupo 1187598" transform="translate(0 0)" clip-path="url(#clip-path)">
        <path id="Trazado_1030720" data-name="Trazado 1030720" d="M168.757,91.343C178.884,84.089,184.946,76.293,185.32,69c18.875-4.08,32.132-13.687,32.132-24.89,0-8.048-6.842-15.271-17.692-20.214a9.6,9.6,0,0,0,.207-1.965c0-9.755-14.913-17.716-33.636-18.168l.023-.193H22.95L8.578,81.747,24.549,81.7c-6.051,6.223-8.934,12.583-7.722,18.481,1.167,5.677,5.988,10.249,13.492,13.555-8.149,8.991-12.8,19.38-12.8,30.446,0,34.217,44.473,61.954,99.332,61.954s99.336-27.737,99.336-61.954c0-22.352-18.978-41.937-47.43-52.834" transform="translate(7.693 3.204)" fill="#d7e4f2"/>
        <path id="Trazado_1030721" data-name="Trazado 1030721" d="M108.976,36.031c-.994-7.676-11.009-12.709-22.373-11.237S66.837,33.679,67.829,41.355,78.84,54.064,90.2,52.594s19.769-8.887,18.775-16.563" transform="translate(60.759 22.006)" fill="#fff"/>
        <path id="Trazado_1030722" data-name="Trazado 1030722" d="M45.351,123.323a.246.246,0,0,1-.129-.036C28.56,113.5,20.732,101.665,17.1,93.463c-3.943-8.9-3.94-15.579-3.94-15.645a.256.256,0,0,1,.512,0c0,.064,0,6.658,3.907,15.461,3.606,8.124,11.375,19.848,27.9,29.564a.257.257,0,0,1,.093.351.262.262,0,0,1-.222.125" transform="translate(11.799 69.561)" fill="#89b9e6"/>
        <path id="Trazado_1030723" data-name="Trazado 1030723" d="M35.612,28.967c-7.217,0-13.09-3.49-13.09-7.779s5.873-7.779,13.09-7.779S48.7,16.9,48.7,21.188s-5.873,7.779-13.09,7.779m0-14.894c-6.851,0-12.426,3.192-12.426,7.115S28.761,28.3,35.612,28.3s12.426-3.192,12.426-7.115-5.575-7.115-12.426-7.115" transform="translate(20.198 12.025)" fill="#89b9e6"/>
        <path id="Trazado_1030724" data-name="Trazado 1030724" d="M28.59,21.108a2.983,2.983,0,1,0-2.982,2.982,2.982,2.982,0,0,0,2.982-2.982" transform="translate(20.29 16.256)" fill="#4666c8"/>
        <path id="Trazado_1030725" data-name="Trazado 1030725" d="M19.386,9.06a.331.331,0,0,1-.332-.332v-2.8a.332.332,0,1,1,.664,0v2.8a.331.331,0,0,1-.332.332" transform="translate(17.088 5.016)"/>
        <path id="Trazado_1030726" data-name="Trazado 1030726" d="M19.386,11.972a.331.331,0,0,1-.332-.332v-2.8a.332.332,0,1,1,.664,0v2.8a.331.331,0,0,1-.332.332" transform="translate(17.088 7.627)"/>
        <path id="Trazado_1030727" data-name="Trazado 1030727" d="M22.906,8.452H20.1a.332.332,0,0,1,0-.664h2.8a.332.332,0,1,1,0,.664" transform="translate(17.731 6.984)"/>
        <path id="Trazado_1030728" data-name="Trazado 1030728" d="M20,8.452h-2.8a.332.332,0,1,1,0-.664H20a.332.332,0,1,1,0,.664" transform="translate(15.119 6.984)"/>
        <path id="Trazado_1030729" data-name="Trazado 1030729" d="M136.792,68.765a.285.285,0,0,1-.055-.006.255.255,0,0,1-.188-.173l-2.079-6.648a.258.258,0,0,1,.055-.248.253.253,0,0,1,.245-.076l6.8,1.523a.255.255,0,0,1,.188.173.258.258,0,0,1-.057.25l-4.715,5.123a.257.257,0,0,1-.19.082m-1.7-6.555,1.813,5.8,4.118-4.471Z" transform="translate(120.585 55.251)"/>
        <path id="Trazado_1030730" data-name="Trazado 1030730" d="M137.957,43.87a.256.256,0,0,1-.254-.23c-1.533-14.327-17.36-19.943-17.521-20a.256.256,0,0,1-.171-.245c.053-6.21-3.714-11.25-11.2-14.985A45.557,45.557,0,0,0,97.435,4.638a.256.256,0,1,1,.082-.5A46.064,46.064,0,0,1,109.034,7.95c7.5,3.739,11.466,9.016,11.489,15.271a34.154,34.154,0,0,1,8.156,4.587c3.9,2.97,8.712,8.118,9.531,15.78a.254.254,0,0,1-.226.281l-.028,0" transform="translate(87.188 3.704)" fill="#89b9e6"/>
        <path id="Trazado_1030731" data-name="Trazado 1030731" d="M127.726,18.915a.257.257,0,0,1-.235-.156c-3.589-8.388-13.4-12.394-21-14.277a75.666,75.666,0,0,0-15.859-2.1.255.255,0,1,1,0-.51h0a76.117,76.117,0,0,1,15.969,2.113c7.716,1.912,17.684,5.992,21.356,14.575a.256.256,0,0,1-.135.336.265.265,0,0,1-.1.021" transform="translate(81.053 1.677)" fill="#89b9e6"/>
        <path id="Trazado_1030732" data-name="Trazado 1030732" d="M78.9,12.794a.247.247,0,0,1-.18-.076.253.253,0,0,1,0-.36l4.664-4.664a.255.255,0,0,1,.36.36l-4.664,4.664a.247.247,0,0,1-.18.076" transform="translate(70.532 6.832)"/>
        <path id="Trazado_1030733" data-name="Trazado 1030733" d="M83.567,12.794a.247.247,0,0,1-.18-.076L78.723,8.054a.255.255,0,0,1,.36-.36l4.664,4.664a.253.253,0,0,1,0,.36.247.247,0,0,1-.18.076" transform="translate(70.532 6.832)"/>
        <rect id="Rectángulo_459839" data-name="Rectángulo 459839" width="9.585" height="9.585" transform="translate(190.85 28.409)" fill="#89b9e6"/>
        <path id="Trazado_1030734" data-name="Trazado 1030734" d="M103.3,23.575a5.821,5.821,0,1,1,5.821-5.821,5.827,5.827,0,0,1-5.821,5.821m0-11.131a5.31,5.31,0,1,0,5.309,5.309,5.315,5.315,0,0,0-5.309-5.309" transform="translate(87.423 10.701)"/>
        <path id="Trazado_1030735" data-name="Trazado 1030735" d="M173.189,130.286l-58.682.129,1.328-39.391,58.682-.127Z" transform="translate(102.692 81.518)" fill="#89b9e6"/>
        <path id="Trazado_1030736" data-name="Trazado 1030736" d="M144.419,102.932l.406-12.026-6.421.013L138,102.945Z" transform="translate(123.759 81.526)" fill="#d7e4f2"/>
        <path id="Trazado_1030737" data-name="Trazado 1030737" d="M137.824,106.806l-.313,9.26,6.421-.015.313-9.26Z" transform="translate(123.323 95.772)" fill="#d7e4f2"/>
        <path id="Trazado_1030738" data-name="Trazado 1030738" d="M160.478,130.314l-58.682.129,1.328-39.391,58.682-.127Z" transform="translate(91.293 81.543)" fill="#d7e4f2"/>
        <path id="Trazado_1030739" data-name="Trazado 1030739" d="M123.272,105.727l-17.915.04.406-12.026,17.915-.04Z" transform="translate(94.486 84.033)" fill="#4666c8"/>
        <path id="Trazado_1030740" data-name="Trazado 1030740" d="M184.833,130.9l-82.792.182a.482.482,0,0,1-.338-.142.441.441,0,0,1-.135-.328L102.9,91.224a.38.38,0,0,1,.393-.368l82.792-.18a.469.469,0,0,1,.338.14.447.447,0,0,1,.137.33l-1.328,39.389a.382.382,0,0,1-.395.368m-82.383-.658,81.922-.18,1.3-38.551-81.922.18Z" transform="translate(91.088 81.32)"/>
        <path id="Trazado_1030741" data-name="Trazado 1030741" d="M139.272,130.919c-.021,0-.04,0-.063,0a.472.472,0,0,1-.412-.474l2-39.391a.387.387,0,0,1,.455-.357.469.469,0,0,1,.412.472l-2,39.391a.383.383,0,0,1-.393.362" transform="translate(124.476 81.331)"/>
        <path id="Trazado_1030742" data-name="Trazado 1030742" d="M133.03,126.5a.278.278,0,0,1-.055,0,.471.471,0,0,1-.419-.467l1.119-33.194a.384.384,0,0,1,.448-.364.472.472,0,0,1,.419.467l-1.119,33.194a.381.381,0,0,1-.393.368" transform="translate(118.878 82.924)"/>
        <path id="Trazado_1030743" data-name="Trazado 1030743" d="M126.162,96.98l-17.957.04a.479.479,0,0,1-.472-.419.384.384,0,0,1,.393-.421l17.957-.038a.476.476,0,0,1,.472.417.383.383,0,0,1-.393.421" transform="translate(96.615 86.222)"/>
        <path id="Trazado_1030744" data-name="Trazado 1030744" d="M123.235,98.583l-12.049.027a.477.477,0,0,1-.47-.419.379.379,0,0,1,.391-.419l12.049-.027a.476.476,0,0,1,.472.417.383.383,0,0,1-.393.421" transform="translate(99.29 87.659)"/>
        <path id="Trazado_1030745" data-name="Trazado 1030745" d="M182.822,109.417l-58.682.129,1.328-39.391,58.682-.127Z" transform="translate(111.331 62.802)" fill="#89b9e6"/>
        <path id="Trazado_1030746" data-name="Trazado 1030746" d="M154.052,82.063l.406-12.026-6.421.013-.406,12.026Z" transform="translate(132.398 62.811)" fill="#d7e4f2"/>
        <path id="Trazado_1030747" data-name="Trazado 1030747" d="M147.457,85.936l-.313,9.26,6.421-.015.313-9.258Z" transform="translate(131.961 77.057)" fill="#d7e4f2"/>
        <path id="Trazado_1030748" data-name="Trazado 1030748" d="M170.111,109.445l-58.682.129,1.328-39.391,58.682-.127Z" transform="translate(99.931 62.827)" fill="#d7e4f2"/>
        <path id="Trazado_1030749" data-name="Trazado 1030749" d="M132.905,84.858l-17.915.04.406-12.026,17.915-.04Z" transform="translate(103.125 65.317)" fill="#4666c8"/>
        <path id="Trazado_1030750" data-name="Trazado 1030750" d="M194.466,110.035l-82.792.182a.482.482,0,0,1-.338-.142.441.441,0,0,1-.135-.328l1.328-39.391a.38.38,0,0,1,.393-.368l82.792-.18a.474.474,0,0,1,.338.14.447.447,0,0,1,.137.33l-1.328,39.389a.382.382,0,0,1-.395.368m-82.383-.658L194,109.2l1.3-38.551-81.922.178Z" transform="translate(99.727 62.604)"/>
        <path id="Trazado_1030751" data-name="Trazado 1030751" d="M148.9,110.05a.358.358,0,0,1-.063,0,.472.472,0,0,1-.412-.474l2-39.391a.388.388,0,0,1,.455-.357.47.47,0,0,1,.412.472l-2,39.393a.382.382,0,0,1-.393.36" transform="translate(133.114 62.616)"/>
        <path id="Trazado_1030752" data-name="Trazado 1030752" d="M142.662,105.629l-.055,0a.471.471,0,0,1-.419-.467l1.119-33.194a.384.384,0,0,1,.448-.364.472.472,0,0,1,.419.467l-1.119,33.194a.381.381,0,0,1-.393.368" transform="translate(127.516 64.209)"/>
        <path id="Trazado_1030753" data-name="Trazado 1030753" d="M135.794,76.111l-17.957.04a.479.479,0,0,1-.472-.419.384.384,0,0,1,.393-.421l17.957-.038a.476.476,0,0,1,.472.417.383.383,0,0,1-.393.421" transform="translate(105.253 67.506)"/>
        <path id="Trazado_1030754" data-name="Trazado 1030754" d="M132.867,77.714l-12.049.027a.477.477,0,0,1-.47-.419.379.379,0,0,1,.391-.419l12.049-.027a.476.476,0,0,1,.472.417.383.383,0,0,1-.393.421" transform="translate(107.928 68.944)"/>
        <rect id="Rectángulo_459840" data-name="Rectángulo 459840" width="138.322" height="187.553" transform="translate(5.252 7.752)" fill="#fff"/>
        <path id="Trazado_1030755" data-name="Trazado 1030755" d="M141.319,192.353H3a.483.483,0,0,1-.484-.484V4.316A.483.483,0,0,1,3,3.832H141.319a.483.483,0,0,1,.484.484V191.869a.483.483,0,0,1-.484.484M3.481,191.387H140.836V4.8H3.481Z" transform="translate(2.255 3.437)"/>
        <rect id="Rectángulo_459841" data-name="Rectángulo 459841" width="109.797" height="15.544" transform="translate(21.468 163.714)" fill="#d6e3f1"/>
        <path id="Trazado_1030756" data-name="Trazado 1030756" d="M65.426,24.138H32.8a4.586,4.586,0,1,1,0-9.171h1.3A5.873,5.873,0,0,0,39.967,9.1V8.677a.483.483,0,0,1,.484-.484H59.075a.483.483,0,0,1,.484.484V9.1a5.873,5.873,0,0,0,5.867,5.867,4.586,4.586,0,0,1,0,9.171M32.8,15.932a3.619,3.619,0,0,0,0,7.238H65.426a3.619,3.619,0,0,0,0-7.238,6.84,6.84,0,0,1-6.832-6.774H40.934A6.842,6.842,0,0,1,34.1,15.932Z" transform="translate(25.301 7.348)"/>
        <path id="Trazado_1030757" data-name="Trazado 1030757" d="M85.46,49.6A17.193,17.193,0,1,0,68.268,66.8,17.193,17.193,0,0,0,85.46,49.6" transform="translate(45.805 29.067)" fill="#d6e3f1"/>
        <path id="Trazado_1030758" data-name="Trazado 1030758" d="M60.139,49.528,74.574,40.19a17.175,17.175,0,0,0-12.109-7.7Z" transform="translate(53.934 29.142)" fill="#f37a3e"/>
        <path id="Trazado_1030759" data-name="Trazado 1030759" d="M65.58,49.6l3.251-16.882a17.178,17.178,0,0,0-14.759,4.11Z" transform="translate(48.493 29.067)" fill="#88b8e5"/>
        <rect id="Rectángulo_459842" data-name="Rectángulo 459842" width="98.445" height="18.756" transform="translate(30.063 34.909)" fill="#d6e3f1"/>
        <path id="Trazado_1030760" data-name="Trazado 1030760" d="M68.986,91.118H15.564a.483.483,0,1,1,0-.965H68.986a.483.483,0,1,1,0,.965" transform="translate(13.524 80.851)"/>
        <rect id="Rectángulo_459843" data-name="Rectángulo 459843" width="60.954" height="14.458" transform="translate(43.936 3.649)" fill="#d6e3f1"/>
        <path id="Trazado_1030761" data-name="Trazado 1030761" d="M84.346,17.094H23.392a.483.483,0,0,1-.484-.484V2.153a.483.483,0,0,1,.484-.484H84.346a.483.483,0,0,1,.484.484V16.61a.483.483,0,0,1-.484.484m-60.471-.967H83.864V2.636H23.875Z" transform="translate(20.544 1.497)"/>
        <path id="Trazado_1030762" data-name="Trazado 1030762" d="M35.648,15.052H28.272L38.365,2.4h7.377Z" transform="translate(25.355 2.152)" fill="#fff"/>
        <path id="Trazado_1030763" data-name="Trazado 1030763" d="M37.875,15.052H34.187L44.279,2.4h3.689Z" transform="translate(30.66 2.152)" fill="#fff"/>
        <path id="Trazado_1030764" data-name="Trazado 1030764" d="M38.826,15.052H36.982L47.075,2.4h1.844Z" transform="translate(33.166 2.152)" fill="#fff"/>
        <path id="Trazado_1030765" data-name="Trazado 1030765" d="M40.7,38.088H35.367L37.3,22.68h3.6Z" transform="translate(31.718 20.34)" fill="#fff"/>
        <path id="Trazado_1030766" data-name="Trazado 1030766" d="M36.181,24.843h3.94l.015-1.235h-3.72Z" transform="translate(32.448 21.172)" fill="#f47a3e"/>
        <path id="Trazado_1030767" data-name="Trazado 1030767" d="M63.777,43.978l-41.151,0L22.8,30.8l41.151,0Z" transform="translate(20.291 27.624)" fill="#d7e4f2"/>
        <path id="Trazado_1030768" data-name="Trazado 1030768" d="M63.869,44.189l-41.151,0a.171.171,0,0,1-.118-.051.156.156,0,0,1-.051-.118l.173-13.173a.116.116,0,0,1,.121-.119l41.151,0a.175.175,0,0,1,.171.169l-.173,13.175a.118.118,0,0,1-.123.118M22.843,43.9l40.857,0,.169-12.889-40.857,0Z" transform="translate(20.222 27.556)"/>
        <path id="Trazado_1030769" data-name="Trazado 1030769" d="M53.884,67.9H33.308L33.8,30.8H54.37Z" transform="translate(29.871 27.624)" fill="#d7e4f2"/>
        <path id="Trazado_1030770" data-name="Trazado 1030770" d="M53.976,68.107H33.4a.171.171,0,0,1-.118-.051.16.16,0,0,1-.051-.118l.486-37.09a.119.119,0,0,1,.123-.119H54.415a.164.164,0,0,1,.119.051.166.166,0,0,1,.051.116L54.1,67.987a.117.117,0,0,1-.121.119M33.525,67.82l20.283,0,.482-36.8H34.007Z" transform="translate(29.802 27.557)"/>
        <path id="Trazado_1030771" data-name="Trazado 1030771" d="M37.934,43.326,38.1,30.8,27.646,43.326,27.811,30.8,17.36,43.326,17.037,67.9H37.612l10.288,0L48.386,30.8Z" transform="translate(15.279 27.625)" fill="#89b9e6"/>
        <path id="Trazado_1030772" data-name="Trazado 1030772" d="M47.994,68.107H17.129a.171.171,0,0,1-.118-.051.163.163,0,0,1-.051-.118l.322-24.569a.119.119,0,0,1,.027-.076L27.76,30.77a.138.138,0,0,1,.165-.027.174.174,0,0,1,.1.152l-.159,12.073,10.182-12.2a.133.133,0,0,1,.163-.027.176.176,0,0,1,.1.152l-.159,12.071,10.182-12.2a.132.132,0,0,1,.163-.027.171.171,0,0,1,.1.152l-.486,37.092a.118.118,0,0,1-.121.119m-30.74-.286,30.571,0L48.3,31.3l-10.18,12.2a.138.138,0,0,1-.165.027.175.175,0,0,1-.1-.154L38.015,31.3l-10.18,12.2a.135.135,0,0,1-.165.027.174.174,0,0,1-.1-.152L27.728,31.3,17.573,43.464Z" transform="translate(15.21 27.557)"/>
        <path id="Trazado_1030773" data-name="Trazado 1030773" d="M24.5,50.4H21.276l.129-9.818h3.228Z" transform="translate(19.081 36.394)" fill="#fff"/>
        <path id="Trazado_1030774" data-name="Trazado 1030774" d="M29.928,50.4H26.7l.129-9.818h3.228Z" transform="translate(23.945 36.394)" fill="#fff"/>
        <path id="Trazado_1030775" data-name="Trazado 1030775" d="M24.139,50.61H20.911a.171.171,0,0,1-.118-.051.16.16,0,0,1-.051-.118l.129-9.818a.116.116,0,0,1,.121-.118h3.228a.164.164,0,0,1,.119.051.166.166,0,0,1,.051.116l-.129,9.82a.117.117,0,0,1-.123.118m-3.1-.286h2.936l.125-9.532H21.161Z" transform="translate(18.602 36.326)"/>
        <path id="Trazado_1030776" data-name="Trazado 1030776" d="M29.563,50.61H26.335a.171.171,0,0,1-.118-.051.156.156,0,0,1-.051-.118l.129-9.818a.116.116,0,0,1,.121-.118h3.228a.164.164,0,0,1,.119.051.166.166,0,0,1,.051.116l-.129,9.82a.118.118,0,0,1-.123.118m-3.1-.286H29.4l.125-9.532H26.585Z" transform="translate(23.466 36.326)"/>
        <path id="Trazado_1030777" data-name="Trazado 1030777" d="M34.457,38.088H29.121L31.056,22.68h3.6Z" transform="translate(26.117 20.34)" fill="#fff"/>
        <path id="Trazado_1030778" data-name="Trazado 1030778" d="M29.943,24.843h3.94l.015-1.235h-3.72Z" transform="translate(26.854 21.172)" fill="#f47a3e"/>
        <path id="Trazado_1030779" data-name="Trazado 1030779" d="M34.55,38.3H29.214a.175.175,0,0,1-.125-.057.162.162,0,0,1-.044-.125L30.98,22.709a.118.118,0,0,1,.121-.1h3.6a.175.175,0,0,1,.171.169l-.2,15.408a.116.116,0,0,1-.121.118m-5.192-.286h5.023l.2-15.121H31.257Z" transform="translate(26.048 20.273)"/>
        <path id="Trazado_1030780" data-name="Trazado 1030780" d="M40.8,38.3H35.46a.175.175,0,0,1-.125-.057.162.162,0,0,1-.044-.125l1.935-15.408a.118.118,0,0,1,.121-.1h3.6a.175.175,0,0,1,.171.169l-.2,15.408a.116.116,0,0,1-.121.118M35.6,38.013h5.023l.2-15.121H37.5Z" transform="translate(31.649 20.273)"/>
        <path id="Trazado_1030781" data-name="Trazado 1030781" d="M47.222,49.2H36.059l.114-8.029A5.737,5.737,0,0,1,42.14,35.4a5.349,5.349,0,0,1,5.2,5.163Z" transform="translate(32.338 31.744)"/>
        <path id="Trazado_1030782" data-name="Trazado 1030782" d="M21.243,65.384l-1.664.009q.236-3.892.723-7.76l-2.553.816q.08-.674.169-1.349,2.04-.7,4.091-1.4h.214q-.686,4.82-.981,9.683" transform="translate(15.918 49.954)"/>
        <path id="Trazado_1030783" data-name="Trazado 1030783" d="M22.581,59.9a.91.91,0,0,1,.7.252.821.821,0,0,1,.209.641.918.918,0,0,1-.294.63,1.054,1.054,0,0,1-.738.252.929.929,0,0,1-.692-.243.771.771,0,0,1-.222-.63.943.943,0,0,1,.3-.643,1.032,1.032,0,0,1,.734-.26" transform="translate(19.322 53.717)"/>
        <path id="Trazado_1030784" data-name="Trazado 1030784" d="M23.8,75.482l-6.627.017q0-.566.008-1.132,1.659-1.8,3.369-3.6a9.244,9.244,0,0,0,1.072-1.33,2.318,2.318,0,0,0,.357-1.07,1.563,1.563,0,0,0-.326-1.14,1.277,1.277,0,0,0-1.036-.431,1.7,1.7,0,0,0-1.273.491,2.01,2.01,0,0,0-.52,1.339q-.822,0-1.646,0A3.353,3.353,0,0,1,17.683,67a3.125,3.125,0,0,1,1.252-1.125,3.885,3.885,0,0,1,1.789-.4,3.1,3.1,0,0,1,2.208.715,2.384,2.384,0,0,1,.7,2,3.648,3.648,0,0,1-.5,1.552,9.64,9.64,0,0,1-1.436,1.846q-1.246,1.3-2.466,2.591l4.577-.011q-.009.66-.009,1.316" transform="translate(15.397 58.72)"/>
        <path id="Trazado_1030785" data-name="Trazado 1030785" d="M22.383,69.832a.925.925,0,0,1,.708.26.9.9,0,0,1,.243.654.881.881,0,0,1-.254.641.95.95,0,0,1-.711.256.962.962,0,0,1-.7-.248.853.853,0,0,1-.254-.645.915.915,0,0,1,.258-.654.941.941,0,0,1,.708-.264" transform="translate(19.208 62.626)"/>
        <path id="Trazado_1030786" data-name="Trazado 1030786" d="M19.28,79.622l1,0a1.812,1.812,0,0,0,1.2-.4,1.461,1.461,0,0,0,.47-1.121,1.513,1.513,0,0,0-.328-1.094,1.416,1.416,0,0,0-1.1-.389,1.617,1.617,0,0,0-1.1.387,1.338,1.338,0,0,0-.459,1l-1.633.006a2.571,2.571,0,0,1,.45-1.388,2.889,2.889,0,0,1,1.163-.979,3.741,3.741,0,0,1,1.62-.355,3.2,3.2,0,0,1,2.267.74A2.557,2.557,0,0,1,23.58,78.1a2.208,2.208,0,0,1-.451,1.254,2.767,2.767,0,0,1-1.1.888,2.37,2.37,0,0,1,1.218.871,2.443,2.443,0,0,1,.419,1.419,2.661,2.661,0,0,1-.878,2.111,3.443,3.443,0,0,1-2.358.787,3.542,3.542,0,0,1-2.331-.747,2.491,2.491,0,0,1-.928-2.011q.817,0,1.633,0a1.377,1.377,0,0,0,.444,1.053,1.93,1.93,0,0,0,2.363-.008,1.526,1.526,0,0,0,.427-1.176,1.551,1.551,0,0,0-.457-1.2,1.93,1.93,0,0,0-1.354-.415c-.321,0-.641,0-.962,0,0-.434.009-.867.017-1.3" transform="translate(15.397 67.523)"/>
        <path id="Trazado_1030787" data-name="Trazado 1030787" d="M22.438,79.644a.945.945,0,0,1,.709.258.924.924,0,0,1,.26.651.861.861,0,0,1-.233.639.926.926,0,0,1-.7.254.976.976,0,0,1-.7-.247.874.874,0,0,1-.269-.641.887.887,0,0,1,.237-.652.922.922,0,0,1,.7-.262" transform="translate(19.286 71.426)"/>
        <path id="Trazado_1030788" data-name="Trazado 1030788" d="M88.43,58.4H26.865a.278.278,0,0,1,0-.556H88.43a.278.278,0,1,1,0,.556" transform="translate(23.845 51.88)"/>
        <path id="Trazado_1030789" data-name="Trazado 1030789" d="M71.859,60.169H26.622a.278.278,0,1,1,0-.556H71.859a.278.278,0,0,1,0,.556" transform="translate(23.625 53.462)"/>
        <path id="Trazado_1030790" data-name="Trazado 1030790" d="M73.527,67.781H26.865a.278.278,0,0,1,0-.556H73.527a.278.278,0,1,1,0,.556" transform="translate(23.845 60.288)"/>
        <path id="Trazado_1030791" data-name="Trazado 1030791" d="M70.459,67.781H55.4a.278.278,0,1,1,0-.556H70.459a.278.278,0,1,1,0,.556" transform="translate(49.432 60.288)"/>
        <path id="Trazado_1030792" data-name="Trazado 1030792" d="M44.511,69.689H26.871a.278.278,0,1,1,0-.556h17.64a.278.278,0,1,1,0,.556" transform="translate(23.848 62)"/>
        <path id="Trazado_1030793" data-name="Trazado 1030793" d="M75.846,69.689H41a.278.278,0,1,1,0-.556H75.846a.278.278,0,1,1,0,.556" transform="translate(36.521 62)"/>
        <path id="Trazado_1030794" data-name="Trazado 1030794" d="M43.438,77.937H27.789a.278.278,0,1,1,0-.556H43.438a.278.278,0,1,1,0,.556" transform="translate(24.671 69.397)"/>
        <path id="Trazado_1030795" data-name="Trazado 1030795" d="M75.788,77.937H39.675a.278.278,0,0,1,0-.556H75.788a.278.278,0,1,1,0,.556" transform="translate(35.333 69.397)"/>
        <path id="Trazado_1030796" data-name="Trazado 1030796" d="M60.738,79.83H28.081a.278.278,0,1,1,0-.556H60.738a.278.278,0,1,1,0,.556" transform="translate(24.933 71.094)"/>
        <path id="Trazado_1030797" data-name="Trazado 1030797" d="M96.194,103.056l.931,12.159,12.974,5.051c.446-4.911-3.883-3.5-5.626-16.5Z" transform="translate(86.268 92.422)"/>
        <path id="Trazado_1030798" data-name="Trazado 1030798" d="M92.061,103.355,88.6,115.341H69.982c1.3-4.069,9.983-2.373,12.568-10.852Z" transform="translate(62.761 92.69)"/>
        <path id="Trazado_1030799" data-name="Trazado 1030799" d="M128.714,59.092l2.62,92.369-16.565-.415-3.824-69.251-20.419,69.68-16.548-.457,27.318-97.3s10.1-2.826,27.418,5.37" transform="translate(66.345 47.756)" fill="#4666c8"/>
        <path id="Trazado_1030800" data-name="Trazado 1030800" d="M97.251,135.188a.227.227,0,0,1-.228-.212l-3.911-70.82a.229.229,0,0,1,.457-.025l3.909,70.821a.225.225,0,0,1-.214.235h-.013" transform="translate(83.504 57.325)"/>
        <path id="Trazado_1030801" data-name="Trazado 1030801" d="M86.706,72.3s10.391,7.62,32.252,6.123L122.3,41.4s-7.578-8.333-25.759-4.518Z" transform="translate(77.759 32.184)" fill="#f47a3e"/>
        <path id="Trazado_1030802" data-name="Trazado 1030802" d="M113.284,38.8c7,6.645,5.988,29.867,1.371,31.893s-14.719-5.04-17.895-17.052c0,0,3.536-6.571,11.112-6.358l3.39,6.421Z" transform="translate(86.777 34.793)" fill="#f47a3e"/>
        <path id="Trazado_1030803" data-name="Trazado 1030803" d="M100.023,52.083s-4.738-5.84-4.533-7.348,6.722-5.1,7.876-4.439,1.085,1.351,1.085,1.351,1.641.038,1.929.793,1.789,5.983,1.789,5.983-1.508,3.283-8.145,3.661" transform="translate(85.631 36.066)" fill="#fff"/>
        <path id="Trazado_1030804" data-name="Trazado 1030804" d="M100.131,52.41a.229.229,0,0,1-.178-.083c-.491-.605-4.793-5.96-4.581-7.517.154-1.146,3.05-2.932,4.837-3.79.975-.469,2.712-1.195,3.38-.814a2.154,2.154,0,0,1,1.176,1.332c.489.038,1.658.2,1.937.926.288.755,1.734,5.787,1.794,6a.21.21,0,0,1-.011.152c-.063.14-1.641,3.414-8.34,3.794h-.013m2.957-11.868a7.5,7.5,0,0,0-2.678.878c-2.388,1.146-4.488,2.724-4.587,3.448-.138,1.022,2.536,4.763,4.412,7.088a11.968,11.968,0,0,0,6.294-1.9,5.162,5.162,0,0,0,1.5-1.555c-.2-.679-1.5-5.2-1.76-5.88-.19-.5-1.335-.637-1.72-.647a.229.229,0,0,1-.165-.076.224.224,0,0,1-.057-.171c0-.017.021-.567-.971-1.134a.559.559,0,0,0-.271-.051" transform="translate(85.524 35.961)"/>
        <path id="Trazado_1030805" data-name="Trazado 1030805" d="M101.231,44.246a.228.228,0,0,1-.218-.159l-.912-2.948a.224.224,0,0,1,.152-.279.234.234,0,0,1,.286.15l.91,2.948a.221.221,0,0,1-.152.279.267.267,0,0,1-.066.009" transform="translate(89.763 36.636)"/>
        <path id="Trazado_1030806" data-name="Trazado 1030806" d="M108.744,46.77s-15.3-8.479-15.44-9.184S80.893,24.867,80.893,24.867,74.833,26.28,73.1,31.65c0,0,11.493,22.047,31.648,28.263Z" transform="translate(65.558 22.301)" fill="#f47a3e"/>
        <path id="Trazado_1030807" data-name="Trazado 1030807" d="M82.779,31.229,73.3,19.454l-1.443,1.318,1.829,4.569s-2.5,1.648-2.885,3.627,5.683,5.886,5.683,5.886Z" transform="translate(63.481 17.447)" fill="#fff"/>
        <path id="Trazado_1030808" data-name="Trazado 1030808" d="M76.594,35.183a.231.231,0,0,1-.125-.038,35,35,0,0,1-3.01-2.215c-2.016-1.681-2.95-2.991-2.773-3.9.347-1.781,2.27-3.266,2.832-3.667l-1.762-4.406a.22.22,0,0,1,.057-.245L73.255,19.4a.22.22,0,0,1,.173-.059.225.225,0,0,1,.161.083L83.065,31.2a.221.221,0,0,1,.046.18.23.23,0,0,1-.11.152l-6.292,3.623a.232.232,0,0,1-.116.032M72.237,20.938l1.772,4.427a.222.222,0,0,1-.085.267c-.025.017-2.428,1.622-2.788,3.483-.286,1.468,3.739,4.452,5.467,5.58l5.943-3.424-9.16-11.383Z" transform="translate(63.373 17.341)"/>
        <path id="Trazado_1030809" data-name="Trazado 1030809" d="M73.3,28.4a.216.216,0,0,1-.112-.03,2.714,2.714,0,0,1-1.172-2.864,2.793,2.793,0,0,1,2.039-1.98,5.668,5.668,0,0,1,5.635,1.4.221.221,0,0,1,.008.317.231.231,0,0,1-.322.008,5.2,5.2,0,0,0-5.171-1.3,2.35,2.35,0,0,0-1.736,1.622,2.281,2.281,0,0,0,.947,2.411.222.222,0,0,1,.082.305.226.226,0,0,1-.2.112" transform="translate(64.544 20.873)"/>
        <path id="Trazado_1030810" data-name="Trazado 1030810" d="M95.736,46.506a17.916,17.916,0,0,0,12.813,1.464s3.507-17.766,4.372-19.839-7.646-6.03-11.4-2.638-8.367,12.86-6.639,13.849a8.94,8.94,0,0,0,3.9.99Z" transform="translate(84.757 21.676)" fill="#fff"/>
        <path id="Trazado_1030811" data-name="Trazado 1030811" d="M104.3,48.911A18.959,18.959,0,0,1,95.728,46.8a.222.222,0,0,1-.091-.29l2.895-5.867a8.856,8.856,0,0,1-3.653-1.007,1.055,1.055,0,0,1-.474-.865c-.3-2.654,3.8-10.385,7.071-13.34,2.686-2.426,7.716-1.273,10.315.493,1.214.827,1.743,1.7,1.451,2.394-.846,2.03-4.323,19.621-4.359,19.8a.227.227,0,0,1-.159.173,15.82,15.82,0,0,1-4.427.62m-8.153-2.394A17.833,17.833,0,0,0,108.461,47.9c.349-1.764,3.524-17.75,4.357-19.748.2-.478-.283-1.172-1.29-1.857-2.409-1.639-7.267-2.771-9.742-.531C98.429,28.8,94.6,36.413,94.858,38.727a.66.66,0,0,0,.25.527,8.78,8.78,0,0,0,3.78.958.229.229,0,0,1,.193.1.221.221,0,0,1,.013.216Z" transform="translate(84.65 21.569)"/>
        <path id="Trazado_1030812" data-name="Trazado 1030812" d="M96.338,35.489c3.934.69,6.438-3.226,6.438-3.226s-5.338.67-5.406.808Z" transform="translate(86.398 28.934)" fill="#d7e4f2"/>
        <path id="Trazado_1030813" data-name="Trazado 1030813" d="M98.445,25.493c-.167.152-.338.319-.506.493,3.384-.634,8.027,1.39,8.027,1.39l-2.085,6.878,3.492,1.036.763-.22c.723-3.321,1.392-6.182,1.709-6.939.867-2.073-7.648-6.03-11.4-2.638" transform="translate(87.833 21.676)"/>
        <path id="Trazado_1030814" data-name="Trazado 1030814" d="M73.654,32.143a.227.227,0,0,1-.2-.114.222.222,0,0,1,.085-.305l9.8-5.463a.232.232,0,0,1,.311.083.221.221,0,0,1-.085.305l-9.8,5.465a.234.234,0,0,1-.112.028" transform="translate(65.849 23.525)"/>
        <path id="Trazado_1030815" data-name="Trazado 1030815" d="M89.894,46.367a.253.253,0,0,1-.064-.009.223.223,0,0,1-.156-.279l1.734-5.7a.228.228,0,0,1,.283-.15.222.222,0,0,1,.156.277l-1.734,5.7a.226.226,0,0,1-.218.159" transform="translate(80.413 36.071)"/>
        <path id="Trazado_1030816" data-name="Trazado 1030816" d="M106.117,50.018a.229.229,0,0,1-.2-.121l-3.39-6.419a.221.221,0,0,1,.1-.3.23.23,0,0,1,.307.095l3.056,5.789.757-5.573A.227.227,0,0,1,107,43.3a.223.223,0,0,1,.2.25l-.85,6.278a.225.225,0,0,1-.188.19.142.142,0,0,1-.04,0" transform="translate(91.922 38.698)"/>
        <path id="Trazado_1030817" data-name="Trazado 1030817" d="M110.48,64.346a.22.22,0,0,1-.1-.025c-10.554-5.23-13.7-17.418-13.731-17.542a.226.226,0,0,1,.169-.271.229.229,0,0,1,.275.165c.03.121,3.132,12.115,13.494,17.25a.221.221,0,0,1,.1.3.233.233,0,0,1-.2.123" transform="translate(86.669 41.704)"/>
        <path id="Trazado_1030818" data-name="Trazado 1030818" d="M97.43,51.681a.224.224,0,1,1,0-.448c.087,0,8.657-.209,11.538-6.261a.23.23,0,0,1,.3-.108.222.222,0,0,1,.112.3c-3,6.309-11.857,6.517-11.946,6.519Z" transform="translate(87.172 40.216)"/>
        <path id="Trazado_1030819" data-name="Trazado 1030819" d="M96.761,33.2a16.626,16.626,0,0,0,6.144-1.083Z" transform="translate(86.777 28.805)" fill="#fff"/>
        <path id="Trazado_1030820" data-name="Trazado 1030820" d="M97.158,33.536c-.173,0-.277,0-.3,0a.224.224,0,1,1,.017-.448,16.552,16.552,0,0,0,6.047-1.066.229.229,0,0,1,.3.12.221.221,0,0,1-.121.292,16.608,16.608,0,0,1-5.943,1.106" transform="translate(86.668 28.699)"/>
        <path id="Trazado_1030821" data-name="Trazado 1030821" d="M95.942,34.35,99,39.022s3.433-4.194,8.756-3.063Z" transform="translate(86.042 30.806)" fill="#fff"/>
        <path id="Trazado_1030822" data-name="Trazado 1030822" d="M99.109,39.351H99.1a.225.225,0,0,1-.18-.1l-3.06-4.672a.221.221,0,0,1,.068-.309.234.234,0,0,1,.317.066l2.9,4.423a9.62,9.62,0,0,1,8.775-2.912.222.222,0,0,1,.174.266.227.227,0,0,1-.271.171c-5.118-1.087-8.5,2.944-8.53,2.986a.232.232,0,0,1-.178.083" transform="translate(85.935 30.7)"/>
        <path id="Trazado_1030823" data-name="Trazado 1030823" d="M105.873,32.757c-1.062,1.43-2.769,1.988-3.813,1.246s-1.026-2.5.034-3.936,2.769-1.988,3.813-1.246,1.028,2.506-.034,3.936" transform="translate(90.837 25.553)" fill="#fff"/>
        <path id="Trazado_1030824" data-name="Trazado 1030824" d="M102.886,34.661a2.069,2.069,0,0,1-1.216-.372.222.222,0,0,1-.051-.313.232.232,0,0,1,.321-.049,1.863,1.863,0,0,0,1.692.159,3.754,3.754,0,0,0,1.8-1.356,3.645,3.645,0,0,0,.763-2.1,1.779,1.779,0,0,0-.677-1.527c-.939-.67-2.508-.133-3.494,1.2a.233.233,0,0,1-.319.049.221.221,0,0,1-.051-.313c1.136-1.529,2.989-2.109,4.131-1.3a2.2,2.2,0,0,1,.867,1.893,4.079,4.079,0,0,1-.85,2.354,4.227,4.227,0,0,1-2.026,1.519,2.851,2.851,0,0,1-.89.15" transform="translate(91.094 25.449)"/>
        <path id="Trazado_1030825" data-name="Trazado 1030825" d="M47.287,127.443c13.154-32.3,0-61.085-11.352-56.777,0,0,55.9-.193,79.048-.193,21.618,0,30.77,10.571,17.876,43.1Z" transform="translate(32.227 62.99)" fill="#fff"/>
        <path id="Trazado_1030826" data-name="Trazado 1030826" d="M47.176,83.365l85,3.818L41.92,115.67s5.992-9.509,5.256-32.3" transform="translate(37.595 74.763)" fill="#d6e3f1"/>
        <path id="Trazado_1030827" data-name="Trazado 1030827" d="M57.787,92.139s70.507-6.516,84.78-7.785c17.583-1.563,20.709,31.258,17.583,51.576l-92.6,9.281s8.615-51.15-9.759-53.073" transform="translate(51.824 75.602)" fill="#fff"/>
        <path id="Trazado_1030828" data-name="Trazado 1030828" d="M41.92,110.953l41.322-2.595c-1.252-33.223-23.87-19.027-41.322,2.595" transform="translate(37.595 79.479)" fill="#88b8e5"/>
        <path id="Trazado_1030829" data-name="Trazado 1030829" d="M68.5,108.485H17.818c38.1-65.839,54.11-32.952,50.681,0" transform="translate(15.979 63.192)" fill="#88b8e5"/>
        <path id="Trazado_1030830" data-name="Trazado 1030830" d="M103.569,158.487a.482.482,0,0,1-.476-.567c.08-.451,7.781-45.326-5.552-51.69-6.806-3.249-18.067,4.054-33.464,21.711a.483.483,0,0,1-.783-.558c3.6-6.3,5.611-18.354,5.006-30-.662-12.737-4.23-22.168-9.545-25.226-4.177-2.405-9.395-1.072-15.512,3.962-7.236,5.958-15.554,17-24.721,32.807a.484.484,0,1,1-.836-.486c21.931-37.826,34.7-41.066,41.554-37.123,11.715,6.745,12.479,38.285,6.387,53.418,14.569-16.153,25.438-22.673,32.333-19.382,13.261,6.33,7.147,46.349,6.193,52.1l91.975-9.217a.483.483,0,1,1,.095.962l-92.6,9.281-.047,0" transform="translate(15.801 62.809)"/>
        <path id="Trazado_1030831" data-name="Trazado 1030831" d="M85.315,70.949H66.559a.484.484,0,0,1,0-.967H85.315a.484.484,0,0,1,0,.967" transform="translate(59.259 62.761)" fill="#d6e3f1"/>
        <path id="Trazado_1030832" data-name="Trazado 1030832" d="M92.668,107.533a.483.483,0,0,1-.046-.964l30.772-2.915a.483.483,0,0,1,.091.962l-30.772,2.915-.046,0" transform="translate(82.674 92.957)"/>
        <path id="Trazado_1030833" data-name="Trazado 1030833" d="M69.957,100.587a.484.484,0,0,1-.042-.965l72.09-6.523a.483.483,0,1,1,.087.962L70,100.585l-.044,0" transform="translate(62.306 83.491)"/>
        <path id="Trazado_1030834" data-name="Trazado 1030834" d="M68.1,95.645a.483.483,0,0,1-.042-.964l70.723-6.311a.489.489,0,0,1,.525.44.484.484,0,0,1-.44.524L68.147,95.643l-.044,0" transform="translate(60.644 79.251)"/>
        <path id="Trazado_1030835" data-name="Trazado 1030835" d="M65.94,92.3a.483.483,0,0,1-.044-.964l68.578-6.275a.483.483,0,1,1,.089.962L65.983,92.3l-.044,0" transform="translate(58.702 76.285)"/>
        <path id="Trazado_1030836" data-name="Trazado 1030836" d="M61.469,78.419a.483.483,0,0,1-.025-.965l47.948-2.443a.49.49,0,0,1,.506.459.483.483,0,0,1-.457.506L61.494,78.419h-.025" transform="translate(54.694 67.27)"/>
        <path id="Trazado_1030837" data-name="Trazado 1030837" d="M58.679,81.343a.483.483,0,0,1-.023-.965L95.288,78.61a.49.49,0,0,1,.506.459.484.484,0,0,1-.459.506L58.7,81.343h-.023" transform="translate(52.192 70.499)"/>
        <path id="Trazado_1030838" data-name="Trazado 1030838" d="M75.519,83.341a.483.483,0,0,1-.027-.965l23.153-1.288a.483.483,0,0,1,.053.965L75.546,83.341h-.027" transform="translate(67.294 72.72)"/>
        <path id="Trazado_1030839" data-name="Trazado 1030839" d="M21.576,10.868A10.708,10.708,0,1,0,10.867,21.578,10.71,10.71,0,0,0,21.576,10.868" transform="translate(0.143 0.143)" fill="#fff"/>
        <path id="Trazado_1030840" data-name="Trazado 1030840" d="M11.009,22.019A11.009,11.009,0,1,1,22.018,11.01,11.02,11.02,0,0,1,11.009,22.019M11.009.6A10.408,10.408,0,1,0,21.417,11.01,10.42,10.42,0,0,0,11.009.6" transform="translate(0 0.001)"/>
        <path id="Trazado_1030841" data-name="Trazado 1030841" d="M16.83,8.281c0-3.116-3.352-1.411-7.485-1.411S1.858,5.165,1.858,8.281s3.352,5.643,7.487,5.643S16.83,11.4,16.83,8.281" transform="translate(1.666 5.744)" fill="#d7e4f2"/>
        <path id="Trazado_1030842" data-name="Trazado 1030842" d="M15.269,8.346,16.492,7.1C16.065,6.079,16.031,6,15.6,4.971l-1.743,0-1.241-1.1L12.41,2.132c-1.068-.305-1.153-.33-2.221-.634L9.1,2.858l-1.635.283L5.978,2.224,4.1,3.564l.383,1.7c-.3.554-.5.9-.8,1.453L2.04,7.31c-.059,1.108-.064,1.2-.123,2.307l1.569.761c.245.584.4.948.639,1.531L3.562,13.56l1.726,1.535,1.572-.753,1.6.455.939,1.47,2.276-.393.393-1.7c.514-.366.836-.6,1.351-.964l1.736.182c.535-.971.579-1.051,1.112-2.024L15.18,10c.032-.632.055-1.026.089-1.658M9.29,11.972a3.09,3.09,0,1,1,3.09-3.09,3.089,3.089,0,0,1-3.09,3.09" transform="translate(1.719 1.343)" fill="#89b9e6"/>
      </g>
    </g>
  </g>
</svg>
