<svg xmlns="http://www.w3.org/2000/svg" xmlns:xlink="http://www.w3.org/1999/xlink" width="150" height="150" viewBox="0 0 150 150">
  <defs>
    <clipPath id="clip-path">
      <rect id="Rectángulo_456277" data-name="Rectángulo 456277" width="150" height="150" transform="translate(-0.059 -0.059)" fill="#d35560"/>
    </clipPath>
    <clipPath id="clip-path-2">
      <rect id="Rectángulo_459898" data-name="Rectángulo 459898" width="74.412" height="74.442" fill="none"/>
    </clipPath>
  </defs>
  <g id="Grupo_1186134" data-name="Grupo 1186134" transform="translate(-413.192 -9435.133)">
    <g id="Grupo_1180081" data-name="Grupo 1180081" transform="translate(413.25 9435.191)">
      <g id="Grupo_1179924" data-name="Grupo 1179924" transform="translate(0 0)">
        <g id="Grupo_1179923" data-name="Grupo 1179923" transform="translate(0 0)" clip-path="url(#clip-path)">
          <path id="Trazado_1004716" data-name="Trazado 1004716" d="M74.59,149.181c-2.423,0-4.689-2.768-7.051-3-2.407-.235-5.167,2.037-7.5,1.574-2.367-.47-4.049-3.628-6.329-4.321-2.305-.7-5.459.985-7.662.069-2.222-.923-3.251-4.35-5.356-5.479s-5.541-.1-7.528-1.432-2.336-4.9-4.186-6.418-5.412-1.171-7.107-2.865-1.342-5.254-2.865-7.107-5.082-2.192-6.418-4.186-.3-5.41-1.432-7.527-4.556-3.135-5.48-5.356c-.916-2.2.77-5.357.07-7.662-.693-2.28-3.85-3.961-4.32-6.329C.962,86.809,3.234,84.048,3,81.642c-.231-2.363-3-4.629-3-7.052S2.768,69.9,3,67.539c.235-2.407-2.037-5.166-1.573-7.5.47-2.367,3.627-4.049,4.32-6.329.7-2.306-.985-5.459-.069-7.663.924-2.222,4.35-3.251,5.48-5.356s.1-5.54,1.432-7.528,4.9-2.336,6.418-4.186,1.171-5.412,2.866-7.107,5.254-1.342,7.107-2.865,2.192-5.082,4.186-6.418,5.41-.3,7.528-1.432,3.134-4.556,5.356-5.48c2.2-.916,5.357.77,7.663.069,2.28-.692,3.961-3.85,6.328-4.32C62.372.962,65.133,3.234,67.539,3c2.363-.231,4.629-3,7.052-3s4.689,2.768,7.051,3c2.407.235,5.167-2.037,7.5-1.574,2.367.47,4.049,3.628,6.329,4.321,2.305.7,5.459-.985,7.662-.069,2.222.923,3.251,4.35,5.356,5.48s5.541.1,7.528,1.432,2.337,4.9,4.186,6.418,5.412,1.171,7.107,2.866,1.342,5.254,2.865,7.107,5.082,2.192,6.418,4.186.3,5.41,1.432,7.528,4.556,3.135,5.479,5.356c.916,2.2-.77,5.357-.069,7.662.693,2.28,3.85,3.961,4.32,6.328.463,2.333-1.809,5.093-1.574,7.5.231,2.363,3,4.629,3,7.051s-2.768,4.689-3,7.052c-.235,2.406,2.037,5.166,1.574,7.5-.47,2.367-3.627,4.049-4.32,6.329-.7,2.305.985,5.459.069,7.662-.924,2.222-4.35,3.251-5.48,5.357s-.1,5.54-1.432,7.528-4.9,2.336-6.418,4.186-1.171,5.412-2.866,7.107-5.254,1.342-7.107,2.865-2.192,5.081-4.186,6.418-5.41.3-7.528,1.432-3.134,4.557-5.356,5.48c-2.2.916-5.357-.77-7.662-.069-2.28.692-3.961,3.85-6.328,4.32-2.333.463-5.093-1.809-7.5-1.574-2.363.231-4.629,3-7.052,3" transform="translate(0.35 0.35)" fill="#d35560"/>
          <path id="Trazado_1004717" data-name="Trazado 1004717" d="M14,81.535a67.535,67.535,0,1,1,67.535,67.535A67.535,67.535,0,0,1,14,81.535" transform="translate(-6.594 -6.594)" fill="#4d787e"/>
          <path id="Trazado_1004718" data-name="Trazado 1004718" d="M132.334,270.213c-.179-.759-.348-1.543-.509-2.312l-2.36-.3q1.057-.562,2.072-1.13-.225-1.156-.423-2.309c.54.53,1.093,1.077,1.663,1.6q.994-.618,1.945-1.239-.422,1.09-.87,2.178c.589.505,1.191,1.019,1.808,1.521l-2.372-.177q-.464,1.087-.955,2.171" transform="translate(-63.866 -130.676)" fill="#ffffc5"/>
          <path id="Trazado_1004719" data-name="Trazado 1004719" d="M113.789,266.762c-.064-.775-.113-1.577-.157-2.361l-2.288-.652q1.129-.4,2.219-.806-.049-1.177-.072-2.347c.455.6.919,1.229,1.4,1.829q1.075-.461,2.108-.932-.58,1.014-1.185,2.022c.507.586,1.024,1.192,1.561,1.772-.776-.161-1.546-.353-2.319-.528q-.621,1-1.269,2" transform="translate(-54.878 -128.909)" fill="#ffffc5"/>
          <path id="Trazado_1004720" data-name="Trazado 1004720" d="M96.012,260.643c.058-.789.127-1.579.2-2.363l-2.166-.983c.783-.146,1.556-.305,2.315-.467q.129-1.169.28-2.329c.358.667.728,1.343,1.113,2.021q1.132-.3,2.225-.608-.726.916-1.477,1.822c.413.657.836,1.325,1.277,1.987l-2.214-.87q-.766.9-1.556,1.79" transform="translate(-46.299 -125.885)" fill="#ffffc5"/>
          <path id="Trazado_1004721" data-name="Trazado 1004721" d="M79.414,251.99q.265-1.159.551-2.3c-.663-.434-1.344-.843-1.993-1.3.783-.008,1.584-.069,2.356-.112q.3-1.136.623-2.258.384,1.067.8,2.159c.766-.066,1.54-.171,2.29-.266q-.856.8-1.734,1.584.466,1.066.968,2.153l-2.062-1.187c-.594.517-1.2,1.036-1.8,1.531" transform="translate(-38.325 -121.677)" fill="#ffffc5"/>
          <path id="Trazado_1004722" data-name="Trazado 1004722" d="M64.353,241.022q.432-1.105.885-2.194c-.593-.526-1.215-1.021-1.777-1.582.769.115,1.567.177,2.343.242q.464-1.078.948-2.139.225,1.109.481,2.247c.755.064,1.543.065,2.3.082q-.965.664-1.952,1.311.3,1.12.643,2.265l-1.87-1.471c-.669.429-1.327.83-2,1.238" transform="translate(-31.127 -116.386)" fill="#ffffc5"/>
          <path id="Trazado_1004723" data-name="Trazado 1004723" d="M51.149,227.995q.589-1.028,1.2-2.037l-.779-.9c-.258-.3-.494-.62-.741-.929l1.128.317,1.149.273q.617-1,1.25-1.973.063,1.127.152,2.286l1.121.234,1.138.191q-1.055.516-2.127,1.012.14,1.148.309,2.327c-.545-.576-1.1-1.142-1.635-1.727q-1.07.473-2.159.926" transform="translate(-24.859 -110.134)" fill="#ffffc5"/>
          <path id="Trazado_1004724" data-name="Trazado 1004724" d="M39.841,213.191q.733-.928,1.481-1.835c-.212-.336-.434-.664-.637-1l-.594-1.031c.724.322,1.417.646,2.16.923.507-.6,1.006-1.179,1.532-1.767-.079.754-.131,1.508-.186,2.282.723.269,1.425.535,2.166.758-.746.236-1.5.467-2.255.686-.022.772-.029,1.551-.032,2.344-.451-.652-.939-1.279-1.359-1.952q-1.13.31-2.275.6" transform="translate(-19.411 -103.056)" fill="#ffffc5"/>
          <path id="Trazado_1004725" data-name="Trazado 1004725" d="M30.615,196.931q.862-.808,1.735-1.593c-.343-.716-.614-1.462-.909-2.2.671.425,1.309.848,1.992,1.237.582-.511,1.181-1.02,1.787-1.522-.212.742-.356,1.472-.529,2.229.683.37,1.327.742,2.024,1.074-.778.124-1.554.238-2.322.338-.159.771-.262,1.529-.386,2.314-.358-.707-.739-1.4-1.051-2.133q-1.165.138-2.342.253" transform="translate(-14.835 -95.309)" fill="#ffffc5"/>
          <path id="Trazado_1004726" data-name="Trazado 1004726" d="M24.019,179.289q.973-.669,1.952-1.313c-.235-.758-.377-1.54-.566-2.31.6.522,1.176,1.033,1.781,1.524.651-.417,1.333-.834,2-1.237-.326.7-.579,1.4-.86,2.124.617.469,1.213.929,1.836,1.366-.791.008-1.557,0-2.34-.016-.284.741-.492,1.474-.731,2.231-.259-.75-.515-1.5-.717-2.268q-1.174-.038-2.355-.1" transform="translate(-11.564 -86.782)" fill="#ffffc5"/>
          <path id="Trazado_1004727" data-name="Trazado 1004727" d="M20.215,160.664q1.062-.516,2.127-1.005c-.119-.785-.143-1.579-.214-2.369.513.605,1.005,1.2,1.532,1.774.706-.315,1.441-.624,2.164-.924-.429.647-.781,1.3-1.168,1.972.539.556,1.062,1.1,1.608,1.627-.781-.112-1.537-.237-2.309-.368-.392.69-.711,1.384-1.058,2.1l-.21-1.171c-.066-.391-.1-.786-.158-1.179q-1.155-.214-2.313-.453" transform="translate(-9.677 -77.667)" fill="#ffffc5"/>
          <path id="Trazado_1004728" data-name="Trazado 1004728" d="M19.269,141.764q1.128-.352,2.255-.679c0-.793.074-1.584.135-2.374.421.674.8,1.333,1.259,1.981.751-.207,1.5-.406,2.266-.595-.5.578-.959,1.172-1.441,1.779.453.63.873,1.246,1.353,1.848q-1.134-.34-2.237-.706c-.483.624-.9,1.263-1.353,1.915-.018-.792-.055-1.585-.018-2.378q-1.109-.382-2.218-.79" transform="translate(-9.207 -68.451)" fill="#ffffc5"/>
          <path id="Trazado_1004729" data-name="Trazado 1004729" d="M21.174,123q1.169-.181,2.333-.336c.074-.39.132-.783.218-1.169l.268-1.159c.312.729.595,1.437.951,2.146.778-.092,1.538-.178,2.325-.25-.574.5-1.122,1.015-1.688,1.543.353.69.672,1.36,1.067,2.028-.706-.335-1.426-.681-2.114-1.031-.553.548-1.077,1.115-1.619,1.694.111-.785.174-1.577.333-2.355q-1.039-.543-2.074-1.112" transform="translate(-10.152 -59.337)" fill="#ffffc5"/>
          <path id="Trazado_1004730" data-name="Trazado 1004730" d="M25.928,104.79q1.182,0,2.357.018c.239-.757.539-1.491.832-2.228.2.769.37,1.51.616,2.264.779.025,1.552.056,2.341.1-.65.4-1.263.834-1.9,1.271.247.736.46,1.445.75,2.165-.649-.438-1.3-.887-1.934-1.337-.633.458-1.233.941-1.857,1.432.226-.761.412-1.533.684-2.279q-.946-.692-1.884-1.411" transform="translate(-12.51 -50.53)" fill="#ffffc5"/>
          <path id="Trazado_1004731" data-name="Trazado 1004731" d="M33.429,87.557q1.169.173,2.325.37c.346-.714.77-1.386,1.158-2.077.083.789.155,1.557.267,2.329.761.139,1.54.3,2.306.457-.718.293-1.376.634-2.077.969.134.765.248,1.5.414,2.252-.582-.533-1.146-1.067-1.705-1.608-.709.35-1.361.744-2.054,1.134.327-.722.644-1.45,1.02-2.149q-.833-.827-1.654-1.678" transform="translate(-16.231 -42.232)" fill="#ffffc5"/>
          <path id="Trazado_1004732" data-name="Trazado 1004732" d="M43.489,71.68q1.128.345,2.241.71c.461-.645.972-1.253,1.456-1.881q-.054,1.188-.083,2.343,1.117.389,2.219.8c-.749.187-1.473.41-2.2.647q.023,1.16.07,2.287-.728-.91-1.438-1.839c-.753.241-1.471.524-2.2.813l.643-1,.688-.97q-.7-.943-1.388-1.908" transform="translate(-21.221 -34.623)" fill="#ffffc5"/>
          <path id="Trazado_1004733" data-name="Trazado 1004733" d="M55.356,57.5q1.064.506,2.109,1.031l1.72-1.643q-.226,1.17-.421,2.312,1.046.548,2.073,1.115c-.759.084-1.53.176-2.278.31Q58.413,61.78,58.3,62.9q-.585-1.008-1.152-2.034l-1.161.215c-.384.079-.76.17-1.144.259.508-.61,1.064-1.175,1.611-1.75q-.556-1.038-1.094-2.095" transform="translate(-26.851 -27.867)" fill="#ffffc5"/>
          <path id="Trazado_1004734" data-name="Trazado 1004734" d="M69.217,45.319c.65.436,1.293.879,1.939,1.34l1.938-1.379q-.394,1.129-.753,2.233.952.7,1.883,1.406c-.754-.018-1.544-.058-2.3-.035q-.311,1.124-.59,2.223-.431-1.084-.841-2.184c-.774.032-1.582.045-2.354.123.592-.529,1.238-.991,1.854-1.49q-.4-1.111-.775-2.237" transform="translate(-33.447 -22.109)" fill="#ffffc5"/>
          <path id="Trazado_1004735" data-name="Trazado 1004735" d="M84.831,34.886c.578.528,1.158,1.078,1.724,1.623l2.117-1.086q-.555,1.061-1.073,2.1.838.828,1.652,1.667c-.745-.133-1.508-.269-2.274-.382q-.473,1.07-.908,2.119-.266-1.138-.51-2.288c-.77-.084-1.562-.176-2.349-.232.677-.412,1.372-.8,2.057-1.2q-.23-1.158-.436-2.33" transform="translate(-40.923 -16.954)" fill="#ffffc5"/>
          <path id="Trazado_1004736" data-name="Trazado 1004736" d="M101.868,26.946q.744.928,1.463,1.866c.752-.251,1.5-.517,2.255-.756-.476.632-.93,1.284-1.376,1.919q.7.943,1.382,1.893-1.075-.365-2.191-.718c-.421.651-.822,1.313-1.214,1.961q-.094-1.166-.163-2.342-1.124-.3-2.289-.582l2.213-.874c-.035-.785-.066-1.583-.081-2.367" transform="translate(-49.12 -13.015)" fill="#ffffc5"/>
          <path id="Trazado_1004737" data-name="Trazado 1004737" d="M119.95,21.733q.6,1.029,1.166,2.064c.781-.136,1.56-.289,2.344-.41-.566.55-1.113,1.13-1.649,1.69q.554,1.037,1.082,2.079-1.008-.522-2.058-1.037c-.516.571-1.01,1.175-1.494,1.755q.082-1.167.19-2.341-1.066-.463-2.174-.916l2.318-.536c.083-.782.173-1.578.276-2.349" transform="translate(-57.86 -10.43)" fill="#ffffc5"/>
          <path id="Trazado_1004738" data-name="Trazado 1004738" d="M138.658,19.35q.436,1.108.845,2.216l2.378-.059q-.962.715-1.882,1.43.394,1.11.761,2.219-.92-.668-1.882-1.336c-.595.5-1.175,1.012-1.741,1.515q.256-1.142.539-2.285-.986-.619-2.013-1.234l2.372-.18c.2-.761.407-1.532.623-2.286" transform="translate(-66.94 -9.248)" fill="#ffffc5"/>
          <path id="Trazado_1004739" data-name="Trazado 1004739" d="M157.568,19.831c.179.759.348,1.543.509,2.312l2.36.3q-1.057.562-2.072,1.13.224,1.156.423,2.309c-.54-.53-1.093-1.077-1.662-1.6q-.994.618-1.945,1.239.422-1.09.87-2.178c-.589-.505-1.191-1.02-1.808-1.521l2.372.177q.464-1.087.955-2.171" transform="translate(-76.155 -9.486)" fill="#ffffc5"/>
          <path id="Trazado_1004740" data-name="Trazado 1004740" d="M176.272,23.17c.064.775.113,1.577.157,2.361l2.288.652q-1.129.4-2.219.806.049,1.177.072,2.347c-.455-.6-.918-1.229-1.4-1.829q-1.075.461-2.108.932.58-1.014,1.185-2.022c-.506-.586-1.024-1.192-1.561-1.771.776.161,1.546.352,2.319.527q.622-1,1.269-2" transform="translate(-85.303 -11.142)" fill="#ffffc5"/>
          <path id="Trazado_1004741" data-name="Trazado 1004741" d="M194.147,29.313c-.058.789-.126,1.578-.2,2.363l2.166.983c-.783.147-1.556.306-2.315.467q-.128,1.169-.28,2.329c-.358-.667-.728-1.343-1.113-2.021q-1.132.3-2.225.608.726-.916,1.476-1.822c-.412-.657-.836-1.325-1.277-1.987l2.214.87q.766-.9,1.556-1.79" transform="translate(-93.98 -14.189)" fill="#ffffc5"/>
          <path id="Trazado_1004742" data-name="Trazado 1004742" d="M210.61,38.133q-.265,1.159-.551,2.3c.663.434,1.344.843,1.993,1.3-.783.008-1.584.069-2.356.112q-.3,1.136-.623,2.258-.384-1.067-.8-2.159c-.766.066-1.54.171-2.29.266q.856-.8,1.734-1.584-.466-1.066-.968-2.153l2.062,1.187c.594-.517,1.2-1.036,1.8-1.531" transform="translate(-101.818 -18.564)" fill="#ffffc5"/>
          <path id="Trazado_1004743" data-name="Trazado 1004743" d="M225.67,49.168q-.432,1.105-.884,2.194c.593.526,1.215,1.021,1.777,1.582-.769-.115-1.567-.177-2.343-.242q-.464,1.078-.948,2.139-.225-1.109-.481-2.246c-.755-.064-1.543-.065-2.3-.082q.966-.664,1.952-1.311-.3-1.12-.643-2.264l1.87,1.47c.669-.429,1.326-.83,2-1.238" transform="translate(-109.015 -23.922)" fill="#ffffc5"/>
          <path id="Trazado_1004744" data-name="Trazado 1004744" d="M239.007,62.051q-.589,1.028-1.2,2.037l.779.9c.258.3.493.62.742.929L238.2,65.6l-1.149-.273q-.617,1-1.25,1.973-.063-1.127-.152-2.286l-1.121-.234-1.137-.191q1.055-.516,2.127-1.012-.14-1.148-.309-2.327c.545.576,1.1,1.142,1.635,1.727q1.071-.473,2.159-.926" transform="translate(-115.416 -30.03)" fill="#ffffc5"/>
          <path id="Trazado_1004745" data-name="Trazado 1004745" d="M250.33,76.837q-.733.928-1.481,1.835c.211.335.434.664.636,1l.594,1.031c-.724-.322-1.417-.646-2.16-.923-.507.6-1.006,1.179-1.532,1.767.079-.754.131-1.508.186-2.282-.723-.269-1.425-.535-2.166-.757.746-.236,1.5-.467,2.255-.686.022-.772.03-1.55.032-2.343.451.652.939,1.279,1.359,1.952q1.13-.31,2.275-.6" transform="translate(-120.879 -37.09)" fill="#ffffc5"/>
          <path id="Trazado_1004746" data-name="Trazado 1004746" d="M259.38,93.209q-.862.808-1.735,1.593c.343.716.614,1.462.909,2.2-.671-.425-1.309-.848-1.992-1.237-.582.511-1.181,1.02-1.787,1.522.212-.742.356-1.472.529-2.229-.683-.37-1.327-.742-2.024-1.074.778-.124,1.554-.238,2.322-.338.159-.771.262-1.529.385-2.314.358.708.739,1.4,1.051,2.134q1.165-.138,2.342-.253" transform="translate(-125.279 -44.949)" fill="#ffffc5"/>
          <path id="Trazado_1004747" data-name="Trazado 1004747" d="M265.935,110.814q-.973.67-1.952,1.313c.235.758.377,1.54.566,2.31-.6-.521-1.176-1.033-1.781-1.524-.651.417-1.333.834-2,1.237.327-.7.579-1.4.86-2.124-.617-.469-1.213-.929-1.836-1.366.791-.007,1.557,0,2.34.016.284-.741.492-1.474.731-2.231.259.75.515,1.5.717,2.268q1.174.038,2.355.1" transform="translate(-128.509 -53.44)" fill="#ffffc5"/>
          <path id="Trazado_1004748" data-name="Trazado 1004748" d="M269.832,129.258q-1.062.516-2.127,1.005c.119.785.143,1.579.214,2.369-.513-.605-1.005-1.2-1.532-1.774-.706.315-1.441.624-2.164.924.429-.647.781-1.3,1.168-1.972-.539-.556-1.062-1.1-1.608-1.627.781.112,1.537.237,2.309.367.392-.69.711-1.383,1.058-2.1l.21,1.171c.066.391.1.786.158,1.179q1.155.214,2.313.453" transform="translate(-130.489 -62.373)" fill="#ffffc5"/>
          <path id="Trazado_1004749" data-name="Trazado 1004749" d="M270.909,148.113q-1.128.352-2.255.679c0,.793-.074,1.584-.135,2.374-.421-.674-.8-1.333-1.259-1.981-.751.207-1.5.406-2.266.595.5-.578.959-1.172,1.441-1.779-.453-.63-.873-1.246-1.353-1.848q1.134.34,2.237.706c.483-.624.9-1.263,1.353-1.915.018.793.055,1.585.018,2.378q1.109.383,2.218.79" transform="translate(-131.09 -71.544)" fill="#ffffc5"/>
          <path id="Trazado_1004750" data-name="Trazado 1004750" d="M268.826,166.968q-1.17.181-2.334.336c-.074.39-.132.783-.218,1.169l-.268,1.159c-.312-.729-.595-1.437-.951-2.146-.778.092-1.538.178-2.326.25.574-.5,1.122-1.015,1.689-1.543-.353-.69-.672-1.36-1.067-2.028.706.335,1.426.681,2.114,1.031.553-.548,1.077-1.115,1.619-1.694-.111.785-.174,1.577-.333,2.355q1.039.542,2.074,1.111" transform="translate(-129.966 -80.748)" fill="#ffffc5"/>
          <path id="Trazado_1004751" data-name="Trazado 1004751" d="M264.024,185.4q-1.182,0-2.357-.018c-.24.757-.539,1.491-.832,2.228-.2-.769-.37-1.51-.616-2.264-.779-.025-1.552-.056-2.341-.1.65-.4,1.263-.834,1.9-1.271-.247-.735-.46-1.445-.75-2.165.649.437,1.3.886,1.934,1.337.633-.458,1.233-.941,1.857-1.431-.226.76-.412,1.532-.684,2.278q.946.692,1.884,1.411" transform="translate(-127.56 -89.783)" fill="#ffffc5"/>
          <path id="Trazado_1004752" data-name="Trazado 1004752" d="M256.61,202.53q-1.169-.173-2.325-.37c-.346.714-.77,1.386-1.158,2.077-.083-.789-.155-1.557-.267-2.329-.761-.139-1.54-.3-2.306-.457.718-.293,1.376-.635,2.077-.969-.134-.765-.248-1.5-.414-2.252.583.533,1.146,1.067,1.705,1.608.71-.35,1.361-.744,2.054-1.135-.327.722-.644,1.45-1.02,2.149q.832.827,1.654,1.678" transform="translate(-123.928 -97.974)" fill="#ffffc5"/>
          <path id="Trazado_1004753" data-name="Trazado 1004753" d="M246.77,218.341q-1.128-.344-2.241-.71c-.461.645-.972,1.253-1.456,1.881q.054-1.188.083-2.343-1.117-.389-2.219-.8c.749-.187,1.473-.41,2.2-.647q-.023-1.16-.07-2.287.728.91,1.438,1.839c.753-.241,1.471-.524,2.2-.813l-.643,1-.688.97q.7.943,1.388,1.908" transform="translate(-119.158 -105.517)" fill="#ffffc5"/>
          <path id="Trazado_1004754" data-name="Trazado 1004754" d="M234.741,232.58q-1.064-.506-2.109-1.031l-1.72,1.643q.226-1.17.421-2.312-1.046-.548-2.073-1.115c.759-.084,1.53-.176,2.278-.31q.146-1.154.263-2.279.585,1.007,1.152,2.034l1.161-.215c.384-.079.76-.17,1.144-.259-.508.61-1.064,1.175-1.611,1.75q.556,1.038,1.094,2.095" transform="translate(-113.365 -112.331)" fill="#ffffc5"/>
          <path id="Trazado_1004755" data-name="Trazado 1004755" d="M220.791,244.946c-.65-.436-1.293-.879-1.939-1.34l-1.938,1.379q.393-1.129.753-2.233-.952-.7-1.883-1.406c.754.018,1.544.058,2.3.035q.311-1.125.59-2.223.431,1.084.842,2.184c.774-.032,1.581-.045,2.353-.124-.591.529-1.238.991-1.854,1.49q.4,1.111.775,2.237" transform="translate(-106.68 -118.275)" fill="#ffffc5"/>
          <path id="Trazado_1004756" data-name="Trazado 1004756" d="M205.223,255.164c-.578-.528-1.158-1.078-1.724-1.622l-2.117,1.086q.555-1.061,1.072-2.1-.838-.829-1.652-1.668c.745.133,1.508.269,2.274.382q.472-1.069.908-2.119.266,1.139.51,2.289c.77.083,1.562.175,2.349.231-.677.413-1.371.8-2.057,1.2q.23,1.157.436,2.329" transform="translate(-99.25 -123.215)" fill="#ffffc5"/>
          <path id="Trazado_1004757" data-name="Trazado 1004757" d="M188.367,262.987q-.744-.928-1.463-1.866c-.752.251-1.5.517-2.255.756.476-.632.931-1.284,1.376-1.919q-.7-.943-1.382-1.894,1.075.365,2.191.718c.421-.651.822-1.313,1.214-1.961q.094,1.166.163,2.342,1.124.3,2.289.582l-2.213.874c.035.785.066,1.583.081,2.367" transform="translate(-91.235 -127.036)" fill="#ffffc5"/>
          <path id="Trazado_1004758" data-name="Trazado 1004758" d="M170.042,268.223q-.6-1.029-1.166-2.064c-.781.136-1.56.289-2.344.41.566-.55,1.113-1.13,1.649-1.69q-.554-1.037-1.082-2.079,1.008.522,2.058,1.037c.516-.571,1.01-1.175,1.495-1.755q-.082,1.167-.191,2.341,1.066.463,2.174.916l-2.318.536c-.083.782-.172,1.578-.276,2.349" transform="translate(-82.252 -129.645)" fill="#ffffc5"/>
          <path id="Trazado_1004759" data-name="Trazado 1004759" d="M151.223,270.76q-.435-1.108-.845-2.216L148,268.6q.962-.715,1.882-1.431-.394-1.109-.761-2.219.92.668,1.882,1.336c.595-.5,1.175-1.012,1.741-1.515q-.256,1.142-.539,2.285.986.618,2.013,1.233l-2.372.181c-.2.76-.407,1.532-.623,2.285" transform="translate(-73.059 -130.981)" fill="#ffffc5"/>
          <path id="Trazado_1004760" data-name="Trazado 1004760" d="M92.062,148.9A56.837,56.837,0,1,1,148.9,92.062,56.9,56.9,0,0,1,92.062,148.9" transform="translate(-17.122 -17.122)" fill="#d35560"/>
        </g>
      </g>
      <g id="Grupo_1180053" data-name="Grupo 1180053" transform="translate(39.422 38.995)">
        <rect id="Rectángulo_401104" data-name="Rectángulo 401104" width="71.038" height="71.894" transform="translate(0)" fill="#d35560"/>
      </g>
    </g>
    <g id="Grupo_1187633" data-name="Grupo 1187633" transform="translate(450.985 9472.912)">
      <g id="Grupo_1187632" data-name="Grupo 1187632" clip-path="url(#clip-path-2)">
        <path id="Trazado_1031669" data-name="Trazado 1031669" d="M118.862,217.273l-39.68-.006A1.244,1.244,0,0,1,77.9,216l-.007-17.327a1.216,1.216,0,0,1,1.25-1.245l8.674-.007.007-16.117a1.2,1.2,0,0,1,1.257-1.244l19.8,0a1.208,1.208,0,0,1,1.256,1.247l.007,16.117,8.673,0a1.225,1.225,0,0,1,1.25,1.249l-.009,17.321a1.242,1.242,0,0,1-1.2,1.28" transform="translate(-61.791 -142.83)" fill="#040504"/>
        <path id="Trazado_1031670" data-name="Trazado 1031670" d="M206.445,22.358l-1.345.065a4.961,4.961,0,0,1-9.921-.03H180.3a4.961,4.961,0,0,1-9.921.037l-1.24-.052a1.249,1.249,0,0,1-1.234-1.469l2.474-19.772A1.2,1.2,0,0,1,171.643.063l26.176.009a1.146,1.146,0,0,1,1.067,1.222l-.574,4.96,4.306.009a1.214,1.214,0,0,1,1.2.894l3.706,13.627a1.192,1.192,0,0,1-1.075,1.574" transform="translate(-133.18 -0.05)" fill="#040504"/>
        <path id="Trazado_1031671" data-name="Trazado 1031671" d="M59.492,108.418l-22.5,0L15.876,98.5,0,98.492V96l16.442.027,21.015,9.895,22.038.009Z" transform="translate(0 -76.155)" fill="#040505"/>
        <path id="Trazado_1031672" data-name="Trazado 1031672" d="M22.481,201.94l-12.447.028L10,203.181a1.214,1.214,0,0,1-.541,1.022,1.255,1.255,0,0,1-1.332.032L.809,199.371a1.376,1.376,0,0,1-.66-.9,1.19,1.19,0,0,1,.427-1.2l7.689-5.111a1.211,1.211,0,0,1,1.191.086,1.23,1.23,0,0,1,.539,1.029l.049,1.249,12.353,0a1.206,1.206,0,0,1,1.244,1.234v4.957a1.2,1.2,0,0,1-1.16,1.231" transform="translate(-0.102 -152.331)" fill="#040504"/>
        <path id="Trazado_1031673" data-name="Trazado 1031673" d="M259.537,202.013,247.185,202a1.238,1.238,0,0,1-1.25-1.245V195.8a1.2,1.2,0,0,1,1.245-1.232h12.354l.046-1.25a1.21,1.21,0,0,1,1.862-1.04l7.321,4.859a1.34,1.34,0,0,1,.666.893,1.2,1.2,0,0,1-.429,1.2l-7.688,5.11a1.215,1.215,0,0,1-1.733-1.114Z" transform="translate(-195.089 -152.379)" fill="#040504"/>
        <path id="Trazado_1031674" data-name="Trazado 1031674" d="M103.6,26.5,90,26.5l0-2.488,13.6,0Z" transform="translate(-71.395 -19.045)" fill="#040504"/>
        <path id="Trazado_1031675" data-name="Trazado 1031675" d="M91.6,50.5,78,50.5l0-2.488,13.6,0Z" transform="translate(-61.876 -38.083)" fill="#040504"/>
        <rect id="Rectángulo_459897" data-name="Rectángulo 459897" width="11.123" height="2.488" transform="translate(23.568 0.001)" fill="#040505"/>
        <path id="Trazado_1031676" data-name="Trazado 1031676" d="M302.419,146.473l-2.477,0v-2.459l2.461,0Z" transform="translate(-237.93 -114.242)" fill="#060707"/>
        <path id="Trazado_1031677" data-name="Trazado 1031677" d="M326.419,146.473l-2.477,0v-2.459l2.461,0Z" transform="translate(-256.968 -114.242)" fill="#060707"/>
        <path id="Trazado_1031678" data-name="Trazado 1031678" d="M350.419,146.473l-2.477,0v-2.459l2.461,0Z" transform="translate(-276.006 -114.242)" fill="#060707"/>
        <path id="Trazado_1031679" data-name="Trazado 1031679" d="M200.869,276.019l.412.194-.084,9.648c-.264,1.992-1.145,2.731-3.1,2.959l-11.949-.1-.241-.416-.014-12.316,4.96-.005.007,6.2a1.259,1.259,0,0,0,1.246,1.256l4.946-.011a1.218,1.218,0,0,0,1.24-1.245L198.3,276Z" transform="translate(-147.457 -218.926)" fill="#92613f"/>
        <path id="Trazado_1031680" data-name="Trazado 1031680" d="M95.193,282.59c.018.621.777,1.036,1.273,1.036l4.983.006a1.328,1.328,0,0,0,1.281-1.075l.064-6.248a6.389,6.389,0,0,1,2.789.214l-.009,9.513A2.862,2.862,0,0,1,102.686,289L90.555,289l-.182-.268,0-12.412,4.71-.027Z" transform="translate(-71.689 -219.129)" fill="#a87043"/>
        <path id="Trazado_1031681" data-name="Trazado 1031681" d="M143.191,198.8c.018.625.772,1.04,1.273,1.04l4.984,0a1.316,1.316,0,0,0,1.279-1.077l.064-6.247,2.709.013q.136,4.991.066,10.013c-.286,1.829-1.354,2.494-3.085,2.688l-11.929-.018-.181-.27.006-12.413,4.71-.027Z" transform="translate(-109.764 -152.707)" fill="#b27749"/>
        <path id="Trazado_1031682" data-name="Trazado 1031682" d="M142.812,198.385l-.182-6.188-4.529,0-.013,12.2,12.006.006a2.583,2.583,0,0,0,2.681-2.3l.011-9.923-2.261.025-.177,6.149-.05-6.37,4.961.01V206.87H137.895l0-14.881,4.963,0Z" transform="translate(-109.384 -152.291)" fill="#a86f47"/>
        <path id="Trazado_1031683" data-name="Trazado 1031683" d="M94.811,282.389,94.63,276.2l-4.529,0-.011,12.2,12.206-.018a2.492,2.492,0,0,0,2.479-2.668l.013-9.532-2.262.024-.177,6.149-.05-6.369,4.963.017v14.874l-17.367,0,0-14.884,4.963,0Z" transform="translate(-71.307 -218.928)" fill="#9e6740"/>
        <path id="Trazado_1031684" data-name="Trazado 1031684" d="M185.957,288.393l12.184.1a2.6,2.6,0,0,0,2.7-2.7l.082-9.685,2.388-.012v14.867l-17.338,0Z" transform="translate(-147.511 -219.013)" fill="#81543a"/>
        <path id="Trazado_1031685" data-name="Trazado 1031685" d="M176.4,196.976l-2.491.018v-4.931l2.479,0Z" transform="translate(-137.952 -152.356)" fill="#e1e3e3"/>
        <path id="Trazado_1031686" data-name="Trazado 1031686" d="M128.4,280.976l-2.491.018v-4.931l2.479,0Z" transform="translate(-99.875 -218.989)" fill="#e1e3e3"/>
        <path id="Trazado_1031687" data-name="Trazado 1031687" d="M224.4,280.976l-2.491.018v-4.931l2.479,0Z" transform="translate(-176.028 -218.989)" fill="#e1e3e3"/>
        <path id="Trazado_1031688" data-name="Trazado 1031688" d="M184.329,11.97q10.5.091,20.994.245a21.085,21.085,0,0,1-.646,3.932c-.488.524-.615.086-.693-.445l-.191.414-10.406,0a4.641,4.641,0,0,0-.14,1.778l-.415.277a100.346,100.346,0,0,0,11.186-.019,4.635,4.635,0,0,1-.1,2.281q-8.022.139-16.04.225c.657.169.621,2.256-.009,2.477q7.7.1,15.418.223c-.059,2.177-.679,3.6-3.01,3.9q-6.015.117-12.012-.131a6.3,6.3,0,0,0-3.274.028l-2.02.114c-.156.441-.407.612-.85.4L182.2,26.4l.452-3.3-.03-.191.65-4.771-.03-.191.65-4.77-.012-.208c-.024-.4-.013-1,.445-1" transform="translate(-144.469 -9.495)" fill="#3c8fce"/>
        <path id="Trazado_1031689" data-name="Trazado 1031689" d="M196.733,27.127a1.241,1.241,0,0,1,.836-.271l11.166-.011a2.474,2.474,0,0,0,2.436-2.086l.248-1.422-14.859.011c-.165,0-.248-.126-.224-.212l.191-.413,15.493-.051-.041-1.6-15.387,0-.247-.413c-.032-.085.049-.208.216-.208l15.415,0,.288-2.072H201.517c-.158,0-.243-.121-.219-.212l.193-.413,10.407.024a4.819,4.819,0,0,0,.138-1.8l.415-.28.3.433.7-3.953h-20.4a.251.251,0,0,1-.256-.212l23.228.019-2.177,17.358-14.5-.013a5.69,5.69,0,0,0-2.613-2.208" transform="translate(-152.937 -9.495)" fill="#3788be"/>
        <path id="Trazado_1031690" data-name="Trazado 1031690" d="M308.239,48.479q.293.262.063-.557l.558-4.406q.277.229.062-.583c.03-.282-.014-.743.195-.93l3.657.02,2.888,11.16c-2.072-2.669-5.168-3.313-7.771-1.273Z" transform="translate(-244.236 -33.319)" fill="#d8d8d7"/>
        <path id="Trazado_1031691" data-name="Trazado 1031691" d="M313.791,96.161a2.444,2.444,0,0,1,3.017,1.744,2.469,2.469,0,0,1-4.727,1.42,2.441,2.441,0,0,1,1.71-3.164" transform="translate(-247.457 -76.21)" fill="#4f4f4f"/>
        <path id="Trazado_1031692" data-name="Trazado 1031692" d="M193.791,96.161a2.444,2.444,0,0,1,3.017,1.744,2.469,2.469,0,0,1-4.727,1.42,2.441,2.441,0,0,1,1.71-3.164" transform="translate(-152.266 -76.21)" fill="#4f4f4f"/>
        <path id="Trazado_1031693" data-name="Trazado 1031693" d="M184.24,82.522a7.683,7.683,0,0,0-2.977,2.411,9.124,9.124,0,0,1,.189-3.166,3.41,3.41,0,0,1,.051,1.139c.38-.16.222-.417.285-.532a3.053,3.053,0,0,1,2.452.148" transform="translate(-143.717 -64.862)" fill="#3585ba"/>
        <path id="Trazado_1031694" data-name="Trazado 1031694" d="M312.579,47.086l.062-.583a1.315,1.315,0,0,1,.1,1.363,1.776,1.776,0,0,1-.164-.78" transform="translate(-247.955 -36.889)" fill="#e3e3e3"/>
        <path id="Trazado_1031695" data-name="Trazado 1031695" d="M309.572,71.192c.1-.16.041-.379.063-.557a1.285,1.285,0,0,1,.1,1.338,1.774,1.774,0,0,1-.165-.781" transform="translate(-245.57 -56.032)" fill="#e2e2e1"/>
        <path id="Trazado_1031696" data-name="Trazado 1031696" d="M190.655,17.029l-.012-.208c.366.1.42.84.054,1.109Z" transform="translate(-151.229 -13.343)" fill="#4698d4"/>
        <path id="Trazado_1031697" data-name="Trazado 1031697" d="M187.59,41.092l-.03-.191c.383.088.437.823.072,1.092Z" transform="translate(-148.783 -32.445)" fill="#4698d4"/>
        <path id="Trazado_1031698" data-name="Trazado 1031698" d="M184.59,65.092l-.03-.191c.383.088.437.823.072,1.092Z" transform="translate(-146.403 -51.483)" fill="#4698d4"/>
        <path id="Trazado_1031699" data-name="Trazado 1031699" d="M34.376,212.944l-12.371.01c-.724,0-1.184.492-1.3,1.343l-3.893-2.591,3.919-2.684a1.309,1.309,0,0,0,1.28,1.44l12.367.007Z" transform="translate(-13.335 -165.808)" fill="#67a652"/>
        <path id="Trazado_1031700" data-name="Trazado 1031700" d="M270.644,213.308l-12.636-.049v-2.47l12.37,0a1.4,1.4,0,0,0,1.315-1.368l3.892,2.6-3.9,2.583c-.1-.591-.4-1.3-1.04-1.3" transform="translate(-204.665 -166.127)" fill="#68a652"/>
        <path id="Trazado_1031701" data-name="Trazado 1031701" d="M209.92,56.473,209.929,54l16.093,0-.005,2.484Z" transform="translate(-166.52 -42.832)" fill="#040504"/>
        <path id="Trazado_1031702" data-name="Trazado 1031702" d="M245.071,30.019l-.013,2.5-11.14-.026.014-2.469Z" transform="translate(-185.557 -23.813)" fill="#040505"/>
        <path id="Trazado_1031703" data-name="Trazado 1031703" d="M320.415,104.5l-2.476,0v-2.464H320.4Z" transform="translate(-252.207 -80.94)" fill="#040505"/>
        <path id="Trazado_1031704" data-name="Trazado 1031704" d="M200.415,104.5l-2.476,0v-2.464H200.4Z" transform="translate(-157.016 -80.94)" fill="#040505"/>
      </g>
    </g>
  </g>
</svg>
