<svg xmlns="http://www.w3.org/2000/svg" xmlns:xlink="http://www.w3.org/1999/xlink" width="84" height="84" viewBox="0 0 84 84">
  <defs>
    <clipPath id="clip-path">
      <rect id="Rectángulo_459907" data-name="Rectángulo 459907" width="59.812" height="47.883" fill="none"/>
    </clipPath>
  </defs>
  <g id="Grupo_1180558" data-name="Grupo 1180558" transform="translate(-217.711 -4044)">
    <rect id="Rectángulo_456489" data-name="Rectángulo 456489" width="84" height="84" rx="10" transform="translate(217.711 4044)" fill="#f2a4ab"/>
    <g id="Grupo_1187650" data-name="Grupo 1187650" transform="translate(229.711 4062)">
      <g id="Grupo_1187649" data-name="Grupo 1187649" clip-path="url(#clip-path)">
        <path id="Trazado_1031990" data-name="Trazado 1031990" d="M143.921,50.692a4.441,4.441,0,0,0-.333-2.007l.152-.332,9.025-.021q.762-.426.565-1.772c.059-.451.3-.419.69-.345a2.429,2.429,0,0,0,1.878,1.066A33.138,33.138,0,0,0,166.61,34.075c.441-.976,1.885-4.17,1.612-4.923-4.035-3.037-8.284-6.111-12.442-8.988l-.563.159-9.274,6.615a.607.607,0,0,1-.61-.32l-.035-6.977q-.289-.7-1.373-.512l-.2-.336A15.087,15.087,0,0,0,144,16.77q-.014-.345.527-.48-.271-1-.529-2.013c.726-1.052,4.692-2.317,6.08-2.531,1.137,2.446,2.933,4.187,5.772,4.074,2.646-.105,4.219-1.8,5.294-4.07a14.141,14.141,0,0,1,6.075,2.529c-1,2.627-.821,5.4,1.5,7.235a5.51,5.51,0,0,0,5.921.656l.49,0c1.061.845,2.237,4.607,2.457,6.04-2.5,1.14-4.252,3.036-4.059,5.919.172,2.569,1.846,4.079,4.063,5.128a14.072,14.072,0,0,1-2.541,6.1c-2.539-.99-5.226-.875-7.094,1.3-1.7,1.98-1.57,4.207-.735,6.547a14.666,14.666,0,0,1-6.074,2.521c-1.132-2.448-2.937-4.186-5.77-4.083-2.632.1-4.237,1.824-5.3,4.086-1.326-.192-5.453-1.544-6.089-2.548q.3-1.04.543-2.086a.615.615,0,0,1-.61-.4" transform="translate(-119.739 -9.795)" fill="#3d8fcf"/>
        <path id="Trazado_1031991" data-name="Trazado 1031991" d="M211.993,39.193l-1.928.046a.148.148,0,0,1-.087-.115l1.751-.054c.142,0,.2,0,.264.123" transform="translate(-175.101 -32.579)" fill="#3e91d0"/>
        <path id="Trazado_1031992" data-name="Trazado 1031992" d="M320.078,140.585l-.051-1.414a.145.145,0,0,1,.113-.087l.055,1.415a.188.188,0,0,1-.117.087" transform="translate(-266.872 -115.983)" fill="#4496d3"/>
        <path id="Trazado_1031993" data-name="Trazado 1031993" d="M213.333,248.2l-1.262.054a.242.242,0,0,1-.087-.107l1.084-.065c.134-.008.2.012.265.118" transform="translate(-176.774 -206.875)" fill="#4395d3"/>
        <path id="Trazado_1031994" data-name="Trazado 1031994" d="M135.222,40.9a2.679,2.679,0,0,1,.959.141,5.2,5.2,0,0,1-.645,2.236,22.085,22.085,0,0,0,5.746,2.407,5.891,5.891,0,0,1,11.267,0,22.666,22.666,0,0,0,5.727-2.376,5.9,5.9,0,0,1,7.973-7.994,21.019,21.019,0,0,0,2.394-5.748,5.884,5.884,0,0,1,0-11.249,21.552,21.552,0,0,0-2.342-5.695,10.307,10.307,0,0,1-2.457.687,6.125,6.125,0,0,1-5.194-2.573,5.912,5.912,0,0,1-.375-6.141,21.133,21.133,0,0,0-5.727-2.382,5.891,5.891,0,0,1-11.26,0A21.535,21.535,0,0,0,135.546,4.6a5.629,5.629,0,0,1,.653,2.288l-.9.089-1.084.055a3.943,3.943,0,0,0-.841-2.118.987.987,0,0,1,.22-1.449A23.537,23.537,0,0,1,141.938.017a.969.969,0,0,1,1.11.861,3.887,3.887,0,0,0,7.737,0,.961.961,0,0,1,1.106-.858,23.814,23.814,0,0,1,8.144,3.308,1.071,1.071,0,0,1,.43,1.611,3.887,3.887,0,0,0,5.467,5.451,1,1,0,0,1,1.457.225,23.374,23.374,0,0,1,3.445,8.34.96.96,0,0,1-.863,1.112,3.887,3.887,0,0,0,0,7.736.964.964,0,0,1,.86,1.108,23.508,23.508,0,0,1-3.44,8.347.962.962,0,0,1-1.388.294,3.909,3.909,0,0,0-5.493,5.512.988.988,0,0,1-.258,1.361,23.624,23.624,0,0,1-8.345,3.44.989.989,0,0,1-1.123-.873,3.887,3.887,0,0,0-7.736,0,.969.969,0,0,1-1.111.864,23.5,23.5,0,0,1-8.342-3.435c-1.245-.818.553-1.849.593-3.535Z" transform="translate(-111.039 0)" fill="#040504"/>
        <path id="Trazado_1031995" data-name="Trazado 1031995" d="M290.079,241.6l-.051-1.428a.168.168,0,0,1,.1-.086,2.684,2.684,0,0,1-.052,1.514" transform="translate(-241.855 -200.209)" fill="#090909"/>
        <path id="Trazado_1031996" data-name="Trazado 1031996" d="M23.988,54.17l1.07.02a.948.948,0,0,1,.847.971l.023,6.945L35.3,55.421a.994.994,0,0,1,1.193-.035l12.032,8.7a.953.953,0,0,1,.307,1.048A33.989,33.989,0,0,1,36.5,82.834a1.018,1.018,0,0,1-1.335-.055l-1.237-1.047-.05,1.326a.991.991,0,0,1-1,1l-9.03.009H1.025a1,1,0,0,1-1.02-1.019l0-13.92a.976.976,0,0,1,1-1l6.968-.005.005-12.948a.966.966,0,0,1,1.009-1Z" transform="translate(-0.001 -45.173)" fill="#040504"/>
        <path id="Trazado_1031997" data-name="Trazado 1031997" d="M161.863,73.576l.334.509q.016,5.207.033,10.421l-.329.945c.176.456-.024.521-.469.41l-1.83-1.806a6.112,6.112,0,0,0-.9.853,19.654,19.654,0,0,0,2.943,3l.158.369.333.15.051,7.941c-.087.274-.3.548-.575.395a31.735,31.735,0,0,1-10.548-15.394Z" transform="translate(-125.97 -61.355)" fill="#dadada"/>
        <path id="Trazado_1031998" data-name="Trazado 1031998" d="M197.405,119.214a1.317,1.317,0,0,1-.828-.451l-2.819-2.856,1.447-1.391,1.982,2c.126.118.243-.026.318-.13l4.11-5.714,1.622,1.149-4.857,6.818a1.149,1.149,0,0,1-.975.575" transform="translate(-161.575 -92.289)" fill="#040505"/>
        <path id="Trazado_1031999" data-name="Trazado 1031999" d="M214.569,96.766c.175.013.244-.074.244-.2l-.053-8.291a2.772,2.772,0,0,1,.711-.776l4.621-6.565a3.285,3.285,0,0,0-1.1-.661l-3.745,5.207-.385-.034-.037-11.875,10.787,7.781a31.953,31.953,0,0,1-10.67,15.518c-.12.095-.289-.056-.371-.11" transform="translate(-178.93 -61.355)" fill="#c3c2c2"/>
        <path id="Trazado_1032000" data-name="Trazado 1032000" d="M64.347,71.675c.015.5.621.835,1.023.836l4,0a1.057,1.057,0,0,0,1.028-.865l.051-5.019,2.177.011q.11,4.01.053,8.045A2.384,2.384,0,0,1,70.2,76.844l-9.584-.015-.146-.216,0-9.972,3.784-.022Z" transform="translate(-50.429 -55.553)" fill="#b27749"/>
        <path id="Trazado_1032001" data-name="Trazado 1032001" d="M16.349,155.452c.015.5.624.832,1.023.832l4,0a1.067,1.067,0,0,0,1.029-.864l.051-5.019a5.132,5.132,0,0,1,2.24.172l-.007,7.643a2.3,2.3,0,0,1-2.319,2.379l-9.746,0-.146-.216,0-9.972,3.784-.022Z" transform="translate(-10.405 -125.378)" fill="#a87043"/>
        <path id="Trazado_1032002" data-name="Trazado 1032002" d="M120.045,157.908c.632,1.016-.579,2.22-1.587,2.433l-10.257-.014-.2-.333-.011-9.895,3.985,0,.005,4.979a1.011,1.011,0,0,0,1,1.009l3.973-.005a1.115,1.115,0,0,0,1.027-.792Z" transform="translate(-90.056 -125.165)" fill="#92613f"/>
        <path id="Trazado_1032003" data-name="Trazado 1032003" d="M15.948,155.242l-.146-4.972-3.639,0-.009,9.8,9.806-.015a2,2,0,0,0,1.991-2.143l.011-7.658-1.818.019L22,155.215l-.04-5.117,3.987.014v11.95H12V150.1l3.987,0Z" transform="translate(-10.004 -125.167)" fill="#9e6740"/>
        <path id="Trazado_1032004" data-name="Trazado 1032004" d="M63.949,71.232,63.8,66.26H60.165l-.01,9.805,9.645,0a2.075,2.075,0,0,0,2.154-1.851l.009-7.972-1.816.02L70,71.205l-.04-5.118,3.989.016-.029,7.425c-.493.335-1.129.669-1,1.357a27.569,27.569,0,0,0,1.067,3.163H60V66.094l3.987,0Z" transform="translate(-50.032 -55.11)" fill="#a86f47"/>
        <path id="Trazado_1032005" data-name="Trazado 1032005" d="M108.061,199.22l10.111.045a2.145,2.145,0,0,0,1.931-2.131l1.883,2.017v2.131H108.073Z" transform="translate(-90.112 -164.392)" fill="#80543a"/>
        <path id="Trazado_1032006" data-name="Trazado 1032006" d="M98.011,70.121l-2,.015V66.175l1.992,0Z" transform="translate(-80.063 -55.183)" fill="#e3e5e4"/>
        <path id="Trazado_1032007" data-name="Trazado 1032007" d="M50.011,154.121l-2,.015v-3.961l1.992,0Z" transform="translate(-40.036 -125.231)" fill="#e3e5e4"/>
        <path id="Trazado_1032008" data-name="Trazado 1032008" d="M145.909,151.789a4.814,4.814,0,0,1,.118,2.129l-2.028.006.012-3.929c.265-.081.892-.146,1.008.077Z" transform="translate(-120.081 -125.019)" fill="#e2e4e3"/>
      </g>
    </g>
  </g>
</svg>
