<svg xmlns="http://www.w3.org/2000/svg" xmlns:xlink="http://www.w3.org/1999/xlink" width="346" height="232" viewBox="0 0 346 232">
  <defs>
    <clipPath id="clip-path">
      <rect id="Rectángulo_459818" data-name="Rectángulo 459818" width="313" height="210" transform="translate(-0.5 -0.499)" fill="none"/>
    </clipPath>
  </defs>
  <g id="Grupo_1187594" data-name="Grupo 1187594" transform="translate(-722.711 -3215)">
    <rect id="Rectángulo_458684" data-name="Rectángulo 458684" width="346" height="232" rx="10" transform="translate(722.711 3215)" fill="#fee7bd"/>
    <g id="Grupo_1187593" data-name="Grupo 1187593" transform="translate(740.211 3226.499)">
      <rect id="Rectángulo_459812" data-name="Rectángulo 459812" width="223.47" height="148.011" transform="translate(63.334 30.019)" fill="#fff"/>
      <g id="Grupo_1187592" data-name="Grupo 1187592">
        <g id="Grupo_1187591" data-name="Grupo 1187591" clip-path="url(#clip-path)">
          <path id="Trazado_1030570" data-name="Trazado 1030570" d="M474.843,267.012H251.372a.251.251,0,0,1-.251-.251V118.75a.251.251,0,0,1,.251-.251h223.47a.251.251,0,0,1,.251.251V266.761a.251.251,0,0,1-.251.251m-223.219-.5H474.591V119H251.623Z" transform="translate(-188.038 -88.732)"/>
          <path id="Trazado_1030571" data-name="Trazado 1030571" d="M652.651,299.625h-2.712a2.191,2.191,0,0,1-2.189-2.189V286.67a1.676,1.676,0,0,0-.494-1.193l-3.928-3.928a2.175,2.175,0,0,1-.641-1.548v-4.277A1.688,1.688,0,0,0,641,274.038h-9.2a2.173,2.173,0,0,1-1.548-.641l-4.9-4.9a2.173,2.173,0,0,1-.641-1.548v-6.069a2.2,2.2,0,0,1,.641-1.548l6.214-6.214a1.676,1.676,0,0,0,.494-1.193v-3.266a2.192,2.192,0,0,1,2.189-2.189h6.449a2.191,2.191,0,0,1,2.189,2.189v2.165a1.689,1.689,0,0,0,1.687,1.687H651.9a1.675,1.675,0,0,0,1.192-.494l.6-.6a1.687,1.687,0,0,0-1.193-2.879h-6.152a2.174,2.174,0,0,1-1.548-.641l-5.241-5.241a2.2,2.2,0,0,1-.641-1.548v-4.77a2.175,2.175,0,0,1,.641-1.548l13.35-13.35a2.174,2.174,0,0,1,1.548-.641h14.222a1.676,1.676,0,0,0,1.193-.494l11.329-11.33a1.677,1.677,0,0,0,.469-.906l.575-3.341a2.189,2.189,0,0,1,3.705-1.177l5.4,5.4a1.675,1.675,0,0,0,1.192.494h26.919a1.676,1.676,0,0,0,1.193-.494l4.262-4.262a2.2,2.2,0,0,1,1.548-.641h10.654a2.192,2.192,0,0,1,2.189,2.189v10.6a2.175,2.175,0,0,1-.641,1.548l-5.129,5.129a1.676,1.676,0,0,0-.494,1.193v6.376a2.189,2.189,0,0,1-3.737,1.548l-2.836-2.836a2.176,2.176,0,0,1-.641-1.548v-2.125a1.687,1.687,0,0,0-2.879-1.192l-3.842,3.842a1.676,1.676,0,0,0-.494,1.193v2.293a1.689,1.689,0,0,0,1.687,1.687h2.947a2.191,2.191,0,0,1,2.189,2.189v8a2.174,2.174,0,0,1-.641,1.548l-16.2,16.2a1.677,1.677,0,0,0-.494,1.193v3.356a2.189,2.189,0,0,1-3.737,1.548l-5.557-5.557a1.686,1.686,0,0,0-2.385,0l-5.928,5.929a2.192,2.192,0,0,1-3.1,0l-5.109-5.109a1.675,1.675,0,0,0-1.193-.494h-5.649a1.689,1.689,0,0,0-1.687,1.687v.934a2.192,2.192,0,0,1-2.189,2.189h-2.181a2.174,2.174,0,0,1-1.548-.641l-3.731-3.731a1.687,1.687,0,0,0-2.879,1.192v2.8a1.675,1.675,0,0,0,.494,1.192l3.9,3.9a1.676,1.676,0,0,0,1.192.494,2.189,2.189,0,0,1,1.548,3.737l-3.787,3.786a1.677,1.677,0,0,0-.494,1.193V288.2a2.176,2.176,0,0,1-.641,1.548l-9.24,9.24a2.2,2.2,0,0,1-1.548.641m-18.406-52.657a1.689,1.689,0,0,0-1.687,1.687v3.266a2.175,2.175,0,0,1-.641,1.548l-6.214,6.214a1.7,1.7,0,0,0-.494,1.192v6.069a1.674,1.674,0,0,0,.494,1.193l4.905,4.905a1.674,1.674,0,0,0,1.192.494H641a2.191,2.191,0,0,1,2.189,2.189V280a1.676,1.676,0,0,0,.494,1.192l3.928,3.928a2.175,2.175,0,0,1,.641,1.548v10.766a1.688,1.688,0,0,0,1.687,1.687h2.712a1.7,1.7,0,0,0,1.193-.494l9.24-9.24a1.677,1.677,0,0,0,.494-1.193v-6.728a2.176,2.176,0,0,1,.641-1.548l3.787-3.786a1.687,1.687,0,0,0-1.193-2.879,2.175,2.175,0,0,1-1.548-.641l-3.9-3.9a2.174,2.174,0,0,1-.641-1.548v-2.8a2.189,2.189,0,0,1,3.737-1.548l3.731,3.731a1.675,1.675,0,0,0,1.193.494h2.181a1.689,1.689,0,0,0,1.687-1.687v-.934a2.191,2.191,0,0,1,2.189-2.189h5.649a2.174,2.174,0,0,1,1.548.641l5.109,5.109a1.689,1.689,0,0,0,2.385,0l5.928-5.929a2.188,2.188,0,0,1,3.1,0l5.557,5.557a1.687,1.687,0,0,0,2.879-1.193v-3.356a2.176,2.176,0,0,1,.641-1.548l16.2-16.2a1.675,1.675,0,0,0,.494-1.193v-8a1.689,1.689,0,0,0-1.687-1.687H720.3a2.192,2.192,0,0,1-2.189-2.189v-2.293a2.176,2.176,0,0,1,.641-1.548l3.842-3.842a2.189,2.189,0,0,1,3.737,1.548v2.125a1.676,1.676,0,0,0,.494,1.193l2.836,2.836a1.687,1.687,0,0,0,2.879-1.193V224.7a2.175,2.175,0,0,1,.641-1.548l5.129-5.129a1.676,1.676,0,0,0,.494-1.193v-10.6a1.689,1.689,0,0,0-1.687-1.687H726.46a1.7,1.7,0,0,0-1.193.494l-4.262,4.262a2.175,2.175,0,0,1-1.548.641H692.539a2.174,2.174,0,0,1-1.548-.641l-5.4-5.4a1.687,1.687,0,0,0-2.855.907l-.575,3.341a2.176,2.176,0,0,1-.609,1.176l-11.329,11.33a2.174,2.174,0,0,1-1.548.641H654.452a1.675,1.675,0,0,0-1.193.494l-13.35,13.35a1.676,1.676,0,0,0-.494,1.193v4.77a1.7,1.7,0,0,0,.494,1.193l5.241,5.241a1.676,1.676,0,0,0,1.193.494h6.152a2.189,2.189,0,0,1,1.548,3.737l-.6.6a2.174,2.174,0,0,1-1.548.641H644.57a2.191,2.191,0,0,1-2.189-2.189v-2.165a1.689,1.689,0,0,0-1.687-1.687Z" transform="translate(-467.778 -151.932)"/>
          <path id="Trazado_1030572" data-name="Trazado 1030572" d="M987.4,547.244h-5.874a1.535,1.535,0,0,1-1.534-1.533v-4.8a1.032,1.032,0,0,0-1.031-1.031h-8.543a1.025,1.025,0,0,0-.729.3l-1.812,1.812a1.534,1.534,0,0,1-2.618-1.084v-7.476a1.525,1.525,0,0,1,.449-1.085l9.712-9.712a1.524,1.524,0,0,1,1.085-.449h4.287a1.529,1.529,0,0,1,1.526,1.381l.48,4.8a1.029,1.029,0,0,0,.3.626l.263.263a1.031,1.031,0,0,0,1.761-.729,1.534,1.534,0,0,1,2.618-1.084l5.763,5.763a1.524,1.524,0,0,1,.449,1.084V540.7a1.525,1.525,0,0,1-.449,1.084l-5.014,5.014a1.522,1.522,0,0,1-1.084.449m-16.981-7.869h8.543a1.535,1.535,0,0,1,1.534,1.534v4.8a1.032,1.032,0,0,0,1.031,1.031H987.4a1.024,1.024,0,0,0,.729-.3l5.014-5.014a1.026,1.026,0,0,0,.3-.729v-6.411a1.025,1.025,0,0,0-.3-.729l-5.763-5.763a1.031,1.031,0,0,0-1.76.729A1.534,1.534,0,0,1,983,529.606l-.263-.263a1.534,1.534,0,0,1-.442-.932l-.48-4.8a1.028,1.028,0,0,0-1.026-.929H976.5a1.025,1.025,0,0,0-.729.3l-9.712,9.712a1.024,1.024,0,0,0-.3.729v7.476a1.031,1.031,0,0,0,1.76.729l1.812-1.812a1.524,1.524,0,0,1,1.084-.449" transform="translate(-722.779 -391.01)"/>
          <path id="Trazado_1030573" data-name="Trazado 1030573" d="M477.692,513.136a3.267,3.267,0,0,1-2.322-.979l-2.55-2.55a3.292,3.292,0,0,1-.97-2.343V490a3.292,3.292,0,0,1,.97-2.343l1.155-1.155a2.812,2.812,0,0,0,0-3.976l-6.346-6.346a3.318,3.318,0,0,1,0-4.686l7.963-7.963a3.3,3.3,0,0,1,4.1-.467l17.888,11.181a3.3,3.3,0,0,1,1.557,2.81v5.909a3.29,3.29,0,0,1-.971,2.343L481.85,501.621a2.792,2.792,0,0,0-.823,1.988v6.205a3.263,3.263,0,0,1-2.046,3.061,3.363,3.363,0,0,1-1.289.26m.24-50.08a2.8,2.8,0,0,0-1.985.827l-7.963,7.963a2.815,2.815,0,0,0,0,3.976l6.346,6.346a3.314,3.314,0,0,1,0,4.686l-1.155,1.155a2.792,2.792,0,0,0-.823,1.988v17.268a2.792,2.792,0,0,0,.823,1.988l2.55,2.55a2.811,2.811,0,0,0,4.8-1.988v-6.205a3.292,3.292,0,0,1,.971-2.343l16.316-16.316a2.792,2.792,0,0,0,.823-1.988v-5.909a2.8,2.8,0,0,0-1.321-2.384l-17.888-11.182a2.81,2.81,0,0,0-1.493-.431" transform="translate(-349.433 -346.358)"/>
          <path id="Trazado_1030574" data-name="Trazado 1030574" d="M348.195,263.054a2.728,2.728,0,0,1-.321-.019l-.457-.054-5.187-.384a2.641,2.641,0,0,1-1.166-.372l-7.547-4.564a2.643,2.643,0,0,1-1.269-2.25V243a2.114,2.114,0,0,0-.623-1.5l-3.708-3.708a2.632,2.632,0,0,1,0-3.718l.718-.718a2.112,2.112,0,0,0,.623-1.5v-7.425a2.112,2.112,0,0,0-.623-1.5l-3.12-3.12a2.127,2.127,0,0,0-3.008,0l-3.014,3.014a2.629,2.629,0,1,1-3.718-3.718l.558-.558a2.128,2.128,0,0,0,0-3.008l-2.616-2.616a2.632,2.632,0,0,1,0-3.718l15.961-15.962a2.629,2.629,0,0,1,3.718,0l12.972,12.972a2.127,2.127,0,0,0,3.008,0l5.712-5.712a2.632,2.632,0,0,1,3.719,0l14.253,14.253a2.629,2.629,0,0,1,0,3.718l-1.655,1.655a2.63,2.63,0,0,1-3.718,0l-4.11-4.11a2.13,2.13,0,0,0-3.008,0l-4.537,4.537a2.127,2.127,0,0,0,0,3.008l4.858,4.858a2.127,2.127,0,0,0,3.008,0l1.335-1.335a2.63,2.63,0,0,1,3.718,0l4.746,4.746a2.629,2.629,0,0,1,0,3.718L357.5,251.739a2.611,2.611,0,0,1-1.859.77h-9.022a2.129,2.129,0,0,0-2.127,2.126v.433a2.129,2.129,0,0,0,2.127,2.127h.961a2.613,2.613,0,0,1,1.859.77l.6.6a2.63,2.63,0,0,1-1.845,4.489m-24.184-44.377a2.611,2.611,0,0,1,1.859.77l3.12,3.12a2.611,2.611,0,0,1,.77,1.859v7.425a2.611,2.611,0,0,1-.77,1.859l-.718.718a2.129,2.129,0,0,0,0,3.008l3.708,3.708a2.613,2.613,0,0,1,.77,1.859v12.407a2.138,2.138,0,0,0,1.026,1.82l7.547,4.564a2.139,2.139,0,0,0,.944.3l5.2.385.468.055a2.127,2.127,0,0,0,1.752-3.616l-.6-.6a2.113,2.113,0,0,0-1.5-.623h-.961a2.632,2.632,0,0,1-2.629-2.629v-.433a2.632,2.632,0,0,1,2.629-2.629h9.022a2.112,2.112,0,0,0,1.5-.623l16.194-16.194a2.129,2.129,0,0,0,0-3.008l-4.746-4.746a2.127,2.127,0,0,0-3.008,0l-1.335,1.335a2.632,2.632,0,0,1-3.718,0l-4.858-4.858a2.629,2.629,0,0,1,0-3.719l4.538-4.538a2.63,2.63,0,0,1,3.719,0l4.11,4.11a2.127,2.127,0,0,0,3.008,0l1.655-1.655a2.127,2.127,0,0,0,0-3.008l-14.254-14.253a2.129,2.129,0,0,0-3.008,0l-5.712,5.712a2.629,2.629,0,0,1-3.718,0l-12.972-12.972a2.127,2.127,0,0,0-3.008,0l-15.962,15.961a2.129,2.129,0,0,0,0,3.008l2.616,2.616a2.63,2.63,0,0,1,0,3.718l-.558.558a2.127,2.127,0,1,0,3.008,3.008l3.014-3.014a2.612,2.612,0,0,1,1.859-.77" transform="translate(-234.334 -144.118)"/>
          <path id="Trazado_1030575" data-name="Trazado 1030575" d="M524.038,200.649a2.427,2.427,0,0,1-.93-.188,2.353,2.353,0,0,1-1.476-2.208V184.234a1.877,1.877,0,0,0-.553-1.335l-1.952-1.952a2.393,2.393,0,0,1,0-3.38l2.991-2.991a1.888,1.888,0,0,0-2.67-2.67l-8.753,8.753a2.39,2.39,0,0,1-3.38,0l-3.762-3.762a2.391,2.391,0,0,1,1.182-4.026l5.379-1.171a1.882,1.882,0,0,0,.933-.509L517.239,165a2.39,2.39,0,0,1,3.38,0l6.907,6.907a1.891,1.891,0,0,0,2.67,0l3.026-3.026a2.39,2.39,0,0,1,3.38,0l5.675,5.675a2.393,2.393,0,0,1,0,3.38l-5.6,5.6a1.877,1.877,0,0,0-.553,1.335v3.672a2.375,2.375,0,0,1-.7,1.69l-9.71,9.71a2.359,2.359,0,0,1-1.675.706m-3.255-29.8a2.389,2.389,0,0,1,1.69,4.079l-2.991,2.991a1.891,1.891,0,0,0,0,2.67l1.952,1.952a2.375,2.375,0,0,1,.7,1.691v14.019a1.888,1.888,0,0,0,3.223,1.335l9.71-9.71a1.876,1.876,0,0,0,.553-1.335v-3.672a2.375,2.375,0,0,1,.7-1.69l5.6-5.6a1.89,1.89,0,0,0,0-2.67l-5.675-5.675a1.888,1.888,0,0,0-2.67,0l-3.026,3.026a2.394,2.394,0,0,1-3.38,0l-6.907-6.907a1.888,1.888,0,0,0-2.67,0l-6.192,6.192a2.385,2.385,0,0,1-1.182.645l-5.379,1.171a1.888,1.888,0,0,0-.933,3.18l3.762,3.762a1.888,1.888,0,0,0,2.67,0l8.753-8.753a2.383,2.383,0,0,1,1.69-.7" transform="translate(-376.532 -123.026)"/>
          <path id="Trazado_1030576" data-name="Trazado 1030576" d="M219.183,446.813,229.14,430.2l11.866-.976,1.385,6.265-7.706,16.263Z" transform="translate(-164.124 -321.399)" fill="#fff"/>
          <path id="Trazado_1030577" data-name="Trazado 1030577" d="M233.936,451.251a.25.25,0,0,1-.076-.012l-15.5-4.936a.251.251,0,0,1-.139-.368l9.956-16.616a.252.252,0,0,1,.195-.121l11.866-.977a.253.253,0,0,1,.266.2l1.385,6.266a.25.25,0,0,1-.019.162l-7.706,16.263a.251.251,0,0,1-.227.144m-15.123-5.33,14.99,4.773,7.575-15.987-1.319-5.967-11.519.948Z" transform="translate(-163.375 -320.649)"/>
          <path id="Trazado_1030578" data-name="Trazado 1030578" d="M293.88,364.845l2.925,22.437s-14.378,5.248-15.428.644-3.628-16.328-3.628-16.328Z" transform="translate(-207.977 -273.195)" fill="#fff"/>
          <path id="Trazado_1030579" data-name="Trazado 1030579" d="M284.535,389.318a6.349,6.349,0,0,1-2.958-.567,2.26,2.26,0,0,1-1.193-1.519c-1.038-4.552-3.6-16.213-3.629-16.33a.251.251,0,0,1,.148-.286l16.131-6.752a.251.251,0,0,1,.346.2L296.3,386.5a.251.251,0,0,1-.163.268c-.353.129-7.051,2.55-11.607,2.55M277.29,371c.349,1.585,2.621,11.905,3.583,16.122a1.756,1.756,0,0,0,.944,1.189c3.174,1.727,12.514-1.437,13.963-1.946l-2.856-21.909Z" transform="translate(-207.228 -272.445)"/>
          <path id="Trazado_1030580" data-name="Trazado 1030580" d="M226.988,342.884a4.809,4.809,0,0,1,4.411-4.642c-1.735-4.328.108-9.572,3.7-12.545s8.57-3.887,13.195-3.287a15.827,15.827,0,0,1,7.217,2.623,9.68,9.68,0,0,1,4.073,6.353,7.018,7.018,0,0,1-2.871,6.767l-.9-2.467a10.04,10.04,0,0,1-5.59,5.238,29.8,29.8,0,0,1-7.646,1.744,28.688,28.688,0,0,1,.757,4.88,7.229,7.229,0,0,0,1.943,4.439c1.695,1.547,4.314,1.537,6.522.914s4.263-1.757,6.516-2.194a21.843,21.843,0,0,1,1.819,5.624,7.361,7.361,0,0,1-1.321,5.613c-1.892,2.315-5.235,2.676-8.219,2.862-2.369.147-4.87.269-6.981-.815-2.634-1.352-4.066-4.3-4.719-7.185s-.711-5.9-1.518-8.745l-4.036-.156a6.929,6.929,0,0,1-3.015-.6c-1.817-.841-3.331-2.254-3.337-4.419" transform="translate(-169.968 -241.288)"/>
          <path id="Trazado_1030581" data-name="Trazado 1030581" d="M246.064,410.073s-2.677-6.583-6.776-1.9,2.86,11.737,7.42,6.636Z" transform="translate(-178.245 -304.378)" fill="#fff"/>
          <path id="Trazado_1030582" data-name="Trazado 1030582" d="M242.388,416.085a5.162,5.162,0,0,1-3.381-1.353,5.226,5.226,0,0,1-.637-7.479c1.177-1.343,2.371-1.924,3.543-1.728,2.28.384,3.6,3.568,3.655,3.7a.257.257,0,0,1,.016.061l.644,4.731a.251.251,0,0,1-.062.2,5.026,5.026,0,0,1-3.778,1.863m-.918-10.094a3.829,3.829,0,0,0-2.722,1.593,4.679,4.679,0,0,0,.592,6.771,4.336,4.336,0,0,0,6.374-.384l-.624-4.582c-.132-.307-1.361-3.05-3.262-3.369a2.177,2.177,0,0,0-.359-.03" transform="translate(-177.518 -303.628)"/>
          <path id="Trazado_1030583" data-name="Trazado 1030583" d="M252.73,426.939a.251.251,0,0,1-.235-.163,4.247,4.247,0,0,0-2.912-2.6.251.251,0,1,1,.122-.488,4.757,4.757,0,0,1,3.261,2.908.251.251,0,0,1-.235.339" transform="translate(-186.744 -317.253)"/>
          <path id="Trazado_1030584" data-name="Trazado 1030584" d="M304.529,410.045a4,4,0,0,1-3.639-3.3c-.511-2.208.59-4.354,2.453-4.785a3.2,3.2,0,0,1,2.679.633,4.672,4.672,0,0,1,1.3,5.629,3.2,3.2,0,0,1-2.129,1.745,2.95,2.95,0,0,1-.666.076m-.515-7.657a2.47,2.47,0,0,0-.558.064c-1.593.368-2.525,2.245-2.076,4.182s2.111,3.216,3.7,2.846A2.706,2.706,0,0,0,306.876,408a4.171,4.171,0,0,0-1.157-5,2.824,2.824,0,0,0-1.7-.607" transform="translate(-225.212 -300.93)"/>
          <path id="Trazado_1030585" data-name="Trazado 1030585" d="M342.188,398.117c.48,2.076-.534,4.084-2.264,4.484s-3.523-.958-4-3.034.534-4.084,2.264-4.484,3.523.958,4,3.034" transform="translate(-251.446 -295.785)" fill="#fff"/>
          <path id="Trazado_1030586" data-name="Trazado 1030586" d="M338.568,402.175a4,4,0,0,1-3.639-3.3c-.51-2.208.59-4.354,2.453-4.785s3.794,1.014,4.3,3.222-.59,4.354-2.453,4.785a2.953,2.953,0,0,1-.666.076m-.518-7.657a2.448,2.448,0,0,0-.555.064c-1.593.369-2.525,2.245-2.076,4.182s2.111,3.217,3.7,2.846,2.524-2.245,2.076-4.182a3.5,3.5,0,0,0-3.147-2.909" transform="translate(-250.7 -295.037)"/>
          <path id="Trazado_1030587" data-name="Trazado 1030587" d="M326.44,412.5a.251.251,0,0,1-.194-.411,2.061,2.061,0,0,1,2.6-.585.251.251,0,1,1-.256.433,1.6,1.6,0,0,0-1.961.472.252.252,0,0,1-.193.09" transform="translate(-244.249 -307.934)"/>
          <path id="Trazado_1030588" data-name="Trazado 1030588" d="M277.328,419.028h-.016l-8.105-.5a.251.251,0,0,1-.235-.266.256.256,0,0,1,.266-.235l8.105.5a.251.251,0,0,1-.015.5" transform="translate(-201.404 -313.016)"/>
          <path id="Trazado_1030589" data-name="Trazado 1030589" d="M122.158,550.725l1.7-8.663c-5.531-8.29-10.96-15.795-15.747-22.4-5.143-7.1-11.429-13.25-20.165-13.949-15.668-1.253-37.442-1.663-53.369-1.783A30.367,30.367,0,0,0,5.05,526.162C.291,543.438.09,560.192,0,572.491c-.107,14.646,20.965,13.583,20.965,13.583h63.1l6.066-24.643,10.913,15.037c5.193,7.156,14.606,8.388,22.565,4.536a29.39,29.39,0,0,0,5.241-3.317,96.757,96.757,0,0,1-6.7-26.963" transform="translate(0 -377.341)" fill="#5479f7"/>
          <path id="Trazado_1030590" data-name="Trazado 1030590" d="M500.125,657.627l-19.137,8.364c-2.2-3.544-4.417-6.965-6.619-10.265l-1.7,8.663s-13.863,22.574,6.7,26.963c11.211-8.753,19.536-25.969,20.763-33.725" transform="translate(-350.508 -491.005)" fill="#fff"/>
          <path id="Trazado_1030591" data-name="Trazado 1030591" d="M512.2,696.522a.251.251,0,0,1-.155-.449c11.667-9.109,19.54-26.43,20.67-33.566a.251.251,0,0,1,.5.078c-.661,4.179-3.216,10.53-6.668,16.574-4.141,7.251-9.179,13.4-14.189,17.31a.249.249,0,0,1-.154.053" transform="translate(-383.343 -495.923)"/>
          <path id="Trazado_1030592" data-name="Trazado 1030592" d="M66.8,697.656a.251.251,0,0,1-.147-.455c5.729-4.144,12.291-7.5,18.637-10.744,1.367-.7,2.78-1.422,4.148-2.134a.251.251,0,1,1,.232.445c-1.37.713-2.784,1.437-4.152,2.136-6.329,3.237-12.873,6.583-18.571,10.7a.252.252,0,0,1-.147.047" transform="translate(-49.829 -512.396)"/>
          <path id="Trazado_1030593" data-name="Trazado 1030593" d="M111.991,649.749l-.035,0a.251.251,0,0,1-.214-.284l2.6-18.426a.251.251,0,0,1,.5.07l-2.6,18.426a.251.251,0,0,1-.248.216" transform="translate(-83.67 -472.355)"/>
          <path id="Trazado_1030594" data-name="Trazado 1030594" d="M358.063,656.7a.267.267,0,0,1-.054-.006.252.252,0,0,1-.192-.3c.882-4.007,2.64-10.472,4.34-16.724.847-3.114,1.647-6.055,2.33-8.66a.251.251,0,0,1,.486.128c-.684,2.607-1.484,5.549-2.331,8.665-1.7,6.247-3.455,12.706-4.334,16.7a.251.251,0,0,1-.245.2" transform="translate(-267.928 -472.356)"/>
          <path id="Trazado_1030595" data-name="Trazado 1030595" d="M71.24,784.845q-.959,0-1.938-.056a.251.251,0,0,1,.029-.5c10.092.581,18.632-3.561,24.019-7.137a49.485,49.485,0,0,0,9.385-8,.251.251,0,0,1,.382.326,49.957,49.957,0,0,1-9.477,8.081c-5.106,3.391-13.013,7.284-22.4,7.284" transform="translate(-51.716 -575.873)"/>
          <path id="Trazado_1030596" data-name="Trazado 1030596" d="M503.6,741.923a.272.272,0,0,1-.051-.005A13.045,13.045,0,0,1,493.668,732a.251.251,0,0,1,.492-.1,12.53,12.53,0,0,0,9.491,9.529.251.251,0,0,1-.051.5" transform="translate(-369.653 -547.891)"/>
          <path id="Trazado_1030597" data-name="Trazado 1030597" d="M505.058,776.723a1.42,1.42,0,1,1,1.42-1.42,1.421,1.421,0,0,1-1.42,1.42m0-2.337a.918.918,0,1,0,.917.917.919.919,0,0,0-.917-.917" transform="translate(-377.122 -579.481)"/>
          <path id="Trazado_1030598" data-name="Trazado 1030598" d="M264.964,507.132l-4.138,7.817,3.768,7.066s-5.755,23.124-5.552,22.968,10.847,0,10.847,0l-3.261-22.968,2.324-7.066Z" transform="translate(-193.966 -379.738)" fill="#e2eaff"/>
          <path id="Trazado_1030599" data-name="Trazado 1030599" d="M204.84,474.061,219.587,481l3.331-2.5,5.1,6.516-4.071,8.951-4.425-8.645-3.9,9.712L198.931,482.11Z" transform="translate(-148.959 -354.975)" fill="#fff"/>
          <path id="Trazado_1030600" data-name="Trazado 1030600" d="M225.195,481.871a.251.251,0,0,1-.2-.1l-2.873-3.672-3.134,2.355a.25.25,0,0,1-.258.026l-14.56-6.856-5.787,7.883a.251.251,0,0,1-.4-.3l5.909-8.05a.25.25,0,0,1,.309-.078l14.61,6.879,3.21-2.412a.251.251,0,0,1,.349.046l3.024,3.866a.251.251,0,0,1-.2.406" transform="translate(-148.211 -354.226)"/>
          <path id="Trazado_1030601" data-name="Trazado 1030601" d="M161.378,641.94s6.112,14.936,10.671,21.425c0,0,16.931-10.07,23.827-18.742,0,0,4.02,7.628,6.168,4.981,0,0,3.012,2.281,4.8-.933a4.954,4.954,0,0,0,3.367-3.537,8.865,8.865,0,0,0-.88-5.756s4.077,5.442,5.784,4.347-1.754-7.636-4.652-10.421-7.534-7.666-19.125-4.927c-10.592,2.5-29.958,13.563-29.958,13.563" transform="translate(-120.839 -469.922)" fill="#fff"/>
          <path id="Trazado_1030602" data-name="Trazado 1030602" d="M313.238,677.9a.252.252,0,0,1-.251-.245,23.546,23.546,0,0,0-3.516-11.8.251.251,0,0,1,.427-.265,24.052,24.052,0,0,1,3.591,12.052.251.251,0,0,1-.245.257Z" transform="translate(-231.702 -498.305)"/>
          <path id="Trazado_1030603" data-name="Trazado 1030603" d="M331.507,669.805h-.024a.251.251,0,0,1-.227-.274,19.234,19.234,0,0,0-3.493-12.838.251.251,0,1,1,.408-.293,19.744,19.744,0,0,1,3.585,13.178.251.251,0,0,1-.25.228" transform="translate(-245.393 -491.431)"/>
          <path id="Trazado_1030604" data-name="Trazado 1030604" d="M342.436,657.376a.252.252,0,0,1-.244-.194,12.326,12.326,0,0,0-2.777-5.364.251.251,0,1,1,.376-.334,12.834,12.834,0,0,1,2.891,5.583.251.251,0,0,1-.187.3.268.268,0,0,1-.058.007" transform="translate(-254.105 -487.766)"/>
          <path id="Trazado_1030605" data-name="Trazado 1030605" d="M289.806,682.293a.251.251,0,0,1-.211-.114l-2.134-3.256a.251.251,0,0,1,.42-.275l2.134,3.256a.251.251,0,0,1-.21.389" transform="translate(-215.219 -508.084)"/>
          <path id="Trazado_1030606" data-name="Trazado 1030606" d="M212.518,682.6a.251.251,0,0,1-.212-.116,70.5,70.5,0,0,1-8.75-19.855.251.251,0,1,1,.485-.13,70,70,0,0,0,8.687,19.714.251.251,0,0,1-.211.387" transform="translate(-152.416 -495.936)"/>
          <path id="Trazado_1030607" data-name="Trazado 1030607" d="M212.6,743.183a1.636,1.636,0,0,1-.676-3.143.253.253,0,0,1,.045-.015.315.315,0,0,1,.043-.02,1.641,1.641,0,0,1,1.147,3.074,1.533,1.533,0,0,1-.559.1m-.451-2.7-.029.015a1.141,1.141,0,1,0,.061-.024l-.032.009" transform="translate(-157.946 -554.048)"/>
          <path id="Trazado_1030608" data-name="Trazado 1030608" d="M473.746,605.536H446.289a1.908,1.908,0,0,0-1.5.729l-22.134,28.162a1.908,1.908,0,0,0,1.5,3.087h26.507a1.907,1.907,0,0,0,1.475-.7l23.084-28.162a1.908,1.908,0,0,0-1.475-3.117" transform="translate(-316.175 -453.423)"/>
          <path id="Trazado_1030609" data-name="Trazado 1030609" d="M518.582,618.592c-.323-.3-.782-.6-1.168-.387-.336.185-.4.642-.419,1.031l-.641,11.439a14.622,14.622,0,0,0-2.98-9.536c-.531-.64-1.47-1.242-2.1-.7a1.717,1.717,0,0,0-.386,1.407c.185,4.281,1.86,8.7.389,12.716a29.764,29.764,0,0,0-1.758-7.457,5.46,5.46,0,0,0-1.665-2.6,2.052,2.052,0,0,0-2.78.187c-.664.884-.253,2.145.112,3.2a24.61,24.61,0,0,1,1.311,9.541c-.406-2.521-.913-5.24-2.751-6.97a3.321,3.321,0,0,0-1.933-.976,1.856,1.856,0,0,0-1.836.966,3.473,3.473,0,0,0,.172,2.4,16.969,16.969,0,0,1,.006,9.389c-.652,2.282-3.448,5.355-.491,7.137a5.184,5.184,0,0,0,3.433.488c3.294-.483,6.158-2.518,8.732-4.675a36.315,36.315,0,0,0,7.044-7.49c1.918-2.87,3.741-6.23,3.838-9.7a12.941,12.941,0,0,0-4.132-9.406" transform="translate(-373.15 -462.856)" fill="#fff"/>
          <path id="Trazado_1030610" data-name="Trazado 1030610" d="M876.144,87.091A16.421,16.421,0,1,1,859.724,70.67a16.421,16.421,0,0,1,16.421,16.421" transform="translate(-631.462 -52.917)" fill="#fff"/>
          <path id="Trazado_1030611" data-name="Trazado 1030611" d="M843.337,38.4A24.009,24.009,0,0,0,819.328,62.4c0,23.124,24.009,47.474,24.009,47.474S867.346,85.306,867.346,62.4A24.009,24.009,0,0,0,843.337,38.4m0,35.741a11.187,11.187,0,1,1,11.187-11.187,11.187,11.187,0,0,1-11.187,11.187" transform="translate(-613.51 -28.75)" fill="#5479f7"/>
          <path id="Trazado_1030612" data-name="Trazado 1030612" d="M516.084,237.574a8.21,8.21,0,1,1-8.21-8.21,8.21,8.21,0,0,1,8.21,8.21" transform="translate(-374.146 -171.747)" fill="#fff"/>
          <path id="Trazado_1030613" data-name="Trazado 1030613" d="M499.68,213.227a12,12,0,0,0-12,12c0,11.562,12,23.737,12,23.737s12-12.286,12-23.737a12,12,0,0,0-12-12m0,17.871a5.594,5.594,0,1,1,5.594-5.594,5.594,5.594,0,0,1-5.594,5.594" transform="translate(-365.169 -159.664)" fill="#5479f7"/>
          <path id="Trazado_1030614" data-name="Trazado 1030614" d="M578.187,348c-13.167,0-24.21-4.628-31.216-8.561a65.241,65.241,0,0,1-12.432-8.878.251.251,0,0,1,.351-.36,64.731,64.731,0,0,0,12.343,8.809c7.11,3.99,18.412,8.7,31.858,8.481,17.733-.289,34.811-8.854,50.76-25.461a.251.251,0,1,1,.362.348c-16.047,16.708-33.246,25.326-51.12,25.615q-.455.007-.906.007" transform="translate(-400.204 -241.079)" fill="#5479f7"/>
          <path id="Trazado_1030615" data-name="Trazado 1030615" d="M205.477,1,173.982,31.132h26.272L211.1,6.622A4,4,0,0,0,207.445,1Z" transform="translate(-130.277 -0.749)" fill="#fff"/>
          <path id="Trazado_1030616" data-name="Trazado 1030616" d="M199.506,30.634H173.234a.251.251,0,0,1-.174-.433L204.555.07a.252.252,0,0,1,.174-.07H206.7a4.253,4.253,0,0,1,3.889,5.975l-10.851,24.51a.251.251,0,0,1-.23.149m-25.646-.5h25.482l10.785-24.36A3.751,3.751,0,0,0,206.7.5H204.83Z" transform="translate(-129.529)"/>
          <path id="Trazado_1030617" data-name="Trazado 1030617" d="M14.024,40.805l7.75,15.979A22.909,22.909,0,0,0,42.386,69.695H139.9a2.674,2.674,0,0,0,2.073-4.364l-2.826-3.467A25.482,25.482,0,0,0,119.4,52.481H29.751l-6.8-8.934a6.958,6.958,0,0,0-5.536-2.742Z" transform="translate(-10.501 -30.555)" fill="#fff"/>
          <path id="Trazado_1030618" data-name="Trazado 1030618" d="M139.156,69.2H41.638A23.294,23.294,0,0,1,20.8,56.146L13.049,40.167a.251.251,0,0,1,.226-.361h3.387A7.25,7.25,0,0,1,22.4,42.647l6.728,8.834H118.65A25.635,25.635,0,0,1,138.6,60.957l2.826,3.467a2.926,2.926,0,0,1-2.268,4.774M13.676,40.308l7.575,15.618A22.788,22.788,0,0,0,41.638,68.7h97.519a2.423,2.423,0,0,0,1.878-3.954l-2.826-3.467a25.135,25.135,0,0,0-19.558-9.291H29a.251.251,0,0,1-.2-.1L22,42.952a6.745,6.745,0,0,0-5.336-2.643Z" transform="translate(-9.752 -29.807)"/>
          <path id="Trazado_1030619" data-name="Trazado 1030619" d="M77.818,144.061h4.434a25.506,25.506,0,0,0,13-3.563l32.991-19.548H101.975Z" transform="translate(-58.27 -90.566)" fill="#fff"/>
          <path id="Trazado_1030620" data-name="Trazado 1030620" d="M101.975,120.95,77.818,144.062h4.434a25.506,25.506,0,0,0,13-3.563l32.991-19.548Z" transform="translate(-58.27 -90.567)" fill="#fff"/>
          <path id="Trazado_1030621" data-name="Trazado 1030621" d="M81.5,143.563H77.07a.251.251,0,0,1-.174-.433l24.157-23.111a.251.251,0,1,1,.347.363L77.7,143.061H81.5a25.271,25.271,0,0,0,12.875-3.528l32.991-19.548a.251.251,0,0,1,.256.432L94.635,139.965a25.775,25.775,0,0,1-13.131,3.6" transform="translate(-57.522 -89.818)"/>
          <path id="Trazado_1030622" data-name="Trazado 1030622" d="M438.862,100.682h-9.119a12.531,12.531,0,0,1-9.964-4.972l-1.132-1.5a.251.251,0,1,1,.4-.3l1.132,1.5a12.027,12.027,0,0,0,9.562,4.771h9.119a.251.251,0,1,1,0,.5" transform="translate(-313.444 -70.239)"/>
          <rect id="Rectángulo_459813" data-name="Rectángulo 459813" width="107.053" height="52.057" transform="translate(205.696 156.693)" fill="#fff"/>
          <path id="Trazado_1030623" data-name="Trazado 1030623" d="M925.145,675.329H818.092a.251.251,0,0,1-.251-.251V623.02a.251.251,0,0,1,.251-.251H925.145a.251.251,0,0,1,.251.251v52.057a.251.251,0,0,1-.251.251m-106.8-.5h106.55V623.271H818.343Z" transform="translate(-612.396 -466.327)"/>
          <rect id="Rectángulo_459814" data-name="Rectángulo 459814" width="47.361" height="52.057" transform="translate(265.387 156.693)" fill="#fff"/>
          <path id="Trazado_1030624" data-name="Trazado 1030624" d="M1103.075,675.329h-47.361a.251.251,0,0,1-.251-.251V623.02a.251.251,0,0,1,.251-.251h47.361a.251.251,0,0,1,.251.251v52.057a.251.251,0,0,1-.251.251m-47.11-.5h46.859V623.271h-46.859Z" transform="translate(-790.326 -466.327)"/>
          <rect id="Rectángulo_459815" data-name="Rectángulo 459815" width="37.313" height="42.009" transform="translate(270.411 161.717)" fill="#fff"/>
          <path id="Trazado_1030625" data-name="Trazado 1030625" d="M1113.027,685.281h-37.313a.251.251,0,0,1-.251-.251V643.02a.251.251,0,0,1,.251-.251h37.313a.251.251,0,0,1,.251.251v42.009a.251.251,0,0,1-.251.251m-37.062-.5h36.811V643.271h-36.811Z" transform="translate(-805.302 -481.303)"/>
          <rect id="Rectángulo_459816" data-name="Rectángulo 459816" width="88.017" height="29.279" transform="translate(224.732 127.414)" fill="#fff"/>
          <path id="Trazado_1030626" data-name="Trazado 1030626" d="M981.887,536H893.87a.251.251,0,0,1-.251-.251V506.467a.251.251,0,0,1,.251-.251h88.017a.251.251,0,0,1,.251.251v29.279a.251.251,0,0,1-.251.251m-87.766-.5h87.515V506.718H894.121Z" transform="translate(-669.138 -379.053)"/>
          <path id="Trazado_1030627" data-name="Trazado 1030627" d="M922.986,526.665v0Z" transform="translate(-691.128 -394.365)" fill="#fff"/>
          <path id="Trazado_1030628" data-name="Trazado 1030628" d="M922.237,545.674a.251.251,0,0,1-.251-.251V525.916a.251.251,0,1,1,.5,0v19.507a.251.251,0,0,1-.251.251" transform="translate(-690.38 -393.616)"/>
          <path id="Trazado_1030629" data-name="Trazado 1030629" d="M949.681,526.665v0Z" transform="translate(-711.117 -394.365)" fill="#fff"/>
          <path id="Trazado_1030630" data-name="Trazado 1030630" d="M948.933,545.674a.251.251,0,0,1-.251-.251V525.916a.251.251,0,0,1,.5,0v19.507a.251.251,0,0,1-.251.251" transform="translate(-710.369 -393.616)"/>
          <path id="Trazado_1030631" data-name="Trazado 1030631" d="M976.377,526.665v0Z" transform="translate(-731.107 -394.365)" fill="#fff"/>
          <path id="Trazado_1030632" data-name="Trazado 1030632" d="M975.628,545.674a.251.251,0,0,1-.251-.251V525.916a.251.251,0,1,1,.5,0v19.507a.251.251,0,0,1-.251.251" transform="translate(-730.359 -393.616)"/>
          <path id="Trazado_1030633" data-name="Trazado 1030633" d="M1003.072,526.665v0Z" transform="translate(-751.096 -394.365)" fill="#fff"/>
          <path id="Trazado_1030634" data-name="Trazado 1030634" d="M1002.322,545.674a.251.251,0,0,1-.251-.251V525.916a.251.251,0,1,1,.5,0v19.507a.251.251,0,0,1-.251.251" transform="translate(-750.347 -393.616)"/>
          <path id="Trazado_1030635" data-name="Trazado 1030635" d="M1029.767,526.665v0Z" transform="translate(-771.086 -394.365)" fill="#fff"/>
          <path id="Trazado_1030636" data-name="Trazado 1030636" d="M1029.018,545.674a.251.251,0,0,1-.251-.251V525.916a.251.251,0,1,1,.5,0v19.507a.251.251,0,0,1-.251.251" transform="translate(-770.337 -393.616)"/>
          <path id="Trazado_1030637" data-name="Trazado 1030637" d="M1056.462,526.665v0Z" transform="translate(-791.075 -394.365)" fill="#fff"/>
          <path id="Trazado_1030638" data-name="Trazado 1030638" d="M1055.713,545.674a.251.251,0,0,1-.251-.251V525.916a.251.251,0,0,1,.5,0v19.507a.251.251,0,0,1-.251.251" transform="translate(-790.326 -393.616)"/>
          <path id="Trazado_1030639" data-name="Trazado 1030639" d="M1083.157,526.665v0Z" transform="translate(-811.064 -394.365)" fill="#fff"/>
          <path id="Trazado_1030640" data-name="Trazado 1030640" d="M1082.408,545.674a.251.251,0,0,1-.251-.251V525.916a.251.251,0,0,1,.5,0v19.507a.251.251,0,0,1-.251.251" transform="translate(-810.315 -393.616)"/>
          <path id="Trazado_1030641" data-name="Trazado 1030641" d="M1109.852,526.665v0Z" transform="translate(-831.053 -394.365)" fill="#fff"/>
          <path id="Trazado_1030642" data-name="Trazado 1030642" d="M1109.1,545.674a.251.251,0,0,1-.251-.251V525.916a.251.251,0,0,1,.5,0v19.507a.251.251,0,0,1-.251.251" transform="translate(-830.305 -393.616)"/>
          <path id="Trazado_1030643" data-name="Trazado 1030643" d="M1136.547,526.665v0Z" transform="translate(-851.042 -394.365)" fill="#fff"/>
          <path id="Trazado_1030644" data-name="Trazado 1030644" d="M1135.8,545.674a.251.251,0,0,1-.251-.251V525.916a.251.251,0,0,1,.5,0v19.507a.251.251,0,0,1-.251.251" transform="translate(-850.294 -393.616)"/>
          <path id="Trazado_1030645" data-name="Trazado 1030645" d="M1163.243,526.665v0Z" transform="translate(-871.032 -394.365)" fill="#fff"/>
          <path id="Trazado_1030646" data-name="Trazado 1030646" d="M1162.493,545.674a.251.251,0,0,1-.251-.251V525.916a.251.251,0,0,1,.5,0v19.507a.251.251,0,0,1-.251.251" transform="translate(-870.282 -393.616)"/>
          <path id="Trazado_1030647" data-name="Trazado 1030647" d="M1189.938,526.665v0Z" transform="translate(-891.021 -394.365)" fill="#fff"/>
          <path id="Trazado_1030648" data-name="Trazado 1030648" d="M1189.189,545.674a.251.251,0,0,1-.251-.251V525.916a.251.251,0,0,1,.5,0v19.507a.251.251,0,0,1-.251.251" transform="translate(-890.272 -393.616)"/>
          <path id="Trazado_1030649" data-name="Trazado 1030649" d="M1216.633,526.665v0Z" transform="translate(-911.01 -394.365)" fill="#fff"/>
          <path id="Trazado_1030650" data-name="Trazado 1030650" d="M1215.884,545.674a.251.251,0,0,1-.251-.251V525.916a.251.251,0,0,1,.5,0v19.507a.251.251,0,0,1-.251.251" transform="translate(-910.261 -393.616)"/>
          <rect id="Rectángulo_459817" data-name="Rectángulo 459817" width="38.472" height="38.456" transform="translate(177.15 151.492)" fill="#e2eaff"/>
          <path id="Trazado_1030651" data-name="Trazado 1030651" d="M736.1,620.308a.252.252,0,0,1-.2-.105l-15.073-21.094a.251.251,0,0,1,.409-.292L736.1,619.626l26.066-36.305a.251.251,0,1,1,.408.293L736.307,620.2a.251.251,0,0,1-.2.1" transform="translate(-539.716 -436.709)" fill="#5479f7"/>
        </g>
      </g>
    </g>
  </g>
</svg>
