<svg xmlns="http://www.w3.org/2000/svg" xmlns:xlink="http://www.w3.org/1999/xlink" width="84" height="84" viewBox="0 0 84 84">
  <defs>
    <clipPath id="clip-path">
      <rect id="Rectángulo_459889" data-name="Rectángulo 459889" width="50.189" height="50.185" fill="none"/>
    </clipPath>
  </defs>
  <g id="Grupo_1186169" data-name="Grupo 1186169" transform="translate(-527.711 -4568)">
    <rect id="Rectángulo_456492" data-name="Rectángulo 456492" width="84" height="84" rx="10" transform="translate(527.711 4568)" fill="#a2cbcf"/>
    <g id="Grupo_1187617" data-name="Grupo 1187617" transform="translate(544.616 4584.908)">
      <g id="Grupo_1187616" data-name="Grupo 1187616" clip-path="url(#clip-path)">
        <path id="Trazado_1031421" data-name="Trazado 1031421" d="M27.622,205.1l-26.754,0A.839.839,0,0,1,0,204.241l0-11.683a.82.82,0,0,1,.843-.839l5.848,0,0-10.867a.81.81,0,0,1,.847-.839l13.353,0a.814.814,0,0,1,.847.841l0,10.867,5.848,0a.826.826,0,0,1,.843.842l-.006,11.679a.837.837,0,0,1-.81.863" transform="translate(0 -154.915)" fill="#040504"/>
        <path id="Trazado_1031422" data-name="Trazado 1031422" d="M28.106,1.476a.468.468,0,0,1,.045.445,44.576,44.576,0,0,1,18.61,10.372c1.259,1.132,3.559,3.235,3.159,5.048a5.271,5.271,0,0,1-4.062,4.107l-6.41.013q-.6.163-.421,1.62a1.382,1.382,0,0,1-1.44.935,4.131,4.131,0,0,0-.17,2.182c1.115.673,2.678,2.725,2.429,4.225a5.6,5.6,0,0,1-4.187,4.35c-1.483.352-3.789-1.19-4.519-2.459-.866-1.507-1.077-2.382-.2-3.932a5.479,5.479,0,0,1,1.936-2.2c.081-.084.172-2.131-.282-2.2q-1.664-.108-1.408-2.24a.259.259,0,0,0-.146-.244l-29.77-.05q-1.306-.432-.983-2.34l-.271-.236L.014.85A.817.817,0,0,1,.865,0L17.291.014A41.709,41.709,0,0,1,28.106,1.476" transform="translate(-0.012 0)" fill="#040504"/>
        <path id="Trazado_1031423" data-name="Trazado 1031423" d="M40.187,40.192q0-.2-.133.059a4.965,4.965,0,0,1-4.7,3.982,5.019,5.019,0,0,1-2.717-9.347,5.112,5.112,0,0,0-.045-1.563c-.6.139-1.325.072-1.509-.453a8.363,8.363,0,0,1-.1-2.005l-30.069,0a.83.83,0,0,1-.862-.839V27.986c.2-.035.3-.2.537-.351L.6,29.46a.823.823,0,0,0,.865.834H30.817c.293,0,.607.117.626.356l.1,1.31c.1,1.277,1.632.417,1.645,1.541l.022,1.93a5.355,5.355,0,0,0-2.3,2.89c-.152.4-.6.843-.244,1.345a13.333,13.333,0,0,1,.743,1.628c.28.544.9.9,1.276,1.36.363.439.982.458,1.373.705a2.14,2.14,0,0,0,2.2.039,5.674,5.674,0,0,0,1.965-1.263,5.262,5.262,0,0,0,1.093-1.714,1.967,1.967,0,0,0,.065-2.217,5.013,5.013,0,0,0-2.217-2.7l-.019-2c-.01-1.073,1.564-.381,1.639-1.418l.1-1.431c.017-.242.351-.359.6-.359l6.337,0c3.511-1.09,3.338-3.01,3.765-3.718a1.735,1.735,0,0,0-.211-1.825l-.821-1.163-2.017-2.024-1.055-.9a30.172,30.172,0,0,0-2.826-2.327l-3.346-2.223a43.41,43.41,0,0,0-6.4-3.226L30.4,11.945a8.728,8.728,0,0,1-1.525-.44l-1.365-.356.629-.557A44.179,44.179,0,0,1,49.105,23.03a4.677,4.677,0,0,1,.659,5.12,4.483,4.483,0,0,1-4.005,2.689l-6.43.05a5.1,5.1,0,0,1-.117,2.066c-.244.51-1,.445-1.507.394L37.7,34.878a5.046,5.046,0,0,1,2.422,3.554c.129-.459.324-.74.625-.838a.853.853,0,0,1,.878.2L46.633,42.8a.839.839,0,0,1-.6,1.434h-5a.832.832,0,0,1-.84-.838Z" transform="translate(-0.042 -9.116)" fill="#040504"/>
        <path id="Trazado_1031424" data-name="Trazado 1031424" d="M287.036,218.589l-.133.059c.043-.231-.117-.5.074-.763a1.523,1.523,0,0,1,.059.7" transform="translate(-246.891 -187.513)" fill="#282827"/>
        <path id="Trazado_1031425" data-name="Trazado 1031425" d="M118.094,275.958l.278.131-.056,6.505a2,2,0,0,1-2.093,2l-8.056-.067-.163-.28-.009-8.3,3.344,0,0,4.178a.849.849,0,0,0,.84.847l3.335-.007a.821.821,0,0,0,.836-.839l.008-4.167Z" transform="translate(-92.94 -237.471)" fill="#92613f"/>
        <path id="Trazado_1031426" data-name="Trazado 1031426" d="M63.726,196.7c.012.421.521.7.859.7l3.361,0a.887.887,0,0,0,.862-.726l.043-4.212,1.826.009q.092,3.365.044,6.751a2,2,0,0,1-2.08,1.812l-8.043-.012-.122-.182,0-8.369,3.176-.019Z" transform="translate(-52.046 -165.63)" fill="#b27749"/>
        <path id="Trazado_1031427" data-name="Trazado 1031427" d="M15.728,280.472c.012.419.524.7.859.7l3.359,0a.9.9,0,0,0,.864-.725l.043-4.213a4.308,4.308,0,0,1,1.88.144l-.006,6.414a1.93,1.93,0,0,1-1.947,2l-8.179,0-.123-.181,0-8.369,3.176-.018Z" transform="translate(-10.739 -237.691)" fill="#a87043"/>
        <path id="Trazado_1031428" data-name="Trazado 1031428" d="M63.315,196.25l-.123-4.172H60.139l-.009,8.229,8.095,0a1.742,1.742,0,0,0,1.808-1.554l.007-6.69-1.524.017-.119,4.146-.033-4.295,3.345.006v10.032H60V191.938l3.346,0Z" transform="translate(-51.635 -165.178)" fill="#a86f47"/>
        <path id="Trazado_1031429" data-name="Trazado 1031429" d="M15.314,280.255l-.123-4.173H12.138l-.008,8.228,8.23-.012a1.68,1.68,0,0,0,1.671-1.8l.009-6.427-1.525.016-.119,4.146-.033-4.294,3.346.011v10.029H12V275.942l3.346,0Z" transform="translate(-10.325 -237.474)" fill="#9e6740"/>
        <path id="Trazado_1031430" data-name="Trazado 1031430" d="M108.062,284.337l8.215.068a1.75,1.75,0,0,0,1.821-1.822l.055-6.53,1.61-.008v10.024h-11.69Z" transform="translate(-92.999 -237.566)" fill="#81543a"/>
        <path id="Trazado_1031431" data-name="Trazado 1031431" d="M97.69,195.327l-1.68.012v-3.324l1.672,0Z" transform="translate(-82.627 -165.249)" fill="#e3e5e4"/>
        <path id="Trazado_1031432" data-name="Trazado 1031432" d="M49.69,279.327l-1.68.012v-3.324l1.672,0Z" transform="translate(-41.318 -237.54)" fill="#e3e5e4"/>
        <path id="Trazado_1031433" data-name="Trazado 1031433" d="M145.69,279.327l-1.68.012v-3.324l1.672,0Z" transform="translate(-123.936 -237.54)" fill="#e3e5e4"/>
        <path id="Trazado_1031434" data-name="Trazado 1031434" d="M58.608,26.123c.019,1.65-1.8,2.507-3.237,2.757l-18.392-.017-.169-.279q-.294-.207-.011-.824V14.392a.553.553,0,0,0-.484-.536l-8.412.006-.5.263q-.134,6.824-.074,13.683a.648.648,0,0,1,0,.773l-.1.279L12.2,28.916l-.14-.173q.06-8.326-.071-16.607c0-.181.079-.275.281-.227l14.07,0a37.887,37.887,0,0,1,6.795.483c.21.038.378.074.6.1a32.194,32.194,0,0,1,5.012,1.086l.021,9.311a.82.82,0,0,0,.84.725l16.9.01,1.571,1.568a2.578,2.578,0,0,1,.529.929" transform="translate(-10.314 -10.238)" fill="#3d8fcf"/>
        <path id="Trazado_1031435" data-name="Trazado 1031435" d="M27.324,30.062l.166-.27,9.13.006.19.267,17.962.051A3.986,3.986,0,0,0,58.608,27.6a3.04,3.04,0,0,1-.327,2.841A2.856,2.856,0,0,1,56,31.772l-44.012.018-.008-18.174a.252.252,0,0,1,.144.207l-.008,16.3Z" transform="translate(-10.314 -11.718)" fill="#3788bd"/>
        <path id="Trazado_1031436" data-name="Trazado 1031436" d="M219.349,35.376,216,35.392l0-7.861c1.157.34,2.195.764,3.336,1.222Z" transform="translate(-185.888 -23.693)" fill="#9f9f9f"/>
        <path id="Trazado_1031437" data-name="Trazado 1031437" d="M230.688,192.069a3.337,3.337,0,1,1-2.545,4.064,3.324,3.324,0,0,1,2.545-4.064" transform="translate(-196.256 -165.228)" fill="#4f4f4f"/>
        <path id="Trazado_1031438" data-name="Trazado 1031438" d="M274.073,67.9a.34.34,0,0,1-.083-.179,21.567,21.567,0,0,1,2.355-2.42l.339.059a27.8,27.8,0,0,1,3.337,2.52Z" transform="translate(-235.797 -56.198)" fill="#9cc1d3"/>
        <path id="Trazado_1031439" data-name="Trazado 1031439" d="M262.554,59.448l-2.611,2.54-2.242,0c-.07-.084-.165-.221-.116-.282a30.167,30.167,0,0,1,3.1-3.271l.342.045Z" transform="translate(-221.667 -50.286)" fill="#d9dad9"/>
        <path id="Trazado_1031440" data-name="Trazado 1031440" d="M255.593,50.131c.067.087.156.227.105.287a30.743,30.743,0,0,1-3.318,3.235l-.339-.058,0-2.367a4.821,4.821,0,0,1,1.61-1.882q.142-.207.475-.062c.486.25.971.53,1.47.847" transform="translate(-216.905 -42.362)" fill="#e2e4e4"/>
        <path id="Trazado_1031441" data-name="Trazado 1031441" d="M256.221,56.152l-3.327,3.509-.878-.015a1.314,1.314,0,0,1-.021-.451l3.553-3.463c.219.139.483.3.672.421" transform="translate(-216.861 -47.962)" fill="#9cc0d3"/>
        <path id="Trazado_1031442" data-name="Trazado 1031442" d="M238.929,156.781l-4.968,0a2.28,2.28,0,0,1,0-.837l4.967,0a2.581,2.581,0,0,1,0,.836" transform="translate(-201.314 -134.204)" fill="#9f9f9f"/>
        <path id="Trazado_1031443" data-name="Trazado 1031443" d="M254.124,43.07l-2.085,1.943.008-3.01Z" transform="translate(-216.906 -36.148)" fill="#9cc0d2"/>
        <path id="Trazado_1031444" data-name="Trazado 1031444" d="M247.75,174.878a5.8,5.8,0,0,0-1.627,0l-.014-.9,1.637-.008Z" transform="translate(-211.803 -149.726)" fill="#cfcfcf"/>
        <path id="Trazado_1031445" data-name="Trazado 1031445" d="M302.149,226.816l-2.117.026.026-2.116Z" transform="translate(-258.209 -193.4)" fill="#9d9c9d"/>
        <path id="Trazado_1031446" data-name="Trazado 1031446" d="M129.783,39l-.846.054-7.385.012L120.3,39a2.336,2.336,0,0,1-.28-.8V24.847a.815.815,0,0,1,.842-.843h8.471a.832.832,0,0,1,.719.845V38.2a2.735,2.735,0,0,1-.266.8" transform="translate(-103.287 -20.656)" fill="#040504"/>
        <path id="Trazado_1031447" data-name="Trazado 1031447" d="M29.046,29.782a2.508,2.508,0,1,1-5.016.06V26.483a2.488,2.488,0,0,1,2.573-2.5,2.534,2.534,0,0,1,2.448,2.637Z" transform="translate(-20.68 -20.643)" fill="#040504"/>
        <path id="Trazado_1031448" data-name="Trazado 1031448" d="M77.046,29.782a2.508,2.508,0,1,1-5.016.06V26.483a2.488,2.488,0,0,1,2.573-2.5,2.534,2.534,0,0,1,2.448,2.637Z" transform="translate(-61.989 -20.643)" fill="#040504"/>
        <path id="Trazado_1031449" data-name="Trazado 1031449" d="M235.99,198.06a2.5,2.5,0,1,1-1.851,3.1,2.482,2.482,0,0,1,1.851-3.1" transform="translate(-201.424 -170.394)" fill="#040505"/>
        <path id="Trazado_1031450" data-name="Trazado 1031450" d="M137.079,35.971l.278.132-.062,8.184a2.1,2.1,0,0,1-.522,1.331c-.811.9-3.369.717-4.576.608l-.2-.282-.011-9.984Z" transform="translate(-113.591 -30.947)" fill="#9f9f9f"/>
        <path id="Trazado_1031451" data-name="Trazado 1031451" d="M132.071,46.015l3.2.059a1.748,1.748,0,0,0,1.818-1.822l.061-8.21,1.6.013V47.736l-6.673.005Z" transform="translate(-113.661 -31.018)" fill="#646464"/>
        <path id="Trazado_1031452" data-name="Trazado 1031452" d="M37.715,40.128a.839.839,0,0,1-.778.9.815.815,0,0,1-.888-.831V36.858a.83.83,0,1,1,1.659,0Z" transform="translate(-31.024 -31.005)" fill="#9cc1d3"/>
        <path id="Trazado_1031453" data-name="Trazado 1031453" d="M85.715,40.128a.839.839,0,0,1-.778.9.815.815,0,0,1-.888-.831V36.858a.83.83,0,1,1,1.659,0Z" transform="translate(-72.333 -31.005)" fill="#9cc1d3"/>
        <path id="Trazado_1031454" data-name="Trazado 1031454" d="M246.627,210.154a.94.94,0,0,1,1.039.489.823.823,0,0,1-1.5.664.8.8,0,0,1,.464-1.153" transform="translate(-211.764 -180.83)" fill="#dee1e0"/>
        <path id="Trazado_1031455" data-name="Trazado 1031455" d="M139.675,68.477,138,68.482l0-2.488,1.672-.007Z" transform="translate(-118.758 -56.789)" fill="#040505"/>
      </g>
    </g>
  </g>
</svg>
