<svg xmlns="http://www.w3.org/2000/svg" xmlns:xlink="http://www.w3.org/1999/xlink" width="84" height="84" viewBox="0 0 84 84">
  <defs>
    <clipPath id="clip-path">
      <rect id="Rectángulo_459908" data-name="Rectángulo 459908" width="60.322" height="60.332" fill="none"/>
    </clipPath>
  </defs>
  <g id="Grupo_1186005" data-name="Grupo 1186005" transform="translate(-185.711 -5855)">
    <rect id="Rectángulo_456493" data-name="Rectángulo 456493" width="84" height="84" rx="10" transform="translate(185.711 5855)" fill="#f2a4ab"/>
    <g id="Grupo_1187652" data-name="Grupo 1187652" transform="translate(197.55 5866.834)">
      <g id="Grupo_1187651" data-name="Grupo 1187651" clip-path="url(#clip-path)">
        <path id="Trazado_1032009" data-name="Trazado 1032009" d="M31.032,59.912a1.181,1.181,0,0,1-1.688.038,81,81,0,0,1-7.579-6.764.876.876,0,0,0-.644.161L21.1,59.307a1,1,0,0,1-1.024,1.021l-19.052,0a1.035,1.035,0,0,1-.91-.553A1.062,1.062,0,0,1,.29,58.6l3.44-4.313L.217,49.881A1,1,0,0,1,.109,48.8a.978.978,0,0,1,.9-.534H9.035l.015-2.7a.936.936,0,0,1,.552-.949l3.971-1.389a75.268,75.268,0,0,1-10.579-22.6.984.984,0,0,1,.519-1.064l26-19.329A1,1,0,0,1,30.8.231L56.917,19.613a1,1,0,0,1,.369,1.157A76.027,76.027,0,0,1,46.707,43.211l3.941,1.322a1,1,0,0,1,.621,1.035l.014,2.7,8.024,0a.986.986,0,0,1,.839.432.973.973,0,0,1,.019,1.081l-3.572,4.51,3.552,4.524a.978.978,0,0,1,.053.957,1,1,0,0,1-.909.559H40.238a1,1,0,0,1-1.024-1.021l-.018-5.96a.86.86,0,0,0-.643-.163,80.857,80.857,0,0,1-7.522,6.726" transform="translate(0 0)" fill="#040504"/>
        <path id="Trazado_1032010" data-name="Trazado 1032010" d="M148.71,312.423a13.538,13.538,0,0,1,3.211.028l1.192.062-.333.386-2.039.052.007,4.444c-.05.258-.23.519-.5.471a65.315,65.315,0,0,1-5.785-5.085,25.684,25.684,0,0,1,4.25-.358" transform="translate(-120.254 -260.004)" fill="#3c8fce"/>
        <path id="Trazado_1032011" data-name="Trazado 1032011" d="M178.983,318.464a.225.225,0,0,0,.169-.229l-.008-5.039a12.779,12.779,0,0,0,2.707-.085,11.808,11.808,0,0,1,3.243.267,75.016,75.016,0,0,1-5.721,5.089.327.327,0,0,1-.39,0" transform="translate(-148.992 -260.603)" fill="#3687bd"/>
        <path id="Trazado_1032012" data-name="Trazado 1032012" d="M34.615,303.488l.032,4.566-15.967-.007,2.609-3.306a1.034,1.034,0,0,0,.073-1.328l-2.676-3.385,5.907-.019.011,5.021a.989.989,0,0,0,1.28.963Z" transform="translate(-15.55 -249.738)" fill="#b29c59"/>
        <path id="Trazado_1032013" data-name="Trazado 1032013" d="M261.945,308.036l-15.935.019,0-4.574,8.731,2.542a1.047,1.047,0,0,0,1.312-.995l.012-5.023,5.908.017-2.677,3.389a1.019,1.019,0,0,0,.074,1.324Z" transform="translate(-204.786 -249.735)" fill="#b29c59"/>
        <path id="Trazado_1032014" data-name="Trazado 1032014" d="M173.036,312.117l-3.211-.028a.486.486,0,0,1,.352-.143l2.535-.005c.18,0,.307.067.324.176" transform="translate(-141.369 -259.671)" fill="#3687bd"/>
        <path id="Trazado_1032015" data-name="Trazado 1032015" d="M92.148,252.885c-.058.181.117.123.283.067a43.482,43.482,0,0,1,6.484,1.575l5.255,1.784,0,7.727-6.368-1.857a44.215,44.215,0,0,0-7.084-1.445q.037-.186-.291-.036a48.368,48.368,0,0,0-18.988,1.737l-5.479,1.585.007-7.705,3.753-1.282a42.259,42.259,0,0,1,7.984-2.077q.567.176.279-.038c.835-.112,1.692-.3,2.543-.355.176.112.368.209.156.029a43.655,43.655,0,0,1,11.464.291" transform="translate(-54.91 -210.066)" fill="#cdb772"/>
        <path id="Trazado_1032016" data-name="Trazado 1032016" d="M152.884,253.628l.156.029.728.079a.571.571,0,0,1-.884-.109" transform="translate(-127.266 -211.129)" fill="#dfc77c"/>
        <path id="Trazado_1032017" data-name="Trazado 1032017" d="M136.326,255.75a1.4,1.4,0,0,1,.571.109.645.645,0,0,1-.849-.072Z" transform="translate(-113.251 -212.896)" fill="#d8c178"/>
        <path id="Trazado_1032018" data-name="Trazado 1032018" d="M219.428,255.542a.355.355,0,0,0,.283.067.637.637,0,0,1-.848.078c.253-.133.42-.08.565-.145" transform="translate(-182.19 -212.723)" fill="#d9c178"/>
        <path id="Trazado_1032019" data-name="Trazado 1032019" d="M212.272,301.1l-.291-.036a.621.621,0,0,1,.861-.1c-.254.132-.423.078-.57.133" transform="translate(-176.461 -250.433)" fill="#dac379"/>
        <path id="Trazado_1032020" data-name="Trazado 1032020" d="M145.978,255.042a2.326,2.326,0,0,1-.924.058.213.213,0,0,1-.088-.1,2.55,2.55,0,0,1,.924-.066.258.258,0,0,1,.088.106" transform="translate(-120.675 -212.21)" fill="#d5be76"/>
        <path id="Trazado_1032021" data-name="Trazado 1032021" d="M209.978,255.039a2.338,2.338,0,0,1-.924.058.187.187,0,0,1-.089-.1,2.363,2.363,0,0,1,.924-.054.209.209,0,0,1,.088.1" transform="translate(-173.95 -212.206)" fill="#d5be76"/>
        <path id="Trazado_1032022" data-name="Trazado 1032022" d="M155.392,50.273c-.216.24-.3.143-.134-.147l0-14.207a1,1,0,0,0-1.012-1.024h-7.03l-.006-13.061a.99.99,0,0,0-1.02-1.018l-16.225.012c-.43-.131-.148-.349.211-.513l7.565.018a55,55,0,0,0,.078-5.808l.135-.322a.416.416,0,0,1,.471.013l24.726,18.39a76.569,76.569,0,0,1-7.758,17.666" transform="translate(-108.006 -11.767)" fill="#3688be"/>
        <path id="Trazado_1032023" data-name="Trazado 1032023" d="M55.648,14.533a.479.479,0,0,1,.222.4V21l-8.038-.025c-.129,0-.2.1-.172.184a.99.99,0,0,0-.845,1l0,13.055-7.174.029a.7.7,0,0,0-.711.591.619.619,0,0,0-.156.553l-.015,14.4a73.839,73.839,0,0,1-7.88-17.866Z" transform="translate(-25.701 -12.098)" fill="#3d8fcf"/>
        <path id="Trazado_1032024" data-name="Trazado 1032024" d="M79.852,232.652l16.195.043.032.849a32.1,32.1,0,0,0-5.708.329q-1.122-.277-.435.06a45.624,45.624,0,0,0-8.427,1.952,22.291,22.291,0,0,1-2.327-3.657c.177.086.5.133.669.424" transform="translate(-65.915 -193.315)" fill="#3c8fce"/>
        <path id="Trazado_1032025" data-name="Trazado 1032025" d="M206.26,240.046l-.274,0a.834.834,0,0,1,1.025-.1,1.612,1.612,0,0,1-.751.1" transform="translate(-171.47 -199.635)" fill="#3c92cb"/>
        <path id="Trazado_1032026" data-name="Trazado 1032026" d="M141.729,241.049l-.435.06c-.09-.052-.223,0-.416-.143a.654.654,0,0,1,.851.082" transform="translate(-117.272 -200.492)" fill="#4496d3"/>
        <path id="Trazado_1032027" data-name="Trazado 1032027" d="M214.265,241.093l-.294-.061a.648.648,0,0,1,.861-.074c-.252.132-.42.079-.567.135" transform="translate(-178.117 -200.476)" fill="#3b8fc7"/>
        <path id="Trazado_1032028" data-name="Trazado 1032028" d="M111.794,81.656a1.073,1.073,0,0,1-.17.515.749.749,0,0,1-.073.221l-.531.407q-8.024.133-16.2.112l-.284-.284-16.056.007q-.345.059-.669-.424l-.044-15.174c-.587-.412.068-.743.539-.91l7.012-.082.008-12.774c.132-.544.724-1.394,1.176-.912q3.951-.169,8.012-.083l.2-.258,8.03,0c.632.161,1.333.628,1.337,1.334l.006,12.64q3.341.181,6.8.109c.946.241,1.042.473,1.238,1.375l0,13.412a1.328,1.328,0,0,1-.335.774" transform="translate(-64.542 -43.298)" fill="#040504"/>
        <path id="Trazado_1032029" data-name="Trazado 1032029" d="M116.249,233.31l-2.3,3.48a46.1,46.1,0,0,0-8.563-1.958q.056-.19-.294-.061c-.339-.071-.749.049-1.064-.145q.088-.171-.274,0l-4.351-.181q-.435.028-.354-.5-7.835-.043-15.67-.054l-.2-.336,32.112-.114Z" transform="translate(-69.24 -194.216)" fill="#3788be"/>
        <path id="Trazado_1032030" data-name="Trazado 1032030" d="M280.827,229.067c-.078.13-.074.341-.3.368a.164.164,0,0,1-.083-.2,1,1,0,0,1,.253-.317Z" transform="translate(-233.441 -190.562)" fill="#173244"/>
        <path id="Trazado_1032031" data-name="Trazado 1032031" d="M198.119,150.016l.334.157-.068,7.82a2.4,2.4,0,0,1-2.516,2.4l-9.684-.08-.2-.337-.011-9.982,4.02,0,.006,5.023a1.02,1.02,0,0,0,1.01,1.018l4.008-.009a.987.987,0,0,0,1.005-1.009l.01-5.009Z" transform="translate(-154.815 -124.856)" fill="#92613f"/>
        <path id="Trazado_1032032" data-name="Trazado 1032032" d="M142.367,71.613c.015.507.626.843,1.032.843l4.04,0a1.066,1.066,0,0,0,1.037-.873l.052-5.063,2.2.011q.111,4.045.053,8.116a2.4,2.4,0,0,1-2.5,2.178l-9.669-.015-.147-.218,0-10.06,3.817-.022Z" transform="translate(-115.259 -55.367)" fill="#b27749"/>
        <path id="Trazado_1032033" data-name="Trazado 1032033" d="M94.368,155.391c.015.5.63.839,1.032.84l4.038,0a1.076,1.076,0,0,0,1.038-.872l.052-5.064a5.175,5.175,0,0,1,2.26.173l-.007,7.71a2.32,2.32,0,0,1-2.34,2.4l-9.832.005-.147-.217,0-10.06,3.817-.022Z" transform="translate(-75.304 -125.069)" fill="#a86f43"/>
        <path id="Trazado_1032034" data-name="Trazado 1032034" d="M141.969,71.175l-.147-5.015-3.67,0-.01,9.892,9.731,0a2.094,2.094,0,0,0,2.173-1.868l.009-8.042-1.832.02-.143,4.983-.04-5.163,4.02.008V78.053H137.984l0-12.061,4.022,0Z" transform="translate(-114.861 -54.929)" fill="#a86f47"/>
        <path id="Trazado_1032035" data-name="Trazado 1032035" d="M93.968,155.181l-.147-5.016-3.671,0-.009,9.89,9.893-.015a2.019,2.019,0,0,0,2.009-2.162l.011-7.725-1.834.019-.143,4.984-.04-5.162,4.022.014v12.055H89.982V150l4.022,0Z" transform="translate(-74.904 -124.859)" fill="#9e6740"/>
        <path id="Trazado_1032036" data-name="Trazado 1032036" d="M186.046,160.066l9.875.082a2.1,2.1,0,0,0,2.189-2.191l.066-7.85,1.936-.01v12.049H186.059Z" transform="translate(-154.872 -124.947)" fill="#80543a"/>
        <path id="Trazado_1032037" data-name="Trazado 1032037" d="M176.014,70.05l-2.019.015v-4l2.01,0Z" transform="translate(-144.84 -54.998)" fill="#e3e5e4"/>
        <path id="Trazado_1032038" data-name="Trazado 1032038" d="M128.014,154.05l-2.019.015v-4l2.01,0Z" transform="translate(-104.883 -124.923)" fill="#e3e5e4"/>
        <path id="Trazado_1032039" data-name="Trazado 1032039" d="M224.014,154.05l-2.019.015v-4l2.01,0Z" transform="translate(-184.797 -124.923)" fill="#e3e5e4"/>
      </g>
    </g>
  </g>
</svg>
