<svg xmlns="http://www.w3.org/2000/svg" xmlns:xlink="http://www.w3.org/1999/xlink" width="128" height="128" viewBox="0 0 128 128">
  <defs>
    <clipPath id="clip-path">
      <rect id="Rectángulo_456277" data-name="Rectángulo 456277" width="128" height="128" transform="translate(0 0)" fill="#d35560"/>
    </clipPath>
    <clipPath id="clip-path-2">
      <rect id="Rectángulo_459969" data-name="Rectángulo 459969" width="60.507" height="59.721" fill="#4d787e"/>
    </clipPath>
  </defs>
  <g id="Grupo_1186174" data-name="Grupo 1186174" transform="translate(13436 12681)">
    <g id="Grupo_1179924" data-name="Grupo 1179924" transform="translate(-13436 -12681)">
      <g id="Grupo_1179923" data-name="Grupo 1179923" transform="translate(0 0)" clip-path="url(#clip-path)">
        <path id="Trazado_1004716" data-name="Trazado 1004716" d="M63.534,127.068c-2.064,0-3.994-2.358-6.006-2.554-2.05-.2-4.4,1.735-6.388,1.341-2.016-.4-3.449-3.09-5.391-3.68-1.964-.6-4.65.839-6.526.059-1.892-.786-2.769-3.705-4.562-4.667s-4.72-.086-6.412-1.22-1.99-4.172-3.566-5.467-4.61-1-6.054-2.44-1.143-4.475-2.44-6.054-4.328-1.867-5.467-3.566-.252-4.608-1.22-6.411-3.881-2.67-4.668-4.562c-.78-1.877.656-4.563.059-6.526-.59-1.942-3.28-3.374-3.68-5.391-.395-1.987,1.541-4.338,1.34-6.388C2.358,67.528,0,65.6,0,63.534s2.358-3.994,2.554-6.006c.2-2.05-1.735-4.4-1.34-6.388.4-2.016,3.09-3.449,3.68-5.391.6-1.964-.839-4.65-.059-6.527C5.622,37.33,8.54,36.453,9.5,34.66s.085-4.719,1.22-6.412,4.171-1.99,5.466-3.566,1-4.61,2.441-6.054,4.475-1.143,6.053-2.44,1.867-4.328,3.566-5.467,4.608-.252,6.412-1.22,2.67-3.881,4.562-4.668c1.877-.78,4.563.656,6.527.059,1.942-.59,3.374-3.279,5.39-3.68,1.987-.395,4.338,1.541,6.388,1.341C59.54,2.358,61.47,0,63.534,0s3.994,2.358,6.006,2.554c2.05.2,4.4-1.735,6.388-1.341,2.016.4,3.449,3.09,5.391,3.68,1.964.6,4.65-.839,6.526-.059,1.892.786,2.769,3.705,4.562,4.668s4.72.085,6.412,1.22,1.99,4.171,3.566,5.466,4.61,1,6.054,2.441,1.143,4.475,2.44,6.053,4.328,1.867,5.467,3.566.252,4.608,1.22,6.412,3.881,2.67,4.667,4.562c.78,1.877-.656,4.563-.059,6.526.59,1.942,3.28,3.374,3.68,5.39.395,1.987-1.541,4.338-1.341,6.388.2,2.012,2.555,3.943,2.555,6.006s-2.358,3.994-2.555,6.007c-.2,2.049,1.735,4.4,1.341,6.388-.4,2.016-3.09,3.449-3.68,5.391-.6,1.964.839,4.65.059,6.526-.787,1.893-3.705,2.769-4.668,4.563s-.085,4.719-1.22,6.412-4.171,1.99-5.466,3.566-1,4.61-2.441,6.053-4.475,1.143-6.053,2.44-1.867,4.328-3.566,5.466-4.608.252-6.412,1.22-2.67,3.881-4.562,4.668c-1.877.78-4.563-.656-6.526-.059-1.942.59-3.374,3.279-5.39,3.68-1.987.395-4.338-1.541-6.388-1.341-2.013.2-3.943,2.554-6.007,2.554" transform="translate(0.466 0.466)" fill="#d35560"/>
        <path id="Trazado_1004717" data-name="Trazado 1004717" d="M14,71.524a57.524,57.524,0,1,1,57.524,57.524A57.524,57.524,0,0,1,14,71.524" transform="translate(-7.524 -7.524)" fill="#4d787e"/>
        <path id="Trazado_1004718" data-name="Trazado 1004718" d="M131.909,269.316c-.153-.646-.3-1.314-.433-1.969l-2.01-.256q.9-.478,1.765-.962-.191-.985-.361-1.967c.46.452.931.917,1.416,1.362q.847-.526,1.657-1.055-.359.929-.741,1.855c.5.431,1.015.868,1.54,1.3l-2.02-.151q-.4.926-.813,1.849" transform="translate(-73.422 -150.295)" fill="#ffffc5"/>
        <path id="Trazado_1004719" data-name="Trazado 1004719" d="M113.426,265.848c-.055-.66-.1-1.343-.133-2.011l-1.949-.555q.962-.338,1.89-.686-.042-1-.061-2c.387.515.783,1.047,1.2,1.558q.916-.393,1.8-.794-.494.863-1.01,1.722c.431.5.872,1.016,1.329,1.509-.661-.137-1.317-.3-1.976-.449q-.529.856-1.081,1.706" transform="translate(-63.08 -148.261)" fill="#ffffc5"/>
        <path id="Trazado_1004720" data-name="Trazado 1004720" d="M95.721,259.733c.05-.672.108-1.345.172-2.013l-1.845-.838c.667-.124,1.326-.26,1.972-.4q.109-1,.239-1.984c.305.568.62,1.144.948,1.721q.965-.252,1.9-.518-.618.78-1.258,1.552c.352.559.712,1.129,1.088,1.693l-1.886-.741q-.652.767-1.325,1.525" transform="translate(-53.209 -144.782)" fill="#ffffc5"/>
        <path id="Trazado_1004721" data-name="Trazado 1004721" d="M79.2,251.1q.225-.987.47-1.963c-.565-.37-1.144-.718-1.7-1.105.667-.007,1.349-.058,2.007-.1q.256-.968.531-1.924.327.909.684,1.839c.652-.056,1.311-.146,1.95-.226q-.729.68-1.477,1.349.4.908.824,1.833L80.734,249.8c-.506.44-1.023.883-1.534,1.3" transform="translate(-44.034 -139.94)" fill="#ffffc5"/>
        <path id="Trazado_1004722" data-name="Trazado 1004722" d="M64.221,240.181q.368-.941.753-1.869c-.505-.448-1.035-.87-1.513-1.347.655.1,1.335.151,2,.207q.4-.918.807-1.822.192.945.41,1.914c.643.054,1.314.055,1.959.07q-.822.565-1.663,1.117.26.954.548,1.929l-1.593-1.253c-.57.365-1.13.707-1.7,1.054" transform="translate(-35.752 -133.852)" fill="#ffffc5"/>
        <path id="Trazado_1004723" data-name="Trazado 1004723" d="M51.1,227.217q.5-.876,1.018-1.735l-.663-.766c-.22-.256-.421-.528-.631-.792l.961.27.978.232q.525-.849,1.065-1.68.053.96.129,1.947l.955.2.969.162q-.9.439-1.812.862.119.978.263,1.982c-.464-.491-.938-.973-1.393-1.471q-.912.4-1.839.789" transform="translate(-28.54 -126.659)" fill="#ffffc5"/>
        <path id="Trazado_1004724" data-name="Trazado 1004724" d="M39.841,212.493q.625-.791,1.262-1.563c-.18-.286-.37-.565-.542-.856l-.506-.878c.616.274,1.207.55,1.839.786.431-.508.857-1,1.3-1.505-.067.643-.112,1.285-.159,1.943.616.229,1.214.456,1.845.645-.636.2-1.279.4-1.921.584-.019.658-.025,1.321-.027,2-.384-.555-.8-1.089-1.158-1.663q-.963.264-1.938.509" transform="translate(-22.272 -118.515)" fill="#ffffc5"/>
        <path id="Trazado_1004725" data-name="Trazado 1004725" d="M30.615,196.327q.734-.688,1.478-1.357c-.292-.61-.523-1.245-.774-1.872.571.362,1.115.723,1.7,1.054.5-.435,1.006-.868,1.522-1.3-.18.632-.3,1.253-.45,1.9.582.315,1.13.632,1.724.915-.662.106-1.323.2-1.978.288-.136.656-.223,1.3-.328,1.971-.3-.6-.629-1.2-.9-1.817q-.992.118-1.994.216" transform="translate(-17.006 -109.601)" fill="#ffffc5"/>
        <path id="Trazado_1004726" data-name="Trazado 1004726" d="M24.019,178.752q.829-.57,1.663-1.119c-.2-.646-.321-1.312-.483-1.967.509.444,1,.88,1.517,1.3.554-.355,1.135-.71,1.7-1.054-.278.6-.493,1.2-.732,1.809.526.4,1.033.792,1.563,1.164-.674.006-1.326,0-1.993-.014-.242.632-.419,1.256-.622,1.9-.221-.639-.438-1.278-.611-1.932q-1-.032-2.006-.086" transform="translate(-13.242 -99.79)" fill="#ffffc5"/>
        <path id="Trazado_1004727" data-name="Trazado 1004727" d="M20.215,160.164q.9-.439,1.812-.856c-.1-.668-.122-1.345-.182-2.018.437.516.856,1.02,1.3,1.511.6-.268,1.228-.532,1.843-.787-.365.551-.665,1.108-1,1.68.459.473.9.937,1.37,1.386-.665-.1-1.309-.2-1.967-.313-.334.588-.606,1.179-.9,1.785l-.179-1c-.056-.333-.089-.67-.135-1q-.984-.182-1.97-.386" transform="translate(-11.071 -89.302)" fill="#ffffc5"/>
        <path id="Trazado_1004728" data-name="Trazado 1004728" d="M19.269,141.311q.961-.3,1.921-.579c0-.676.063-1.349.115-2.022.359.574.682,1.135,1.072,1.687.64-.176,1.276-.346,1.93-.507-.428.492-.816,1-1.228,1.515.386.537.744,1.062,1.152,1.574q-.966-.29-1.905-.6c-.412.532-.767,1.076-1.153,1.631-.015-.675-.047-1.35-.015-2.025q-.945-.325-1.889-.673" transform="translate(-10.531 -78.698)" fill="#ffffc5"/>
        <path id="Trazado_1004729" data-name="Trazado 1004729" d="M21.174,122.6q1-.154,1.988-.286c.063-.332.112-.667.186-1l.228-.987c.266.621.507,1.224.81,1.828.663-.078,1.31-.152,1.981-.213-.489.424-.956.865-1.438,1.314.3.588.572,1.159.909,1.727-.6-.285-1.214-.58-1.8-.878-.471.467-.917.95-1.379,1.443.094-.668.149-1.343.283-2.006q-.885-.462-1.767-.947" transform="translate(-11.618 -68.211)" fill="#ffffc5"/>
        <path id="Trazado_1004730" data-name="Trazado 1004730" d="M25.928,104.462q1.007,0,2.007.015c.2-.644.459-1.27.708-1.9.173.655.316,1.286.525,1.929.664.021,1.322.048,1.994.088-.554.343-1.076.71-1.622,1.083.211.627.392,1.231.639,1.844-.553-.373-1.111-.756-1.647-1.139-.539.39-1.05.8-1.581,1.22.192-.648.351-1.305.583-1.941q-.806-.59-1.605-1.2" transform="translate(-14.331 -58.078)" fill="#ffffc5"/>
        <path id="Trazado_1004731" data-name="Trazado 1004731" d="M33.429,87.3q1,.147,1.98.315c.295-.608.656-1.181.986-1.77.071.672.132,1.326.228,1.984.648.118,1.311.252,1.964.389-.612.249-1.172.54-1.769.826.114.651.212,1.281.353,1.918-.5-.454-.976-.909-1.452-1.37-.6.3-1.159.634-1.749.966.279-.615.548-1.235.869-1.83q-.71-.7-1.409-1.43" transform="translate(-18.612 -48.53)" fill="#ffffc5"/>
        <path id="Trazado_1004732" data-name="Trazado 1004732" d="M43.489,71.506q.961.294,1.909.6c.393-.549.828-1.067,1.24-1.6q-.046,1.012-.071,2,.952.332,1.89.68c-.638.159-1.255.349-1.876.551q.02.988.06,1.948-.62-.775-1.225-1.566c-.642.206-1.253.446-1.878.692l.547-.853.586-.826q-.6-.8-1.183-1.625" transform="translate(-24.354 -39.775)" fill="#ffffc5"/>
        <path id="Trazado_1004733" data-name="Trazado 1004733" d="M55.279,57.409q.906.431,1.8.878l1.465-1.4q-.193,1-.359,1.97.891.467,1.766.95c-.646.071-1.3.15-1.94.264q-.124.983-.224,1.941-.5-.858-.981-1.732l-.989.183c-.327.067-.647.145-.974.22.432-.519.906-1,1.372-1.49q-.474-.884-.932-1.784" transform="translate(-30.831 -32.001)" fill="#ffffc5"/>
        <path id="Trazado_1004734" data-name="Trazado 1004734" d="M69.057,45.313c.553.372,1.1.749,1.652,1.141l1.651-1.175q-.335.961-.641,1.9.811.592,1.6,1.2c-.643-.015-1.315-.05-1.961-.03q-.265.958-.5,1.893-.367-.923-.716-1.861c-.659.027-1.347.038-2,.105.5-.451,1.054-.844,1.579-1.269q-.339-.946-.66-1.905" transform="translate(-38.421 -25.376)" fill="#ffffc5"/>
        <path id="Trazado_1004735" data-name="Trazado 1004735" d="M84.591,34.886c.492.45.986.918,1.469,1.382l1.8-.925q-.473.9-.914,1.792.713.705,1.407,1.42c-.634-.113-1.284-.229-1.937-.325q-.4.911-.774,1.8-.227-.969-.434-1.949c-.656-.071-1.331-.15-2-.2.577-.351,1.169-.678,1.752-1.018q-.2-.986-.371-1.985" transform="translate(-47.023 -19.444)" fill="#ffffc5"/>
        <path id="Trazado_1004736" data-name="Trazado 1004736" d="M101.552,26.946q.634.791,1.246,1.589c.64-.214,1.278-.44,1.921-.644-.405.538-.792,1.094-1.172,1.634q.6.8,1.177,1.613-.916-.311-1.866-.611c-.358.554-.7,1.119-1.034,1.67q-.08-.993-.139-1.994-.958-.254-1.949-.5l1.885-.745c-.03-.669-.056-1.348-.069-2.016" transform="translate(-56.455 -14.913)" fill="#ffffc5"/>
        <path id="Trazado_1004737" data-name="Trazado 1004737" d="M119.566,21.733q.507.876.993,1.758c.665-.115,1.329-.246,2-.349-.482.468-.948.962-1.4,1.439q.472.883.922,1.771-.858-.444-1.753-.883c-.439.486-.86,1-1.273,1.495q.07-.994.162-1.994-.908-.394-1.852-.78l1.974-.457c.071-.666.147-1.344.235-2" transform="translate(-66.511 -11.938)" fill="#ffffc5"/>
        <path id="Trazado_1004738" data-name="Trazado 1004738" d="M138.214,19.35q.371.944.72,1.888l2.025-.051q-.819.609-1.6,1.218.335.945.648,1.89-.784-.569-1.6-1.138c-.507.424-1,.862-1.483,1.29q.218-.972.459-1.946-.84-.527-1.715-1.051l2.02-.154c.17-.648.346-1.305.531-1.947" transform="translate(-76.959 -10.578)" fill="#ffffc5"/>
        <path id="Trazado_1004739" data-name="Trazado 1004739" d="M157.075,19.831c.153.647.3,1.314.433,1.969l2.01.256q-.9.478-1.765.962.191.985.36,1.967c-.46-.452-.931-.917-1.416-1.362q-.847.526-1.657,1.055.359-.929.741-1.855c-.5-.431-1.014-.868-1.54-1.3l2.021.151q.4-.926.813-1.849" transform="translate(-87.562 -10.852)" fill="#ffffc5"/>
        <path id="Trazado_1004740" data-name="Trazado 1004740" d="M175.741,23.17c.055.66.1,1.343.134,2.011l1.949.555q-.962.338-1.89.686.042,1,.061,2c-.387-.515-.782-1.047-1.2-1.558q-.916.393-1.8.794.494-.864,1.01-1.722c-.431-.5-.872-1.016-1.329-1.509.661.137,1.317.3,1.976.449q.53-.856,1.081-1.706" transform="translate(-98.088 -12.758)" fill="#ffffc5"/>
        <path id="Trazado_1004741" data-name="Trazado 1004741" d="M193.559,29.313c-.05.672-.108,1.345-.172,2.012l1.845.838c-.667.125-1.326.261-1.972.4q-.109,1-.239,1.984c-.305-.568-.62-1.144-.948-1.721q-.965.252-1.9.518.618-.78,1.257-1.552c-.351-.559-.712-1.129-1.087-1.693l1.886.741q.652-.767,1.325-1.525" transform="translate(-108.072 -16.264)" fill="#ffffc5"/>
        <path id="Trazado_1004742" data-name="Trazado 1004742" d="M209.923,38.133q-.225.987-.47,1.963c.565.37,1.144.718,1.7,1.105-.667.007-1.349.058-2.007.1q-.256.968-.531,1.924-.327-.909-.684-1.839c-.652.056-1.311.146-1.95.226q.729-.68,1.477-1.349-.4-.908-.824-1.833l1.756,1.011c.506-.44,1.022-.883,1.534-1.3" transform="translate(-117.09 -21.297)" fill="#ffffc5"/>
        <path id="Trazado_1004743" data-name="Trazado 1004743" d="M224.9,49.134q-.368.941-.753,1.869c.505.448,1.035.87,1.513,1.347-.655-.1-1.335-.151-2-.206q-.4.918-.807,1.822-.192-.945-.41-1.913c-.643-.055-1.314-.055-1.959-.07q.823-.565,1.663-1.117-.26-.954-.548-1.929l1.593,1.252c.57-.365,1.13-.707,1.7-1.054" transform="translate(-125.371 -27.463)" fill="#ffffc5"/>
        <path id="Trazado_1004744" data-name="Trazado 1004744" d="M238.176,61.933q-.5.876-1.018,1.735l.663.766c.22.256.42.528.632.792l-.961-.27-.978-.232q-.525.849-1.065,1.68-.053-.96-.129-1.947l-.955-.2-.969-.162q.9-.439,1.812-.862-.119-.978-.263-1.982c.464.491.938.973,1.393,1.471q.912-.4,1.839-.789" transform="translate(-132.736 -34.491)" fill="#ffffc5"/>
        <path id="Trazado_1004745" data-name="Trazado 1004745" d="M249.453,76.636q-.625.791-1.261,1.563c.18.285.37.565.542.856l.506.878c-.616-.274-1.207-.55-1.839-.786-.431.508-.857,1-1.3,1.505.067-.643.112-1.285.159-1.943-.616-.229-1.214-.455-1.845-.645.636-.2,1.279-.4,1.921-.585.019-.657.025-1.32.027-2,.384.555.8,1.089,1.158,1.663q.963-.264,1.938-.509" transform="translate(-139.022 -42.614)" fill="#ffffc5"/>
        <path id="Trazado_1004746" data-name="Trazado 1004746" d="M258.476,92.93q-.734.688-1.478,1.357c.292.61.523,1.245.774,1.872-.571-.362-1.115-.722-1.7-1.054-.5.435-1.006.868-1.522,1.3.18-.632.3-1.253.45-1.9-.582-.315-1.13-.632-1.724-.915.662-.106,1.324-.2,1.978-.288.136-.656.223-1.3.328-1.971.3.6.629,1.2.9,1.818q.992-.118,1.994-.215" transform="translate(-144.085 -51.657)" fill="#ffffc5"/>
        <path id="Trazado_1004747" data-name="Trazado 1004747" d="M265.025,110.463q-.829.571-1.663,1.119c.2.646.321,1.312.483,1.967-.509-.444-1-.88-1.517-1.3-.554.355-1.135.71-1.7,1.054.278-.6.493-1.195.733-1.809-.526-.4-1.033-.792-1.563-1.164.674-.006,1.326,0,1.993.014.242-.631.419-1.256.622-1.9.221.639.438,1.278.611,1.932q1,.032,2.006.086" transform="translate(-147.801 -61.426)" fill="#ffffc5"/>
        <path id="Trazado_1004748" data-name="Trazado 1004748" d="M268.935,128.842q-.9.439-1.812.856c.1.668.122,1.345.182,2.018-.437-.516-.856-1.02-1.3-1.511-.6.268-1.228.532-1.843.787.365-.551.665-1.108,1-1.68-.459-.473-.9-.937-1.37-1.386.665.1,1.309.2,1.967.313.334-.588.606-1.178.9-1.785l.179,1c.056.333.089.67.135,1q.984.182,1.97.386" transform="translate(-150.079 -71.704)" fill="#ffffc5"/>
        <path id="Trazado_1004749" data-name="Trazado 1004749" d="M270.032,147.643q-.961.3-1.921.579c0,.676-.063,1.349-.115,2.022-.359-.574-.682-1.135-1.072-1.687-.64.176-1.276.346-1.93.507.428-.492.816-1,1.228-1.515-.386-.537-.744-1.062-1.152-1.574q.966.29,1.905.6c.412-.532.767-1.076,1.153-1.631.015.675.047,1.35.015,2.025q.945.326,1.889.673" transform="translate(-150.77 -82.257)" fill="#ffffc5"/>
        <path id="Trazado_1004750" data-name="Trazado 1004750" d="M267.922,166.455q-1,.154-1.988.286c-.063.332-.112.667-.186,1l-.228.987c-.266-.621-.507-1.224-.81-1.828-.663.078-1.31.152-1.981.213.489-.424.956-.865,1.439-1.314-.3-.588-.572-1.159-.909-1.727.6.285,1.214.58,1.8.878.471-.467.917-.95,1.379-1.443-.094.668-.149,1.343-.283,2.006q.885.462,1.767.947" transform="translate(-149.478 -92.847)" fill="#ffffc5"/>
        <path id="Trazado_1004751" data-name="Trazado 1004751" d="M263.113,184.858q-1.007,0-2.007-.015c-.2.644-.459,1.27-.708,1.9-.173-.655-.315-1.287-.525-1.929-.664-.021-1.322-.048-1.994-.088.554-.343,1.076-.71,1.622-1.083-.211-.626-.391-1.231-.639-1.844.553.373,1.111.755,1.647,1.138.539-.39,1.05-.8,1.581-1.219-.192.647-.351,1.305-.583,1.94q.806.59,1.605,1.2" transform="translate(-146.71 -103.243)" fill="#ffffc5"/>
        <path id="Trazado_1004752" data-name="Trazado 1004752" d="M255.713,201.893q-1-.147-1.98-.315c-.295.608-.656,1.181-.986,1.769-.071-.672-.132-1.326-.228-1.984-.648-.118-1.311-.252-1.964-.389.612-.249,1.172-.54,1.769-.826-.114-.651-.211-1.281-.353-1.918.5.454.976.909,1.452,1.37.6-.3,1.159-.634,1.749-.966-.279.615-.548,1.235-.868,1.83q.709.7,1.408,1.429" transform="translate(-142.53 -112.667)" fill="#ffffc5"/>
        <path id="Trazado_1004753" data-name="Trazado 1004753" d="M245.906,217.614q-.961-.293-1.909-.6c-.393.549-.828,1.067-1.24,1.6q.046-1.012.071-2-.952-.332-1.89-.68c.638-.159,1.255-.349,1.876-.551q-.02-.988-.06-1.948.62.775,1.225,1.566c.642-.206,1.253-.446,1.878-.692l-.547.853-.586.826q.6.8,1.183,1.625" transform="translate(-137.041 -121.346)" fill="#ffffc5"/>
        <path id="Trazado_1004754" data-name="Trazado 1004754" d="M233.928,231.779q-.906-.431-1.8-.878l-1.465,1.4q.193-1,.359-1.97-.891-.467-1.766-.95c.646-.071,1.3-.15,1.94-.264q.124-.983.224-1.941.5.858.981,1.732l.989-.183c.327-.067.647-.145.974-.22-.432.519-.906,1-1.372,1.49q.474.884.932,1.784" transform="translate(-130.376 -129.187)" fill="#ffffc5"/>
        <path id="Trazado_1004755" data-name="Trazado 1004755" d="M220.049,244.088c-.553-.372-1.1-.749-1.652-1.141l-1.651,1.175q.335-.961.641-1.9-.811-.592-1.6-1.2c.643.015,1.315.05,1.961.03q.265-.958.5-1.893.367.923.717,1.861c.659-.027,1.347-.038,2-.105-.5.451-1.054.844-1.579,1.269q.339.946.66,1.905" transform="translate(-122.685 -136.026)" fill="#ffffc5"/>
        <path id="Trazado_1004756" data-name="Trazado 1004756" d="M204.568,254.268c-.492-.449-.986-.918-1.469-1.382l-1.8.925q.473-.9.914-1.792-.713-.706-1.407-1.421c.634.113,1.284.229,1.937.325q.4-.91.774-1.8.227.97.434,1.95c.656.071,1.33.149,2,.2-.577.352-1.168.678-1.752,1.019q.2.986.371,1.984" transform="translate(-114.135 -141.71)" fill="#ffffc5"/>
        <path id="Trazado_1004757" data-name="Trazado 1004757" d="M187.815,262.073q-.634-.791-1.246-1.589c-.64.214-1.278.44-1.921.644.405-.538.793-1.094,1.172-1.634q-.6-.8-1.177-1.613.916.311,1.866.611c.358-.554.7-1.119,1.034-1.67q.08.993.139,1.995.958.254,1.949.5l-1.885.745c.03.669.056,1.348.069,2.016" transform="translate(-104.913 -146.107)" fill="#ffffc5"/>
        <path id="Trazado_1004758" data-name="Trazado 1004758" d="M169.522,267.312q-.507-.876-.993-1.758c-.665.116-1.329.246-2,.349.482-.468.948-.963,1.4-1.439q-.472-.883-.922-1.771.858.444,1.753.883c.439-.486.86-1,1.273-1.495q-.07.994-.162,1.994.908.394,1.852.78l-1.974.457c-.071.666-.147,1.344-.235,2" transform="translate(-94.577 -149.108)" fill="#ffffc5"/>
        <path id="Trazado_1004759" data-name="Trazado 1004759" d="M150.745,269.873q-.371-.943-.719-1.888l-2.025.051q.819-.609,1.6-1.219-.336-.945-.648-1.89.784.569,1.6,1.138c.507-.424,1-.862,1.483-1.29q-.218.972-.459,1.946.84.527,1.715,1.05l-2.02.154c-.17.648-.346,1.305-.531,1.946" transform="translate(-84 -150.646)" fill="#ffffc5"/>
        <path id="Trazado_1004760" data-name="Trazado 1004760" d="M83.637,132.05A48.412,48.412,0,1,1,132.05,83.637,48.467,48.467,0,0,1,83.637,132.05" transform="translate(-19.637 -19.638)" fill="#fff7e8"/>
      </g>
    </g>
    <g id="Grupo_1180053" data-name="Grupo 1180053" transform="translate(-13402.254 -12647.618)">
      <rect id="Rectángulo_401104" data-name="Rectángulo 401104" width="60.508" height="61.237" transform="translate(0)" fill="none"/>
    </g>
    <g id="Grupo_1187776" data-name="Grupo 1187776" transform="translate(-13402.253 -12646.86)">
      <g id="Grupo_1187775" data-name="Grupo 1187775" clip-path="url(#clip-path-2)">
        <path id="Trazado_1033366" data-name="Trazado 1033366" d="M47.674,76.837c0,.634.138,1.193.856,1.149.662-.04.67-.636.667-1.18-.013-2.486,0-4.972-.011-7.458a1.516,1.516,0,0,1,1.7-1.752c2.572,0,5.144.019,7.715-.014.634-.008.817.211.8.813q-.055,1.734-.011,3.472a2.949,2.949,0,0,0,3.225,3.168c1.114.01,2.231.038,3.343-.015.675-.032.875.182.862.857-.048,2.443-.021,4.886-.053,7.329-.018,1.336-.517,1.8-1.9,1.835-.771.019-1.543,0-2.315,0-.438,0-.763.177-.786.656a.636.636,0,0,0,.719.721c1.587-.111,3.278.469,4.719-.655a.458.458,0,0,1,.668-.012c1.387,1.124,3.042.567,4.585.7a.725.725,0,0,0,.874-.723c0-.529-.393-.7-.884-.69-.814.01-1.63.034-2.443,0a1.6,1.6,0,0,1-1.761-1.753c0-2.486.016-4.973-.015-7.458-.008-.6.144-.83.778-.807,1.241.045,2.486.029,3.729.008a2.859,2.859,0,0,0,3.015-2.954c.036-1.2.033-2.4-.015-3.6-.026-.663.169-.913.862-.887,1.284.049,2.571.014,3.857.014V67.6c1.2,0,2.4-.007,3.6,0,1.443.011,1.935.475,1.947,1.9.021,2.443.018,4.886.013,7.33,0,.619.136,1.207.857,1.16.664-.044.649-.657.646-1.194-.011-2.315-.02-4.629,0-6.944a3.6,3.6,0,0,0-.739-2.641c-.134-.149-.345-.294-.132-.527,1.333-1.456.73-3.25.869-4.916.046-.548-.137-.987-.709-1.006s-.8.4-.805.947c0,.9,0,1.8,0,2.7a1.478,1.478,0,0,1-1.63,1.695c-2.615.013-5.229-.019-7.844,0-.627.006-.819-.213-.8-.821.043-1.113.032-2.229.019-3.343-.027-2.144-1.071-3.2-3.242-3.266-1.114-.033-2.231-.051-3.342,0-.719.035-.959-.173-.943-.922.049-2.357.011-4.715.025-7.072.009-1.567.5-2.038,2.1-2.061,1.071-.016,2.143-.007,3.214-.012.448,0,.771-.228.78-.669a.6.6,0,0,0-.633-.667c-1.954.184-4.037-.671-5.845.7-.178.135-.33.219-.544.043-1.656-1.364-3.626-.581-5.453-.782-.542-.059-1.1.036-1.085.747.016.643.583.666,1.049.673,1.028.016,2.058-.037,3.086-.014,1.361.03,1.857.515,1.871,1.874.024,2.4-.033,4.8.024,7.2.02.833-.273,1.01-1.031.98a32.9,32.9,0,0,0-3.6.045,2.753,2.753,0,0,0-2.766,2.913c-.03,1.157-.042,2.316,0,3.471.025.672-.089,1.007-.886.991-2.528-.05-5.058-.008-7.586-.034-1.246-.013-1.733-.545-1.758-1.823-.015-.814-.008-1.629-.007-2.443,0-.513-.092-.968-.733-.986s-.765.416-.764.942c0,.9-.005,1.8-.005,2.7s.773,1.625.808,2.349-.829,1.479-.821,2.423q.032,3.793,0,7.587m19.79-16.753c1.374-.093,1.693.407,1.541,1.631A19.644,19.644,0,0,0,68.989,64a2.466,2.466,0,0,0-2.83-.054,21.468,21.468,0,0,0-.019-2.526c-.137-1.1.3-1.267,1.324-1.336M60.81,61.8a1.535,1.535,0,0,1,1.7-1.657,11.4,11.4,0,0,0,1.154-.014c.764-.1,1.071.132,1.016.963-.075,1.151-.03,2.31-.011,3.466.019,1.24.362,1.519,1.462.982a2.858,2.858,0,0,1,2.982.038c.944.564,1.334.108,1.323-.877-.013-1.241.01-2.483-.037-3.723-.025-.67.2-.935.879-.857.423.048.856,0,1.283.012,1.222.045,1.787.582,1.8,1.829q.039,4.879.01,9.758c-.006,1.275-.52,1.787-1.783,1.8-1.669.021-3.338,0-5.008.005s-3.339-.024-5.007.009a1.535,1.535,0,0,1-1.752-1.722c-.032-3.338-.026-6.677-.008-10.015" transform="translate(-37.36 -36.975)" fill="#4d787e"/>
        <path id="Trazado_1033367" data-name="Trazado 1033367" d="M193.872.073a6.418,6.418,0,0,0-3.037,1.567c-.906.85-1.795,1.718-2.678,2.591a1.141,1.141,0,0,1-1.131.412c-.665-.141-.272-.605-.326-.919a2.747,2.747,0,0,0-1.6-1.881c-.707-.4-1.158.275-1.63.693a2.451,2.451,0,0,1-1.252.816c.1-.471.394-.914.067-1.33-1.023-1.3-1.748-2.092-3.121-.56-.378.421-.643,1.34-1.587.913-1.254-.567-2.145-.077-2.994.9-.931,1.068-.978,1.295.209,2.025,2.291,1.408,4.586,2.811,6.9,4.172.61.358.89.623.2,1.153a2.128,2.128,0,0,0-.526.56c-1.181,1.968-2.731,2.8-5.061,1.969a2.635,2.635,0,0,0-2.742,1.578c-.3,1.155.918,1.133,1.449,1.64a2.882,2.882,0,0,0,.884.506c.775.324,1.177.742.644,1.611a.915.915,0,0,0,.117,1.28.931.931,0,0,0,1.185.112c.845-.532,1.277-.138,1.587.647.14.354.361.676.527,1.021,1.172,2.446,1.478,1.873,3.079.249.429-.436.282-.954.205-1.454-.136-.886-.293-1.769-.445-2.653a1.059,1.059,0,0,1,.367-1.135c1.058-.854,2.083-1.75,3.146-2.65,1.519,2.668,3.015,5.3,4.519,7.929.251.438.466.947,1.134.847.96-.144,2.409-2.043,2.094-2.937a2.262,2.262,0,0,1,.812-2.774c1.152-1.011,1.036-1.587-.111-2.623a1.813,1.813,0,0,0-2.16-.22c.593-.558.9-.84,1.2-1.127.492-.473,1.189-.96.825-1.712a2.66,2.66,0,0,0-2.017-1.6c-.273-.04-.707.395-.8-.244-.063-.445-.279-.872.2-1.283.812-.7,1.561-1.466,2.338-2.2a6.713,6.713,0,0,0,2.005-3.371A1.952,1.952,0,0,0,193.872.073M176.425,4.6c-.228-.138-.666-.2-.516-.6a.655.655,0,0,1,.855-.349c3.157.772,6.317,1.535,9.735,2.363-.954.923-1.767,1.667-2.525,2.462-.408.428-.707.256-1.1.013-2.142-1.308-4.3-2.589-6.445-3.892m1,11.426A4.152,4.152,0,0,1,175.587,15c-.337-.325.216-.462.456-.436.751.08,1.494.229,2.466.388-.469.448-.556,1.2-1.087,1.079m4.152,5.009c-.284.069-.32-.217-.42-.38a8.5,8.5,0,0,0-.495-.88c-.822-1.035-.172-1.408.756-1.778.14.862.274,1.64.388,2.422.034.233.117.533-.229.617m10.971-1.351a.725.725,0,0,1-.429.942c-.421.163-.449-.27-.574-.488-1.3-2.291-2.59-4.592-3.894-6.883-.156-.274-.3-.462-.012-.771.829-.9,1.616-1.831,2.419-2.75l.369.3q1.059,4.827,2.121,9.652m2.31-17.2a4.43,4.43,0,0,1-1.143,1.978c-3.953,3.795-7.64,7.87-11.9,11.337a22.036,22.036,0,0,1-3.562,2.306,28.041,28.041,0,0,1,5.072-6.829C185.94,8.568,188.6,5.9,191.25,3.214a5.763,5.763,0,0,1,2.7-1.651c.807-.2,1.152.1.909.922" transform="translate(-135.995 0)" fill="#4d787e"/>
        <path id="Trazado_1033368" data-name="Trazado 1033368" d="M195.782,213.818c.011-2.307.313-4.559-.914-6.844-1.241-2.312-2.652-3.536-5.291-3.036-1.2.228-1.728-.184-1.529-1.468.189-1.222-.41-1.639-1.633-1.621-4.066.059-8.134.046-12.2.016-1.1-.008-1.56.451-1.546,1.527.024,1.8.007,3.6.007,5.394h-.018c0,1.755-.007,3.51,0,5.266.008,1.433.386,1.91,1.778,1.917a1.355,1.355,0,0,1,1.324.867c.883,1.473,3.28,1.809,4.144.385.827-1.361,1.858-1.194,3-1.206,1.412-.014,2.826.017,4.238-.016a1.154,1.154,0,0,1,1.187.68,2.639,2.639,0,0,0,4.622.072,1.258,1.258,0,0,1,1.279-.751c.794.038,1.544-.3,1.549-1.182m-15.345-11.54c.754.012,1.233-.008,1.226,1.032-.006,1.023-.359,1.276-1.233,1.092-.791.119-1.265.05-1.28-.995-.016-1.076.45-1.143,1.287-1.129m-6.329,6.707c.078-1.921.064-3.848.016-5.771-.018-.734.207-1.024.929-.911a1.537,1.537,0,0,0,.256,0c2.4-.034,2.429-.034,2.439,2.317,0,.873.268,1.294,1.177,1.205.339-.033.684-.007,1.026-.008,2.828-.008,2.845-.006,3.058-2.758.041-.533.175-.812.742-.751a1.815,1.815,0,0,0,.257,0c2.634-.087,2.64-.087,2.652,2.529.006,1.368-.053,2.738,0,4.1.027.773-.186,1.044-1,1.014-1.751-.065-3.506-.02-5.259-.02v-.012c-1.753,0-3.507-.03-5.26.014-.725.018-1.062-.09-1.027-.952m3.8,6.564a1.153,1.153,0,0,1-1.123-1.289,1.215,1.215,0,0,1,1.359-1.208,1.268,1.268,0,0,1,1.146,1.323c-.185.713-.532,1.262-1.383,1.174m8-2.017c-1.54-.058-3.084-.045-4.625,0-.54.014-.705-.3-.96-.657a2.684,2.684,0,0,0-4.532-.042c-.415.595-.9.976-1.422.611-.552-.387-.23-1.189-.191-1.8.025-.38.487-.227.757-.229,1.8-.013,3.6-.007,5.4-.007V211.4c1.842,0,3.685.043,5.525-.019.888-.03.84.463.813,1.049-.025.528.181,1.134-.761,1.1m5.086-8.16a1.229,1.229,0,0,1,1.457.5c.5.869,1.01,1.727,1.605,2.743H192.8c-2.188,0-2.2,0-2.155-2.187.008-.364-.293-.938.349-1.051m-.293,10.2a1.267,1.267,0,0,1-.094-2.533,1.268,1.268,0,0,1,.094,2.533m3.757-4.726c-.046.639,0,1.284-.019,1.925-.007.273.127.669-.3.726a.908.908,0,0,1-1.007-.29c-1.715-2.132-3.156-2.183-5.068-.054,0-2.489,0-4.751,0-7.014,0-.418,0-.756.579-.741s.557.39.555.786q-.007,1.091-.006,2.183c0,1.594.1,1.7,1.643,1.7.942,0,1.885.029,2.824-.017.62-.031.848.179.8.8" transform="translate(-135.315 -157.41)" fill="#4d787e"/>
        <path id="Trazado_1033369" data-name="Trazado 1033369" d="M2.123,200.935c-1.528.009-1.969.452-1.974,2q-.016,4.885,0,9.77c0,1.615.583,2.24,2.219,2.326a1.217,1.217,0,0,1,1.188.692,2.662,2.662,0,0,0,4.715.009,1.2,1.2,0,0,1,1.206-.668c1.757.021,3.514.024,5.271-.01a1.478,1.478,0,0,1,1.53.789,2.6,2.6,0,0,0,4.413.149,1.727,1.727,0,0,1,1.588-.958,1.3,1.3,0,0,0,1.373-1.277c.079-2.238.413-4.455-.912-6.588-2.217-3.571-1.47-3.192-5.446-3.147-1.026.012-1.422-.17-1.367-1.3.07-1.434-.388-1.789-1.846-1.794-1.971-.008-3.942,0-5.914,0-2.014,0-4.028-.01-6.042,0M18.5,215.618a1.116,1.116,0,0,1-1.165-1.244,1.185,1.185,0,0,1,1.3-1.262c.716.039,1.113.567,1.058,1.585a1.03,1.03,0,0,1-1.2.92m.316-10.179a1.23,1.23,0,0,1,1.477.462c.507.863,1,1.733,1.6,2.774H20.612c-2.15,0-2.159,0-2.14-2.15,0-.386-.239-.956.345-1.086m-2.221.049c.525.012.491.338.488.688-.007.812.055,1.63-.024,2.434-.119,1.226.435,1.6,1.575,1.521.978-.067,1.964-.026,2.947-.019.236,0,.615-.1.631.244a11.478,11.478,0,0,1-.038,2.935c-.122.563-.8.43-1.183-.02-1.768-2.074-2.815-2.152-5.04-.242,0-2.356.01-4.608-.008-6.86,0-.484.14-.691.65-.68m-9.513,9.153a1.037,1.037,0,0,1-1.162.975A1.113,1.113,0,0,1,4.7,214.434a1.177,1.177,0,0,1,1.258-1.306c.693,0,1.159.482,1.126,1.513m6.3-1.039c-.895-.067-1.8-.011-2.7-.018-1.115-.008-2.109.117-2.955-1.12-.9-1.323-3.136-.986-4.059.463-.489.769-1.133.9-1.7.556-.72-.446-.33-1.327-.26-2.008.034-.336.508-.2.788-.2,1.885-.011,3.771-.006,5.656-.006v.006c1.757,0,3.519.08,5.269-.029,1.112-.069,1.076.473,1.128,1.283.063.977-.339,1.135-1.173,1.072m.194-11.275c.7-.014.973.173.952.929q-.08,2.821,0,5.646c.02.757-.15,1.038-.978,1.027-3.678-.048-7.357-.038-11.036-.011-.652,0-.9-.15-.885-.848.046-1.967.063-3.936,0-5.9-.023-.767.319-.817.911-.81,1.839.023,3.679.008,5.518.008v-.025c1.839,0,3.679.025,5.518-.013" transform="translate(-0.11 -157.473)" fill="#4d787e"/>
        <path id="Trazado_1033370" data-name="Trazado 1033370" d="M.344,21.66a.923.923,0,0,0,1.18-.177,1.89,1.89,0,0,1,2.715-.067A2.317,2.317,0,0,0,7.218,21.3,1.594,1.594,0,0,1,9.5,21.3a2.515,2.515,0,0,0,3.3-.084,1.359,1.359,0,0,1,1.941-.043,2.58,2.58,0,0,0,3.513.022,1.325,1.325,0,0,1,1.842-.038,4.516,4.516,0,0,0,1,.56.688.688,0,0,0,.949-.4.718.718,0,0,0-.287-.9,3.361,3.361,0,0,0-4.337-.394c-.383.242-.775.7-1.249.309-.45-.371.016-.8.148-1.147.93-2.424,1.913-4.828,2.881-7.237.316-.787.284-1.527-.675-1.7-1.708-.3-2.02-1.371-1.812-2.847.053-.378-.038-.776.014-1.154.169-1.219-.383-1.662-1.537-1.492-.742.109-1.156-.094-1.024-.946.167-1.075-.333-1.533-1.385-1.368-.817.128-1.077-.2-.976-.985.075-.577.026-1.229-.731-1.236s-.818.641-.747,1.222c.094.769-.143,1.146-.97,1-1.145-.206-1.594.311-1.467,1.426.062.545-.067.845-.744.88-1.759.091-1.757.132-1.754,1.883A8.514,8.514,0,0,0,5.4,7.912a1.66,1.66,0,0,1-1.473,2.161c-1.2.259-1.342.978-.919,2.11.9,2.393,1.9,4.739,2.871,7.1.117.284.573.633.069,1-.4.291-.731.053-1.05-.154a3.32,3.32,0,0,0-1.9-.753,4.333,4.333,0,0,0-2.724,1.2A.63.63,0,0,0,.344,21.66M10.984,3.716c.606.39,1.727-.439,1.723.564,0,.931-1.111.432-1.686.42s-1.668.542-1.655-.433,1.143-.1,1.618-.551M8.578,6.168c1.835-.033,3.672.034,5.5-.032.86-.031,1.277.15,1.145,1.1a12.952,12.952,0,0,0-.012,1.662,4.1,4.1,0,0,1-.63-.212,6.518,6.518,0,0,0-6.944-.027c-.752.433-.82.015-.819-.61,0-2.257-.257-1.841,1.756-1.878m-4,6.079c-.252-.6-.122-.815.443-1.024,1.71-.634,3.4-1.314,5.289-2.048,0,2.856,0,5.552,0,8.247,0,.58-.144,1.32.8,1.274.828-.041.7-.717.7-1.258.006-2.694,0-5.388,0-8.223,1.892.711,3.676,1.388,5.464,2.051.5.184.467.452.288.891-.917,2.245-1.792,4.508-2.694,6.76-.105.263-.207.568-.634.47a2.821,2.821,0,0,0-2.477.753,1.061,1.061,0,0,1-1.4.016,3.254,3.254,0,0,0-2.588-.86c-.418.095-.461-.276-.567-.54-.873-2.172-1.718-4.356-2.631-6.511" transform="translate(0 -0.175)" fill="#4d787e"/>
        <path id="Trazado_1033371" data-name="Trazado 1033371" d="M115.313,146.486c1.232.025,2.465.015,3.7-.015a.691.691,0,0,0,.746-.71.709.709,0,0,0-.739-.721c-.637-.026-1.275-.007-1.913-.007v-.016c-.553,0-1.106.007-1.658,0-.524-.008-.985.163-1.007.723-.019.493.422.738.873.747" transform="translate(-89.689 -113.653)" fill="#4d787e"/>
        <path id="Trazado_1033372" data-name="Trazado 1033372" d="M118.917,155.827c-.6.007-1.194,0-1.791,0v0c-.512,0-1.024.023-1.535-.006-.545-.031-.992.164-1.026.706s.4.8.939.8c1.151.006,2.3,0,3.454,0,.509,0,.852-.264.824-.754a.776.776,0,0,0-.865-.749" transform="translate(-89.787 -122.116)" fill="#4d787e"/>
      </g>
    </g>
  </g>
</svg>
