<svg xmlns="http://www.w3.org/2000/svg" xmlns:xlink="http://www.w3.org/1999/xlink" width="128" height="128" viewBox="0 0 128 128">
  <defs>
    <clipPath id="clip-path">
      <rect id="Rectángulo_456277" data-name="Rectángulo 456277" width="128" height="128" transform="translate(0 0)" fill="#d35560"/>
    </clipPath>
    <clipPath id="clip-path-2">
      <rect id="Rectángulo_459955" data-name="Rectángulo 459955" width="57.104" height="59.31" fill="#4d787e"/>
    </clipPath>
  </defs>
  <g id="Grupo_1186139" data-name="Grupo 1186139" transform="translate(13436 12681)">
    <g id="Grupo_1179924" data-name="Grupo 1179924" transform="translate(-13436 -12681)">
      <g id="Grupo_1179923" data-name="Grupo 1179923" transform="translate(0 0)" clip-path="url(#clip-path)">
        <path id="Trazado_1004716" data-name="Trazado 1004716" d="M63.534,127.068c-2.064,0-3.994-2.358-6.006-2.554-2.05-.2-4.4,1.735-6.388,1.341-2.016-.4-3.449-3.09-5.391-3.68-1.964-.6-4.65.839-6.526.059-1.892-.786-2.769-3.705-4.562-4.667s-4.72-.086-6.412-1.22-1.99-4.172-3.566-5.467-4.61-1-6.054-2.44-1.143-4.475-2.44-6.054-4.328-1.867-5.467-3.566-.252-4.608-1.22-6.411-3.881-2.67-4.668-4.562c-.78-1.877.656-4.563.059-6.526-.59-1.942-3.28-3.374-3.68-5.391-.395-1.987,1.541-4.338,1.34-6.388C2.358,67.528,0,65.6,0,63.534s2.358-3.994,2.554-6.006c.2-2.05-1.735-4.4-1.34-6.388.4-2.016,3.09-3.449,3.68-5.391.6-1.964-.839-4.65-.059-6.527C5.622,37.33,8.54,36.453,9.5,34.66s.085-4.719,1.22-6.412,4.171-1.99,5.466-3.566,1-4.61,2.441-6.054,4.475-1.143,6.053-2.44,1.867-4.328,3.566-5.467,4.608-.252,6.412-1.22,2.67-3.881,4.562-4.668c1.877-.78,4.563.656,6.527.059,1.942-.59,3.374-3.279,5.39-3.68,1.987-.395,4.338,1.541,6.388,1.341C59.54,2.358,61.47,0,63.534,0s3.994,2.358,6.006,2.554c2.05.2,4.4-1.735,6.388-1.341,2.016.4,3.449,3.09,5.391,3.68,1.964.6,4.65-.839,6.526-.059,1.892.786,2.769,3.705,4.562,4.668s4.72.085,6.412,1.22,1.99,4.171,3.566,5.466,4.61,1,6.054,2.441,1.143,4.475,2.44,6.053,4.328,1.867,5.467,3.566.252,4.608,1.22,6.412,3.881,2.67,4.667,4.562c.78,1.877-.656,4.563-.059,6.526.59,1.942,3.28,3.374,3.68,5.39.395,1.987-1.541,4.338-1.341,6.388.2,2.012,2.555,3.943,2.555,6.006s-2.358,3.994-2.555,6.007c-.2,2.049,1.735,4.4,1.341,6.388-.4,2.016-3.09,3.449-3.68,5.391-.6,1.964.839,4.65.059,6.526-.787,1.893-3.705,2.769-4.668,4.563s-.085,4.719-1.22,6.412-4.171,1.99-5.466,3.566-1,4.61-2.441,6.053-4.475,1.143-6.053,2.44-1.867,4.328-3.566,5.466-4.608.252-6.412,1.22-2.67,3.881-4.562,4.668c-1.877.78-4.563-.656-6.526-.059-1.942.59-3.374,3.279-5.39,3.68-1.987.395-4.338-1.541-6.388-1.341-2.013.2-3.943,2.554-6.007,2.554" transform="translate(0.466 0.466)" fill="#d35560"/>
        <path id="Trazado_1004717" data-name="Trazado 1004717" d="M14,71.524a57.524,57.524,0,1,1,57.524,57.524A57.524,57.524,0,0,1,14,71.524" transform="translate(-7.524 -7.524)" fill="#4d787e"/>
        <path id="Trazado_1004718" data-name="Trazado 1004718" d="M131.909,269.316c-.153-.646-.3-1.314-.433-1.969l-2.01-.256q.9-.478,1.765-.962-.191-.985-.361-1.967c.46.452.931.917,1.416,1.362q.847-.526,1.657-1.055-.359.929-.741,1.855c.5.431,1.015.868,1.54,1.3l-2.02-.151q-.4.926-.813,1.849" transform="translate(-73.422 -150.295)" fill="#ffffc5"/>
        <path id="Trazado_1004719" data-name="Trazado 1004719" d="M113.426,265.848c-.055-.66-.1-1.343-.133-2.011l-1.949-.555q.962-.338,1.89-.686-.042-1-.061-2c.387.515.783,1.047,1.2,1.558q.916-.393,1.8-.794-.494.863-1.01,1.722c.431.5.872,1.016,1.329,1.509-.661-.137-1.317-.3-1.976-.449q-.529.856-1.081,1.706" transform="translate(-63.08 -148.261)" fill="#ffffc5"/>
        <path id="Trazado_1004720" data-name="Trazado 1004720" d="M95.721,259.733c.05-.672.108-1.345.172-2.013l-1.845-.838c.667-.124,1.326-.26,1.972-.4q.109-1,.239-1.984c.305.568.62,1.144.948,1.721q.965-.252,1.9-.518-.618.78-1.258,1.552c.352.559.712,1.129,1.088,1.693l-1.886-.741q-.652.767-1.325,1.525" transform="translate(-53.209 -144.782)" fill="#ffffc5"/>
        <path id="Trazado_1004721" data-name="Trazado 1004721" d="M79.2,251.1q.225-.987.47-1.963c-.565-.37-1.144-.718-1.7-1.105.667-.007,1.349-.058,2.007-.1q.256-.968.531-1.924.327.909.684,1.839c.652-.056,1.311-.146,1.95-.226q-.729.68-1.477,1.349.4.908.824,1.833L80.734,249.8c-.506.44-1.023.883-1.534,1.3" transform="translate(-44.034 -139.94)" fill="#ffffc5"/>
        <path id="Trazado_1004722" data-name="Trazado 1004722" d="M64.221,240.181q.368-.941.753-1.869c-.505-.448-1.035-.87-1.513-1.347.655.1,1.335.151,2,.207q.4-.918.807-1.822.192.945.41,1.914c.643.054,1.314.055,1.959.07q-.822.565-1.663,1.117.26.954.548,1.929l-1.593-1.253c-.57.365-1.13.707-1.7,1.054" transform="translate(-35.752 -133.852)" fill="#ffffc5"/>
        <path id="Trazado_1004723" data-name="Trazado 1004723" d="M51.1,227.217q.5-.876,1.018-1.735l-.663-.766c-.22-.256-.421-.528-.631-.792l.961.27.978.232q.525-.849,1.065-1.68.053.96.129,1.947l.955.2.969.162q-.9.439-1.812.862.119.978.263,1.982c-.464-.491-.938-.973-1.393-1.471q-.912.4-1.839.789" transform="translate(-28.54 -126.659)" fill="#ffffc5"/>
        <path id="Trazado_1004724" data-name="Trazado 1004724" d="M39.841,212.493q.625-.791,1.262-1.563c-.18-.286-.37-.565-.542-.856l-.506-.878c.616.274,1.207.55,1.839.786.431-.508.857-1,1.3-1.505-.067.643-.112,1.285-.159,1.943.616.229,1.214.456,1.845.645-.636.2-1.279.4-1.921.584-.019.658-.025,1.321-.027,2-.384-.555-.8-1.089-1.158-1.663q-.963.264-1.938.509" transform="translate(-22.272 -118.515)" fill="#ffffc5"/>
        <path id="Trazado_1004725" data-name="Trazado 1004725" d="M30.615,196.327q.734-.688,1.478-1.357c-.292-.61-.523-1.245-.774-1.872.571.362,1.115.723,1.7,1.054.5-.435,1.006-.868,1.522-1.3-.18.632-.3,1.253-.45,1.9.582.315,1.13.632,1.724.915-.662.106-1.323.2-1.978.288-.136.656-.223,1.3-.328,1.971-.3-.6-.629-1.2-.9-1.817q-.992.118-1.994.216" transform="translate(-17.006 -109.601)" fill="#ffffc5"/>
        <path id="Trazado_1004726" data-name="Trazado 1004726" d="M24.019,178.752q.829-.57,1.663-1.119c-.2-.646-.321-1.312-.483-1.967.509.444,1,.88,1.517,1.3.554-.355,1.135-.71,1.7-1.054-.278.6-.493,1.2-.732,1.809.526.4,1.033.792,1.563,1.164-.674.006-1.326,0-1.993-.014-.242.632-.419,1.256-.622,1.9-.221-.639-.438-1.278-.611-1.932q-1-.032-2.006-.086" transform="translate(-13.242 -99.79)" fill="#ffffc5"/>
        <path id="Trazado_1004727" data-name="Trazado 1004727" d="M20.215,160.164q.9-.439,1.812-.856c-.1-.668-.122-1.345-.182-2.018.437.516.856,1.02,1.3,1.511.6-.268,1.228-.532,1.843-.787-.365.551-.665,1.108-1,1.68.459.473.9.937,1.37,1.386-.665-.1-1.309-.2-1.967-.313-.334.588-.606,1.179-.9,1.785l-.179-1c-.056-.333-.089-.67-.135-1q-.984-.182-1.97-.386" transform="translate(-11.071 -89.302)" fill="#ffffc5"/>
        <path id="Trazado_1004728" data-name="Trazado 1004728" d="M19.269,141.311q.961-.3,1.921-.579c0-.676.063-1.349.115-2.022.359.574.682,1.135,1.072,1.687.64-.176,1.276-.346,1.93-.507-.428.492-.816,1-1.228,1.515.386.537.744,1.062,1.152,1.574q-.966-.29-1.905-.6c-.412.532-.767,1.076-1.153,1.631-.015-.675-.047-1.35-.015-2.025q-.945-.325-1.889-.673" transform="translate(-10.531 -78.698)" fill="#ffffc5"/>
        <path id="Trazado_1004729" data-name="Trazado 1004729" d="M21.174,122.6q1-.154,1.988-.286c.063-.332.112-.667.186-1l.228-.987c.266.621.507,1.224.81,1.828.663-.078,1.31-.152,1.981-.213-.489.424-.956.865-1.438,1.314.3.588.572,1.159.909,1.727-.6-.285-1.214-.58-1.8-.878-.471.467-.917.95-1.379,1.443.094-.668.149-1.343.283-2.006q-.885-.462-1.767-.947" transform="translate(-11.618 -68.211)" fill="#ffffc5"/>
        <path id="Trazado_1004730" data-name="Trazado 1004730" d="M25.928,104.462q1.007,0,2.007.015c.2-.644.459-1.27.708-1.9.173.655.316,1.286.525,1.929.664.021,1.322.048,1.994.088-.554.343-1.076.71-1.622,1.083.211.627.392,1.231.639,1.844-.553-.373-1.111-.756-1.647-1.139-.539.39-1.05.8-1.581,1.22.192-.648.351-1.305.583-1.941q-.806-.59-1.605-1.2" transform="translate(-14.331 -58.078)" fill="#ffffc5"/>
        <path id="Trazado_1004731" data-name="Trazado 1004731" d="M33.429,87.3q1,.147,1.98.315c.295-.608.656-1.181.986-1.77.071.672.132,1.326.228,1.984.648.118,1.311.252,1.964.389-.612.249-1.172.54-1.769.826.114.651.212,1.281.353,1.918-.5-.454-.976-.909-1.452-1.37-.6.3-1.159.634-1.749.966.279-.615.548-1.235.869-1.83q-.71-.7-1.409-1.43" transform="translate(-18.612 -48.53)" fill="#ffffc5"/>
        <path id="Trazado_1004732" data-name="Trazado 1004732" d="M43.489,71.506q.961.294,1.909.6c.393-.549.828-1.067,1.24-1.6q-.046,1.012-.071,2,.952.332,1.89.68c-.638.159-1.255.349-1.876.551q.02.988.06,1.948-.62-.775-1.225-1.566c-.642.206-1.253.446-1.878.692l.547-.853.586-.826q-.6-.8-1.183-1.625" transform="translate(-24.354 -39.775)" fill="#ffffc5"/>
        <path id="Trazado_1004733" data-name="Trazado 1004733" d="M55.279,57.409q.906.431,1.8.878l1.465-1.4q-.193,1-.359,1.97.891.467,1.766.95c-.646.071-1.3.15-1.94.264q-.124.983-.224,1.941-.5-.858-.981-1.732l-.989.183c-.327.067-.647.145-.974.22.432-.519.906-1,1.372-1.49q-.474-.884-.932-1.784" transform="translate(-30.831 -32.001)" fill="#ffffc5"/>
        <path id="Trazado_1004734" data-name="Trazado 1004734" d="M69.057,45.313c.553.372,1.1.749,1.652,1.141l1.651-1.175q-.335.961-.641,1.9.811.592,1.6,1.2c-.643-.015-1.315-.05-1.961-.03q-.265.958-.5,1.893-.367-.923-.716-1.861c-.659.027-1.347.038-2,.105.5-.451,1.054-.844,1.579-1.269q-.339-.946-.66-1.905" transform="translate(-38.421 -25.376)" fill="#ffffc5"/>
        <path id="Trazado_1004735" data-name="Trazado 1004735" d="M84.591,34.886c.492.45.986.918,1.469,1.382l1.8-.925q-.473.9-.914,1.792.713.705,1.407,1.42c-.634-.113-1.284-.229-1.937-.325q-.4.911-.774,1.8-.227-.969-.434-1.949c-.656-.071-1.331-.15-2-.2.577-.351,1.169-.678,1.752-1.018q-.2-.986-.371-1.985" transform="translate(-47.023 -19.444)" fill="#ffffc5"/>
        <path id="Trazado_1004736" data-name="Trazado 1004736" d="M101.552,26.946q.634.791,1.246,1.589c.64-.214,1.278-.44,1.921-.644-.405.538-.792,1.094-1.172,1.634q.6.8,1.177,1.613-.916-.311-1.866-.611c-.358.554-.7,1.119-1.034,1.67q-.08-.993-.139-1.994-.958-.254-1.949-.5l1.885-.745c-.03-.669-.056-1.348-.069-2.016" transform="translate(-56.455 -14.913)" fill="#ffffc5"/>
        <path id="Trazado_1004737" data-name="Trazado 1004737" d="M119.566,21.733q.507.876.993,1.758c.665-.115,1.329-.246,2-.349-.482.468-.948.962-1.4,1.439q.472.883.922,1.771-.858-.444-1.753-.883c-.439.486-.86,1-1.273,1.495q.07-.994.162-1.994-.908-.394-1.852-.78l1.974-.457c.071-.666.147-1.344.235-2" transform="translate(-66.511 -11.938)" fill="#ffffc5"/>
        <path id="Trazado_1004738" data-name="Trazado 1004738" d="M138.214,19.35q.371.944.72,1.888l2.025-.051q-.819.609-1.6,1.218.335.945.648,1.89-.784-.569-1.6-1.138c-.507.424-1,.862-1.483,1.29q.218-.972.459-1.946-.84-.527-1.715-1.051l2.02-.154c.17-.648.346-1.305.531-1.947" transform="translate(-76.959 -10.578)" fill="#ffffc5"/>
        <path id="Trazado_1004739" data-name="Trazado 1004739" d="M157.075,19.831c.153.647.3,1.314.433,1.969l2.01.256q-.9.478-1.765.962.191.985.36,1.967c-.46-.452-.931-.917-1.416-1.362q-.847.526-1.657,1.055.359-.929.741-1.855c-.5-.431-1.014-.868-1.54-1.3l2.021.151q.4-.926.813-1.849" transform="translate(-87.562 -10.852)" fill="#ffffc5"/>
        <path id="Trazado_1004740" data-name="Trazado 1004740" d="M175.741,23.17c.055.66.1,1.343.134,2.011l1.949.555q-.962.338-1.89.686.042,1,.061,2c-.387-.515-.782-1.047-1.2-1.558q-.916.393-1.8.794.494-.864,1.01-1.722c-.431-.5-.872-1.016-1.329-1.509.661.137,1.317.3,1.976.449q.53-.856,1.081-1.706" transform="translate(-98.088 -12.758)" fill="#ffffc5"/>
        <path id="Trazado_1004741" data-name="Trazado 1004741" d="M193.559,29.313c-.05.672-.108,1.345-.172,2.012l1.845.838c-.667.125-1.326.261-1.972.4q-.109,1-.239,1.984c-.305-.568-.62-1.144-.948-1.721q-.965.252-1.9.518.618-.78,1.257-1.552c-.351-.559-.712-1.129-1.087-1.693l1.886.741q.652-.767,1.325-1.525" transform="translate(-108.072 -16.264)" fill="#ffffc5"/>
        <path id="Trazado_1004742" data-name="Trazado 1004742" d="M209.923,38.133q-.225.987-.47,1.963c.565.37,1.144.718,1.7,1.105-.667.007-1.349.058-2.007.1q-.256.968-.531,1.924-.327-.909-.684-1.839c-.652.056-1.311.146-1.95.226q.729-.68,1.477-1.349-.4-.908-.824-1.833l1.756,1.011c.506-.44,1.022-.883,1.534-1.3" transform="translate(-117.09 -21.297)" fill="#ffffc5"/>
        <path id="Trazado_1004743" data-name="Trazado 1004743" d="M224.9,49.134q-.368.941-.753,1.869c.505.448,1.035.87,1.513,1.347-.655-.1-1.335-.151-2-.206q-.4.918-.807,1.822-.192-.945-.41-1.913c-.643-.055-1.314-.055-1.959-.07q.823-.565,1.663-1.117-.26-.954-.548-1.929l1.593,1.252c.57-.365,1.13-.707,1.7-1.054" transform="translate(-125.371 -27.463)" fill="#ffffc5"/>
        <path id="Trazado_1004744" data-name="Trazado 1004744" d="M238.176,61.933q-.5.876-1.018,1.735l.663.766c.22.256.42.528.632.792l-.961-.27-.978-.232q-.525.849-1.065,1.68-.053-.96-.129-1.947l-.955-.2-.969-.162q.9-.439,1.812-.862-.119-.978-.263-1.982c.464.491.938.973,1.393,1.471q.912-.4,1.839-.789" transform="translate(-132.736 -34.491)" fill="#ffffc5"/>
        <path id="Trazado_1004745" data-name="Trazado 1004745" d="M249.453,76.636q-.625.791-1.261,1.563c.18.285.37.565.542.856l.506.878c-.616-.274-1.207-.55-1.839-.786-.431.508-.857,1-1.3,1.505.067-.643.112-1.285.159-1.943-.616-.229-1.214-.455-1.845-.645.636-.2,1.279-.4,1.921-.585.019-.657.025-1.32.027-2,.384.555.8,1.089,1.158,1.663q.963-.264,1.938-.509" transform="translate(-139.022 -42.614)" fill="#ffffc5"/>
        <path id="Trazado_1004746" data-name="Trazado 1004746" d="M258.476,92.93q-.734.688-1.478,1.357c.292.61.523,1.245.774,1.872-.571-.362-1.115-.722-1.7-1.054-.5.435-1.006.868-1.522,1.3.18-.632.3-1.253.45-1.9-.582-.315-1.13-.632-1.724-.915.662-.106,1.324-.2,1.978-.288.136-.656.223-1.3.328-1.971.3.6.629,1.2.9,1.818q.992-.118,1.994-.215" transform="translate(-144.085 -51.657)" fill="#ffffc5"/>
        <path id="Trazado_1004747" data-name="Trazado 1004747" d="M265.025,110.463q-.829.571-1.663,1.119c.2.646.321,1.312.483,1.967-.509-.444-1-.88-1.517-1.3-.554.355-1.135.71-1.7,1.054.278-.6.493-1.195.733-1.809-.526-.4-1.033-.792-1.563-1.164.674-.006,1.326,0,1.993.014.242-.631.419-1.256.622-1.9.221.639.438,1.278.611,1.932q1,.032,2.006.086" transform="translate(-147.801 -61.426)" fill="#ffffc5"/>
        <path id="Trazado_1004748" data-name="Trazado 1004748" d="M268.935,128.842q-.9.439-1.812.856c.1.668.122,1.345.182,2.018-.437-.516-.856-1.02-1.3-1.511-.6.268-1.228.532-1.843.787.365-.551.665-1.108,1-1.68-.459-.473-.9-.937-1.37-1.386.665.1,1.309.2,1.967.313.334-.588.606-1.178.9-1.785l.179,1c.056.333.089.67.135,1q.984.182,1.97.386" transform="translate(-150.079 -71.704)" fill="#ffffc5"/>
        <path id="Trazado_1004749" data-name="Trazado 1004749" d="M270.032,147.643q-.961.3-1.921.579c0,.676-.063,1.349-.115,2.022-.359-.574-.682-1.135-1.072-1.687-.64.176-1.276.346-1.93.507.428-.492.816-1,1.228-1.515-.386-.537-.744-1.062-1.152-1.574q.966.29,1.905.6c.412-.532.767-1.076,1.153-1.631.015.675.047,1.35.015,2.025q.945.326,1.889.673" transform="translate(-150.77 -82.257)" fill="#ffffc5"/>
        <path id="Trazado_1004750" data-name="Trazado 1004750" d="M267.922,166.455q-1,.154-1.988.286c-.063.332-.112.667-.186,1l-.228.987c-.266-.621-.507-1.224-.81-1.828-.663.078-1.31.152-1.981.213.489-.424.956-.865,1.439-1.314-.3-.588-.572-1.159-.909-1.727.6.285,1.214.58,1.8.878.471-.467.917-.95,1.379-1.443-.094.668-.149,1.343-.283,2.006q.885.462,1.767.947" transform="translate(-149.478 -92.847)" fill="#ffffc5"/>
        <path id="Trazado_1004751" data-name="Trazado 1004751" d="M263.113,184.858q-1.007,0-2.007-.015c-.2.644-.459,1.27-.708,1.9-.173-.655-.315-1.287-.525-1.929-.664-.021-1.322-.048-1.994-.088.554-.343,1.076-.71,1.622-1.083-.211-.626-.391-1.231-.639-1.844.553.373,1.111.755,1.647,1.138.539-.39,1.05-.8,1.581-1.219-.192.647-.351,1.305-.583,1.94q.806.59,1.605,1.2" transform="translate(-146.71 -103.243)" fill="#ffffc5"/>
        <path id="Trazado_1004752" data-name="Trazado 1004752" d="M255.713,201.893q-1-.147-1.98-.315c-.295.608-.656,1.181-.986,1.769-.071-.672-.132-1.326-.228-1.984-.648-.118-1.311-.252-1.964-.389.612-.249,1.172-.54,1.769-.826-.114-.651-.211-1.281-.353-1.918.5.454.976.909,1.452,1.37.6-.3,1.159-.634,1.749-.966-.279.615-.548,1.235-.868,1.83q.709.7,1.408,1.429" transform="translate(-142.53 -112.667)" fill="#ffffc5"/>
        <path id="Trazado_1004753" data-name="Trazado 1004753" d="M245.906,217.614q-.961-.293-1.909-.6c-.393.549-.828,1.067-1.24,1.6q.046-1.012.071-2-.952-.332-1.89-.68c.638-.159,1.255-.349,1.876-.551q-.02-.988-.06-1.948.62.775,1.225,1.566c.642-.206,1.253-.446,1.878-.692l-.547.853-.586.826q.6.8,1.183,1.625" transform="translate(-137.041 -121.346)" fill="#ffffc5"/>
        <path id="Trazado_1004754" data-name="Trazado 1004754" d="M233.928,231.779q-.906-.431-1.8-.878l-1.465,1.4q.193-1,.359-1.97-.891-.467-1.766-.95c.646-.071,1.3-.15,1.94-.264q.124-.983.224-1.941.5.858.981,1.732l.989-.183c.327-.067.647-.145.974-.22-.432.519-.906,1-1.372,1.49q.474.884.932,1.784" transform="translate(-130.376 -129.187)" fill="#ffffc5"/>
        <path id="Trazado_1004755" data-name="Trazado 1004755" d="M220.049,244.088c-.553-.372-1.1-.749-1.652-1.141l-1.651,1.175q.335-.961.641-1.9-.811-.592-1.6-1.2c.643.015,1.315.05,1.961.03q.265-.958.5-1.893.367.923.717,1.861c.659-.027,1.347-.038,2-.105-.5.451-1.054.844-1.579,1.269q.339.946.66,1.905" transform="translate(-122.685 -136.026)" fill="#ffffc5"/>
        <path id="Trazado_1004756" data-name="Trazado 1004756" d="M204.568,254.268c-.492-.449-.986-.918-1.469-1.382l-1.8.925q.473-.9.914-1.792-.713-.706-1.407-1.421c.634.113,1.284.229,1.937.325q.4-.91.774-1.8.227.97.434,1.95c.656.071,1.33.149,2,.2-.577.352-1.168.678-1.752,1.019q.2.986.371,1.984" transform="translate(-114.135 -141.71)" fill="#ffffc5"/>
        <path id="Trazado_1004757" data-name="Trazado 1004757" d="M187.815,262.073q-.634-.791-1.246-1.589c-.64.214-1.278.44-1.921.644.405-.538.793-1.094,1.172-1.634q-.6-.8-1.177-1.613.916.311,1.866.611c.358-.554.7-1.119,1.034-1.67q.08.993.139,1.995.958.254,1.949.5l-1.885.745c.03.669.056,1.348.069,2.016" transform="translate(-104.913 -146.107)" fill="#ffffc5"/>
        <path id="Trazado_1004758" data-name="Trazado 1004758" d="M169.522,267.312q-.507-.876-.993-1.758c-.665.116-1.329.246-2,.349.482-.468.948-.963,1.4-1.439q-.472-.883-.922-1.771.858.444,1.753.883c.439-.486.86-1,1.273-1.495q-.07.994-.162,1.994.908.394,1.852.78l-1.974.457c-.071.666-.147,1.344-.235,2" transform="translate(-94.577 -149.108)" fill="#ffffc5"/>
        <path id="Trazado_1004759" data-name="Trazado 1004759" d="M150.745,269.873q-.371-.943-.719-1.888l-2.025.051q.819-.609,1.6-1.219-.336-.945-.648-1.89.784.569,1.6,1.138c.507-.424,1-.862,1.483-1.29q-.218.972-.459,1.946.84.527,1.715,1.05l-2.02.154c-.17.648-.346,1.305-.531,1.946" transform="translate(-84 -150.646)" fill="#ffffc5"/>
        <path id="Trazado_1004760" data-name="Trazado 1004760" d="M83.637,132.05A48.412,48.412,0,1,1,132.05,83.637,48.467,48.467,0,0,1,83.637,132.05" transform="translate(-19.637 -19.638)" fill="#fff7e8"/>
      </g>
    </g>
    <g id="Grupo_1180053" data-name="Grupo 1180053" transform="translate(-13402.254 -12647.618)">
      <rect id="Rectángulo_401104" data-name="Rectángulo 401104" width="60.508" height="61.237" transform="translate(0)" fill="none"/>
    </g>
    <g id="Grupo_1187748" data-name="Grupo 1187748" transform="translate(-13400.552 -12646.655)">
      <g id="Grupo_1187747" data-name="Grupo 1187747" clip-path="url(#clip-path-2)">
        <path id="Trazado_1033243" data-name="Trazado 1033243" d="M52.632.01Q28.577-.01,4.522.011A4.229,4.229,0,0,0,.023,4.44Q-.017,26.555.013,48.67A4.293,4.293,0,0,0,4.5,53.129c2.228.032,4.457.007,6.692.007a3.462,3.462,0,0,1-.517,1.624c-.208.508-.611,1.047-.187,1.566.44.538,1.054.364,1.669.22,2.36-.55,2.364-.53,3.551,1.614.042.075.068.158.111.232.26.444.477.935,1.124.911s.831-.488,1.05-.977c.855-1.908,1.734-3.8,2.735-5.994.992,2.111,1.852,3.922,2.692,5.743.251.543.37,1.187,1.135,1.234.722.043.876-.555,1.152-1.035,1.192-2.069,1.2-2.065,3.607-1.625.127.023.256.036.384.05,1.44.15,1.851-.38,1.309-1.694a4.31,4.31,0,0,0-.348-.689c-.652-1.013-.307-1.218.792-1.21,6.983.048,13.967.04,20.951.037a4.309,4.309,0,0,0,4.672-4.536c.022-.6,0-1.207,0-1.81q.015-20.951.033-41.9C57.107,1.932,55.4.012,52.632.01m-34,52.564c-.472,1.056-.994,2.091-1.44,3.157-.2.477-.509.771-.711.172-.684-2.021-2.139-1.715-3.837-1.19l2.041-4.592a3.1,3.1,0,0,0,3.077,1.147c1.228-.1,1.383.159.87,1.306M19.843,50a2.777,2.777,0,0,0-2.427-.568,1.07,1.07,0,0,1-1.382-.794c-.012-.04-.054-.072-.064-.112-.339-1.459-2.354-1.45-2.614-2.534-.274-1.141.161-2.447-.86-3.454a.815.815,0,0,1,.018-1.248,2.89,2.89,0,0,0,.763-2.852c-.181-.627.088-.947.673-1.136a3.2,3.2,0,0,0,2.128-2.078c.206-.594.638-.9,1.182-.722a2.845,2.845,0,0,0,2.831-.744.863.863,0,0,1,1.329,0,2.954,2.954,0,0,0,2.859.756.837.837,0,0,1,1.169.661,3.2,3.2,0,0,0,2.122,2.087.926.926,0,0,1,.667,1.184,3.137,3.137,0,0,0,.791,2.868.824.824,0,0,1-.007,1.313,2.988,2.988,0,0,0-.776,2.743,1.037,1.037,0,0,1-.747,1.369,3.064,3.064,0,0,0-2.086,2.1c-.224.895-.938.5-1.483.555a2.813,2.813,0,0,0-2.191.575A1.225,1.225,0,0,1,19.843,50M11.525,38.574a1.939,1.939,0,0,1-.556,1.863,2.1,2.1,0,0,0,0,3.022,2.007,2.007,0,0,1,.523,2.009,3.759,3.759,0,0,0,0,1.146c.01.261.612.6-.085.759-.525.121-.491-.336-.587-.64a5.825,5.825,0,0,0-4.232-4.281c-.8-.2-.658-.774-.658-1.315Q5.921,30.268,5.918,19.4c0-2.458.033-4.917,0-7.375-.008-.681.12-1.07.866-1.28A5.283,5.283,0,0,0,10.73,6.729a.984.984,0,0,1,1.133-.874q16.691.037,33.383.026a.873.873,0,0,1,.994.725,5.945,5.945,0,0,0,4.125,4.243c.9.265.828.832.828,1.473q0,9.64,0,19.279c0,3.149-.02,6.3,0,9.446a1.251,1.251,0,0,1-1.031,1.466,5.51,5.51,0,0,0-3.838,4c-.133.479-.193.846-.87.842-5.171-.032-10.342-.017-15.615-.017a3.684,3.684,0,0,0,.243-1.152,3.906,3.906,0,0,1,.927-3.3,1.8,1.8,0,0,0-.313-2.368,2.473,2.473,0,0,1-.631-2.121,2.2,2.2,0,0,0-1.771-2.708c-.761-.2-1.068-.805-1.339-1.45a2.178,2.178,0,0,0-2.781-1.458,1.853,1.853,0,0,1-1.762-.518,2.34,2.34,0,0,0-3.275.009,1.993,1.993,0,0,1-1.891.462,2.043,2.043,0,0,0-2.624,1.49,2.276,2.276,0,0,1-1.548,1.535,2.11,2.11,0,0,0-1.548,2.818m13.379,18a18.741,18.741,0,0,1-2.188-4.446c-.386-.973.523-1.021,1.136-.925a2.847,2.847,0,0,0,3-1.058l2.066,4.611c-1.946-.642-3.615-.877-4.01,1.817m30.284-8.724c0,2.738-.7,3.426-3.436,3.429-6.857.008-13.716-.061-20.572.055a2.453,2.453,0,0,1-2.831-2.164c6.012,0,11.918-.021,17.824.018,1.129.007,1.727-.17,1.8-1.519a3.9,3.9,0,0,1,3.59-3.641c1.3-.109,1.51-.732,1.507-1.853q-.049-15.656-.016-31.311c0-.965-.191-1.47-1.305-1.613a4.044,4.044,0,0,1-3.835-3.985c-.1-1.19-.8-1.226-1.687-1.226q-10.027,0-20.055-.031c-5.089-.007-10.178.022-15.267-.027-1.127-.011-1.6.324-1.736,1.495a4.011,4.011,0,0,1-3.809,3.73c-1.054.138-1.34.6-1.338,1.6q.031,15.4-.006,30.793c0,1.98-.015,1.98,1.9,2.428A4.293,4.293,0,0,1,9.07,47.713c.078,1.211.62,1.574,1.734,1.478.726-.062,1.461-.012,2.209-.012-.606,2.1-.606,2.1-2.674,2.106-1.811,0-3.623.006-5.434,0-2.116-.011-3.06-.948-3.06-3.067q0-12.421.01-24.842,0-9.122-.01-18.243c0-2.42.864-3.294,3.233-3.294q23.548,0,47.1,0c2.184,0,3.039.859,3.039,3.057q-.006,21.478-.026,42.956" transform="translate(0 0)" fill="#4d787e"/>
        <path id="Trazado_1033244" data-name="Trazado 1033244" d="M165,129.876a4.311,4.311,0,1,0-5.908-4.816,4.162,4.162,0,0,0,2.272,4.7,1.573,1.573,0,0,1,1.049,1.738c-.022,2.453-.007,4.906-.032,7.358-.006.637.193,1.176.821,1.28.711.118.988-.446.99-1.053,0-.623.318-.679.813-.657a6.191,6.191,0,0,0,1.407-.073.782.782,0,0,0,.631-.858.821.821,0,0,0-.659-.844,8.159,8.159,0,0,0-1.027-.053c-.5-.033-1.11.255-1.143-.718-.035-1.027.59-.849,1.164-.83.733.024,1.535-.012,1.484-.95-.048-.885-.84-.93-1.577-.885-.329.02-.725.163-.987-.106-.555-.568-.027-2.9.7-3.229m-1.731-1.5a2.475,2.475,0,1,1,.126-4.946,2.65,2.65,0,0,1,2.412,2.561,2.518,2.518,0,0,1-2.538,2.385" transform="translate(-124.433 -95.174)" fill="#4d787e"/>
        <path id="Trazado_1033245" data-name="Trazado 1033245" d="M55,82.991c.344.01.689.013,1.033.014H70.891V83H85.752c.344,0,.689,0,1.033-.015a.8.8,0,0,0,.815-.827.9.9,0,0,0-.723-.944,5.011,5.011,0,0,0-1.028-.038q-14.926,0-29.851,0a5.6,5.6,0,0,0-1.031.026.9.9,0,0,0-.821.983.85.85,0,0,0,.852.812" transform="translate(-42.376 -63.524)" fill="#4d787e"/>
        <path id="Trazado_1033246" data-name="Trazado 1033246" d="M86.093,102.332q-7.558,0-15.115,0v-.021h-9.56c-2.024,0-4.048.007-6.072,0-.606,0-1.045.259-1.051.866a.934.934,0,0,0,.982.977c.215.013.431.006.646.006q15.116,0,30.23.01c.732,0,1.528-.008,1.554-.913.03-1.085-.9-.925-1.614-.925" transform="translate(-42.497 -80.079)" fill="#4d787e"/>
        <path id="Trazado_1033247" data-name="Trazado 1033247" d="M90.868,52.347c5.128.005,10.256,0,15.384.017.762,0,1.473-.1,1.445-1.028-.026-.883-.765-.883-1.438-.882q-3.813.008-7.627,0v.014c-2.586,0-5.171-.008-7.757.005-.634,0-1.394-.085-1.438.867-.048,1.037.724,1,1.431,1" transform="translate(-70.002 -39.492)" fill="#4d787e"/>
        <path id="Trazado_1033248" data-name="Trazado 1033248" d="M55.791,124.763q4.074,0,8.147,0v-.012c2.888,0,5.776,0,8.665,0,.628,0,1.156-.136,1.132-.887a.947.947,0,0,0-1.115-.97c-.129,0-.259,0-.388,0q-8.212-.018-16.424-.04c-.772,0-1.626.02-1.6,1.011.025.916.881.893,1.583.893" transform="translate(-42.429 -96.163)" fill="#4d787e"/>
        <path id="Trazado_1033249" data-name="Trazado 1033249" d="M78.225,169.093a6.742,6.742,0,0,0-6.547-6.632,6.668,6.668,0,1,0-.178,13.334,6.652,6.652,0,0,0,6.724-6.7m-6.673,4.872a4.853,4.853,0,1,1,4.849-4.828,4.853,4.853,0,0,1-4.849,4.828" transform="translate(-50.774 -127.158)" fill="#4d787e"/>
        <path id="Trazado_1033250" data-name="Trazado 1033250" d="M85.234,182.492a13.409,13.409,0,0,0-1.625,1.642c-.636.726-1.2,1.366-2,.146a.78.78,0,0,0-1.312-.107.836.836,0,0,0-.024,1.341c.538.552,1.116,1.065,1.674,1.6a.791.791,0,0,0,1.238-.04q1.617-1.656,3.2-3.35a2.283,2.283,0,0,0,.312-.575.88.88,0,0,0-1.46-.655" transform="translate(-62.577 -142.669)" fill="#4d787e"/>
      </g>
    </g>
  </g>
</svg>
