<svg xmlns="http://www.w3.org/2000/svg" xmlns:xlink="http://www.w3.org/1999/xlink" width="126" height="126" viewBox="0 0 126 126">
  <defs>
    <clipPath id="clip-path">
      <rect id="Rectángulo_456277" data-name="Rectángulo 456277" width="126" height="126" transform="translate(-0.173 -0.173)" fill="#d35560"/>
    </clipPath>
    <clipPath id="clip-path-2">
      <rect id="Rectángulo_459899" data-name="Rectángulo 459899" width="68.289" height="67.242" fill="none"/>
    </clipPath>
  </defs>
  <g id="Grupo_1187787" data-name="Grupo 1187787" transform="translate(-268.711 -6223.777)">
    <g id="Grupo_1180210" data-name="Grupo 1180210" transform="translate(-626.347 -1060.222)">
      <g id="Grupo_1180176" data-name="Grupo 1180176" transform="translate(14330.847 19964.789)">
        <g id="Grupo_1179924" data-name="Grupo 1179924" transform="translate(-13435.616 -12680.616)">
          <g id="Grupo_1179923" data-name="Grupo 1179923" transform="translate(0 0)" clip-path="url(#clip-path)">
            <path id="Trazado_1004716" data-name="Trazado 1004716" d="M62.806,125.612c-2.04,0-3.948-2.331-5.937-2.525-2.026-.2-4.351,1.715-6.315,1.325-1.993-.4-3.409-3.055-5.329-3.638-1.941-.59-4.6.83-6.452.058-1.871-.777-2.738-3.663-4.51-4.614s-4.665-.085-6.338-1.206-1.967-4.124-3.525-5.4-4.557-.986-5.984-2.413-1.13-4.424-2.412-5.984-4.279-1.846-5.4-3.525-.249-4.555-1.206-6.338-3.836-2.64-4.614-4.51c-.771-1.855.648-4.511.059-6.452C4.254,78.467,1.6,77.051,1.2,75.058c-.39-1.964,1.523-4.289,1.325-6.315C2.331,66.754,0,64.846,0,62.806s2.331-3.948,2.525-5.937c.2-2.026-1.715-4.35-1.325-6.315.4-1.993,3.054-3.409,3.638-5.329.59-1.941-.829-4.6-.058-6.452.778-1.871,3.663-2.737,4.614-4.51S9.478,29.6,10.6,27.924,14.723,25.957,16,24.4s.986-4.557,2.413-5.984S22.84,17.286,24.4,16s1.846-4.279,3.525-5.4,4.555-.249,6.338-1.206,2.639-3.836,4.51-4.614,4.511.648,6.452.058C47.145,4.254,48.56,1.6,50.554,1.2c1.964-.39,4.289,1.523,6.315,1.325C58.858,2.331,60.766,0,62.806,0s3.948,2.331,5.937,2.525c2.026.2,4.351-1.715,6.315-1.325,1.993.4,3.409,3.055,5.329,3.638,1.941.59,4.6-.83,6.452-.058,1.871.777,2.738,3.663,4.51,4.614s4.665.084,6.338,1.206,1.967,4.124,3.525,5.4,4.557.986,5.984,2.413,1.13,4.424,2.412,5.984,4.279,1.846,5.4,3.525.249,4.555,1.206,6.338,3.836,2.64,4.614,4.51c.771,1.855-.648,4.511-.058,6.452.583,1.919,3.242,3.335,3.638,5.328.39,1.964-1.523,4.289-1.325,6.315.195,1.989,2.525,3.9,2.525,5.937s-2.331,3.948-2.525,5.938c-.2,2.026,1.715,4.35,1.325,6.315-.4,1.993-3.054,3.409-3.638,5.329-.59,1.941.829,4.6.058,6.452-.778,1.871-3.663,2.738-4.614,4.511s-.084,4.665-1.206,6.338-4.124,1.967-5.4,3.525-.986,4.557-2.413,5.984-4.424,1.13-5.984,2.413-1.846,4.278-3.525,5.4-4.555.249-6.338,1.206-2.639,3.837-4.51,4.614c-1.855.771-4.511-.648-6.452-.058-1.919.583-3.335,3.242-5.328,3.638-1.964.39-4.289-1.523-6.315-1.325-1.99.194-3.9,2.525-5.938,2.525" transform="translate(0.021 0.022)" fill="#3342a4"/>
            <path id="Trazado_1004717" data-name="Trazado 1004717" d="M14,70.865A56.865,56.865,0,1,1,70.865,127.73,56.865,56.865,0,0,1,14,70.865" transform="translate(-8.038 -8.037)" fill="#fff7e8"/>
            <path id="Trazado_1021102" data-name="Trazado 1021102" d="M14,66.624a52.624,52.624,0,1,1,52.624,52.624A52.624,52.624,0,0,1,14,66.624" transform="translate(-3.798 -3.795)" fill="#3342a4"/>
          </g>
        </g>
        <g id="Grupo_1180053" data-name="Grupo 1180053" transform="translate(-13407.189 -12652.604)">
          <rect id="Rectángulo_401104" data-name="Rectángulo 401104" width="68.804" height="69.633" transform="translate(0 0)" fill="none"/>
        </g>
      </g>
    </g>
    <g id="Grupo_1187635" data-name="Grupo 1187635" transform="translate(297.566 6252.614)">
      <g id="Grupo_1187634" data-name="Grupo 1187634" clip-path="url(#clip-path-2)">
        <path id="Trazado_1031705" data-name="Trazado 1031705" d="M56.026,214.1,18,214.1a1.116,1.116,0,0,1-1.153-1.127l-.014-3.345-3.52-.051c-1.616-.023-.328-2.645-1.5-3.054-.4-.139-.735.033-1.111.545s-1.288,1.268-1.885.675l-3.557-3.537c-.953-.947,1.565-2.1,1.242-3-.205-.571-.6-.644-1.26-.538-.585.095-1.756-.043-1.756-.81l0-5.106c0-1.376,2.593-.189,3.018-1.35.145-.395-.045-.741-.549-1.113s-1.268-1.295-.677-1.886l3.542-3.541c.595-.595,1.515.169,1.886.675s.713.689,1.109.547c1.147-.413-.033-2.979,1.346-3.011l3.668-.085.021-3.343a1.067,1.067,0,0,1,1.148-1.111l37.971,0a1.07,1.07,0,0,1,1.147,1.113l.021,3.342,3.666.083c.779.018.888,1.114.8,1.767s-.033,1.038.572,1.238c.386.128.712-.017,1.092-.539.368-.5,1.289-1.271,1.883-.676l3.541,3.544c.59.59-.173,1.514-.676,1.885s-.688.715-.543,1.11c.207.564.6.672,1.257.563.59-.1,1.754,0,1.754.791v5.1c0,.775-1.171.9-1.755.809-.668-.1-.993-.015-1.207.587-.3.857,2.175,1.961,1.276,2.862l-3.643,3.648c-.945.946-2.082-1.556-3-1.235-1.145.4.029,2.977-1.346,3.011l-3.672.09-.019,3.351a1.08,1.08,0,0,1-1.082,1.117" transform="translate(-2.831 -146.859)" fill="#040504"/>
        <path id="Trazado_1031706" data-name="Trazado 1031706" d="M55.358,24.726l.031-2.258a11.355,11.355,0,0,1-10.346-8.507,11.238,11.238,0,0,1-21.8,0,11.322,11.322,0,0,1-10.344,8.5l0,2.257,10.043,0a1.09,1.09,0,0,1,1.121,1.115l.008,5.573-2.236,0-.007-4.447-10.054-.013a1.114,1.114,0,0,1-1.127-1.12l-.016-3.361A11.222,11.222,0,0,1,.019,10.639C.389,4.346,5.663-.113,11.956,0A11.511,11.511,0,0,1,23.247,8.618a11.234,11.234,0,0,1,21.8,0A11.546,11.546,0,0,1,56.718,0,11.361,11.361,0,0,1,68.28,10.825,11.206,11.206,0,0,1,57.658,22.461l-.018,3.363a1.1,1.1,0,0,1-1.126,1.121l-10.053.014L46.453,31.4l-2.236,0,.008-5.569a1.086,1.086,0,0,1,1.12-1.112Z" transform="translate(0 0)" fill="#040504"/>
        <path id="Trazado_1031707" data-name="Trazado 1031707" d="M179.355,134.7l-2.235,0v-2.219h2.22Z" transform="translate(-144.085 -107.775)" fill="#060707"/>
        <path id="Trazado_1031708" data-name="Trazado 1031708" d="M179.355,158.7l-2.235,0v-2.219h2.22Z" transform="translate(-144.085 -127.298)" fill="#060707"/>
        <path id="Trazado_1031709" data-name="Trazado 1031709" d="M92.727,217.106c.582.178.434,2.044-.145,2.2l-1.023.038-.018,2.215-4.463-.006V192.458l35.809,0v29.084l-4.475.01v-19a1.122,1.122,0,0,0-1.148-1.145H92.7a1.109,1.109,0,0,0-1.143,1.14L91.55,217.04Z" transform="translate(-70.837 -156.562)" fill="#646464"/>
        <path id="Trazado_1031710" data-name="Trazado 1031710" d="M116.589,307.165l.145-2.2,1.062-.054.012-4.446,22.373,0v8.954H117.824l-.035-2.216Z" transform="translate(-94.844 -244.424)" fill="#d3d2d1"/>
        <path id="Trazado_1031711" data-name="Trazado 1031711" d="M298.8,230.646a.845.845,0,0,0-.073.857l1.354,1.326-1.559,1.652a9.721,9.721,0,0,0-1.487-1.341.493.493,0,0,0-.635-.034c-.571.612-1.807.735-2.61,1.223-.663.4-.505,1.425-.409,2.217a8.581,8.581,0,0,1-2.3.087l.011-4.593a5.579,5.579,0,1,0,0-10.934l-.014-4.594,2.225,0,.021,1.484a1.085,1.085,0,0,0,.815,1.036c1.751.459,2.485,1.528,3.436.617l.98-.939,1.551,1.54-.969.975a1.2,1.2,0,0,0-.258,1.273l1.081,2.5c.291.673,1.448.508,2.207.4a8.7,8.7,0,0,1,.089,2.287l-1.477.023c-1.274.02-.977,1.647-1.985,2.946" transform="translate(-236.79 -176.126)" fill="#b29b59"/>
        <path id="Trazado_1031712" data-name="Trazado 1031712" d="M21,233.186a.85.85,0,0,0-.861-.072l-1.325,1.353-1.655-1.549a9.75,9.75,0,0,0,1.346-1.491.547.547,0,0,0,.037-.641c-.63-.592-.729-1.792-1.227-2.611-.4-.658-1.43-.5-2.217-.4a9.018,9.018,0,0,1-.087-2.287l1.295-.008c1.576-.01,1.1-1.68,2.164-2.964a.841.841,0,0,0,.077-.855l-1.384-1.394,1.584-1.583,1.586,1.5,2.36-1.018c.463-.2,1.04-.293,1.184-.858a8.123,8.123,0,0,0,.073-1.783h2.237v4.595a5.58,5.58,0,1,0-.013,10.933l.015,4.592-2.225.009-.021-1.483c-.018-1.309-1.748-.987-2.945-1.988" transform="translate(-12.187 -176.143)" fill="#b29b59"/>
        <path id="Trazado_1031713" data-name="Trazado 1031713" d="M145.53,254.754H123.21l0-2.237h22.334Z" transform="translate(-100.226 -205.42)" fill="#3c8fce"/>
        <path id="Trazado_1031714" data-name="Trazado 1031714" d="M145.538,278.707H123.215l0-2.235,22.328,0Z" transform="translate(-100.232 -224.904)" fill="#b8d7ec"/>
        <path id="Trazado_1031715" data-name="Trazado 1031715" d="M55.562,252.692l.015,6.325a3.316,3.316,0,0,1-3.791-1.127,3.36,3.36,0,0,1,3.776-5.2" transform="translate(-41.581 -205.426)" fill="#d2d2d1"/>
        <path id="Trazado_1031716" data-name="Trazado 1031716" d="M291.133,259.042l-.015-6.327a3.313,3.313,0,0,1,3.791,1.129,3.362,3.362,0,0,1-3.776,5.2" transform="translate(-236.821 -205.419)" fill="#d2d2d1"/>
        <path id="Trazado_1031717" data-name="Trazado 1031717" d="M33.87,293.614l.037-.641a.709.709,0,0,1,.219.509c0,.126-.014.384-.256.132" transform="translate(-27.553 -238.33)" fill="#bfa65f"/>
        <path id="Trazado_1031718" data-name="Trazado 1031718" d="M33.686,244.9l.077-.855c.1.1.25.062.213.388-.031.271-.147.293-.291.467" transform="translate(-27.403 -198.529)" fill="#bea65f"/>
        <path id="Trazado_1031719" data-name="Trazado 1031719" d="M43.495,304.574l-.861-.072c.115-.118.073-.242.392-.214.272.024.3.142.469.287" transform="translate(-34.682 -247.531)" fill="#bea65f"/>
        <path id="Trazado_1031720" data-name="Trazado 1031720" d="M320.222,304.551l-.635-.034a.6.6,0,0,1,.517-.221c.117.015.381.012.118.255" transform="translate(-259.98 -247.538)" fill="#bfa65f"/>
        <path id="Trazado_1031721" data-name="Trazado 1031721" d="M331.12,293.171c-.121-.119-.234-.079-.214-.392.018-.277.157-.3.286-.465Z" transform="translate(-269.187 -237.794)" fill="#bea65f"/>
        <path id="Trazado_1031722" data-name="Trazado 1031722" d="M25.522,12.493q-.091.206.3.073c.247.06.5.1.752.165l.144.261c3.793,2.141,5.248,7.271,3.887,11.36l-.522.4c-1.386-1.594-3.024-.952-4.628-1.329a4.556,4.556,0,0,0,3.064-5.239,4.472,4.472,0,0,0-8.783.146,4.56,4.56,0,0,0,3.094,5.092,8.422,8.422,0,0,1-2.4.181A3.427,3.427,0,0,0,17.4,27.178a8.687,8.687,0,0,1-2.065-4.33q.3-.613.022-.167a7.617,7.617,0,0,1-.031-2.693q.2.092.042-.31a8.9,8.9,0,0,1,10.159-7.184" transform="translate(-12.379 -10.065)" fill="#d8d8d7"/>
        <path id="Trazado_1031723" data-name="Trazado 1031723" d="M145.522,12.493q-.091.206.3.073l.752.165A10.1,10.1,0,0,1,150.6,24.354l-.522.4c-1.395-1.6-3.023-.952-4.627-1.329a4.556,4.556,0,0,0,3.064-5.239,4.472,4.472,0,0,0-8.783.146,4.561,4.561,0,0,0,3.094,5.092,8.413,8.413,0,0,1-2.4.18,3.428,3.428,0,0,0-3.038,3.575,8.706,8.706,0,0,1-2.064-4.331q.3-.613.022-.168a7.626,7.626,0,0,1-.031-2.693q.2.092.041-.31a8.9,8.9,0,0,1,10.159-7.184" transform="translate(-109.997 -10.065)" fill="#d8d8d7"/>
        <path id="Trazado_1031724" data-name="Trazado 1031724" d="M265.522,12.493q-.091.206.3.073l.752.165a10.231,10.231,0,0,1,2.526,2.376,10.09,10.09,0,0,1,1.506,9.247l-.522.4c-1.386-1.594-3.024-.952-4.628-1.329a4.556,4.556,0,0,0,3.064-5.239,4.472,4.472,0,0,0-8.783.146,4.56,4.56,0,0,0,3.094,5.092,8.422,8.422,0,0,1-2.4.181,3.427,3.427,0,0,0-3.037,3.574,8.687,8.687,0,0,1-2.065-4.33q.3-.613.022-.167a7.617,7.617,0,0,1-.031-2.693q.2.092.042-.31a8.9,8.9,0,0,1,10.159-7.184" transform="translate(-207.616 -10.065)" fill="#d8d8d7"/>
        <path id="Trazado_1031725" data-name="Trazado 1031725" d="M288.077,87.78a9,9,0,0,1-8.9.014l-.026-2.177a1.082,1.082,0,0,1,1.114-1.109l6.7,0a1.092,1.092,0,0,1,1.114,1.11Z" transform="translate(-227.088 -68.745)" fill="#505050"/>
        <path id="Trazado_1031726" data-name="Trazado 1031726" d="M48.077,87.78a9,9,0,0,1-8.9.014l-.026-2.177a1.082,1.082,0,0,1,1.114-1.109l6.7,0a1.092,1.092,0,0,1,1.114,1.11Z" transform="translate(-31.851 -68.745)" fill="#505050"/>
        <path id="Trazado_1031727" data-name="Trazado 1031727" d="M168.077,87.78a9,9,0,0,1-8.9.014l-.026-2.177a1.082,1.082,0,0,1,1.114-1.109l6.7,0a1.092,1.092,0,0,1,1.114,1.11Z" transform="translate(-129.47 -68.745)" fill="#505050"/>
        <path id="Trazado_1031728" data-name="Trazado 1031728" d="M201.327,21.23q-.2.633.061.317a8.6,8.6,0,0,1-2.067,7.172,4.277,4.277,0,0,0-.834-2.407c2.7-7.773-3.825-11.957-3.767-11.7-.021-.089.214-.233.258-.318a8.612,8.612,0,0,1,6.348,6.94" transform="translate(-158.402 -11.625)" fill="#cbcbcb"/>
        <path id="Trazado_1031729" data-name="Trazado 1031729" d="M321.327,21.232q-.2.633.061.317a8.6,8.6,0,0,1-2.067,7.173,4.287,4.287,0,0,0-.833-2.407,9.647,9.647,0,0,0-3.767-11.7c-.022-.088.215-.234.257-.318a8.613,8.613,0,0,1,6.349,6.94" transform="translate(-256.02 -11.626)" fill="#cbcbcb"/>
        <path id="Trazado_1031730" data-name="Trazado 1031730" d="M81.325,21.232q-.2.633.061.317a8.6,8.6,0,0,1-2.067,7.173,4.287,4.287,0,0,0-.833-2.407,9.646,9.646,0,0,0-3.767-11.7c-.023-.088.216-.235.258-.318a8.833,8.833,0,0,1,6.349,6.94" transform="translate(-60.782 -11.626)" fill="#cbcbcb"/>
        <path id="Trazado_1031731" data-name="Trazado 1031731" d="M52.791,36.617a2.208,2.208,0,0,1,2.722,1.575,2.228,2.228,0,0,1-4.265,1.281,2.206,2.206,0,0,1,1.543-2.855" transform="translate(-41.595 -29.723)" fill="#505050"/>
        <path id="Trazado_1031732" data-name="Trazado 1031732" d="M172.791,36.617a2.208,2.208,0,0,1,2.722,1.575,2.228,2.228,0,0,1-4.265,1.281,2.206,2.206,0,0,1,1.543-2.855" transform="translate(-139.214 -29.723)" fill="#505050"/>
        <path id="Trazado_1031733" data-name="Trazado 1031733" d="M292.791,36.617a2.208,2.208,0,0,1,2.722,1.575,2.228,2.228,0,0,1-4.265,1.281,2.206,2.206,0,0,1,1.543-2.855" transform="translate(-236.832 -29.723)" fill="#505050"/>
        <path id="Trazado_1031734" data-name="Trazado 1031734" d="M67.623,13.016l.3.073a.712.712,0,0,1-.952.089,3.017,3.017,0,0,1,.652-.161" transform="translate(-54.48 -10.588)" fill="#e1e1e1"/>
        <path id="Trazado_1031735" data-name="Trazado 1031735" d="M187.623,13.016l.3.073a.712.712,0,0,1-.952.089,3.02,3.02,0,0,1,.653-.161" transform="translate(-152.098 -10.588)" fill="#e1e1e1"/>
        <path id="Trazado_1031736" data-name="Trazado 1031736" d="M307.623,13.016l.3.073a.712.712,0,0,1-.952.089,3.02,3.02,0,0,1,.653-.161" transform="translate(-249.716 -10.588)" fill="#e1e1e1"/>
        <path id="Trazado_1031737" data-name="Trazado 1031737" d="M15.778,51.845l.042-.31a.7.7,0,0,1,.089.944,1.775,1.775,0,0,1-.131-.634" transform="translate(-12.835 -41.923)" fill="#e5e5e5"/>
        <path id="Trazado_1031738" data-name="Trazado 1031738" d="M255.827,64.311l.022-.167a2.487,2.487,0,0,1,.092-.8.663.663,0,0,1-.114.968" transform="translate(-208.112 -51.529)" fill="#e4e3e3"/>
        <path id="Trazado_1031739" data-name="Trazado 1031739" d="M135.826,64.311l.022-.168a2.493,2.493,0,0,1,.092-.8.663.663,0,0,1-.114.968" transform="translate(-110.493 -51.529)" fill="#e4e3e3"/>
        <path id="Trazado_1031740" data-name="Trazado 1031740" d="M15.827,64.311l.022-.167a2.487,2.487,0,0,1,.092-.8.662.662,0,0,1-.114.968" transform="translate(-12.875 -51.529)" fill="#e4e3e3"/>
        <path id="Trazado_1031741" data-name="Trazado 1031741" d="M349.216,51.818a2.58,2.58,0,0,1-.146.634.71.71,0,0,1,.085-.951Z" transform="translate(-283.849 -41.896)" fill="#d7d7d6"/>
        <path id="Trazado_1031742" data-name="Trazado 1031742" d="M255.778,51.845l.042-.31a.7.7,0,0,1,.089.944,1.775,1.775,0,0,1-.131-.634" transform="translate(-208.072 -41.923)" fill="#e5e5e5"/>
        <path id="Trazado_1031743" data-name="Trazado 1031743" d="M229.216,51.818a2.582,2.582,0,0,1-.146.634.71.71,0,0,1,.085-.951Z" transform="translate(-186.23 -41.895)" fill="#d7d7d6"/>
        <path id="Trazado_1031744" data-name="Trazado 1031744" d="M135.778,51.845l.041-.31a.7.7,0,0,1,.09.944,1.774,1.774,0,0,1-.131-.634" transform="translate(-110.454 -41.923)" fill="#e5e5e5"/>
        <path id="Trazado_1031745" data-name="Trazado 1031745" d="M109.216,51.818a2.582,2.582,0,0,1-.146.634.71.71,0,0,1,.085-.951Z" transform="translate(-88.611 -41.896)" fill="#d7d7d6"/>
        <path id="Trazado_1031746" data-name="Trazado 1031746" d="M170.777,205.185l-4.549-.012a1.094,1.094,0,0,1-1.119-1.118v-4.466a1.1,1.1,0,0,1,1.119-1.121h4.465a1.112,1.112,0,0,1,1.123,1.123v4.465a1.137,1.137,0,0,1-1.039,1.132" transform="translate(-134.314 -161.449)" fill="#040505"/>
        <path id="Trazado_1031747" data-name="Trazado 1031747" d="M224.777,205.185l-4.549-.012a1.094,1.094,0,0,1-1.119-1.118v-4.466a1.1,1.1,0,0,1,1.118-1.121h4.465a1.112,1.112,0,0,1,1.123,1.123v4.465a1.136,1.136,0,0,1-1.039,1.132" transform="translate(-178.243 -161.449)" fill="#040504"/>
        <path id="Trazado_1031748" data-name="Trazado 1031748" d="M116.777,205.185l-4.549-.012a1.094,1.094,0,0,1-1.119-1.118v-4.466a1.1,1.1,0,0,1,1.119-1.121h4.465a1.112,1.112,0,0,1,1.123,1.123v4.465a1.137,1.137,0,0,1-1.039,1.132" transform="translate(-90.386 -161.449)" fill="#040504"/>
        <path id="Trazado_1031749" data-name="Trazado 1031749" d="M179.345,212.711h-2.231l0-2.214,2.221-.008Z" transform="translate(-144.079 -171.231)" fill="#b9d8ee"/>
        <path id="Trazado_1031750" data-name="Trazado 1031750" d="M233.345,212.711h-2.231l0-2.214,2.221-.008Z" transform="translate(-188.007 -171.231)" fill="#b7d5eb"/>
        <path id="Trazado_1031751" data-name="Trazado 1031751" d="M125.345,212.711h-2.231l0-2.214,2.221-.008Z" transform="translate(-100.15 -171.231)" fill="#b7d5eb"/>
      </g>
    </g>
  </g>
</svg>
