<svg xmlns="http://www.w3.org/2000/svg" xmlns:xlink="http://www.w3.org/1999/xlink" width="128" height="128" viewBox="0 0 128 128">
  <defs>
    <clipPath id="clip-path">
      <rect id="Rectángulo_456277" data-name="Rectángulo 456277" width="128" height="128" transform="translate(0 0)" fill="#d35560"/>
    </clipPath>
    <clipPath id="clip-path-2">
      <rect id="Rectángulo_459971" data-name="Rectángulo 459971" width="72.58" height="61.222" fill="#4d787e"/>
    </clipPath>
  </defs>
  <g id="Grupo_1186178" data-name="Grupo 1186178" transform="translate(13436 12681)">
    <g id="Grupo_1179924" data-name="Grupo 1179924" transform="translate(-13436 -12681)">
      <g id="Grupo_1179923" data-name="Grupo 1179923" transform="translate(0 0)" clip-path="url(#clip-path)">
        <path id="Trazado_1004716" data-name="Trazado 1004716" d="M63.534,127.068c-2.064,0-3.994-2.358-6.006-2.554-2.05-.2-4.4,1.735-6.388,1.341-2.016-.4-3.449-3.09-5.391-3.68-1.964-.6-4.65.839-6.526.059-1.892-.786-2.769-3.705-4.562-4.667s-4.72-.086-6.412-1.22-1.99-4.172-3.566-5.467-4.61-1-6.054-2.44-1.143-4.475-2.44-6.054-4.328-1.867-5.467-3.566-.252-4.608-1.22-6.411-3.881-2.67-4.668-4.562c-.78-1.877.656-4.563.059-6.526-.59-1.942-3.28-3.374-3.68-5.391-.395-1.987,1.541-4.338,1.34-6.388C2.358,67.528,0,65.6,0,63.534s2.358-3.994,2.554-6.006c.2-2.05-1.735-4.4-1.34-6.388.4-2.016,3.09-3.449,3.68-5.391.6-1.964-.839-4.65-.059-6.527C5.622,37.33,8.54,36.453,9.5,34.66s.085-4.719,1.22-6.412,4.171-1.99,5.466-3.566,1-4.61,2.441-6.054,4.475-1.143,6.053-2.44,1.867-4.328,3.566-5.467,4.608-.252,6.412-1.22,2.67-3.881,4.562-4.668c1.877-.78,4.563.656,6.527.059,1.942-.59,3.374-3.279,5.39-3.68,1.987-.395,4.338,1.541,6.388,1.341C59.54,2.358,61.47,0,63.534,0s3.994,2.358,6.006,2.554c2.05.2,4.4-1.735,6.388-1.341,2.016.4,3.449,3.09,5.391,3.68,1.964.6,4.65-.839,6.526-.059,1.892.786,2.769,3.705,4.562,4.668s4.72.085,6.412,1.22,1.99,4.171,3.566,5.466,4.61,1,6.054,2.441,1.143,4.475,2.44,6.053,4.328,1.867,5.467,3.566.252,4.608,1.22,6.412,3.881,2.67,4.667,4.562c.78,1.877-.656,4.563-.059,6.526.59,1.942,3.28,3.374,3.68,5.39.395,1.987-1.541,4.338-1.341,6.388.2,2.012,2.555,3.943,2.555,6.006s-2.358,3.994-2.555,6.007c-.2,2.049,1.735,4.4,1.341,6.388-.4,2.016-3.09,3.449-3.68,5.391-.6,1.964.839,4.65.059,6.526-.787,1.893-3.705,2.769-4.668,4.563s-.085,4.719-1.22,6.412-4.171,1.99-5.466,3.566-1,4.61-2.441,6.053-4.475,1.143-6.053,2.44-1.867,4.328-3.566,5.466-4.608.252-6.412,1.22-2.67,3.881-4.562,4.668c-1.877.78-4.563-.656-6.526-.059-1.942.59-3.374,3.279-5.39,3.68-1.987.395-4.338-1.541-6.388-1.341-2.013.2-3.943,2.554-6.007,2.554" transform="translate(0.466 0.466)" fill="#d35560"/>
        <path id="Trazado_1004717" data-name="Trazado 1004717" d="M14,71.524a57.524,57.524,0,1,1,57.524,57.524A57.524,57.524,0,0,1,14,71.524" transform="translate(-7.524 -7.524)" fill="#4d787e"/>
        <path id="Trazado_1004718" data-name="Trazado 1004718" d="M131.909,269.316c-.153-.646-.3-1.314-.433-1.969l-2.01-.256q.9-.478,1.765-.962-.191-.985-.361-1.967c.46.452.931.917,1.416,1.362q.847-.526,1.657-1.055-.359.929-.741,1.855c.5.431,1.015.868,1.54,1.3l-2.02-.151q-.4.926-.813,1.849" transform="translate(-73.422 -150.295)" fill="#ffffc5"/>
        <path id="Trazado_1004719" data-name="Trazado 1004719" d="M113.426,265.848c-.055-.66-.1-1.343-.133-2.011l-1.949-.555q.962-.338,1.89-.686-.042-1-.061-2c.387.515.783,1.047,1.2,1.558q.916-.393,1.8-.794-.494.863-1.01,1.722c.431.5.872,1.016,1.329,1.509-.661-.137-1.317-.3-1.976-.449q-.529.856-1.081,1.706" transform="translate(-63.08 -148.261)" fill="#ffffc5"/>
        <path id="Trazado_1004720" data-name="Trazado 1004720" d="M95.721,259.733c.05-.672.108-1.345.172-2.013l-1.845-.838c.667-.124,1.326-.26,1.972-.4q.109-1,.239-1.984c.305.568.62,1.144.948,1.721q.965-.252,1.9-.518-.618.78-1.258,1.552c.352.559.712,1.129,1.088,1.693l-1.886-.741q-.652.767-1.325,1.525" transform="translate(-53.209 -144.782)" fill="#ffffc5"/>
        <path id="Trazado_1004721" data-name="Trazado 1004721" d="M79.2,251.1q.225-.987.47-1.963c-.565-.37-1.144-.718-1.7-1.105.667-.007,1.349-.058,2.007-.1q.256-.968.531-1.924.327.909.684,1.839c.652-.056,1.311-.146,1.95-.226q-.729.68-1.477,1.349.4.908.824,1.833L80.734,249.8c-.506.44-1.023.883-1.534,1.3" transform="translate(-44.034 -139.94)" fill="#ffffc5"/>
        <path id="Trazado_1004722" data-name="Trazado 1004722" d="M64.221,240.181q.368-.941.753-1.869c-.505-.448-1.035-.87-1.513-1.347.655.1,1.335.151,2,.207q.4-.918.807-1.822.192.945.41,1.914c.643.054,1.314.055,1.959.07q-.822.565-1.663,1.117.26.954.548,1.929l-1.593-1.253c-.57.365-1.13.707-1.7,1.054" transform="translate(-35.752 -133.852)" fill="#ffffc5"/>
        <path id="Trazado_1004723" data-name="Trazado 1004723" d="M51.1,227.217q.5-.876,1.018-1.735l-.663-.766c-.22-.256-.421-.528-.631-.792l.961.27.978.232q.525-.849,1.065-1.68.053.96.129,1.947l.955.2.969.162q-.9.439-1.812.862.119.978.263,1.982c-.464-.491-.938-.973-1.393-1.471q-.912.4-1.839.789" transform="translate(-28.54 -126.659)" fill="#ffffc5"/>
        <path id="Trazado_1004724" data-name="Trazado 1004724" d="M39.841,212.493q.625-.791,1.262-1.563c-.18-.286-.37-.565-.542-.856l-.506-.878c.616.274,1.207.55,1.839.786.431-.508.857-1,1.3-1.505-.067.643-.112,1.285-.159,1.943.616.229,1.214.456,1.845.645-.636.2-1.279.4-1.921.584-.019.658-.025,1.321-.027,2-.384-.555-.8-1.089-1.158-1.663q-.963.264-1.938.509" transform="translate(-22.272 -118.515)" fill="#ffffc5"/>
        <path id="Trazado_1004725" data-name="Trazado 1004725" d="M30.615,196.327q.734-.688,1.478-1.357c-.292-.61-.523-1.245-.774-1.872.571.362,1.115.723,1.7,1.054.5-.435,1.006-.868,1.522-1.3-.18.632-.3,1.253-.45,1.9.582.315,1.13.632,1.724.915-.662.106-1.323.2-1.978.288-.136.656-.223,1.3-.328,1.971-.3-.6-.629-1.2-.9-1.817q-.992.118-1.994.216" transform="translate(-17.006 -109.601)" fill="#ffffc5"/>
        <path id="Trazado_1004726" data-name="Trazado 1004726" d="M24.019,178.752q.829-.57,1.663-1.119c-.2-.646-.321-1.312-.483-1.967.509.444,1,.88,1.517,1.3.554-.355,1.135-.71,1.7-1.054-.278.6-.493,1.2-.732,1.809.526.4,1.033.792,1.563,1.164-.674.006-1.326,0-1.993-.014-.242.632-.419,1.256-.622,1.9-.221-.639-.438-1.278-.611-1.932q-1-.032-2.006-.086" transform="translate(-13.242 -99.79)" fill="#ffffc5"/>
        <path id="Trazado_1004727" data-name="Trazado 1004727" d="M20.215,160.164q.9-.439,1.812-.856c-.1-.668-.122-1.345-.182-2.018.437.516.856,1.02,1.3,1.511.6-.268,1.228-.532,1.843-.787-.365.551-.665,1.108-1,1.68.459.473.9.937,1.37,1.386-.665-.1-1.309-.2-1.967-.313-.334.588-.606,1.179-.9,1.785l-.179-1c-.056-.333-.089-.67-.135-1q-.984-.182-1.97-.386" transform="translate(-11.071 -89.302)" fill="#ffffc5"/>
        <path id="Trazado_1004728" data-name="Trazado 1004728" d="M19.269,141.311q.961-.3,1.921-.579c0-.676.063-1.349.115-2.022.359.574.682,1.135,1.072,1.687.64-.176,1.276-.346,1.93-.507-.428.492-.816,1-1.228,1.515.386.537.744,1.062,1.152,1.574q-.966-.29-1.905-.6c-.412.532-.767,1.076-1.153,1.631-.015-.675-.047-1.35-.015-2.025q-.945-.325-1.889-.673" transform="translate(-10.531 -78.698)" fill="#ffffc5"/>
        <path id="Trazado_1004729" data-name="Trazado 1004729" d="M21.174,122.6q1-.154,1.988-.286c.063-.332.112-.667.186-1l.228-.987c.266.621.507,1.224.81,1.828.663-.078,1.31-.152,1.981-.213-.489.424-.956.865-1.438,1.314.3.588.572,1.159.909,1.727-.6-.285-1.214-.58-1.8-.878-.471.467-.917.95-1.379,1.443.094-.668.149-1.343.283-2.006q-.885-.462-1.767-.947" transform="translate(-11.618 -68.211)" fill="#ffffc5"/>
        <path id="Trazado_1004730" data-name="Trazado 1004730" d="M25.928,104.462q1.007,0,2.007.015c.2-.644.459-1.27.708-1.9.173.655.316,1.286.525,1.929.664.021,1.322.048,1.994.088-.554.343-1.076.71-1.622,1.083.211.627.392,1.231.639,1.844-.553-.373-1.111-.756-1.647-1.139-.539.39-1.05.8-1.581,1.22.192-.648.351-1.305.583-1.941q-.806-.59-1.605-1.2" transform="translate(-14.331 -58.078)" fill="#ffffc5"/>
        <path id="Trazado_1004731" data-name="Trazado 1004731" d="M33.429,87.3q1,.147,1.98.315c.295-.608.656-1.181.986-1.77.071.672.132,1.326.228,1.984.648.118,1.311.252,1.964.389-.612.249-1.172.54-1.769.826.114.651.212,1.281.353,1.918-.5-.454-.976-.909-1.452-1.37-.6.3-1.159.634-1.749.966.279-.615.548-1.235.869-1.83q-.71-.7-1.409-1.43" transform="translate(-18.612 -48.53)" fill="#ffffc5"/>
        <path id="Trazado_1004732" data-name="Trazado 1004732" d="M43.489,71.506q.961.294,1.909.6c.393-.549.828-1.067,1.24-1.6q-.046,1.012-.071,2,.952.332,1.89.68c-.638.159-1.255.349-1.876.551q.02.988.06,1.948-.62-.775-1.225-1.566c-.642.206-1.253.446-1.878.692l.547-.853.586-.826q-.6-.8-1.183-1.625" transform="translate(-24.354 -39.775)" fill="#ffffc5"/>
        <path id="Trazado_1004733" data-name="Trazado 1004733" d="M55.279,57.409q.906.431,1.8.878l1.465-1.4q-.193,1-.359,1.97.891.467,1.766.95c-.646.071-1.3.15-1.94.264q-.124.983-.224,1.941-.5-.858-.981-1.732l-.989.183c-.327.067-.647.145-.974.22.432-.519.906-1,1.372-1.49q-.474-.884-.932-1.784" transform="translate(-30.831 -32.001)" fill="#ffffc5"/>
        <path id="Trazado_1004734" data-name="Trazado 1004734" d="M69.057,45.313c.553.372,1.1.749,1.652,1.141l1.651-1.175q-.335.961-.641,1.9.811.592,1.6,1.2c-.643-.015-1.315-.05-1.961-.03q-.265.958-.5,1.893-.367-.923-.716-1.861c-.659.027-1.347.038-2,.105.5-.451,1.054-.844,1.579-1.269q-.339-.946-.66-1.905" transform="translate(-38.421 -25.376)" fill="#ffffc5"/>
        <path id="Trazado_1004735" data-name="Trazado 1004735" d="M84.591,34.886c.492.45.986.918,1.469,1.382l1.8-.925q-.473.9-.914,1.792.713.705,1.407,1.42c-.634-.113-1.284-.229-1.937-.325q-.4.911-.774,1.8-.227-.969-.434-1.949c-.656-.071-1.331-.15-2-.2.577-.351,1.169-.678,1.752-1.018q-.2-.986-.371-1.985" transform="translate(-47.023 -19.444)" fill="#ffffc5"/>
        <path id="Trazado_1004736" data-name="Trazado 1004736" d="M101.552,26.946q.634.791,1.246,1.589c.64-.214,1.278-.44,1.921-.644-.405.538-.792,1.094-1.172,1.634q.6.8,1.177,1.613-.916-.311-1.866-.611c-.358.554-.7,1.119-1.034,1.67q-.08-.993-.139-1.994-.958-.254-1.949-.5l1.885-.745c-.03-.669-.056-1.348-.069-2.016" transform="translate(-56.455 -14.913)" fill="#ffffc5"/>
        <path id="Trazado_1004737" data-name="Trazado 1004737" d="M119.566,21.733q.507.876.993,1.758c.665-.115,1.329-.246,2-.349-.482.468-.948.962-1.4,1.439q.472.883.922,1.771-.858-.444-1.753-.883c-.439.486-.86,1-1.273,1.495q.07-.994.162-1.994-.908-.394-1.852-.78l1.974-.457c.071-.666.147-1.344.235-2" transform="translate(-66.511 -11.938)" fill="#ffffc5"/>
        <path id="Trazado_1004738" data-name="Trazado 1004738" d="M138.214,19.35q.371.944.72,1.888l2.025-.051q-.819.609-1.6,1.218.335.945.648,1.89-.784-.569-1.6-1.138c-.507.424-1,.862-1.483,1.29q.218-.972.459-1.946-.84-.527-1.715-1.051l2.02-.154c.17-.648.346-1.305.531-1.947" transform="translate(-76.959 -10.578)" fill="#ffffc5"/>
        <path id="Trazado_1004739" data-name="Trazado 1004739" d="M157.075,19.831c.153.647.3,1.314.433,1.969l2.01.256q-.9.478-1.765.962.191.985.36,1.967c-.46-.452-.931-.917-1.416-1.362q-.847.526-1.657,1.055.359-.929.741-1.855c-.5-.431-1.014-.868-1.54-1.3l2.021.151q.4-.926.813-1.849" transform="translate(-87.562 -10.852)" fill="#ffffc5"/>
        <path id="Trazado_1004740" data-name="Trazado 1004740" d="M175.741,23.17c.055.66.1,1.343.134,2.011l1.949.555q-.962.338-1.89.686.042,1,.061,2c-.387-.515-.782-1.047-1.2-1.558q-.916.393-1.8.794.494-.864,1.01-1.722c-.431-.5-.872-1.016-1.329-1.509.661.137,1.317.3,1.976.449q.53-.856,1.081-1.706" transform="translate(-98.088 -12.758)" fill="#ffffc5"/>
        <path id="Trazado_1004741" data-name="Trazado 1004741" d="M193.559,29.313c-.05.672-.108,1.345-.172,2.012l1.845.838c-.667.125-1.326.261-1.972.4q-.109,1-.239,1.984c-.305-.568-.62-1.144-.948-1.721q-.965.252-1.9.518.618-.78,1.257-1.552c-.351-.559-.712-1.129-1.087-1.693l1.886.741q.652-.767,1.325-1.525" transform="translate(-108.072 -16.264)" fill="#ffffc5"/>
        <path id="Trazado_1004742" data-name="Trazado 1004742" d="M209.923,38.133q-.225.987-.47,1.963c.565.37,1.144.718,1.7,1.105-.667.007-1.349.058-2.007.1q-.256.968-.531,1.924-.327-.909-.684-1.839c-.652.056-1.311.146-1.95.226q.729-.68,1.477-1.349-.4-.908-.824-1.833l1.756,1.011c.506-.44,1.022-.883,1.534-1.3" transform="translate(-117.09 -21.297)" fill="#ffffc5"/>
        <path id="Trazado_1004743" data-name="Trazado 1004743" d="M224.9,49.134q-.368.941-.753,1.869c.505.448,1.035.87,1.513,1.347-.655-.1-1.335-.151-2-.206q-.4.918-.807,1.822-.192-.945-.41-1.913c-.643-.055-1.314-.055-1.959-.07q.823-.565,1.663-1.117-.26-.954-.548-1.929l1.593,1.252c.57-.365,1.13-.707,1.7-1.054" transform="translate(-125.371 -27.463)" fill="#ffffc5"/>
        <path id="Trazado_1004744" data-name="Trazado 1004744" d="M238.176,61.933q-.5.876-1.018,1.735l.663.766c.22.256.42.528.632.792l-.961-.27-.978-.232q-.525.849-1.065,1.68-.053-.96-.129-1.947l-.955-.2-.969-.162q.9-.439,1.812-.862-.119-.978-.263-1.982c.464.491.938.973,1.393,1.471q.912-.4,1.839-.789" transform="translate(-132.736 -34.491)" fill="#ffffc5"/>
        <path id="Trazado_1004745" data-name="Trazado 1004745" d="M249.453,76.636q-.625.791-1.261,1.563c.18.285.37.565.542.856l.506.878c-.616-.274-1.207-.55-1.839-.786-.431.508-.857,1-1.3,1.505.067-.643.112-1.285.159-1.943-.616-.229-1.214-.455-1.845-.645.636-.2,1.279-.4,1.921-.585.019-.657.025-1.32.027-2,.384.555.8,1.089,1.158,1.663q.963-.264,1.938-.509" transform="translate(-139.022 -42.614)" fill="#ffffc5"/>
        <path id="Trazado_1004746" data-name="Trazado 1004746" d="M258.476,92.93q-.734.688-1.478,1.357c.292.61.523,1.245.774,1.872-.571-.362-1.115-.722-1.7-1.054-.5.435-1.006.868-1.522,1.3.18-.632.3-1.253.45-1.9-.582-.315-1.13-.632-1.724-.915.662-.106,1.324-.2,1.978-.288.136-.656.223-1.3.328-1.971.3.6.629,1.2.9,1.818q.992-.118,1.994-.215" transform="translate(-144.085 -51.657)" fill="#ffffc5"/>
        <path id="Trazado_1004747" data-name="Trazado 1004747" d="M265.025,110.463q-.829.571-1.663,1.119c.2.646.321,1.312.483,1.967-.509-.444-1-.88-1.517-1.3-.554.355-1.135.71-1.7,1.054.278-.6.493-1.195.733-1.809-.526-.4-1.033-.792-1.563-1.164.674-.006,1.326,0,1.993.014.242-.631.419-1.256.622-1.9.221.639.438,1.278.611,1.932q1,.032,2.006.086" transform="translate(-147.801 -61.426)" fill="#ffffc5"/>
        <path id="Trazado_1004748" data-name="Trazado 1004748" d="M268.935,128.842q-.9.439-1.812.856c.1.668.122,1.345.182,2.018-.437-.516-.856-1.02-1.3-1.511-.6.268-1.228.532-1.843.787.365-.551.665-1.108,1-1.68-.459-.473-.9-.937-1.37-1.386.665.1,1.309.2,1.967.313.334-.588.606-1.178.9-1.785l.179,1c.056.333.089.67.135,1q.984.182,1.97.386" transform="translate(-150.079 -71.704)" fill="#ffffc5"/>
        <path id="Trazado_1004749" data-name="Trazado 1004749" d="M270.032,147.643q-.961.3-1.921.579c0,.676-.063,1.349-.115,2.022-.359-.574-.682-1.135-1.072-1.687-.64.176-1.276.346-1.93.507.428-.492.816-1,1.228-1.515-.386-.537-.744-1.062-1.152-1.574q.966.29,1.905.6c.412-.532.767-1.076,1.153-1.631.015.675.047,1.35.015,2.025q.945.326,1.889.673" transform="translate(-150.77 -82.257)" fill="#ffffc5"/>
        <path id="Trazado_1004750" data-name="Trazado 1004750" d="M267.922,166.455q-1,.154-1.988.286c-.063.332-.112.667-.186,1l-.228.987c-.266-.621-.507-1.224-.81-1.828-.663.078-1.31.152-1.981.213.489-.424.956-.865,1.439-1.314-.3-.588-.572-1.159-.909-1.727.6.285,1.214.58,1.8.878.471-.467.917-.95,1.379-1.443-.094.668-.149,1.343-.283,2.006q.885.462,1.767.947" transform="translate(-149.478 -92.847)" fill="#ffffc5"/>
        <path id="Trazado_1004751" data-name="Trazado 1004751" d="M263.113,184.858q-1.007,0-2.007-.015c-.2.644-.459,1.27-.708,1.9-.173-.655-.315-1.287-.525-1.929-.664-.021-1.322-.048-1.994-.088.554-.343,1.076-.71,1.622-1.083-.211-.626-.391-1.231-.639-1.844.553.373,1.111.755,1.647,1.138.539-.39,1.05-.8,1.581-1.219-.192.647-.351,1.305-.583,1.94q.806.59,1.605,1.2" transform="translate(-146.71 -103.243)" fill="#ffffc5"/>
        <path id="Trazado_1004752" data-name="Trazado 1004752" d="M255.713,201.893q-1-.147-1.98-.315c-.295.608-.656,1.181-.986,1.769-.071-.672-.132-1.326-.228-1.984-.648-.118-1.311-.252-1.964-.389.612-.249,1.172-.54,1.769-.826-.114-.651-.211-1.281-.353-1.918.5.454.976.909,1.452,1.37.6-.3,1.159-.634,1.749-.966-.279.615-.548,1.235-.868,1.83q.709.7,1.408,1.429" transform="translate(-142.53 -112.667)" fill="#ffffc5"/>
        <path id="Trazado_1004753" data-name="Trazado 1004753" d="M245.906,217.614q-.961-.293-1.909-.6c-.393.549-.828,1.067-1.24,1.6q.046-1.012.071-2-.952-.332-1.89-.68c.638-.159,1.255-.349,1.876-.551q-.02-.988-.06-1.948.62.775,1.225,1.566c.642-.206,1.253-.446,1.878-.692l-.547.853-.586.826q.6.8,1.183,1.625" transform="translate(-137.041 -121.346)" fill="#ffffc5"/>
        <path id="Trazado_1004754" data-name="Trazado 1004754" d="M233.928,231.779q-.906-.431-1.8-.878l-1.465,1.4q.193-1,.359-1.97-.891-.467-1.766-.95c.646-.071,1.3-.15,1.94-.264q.124-.983.224-1.941.5.858.981,1.732l.989-.183c.327-.067.647-.145.974-.22-.432.519-.906,1-1.372,1.49q.474.884.932,1.784" transform="translate(-130.376 -129.187)" fill="#ffffc5"/>
        <path id="Trazado_1004755" data-name="Trazado 1004755" d="M220.049,244.088c-.553-.372-1.1-.749-1.652-1.141l-1.651,1.175q.335-.961.641-1.9-.811-.592-1.6-1.2c.643.015,1.315.05,1.961.03q.265-.958.5-1.893.367.923.717,1.861c.659-.027,1.347-.038,2-.105-.5.451-1.054.844-1.579,1.269q.339.946.66,1.905" transform="translate(-122.685 -136.026)" fill="#ffffc5"/>
        <path id="Trazado_1004756" data-name="Trazado 1004756" d="M204.568,254.268c-.492-.449-.986-.918-1.469-1.382l-1.8.925q.473-.9.914-1.792-.713-.706-1.407-1.421c.634.113,1.284.229,1.937.325q.4-.91.774-1.8.227.97.434,1.95c.656.071,1.33.149,2,.2-.577.352-1.168.678-1.752,1.019q.2.986.371,1.984" transform="translate(-114.135 -141.71)" fill="#ffffc5"/>
        <path id="Trazado_1004757" data-name="Trazado 1004757" d="M187.815,262.073q-.634-.791-1.246-1.589c-.64.214-1.278.44-1.921.644.405-.538.793-1.094,1.172-1.634q-.6-.8-1.177-1.613.916.311,1.866.611c.358-.554.7-1.119,1.034-1.67q.08.993.139,1.995.958.254,1.949.5l-1.885.745c.03.669.056,1.348.069,2.016" transform="translate(-104.913 -146.107)" fill="#ffffc5"/>
        <path id="Trazado_1004758" data-name="Trazado 1004758" d="M169.522,267.312q-.507-.876-.993-1.758c-.665.116-1.329.246-2,.349.482-.468.948-.963,1.4-1.439q-.472-.883-.922-1.771.858.444,1.753.883c.439-.486.86-1,1.273-1.495q-.07.994-.162,1.994.908.394,1.852.78l-1.974.457c-.071.666-.147,1.344-.235,2" transform="translate(-94.577 -149.108)" fill="#ffffc5"/>
        <path id="Trazado_1004759" data-name="Trazado 1004759" d="M150.745,269.873q-.371-.943-.719-1.888l-2.025.051q.819-.609,1.6-1.219-.336-.945-.648-1.89.784.569,1.6,1.138c.507-.424,1-.862,1.483-1.29q-.218.972-.459,1.946.84.527,1.715,1.05l-2.02.154c-.17.648-.346,1.305-.531,1.946" transform="translate(-84 -150.646)" fill="#ffffc5"/>
        <path id="Trazado_1004760" data-name="Trazado 1004760" d="M83.637,132.05A48.412,48.412,0,1,1,132.05,83.637,48.467,48.467,0,0,1,83.637,132.05" transform="translate(-19.637 -19.638)" fill="#fff7e8"/>
      </g>
    </g>
    <g id="Grupo_1180053" data-name="Grupo 1180053" transform="translate(-13402.254 -12647.618)">
      <rect id="Rectángulo_401104" data-name="Rectángulo 401104" width="60.508" height="61.237" transform="translate(0)" fill="none"/>
    </g>
    <g id="Grupo_1187780" data-name="Grupo 1187780" transform="translate(-13408.29 -12647.61)">
      <g id="Grupo_1187779" data-name="Grupo 1187779" clip-path="url(#clip-path-2)">
        <path id="Trazado_1033392" data-name="Trazado 1033392" d="M72.127,35.119c.858-1.749.558-2.175-1.433-2.162-.938.006-1.878-.04-2.812.022-.8.053-1.1-.182-1.06-1.032.073-1.716-.01-3.439.055-5.155.046-1.248-.378-1.843-1.708-1.758-1.245.079-2.5-.039-3.748.034-.884.051-1.145-.233-1.132-1.119.045-3.125.014-6.25,0-9.375-.006-1.881-.134-2-2.069-2.007-1.2,0-2.4-.057-3.593.012-.888.052-1.143-.242-1.126-1.129.062-3.176-.031-6.357.083-9.53C53.644.371,53.083-.031,51.611,0Q45.989.137,40.362,0c-1.5-.036-1.881.547-1.847,1.926.079,3.176.009,6.355.07,9.531.017.878-.213,1.179-1.112,1.13-1.35-.075-2.71.028-4.061-.036-1.176-.056-1.55.442-1.515,1.575.064,2.082.03,4.167.016,6.25-.01,1.5.523,3.525-.237,4.367-.877.971-2.934.208-4.475.306a1.811,1.811,0,0,1-.312,0c-1.179-.131-1.555.452-1.537,1.564.041,2.6.012,5.208.013,7.813,0,3.276,0,3.276-3.3,3.115a.881.881,0,0,0-.156,0c-.7.09-.882-.259-.879-.911.013-4.271,0-8.542-.009-12.813,0-.376-.013-.8.518-.749,1.871.2,1.777-1.023,1.756-2.3-.059-3.632.308-3.175-3.158-3.206-.824-.007-1.828.213-2.422-.173s-.13-1.442-.21-2.2c-.005-.052,0-.1,0-.156-.06-.574-.274-1.039-.943-1a.892.892,0,0,0-.852.945,11.631,11.631,0,0,0,0,1.717c.059.673-.162.931-.865.888-.608-.037-1.106.03-1.058-.864.072-1.35.017-2.707.017-4.062,0-4.557,0-4.521-4.506-4.515-1.208,0-1.695.377-1.666,1.61.053,2.29-.027,4.584.013,6.875.013.758-.228.937-.966.962-3.2.109-3.2.137-3.2,3.426,0,.208.013.418,0,.625C3.4,22.552,3.8,23.074,4.723,23s.995.395.982,1.127c-.037,2.135-.017,4.271-.017,6.407,0,3.614,0,3.614-3.587,3.611-2.073,0-2.309.323-1.978,2.409.75,4.726,2.385,9.008,5.916,12.416a6.381,6.381,0,0,1,1.895,3.082A5.889,5.889,0,0,1,5.672,50.8a6.985,6.985,0,0,0-3.738-1.392c-.6-.015-1.194.021-1.256.808-.055.689.468.934,1,.963a7.715,7.715,0,0,1,3.791,1.675,6.374,6.374,0,0,0,7.945-.175c2.689-1.939,2.719-1.939,5.414.019a6.164,6.164,0,0,0,7.907.028c2.741-1.971,3.024-1.972,5.744-.027a6.123,6.123,0,0,0,7.9.01c2.737-1.934,2.737-1.934,5.565.007,2.873,1.972,5.351,1.931,8.177-.134,2.444-1.785,2.709-1.784,5.174.03a6.384,6.384,0,0,0,8.069.216A7.464,7.464,0,0,1,71,51.2c.537-.034,1.034-.241.991-.948-.049-.8-.588-.865-1.213-.844A7.507,7.507,0,0,0,66.79,51a4.8,4.8,0,0,1-3.049,1.223c.218-.479.373-.846.549-1.2q3.918-7.951,7.837-15.9m-9.92-6.43c.008-1.942.006-1.89,1.94-1.842.8.02.93.318.908,1.011-.042,1.349-.052,2.7.016,4.05.041.814-.2,1.09-1.032,1.053-1.452-.066-2.911-.083-4.362-.019-2.053.091-4.3-.7-6.124,1.233,0-2.159-.008-4.318,0-6.477.008-1.437,1.115-.676,1.728-.789s1.283-.233,1.316.9c.093,3.227.153,3.225,3.34,3.221,2.257,0,2.257,0,2.266-2.344m-2.825-1.834c.924.033,1.248.309.985,1.107.175.956-.005,1.43-1.074,1.4-.969-.026-1.057-.452-1.083-1.247-.03-.9.144-1.3,1.172-1.261M55.608,16.127c0-1.615.956-2.255,2.5-1.737.539.181.374.554.376.871.015,2.962-.017,5.924.031,8.885.013.8-.283.943-.989.924-1.61-.044-3.221-.014-4.832-.014V25.05c-1.559,0-3.119-.034-4.676.015-.768.024-1.1-.138-1.084-1.01.056-2.909.069-5.82.006-8.729-.031-1.456.985-.848,1.611-.911.668-.067,1.41-.281,1.432.964.056,3.17.123,3.168,3.248,3.159,2.381-.007,2.381-.007,2.379-2.412m-3.773,18.8a2.71,2.71,0,0,1-2.506,2.606c-2.708.04-5.418-.013-8.126.022-.726.01-.865-.291-.852-.925.032-1.51.01-3.021.009-4.532a35.7,35.7,0,0,0-.029-3.748c-.141-1.321.451-1.427,1.561-1.5,1.37-.095,1.418.571,1.327,1.554-.038.414.014.835-.017,1.249-.073.988.345,1.472,1.357,1.409.311-.019.625,0,.938,0,3.2,0,3.272,0,3.344-3.2.033-1.431.966-.889,1.614-.944.684-.058,1.46-.263,1.413.983-.088,2.341-.017,4.688-.032,7.032M46.061,29.36c-.987,0-1.046-.446-1.054-1.22-.008-.824.021-1.362,1.114-1.271.839.07,1.347.19,1.031,1.062.168.979-.051,1.426-1.091,1.43m6.673-14.994c.847.062,1.354.176,1.048.988.036.9.188,1.589-1.018,1.573-1.038-.014-1.178-.4-1.17-1.285.007-.849.058-1.355,1.14-1.276M46.205,1.854c1.212-.108.932.689,1,1.379.1,1.007-.46.987-1.21,1.04-1.254.089-.936-.743-.96-1.474-.24-1.006.466-.882,1.168-.945m-5.853.92c-.029-1.482,1.019-.786,1.629-.886.64-.1,1.27-.214,1.294.91C43.342,6,43.4,6,46.7,6.006c2.167,0,2.269,0,2.134-2.226-.093-1.532.273-2.142,1.917-1.966.917.1,1.092.373,1.082,1.2q-.055,4.21.027,8.42c.018.877-.229,1.182-1.127,1.144-1.556-.067-3.118-.019-4.677-.021s-3.119-.025-4.678.008c-.671.014-1.039-.074-1.026-.906.049-2.962.061-5.926,0-8.888m-.814,11.6c1.046-.04,1.066.5.933,1.25.166.883-.092,1.267-1.116,1.279-1.264.013-.873-.8-.964-1.448-.134-.947.337-1.048,1.147-1.08m-4.45.056c.57.027,1.475-.551,1.545.8.172,3.3.228,3.3,3.48,3.3,2.134,0,2.26-.008,2.094-2.275-.119-1.628.42-2.031,1.949-1.911.929.073,1.082.364,1.066,1.2-.048,2.653-.091,5.312.026,7.961.06,1.355-.4,1.675-1.66,1.573-1.4-.114-2.808-.026-4.213-.026v-.007c-1.562,0-3.124-.034-4.684.015-.732.023-.993-.179-.983-.947.036-2.966.04-5.934-.014-8.9-.022-1.248.858-.811,1.395-.786M32.859,26.86c.741.046,1.152.135,1.046,1.013-.089.743.194,1.574-1.119,1.481-.912-.065-1.243-.346-1.02-1.156-.188-.958.059-1.4,1.093-1.338m-5.708.92c-.027-1.329.87-.854,1.478-.882.662-.031,1.408-.288,1.431.963.058,3.19.127,3.189,3.4,3.19,2.21,0,2.209,0,2.21-2.235,0-1.038-.349-2.191,1.522-1.988,1.065.116,1.381.3,1.349,1.4-.078,2.7-.049,5.406.017,8.108.022.92-.164,1.294-1.177,1.23-1.5-.095-3.013-.024-4.521-.024-1.611,0-3.224-.03-4.834.014-.686.019-.89-.211-.883-.883.034-2.963.068-5.927.007-8.888M9.424,10.59c.1-1.1.932-.509,1.42-.585.464-.072,1.182-.334,1.169.673-.015,1.177-.911.439-1.246.718-.61-.132-1.443.306-1.343-.805m-.019,5.95a12.57,12.57,0,0,0,.021-1.852c0-1.4.986-2.144,2.178-1.486.864.478.143,1.5.391,2.138a7.009,7.009,0,0,0,.01,1.177c.216,1.161-.533,1.075-1.28,1.055-.706-.019-1.507.178-1.32-1.032M5.265,20.289c-.013-.993.529-.912,1.178-.908,2.344.014,4.688.006,7.031.006s4.688.017,7.031-.009c.712-.008,1.129.049,1.121.978-.008.971-.506.93-1.177.927-4.687-.016-9.375-.026-14.062,0-.746,0-1.112-.1-1.123-.993m2.23,3.805c-.016-.871.212-1.168,1.125-1.15,3.177.06,6.355.059,9.532.021.88-.011,1.189.249,1.164,1.149-.057,2.082-.018,4.167-.018,6.25h.008c0,2.032.012,4.063-.011,6.095,0,.372.232.926-.343,1.055-.492.111-1.106.166-1.38-.418-1.683-3.589-4.894-2.992-7.923-2.948-2.143.031-2.144,0-2.143-2.085,0-2.657.037-5.314-.012-7.97M3.138,41.369c-.322-1.518-.714-3.022-1.119-4.521-.2-.731.075-.881.753-.876,3.592.026,7.186.05,10.777,0a1.892,1.892,0,0,1,1.7,1.136c1.148,1.817,2.7,2.34,4.846,2.312,9.526-.126,19.055-.09,28.583-.038a4.134,4.134,0,0,0,3.369-1.24c2.625-2.988,5.9-3.8,9.753-3.443,2.733.256,5.509.049,8.474.049-1.292,2.65-2.506,5.046-3.623,7.486-.355.775-.909.715-1.528.715-4.009,0-8.018.016-12.027.015-15.932-.008-31.864-.037-47.8,0-1.284,0-1.9-.375-2.161-1.6M62.014,51.635c-.311.645-.74.232-.992-.017-2.928-2.9-5.737-2.63-8.753-.006-1.345,1.171-3.116.972-4.68.038-.489-.292-.946-.639-1.405-.978-2.186-1.615-3.748-1.641-5.965-.088-3.467,2.429-4.262,2.422-7.75-.058a4.3,4.3,0,0,0-5.717,0c-3.5,2.471-4.339,2.475-7.757.044-2.2-1.564-3.787-1.532-5.95.116-.33.252-.656.512-1,.741-1.656,1.1-1.772,1.065-2.652-.7a22.245,22.245,0,0,0-3.355-4.478c-.355-.411-.688-.842-1.159-1.421H65.26c-1.1,2.315-2.164,4.568-3.246,6.812" transform="translate(0 0)" fill="#4d787e"/>
        <path id="Trazado_1033393" data-name="Trazado 1033393" d="M73.85,213.974c-.1-.845-.786-.86-1.432-.767a9.484,9.484,0,0,0-3.827,1.634c-2.81,1.832-4.035,1.779-6.785-.193-2.512-1.8-4.027-1.811-6.5-.039-2.953,2.116-4.068,2.123-6.969.039-2.484-1.784-4.14-1.777-6.671.028-2.839,2.025-3.991,2.023-6.85-.013-2.512-1.789-3.994-1.808-6.528-.083-3.131,2.132-4.221,2.12-7.267-.074-2.208-1.59-3.894-1.591-6.129,0-3.145,2.234-3.985,2.263-7.26.109a8.4,8.4,0,0,0-3.9-1.426c-.562-.052-1.084.12-1.166.763a.832.832,0,0,0,.9,1.013c1.558.008,2.723.887,3.94,1.683,2.94,1.922,5.233,1.827,8.014-.3,2.154-1.648,2.908-1.651,5.091-.021,3.009,2.248,5.354,2.255,8.365.026,2.329-1.724,2.914-1.722,5.212.019,2.876,2.18,5.328,2.2,8.255.08,2.538-1.841,2.843-1.84,5.464.024,2.945,2.095,5.359,2.048,8.26-.161,2.1-1.6,2.808-1.632,4.945.006A7.514,7.514,0,0,0,65.231,218a7.247,7.247,0,0,0,4.216-1.539,5.788,5.788,0,0,1,3.21-1.452c.722-.037,1.294-.2,1.193-1.037" transform="translate(-1.88 -156.801)" fill="#4d787e"/>
        <path id="Trazado_1033394" data-name="Trazado 1033394" d="M226.457,143.167a2.317,2.317,0,0,0,2.374-2.345,2.439,2.439,0,0,0-2.519-2.407,2.377,2.377,0,1,0,.145,4.752m-.048-2.943c.327.007.606.132.568.868a.634.634,0,0,1-1.213-.225c-.057-.475.235-.652.644-.643" transform="translate(-164.754 -101.814)" fill="#4d787e"/>
        <path id="Trazado_1033395" data-name="Trazado 1033395" d="M53.23,96.217c.786-.226,2.122.42,2.151-.858.03-1.314-1.3-.722-2.071-.867a.379.379,0,0,0-.154,0c-.745.184-2.09-.523-2.036.873.049,1.3,1.375.609,2.11.852" transform="translate(-37.601 -69.491)" fill="#4d787e"/>
        <path id="Trazado_1033396" data-name="Trazado 1033396" d="M51.888,110.43c.362.017.725,0,1.088,0s.726-.005,1.088,0c.612.013,1.222-.069,1.221-.834,0-.741-.58-.875-1.208-.864-.725.013-1.451.005-2.177,0-.612,0-1.006.243-.978.912.025.612.464.75.966.774" transform="translate(-37.456 -79.985)" fill="#4d787e"/>
      </g>
    </g>
  </g>
</svg>
