<svg xmlns="http://www.w3.org/2000/svg" xmlns:xlink="http://www.w3.org/1999/xlink" width="128" height="128" viewBox="0 0 128 128">
  <defs>
    <clipPath id="clip-path">
      <rect id="Rectángulo_456277" data-name="Rectángulo 456277" width="128" height="128" transform="translate(0 0)" fill="#d35560"/>
    </clipPath>
    <clipPath id="clip-path-2">
      <rect id="Rectángulo_459972" data-name="Rectángulo 459972" width="60.508" height="52.947" fill="#4d787e"/>
    </clipPath>
  </defs>
  <g id="Grupo_1186180" data-name="Grupo 1186180" transform="translate(13436 12681)">
    <g id="Grupo_1179924" data-name="Grupo 1179924" transform="translate(-13436 -12681)">
      <g id="Grupo_1179923" data-name="Grupo 1179923" transform="translate(0 0)" clip-path="url(#clip-path)">
        <path id="Trazado_1004716" data-name="Trazado 1004716" d="M63.534,127.068c-2.064,0-3.994-2.358-6.006-2.554-2.05-.2-4.4,1.735-6.388,1.341-2.016-.4-3.449-3.09-5.391-3.68-1.964-.6-4.65.839-6.526.059-1.892-.786-2.769-3.705-4.562-4.667s-4.72-.086-6.412-1.22-1.99-4.172-3.566-5.467-4.61-1-6.054-2.44-1.143-4.475-2.44-6.054-4.328-1.867-5.467-3.566-.252-4.608-1.22-6.411-3.881-2.67-4.668-4.562c-.78-1.877.656-4.563.059-6.526-.59-1.942-3.28-3.374-3.68-5.391-.395-1.987,1.541-4.338,1.34-6.388C2.358,67.528,0,65.6,0,63.534s2.358-3.994,2.554-6.006c.2-2.05-1.735-4.4-1.34-6.388.4-2.016,3.09-3.449,3.68-5.391.6-1.964-.839-4.65-.059-6.527C5.622,37.33,8.54,36.453,9.5,34.66s.085-4.719,1.22-6.412,4.171-1.99,5.466-3.566,1-4.61,2.441-6.054,4.475-1.143,6.053-2.44,1.867-4.328,3.566-5.467,4.608-.252,6.412-1.22,2.67-3.881,4.562-4.668c1.877-.78,4.563.656,6.527.059,1.942-.59,3.374-3.279,5.39-3.68,1.987-.395,4.338,1.541,6.388,1.341C59.54,2.358,61.47,0,63.534,0s3.994,2.358,6.006,2.554c2.05.2,4.4-1.735,6.388-1.341,2.016.4,3.449,3.09,5.391,3.68,1.964.6,4.65-.839,6.526-.059,1.892.786,2.769,3.705,4.562,4.668s4.72.085,6.412,1.22,1.99,4.171,3.566,5.466,4.61,1,6.054,2.441,1.143,4.475,2.44,6.053,4.328,1.867,5.467,3.566.252,4.608,1.22,6.412,3.881,2.67,4.667,4.562c.78,1.877-.656,4.563-.059,6.526.59,1.942,3.28,3.374,3.68,5.39.395,1.987-1.541,4.338-1.341,6.388.2,2.012,2.555,3.943,2.555,6.006s-2.358,3.994-2.555,6.007c-.2,2.049,1.735,4.4,1.341,6.388-.4,2.016-3.09,3.449-3.68,5.391-.6,1.964.839,4.65.059,6.526-.787,1.893-3.705,2.769-4.668,4.563s-.085,4.719-1.22,6.412-4.171,1.99-5.466,3.566-1,4.61-2.441,6.053-4.475,1.143-6.053,2.44-1.867,4.328-3.566,5.466-4.608.252-6.412,1.22-2.67,3.881-4.562,4.668c-1.877.78-4.563-.656-6.526-.059-1.942.59-3.374,3.279-5.39,3.68-1.987.395-4.338-1.541-6.388-1.341-2.013.2-3.943,2.554-6.007,2.554" transform="translate(0.466 0.466)" fill="#d35560"/>
        <path id="Trazado_1004717" data-name="Trazado 1004717" d="M14,71.524a57.524,57.524,0,1,1,57.524,57.524A57.524,57.524,0,0,1,14,71.524" transform="translate(-7.524 -7.524)" fill="#4d787e"/>
        <path id="Trazado_1004718" data-name="Trazado 1004718" d="M131.909,269.316c-.153-.646-.3-1.314-.433-1.969l-2.01-.256q.9-.478,1.765-.962-.191-.985-.361-1.967c.46.452.931.917,1.416,1.362q.847-.526,1.657-1.055-.359.929-.741,1.855c.5.431,1.015.868,1.54,1.3l-2.02-.151q-.4.926-.813,1.849" transform="translate(-73.422 -150.295)" fill="#ffffc5"/>
        <path id="Trazado_1004719" data-name="Trazado 1004719" d="M113.426,265.848c-.055-.66-.1-1.343-.133-2.011l-1.949-.555q.962-.338,1.89-.686-.042-1-.061-2c.387.515.783,1.047,1.2,1.558q.916-.393,1.8-.794-.494.863-1.01,1.722c.431.5.872,1.016,1.329,1.509-.661-.137-1.317-.3-1.976-.449q-.529.856-1.081,1.706" transform="translate(-63.08 -148.261)" fill="#ffffc5"/>
        <path id="Trazado_1004720" data-name="Trazado 1004720" d="M95.721,259.733c.05-.672.108-1.345.172-2.013l-1.845-.838c.667-.124,1.326-.26,1.972-.4q.109-1,.239-1.984c.305.568.62,1.144.948,1.721q.965-.252,1.9-.518-.618.78-1.258,1.552c.352.559.712,1.129,1.088,1.693l-1.886-.741q-.652.767-1.325,1.525" transform="translate(-53.209 -144.782)" fill="#ffffc5"/>
        <path id="Trazado_1004721" data-name="Trazado 1004721" d="M79.2,251.1q.225-.987.47-1.963c-.565-.37-1.144-.718-1.7-1.105.667-.007,1.349-.058,2.007-.1q.256-.968.531-1.924.327.909.684,1.839c.652-.056,1.311-.146,1.95-.226q-.729.68-1.477,1.349.4.908.824,1.833L80.734,249.8c-.506.44-1.023.883-1.534,1.3" transform="translate(-44.034 -139.94)" fill="#ffffc5"/>
        <path id="Trazado_1004722" data-name="Trazado 1004722" d="M64.221,240.181q.368-.941.753-1.869c-.505-.448-1.035-.87-1.513-1.347.655.1,1.335.151,2,.207q.4-.918.807-1.822.192.945.41,1.914c.643.054,1.314.055,1.959.07q-.822.565-1.663,1.117.26.954.548,1.929l-1.593-1.253c-.57.365-1.13.707-1.7,1.054" transform="translate(-35.752 -133.852)" fill="#ffffc5"/>
        <path id="Trazado_1004723" data-name="Trazado 1004723" d="M51.1,227.217q.5-.876,1.018-1.735l-.663-.766c-.22-.256-.421-.528-.631-.792l.961.27.978.232q.525-.849,1.065-1.68.053.96.129,1.947l.955.2.969.162q-.9.439-1.812.862.119.978.263,1.982c-.464-.491-.938-.973-1.393-1.471q-.912.4-1.839.789" transform="translate(-28.54 -126.659)" fill="#ffffc5"/>
        <path id="Trazado_1004724" data-name="Trazado 1004724" d="M39.841,212.493q.625-.791,1.262-1.563c-.18-.286-.37-.565-.542-.856l-.506-.878c.616.274,1.207.55,1.839.786.431-.508.857-1,1.3-1.505-.067.643-.112,1.285-.159,1.943.616.229,1.214.456,1.845.645-.636.2-1.279.4-1.921.584-.019.658-.025,1.321-.027,2-.384-.555-.8-1.089-1.158-1.663q-.963.264-1.938.509" transform="translate(-22.272 -118.515)" fill="#ffffc5"/>
        <path id="Trazado_1004725" data-name="Trazado 1004725" d="M30.615,196.327q.734-.688,1.478-1.357c-.292-.61-.523-1.245-.774-1.872.571.362,1.115.723,1.7,1.054.5-.435,1.006-.868,1.522-1.3-.18.632-.3,1.253-.45,1.9.582.315,1.13.632,1.724.915-.662.106-1.323.2-1.978.288-.136.656-.223,1.3-.328,1.971-.3-.6-.629-1.2-.9-1.817q-.992.118-1.994.216" transform="translate(-17.006 -109.601)" fill="#ffffc5"/>
        <path id="Trazado_1004726" data-name="Trazado 1004726" d="M24.019,178.752q.829-.57,1.663-1.119c-.2-.646-.321-1.312-.483-1.967.509.444,1,.88,1.517,1.3.554-.355,1.135-.71,1.7-1.054-.278.6-.493,1.2-.732,1.809.526.4,1.033.792,1.563,1.164-.674.006-1.326,0-1.993-.014-.242.632-.419,1.256-.622,1.9-.221-.639-.438-1.278-.611-1.932q-1-.032-2.006-.086" transform="translate(-13.242 -99.79)" fill="#ffffc5"/>
        <path id="Trazado_1004727" data-name="Trazado 1004727" d="M20.215,160.164q.9-.439,1.812-.856c-.1-.668-.122-1.345-.182-2.018.437.516.856,1.02,1.3,1.511.6-.268,1.228-.532,1.843-.787-.365.551-.665,1.108-1,1.68.459.473.9.937,1.37,1.386-.665-.1-1.309-.2-1.967-.313-.334.588-.606,1.179-.9,1.785l-.179-1c-.056-.333-.089-.67-.135-1q-.984-.182-1.97-.386" transform="translate(-11.071 -89.302)" fill="#ffffc5"/>
        <path id="Trazado_1004728" data-name="Trazado 1004728" d="M19.269,141.311q.961-.3,1.921-.579c0-.676.063-1.349.115-2.022.359.574.682,1.135,1.072,1.687.64-.176,1.276-.346,1.93-.507-.428.492-.816,1-1.228,1.515.386.537.744,1.062,1.152,1.574q-.966-.29-1.905-.6c-.412.532-.767,1.076-1.153,1.631-.015-.675-.047-1.35-.015-2.025q-.945-.325-1.889-.673" transform="translate(-10.531 -78.698)" fill="#ffffc5"/>
        <path id="Trazado_1004729" data-name="Trazado 1004729" d="M21.174,122.6q1-.154,1.988-.286c.063-.332.112-.667.186-1l.228-.987c.266.621.507,1.224.81,1.828.663-.078,1.31-.152,1.981-.213-.489.424-.956.865-1.438,1.314.3.588.572,1.159.909,1.727-.6-.285-1.214-.58-1.8-.878-.471.467-.917.95-1.379,1.443.094-.668.149-1.343.283-2.006q-.885-.462-1.767-.947" transform="translate(-11.618 -68.211)" fill="#ffffc5"/>
        <path id="Trazado_1004730" data-name="Trazado 1004730" d="M25.928,104.462q1.007,0,2.007.015c.2-.644.459-1.27.708-1.9.173.655.316,1.286.525,1.929.664.021,1.322.048,1.994.088-.554.343-1.076.71-1.622,1.083.211.627.392,1.231.639,1.844-.553-.373-1.111-.756-1.647-1.139-.539.39-1.05.8-1.581,1.22.192-.648.351-1.305.583-1.941q-.806-.59-1.605-1.2" transform="translate(-14.331 -58.078)" fill="#ffffc5"/>
        <path id="Trazado_1004731" data-name="Trazado 1004731" d="M33.429,87.3q1,.147,1.98.315c.295-.608.656-1.181.986-1.77.071.672.132,1.326.228,1.984.648.118,1.311.252,1.964.389-.612.249-1.172.54-1.769.826.114.651.212,1.281.353,1.918-.5-.454-.976-.909-1.452-1.37-.6.3-1.159.634-1.749.966.279-.615.548-1.235.869-1.83q-.71-.7-1.409-1.43" transform="translate(-18.612 -48.53)" fill="#ffffc5"/>
        <path id="Trazado_1004732" data-name="Trazado 1004732" d="M43.489,71.506q.961.294,1.909.6c.393-.549.828-1.067,1.24-1.6q-.046,1.012-.071,2,.952.332,1.89.68c-.638.159-1.255.349-1.876.551q.02.988.06,1.948-.62-.775-1.225-1.566c-.642.206-1.253.446-1.878.692l.547-.853.586-.826q-.6-.8-1.183-1.625" transform="translate(-24.354 -39.775)" fill="#ffffc5"/>
        <path id="Trazado_1004733" data-name="Trazado 1004733" d="M55.279,57.409q.906.431,1.8.878l1.465-1.4q-.193,1-.359,1.97.891.467,1.766.95c-.646.071-1.3.15-1.94.264q-.124.983-.224,1.941-.5-.858-.981-1.732l-.989.183c-.327.067-.647.145-.974.22.432-.519.906-1,1.372-1.49q-.474-.884-.932-1.784" transform="translate(-30.831 -32.001)" fill="#ffffc5"/>
        <path id="Trazado_1004734" data-name="Trazado 1004734" d="M69.057,45.313c.553.372,1.1.749,1.652,1.141l1.651-1.175q-.335.961-.641,1.9.811.592,1.6,1.2c-.643-.015-1.315-.05-1.961-.03q-.265.958-.5,1.893-.367-.923-.716-1.861c-.659.027-1.347.038-2,.105.5-.451,1.054-.844,1.579-1.269q-.339-.946-.66-1.905" transform="translate(-38.421 -25.376)" fill="#ffffc5"/>
        <path id="Trazado_1004735" data-name="Trazado 1004735" d="M84.591,34.886c.492.45.986.918,1.469,1.382l1.8-.925q-.473.9-.914,1.792.713.705,1.407,1.42c-.634-.113-1.284-.229-1.937-.325q-.4.911-.774,1.8-.227-.969-.434-1.949c-.656-.071-1.331-.15-2-.2.577-.351,1.169-.678,1.752-1.018q-.2-.986-.371-1.985" transform="translate(-47.023 -19.444)" fill="#ffffc5"/>
        <path id="Trazado_1004736" data-name="Trazado 1004736" d="M101.552,26.946q.634.791,1.246,1.589c.64-.214,1.278-.44,1.921-.644-.405.538-.792,1.094-1.172,1.634q.6.8,1.177,1.613-.916-.311-1.866-.611c-.358.554-.7,1.119-1.034,1.67q-.08-.993-.139-1.994-.958-.254-1.949-.5l1.885-.745c-.03-.669-.056-1.348-.069-2.016" transform="translate(-56.455 -14.913)" fill="#ffffc5"/>
        <path id="Trazado_1004737" data-name="Trazado 1004737" d="M119.566,21.733q.507.876.993,1.758c.665-.115,1.329-.246,2-.349-.482.468-.948.962-1.4,1.439q.472.883.922,1.771-.858-.444-1.753-.883c-.439.486-.86,1-1.273,1.495q.07-.994.162-1.994-.908-.394-1.852-.78l1.974-.457c.071-.666.147-1.344.235-2" transform="translate(-66.511 -11.938)" fill="#ffffc5"/>
        <path id="Trazado_1004738" data-name="Trazado 1004738" d="M138.214,19.35q.371.944.72,1.888l2.025-.051q-.819.609-1.6,1.218.335.945.648,1.89-.784-.569-1.6-1.138c-.507.424-1,.862-1.483,1.29q.218-.972.459-1.946-.84-.527-1.715-1.051l2.02-.154c.17-.648.346-1.305.531-1.947" transform="translate(-76.959 -10.578)" fill="#ffffc5"/>
        <path id="Trazado_1004739" data-name="Trazado 1004739" d="M157.075,19.831c.153.647.3,1.314.433,1.969l2.01.256q-.9.478-1.765.962.191.985.36,1.967c-.46-.452-.931-.917-1.416-1.362q-.847.526-1.657,1.055.359-.929.741-1.855c-.5-.431-1.014-.868-1.54-1.3l2.021.151q.4-.926.813-1.849" transform="translate(-87.562 -10.852)" fill="#ffffc5"/>
        <path id="Trazado_1004740" data-name="Trazado 1004740" d="M175.741,23.17c.055.66.1,1.343.134,2.011l1.949.555q-.962.338-1.89.686.042,1,.061,2c-.387-.515-.782-1.047-1.2-1.558q-.916.393-1.8.794.494-.864,1.01-1.722c-.431-.5-.872-1.016-1.329-1.509.661.137,1.317.3,1.976.449q.53-.856,1.081-1.706" transform="translate(-98.088 -12.758)" fill="#ffffc5"/>
        <path id="Trazado_1004741" data-name="Trazado 1004741" d="M193.559,29.313c-.05.672-.108,1.345-.172,2.012l1.845.838c-.667.125-1.326.261-1.972.4q-.109,1-.239,1.984c-.305-.568-.62-1.144-.948-1.721q-.965.252-1.9.518.618-.78,1.257-1.552c-.351-.559-.712-1.129-1.087-1.693l1.886.741q.652-.767,1.325-1.525" transform="translate(-108.072 -16.264)" fill="#ffffc5"/>
        <path id="Trazado_1004742" data-name="Trazado 1004742" d="M209.923,38.133q-.225.987-.47,1.963c.565.37,1.144.718,1.7,1.105-.667.007-1.349.058-2.007.1q-.256.968-.531,1.924-.327-.909-.684-1.839c-.652.056-1.311.146-1.95.226q.729-.68,1.477-1.349-.4-.908-.824-1.833l1.756,1.011c.506-.44,1.022-.883,1.534-1.3" transform="translate(-117.09 -21.297)" fill="#ffffc5"/>
        <path id="Trazado_1004743" data-name="Trazado 1004743" d="M224.9,49.134q-.368.941-.753,1.869c.505.448,1.035.87,1.513,1.347-.655-.1-1.335-.151-2-.206q-.4.918-.807,1.822-.192-.945-.41-1.913c-.643-.055-1.314-.055-1.959-.07q.823-.565,1.663-1.117-.26-.954-.548-1.929l1.593,1.252c.57-.365,1.13-.707,1.7-1.054" transform="translate(-125.371 -27.463)" fill="#ffffc5"/>
        <path id="Trazado_1004744" data-name="Trazado 1004744" d="M238.176,61.933q-.5.876-1.018,1.735l.663.766c.22.256.42.528.632.792l-.961-.27-.978-.232q-.525.849-1.065,1.68-.053-.96-.129-1.947l-.955-.2-.969-.162q.9-.439,1.812-.862-.119-.978-.263-1.982c.464.491.938.973,1.393,1.471q.912-.4,1.839-.789" transform="translate(-132.736 -34.491)" fill="#ffffc5"/>
        <path id="Trazado_1004745" data-name="Trazado 1004745" d="M249.453,76.636q-.625.791-1.261,1.563c.18.285.37.565.542.856l.506.878c-.616-.274-1.207-.55-1.839-.786-.431.508-.857,1-1.3,1.505.067-.643.112-1.285.159-1.943-.616-.229-1.214-.455-1.845-.645.636-.2,1.279-.4,1.921-.585.019-.657.025-1.32.027-2,.384.555.8,1.089,1.158,1.663q.963-.264,1.938-.509" transform="translate(-139.022 -42.614)" fill="#ffffc5"/>
        <path id="Trazado_1004746" data-name="Trazado 1004746" d="M258.476,92.93q-.734.688-1.478,1.357c.292.61.523,1.245.774,1.872-.571-.362-1.115-.722-1.7-1.054-.5.435-1.006.868-1.522,1.3.18-.632.3-1.253.45-1.9-.582-.315-1.13-.632-1.724-.915.662-.106,1.324-.2,1.978-.288.136-.656.223-1.3.328-1.971.3.6.629,1.2.9,1.818q.992-.118,1.994-.215" transform="translate(-144.085 -51.657)" fill="#ffffc5"/>
        <path id="Trazado_1004747" data-name="Trazado 1004747" d="M265.025,110.463q-.829.571-1.663,1.119c.2.646.321,1.312.483,1.967-.509-.444-1-.88-1.517-1.3-.554.355-1.135.71-1.7,1.054.278-.6.493-1.195.733-1.809-.526-.4-1.033-.792-1.563-1.164.674-.006,1.326,0,1.993.014.242-.631.419-1.256.622-1.9.221.639.438,1.278.611,1.932q1,.032,2.006.086" transform="translate(-147.801 -61.426)" fill="#ffffc5"/>
        <path id="Trazado_1004748" data-name="Trazado 1004748" d="M268.935,128.842q-.9.439-1.812.856c.1.668.122,1.345.182,2.018-.437-.516-.856-1.02-1.3-1.511-.6.268-1.228.532-1.843.787.365-.551.665-1.108,1-1.68-.459-.473-.9-.937-1.37-1.386.665.1,1.309.2,1.967.313.334-.588.606-1.178.9-1.785l.179,1c.056.333.089.67.135,1q.984.182,1.97.386" transform="translate(-150.079 -71.704)" fill="#ffffc5"/>
        <path id="Trazado_1004749" data-name="Trazado 1004749" d="M270.032,147.643q-.961.3-1.921.579c0,.676-.063,1.349-.115,2.022-.359-.574-.682-1.135-1.072-1.687-.64.176-1.276.346-1.93.507.428-.492.816-1,1.228-1.515-.386-.537-.744-1.062-1.152-1.574q.966.29,1.905.6c.412-.532.767-1.076,1.153-1.631.015.675.047,1.35.015,2.025q.945.326,1.889.673" transform="translate(-150.77 -82.257)" fill="#ffffc5"/>
        <path id="Trazado_1004750" data-name="Trazado 1004750" d="M267.922,166.455q-1,.154-1.988.286c-.063.332-.112.667-.186,1l-.228.987c-.266-.621-.507-1.224-.81-1.828-.663.078-1.31.152-1.981.213.489-.424.956-.865,1.439-1.314-.3-.588-.572-1.159-.909-1.727.6.285,1.214.58,1.8.878.471-.467.917-.95,1.379-1.443-.094.668-.149,1.343-.283,2.006q.885.462,1.767.947" transform="translate(-149.478 -92.847)" fill="#ffffc5"/>
        <path id="Trazado_1004751" data-name="Trazado 1004751" d="M263.113,184.858q-1.007,0-2.007-.015c-.2.644-.459,1.27-.708,1.9-.173-.655-.315-1.287-.525-1.929-.664-.021-1.322-.048-1.994-.088.554-.343,1.076-.71,1.622-1.083-.211-.626-.391-1.231-.639-1.844.553.373,1.111.755,1.647,1.138.539-.39,1.05-.8,1.581-1.219-.192.647-.351,1.305-.583,1.94q.806.59,1.605,1.2" transform="translate(-146.71 -103.243)" fill="#ffffc5"/>
        <path id="Trazado_1004752" data-name="Trazado 1004752" d="M255.713,201.893q-1-.147-1.98-.315c-.295.608-.656,1.181-.986,1.769-.071-.672-.132-1.326-.228-1.984-.648-.118-1.311-.252-1.964-.389.612-.249,1.172-.54,1.769-.826-.114-.651-.211-1.281-.353-1.918.5.454.976.909,1.452,1.37.6-.3,1.159-.634,1.749-.966-.279.615-.548,1.235-.868,1.83q.709.7,1.408,1.429" transform="translate(-142.53 -112.667)" fill="#ffffc5"/>
        <path id="Trazado_1004753" data-name="Trazado 1004753" d="M245.906,217.614q-.961-.293-1.909-.6c-.393.549-.828,1.067-1.24,1.6q.046-1.012.071-2-.952-.332-1.89-.68c.638-.159,1.255-.349,1.876-.551q-.02-.988-.06-1.948.62.775,1.225,1.566c.642-.206,1.253-.446,1.878-.692l-.547.853-.586.826q.6.8,1.183,1.625" transform="translate(-137.041 -121.346)" fill="#ffffc5"/>
        <path id="Trazado_1004754" data-name="Trazado 1004754" d="M233.928,231.779q-.906-.431-1.8-.878l-1.465,1.4q.193-1,.359-1.97-.891-.467-1.766-.95c.646-.071,1.3-.15,1.94-.264q.124-.983.224-1.941.5.858.981,1.732l.989-.183c.327-.067.647-.145.974-.22-.432.519-.906,1-1.372,1.49q.474.884.932,1.784" transform="translate(-130.376 -129.187)" fill="#ffffc5"/>
        <path id="Trazado_1004755" data-name="Trazado 1004755" d="M220.049,244.088c-.553-.372-1.1-.749-1.652-1.141l-1.651,1.175q.335-.961.641-1.9-.811-.592-1.6-1.2c.643.015,1.315.05,1.961.03q.265-.958.5-1.893.367.923.717,1.861c.659-.027,1.347-.038,2-.105-.5.451-1.054.844-1.579,1.269q.339.946.66,1.905" transform="translate(-122.685 -136.026)" fill="#ffffc5"/>
        <path id="Trazado_1004756" data-name="Trazado 1004756" d="M204.568,254.268c-.492-.449-.986-.918-1.469-1.382l-1.8.925q.473-.9.914-1.792-.713-.706-1.407-1.421c.634.113,1.284.229,1.937.325q.4-.91.774-1.8.227.97.434,1.95c.656.071,1.33.149,2,.2-.577.352-1.168.678-1.752,1.019q.2.986.371,1.984" transform="translate(-114.135 -141.71)" fill="#ffffc5"/>
        <path id="Trazado_1004757" data-name="Trazado 1004757" d="M187.815,262.073q-.634-.791-1.246-1.589c-.64.214-1.278.44-1.921.644.405-.538.793-1.094,1.172-1.634q-.6-.8-1.177-1.613.916.311,1.866.611c.358-.554.7-1.119,1.034-1.67q.08.993.139,1.995.958.254,1.949.5l-1.885.745c.03.669.056,1.348.069,2.016" transform="translate(-104.913 -146.107)" fill="#ffffc5"/>
        <path id="Trazado_1004758" data-name="Trazado 1004758" d="M169.522,267.312q-.507-.876-.993-1.758c-.665.116-1.329.246-2,.349.482-.468.948-.963,1.4-1.439q-.472-.883-.922-1.771.858.444,1.753.883c.439-.486.86-1,1.273-1.495q-.07.994-.162,1.994.908.394,1.852.78l-1.974.457c-.071.666-.147,1.344-.235,2" transform="translate(-94.577 -149.108)" fill="#ffffc5"/>
        <path id="Trazado_1004759" data-name="Trazado 1004759" d="M150.745,269.873q-.371-.943-.719-1.888l-2.025.051q.819-.609,1.6-1.219-.336-.945-.648-1.89.784.569,1.6,1.138c.507-.424,1-.862,1.483-1.29q-.218.972-.459,1.946.84.527,1.715,1.05l-2.02.154c-.17.648-.346,1.305-.531,1.946" transform="translate(-84 -150.646)" fill="#ffffc5"/>
        <path id="Trazado_1004760" data-name="Trazado 1004760" d="M83.637,132.05A48.412,48.412,0,1,1,132.05,83.637,48.467,48.467,0,0,1,83.637,132.05" transform="translate(-19.637 -19.638)" fill="#fff7e8"/>
      </g>
    </g>
    <g id="Grupo_1180053" data-name="Grupo 1180053" transform="translate(-13402.254 -12647.618)">
      <rect id="Rectángulo_401104" data-name="Rectángulo 401104" width="60.508" height="61.237" transform="translate(0)" fill="none"/>
    </g>
    <g id="Grupo_1187782" data-name="Grupo 1187782" transform="translate(-13402.254 -12643.474)">
      <g id="Grupo_1187781" data-name="Grupo 1187781" clip-path="url(#clip-path-2)">
        <path id="Trazado_1033397" data-name="Trazado 1033397" d="M3.463,52.919A3.672,3.672,0,0,0,7.3,50.862a1.311,1.311,0,0,1,1.12-.822,20.7,20.7,0,0,0,6.246-1.871,1.518,1.518,0,0,1,1.808.2,24.64,24.64,0,0,0,28.961-.676,2.477,2.477,0,0,1,2.321-.561,12.3,12.3,0,0,0,4.993.125,5.068,5.068,0,0,0,4.467-5.411,12.472,12.472,0,0,0-2.164-6.374,2.309,2.309,0,0,1-.347-1.931,24.439,24.439,0,0,0-1.43-15.855,1.89,1.89,0,0,1,.182-2.08,23.078,23.078,0,0,0,3.4-7.16c.173-.672.588-.765,1.046-.915a3.583,3.583,0,0,0,2.6-3.462A3.642,3.642,0,0,0,58.536.542,3.744,3.744,0,0,0,54.2.874c-.3.224-.519.529-.989.476C48.874.865,45.039,2.467,41.27,4.28a2.185,2.185,0,0,1-1.928.094A24.074,24.074,0,0,0,18.829,5.556a4.225,4.225,0,0,1-3.712.466,15.053,15.053,0,0,0-3.247-.495c-.748.049-1.307.073-1.863.123a4.919,4.919,0,0,0-4.8,4.36,10.463,10.463,0,0,0,1.652,6.363A2.887,2.887,0,0,1,7.049,19.1,23.527,23.527,0,0,0,5.909,32.389a2.8,2.8,0,0,1-.456,2.252C3.375,37.926,1.52,41.307,1.713,45.383c.023.481-.274.671-.534.941a3.778,3.778,0,0,0-.91,4.154,3.594,3.594,0,0,0,3.194,2.441M17.2,47.1a4.226,4.226,0,0,1,.415-.315c.976-.528,2.01-1.541,2.919-1.439.939.1,1.173,1.7,1.871,2.534.715.855,1.437,1.7,2.288,2.713A23.345,23.345,0,0,1,17.2,47.1M29.665,32.478c.371,1.673-.651,2.308-1.811,3-.4.235-.533.027-.754-.148-1.856-1.464-3.676-2.975-5.579-4.374-.883-.649-.139-1.211-.1-1.808s.438-.725.985-.709c1.075.033,2.151.01,3.227.01v-.006a26.751,26.751,0,0,0,2.837-.021c1.029-.11,1.249.3,1.173,1.23a9.677,9.677,0,0,0,.026,2.83m-.042-6.129c.008.592-.253.717-.776.705-1.156-.027-2.314-.008-3.471-.008v-.027c-1.114,0-2.229-.024-3.342.011a.92.92,0,0,1-.986-.62c-.205-.456.151-.622.377-.835,2.029-1.908,4.07-3.8,6.1-5.707.3-.281.6-.529.987-.2s1.13.2,1.113,1.028c-.039,1.885-.03,3.771,0,5.656m-3.251-7.424c-1.945,1.813-3.879,3.637-5.83,5.444-.306.283-.488.791-1.146.445-.6-.317-.834-.669-.7-1.007a53.471,53.471,0,0,1,1.351-7.612c.162-.612.4-.805,1.088-.591a20.18,20.18,0,0,0,4.5.949c.741.056.917.5,1.18,1.1.3.684-.068.921-.442,1.27m-7.529-3.716c-.215.742-.428,1.393-.59,2.057a36.387,36.387,0,0,0-1,6.47c-.069,1.147-1.052.749-1.519,1.187-.413.387-.677-.036-.938-.315a52.268,52.268,0,0,1-4.969-6.074,1.592,1.592,0,0,1-.063-1.981,37.477,37.477,0,0,1,2.67-3.93c.293-.359.5-.589,1.039-.262a34.326,34.326,0,0,0,4.839,2.349c.265.109.588.171.534.5M17.658,25.835a2.277,2.277,0,0,1,2.363,2.325,2.235,2.235,0,0,1-2.3,2.363,2.253,2.253,0,0,1-2.376-2.3,2.343,2.343,0,0,1,2.314-2.389m1.691,5.83c.471-.287.688-.038.991.2,1.979,1.569,3.953,3.143,5.955,4.683a1.141,1.141,0,0,1,.428.942c.266,2.033-.969,2.977-2.51,3.791-.938.5-1.824,1.091-2.785,1.672a36.627,36.627,0,0,1-2.67-10.312c-.075-.519.178-.725.593-.978m10.276,15c0,1.115,0,2.231,0,3.347-.005,1.372-.027,1.384-1.368.885a9.309,9.309,0,0,1-3.965-2.962c-.843-1.03-2.039-2.184-1.995-3.341.045-1.179,1.915-1.389,2.855-2.2A6.321,6.321,0,0,1,25.9,41.9a2.488,2.488,0,0,1,3.511.219c.305.251.2.539.2.811.018,1.244.008,2.488.007,3.733m-1.611-8.311a2.357,2.357,0,1,1,4.71.043,2.378,2.378,0,0,1-2.366,2.369,2.432,2.432,0,0,1-2.344-2.412m3.121-15.225c-.017-.257.012-.517,0-.774-.077-1.247-.134-2.4,1.455-2.908a2.635,2.635,0,0,0,1.426-1.9,1.175,1.175,0,0,1,1.142-.978A21.888,21.888,0,0,0,39.8,15.6c.533-.159.755-.088.908.488A46.871,46.871,0,0,1,42,22.773a.959.959,0,0,1-.637,1.182,3.384,3.384,0,0,0-2.021,2.356c-.156.624-.505.773-1.1.748-1.074-.045-2.151-.013-3.227-.013,0-.033,0-.066,0-.1-1.239,0-2.905.487-3.607-.127-.817-.715-.185-2.419-.266-3.691m11.9,1.919a2.364,2.364,0,1,1-2.424,2.406,2.31,2.31,0,0,1,2.424-2.406m-.469-10.376A30.629,30.629,0,0,0,47.4,12.32c.308-.193.515-.233.765.056a21.9,21.9,0,0,1,2.71,3.9c.04.074.074.151.142.288-.114.18-.24.4-.382.6a81.771,81.771,0,0,1-5.219,6.372c-.4.464-.715.376-1.2.251a.806.806,0,0,1-.721-.854,38.974,38.974,0,0,0-1.365-7.311c-.16-.535-.088-.73.441-.945m-8.427,22.9c-.788-1.274.081-1.773.885-2.431q2.54-2.08,4.991-4.266a.789.789,0,0,1,1.2,0c.353.283,1.11.19.875,1.046a38.561,38.561,0,0,1-2.139,9.951c-.266.726-.541.826-1.181.463C37.4,41.555,36,40.811,34.6,40.075c-.435-.228-.628-.434-.455-.992a2.089,2.089,0,0,0-.005-1.507m-3.029-8.291c-.023-.694.221-.883.884-.853,1.112.049,2.227.013,3.342.013v-.007c1.028,0,2.057.008,3.085,0,.441,0,.8-.013,1.02.526.225.561-.2.655-.46.877-1.894,1.605-3.812,3.183-5.678,4.819a1.2,1.2,0,0,1-1.474.149,1.018,1.018,0,0,1-.711-1.151c.032-1.456.042-2.914-.007-4.37M32.4,51c-.976.362-1.378.245-1.282-.914s.021-2.314.02-3.472a12.816,12.816,0,0,0-.025-2.311c-.305-1.621.461-2.455,1.838-3.057a.889.889,0,0,1,.916.137c1.483.754,2.956,1.529,4.424,2.311.3.161.828.226.524.8-1.5,2.8-3.248,5.339-6.414,6.512m3.724-.453a17.584,17.584,0,0,0,3.831-5.134c.279-.593.576-.692,1.17-.42,1.085.5,2.21.908,3.486,1.422a21.535,21.535,0,0,1-8.487,4.132M55.734,41.71c.137,2.37-1.272,3.928-3.879,4.2a9.129,9.129,0,0,1-4.016-.3,26.12,26.12,0,0,0,6.021-9.191,11.66,11.66,0,0,1,1.874,5.289m-1.87-12.5a23.558,23.558,0,0,1-7.412,15.656.939.939,0,0,1-1.159.177c-1.188-.48-2.378-.962-3.592-1.366-.7-.233-.662-.6-.441-1.148a34.914,34.914,0,0,0,2.286-10.369,1.133,1.133,0,0,1,.889-1.2,2.905,2.905,0,0,0,1.876-1.656,1.329,1.329,0,0,1,1.48-.881c1.718.046,3.44.035,5.159,0,.688-.015,1.115.1.914.79m0-3.236c.083.836-.15,1.124-1.025,1.086-1.713-.074-3.431-.041-5.147-.033-.454,0-.94.008-.957-.561-.02-.658-1.029-1.123-.26-1.943a69.965,69.965,0,0,0,5.356-6.409,25.25,25.25,0,0,1,2.033,7.859M56.612,1.535a2.354,2.354,0,1,1,.1,4.706,2.288,2.288,0,0,1-2.372-2.315,2.235,2.235,0,0,1,2.274-2.392M51.379,2.693c.909-.06,1.6,0,1.479,1.318a3.187,3.187,0,0,0,1.814,3.166c.818.428.8.848.531,1.606a30.779,30.779,0,0,1-3.194,6.376A26.583,26.583,0,0,0,42.048,5.5a26.618,26.618,0,0,1,9.33-2.807m-4.7,8.266A25.417,25.417,0,0,1,42.041,13.3c-.512.215-.669.031-.835-.409a27.522,27.522,0,0,0-2.04-4.261,21.589,21.589,0,0,0-2.907-3.641c3.221.456,8.453,3.463,10.421,5.974m-15.573.149c.077-2.059.051-4.123.019-6.185-.012-.748.192-.848.89-.624a8.976,8.976,0,0,1,4.216,2.811A20.928,20.928,0,0,1,39.74,13.2c.239.628.254.893-.512,1.036-1.511.283-3,.68-4.5,1.031-.516.061-.666-.264-.835-.651a2.9,2.9,0,0,0-1.678-1.692c-.966-.316-1.146-.885-1.111-1.815m-.8,2.826a2.216,2.216,0,0,1,2.406,2.278,2.257,2.257,0,0,1-2.28,2.409,2.344,2.344,0,1,1-.126-4.687M26.52,5.412C27.387,4.772,28.475,4,29.4,4.338c.586.214.146,1.633.209,2.51.037.513.007,1.03.005,1.546,0,.6-.045,1.206.008,1.8.116,1.319.115,2.515-1.512,2.983a1.824,1.824,0,0,0-1.071,1.232c-.261.791-.715.929-1.45.745-1.368-.343-2.746-.644-4.122-.953-.422-.095-.7-.165-.464-.748,1.233-3.1,2.747-6,5.513-8.043m-1.975-.466A22.375,22.375,0,0,0,19.6,12.94c-.23.611-.5.506-.964.316a30.191,30.191,0,0,1-4.617-2.3A22.383,22.383,0,0,1,24.545,4.946m-17.917,6A3.437,3.437,0,0,1,9.465,7.226c1.983-.509,3.9-.113,6.1.385A26.112,26.112,0,0,0,8.4,15.9a9.907,9.907,0,0,1-1.772-4.957M6.953,26.3a23.891,23.891,0,0,1,1.593-7,54.977,54.977,0,0,0,5.483,6.676c.581.576.135,1.018-.433,1.036-2.057.063-4.117.028-6.176.015-.481,0-.5-.341-.466-.725M7.5,28.442c1.933.006,3.867.018,5.8-.01.5-.007.52.3.613.629a3.738,3.738,0,0,0,2.726,2.81c.6.161.686.573.725,1.041a34.6,34.6,0,0,0,2.5,10.174c.213.525.153.79-.329,1.01-.155.071-.3.163-.45.246-3.477,1.923-3.477,1.923-6.146-1-3.379-3.695-6.15-10.281-6.018-14.317-.091-.46.158-.588.577-.587m-4.32,15.57a18.48,18.48,0,0,1,3.51-8.434,25.925,25.925,0,0,0,7.59,11.154,25.661,25.661,0,0,1-5.6,1.8c-.588.115-.95.068-1.182-.695A3.45,3.45,0,0,0,4.17,45.261c-1.051-.033-1.039-.485-.987-1.249m.633,2.712A2.362,2.362,0,1,1,1.488,49.15a2.43,2.43,0,0,1,2.328-2.427" transform="translate(0 0)" fill="#4d787e"/>
      </g>
    </g>
  </g>
</svg>
