<svg xmlns="http://www.w3.org/2000/svg" xmlns:xlink="http://www.w3.org/1999/xlink" width="126" height="126" viewBox="0 0 126 126">
  <defs>
    <clipPath id="clip-path">
      <rect id="Rectángulo_456277" data-name="Rectángulo 456277" width="126" height="126" transform="translate(-0.173 -0.173)" fill="#d35560"/>
    </clipPath>
    <clipPath id="clip-path-2">
      <rect id="Rectángulo_459888" data-name="Rectángulo 459888" width="68.078" height="68.194" fill="none"/>
    </clipPath>
  </defs>
  <g id="Grupo_1187786" data-name="Grupo 1187786" transform="translate(-580.711 -6223.711)">
    <g id="Grupo_1180208" data-name="Grupo 1180208" transform="translate(-314.347 -1060.289)">
      <g id="Grupo_1180176" data-name="Grupo 1180176" transform="translate(14330.847 19964.789)">
        <g id="Grupo_1179924" data-name="Grupo 1179924" transform="translate(-13435.616 -12680.616)">
          <g id="Grupo_1179923" data-name="Grupo 1179923" transform="translate(0 0)" clip-path="url(#clip-path)">
            <path id="Trazado_1004716" data-name="Trazado 1004716" d="M62.806,125.612c-2.04,0-3.948-2.331-5.937-2.525-2.026-.2-4.351,1.715-6.315,1.325-1.993-.4-3.409-3.055-5.329-3.638-1.941-.59-4.6.83-6.452.058-1.871-.777-2.738-3.663-4.51-4.614s-4.665-.085-6.338-1.206-1.967-4.124-3.525-5.4-4.557-.986-5.984-2.413-1.13-4.424-2.412-5.984-4.279-1.846-5.4-3.525-.249-4.555-1.206-6.338-3.836-2.64-4.614-4.51c-.771-1.855.648-4.511.059-6.452C4.254,78.467,1.6,77.051,1.2,75.058c-.39-1.964,1.523-4.289,1.325-6.315C2.331,66.754,0,64.846,0,62.806s2.331-3.948,2.525-5.937c.2-2.026-1.715-4.35-1.325-6.315.4-1.993,3.054-3.409,3.638-5.329.59-1.941-.829-4.6-.058-6.452.778-1.871,3.663-2.737,4.614-4.51S9.478,29.6,10.6,27.924,14.723,25.957,16,24.4s.986-4.557,2.413-5.984S22.84,17.286,24.4,16s1.846-4.279,3.525-5.4,4.555-.249,6.338-1.206,2.639-3.836,4.51-4.614,4.511.648,6.452.058C47.145,4.254,48.56,1.6,50.554,1.2c1.964-.39,4.289,1.523,6.315,1.325C58.858,2.331,60.766,0,62.806,0s3.948,2.331,5.937,2.525c2.026.2,4.351-1.715,6.315-1.325,1.993.4,3.409,3.055,5.329,3.638,1.941.59,4.6-.83,6.452-.058,1.871.777,2.738,3.663,4.51,4.614s4.665.084,6.338,1.206,1.967,4.124,3.525,5.4,4.557.986,5.984,2.413,1.13,4.424,2.412,5.984,4.279,1.846,5.4,3.525.249,4.555,1.206,6.338,3.836,2.64,4.614,4.51c.771,1.855-.648,4.511-.058,6.452.583,1.919,3.242,3.335,3.638,5.328.39,1.964-1.523,4.289-1.325,6.315.195,1.989,2.525,3.9,2.525,5.937s-2.331,3.948-2.525,5.938c-.2,2.026,1.715,4.35,1.325,6.315-.4,1.993-3.054,3.409-3.638,5.329-.59,1.941.829,4.6.058,6.452-.778,1.871-3.663,2.738-4.614,4.511s-.084,4.665-1.206,6.338-4.124,1.967-5.4,3.525-.986,4.557-2.413,5.984-4.424,1.13-5.984,2.413-1.846,4.278-3.525,5.4-4.555.249-6.338,1.206-2.639,3.837-4.51,4.614c-1.855.771-4.511-.648-6.452-.058-1.919.583-3.335,3.242-5.328,3.638-1.964.39-4.289-1.523-6.315-1.325-1.99.194-3.9,2.525-5.938,2.525" transform="translate(0.021 0.022)" fill="#3342a4"/>
            <path id="Trazado_1004717" data-name="Trazado 1004717" d="M14,70.865A56.865,56.865,0,1,1,70.865,127.73,56.865,56.865,0,0,1,14,70.865" transform="translate(-8.038 -8.037)" fill="#fff7e8"/>
            <path id="Trazado_1021102" data-name="Trazado 1021102" d="M14,66.624a52.624,52.624,0,1,1,52.624,52.624A52.624,52.624,0,0,1,14,66.624" transform="translate(-3.798 -3.795)" fill="#3342a4"/>
          </g>
        </g>
        <g id="Grupo_1180053" data-name="Grupo 1180053" transform="translate(-13407.189 -12652.604)">
          <rect id="Rectángulo_401104" data-name="Rectángulo 401104" width="68.804" height="69.633" transform="translate(0 0)" fill="none"/>
        </g>
      </g>
    </g>
    <g id="Grupo_1187615" data-name="Grupo 1187615" transform="translate(609.961 6252.614)">
      <g id="Grupo_1187614" data-name="Grupo 1187614" clip-path="url(#clip-path-2)">
        <path id="Trazado_1031371" data-name="Trazado 1031371" d="M131.485,22.872c-.075-.271-.579-.231-.62-.086L125.4,42.262l-2.171-.615,5.308-19.134c-.159-.241-.8-.452-1.008-.247l-4.669,4.639-1.625-1.6,4.166-4.176a11.341,11.341,0,1,1,11.448-.021l4.189,4.2-1.6,1.594L134.709,22.2a1.816,1.816,0,0,0-.991.218l5.37,19.231-2.266.6Z" transform="translate(-97.124 0)" fill="#040504"/>
        <path id="Trazado_1031372" data-name="Trazado 1031372" d="M35.271,248.486l-2.374.045a4.538,4.538,0,0,1-9.076-.014H11.345a4.537,4.537,0,0,1-9.074.033L1.134,248.5A1.133,1.133,0,0,1,0,247.346l0-18.11a1.1,1.1,0,0,1,1.156-1.142l22.642,0a1.1,1.1,0,0,1,1.15,1.13l.017,4.541,5.661,0a1.142,1.142,0,0,1,1.1.807l4.514,12.472a1.085,1.085,0,0,1-.972,1.444" transform="translate(0 -184.957)" fill="#040504"/>
        <path id="Trazado_1031373" data-name="Trazado 1031373" d="M250.032,96.169a11.338,11.338,0,1,1-9.91,12.759,11.318,11.318,0,0,1,9.91-12.759" transform="translate(-194.633 -77.917)" fill="#040504"/>
        <path id="Trazado_1031374" data-name="Trazado 1031374" d="M242.166,238.3c-.149.622-1.255.423-1.539-.032l-.05-7.5-1.555-.03-.259-.378-.171.378-5.173-.011-.068,7.876a1.489,1.489,0,0,1-.858,1.059,33.451,33.451,0,0,1-5.278.127c-1-.251-1.179-.545-1.385-1.515q.077-3.83-.109-7.549-3.62-.1-7.081.126l.01,17.329-.378.23.379.158.053,1.827h11.925c.554.321.76,1.227.118,1.5l-.041,1.15-13.559-.01A1.138,1.138,0,0,1,216,251.883l0-22.64a1.1,1.1,0,0,1,1.158-1.147l24.907,0a1.1,1.1,0,0,1,1.154,1.134l.011,9.025Z" transform="translate(-175.151 -184.96)" fill="#040504"/>
        <path id="Trazado_1031375" data-name="Trazado 1031375" d="M10.025,96.174A11.338,11.338,0,1,1,.109,108.91a11.321,11.321,0,0,1,9.917-12.736" transform="translate(-0.011 -77.921)" fill="#040504"/>
        <path id="Trazado_1031376" data-name="Trazado 1031376" d="M308.085,296.19l.971.642-.982,1.6a5.742,5.742,0,0,1-8.268,7.871c-1.4-.228-1.921-1.876-2.248-3.114a1.111,1.111,0,0,0,.244-1.039c-.677-.358-.295-1.515-.08-2.162a6.159,6.159,0,0,1,4.467-4.019c.729-.162,2.033-.406,2.4.321l.236-.318,1.309.431c.56-1.028,1.518-1.743,1.954-.216" transform="translate(-241.176 -239.466)" fill="#040504"/>
        <path id="Trazado_1031377" data-name="Trazado 1031377" d="M243.535,335.652l-3.033.106-.036-1.135-12.425.01-.015-2.364.176-.377,12.878.087c.015-.307.106-.442.451-.479a5.7,5.7,0,0,0,2,4.153" transform="translate(-184.905 -268.811)" fill="#9d6643"/>
        <path id="Trazado_1031378" data-name="Trazado 1031378" d="M337.8,248.056l-.107,3.38a3.525,3.525,0,0,0-.926-.564l-.9,1.249-1.674-.581-.262-.311.086-10.885.38-.226,2.192,0v7.893Z" transform="translate(-270.78 -194.712)" fill="#9e6643"/>
        <path id="Trazado_1031379" data-name="Trazado 1031379" d="M142.543,12.058q.007.188.319.078l.759.175.144.267c3.779,2.234,5.246,7.329,3.841,11.475l-.53.4c-1.471-1.612-3.065-.919-4.654-1.314a4.62,4.62,0,0,0,3.107-5.312,4.534,4.534,0,0,0-8.905.148,4.624,4.624,0,0,0,3.137,5.163,8.544,8.544,0,0,1-2.431.183,3.489,3.489,0,0,0-3.086,3.63,9.064,9.064,0,0,1,8.3-14.89" transform="translate(-107.055 -9.673)" fill="#d8d8d7"/>
        <path id="Trazado_1031380" data-name="Trazado 1031380" d="M165.109,87.395a9.127,9.127,0,0,1-9.021.015l-.026-2.207a1.1,1.1,0,0,1,1.13-1.124l6.79,0a1.107,1.107,0,0,1,1.13,1.126Z" transform="translate(-126.55 -68.176)" fill="#505050"/>
        <path id="Trazado_1031381" data-name="Trazado 1031381" d="M195.612,26.086a9.8,9.8,0,0,0-3.735-11.834c-.018-.084.165-.234.28-.305a8.75,8.75,0,0,1,6.068,5.816,9.044,9.044,0,0,1-1.723,8.8,4.311,4.311,0,0,0-.89-2.475" transform="translate(-155.591 -11.309)" fill="#cbcbcb"/>
        <path id="Trazado_1031382" data-name="Trazado 1031382" d="M169.722,36.187a2.238,2.238,0,0,1,2.76,1.6,2.259,2.259,0,0,1-4.324,1.3,2.237,2.237,0,0,1,1.564-2.895" transform="translate(-136.262 -29.279)" fill="#505050"/>
        <path id="Trazado_1031383" data-name="Trazado 1031383" d="M184.6,12.612l.319.078a.835.835,0,0,1-1.034.082,2.551,2.551,0,0,1,.714-.159" transform="translate(-149.109 -10.227)" fill="#e1e1e0"/>
        <path id="Trazado_1031384" data-name="Trazado 1031384" d="M12.447,240.017q8.944.15,17.987.121c.06.619.229,2.911-.074,3.276-.158.191-.289.152-.414-.091q-4.473-.073-8.882.1c.6.152.57,2.06-.006,2.262a69.626,69.626,0,0,0,9.242-.039,3.619,3.619,0,0,1,.039,2.307c-4.545-.151-9.286-.162-13.812.009.6.153.568,2.062-.008,2.263q6.675.179,13.422.106c.676-.409.626.873.538,1.406a2.515,2.515,0,0,1-1.769,2.135,100.115,100.115,0,0,1-10.768-.015,5.522,5.522,0,0,0-2.953.066,18.93,18.93,0,0,1-2.775.042,6.127,6.127,0,0,1-.228-1.2l-.012-12.686a.967.967,0,0,1,.471-.059" transform="translate(-9.711 -194.626)" fill="#3c8fce"/>
        <path id="Trazado_1031385" data-name="Trazado 1031385" d="M19.763,253.869a1.521,1.521,0,0,1,.839-.214l9.42-.086c1.511-.014,2.22-1.758,1.852-3.132l-13.33-.008c-.151,0-.225-.11-.2-.192l.177-.378,13.036-.044-.043-1.47-12.933.007-.229-.378c-.029-.079.046-.192.2-.192l13.375,0,0-1.9-8.848,0c-.143,0-.221-.111-.2-.195l.175-.378,8.5-.041-.034-1.474-8.412.009-.226-.378c-.028-.081.05-.191.193-.191H31.94l.012-3.034-17.563.011c-.151,0-.223-.121-.122-.192l19.955.007v15.887l-12-.017a5.08,5.08,0,0,0-2.462-2.037" transform="translate(-11.531 -194.639)" fill="#3788be"/>
        <path id="Trazado_1031386" data-name="Trazado 1031386" d="M140.507,280.17a1.541,1.541,0,0,1-1.254.024,4.712,4.712,0,0,0-3.324-2.109,4.534,4.534,0,0,0-3.937,1.467l-.023-9.476,4.893.01Z" transform="translate(-107.013 -219.004)" fill="#d8d8d7"/>
        <path id="Trazado_1031387" data-name="Trazado 1031387" d="M25.721,324.191a2.236,2.236,0,0,1,2.759,1.6,2.258,2.258,0,0,1-4.324,1.3,2.233,2.233,0,0,1,1.564-2.894" transform="translate(-19.492 -262.819)" fill="#4f4f4f"/>
        <path id="Trazado_1031388" data-name="Trazado 1031388" d="M139.721,324.191a2.236,2.236,0,0,1,2.759,1.6,2.258,2.258,0,0,1-4.324,1.3,2.233,2.233,0,0,1,1.564-2.894" transform="translate(-111.934 -262.819)" fill="#4f4f4f"/>
        <path id="Trazado_1031389" data-name="Trazado 1031389" d="M15.041,308.588c-2.011.759-2.162,2.345-2.992,1.915l-.012-3.076a2.144,2.144,0,0,1,.2.874l2.07-.021a.823.823,0,0,1,.729.308" transform="translate(-9.761 -249.291)" fill="#3686bb"/>
        <path id="Trazado_1031390" data-name="Trazado 1031390" d="M256.563,130.07l-4.528,0a8.9,8.9,0,0,1,2.088-4.66,10.865,10.865,0,0,0,2.671,1.5Z" transform="translate(-204.374 -101.692)" fill="#7bbc66"/>
        <path id="Trazado_1031391" data-name="Trazado 1031391" d="M257.176,164.432a1.432,1.432,0,0,0-.037.765,27.388,27.388,0,0,0-2.6,1.533,8.811,8.811,0,0,1-2.047-4.638h4.5Z" transform="translate(-204.748 -131.439)" fill="#7bbc66"/>
        <path id="Trazado_1031392" data-name="Trazado 1031392" d="M292.46,164.492a13.653,13.653,0,0,0-4.1.014l-.187-2.463,4.513,0Z" transform="translate(-233.68 -131.399)" fill="#7bbb66"/>
        <path id="Trazado_1031393" data-name="Trazado 1031393" d="M292.529,139.414h-4.464l.2-2.477a10,10,0,0,0,4.042,0Z" transform="translate(-233.591 -111.039)" fill="#7bbb66"/>
        <path id="Trazado_1031394" data-name="Trazado 1031394" d="M328.871,165.657a3.043,3.043,0,0,1,.489-1.861,2.817,2.817,0,0,1,.74-1.774l2.34-.021a9.154,9.154,0,0,1-2.042,4.651Z" transform="translate(-266.67 -131.367)" fill="#6bb559"/>
        <path id="Trazado_1031395" data-name="Trazado 1031395" d="M330.04,130.1a3,3,0,0,1-.6-1.784,3.007,3.007,0,0,1-.447-1.859l1.521-.992a9.109,9.109,0,0,1,1.961,4.624Z" transform="translate(-266.759 -101.737)" fill="#6bb559"/>
        <path id="Trazado_1031396" data-name="Trazado 1031396" d="M293.16,189.616a6.19,6.19,0,0,1-1.637-3.312,8.064,8.064,0,0,1,3.258.007,7.418,7.418,0,0,1-1.622,3.3" transform="translate(-236.395 -150.941)" fill="#7abb65"/>
        <path id="Trazado_1031397" data-name="Trazado 1031397" d="M294.835,110.825a7.658,7.658,0,0,1-3.182.005,6.491,6.491,0,0,1,1.574-3.33,6.27,6.27,0,0,1,1.608,3.325" transform="translate(-236.5 -87.171)" fill="#7abb65"/>
        <path id="Trazado_1031398" data-name="Trazado 1031398" d="M324.968,162.112a7.622,7.622,0,0,1-1.229,3.635l-1.21-.627.263-3.007Z" transform="translate(-261.538 -131.456)" fill="#7abb66"/>
        <path id="Trazado_1031399" data-name="Trazado 1031399" d="M323.872,130.71a6.3,6.3,0,0,1,1.052,3.643l-2.01,0-.254-3.01c.341-.392.869-.407,1.213-.631" transform="translate(-261.643 -105.992)" fill="#7abb66"/>
        <path id="Trazado_1031400" data-name="Trazado 1031400" d="M274.375,192.481a7.5,7.5,0,0,1-2-1.039l1.426-.863Z" transform="translate(-220.868 -154.54)" fill="#73b860"/>
        <path id="Trazado_1031401" data-name="Trazado 1031401" d="M273.858,113.031a4.1,4.1,0,0,1-1.452-.838l2.042-1.106Z" transform="translate(-220.893 -90.08)" fill="#75b962"/>
        <path id="Trazado_1031402" data-name="Trazado 1031402" d="M317.94,112.838a1.559,1.559,0,0,0-.584-.034l-.535-1.686,2.041,1.076c-.288.4-.593.436-.922.644" transform="translate(-256.909 -90.105)" fill="#64ab54"/>
        <path id="Trazado_1031403" data-name="Trazado 1031403" d="M318.17,191.645a1.908,1.908,0,0,1,.818.588l-2.007,1.067.557-1.772a1.314,1.314,0,0,0,.632.117" transform="translate(-257.039 -155.309)" fill="#65ac55"/>
        <path id="Trazado_1031404" data-name="Trazado 1031404" d="M320.159,118.633c-.175.111-.492.257-.584-.034-.063-.145.057-.426.254-.306.153.093.291.175.33.34" transform="translate(-259.128 -95.9)" fill="#76ba63"/>
        <path id="Trazado_1031405" data-name="Trazado 1031405" d="M276.046,175.2a.491.491,0,0,1-.22-.373c-.038-.212-.008-.449.257-.391.014.179.237.616-.037.765" transform="translate(-223.655 -141.44)" fill="#87c06b"/>
        <path id="Trazado_1031406" data-name="Trazado 1031406" d="M320.362,191.271a4.081,4.081,0,0,1-.434.284c-.2.116-.312-.185-.2-.4.068-.217.482.029.632.117" transform="translate(-259.231 -154.935)" fill="#78ba63"/>
        <path id="Trazado_1031407" data-name="Trazado 1031407" d="M248.474,240.057l-.07,11.128a2.5,2.5,0,0,1-.134.293,5.755,5.755,0,0,0-4.883,1.372,5.627,5.627,0,0,0-1.9,4.488l-.106.86-13.4-.09-.01-18.065h7.942l0,7.93a1.141,1.141,0,0,0,1.14,1.144l4.528,0a1.132,1.132,0,0,0,1.132-1.146l.01-7.93Z" transform="translate(-184.862 -194.649)" fill="#b27749"/>
        <path id="Trazado_1031408" data-name="Trazado 1031408" d="M284.263,246.865l-2.278.024v-6.774l2.27,0Z" transform="translate(-228.66 -194.708)" fill="#e2e4e3"/>
        <path id="Trazado_1031409" data-name="Trazado 1031409" d="M23.427,108.287c6.392,3.869,6.389,13.778-.138,17.52a9.043,9.043,0,0,1-11.133-7.149q.19-.538-.07-.3a9.164,9.164,0,0,1,7.344-10.239q1.2.315.312-.065a8.051,8.051,0,0,1,3.686.237" transform="translate(-9.724 -87.518)" fill="#cdb772"/>
        <path id="Trazado_1031410" data-name="Trazado 1031410" d="M71.73,127.349c.039-.385.286-.494.567-.706a10.186,10.186,0,0,0,0-16.154c-.281-.213-.531-.316-.429-.66a9.051,9.051,0,0,1-.138,17.52" transform="translate(-58.166 -89.06)" fill="#b29b59"/>
        <path id="Trazado_1031411" data-name="Trazado 1031411" d="M51.631,108.576c.12.074.3.013.6.16a.638.638,0,0,1-.908-.1Z" transform="translate(-41.615 -88.044)" fill="#d8c178"/>
        <path id="Trazado_1031412" data-name="Trazado 1031412" d="M12.556,160.8a.988.988,0,0,0-.07-.3c.083-.124.02-.307.169-.6a.63.63,0,0,1-.1.9" transform="translate(-10.125 -129.656)" fill="#d9c178"/>
        <path id="Trazado_1031413" data-name="Trazado 1031413" d="M312.545,324.694q-.073-.753.3-.877l2.293,2.07a1.1,1.1,0,0,0,1.665-.282l2.1-3.164a3.389,3.389,0,1,1-6.356,2.252" transform="translate(-253.432 -261.467)" fill="#e0e2e2"/>
        <path id="Trazado_1031414" data-name="Trazado 1031414" d="M314.553,312.786l1.81.019c.094.049.431.018.508.223l-1.566,2.355-1.311-1.256-1.089,1.045a1.47,1.47,0,0,0-.422.815l-.3.877a3.366,3.366,0,0,1,2.369-4.078" transform="translate(-253.07 -253.637)" fill="#e0e2e2"/>
        <path id="Trazado_1031415" data-name="Trazado 1031415" d="M326.934,312.19a1.817,1.817,0,0,1-1.81-.019,2.768,2.768,0,0,1,1.81.019" transform="translate(-263.642 -253.022)" fill="#ecefee"/>
        <path id="Trazado_1031416" data-name="Trazado 1031416" d="M36.007,284.27l.008-2.263L49.6,282l0,2.284Z" transform="translate(-29.198 -228.672)" fill="#040504"/>
        <path id="Trazado_1031417" data-name="Trazado 1031417" d="M60.006,260.261,60.012,258l9.053-.01,0,2.288Z" transform="translate(-48.658 -209.203)" fill="#040505"/>
        <path id="Trazado_1031418" data-name="Trazado 1031418" d="M32.291,332.325l-2.265,0v-2.254h2.252Z" transform="translate(-24.348 -267.654)" fill="#040505"/>
        <path id="Trazado_1031419" data-name="Trazado 1031419" d="M146.291,332.325l-2.265,0v-2.254h2.252Z" transform="translate(-116.79 -267.654)" fill="#040505"/>
        <path id="Trazado_1031420" data-name="Trazado 1031420" d="M41.689,129.935l-2.264.006-.019-2.25-3.383-.011,0-2.251,6.785-.016v-2.264l-5.652-.008A1.111,1.111,0,0,1,36.019,122v-4.526a1.106,1.106,0,0,1,1.131-1.133l2.257-.021.011-2.235,2.259-.012.019,2.251,3.383.012,0,2.272-6.783.006.005,2.254,5.654.012a1.109,1.109,0,0,1,1.131,1.133v4.525a1.107,1.107,0,0,1-1.13,1.137l-2.262.021Z" transform="translate(-29.208 -92.505)" fill="#040504"/>
      </g>
    </g>
  </g>
</svg>
