<svg xmlns="http://www.w3.org/2000/svg" width="84" height="84" viewBox="0 0 84 84">
  <g id="Grupo_1180435" data-name="Grupo 1180435" transform="translate(-320 -5775)">
    <rect id="Rectángulo_456614" data-name="Rectángulo 456614" width="84" height="84" transform="translate(320 5775)" fill="#f2a4ab"/>
    <g id="Grupo_1180434" data-name="Grupo 1180434" transform="translate(127.091 5704.616)">
      <path id="Trazado_1021827" data-name="Trazado 1021827" d="M410.221,123.686l-.24-1.687-.007-.051v-.021l-.024-.164c-.159-1.118-.871-1.961-1.657-1.961h-1.242a1.111,1.111,0,0,1-1.111-1.111,2.693,2.693,0,0,0-2.69-2.691h-.529a2.689,2.689,0,0,0-2.69,2.691,1.111,1.111,0,0,1-1.111,1.111h-1.239c-.786,0-1.5.844-1.657,1.962l-.027.189-.006.044-.24,1.689a.373.373,0,0,0,0,.139h14.459A.373.373,0,0,0,410.221,123.686Zm-6.792-4.214h-.885a1.111,1.111,0,1,1,0-2.222h.885a1.111,1.111,0,1,1,0,2.222Z" transform="translate(-168.077 -29.778)" fill="#616161"/>
      <path id="Trazado_1021828" data-name="Trazado 1021828" d="M280.122,215.72h-6.061l.064.449a2.51,2.51,0,0,1-.555,1.98,1.937,1.937,0,0,1-1.475.694H257.283a1.937,1.937,0,0,1-1.475-.694,2.516,2.516,0,0,1-.555-1.981l.064-.449h-6.064a2.126,2.126,0,0,0-2.123,2.123V260a2.126,2.126,0,0,0,2.123,2.124h30.869A2.126,2.126,0,0,0,282.245,260V217.843a2.126,2.126,0,0,0-2.123-2.123Zm-22.913,38.144-3.611,3.611a1.111,1.111,0,0,1-1.571,0l-1.931-1.922a1.111,1.111,0,0,1,1.571-1.571l1.139,1.139,2.828-2.827a1.111,1.111,0,1,1,1.571,1.571Zm0-9.6-3.611,3.611a1.111,1.111,0,0,1-1.571,0L250.1,245.95a1.111,1.111,0,1,1,1.571-1.571l1.139,1.139,2.828-2.828a1.111,1.111,0,1,1,1.571,1.571Zm0-9.6L253.6,238.27a1.111,1.111,0,0,1-1.571,0l-1.925-1.925a1.111,1.111,0,0,1,1.571-1.571l1.139,1.14,2.828-2.828a1.111,1.111,0,1,1,1.571,1.571Zm0-9.6-3.611,3.611a1.111,1.111,0,0,1-1.571,0l-1.925-1.925a1.111,1.111,0,0,1,1.571-1.571l1.139,1.139,2.828-2.828a1.111,1.111,0,0,1,1.571,1.571ZM278.493,256H259.464a1.111,1.111,0,0,1,0-2.222h19.029a1.111,1.111,0,1,1,0,2.222Zm0-9.6H259.464a1.111,1.111,0,0,1,0-2.222h19.029a1.111,1.111,0,0,1,0,2.222Zm0-9.6H259.464a1.111,1.111,0,0,1,0-2.222h19.029a1.111,1.111,0,0,1,0,2.222Zm0-9.6H259.464a1.111,1.111,0,0,1,0-2.222h19.029a1.111,1.111,0,0,1,0,2.222Z" transform="translate(-29.778 -122.574)" fill="#e3f2fd"/>
      <path id="Trazado_1021829" data-name="Trazado 1021829" d="M280.122,215.72h-6.061l.064.449a2.51,2.51,0,0,1-.555,1.98,1.937,1.937,0,0,1-1.475.694H257.283a1.937,1.937,0,0,1-1.475-.694,2.516,2.516,0,0,1-.555-1.981l.064-.449h-6.064a2.126,2.126,0,0,0-2.123,2.123V260a2.126,2.126,0,0,0,2.123,2.124h30.869A2.126,2.126,0,0,0,282.245,260V217.843a2.126,2.126,0,0,0-2.123-2.123Zm-22.913,38.144-3.611,3.611a1.111,1.111,0,0,1-1.571,0l-1.931-1.922a1.111,1.111,0,0,1,1.571-1.571l1.139,1.139,2.828-2.827a1.111,1.111,0,1,1,1.571,1.571Zm0-9.6-3.611,3.611a1.111,1.111,0,0,1-1.571,0L250.1,245.95a1.111,1.111,0,1,1,1.571-1.571l1.139,1.139,2.828-2.828a1.111,1.111,0,1,1,1.571,1.571Zm0-9.6L253.6,238.27a1.111,1.111,0,0,1-1.571,0l-1.925-1.925a1.111,1.111,0,0,1,1.571-1.571l1.139,1.14,2.828-2.828a1.111,1.111,0,1,1,1.571,1.571Zm0-9.6-3.611,3.611a1.111,1.111,0,0,1-1.571,0l-1.925-1.925a1.111,1.111,0,0,1,1.571-1.571l1.139,1.139,2.828-2.828a1.111,1.111,0,0,1,1.571,1.571ZM278.493,256H259.464a1.111,1.111,0,0,1,0-2.222h19.029a1.111,1.111,0,1,1,0,2.222Zm0-9.6H259.464a1.111,1.111,0,0,1,0-2.222h19.029a1.111,1.111,0,0,1,0,2.222Zm0-9.6H259.464a1.111,1.111,0,0,1,0-2.222h19.029a1.111,1.111,0,0,1,0,2.222Zm0-9.6H259.464a1.111,1.111,0,0,1,0-2.222h19.029a1.111,1.111,0,0,1,0,2.222Z" transform="translate(-29.778 -122.574)" fill="#90caf9"/>
      <g id="Grupo_1180432" data-name="Grupo 1180432" transform="translate(216.658 86.916)" opacity="0.5">
        <path id="Trazado_1021830" data-name="Trazado 1021830" d="M400.221,133.686l-.24-1.687-.007-.051v-.021l-.024-.164c-.159-1.118-.871-1.961-1.657-1.961h-1.242a1.111,1.111,0,0,1-1.111-1.111,2.693,2.693,0,0,0-2.69-2.691h-.529a2.689,2.689,0,0,0-2.69,2.691,1.111,1.111,0,0,1-1.111,1.111h-1.239c-.786,0-1.5.844-1.657,1.962l-.027.189-.006.044-.24,1.689a.373.373,0,0,0,0,.139h14.459A.374.374,0,0,0,400.221,133.686Zm-6.792-4.214h-.885a1.111,1.111,0,0,1,0-2.222h.885a1.111,1.111,0,0,1,0,2.222Z" transform="translate(-375.429 -126)" fill="#fff"/>
        <path id="Trazado_1021831" data-name="Trazado 1021831" d="M270.122,225.72h-6.061l.064.449a2.51,2.51,0,0,1-.555,1.98,1.937,1.937,0,0,1-1.475.694H247.283a1.937,1.937,0,0,1-1.475-.694,2.516,2.516,0,0,1-.555-1.981l.064-.449h-6.064a2.126,2.126,0,0,0-2.123,2.123V270a2.126,2.126,0,0,0,2.123,2.124h30.869A2.126,2.126,0,0,0,272.245,270V227.843A2.126,2.126,0,0,0,270.122,225.72Zm-22.913,38.144-3.611,3.611a1.111,1.111,0,0,1-1.571,0l-1.931-1.922a1.111,1.111,0,0,1,1.571-1.571l1.139,1.139,2.828-2.827a1.111,1.111,0,1,1,1.571,1.571Zm0-9.6-3.611,3.611a1.111,1.111,0,0,1-1.571,0L240.1,255.95a1.111,1.111,0,1,1,1.571-1.571l1.139,1.139,2.828-2.828a1.111,1.111,0,0,1,1.571,1.571Zm0-9.6L243.6,248.27a1.111,1.111,0,0,1-1.571,0l-1.925-1.925a1.111,1.111,0,0,1,1.571-1.571l1.139,1.14,2.828-2.828a1.111,1.111,0,1,1,1.571,1.571Zm0-9.6-3.611,3.611a1.111,1.111,0,0,1-1.571,0l-1.925-1.925a1.111,1.111,0,0,1,1.571-1.571l1.139,1.139,2.828-2.828a1.111,1.111,0,1,1,1.571,1.571ZM268.493,266H249.464a1.111,1.111,0,0,1,0-2.222h19.029a1.111,1.111,0,1,1,0,2.222Zm0-9.6H249.464a1.111,1.111,0,0,1,0-2.222h19.029a1.111,1.111,0,0,1,0,2.222Zm0-9.6H249.464a1.111,1.111,0,1,1,0-2.222h19.029a1.111,1.111,0,1,1,0,2.222Zm0-9.6H249.464a1.111,1.111,0,0,1,0-2.222h19.029a1.111,1.111,0,1,1,0,2.222Z" transform="translate(-237.13 -218.796)" fill="#fff"/>
        <path id="Trazado_1021832" data-name="Trazado 1021832" d="M270.122,225.72h-6.061l.064.449a2.51,2.51,0,0,1-.555,1.98,1.937,1.937,0,0,1-1.475.694H247.283a1.937,1.937,0,0,1-1.475-.694,2.516,2.516,0,0,1-.555-1.981l.064-.449h-6.064a2.126,2.126,0,0,0-2.123,2.123V270a2.126,2.126,0,0,0,2.123,2.124h30.869A2.126,2.126,0,0,0,272.245,270V227.843A2.126,2.126,0,0,0,270.122,225.72Zm-22.913,38.144-3.611,3.611a1.111,1.111,0,0,1-1.571,0l-1.931-1.922a1.111,1.111,0,0,1,1.571-1.571l1.139,1.139,2.828-2.827a1.111,1.111,0,1,1,1.571,1.571Zm0-9.6-3.611,3.611a1.111,1.111,0,0,1-1.571,0L240.1,255.95a1.111,1.111,0,1,1,1.571-1.571l1.139,1.139,2.828-2.828a1.111,1.111,0,0,1,1.571,1.571Zm0-9.6L243.6,248.27a1.111,1.111,0,0,1-1.571,0l-1.925-1.925a1.111,1.111,0,0,1,1.571-1.571l1.139,1.14,2.828-2.828a1.111,1.111,0,1,1,1.571,1.571Zm0-9.6-3.611,3.611a1.111,1.111,0,0,1-1.571,0l-1.925-1.925a1.111,1.111,0,0,1,1.571-1.571l1.139,1.139,2.828-2.828a1.111,1.111,0,1,1,1.571,1.571ZM268.493,266H249.464a1.111,1.111,0,0,1,0-2.222h19.029a1.111,1.111,0,1,1,0,2.222Zm0-9.6H249.464a1.111,1.111,0,0,1,0-2.222h19.029a1.111,1.111,0,0,1,0,2.222Zm0-9.6H249.464a1.111,1.111,0,1,1,0-2.222h19.029a1.111,1.111,0,1,1,0,2.222Zm0-9.6H249.464a1.111,1.111,0,0,1,0-2.222h19.029a1.111,1.111,0,1,1,0,2.222Z" transform="translate(-237.13 -218.796)" fill="#fff"/>
      </g>
      <g id="Grupo_1180433" data-name="Grupo 1180433" transform="translate(215.13 84)">
        <path id="Trazado_1021833" data-name="Trazado 1021833" d="M254.689,188.065v42.154a4.351,4.351,0,0,1-4.345,4.346H219.475a4.351,4.351,0,0,1-4.345-4.346V188.065a4.35,4.35,0,0,1,4.345-4.345h7.344a1.111,1.111,0,0,1,1.111,1.111,1.033,1.033,0,0,1-.009.139l-.006.044a1.111,1.111,0,0,1-1.1.927h-7.344a2.126,2.126,0,0,0-2.123,2.123v42.154a2.126,2.126,0,0,0,2.123,2.124h30.869a2.126,2.126,0,0,0,2.123-2.124V188.065a2.126,2.126,0,0,0-2.123-2.123H243a1.111,1.111,0,0,1-1.1-.925l-.007-.051v-.021c0-.037-.006-.076-.006-.114A1.111,1.111,0,0,1,243,183.72h7.341a4.35,4.35,0,0,1,4.345,4.345Z" transform="translate(-215.13 -176.796)" fill="#413b32"/>
        <path id="Trazado_1021834" data-name="Trazado 1021834" d="M382.661,93.6l-.064-.449-.208-1.473a5.482,5.482,0,0,0-.16-.749,4.014,4.014,0,0,0-3.7-3.125h-.255a4.921,4.921,0,0,0-4.786-3.8h-.529a4.918,4.918,0,0,0-4.787,3.8h-.253a4.011,4.011,0,0,0-3.7,3.125,5.482,5.482,0,0,0-.16.749l-.208,1.473-.064.449a2.511,2.511,0,0,0,.555,1.981,1.937,1.937,0,0,0,1.475.694h14.807a1.937,1.937,0,0,0,1.475-.694A2.519,2.519,0,0,0,382.661,93.6Zm-2.2.452H366a.373.373,0,0,1,0-.139l.24-1.689.006-.044.027-.189c.159-1.119.871-1.962,1.657-1.962h1.239a1.111,1.111,0,0,0,1.111-1.111,2.689,2.689,0,0,1,2.69-2.691h.529a2.693,2.693,0,0,1,2.69,2.691,1.111,1.111,0,0,0,1.111,1.111h1.239c.786,0,1.5.844,1.657,1.961l.024.164v.021l.007.051.24,1.687A.373.373,0,0,1,380.456,94.047Z" transform="translate(-353.448 -84)" fill="#413b32"/>
        <path id="Trazado_1021835" data-name="Trazado 1021835" d="M480.736,135.111a1.111,1.111,0,0,1-1.111,1.111h-.885a1.111,1.111,0,1,1,0-2.222h.885A1.111,1.111,0,0,1,480.736,135.111Z" transform="translate(-459.404 -130.528)" fill="#413b32"/>
        <path id="Trazado_1021836" data-name="Trazado 1021836" d="M430.021,350.021a1.111,1.111,0,0,1-1.111,1.111H409.881a1.111,1.111,0,0,1,0-2.222H428.91A1.111,1.111,0,0,1,430.021,350.021Z" transform="translate(-395.325 -330.516)" fill="#413b32"/>
        <path id="Trazado_1021837" data-name="Trazado 1021837" d="M430.021,488.311a1.111,1.111,0,0,1-1.111,1.111H409.881a1.111,1.111,0,0,1,0-2.222H428.91A1.111,1.111,0,0,1,430.021,488.311Z" transform="translate(-395.325 -459.204)" fill="#413b32"/>
        <path id="Trazado_1021838" data-name="Trazado 1021838" d="M430.021,626.611a1.111,1.111,0,0,1-1.111,1.111H409.881a1.111,1.111,0,1,1,0-2.222H428.91A1.111,1.111,0,0,1,430.021,626.611Z" transform="translate(-395.325 -587.902)" fill="#413b32"/>
        <path id="Trazado_1021839" data-name="Trazado 1021839" d="M430.021,764.9a1.111,1.111,0,0,1-1.111,1.111H409.881a1.111,1.111,0,1,1,0-2.222H428.91A1.111,1.111,0,0,1,430.021,764.9Z" transform="translate(-395.325 -716.59)" fill="#413b32"/>
        <path id="Trazado_1021840" data-name="Trazado 1021840" d="M292.636,324.743l-3.611,3.611a1.111,1.111,0,0,1-1.571,0l-1.925-1.925a1.111,1.111,0,0,1,1.571-1.571L288.239,326l2.828-2.828a1.111,1.111,0,0,1,1.571,1.571Z" transform="translate(-280.338 -306.259)" fill="#413b32"/>
        <path id="Trazado_1021841" data-name="Trazado 1021841" d="M292.636,463.03l-3.611,3.611a1.111,1.111,0,0,1-1.571,0l-1.925-1.925a1.111,1.111,0,1,1,1.571-1.571l1.139,1.14,2.828-2.828a1.111,1.111,0,1,1,1.571,1.571Z" transform="translate(-280.338 -434.945)" fill="#413b32"/>
        <path id="Trazado_1021842" data-name="Trazado 1021842" d="M292.6,601.37l-3.611,3.61a1.111,1.111,0,0,1-1.571,0l-1.928-1.923a1.111,1.111,0,1,1,1.571-1.571l1.139,1.139,2.828-2.828a1.111,1.111,0,0,1,1.571,1.571Z" transform="translate(-280.302 -563.682)" fill="#413b32"/>
        <path id="Trazado_1021843" data-name="Trazado 1021843" d="M292.6,739.666l-3.611,3.611a1.111,1.111,0,0,1-1.571,0l-1.928-1.922a1.111,1.111,0,0,1,1.571-1.571l1.139,1.139,2.828-2.827a1.111,1.111,0,1,1,1.571,1.571Z" transform="translate(-280.301 -692.377)" fill="#413b32"/>
      </g>
    </g>
  </g>
</svg>
