<svg xmlns="http://www.w3.org/2000/svg" xmlns:xlink="http://www.w3.org/1999/xlink" width="83" height="83" viewBox="0 0 83 83">
  <defs>
    <clipPath id="clip-path">
      <rect id="Rectángulo_456277" data-name="Rectángulo 456277" width="83" height="83" fill="#d35560"/>
    </clipPath>
  </defs>
  <g id="Grupo_1180276" data-name="Grupo 1180276" transform="translate(0)">
    <g id="Grupo_1180081" data-name="Grupo 1180081" transform="translate(0 0)">
      <g id="Grupo_1179924" data-name="Grupo 1179924">
        <g id="Grupo_1179923" data-name="Grupo 1179923" clip-path="url(#clip-path)">
          <path id="Trazado_1004716" data-name="Trazado 1004716" d="M41.621,83.242c-1.352,0-2.616-1.544-3.935-1.673-1.343-.131-2.883,1.137-4.185.878-1.321-.262-2.259-2.024-3.532-2.411s-3.046.55-4.275.039-1.814-2.427-2.989-3.057-3.092-.056-4.2-.8-1.3-2.733-2.336-3.581-3.02-.653-3.966-1.6-.749-2.932-1.6-3.966S7.77,65.849,7.024,64.736s-.165-3.019-.8-4.2-2.542-1.749-3.058-2.989.43-2.989.039-4.275S1.057,51.061.8,49.74c-.258-1.3,1.009-2.842.878-4.185C1.544,44.237,0,42.973,0,41.621S1.544,39,1.673,37.686C1.8,36.343.537,34.8.8,33.5c.262-1.321,2.024-2.259,2.411-3.531s-.55-3.046-.039-4.276,2.427-1.814,3.058-2.989.056-3.091.8-4.2,2.733-1.3,3.581-2.336.653-3.02,1.6-3.966,2.931-.749,3.966-1.6,1.223-2.836,2.336-3.581,3.019-.165,4.2-.8,1.749-2.542,2.989-3.058,2.989.429,4.276.039S32.18,1.057,33.5.8c1.3-.258,2.842,1.01,4.185.878C39,1.544,40.269,0,41.621,0s2.616,1.544,3.935,1.673C46.9,1.8,48.438.537,49.74.8c1.321.262,2.259,2.024,3.532,2.411s3.046-.55,4.275-.039,1.814,2.427,2.989,3.058,3.092.056,4.2.8,1.3,2.733,2.336,3.581,3.02.653,3.966,1.6.749,2.932,1.6,3.966,2.836,1.223,3.581,2.336.165,3.019.8,4.2,2.542,1.749,3.057,2.989-.429,2.989-.039,4.275,2.149,2.21,2.411,3.531c.258,1.3-1.009,2.842-.878,4.185.129,1.318,1.674,2.583,1.674,3.935s-1.544,2.616-1.674,3.935c-.131,1.343,1.137,2.883.878,4.185-.262,1.321-2.024,2.259-2.411,3.532s.55,3.046.039,4.275-2.427,1.814-3.058,2.989-.056,3.091-.8,4.2-2.733,1.3-3.581,2.336-.653,3.02-1.6,3.965-2.932.749-3.965,1.6-1.223,2.835-2.336,3.581-3.019.165-4.2.8-1.749,2.543-2.989,3.058-2.989-.429-4.275-.039-2.21,2.148-3.531,2.411c-1.3.258-2.842-1.01-4.185-.878-1.319.129-2.583,1.673-3.935,1.673" transform="translate(0.007 0.006)" fill="#d35560"/>
          <path id="Trazado_1004717" data-name="Trazado 1004717" d="M14,51.684A37.684,37.684,0,1,1,51.684,89.367,37.684,37.684,0,0,1,14,51.684" transform="translate(-10.056 -10.057)" fill="#4d787e"/>
          <path id="Trazado_1004718" data-name="Trazado 1004718" d="M131.066,267.538c-.1-.423-.194-.861-.284-1.29l-1.317-.168q.59-.313,1.156-.631-.125-.645-.236-1.289c.3.3.61.6.928.892q.555-.345,1.086-.691-.235.608-.486,1.215c.329.282.665.569,1.009.849l-1.323-.1q-.259.607-.533,1.211" transform="translate(-93.051 -189.867)" fill="#ffffc5"/>
          <path id="Trazado_1004719" data-name="Trazado 1004719" d="M112.708,264.037c-.036-.432-.063-.88-.087-1.317l-1.277-.364q.63-.221,1.238-.45-.027-.657-.04-1.31c.254.337.513.686.783,1.021q.6-.257,1.176-.52-.324.566-.661,1.128c.283.327.571.665.871.989-.433-.09-.863-.2-1.294-.294q-.347.561-.708,1.117" transform="translate(-80.025 -187.305)" fill="#ffffc5"/>
          <path id="Trazado_1004720" data-name="Trazado 1004720" d="M95.144,257.928c.033-.44.071-.881.113-1.318l-1.209-.549c.437-.082.868-.17,1.292-.261q.072-.652.156-1.3c.2.372.406.749.621,1.128q.632-.165,1.242-.339-.4.511-.824,1.017c.23.366.467.74.713,1.109l-1.235-.486q-.427.5-.868,1" transform="translate(-67.593 -182.924)" fill="#ffffc5"/>
          <path id="Trazado_1004721" data-name="Trazado 1004721" d="M78.777,249.35q.148-.647.308-1.286c-.37-.242-.75-.47-1.112-.724.437,0,.884-.038,1.315-.063q.168-.634.348-1.26.214.6.448,1.2c.427-.037.859-.1,1.278-.148q-.477.445-.968.884.26.595.54,1.2l-1.15-.662c-.332.288-.67.578-1.005.854" transform="translate(-56.038 -176.825)" fill="#ffffc5"/>
          <path id="Trazado_1004722" data-name="Trazado 1004722" d="M63.959,238.515q.241-.617.494-1.224c-.331-.294-.678-.57-.991-.883.429.064.874.1,1.307.135q.259-.6.529-1.193.126.619.269,1.254c.421.035.861.036,1.283.046q-.539.37-1.089.732.17.625.359,1.264l-1.043-.821c-.373.239-.74.463-1.116.691" transform="translate(-45.608 -169.158)" fill="#ffffc5"/>
          <path id="Trazado_1004723" data-name="Trazado 1004723" d="M51.005,225.675q.329-.574.667-1.136l-.434-.5c-.144-.168-.276-.346-.414-.519l.629.177.641.152q.344-.556.7-1.1.035.629.085,1.276l.625.131.635.106q-.588.288-1.187.564.078.641.172,1.3c-.3-.321-.614-.637-.913-.964q-.6.264-1.2.517" transform="translate(-36.525 -160.099)" fill="#ffffc5"/>
          <path id="Trazado_1004724" data-name="Trazado 1004724" d="M39.841,211.108q.409-.518.827-1.024c-.118-.187-.242-.37-.355-.561l-.331-.575c.4.18.791.361,1.205.515.283-.333.562-.658.855-.986-.044.421-.073.842-.1,1.273.4.15.8.3,1.208.423-.416.132-.838.26-1.258.383-.012.431-.016.865-.018,1.308-.252-.364-.524-.713-.758-1.089q-.631.173-1.269.334" transform="translate(-28.63 -149.842)" fill="#ffffc5"/>
          <path id="Trazado_1004725" data-name="Trazado 1004725" d="M30.615,195.13q.481-.451.968-.889c-.191-.4-.343-.816-.507-1.226.374.237.731.473,1.112.69.325-.285.659-.569,1-.849-.118.414-.2.821-.295,1.244.381.206.74.414,1.129.6-.434.069-.867.133-1.3.189-.089.43-.146.853-.215,1.291-.2-.395-.412-.783-.586-1.19q-.65.077-1.307.141" transform="translate(-21.999 -138.615)" fill="#ffffc5"/>
          <path id="Trazado_1004726" data-name="Trazado 1004726" d="M24.019,177.688q.543-.373,1.089-.733c-.131-.423-.21-.859-.316-1.289.334.291.656.576.994.85.363-.233.744-.465,1.116-.69-.182.393-.323.783-.48,1.185.344.262.677.519,1.024.762-.442,0-.869,0-1.306-.009-.158.414-.275.823-.408,1.245-.145-.418-.287-.837-.4-1.265q-.655-.021-1.314-.056" transform="translate(-17.258 -126.259)" fill="#ffffc5"/>
          <path id="Trazado_1004727" data-name="Trazado 1004727" d="M20.215,159.173q.593-.288,1.187-.561c-.066-.438-.08-.881-.119-1.322.286.338.561.668.855.99.394-.176.8-.348,1.207-.515-.239.361-.436.726-.652,1.1.3.31.593.614.9.908-.436-.062-.858-.132-1.289-.205-.219.385-.4.772-.591,1.17l-.117-.653c-.037-.218-.058-.439-.088-.658q-.645-.119-1.291-.253" transform="translate(-14.523 -113.05)" fill="#ffffc5"/>
          <path id="Trazado_1004728" data-name="Trazado 1004728" d="M19.269,140.414q.629-.2,1.258-.379c0-.443.041-.884.075-1.325.235.376.447.744.7,1.105.419-.116.836-.226,1.264-.332-.28.322-.535.654-.8.992.253.352.487.7.755,1.031q-.633-.19-1.248-.394c-.27.348-.5.7-.755,1.069-.01-.442-.031-.884-.01-1.327q-.619-.213-1.238-.441" transform="translate(-13.844 -99.695)" fill="#ffffc5"/>
          <path id="Trazado_1004729" data-name="Trazado 1004729" d="M21.174,121.821q.652-.1,1.3-.187c.041-.217.073-.437.122-.652l.149-.647c.174.407.332.8.531,1.2.434-.051.858-.1,1.3-.139-.32.278-.626.566-.942.861.2.385.375.759.6,1.132-.394-.187-.8-.38-1.18-.575-.309.306-.6.622-.9.945.062-.438.1-.88.186-1.314q-.58-.3-1.157-.62" transform="translate(-15.213 -86.487)" fill="#ffffc5"/>
          <path id="Trazado_1004730" data-name="Trazado 1004730" d="M25.928,103.813q.66,0,1.315.01c.134-.422.3-.832.464-1.243.113.429.207.843.344,1.264.435.014.866.032,1.306.058-.363.225-.7.465-1.062.709.138.411.256.807.419,1.208-.362-.244-.728-.495-1.079-.746-.353.256-.688.525-1.036.8.126-.424.23-.855.382-1.271q-.528-.386-1.051-.787" transform="translate(-18.63 -73.726)" fill="#ffffc5"/>
          <path id="Trazado_1004731" data-name="Trazado 1004731" d="M33.429,86.8q.652.1,1.3.206c.193-.4.429-.773.646-1.159.046.44.087.869.149,1.3.425.077.859.165,1.287.255-.4.163-.768.354-1.159.541.075.427.139.839.231,1.257-.325-.3-.64-.6-.951-.9-.4.2-.76.415-1.146.633.183-.4.359-.809.569-1.2q-.465-.461-.923-.936" transform="translate(-24.021 -61.7)" fill="#ffffc5"/>
          <path id="Trazado_1004732" data-name="Trazado 1004732" d="M43.489,71.162q.629.192,1.251.4c.257-.36.542-.7.812-1.05q-.03.663-.046,1.307.623.217,1.238.446c-.418.1-.822.229-1.229.361q.013.648.039,1.276-.406-.508-.8-1.026c-.42.135-.821.292-1.23.454l.359-.559.384-.541q-.391-.526-.775-1.064" transform="translate(-31.252 -50.674)" fill="#ffffc5"/>
          <path id="Trazado_1004733" data-name="Trazado 1004733" d="M55.127,57.229q.594.282,1.177.575l.96-.917q-.126.653-.235,1.29.584.306,1.157.622c-.424.047-.854.1-1.271.173q-.081.644-.147,1.271-.326-.562-.643-1.135l-.648.12c-.214.044-.424.095-.638.144.283-.34.594-.656.9-.976q-.31-.579-.611-1.169" transform="translate(-39.41 -40.884)" fill="#ffffc5"/>
          <path id="Trazado_1004734" data-name="Trazado 1004734" d="M68.74,45.3c.362.244.722.49,1.082.747l1.082-.77q-.22.63-.42,1.246.531.388,1.051.785c-.421-.01-.861-.033-1.285-.019q-.174.627-.329,1.24-.24-.6-.469-1.219c-.432.018-.882.025-1.313.069.33-.3.691-.553,1.034-.831q-.222-.62-.432-1.248" transform="translate(-48.97 -32.539)" fill="#ffffc5"/>
          <path id="Trazado_1004735" data-name="Trazado 1004735" d="M84.114,34.886c.322.295.646.6.962.906l1.181-.606q-.31.592-.6,1.174.467.462.922.93c-.416-.074-.841-.15-1.269-.213q-.264.6-.507,1.182-.148-.635-.284-1.277c-.43-.047-.872-.1-1.311-.13.378-.23.765-.444,1.148-.667q-.128-.646-.243-1.3" transform="translate(-59.803 -25.069)" fill="#ffffc5"/>
          <path id="Trazado_1004736" data-name="Trazado 1004736" d="M100.926,26.946q.415.518.816,1.041c.42-.14.837-.288,1.258-.422-.265.353-.519.717-.768,1.071q.392.526.771,1.057-.6-.2-1.222-.4c-.235.363-.459.733-.677,1.094q-.052-.65-.091-1.307-.627-.167-1.277-.325l1.235-.488c-.02-.438-.037-.883-.045-1.321" transform="translate(-71.682 -19.362)" fill="#ffffc5"/>
          <path id="Trazado_1004737" data-name="Trazado 1004737" d="M118.8,21.733q.332.574.65,1.152c.436-.076.87-.161,1.308-.229-.316.307-.621.63-.92.943q.309.579.6,1.16-.562-.291-1.148-.578c-.288.319-.564.656-.834.979q.046-.651.106-1.306-.595-.258-1.213-.511l1.293-.3c.046-.436.1-.881.154-1.31" transform="translate(-84.346 -15.615)" fill="#ffffc5"/>
          <path id="Trazado_1004738" data-name="Trazado 1004738" d="M137.334,19.35q.243.618.471,1.237l1.327-.033q-.537.4-1.05.8.22.619.425,1.238-.513-.372-1.05-.746c-.332.278-.656.565-.971.845q.143-.637.3-1.275-.55-.345-1.123-.688l1.323-.1c.111-.424.227-.855.348-1.275" transform="translate(-97.505 -13.902)" fill="#ffffc5"/>
          <path id="Trazado_1004739" data-name="Trazado 1004739" d="M156.1,19.831c.1.424.194.861.284,1.29l1.317.168q-.59.313-1.156.631.125.645.236,1.289c-.3-.3-.61-.6-.927-.892q-.555.345-1.086.691.235-.608.485-1.215c-.328-.282-.665-.569-1.009-.849l1.324.1q.259-.607.533-1.211" transform="translate(-110.859 -14.248)" fill="#ffffc5"/>
          <path id="Trazado_1004740" data-name="Trazado 1004740" d="M174.686,23.17c.036.433.063.88.087,1.317l1.277.364q-.63.221-1.238.45.027.657.04,1.31c-.254-.337-.512-.686-.783-1.021q-.6.257-1.176.52.324-.566.661-1.128c-.283-.327-.571-.665-.871-.988.433.09.863.2,1.294.294q.347-.561.708-1.117" transform="translate(-124.115 -16.648)" fill="#ffffc5"/>
          <path id="Trazado_1004741" data-name="Trazado 1004741" d="M192.393,29.313c-.033.44-.071.881-.113,1.318l1.209.549c-.437.082-.868.171-1.292.261q-.072.653-.156,1.3c-.2-.372-.406-.749-.621-1.128q-.632.165-1.242.339.4-.511.824-1.017c-.23-.366-.466-.74-.712-1.109l1.235.486q.427-.5.868-1" transform="translate(-136.689 -21.063)" fill="#ffffc5"/>
          <path id="Trazado_1004742" data-name="Trazado 1004742" d="M208.563,38.133q-.148.647-.308,1.286c.37.242.75.47,1.112.724-.437,0-.884.038-1.315.063q-.168.634-.348,1.26-.214-.6-.448-1.2c-.427.037-.859.1-1.278.148q.478-.445.968-.884-.26-.595-.54-1.2l1.15.662c.332-.288.67-.578,1.005-.854" transform="translate(-148.047 -27.403)" fill="#ffffc5"/>
          <path id="Trazado_1004743" data-name="Trazado 1004743" d="M223.38,49.066q-.241.617-.493,1.224c.331.294.678.57.991.882-.429-.064-.874-.1-1.307-.135q-.259.6-.529,1.194-.126-.619-.269-1.253c-.421-.036-.861-.036-1.284-.046q.539-.37,1.089-.732-.17-.625-.359-1.264l1.043.82c.373-.239.74-.463,1.116-.691" transform="translate(-158.477 -35.168)" fill="#ffffc5"/>
          <path id="Trazado_1004744" data-name="Trazado 1004744" d="M236.527,61.7q-.329.574-.667,1.136l.434.5c.144.168.275.346.414.519l-.63-.177-.641-.152q-.344.556-.7,1.1-.035-.629-.085-1.276l-.625-.131-.635-.106q.588-.288,1.187-.564-.078-.641-.172-1.3c.3.321.614.637.913.964q.6-.264,1.2-.517" transform="translate(-167.753 -44.019)" fill="#ffffc5"/>
          <path id="Trazado_1004745" data-name="Trazado 1004745" d="M247.713,76.239q-.409.518-.826,1.024c.118.187.242.37.355.561l.331.575c-.4-.18-.791-.361-1.205-.515-.283.333-.562.658-.855.986.044-.421.073-.842.1-1.273-.4-.15-.8-.3-1.208-.423.416-.132.838-.261,1.258-.383.012-.431.017-.865.018-1.307.252.364.524.713.758,1.089q.631-.173,1.269-.334" transform="translate(-175.669 -54.249)" fill="#ffffc5"/>
          <path id="Trazado_1004746" data-name="Trazado 1004746" d="M256.684,92.378q-.481.451-.968.889c.191.4.343.816.507,1.226-.374-.237-.731-.473-1.112-.69-.325.285-.659.569-1,.849.118-.414.2-.821.3-1.244-.381-.206-.74-.414-1.129-.6.434-.069.867-.133,1.3-.189.089-.43.146-.853.215-1.291.2.395.412.783.586,1.191q.65-.077,1.307-.141" transform="translate(-182.046 -65.638)" fill="#ffffc5"/>
          <path id="Trazado_1004747" data-name="Trazado 1004747" d="M263.22,109.767q-.543.374-1.089.733c.131.423.21.859.316,1.289-.334-.291-.656-.577-.994-.85-.363.233-.744.465-1.117.69.182-.393.323-.783.48-1.185-.344-.262-.677-.519-1.024-.762.441,0,.869,0,1.306.009.158-.414.275-.823.408-1.245.145.418.287.837.4,1.265q.655.021,1.314.056" transform="translate(-186.726 -77.942)" fill="#ffffc5"/>
          <path id="Trazado_1004748" data-name="Trazado 1004748" d="M267.158,128.019q-.593.288-1.187.561c.066.438.08.881.119,1.322-.286-.338-.561-.668-.855-.99-.394.176-.8.348-1.207.515.239-.361.436-.726.652-1.1-.3-.31-.593-.614-.9-.908.436.062.858.132,1.289.205.219-.385.4-.772.591-1.169l.117.653c.037.218.058.439.088.658q.645.119,1.291.253" transform="translate(-189.595 -90.887)" fill="#ffffc5"/>
          <path id="Trazado_1004749" data-name="Trazado 1004749" d="M268.294,146.713q-.629.2-1.258.379c0,.443-.041.884-.075,1.325-.235-.376-.447-.744-.7-1.105-.419.116-.836.226-1.264.332.28-.322.535-.654.8-.992-.253-.352-.487-.7-.755-1.031q.633.19,1.248.394c.27-.348.5-.7.755-1.069.01.442.031.884.01,1.327q.619.213,1.238.441" transform="translate(-190.465 -104.177)" fill="#ffffc5"/>
          <path id="Trazado_1004750" data-name="Trazado 1004750" d="M266.131,165.436q-.653.1-1.3.187c-.041.217-.073.437-.122.652l-.149.647c-.174-.407-.332-.8-.531-1.2-.434.051-.858.1-1.3.139.32-.278.626-.566.942-.861-.2-.385-.375-.759-.6-1.132.394.187.8.38,1.18.575.309-.306.6-.622.9-.945-.062.438-.1.88-.186,1.314q.58.3,1.158.62" transform="translate(-188.837 -117.515)" fill="#ffffc5"/>
          <path id="Trazado_1004751" data-name="Trazado 1004751" d="M261.308,183.774q-.66,0-1.315-.01c-.134.422-.3.832-.464,1.243-.113-.429-.207-.843-.344-1.264-.435-.014-.866-.031-1.306-.058.363-.225.7-.465,1.062-.709-.138-.41-.256-.807-.419-1.208.362.244.728.495,1.079.746.353-.256.688-.525,1.036-.8-.126.424-.23.855-.382,1.271q.528.386,1.051.787" transform="translate(-185.351 -130.607)" fill="#ffffc5"/>
          <path id="Trazado_1004752" data-name="Trazado 1004752" d="M253.934,200.63q-.652-.1-1.3-.206c-.193.4-.429.773-.646,1.159-.046-.44-.086-.869-.149-1.3-.425-.077-.859-.165-1.287-.255.4-.163.768-.354,1.159-.541-.075-.427-.138-.839-.231-1.257.325.3.639.6.951.9.4-.2.76-.415,1.146-.633-.183.4-.359.809-.569,1.2q.464.461.923.936" transform="translate(-180.087 -142.477)" fill="#ffffc5"/>
          <path id="Trazado_1004753" data-name="Trazado 1004753" d="M244.192,216.174q-.629-.192-1.251-.4c-.257.36-.542.7-.812,1.05q.03-.663.046-1.307-.623-.217-1.238-.446c.418-.1.822-.229,1.229-.361q-.013-.647-.039-1.276.406.508.8,1.026c.42-.135.821-.292,1.23-.454l-.359.559-.384.541q.391.526.775,1.064" transform="translate(-173.174 -153.408)" fill="#ffffc5"/>
          <path id="Trazado_1004754" data-name="Trazado 1004754" d="M232.318,230.192q-.594-.283-1.177-.575l-.96.917q.126-.653.235-1.29-.584-.306-1.157-.622c.423-.047.854-.1,1.271-.173q.081-.644.147-1.271.326.562.643,1.135l.648-.12c.214-.044.424-.095.638-.144-.283.34-.594.656-.9.976q.31.579.611,1.169" transform="translate(-164.781 -163.283)" fill="#ffffc5"/>
          <path id="Trazado_1004755" data-name="Trazado 1004755" d="M218.578,242.388c-.363-.244-.722-.49-1.082-.747l-1.081.77q.219-.63.42-1.246-.531-.388-1.051-.785c.421.01.861.033,1.285.019q.174-.628.329-1.24.24.6.47,1.219c.432-.018.882-.025,1.313-.069-.33.3-.691.553-1.034.831q.222.62.432,1.248" transform="translate(-155.094 -171.896)" fill="#ffffc5"/>
          <path id="Trazado_1004756" data-name="Trazado 1004756" d="M203.269,252.492c-.322-.294-.646-.6-.962-.905l-1.181.606q.31-.592.6-1.174-.467-.462-.922-.931c.416.074.841.15,1.269.213q.264-.6.507-1.182.148.635.285,1.277c.43.046.871.1,1.31.129-.378.23-.765.444-1.148.667q.128.646.243,1.3" transform="translate(-144.326 -179.054)" fill="#ffffc5"/>
          <path id="Trazado_1004757" data-name="Trazado 1004757" d="M186.721,260.262q-.415-.518-.816-1.041c-.42.14-.837.288-1.258.422.266-.353.519-.717.768-1.071q-.392-.526-.771-1.057.6.2,1.222.4c.235-.363.459-.733.677-1.094q.052.65.091,1.307.627.167,1.277.325l-1.235.488c.02.438.037.883.045,1.321" transform="translate(-132.711 -184.592)" fill="#ffffc5"/>
          <path id="Trazado_1004758" data-name="Trazado 1004758" d="M168.491,265.508q-.332-.574-.65-1.152c-.436.076-.87.161-1.308.229.316-.307.621-.631.92-.943q-.309-.579-.6-1.16.562.291,1.148.578c.288-.319.564-.656.834-.979q-.046.651-.106,1.306.595.258,1.213.511l-1.293.3c-.046.436-.1.88-.154,1.31" transform="translate(-119.694 -188.372)" fill="#ffffc5"/>
          <path id="Trazado_1004759" data-name="Trazado 1004759" d="M149.8,268.115q-.243-.618-.471-1.237l-1.327.033q.537-.4,1.05-.8-.22-.619-.425-1.238.513.372,1.05.745c.332-.278.656-.565.971-.845q-.143.637-.3,1.275.55.345,1.123.688l-1.323.1c-.111.424-.227.855-.348,1.275" transform="translate(-106.373 -190.309)" fill="#ffffc5"/>
          <path id="Trazado_1004760" data-name="Trazado 1004760" d="M66.94,98.654A31.715,31.715,0,1,1,98.654,66.94,31.75,31.75,0,0,1,66.94,98.654" transform="translate(-25.312 -25.313)" fill="#d35560"/>
        </g>
      </g>
      <g id="Grupo_1180053" data-name="Grupo 1180053" transform="translate(21.808 21.57)">
        <rect id="Rectángulo_401104" data-name="Rectángulo 401104" width="39.638" height="40.116" transform="translate(0)" fill="#d35560"/>
      </g>
    </g>
    <g id="Grupo_1180360" data-name="Grupo 1180360" transform="translate(20 20)">
      <g id="Grupo_1180358" data-name="Grupo 1180358" transform="translate(0.689 0.689)">
        <g id="Grupo_1180346" data-name="Grupo 1180346" transform="translate(3.681 5.681)">
          <ellipse id="Elipse_13684" data-name="Elipse 13684" cx="17" cy="16.5" rx="17" ry="16.5" fill="#69d6f4"/>
        </g>
        <g id="Grupo_1180347" data-name="Grupo 1180347" transform="translate(17.923)">
          <path id="Trazado_1021157" data-name="Trazado 1021157" d="M28.241,7.515a4.123,4.123,0,0,1,3.895-2.757H46.875a.691.691,0,0,0,.62-.379l.993-2A.691.691,0,0,1,49.108,2h1.006a1.318,1.318,0,0,1,1.324,1.324.593.593,0,0,1-.007.11l-.476,4.777a2.288,2.288,0,0,1-2.275,2.061V9.583a.691.691,0,0,0-.689-.689h-2.33a1.112,1.112,0,0,0-1.117,1.117,1.6,1.6,0,0,0,.028.255l-.028.007H40.381a1.6,1.6,0,0,0,.028-.262,1.112,1.112,0,0,0-1.117-1.117h-3.1a1.294,1.294,0,0,0-1.3,1.3v.083H29.379a1.348,1.348,0,0,1-.972-.407,1.443,1.443,0,0,1-.165-.193A1.372,1.372,0,0,1,28,8.894a4.166,4.166,0,0,1,.172-1.179c.014-.069.041-.131.062-.2Z" transform="translate(-28 -2)" fill="#e6e9ed"/>
        </g>
        <g id="Grupo_1180348" data-name="Grupo 1180348" transform="translate(34.468 6.894)">
          <path id="Trazado_1021158" data-name="Trazado 1021158" d="M56.136,13.379v3.447a.691.691,0,0,1-.689.689H54.5a.691.691,0,0,1-.62-.379l-1.758-3.523a1.444,1.444,0,0,1-.09-.241A1.6,1.6,0,0,1,52,13.117,1.112,1.112,0,0,1,53.117,12h2.33a.691.691,0,0,1,.689.689Z" transform="translate(-52 -12)" fill="#ff826e"/>
        </g>
        <g id="Grupo_1180349" data-name="Grupo 1180349" transform="translate(24.817 6.894)">
          <path id="Trazado_1021159" data-name="Trazado 1021159" d="M43.487,13.379a1.371,1.371,0,0,1-.09.234l-.014.021-1.937,3.881-.5,1a.655.655,0,0,1-.489.358.433.433,0,0,1-.131.021H39.3a.691.691,0,0,1-.682-.607l-.1-.772-.51-4.053A.335.335,0,0,1,38,13.379V13.3A1.294,1.294,0,0,1,39.3,12h3.1a1.112,1.112,0,0,1,1.117,1.117,1.6,1.6,0,0,1-.028.262Z" transform="translate(-38 -12)" fill="#ff826e"/>
        </g>
        <g id="Grupo_1180350" data-name="Grupo 1180350" transform="translate(0 33.089)">
          <path id="Trazado_1021160" data-name="Trazado 1021160" d="M24.059,52.068v.689a5.509,5.509,0,0,1-.372,2,5.3,5.3,0,0,1-.358.745h-.007a5.494,5.494,0,0,1-4.777,2.771H7.515A5.513,5.513,0,0,1,2,52.757V50.689A.691.691,0,0,1,2.689,50H7.922a.7.7,0,0,1,.483.2l.979.979a.7.7,0,0,0,.483.2h13.5A.691.691,0,0,1,24.059,52.068Z" transform="translate(-2 -50)" fill="#aab2bd"/>
        </g>
        <g id="Grupo_1180351" data-name="Grupo 1180351" transform="translate(2.757 27.574)">
          <path id="Trazado_1021161" data-name="Trazado 1021161" d="M6,47.515V42.689A.691.691,0,0,1,6.689,42h5.922a.7.7,0,0,1,.483.2l3.936,3.936v2.757H11.108a.7.7,0,0,1-.483-.2l-.979-.979a.7.7,0,0,0-.483-.2Z" transform="translate(-6 -42)" fill="#e6e9ed"/>
        </g>
        <g id="Grupo_1180352" data-name="Grupo 1180352" transform="translate(16.545 31.71)">
          <path id="Trazado_1021162" data-name="Trazado 1021162" d="M27.379,48h.689a.691.691,0,0,1,.689.689v2.068H26V48Z" transform="translate(-26 -48)" fill="#d3a06c"/>
        </g>
        <g id="Grupo_1180353" data-name="Grupo 1180353" transform="translate(13.787 31.71)">
          <path id="Trazado_1021163" data-name="Trazado 1021163" d="M24.757,48v2.757H22V48h2.757Z" transform="translate(-22 -48)" fill="#d3a06c"/>
        </g>
        <g id="Grupo_1180354" data-name="Grupo 1180354" transform="translate(15.166 28.953)">
          <path id="Trazado_1021164" data-name="Trazado 1021164" d="M26.757,44.689v2.068H24V44.689A.691.691,0,0,1,24.689,44h1.379A.691.691,0,0,1,26.757,44.689Z" transform="translate(-24 -44)" fill="#d3a06c"/>
        </g>
        <g id="Grupo_1180355" data-name="Grupo 1180355" transform="translate(4.136 24.817)">
          <path id="Trazado_1021165" data-name="Trazado 1021165" d="M10.757,38.689v2.068H8V38.689a.694.694,0,0,1,.255-.538A.679.679,0,0,1,8.689,38h1.379A.691.691,0,0,1,10.757,38.689Z" transform="translate(-8 -38)" fill="#ccd1d9"/>
        </g>
        <g id="Grupo_1180356" data-name="Grupo 1180356" transform="translate(25.506 24.817)">
          <path id="Trazado_1021166" data-name="Trazado 1021166" d="M39.186,46.472a1.7,1.7,0,0,1-.048-.2,6.9,6.9,0,0,1,2.944-7.121,6.9,6.9,0,0,1,10.706,5.742,6.893,6.893,0,0,1-13.6,1.579Z" transform="translate(-39 -38)" fill="#fcd770"/>
        </g>
        <g id="Grupo_1180357" data-name="Grupo 1180357" transform="translate(2.068 5.515)">
          <path id="Trazado_1021167" data-name="Trazado 1021167" d="M18.6,15.315a6.6,6.6,0,0,1,.186,1.579,6.929,6.929,0,1,1-.186-1.579Z" transform="translate(-5 -10)" fill="#fcd770"/>
        </g>
      </g>
      <g id="Grupo_1180359" data-name="Grupo 1180359">
        <path id="Trazado_1021168" data-name="Trazado 1021168" d="M17,55h1.379v1.379H17Z" transform="translate(-5.97 -17.775)"/>
        <path id="Trazado_1021169" data-name="Trazado 1021169" d="M21,55h1.379v1.379H21Z" transform="translate(-7.213 -17.775)"/>
        <path id="Trazado_1021170" data-name="Trazado 1021170" d="M25,55h1.379v1.379H25Z" transform="translate(-8.455 -17.775)"/>
        <path id="Trazado_1021171" data-name="Trazado 1021171" d="M9,45h1.379v1.379H9Z" transform="translate(-3.485 -14.668)"/>
        <path id="Trazado_1021172" data-name="Trazado 1021172" d="M13,45h1.379v1.379H13Z" transform="translate(-4.728 -14.668)"/>
        <path id="Trazado_1021173" data-name="Trazado 1021173" d="M41.727,1H40.719a1.372,1.372,0,0,0-1.233.762l-1,2H23.749A4.831,4.831,0,0,0,19.267,6.8,17.1,17.1,0,0,0,15.232,8.07,7.571,7.571,0,0,0,5.612,19.748a16.827,16.827,0,0,0-.253,6.7,1.365,1.365,0,0,0-.223.746v1.379a1.38,1.38,0,0,0-1.379,1.379v4.136H2.379A1.38,1.38,0,0,0,1,35.468v2.068a6.211,6.211,0,0,0,6.2,6.2h11.03a6.2,6.2,0,0,0,5.178-2.794,17.045,17.045,0,0,0,6.1-1.518,7.571,7.571,0,0,0,9.617-11.682,17.151,17.151,0,0,0-5.566-17.1h2.172l1.687,3.374a1.372,1.372,0,0,0,1.233.762H39.6a1.38,1.38,0,0,0,1.379-1.379V10.562a2.957,2.957,0,0,0,2.271-2.589l.48-4.793c0-.056.007-.111.007-.167A2.015,2.015,0,0,0,41.727,1ZM25.9,10.651l.345,2.757H18.2q-.034-.375-.1-.74a19.964,19.964,0,0,1,1.822-2.327,2.048,2.048,0,0,0,1.075.31ZM38.2,23.059H31.315a21.375,21.375,0,0,0-1.493-7.313,1.382,1.382,0,0,0,.249-.343l.308-.616h5.065A15.871,15.871,0,0,1,38.2,23.059ZM26.506,33.4c0,.233.014.462.035.689H21.681A1.38,1.38,0,0,0,20.3,32.71V31.332a1.38,1.38,0,0,0-1.379-1.379H17.545a1.376,1.376,0,0,0-1.365,1.24,19.977,19.977,0,0,1-1.373-6.755H29.937a20.813,20.813,0,0,1-.292,2.831,7.569,7.569,0,0,0-3.139,6.13Zm-3.447,2.068h3.152a20.214,20.214,0,0,1-1.776,2.127c0-.019,0-.039,0-.059v-.689A1.38,1.38,0,0,0,23.059,35.468ZM7.894,25.817H6.664q-.089-.686-.119-1.379h6.883A21.272,21.272,0,0,0,15,31.949L12.03,28.978a1.369,1.369,0,0,0-.975-.4H9.272V27.2A1.38,1.38,0,0,0,7.894,25.817Zm11.03,6.894H17.545V31.332h1.379Zm-2.757,1.379h1.379v1.379H16.166Zm2.757,0H20.3v1.379H18.923Zm8.247,2.4a7.586,7.586,0,0,0,1.238,1.918,15.644,15.644,0,0,1-3.9,1.053,20.93,20.93,0,0,0,2.665-2.971Zm1.668-21.7H27.8l-.6-4.832a.523.523,0,0,1,0-.074.609.609,0,0,1,.609-.609h3.1a.426.426,0,0,1,.381.616ZM27.8,16.166h.7a19.965,19.965,0,0,1,1.431,6.894H14.8a21,21,0,0,1,.283-2.824A7.576,7.576,0,0,0,18.2,14.787h8.216l.021.171A1.381,1.381,0,0,0,27.8,16.166ZM19.038,9.235a21.217,21.217,0,0,0-1.47,1.773,7.594,7.594,0,0,0-1.238-1.917,15.676,15.676,0,0,1,2.608-.818c-.006.1-.015.205-.015.31a2.048,2.048,0,0,0,.115.652ZM4.447,14.1a6.2,6.2,0,1,1,6.2,6.2A6.211,6.211,0,0,1,4.447,14.1Zm6.2,7.583a7.543,7.543,0,0,0,2.919-.586q-.116.976-.147,1.965H6.537a15.976,15.976,0,0,1,.285-2.427A7.529,7.529,0,0,0,10.651,21.681ZM6.515,27.2H7.894v1.379H6.515ZM5.136,29.953h5.919l3.732,3.732v1.783H9.558l-.975-.975a1.369,1.369,0,0,0-.975-.4H5.136Zm13.1,12.408H7.2a4.831,4.831,0,0,1-4.826-4.826V35.468H7.608l.975.975a1.369,1.369,0,0,0,.975.4h13.5v.689A4.831,4.831,0,0,1,18.234,42.362ZM40.293,33.4a6.2,6.2,0,1,1-6.2-6.2A6.211,6.211,0,0,1,40.293,33.4Zm-6.2-7.583a7.544,7.544,0,0,0-2.925.588c.081-.658.131-1.311.152-1.967H38.2a15.948,15.948,0,0,1-.288,2.425,7.529,7.529,0,0,0-3.825-1.046Zm.294-12.408H31.068l1.071-2.143A15.846,15.846,0,0,1,34.384,13.408Zm5.221,0h-.953l-1.76-3.519a.427.427,0,0,1,.381-.617H39.6Zm2.278-5.573a1.585,1.585,0,0,1-.914,1.283A1.376,1.376,0,0,0,39.6,7.894H37.273a1.8,1.8,0,0,0-1.748,1.379h-2.87a1.8,1.8,0,0,0-1.748-1.379h-3.1a1.983,1.983,0,0,0-1.882,1.379H20.991a.69.69,0,0,1-.689-.689,3.444,3.444,0,0,1,.07-.689h2.688V6.515h-2.05a3.431,3.431,0,0,1,2.74-1.379h14.74a1.372,1.372,0,0,0,1.233-.762l1-2h1.008a.643.643,0,0,1,.633.676Z" transform="translate(-1 -1)"/>
        <path id="Trazado_1021174" data-name="Trazado 1021174" d="M13.379,21.145v1.506h1.379V21.272h1.379V19.2a2.071,2.071,0,0,0-2.068-2.068.69.69,0,0,1-.689-.689v-.689h.689a.69.69,0,0,1,.689.689v.689h1.379v-.689a2.065,2.065,0,0,0-1.379-1.941V13H13.379v1.379H12v2.068a2.071,2.071,0,0,0,2.068,2.068.69.69,0,0,1,.689.689v.689h-.689a.69.69,0,0,1-.689-.689v-.689H12V19.2A2.065,2.065,0,0,0,13.379,21.145Z" transform="translate(-4.417 -4.728)"/>
        <path id="Trazado_1021175" data-name="Trazado 1021175" d="M48.757,42.506V41H47.379v1.379H46v2.068a2.071,2.071,0,0,0,2.068,2.068.69.69,0,0,1,.689.689v.689h-.689a.69.69,0,0,1-.689-.689v-.689H46V47.2a2.065,2.065,0,0,0,1.379,1.941v1.506h1.379V49.272h1.379V47.2a2.071,2.071,0,0,0-2.068-2.068.69.69,0,0,1-.689-.689v-.689h.689a.69.69,0,0,1,.689.689v.689h1.379v-.689A2.065,2.065,0,0,0,48.757,42.506Z" transform="translate(-14.979 -13.426)"/>
      </g>
    </g>
  </g>
</svg>
