<svg xmlns="http://www.w3.org/2000/svg" xmlns:xlink="http://www.w3.org/1999/xlink" width="126" height="126" viewBox="0 0 126 126">
  <defs>
    <clipPath id="clip-path">
      <rect id="Rectángulo_456277" data-name="Rectángulo 456277" width="126" height="126" transform="translate(-0.173 -0.173)" fill="#d35560"/>
    </clipPath>
    <clipPath id="clip-path-2">
      <rect id="Rectángulo_459911" data-name="Rectángulo 459911" width="61.319" height="59.487" fill="none"/>
    </clipPath>
  </defs>
  <g id="Grupo_1187785" data-name="Grupo 1187785" transform="translate(-892.711 -6223.777)">
    <g id="Grupo_1180204" data-name="Grupo 1180204" transform="translate(-2.347 -1060.222)">
      <g id="Grupo_1180176" data-name="Grupo 1180176" transform="translate(14330.847 19964.789)">
        <g id="Grupo_1179924" data-name="Grupo 1179924" transform="translate(-13435.616 -12680.616)">
          <g id="Grupo_1179923" data-name="Grupo 1179923" transform="translate(0 0)" clip-path="url(#clip-path)">
            <path id="Trazado_1004716" data-name="Trazado 1004716" d="M62.806,125.612c-2.04,0-3.948-2.331-5.937-2.525-2.026-.2-4.351,1.715-6.315,1.325-1.993-.4-3.409-3.055-5.329-3.638-1.941-.59-4.6.83-6.452.058-1.871-.777-2.738-3.663-4.51-4.614s-4.665-.085-6.338-1.206-1.967-4.124-3.525-5.4-4.557-.986-5.984-2.413-1.13-4.424-2.412-5.984-4.279-1.846-5.4-3.525-.249-4.555-1.206-6.338-3.836-2.64-4.614-4.51c-.771-1.855.648-4.511.059-6.452C4.254,78.467,1.6,77.051,1.2,75.058c-.39-1.964,1.523-4.289,1.325-6.315C2.331,66.754,0,64.846,0,62.806s2.331-3.948,2.525-5.937c.2-2.026-1.715-4.35-1.325-6.315.4-1.993,3.054-3.409,3.638-5.329.59-1.941-.829-4.6-.058-6.452.778-1.871,3.663-2.737,4.614-4.51S9.478,29.6,10.6,27.924,14.723,25.957,16,24.4s.986-4.557,2.413-5.984S22.84,17.286,24.4,16s1.846-4.279,3.525-5.4,4.555-.249,6.338-1.206,2.639-3.836,4.51-4.614,4.511.648,6.452.058C47.145,4.254,48.56,1.6,50.554,1.2c1.964-.39,4.289,1.523,6.315,1.325C58.858,2.331,60.766,0,62.806,0s3.948,2.331,5.937,2.525c2.026.2,4.351-1.715,6.315-1.325,1.993.4,3.409,3.055,5.329,3.638,1.941.59,4.6-.83,6.452-.058,1.871.777,2.738,3.663,4.51,4.614s4.665.084,6.338,1.206,1.967,4.124,3.525,5.4,4.557.986,5.984,2.413,1.13,4.424,2.412,5.984,4.279,1.846,5.4,3.525.249,4.555,1.206,6.338,3.836,2.64,4.614,4.51c.771,1.855-.648,4.511-.058,6.452.583,1.919,3.242,3.335,3.638,5.328.39,1.964-1.523,4.289-1.325,6.315.195,1.989,2.525,3.9,2.525,5.937s-2.331,3.948-2.525,5.938c-.2,2.026,1.715,4.35,1.325,6.315-.4,1.993-3.054,3.409-3.638,5.329-.59,1.941.829,4.6.058,6.452-.778,1.871-3.663,2.738-4.614,4.511s-.084,4.665-1.206,6.338-4.124,1.967-5.4,3.525-.986,4.557-2.413,5.984-4.424,1.13-5.984,2.413-1.846,4.278-3.525,5.4-4.555.249-6.338,1.206-2.639,3.837-4.51,4.614c-1.855.771-4.511-.648-6.452-.058-1.919.583-3.335,3.242-5.328,3.638-1.964.39-4.289-1.523-6.315-1.325-1.99.194-3.9,2.525-5.938,2.525" transform="translate(0.021 0.022)" fill="#3342a4"/>
            <path id="Trazado_1004717" data-name="Trazado 1004717" d="M14,70.865A56.865,56.865,0,1,1,70.865,127.73,56.865,56.865,0,0,1,14,70.865" transform="translate(-8.038 -8.037)" fill="#fff7e8"/>
            <path id="Trazado_1021102" data-name="Trazado 1021102" d="M14,66.624a52.624,52.624,0,1,1,52.624,52.624A52.624,52.624,0,0,1,14,66.624" transform="translate(-3.798 -3.795)" fill="#3342a4"/>
          </g>
        </g>
        <g id="Grupo_1180053" data-name="Grupo 1180053" transform="translate(-13407.189 -12652.604)">
          <rect id="Rectángulo_401104" data-name="Rectángulo 401104" width="68.804" height="69.633" transform="translate(0 0)" fill="none"/>
        </g>
      </g>
    </g>
    <g id="Grupo_1187658" data-name="Grupo 1187658" transform="translate(925.052 6256.968)">
      <g id="Grupo_1187657" data-name="Grupo 1187657" clip-path="url(#clip-path-2)">
        <path id="Trazado_1032122" data-name="Trazado 1032122" d="M324.986,302.793a7.145,7.145,0,0,0,1.59,1.591c-.21.323-.44.874-.1,1.225l2.206,2.271-1.494,1.493c-.1.08-.264.185-.328.126-.849-.78-6.276-5.975-6.4-6.462-.179-.681.807-1.837,1.466-1.862l2.2,2.025Z" transform="translate(-269.267 -253.083)" fill="#aa9eab"/>
        <path id="Trazado_1032123" data-name="Trazado 1032123" d="M303.931,108.4a.925.925,0,1,1-1.781.068c.131-1.121-.944-.179-1.547-.938a.929.929,0,0,1-.06-1.011c.384-.643,1.214-.34,1.482-.446.293-.116-.109-1.016.418-1.49a.921.921,0,0,1,.947-.163c.773.336.464,1.234.566,1.524s1.7-.17,1.71,1.024a.951.951,0,0,1-1.167.907,1.244,1.244,0,0,0-.48.04c-.086.04-.12.255-.088.485" transform="translate(-252.45 -87.691)" fill="#040505"/>
        <path id="Trazado_1032124" data-name="Trazado 1032124" d="M70.85,307.4l-2.4.006a.9.9,0,0,0-.921-.912l-2.58,0c-.418.186-.407-1.112-.338-1.332.054-.171.111-.274.315-.308l29.05-.012a1.581,1.581,0,0,0,1.482-1.681l-.006-4.651,1.649-.7v8.705l-25.541.009c-.529,0-.647.639-.707.876" transform="translate(-54.26 -250.254)" fill="#f78027"/>
        <path id="Trazado_1032125" data-name="Trazado 1032125" d="M133.344,350.371H107.91a.165.165,0,0,1,.1-.155h25.067c.126,0,.214,0,.266.157" transform="translate(-90.678 -294.291)" fill="#f88428"/>
        <path id="Trazado_1032126" data-name="Trazado 1032126" d="M55.718,49.71c.258.447-.674.732-1.062.621A27.448,27.448,0,0,1,52.6,48.477l.053-.385q-.5.208-1.091-.693a18.348,18.348,0,0,0-2.391,2.285l7.38,7.379a3.259,3.259,0,0,0,.989-.846l.379.072-.1-.351L58.966,54.8,56.831,52.54c-.2-.489-.158-1.359.478-1.239.35-.075.865-.307,1.232.061l2.309,2.313a1.558,1.558,0,0,1-.016,2.243l-3.113,3.1a1.563,1.563,0,0,1-2.3-.087l-8.133-8.121a1.983,1.983,0,0,1-.41-1.763l-2.229-2.289-.02,9.648A1.562,1.562,0,0,1,43.1,58.034l-25.66,0a.9.9,0,0,1-.845-.895c-.589-.451.072-1.031.68-1.193l25.248-.042-.037-7.856-.973.415,0,4.537c-.2,1.079-.415,1.506-1.49,1.876l-29.163.04-.2-.319-.143.319H5.6l-.014.913q2.342.156,4.863.089l.232.319c.015-.124.051-.311.137-.32.82-.084,3.129-.206,3.512.6.142.3.189.419-.148.628a.9.9,0,0,1-.929.893l-8.3-.015a1.623,1.623,0,0,1-1.519-1.77l0-1.666-1.705.032a1.61,1.61,0,0,1-1.72-1.453L0,1.663A1.494,1.494,0,0,1,1.466.019L39.416,0a1.562,1.562,0,0,1,1.772,1.653L41.2,3.408l1.912.023a1.526,1.526,0,0,1,1.513,1.56l0,14.406a1.525,1.525,0,0,1,1.223,1.212,4.553,4.553,0,0,0,3.44,3.429,1.412,1.412,0,0,1,1.178,1.314c0,.694-.5,1.243-1.471,1.345a15.131,15.131,0,0,1-.615,15.9l2.535,2.461a1.844,1.844,0,0,1,1.725.392l3.018,3.034c.366.368.127.873.056,1.226" transform="translate(0 0)" fill="#040504"/>
        <path id="Trazado_1032127" data-name="Trazado 1032127" d="M308.913,294.792c-.575.906-1.681,1.372-.937,2.113l6.2,6.085-1.3,1.3-7.93-7.929,2.818-2.779Z" transform="translate(-256.258 -246.7)" fill="#968b98"/>
        <path id="Trazado_1032128" data-name="Trazado 1032128" d="M263.9,152.712a8.557,8.557,0,0,0-1.318,1.915,5.73,5.73,0,0,0-3.046-3.132,10.342,10.342,0,0,0,1.839-1.28l.412-.133a8.542,8.542,0,0,1,2.2,2.249Z" transform="translate(-218.095 -126.118)" fill="#fbb600"/>
        <path id="Trazado_1032129" data-name="Trazado 1032129" d="M273.581,143.372c-.811-.881-1.188-1.781-2.524-2.5a7.1,7.1,0,0,0,1.235-1.907,6.036,6.036,0,0,0,3.131,3.159,8.111,8.111,0,0,0-1.841,1.245" transform="translate(-227.774 -116.778)" fill="#ffc600"/>
        <path id="Trazado_1032130" data-name="Trazado 1032130" d="M289.584,279.53l-2.238-2.274,1.334-1.356,2.29,2.2Z" transform="translate(-241.461 -231.845)" fill="#dad6da"/>
        <path id="Trazado_1032131" data-name="Trazado 1032131" d="M218.107,307.178c-.974.174-1.962.052-3.039.142l-.36-.186Z" transform="translate(-180.424 -258.09)" fill="#ddd4c0"/>
        <path id="Trazado_1032132" data-name="Trazado 1032132" d="M175.644,153.683a.587.587,0,0,1-.667-.029,9.118,9.118,0,0,0-4.383,4.021l-.256.325c-.7-.008-.981.553-.506,1.086l-.108.344c-.392.3-.417.807-.578,1.388q5.425-.079,10.813.052l.038.171-.147.319H168.987a.577.577,0,0,0-.223,1.091l11.1.009.193.32.061.166-11.178.16c.126.075.113.128-.035.16a1.828,1.828,0,0,0,.021.793q5.514.092,11.035.164l0,.168-.149.319-10.753-.006c-.834.156-.851,1,.076,1.139l10.791-.036.195.319c-.035.052-.085.154-.16.174l-.049.135q-5.285-.093-10.487.024.56-.024.1.383a10.522,10.522,0,0,0,4.856,5.677.7.7,0,0,1,.335.394,9.686,9.686,0,0,1-9.942-10.34,9.587,9.587,0,0,1,10.881-8.89" transform="translate(-138.435 -129.058)" fill="#79b9e6"/>
        <path id="Trazado_1032133" data-name="Trazado 1032133" d="M197.813,221.233c.387,0,.545.387.778.6a.363.363,0,0,1-.011.543c-.163.157-.352.521-.608.593l-10.857.04c-.635,0-1.118-.267-1.123-.9a.9.9,0,0,1,.963-.877Z" transform="translate(-156.292 -185.901)" fill="#080909"/>
        <path id="Trazado_1032134" data-name="Trazado 1032134" d="M197.838,200.265l.754.546c.09.2.149.483-.057.583-.138.224-.326.611-.64.611L186.643,202c-.5,0-.726-.663-.659-.994a.9.9,0,0,1,.955-.741Z" transform="translate(-156.276 -168.283)" fill="#080909"/>
        <path id="Trazado_1032135" data-name="Trazado 1032135" d="M194.89,154.031a1.244,1.244,0,0,0,.979.032,2.443,2.443,0,0,1,1.2.274,1.266,1.266,0,0,0,.947,1.74c3.62.888,3.213,3.893,4.215,4.5a1.609,1.609,0,0,0,1.339.031,9.688,9.688,0,0,1-8.947,12.685c-1.778-.458-5.119-3.788-5.329-5.533a.867.867,0,0,1,.138-.539l-.015-.2q5.27-.162,10.584-.067c-.322-.066-.466-.112-.129-.272q-.138-.1.16-.174c-.17-.363.232-.818.608-.593a.379.379,0,0,0,.011-.543c-.351.313-.73-.254-.778-.6-.139-.05-.136-.106,0-.167q-5.5-.075-11.035-.163a.4.4,0,0,1-.021-.794l11.216-.159c-.14-.043-.139-.1,0-.16-.149,0-.167-.056-.061-.166-.006-.357.247-.766.64-.611.173-.056.142-.242.057-.583-.231.423-.958-.131-.755-.546-.147-.019-.158-.076-.038-.171l-.186-.08-10.627.029c-.521-.3-.046-1.616.578-1.388l.145-.32,9.1-.015a.587.587,0,0,0-.212-1.086l-7.975-.015-.188-.32a.618.618,0,0,1,.023-.69c.633-1.354,2.808-3.259,4.36-3.33" transform="translate(-158.349 -129.435)" fill="#a3d0f0"/>
        <path id="Trazado_1032136" data-name="Trazado 1032136" d="M229.5,154.061l.311,0a.705.705,0,0,1-.979-.032Z" transform="translate(-192.296 -129.436)" fill="#abdaf5"/>
        <path id="Trazado_1032137" data-name="Trazado 1032137" d="M194.452,179.21l8.077.011a.913.913,0,0,1,.9.766c.057.294-.133.957-.595.958l-9.247.02a1.031,1.031,0,0,1-.358-1.242c.224-.465.712-.514,1.228-.513" transform="translate(-162.294 -150.593)" fill="#060707"/>
        <path id="Trazado_1032138" data-name="Trazado 1032138" d="M209.331,244.078l-5.927.028c-.461,0-.71-.525-.709-.855s.251-.85.71-.85h5.866c.4,0,.612.462.661.712.055.284-.108.963-.6.966" transform="translate(-170.328 -203.693)" fill="#080909"/>
        <path id="Trazado_1032139" data-name="Trazado 1032139" d="M202.189,212.205l0,.161c-3.667.14-7.532.136-11.181,0a.159.159,0,0,1,.175-.163Z" transform="translate(-160.51 -178.317)" fill="#aedef8"/>
        <path id="Trazado_1032140" data-name="Trazado 1032140" d="M202.014,213.222a.155.155,0,0,1-.168.161l-11.048,0,.035-.16Z" transform="translate(-160.331 -179.174)" fill="#a0cbed"/>
        <path id="Trazado_1032141" data-name="Trazado 1032141" d="M201.967,219.354l-10.7.009c-.2,0-.3-.042-.33-.172l10.865,0a.158.158,0,0,1,.17.161" transform="translate(-160.444 -184.19)" fill="#a8d6f3"/>
        <path id="Trazado_1032142" data-name="Trazado 1032142" d="M203.134,198.373l-10.813-.052,10.643-.108a.155.155,0,0,1,.17.16" transform="translate(-161.611 -166.562)" fill="#a7d4f2"/>
        <path id="Trazado_1032143" data-name="Trazado 1032143" d="M204.634,233.981l-10.024.046c-.279,0-.428.014-.545.225-.041-.118-.142-.223-.1-.383q5.174-.119,10.477-.024Z" transform="translate(-162.986 -196.468)" fill="#9fcdee"/>
        <path id="Trazado_1032144" data-name="Trazado 1032144" d="M203.8,233.171a.228.228,0,0,0,.129.272l-10.666-.113c-.2.039-.178-.206-.021-.164Z" transform="translate(-162.281 -195.93)" fill="#acdcf6"/>
        <path id="Trazado_1032145" data-name="Trazado 1032145" d="M205.771,191.7c.12.023.112.2-.051.2l-9-.12a83.743,83.743,0,0,1,9.046-.075" transform="translate(-165.312 -161.018)" fill="#9fcbed"/>
        <path id="Trazado_1032146" data-name="Trazado 1032146" d="M205.771,191.338l-9.046.075c.033-.133.095-.229.217-.229l8.6,0a.3.3,0,0,1,.229.151" transform="translate(-165.312 -160.655)" fill="#afe1fa"/>
        <path id="Trazado_1032147" data-name="Trazado 1032147" d="M212.893,254.312l-5.848.026a.163.163,0,0,1-.09-.144l5.683-.027c.137,0,.2,0,.255.144" transform="translate(-173.908 -213.581)" fill="#abdaf6"/>
        <path id="Trazado_1032148" data-name="Trazado 1032148" d="M212.743,240.347l-5.779,0a.151.151,0,0,1,.088-.143l5.433,0c.124,0,.207,0,.258.15" transform="translate(-173.915 -201.842)" fill="#abd8f4"/>
        <path id="Trazado_1032149" data-name="Trazado 1032149" d="M264.642,204.291l.057-.583a.45.45,0,0,1,.174.461c-.014.081.033.289-.231.122" transform="translate(-222.384 -171.18)" fill="#adddf7"/>
        <path id="Trazado_1032150" data-name="Trazado 1032150" d="M264.827,225.49l.011-.543c.147-.041.226,0,.207.279-.014.209.014.352-.218.264" transform="translate(-222.539 -189.016)" fill="#adddf7"/>
        <path id="Trazado_1032151" data-name="Trazado 1032151" d="M240.018,156.914a1.4,1.4,0,0,1-.06-.722.252.252,0,0,1,.092-.1,1.589,1.589,0,0,1,.071.738Z" transform="translate(-201.626 -131.166)" fill="#aee0f9"/>
        <path id="Trazado_1032152" data-name="Trazado 1032152" d="M155.389,156.106l-.061.1,1.845,0c-.089.012-.151,0-.182-.1a11.512,11.512,0,0,0,9.44-16.556,2.646,2.646,0,0,1,1.13-1.472,13.222,13.222,0,0,1-.178,13.4,12.825,12.825,0,0,1-10.763,6.3,1.506,1.506,0,0,0-1.083,0,13.173,13.173,0,1,1,6.793-24.784,3.134,3.134,0,0,1-1.5,1.148,11.5,11.5,0,1,0-5.436,21.972" transform="translate(-120.124 -110.457)" fill="#978b98"/>
        <path id="Trazado_1032153" data-name="Trazado 1032153" d="M217.513,285.836l1.6-.007c.094.042.325-.034.51.179l-2.746.027c.145-.25.39-.169.633-.2" transform="translate(-182.248 -240.187)" fill="#a396a4"/>
        <path id="Trazado_1032154" data-name="Trazado 1032154" d="M222.851,295.232h-1.083a.823.823,0,0,1,1.083,0" transform="translate(-186.356 -247.919)" fill="#a396a4"/>
        <path id="Trazado_1032155" data-name="Trazado 1032155" d="M219.553,140.346l-2.48.036a.141.141,0,0,1-.085-.119l2.48-.04a.142.142,0,0,1,.085.123" transform="translate(-182.339 -117.832)" fill="#9a8d9b"/>
        <path id="Trazado_1032156" data-name="Trazado 1032156" d="M17.6,13.609l.011,12.152-.093.335a.615.615,0,0,0-.073,1.062l7.957.008.189.32a.872.872,0,0,0-.159.178q-3.934.074-7.827.165l-.022,2.277c.259.4-.5.878-.824.545q-.12.522.095.466c.4-.127.734.468.773.824.312.01.295.136-.024.191l.005,2.072.236.094h18.5l-18.411.219c-.639,0-1.042.228-1.08.878a.878.878,0,0,0,.758.863c.124.016.308.053.319.143a15.982,15.982,0,0,1-.006,2.341q.16.824-.322,1.055c.138.05.135.105,0,.164q7.182.144,14.433.076.458-.192.427.079a.2.2,0,0,1-.19.161H17.933c-.579,0-.982.225-1.066.762a.845.845,0,0,0,.746.988l14.166.02c.12,0,.016.51-.124.459-.183-.238-.4-.236-.7-.234q-6.705-.07-13.34.085l.319.175c.091.483.139,2.111-.5,2.068l-.585.642a.317.317,0,0,0-.01.49c.194.273.5.743.947.744q.166.106-.177.188c.134.031.126.085,0,.159.5.109.482,1.6,0,1.757.138.05.135.1,0,.164q6.834.144,13.725.076a.591.591,0,0,0,.341-.409c.049.117.279.476.108.634l-14.418.038c-.393.033-.51.705-.5.96.011.3.411.522.575.781.74-.012.754,1.887.172,2.055.139.052.136.111,0,.175q5.426.117,10.913.02l.109.135c.267-.2.354-.1.157.177l-.148.319-11.04,0a.58.58,0,0,0-.042,1.1l11.03-.01.192.319c.142.044.143.1.009.178q-5.555.077-11.177.16c.139.045.137.1,0,.16.5.109.482,1.6,0,1.756.139.045.137.1,0,.16.28.028.289.088.02.181-.384,0-.71.468-.756.753-.053.326.133.979.6.979l23.417,0c.143,0,.194.1.189.16q-11.691.074-23.473.159c.139.045.137.1,0,.16.124.033.309.085.319.182a19.624,19.624,0,0,1,0,2.915q.145.715-.319.9c.309-.034.311.091,0,.188l-5.108.014c-.207-.245-.081-.534.141-.188L12.5,13.507q2.587-.054,5.1.1" transform="translate(-10.417 -11.338)" fill="#ffdcb3"/>
        <path id="Trazado_1032157" data-name="Trazado 1032157" d="M72.116,302.947a18.661,18.661,0,0,0,3.4.044l1.423-.255c.1.023.172.047.174.074a36.627,36.627,0,0,1-.008,3.751.346.346,0,0,1-.146.107c-.039,0-.125.011-.165-.038q-15.893-.06-31.771-.157v-3.992q11.76-.078,23.628-.164c-.132-.066-.122-.122.022-.167a17.375,17.375,0,0,0,3.447.8" transform="translate(-37.831 -253.903)" fill="#ffefd5"/>
        <path id="Trazado_1032158" data-name="Trazado 1032158" d="M59.876,159.774q-.061-.121-.164-.332l-.157.2q-7.293.144-14.536-.04l.009-3.539L62,156.077a18.184,18.184,0,0,0-2.129,3.7" transform="translate(-37.83 -131.141)" fill="#ffefd6"/>
        <path id="Trazado_1032159" data-name="Trazado 1032159" d="M58.191,194.01l-.277,1.973-13.973-.046a.973.973,0,0,0,.178-.638v-1.6q6.7-.155,13.448-.083c.36,0,.562.006.624.4" transform="translate(-36.924 -162.676)" fill="#ffefd5"/>
        <path id="Trazado_1032160" data-name="Trazado 1032160" d="M252.194,40.726l.027-2.418a.9.9,0,0,0,.888-.937l.006-4.716,1.651.032-.009,15.556-1.638-.686,0-5.874a.9.9,0,0,0-.921-.957" transform="translate(-211.923 -27.441)" fill="#f78027"/>
        <path id="Trazado_1032161" data-name="Trazado 1032161" d="M59.081,222.145c-.037.143-.094.145-.169.013q-.162.313-.71.238-6.623.066-13.183-.082v-1.757q6.711-.122,13.574-.036-.395-.223.226-.28Z" transform="translate(-37.829 -185.073)" fill="#ffefd6"/>
        <path id="Trazado_1032162" data-name="Trazado 1032162" d="M48.7,19.667l-.277.011q.083-4.185-.05-8.316c-.054-.036-.206-.025-.148.142l-31.586-.063-.2.08q-2.4.129-4.918.056c-.092.331-.211.2-.338-.118l.137,50.481-.155.2c-.053.005-.157-.033-.157-.2l0-50.727L48.7,11.2Z" transform="translate(-9.253 -9.412)" fill="#ffdcb3"/>
        <path id="Trazado_1032163" data-name="Trazado 1032163" d="M38.365,341.937l.022,1.641H32.974l-.008-1.641Z" transform="translate(-27.702 -287.336)" fill="#f46d0f"/>
        <path id="Trazado_1032164" data-name="Trazado 1032164" d="M9.024,62.081l0-50.882a.173.173,0,0,1,.155-.1l.005,50.721c0,.124,0,.214-.157.263" transform="translate(-7.581 -9.325)" fill="#070808"/>
        <path id="Trazado_1032165" data-name="Trazado 1032165" d="M12.015,12.819c.31.044.439.151.154.25l.137,50.288c-.187-.063-.191.122-.141.188L12,63.5Z" transform="translate(-10.081 -10.772)" fill="#ffedc0"/>
        <path id="Trazado_1032166" data-name="Trazado 1032166" d="M76.793,329.372l-31.768.031,0-.188H76.608c.169,0,.207.128.185.158" transform="translate(-37.834 -276.645)" fill="#fff3da"/>
        <path id="Trazado_1032167" data-name="Trazado 1032167" d="M68.584,299.369l-23.565.009c-.044,0-.11-.093-.1-.153l23.564-.009c.045,0,.11.093.1.153" transform="translate(-37.749 -251.437)" fill="#080909"/>
        <path id="Trazado_1032168" data-name="Trazado 1032168" d="M68.487,302.163l.177-.012-.022.167c-7.754.147-15.884.141-23.628,0-.007-.069.039-.163.187-.163Z" transform="translate(-37.826 -253.903)" fill="#fffdee"/>
        <path id="Trazado_1032169" data-name="Trazado 1032169" d="M59.854,177.5v.145l-14.538,0c-.187.024-.327-.02-.324-.16q7.2-.114,14.54-.124l.158-.2a.13.13,0,0,1,.177.084c0,.068-.013.178-.013.248" transform="translate(-37.808 -148.868)" fill="#fff8de"/>
        <path id="Trazado_1032170" data-name="Trazado 1032170" d="M59.074,193.515a.507.507,0,0,1,.028.167c-.181-.28-.43-.329-.827-.329l-13.245.014c-.023-.071.037-.168.175-.168l13.82.01c.077,0,.084.343.049.306" transform="translate(-37.835 -162.349)" fill="#fff5dd"/>
        <path id="Trazado_1032171" data-name="Trazado 1032171" d="M58.01,210.359l-13.983.014c-.046,0-.107-.094-.091-.149l13.983-.014c.046,0,.107.094.091.149" transform="translate(-36.918 -176.643)" fill="#080908"/>
        <path id="Trazado_1032172" data-name="Trazado 1032172" d="M58.833,220.077c-.11.038-.229.089-.226.28q-6.817.042-13.571-.123a.333.333,0,0,1,.177-.188Z" transform="translate(-37.845 -184.909)" fill="#fefbe5"/>
        <path id="Trazado_1032173" data-name="Trazado 1032173" d="M244.92,309.2l-.019-3.933a.275.275,0,0,1,.13-.1.169.169,0,0,1,.217.152l-.01,3.685c0,.167-.234.217-.318.192" transform="translate(-205.795 -256.438)" fill="#fffbe3"/>
        <path id="Trazado_1032174" data-name="Trazado 1032174" d="M39.038,211.852l-.01.49c-.172.069-.247,0-.22-.28.012-.128-.045-.455.23-.211" transform="translate(-32.606 -177.949)" fill="#ffebbf"/>
        <path id="Trazado_1032175" data-name="Trazado 1032175" d="M57.476,119.344c-.009.059-.019.1-.028.1-5.641.038-11.524.073-17.1-.084-.384,0-.644-.555-.773-.824q-.232,0-.095-.467l.824-.545,17.192.019a.877.877,0,0,1,.78.949c-.024.439-.333.681-.8.848" transform="translate(-33.13 -98.762)" fill="#060707"/>
        <path id="Trazado_1032176" data-name="Trazado 1032176" d="M49.07,91.952l-8.123-.009c-.45,0-.657-.643-.608-.964a.886.886,0,0,1,.751-.752l7.5-.018a.925.925,0,0,1,.962.727,1.042,1.042,0,0,1-.479,1.016" transform="translate(-33.892 -75.805)" fill="#060707"/>
        <path id="Trazado_1032177" data-name="Trazado 1032177" d="M17.366,12.881v.162l-4.947.009L12.4,63.357l-.292-50.538Z" transform="translate(-10.177 -10.772)" fill="#fbd8af"/>
        <path id="Trazado_1032178" data-name="Trazado 1032178" d="M52.276,263.311a.959.959,0,0,1,.648.871c0,.311-.269.85-.655.851l-11.164.012a.877.877,0,0,1,0-1.737Z" transform="translate(-33.912 -221.263)" fill="#080909"/>
        <path id="Trazado_1032179" data-name="Trazado 1032179" d="M68.647,303.2c0,.073-.023.165-.176.165l-23.451,0v-.16Z" transform="translate(-37.83 -254.781)" fill="#f8e6cd"/>
        <path id="Trazado_1032180" data-name="Trazado 1032180" d="M44.993,177.552l0-.164,13.725,0a1.912,1.912,0,0,0,.968-.163c.051.078.029.319-.171.319Z" transform="translate(-37.808 -148.93)" fill="#fbebd3"/>
        <path id="Trazado_1032181" data-name="Trazado 1032181" d="M44.992,232.5q6.787-.116,13.722-.119l.175-.2.169-.013-.044.488-13.7.005c-.184.04-.326-.016-.322-.16" transform="translate(-37.807 -195.092)" fill="#fffcea"/>
        <path id="Trazado_1032182" data-name="Trazado 1032182" d="M44.992,232.567l0-.164,13.091,0a1.658,1.658,0,0,0,.8-.16c.053.076.029.316-.169.316Z" transform="translate(-37.808 -195.162)" fill="#f8e8cf"/>
        <path id="Trazado_1032183" data-name="Trazado 1032183" d="M58.566,221.348l-13.574.036a.545.545,0,0,1,0-.159Z" transform="translate(-37.803 -185.899)" fill="#faead2"/>
        <path id="Trazado_1032184" data-name="Trazado 1032184" d="M39.017,120.944l.095.466a.549.549,0,0,1-.167.39.93.93,0,0,1,.072-.856" transform="translate(-32.671 -101.631)" fill="#ffebbe"/>
        <path id="Trazado_1032185" data-name="Trazado 1032185" d="M63.253,253.261c.49.406.02.51-.465.51q-9.372.036-18.681-.137v-1.757l11.181-.159c-.14-.043-.139-.1,0-.161l-.009-.178q.144-.426.338-.854a3.725,3.725,0,0,1-.33-.868.32.32,0,0,0-.157-.177c-.383-.094-.248-.228.13-.273q-5.612.084-11.15-.058a3.779,3.779,0,0,0-.172-2.055l14.974-.034a13.387,13.387,0,0,0,1.255,2.565L58,249.66a.843.843,0,0,0-.794.861.776.776,0,0,0,.665.839l3.582.107Z" transform="translate(-36.919 -207.611)" fill="#ffefd5"/>
        <path id="Trazado_1032186" data-name="Trazado 1032186" d="M64.965,286.539q-10.013.058-19.947-.122v-.16h18.67a.449.449,0,0,0,.475-.374c.206.206.486.246.8.654" transform="translate(-37.829 -240.234)" fill="#f8e8d0"/>
        <path id="Trazado_1032187" data-name="Trazado 1032187" d="M64.965,289.342l-19.927.06-.02-.181Z" transform="translate(-37.83 -243.037)" fill="#fffce9"/>
        <path id="Trazado_1032188" data-name="Trazado 1032188" d="M56.189,275.2l0,.161c-3.667.141-7.532.136-11.181,0a.157.157,0,0,1,.174-.164Z" transform="translate(-37.823 -231.251)" fill="#fffbe1"/>
        <path id="Trazado_1032189" data-name="Trazado 1032189" d="M56.2,276.222a.155.155,0,0,1-.168.161l-11.012,0v-.16Z" transform="translate(-37.829 -232.114)" fill="#faebd2"/>
        <path id="Trazado_1032190" data-name="Trazado 1032190" d="M56.146,260.2l-.146.137q-5.525.1-11.006-.02l0-.175Z" transform="translate(-37.809 -218.606)" fill="#fbebd2"/>
        <path id="Trazado_1032191" data-name="Trazado 1032191" d="M56.146,260.51a.228.228,0,0,0-.13.273l-10.705.007c-.176.022-.319-.018-.317-.162Z" transform="translate(-37.809 -218.911)" fill="#fff8de"/>
        <path id="Trazado_1032192" data-name="Trazado 1032192" d="M134.668,275.341l-3.609.035a.151.151,0,0,1-.087-.135l3.6-.027a.142.142,0,0,1,.1.127" transform="translate(-110.057 -231.267)" fill="#fffae1"/>
        <path id="Trazado_1032193" data-name="Trazado 1032193" d="M133.938,261.349l-1.953,0a.139.139,0,0,1,.085-.128h1.6a.329.329,0,0,1,.269.126" transform="translate(-110.91 -219.51)" fill="#fff8df"/>
        <path id="Trazado_1032194" data-name="Trazado 1032194" d="M75.032,20.123c.046-.309.176-.311.277-.011a.9.9,0,0,0,.847.612c.123.017.3.053.318.143a14.307,14.307,0,0,1-.023,2.055.532.532,0,0,1-.322.22c-.315,0-.812.225-.813.657L75.3,29.2c0,.119-.057.2-.154.183q-.151-.214-.151-.009a16.678,16.678,0,0,0-4.327-.3c-.25,0-.511-.309-.722-.444l-6.586-.007a.9.9,0,0,0-.944.836.894.894,0,0,0,.818.946l2.1.113a20.215,20.215,0,0,0-3.544,2.291H43.355l-.3-.093q-.509-.251-.323-1.275-.134-.65.317-.8,8.461-.179,17.127-.107l.029-.1a.362.362,0,0,1,.068-.372c.444-.415.687-.671.007-1.1l-17.059-.021-.193-.32c-.46.077-.368-1.972-.3-2.061a.532.532,0,0,1,.321-.215q3.892-.09,7.827-.165-.21-.115.159-.178l-.03-.4a.572.572,0,0,0-.246-1L43.249,24.6l-.192-.319-.32-.149q-.005-5.9-.01-11.809l.319-.194c-.139-.047-.137-.1,0-.162l.2-.08,31.589.063c-.393-.079-.148-.352.148-.141q.133,4.136.05,8.316" transform="translate(-35.859 -9.857)" fill="#ffefd6"/>
        <path id="Trazado_1032195" data-name="Trazado 1032195" d="M245.219,92.784l-.151-.009.016-5.6a.172.172,0,0,1,.143.087Z" transform="translate(-205.935 -73.253)" fill="#fffbe2"/>
        <path id="Trazado_1032196" data-name="Trazado 1032196" d="M90.381,49.01H73.8a.9.9,0,0,1,0-1.74H90.329a.9.9,0,0,1,.626.747.935.935,0,0,1-.573.994" transform="translate(-61.46 -39.721)" fill="#080908"/>
        <path id="Trazado_1032197" data-name="Trazado 1032197" d="M76.807,12.355l-31.787.016c0-.046.01-.159.188-.159Z" transform="translate(-37.831 -10.262)" fill="#fff3da"/>
        <path id="Trazado_1032198" data-name="Trazado 1032198" d="M63.791,143.291l-18.418.09c-.2.023-.316-.036-.317-.183Z" transform="translate(-37.861 -120.332)" fill="#fffbe1"/>
        <path id="Trazado_1032199" data-name="Trazado 1032199" d="M62.18,128.895c.158-.006.357.028.4.21l-17.555,0,.024-.191Z" transform="translate(-37.834 -108.312)" fill="#fff3d9"/>
        <path id="Trazado_1032200" data-name="Trazado 1032200" d="M93.522,45.179h0Z" transform="translate(-64.593 -37.965)" fill="#fbebd2"/>
        <path id="Trazado_1032201" data-name="Trazado 1032201" d="M93.614,59.657c.139.015.112.207-.053.161H77.15c-.057-.153.062-.16.125-.16,5.36-.141,10.965-.141,16.339,0" transform="translate(-64.818 -50.042)" fill="#faebd2"/>
        <path id="Trazado_1032202" data-name="Trazado 1032202" d="M126.438,103.029h-16.7l.11-.1q8.139-.036,16.286-.02l.3.117" transform="translate(-92.219 -86.474)" fill="#fbebd2"/>
        <path id="Trazado_1032203" data-name="Trazado 1032203" d="M126.438,102.439h-16.7c.036-.136.091-.233.226-.233h16.244c.136,0,.19.1.225.234" transform="translate(-92.219 -85.885)" fill="#fefbe5"/>
        <path id="Trazado_1032204" data-name="Trazado 1032204" d="M93.522,45.179h0Z" transform="translate(-64.593 -37.965)" fill="#fff8de"/>
        <path id="Trazado_1032205" data-name="Trazado 1032205" d="M94.348,59.362H78.009c-.009-.069.044-.162.181-.162H94.117a.257.257,0,0,1,.23.162" transform="translate(-65.552 -49.747)" fill="#fffbe1"/>
        <path id="Trazado_1032206" data-name="Trazado 1032206" d="M245.059,20.517,245.01,12.2c.062-.015.165.016.165.16Z" transform="translate(-205.886 -10.25)" fill="#fffbe2"/>
        <path id="Trazado_1032207" data-name="Trazado 1032207" d="M52.868,102.139c-.1.135-.238.165-.472.165H45.041c0-.151.127-.208.3-.175Z" transform="translate(-37.849 -85.813)" fill="#fefbe5"/>
        <path id="Trazado_1032208" data-name="Trazado 1032208" d="M217.588,94.169l0-.347c0-.374.323-.306.238-.021a.73.73,0,0,1-.059.437c-.034.048-.156-.075-.176-.07" transform="translate(-182.841 -78.623)" fill="#fffbe6"/>
        <path id="Trazado_1032209" data-name="Trazado 1032209" d="M123.965,91.02c.188.043.177.267,0,.347-.12.168-.291.611-.605.61l-16.541-.007c-.506,0-.7-.681-.636-.98a.911.911,0,0,1,.943-.761h15.929c.567,0,.768.389.908.791" transform="translate(-89.221 -75.821)" fill="#060707"/>
        <path id="Trazado_1032210" data-name="Trazado 1032210" d="M127.083,99.361l-16.06.012c-.045,0-.108-.093-.092-.15l16.059-.013c.045,0,.108.094.092.151" transform="translate(-93.216 -83.368)" fill="#080908"/>
      </g>
    </g>
  </g>
</svg>
