<svg xmlns="http://www.w3.org/2000/svg" xmlns:xlink="http://www.w3.org/1999/xlink" width="126" height="126" viewBox="0 0 126 126">
  <defs>
    <clipPath id="clip-path">
      <rect id="Rectángulo_456277" data-name="Rectángulo 456277" width="126" height="126" transform="translate(-0.173 -0.173)" fill="#d35560"/>
    </clipPath>
    <clipPath id="clip-path-2">
      <rect id="Rectángulo_459912" data-name="Rectángulo 459912" width="66.876" height="66.855" fill="none"/>
    </clipPath>
  </defs>
  <g id="Grupo_1187784" data-name="Grupo 1187784" transform="translate(-1205 -6225.234)">
    <g id="Grupo_1187783" data-name="Grupo 1187783" transform="translate(309.942 -1058.767)">
      <g id="Grupo_1180176" data-name="Grupo 1180176" transform="translate(14330.847 19964.789)">
        <g id="Grupo_1179924" data-name="Grupo 1179924" transform="translate(-13435.616 -12680.616)">
          <g id="Grupo_1179923" data-name="Grupo 1179923" transform="translate(0 0)" clip-path="url(#clip-path)">
            <path id="Trazado_1004716" data-name="Trazado 1004716" d="M62.806,125.612c-2.04,0-3.948-2.331-5.937-2.525-2.026-.2-4.351,1.715-6.315,1.325-1.993-.4-3.409-3.055-5.329-3.638-1.941-.59-4.6.83-6.452.058-1.871-.777-2.738-3.663-4.51-4.614s-4.665-.085-6.338-1.206-1.967-4.124-3.525-5.4-4.557-.986-5.984-2.413-1.13-4.424-2.412-5.984-4.279-1.846-5.4-3.525-.249-4.555-1.206-6.338-3.836-2.64-4.614-4.51c-.771-1.855.648-4.511.059-6.452C4.254,78.467,1.6,77.051,1.2,75.058c-.39-1.964,1.523-4.289,1.325-6.315C2.331,66.754,0,64.846,0,62.806s2.331-3.948,2.525-5.937c.2-2.026-1.715-4.35-1.325-6.315.4-1.993,3.054-3.409,3.638-5.329.59-1.941-.829-4.6-.058-6.452.778-1.871,3.663-2.737,4.614-4.51S9.478,29.6,10.6,27.924,14.723,25.957,16,24.4s.986-4.557,2.413-5.984S22.84,17.286,24.4,16s1.846-4.279,3.525-5.4,4.555-.249,6.338-1.206,2.639-3.836,4.51-4.614,4.511.648,6.452.058C47.145,4.254,48.56,1.6,50.554,1.2c1.964-.39,4.289,1.523,6.315,1.325C58.858,2.331,60.766,0,62.806,0s3.948,2.331,5.937,2.525c2.026.2,4.351-1.715,6.315-1.325,1.993.4,3.409,3.055,5.329,3.638,1.941.59,4.6-.83,6.452-.058,1.871.777,2.738,3.663,4.51,4.614s4.665.084,6.338,1.206,1.967,4.124,3.525,5.4,4.557.986,5.984,2.413,1.13,4.424,2.412,5.984,4.279,1.846,5.4,3.525.249,4.555,1.206,6.338,3.836,2.64,4.614,4.51c.771,1.855-.648,4.511-.058,6.452.583,1.919,3.242,3.335,3.638,5.328.39,1.964-1.523,4.289-1.325,6.315.195,1.989,2.525,3.9,2.525,5.937s-2.331,3.948-2.525,5.938c-.2,2.026,1.715,4.35,1.325,6.315-.4,1.993-3.054,3.409-3.638,5.329-.59,1.941.829,4.6.058,6.452-.778,1.871-3.663,2.738-4.614,4.511s-.084,4.665-1.206,6.338-4.124,1.967-5.4,3.525-.986,4.557-2.413,5.984-4.424,1.13-5.984,2.413-1.846,4.278-3.525,5.4-4.555.249-6.338,1.206-2.639,3.837-4.51,4.614c-1.855.771-4.511-.648-6.452-.058-1.919.583-3.335,3.242-5.328,3.638-1.964.39-4.289-1.523-6.315-1.325-1.99.194-3.9,2.525-5.938,2.525" transform="translate(0.021 0.022)" fill="#3342a4"/>
            <path id="Trazado_1004717" data-name="Trazado 1004717" d="M14,70.865A56.865,56.865,0,1,1,70.865,127.73,56.865,56.865,0,0,1,14,70.865" transform="translate(-8.038 -8.037)" fill="#fff7e8"/>
            <path id="Trazado_1021102" data-name="Trazado 1021102" d="M14,66.624a52.624,52.624,0,1,1,52.624,52.624A52.624,52.624,0,0,1,14,66.624" transform="translate(-3.798 -3.795)" fill="#3342a4"/>
          </g>
        </g>
        <g id="Grupo_1180053" data-name="Grupo 1180053" transform="translate(-13407.189 -12652.604)">
          <rect id="Rectángulo_401104" data-name="Rectángulo 401104" width="68.804" height="69.633" transform="translate(0 0)" fill="none"/>
        </g>
      </g>
    </g>
    <g id="Grupo_1187660" data-name="Grupo 1187660" transform="translate(1234.273 6252.614)">
      <g id="Grupo_1187659" data-name="Grupo 1187659" clip-path="url(#clip-path-2)">
        <path id="Trazado_1032211" data-name="Trazado 1032211" d="M35.921,30.22a7.045,7.045,0,0,1-2.418-.736,7.216,7.216,0,0,1-2.337.729L23.8,30.177l-.016,1.8a2.538,2.538,0,0,1-1.583,2.307,2.583,2.583,0,0,1-2.855-.555L15.82,30.19,3.309,30.173a3.2,3.2,0,0,1-3.23-3.239V9.682A3.093,3.093,0,0,1,2.975,6.5l20.467-.06-.511-.834,4.387-4.369A2.72,2.72,0,0,0,28.8,2.1c1.208.1,1.539-1.046,1.573-2.045L36.628,0a2.787,2.787,0,0,0,.388,1.585,1.343,1.343,0,0,0,1.448.467,3.875,3.875,0,0,0,1.231-.8l4.378,4.358-.514.852,19.948-.014A3.228,3.228,0,0,1,66.922,9.7V26.931a3.2,3.2,0,0,1-3.23,3.241l-12.512.023-3.529,3.531a2.6,2.6,0,0,1-2.857.555A2.633,2.633,0,0,1,43.2,31.795l-.011-1.62Z" transform="translate(-0.065)" fill="#040504"/>
        <path id="Trazado_1032212" data-name="Trazado 1032212" d="M195.122,60.946l1.152.135.088,4.078,23.71,0V50.054l-6.471,0V62.971h-2.154l0-8.606h-6.467l0,8.609h-2.15l-.008-4.294-2.554-.042,1.282-1.329-.7-.952-.019-1.188c.275-.705,1.051-.936,1.95-.883l.065-5.7a.794.794,0,0,0-.428-.681l18.2-.017c.566,0,1.587.183,1.588.919l.029,17.391a1.1,1.1,0,0,1-1.091,1.1l-13.4.021-4.159,4.158a.5.5,0,0,1-.577.041.548.548,0,0,1-.186-.439l-.009-3.773-9.519.009a1.121,1.121,0,0,1-1.245-1.1L192.033,63a9.128,9.128,0,0,0,2.083-.094c-.046-.907.2-1.7,1.007-1.96" transform="translate(-157.519 -39.285)" fill="#dfe2e7"/>
        <path id="Trazado_1032213" data-name="Trazado 1032213" d="M326.2,82.7l-2.162.026V71.978l2.157,0Z" transform="translate(-265.795 -59.041)" fill="#b0ce6a"/>
        <path id="Trazado_1032214" data-name="Trazado 1032214" d="M278.2,102.374l-2.165.02V95.955l2.156,0Z" transform="translate(-226.423 -78.709)" fill="#b0ce69"/>
        <path id="Trazado_1032215" data-name="Trazado 1032215" d="M230.235,122.06l-2.15,0v-2.138h2.138Z" transform="translate(-187.091 -98.369)" fill="#afce68"/>
        <path id="Trazado_1032216" data-name="Trazado 1032216" d="M210.374,120.224c-.368.2-.949.224-1.152-.135a1.124,1.124,0,0,1,1.152.135" transform="translate(-171.618 -98.428)" fill="#e9ecf1"/>
        <path id="Trazado_1032217" data-name="Trazado 1032217" d="M33.5,55.334l-.086,1.122-.675.92,4.39,4.392a6.973,6.973,0,0,1,.967-.7l1.184-.015a1.784,1.784,0,0,1,.89,1.918l2.09.136-.022,3.169a1.078,1.078,0,0,1-1.078,1.076l-9.688.011-.009,3.768a.488.488,0,0,1-.3.5.483.483,0,0,1-.459-.095l-4.159-4.167H13.319a1.13,1.13,0,0,1-1.255-1.111V49.041a1.063,1.063,0,0,1,1.092-1.084l18.716,0a.82.82,0,0,0-.425.687l.062,5.7c.962-.074,1.733.219,2,.991" transform="translate(-9.896 -39.335)" fill="#dee2e7"/>
        <path id="Trazado_1032218" data-name="Trazado 1032218" d="M39.206,86.072l-15.051,0,0-2.165H39.208Z" transform="translate(-19.812 -68.829)" fill="#040504"/>
        <path id="Trazado_1032219" data-name="Trazado 1032219" d="M39.206,110.071l-15.051,0,0-2.165H39.208Z" transform="translate(-19.812 -88.515)" fill="#040504"/>
        <path id="Trazado_1032220" data-name="Trazado 1032220" d="M30.558,62.052l-6.444.006V59.9h6.442Z" transform="translate(-19.779 -49.13)" fill="#040505"/>
        <path id="Trazado_1032221" data-name="Trazado 1032221" d="M78.558,62.052l-6.444.006V59.9h6.442Z" transform="translate(-59.152 -49.13)" fill="#040505"/>
        <path id="Trazado_1032222" data-name="Trazado 1032222" d="M74.233,134.042a14.533,14.533,0,0,1-2.154.006v-2.136l2.139,0Z" transform="translate(-59.124 -108.202)" fill="#040504"/>
        <path id="Trazado_1032223" data-name="Trazado 1032223" d="M98.233,134.042a14.533,14.533,0,0,1-2.154.006v-2.136l2.139,0Z" transform="translate(-78.811 -108.202)" fill="#040504"/>
        <path id="Trazado_1032224" data-name="Trazado 1032224" d="M26.233,134.042a14.533,14.533,0,0,1-2.154.006v-2.136l2.14,0Z" transform="translate(-19.751 -108.202)" fill="#040504"/>
        <path id="Trazado_1032225" data-name="Trazado 1032225" d="M50.233,134.042a14.533,14.533,0,0,1-2.154.006v-2.136l2.139,0Z" transform="translate(-39.438 -108.202)" fill="#040504"/>
        <path id="Trazado_1032226" data-name="Trazado 1032226" d="M158.109,120.129a.923.923,0,0,1-1.184.016,1.186,1.186,0,0,1,1.184-.016" transform="translate(-128.721 -98.415)" fill="#e9ecf1"/>
        <path id="Trazado_1032227" data-name="Trazado 1032227" d="M130.057,90.135a.815.815,0,0,1,.086-1.122,1.1,1.1,0,0,1-.086,1.122" transform="translate(-106.534 -73.015)" fill="#e9ecf1"/>
        <path id="Trazado_1032228" data-name="Trazado 1032228" d="M240.266,89.573a1.148,1.148,0,0,1-.019-1.188.929.929,0,0,1,.019,1.188" transform="translate(-196.94 -72.499)" fill="#e9ecf1"/>
        <path id="Trazado_1032229" data-name="Trazado 1032229" d="M143.3,31.374a11.771,11.771,0,0,1-2.778.022,3.571,3.571,0,0,0-4.537-1.852l-1.889-1.893a3.57,3.57,0,0,0-1.866-4.537l0-2.75a3.587,3.587,0,0,0,1.865-4.546l1.888-1.888a3.579,3.579,0,0,0,4.544-1.868h2.739a3.592,3.592,0,0,0,4.55,1.868l1.888,1.887a3.59,3.59,0,0,0,1.867,4.55l0,2.734a3.592,3.592,0,0,0-1.869,4.552L147.81,29.54a3.557,3.557,0,0,0-4.513,1.834" transform="translate(-108.462 -9.893)" fill="#ffb911"/>
        <path id="Trazado_1032230" data-name="Trazado 1032230" d="M150.536,24.033a7.539,7.539,0,1,1-6.36,8.682,7.506,7.506,0,0,1,6.36-8.682" transform="translate(-118.182 -19.646)" fill="#040504"/>
        <path id="Trazado_1032231" data-name="Trazado 1032231" d="M160.58,36.052a5.378,5.378,0,1,1-4.372,6.344,5.341,5.341,0,0,1,4.372-6.344" transform="translate(-128.049 -29.507)" fill="#ffcb58"/>
        <path id="Trazado_1032232" data-name="Trazado 1032232" d="M170.574,48.01a3.228,3.228,0,1,1-2.39,4,3.2,3.2,0,0,1,2.39-4" transform="translate(-137.861 -39.31)" fill="#040505"/>
        <path id="Trazado_1032233" data-name="Trazado 1032233" d="M180.868,59.988a1.053,1.053,0,0,1,1.306.655,1.07,1.07,0,1,1-1.306-.655" transform="translate(-147.734 -49.171)" fill="#eff0f0"/>
        <path id="Trazado_1032234" data-name="Trazado 1032234" d="M66.867,203.66a3.308,3.308,0,0,1-1.206,2.592,4.038,4.038,0,0,1-3.185.666,7.6,7.6,0,0,1-4.118,5.728c-.2.1-.2.816-.008.858a9.777,9.777,0,0,1,8.472,10.732H.043A9.839,9.839,0,0,1,2.4,216.791a16.962,16.962,0,0,1-2.386-8.563l0-4.676a11.763,11.763,0,0,1,8.409-11.168,11.886,11.886,0,0,1,13.429,4.938,7.4,7.4,0,0,1,6.909-5.409l13.12-.049a3.278,3.278,0,0,1,3.3,2.387,7.372,7.372,0,0,1,5.147-2.352l8.814-.027a7.56,7.56,0,0,1,7.722,7.538Z" transform="translate(0 -157.38)" fill="#040504"/>
        <path id="Trazado_1032235" data-name="Trazado 1032235" d="M211.465,283.9a9.757,9.757,0,0,0-7.441-5.231c-.162-.023-.165-.529-.1-.665.207-.45,3.581-1.619,4.227-5.917a4,4,0,0,0,3.312-.776,3.961,3.961,0,0,0,3.312.772,7.562,7.562,0,0,0,4.12,5.725c.185.155.2.8.007.855a9.741,9.741,0,0,0-7.434,5.238" transform="translate(-167.239 -222.551)" fill="#f4f4f4"/>
        <path id="Trazado_1032236" data-name="Trazado 1032236" d="M166.85,245.267a5.386,5.386,0,1,1-10.772.075v-4.317a1.048,1.048,0,0,1,1.077-1.072h8.612a1.047,1.047,0,0,1,1.079,1.071Z" transform="translate(-128.026 -196.826)" fill="#edc4a4"/>
        <path id="Trazado_1032237" data-name="Trazado 1032237" d="M151.768,330.549l-19.232.021a7.572,7.572,0,0,1,6.576-6.428,3.275,3.275,0,0,0,2.96,2.1,3.215,3.215,0,0,0,3.1-2.093,7.554,7.554,0,0,1,6.6,6.4" transform="translate(-108.715 -265.883)" fill="#ffcb58"/>
        <path id="Trazado_1032238" data-name="Trazado 1032238" d="M149.022,210.389a3.242,3.242,0,0,0-3.063-2.186h-8.635a3.216,3.216,0,0,0-3.041,2.148,15.6,15.6,0,0,0-2.306.112c-.48-3.436,1.754-6.539,5.176-6.548l13.1-.035a1.072,1.072,0,0,1,1.084,1.081l.018,5.543a7.718,7.718,0,0,0-2.332-.115" transform="translate(-108.204 -167.236)" fill="#515a65"/>
        <path id="Trazado_1032239" data-name="Trazado 1032239" d="M127.459,281.58A9.747,9.747,0,0,0,120,286.826a10.558,10.558,0,0,0-1.34-1.939,17.451,17.451,0,0,0,2.374-10,6.284,6.284,0,0,0,2.268.154,7.554,7.554,0,0,0,4.114,5.7c.148.076.219.759.04.843" transform="translate(-97.335 -225.478)" fill="#f4f4f4"/>
        <path id="Trazado_1032240" data-name="Trazado 1032240" d="M134.267,253.934c-1.109.189-1.968.012-2.128-.8a1.031,1.031,0,0,1,.74-1.239,4.341,4.341,0,0,1,1.368-.042Z" transform="translate(-108.372 -206.556)" fill="#ebc2a2"/>
        <path id="Trazado_1032241" data-name="Trazado 1032241" d="M229.52,253.906a3.329,3.329,0,0,1-1.432.065l0-2.108a4.456,4.456,0,0,1,1.371.043,1.052,1.052,0,0,1,.063,2" transform="translate(-187.092 -206.569)" fill="#ebc2a2"/>
        <path id="Trazado_1032242" data-name="Trazado 1032242" d="M182.071,312.833a1.009,1.009,0,0,1-.951.832,1.032,1.032,0,0,1-1.089-.761,4.19,4.19,0,0,1-.036-1.461,7.621,7.621,0,0,0,2.1,0,4.407,4.407,0,0,1-.02,1.391" transform="translate(-147.607 -255.466)" fill="#ebc2a2"/>
        <path id="Trazado_1032243" data-name="Trazado 1032243" d="M286.85,245.267a5.386,5.386,0,1,1-10.772.075v-4.317a1.048,1.048,0,0,1,1.077-1.072h8.612a1.047,1.047,0,0,1,1.079,1.071Z" transform="translate(-226.458 -196.826)" fill="#edc4a4"/>
        <path id="Trazado_1032244" data-name="Trazado 1032244" d="M265.184,324.31a7.5,7.5,0,0,1,6.612,6.4l-19.239-.006a7.471,7.471,0,0,1,5.677-6.228c.26-.06.617.147.945-.111a3.227,3.227,0,0,0,6.006-.052" transform="translate(-207.164 -266.021)" fill="#b0ce6a"/>
        <path id="Trazado_1032245" data-name="Trazado 1032245" d="M265.955,208.484l-8.452-.012a3.306,3.306,0,0,0-3.226,2.176,8.884,8.884,0,0,0-2.286.141c-.525-3.227,1.564-6.56,4.983-6.56H266.3c3.339,0,5.464,3.19,5,6.5a18.708,18.708,0,0,0-2.3-.089,3.235,3.235,0,0,0-3.044-2.159" transform="translate(-206.634 -167.522)" fill="#a36334"/>
        <path id="Trazado_1032246" data-name="Trazado 1032246" d="M254.267,253.934c-1.109.189-1.968.012-2.128-.8a1.031,1.031,0,0,1,.74-1.239,4.341,4.341,0,0,1,1.368-.042Z" transform="translate(-206.804 -206.556)" fill="#ebc2a2"/>
        <path id="Trazado_1032247" data-name="Trazado 1032247" d="M349.52,253.906a3.33,3.33,0,0,1-1.432.065l0-2.108a4.456,4.456,0,0,1,1.371.043,1.052,1.052,0,0,1,.063,2" transform="translate(-285.524 -206.569)" fill="#ebc2a2"/>
        <path id="Trazado_1032248" data-name="Trazado 1032248" d="M302.071,312.833a1.009,1.009,0,0,1-.951.832,1.032,1.032,0,0,1-1.089-.761,4.189,4.189,0,0,1-.036-1.461,7.621,7.621,0,0,0,2.1,0,4.4,4.4,0,0,1-.02,1.391" transform="translate(-246.039 -255.466)" fill="#ebc2a2"/>
        <path id="Trazado_1032249" data-name="Trazado 1032249" d="M23.72,208.216l-3.961,0a5.442,5.442,0,0,0-5.524,6.294,7.7,7.7,0,0,0,4.158,8c.174.18.189.767,0,.857a9.836,9.836,0,0,0-4.484,1.8,14.573,14.573,0,0,1-1.874-7.244l0-4.142a9.708,9.708,0,1,1,19.413,0v3.962a15.349,15.349,0,0,1-1.852,7.423,10.164,10.164,0,0,0-4.512-1.788c-.187-.106-.172-.677,0-.863a7.711,7.711,0,0,0,4.157-8,5.438,5.438,0,0,0-5.524-6.292" transform="translate(-9.87 -167.254)" fill="#ffcb58"/>
        <path id="Trazado_1032250" data-name="Trazado 1032250" d="M46.836,245.359a5.386,5.386,0,0,1-10.771,0l0-2.178a3.186,3.186,0,0,1,3.221-3.207h4.329a3.182,3.182,0,0,1,3.224,3.208Z" transform="translate(-29.581 -196.845)" fill="#edc4a4"/>
        <path id="Trazado_1032251" data-name="Trazado 1032251" d="M31.722,330.574l-19.244.024a7.571,7.571,0,0,1,6.588-6.437,3.274,3.274,0,0,0,2.958,2.1,3.218,3.218,0,0,0,3.1-2.093,7.553,7.553,0,0,1,6.6,6.407" transform="translate(-10.235 -265.899)" fill="#ef695a"/>
        <path id="Trazado_1032252" data-name="Trazado 1032252" d="M62.071,312.833a1.009,1.009,0,0,1-.951.832,1.032,1.032,0,0,1-1.089-.761,4.191,4.191,0,0,1-.036-1.461,7.621,7.621,0,0,0,2.1,0,4.406,4.406,0,0,1-.02,1.391" transform="translate(-49.175 -255.466)" fill="#ebc2a2"/>
      </g>
    </g>
  </g>
</svg>
