<svg xmlns="http://www.w3.org/2000/svg" xmlns:xlink="http://www.w3.org/1999/xlink" width="150" height="150" viewBox="0 0 150 150">
  <defs>
    <clipPath id="clip-path">
      <rect id="Rectángulo_456277" data-name="Rectángulo 456277" width="150" height="150" transform="translate(-0.059 -0.059)" fill="#d35560"/>
    </clipPath>
    <clipPath id="clip-path-2">
      <rect id="Rectángulo_459909" data-name="Rectángulo 459909" width="77.344" height="77.385" fill="none"/>
    </clipPath>
  </defs>
  <g id="Grupo_1180101" data-name="Grupo 1180101" transform="translate(-413.192 -9435.133)">
    <g id="Grupo_1180081" data-name="Grupo 1180081" transform="translate(413.25 9435.191)">
      <g id="Grupo_1179924" data-name="Grupo 1179924" transform="translate(0 0)">
        <g id="Grupo_1179923" data-name="Grupo 1179923" transform="translate(0 0)" clip-path="url(#clip-path)">
          <path id="Trazado_1004716" data-name="Trazado 1004716" d="M74.59,149.181c-2.423,0-4.689-2.768-7.051-3-2.407-.235-5.167,2.037-7.5,1.574-2.367-.47-4.049-3.628-6.329-4.321-2.305-.7-5.459.985-7.662.069-2.222-.923-3.251-4.35-5.356-5.479s-5.541-.1-7.528-1.432-2.336-4.9-4.186-6.418-5.412-1.171-7.107-2.865-1.342-5.254-2.865-7.107-5.082-2.192-6.418-4.186-.3-5.41-1.432-7.527-4.556-3.135-5.48-5.356c-.916-2.2.77-5.357.07-7.662-.693-2.28-3.85-3.961-4.32-6.329C.962,86.809,3.234,84.048,3,81.642c-.231-2.363-3-4.629-3-7.052S2.768,69.9,3,67.539c.235-2.407-2.037-5.166-1.573-7.5.47-2.367,3.627-4.049,4.32-6.329.7-2.306-.985-5.459-.069-7.663.924-2.222,4.35-3.251,5.48-5.356s.1-5.54,1.432-7.528,4.9-2.336,6.418-4.186,1.171-5.412,2.866-7.107,5.254-1.342,7.107-2.865,2.192-5.082,4.186-6.418,5.41-.3,7.528-1.432,3.134-4.556,5.356-5.48c2.2-.916,5.357.77,7.663.069,2.28-.692,3.961-3.85,6.328-4.32C62.372.962,65.133,3.234,67.539,3c2.363-.231,4.629-3,7.052-3s4.689,2.768,7.051,3c2.407.235,5.167-2.037,7.5-1.574,2.367.47,4.049,3.628,6.329,4.321,2.305.7,5.459-.985,7.662-.069,2.222.923,3.251,4.35,5.356,5.48s5.541.1,7.528,1.432,2.337,4.9,4.186,6.418,5.412,1.171,7.107,2.866,1.342,5.254,2.865,7.107,5.082,2.192,6.418,4.186.3,5.41,1.432,7.528,4.556,3.135,5.479,5.356c.916,2.2-.77,5.357-.069,7.662.693,2.28,3.85,3.961,4.32,6.328.463,2.333-1.809,5.093-1.574,7.5.231,2.363,3,4.629,3,7.051s-2.768,4.689-3,7.052c-.235,2.406,2.037,5.166,1.574,7.5-.47,2.367-3.627,4.049-4.32,6.329-.7,2.305.985,5.459.069,7.662-.924,2.222-4.35,3.251-5.48,5.357s-.1,5.54-1.432,7.528-4.9,2.336-6.418,4.186-1.171,5.412-2.866,7.107-5.254,1.342-7.107,2.865-2.192,5.081-4.186,6.418-5.41.3-7.528,1.432-3.134,4.557-5.356,5.48c-2.2.916-5.357-.77-7.662-.069-2.28.692-3.961,3.85-6.328,4.32-2.333.463-5.093-1.809-7.5-1.574-2.363.231-4.629,3-7.052,3" transform="translate(0.35 0.35)" fill="#d35560"/>
          <path id="Trazado_1004717" data-name="Trazado 1004717" d="M14,81.535a67.535,67.535,0,1,1,67.535,67.535A67.535,67.535,0,0,1,14,81.535" transform="translate(-6.594 -6.594)" fill="#4d787e"/>
          <path id="Trazado_1004718" data-name="Trazado 1004718" d="M132.334,270.213c-.179-.759-.348-1.543-.509-2.312l-2.36-.3q1.057-.562,2.072-1.13-.225-1.156-.423-2.309c.54.53,1.093,1.077,1.663,1.6q.994-.618,1.945-1.239-.422,1.09-.87,2.178c.589.505,1.191,1.019,1.808,1.521l-2.372-.177q-.464,1.087-.955,2.171" transform="translate(-63.866 -130.676)" fill="#ffffc5"/>
          <path id="Trazado_1004719" data-name="Trazado 1004719" d="M113.789,266.762c-.064-.775-.113-1.577-.157-2.361l-2.288-.652q1.129-.4,2.219-.806-.049-1.177-.072-2.347c.455.6.919,1.229,1.4,1.829q1.075-.461,2.108-.932-.58,1.014-1.185,2.022c.507.586,1.024,1.192,1.561,1.772-.776-.161-1.546-.353-2.319-.528q-.621,1-1.269,2" transform="translate(-54.878 -128.909)" fill="#ffffc5"/>
          <path id="Trazado_1004720" data-name="Trazado 1004720" d="M96.012,260.643c.058-.789.127-1.579.2-2.363l-2.166-.983c.783-.146,1.556-.305,2.315-.467q.129-1.169.28-2.329c.358.667.728,1.343,1.113,2.021q1.132-.3,2.225-.608-.726.916-1.477,1.822c.413.657.836,1.325,1.277,1.987l-2.214-.87q-.766.9-1.556,1.79" transform="translate(-46.299 -125.885)" fill="#ffffc5"/>
          <path id="Trazado_1004721" data-name="Trazado 1004721" d="M79.414,251.99q.265-1.159.551-2.3c-.663-.434-1.344-.843-1.993-1.3.783-.008,1.584-.069,2.356-.112q.3-1.136.623-2.258.384,1.067.8,2.159c.766-.066,1.54-.171,2.29-.266q-.856.8-1.734,1.584.466,1.066.968,2.153l-2.062-1.187c-.594.517-1.2,1.036-1.8,1.531" transform="translate(-38.325 -121.677)" fill="#ffffc5"/>
          <path id="Trazado_1004722" data-name="Trazado 1004722" d="M64.353,241.022q.432-1.105.885-2.194c-.593-.526-1.215-1.021-1.777-1.582.769.115,1.567.177,2.343.242q.464-1.078.948-2.139.225,1.109.481,2.247c.755.064,1.543.065,2.3.082q-.965.664-1.952,1.311.3,1.12.643,2.265l-1.87-1.471c-.669.429-1.327.83-2,1.238" transform="translate(-31.127 -116.386)" fill="#ffffc5"/>
          <path id="Trazado_1004723" data-name="Trazado 1004723" d="M51.149,227.995q.589-1.028,1.2-2.037l-.779-.9c-.258-.3-.494-.62-.741-.929l1.128.317,1.149.273q.617-1,1.25-1.973.063,1.127.152,2.286l1.121.234,1.138.191q-1.055.516-2.127,1.012.14,1.148.309,2.327c-.545-.576-1.1-1.142-1.635-1.727q-1.07.473-2.159.926" transform="translate(-24.859 -110.134)" fill="#ffffc5"/>
          <path id="Trazado_1004724" data-name="Trazado 1004724" d="M39.841,213.191q.733-.928,1.481-1.835c-.212-.336-.434-.664-.637-1l-.594-1.031c.724.322,1.417.646,2.16.923.507-.6,1.006-1.179,1.532-1.767-.079.754-.131,1.508-.186,2.282.723.269,1.425.535,2.166.758-.746.236-1.5.467-2.255.686-.022.772-.029,1.551-.032,2.344-.451-.652-.939-1.279-1.359-1.952q-1.13.31-2.275.6" transform="translate(-19.411 -103.056)" fill="#ffffc5"/>
          <path id="Trazado_1004725" data-name="Trazado 1004725" d="M30.615,196.931q.862-.808,1.735-1.593c-.343-.716-.614-1.462-.909-2.2.671.425,1.309.848,1.992,1.237.582-.511,1.181-1.02,1.787-1.522-.212.742-.356,1.472-.529,2.229.683.37,1.327.742,2.024,1.074-.778.124-1.554.238-2.322.338-.159.771-.262,1.529-.386,2.314-.358-.707-.739-1.4-1.051-2.133q-1.165.138-2.342.253" transform="translate(-14.835 -95.309)" fill="#ffffc5"/>
          <path id="Trazado_1004726" data-name="Trazado 1004726" d="M24.019,179.289q.973-.669,1.952-1.313c-.235-.758-.377-1.54-.566-2.31.6.522,1.176,1.033,1.781,1.524.651-.417,1.333-.834,2-1.237-.326.7-.579,1.4-.86,2.124.617.469,1.213.929,1.836,1.366-.791.008-1.557,0-2.34-.016-.284.741-.492,1.474-.731,2.231-.259-.75-.515-1.5-.717-2.268q-1.174-.038-2.355-.1" transform="translate(-11.564 -86.782)" fill="#ffffc5"/>
          <path id="Trazado_1004727" data-name="Trazado 1004727" d="M20.215,160.664q1.062-.516,2.127-1.005c-.119-.785-.143-1.579-.214-2.369.513.605,1.005,1.2,1.532,1.774.706-.315,1.441-.624,2.164-.924-.429.647-.781,1.3-1.168,1.972.539.556,1.062,1.1,1.608,1.627-.781-.112-1.537-.237-2.309-.368-.392.69-.711,1.384-1.058,2.1l-.21-1.171c-.066-.391-.1-.786-.158-1.179q-1.155-.214-2.313-.453" transform="translate(-9.677 -77.667)" fill="#ffffc5"/>
          <path id="Trazado_1004728" data-name="Trazado 1004728" d="M19.269,141.764q1.128-.352,2.255-.679c0-.793.074-1.584.135-2.374.421.674.8,1.333,1.259,1.981.751-.207,1.5-.406,2.266-.595-.5.578-.959,1.172-1.441,1.779.453.63.873,1.246,1.353,1.848q-1.134-.34-2.237-.706c-.483.624-.9,1.263-1.353,1.915-.018-.792-.055-1.585-.018-2.378q-1.109-.382-2.218-.79" transform="translate(-9.207 -68.451)" fill="#ffffc5"/>
          <path id="Trazado_1004729" data-name="Trazado 1004729" d="M21.174,123q1.169-.181,2.333-.336c.074-.39.132-.783.218-1.169l.268-1.159c.312.729.595,1.437.951,2.146.778-.092,1.538-.178,2.325-.25-.574.5-1.122,1.015-1.688,1.543.353.69.672,1.36,1.067,2.028-.706-.335-1.426-.681-2.114-1.031-.553.548-1.077,1.115-1.619,1.694.111-.785.174-1.577.333-2.355q-1.039-.543-2.074-1.112" transform="translate(-10.152 -59.337)" fill="#ffffc5"/>
          <path id="Trazado_1004730" data-name="Trazado 1004730" d="M25.928,104.79q1.182,0,2.357.018c.239-.757.539-1.491.832-2.228.2.769.37,1.51.616,2.264.779.025,1.552.056,2.341.1-.65.4-1.263.834-1.9,1.271.247.736.46,1.445.75,2.165-.649-.438-1.3-.887-1.934-1.337-.633.458-1.233.941-1.857,1.432.226-.761.412-1.533.684-2.279q-.946-.692-1.884-1.411" transform="translate(-12.51 -50.53)" fill="#ffffc5"/>
          <path id="Trazado_1004731" data-name="Trazado 1004731" d="M33.429,87.557q1.169.173,2.325.37c.346-.714.77-1.386,1.158-2.077.083.789.155,1.557.267,2.329.761.139,1.54.3,2.306.457-.718.293-1.376.634-2.077.969.134.765.248,1.5.414,2.252-.582-.533-1.146-1.067-1.705-1.608-.709.35-1.361.744-2.054,1.134.327-.722.644-1.45,1.02-2.149q-.833-.827-1.654-1.678" transform="translate(-16.231 -42.232)" fill="#ffffc5"/>
          <path id="Trazado_1004732" data-name="Trazado 1004732" d="M43.489,71.68q1.128.345,2.241.71c.461-.645.972-1.253,1.456-1.881q-.054,1.188-.083,2.343,1.117.389,2.219.8c-.749.187-1.473.41-2.2.647q.023,1.16.07,2.287-.728-.91-1.438-1.839c-.753.241-1.471.524-2.2.813l.643-1,.688-.97q-.7-.943-1.388-1.908" transform="translate(-21.221 -34.623)" fill="#ffffc5"/>
          <path id="Trazado_1004733" data-name="Trazado 1004733" d="M55.356,57.5q1.064.506,2.109,1.031l1.72-1.643q-.226,1.17-.421,2.312,1.046.548,2.073,1.115c-.759.084-1.53.176-2.278.31Q58.413,61.78,58.3,62.9q-.585-1.008-1.152-2.034l-1.161.215c-.384.079-.76.17-1.144.259.508-.61,1.064-1.175,1.611-1.75q-.556-1.038-1.094-2.095" transform="translate(-26.851 -27.867)" fill="#ffffc5"/>
          <path id="Trazado_1004734" data-name="Trazado 1004734" d="M69.217,45.319c.65.436,1.293.879,1.939,1.34l1.938-1.379q-.394,1.129-.753,2.233.952.7,1.883,1.406c-.754-.018-1.544-.058-2.3-.035q-.311,1.124-.59,2.223-.431-1.084-.841-2.184c-.774.032-1.582.045-2.354.123.592-.529,1.238-.991,1.854-1.49q-.4-1.111-.775-2.237" transform="translate(-33.447 -22.109)" fill="#ffffc5"/>
          <path id="Trazado_1004735" data-name="Trazado 1004735" d="M84.831,34.886c.578.528,1.158,1.078,1.724,1.623l2.117-1.086q-.555,1.061-1.073,2.1.838.828,1.652,1.667c-.745-.133-1.508-.269-2.274-.382q-.473,1.07-.908,2.119-.266-1.138-.51-2.288c-.77-.084-1.562-.176-2.349-.232.677-.412,1.372-.8,2.057-1.2q-.23-1.158-.436-2.33" transform="translate(-40.923 -16.954)" fill="#ffffc5"/>
          <path id="Trazado_1004736" data-name="Trazado 1004736" d="M101.868,26.946q.744.928,1.463,1.866c.752-.251,1.5-.517,2.255-.756-.476.632-.93,1.284-1.376,1.919q.7.943,1.382,1.893-1.075-.365-2.191-.718c-.421.651-.822,1.313-1.214,1.961q-.094-1.166-.163-2.342-1.124-.3-2.289-.582l2.213-.874c-.035-.785-.066-1.583-.081-2.367" transform="translate(-49.12 -13.015)" fill="#ffffc5"/>
          <path id="Trazado_1004737" data-name="Trazado 1004737" d="M119.95,21.733q.6,1.029,1.166,2.064c.781-.136,1.56-.289,2.344-.41-.566.55-1.113,1.13-1.649,1.69q.554,1.037,1.082,2.079-1.008-.522-2.058-1.037c-.516.571-1.01,1.175-1.494,1.755q.082-1.167.19-2.341-1.066-.463-2.174-.916l2.318-.536c.083-.782.173-1.578.276-2.349" transform="translate(-57.86 -10.43)" fill="#ffffc5"/>
          <path id="Trazado_1004738" data-name="Trazado 1004738" d="M138.658,19.35q.436,1.108.845,2.216l2.378-.059q-.962.715-1.882,1.43.394,1.11.761,2.219-.92-.668-1.882-1.336c-.595.5-1.175,1.012-1.741,1.515q.256-1.142.539-2.285-.986-.619-2.013-1.234l2.372-.18c.2-.761.407-1.532.623-2.286" transform="translate(-66.94 -9.248)" fill="#ffffc5"/>
          <path id="Trazado_1004739" data-name="Trazado 1004739" d="M157.568,19.831c.179.759.348,1.543.509,2.312l2.36.3q-1.057.562-2.072,1.13.224,1.156.423,2.309c-.54-.53-1.093-1.077-1.662-1.6q-.994.618-1.945,1.239.422-1.09.87-2.178c-.589-.505-1.191-1.02-1.808-1.521l2.372.177q.464-1.087.955-2.171" transform="translate(-76.155 -9.486)" fill="#ffffc5"/>
          <path id="Trazado_1004740" data-name="Trazado 1004740" d="M176.272,23.17c.064.775.113,1.577.157,2.361l2.288.652q-1.129.4-2.219.806.049,1.177.072,2.347c-.455-.6-.918-1.229-1.4-1.829q-1.075.461-2.108.932.58-1.014,1.185-2.022c-.506-.586-1.024-1.192-1.561-1.771.776.161,1.546.352,2.319.527q.622-1,1.269-2" transform="translate(-85.303 -11.142)" fill="#ffffc5"/>
          <path id="Trazado_1004741" data-name="Trazado 1004741" d="M194.147,29.313c-.058.789-.126,1.578-.2,2.363l2.166.983c-.783.147-1.556.306-2.315.467q-.128,1.169-.28,2.329c-.358-.667-.728-1.343-1.113-2.021q-1.132.3-2.225.608.726-.916,1.476-1.822c-.412-.657-.836-1.325-1.277-1.987l2.214.87q.766-.9,1.556-1.79" transform="translate(-93.98 -14.189)" fill="#ffffc5"/>
          <path id="Trazado_1004742" data-name="Trazado 1004742" d="M210.61,38.133q-.265,1.159-.551,2.3c.663.434,1.344.843,1.993,1.3-.783.008-1.584.069-2.356.112q-.3,1.136-.623,2.258-.384-1.067-.8-2.159c-.766.066-1.54.171-2.29.266q.856-.8,1.734-1.584-.466-1.066-.968-2.153l2.062,1.187c.594-.517,1.2-1.036,1.8-1.531" transform="translate(-101.818 -18.564)" fill="#ffffc5"/>
          <path id="Trazado_1004743" data-name="Trazado 1004743" d="M225.67,49.168q-.432,1.105-.884,2.194c.593.526,1.215,1.021,1.777,1.582-.769-.115-1.567-.177-2.343-.242q-.464,1.078-.948,2.139-.225-1.109-.481-2.246c-.755-.064-1.543-.065-2.3-.082q.966-.664,1.952-1.311-.3-1.12-.643-2.264l1.87,1.47c.669-.429,1.326-.83,2-1.238" transform="translate(-109.015 -23.922)" fill="#ffffc5"/>
          <path id="Trazado_1004744" data-name="Trazado 1004744" d="M239.007,62.051q-.589,1.028-1.2,2.037l.779.9c.258.3.493.62.742.929L238.2,65.6l-1.149-.273q-.617,1-1.25,1.973-.063-1.127-.152-2.286l-1.121-.234-1.137-.191q1.055-.516,2.127-1.012-.14-1.148-.309-2.327c.545.576,1.1,1.142,1.635,1.727q1.071-.473,2.159-.926" transform="translate(-115.416 -30.03)" fill="#ffffc5"/>
          <path id="Trazado_1004745" data-name="Trazado 1004745" d="M250.33,76.837q-.733.928-1.481,1.835c.211.335.434.664.636,1l.594,1.031c-.724-.322-1.417-.646-2.16-.923-.507.6-1.006,1.179-1.532,1.767.079-.754.131-1.508.186-2.282-.723-.269-1.425-.535-2.166-.757.746-.236,1.5-.467,2.255-.686.022-.772.03-1.55.032-2.343.451.652.939,1.279,1.359,1.952q1.13-.31,2.275-.6" transform="translate(-120.879 -37.09)" fill="#ffffc5"/>
          <path id="Trazado_1004746" data-name="Trazado 1004746" d="M259.38,93.209q-.862.808-1.735,1.593c.343.716.614,1.462.909,2.2-.671-.425-1.309-.848-1.992-1.237-.582.511-1.181,1.02-1.787,1.522.212-.742.356-1.472.529-2.229-.683-.37-1.327-.742-2.024-1.074.778-.124,1.554-.238,2.322-.338.159-.771.262-1.529.385-2.314.358.708.739,1.4,1.051,2.134q1.165-.138,2.342-.253" transform="translate(-125.279 -44.949)" fill="#ffffc5"/>
          <path id="Trazado_1004747" data-name="Trazado 1004747" d="M265.935,110.814q-.973.67-1.952,1.313c.235.758.377,1.54.566,2.31-.6-.521-1.176-1.033-1.781-1.524-.651.417-1.333.834-2,1.237.327-.7.579-1.4.86-2.124-.617-.469-1.213-.929-1.836-1.366.791-.007,1.557,0,2.34.016.284-.741.492-1.474.731-2.231.259.75.515,1.5.717,2.268q1.174.038,2.355.1" transform="translate(-128.509 -53.44)" fill="#ffffc5"/>
          <path id="Trazado_1004748" data-name="Trazado 1004748" d="M269.832,129.258q-1.062.516-2.127,1.005c.119.785.143,1.579.214,2.369-.513-.605-1.005-1.2-1.532-1.774-.706.315-1.441.624-2.164.924.429-.647.781-1.3,1.168-1.972-.539-.556-1.062-1.1-1.608-1.627.781.112,1.537.237,2.309.367.392-.69.711-1.383,1.058-2.1l.21,1.171c.066.391.1.786.158,1.179q1.155.214,2.313.453" transform="translate(-130.489 -62.373)" fill="#ffffc5"/>
          <path id="Trazado_1004749" data-name="Trazado 1004749" d="M270.909,148.113q-1.128.352-2.255.679c0,.793-.074,1.584-.135,2.374-.421-.674-.8-1.333-1.259-1.981-.751.207-1.5.406-2.266.595.5-.578.959-1.172,1.441-1.779-.453-.63-.873-1.246-1.353-1.848q1.134.34,2.237.706c.483-.624.9-1.263,1.353-1.915.018.793.055,1.585.018,2.378q1.109.383,2.218.79" transform="translate(-131.09 -71.544)" fill="#ffffc5"/>
          <path id="Trazado_1004750" data-name="Trazado 1004750" d="M268.826,166.968q-1.17.181-2.334.336c-.074.39-.132.783-.218,1.169l-.268,1.159c-.312-.729-.595-1.437-.951-2.146-.778.092-1.538.178-2.326.25.574-.5,1.122-1.015,1.689-1.543-.353-.69-.672-1.36-1.067-2.028.706.335,1.426.681,2.114,1.031.553-.548,1.077-1.115,1.619-1.694-.111.785-.174,1.577-.333,2.355q1.039.542,2.074,1.111" transform="translate(-129.966 -80.748)" fill="#ffffc5"/>
          <path id="Trazado_1004751" data-name="Trazado 1004751" d="M264.024,185.4q-1.182,0-2.357-.018c-.24.757-.539,1.491-.832,2.228-.2-.769-.37-1.51-.616-2.264-.779-.025-1.552-.056-2.341-.1.65-.4,1.263-.834,1.9-1.271-.247-.735-.46-1.445-.75-2.165.649.437,1.3.886,1.934,1.337.633-.458,1.233-.941,1.857-1.431-.226.76-.412,1.532-.684,2.278q.946.692,1.884,1.411" transform="translate(-127.56 -89.783)" fill="#ffffc5"/>
          <path id="Trazado_1004752" data-name="Trazado 1004752" d="M256.61,202.53q-1.169-.173-2.325-.37c-.346.714-.77,1.386-1.158,2.077-.083-.789-.155-1.557-.267-2.329-.761-.139-1.54-.3-2.306-.457.718-.293,1.376-.635,2.077-.969-.134-.765-.248-1.5-.414-2.252.583.533,1.146,1.067,1.705,1.608.71-.35,1.361-.744,2.054-1.135-.327.722-.644,1.45-1.02,2.149q.832.827,1.654,1.678" transform="translate(-123.928 -97.974)" fill="#ffffc5"/>
          <path id="Trazado_1004753" data-name="Trazado 1004753" d="M246.77,218.341q-1.128-.344-2.241-.71c-.461.645-.972,1.253-1.456,1.881q.054-1.188.083-2.343-1.117-.389-2.219-.8c.749-.187,1.473-.41,2.2-.647q-.023-1.16-.07-2.287.728.91,1.438,1.839c.753-.241,1.471-.524,2.2-.813l-.643,1-.688.97q.7.943,1.388,1.908" transform="translate(-119.158 -105.517)" fill="#ffffc5"/>
          <path id="Trazado_1004754" data-name="Trazado 1004754" d="M234.741,232.58q-1.064-.506-2.109-1.031l-1.72,1.643q.226-1.17.421-2.312-1.046-.548-2.073-1.115c.759-.084,1.53-.176,2.278-.31q.146-1.154.263-2.279.585,1.007,1.152,2.034l1.161-.215c.384-.079.76-.17,1.144-.259-.508.61-1.064,1.175-1.611,1.75q.556,1.038,1.094,2.095" transform="translate(-113.365 -112.331)" fill="#ffffc5"/>
          <path id="Trazado_1004755" data-name="Trazado 1004755" d="M220.791,244.946c-.65-.436-1.293-.879-1.939-1.34l-1.938,1.379q.393-1.129.753-2.233-.952-.7-1.883-1.406c.754.018,1.544.058,2.3.035q.311-1.125.59-2.223.431,1.084.842,2.184c.774-.032,1.581-.045,2.353-.124-.591.529-1.238.991-1.854,1.49q.4,1.111.775,2.237" transform="translate(-106.68 -118.275)" fill="#ffffc5"/>
          <path id="Trazado_1004756" data-name="Trazado 1004756" d="M205.223,255.164c-.578-.528-1.158-1.078-1.724-1.622l-2.117,1.086q.555-1.061,1.072-2.1-.838-.829-1.652-1.668c.745.133,1.508.269,2.274.382q.472-1.069.908-2.119.266,1.139.51,2.289c.77.083,1.562.175,2.349.231-.677.413-1.371.8-2.057,1.2q.23,1.157.436,2.329" transform="translate(-99.25 -123.215)" fill="#ffffc5"/>
          <path id="Trazado_1004757" data-name="Trazado 1004757" d="M188.367,262.987q-.744-.928-1.463-1.866c-.752.251-1.5.517-2.255.756.476-.632.931-1.284,1.376-1.919q-.7-.943-1.382-1.894,1.075.365,2.191.718c.421-.651.822-1.313,1.214-1.961q.094,1.166.163,2.342,1.124.3,2.289.582l-2.213.874c.035.785.066,1.583.081,2.367" transform="translate(-91.235 -127.036)" fill="#ffffc5"/>
          <path id="Trazado_1004758" data-name="Trazado 1004758" d="M170.042,268.223q-.6-1.029-1.166-2.064c-.781.136-1.56.289-2.344.41.566-.55,1.113-1.13,1.649-1.69q-.554-1.037-1.082-2.079,1.008.522,2.058,1.037c.516-.571,1.01-1.175,1.495-1.755q-.082,1.167-.191,2.341,1.066.463,2.174.916l-2.318.536c-.083.782-.172,1.578-.276,2.349" transform="translate(-82.252 -129.645)" fill="#ffffc5"/>
          <path id="Trazado_1004759" data-name="Trazado 1004759" d="M151.223,270.76q-.435-1.108-.845-2.216L148,268.6q.962-.715,1.882-1.431-.394-1.109-.761-2.219.92.668,1.882,1.336c.595-.5,1.175-1.012,1.741-1.515q-.256,1.142-.539,2.285.986.618,2.013,1.233l-2.372.181c-.2.76-.407,1.532-.623,2.285" transform="translate(-73.059 -130.981)" fill="#ffffc5"/>
          <path id="Trazado_1004760" data-name="Trazado 1004760" d="M92.062,148.9A56.837,56.837,0,1,1,148.9,92.062,56.9,56.9,0,0,1,92.062,148.9" transform="translate(-17.122 -17.122)" fill="#d35560"/>
        </g>
      </g>
      <g id="Grupo_1180053" data-name="Grupo 1180053" transform="translate(39.422 38.995)">
        <rect id="Rectángulo_401104" data-name="Rectángulo 401104" width="71.038" height="71.894" transform="translate(0)" fill="#d35560"/>
      </g>
    </g>
    <g id="Grupo_1187654" data-name="Grupo 1187654" transform="translate(445.48 9469.44)">
      <g id="Grupo_1187653" data-name="Grupo 1187653" clip-path="url(#clip-path-2)">
        <path id="Trazado_1032040" data-name="Trazado 1032040" d="M145.936,118.037q7.653-.336,15.354-.177c1.915.3,2.507,1.423,2.711,3.208l0,27.877-.43.261c0,.167-.041.425-.145.43-1.1.054-8.754.161-9.085-.152a.911.911,0,0,1-.227-.472q.088-8.528-.119-17.006l-.792-.416h-20.53l-.789.414q-.092,8.694-.263,17.361l-.43.271q-4.73-.11-9.384.158l-.316.465-.026,18.426a1.626,1.626,0,0,1,.386,1.159l-2.182-.016.071-51.577c0-.168.045-.427.149-.43,6.631-.143,13.458,0,20.061.177a17.246,17.246,0,0,0,5.987.038" transform="translate(-93.955 -92.461)" fill="#dadada"/>
        <path id="Trazado_1032041" data-name="Trazado 1032041" d="M262.016,162.209l-2.177.025c.411-.251.982-.564.983-1.125l.018-18.2a1.3,1.3,0,0,0-1.288-1.308l0-28.131a2.606,2.606,0,0,0-2.6-2.8l-13.737.01a2.448,2.448,0,0,1-1.3-.248,16.211,16.211,0,0,0,4.752-2.355l15.46.012Z" transform="translate(-189.938 -84.85)" fill="#b9b8b8"/>
        <path id="Trazado_1032042" data-name="Trazado 1032042" d="M140.208,110.391a1.566,1.566,0,0,1-1.1.283L120,110.645l.014-2.559,15.44-.011a15.2,15.2,0,0,0,4.755,2.316" transform="translate(-94.215 -84.853)" fill="#b9b8b8"/>
        <path id="Trazado_1032043" data-name="Trazado 1032043" d="M168.5,198.165c.841-.964,1.5.387,1.718,1.334l-.019,18.2q-.075,1-1.411,1.1H126.782c-.245-.249-.813-.565-.814-1.125l-.018-18.2a1.274,1.274,0,0,1,1.3-1.3l9.012-.01.007-16.742a1.265,1.265,0,0,1,1.309-1.3h20.577a1.268,1.268,0,0,1,1.309,1.3l.006,16.746Z" transform="translate(-98.887 -141.419)" fill="#040504"/>
        <path id="Trazado_1032044" data-name="Trazado 1032044" d="M249.523,276.125l.428.2-.087,10.027c-.274,2.071-1.19,2.838-3.226,3.075l-12.419-.1-.251-.432-.015-12.8,5.155-.006.007,6.441a1.308,1.308,0,0,0,1.3,1.306l5.14-.011a1.266,1.266,0,0,0,1.289-1.294l.012-6.423Z" transform="translate(-183.685 -216.766)" fill="#92613f"/>
        <path id="Trazado_1032045" data-name="Trazado 1032045" d="M191.446,199.153c.019.65.8,1.081,1.323,1.081l5.18,0a1.367,1.367,0,0,0,1.329-1.119l.066-6.493,2.815.014q.142,5.187.068,10.407c-.3,1.9-1.407,2.592-3.207,2.794l-12.4-.019-.188-.28.006-12.9,4.895-.029Z" transform="translate(-146.377 -151.226)" fill="#b27749"/>
        <path id="Trazado_1032046" data-name="Trazado 1032046" d="M143.447,282.944c.019.645.807,1.076,1.323,1.077l5.178.006a1.38,1.38,0,0,0,1.331-1.118l.066-6.493a6.64,6.64,0,0,1,2.9.222l-.009,9.887c-.217,1.95-1.035,2.839-3,3.077l-12.608.006-.189-.279.005-12.9,4.9-.028Z" transform="translate(-108.692 -216.967)" fill="#a87044"/>
        <path id="Trazado_1032047" data-name="Trazado 1032047" d="M143.07,282.746l-.189-6.432-4.707,0-.012,12.682,12.686-.019a2.589,2.589,0,0,0,2.576-2.773l.014-9.906-2.351.025-.184,6.391-.052-6.619,5.158.018v15.459l-18.05,0,0-15.468,5.158,0Z" transform="translate(-108.314 -216.769)" fill="#9e6740"/>
        <path id="Trazado_1032048" data-name="Trazado 1032048" d="M191.071,198.741l-.189-6.431-4.706,0-.013,12.684,12.478.006a2.685,2.685,0,0,0,2.787-2.4l.011-10.313-2.35.026-.184,6.39-.052-6.62,5.156.01V207.56H185.96l0-15.466,5.158,0Z" transform="translate(-146.002 -150.814)" fill="#a86f47"/>
        <path id="Trazado_1032049" data-name="Trazado 1032049" d="M234.022,288.981l12.663.105a2.7,2.7,0,0,0,2.806-2.809l.085-10.066,2.482-.012V291.65l-18.02,0Z" transform="translate(-183.738 -216.853)" fill="#80543a"/>
        <path id="Trazado_1032050" data-name="Trazado 1032050" d="M224.56,197.274l-2.589.019v-5.124l2.577,0Z" transform="translate(-174.276 -150.878)" fill="#e3e5e4"/>
        <path id="Trazado_1032051" data-name="Trazado 1032051" d="M176.56,281.274l-2.589.019v-5.124l2.577,0Z" transform="translate(-136.59 -216.829)" fill="#e3e5e4"/>
        <path id="Trazado_1032052" data-name="Trazado 1032052" d="M272.56,281.274l-2.589.019v-5.124l2.577,0Z" transform="translate(-211.963 -216.829)" fill="#e3e5e4"/>
        <path id="Trazado_1032053" data-name="Trazado 1032053" d="M72.078,77.359l-.429-.151.062-53.546-14.835-.052c-1.414,1.052-3.071,2.084-4.9,1.965l-.567.512-2.6.161a3.319,3.319,0,0,1-2.824-.71c-1.8.183-3.5-.9-4.911-1.933l-14.715.057a4.55,4.55,0,0,0-.152,1.842l-.431.287.43.206q-.035,25.548-.07,51.106l-.43.266L23.2,77.343l0-16.707-3.85-.011L19.323,61.9a1.265,1.265,0,0,1-1.29,1.291l-5.118.02a3.874,3.874,0,0,0,.012,1.278l5.3.033a1.2,1.2,0,0,1,1.1,1.252v3.861a1.26,1.26,0,0,1-1.288,1.291l-5.141.019.006,2.57,3.849.005A1.245,1.245,0,0,1,18.031,74.8v2.56l-2.549,0L15.45,76.1H12.9l-.03,1.263H10.324l-.03-1.263H7.74l-.03,1.263-2.552-.006V74.8a1.239,1.239,0,0,1,1.284-1.278l3.849-.008.006-2.571-5.141-.019a1.27,1.27,0,0,1-1.289-1.291V65.778A1.243,1.243,0,0,1,5.153,64.5l5.11,0a3.85,3.85,0,0,0,.012-1.286L5.157,63.19A1.276,1.276,0,0,1,3.867,61.9L3.84,60.633l-2.554-.02A1.268,1.268,0,0,1,0,59.318V54.176a1.249,1.249,0,0,1,1.284-1.284L3.8,52.873a1.39,1.39,0,0,0-.15-1.356c-.723.268-2.275.076-2.282-.843L1.28,40a1.265,1.265,0,0,1,1.309-1.288l18.011,0A1.255,1.255,0,0,1,21.9,40l.013,10.085a1.5,1.5,0,0,1-.443,1.182c-.76.6-2.02.148-2.116.451a3.621,3.621,0,0,0-.008,1.112l3.859.04-.032-29.7c-.957.255-2.473.062-2.478-.862L20.6,3.913a1.294,1.294,0,0,1,1.327-1.3l19.31-.007a12.8,12.8,0,0,1,15.494,0l19.494.019a1.241,1.241,0,0,1,1.118,1.28l0,18.007a1.285,1.285,0,0,1-1.287,1.309l-1.288.068,0,54.037Z" transform="translate(0 0)" fill="#040504"/>
        <path id="Trazado_1032054" data-name="Trazado 1032054" d="M40.285,239.69l-10.313.029V228.11l10.312.006Z" transform="translate(-23.531 -179.096)" fill="#646464"/>
        <path id="Trazado_1032055" data-name="Trazado 1032055" d="M28.585,192.153c.171.1.353.284.283.436a53.243,53.243,0,0,1-4.247,4.294l-1.034.414-4.279.016a1.255,1.255,0,0,0-1.224.886l-.064-2.721a6.254,6.254,0,0,1,3.5-3.328Z" transform="translate(-14.148 -150.863)" fill="#e3e5e4"/>
        <path id="Trazado_1032056" data-name="Trazado 1032056" d="M52.82,192.169c.106.132.246.35.169.439a39.522,39.522,0,0,1-4.1,4.124,2.72,2.72,0,0,1-1.186.583l-3.778-.007,4.449-4.369a1.747,1.747,0,0,0,.55-.774Z" transform="translate(-34.486 -150.875)" fill="#9dc1d3"/>
        <path id="Trazado_1032057" data-name="Trazado 1032057" d="M67.614,194.82a3.458,3.458,0,0,1-2.663,2.5l-3.444.006,5.118-5.147.99.025Z" transform="translate(-48.29 -150.888)" fill="#dadad9"/>
        <path id="Trazado_1032058" data-name="Trazado 1032058" d="M40.179,313.387l-10.224.008a3.48,3.48,0,0,1,0-1.293l10.227,0a3.718,3.718,0,0,1,0,1.286" transform="translate(-23.47 -245.04)" fill="#646464"/>
        <path id="Trazado_1032059" data-name="Trazado 1032059" d="M93.857,260.7l-3.851,0,0-2.556h3.852Z" transform="translate(-70.664 -202.677)" fill="#3d8fcf"/>
        <path id="Trazado_1032060" data-name="Trazado 1032060" d="M21.517,192.15l-3.5,3.328,0-3.325Z" transform="translate(-14.141 -150.863)" fill="#9dc0d2"/>
        <path id="Trazado_1032061" data-name="Trazado 1032061" d="M77.535,206.962a30.5,30.5,0,0,0,2.663-2.5l-.059,3.411c-.2-.458-.463-.867-1.044-.878Z" transform="translate(-60.875 -160.527)" fill="#9abed0"/>
        <path id="Trazado_1032062" data-name="Trazado 1032062" d="M13.294,260.732a3.5,3.5,0,0,1-1.293.02l0-2.522,1.279.012Z" transform="translate(-9.421 -202.745)" fill="#3d8fcf"/>
        <path id="Trazado_1032063" data-name="Trazado 1032063" d="M123.407,39.582l-15.453.025V24.132l15.473,0a12.8,12.8,0,0,0-.019,15.445" transform="translate(-84.757 -18.947)" fill="#3d8fcf"/>
        <path id="Trazado_1032064" data-name="Trazado 1032064" d="M291.43,39.591l-15.456,0a12.822,12.822,0,0,0-.02-15.458l15.475,0Z" transform="translate(-216.661 -18.949)" fill="#3d8fcf"/>
        <path id="Trazado_1032065" data-name="Trazado 1032065" d="M239.971,33.71c-.01-.345.176-.462.466-.675a11.576,11.576,0,0,0,0-18.541c-.289-.214-.481-.33-.461-.675a10.266,10.266,0,0,1-.007,19.891" transform="translate(-188.408 -10.85)" fill="#b29b59"/>
        <path id="Trazado_1032066" data-name="Trazado 1032066" d="M191.964,12.37q-.11.166.192-.018l.853.2c7.357,4.257,7.365,15.637-.007,19.891a11.2,11.2,0,0,1-4.138.226q.107-.239-.368-.052a10.093,10.093,0,0,1-8.186-8.2q.271-.966-.054-.366a11.2,11.2,0,0,1,0-3.118q.241.141.054-.366a9.842,9.842,0,0,1,8.188-8.185q.726.23.361-.053a8.4,8.4,0,0,1,3.1.035" transform="translate(-141.441 -9.585)" fill="#cdb772"/>
        <path id="Trazado_1032067" data-name="Trazado 1032067" d="M180.7,64.285l-.054-.366a3.131,3.131,0,0,1,.161-.94,1.144,1.144,0,0,1-.107,1.306" transform="translate(-141.835 -49.447)" fill="#d6bf77"/>
        <path id="Trazado_1032068" data-name="Trazado 1032068" d="M219.368,106.265l-.368-.052a.8.8,0,0,1,1.107-.094c-.339.171-.555.083-.739.145" transform="translate(-171.944 -83.179)" fill="#d8c078"/>
        <path id="Trazado_1032069" data-name="Trazado 1032069" d="M180.663,51.508l.054-.366a.826.826,0,0,1,.1,1.094,2.044,2.044,0,0,1-.15-.729" transform="translate(-141.844 -40.153)" fill="#d9c178"/>
        <path id="Trazado_1032070" data-name="Trazado 1032070" d="M231.767,12.88a.651.651,0,0,1,.192-.018.766.766,0,0,1-1.114.125,2.535,2.535,0,0,1,.922-.107" transform="translate(-181.244 -10.095)" fill="#d8c077"/>
        <path id="Trazado_1032071" data-name="Trazado 1032071" d="M219.379,12.8a2.087,2.087,0,0,1,.731.149.82.82,0,0,1-1.092-.1Z" transform="translate(-171.958 -10.05)" fill="#dac279"/>
        <path id="Trazado_1032072" data-name="Trazado 1032072" d="M210.44,36.164l-2.572.006-.022-2.556L204,33.6l0-2.557,7.709-.018V28.453l-6.422-.009A1.262,1.262,0,0,1,204,27.153V22.01a1.256,1.256,0,0,1,1.285-1.287l2.564-.024.013-2.54,2.567-.013.021,2.558,3.844.013,0,2.581-7.707.007.006,2.561,6.425.014a1.26,1.26,0,0,1,1.285,1.287v5.142a1.257,1.257,0,0,1-1.284,1.292l-2.57.024Z" transform="translate(-160.165 -14.246)" fill="#040504"/>
      </g>
    </g>
  </g>
</svg>
