<svg xmlns="http://www.w3.org/2000/svg" xmlns:xlink="http://www.w3.org/1999/xlink" width="150" height="150" viewBox="0 0 150 150">
  <defs>
    <clipPath id="clip-path">
      <rect id="Rectángulo_456277" data-name="Rectángulo 456277" width="150" height="150" transform="translate(-0.059 -0.059)" fill="#d35560"/>
    </clipPath>
    <clipPath id="clip-path-2">
      <rect id="Rectángulo_459915" data-name="Rectángulo 459915" width="75.073" height="82.538" fill="none"/>
    </clipPath>
    <clipPath id="clip-path-3">
      <path id="Trazado_1032342" data-name="Trazado 1032342" d="M54.4,207.641a13.347,13.347,0,0,0-2.241,1.324l.008,31.357a2.634,2.634,0,0,0,2.227,2.672l13.561.04c.381.006.48-.046.214-.362-1.2-.433-2.248-1.556-3.453-2.093l-7.275-.095c-1.379-.018-2.1-.952-2.765-2.157q.1-15.423-.045-30.745Z" transform="translate(-52.159 -207.58)" fill="none"/>
    </clipPath>
    <linearGradient id="linear-gradient" x1="-0.628" y1="1.063" x2="-0.615" y2="1.063" gradientUnits="objectBoundingBox">
      <stop offset="0" stop-color="#00346b"/>
      <stop offset="0.778" stop-color="#00356c"/>
      <stop offset="1" stop-color="#004592"/>
    </linearGradient>
  </defs>
  <g id="Grupo_1186007" data-name="Grupo 1186007" transform="translate(-413.192 -9435.133)">
    <g id="Grupo_1180081" data-name="Grupo 1180081" transform="translate(413.25 9435.191)">
      <g id="Grupo_1179924" data-name="Grupo 1179924" transform="translate(0 0)">
        <g id="Grupo_1179923" data-name="Grupo 1179923" transform="translate(0 0)" clip-path="url(#clip-path)">
          <path id="Trazado_1004716" data-name="Trazado 1004716" d="M74.59,149.181c-2.423,0-4.689-2.768-7.051-3-2.407-.235-5.167,2.037-7.5,1.574-2.367-.47-4.049-3.628-6.329-4.321-2.305-.7-5.459.985-7.662.069-2.222-.923-3.251-4.35-5.356-5.479s-5.541-.1-7.528-1.432-2.336-4.9-4.186-6.418-5.412-1.171-7.107-2.865-1.342-5.254-2.865-7.107-5.082-2.192-6.418-4.186-.3-5.41-1.432-7.527-4.556-3.135-5.48-5.356c-.916-2.2.77-5.357.07-7.662-.693-2.28-3.85-3.961-4.32-6.329C.962,86.809,3.234,84.048,3,81.642c-.231-2.363-3-4.629-3-7.052S2.768,69.9,3,67.539c.235-2.407-2.037-5.166-1.573-7.5.47-2.367,3.627-4.049,4.32-6.329.7-2.306-.985-5.459-.069-7.663.924-2.222,4.35-3.251,5.48-5.356s.1-5.54,1.432-7.528,4.9-2.336,6.418-4.186,1.171-5.412,2.866-7.107,5.254-1.342,7.107-2.865,2.192-5.082,4.186-6.418,5.41-.3,7.528-1.432,3.134-4.556,5.356-5.48c2.2-.916,5.357.77,7.663.069,2.28-.692,3.961-3.85,6.328-4.32C62.372.962,65.133,3.234,67.539,3c2.363-.231,4.629-3,7.052-3s4.689,2.768,7.051,3c2.407.235,5.167-2.037,7.5-1.574,2.367.47,4.049,3.628,6.329,4.321,2.305.7,5.459-.985,7.662-.069,2.222.923,3.251,4.35,5.356,5.48s5.541.1,7.528,1.432,2.337,4.9,4.186,6.418,5.412,1.171,7.107,2.866,1.342,5.254,2.865,7.107,5.082,2.192,6.418,4.186.3,5.41,1.432,7.528,4.556,3.135,5.479,5.356c.916,2.2-.77,5.357-.069,7.662.693,2.28,3.85,3.961,4.32,6.328.463,2.333-1.809,5.093-1.574,7.5.231,2.363,3,4.629,3,7.051s-2.768,4.689-3,7.052c-.235,2.406,2.037,5.166,1.574,7.5-.47,2.367-3.627,4.049-4.32,6.329-.7,2.305.985,5.459.069,7.662-.924,2.222-4.35,3.251-5.48,5.357s-.1,5.54-1.432,7.528-4.9,2.336-6.418,4.186-1.171,5.412-2.866,7.107-5.254,1.342-7.107,2.865-2.192,5.081-4.186,6.418-5.41.3-7.528,1.432-3.134,4.557-5.356,5.48c-2.2.916-5.357-.77-7.662-.069-2.28.692-3.961,3.85-6.328,4.32-2.333.463-5.093-1.809-7.5-1.574-2.363.231-4.629,3-7.052,3" transform="translate(0.35 0.35)" fill="#d35560"/>
          <path id="Trazado_1004717" data-name="Trazado 1004717" d="M14,81.535a67.535,67.535,0,1,1,67.535,67.535A67.535,67.535,0,0,1,14,81.535" transform="translate(-6.594 -6.594)" fill="#4d787e"/>
          <path id="Trazado_1004718" data-name="Trazado 1004718" d="M132.334,270.213c-.179-.759-.348-1.543-.509-2.312l-2.36-.3q1.057-.562,2.072-1.13-.225-1.156-.423-2.309c.54.53,1.093,1.077,1.663,1.6q.994-.618,1.945-1.239-.422,1.09-.87,2.178c.589.505,1.191,1.019,1.808,1.521l-2.372-.177q-.464,1.087-.955,2.171" transform="translate(-63.866 -130.676)" fill="#ffffc5"/>
          <path id="Trazado_1004719" data-name="Trazado 1004719" d="M113.789,266.762c-.064-.775-.113-1.577-.157-2.361l-2.288-.652q1.129-.4,2.219-.806-.049-1.177-.072-2.347c.455.6.919,1.229,1.4,1.829q1.075-.461,2.108-.932-.58,1.014-1.185,2.022c.507.586,1.024,1.192,1.561,1.772-.776-.161-1.546-.353-2.319-.528q-.621,1-1.269,2" transform="translate(-54.878 -128.909)" fill="#ffffc5"/>
          <path id="Trazado_1004720" data-name="Trazado 1004720" d="M96.012,260.643c.058-.789.127-1.579.2-2.363l-2.166-.983c.783-.146,1.556-.305,2.315-.467q.129-1.169.28-2.329c.358.667.728,1.343,1.113,2.021q1.132-.3,2.225-.608-.726.916-1.477,1.822c.413.657.836,1.325,1.277,1.987l-2.214-.87q-.766.9-1.556,1.79" transform="translate(-46.299 -125.885)" fill="#ffffc5"/>
          <path id="Trazado_1004721" data-name="Trazado 1004721" d="M79.414,251.99q.265-1.159.551-2.3c-.663-.434-1.344-.843-1.993-1.3.783-.008,1.584-.069,2.356-.112q.3-1.136.623-2.258.384,1.067.8,2.159c.766-.066,1.54-.171,2.29-.266q-.856.8-1.734,1.584.466,1.066.968,2.153l-2.062-1.187c-.594.517-1.2,1.036-1.8,1.531" transform="translate(-38.325 -121.677)" fill="#ffffc5"/>
          <path id="Trazado_1004722" data-name="Trazado 1004722" d="M64.353,241.022q.432-1.105.885-2.194c-.593-.526-1.215-1.021-1.777-1.582.769.115,1.567.177,2.343.242q.464-1.078.948-2.139.225,1.109.481,2.247c.755.064,1.543.065,2.3.082q-.965.664-1.952,1.311.3,1.12.643,2.265l-1.87-1.471c-.669.429-1.327.83-2,1.238" transform="translate(-31.127 -116.386)" fill="#ffffc5"/>
          <path id="Trazado_1004723" data-name="Trazado 1004723" d="M51.149,227.995q.589-1.028,1.2-2.037l-.779-.9c-.258-.3-.494-.62-.741-.929l1.128.317,1.149.273q.617-1,1.25-1.973.063,1.127.152,2.286l1.121.234,1.138.191q-1.055.516-2.127,1.012.14,1.148.309,2.327c-.545-.576-1.1-1.142-1.635-1.727q-1.07.473-2.159.926" transform="translate(-24.859 -110.134)" fill="#ffffc5"/>
          <path id="Trazado_1004724" data-name="Trazado 1004724" d="M39.841,213.191q.733-.928,1.481-1.835c-.212-.336-.434-.664-.637-1l-.594-1.031c.724.322,1.417.646,2.16.923.507-.6,1.006-1.179,1.532-1.767-.079.754-.131,1.508-.186,2.282.723.269,1.425.535,2.166.758-.746.236-1.5.467-2.255.686-.022.772-.029,1.551-.032,2.344-.451-.652-.939-1.279-1.359-1.952q-1.13.31-2.275.6" transform="translate(-19.411 -103.056)" fill="#ffffc5"/>
          <path id="Trazado_1004725" data-name="Trazado 1004725" d="M30.615,196.931q.862-.808,1.735-1.593c-.343-.716-.614-1.462-.909-2.2.671.425,1.309.848,1.992,1.237.582-.511,1.181-1.02,1.787-1.522-.212.742-.356,1.472-.529,2.229.683.37,1.327.742,2.024,1.074-.778.124-1.554.238-2.322.338-.159.771-.262,1.529-.386,2.314-.358-.707-.739-1.4-1.051-2.133q-1.165.138-2.342.253" transform="translate(-14.835 -95.309)" fill="#ffffc5"/>
          <path id="Trazado_1004726" data-name="Trazado 1004726" d="M24.019,179.289q.973-.669,1.952-1.313c-.235-.758-.377-1.54-.566-2.31.6.522,1.176,1.033,1.781,1.524.651-.417,1.333-.834,2-1.237-.326.7-.579,1.4-.86,2.124.617.469,1.213.929,1.836,1.366-.791.008-1.557,0-2.34-.016-.284.741-.492,1.474-.731,2.231-.259-.75-.515-1.5-.717-2.268q-1.174-.038-2.355-.1" transform="translate(-11.564 -86.782)" fill="#ffffc5"/>
          <path id="Trazado_1004727" data-name="Trazado 1004727" d="M20.215,160.664q1.062-.516,2.127-1.005c-.119-.785-.143-1.579-.214-2.369.513.605,1.005,1.2,1.532,1.774.706-.315,1.441-.624,2.164-.924-.429.647-.781,1.3-1.168,1.972.539.556,1.062,1.1,1.608,1.627-.781-.112-1.537-.237-2.309-.368-.392.69-.711,1.384-1.058,2.1l-.21-1.171c-.066-.391-.1-.786-.158-1.179q-1.155-.214-2.313-.453" transform="translate(-9.677 -77.667)" fill="#ffffc5"/>
          <path id="Trazado_1004728" data-name="Trazado 1004728" d="M19.269,141.764q1.128-.352,2.255-.679c0-.793.074-1.584.135-2.374.421.674.8,1.333,1.259,1.981.751-.207,1.5-.406,2.266-.595-.5.578-.959,1.172-1.441,1.779.453.63.873,1.246,1.353,1.848q-1.134-.34-2.237-.706c-.483.624-.9,1.263-1.353,1.915-.018-.792-.055-1.585-.018-2.378q-1.109-.382-2.218-.79" transform="translate(-9.207 -68.451)" fill="#ffffc5"/>
          <path id="Trazado_1004729" data-name="Trazado 1004729" d="M21.174,123q1.169-.181,2.333-.336c.074-.39.132-.783.218-1.169l.268-1.159c.312.729.595,1.437.951,2.146.778-.092,1.538-.178,2.325-.25-.574.5-1.122,1.015-1.688,1.543.353.69.672,1.36,1.067,2.028-.706-.335-1.426-.681-2.114-1.031-.553.548-1.077,1.115-1.619,1.694.111-.785.174-1.577.333-2.355q-1.039-.543-2.074-1.112" transform="translate(-10.152 -59.337)" fill="#ffffc5"/>
          <path id="Trazado_1004730" data-name="Trazado 1004730" d="M25.928,104.79q1.182,0,2.357.018c.239-.757.539-1.491.832-2.228.2.769.37,1.51.616,2.264.779.025,1.552.056,2.341.1-.65.4-1.263.834-1.9,1.271.247.736.46,1.445.75,2.165-.649-.438-1.3-.887-1.934-1.337-.633.458-1.233.941-1.857,1.432.226-.761.412-1.533.684-2.279q-.946-.692-1.884-1.411" transform="translate(-12.51 -50.53)" fill="#ffffc5"/>
          <path id="Trazado_1004731" data-name="Trazado 1004731" d="M33.429,87.557q1.169.173,2.325.37c.346-.714.77-1.386,1.158-2.077.083.789.155,1.557.267,2.329.761.139,1.54.3,2.306.457-.718.293-1.376.634-2.077.969.134.765.248,1.5.414,2.252-.582-.533-1.146-1.067-1.705-1.608-.709.35-1.361.744-2.054,1.134.327-.722.644-1.45,1.02-2.149q-.833-.827-1.654-1.678" transform="translate(-16.231 -42.232)" fill="#ffffc5"/>
          <path id="Trazado_1004732" data-name="Trazado 1004732" d="M43.489,71.68q1.128.345,2.241.71c.461-.645.972-1.253,1.456-1.881q-.054,1.188-.083,2.343,1.117.389,2.219.8c-.749.187-1.473.41-2.2.647q.023,1.16.07,2.287-.728-.91-1.438-1.839c-.753.241-1.471.524-2.2.813l.643-1,.688-.97q-.7-.943-1.388-1.908" transform="translate(-21.221 -34.623)" fill="#ffffc5"/>
          <path id="Trazado_1004733" data-name="Trazado 1004733" d="M55.356,57.5q1.064.506,2.109,1.031l1.72-1.643q-.226,1.17-.421,2.312,1.046.548,2.073,1.115c-.759.084-1.53.176-2.278.31Q58.413,61.78,58.3,62.9q-.585-1.008-1.152-2.034l-1.161.215c-.384.079-.76.17-1.144.259.508-.61,1.064-1.175,1.611-1.75q-.556-1.038-1.094-2.095" transform="translate(-26.851 -27.867)" fill="#ffffc5"/>
          <path id="Trazado_1004734" data-name="Trazado 1004734" d="M69.217,45.319c.65.436,1.293.879,1.939,1.34l1.938-1.379q-.394,1.129-.753,2.233.952.7,1.883,1.406c-.754-.018-1.544-.058-2.3-.035q-.311,1.124-.59,2.223-.431-1.084-.841-2.184c-.774.032-1.582.045-2.354.123.592-.529,1.238-.991,1.854-1.49q-.4-1.111-.775-2.237" transform="translate(-33.447 -22.109)" fill="#ffffc5"/>
          <path id="Trazado_1004735" data-name="Trazado 1004735" d="M84.831,34.886c.578.528,1.158,1.078,1.724,1.623l2.117-1.086q-.555,1.061-1.073,2.1.838.828,1.652,1.667c-.745-.133-1.508-.269-2.274-.382q-.473,1.07-.908,2.119-.266-1.138-.51-2.288c-.77-.084-1.562-.176-2.349-.232.677-.412,1.372-.8,2.057-1.2q-.23-1.158-.436-2.33" transform="translate(-40.923 -16.954)" fill="#ffffc5"/>
          <path id="Trazado_1004736" data-name="Trazado 1004736" d="M101.868,26.946q.744.928,1.463,1.866c.752-.251,1.5-.517,2.255-.756-.476.632-.93,1.284-1.376,1.919q.7.943,1.382,1.893-1.075-.365-2.191-.718c-.421.651-.822,1.313-1.214,1.961q-.094-1.166-.163-2.342-1.124-.3-2.289-.582l2.213-.874c-.035-.785-.066-1.583-.081-2.367" transform="translate(-49.12 -13.015)" fill="#ffffc5"/>
          <path id="Trazado_1004737" data-name="Trazado 1004737" d="M119.95,21.733q.6,1.029,1.166,2.064c.781-.136,1.56-.289,2.344-.41-.566.55-1.113,1.13-1.649,1.69q.554,1.037,1.082,2.079-1.008-.522-2.058-1.037c-.516.571-1.01,1.175-1.494,1.755q.082-1.167.19-2.341-1.066-.463-2.174-.916l2.318-.536c.083-.782.173-1.578.276-2.349" transform="translate(-57.86 -10.43)" fill="#ffffc5"/>
          <path id="Trazado_1004738" data-name="Trazado 1004738" d="M138.658,19.35q.436,1.108.845,2.216l2.378-.059q-.962.715-1.882,1.43.394,1.11.761,2.219-.92-.668-1.882-1.336c-.595.5-1.175,1.012-1.741,1.515q.256-1.142.539-2.285-.986-.619-2.013-1.234l2.372-.18c.2-.761.407-1.532.623-2.286" transform="translate(-66.94 -9.248)" fill="#ffffc5"/>
          <path id="Trazado_1004739" data-name="Trazado 1004739" d="M157.568,19.831c.179.759.348,1.543.509,2.312l2.36.3q-1.057.562-2.072,1.13.224,1.156.423,2.309c-.54-.53-1.093-1.077-1.662-1.6q-.994.618-1.945,1.239.422-1.09.87-2.178c-.589-.505-1.191-1.02-1.808-1.521l2.372.177q.464-1.087.955-2.171" transform="translate(-76.155 -9.486)" fill="#ffffc5"/>
          <path id="Trazado_1004740" data-name="Trazado 1004740" d="M176.272,23.17c.064.775.113,1.577.157,2.361l2.288.652q-1.129.4-2.219.806.049,1.177.072,2.347c-.455-.6-.918-1.229-1.4-1.829q-1.075.461-2.108.932.58-1.014,1.185-2.022c-.506-.586-1.024-1.192-1.561-1.771.776.161,1.546.352,2.319.527q.622-1,1.269-2" transform="translate(-85.303 -11.142)" fill="#ffffc5"/>
          <path id="Trazado_1004741" data-name="Trazado 1004741" d="M194.147,29.313c-.058.789-.126,1.578-.2,2.363l2.166.983c-.783.147-1.556.306-2.315.467q-.128,1.169-.28,2.329c-.358-.667-.728-1.343-1.113-2.021q-1.132.3-2.225.608.726-.916,1.476-1.822c-.412-.657-.836-1.325-1.277-1.987l2.214.87q.766-.9,1.556-1.79" transform="translate(-93.98 -14.189)" fill="#ffffc5"/>
          <path id="Trazado_1004742" data-name="Trazado 1004742" d="M210.61,38.133q-.265,1.159-.551,2.3c.663.434,1.344.843,1.993,1.3-.783.008-1.584.069-2.356.112q-.3,1.136-.623,2.258-.384-1.067-.8-2.159c-.766.066-1.54.171-2.29.266q.856-.8,1.734-1.584-.466-1.066-.968-2.153l2.062,1.187c.594-.517,1.2-1.036,1.8-1.531" transform="translate(-101.818 -18.564)" fill="#ffffc5"/>
          <path id="Trazado_1004743" data-name="Trazado 1004743" d="M225.67,49.168q-.432,1.105-.884,2.194c.593.526,1.215,1.021,1.777,1.582-.769-.115-1.567-.177-2.343-.242q-.464,1.078-.948,2.139-.225-1.109-.481-2.246c-.755-.064-1.543-.065-2.3-.082q.966-.664,1.952-1.311-.3-1.12-.643-2.264l1.87,1.47c.669-.429,1.326-.83,2-1.238" transform="translate(-109.015 -23.922)" fill="#ffffc5"/>
          <path id="Trazado_1004744" data-name="Trazado 1004744" d="M239.007,62.051q-.589,1.028-1.2,2.037l.779.9c.258.3.493.62.742.929L238.2,65.6l-1.149-.273q-.617,1-1.25,1.973-.063-1.127-.152-2.286l-1.121-.234-1.137-.191q1.055-.516,2.127-1.012-.14-1.148-.309-2.327c.545.576,1.1,1.142,1.635,1.727q1.071-.473,2.159-.926" transform="translate(-115.416 -30.03)" fill="#ffffc5"/>
          <path id="Trazado_1004745" data-name="Trazado 1004745" d="M250.33,76.837q-.733.928-1.481,1.835c.211.335.434.664.636,1l.594,1.031c-.724-.322-1.417-.646-2.16-.923-.507.6-1.006,1.179-1.532,1.767.079-.754.131-1.508.186-2.282-.723-.269-1.425-.535-2.166-.757.746-.236,1.5-.467,2.255-.686.022-.772.03-1.55.032-2.343.451.652.939,1.279,1.359,1.952q1.13-.31,2.275-.6" transform="translate(-120.879 -37.09)" fill="#ffffc5"/>
          <path id="Trazado_1004746" data-name="Trazado 1004746" d="M259.38,93.209q-.862.808-1.735,1.593c.343.716.614,1.462.909,2.2-.671-.425-1.309-.848-1.992-1.237-.582.511-1.181,1.02-1.787,1.522.212-.742.356-1.472.529-2.229-.683-.37-1.327-.742-2.024-1.074.778-.124,1.554-.238,2.322-.338.159-.771.262-1.529.385-2.314.358.708.739,1.4,1.051,2.134q1.165-.138,2.342-.253" transform="translate(-125.279 -44.949)" fill="#ffffc5"/>
          <path id="Trazado_1004747" data-name="Trazado 1004747" d="M265.935,110.814q-.973.67-1.952,1.313c.235.758.377,1.54.566,2.31-.6-.521-1.176-1.033-1.781-1.524-.651.417-1.333.834-2,1.237.327-.7.579-1.4.86-2.124-.617-.469-1.213-.929-1.836-1.366.791-.007,1.557,0,2.34.016.284-.741.492-1.474.731-2.231.259.75.515,1.5.717,2.268q1.174.038,2.355.1" transform="translate(-128.509 -53.44)" fill="#ffffc5"/>
          <path id="Trazado_1004748" data-name="Trazado 1004748" d="M269.832,129.258q-1.062.516-2.127,1.005c.119.785.143,1.579.214,2.369-.513-.605-1.005-1.2-1.532-1.774-.706.315-1.441.624-2.164.924.429-.647.781-1.3,1.168-1.972-.539-.556-1.062-1.1-1.608-1.627.781.112,1.537.237,2.309.367.392-.69.711-1.383,1.058-2.1l.21,1.171c.066.391.1.786.158,1.179q1.155.214,2.313.453" transform="translate(-130.489 -62.373)" fill="#ffffc5"/>
          <path id="Trazado_1004749" data-name="Trazado 1004749" d="M270.909,148.113q-1.128.352-2.255.679c0,.793-.074,1.584-.135,2.374-.421-.674-.8-1.333-1.259-1.981-.751.207-1.5.406-2.266.595.5-.578.959-1.172,1.441-1.779-.453-.63-.873-1.246-1.353-1.848q1.134.34,2.237.706c.483-.624.9-1.263,1.353-1.915.018.793.055,1.585.018,2.378q1.109.383,2.218.79" transform="translate(-131.09 -71.544)" fill="#ffffc5"/>
          <path id="Trazado_1004750" data-name="Trazado 1004750" d="M268.826,166.968q-1.17.181-2.334.336c-.074.39-.132.783-.218,1.169l-.268,1.159c-.312-.729-.595-1.437-.951-2.146-.778.092-1.538.178-2.326.25.574-.5,1.122-1.015,1.689-1.543-.353-.69-.672-1.36-1.067-2.028.706.335,1.426.681,2.114,1.031.553-.548,1.077-1.115,1.619-1.694-.111.785-.174,1.577-.333,2.355q1.039.542,2.074,1.111" transform="translate(-129.966 -80.748)" fill="#ffffc5"/>
          <path id="Trazado_1004751" data-name="Trazado 1004751" d="M264.024,185.4q-1.182,0-2.357-.018c-.24.757-.539,1.491-.832,2.228-.2-.769-.37-1.51-.616-2.264-.779-.025-1.552-.056-2.341-.1.65-.4,1.263-.834,1.9-1.271-.247-.735-.46-1.445-.75-2.165.649.437,1.3.886,1.934,1.337.633-.458,1.233-.941,1.857-1.431-.226.76-.412,1.532-.684,2.278q.946.692,1.884,1.411" transform="translate(-127.56 -89.783)" fill="#ffffc5"/>
          <path id="Trazado_1004752" data-name="Trazado 1004752" d="M256.61,202.53q-1.169-.173-2.325-.37c-.346.714-.77,1.386-1.158,2.077-.083-.789-.155-1.557-.267-2.329-.761-.139-1.54-.3-2.306-.457.718-.293,1.376-.635,2.077-.969-.134-.765-.248-1.5-.414-2.252.583.533,1.146,1.067,1.705,1.608.71-.35,1.361-.744,2.054-1.135-.327.722-.644,1.45-1.02,2.149q.832.827,1.654,1.678" transform="translate(-123.928 -97.974)" fill="#ffffc5"/>
          <path id="Trazado_1004753" data-name="Trazado 1004753" d="M246.77,218.341q-1.128-.344-2.241-.71c-.461.645-.972,1.253-1.456,1.881q.054-1.188.083-2.343-1.117-.389-2.219-.8c.749-.187,1.473-.41,2.2-.647q-.023-1.16-.07-2.287.728.91,1.438,1.839c.753-.241,1.471-.524,2.2-.813l-.643,1-.688.97q.7.943,1.388,1.908" transform="translate(-119.158 -105.517)" fill="#ffffc5"/>
          <path id="Trazado_1004754" data-name="Trazado 1004754" d="M234.741,232.58q-1.064-.506-2.109-1.031l-1.72,1.643q.226-1.17.421-2.312-1.046-.548-2.073-1.115c.759-.084,1.53-.176,2.278-.31q.146-1.154.263-2.279.585,1.007,1.152,2.034l1.161-.215c.384-.079.76-.17,1.144-.259-.508.61-1.064,1.175-1.611,1.75q.556,1.038,1.094,2.095" transform="translate(-113.365 -112.331)" fill="#ffffc5"/>
          <path id="Trazado_1004755" data-name="Trazado 1004755" d="M220.791,244.946c-.65-.436-1.293-.879-1.939-1.34l-1.938,1.379q.393-1.129.753-2.233-.952-.7-1.883-1.406c.754.018,1.544.058,2.3.035q.311-1.125.59-2.223.431,1.084.842,2.184c.774-.032,1.581-.045,2.353-.124-.591.529-1.238.991-1.854,1.49q.4,1.111.775,2.237" transform="translate(-106.68 -118.275)" fill="#ffffc5"/>
          <path id="Trazado_1004756" data-name="Trazado 1004756" d="M205.223,255.164c-.578-.528-1.158-1.078-1.724-1.622l-2.117,1.086q.555-1.061,1.072-2.1-.838-.829-1.652-1.668c.745.133,1.508.269,2.274.382q.472-1.069.908-2.119.266,1.139.51,2.289c.77.083,1.562.175,2.349.231-.677.413-1.371.8-2.057,1.2q.23,1.157.436,2.329" transform="translate(-99.25 -123.215)" fill="#ffffc5"/>
          <path id="Trazado_1004757" data-name="Trazado 1004757" d="M188.367,262.987q-.744-.928-1.463-1.866c-.752.251-1.5.517-2.255.756.476-.632.931-1.284,1.376-1.919q-.7-.943-1.382-1.894,1.075.365,2.191.718c.421-.651.822-1.313,1.214-1.961q.094,1.166.163,2.342,1.124.3,2.289.582l-2.213.874c.035.785.066,1.583.081,2.367" transform="translate(-91.235 -127.036)" fill="#ffffc5"/>
          <path id="Trazado_1004758" data-name="Trazado 1004758" d="M170.042,268.223q-.6-1.029-1.166-2.064c-.781.136-1.56.289-2.344.41.566-.55,1.113-1.13,1.649-1.69q-.554-1.037-1.082-2.079,1.008.522,2.058,1.037c.516-.571,1.01-1.175,1.495-1.755q-.082,1.167-.191,2.341,1.066.463,2.174.916l-2.318.536c-.083.782-.172,1.578-.276,2.349" transform="translate(-82.252 -129.645)" fill="#ffffc5"/>
          <path id="Trazado_1004759" data-name="Trazado 1004759" d="M151.223,270.76q-.435-1.108-.845-2.216L148,268.6q.962-.715,1.882-1.431-.394-1.109-.761-2.219.92.668,1.882,1.336c.595-.5,1.175-1.012,1.741-1.515q-.256,1.142-.539,2.285.986.618,2.013,1.233l-2.372.181c-.2.76-.407,1.532-.623,2.285" transform="translate(-73.059 -130.981)" fill="#ffffc5"/>
          <path id="Trazado_1004760" data-name="Trazado 1004760" d="M92.062,148.9A56.837,56.837,0,1,1,148.9,92.062,56.9,56.9,0,0,1,92.062,148.9" transform="translate(-17.122 -17.122)" fill="#d35560"/>
        </g>
      </g>
      <g id="Grupo_1180053" data-name="Grupo 1180053" transform="translate(39.422 38.995)">
        <rect id="Rectángulo_401104" data-name="Rectángulo 401104" width="71.038" height="71.894" transform="translate(0)" fill="#d35560"/>
      </g>
    </g>
    <g id="Grupo_1187671" data-name="Grupo 1187671" transform="translate(450.655 9468.863)">
      <g id="Grupo_1187666" data-name="Grupo 1187666">
        <g id="Grupo_1187665" data-name="Grupo 1187665" clip-path="url(#clip-path-2)">
          <path id="Trazado_1032340" data-name="Trazado 1032340" d="M61.271,82.5l-47.146.04A5.152,5.152,0,0,1,8.83,77.546L8.78,47.379,5.379,49.3a3.032,3.032,0,0,1-2.7.317A3.415,3.415,0,0,1,.872,47.6c-1.146-1.3-1.282-3.487.313-4.424l7.6-4.464.039-26.223a5.076,5.076,0,0,1,5.035-4.971l7.405-.03c-.04-1.113.547-2.423,1.725-2.437l8.44-.093a6.231,6.231,0,0,1,12.2,0l8.442.093c1.182.013,1.762,1.324,1.729,2.437l7.391.03a5.068,5.068,0,0,1,5.054,4.949l.054,7.522,3.832-2.186c1.748-1,3.392.306,4.153,1.95.408.881.939,1.589.748,2.552a3.215,3.215,0,0,1-1.63,2.175l-7.126,4.11-.036,48.944a5.056,5.056,0,0,1-4.97,4.959" transform="translate(0 0)" fill="#040504"/>
          <path id="Trazado_1032341" data-name="Trazado 1032341" d="M61.536,101.771l2.3-1.461q.054-.411.271-.278c.291.451.958,1.015,1.618.636L80.1,92.42a4.572,4.572,0,0,1,1.209,2.264l-31.476,18.17a1.22,1.22,0,0,1-1.616-.6l-4.563-7.9a1.988,1.988,0,0,0-2.774-.779L12.334,120.041a7.085,7.085,0,0,1-1.263-2.244l31.6-18.24a1.158,1.158,0,0,1,1.447.463l4.831,8.26a2.013,2.013,0,0,0,2.786.508l9.37-5.436c.621-.361.409-1.158.433-1.581" transform="translate(-8.692 -72.557)" fill="#80ba4b"/>
        </g>
      </g>
      <g id="Grupo_1187668" data-name="Grupo 1187668" transform="translate(11.21 44.614)">
        <g id="Grupo_1187667" data-name="Grupo 1187667" clip-path="url(#clip-path-3)">
          <rect id="Rectángulo_459916" data-name="Rectángulo 459916" width="17.157" height="35.854" transform="matrix(1, -0.025, 0.025, 1, -0.886, 0.022)" fill="url(#linear-gradient)"/>
        </g>
      </g>
      <g id="Grupo_1187670" data-name="Grupo 1187670">
        <g id="Grupo_1187669" data-name="Grupo 1187669" clip-path="url(#clip-path-2)">
          <path id="Trazado_1032343" data-name="Trazado 1032343" d="M105.007,181.308c.232-.046.216.242.048.393q-.121,1.556-.216,3.065c-.243.144-.823.4-.827.827l-.045,5.351c0,.155-.056.274-.2.245q-.151-2.567-.12-5.262a36.9,36.9,0,0,1-.11,5.29,29.988,29.988,0,0,1-4.242.005l-.241-.323.015-14.065-.191-.313,4.443-2.579q.26.064.455-.251c.142-.026.227.084.212.26v6.457a.949.949,0,0,0,1.02.9" transform="translate(-77.625 -136.358)" fill="#da203e"/>
          <path id="Trazado_1032344" data-name="Trazado 1032344" d="M54.644,46.876l7.834.041a10.268,10.268,0,0,1-.09,2.389l-4.346,0c-1.075,0-2.7.8-2.7,2.115l-.054,20.4c0,.346-.012.546-.2.726q-.1-.124-.2.205a6.259,6.259,0,0,1-1.769,1.012l-.215.046q-.067-12.487-.166-24.945c0-.991,1.08-1.785,1.907-1.994" transform="translate(-41.403 -36.801)" fill="#004592"/>
          <path id="Trazado_1032345" data-name="Trazado 1032345" d="M232.979,167.654c.219-.038.243,0,.243.149l-.016,18.51-.241.148a.832.832,0,0,0-.234-.023q-1.878-.149-3.793-.243l-.146-.067.068-15.587a.338.338,0,0,1,.131-.566Z" transform="translate(-179.592 -131.61)" fill="#0cb1eb"/>
          <path id="Trazado_1032346" data-name="Trazado 1032346" d="M167.931,180.571a.793.793,0,0,1,.286.685v11.3a40.161,40.161,0,0,1-4.623-.08l-.009-16.272c.013-.41.03-.743.462-.48l1.812,3.082a4.28,4.28,0,0,0,2.073,1.765" transform="translate(-128.426 -137.883)" fill="#ffb32d"/>
          <path id="Trazado_1032347" data-name="Trazado 1032347" d="M263.1,49.01a70.856,70.856,0,0,0,.035,9.094,11.735,11.735,0,0,1-2.505,1.506l0-7.379a2.853,2.853,0,0,0-2.9-2.947l-3.232-.018a1.381,1.381,0,0,1,0-2.237l.066-.194q3.316.031,6.6.007A2.456,2.456,0,0,1,263.1,49.01" transform="translate(-199.353 -36.77)" fill="#00356c"/>
          <path id="Trazado_1032348" data-name="Trazado 1032348" d="M256.6,82.474l-.271.278-.072-12.481q1.778-.16,3.689-.216l.1,9.208-2.764,1.6a1.4,1.4,0,0,0-.679,1.608" transform="translate(-201.178 -54.999)" fill="#8cd5f0"/>
          <path id="Trazado_1032349" data-name="Trazado 1032349" d="M230.591,35.469l-.02,8.583a1.124,1.124,0,0,1-1.109,1.11l-1.094,0a1.7,1.7,0,0,1,.137-.624l-.015-8.815c-.273-.1-.216-.18.108-.253a3.692,3.692,0,0,1,1.992,0" transform="translate(-179.246 -27.737)" fill="#689ed5"/>
          <path id="Trazado_1032350" data-name="Trazado 1032350" d="M163.28,172.77c-.457.3-.259.759-.259,1.271l.024,15.467,4.3,0V178.329c-.061-.21-.363-.47-.179-.712l.392.071c.188,3.947.185,8.1,0,12.044l-4.949-.01.049-17.854c.386.187.449.605.623.9" transform="translate(-127.66 -134.93)" fill="#ffb82e"/>
          <path id="Trazado_1032351" data-name="Trazado 1032351" d="M305.631,182.556,305.622,133a.218.218,0,0,1,.21-.134l.009,49.557c0,.06-.125.148-.21.134" transform="translate(-239.937 -104.308)" fill="#070808"/>
          <path id="Trazado_1032352" data-name="Trazado 1032352" d="M248.338,185.8,248.352,167c.111-.065.148-.3.379-.143.128.084.106.217.106.427l-.017,18.4c0,.083-.412.158-.483.125" transform="translate(-194.964 -130.952)" fill="#11b8f0"/>
          <path id="Trazado_1032353" data-name="Trazado 1032353" d="M226.919,195.809a.267.267,0,0,1-.358-.241l.069-15.936q.344-.1.491.075.108,8.1-.2,16.1" transform="translate(-177.868 -140.997)" fill="#0dbbf3"/>
          <path id="Trazado_1032354" data-name="Trazado 1032354" d="M62.863,237.785l-.061-30.4a.259.259,0,0,0-.214-.281c.125-.4.627-.172.437.224Z" transform="translate(-49.136 -162.426)" fill="#004592"/>
          <path id="Trazado_1032355" data-name="Trazado 1032355" d="M42.637,250.863l-.012-30.857c0-.06.125-.147.206-.128l.012,30.857c0,.06-.125.147-.206.128" transform="translate(-33.464 -172.619)" fill="#070808"/>
          <path id="Trazado_1032356" data-name="Trazado 1032356" d="M99.058,201.575c-.135,0-.483-.042-.482-.289l.064-14.412a.386.386,0,0,1,.384.262Z" transform="translate(-77.39 -146.71)" fill="#e32341"/>
          <path id="Trazado_1032357" data-name="Trazado 1032357" d="M42.636,82l-.014-26.988c0-.06.126-.147.205-.127l.014,26.988c0,.06-.125.147-.2.127" transform="translate(-33.462 -43.084)" fill="#070808"/>
          <path id="Trazado_1032358" data-name="Trazado 1032358" d="M53.025,81.045c.047.2-.25.334-.407.163l.026-25.063a.2.2,0,0,1,.193.218V80.373a1.316,1.316,0,0,0,.189.673" transform="translate(-41.309 -44.077)" fill="#00499a"/>
          <path id="Trazado_1032359" data-name="Trazado 1032359" d="M62.911,89.043c0,.089-.142.154-.2.2L62.7,67.884c.075-.021.2.063.2.123Z" transform="translate(-49.223 -53.292)" fill="#004796"/>
          <path id="Trazado_1032360" data-name="Trazado 1032360" d="M69.352,48.554l-.017-2.2-7.49,0a.26.26,0,0,1-.237-.233,2.853,2.853,0,0,1,.852-.206l7.089.011.025,2.167a.547.547,0,0,1-.221.459" transform="translate(-48.367 -36.049)" fill="#00499b"/>
          <path id="Trazado_1032361" data-name="Trazado 1032361" d="M227.52,178.5l-.052,16.22c.169.1.15.173-.049.214a.665.665,0,0,0-.245.014l.087-15.893c0-.166-.133-.25-.376-.283a1.617,1.617,0,0,0,.636-.271" transform="translate(-178.121 -140.135)" fill="#00aeea"/>
          <path id="Trazado_1032362" data-name="Trazado 1032362" d="M258.317,46.121a.251.251,0,0,1-.224.243l-6.443-.057c-.1.667-1.091.282-1.351-.141a.62.62,0,0,1,.494-.246l6.682,0a2.894,2.894,0,0,1,.842.2" transform="translate(-196.504 -36.048)" fill="#003872"/>
          <path id="Trazado_1032363" data-name="Trazado 1032363" d="M62.556,371.174l13.532-.083a.244.244,0,0,0,.242-.24.531.531,0,0,1,.406.491Z" transform="translate(-49.111 -291.147)" fill="#00356d"/>
          <path id="Trazado_1032364" data-name="Trazado 1032364" d="M251.649,46.959a6.9,6.9,0,0,0,0,2.237,3.743,3.743,0,0,1-1.347-.041l0-2.337c.475-.221.971.138,1.351.141" transform="translate(-196.503 -36.699)" fill="#00438e"/>
          <path id="Trazado_1032365" data-name="Trazado 1032365" d="M85.877,207.784c-.086-.06-.151-.219-.412-.216l-.1-13.582c.106-.059.119-.335.389-.158.132.087.1.222.1.418Z" transform="translate(-67.016 -152.124)" fill="#99c1ce"/>
          <path id="Trazado_1032366" data-name="Trazado 1032366" d="M185.633,210.995V198.951a.22.22,0,0,1,.217.228v11.592a.2.2,0,0,1-.218.224" transform="translate(-145.736 -156.192)" fill="#ffb32d"/>
          <path id="Trazado_1032367" data-name="Trazado 1032367" d="M295.868,66.037c-.089-.033-.247-.121-.247-.287V57.173c0-.161.146-.249.211-.231Z" transform="translate(-232.085 -44.702)" fill="#003872"/>
          <path id="Trazado_1032368" data-name="Trazado 1032368" d="M207.2,32.143l-8.5.035a.2.2,0,0,1-.119-.188l8.5-.035a.2.2,0,0,1,.119.188" transform="translate(-155.901 -25.087)" fill="#080909"/>
          <path id="Trazado_1032369" data-name="Trazado 1032369" d="M119.2,32.143l-8.5.035a.2.2,0,0,1-.118-.188l8.5-.035a.2.2,0,0,1,.119.188" transform="translate(-86.815 -25.087)" fill="#080909"/>
          <path id="Trazado_1032370" data-name="Trazado 1032370" d="M305.651,63.111l-.036-8.07a.2.2,0,0,1,.187-.118l.035,8.07a.2.2,0,0,1-.186.118" transform="translate(-239.931 -43.119)" fill="#080808"/>
          <path id="Trazado_1032371" data-name="Trazado 1032371" d="M120,173.7l0,6.613a.232.232,0,0,1-.185.115l-.045-5.813a1.229,1.229,0,0,0-.23-.665A1.392,1.392,0,0,1,120,173.7" transform="translate(-93.854 -136.371)" fill="#e62341"/>
          <path id="Trazado_1032372" data-name="Trazado 1032372" d="M120.785,235.344l-.231.028.059-5.442a.24.24,0,0,1,.187.116Z" transform="translate(-94.644 -180.513)" fill="#e72442"/>
          <path id="Trazado_1032373" data-name="Trazado 1032373" d="M81.124,351.134l-4.414.048a.193.193,0,0,1-.115-.17l4.414-.048a.193.193,0,0,1,.115.169" transform="translate(-60.133 -275.535)" fill="#080909"/>
          <path id="Trazado_1032374" data-name="Trazado 1032374" d="M256.124,351.134l-4.414.048a.193.193,0,0,1-.115-.17l4.414-.048a.193.193,0,0,1,.115.169" transform="translate(-197.521 -275.535)" fill="#080909"/>
          <path id="Trazado_1032375" data-name="Trazado 1032375" d="M233.212,254.213l-3.842-.03.049-.214,3.659,0c.165,0,.251.161.134.241" transform="translate(-180.073 -199.385)" fill="#11b8f0"/>
          <path id="Trazado_1032376" data-name="Trazado 1032376" d="M259.941,69.874c-1.281.425-2.5.1-3.689.216a1.589,1.589,0,0,1,.1-.266Z" transform="translate(-201.178 -54.817)" fill="#9ad9ec"/>
          <path id="Trazado_1032377" data-name="Trazado 1032377" d="M126.816,214a.552.552,0,0,0-.227.035l-.009-2.651c0-.23.083-.391.225-.414Z" transform="translate(-99.375 -165.629)" fill="#d01936"/>
          <path id="Trazado_1032378" data-name="Trazado 1032378" d="M231.623,35.072h-1.992l.006-.205c.654.009,1.4-.188,1.986.205" transform="translate(-180.278 -27.34)" fill="#76aadc"/>
          <path id="Trazado_1032379" data-name="Trazado 1032379" d="M123.475,11.473a1.757,1.757,0,0,0,1.37,0,3.835,3.835,0,0,1,3.09,3.441,1.664,1.664,0,0,0,1.431,1.532q.06.193-.27.3,3.346.185,6.767.1l.026,8.96c.512.28.409.5-.137.623l-14.133.031a1.259,1.259,0,0,0-1.124,1.4,11.528,11.528,0,0,0-3.074-.264c-.162.046-.278.352-.37.533a1.341,1.341,0,0,0-.163-1.2,1.315,1.315,0,0,0-1.1-.49l-4.1.013a1.27,1.27,0,0,1-1.344-1.328l.017-7.95.1-.209q4.4-.122,8.77-.224l-.515-.242a1.852,1.852,0,0,0,1.707-1.778,3.793,3.793,0,0,1,3.056-3.245" transform="translate(-86.629 -9.007)" fill="#9ebde4"/>
          <path id="Trazado_1032380" data-name="Trazado 1032380" d="M119.287,35.442c-.006.083-.021.219-.219.219l-7.953,0a1.509,1.509,0,0,0-.693.218l.046-.433a67.275,67.275,0,0,1,8.819,0" transform="translate(-86.69 -27.711)" fill="#99b9e1"/>
          <path id="Trazado_1032381" data-name="Trazado 1032381" d="M118.94,34.782a1.431,1.431,0,0,1,.385-.007c.078.015.14.125.13.249h-8.819c-.005-.092.072-.19.227-.214Z" transform="translate(-86.858 -27.293)" fill="#afcdec"/>
          <path id="Trazado_1032382" data-name="Trazado 1032382" d="M204.474,34.7c.188.051.181.119-.006.2-.077.487-.226.59-.312.107q-3.312.084-6.574-.1a.277.277,0,0,1,.27-.3Z" transform="translate(-155.115 -27.172)" fill="#afcdec"/>
          <path id="Trazado_1032383" data-name="Trazado 1032383" d="M172.809,11.155c-.144.366-.456.379-.794.355-.234-.017-.47-.025-.576-.355a2.738,2.738,0,0,1,1.37,0" transform="translate(-134.593 -8.69)" fill="#a9c7e9"/>
          <path id="Trazado_1032384" data-name="Trazado 1032384" d="M143.712,60.73c-6.406.236-13.536.22-20.042.018a1.345,1.345,0,0,1-1.262-1.175,1.206,1.206,0,0,1,1.171-1.313l20.1,0a1.185,1.185,0,0,1,1.171,1.127,1.283,1.283,0,0,1-1.138,1.339" transform="translate(-96.099 -45.739)" fill="#060707"/>
          <path id="Trazado_1032385" data-name="Trazado 1032385" d="M171.371,24.089c.387,1.074-1.147,1.812-1.238,1.809.026,0-1.271-.756-1.083-1.662a1.241,1.241,0,0,1,1.1-1,1.206,1.206,0,0,1,1.224.852" transform="translate(-132.703 -18.24)" fill="#080909"/>
          <path id="Trazado_1032386" data-name="Trazado 1032386" d="M147.245,70.362c0,.084-.015.219-.237.219H126.835c-.222,0-.232-.135-.237-.219,6.754-.208,13.895-.231,20.647,0" transform="translate(-99.389 -55.111)" fill="#9abae2"/>
          <path id="Trazado_1032387" data-name="Trazado 1032387" d="M147,69.752a.228.228,0,0,1,.243.261H126.6c-.009-.151.081-.263.362-.243Z" transform="translate(-99.387 -54.761)" fill="#acc9ea"/>
          <path id="Trazado_1032388" data-name="Trazado 1032388" d="M204.476,35.972l-.093,9.068-.159-3.7.039-5.158-6.25.008c-.221.029-.4-.01-.422-.215Z" transform="translate(-155.123 -28.241)" fill="#99b9e1"/>
          <path id="Trazado_1032389" data-name="Trazado 1032389" d="M237.1,139.984l-.1,47.742a2.4,2.4,0,0,1-2.492,2.289l-13.657.049a.392.392,0,0,1,.361-.428c.249.123.484.162.2-.016,1.087-.718,2.192-1.4,3.233-2.145a46.233,46.233,0,0,0,7.8-.06c.732-.349,2.088-.93,2.089-2.144l.033-43.759Z" transform="translate(-173.381 -109.898)" fill="#00356c"/>
          <path id="Trazado_1032390" data-name="Trazado 1032390" d="M295.986,187.727l.1-47.742Z" transform="translate(-232.372 -109.899)" fill="#003872"/>
          <path id="Trazado_1032391" data-name="Trazado 1032391" d="M222.527,370.947l.2-.016,13.256.012c.059,0,.143.12.125.2l-13.32.024a.279.279,0,0,1-.26-.215" transform="translate(-174.701 -291.209)" fill="#003873"/>
          <path id="Trazado_1032392" data-name="Trazado 1032392" d="M246.291,360.673c-.2.139-.287.3-.658.3l-6.692-.017c-.239,0-.4-.077-.45-.226Z" transform="translate(-187.233 -283.156)" fill="#003875"/>
          <path id="Trazado_1032393" data-name="Trazado 1032393" d="M285.634,190.762,285.626,147a.206.206,0,0,1,.208-.131l.01,43.751a.238.238,0,0,1-.21.139" transform="translate(-224.238 -115.304)" fill="#003770"/>
          <path id="Trazado_1032394" data-name="Trazado 1032394" d="M257.129,195.152a30.381,30.381,0,0,0-4.223-.119l1.538-1.926a2.386,2.386,0,0,0,.112-3.119l-1.292-1.684a2.456,2.456,0,0,0,.315-1.321l.047-9.377a1.867,1.867,0,0,0-.593-.171,1.839,1.839,0,0,0,1.728-1.641l.026-21.224,2.615-1.524,0,41.853a.266.266,0,0,1-.277.253" transform="translate(-198.551 -120.153)" fill="#8bd5f0"/>
          <path id="Trazado_1032395" data-name="Trazado 1032395" d="M257.129,348.15l-4.223-.12,3.825-.1c.226,0,.387.081.4.221" transform="translate(-198.551 -273.151)" fill="#9edaea"/>
          <path id="Trazado_1032396" data-name="Trazado 1032396" d="M262.638,181.159l-.016-21.187a.185.185,0,0,1,.2-.134l.018,21.194c0,.06-.126.146-.2.127" transform="translate(-206.179 -125.483)" fill="#92d7f0"/>
          <path id="Trazado_1032397" data-name="Trazado 1032397" d="M104.655,163.688q.591-.121.512.629l.067,14.237.331.144a1.952,1.952,0,0,0,1.913,1.663l6.183-.026q1.106-.19,1.022.371l-.055,9.449q.02,1.215-.736,1.049c-5.893-6.154-14.326-9.81-22.871-7.213a25.61,25.61,0,0,0-12.528,8.488,2.765,2.765,0,0,0-.061,3.65l1.465,1.8-.6-.093a8.972,8.972,0,0,0-3.439,0q.073.132-.226.218c-.136,0-.258-.167-.258-.456l.015-31.5,2.131-1.191.1,13.582c.224-.444.323-.218.412.216a1.9,1.9,0,0,0,1.909,1.649l5.786.011a2.043,2.043,0,0,0,2.153-2.088l.009-5.38a1.423,1.423,0,0,0-.873-1.442q-.088-1.612-.179-3.3c-.182-.065-.169-.127.025-.185a1.006,1.006,0,0,0,.993-.907l.012-7.928a.455.455,0,0,1,.232-.433q.2,3.973.119,8.137-.082-4.121.089-8.163l2.555-1.5q.422-.106.346.721l.064,20.567.157.3-.118-21.793c-.069-.176.434-.339.434-.181l.026,21.685a1.92,1.92,0,0,0,1.962,1.864l6.107-.023a1.9,1.9,0,0,0,1.814-2.041l-.01-12.894Z" transform="translate(-59.179 -123.052)" fill="#bbe6f9"/>
          <path id="Trazado_1032398" data-name="Trazado 1032398" d="M147.9,157.878l.118,21.793c-.053.015-.129.2-.312.1L147.7,158.81c-.053-.32-.011-.6-.242-.728Z" transform="translate(-115.764 -123.946)" fill="#b8e5f7"/>
          <path id="Trazado_1032399" data-name="Trazado 1032399" d="M134.6,165.813a.494.494,0,0,0,.208-.026l0,8.1c0,.072-.116.14-.182.121Z" transform="translate(-105.67 -130.156)" fill="#c1e8f5"/>
          <path id="Trazado_1032400" data-name="Trazado 1032400" d="M80.246,347.361l.6.093-4.26.129a.279.279,0,0,1,.226-.218,9.011,9.011,0,0,1,3.439,0" transform="translate(-60.122 -272.575)" fill="#d1edf3"/>
          <path id="Trazado_1032401" data-name="Trazado 1032401" d="M127.355,209.213a10.1,10.1,0,0,1-.032,3.267l-.193,0a8.01,8.01,0,0,1-.012-3.03l-.048-.393.31-.025Z" transform="translate(-99.689 -164.103)" fill="#c68ea5"/>
          <path id="Trazado_1032402" data-name="Trazado 1032402" d="M128.789,213.189a.578.578,0,0,0-.211-.034l.032-3.267a.437.437,0,0,1,.2.43Z" transform="translate(-100.944 -164.778)" fill="#c1e7ef"/>
          <path id="Trazado_1032403" data-name="Trazado 1032403" d="M149.652,179.525l-.12-21.676c0-.143.109-.2,0-.116Z" transform="translate(-117.394 -123.801)" fill="#c9eaf5"/>
          <path id="Trazado_1032404" data-name="Trazado 1032404" d="M85.465,208.357l-.1-13.582Z" transform="translate(-67.016 -152.913)" fill="#c3e8f5"/>
          <path id="Trazado_1032405" data-name="Trazado 1032405" d="M199.152,210.066c-.128-4.393-.2-9.016.1-13.391l.157,13.562c-.232.092-.26-.1-.259-.171" transform="translate(-156.262 -154.405)" fill="#b8e5f7"/>
          <path id="Trazado_1032406" data-name="Trazado 1032406" d="M198.816,210.066a.214.214,0,0,1-.2-.235l0-12.858c0-.161.132-.247.3-.3Z" transform="translate(-155.926 -154.405)" fill="#c8eaf4"/>
          <path id="Trazado_1032407" data-name="Trazado 1032407" d="M134.752,235.979v-6.056a.2.2,0,0,1,.187.118l.008,5.593c0,.168,0,.275-.195.345" transform="translate(-105.791 -180.507)" fill="#c1e8f5"/>
          <path id="Trazado_1032408" data-name="Trazado 1032408" d="M81.072,346.721l-3.439,0c.023-.143.183-.228.417-.233l2.353-.045c.169,0,.343-.114.471-.042a.507.507,0,0,1,.2.316" transform="translate(-60.948 -271.935)" fill="#b5e4f5"/>
          <path id="Trazado_1032409" data-name="Trazado 1032409" d="M84.645,329.941a1.02,1.02,0,0,1,0-1.148,1.671,1.671,0,0,1,0,1.148" transform="translate(-66.316 -258.128)" fill="#d0edf3"/>
          <path id="Trazado_1032410" data-name="Trazado 1032410" d="M212.5,202.21c-.25.2-.315.467-.364.425a1.43,1.43,0,0,1-.3-.517l-.022-13.212a4.119,4.119,0,0,0-.227-1.706,4.214,4.214,0,0,1,.836-.512Z" transform="translate(-166.117 -146.564)" fill="#b8e5f7"/>
          <path id="Trazado_1032411" data-name="Trazado 1032411" d="M213.642,204.537l-.023-14.52c0-.065.126-.144.2-.121l.023,14.52c0,.065-.126.144-.2.121" transform="translate(-167.707 -149.08)" fill="#c3e8f5"/>
          <path id="Trazado_1032412" data-name="Trazado 1032412" d="M89.633,73.609q.108-.981.536-.973c.77-.086,2.765-.11,2.908.7.2.345.4.949,1.1.945l15.872-.109c2.178-.015,3.145-2.563,2.93-4.423.128-.573,1.022-.259,1.4-.255q.563.091-.1.266c.169.017.424.075.431.195.147,2.522.1,5.453.046,8a14.7,14.7,0,0,1-.405,4.281.524.524,0,0,1,.074.462c-.063.123-2.123,1.559-2.376,1-.41-.411-1.039-.835-1.634-.493l-9.2,5.289-4.407-7.65a3.633,3.633,0,0,0-5.115-1.3L75.426,88.939l0-19.449,5.133-.015c-.326,2.019.48,4.19,2.551,4.651l5.467.159a1.119,1.119,0,0,0,1.06-.676" transform="translate(-59.212 -54.491)" fill="#bbe6f9"/>
          <path id="Trazado_1032413" data-name="Trazado 1032413" d="M177.137,93.143l-16.469.02c-.06,0-.144-.126-.126-.2l16.249-.023c.178,0,.281-.008.346.2" transform="translate(-126.036 -72.964)" fill="#c8eaf4"/>
          <path id="Trazado_1032414" data-name="Trazado 1032414" d="M117.423,93.1l-5.722.042a.2.2,0,0,1-.117-.183l5.5-.048c.188,0,.271,0,.342.189" transform="translate(-87.602 -72.938)" fill="#c3e8f2"/>
          <path id="Trazado_1032415" data-name="Trazado 1032415" d="M104.406,315.586a20.132,20.132,0,0,1-6.985-5.913,21.377,21.377,0,0,1,7.048-6.069,11.777,11.777,0,0,0-.063,11.982" transform="translate(-76.483 -238.353)" fill="#fff"/>
          <path id="Trazado_1032416" data-name="Trazado 1032416" d="M225.9,309.573a19.981,19.981,0,0,1-7.037,6.029,11.612,11.612,0,0,0-.059-12.06,21.741,21.741,0,0,1,7.1,6.031" transform="translate(-171.781 -238.304)" fill="#fff"/>
          <path id="Trazado_1032417" data-name="Trazado 1032417" d="M140.992,290.989a8.793,8.793,0,1,1-7.122,10.337,8.759,8.759,0,0,1,7.122-10.337" transform="translate(-104.971 -228.342)" fill="#80ba4b"/>
          <path id="Trazado_1032418" data-name="Trazado 1032418" d="M150.877,323.306l-3.273-3.289a1.173,1.173,0,0,1,.164-1.767,1.216,1.216,0,0,1,1.648.181l2.955,2.93,4.611-4.575a1.193,1.193,0,0,1,1.685.2,1.23,1.23,0,0,1-.1,1.611l-4.723,4.719a2.088,2.088,0,0,1-2.968-.01" transform="translate(-115.622 -248.49)" fill="#040505"/>
        </g>
      </g>
    </g>
  </g>
</svg>
