<svg xmlns="http://www.w3.org/2000/svg" xmlns:xlink="http://www.w3.org/1999/xlink" width="150" height="150" viewBox="0 0 150 150">
  <defs>
    <clipPath id="clip-path">
      <rect id="Rectángulo_456277" data-name="Rectángulo 456277" width="150" height="150" transform="translate(-0.059 -0.059)" fill="#d35560"/>
    </clipPath>
    <clipPath id="clip-path-2">
      <rect id="Rectángulo_459913" data-name="Rectángulo 459913" width="77.722" height="77.729" fill="none"/>
    </clipPath>
  </defs>
  <g id="Grupo_1186009" data-name="Grupo 1186009" transform="translate(-413.192 -9435.133)">
    <g id="Grupo_1180081" data-name="Grupo 1180081" transform="translate(413.25 9435.191)">
      <g id="Grupo_1179924" data-name="Grupo 1179924" transform="translate(0 0)">
        <g id="Grupo_1179923" data-name="Grupo 1179923" transform="translate(0 0)" clip-path="url(#clip-path)">
          <path id="Trazado_1004716" data-name="Trazado 1004716" d="M74.59,149.181c-2.423,0-4.689-2.768-7.051-3-2.407-.235-5.167,2.037-7.5,1.574-2.367-.47-4.049-3.628-6.329-4.321-2.305-.7-5.459.985-7.662.069-2.222-.923-3.251-4.35-5.356-5.479s-5.541-.1-7.528-1.432-2.336-4.9-4.186-6.418-5.412-1.171-7.107-2.865-1.342-5.254-2.865-7.107-5.082-2.192-6.418-4.186-.3-5.41-1.432-7.527-4.556-3.135-5.48-5.356c-.916-2.2.77-5.357.07-7.662-.693-2.28-3.85-3.961-4.32-6.329C.962,86.809,3.234,84.048,3,81.642c-.231-2.363-3-4.629-3-7.052S2.768,69.9,3,67.539c.235-2.407-2.037-5.166-1.573-7.5.47-2.367,3.627-4.049,4.32-6.329.7-2.306-.985-5.459-.069-7.663.924-2.222,4.35-3.251,5.48-5.356s.1-5.54,1.432-7.528,4.9-2.336,6.418-4.186,1.171-5.412,2.866-7.107,5.254-1.342,7.107-2.865,2.192-5.082,4.186-6.418,5.41-.3,7.528-1.432,3.134-4.556,5.356-5.48c2.2-.916,5.357.77,7.663.069,2.28-.692,3.961-3.85,6.328-4.32C62.372.962,65.133,3.234,67.539,3c2.363-.231,4.629-3,7.052-3s4.689,2.768,7.051,3c2.407.235,5.167-2.037,7.5-1.574,2.367.47,4.049,3.628,6.329,4.321,2.305.7,5.459-.985,7.662-.069,2.222.923,3.251,4.35,5.356,5.48s5.541.1,7.528,1.432,2.337,4.9,4.186,6.418,5.412,1.171,7.107,2.866,1.342,5.254,2.865,7.107,5.082,2.192,6.418,4.186.3,5.41,1.432,7.528,4.556,3.135,5.479,5.356c.916,2.2-.77,5.357-.069,7.662.693,2.28,3.85,3.961,4.32,6.328.463,2.333-1.809,5.093-1.574,7.5.231,2.363,3,4.629,3,7.051s-2.768,4.689-3,7.052c-.235,2.406,2.037,5.166,1.574,7.5-.47,2.367-3.627,4.049-4.32,6.329-.7,2.305.985,5.459.069,7.662-.924,2.222-4.35,3.251-5.48,5.357s-.1,5.54-1.432,7.528-4.9,2.336-6.418,4.186-1.171,5.412-2.866,7.107-5.254,1.342-7.107,2.865-2.192,5.081-4.186,6.418-5.41.3-7.528,1.432-3.134,4.557-5.356,5.48c-2.2.916-5.357-.77-7.662-.069-2.28.692-3.961,3.85-6.328,4.32-2.333.463-5.093-1.809-7.5-1.574-2.363.231-4.629,3-7.052,3" transform="translate(0.35 0.35)" fill="#d35560"/>
          <path id="Trazado_1004717" data-name="Trazado 1004717" d="M14,81.535a67.535,67.535,0,1,1,67.535,67.535A67.535,67.535,0,0,1,14,81.535" transform="translate(-6.594 -6.594)" fill="#4d787e"/>
          <path id="Trazado_1004718" data-name="Trazado 1004718" d="M132.334,270.213c-.179-.759-.348-1.543-.509-2.312l-2.36-.3q1.057-.562,2.072-1.13-.225-1.156-.423-2.309c.54.53,1.093,1.077,1.663,1.6q.994-.618,1.945-1.239-.422,1.09-.87,2.178c.589.505,1.191,1.019,1.808,1.521l-2.372-.177q-.464,1.087-.955,2.171" transform="translate(-63.866 -130.676)" fill="#ffffc5"/>
          <path id="Trazado_1004719" data-name="Trazado 1004719" d="M113.789,266.762c-.064-.775-.113-1.577-.157-2.361l-2.288-.652q1.129-.4,2.219-.806-.049-1.177-.072-2.347c.455.6.919,1.229,1.4,1.829q1.075-.461,2.108-.932-.58,1.014-1.185,2.022c.507.586,1.024,1.192,1.561,1.772-.776-.161-1.546-.353-2.319-.528q-.621,1-1.269,2" transform="translate(-54.878 -128.909)" fill="#ffffc5"/>
          <path id="Trazado_1004720" data-name="Trazado 1004720" d="M96.012,260.643c.058-.789.127-1.579.2-2.363l-2.166-.983c.783-.146,1.556-.305,2.315-.467q.129-1.169.28-2.329c.358.667.728,1.343,1.113,2.021q1.132-.3,2.225-.608-.726.916-1.477,1.822c.413.657.836,1.325,1.277,1.987l-2.214-.87q-.766.9-1.556,1.79" transform="translate(-46.299 -125.885)" fill="#ffffc5"/>
          <path id="Trazado_1004721" data-name="Trazado 1004721" d="M79.414,251.99q.265-1.159.551-2.3c-.663-.434-1.344-.843-1.993-1.3.783-.008,1.584-.069,2.356-.112q.3-1.136.623-2.258.384,1.067.8,2.159c.766-.066,1.54-.171,2.29-.266q-.856.8-1.734,1.584.466,1.066.968,2.153l-2.062-1.187c-.594.517-1.2,1.036-1.8,1.531" transform="translate(-38.325 -121.677)" fill="#ffffc5"/>
          <path id="Trazado_1004722" data-name="Trazado 1004722" d="M64.353,241.022q.432-1.105.885-2.194c-.593-.526-1.215-1.021-1.777-1.582.769.115,1.567.177,2.343.242q.464-1.078.948-2.139.225,1.109.481,2.247c.755.064,1.543.065,2.3.082q-.965.664-1.952,1.311.3,1.12.643,2.265l-1.87-1.471c-.669.429-1.327.83-2,1.238" transform="translate(-31.127 -116.386)" fill="#ffffc5"/>
          <path id="Trazado_1004723" data-name="Trazado 1004723" d="M51.149,227.995q.589-1.028,1.2-2.037l-.779-.9c-.258-.3-.494-.62-.741-.929l1.128.317,1.149.273q.617-1,1.25-1.973.063,1.127.152,2.286l1.121.234,1.138.191q-1.055.516-2.127,1.012.14,1.148.309,2.327c-.545-.576-1.1-1.142-1.635-1.727q-1.07.473-2.159.926" transform="translate(-24.859 -110.134)" fill="#ffffc5"/>
          <path id="Trazado_1004724" data-name="Trazado 1004724" d="M39.841,213.191q.733-.928,1.481-1.835c-.212-.336-.434-.664-.637-1l-.594-1.031c.724.322,1.417.646,2.16.923.507-.6,1.006-1.179,1.532-1.767-.079.754-.131,1.508-.186,2.282.723.269,1.425.535,2.166.758-.746.236-1.5.467-2.255.686-.022.772-.029,1.551-.032,2.344-.451-.652-.939-1.279-1.359-1.952q-1.13.31-2.275.6" transform="translate(-19.411 -103.056)" fill="#ffffc5"/>
          <path id="Trazado_1004725" data-name="Trazado 1004725" d="M30.615,196.931q.862-.808,1.735-1.593c-.343-.716-.614-1.462-.909-2.2.671.425,1.309.848,1.992,1.237.582-.511,1.181-1.02,1.787-1.522-.212.742-.356,1.472-.529,2.229.683.37,1.327.742,2.024,1.074-.778.124-1.554.238-2.322.338-.159.771-.262,1.529-.386,2.314-.358-.707-.739-1.4-1.051-2.133q-1.165.138-2.342.253" transform="translate(-14.835 -95.309)" fill="#ffffc5"/>
          <path id="Trazado_1004726" data-name="Trazado 1004726" d="M24.019,179.289q.973-.669,1.952-1.313c-.235-.758-.377-1.54-.566-2.31.6.522,1.176,1.033,1.781,1.524.651-.417,1.333-.834,2-1.237-.326.7-.579,1.4-.86,2.124.617.469,1.213.929,1.836,1.366-.791.008-1.557,0-2.34-.016-.284.741-.492,1.474-.731,2.231-.259-.75-.515-1.5-.717-2.268q-1.174-.038-2.355-.1" transform="translate(-11.564 -86.782)" fill="#ffffc5"/>
          <path id="Trazado_1004727" data-name="Trazado 1004727" d="M20.215,160.664q1.062-.516,2.127-1.005c-.119-.785-.143-1.579-.214-2.369.513.605,1.005,1.2,1.532,1.774.706-.315,1.441-.624,2.164-.924-.429.647-.781,1.3-1.168,1.972.539.556,1.062,1.1,1.608,1.627-.781-.112-1.537-.237-2.309-.368-.392.69-.711,1.384-1.058,2.1l-.21-1.171c-.066-.391-.1-.786-.158-1.179q-1.155-.214-2.313-.453" transform="translate(-9.677 -77.667)" fill="#ffffc5"/>
          <path id="Trazado_1004728" data-name="Trazado 1004728" d="M19.269,141.764q1.128-.352,2.255-.679c0-.793.074-1.584.135-2.374.421.674.8,1.333,1.259,1.981.751-.207,1.5-.406,2.266-.595-.5.578-.959,1.172-1.441,1.779.453.63.873,1.246,1.353,1.848q-1.134-.34-2.237-.706c-.483.624-.9,1.263-1.353,1.915-.018-.792-.055-1.585-.018-2.378q-1.109-.382-2.218-.79" transform="translate(-9.207 -68.451)" fill="#ffffc5"/>
          <path id="Trazado_1004729" data-name="Trazado 1004729" d="M21.174,123q1.169-.181,2.333-.336c.074-.39.132-.783.218-1.169l.268-1.159c.312.729.595,1.437.951,2.146.778-.092,1.538-.178,2.325-.25-.574.5-1.122,1.015-1.688,1.543.353.69.672,1.36,1.067,2.028-.706-.335-1.426-.681-2.114-1.031-.553.548-1.077,1.115-1.619,1.694.111-.785.174-1.577.333-2.355q-1.039-.543-2.074-1.112" transform="translate(-10.152 -59.337)" fill="#ffffc5"/>
          <path id="Trazado_1004730" data-name="Trazado 1004730" d="M25.928,104.79q1.182,0,2.357.018c.239-.757.539-1.491.832-2.228.2.769.37,1.51.616,2.264.779.025,1.552.056,2.341.1-.65.4-1.263.834-1.9,1.271.247.736.46,1.445.75,2.165-.649-.438-1.3-.887-1.934-1.337-.633.458-1.233.941-1.857,1.432.226-.761.412-1.533.684-2.279q-.946-.692-1.884-1.411" transform="translate(-12.51 -50.53)" fill="#ffffc5"/>
          <path id="Trazado_1004731" data-name="Trazado 1004731" d="M33.429,87.557q1.169.173,2.325.37c.346-.714.77-1.386,1.158-2.077.083.789.155,1.557.267,2.329.761.139,1.54.3,2.306.457-.718.293-1.376.634-2.077.969.134.765.248,1.5.414,2.252-.582-.533-1.146-1.067-1.705-1.608-.709.35-1.361.744-2.054,1.134.327-.722.644-1.45,1.02-2.149q-.833-.827-1.654-1.678" transform="translate(-16.231 -42.232)" fill="#ffffc5"/>
          <path id="Trazado_1004732" data-name="Trazado 1004732" d="M43.489,71.68q1.128.345,2.241.71c.461-.645.972-1.253,1.456-1.881q-.054,1.188-.083,2.343,1.117.389,2.219.8c-.749.187-1.473.41-2.2.647q.023,1.16.07,2.287-.728-.91-1.438-1.839c-.753.241-1.471.524-2.2.813l.643-1,.688-.97q-.7-.943-1.388-1.908" transform="translate(-21.221 -34.623)" fill="#ffffc5"/>
          <path id="Trazado_1004733" data-name="Trazado 1004733" d="M55.356,57.5q1.064.506,2.109,1.031l1.72-1.643q-.226,1.17-.421,2.312,1.046.548,2.073,1.115c-.759.084-1.53.176-2.278.31Q58.413,61.78,58.3,62.9q-.585-1.008-1.152-2.034l-1.161.215c-.384.079-.76.17-1.144.259.508-.61,1.064-1.175,1.611-1.75q-.556-1.038-1.094-2.095" transform="translate(-26.851 -27.867)" fill="#ffffc5"/>
          <path id="Trazado_1004734" data-name="Trazado 1004734" d="M69.217,45.319c.65.436,1.293.879,1.939,1.34l1.938-1.379q-.394,1.129-.753,2.233.952.7,1.883,1.406c-.754-.018-1.544-.058-2.3-.035q-.311,1.124-.59,2.223-.431-1.084-.841-2.184c-.774.032-1.582.045-2.354.123.592-.529,1.238-.991,1.854-1.49q-.4-1.111-.775-2.237" transform="translate(-33.447 -22.109)" fill="#ffffc5"/>
          <path id="Trazado_1004735" data-name="Trazado 1004735" d="M84.831,34.886c.578.528,1.158,1.078,1.724,1.623l2.117-1.086q-.555,1.061-1.073,2.1.838.828,1.652,1.667c-.745-.133-1.508-.269-2.274-.382q-.473,1.07-.908,2.119-.266-1.138-.51-2.288c-.77-.084-1.562-.176-2.349-.232.677-.412,1.372-.8,2.057-1.2q-.23-1.158-.436-2.33" transform="translate(-40.923 -16.954)" fill="#ffffc5"/>
          <path id="Trazado_1004736" data-name="Trazado 1004736" d="M101.868,26.946q.744.928,1.463,1.866c.752-.251,1.5-.517,2.255-.756-.476.632-.93,1.284-1.376,1.919q.7.943,1.382,1.893-1.075-.365-2.191-.718c-.421.651-.822,1.313-1.214,1.961q-.094-1.166-.163-2.342-1.124-.3-2.289-.582l2.213-.874c-.035-.785-.066-1.583-.081-2.367" transform="translate(-49.12 -13.015)" fill="#ffffc5"/>
          <path id="Trazado_1004737" data-name="Trazado 1004737" d="M119.95,21.733q.6,1.029,1.166,2.064c.781-.136,1.56-.289,2.344-.41-.566.55-1.113,1.13-1.649,1.69q.554,1.037,1.082,2.079-1.008-.522-2.058-1.037c-.516.571-1.01,1.175-1.494,1.755q.082-1.167.19-2.341-1.066-.463-2.174-.916l2.318-.536c.083-.782.173-1.578.276-2.349" transform="translate(-57.86 -10.43)" fill="#ffffc5"/>
          <path id="Trazado_1004738" data-name="Trazado 1004738" d="M138.658,19.35q.436,1.108.845,2.216l2.378-.059q-.962.715-1.882,1.43.394,1.11.761,2.219-.92-.668-1.882-1.336c-.595.5-1.175,1.012-1.741,1.515q.256-1.142.539-2.285-.986-.619-2.013-1.234l2.372-.18c.2-.761.407-1.532.623-2.286" transform="translate(-66.94 -9.248)" fill="#ffffc5"/>
          <path id="Trazado_1004739" data-name="Trazado 1004739" d="M157.568,19.831c.179.759.348,1.543.509,2.312l2.36.3q-1.057.562-2.072,1.13.224,1.156.423,2.309c-.54-.53-1.093-1.077-1.662-1.6q-.994.618-1.945,1.239.422-1.09.87-2.178c-.589-.505-1.191-1.02-1.808-1.521l2.372.177q.464-1.087.955-2.171" transform="translate(-76.155 -9.486)" fill="#ffffc5"/>
          <path id="Trazado_1004740" data-name="Trazado 1004740" d="M176.272,23.17c.064.775.113,1.577.157,2.361l2.288.652q-1.129.4-2.219.806.049,1.177.072,2.347c-.455-.6-.918-1.229-1.4-1.829q-1.075.461-2.108.932.58-1.014,1.185-2.022c-.506-.586-1.024-1.192-1.561-1.771.776.161,1.546.352,2.319.527q.622-1,1.269-2" transform="translate(-85.303 -11.142)" fill="#ffffc5"/>
          <path id="Trazado_1004741" data-name="Trazado 1004741" d="M194.147,29.313c-.058.789-.126,1.578-.2,2.363l2.166.983c-.783.147-1.556.306-2.315.467q-.128,1.169-.28,2.329c-.358-.667-.728-1.343-1.113-2.021q-1.132.3-2.225.608.726-.916,1.476-1.822c-.412-.657-.836-1.325-1.277-1.987l2.214.87q.766-.9,1.556-1.79" transform="translate(-93.98 -14.189)" fill="#ffffc5"/>
          <path id="Trazado_1004742" data-name="Trazado 1004742" d="M210.61,38.133q-.265,1.159-.551,2.3c.663.434,1.344.843,1.993,1.3-.783.008-1.584.069-2.356.112q-.3,1.136-.623,2.258-.384-1.067-.8-2.159c-.766.066-1.54.171-2.29.266q.856-.8,1.734-1.584-.466-1.066-.968-2.153l2.062,1.187c.594-.517,1.2-1.036,1.8-1.531" transform="translate(-101.818 -18.564)" fill="#ffffc5"/>
          <path id="Trazado_1004743" data-name="Trazado 1004743" d="M225.67,49.168q-.432,1.105-.884,2.194c.593.526,1.215,1.021,1.777,1.582-.769-.115-1.567-.177-2.343-.242q-.464,1.078-.948,2.139-.225-1.109-.481-2.246c-.755-.064-1.543-.065-2.3-.082q.966-.664,1.952-1.311-.3-1.12-.643-2.264l1.87,1.47c.669-.429,1.326-.83,2-1.238" transform="translate(-109.015 -23.922)" fill="#ffffc5"/>
          <path id="Trazado_1004744" data-name="Trazado 1004744" d="M239.007,62.051q-.589,1.028-1.2,2.037l.779.9c.258.3.493.62.742.929L238.2,65.6l-1.149-.273q-.617,1-1.25,1.973-.063-1.127-.152-2.286l-1.121-.234-1.137-.191q1.055-.516,2.127-1.012-.14-1.148-.309-2.327c.545.576,1.1,1.142,1.635,1.727q1.071-.473,2.159-.926" transform="translate(-115.416 -30.03)" fill="#ffffc5"/>
          <path id="Trazado_1004745" data-name="Trazado 1004745" d="M250.33,76.837q-.733.928-1.481,1.835c.211.335.434.664.636,1l.594,1.031c-.724-.322-1.417-.646-2.16-.923-.507.6-1.006,1.179-1.532,1.767.079-.754.131-1.508.186-2.282-.723-.269-1.425-.535-2.166-.757.746-.236,1.5-.467,2.255-.686.022-.772.03-1.55.032-2.343.451.652.939,1.279,1.359,1.952q1.13-.31,2.275-.6" transform="translate(-120.879 -37.09)" fill="#ffffc5"/>
          <path id="Trazado_1004746" data-name="Trazado 1004746" d="M259.38,93.209q-.862.808-1.735,1.593c.343.716.614,1.462.909,2.2-.671-.425-1.309-.848-1.992-1.237-.582.511-1.181,1.02-1.787,1.522.212-.742.356-1.472.529-2.229-.683-.37-1.327-.742-2.024-1.074.778-.124,1.554-.238,2.322-.338.159-.771.262-1.529.385-2.314.358.708.739,1.4,1.051,2.134q1.165-.138,2.342-.253" transform="translate(-125.279 -44.949)" fill="#ffffc5"/>
          <path id="Trazado_1004747" data-name="Trazado 1004747" d="M265.935,110.814q-.973.67-1.952,1.313c.235.758.377,1.54.566,2.31-.6-.521-1.176-1.033-1.781-1.524-.651.417-1.333.834-2,1.237.327-.7.579-1.4.86-2.124-.617-.469-1.213-.929-1.836-1.366.791-.007,1.557,0,2.34.016.284-.741.492-1.474.731-2.231.259.75.515,1.5.717,2.268q1.174.038,2.355.1" transform="translate(-128.509 -53.44)" fill="#ffffc5"/>
          <path id="Trazado_1004748" data-name="Trazado 1004748" d="M269.832,129.258q-1.062.516-2.127,1.005c.119.785.143,1.579.214,2.369-.513-.605-1.005-1.2-1.532-1.774-.706.315-1.441.624-2.164.924.429-.647.781-1.3,1.168-1.972-.539-.556-1.062-1.1-1.608-1.627.781.112,1.537.237,2.309.367.392-.69.711-1.383,1.058-2.1l.21,1.171c.066.391.1.786.158,1.179q1.155.214,2.313.453" transform="translate(-130.489 -62.373)" fill="#ffffc5"/>
          <path id="Trazado_1004749" data-name="Trazado 1004749" d="M270.909,148.113q-1.128.352-2.255.679c0,.793-.074,1.584-.135,2.374-.421-.674-.8-1.333-1.259-1.981-.751.207-1.5.406-2.266.595.5-.578.959-1.172,1.441-1.779-.453-.63-.873-1.246-1.353-1.848q1.134.34,2.237.706c.483-.624.9-1.263,1.353-1.915.018.793.055,1.585.018,2.378q1.109.383,2.218.79" transform="translate(-131.09 -71.544)" fill="#ffffc5"/>
          <path id="Trazado_1004750" data-name="Trazado 1004750" d="M268.826,166.968q-1.17.181-2.334.336c-.074.39-.132.783-.218,1.169l-.268,1.159c-.312-.729-.595-1.437-.951-2.146-.778.092-1.538.178-2.326.25.574-.5,1.122-1.015,1.689-1.543-.353-.69-.672-1.36-1.067-2.028.706.335,1.426.681,2.114,1.031.553-.548,1.077-1.115,1.619-1.694-.111.785-.174,1.577-.333,2.355q1.039.542,2.074,1.111" transform="translate(-129.966 -80.748)" fill="#ffffc5"/>
          <path id="Trazado_1004751" data-name="Trazado 1004751" d="M264.024,185.4q-1.182,0-2.357-.018c-.24.757-.539,1.491-.832,2.228-.2-.769-.37-1.51-.616-2.264-.779-.025-1.552-.056-2.341-.1.65-.4,1.263-.834,1.9-1.271-.247-.735-.46-1.445-.75-2.165.649.437,1.3.886,1.934,1.337.633-.458,1.233-.941,1.857-1.431-.226.76-.412,1.532-.684,2.278q.946.692,1.884,1.411" transform="translate(-127.56 -89.783)" fill="#ffffc5"/>
          <path id="Trazado_1004752" data-name="Trazado 1004752" d="M256.61,202.53q-1.169-.173-2.325-.37c-.346.714-.77,1.386-1.158,2.077-.083-.789-.155-1.557-.267-2.329-.761-.139-1.54-.3-2.306-.457.718-.293,1.376-.635,2.077-.969-.134-.765-.248-1.5-.414-2.252.583.533,1.146,1.067,1.705,1.608.71-.35,1.361-.744,2.054-1.135-.327.722-.644,1.45-1.02,2.149q.832.827,1.654,1.678" transform="translate(-123.928 -97.974)" fill="#ffffc5"/>
          <path id="Trazado_1004753" data-name="Trazado 1004753" d="M246.77,218.341q-1.128-.344-2.241-.71c-.461.645-.972,1.253-1.456,1.881q.054-1.188.083-2.343-1.117-.389-2.219-.8c.749-.187,1.473-.41,2.2-.647q-.023-1.16-.07-2.287.728.91,1.438,1.839c.753-.241,1.471-.524,2.2-.813l-.643,1-.688.97q.7.943,1.388,1.908" transform="translate(-119.158 -105.517)" fill="#ffffc5"/>
          <path id="Trazado_1004754" data-name="Trazado 1004754" d="M234.741,232.58q-1.064-.506-2.109-1.031l-1.72,1.643q.226-1.17.421-2.312-1.046-.548-2.073-1.115c.759-.084,1.53-.176,2.278-.31q.146-1.154.263-2.279.585,1.007,1.152,2.034l1.161-.215c.384-.079.76-.17,1.144-.259-.508.61-1.064,1.175-1.611,1.75q.556,1.038,1.094,2.095" transform="translate(-113.365 -112.331)" fill="#ffffc5"/>
          <path id="Trazado_1004755" data-name="Trazado 1004755" d="M220.791,244.946c-.65-.436-1.293-.879-1.939-1.34l-1.938,1.379q.393-1.129.753-2.233-.952-.7-1.883-1.406c.754.018,1.544.058,2.3.035q.311-1.125.59-2.223.431,1.084.842,2.184c.774-.032,1.581-.045,2.353-.124-.591.529-1.238.991-1.854,1.49q.4,1.111.775,2.237" transform="translate(-106.68 -118.275)" fill="#ffffc5"/>
          <path id="Trazado_1004756" data-name="Trazado 1004756" d="M205.223,255.164c-.578-.528-1.158-1.078-1.724-1.622l-2.117,1.086q.555-1.061,1.072-2.1-.838-.829-1.652-1.668c.745.133,1.508.269,2.274.382q.472-1.069.908-2.119.266,1.139.51,2.289c.77.083,1.562.175,2.349.231-.677.413-1.371.8-2.057,1.2q.23,1.157.436,2.329" transform="translate(-99.25 -123.215)" fill="#ffffc5"/>
          <path id="Trazado_1004757" data-name="Trazado 1004757" d="M188.367,262.987q-.744-.928-1.463-1.866c-.752.251-1.5.517-2.255.756.476-.632.931-1.284,1.376-1.919q-.7-.943-1.382-1.894,1.075.365,2.191.718c.421-.651.822-1.313,1.214-1.961q.094,1.166.163,2.342,1.124.3,2.289.582l-2.213.874c.035.785.066,1.583.081,2.367" transform="translate(-91.235 -127.036)" fill="#ffffc5"/>
          <path id="Trazado_1004758" data-name="Trazado 1004758" d="M170.042,268.223q-.6-1.029-1.166-2.064c-.781.136-1.56.289-2.344.41.566-.55,1.113-1.13,1.649-1.69q-.554-1.037-1.082-2.079,1.008.522,2.058,1.037c.516-.571,1.01-1.175,1.495-1.755q-.082,1.167-.191,2.341,1.066.463,2.174.916l-2.318.536c-.083.782-.172,1.578-.276,2.349" transform="translate(-82.252 -129.645)" fill="#ffffc5"/>
          <path id="Trazado_1004759" data-name="Trazado 1004759" d="M151.223,270.76q-.435-1.108-.845-2.216L148,268.6q.962-.715,1.882-1.431-.394-1.109-.761-2.219.92.668,1.882,1.336c.595-.5,1.175-1.012,1.741-1.515q-.256,1.142-.539,2.285.986.618,2.013,1.233l-2.372.181c-.2.76-.407,1.532-.623,2.285" transform="translate(-73.059 -130.981)" fill="#ffffc5"/>
          <path id="Trazado_1004760" data-name="Trazado 1004760" d="M92.062,148.9A56.837,56.837,0,1,1,148.9,92.062,56.9,56.9,0,0,1,92.062,148.9" transform="translate(-17.122 -17.122)" fill="#d35560"/>
        </g>
      </g>
      <g id="Grupo_1180053" data-name="Grupo 1180053" transform="translate(39.422 38.995)">
        <rect id="Rectángulo_401104" data-name="Rectángulo 401104" width="71.038" height="71.894" transform="translate(0)" fill="#d35560"/>
      </g>
    </g>
    <g id="Grupo_1187662" data-name="Grupo 1187662" transform="translate(451.759 9471.269)">
      <g id="Grupo_1187661" data-name="Grupo 1187661" clip-path="url(#clip-path-2)">
        <path id="Trazado_1032253" data-name="Trazado 1032253" d="M43.99,70.186l-13.9.046L30.077,74.8a2.937,2.937,0,0,1-1.971,2.75,3.031,3.031,0,0,1-3.441-1.1l-5.211-6.241L6.262,70.205a3.72,3.72,0,0,1-3.755-3.772l.022-25.255a3.584,3.584,0,0,1,3.511-3.53l10.48-.056-2.026-2.469L3.753,35.1A3.714,3.714,0,0,1,0,31.325L0,3.766A3.641,3.641,0,0,1,3.565.031L36.127,0A3.65,3.65,0,0,1,40.084,3.55l.042,6.5,33.613-.021a3.744,3.744,0,0,1,3.98,3.784l0,27.546a3.719,3.719,0,0,1-3.755,3.773l-13.193.015-5.311,6.343a2.966,2.966,0,0,1-3.336.994,2.936,2.936,0,0,1-1.975-2.749l-.007-4.576-2.507.009-.011,21.276a3.666,3.666,0,0,1-3.638,3.747" transform="translate(0 0)" fill="#040504"/>
        <path id="Trazado_1032254" data-name="Trazado 1032254" d="M127.515,170.536l-7.5,0-.008-2.511h7.505Z" transform="translate(-94.932 -132.916)" fill="#f4f4f4"/>
        <path id="Trazado_1032255" data-name="Trazado 1032255" d="M32.015,49.093a.533.533,0,0,1-.2.435.44.44,0,0,1-.529-.017l-6.192-7.377-11.67-.006a1.366,1.366,0,0,1-1.467-1.3l.011-27.523c0-.876.686-1.273,1.478-1.273l32.521.018a1.186,1.186,0,0,1,1.1,1.255V40.827a1.254,1.254,0,0,1-1.27,1.285l-13.771.018Z" transform="translate(-9.454 -9.518)" fill="#edc4a4"/>
        <path id="Trazado_1032256" data-name="Trazado 1032256" d="M58.3,50.1l-9.765,8.726-9.324-8.251a8.8,8.8,0,0,1-2.155-10.945,7.723,7.723,0,0,1,4.912-3.659c2.529-.645,4.672.534,6.566,1.642,1.78-1.043,3.943-2.265,6.373-1.68a7.685,7.685,0,0,1,5.01,3.581A8.493,8.493,0,0,1,58.3,50.1" transform="translate(-28.465 -28.303)" fill="#040504"/>
        <path id="Trazado_1032257" data-name="Trazado 1032257" d="M67.383,50.825a5.93,5.93,0,0,1-1.163,6.907l-8.26,7.426-8.067-7.211a6.032,6.032,0,0,1-1.184-7.468,4.934,4.934,0,0,1,3.563-2.423,5,5,0,0,1,4.275,1.557L57.96,51l1.729-1.7a4.7,4.7,0,0,1,4.226-1.161,4.779,4.779,0,0,1,3.468,2.679" transform="translate(-37.901 -37.978)" fill="#ef695a"/>
        <path id="Trazado_1032258" data-name="Trazado 1032258" d="M186.442,97.3a.627.627,0,0,1-.55.233.431.431,0,0,1-.333-.392l-.015-7.082-16.274,0a1.236,1.236,0,0,1-1.264-1.257l.018-6.316c2.26.44,4.907-.823,4.918-3.318l.078-19.2,33.806,0a1.234,1.234,0,0,1,1.289,1.283l0,27.52a1.239,1.239,0,0,1-1.267,1.276l-14.363.019Z" transform="translate(-132.898 -47.435)" fill="#ffe292"/>
        <path id="Trazado_1032259" data-name="Trazado 1032259" d="M213.891,95.378a2.57,2.57,0,0,1-2.383,1.692H206.48a2.494,2.494,0,0,1-2.495-2.5V82.033a2.483,2.483,0,0,1,2.5-2.5l4.606-.019a3.8,3.8,0,0,1,1.924.471,10.376,10.376,0,0,0,3.05-5.092,3.732,3.732,0,0,1,3-2.825,4.868,4.868,0,0,1,5.517,5.493l-.29,1.966,2.471.006a4.992,4.992,0,0,1,4.811,5.2V91.86a5.133,5.133,0,0,1-5.233,5.226l-5.229-.007a15.562,15.562,0,0,1-7.226-1.7" transform="translate(-161.358 -56.962)" fill="#040504"/>
        <path id="Trazado_1032260" data-name="Trazado 1032260" d="M260.01,85.742a4.582,4.582,0,0,0-.047,1.712l-.673,4.107,5.046,0a2.548,2.548,0,0,1,2.7,2.506l.018,7.34A2.494,2.494,0,0,1,265.066,104a54.657,54.657,0,0,1-7.758.009q.224-.266-.383-.11A13.182,13.182,0,0,1,252,102.155l0-10.136a13.677,13.677,0,0,0,4.534-7.173,1.278,1.278,0,0,1,.743-.741,2.349,2.349,0,0,1,2.727,1.636" transform="translate(-199.341 -66.486)" fill="#edc4a4"/>
        <path id="Trazado_1032261" data-name="Trazado 1032261" d="M220.985,132.51l-5.02.02V120.007l5.015,0Z" transform="translate(-170.834 -94.929)" fill="#b0ce6a"/>
        <path id="Trazado_1032262" data-name="Trazado 1032262" d="M289.1,93.858a1.412,1.412,0,0,1,.047-1.712,3.14,3.14,0,0,1-.047,1.712" transform="translate(-228.476 -72.89)" fill="#f8ccab"/>
        <path id="Trazado_1032263" data-name="Trazado 1032263" d="M275.947,178.172a1.541,1.541,0,0,0-.383-.11.925.925,0,0,1,1.156-.094c-.322.163-.534.1-.773.2" transform="translate(-217.98 -140.652)" fill="#facfad"/>
        <path id="Trazado_1032264" data-name="Trazado 1032264" d="M62.909,219.545l-16.361.026,0,6.885a.639.639,0,0,1-.21.521.5.5,0,0,1-.627-.116l-6.1-7.288H25.437a1.313,1.313,0,0,1-1.457-1.3l0-25.017A1.234,1.234,0,0,1,25.238,192l12.305-.021,1.071,1.225a3.224,3.224,0,0,0,3.108,1.217,3.475,3.475,0,0,0,2.344-2.384l7.526-.025a4.631,4.631,0,0,0,.8,3.585,3.972,3.972,0,0,0,3.135,1.419L64.1,197l-.007,21.285a1.231,1.231,0,0,1-1.183,1.261" transform="translate(-18.966 -151.86)" fill="#dfe2e7"/>
        <path id="Trazado_1032265" data-name="Trazado 1032265" d="M102.23,271.1c-.167.245-.247.44-.031.191l.35,2.757H90.05L90.612,269a5.667,5.667,0,0,1,5.791-4.969,5.8,5.8,0,0,1,5.64,5.325Z" transform="translate(-71.232 -208.854)" fill="#ffcb58"/>
        <path id="Trazado_1032266" data-name="Trazado 1032266" d="M85.592,312.614a1.031,1.031,0,0,0,.389-.015.279.279,0,0,1-.324.3,1.169,1.169,0,0,1-.743-.116,1.156,1.156,0,0,1,.677-.168" transform="translate(-67.17 -247.276)" fill="#ebeff3"/>
        <path id="Trazado_1032267" data-name="Trazado 1032267" d="M150.262,312.674a2,2,0,0,1,.685.141c-.312.261-.965.254-1.084-.132a1.986,1.986,0,0,0,.4-.009" transform="translate(-118.546 -247.335)" fill="#ebeff3"/>
        <path id="Trazado_1032268" data-name="Trazado 1032268" d="M58.462,221.82c.262.1.148.639-.169.624.027.16.112.249.265.249-.051-.3-.074-.726.236-.833a5.015,5.015,0,1,1,8.4,5.071,7.852,7.852,0,0,1,3.882,7.016l-.013,2.072-2.5.021-.418-.229c.383-3.34-.744-6.758-4.612-6.85q-.263-.495-1.065-.257c-.03.1-.085.092-.16.006v.278q-.687.33-.172,1.7c-.352.085-.358.309-.315.615.262-.067.146.342.039.558l.425.324q-.509.182-.247.967c.094.064.08.128-.026.19.635.353.63,1.755.55,2.5l-.721.176a4.289,4.289,0,0,0-1.678.163c.03.258-.209.159-.4.009v-.156q-.707-.266-.63-1.645.462-.285.28-1.112c-.091-.067-.075-.131.031-.191a.384.384,0,0,1-.429-.085c.419-7.094-8.707-9.311-10.724-2.308l-.578,5.09-.448.251-.007.131c-.125.194-.306.236-.389.015a4.382,4.382,0,0,0-1.667-.178q-.784-.047-.817-.475l.346-3.426.445-.246c-.106-.21-.209-.465.033-.557a2.839,2.839,0,0,1-.065-2.071l-.421-.525-.161-.005q-.789-.236-1.028.258c-3.846.053-5.038,3.459-4.646,6.793l-.418.284-2.492-.017-.016-2.289a7.724,7.724,0,0,1,3.876-6.806,4.932,4.932,0,0,1-.7-5.912,4.992,4.992,0,0,1,9.126,1.039c.276-.036.312.414.2.637a.364.364,0,0,1,.21.156c.461,1.085.108,1.124-.047-.183a.308.308,0,0,1,.112-.21c-.331.049-.366-.395-.193-.65a5.017,5.017,0,1,1,9.9.014" transform="translate(-28.451 -170.849)" fill="#040504"/>
        <path id="Trazado_1032269" data-name="Trazado 1032269" d="M143.3,243.958c-.083.221.057.635-.236.833q-.293.361-.265-.249l.168-.624Z" transform="translate(-112.957 -192.948)" fill="#b9bcc0"/>
        <path id="Trazado_1032270" data-name="Trazado 1032270" d="M95.343,244.5c.084.319.017.425-.274.237-.226-.157-.15-.44-.2-.638l.287-.249Z" transform="translate(-75.04 -192.895)" fill="#c0c4c7"/>
        <path id="Trazado_1032271" data-name="Trazado 1032271" d="M111.294,232.871l-1.716-.051a2.475,2.475,0,0,1-1.5-2.946,2.5,2.5,0,1,1,3.212,3" transform="translate(-85.43 -180.362)" fill="#ecc3a3"/>
        <path id="Trazado_1032272" data-name="Trazado 1032272" d="M63.294,244.87l-1.716-.051a2.475,2.475,0,0,1-1.5-2.946,2.5,2.5,0,1,1,3.212,3" transform="translate(-47.46 -189.854)" fill="#ecc3a3"/>
        <path id="Trazado_1032273" data-name="Trazado 1032273" d="M159.294,244.87l-1.716-.051a2.475,2.475,0,0,1-1.5-2.946,2.5,2.5,0,1,1,3.212,3" transform="translate(-123.399 -189.854)" fill="#ecc3a3"/>
        <path id="Trazado_1032274" data-name="Trazado 1032274" d="M95.053,247.2c-.007-.1.159-.237.274-.237a5.491,5.491,0,0,0,1.078,1.9l-1.561.874a9.591,9.591,0,0,0,.209-2.539" transform="translate(-75.025 -195.355)" fill="#d4d8dc"/>
        <path id="Trazado_1032275" data-name="Trazado 1032275" d="M138.969,247.154a15.956,15.956,0,0,0,.124,2.423l-1.473-.755A5.066,5.066,0,0,0,138.7,246.9c.1.021.271.159.265.249" transform="translate(-108.862 -195.31)" fill="#d4d8dc"/>
        <path id="Trazado_1032276" data-name="Trazado 1032276" d="M117.274,250.129a2.253,2.253,0,0,1-1.716-.051,1.461,1.461,0,0,1,1.716.051" transform="translate(-91.41 -197.62)" fill="#f5caa9"/>
        <path id="Trazado_1032277" data-name="Trazado 1032277" d="M69.276,262.129a2.252,2.252,0,0,1-1.716-.051,1.461,1.461,0,0,1,1.716.051" transform="translate(-53.442 -207.113)" fill="#f5caa9"/>
        <path id="Trazado_1032278" data-name="Trazado 1032278" d="M165.276,262.129a2.251,2.251,0,0,1-1.716-.051,1.461,1.461,0,0,1,1.716.051" transform="translate(-129.381 -207.113)" fill="#f5caa9"/>
        <path id="Trazado_1032279" data-name="Trazado 1032279" d="M147.059,298.057l-.051.915c-.369-.286-.311-1.024.082-1.106Z" transform="translate(-116.092 -235.621)" fill="#ffdb5d"/>
        <path id="Trazado_1032280" data-name="Trazado 1032280" d="M164.983,283.58l-6.721-.015c.83-.309.019-1.573.171-2.679.162-.247.241-.439.026-.19a2.76,2.76,0,0,1-.178-1.292c.114-.321.231-1.213-.039-.558l-.387-2.183c.052-.262.636-.4.873-.412q.682.271.16-.006a4.733,4.733,0,0,1,4.333,1.031,5.152,5.152,0,0,1,1.763,4Z" transform="translate(-124.868 -218.389)" fill="#b0ce6a"/>
        <path id="Trazado_1032281" data-name="Trazado 1032281" d="M162.034,276.827l.16-.006a1.944,1.944,0,0,1,.894.1.746.746,0,0,1-1.054-.095" transform="translate(-128.174 -218.966)" fill="#b6d16d"/>
        <path id="Trazado_1032282" data-name="Trazado 1032282" d="M159.747,287.92l-.039-.558c.038-.109-.047-.277.143-.514a.806.806,0,0,1-.1,1.073" transform="translate(-126.334 -226.905)" fill="#bbd370"/>
        <path id="Trazado_1032283" data-name="Trazado 1032283" d="M160.622,294.886l.026-.19.048-.915c.371.282.315,1.022-.074,1.105" transform="translate(-127.057 -232.39)" fill="#bcd471"/>
        <path id="Trazado_1032284" data-name="Trazado 1032284" d="M161.988,303.014a2.284,2.284,0,0,1-.1-.955l.127-.11a1.11,1.11,0,0,1-.031,1.065" transform="translate(-128.058 -238.851)" fill="#b8d26e"/>
        <path id="Trazado_1032285" data-name="Trazado 1032285" d="M54.054,276.247l.161.005c.238.008.822.151.876.412l-.39,2.184q-.279.023-.033.557l-.326,3.244c-.023.229-.121.5.023.682a.866.866,0,0,0,.329.22l-6.732.031,0-2.3a5.148,5.148,0,0,1,1.763-4,4.732,4.732,0,0,1,4.331-1.03" transform="translate(-37.938 -218.391)" fill="#b0ce6a"/>
        <path id="Trazado_1032286" data-name="Trazado 1032286" d="M73.748,276.824l.161.005a.744.744,0,0,1-1.052.1,1.942,1.942,0,0,1,.891-.1" transform="translate(-57.632 -218.969)" fill="#b6d16d"/>
        <path id="Trazado_1032287" data-name="Trazado 1032287" d="M79.1,287.363l-.033.557a.8.8,0,0,1-.11-1.071c.191.23.108.406.144.514" transform="translate(-62.338 -226.906)" fill="#bbd370"/>
        <path id="Trazado_1032288" data-name="Trazado 1032288" d="M76.989,303a1.866,1.866,0,0,1-.077-.943.266.266,0,0,1,.125-.112,1.81,1.81,0,0,1,.068.943.359.359,0,0,1-.116.111" transform="translate(-60.822 -238.848)" fill="#b8d26e"/>
      </g>
    </g>
  </g>
</svg>
