<svg xmlns="http://www.w3.org/2000/svg" xmlns:xlink="http://www.w3.org/1999/xlink" width="292" height="139" viewBox="0 0 292 139">
  <defs>
    <clipPath id="clip-path">
      <rect id="Rectángulo_459771" data-name="Rectángulo 459771" width="199" height="132" transform="translate(0 0)" fill="none"/>
    </clipPath>
  </defs>
  <g id="Grupo_1187567" data-name="Grupo 1187567" transform="translate(-1122 -6713)">
    <rect id="Rectángulo_458704" data-name="Rectángulo 458704" width="292" height="139" rx="10" transform="translate(1122 6713)" fill="#f2a4ab"/>
    <g id="Grupo_1187566" data-name="Grupo 1187566" transform="translate(1169 6716.814)">
      <rect id="Rectángulo_459752" data-name="Rectángulo 459752" width="35.583" height="21.766" transform="translate(152.882 47.233)" fill="#fff"/>
      <g id="Grupo_1187565" data-name="Grupo 1187565" transform="translate(-0.289 0.185)">
        <g id="Grupo_1187564" data-name="Grupo 1187564" clip-path="url(#clip-path)">
          <path id="Trazado_1030146" data-name="Trazado 1030146" d="M996.834,318.631H961.251a.159.159,0,0,1-.159-.159V296.706a.159.159,0,0,1,.159-.159h35.583a.159.159,0,0,1,.159.159v21.766a.159.159,0,0,1-.159.159m-35.424-.318h35.265V296.865H961.41Z" transform="translate(-808.08 -249.658)" fill="#e2eaff"/>
          <path id="Trazado_1030147" data-name="Trazado 1030147" d="M1089.366,322.218a.159.159,0,0,1-.159-.159v-20.1a.159.159,0,1,1,.318,0v20.1a.159.159,0,0,1-.159.159" transform="translate(-915.844 -254.081)" fill="#e2eaff"/>
          <path id="Trazado_1030148" data-name="Trazado 1030148" d="M1026.479,302.956a.159.159,0,0,1-.159-.159V296.7a.159.159,0,1,1,.318,0V302.8a.159.159,0,0,1-.159.159" transform="translate(-862.947 -249.657)" fill="#e2eaff"/>
          <rect id="Rectángulo_459753" data-name="Rectángulo 459753" width="35.583" height="14.084" transform="translate(153.171 31.601)" fill="#fff"/>
          <path id="Trazado_1030149" data-name="Trazado 1030149" d="M996.834,213.7H961.251a.159.159,0,0,1-.159-.159V199.462a.159.159,0,0,1,.159-.159h35.583a.159.159,0,0,1,.159.159v14.084a.159.159,0,0,1-.159.159m-35.424-.318h35.265V199.621H961.41Z" transform="translate(-808.08 -167.861)" fill="#e2eaff"/>
          <path id="Trazado_1030150" data-name="Trazado 1030150" d="M1089.366,216.027a.159.159,0,0,1-.159-.159v-13a.159.159,0,0,1,.318,0v13a.159.159,0,0,1-.159.159" transform="translate(-915.844 -170.724)" fill="#e2eaff"/>
          <path id="Trazado_1030151" data-name="Trazado 1030151" d="M1026.479,203.563a.159.159,0,0,1-.159-.159v-3.942a.159.159,0,1,1,.318,0V203.4a.159.159,0,0,1-.159.159" transform="translate(-862.947 -167.861)" fill="#e2eaff"/>
          <rect id="Rectángulo_459754" data-name="Rectángulo 459754" width="6.4" height="3.684" transform="translate(182.353 69.921)" fill="#fff"/>
          <path id="Trazado_1030152" data-name="Trazado 1030152" d="M1151.36,444.537h-6.4a.159.159,0,0,1-.159-.159v-3.684a.159.159,0,0,1,.159-.159h6.4a.159.159,0,0,1,.159.159v3.684a.159.159,0,0,1-.159.159m-6.241-.318h6.082v-3.366h-6.082Z" transform="translate(-962.606 -370.773)"/>
          <rect id="Rectángulo_459755" data-name="Rectángulo 459755" width="6.4" height="3.684" transform="translate(153.171 69.921)" fill="#fff"/>
          <path id="Trazado_1030153" data-name="Trazado 1030153" d="M967.651,444.537h-6.4a.159.159,0,0,1-.159-.159v-3.684a.159.159,0,0,1,.159-.159h6.4a.159.159,0,0,1,.159.159v3.684a.159.159,0,0,1-.159.159m-6.241-.318h6.082v-3.366H961.41Z" transform="translate(-808.08 -370.773)"/>
          <rect id="Rectángulo_459756" data-name="Rectángulo 459756" width="35.583" height="2.251" transform="translate(153.171 69.921)" fill="#fff"/>
          <path id="Trazado_1030154" data-name="Trazado 1030154" d="M996.834,443.1H961.251a.159.159,0,0,1-.159-.159v-2.251a.159.159,0,0,1,.159-.159h35.583a.159.159,0,0,1,.159.159v2.251a.159.159,0,0,1-.159.159m-35.424-.318h35.265v-1.933H961.41Z" transform="translate(-808.08 -370.773)"/>
          <rect id="Rectángulo_459757" data-name="Rectángulo 459757" width="36.129" height="23.384" transform="translate(152.861 3.719)" fill="#e2eaff"/>
          <path id="Trazado_1030155" data-name="Trazado 1030155" d="M1089.382,51.339a.159.159,0,0,1-.159-.159V29.591a.159.159,0,0,1,.318,0V51.18a.159.159,0,0,1-.159.159" transform="translate(-915.857 -24.975)" fill="#5479f7"/>
          <path id="Trazado_1030156" data-name="Trazado 1030156" d="M1025.529,30.645a.159.159,0,0,1-.159-.159V23.942a.159.159,0,0,1,.318,0v6.545a.159.159,0,0,1-.159.159" transform="translate(-862.147 -20.223)" fill="#5479f7"/>
          <path id="Trazado_1030157" data-name="Trazado 1030157" d="M773.6,233.2h4.909l3.973-14.834h-4.91Z" transform="translate(-650.374 -183.9)" fill="#fff"/>
          <path id="Trazado_1030158" data-name="Trazado 1030158" d="M777.671,232.522h-4.909a.159.159,0,0,1-.154-.2l3.973-14.834a.159.159,0,0,1,.153-.118h4.91a.159.159,0,0,1,.153.2L777.824,232.4a.159.159,0,0,1-.153.118m-4.7-.318h4.58l3.888-14.516h-4.581Z" transform="translate(-649.533 -183.058)"/>
          <path id="Trazado_1030159" data-name="Trazado 1030159" d="M936.293,24.782V48.166h26.825l-24.713-2.3V24.782Z" transform="translate(-787.22 -21.064)" fill="#fff"/>
          <path id="Trazado_1030160" data-name="Trazado 1030160" d="M962.275,47.484H935.451a.159.159,0,0,1-.159-.159V23.942a.159.159,0,0,1,.159-.159h2.112a.159.159,0,0,1,.159.159V44.879l24.569,2.289a.159.159,0,0,1-.015.317m-26.666-.318h23.248l-21.31-1.985a.159.159,0,0,1-.144-.158V24.1H935.61Z" transform="translate(-786.379 -20.223)"/>
          <path id="Trazado_1030161" data-name="Trazado 1030161" d="M769.009,325.534h19.884v-20.97l-5.154-2.831h-14.73Z" transform="translate(-646.51 -254.02)" fill="#5479f7"/>
          <rect id="Rectángulo_459758" data-name="Rectángulo 459758" width="3.835" height="69.98" transform="translate(144.223 -0.059)" fill="#fff"/>
          <path id="Trazado_1030162" data-name="Trazado 1030162" d="M908.76,70.3h-3.835a.159.159,0,0,1-.159-.159V.159A.159.159,0,0,1,904.925,0h3.835a.159.159,0,0,1,.159.159v69.98a.159.159,0,0,1-.159.159m-3.677-.318H908.6V.318h-3.518Z" transform="translate(-760.702 -0.218)"/>
          <path id="Trazado_1030163" data-name="Trazado 1030163" d="M780.611,422.324l1.96,3.052h18.9v3.684H769.01v-6.735Z" transform="translate(-646.51 -355.455)" fill="#fff"/>
          <path id="Trazado_1030164" data-name="Trazado 1030164" d="M800.629,428.377H768.168a.159.159,0,0,1-.159-.159v-6.736a.159.159,0,0,1,.318,0v6.577H800.47v-3.366H788.129a.159.159,0,1,1,0-.318h12.5a.159.159,0,0,1,.159.159v3.684a.159.159,0,0,1-.159.159" transform="translate(-645.669 -354.614)"/>
          <rect id="Rectángulo_459759" data-name="Rectángulo 459759" width="18.288" height="4.597" transform="translate(122.499 31.601)" fill="#5479f7"/>
          <rect id="Rectángulo_459760" data-name="Rectángulo 459760" width="49.198" height="1.767" transform="translate(149.073 28.348)" fill="#5479f7"/>
          <path id="Trazado_1030165" data-name="Trazado 1030165" d="M1245.159,241.625a.159.159,0,0,1-.159-.159v-42a.159.159,0,0,1,.318,0v42a.159.159,0,0,1-.159.159" transform="translate(-1046.889 -167.861)"/>
          <path id="Trazado_1030166" data-name="Trazado 1030166" d="M1201.034,241.625a.159.159,0,0,1-.159-.159v-42a.159.159,0,0,1,.318,0v42a.159.159,0,0,1-.159.159" transform="translate(-1009.773 -167.861)"/>
          <path id="Trazado_1030167" data-name="Trazado 1030167" d="M1208.019,220.962a.159.159,0,0,1-.141-.086l-6.986-13.56a.159.159,0,0,1,.282-.146l6.986,13.56a.159.159,0,0,1-.141.232" transform="translate(-1009.772 -174.407)"/>
          <path id="Trazado_1030168" data-name="Trazado 1030168" d="M1201.033,220.962a.159.159,0,0,1-.141-.232l6.986-13.56a.159.159,0,1,1,.282.146l-6.986,13.56a.159.159,0,0,1-.141.086" transform="translate(-1009.772 -174.407)"/>
          <path id="Trazado_1030169" data-name="Trazado 1030169" d="M1208.02,306.635a.159.159,0,0,1-.141-.086l-3.352-6.506-3.352,6.506a.159.159,0,0,1-.282-.146l3.456-6.707-3.456-6.707a.159.159,0,0,1,.141-.232h6.986a.159.159,0,0,1,.141.232l-3.455,6.707,3.455,6.707a.159.159,0,0,1-.141.232m-6.726-13.56,3.232,6.274,3.232-6.274Z" transform="translate(-1009.773 -246.471)"/>
          <path id="Trazado_1030170" data-name="Trazado 1030170" d="M1208.02,392a.159.159,0,0,1-.141-.086l-3.352-6.506-3.352,6.506a.159.159,0,0,1-.282-.146l3.456-6.707-3.456-6.707a.159.159,0,0,1,.141-.232h6.986a.159.159,0,0,1,.141.232l-3.455,6.707,3.455,6.707a.159.159,0,0,1-.141.232m-6.726-13.56,3.232,6.274,3.232-6.274Z" transform="translate(-1009.773 -318.272)"/>
          <rect id="Rectángulo_459761" data-name="Rectángulo 459761" width="36.371" height="29.274" transform="translate(82.449 70.879)" fill="#fff"/>
          <path id="Trazado_1030171" data-name="Trazado 1030171" d="M552.416,476.159H516.045a.159.159,0,0,1-.159-.159V446.726a.159.159,0,0,1,.159-.159h36.371a.159.159,0,0,1,.159.159V476a.159.159,0,0,1-.159.159m-36.212-.318h36.053V446.885H516.2Z" transform="translate(-433.596 -375.847)"/>
          <path id="Trazado_1030172" data-name="Trazado 1030172" d="M614.053,451.477a.159.159,0,0,1-.159-.159v-4.593a.159.159,0,1,1,.318,0v4.593a.159.159,0,0,1-.159.159" transform="translate(-516.035 -375.846)"/>
          <path id="Trazado_1030173" data-name="Trazado 1030173" d="M678.332,451.477a.159.159,0,0,1-.159-.159v-4.593a.159.159,0,1,1,.318,0v4.593a.159.159,0,0,1-.159.159" transform="translate(-570.103 -375.846)"/>
          <rect id="Rectángulo_459762" data-name="Rectángulo 459762" width="36.371" height="29.274" transform="translate(82.449 40.012)" fill="#fff"/>
          <path id="Trazado_1030174" data-name="Trazado 1030174" d="M552.416,281.845H516.045a.159.159,0,0,1-.159-.159V252.412a.159.159,0,0,1,.159-.159h36.371a.159.159,0,0,1,.159.159v29.274a.159.159,0,0,1-.159.159m-36.212-.318h36.053V252.571H516.2Z" transform="translate(-433.596 -212.4)"/>
          <path id="Trazado_1030175" data-name="Trazado 1030175" d="M614.053,286.67a.159.159,0,0,1-.159-.159V259.484a.159.159,0,1,1,.318,0v27.027a.159.159,0,0,1-.159.159" transform="translate(-516.035 -218.349)"/>
          <path id="Trazado_1030176" data-name="Trazado 1030176" d="M678.332,260.764a.159.159,0,0,1-.159-.159v-8.193a.159.159,0,0,1,.318,0v8.193a.159.159,0,0,1-.159.159" transform="translate(-570.103 -212.4)"/>
          <path id="Trazado_1030177" data-name="Trazado 1030177" d="M124.977,357.477l-1.439-1.521-6.259-21.941a4.833,4.833,0,0,0-4.143-3.473L94.4,328.553H86.7l-.187,4.074a6.2,6.2,0,0,0,5.38,6.413l15.257,2.051,4.8,15.327a3.066,3.066,0,0,0,2.929,2.144h9.624a.643.643,0,0,0,.471-1.084" transform="translate(-72.425 -276.58)" fill="#5479f7"/>
          <path id="Trazado_1030178" data-name="Trazado 1030178" d="M187.726,405.193h-8.9a.159.159,0,0,1,0-.318h8.9a.159.159,0,0,1,0,.318" transform="translate(-149.947 -340.778)"/>
          <path id="Trazado_1030179" data-name="Trazado 1030179" d="M246.842,458.978H236.283a.159.159,0,1,1,0-.318h10.559a.159.159,0,1,1,0,.318" transform="translate(-198.275 -386.019)"/>
          <path id="Trazado_1030180" data-name="Trazado 1030180" d="M131.01,202l4.082-4.337,2.207,2.169-2.869,3.629Z" transform="translate(-109.859 -166.484)" fill="#fff"/>
          <path id="Trazado_1030181" data-name="Trazado 1030181" d="M133.589,202.782a.159.159,0,0,1-.062-.013l-3.421-1.461a.159.159,0,0,1-.053-.255l4.083-4.337a.158.158,0,0,1,.112-.05.155.155,0,0,1,.115.045l2.207,2.168a.159.159,0,0,1,.013.212l-2.869,3.629a.159.159,0,0,1-.125.06m-3.149-1.677,3.1,1.324,2.705-3.422-1.99-1.955Z" transform="translate(-109.017 -165.644)"/>
          <path id="Trazado_1030182" data-name="Trazado 1030182" d="M148.154,163.213c.4-.185.9-.043,1.273-.272a1.8,1.8,0,0,0,.558-.822,3.73,3.73,0,0,1,1.914-1.793,3.019,3.019,0,0,1,1.2-.236c0,.035,0,.069.005.1a5.11,5.11,0,0,0,.2,1.187l-.065-.027c-.083-.034-.14.1-.062.143s.137.071.207.106a2.5,2.5,0,0,0,.228.443,1.709,1.709,0,0,0,.639.6,1.858,1.858,0,0,0,.432.158,3.258,3.258,0,0,0,.464.051,1.785,1.785,0,0,1,.288.8,2.5,2.5,0,0,1-.312,1.462,3.468,3.468,0,0,1-.814.973,4.944,4.944,0,0,1-3.027.485,7.426,7.426,0,0,1-2.263-.795,3.571,3.571,0,0,1-.922-.642,1.535,1.535,0,0,1-.463-1,.993.993,0,0,1,.527-.924" transform="translate(-123.836 -134.876)"/>
          <path id="Trazado_1030183" data-name="Trazado 1030183" d="M155.354,189.505a2.586,2.586,0,0,1-.84,1.2,1.892,1.892,0,0,1-2.131-.121,3.076,3.076,0,0,1-1.107-1.92,1.126,1.126,0,0,0-.171-.5,1.663,1.663,0,0,0-.575-.346,1.313,1.313,0,0,1-.674-1.229.836.836,0,0,1,.432-.71.827.827,0,0,1,.8.121,2.42,2.42,0,0,1,.555.625.594.594,0,0,1,.18-.492,1.067,1.067,0,0,1,.474-.257,3.465,3.465,0,0,1,1.807.115,4.616,4.616,0,0,0,1.824.108c.111.093.036.528.031.661a8.244,8.244,0,0,1-.6,2.744" transform="translate(-125.708 -156.502)" fill="#fff"/>
          <path id="Trazado_1030184" data-name="Trazado 1030184" d="M152.742,190.3a2.205,2.205,0,0,1-1.293-.424,3.219,3.219,0,0,1-1.169-2.018l-.009-.045a.61.61,0,0,0-.473-.6c-.062-.028-.124-.056-.183-.088a1.48,1.48,0,0,1-.757-1.382,1,1,0,0,1,.524-.842.978.978,0,0,1,.952.135,1.856,1.856,0,0,1,.377.367.83.83,0,0,1,.155-.216,1.216,1.216,0,0,1,.543-.3,3.611,3.611,0,0,1,1.89.115,3.2,3.2,0,0,0,1.555.108c.133-.025.239-.044.33.032.142.119.129.37.1.687,0,.042-.008.078-.009.1a8.362,8.362,0,0,1-.611,2.8,2.756,2.756,0,0,1-.9,1.271,1.8,1.8,0,0,1-1.022.3m-3.025-5.152a.487.487,0,0,0-.2.041.691.691,0,0,0-.339.578,1.153,1.153,0,0,0,.591,1.077c.053.028.108.053.163.078a.9.9,0,0,1,.655.831l.008.044a2.9,2.9,0,0,0,1.045,1.823,1.732,1.732,0,0,0,1.946.119,2.471,2.471,0,0,0,.783-1.13,8.042,8.042,0,0,0,.588-2.691c0-.029.006-.071.01-.121a2.1,2.1,0,0,0,.014-.386l-.067.012a3.535,3.535,0,0,1-1.694-.113,3.338,3.338,0,0,0-1.723-.116.905.905,0,0,0-.4.216.437.437,0,0,0-.136.356.159.159,0,0,1-.287.115,2.293,2.293,0,0,0-.516-.586.773.773,0,0,0-.435-.148m4.8,3.521h0Z" transform="translate(-124.867 -155.662)"/>
          <path id="Trazado_1030185" data-name="Trazado 1030185" d="M151.72,175.944l8.312-.261a.3.3,0,1,0-.023-.607l-8.671.38a.383.383,0,0,0,.382.487" transform="translate(-126.945 -147.483)" fill="#5479f7"/>
          <path id="Trazado_1030186" data-name="Trazado 1030186" d="M156.574,157.2l.779-.143s.075-3.9-3.508-3.795c-3.861.109-2.939,3.844-2.939,3.844Z" transform="translate(-126.513 -129.135)" fill="#5479f7"/>
          <path id="Trazado_1030187" data-name="Trazado 1030187" d="M84.91,234.86h16.447l-1.806-13.6a6.552,6.552,0,0,0-3.1-4.734l-.311-.189a4.746,4.746,0,0,0-6.467,1.491c-2.026,3.191-4.4,8.656-4.768,17.031" transform="translate(-71.082 -181.607)" fill="#5479f7"/>
          <path id="Trazado_1030188" data-name="Trazado 1030188" d="M291.562,327.773a.159.159,0,0,1-.134-.074l-16.181-25.381a.159.159,0,0,1,.268-.171L291.7,327.528a.159.159,0,0,1-.134.244" transform="translate(-231.162 -254.307)"/>
          <path id="Trazado_1030189" data-name="Trazado 1030189" d="M255.089,279.246a.667.667,0,0,1-.576-1l5.824-9.793a.671.671,0,0,1,.917-.234.664.664,0,0,1,.235.912l-5.824,9.793a.67.67,0,0,1-.577.327" transform="translate(-213.665 -225.748)" fill="#fff"/>
          <path id="Trazado_1030190" data-name="Trazado 1030190" d="M254.247,278.565a.832.832,0,0,1-.421-.115.823.823,0,0,1-.291-1.13l5.824-9.793a.832.832,0,0,1,1.134-.29.823.823,0,0,1,.291,1.13l-5.824,9.793a.833.833,0,0,1-.713.4m5.825-11.124a.512.512,0,0,0-.44.249l-5.824,9.793a.5.5,0,0,0,.179.694.513.513,0,0,0,.7-.178l5.824-9.793a.5.5,0,0,0-.179-.694.51.51,0,0,0-.259-.071" transform="translate(-212.822 -224.908)"/>
          <path id="Trazado_1030191" data-name="Trazado 1030191" d="M246.08,292.353l-.21-.108-6.576.477c.23.9-.474,2.557-.187,3.658.258.991,1.507,1.42,1.746,2.331l2.945-.85a1.173,1.173,0,0,0,.673-.51l2.07-3.35a1.164,1.164,0,0,0-.461-1.648" transform="translate(-200.725 -246.039)" fill="#fff"/>
          <path id="Trazado_1030192" data-name="Trazado 1030192" d="M240.009,298.028a.159.159,0,0,1-.154-.118,2.38,2.38,0,0,0-.8-1.037,2.8,2.8,0,0,1-.95-1.294,5.255,5.255,0,0,1,.087-2.076,4.4,4.4,0,0,0,.1-1.582.159.159,0,0,1,.142-.2l6.576-.477a.157.157,0,0,1,.084.017l.21.108a1.323,1.323,0,0,1,.523,1.873l-2.07,3.35a1.329,1.329,0,0,1-.764.579l-2.945.85a.153.153,0,0,1-.044.006m-1.37-6a5.641,5.641,0,0,1-.129,1.529,5.054,5.054,0,0,0-.093,1.943,2.528,2.528,0,0,0,.858,1.141,2.992,2.992,0,0,1,.837,1.035l2.8-.807a1.012,1.012,0,0,0,.582-.44l2.07-3.35a1,1,0,0,0-.4-1.423l-.171-.088Z" transform="translate(-199.882 -245.198)"/>
          <path id="Trazado_1030193" data-name="Trazado 1030193" d="M122.479,242.759l-4.156-8.25a4.4,4.4,0,0,0-6.114-1.787,4.354,4.354,0,0,0-1.93,5.248,46.912,46.912,0,0,0,4.985,10.267,6.892,6.892,0,0,0,7.565,2.651l9.5-2.742c-.505-1.922-1.121-4.279-1.559-5.988Z" transform="translate(-92.203 -195.474)" fill="#fff"/>
          <path id="Trazado_1030194" data-name="Trazado 1030194" d="M187.528,290.545a.159.159,0,0,1-.044-.312l2.715-.784c-.636-2.421-1.136-4.34-1.487-5.711l-8.16.592a.16.16,0,0,1-.153-.087l-1.334-2.649a.159.159,0,1,1,.284-.143l1.287,2.554,8.187-.594a.158.158,0,0,1,.165.119c.36,1.4.884,3.419,1.559,5.987a.159.159,0,0,1-.11.193l-2.864.827a.158.158,0,0,1-.044.006" transform="translate(-150.265 -236.888)"/>
          <path id="Trazado_1030195" data-name="Trazado 1030195" d="M22.738,538.21a11.978,11.978,0,1,0,11.978-11.978A11.978,11.978,0,0,0,22.738,538.21" transform="translate(-18.786 -442.857)" fill="#fff"/>
          <path id="Trazado_1030196" data-name="Trazado 1030196" d="M33.875,549.505a12.137,12.137,0,1,1,12.137-12.137,12.15,12.15,0,0,1-12.137,12.137m0-23.956a11.819,11.819,0,1,0,11.819,11.819A11.832,11.832,0,0,0,33.875,525.55" transform="translate(-17.945 -442.016)"/>
          <path id="Trazado_1030197" data-name="Trazado 1030197" d="M47.116,558.715a8.105,8.105,0,1,0,8.105-8.105,8.105,8.105,0,0,0-8.105,8.105" transform="translate(-39.291 -463.362)" fill="#5479f7"/>
          <rect id="Rectángulo_459763" data-name="Rectángulo 459763" width="6.916" height="83.733" transform="translate(70.912 16.42)" fill="#fff"/>
          <path id="Trazado_1030198" data-name="Trazado 1030198" d="M450.338,187.793h-6.916a.159.159,0,0,1-.159-.159V103.9a.159.159,0,0,1,.159-.159h6.916a.159.159,0,0,1,.159.159v83.733a.159.159,0,0,1-.159.159m-6.757-.318h6.6V104.06h-6.6Z" transform="translate(-372.51 -87.48)"/>
          <path id="Trazado_1030199" data-name="Trazado 1030199" d="M504.371,429.643v32.122h41.777l-38.542-3.525v-28.6Z" transform="translate(-423.911 -361.611)" fill="#fff"/>
          <path id="Trazado_1030200" data-name="Trazado 1030200" d="M545.308,461.082H503.531a.159.159,0,0,1-.159-.159V428.8a.159.159,0,0,1,.159-.159h3.235a.159.159,0,0,1,.159.159v28.452l38.4,3.512a.159.159,0,0,1-.014.317m-41.618-.318h38.137l-35.075-3.208a.159.159,0,0,1-.144-.158V428.96H503.69Z" transform="translate(-423.07 -360.769)"/>
          <path id="Trazado_1030201" data-name="Trazado 1030201" d="M67.988,286.333l2.7,11.829H82.108a3.525,3.525,0,0,1,3.525,3.525v2.444H65.785l-4.159-17.484a1.314,1.314,0,0,1,1.246-1.73h3.08a2.17,2.17,0,0,1,2.035,1.416" transform="translate(-51.439 -239.875)" fill="#fff"/>
          <path id="Trazado_1030202" data-name="Trazado 1030202" d="M84.784,303.449H64.935a.159.159,0,0,1-.154-.122l-4.159-17.484a1.472,1.472,0,0,1,1.4-1.926H65.1a.159.159,0,1,1,0,.318h-3.08a1.155,1.155,0,0,0-1.1,1.521l4.133,17.376H84.784a.159.159,0,1,1,0,.318" transform="translate(-50.589 -239.034)"/>
          <path id="Trazado_1030203" data-name="Trazado 1030203" d="M330.053,538.21a11.978,11.978,0,1,0,11.978-11.978,11.978,11.978,0,0,0-11.978,11.978" transform="translate(-277.283 -442.857)" fill="#fff"/>
          <path id="Trazado_1030204" data-name="Trazado 1030204" d="M341.19,549.505a12.137,12.137,0,1,1,12.137-12.137,12.15,12.15,0,0,1-12.137,12.137m0-23.956a11.819,11.819,0,1,0,11.819,11.819A11.832,11.832,0,0,0,341.19,525.55" transform="translate(-276.442 -442.016)"/>
          <path id="Trazado_1030205" data-name="Trazado 1030205" d="M354.431,558.715a8.105,8.105,0,1,0,8.105-8.105,8.105,8.105,0,0,0-8.105,8.105" transform="translate(-297.789 -463.362)" fill="#5479f7"/>
          <path id="Trazado_1030206" data-name="Trazado 1030206" d="M44.518,107.922a12.968,12.968,0,0,0-8.943-3.576H7.983a3.53,3.53,0,0,0-3.53,3.53v60.682L1,169.8v16.3H50.758c-.261-18.992,16.72-19.253,16.72-19.253a74.763,74.763,0,0,0-22.96-58.931m19.064,55.409A23.262,23.262,0,0,0,57,165.87a20.011,20.011,0,0,0-5,4.076c-2.988-.036-9.794-.1-13.523-.081l-4.65-15.676H8.483V108.376H35.575a8.9,8.9,0,0,1,6.165,2.464,71.664,71.664,0,0,1,14.384,19.475,69.83,69.83,0,0,1,7.459,33.016" transform="translate(-0.501 -87.988)" fill="#fff"/>
          <path id="Trazado_1030207" data-name="Trazado 1030207" d="M49.917,185.423H.159A.159.159,0,0,1,0,185.264v-16.3a.159.159,0,0,1,.105-.149l3.348-1.208v-60.57a3.693,3.693,0,0,1,3.689-3.689H34.733a13.074,13.074,0,0,1,9.053,3.62,75.888,75.888,0,0,1,15.236,20.622A74.371,74.371,0,0,1,66.8,166.021a.159.159,0,0,1-.156.149,19.325,19.325,0,0,0-8.392,2.489c-3.8,2.205-8.306,6.875-8.172,16.6a.159.159,0,0,1-.159.161m-49.6-.318H49.756a21.287,21.287,0,0,1,2.526-10.941,15.691,15.691,0,0,1,5.818-5.786,19.815,19.815,0,0,1,8.387-2.52A74.958,74.958,0,0,0,43.567,107.2a12.757,12.757,0,0,0-8.834-3.532H7.142a3.375,3.375,0,0,0-3.371,3.371v60.682a.159.159,0,0,1-.105.15L.318,169.074Zm66.319-19.094h0Zm-15.474,3.251h0c-3.3-.04-9.89-.1-13.52-.081h0a.159.159,0,0,1-.152-.113l-4.616-15.563H7.642a.159.159,0,0,1-.159-.159V107.535a.159.159,0,0,1,.159-.159H34.733a9.061,9.061,0,0,1,6.274,2.508A71.823,71.823,0,0,1,55.424,129.4a70.039,70.039,0,0,1,7.476,33.09.159.159,0,0,1-.124.152,22.929,22.929,0,0,0-6.536,2.521,19.831,19.831,0,0,0-4.958,4.043.159.159,0,0,1-.119.054m-12.07-.4c3.711,0,9.084.048,12,.083a20.156,20.156,0,0,1,4.988-4.053,23.225,23.225,0,0,1,6.5-2.529,69.705,69.705,0,0,0-7.444-32.817,71.5,71.5,0,0,0-14.351-19.431,8.746,8.746,0,0,0-6.055-2.42H7.8v45.494H32.99a.159.159,0,0,1,.152.114l4.616,15.562,1.335,0m23.648-6.371h0Z" transform="translate(0.34 -87.147)"/>
          <path id="Trazado_1030208" data-name="Trazado 1030208" d="M1048.8,651.753c-.752-7.62-1.312-13.229-1.393-13.873a41.439,41.439,0,0,0-5.453-16.183l-2-3.8-11.409.789-8.345-.642-8.637,33.7Z" transform="translate(-850.53 -519.965)" fill="#5479f7"/>
          <path id="Trazado_1030209" data-name="Trazado 1030209" d="M1098.3,749.36a.159.159,0,0,1-.158-.146c-.006-.073-.577-7.33-.865-11.14a3.946,3.946,0,0,0-1.69-3.041l-1.43-.99a.159.159,0,0,1,.181-.261l1.43.99a4.253,4.253,0,0,1,1.826,3.278c.288,3.809.859,11.066.865,11.138a.159.159,0,0,1-.146.171h-.013" transform="translate(-919.948 -617.413)"/>
          <path id="Trazado_1030210" data-name="Trazado 1030210" d="M785.681,612.97l.392-.476a13.67,13.67,0,0,1,5.528-4.02l11.668-4.608-2.554-8.259-15.9,6.079a14.131,14.131,0,0,0-3.029,1.9l-1.2.86-1.438,5.74Z" transform="translate(-655.039 -501.211)" fill="#fff"/>
          <path id="Trazado_1030211" data-name="Trazado 1030211" d="M784.841,612.287a.162.162,0,0,1-.062-.013l-6.532-2.78a.159.159,0,0,1-.092-.185l1.438-5.74a.16.16,0,0,1,.062-.09l1.2-.86c.163-.117.326-.237.491-.358a11.325,11.325,0,0,1,2.574-1.565l15.9-6.079a.159.159,0,0,1,.209.1l2.554,8.259a.159.159,0,0,1-.093.195L790.82,607.78a13.543,13.543,0,0,0-5.464,3.973l-.392.476a.159.159,0,0,1-.123.058m-6.345-3.032,6.3,2.681.317-.385a13.863,13.863,0,0,1,5.593-4.067l11.531-4.554-2.46-7.957-15.745,6.018a11.093,11.093,0,0,0-2.5,1.524c-.165.122-.33.243-.494.361l-1.149.826Z" transform="translate(-654.199 -500.37)"/>
          <path id="Trazado_1030212" data-name="Trazado 1030212" d="M883.851,434.376c-1.733,0-2.318.792-4.536,2.492-4.433,3.4-5.11,7.255-5.858,9.035-1.407,3.354-1.844,5.639-3.1,9.273-5.825,2.749-10.575,5.327-16.4,8.075l5.571,8.224,15.5-5.365c3.5-1.227,5.076-4.391,4.835-5.835.4,2.379,4.708,15.245,4.708,15.245l24.54-9.058s-8.646-32.124-25.258-32.088" transform="translate(-717.965 -365.592)" fill="#fff"/>
          <path id="Trazado_1030213" data-name="Trazado 1030213" d="M858.688,470.795a.159.159,0,0,1-.132-.07l-5.571-8.224a.159.159,0,0,1,.064-.233c2.911-1.373,5.6-2.727,8.2-4.036,2.582-1.3,5.252-2.646,8.143-4.011.475-1.38.829-2.555,1.171-3.693A51.92,51.92,0,0,1,872.469,445c.123-.293.244-.643.384-1.048a15.494,15.494,0,0,1,5.524-8.052c.415-.318.775-.606,1.092-.86,1.383-1.106,2.077-1.662,3.54-1.665h.028c3.822,0,7.535,1.7,11.037,5.043a43.151,43.151,0,0,1,7.935,11.073,88.57,88.57,0,0,1,6.413,16.09.159.159,0,0,1-.307.083,88.212,88.212,0,0,0-6.389-16.029c-3.842-7.275-10.2-15.941-18.688-15.941h-.027c-1.352,0-1.975.5-3.342,1.6-.319.255-.68.544-1.1.864a15.211,15.211,0,0,0-5.416,7.9c-.142.41-.264.764-.391,1.067a51.667,51.667,0,0,0-1.9,5.5c-.349,1.158-.709,2.355-1.2,3.768a.16.16,0,0,1-.082.092c-2.911,1.373-5.6,2.727-8.2,4.036-2.55,1.285-5.186,2.612-8.036,3.96l5.4,7.97,15.381-5.325c3.52-1.233,4.951-4.339,4.73-5.659a.159.159,0,1,1,.313-.052c.236,1.412-1.253,4.72-4.939,6.011l-15.5,5.365a.158.158,0,0,1-.052.009" transform="translate(-717.124 -364.751)"/>
          <rect id="Rectángulo_459764" data-name="Rectángulo 459764" width="52.185" height="41.466" transform="translate(98.017 78.328)" fill="#e2eaff"/>
          <path id="Trazado_1030214" data-name="Trazado 1030214" d="M754.674,542.075a.159.159,0,0,1-.159-.159V503.633a.159.159,0,1,1,.318,0v38.283a.159.159,0,0,1-.159.159" transform="translate(-634.318 -423.714)" fill="#5479f7"/>
          <path id="Trazado_1030215" data-name="Trazado 1030215" d="M846.9,505.379a.159.159,0,0,1-.159-.159V493.615a.159.159,0,0,1,.318,0V505.22a.159.159,0,0,1-.159.159" transform="translate(-711.897 -415.287)" fill="#5479f7"/>
          <path id="Trazado_1030216" data-name="Trazado 1030216" d="M888.493,669.3s-8.855.389-8.877,2.243c-.012,1,3.948.8,3.948.8s-7.775,1.861-7.328,3.4c.291,1,2.122.582,2.122.582s-2.207.771-1.827,1.64,3.166.2,3.166.2-1.937.316-1.543,1.443,5.773-.486,5.773-.486-3.821.678-3.5,1.621c.41,1.216,8.485-.12,13.533-3.5,0,0-2.36-5.086-5.465-7.936" transform="translate(-736.688 -563.197)" fill="#fff"/>
          <path id="Trazado_1030217" data-name="Trazado 1030217" d="M881.116,680.5a3.885,3.885,0,0,1-1.191-.145.712.712,0,0,1-.494-.407.521.521,0,0,1,.054-.443,1.072,1.072,0,0,1,.288-.3c-1.254.186-2.411.184-2.612-.393a.908.908,0,0,1,.064-.8,1.208,1.208,0,0,1,.286-.319c-.819.072-1.735.02-1.969-.515a.669.669,0,0,1,.006-.555,2.326,2.326,0,0,1,1.033-.905,1.292,1.292,0,0,1-1.341-.78.685.685,0,0,1,.085-.55c.63-1.084,4.166-2.186,6.1-2.719a4.87,4.87,0,0,1-2.628-.564.549.549,0,0,1-.184-.412c.023-1.949,8.107-2.359,9.029-2.4a.159.159,0,0,1,.115.042c3.093,2.839,5.478,7.935,5.5,7.986a.159.159,0,0,1-.056.2,26.154,26.154,0,0,1-12.087,3.976M880.924,679a2.414,2.414,0,0,0-1.165.672.2.2,0,0,0-.026.179c.026.079.132.153.3.208,1.612.547,8.275-.681,12.884-3.718a29.433,29.433,0,0,0-5.321-7.718c-3.369.154-8.645.85-8.659,2.083a.232.232,0,0,0,.087.179c.528.507,2.845.505,3.694.461a.159.159,0,0,1,.045.313c-1.769.424-6.5,1.769-7.158,2.9a.376.376,0,0,0-.055.3c.242.83,1.918.475,1.935.471a.159.159,0,0,1,.088.3c-.406.142-1.509.622-1.729,1.126a.354.354,0,0,0-.005.3c.217.5,1.67.382,2.7.17.163-.043.277-.062.292-.065a.159.159,0,0,1,.063.311c-.043.01-.135.032-.262.058a1.946,1.946,0,0,0-1.131.649.6.6,0,0,0-.037.529c.165.471,1.739.32,3.414-.034a15.6,15.6,0,0,1,2.181-.556.159.159,0,0,1,.073.309c-.349.1-1.226.358-2.205.568" transform="translate(-735.845 -562.356)"/>
          <path id="Trazado_1030218" data-name="Trazado 1030218" d="M921.62,684.718a.159.159,0,0,1-.044-.311l.276-.08c.629-.182.629-.182,1.241-.362l.459-.135a.159.159,0,1,1,.09.3l-.459.135c-.613.181-.613.181-1.243.363l-.276.08a.157.157,0,0,1-.044.006" transform="translate(-774.745 -575.414)"/>
          <path id="Trazado_1030219" data-name="Trazado 1030219" d="M894.038,718.828a.159.159,0,0,1-.04-.313l.71-.181c1.106-.28,2.482-.63,3.4-.955a.159.159,0,0,1,.106.3c-.932.33-2.316.681-3.428.963l-.709.181a.157.157,0,0,1-.04.005" transform="translate(-751.544 -603.632)"/>
          <path id="Trazado_1030220" data-name="Trazado 1030220" d="M908.08,729.573a.159.159,0,0,1-.04-.313l.6-.154c.937-.238,2.1-.534,2.881-.809a.159.159,0,0,1,.106.3c-.791.28-1.966.578-2.909.817l-.6.153a.158.158,0,0,1-.04.005" transform="translate(-763.355 -612.817)"/>
          <path id="Trazado_1030221" data-name="Trazado 1030221" d="M888.671,706.884a.159.159,0,0,1-.044-.311c.474-.137,1.072-.3,1.7-.477.807-.224,1.642-.456,2.324-.657a.159.159,0,0,1,.09.3c-.684.2-1.52.434-2.329.658-.624.173-1.22.339-1.694.476a.16.16,0,0,1-.044.006" transform="translate(-747.03 -593.591)"/>
          <path id="Trazado_1030222" data-name="Trazado 1030222" d="M1023.081,536.874,1016.571,516l-10.329-4.138-7.085,3.5,7.1,27.162Z" transform="translate(-840.099 -430.772)" fill="#5479f7"/>
          <path id="Trazado_1030223" data-name="Trazado 1030223" d="M969.523,473.055l-4.7-1.96-.8,21.956-14.385,9.289,5.429,9.583,17.433-9.632a11.276,11.276,0,0,0,4.979-9.186l.244-16.63Z" transform="translate(-798.446 -396.478)" fill="#fff"/>
          <path id="Trazado_1030224" data-name="Trazado 1030224" d="M1124.285,518.51h0a.159.159,0,0,1-.156-.161l.208-14.224a.159.159,0,0,1,.159-.156h0a.159.159,0,0,1,.156.161l-.208,14.224a.159.159,0,0,1-.159.156" transform="translate(-945.216 -424.129)"/>
          <path id="Trazado_1030225" data-name="Trazado 1030225" d="M954.226,637.693a.159.159,0,0,1-.138-.081l-5.429-9.583a.159.159,0,0,1,.052-.212l11.4-7.364a.159.159,0,0,1,.172.267L949.009,628l5.278,9.316,9.845-5.439a.159.159,0,1,1,.154.278l-9.983,5.515a.157.157,0,0,1-.077.02" transform="translate(-797.604 -522.089)"/>
          <path id="Trazado_1030226" data-name="Trazado 1030226" d="M1035.1,453.908a.159.159,0,0,1-.158-.144,10.78,10.78,0,0,1,5.821-10.351.159.159,0,1,1,.139.285,10.452,10.452,0,0,0-5.644,10.036.159.159,0,0,1-.144.173h-.015" transform="translate(-870.162 -373.18)" fill="#5479f7"/>
          <path id="Trazado_1030227" data-name="Trazado 1030227" d="M992.825,494.938a.159.159,0,0,1-.149-.1,20.664,20.664,0,0,1-1.233-6.037.159.159,0,0,1,.317-.017,20.345,20.345,0,0,0,1.214,5.944.159.159,0,0,1-.149.214" transform="translate(-833.609 -411.228)" fill="#5479f7"/>
          <path id="Trazado_1030228" data-name="Trazado 1030228" d="M1003.749,402.255l5.767,6.592a.979.979,0,0,1,.117,1.119c-.671,1.206-2.338,3.859-4.527,4.919-2.875,1.391-2.424-1.48-1.525-4.079,0,0-2.082-2.263-2.024-2.632.328-2.108,1.5-5.76,2.192-5.919" transform="translate(-842.117 -338.574)" fill="#fff"/>
          <path id="Trazado_1030229" data-name="Trazado 1030229" d="M1003.021,414.564a1.02,1.02,0,0,1-.7-.241c-.624-.555-.541-2.008.249-4.32-.8-.875-2.059-2.317-2-2.695.272-1.749,1.429-5.848,2.313-6.049a.158.158,0,0,1,.155.05l5.767,6.592a1.143,1.143,0,0,1,.136,1.3c-.632,1.135-2.344,3.894-4.6,4.984a3.17,3.17,0,0,1-1.321.378m-.148-12.958c-.552.39-1.64,3.492-1.992,5.75a13.713,13.713,0,0,0,1.984,2.5.159.159,0,0,1,.033.16c-.75,2.168-.881,3.613-.369,4.069.3.269.866.206,1.674-.185,2.171-1.051,3.84-3.744,4.457-4.853a.824.824,0,0,0-.1-.938Z" transform="translate(-841.282 -337.733)"/>
          <path id="Trazado_1030230" data-name="Trazado 1030230" d="M1002.359,409.772a.158.158,0,0,1-.118-.052c-.071-.079-1.749-1.944-1.676-2.412.272-1.749,1.429-5.848,2.313-6.049a.159.159,0,0,1,.155.05l4.252,4.861a.159.159,0,1,1-.239.209l-4.176-4.773c-.552.39-1.64,3.492-1.992,5.75a9.752,9.752,0,0,0,1.6,2.15.159.159,0,0,1-.012.224.157.157,0,0,1-.106.041" transform="translate(-841.281 -337.733)"/>
          <path id="Trazado_1030231" data-name="Trazado 1030231" d="M954.85,384.311s1.372,8.964,2.856,10.759,5.18-1.93,5.3-4.183a23.286,23.286,0,0,0-.879-5.793Z" transform="translate(-802.83 -323.48)" fill="#fff"/>
          <path id="Trazado_1030232" data-name="Trazado 1030232" d="M957.87,394.863a1.408,1.408,0,0,1-1.128-.532c-1.495-1.808-2.834-10.469-2.891-10.836a.158.158,0,0,1,.042-.134.161.161,0,0,1,.132-.048l7.274.783a.158.158,0,0,1,.136.115,23.078,23.078,0,0,1,.885,5.845,6.527,6.527,0,0,1-3.764,4.688,2.2,2.2,0,0,1-.686.12M954.2,383.65c.215,1.343,1.472,8.885,2.789,10.478a1.242,1.242,0,0,0,1.469.313,6.248,6.248,0,0,0,3.547-4.4,22.559,22.559,0,0,0-.845-5.639Z" transform="translate(-801.988 -322.64)"/>
          <path id="Trazado_1030233" data-name="Trazado 1030233" d="M969.869,386.481l.665,6.518s.061,2.572-1.528,1.4c-2.385-1.761-3.468-.225-3.468-.225l.735,2.984a2.917,2.917,0,0,0,3.045,1.96c1.692-.188,3.785-.764,4.189-3.028a22.13,22.13,0,0,0-.124-6.17l-.234-2.9Z" transform="translate(-811.82 -325.306)"/>
          <path id="Trazado_1030234" data-name="Trazado 1030234" d="M1000.174,394.339s1.08-2.179,2.5-.847-.132,4.622-2.467,2.978Z" transform="translate(-840.954 -330.84)" fill="#fff"/>
          <path id="Trazado_1030235" data-name="Trazado 1030235" d="M1000.6,396.236a2.316,2.316,0,0,1-1.331-.477.159.159,0,0,1-.068-.128l-.03-2.131a.161.161,0,0,1,.017-.073c.024-.048.6-1.185,1.5-1.347a1.429,1.429,0,0,1,1.251.455,2.29,2.29,0,0,1,.047,3.016,1.783,1.783,0,0,1-1.383.685m-1.082-.691a1.547,1.547,0,0,0,2.219-.194,1.965,1.965,0,0,0-.018-2.583,1.133,1.133,0,0,0-.977-.374c-.667.119-1.156.966-1.252,1.143Z" transform="translate(-840.112 -329.999)"/>
          <path id="Trazado_1030236" data-name="Trazado 1030236" d="M1002.2,405.858a.159.159,0,0,1-.116-.268,4.93,4.93,0,0,1,1.222-.944.159.159,0,1,1,.152.279,4.61,4.61,0,0,0-1.143.883.158.158,0,0,1-.116.05" transform="translate(-842.523 -340.569)"/>
          <path id="Trazado_1030237" data-name="Trazado 1030237" d="M950.179,365.675l4.791-.393-1.086-3.449a2.131,2.131,0,0,0-1.734-1.183,15.022,15.022,0,0,0-5.993.858,1.486,1.486,0,0,0-.945.856l-1.314,3.968Z" transform="translate(-793.617 -303.559)" fill="#5479f7"/>
          <path id="Trazado_1030238" data-name="Trazado 1030238" d="M930.212,394.654c-.949-2,3-4.061,3-4.061l10.118-.663s-11.713,7.7-13.122,4.724" transform="translate(-781.981 -328.207)" fill="#5479f7"/>
          <path id="Trazado_1030239" data-name="Trazado 1030239" d="M945.53,394.07a7.455,7.455,0,0,1-2.992-.54.238.238,0,0,1,.193-.436c2.926,1.3,7.807-.361,7.856-.378a.238.238,0,1,1,.155.451,18.077,18.077,0,0,1-5.212.9" transform="translate(-792.355 -330.539)" fill="#fff"/>
          <rect id="Rectángulo_459765" data-name="Rectángulo 459765" width="13.398" height="8.291" transform="translate(141.551 123.498)" fill="#fff"/>
          <path id="Trazado_1030240" data-name="Trazado 1030240" d="M901.5,786.417H888.1a.159.159,0,0,1-.159-.159v-8.291a.159.159,0,0,1,.159-.159h13.4a.159.159,0,0,1,.159.159v8.291a.159.159,0,0,1-.159.159M888.26,786.1h13.08v-7.973H888.26Z" transform="translate(-746.55 -654.469)"/>
          <rect id="Rectángulo_459766" data-name="Rectángulo 459766" width="13.398" height="8.291" transform="translate(111.006 123.498)" fill="#fff"/>
          <path id="Trazado_1030241" data-name="Trazado 1030241" d="M709.213,786.417h-13.4a.159.159,0,0,1-.159-.159v-8.291a.159.159,0,0,1,.159-.159h13.4a.159.159,0,0,1,.159.159v8.291a.159.159,0,0,1-.159.159m-13.239-.318h13.08v-7.973h-13.08Z" transform="translate(-584.81 -654.469)"/>
          <rect id="Rectángulo_459767" data-name="Rectángulo 459767" width="13.398" height="8.291" transform="translate(80.461 123.498)" fill="#fff"/>
          <path id="Trazado_1030242" data-name="Trazado 1030242" d="M516.928,786.417h-13.4a.159.159,0,0,1-.159-.159v-8.291a.159.159,0,0,1,.159-.159h13.4a.159.159,0,0,1,.159.159v8.291a.159.159,0,0,1-.159.159M503.69,786.1h13.08v-7.973H503.69Z" transform="translate(-423.07 -654.469)"/>
          <rect id="Rectángulo_459768" data-name="Rectángulo 459768" width="74.488" height="1.842" transform="translate(80.461 126.722)" fill="#fff"/>
          <path id="Trazado_1030243" data-name="Trazado 1030243" d="M578.018,800.266H503.531a.159.159,0,0,1-.159-.159v-1.842a.159.159,0,0,1,.159-.159h74.488a.159.159,0,0,1,.159.159v1.842a.159.159,0,0,1-.159.159m-74.329-.318h74.17v-1.524H503.69Z" transform="translate(-423.07 -671.544)"/>
          <path id="Trazado_1030244" data-name="Trazado 1030244" d="M516.045,35.919a.159.159,0,0,1-.159-.159V.159a.159.159,0,0,1,.318,0v35.6a.159.159,0,0,1-.159.159" transform="translate(-433.596 -0.218)"/>
          <path id="Trazado_1030245" data-name="Trazado 1030245" d="M530.412,35.919a.159.159,0,0,1-.159-.159V.159a.159.159,0,0,1,.318,0v35.6a.159.159,0,0,1-.159.159" transform="translate(-445.681 -0.218)"/>
          <rect id="Rectángulo_459769" data-name="Rectángulo 459769" width="57.593" height="1.767" transform="translate(85.767 28.348)" fill="#fff"/>
          <path id="Trazado_1030246" data-name="Trazado 1030246" d="M594.527,180.909H536.934a.159.159,0,0,1-.159-.159v-1.767a.159.159,0,0,1,.159-.159h57.593a.159.159,0,0,1,.159.159v1.767a.159.159,0,0,1-.159.159m-57.434-.318h57.275v-1.449H537.093Z" transform="translate(-451.167 -150.636)" fill="#e2eaff"/>
          <rect id="Rectángulo_459770" data-name="Rectángulo 459770" width="39.921" height="23.384" transform="translate(87.75 3.719)" fill="#fff"/>
          <path id="Trazado_1030247" data-name="Trazado 1030247" d="M589.335,47.484H549.414a.159.159,0,0,1-.159-.159V23.942a.159.159,0,0,1,.159-.159h39.921a.159.159,0,0,1,.159.159V47.326a.159.159,0,0,1-.159.159m-39.762-.318h39.6V24.1h-39.6Z" transform="translate(-461.664 -20.223)" fill="#e2eaff"/>
          <path id="Trazado_1030248" data-name="Trazado 1030248" d="M693.148,51.34a.159.159,0,0,1-.159-.159V29.592a.159.159,0,0,1,.318,0V51.181a.159.159,0,0,1-.159.159" transform="translate(-582.566 -24.976)" fill="#e2eaff"/>
          <path id="Trazado_1030249" data-name="Trazado 1030249" d="M622.594,30.645a.159.159,0,0,1-.159-.159V23.942a.159.159,0,0,1,.318,0v6.545a.159.159,0,0,1-.159.159" transform="translate(-523.22 -20.223)" fill="#e2eaff"/>
          <path id="Trazado_1030250" data-name="Trazado 1030250" d="M77.488,714.572H.159A.159.159,0,0,1,0,714.413V692.554a.159.159,0,1,1,.318,0v21.7h77.17a.159.159,0,1,1,0,.318" transform="translate(0.34 -582.624)"/>
        </g>
      </g>
    </g>
  </g>
</svg>
