<svg xmlns="http://www.w3.org/2000/svg" xmlns:xlink="http://www.w3.org/1999/xlink" width="98" height="98" viewBox="0 0 98 98">
  <defs>
    <clipPath id="clip-path">
      <rect id="Rectángulo_456277" data-name="Rectángulo 456277" width="98" height="98" transform="translate(0.31 0.309)" fill="#d35560"/>
    </clipPath>
    <clipPath id="clip-path-2">
      <rect id="Rectángulo_459965" data-name="Rectángulo 459965" width="45.093" height="44.872" fill="#fff"/>
    </clipPath>
  </defs>
  <g id="Grupo_1180339" data-name="Grupo 1180339" transform="translate(13435.691 12680.691)">
    <g id="Grupo_1179924" data-name="Grupo 1179924" transform="translate(-13436.001 -12681)">
      <g id="Grupo_1179923" data-name="Grupo 1179923" transform="translate(0 0)" clip-path="url(#clip-path)">
        <path id="Trazado_1004716" data-name="Trazado 1004716" d="M48.95,97.9c-1.59,0-3.077-1.816-4.627-1.968-1.579-.154-3.391,1.337-4.922,1.033-1.554-.309-2.657-2.381-4.153-2.835-1.513-.46-3.582.647-5.028.045s-2.134-2.855-3.515-3.6-3.636-.066-4.94-.94-1.533-3.214-2.747-4.212-3.552-.768-4.664-1.88-.88-3.448-1.88-4.664-3.335-1.438-4.212-2.747-.194-3.55-.94-4.94-2.99-2.057-3.6-3.515.505-3.515.046-5.028c-.455-1.5-2.527-2.6-2.835-4.153-.3-1.531,1.187-3.343,1.033-4.921C1.816,52.028,0,50.54,0,48.95s1.816-3.077,1.968-4.627C2.122,42.744.631,40.932.935,39.4c.308-1.554,2.38-2.657,2.835-4.153.46-1.513-.646-3.583-.045-5.029s2.855-2.133,3.6-3.515.066-3.636.94-4.94,3.214-1.533,4.212-2.747.768-3.552,1.881-4.664,3.448-.88,4.664-1.88,1.438-3.335,2.747-4.212,3.55-.194,4.94-.94,2.057-2.99,3.515-3.6,3.515.505,5.029.045c1.5-.454,2.6-2.527,4.153-2.835,1.531-.3,3.343,1.187,4.921,1.033C45.873,1.816,47.36,0,48.95,0s3.077,1.816,4.627,1.968C55.157,2.122,56.969.631,58.5.935c1.554.309,2.657,2.381,4.154,2.835,1.513.46,3.582-.647,5.028-.045s2.134,2.855,3.515,3.6,3.636.066,4.94.94,1.533,3.214,2.747,4.212,3.552.768,4.664,1.881.88,3.448,1.88,4.664,3.335,1.438,4.212,2.747.194,3.55.94,4.94,2.99,2.057,3.6,3.515-.505,3.515-.045,5.028c.455,1.5,2.527,2.6,2.835,4.153.3,1.531-1.187,3.343-1.033,4.922.152,1.551,1.968,3.038,1.968,4.627s-1.816,3.077-1.968,4.628c-.154,1.579,1.337,3.39,1.033,4.921-.308,1.554-2.38,2.657-2.835,4.154-.46,1.513.646,3.582.045,5.028s-2.855,2.134-3.6,3.515-.066,3.636-.94,4.94-3.214,1.533-4.212,2.747-.768,3.552-1.881,4.664-3.448.88-4.664,1.88-1.438,3.335-2.747,4.212-3.55.194-4.94.94-2.057,2.99-3.515,3.6-3.515-.505-5.028-.045c-1.5.454-2.6,2.527-4.153,2.835-1.531.3-3.343-1.187-4.921-1.033-1.551.151-3.038,1.968-4.628,1.968" transform="translate(0.359 0.359)" fill="#d35560"/>
        <path id="Trazado_1004717" data-name="Trazado 1004717" d="M14,58.32a44.32,44.32,0,1,1,44.32,44.32A44.32,44.32,0,0,1,14,58.32" transform="translate(-9.01 -9.011)" fill="#a2cbcf"/>
        <path id="Trazado_1021102" data-name="Trazado 1021102" d="M14,55.014A41.014,41.014,0,1,1,55.014,96.029,41.015,41.015,0,0,1,14,55.014" transform="translate(-5.706 -5.705)" fill="#952d36"/>
      </g>
    </g>
    <g id="Grupo_1180053" data-name="Grupo 1180053" transform="translate(-13413.503 -12658.826)">
      <rect id="Rectángulo_401104" data-name="Rectángulo 401104" width="53.625" height="54.271" transform="translate(0 0)" fill="none"/>
    </g>
    <g id="Grupo_1187768" data-name="Grupo 1187768" transform="translate(-13409.237 -12654.126)">
      <g id="Grupo_1187767" data-name="Grupo 1187767" clip-path="url(#clip-path-2)">
        <path id="Trazado_1033312" data-name="Trazado 1033312" d="M178.8,165.073c-.055-1.642.069-1.569-1.45-1.907a1.514,1.514,0,0,1-.936-2.239c.825-1.313.826-1.314-.26-2.452-.219-.23-.459-.441-.671-.678a1.059,1.059,0,0,0-1.708-.125,1.459,1.459,0,0,1-1.789.266,1.509,1.509,0,0,1-.883-1.311c-.081-.463-.063-1.152-.754-1.147-1.021.008-2.086-.329-3.056.248-.1.062-.131.276-.168.426-.077.307-.127.621-.206.927a1.555,1.555,0,0,1-2.225.831c-1.307-.876-1.351-.872-2.426.268a5.157,5.157,0,0,1-.512.562c-.792.62-.734,1.244-.167,2.014a1.465,1.465,0,0,1-.943,2.435c-1.035.146-1.453.619-1.337,1.631a5.863,5.863,0,0,1,0,.762c-.031,1.79.281,1.754,1.549,1.926a1.617,1.617,0,0,1,.995,2.059c-.91,1.606-.91,1.607.43,2.922a3.538,3.538,0,0,1,.4.4c.538.739,1.1.657,1.758.139.39-.309.73-.651,1.408-.361a1.545,1.545,0,0,1,1.158,1.486c.036.915.56,1.277,1.452,1.158a4.246,4.246,0,0,1,.572,0c1.707,0,1.707,0,2.167-1.66a1.568,1.568,0,0,1,2.254-.807c1.251.814,1.046,1.016,2.327-.248.136-.134.271-.268.405-.4,1.1-1.114,1.1-1.114.253-2.379a1.489,1.489,0,0,1,.989-2.325c1.059-.128,1.533-.583,1.371-1.658a6.7,6.7,0,0,1-.005-.762m-1.694,1.361c-.453.046-1.069,0-1.308.443a10.2,10.2,0,0,0-.893,2.287c-.112.434.329.8.594,1.144.566.726-.041,1.054-.424,1.494s-.737.491-1.169.071a1.624,1.624,0,0,0-2.035-.213c-1.031.433-1.686.909-1.791,2.089-.075.843-.832.426-1.3.5-.406.064-.763,0-.744-.562.061-1.8-1.556-1.8-2.61-2.352-.458-.239-.9.254-1.24.547-.689.6-.976-.011-1.376-.357s-.617-.67-.194-1.19c.287-.353.792-.729.651-1.208a11.116,11.116,0,0,0-1.007-2.339c-.253-.445-.875-.321-1.319-.4-.927-.174-.417-.841-.516-1.279s-.022-.807.572-.871c.458-.049,1.072,0,1.311-.391a8.682,8.682,0,0,0,.949-2.256c.109-.41-.326-.812-.608-1.133-.565-.641-.12-.99.285-1.414.384-.4.716-.687,1.236-.169a1.693,1.693,0,0,0,2.12.207c1.02-.428,1.777-.868,1.754-2.083-.011-.565.386-.589.785-.54.452.056,1.209-.263,1.21.51,0,1.84,1.591,1.865,2.665,2.446.487.264.827-.336,1.238-.535.254-.123.422-.572.8-.26.411.34.8.71,1.176,1.049a9.179,9.179,0,0,1-.623,1.019,1.213,1.213,0,0,0-.123,1.559,1.608,1.608,0,0,1,.259.607,1.446,1.446,0,0,0,1.6,1.371c.683.008.78.4.733.941-.045.509.277,1.175-.661,1.271" transform="translate(-133.739 -130.467)" fill="#fff"/>
        <path id="Trazado_1033313" data-name="Trazado 1033313" d="M216.666,8.428c.277-.009.574.058.765-.248.226-.363-.04-.6-.207-.848q-2.266-3.4-4.545-6.8c-.485-.719-.772-.71-1.261.016-1.348,2-2.7,3.991-4.018,6.006-.315.482-.987.961-.681,1.565.321.631,1.1.321,1.662.282.81-.057.926.269.921.977-.03,4.29-.017,8.58-.014,12.87a4.067,4.067,0,0,0,.068.851.447.447,0,0,0,.5.344.462.462,0,0,0,.466-.4,6.2,6.2,0,0,0,.026-.761q0-6.435,0-12.87c0-1.911,0-1.911-1.919-2.072-.027,0-.051-.03-.186-.112l3.5-5.241c.145-.217.263-.479.528-.084,1.192,1.776,2.4,3.544,3.585,5.3-.233.246-.435.158-.612.163-1.5.042-1.5.038-1.5,1.519q0,7.579,0,15.158a6.3,6.3,0,0,0,.019.761.451.451,0,0,0,.453.408.474.474,0,0,0,.575-.374,3.831,3.831,0,0,0,.052-.755q.006-6.864,0-13.728c0-1.871-.006-1.87,1.816-1.931" transform="translate(-173.499 0.001)" fill="#fff"/>
        <path id="Trazado_1033314" data-name="Trazado 1033314" d="M11.559,122.524a5,5,0,0,0-.857,0c-.532.062-.734-.121-.7-.679.049-.792.022-1.588.021-2.382,0-.38-.107-.747-.552-.736-.429.01-.541.357-.536.749.01.762-.024,1.527.017,2.287.029.537-.053.8-.7.78-.58-.021-.82-.1-.811-.773.043-2.954.024-5.909.025-8.864,0-.408.082-.939-.5-.956-.666-.019-.555.558-.555.987,0,2.955-.007,5.91.03,8.864.008.6-.168.753-.748.745-.543-.008-.8-.082-.755-.716.063-.853-.07-1.725.036-2.57A3.99,3.99,0,0,0,3.3,115.391a3.514,3.514,0,0,1-.263-4.742,1.8,1.8,0,0,0-.174-2.552A1.767,1.767,0,0,0,.4,108.38,1.608,1.608,0,0,0,.721,110.8a1.017,1.017,0,0,1,.549,1.165A4.682,4.682,0,0,0,3.4,117.037a.96.96,0,0,1,.454.88c-.021,1.366-.03,2.733.012,4.1.02.652-.394.493-.748.516-.378.024-.681.025-.643-.519.045-.632.009-1.27.01-1.906,0-.393-.11-.711-.576-.7s-.55.346-.55.73c0,.6-.012,1.208,0,1.811.008.347.01.64-.479.58-.416-.051-.837.063-.833.542,0,.549.475.57.912.568,1.716-.007,3.431,0,5.147,0q2.717,0,5.433,0c.354,0,.647-.087.682-.49.041-.462-.272-.6-.659-.623m-9.8-12.412a.609.609,0,0,1-.629-.677.585.585,0,0,1,.651-.645c.392.017.6.3.671.688-.118.333-.244.662-.693.634" transform="translate(0 -90.445)" fill="#fff"/>
        <path id="Trazado_1033315" data-name="Trazado 1033315" d="M88.922,202.51c-.733-.125-.954-.67-.516-1.254.72-.959-.03-1.409-.544-1.992a1.014,1.014,0,0,0-1.618-.172.765.765,0,0,1-1.274-.475c-.115-1.094-.814-1.087-1.626-1.111s-1.328.152-1.492,1.053a.756.756,0,0,1-1.29.481c-.505-.354-.963-.493-1.4.068-.447.576-1.408.922-.823,1.958.522.925.351,1.284-.732,1.567a.652.652,0,0,0-.575.728c.007.381.019.764-.012,1.143a.893.893,0,0,0,.838,1.115c.774.155.984.748.515,1.428a.956.956,0,0,0,.188,1.465,7.682,7.682,0,0,1,.6.617.878.878,0,0,0,1.33.135c.713-.516,1.266-.338,1.4.515.191,1.265,1.116.826,1.829.9.682.068,1.143-.087,1.227-.927.075-.741.665-.955,1.311-.587.244.139.445.367.759.357A2.03,2.03,0,0,0,88.422,207c-.373-.67-.212-1.132.522-1.307.645-.154,1.029-.427.912-1.164-.121-.763.414-1.787-.934-2.017m-.557,2.118a1.86,1.86,0,0,0-.989,2.722.438.438,0,0,1-.1.64.481.481,0,0,1-.718.083,1.819,1.819,0,0,0-2.626,1.1c-.056.247-.015.514-.406.5-.369-.014-.525-.126-.614-.532a1.893,1.893,0,0,0-2.6-1.106c-.293.157-.472.216-.736-.047s-.189-.455-.028-.734a1.844,1.844,0,0,0-1.044-2.636c-.267-.083-.465-.122-.452-.47.012-.311.055-.5.411-.624a1.749,1.749,0,0,0,1.022-2.651.441.441,0,0,1,.073-.649.447.447,0,0,1,.637-.107,1.863,1.863,0,0,0,2.718-1.112.5.5,0,0,1,.539-.383c.385-.019.438.179.508.506a1.9,1.9,0,0,0,2.654,1.067.581.581,0,0,1,.9.384c-.023.045-.068.123-.1.2a1.819,1.819,0,0,0,1.017,2.768.473.473,0,0,1,.358.549c-.008.3-.141.417-.423.527" transform="translate(-64.662 -165.826)" fill="#fff"/>
        <path id="Trazado_1033316" data-name="Trazado 1033316" d="M153.907,60c.308-.005.662.089.865-.245.235-.386-.074-.657-.259-.932q-2.176-3.234-4.369-6.456c-.649-.951-.887-.938-1.546.043-1.273,1.893-2.564,3.774-3.8,5.69-.323.5-1.071.978-.715,1.622.325.588,1.115.285,1.681.251.741-.044.892.21.88.906-.04,2.477-.011,4.956-.009,7.434,0,.7,0,1.4,0,2.1,0,.331.132.572.457.617.4.055.563-.233.615-.574a4.42,4.42,0,0,0,.023-.665q.008-4.718.011-9.435c0-1.382-.008-1.377-1.435-1.434-.2-.008-.446.1-.616-.209l3.718-5.47,3.864,5.679c-.511,0-.853.023-1.191,0-.685-.056-.994.227-.988.928.021,2.51.018,5.019.029,7.529,0,.394.026.817.562.818.561,0,.519-.44.519-.824q0-2.811,0-5.623c0-1.71,0-1.708,1.716-1.739" transform="translate(-120.893 -43.376)" fill="#fff"/>
        <path id="Trazado_1033317" data-name="Trazado 1033317" d="M91.873,109.2c.35-.014.735.025.91-.365.158-.353-.131-.585-.306-.842q-2.2-3.222-4.4-6.445c-.655-.961-.838-.966-1.474-.027-1.28,1.89-2.577,3.769-3.819,5.683-.343.528-1.143,1.039-.757,1.711.34.594,1.177.274,1.79.266.574-.008.776.141.758.746-.045,1.556-.017,3.115-.02,4.673,0,.417-.045.93.538.913s.5-.541.5-.95q0-2.146,0-4.292c0-2.032,0-2.032-2.074-2.248l3.832-5.619,3.869,5.7A11,11,0,0,1,90.1,108.1c-.824-.1-1.131.219-1.1,1.07.056,1.81.03,3.624.024,5.436,0,.463.115.893.617.9s.509-.458.507-.856c-.006-1.208,0-2.416,0-3.624,0-1.75,0-1.752,1.73-1.823" transform="translate(-68.786 -84.653)" fill="#fff"/>
        <path id="Trazado_1033318" data-name="Trazado 1033318" d="M1.188,81.311q3.763,0,7.527,0c1.242,0,1.442.2,1.444,1.421q.011,5.336.014,10.671c0,.43.031.894.616.86.529-.03.5-.476.5-.864q0-2.763,0-5.526h-.008c0-1.779.009-3.557,0-5.336a2.036,2.036,0,0,0-2.282-2.294c-2.6-.025-5.208-.008-7.813-.011-.43,0-.917,0-.917.564,0,.595.518.511.925.511" transform="translate(-0.221 -67.364)" fill="#fff"/>
        <path id="Trazado_1033319" data-name="Trazado 1033319" d="M45.171,11.709c.036-.543-.391-.567-.786-.569a34.8,34.8,0,0,1-3.616-.027,4.22,4.22,0,0,0-4.53,2.024,1.658,1.658,0,0,1-1.62.758c-1.84-.048-3.682-.015-5.523-.017-.4,0-.819.017-.823.545s.417.565.814.567c1.016.005,2.032,0,3.048,0v-.013a18.973,18.973,0,0,1,1.9.011,3.4,3.4,0,0,0,3.433-1.558c.14-.209.348-.372.5-.578a1.6,1.6,0,0,1,1.469-.682c1.65.036,3.3.009,4.952.015.371,0,.753-.012.784-.478" transform="translate(-23.738 -9.292)" fill="#fff"/>
        <path id="Trazado_1033320" data-name="Trazado 1033320" d="M107.251,46.348a1.7,1.7,0,0,0,.19-2.585,1.743,1.743,0,0,0-2.479-.051,1.721,1.721,0,0,0,.092,2.6,1.278,1.278,0,0,1,.564,1.266c-.034.41-.007.825-.005,1.238,0,.445-.012.89,0,1.334s-.148,1.069.59,1.06c.684-.009.516-.6.523-1.012.014-.889.011-1.779,0-2.668a1.162,1.162,0,0,1,.521-1.183m-1.056-.7a.633.633,0,0,1-.684-.641.618.618,0,0,1,.639-.673.6.6,0,0,1,.668.635.617.617,0,0,1-.622.678" transform="translate(-87.666 -36.287)" fill="#fff"/>
        <path id="Trazado_1033321" data-name="Trazado 1033321" d="M62.525,65.488c.009,1.4,0,2.793,0,4.189,0,.452-.044.984.592.976.579-.007.532-.511.53-.928,0-.73,0-1.46,0-2.19q0-.571,0-1.143c0-.413.014-.826,0-1.238a2.006,2.006,0,0,0-1.923-2.081c-1.045-.05-2.094-.009-3.141-.014-.4,0-.717.136-.712.574s.342.552.733.549q1.285-.01,2.571-.007c1.141,0,1.347.2,1.354,1.312" transform="translate(-48.586 -52.937)" fill="#fff"/>
        <path id="Trazado_1033322" data-name="Trazado 1033322" d="M10.633,247.492q-4.72-.005-9.441-.006c-.434,0-.919.014-.922.561s.476.568.913.566c1.558-.007,3.115,0,4.673,0q2.384,0,4.768,0c.421,0,.91.038.915-.551s-.487-.57-.906-.57" transform="translate(-0.227 -207.792)" fill="#fff"/>
        <path id="Trazado_1033323" data-name="Trazado 1033323" d="M1.2,63.114c-.441,0-.9.037-.881.588.02.46.441.535.856.53.98-.013,1.961,0,2.941,0s1.961,0,2.941,0c.416,0,.9.017.867-.589-.025-.519-.445-.527-.843-.526q-2.941.006-5.882,0" transform="translate(-0.265 -52.989)" fill="#fff"/>
        <path id="Trazado_1033324" data-name="Trazado 1033324" d="M5.833,11.976c-.013-.4-.336-.493-.681-.493-1.4,0-2.8.008-4.2,0-.351,0-.673.08-.7.471-.028.44.281.584.687.579.7-.008,1.4,0,2.1,0s1.4-.011,2.1.005c.412.01.707-.124.692-.566" transform="translate(-0.216 -9.641)" fill="#fff"/>
        <path id="Trazado_1033325" data-name="Trazado 1033325" d="M.914,47.176c.571-.013,1.142,0,1.714,0,.6,0,1.206,0,1.809,0,.359,0,.668-.13.674-.506s-.268-.541-.642-.54q-1.809.006-3.618,0c-.371,0-.642.169-.618.548s.315.5.681.494" transform="translate(-0.195 -38.731)" fill="#fff"/>
        <path id="Trazado_1033326" data-name="Trazado 1033326" d="M67.543,46.122c-.355,0-.665.116-.676.5s.268.544.635.544c1.174,0,2.348,0,3.522-.007.324,0,.564-.143.577-.493.016-.424-.279-.527-.631-.529-.571,0-1.142,0-1.714,0v-.012c-.571,0-1.142,0-1.714,0" transform="translate(-56.142 -38.725)" fill="#fff"/>
        <path id="Trazado_1033327" data-name="Trazado 1033327" d="M.982,29.689c.535-.008,1.071.008,1.606-.011.346-.012.628-.179.639-.555s-.264-.539-.622-.546c-.283-.006-.567,0-.85,0-.252,0-.5.011-.756,0-.387-.023-.752.078-.777.493-.028.46.322.632.76.626" transform="translate(-0.186 -23.986)" fill="#fff"/>
        <path id="Trazado_1033328" data-name="Trazado 1033328" d="M41.773,47.2c.354,0,.645-.122.64-.527s-.321-.5-.664-.5c-.571-.006-1.141,0-1.712-.008-.37,0-.64.155-.644.529,0,.325.243.5.572.5s.634,0,.951,0V47.2c.285,0,.571,0,.856,0" transform="translate(-33.076 -38.756)" fill="#fff"/>
        <path id="Trazado_1033329" data-name="Trazado 1033329" d="M54.927,234.53c-.07-.219-.179-.512-.585-.478a.569.569,0,0,0-.532.56.552.552,0,0,0,.613.568c.3,0,.511-.205.5-.65" transform="translate(-45.179 -196.511)" fill="#fff"/>
        <path id="Trazado_1033330" data-name="Trazado 1033330" d="M41.007,234.681c0-.321-.1-.568-.46-.6a.5.5,0,0,0-.614.544c-.013.342.2.512.56.563.279-.023.511-.135.513-.5" transform="translate(-33.528 -196.53)" fill="#fff"/>
        <path id="Trazado_1033331" data-name="Trazado 1033331" d="M194.67,186.615a4.89,4.89,0,0,0-4.948,4.921,4.9,4.9,0,1,0,9.79.022,4.917,4.917,0,0,0-4.842-4.943m-.111,8.837a3.89,3.89,0,0,1,.1-7.778,3.874,3.874,0,0,1,3.736,3.905,3.809,3.809,0,0,1-3.839,3.873" transform="translate(-159.293 -156.684)" fill="#fff"/>
        <path id="Trazado_1033332" data-name="Trazado 1033332" d="M101.573,220.568a2.9,2.9,0,0,0-2.878,2.926,2.934,2.934,0,1,0,2.878-2.926m.077,4.779a1.827,1.827,0,0,1-1.854-1.868,1.862,1.862,0,0,1,1.891-1.837,1.886,1.886,0,0,1,1.768,1.872,1.857,1.857,0,0,1-1.8,1.833" transform="translate(-82.866 -185.192)" fill="#fff"/>
      </g>
    </g>
  </g>
</svg>
