<svg xmlns="http://www.w3.org/2000/svg" xmlns:xlink="http://www.w3.org/1999/xlink" width="84" height="84" viewBox="0 0 84 84">
  <defs>
    <clipPath id="clip-path">
      <rect id="Rectángulo_459919" data-name="Rectángulo 459919" width="59.328" height="59.333" fill="none"/>
    </clipPath>
  </defs>
  <g id="Grupo_1186014" data-name="Grupo 1186014" transform="translate(-319.711 -7487.154)">
    <rect id="Rectángulo_456562" data-name="Rectángulo 456562" width="84" height="84" transform="translate(319.711 7487.154)" fill="#f2a4ab"/>
    <g id="Grupo_1187675" data-name="Grupo 1187675" transform="translate(332.047 7499.487)">
      <g id="Grupo_1187674" data-name="Grupo 1187674" clip-path="url(#clip-path)">
        <path id="Trazado_1032443" data-name="Trazado 1032443" d="M5.336,154.026a2.274,2.274,0,0,1,1.4,0q.62-.177,1.382-.329h10.61a9.61,9.61,0,0,1,2.433.33,2.264,2.264,0,0,1,1.4,0q.681-.163,1.5-.33h7.666a19.121,19.121,0,0,1,5.259.33,2.258,2.258,0,0,1,1.4,0q.62-.177,1.382-.329h10.61a9.583,9.583,0,0,1,2.433.33,2.048,2.048,0,0,1,1.318-.005l5.26,0-.023,1.992H.1l-.024-1.99Z" transform="translate(-0.063 -128.325)" fill="#040505"/>
        <path id="Trazado_1032444" data-name="Trazado 1032444" d="M150.325,95.692c.146.046.145.106.006.177H135.906c-.146-.047-.146-.108-.007-.182a3.445,3.445,0,0,0,2.791-2.043,3.88,3.88,0,0,0-.112-3.726c1.4.092,2.515.1,2.517-.981l.006-4.926h3.955l.006,4.927a.916.916,0,0,0,.84.968l1.675.02a3.867,3.867,0,0,0-.053,3.825,3.473,3.473,0,0,0,2.8,1.941" transform="translate(-113.416 -70.164)" fill="#f4f4f4"/>
        <path id="Trazado_1032445" data-name="Trazado 1032445" d="M246.33,140.807l0,.175-14.425,0c-.146-.047-.145-.108-.005-.18a3.758,3.758,0,0,0,3.083-2.776h8.19a3.588,3.588,0,0,0,3.152,2.782" transform="translate(-193.597 -115.276)" fill="#f4f4f4"/>
        <path id="Trazado_1032446" data-name="Trazado 1032446" d="M54.858,140.807c.145.046.145.1,0,.175H40.438l-.005-.181a3.758,3.758,0,0,0,3.083-2.776h8.19a3.588,3.588,0,0,0,3.152,2.782" transform="translate(-33.769 -115.276)" fill="#f4f4f4"/>
        <path id="Trazado_1032447" data-name="Trazado 1032447" d="M110.644,209.666l-31.631,0a.992.992,0,0,1-1.021-1.011l-.005-13.813a.969.969,0,0,1,1-.992l6.914-.005.005-12.848a.958.958,0,0,1,1-.992l15.787,0a.963.963,0,0,1,1,.994l.006,12.848,6.914,0a.976.976,0,0,1,1,1l-.007,13.808a.99.99,0,0,1-.958,1.02" transform="translate(-65.133 -150.333)" fill="#040504"/>
        <path id="Trazado_1032448" data-name="Trazado 1032448" d="M142.3,197.466c.015.5.616.829,1.015.829l3.973,0a1.049,1.049,0,0,0,1.02-.858l.051-4.98,2.16.011q.109,3.979.052,7.982a2.366,2.366,0,0,1-2.46,2.143l-9.51-.014-.144-.215,0-9.9,3.755-.022Z" transform="translate(-115.642 -160.732)" fill="#b27748"/>
        <path id="Trazado_1032449" data-name="Trazado 1032449" d="M141.905,197.028l-.145-4.933h-3.61l-.01,9.729,9.571,0a2.059,2.059,0,0,0,2.137-1.837l.009-7.91-1.8.02-.141,4.9-.04-5.078,3.954.008v11.861H137.985V191.93l3.956,0Z" transform="translate(-115.243 -160.293)" fill="#a86f47"/>
        <path id="Trazado_1032450" data-name="Trazado 1032450" d="M175.983,195.922l-1.986.015v-3.931l1.977,0Z" transform="translate(-145.321 -160.361)" fill="#e2e4e3"/>
        <path id="Trazado_1032451" data-name="Trazado 1032451" d="M197.923,275.953l.328.155-.067,7.691a2.363,2.363,0,0,1-2.475,2.359l-9.525-.079-.192-.331-.011-9.818,3.954,0,.005,4.94a1,1,0,0,0,.994,1l3.943-.008a.971.971,0,0,0,.989-.992l.01-4.927Z" transform="translate(-155.33 -230.451)" fill="#92613f"/>
        <path id="Trazado_1032452" data-name="Trazado 1032452" d="M94.306,281.244c.015.495.619.826,1.015.826l3.972,0a1.058,1.058,0,0,0,1.021-.857l.051-4.981a5.093,5.093,0,0,1,2.223.171l-.007,7.583a2.281,2.281,0,0,1-2.3,2.36l-9.671,0-.145-.214,0-9.895,3.755-.021Z" transform="translate(-75.555 -230.664)" fill="#a87043"/>
        <path id="Trazado_1032453" data-name="Trazado 1032453" d="M93.9,281.033,93.76,276.1l-3.61,0-.009,9.728,9.73-.015a1.986,1.986,0,0,0,1.976-2.127l.011-7.6-1.8.019-.141,4.9-.04-5.077,3.956.014V287.8H89.984V275.934l3.956,0Z" transform="translate(-75.153 -230.453)" fill="#9e6740"/>
        <path id="Trazado_1032454" data-name="Trazado 1032454" d="M186.048,285.84l9.713.081a2.069,2.069,0,0,0,2.153-2.155l.065-7.721,1.9-.009v11.851H186.061Z" transform="translate(-155.385 -230.543)" fill="#81543a"/>
        <path id="Trazado_1032455" data-name="Trazado 1032455" d="M223.983,279.922l-1.986.015v-3.931l1.977,0Z" transform="translate(-185.41 -230.517)" fill="#e2e4e3"/>
        <path id="Trazado_1032456" data-name="Trazado 1032456" d="M127.983,279.922l-1.986.015v-3.931l1.977,0Z" transform="translate(-105.232 -230.517)" fill="#e2e4e3"/>
        <path id="Trazado_1032457" data-name="Trazado 1032457" d="M54.127,25.521a2.293,2.293,0,0,1-1.4.009c-1.687.394-2.832-.979-3.4-2.453H41.69c-.673,1.377-1.7,2.781-3.383,2.446a2.258,2.258,0,0,1-1.4,0c-2.729.471-4.315-3.177-3.282-5.443q-2.08.314-2.309-1.293l-.006-4.527a19.453,19.453,0,0,0-3.3-.063l-.006,4.582q-.229,1.472-2.28,1.427c.969,2.2-.616,5.783-3.245,5.312a2.253,2.253,0,0,1-1.4.009c-1.687.393-2.832-.979-3.4-2.453H10.047c-.673,1.377-1.7,2.782-3.383,2.446a2.273,2.273,0,0,1-1.4,0,3.473,3.473,0,0,1-2.8-1.941,3.867,3.867,0,0,1,.053-3.825c-1.4.072-2.519.1-2.518-1.005L0,1A.955.955,0,0,1,1.015,0L26.67,0a.952.952,0,0,1,1.008.984L27.69,5.93h3.947L31.65.984A.949.949,0,0,1,32.659,0H58.314a.959.959,0,0,1,1.012,1l0,17.754a.916.916,0,0,1-.84.986l-1.681.011a3.881,3.881,0,0,1,.112,3.726,3.445,3.445,0,0,1-2.791,2.043" transform="translate(0 0)" fill="#040504"/>
        <path id="Trazado_1032458" data-name="Trazado 1032458" d="M33.351,154.868c.146.048.145.108.005.181l-1.4,0-.007-.174Z" transform="translate(-26.688 -129.344)" fill="#505151"/>
        <path id="Trazado_1032459" data-name="Trazado 1032459" d="M320.824,154.854l-.072.178-1.318.006c-.145-.046-.145-.1,0-.175Z" transform="translate(-266.697 -129.333)" fill="#505151"/>
        <path id="Trazado_1032460" data-name="Trazado 1032460" d="M129.354,154.854l.007.182h-1.4l0-.175Z" transform="translate(-106.87 -129.333)" fill="#505151"/>
        <path id="Trazado_1032461" data-name="Trazado 1032461" d="M225.352,154.868l.005.18h-1.4l-.006-.178Z" transform="translate(-187.044 -129.344)" fill="#505151"/>
        <path id="Trazado_1032462" data-name="Trazado 1032462" d="M123.947,12.038c.522.129.483,1.782-.02,1.946l-1.97.034-.015,11.864c-.131.522-1.786.482-1.952-.021l-.015-13.82Z" transform="translate(-100.202 -10.054)" fill="#d2d2d1"/>
        <path id="Trazado_1032463" data-name="Trazado 1032463" d="M143.951,13.868l.02-1.946a18.179,18.179,0,0,1,1.965.012V27.707h-1.977Z" transform="translate(-120.226 -9.938)" fill="#9f9f9f"/>
        <path id="Trazado_1032464" data-name="Trazado 1032464" d="M13.931,25.878c-.12.525-1.776.519-1.952.019l-.018-13.829,1.984-.008Z" transform="translate(-9.99 -10.072)" fill="#d2d1d0"/>
        <path id="Trazado_1032465" data-name="Trazado 1032465" d="M67.842,95.906l2,0,1.952.021-.007,1.964-11.824,0c-.065-.719-.006-1.342-.007-1.964Z" transform="translate(-50.057 -80.098)" fill="#9f9f9f"/>
        <path id="Trazado_1032466" data-name="Trazado 1032466" d="M13.914,95.9l1.982.007,1.973.014c0,.622.052,1.242,0,1.965l-5.9,0c-.056-.72,0-1.342,0-1.964Z" transform="translate(-9.972 -80.098)" fill="#9f9f9f"/>
        <path id="Trazado_1032467" data-name="Trazado 1032467" d="M65.525,120.884l-8.142,0-.389-1.007,8.845,0c.043.254-.111.5-.314,1" transform="translate(-47.601 -100.123)" fill="#f2f2f3"/>
        <path id="Trazado_1032468" data-name="Trazado 1032468" d="M25.952,120.967l0,1.962,1.662.042a1.965,1.965,0,1,1,0-2.038Z" transform="translate(-20.014 -100.208)" fill="#4f5050"/>
        <path id="Trazado_1032469" data-name="Trazado 1032469" d="M123.522,123.051l0-1.964-1.662-.042a1.965,1.965,0,0,1,2.922-.479,1.932,1.932,0,0,1,.091,2.916,1.969,1.969,0,0,1-3.013-.4Z" transform="translate(-101.778 -100.32)" fill="#4f5050"/>
        <path id="Trazado_1032470" data-name="Trazado 1032470" d="M47.8,25.767c-.014.13-.059.325-.151.33-2.148.1-4.766.113-6.913.015q-.682.145-.821-.328L39.9,13.922l-1.974,0L37.91,25.786c-.136.523-1.8.489-1.973-.014l.008-13.846h6.922l0,6.917,1.977-.006V11.943l2.969,0Z" transform="translate(-30.014 -9.959)" fill="#d2d2d1"/>
        <path id="Trazado_1032471" data-name="Trazado 1032471" d="M43.4,13.107l-6.267-.015,0,13.27a.165.165,0,0,1-.151.093l-.018-13.526h6.6l-.026,6.6a.154.154,0,0,1-.141-.09Z" transform="translate(-30.87 -10.797)" fill="#d5d4d3"/>
        <path id="Trazado_1032472" data-name="Trazado 1032472" d="M79.995,67.934l-1.973,0,0-1.961,1.964,0Z" transform="translate(-65.162 -55.099)" fill="#050606"/>
        <path id="Trazado_1032473" data-name="Trazado 1032473" d="M334.052,13.984c-.522-.129-.483-1.782.02-1.946l1.965.012V27.823H334.06Z" transform="translate(-278.684 -10.054)" fill="#9f9f9f"/>
        <path id="Trazado_1032474" data-name="Trazado 1032474" d="M315.947,12.038l-.02,1.946-1.97.034-.015,11.864c-.131.522-1.786.482-1.952-.021l-.015-13.82Z" transform="translate(-260.559 -10.054)" fill="#d2d2d1"/>
        <path id="Trazado_1032475" data-name="Trazado 1032475" d="M205.93,25.879c-.12.525-1.776.518-1.952.019l-.018-13.829,1.984-.008Z" transform="translate(-170.345 -10.073)" fill="#d2d1d0"/>
        <path id="Trazado_1032476" data-name="Trazado 1032476" d="M259.961,95.906l2,0,1.952.021-.007,1.964-11.824,0-.007-1.964Z" transform="translate(-210.532 -80.098)" fill="#9f9f9f"/>
        <path id="Trazado_1032477" data-name="Trazado 1032477" d="M171.943,51.9l-3.957.013,0-3.943,3.954-.009Z" transform="translate(-140.296 -40.055)" fill="#d3d2d1"/>
        <path id="Trazado_1032478" data-name="Trazado 1032478" d="M206.023,95.9h2l1.952.022,0,1.965-5.9,0,0-1.964Z" transform="translate(-170.438 -80.095)" fill="#9f9f9f"/>
        <path id="Trazado_1032479" data-name="Trazado 1032479" d="M257.52,120.885l-8.142,0-.391-1.007h8.846c.043.254-.111.5-.314,1" transform="translate(-207.952 -100.125)" fill="#f2f2f3"/>
        <path id="Trazado_1032480" data-name="Trazado 1032480" d="M217.952,120.967l0,1.962,1.662.042a1.965,1.965,0,1,1,0-2.038Z" transform="translate(-180.371 -100.208)" fill="#4f5050"/>
        <path id="Trazado_1032481" data-name="Trazado 1032481" d="M315.522,123.051l0-1.964-1.662-.042a1.965,1.965,0,0,1,2.922-.479,1.932,1.932,0,0,1,.091,2.916,1.969,1.969,0,0,1-3.013-.4Z" transform="translate(-262.134 -100.32)" fill="#4f5050"/>
        <path id="Trazado_1032482" data-name="Trazado 1032482" d="M239.83,25.79l-.151.33-7.536.016-.2-.329-.017-11.862-1.974,0-.015,11.861c-.131.522-1.787.481-1.952-.022l-.015-13.829,6.922-.006,0,6.907h1.976V11.966l2.969,0Z" transform="translate(-190.401 -9.982)" fill="#d2d2d1"/>
        <path id="Trazado_1032483" data-name="Trazado 1032483" d="M271.995,67.934l-1.973,0,0-1.961,1.964,0Z" transform="translate(-225.518 -55.099)" fill="#050606"/>
      </g>
    </g>
  </g>
</svg>
