<svg xmlns="http://www.w3.org/2000/svg" xmlns:xlink="http://www.w3.org/1999/xlink" width="128" height="128" viewBox="0 0 128 128">
  <defs>
    <clipPath id="clip-path">
      <rect id="Rectángulo_456277" data-name="Rectángulo 456277" width="128" height="128" transform="translate(0 0)" fill="#d35560"/>
    </clipPath>
    <clipPath id="clip-path-2">
      <rect id="Rectángulo_459962" data-name="Rectángulo 459962" width="60.509" height="60.649" fill="#4d787e"/>
    </clipPath>
  </defs>
  <g id="Grupo_1186163" data-name="Grupo 1186163" transform="translate(13436 12681)">
    <g id="Grupo_1179924" data-name="Grupo 1179924" transform="translate(-13436 -12681)">
      <g id="Grupo_1179923" data-name="Grupo 1179923" transform="translate(0 0)" clip-path="url(#clip-path)">
        <path id="Trazado_1004716" data-name="Trazado 1004716" d="M63.534,127.068c-2.064,0-3.994-2.358-6.006-2.554-2.05-.2-4.4,1.735-6.388,1.341-2.016-.4-3.449-3.09-5.391-3.68-1.964-.6-4.65.839-6.526.059-1.892-.786-2.769-3.705-4.562-4.667s-4.72-.086-6.412-1.22-1.99-4.172-3.566-5.467-4.61-1-6.054-2.44-1.143-4.475-2.44-6.054-4.328-1.867-5.467-3.566-.252-4.608-1.22-6.411-3.881-2.67-4.668-4.562c-.78-1.877.656-4.563.059-6.526-.59-1.942-3.28-3.374-3.68-5.391-.395-1.987,1.541-4.338,1.34-6.388C2.358,67.528,0,65.6,0,63.534s2.358-3.994,2.554-6.006c.2-2.05-1.735-4.4-1.34-6.388.4-2.016,3.09-3.449,3.68-5.391.6-1.964-.839-4.65-.059-6.527C5.622,37.33,8.54,36.453,9.5,34.66s.085-4.719,1.22-6.412,4.171-1.99,5.466-3.566,1-4.61,2.441-6.054,4.475-1.143,6.053-2.44,1.867-4.328,3.566-5.467,4.608-.252,6.412-1.22,2.67-3.881,4.562-4.668c1.877-.78,4.563.656,6.527.059,1.942-.59,3.374-3.279,5.39-3.68,1.987-.395,4.338,1.541,6.388,1.341C59.54,2.358,61.47,0,63.534,0s3.994,2.358,6.006,2.554c2.05.2,4.4-1.735,6.388-1.341,2.016.4,3.449,3.09,5.391,3.68,1.964.6,4.65-.839,6.526-.059,1.892.786,2.769,3.705,4.562,4.668s4.72.085,6.412,1.22,1.99,4.171,3.566,5.466,4.61,1,6.054,2.441,1.143,4.475,2.44,6.053,4.328,1.867,5.467,3.566.252,4.608,1.22,6.412,3.881,2.67,4.667,4.562c.78,1.877-.656,4.563-.059,6.526.59,1.942,3.28,3.374,3.68,5.39.395,1.987-1.541,4.338-1.341,6.388.2,2.012,2.555,3.943,2.555,6.006s-2.358,3.994-2.555,6.007c-.2,2.049,1.735,4.4,1.341,6.388-.4,2.016-3.09,3.449-3.68,5.391-.6,1.964.839,4.65.059,6.526-.787,1.893-3.705,2.769-4.668,4.563s-.085,4.719-1.22,6.412-4.171,1.99-5.466,3.566-1,4.61-2.441,6.053-4.475,1.143-6.053,2.44-1.867,4.328-3.566,5.466-4.608.252-6.412,1.22-2.67,3.881-4.562,4.668c-1.877.78-4.563-.656-6.526-.059-1.942.59-3.374,3.279-5.39,3.68-1.987.395-4.338-1.541-6.388-1.341-2.013.2-3.943,2.554-6.007,2.554" transform="translate(0.466 0.466)" fill="#d35560"/>
        <path id="Trazado_1004717" data-name="Trazado 1004717" d="M14,71.524a57.524,57.524,0,1,1,57.524,57.524A57.524,57.524,0,0,1,14,71.524" transform="translate(-7.524 -7.524)" fill="#4d787e"/>
        <path id="Trazado_1004718" data-name="Trazado 1004718" d="M131.909,269.316c-.153-.646-.3-1.314-.433-1.969l-2.01-.256q.9-.478,1.765-.962-.191-.985-.361-1.967c.46.452.931.917,1.416,1.362q.847-.526,1.657-1.055-.359.929-.741,1.855c.5.431,1.015.868,1.54,1.3l-2.02-.151q-.4.926-.813,1.849" transform="translate(-73.422 -150.295)" fill="#ffffc5"/>
        <path id="Trazado_1004719" data-name="Trazado 1004719" d="M113.426,265.848c-.055-.66-.1-1.343-.133-2.011l-1.949-.555q.962-.338,1.89-.686-.042-1-.061-2c.387.515.783,1.047,1.2,1.558q.916-.393,1.8-.794-.494.863-1.01,1.722c.431.5.872,1.016,1.329,1.509-.661-.137-1.317-.3-1.976-.449q-.529.856-1.081,1.706" transform="translate(-63.08 -148.261)" fill="#ffffc5"/>
        <path id="Trazado_1004720" data-name="Trazado 1004720" d="M95.721,259.733c.05-.672.108-1.345.172-2.013l-1.845-.838c.667-.124,1.326-.26,1.972-.4q.109-1,.239-1.984c.305.568.62,1.144.948,1.721q.965-.252,1.9-.518-.618.78-1.258,1.552c.352.559.712,1.129,1.088,1.693l-1.886-.741q-.652.767-1.325,1.525" transform="translate(-53.209 -144.782)" fill="#ffffc5"/>
        <path id="Trazado_1004721" data-name="Trazado 1004721" d="M79.2,251.1q.225-.987.47-1.963c-.565-.37-1.144-.718-1.7-1.105.667-.007,1.349-.058,2.007-.1q.256-.968.531-1.924.327.909.684,1.839c.652-.056,1.311-.146,1.95-.226q-.729.68-1.477,1.349.4.908.824,1.833L80.734,249.8c-.506.44-1.023.883-1.534,1.3" transform="translate(-44.034 -139.94)" fill="#ffffc5"/>
        <path id="Trazado_1004722" data-name="Trazado 1004722" d="M64.221,240.181q.368-.941.753-1.869c-.505-.448-1.035-.87-1.513-1.347.655.1,1.335.151,2,.207q.4-.918.807-1.822.192.945.41,1.914c.643.054,1.314.055,1.959.07q-.822.565-1.663,1.117.26.954.548,1.929l-1.593-1.253c-.57.365-1.13.707-1.7,1.054" transform="translate(-35.752 -133.852)" fill="#ffffc5"/>
        <path id="Trazado_1004723" data-name="Trazado 1004723" d="M51.1,227.217q.5-.876,1.018-1.735l-.663-.766c-.22-.256-.421-.528-.631-.792l.961.27.978.232q.525-.849,1.065-1.68.053.96.129,1.947l.955.2.969.162q-.9.439-1.812.862.119.978.263,1.982c-.464-.491-.938-.973-1.393-1.471q-.912.4-1.839.789" transform="translate(-28.54 -126.659)" fill="#ffffc5"/>
        <path id="Trazado_1004724" data-name="Trazado 1004724" d="M39.841,212.493q.625-.791,1.262-1.563c-.18-.286-.37-.565-.542-.856l-.506-.878c.616.274,1.207.55,1.839.786.431-.508.857-1,1.3-1.505-.067.643-.112,1.285-.159,1.943.616.229,1.214.456,1.845.645-.636.2-1.279.4-1.921.584-.019.658-.025,1.321-.027,2-.384-.555-.8-1.089-1.158-1.663q-.963.264-1.938.509" transform="translate(-22.272 -118.515)" fill="#ffffc5"/>
        <path id="Trazado_1004725" data-name="Trazado 1004725" d="M30.615,196.327q.734-.688,1.478-1.357c-.292-.61-.523-1.245-.774-1.872.571.362,1.115.723,1.7,1.054.5-.435,1.006-.868,1.522-1.3-.18.632-.3,1.253-.45,1.9.582.315,1.13.632,1.724.915-.662.106-1.323.2-1.978.288-.136.656-.223,1.3-.328,1.971-.3-.6-.629-1.2-.9-1.817q-.992.118-1.994.216" transform="translate(-17.006 -109.601)" fill="#ffffc5"/>
        <path id="Trazado_1004726" data-name="Trazado 1004726" d="M24.019,178.752q.829-.57,1.663-1.119c-.2-.646-.321-1.312-.483-1.967.509.444,1,.88,1.517,1.3.554-.355,1.135-.71,1.7-1.054-.278.6-.493,1.2-.732,1.809.526.4,1.033.792,1.563,1.164-.674.006-1.326,0-1.993-.014-.242.632-.419,1.256-.622,1.9-.221-.639-.438-1.278-.611-1.932q-1-.032-2.006-.086" transform="translate(-13.242 -99.79)" fill="#ffffc5"/>
        <path id="Trazado_1004727" data-name="Trazado 1004727" d="M20.215,160.164q.9-.439,1.812-.856c-.1-.668-.122-1.345-.182-2.018.437.516.856,1.02,1.3,1.511.6-.268,1.228-.532,1.843-.787-.365.551-.665,1.108-1,1.68.459.473.9.937,1.37,1.386-.665-.1-1.309-.2-1.967-.313-.334.588-.606,1.179-.9,1.785l-.179-1c-.056-.333-.089-.67-.135-1q-.984-.182-1.97-.386" transform="translate(-11.071 -89.302)" fill="#ffffc5"/>
        <path id="Trazado_1004728" data-name="Trazado 1004728" d="M19.269,141.311q.961-.3,1.921-.579c0-.676.063-1.349.115-2.022.359.574.682,1.135,1.072,1.687.64-.176,1.276-.346,1.93-.507-.428.492-.816,1-1.228,1.515.386.537.744,1.062,1.152,1.574q-.966-.29-1.905-.6c-.412.532-.767,1.076-1.153,1.631-.015-.675-.047-1.35-.015-2.025q-.945-.325-1.889-.673" transform="translate(-10.531 -78.698)" fill="#ffffc5"/>
        <path id="Trazado_1004729" data-name="Trazado 1004729" d="M21.174,122.6q1-.154,1.988-.286c.063-.332.112-.667.186-1l.228-.987c.266.621.507,1.224.81,1.828.663-.078,1.31-.152,1.981-.213-.489.424-.956.865-1.438,1.314.3.588.572,1.159.909,1.727-.6-.285-1.214-.58-1.8-.878-.471.467-.917.95-1.379,1.443.094-.668.149-1.343.283-2.006q-.885-.462-1.767-.947" transform="translate(-11.618 -68.211)" fill="#ffffc5"/>
        <path id="Trazado_1004730" data-name="Trazado 1004730" d="M25.928,104.462q1.007,0,2.007.015c.2-.644.459-1.27.708-1.9.173.655.316,1.286.525,1.929.664.021,1.322.048,1.994.088-.554.343-1.076.71-1.622,1.083.211.627.392,1.231.639,1.844-.553-.373-1.111-.756-1.647-1.139-.539.39-1.05.8-1.581,1.22.192-.648.351-1.305.583-1.941q-.806-.59-1.605-1.2" transform="translate(-14.331 -58.078)" fill="#ffffc5"/>
        <path id="Trazado_1004731" data-name="Trazado 1004731" d="M33.429,87.3q1,.147,1.98.315c.295-.608.656-1.181.986-1.77.071.672.132,1.326.228,1.984.648.118,1.311.252,1.964.389-.612.249-1.172.54-1.769.826.114.651.212,1.281.353,1.918-.5-.454-.976-.909-1.452-1.37-.6.3-1.159.634-1.749.966.279-.615.548-1.235.869-1.83q-.71-.7-1.409-1.43" transform="translate(-18.612 -48.53)" fill="#ffffc5"/>
        <path id="Trazado_1004732" data-name="Trazado 1004732" d="M43.489,71.506q.961.294,1.909.6c.393-.549.828-1.067,1.24-1.6q-.046,1.012-.071,2,.952.332,1.89.68c-.638.159-1.255.349-1.876.551q.02.988.06,1.948-.62-.775-1.225-1.566c-.642.206-1.253.446-1.878.692l.547-.853.586-.826q-.6-.8-1.183-1.625" transform="translate(-24.354 -39.775)" fill="#ffffc5"/>
        <path id="Trazado_1004733" data-name="Trazado 1004733" d="M55.279,57.409q.906.431,1.8.878l1.465-1.4q-.193,1-.359,1.97.891.467,1.766.95c-.646.071-1.3.15-1.94.264q-.124.983-.224,1.941-.5-.858-.981-1.732l-.989.183c-.327.067-.647.145-.974.22.432-.519.906-1,1.372-1.49q-.474-.884-.932-1.784" transform="translate(-30.831 -32.001)" fill="#ffffc5"/>
        <path id="Trazado_1004734" data-name="Trazado 1004734" d="M69.057,45.313c.553.372,1.1.749,1.652,1.141l1.651-1.175q-.335.961-.641,1.9.811.592,1.6,1.2c-.643-.015-1.315-.05-1.961-.03q-.265.958-.5,1.893-.367-.923-.716-1.861c-.659.027-1.347.038-2,.105.5-.451,1.054-.844,1.579-1.269q-.339-.946-.66-1.905" transform="translate(-38.421 -25.376)" fill="#ffffc5"/>
        <path id="Trazado_1004735" data-name="Trazado 1004735" d="M84.591,34.886c.492.45.986.918,1.469,1.382l1.8-.925q-.473.9-.914,1.792.713.705,1.407,1.42c-.634-.113-1.284-.229-1.937-.325q-.4.911-.774,1.8-.227-.969-.434-1.949c-.656-.071-1.331-.15-2-.2.577-.351,1.169-.678,1.752-1.018q-.2-.986-.371-1.985" transform="translate(-47.023 -19.444)" fill="#ffffc5"/>
        <path id="Trazado_1004736" data-name="Trazado 1004736" d="M101.552,26.946q.634.791,1.246,1.589c.64-.214,1.278-.44,1.921-.644-.405.538-.792,1.094-1.172,1.634q.6.8,1.177,1.613-.916-.311-1.866-.611c-.358.554-.7,1.119-1.034,1.67q-.08-.993-.139-1.994-.958-.254-1.949-.5l1.885-.745c-.03-.669-.056-1.348-.069-2.016" transform="translate(-56.455 -14.913)" fill="#ffffc5"/>
        <path id="Trazado_1004737" data-name="Trazado 1004737" d="M119.566,21.733q.507.876.993,1.758c.665-.115,1.329-.246,2-.349-.482.468-.948.962-1.4,1.439q.472.883.922,1.771-.858-.444-1.753-.883c-.439.486-.86,1-1.273,1.495q.07-.994.162-1.994-.908-.394-1.852-.78l1.974-.457c.071-.666.147-1.344.235-2" transform="translate(-66.511 -11.938)" fill="#ffffc5"/>
        <path id="Trazado_1004738" data-name="Trazado 1004738" d="M138.214,19.35q.371.944.72,1.888l2.025-.051q-.819.609-1.6,1.218.335.945.648,1.89-.784-.569-1.6-1.138c-.507.424-1,.862-1.483,1.29q.218-.972.459-1.946-.84-.527-1.715-1.051l2.02-.154c.17-.648.346-1.305.531-1.947" transform="translate(-76.959 -10.578)" fill="#ffffc5"/>
        <path id="Trazado_1004739" data-name="Trazado 1004739" d="M157.075,19.831c.153.647.3,1.314.433,1.969l2.01.256q-.9.478-1.765.962.191.985.36,1.967c-.46-.452-.931-.917-1.416-1.362q-.847.526-1.657,1.055.359-.929.741-1.855c-.5-.431-1.014-.868-1.54-1.3l2.021.151q.4-.926.813-1.849" transform="translate(-87.562 -10.852)" fill="#ffffc5"/>
        <path id="Trazado_1004740" data-name="Trazado 1004740" d="M175.741,23.17c.055.66.1,1.343.134,2.011l1.949.555q-.962.338-1.89.686.042,1,.061,2c-.387-.515-.782-1.047-1.2-1.558q-.916.393-1.8.794.494-.864,1.01-1.722c-.431-.5-.872-1.016-1.329-1.509.661.137,1.317.3,1.976.449q.53-.856,1.081-1.706" transform="translate(-98.088 -12.758)" fill="#ffffc5"/>
        <path id="Trazado_1004741" data-name="Trazado 1004741" d="M193.559,29.313c-.05.672-.108,1.345-.172,2.012l1.845.838c-.667.125-1.326.261-1.972.4q-.109,1-.239,1.984c-.305-.568-.62-1.144-.948-1.721q-.965.252-1.9.518.618-.78,1.257-1.552c-.351-.559-.712-1.129-1.087-1.693l1.886.741q.652-.767,1.325-1.525" transform="translate(-108.072 -16.264)" fill="#ffffc5"/>
        <path id="Trazado_1004742" data-name="Trazado 1004742" d="M209.923,38.133q-.225.987-.47,1.963c.565.37,1.144.718,1.7,1.105-.667.007-1.349.058-2.007.1q-.256.968-.531,1.924-.327-.909-.684-1.839c-.652.056-1.311.146-1.95.226q.729-.68,1.477-1.349-.4-.908-.824-1.833l1.756,1.011c.506-.44,1.022-.883,1.534-1.3" transform="translate(-117.09 -21.297)" fill="#ffffc5"/>
        <path id="Trazado_1004743" data-name="Trazado 1004743" d="M224.9,49.134q-.368.941-.753,1.869c.505.448,1.035.87,1.513,1.347-.655-.1-1.335-.151-2-.206q-.4.918-.807,1.822-.192-.945-.41-1.913c-.643-.055-1.314-.055-1.959-.07q.823-.565,1.663-1.117-.26-.954-.548-1.929l1.593,1.252c.57-.365,1.13-.707,1.7-1.054" transform="translate(-125.371 -27.463)" fill="#ffffc5"/>
        <path id="Trazado_1004744" data-name="Trazado 1004744" d="M238.176,61.933q-.5.876-1.018,1.735l.663.766c.22.256.42.528.632.792l-.961-.27-.978-.232q-.525.849-1.065,1.68-.053-.96-.129-1.947l-.955-.2-.969-.162q.9-.439,1.812-.862-.119-.978-.263-1.982c.464.491.938.973,1.393,1.471q.912-.4,1.839-.789" transform="translate(-132.736 -34.491)" fill="#ffffc5"/>
        <path id="Trazado_1004745" data-name="Trazado 1004745" d="M249.453,76.636q-.625.791-1.261,1.563c.18.285.37.565.542.856l.506.878c-.616-.274-1.207-.55-1.839-.786-.431.508-.857,1-1.3,1.505.067-.643.112-1.285.159-1.943-.616-.229-1.214-.455-1.845-.645.636-.2,1.279-.4,1.921-.585.019-.657.025-1.32.027-2,.384.555.8,1.089,1.158,1.663q.963-.264,1.938-.509" transform="translate(-139.022 -42.614)" fill="#ffffc5"/>
        <path id="Trazado_1004746" data-name="Trazado 1004746" d="M258.476,92.93q-.734.688-1.478,1.357c.292.61.523,1.245.774,1.872-.571-.362-1.115-.722-1.7-1.054-.5.435-1.006.868-1.522,1.3.18-.632.3-1.253.45-1.9-.582-.315-1.13-.632-1.724-.915.662-.106,1.324-.2,1.978-.288.136-.656.223-1.3.328-1.971.3.6.629,1.2.9,1.818q.992-.118,1.994-.215" transform="translate(-144.085 -51.657)" fill="#ffffc5"/>
        <path id="Trazado_1004747" data-name="Trazado 1004747" d="M265.025,110.463q-.829.571-1.663,1.119c.2.646.321,1.312.483,1.967-.509-.444-1-.88-1.517-1.3-.554.355-1.135.71-1.7,1.054.278-.6.493-1.195.733-1.809-.526-.4-1.033-.792-1.563-1.164.674-.006,1.326,0,1.993.014.242-.631.419-1.256.622-1.9.221.639.438,1.278.611,1.932q1,.032,2.006.086" transform="translate(-147.801 -61.426)" fill="#ffffc5"/>
        <path id="Trazado_1004748" data-name="Trazado 1004748" d="M268.935,128.842q-.9.439-1.812.856c.1.668.122,1.345.182,2.018-.437-.516-.856-1.02-1.3-1.511-.6.268-1.228.532-1.843.787.365-.551.665-1.108,1-1.68-.459-.473-.9-.937-1.37-1.386.665.1,1.309.2,1.967.313.334-.588.606-1.178.9-1.785l.179,1c.056.333.089.67.135,1q.984.182,1.97.386" transform="translate(-150.079 -71.704)" fill="#ffffc5"/>
        <path id="Trazado_1004749" data-name="Trazado 1004749" d="M270.032,147.643q-.961.3-1.921.579c0,.676-.063,1.349-.115,2.022-.359-.574-.682-1.135-1.072-1.687-.64.176-1.276.346-1.93.507.428-.492.816-1,1.228-1.515-.386-.537-.744-1.062-1.152-1.574q.966.29,1.905.6c.412-.532.767-1.076,1.153-1.631.015.675.047,1.35.015,2.025q.945.326,1.889.673" transform="translate(-150.77 -82.257)" fill="#ffffc5"/>
        <path id="Trazado_1004750" data-name="Trazado 1004750" d="M267.922,166.455q-1,.154-1.988.286c-.063.332-.112.667-.186,1l-.228.987c-.266-.621-.507-1.224-.81-1.828-.663.078-1.31.152-1.981.213.489-.424.956-.865,1.439-1.314-.3-.588-.572-1.159-.909-1.727.6.285,1.214.58,1.8.878.471-.467.917-.95,1.379-1.443-.094.668-.149,1.343-.283,2.006q.885.462,1.767.947" transform="translate(-149.478 -92.847)" fill="#ffffc5"/>
        <path id="Trazado_1004751" data-name="Trazado 1004751" d="M263.113,184.858q-1.007,0-2.007-.015c-.2.644-.459,1.27-.708,1.9-.173-.655-.315-1.287-.525-1.929-.664-.021-1.322-.048-1.994-.088.554-.343,1.076-.71,1.622-1.083-.211-.626-.391-1.231-.639-1.844.553.373,1.111.755,1.647,1.138.539-.39,1.05-.8,1.581-1.219-.192.647-.351,1.305-.583,1.94q.806.59,1.605,1.2" transform="translate(-146.71 -103.243)" fill="#ffffc5"/>
        <path id="Trazado_1004752" data-name="Trazado 1004752" d="M255.713,201.893q-1-.147-1.98-.315c-.295.608-.656,1.181-.986,1.769-.071-.672-.132-1.326-.228-1.984-.648-.118-1.311-.252-1.964-.389.612-.249,1.172-.54,1.769-.826-.114-.651-.211-1.281-.353-1.918.5.454.976.909,1.452,1.37.6-.3,1.159-.634,1.749-.966-.279.615-.548,1.235-.868,1.83q.709.7,1.408,1.429" transform="translate(-142.53 -112.667)" fill="#ffffc5"/>
        <path id="Trazado_1004753" data-name="Trazado 1004753" d="M245.906,217.614q-.961-.293-1.909-.6c-.393.549-.828,1.067-1.24,1.6q.046-1.012.071-2-.952-.332-1.89-.68c.638-.159,1.255-.349,1.876-.551q-.02-.988-.06-1.948.62.775,1.225,1.566c.642-.206,1.253-.446,1.878-.692l-.547.853-.586.826q.6.8,1.183,1.625" transform="translate(-137.041 -121.346)" fill="#ffffc5"/>
        <path id="Trazado_1004754" data-name="Trazado 1004754" d="M233.928,231.779q-.906-.431-1.8-.878l-1.465,1.4q.193-1,.359-1.97-.891-.467-1.766-.95c.646-.071,1.3-.15,1.94-.264q.124-.983.224-1.941.5.858.981,1.732l.989-.183c.327-.067.647-.145.974-.22-.432.519-.906,1-1.372,1.49q.474.884.932,1.784" transform="translate(-130.376 -129.187)" fill="#ffffc5"/>
        <path id="Trazado_1004755" data-name="Trazado 1004755" d="M220.049,244.088c-.553-.372-1.1-.749-1.652-1.141l-1.651,1.175q.335-.961.641-1.9-.811-.592-1.6-1.2c.643.015,1.315.05,1.961.03q.265-.958.5-1.893.367.923.717,1.861c.659-.027,1.347-.038,2-.105-.5.451-1.054.844-1.579,1.269q.339.946.66,1.905" transform="translate(-122.685 -136.026)" fill="#ffffc5"/>
        <path id="Trazado_1004756" data-name="Trazado 1004756" d="M204.568,254.268c-.492-.449-.986-.918-1.469-1.382l-1.8.925q.473-.9.914-1.792-.713-.706-1.407-1.421c.634.113,1.284.229,1.937.325q.4-.91.774-1.8.227.97.434,1.95c.656.071,1.33.149,2,.2-.577.352-1.168.678-1.752,1.019q.2.986.371,1.984" transform="translate(-114.135 -141.71)" fill="#ffffc5"/>
        <path id="Trazado_1004757" data-name="Trazado 1004757" d="M187.815,262.073q-.634-.791-1.246-1.589c-.64.214-1.278.44-1.921.644.405-.538.793-1.094,1.172-1.634q-.6-.8-1.177-1.613.916.311,1.866.611c.358-.554.7-1.119,1.034-1.67q.08.993.139,1.995.958.254,1.949.5l-1.885.745c.03.669.056,1.348.069,2.016" transform="translate(-104.913 -146.107)" fill="#ffffc5"/>
        <path id="Trazado_1004758" data-name="Trazado 1004758" d="M169.522,267.312q-.507-.876-.993-1.758c-.665.116-1.329.246-2,.349.482-.468.948-.963,1.4-1.439q-.472-.883-.922-1.771.858.444,1.753.883c.439-.486.86-1,1.273-1.495q-.07.994-.162,1.994.908.394,1.852.78l-1.974.457c-.071.666-.147,1.344-.235,2" transform="translate(-94.577 -149.108)" fill="#ffffc5"/>
        <path id="Trazado_1004759" data-name="Trazado 1004759" d="M150.745,269.873q-.371-.943-.719-1.888l-2.025.051q.819-.609,1.6-1.219-.336-.945-.648-1.89.784.569,1.6,1.138c.507-.424,1-.862,1.483-1.29q-.218.972-.459,1.946.84.527,1.715,1.05l-2.02.154c-.17.648-.346,1.305-.531,1.946" transform="translate(-84 -150.646)" fill="#ffffc5"/>
        <path id="Trazado_1004760" data-name="Trazado 1004760" d="M83.637,132.05A48.412,48.412,0,1,1,132.05,83.637,48.467,48.467,0,0,1,83.637,132.05" transform="translate(-19.637 -19.638)" fill="#fff7e8"/>
      </g>
    </g>
    <g id="Grupo_1180053" data-name="Grupo 1180053" transform="translate(-13402.254 -12647.618)">
      <rect id="Rectángulo_401104" data-name="Rectángulo 401104" width="60.508" height="61.237" transform="translate(0)" fill="none"/>
    </g>
    <g id="Grupo_1187762" data-name="Grupo 1187762" transform="translate(-13402.254 -12647.324)">
      <g id="Grupo_1187761" data-name="Grupo 1187761" clip-path="url(#clip-path-2)">
        <path id="Trazado_1033300" data-name="Trazado 1033300" d="M8.518,24.328a3.358,3.358,0,0,0-1.657,2.024,9.547,9.547,0,0,1-1.629,2.939A18.254,18.254,0,0,0,0,42.535c.043,5.5.011,11,.015,16.506a8.035,8.035,0,0,0,.053,1.044.627.627,0,0,0,.657.526.634.634,0,0,0,.663-.521,6.921,6.921,0,0,0,.039-1.045c0-5.371.037-10.742,0-16.113A18.139,18.139,0,0,1,6.243,30.309a1.1,1.1,0,0,1,1.627-.284,97.253,97.253,0,0,0,9.12,4.764,6.092,6.092,0,0,1,3.77,4.6A34.376,34.376,0,0,1,22.1,48.525c-.641-.166-.726-.647-.933-.99-1.89-3.128-3.754-6.271-5.637-9.4a5.86,5.86,0,0,0-3.245-2.69A5.461,5.461,0,0,0,5.73,38.08c-.205.475-.48,1.036.145,1.37S6.82,39.3,7.065,38.8a3.487,3.487,0,0,1,1.247-1.472,3.928,3.928,0,0,1,5.679,1.242c2.218,3.586,4.349,7.226,6.524,10.839.793,1.317,1.031,1.366,2.163.381,2.173-1.889,4.348-3.779,6.475-5.719.621-.567,1.012-.6,1.582.042A30.166,30.166,0,0,0,33.327,46.7c.677.595.544.98-.021,1.556-2.874,2.929-5.712,5.894-8.562,8.847-2.773,2.873-5.3,2.714-7.7-.513-2.863-3.847-5.7-7.714-8.561-11.561-.307-.413-.579-1.129-1.307-.643-.7.468-.267.987.067,1.441,3.019,4.108,5.979,8.262,9.091,12.3,2.46,3.19,6.244,3.312,9.057.448,1.958-1.994,3.9-4,5.809-6.044a1.145,1.145,0,0,1,1.545-.333c3.894,1.707,7.817,3.348,11.722,5.031,1.654.713,2.159.561,3.031-1.016q3.661-6.62,7.325-13.239c1.75-3.157,3.521-6.3,5.26-9.466.764-1.389.536-2.019-.887-2.664-.792-.359-1.591-.7-2.39-1.042-.27-.116-.666-.148-.575-.563.25-1.152-.507-1.561-1.359-1.879a1.476,1.476,0,0,1-1.141-1.333,2.348,2.348,0,0,0-3.489-1.551,1.8,1.8,0,0,1-2,.044c-.6-.286-1.362-.572-1.832-.02-.67.786-1.244.51-1.931.174-.663-.324-1.359-.583-2.019-.912a1.612,1.612,0,0,0-2.405.746c-1.34,2.388-2.69,4.771-4.017,7.166-.264.476-.695,1.071.065,1.452.723.363.966-.278,1.245-.778,1.225-2.2,2.45-4.408,3.7-6.6.171-.3.264-.859.813-.644.929.363,1.826.8,2.75,1.181.433.177.311.443.193.733-.368.9.1,1.411.861,1.738,2.513,1.078,5.035,2.132,7.545,3.214.5.217,1.08.242,1.308-.186.715-1.345,1.551-.729,2.43-.294.657.325,1.334.611,2,.913-4.3,7.788-8.568,15.5-12.8,23.233-.351.641-.677.444-1.123.25q-4.12-1.79-8.246-3.567c-1.222-.529-2.441-1.063-3.721-1.621.851-.953,1.937-1.685,2.272-2.673.38-1.119,1.155-1.373,1.959-1.8.309-.164.587-.375.908.017.358.437.1.707-.187,1a7.51,7.51,0,0,0-.705.771c-1.107,1.538.338,4.853,2.213,4.978.432.029.8-.263,1.234.207.655.715,1.366.561,2.027-.124,1.911-1.979,3.842-3.937,5.766-5.9.311-.318.707-.727.5-1.126-.4-.785-.564-1.688-.959-2.4-1.416-2.57-3.342-2.848-5.629-1.013-.278.223-.5.484-.895.213a.759.759,0,0,1-.319-.907,1.762,1.762,0,0,0,.026-1.144c-.869-2.228-2.474-3.963-3.886-5.824a1.081,1.081,0,0,0-1.156-.471,2.011,2.011,0,0,1-2.37-.654,2.063,2.063,0,0,0-1.2-.452,3.134,3.134,0,0,0-3.1,1.272,3.089,3.089,0,0,0-.233,3.443c.621,1.2.62,3.391.036,3.9q-2.317,2.022-4.638,4.038c-.334.289-.689.556-1.224.987-.1-4.586-1.411-8.592-2.809-12.572a3.366,3.366,0,0,1-.025-1.923c.156-.712.231-1.539-.468-1.893-1.249-.634-.6-1.432-.309-2.159.364-.9,1.03-.186,1.548-.15s1.015.234,1.529.321a3.328,3.328,0,0,0,4.121-2.485c.312-.948.563-1.916.827-2.879.179-.651.356-1.121,1.253-1.158a1.612,1.612,0,0,0,1.476-2.328A18.524,18.524,0,0,0,29.7,17.8a6.275,6.275,0,0,1-.751-2.207c-.058-.724.11-1.185,1-1.031,1.03.178,2.071.29,3.108.419.495.061,1.02.029,1.269-.454A1.066,1.066,0,0,0,33.9,13.15,35.572,35.572,0,0,0,31,10.916a2.543,2.543,0,0,1-1.324-2.695,3.074,3.074,0,0,1,.535-1.431,13.583,13.583,0,0,0,1.844-3.583C32.766.883,31.789-.222,29.4.038,24.284.592,19.205,1.369,14.149,2.284a46.191,46.191,0,0,0-7.872,1.8C4.19,4.852,3.805,6.427,5.238,8.153a5.325,5.325,0,0,0,.912.933,2.091,2.091,0,0,1,.8,1.665c.184,1.629-.416,3.2-.216,4.824a22.023,22.023,0,0,0,2.093,6.416c.391.858.512,1.948-.313,2.336m46,4.944a3.082,3.082,0,0,1-.972,1.271c-.232-.1-.387-.175-.545-.242-1.989-.84-3.983-1.669-5.964-2.528-.28-.121-.937-.143-.591-.677.322-.5.3-1.531,1.357-1.207a9.288,9.288,0,0,1,1.317.539.955.955,0,0,0,1.367-.234c.281-.361.668-.757,1.213-.522a1.09,1.09,0,0,1,.625,1.293c-.192,1.229.954,1.109,1.543,1.561.262.2.938.175.652.747M47.3,45.978c.19.311-.093.457-.258.625-1.376,1.4-2.724,2.832-4.159,4.17-.439.409-.786,1.549-1.453,1-.433-.36.591-.952.988-1.388,1.292-1.419,2.666-2.763,3.991-4.153a3.021,3.021,0,0,0,.379-.715,3.839,3.839,0,0,1,.513.465m-3.462-2.669a1.166,1.166,0,0,1,1.521-.325,10.179,10.179,0,0,1,1.287,1.178,4.926,4.926,0,0,0-.721.5c-1.858,1.889-3.686,3.807-5.572,5.666-.292.287-.5,1.236-1.21.55-.619-.6-1.3-1.287-.452-2.218q.964-1.059,1.96-2.089,1.584-1.639,3.188-3.258m-3.551.482c.106-.061.483.144.528.512a3.579,3.579,0,0,1-1.217,1.175c-.082.034-.444-.285-.421-.363a2.317,2.317,0,0,1,1.11-1.324m-5.007-6.661c.226-.387.233-1.035.84-1.043.734-.009.278.668.472.976.133.21.329.485.535.523.667.123,1.046.359.777,1.114a.372.372,0,0,0,.156.33c.911.318.923,1.228,1.351,1.866a1.263,1.263,0,0,1-.086,1.679c-1.043,1.626-2.707,2.378-4.376,3.124a.48.48,0,0,1-.589-.1,30.172,30.172,0,0,1-2.945-2.95c-.517-.674.007-1.686-.2-2.679,2.234.151,3.17-1.308,4.067-2.844m-3.2-2.3c.8-.089,1.9.858,1.866,1.508-.033.677-1.385,2.105-1.958,2.069a2.1,2.1,0,0,1-1.521-2.175c.021-.757.637-1.294,1.613-1.4M28.124,20.773c-.83-.05-1.222.312-1.4,1.169-.271,1.314-.718,2.593-1.1,3.885a1.666,1.666,0,0,1-1.941,1.343A8.1,8.1,0,0,1,18.5,25.028c-.428-.433-.862-.884-1.408-.328-.577.588-.039,1.132.4,1.405,1.124.7,1.543,1.445.736,2.695-.288.446-.4.4-.761.2Q14.14,27.2,10.8,25.423c-.332-.177-.687-.379-.481-.774.374-.719-.226-1.807.918-2.238a8.131,8.131,0,0,0,3.07-2.164,1.314,1.314,0,0,0,.3-1.746,3.4,3.4,0,0,1-.307-2.416,1.363,1.363,0,0,1,1.08-1.18,1.336,1.336,0,0,1,1.31.684c1.274,1.656,2.055,1.545,2.876-.4,1.115-2.635,1.114-2.633,3.918-1.928a21.262,21.262,0,0,0,2.916.678c1.046.109,1.4.529,1.1,1.439a7.6,7.6,0,0,0,1.376,4.092c.523.932.377,1.367-.749,1.3M9.9,11.185a8.425,8.425,0,0,0-.859.006c-.469.04-.579-.179-.6-.608-.023-.479.072-.686.617-.729,5.346-.419,10.689-.869,16.033-1.312.739-.061,1.476-.142,2.215-.2.409-.029.889-.212.9.534.011.591-.152.884-.778.929-1.957.143-3.91.329-5.865.481-3.826.3-7.652.587-11.666.894m21.493,2.11a44.266,44.266,0,0,1-7.763-1.621c2.7-.182,5.616-1.539,7.763,1.621M6.05,6.689c-.446-.992.316-1.105.917-1.294a62.922,62.922,0,0,1,7.865-1.756q7.186-1.275,14.44-2.121c.173-.02.348-.02.65-.037.905-.173,1.013.428.761,1.166a14.764,14.764,0,0,1-2.028,3.77A1.4,1.4,0,0,1,27.5,6.91Q19.042,7.6,10.583,8.29c-.477.039-.951.11-1.426.171A2.9,2.9,0,0,1,6.05,6.689m2.187,7.1c.04-.443-.074-1.01.654-1.065,3.475-.26,6.949-.53,10.635-.812L18.092,14.8c-1.611-1.526-2.852-1.819-4.092-.877-1.3.991-1.416,2.387-1.227,3.891.07.557.643,1.114.115,1.693a6.725,6.725,0,0,1-2.357,1.6c-.422.182-.545-.168-.656-.426-.949-2.2-1.861-4.421-1.639-6.9M9.719,26.519c2.914,1.551,5.8,3.146,8.694,4.741.351.194.881.28.835.534a11.613,11.613,0,0,0-.291,1.377c-.049.8-.288.948-1.042.537-3.09-1.687-6.187-3.365-9.336-4.938-1.5-.749-.324-1.5-.13-2.2.3-1.1.9-.243,1.269-.049" transform="translate(0 -0.001)" fill="#4d787e"/>
        <path id="Trazado_1033301" data-name="Trazado 1033301" d="M152.345,222.636c-9.639-.043-19.279-.022-28.918-.02-.305,0-.611.006-.916,0-.511-.008-.871.221-.873.74s.375.755.866.787c.3.02.61.009.915.009h14.917v-.016c5.1,0,10.207-.019,15.31.016,1.045.007,1.475-.294,1.459-1.412-.053-3.794-.012-7.589-.018-11.384,0-.553.085-1.283-.722-1.285-.831,0-.69.736-.691,1.282-.006,3.315-.055,6.631.029,9.944.028,1.112-.288,1.343-1.359,1.338" transform="translate(-94.675 -163.507)" fill="#4d787e"/>
        <path id="Trazado_1033302" data-name="Trazado 1033302" d="M178.948,145.265c-.181.706.41.9.873,1.093q5.626,2.39,11.268,4.742c.47.2,1.06.526,1.345-.17.31-.758-.377-.942-.889-1.162q-5.383-2.308-10.771-4.6c-.357-.152-.738-.249-1.109-.371a.616.616,0,0,0-.717.471" transform="translate(-139.256 -112.694)" fill="#4d787e"/>
        <path id="Trazado_1033303" data-name="Trazado 1033303" d="M189.014,135.292c2.909,1.24,5.813,2.494,8.731,3.714.569.238,1.267.63,1.556-.412a1.023,1.023,0,0,0-.71-.839c-3.873-1.636-7.741-3.283-11.622-4.9-.428-.178-1-.288-1.209.349-.2.611.279.831.742,1.023q1.26.524,2.514,1.062" transform="translate(-144.547 -103.301)" fill="#4d787e"/>
        <path id="Trazado_1033304" data-name="Trazado 1033304" d="M202.138,169.211a.638.638,0,0,0-.949.363.714.714,0,0,0,.422.968c1.863.8,3.73,1.6,5.614,2.356.5.2.949.036,1.022-.564a.768.768,0,0,0-.5-.749q-2.8-1.191-5.608-2.374" transform="translate(-156.546 -131.637)" fill="#4d787e"/>
      </g>
    </g>
  </g>
</svg>
