<svg xmlns="http://www.w3.org/2000/svg" xmlns:xlink="http://www.w3.org/1999/xlink" width="98" height="98" viewBox="0 0 98 98">
  <defs>
    <clipPath id="clip-path">
      <rect id="Rectángulo_456277" data-name="Rectángulo 456277" width="98" height="98" transform="translate(0.31 0.309)" fill="#d35560"/>
    </clipPath>
    <clipPath id="clip-path-2">
      <rect id="Rectángulo_459966" data-name="Rectángulo 459966" width="52.917" height="52.723" fill="#fff"/>
    </clipPath>
  </defs>
  <g id="Grupo_1180340" data-name="Grupo 1180340" transform="translate(13435.852 12679.692)">
    <g id="Grupo_1179924" data-name="Grupo 1179924" transform="translate(-13436.162 -12680.001)">
      <g id="Grupo_1179923" data-name="Grupo 1179923" transform="translate(0 0)" clip-path="url(#clip-path)">
        <path id="Trazado_1004716" data-name="Trazado 1004716" d="M48.95,97.9c-1.59,0-3.077-1.816-4.627-1.968-1.579-.154-3.391,1.337-4.922,1.033-1.554-.309-2.657-2.381-4.153-2.835-1.513-.46-3.582.647-5.028.045s-2.134-2.855-3.515-3.6-3.636-.066-4.94-.94-1.533-3.214-2.747-4.212-3.552-.768-4.664-1.88-.88-3.448-1.88-4.664-3.335-1.438-4.212-2.747-.194-3.55-.94-4.94-2.99-2.057-3.6-3.515.505-3.515.046-5.028c-.455-1.5-2.527-2.6-2.835-4.153-.3-1.531,1.187-3.343,1.033-4.921C1.816,52.028,0,50.54,0,48.95s1.816-3.077,1.968-4.627C2.122,42.744.631,40.932.935,39.4c.308-1.554,2.38-2.657,2.835-4.153.46-1.513-.646-3.583-.045-5.029s2.855-2.133,3.6-3.515.066-3.636.94-4.94,3.214-1.533,4.212-2.747.768-3.552,1.881-4.664,3.448-.88,4.664-1.88,1.438-3.335,2.747-4.212,3.55-.194,4.94-.94,2.057-2.99,3.515-3.6,3.515.505,5.029.045c1.5-.454,2.6-2.527,4.153-2.835,1.531-.3,3.343,1.187,4.921,1.033C45.873,1.816,47.36,0,48.95,0s3.077,1.816,4.627,1.968C55.157,2.122,56.969.631,58.5.935c1.554.309,2.657,2.381,4.154,2.835,1.513.46,3.582-.647,5.028-.045s2.134,2.855,3.515,3.6,3.636.066,4.94.94,1.533,3.214,2.747,4.212,3.552.768,4.664,1.881.88,3.448,1.88,4.664,3.335,1.438,4.212,2.747.194,3.55.94,4.94,2.99,2.057,3.6,3.515-.505,3.515-.045,5.028c.455,1.5,2.527,2.6,2.835,4.153.3,1.531-1.187,3.343-1.033,4.922.152,1.551,1.968,3.038,1.968,4.627s-1.816,3.077-1.968,4.628c-.154,1.579,1.337,3.39,1.033,4.921-.308,1.554-2.38,2.657-2.835,4.154-.46,1.513.646,3.582.045,5.028s-2.855,2.134-3.6,3.515-.066,3.636-.94,4.94-3.214,1.533-4.212,2.747-.768,3.552-1.881,4.664-3.448.88-4.664,1.88-1.438,3.335-2.747,4.212-3.55.194-4.94.94-2.057,2.99-3.515,3.6-3.515-.505-5.028-.045c-1.5.454-2.6,2.527-4.153,2.835-1.531.3-3.343-1.187-4.921-1.033-1.551.151-3.038,1.968-4.628,1.968" transform="translate(0.359 0.359)" fill="#d35560"/>
        <path id="Trazado_1004717" data-name="Trazado 1004717" d="M14,58.32a44.32,44.32,0,1,1,44.32,44.32A44.32,44.32,0,0,1,14,58.32" transform="translate(-9.01 -9.011)" fill="#a2cbcf"/>
        <path id="Trazado_1021102" data-name="Trazado 1021102" d="M14,55.014A41.014,41.014,0,1,1,55.014,96.029,41.015,41.015,0,0,1,14,55.014" transform="translate(-5.706 -5.705)" fill="#952d36"/>
      </g>
    </g>
    <g id="Grupo_1180053" data-name="Grupo 1180053" transform="translate(-13413.503 -12658.826)">
      <rect id="Rectángulo_401104" data-name="Rectángulo 401104" width="53.625" height="54.271" transform="translate(0 0)" fill="none"/>
    </g>
    <g id="Grupo_1187770" data-name="Grupo 1187770" transform="translate(-13412.852 -12656.691)">
      <g id="Grupo_1187769" data-name="Grupo 1187769" clip-path="url(#clip-path-2)">
        <path id="Trazado_1033333" data-name="Trazado 1033333" d="M41.381,22.364a1.5,1.5,0,0,0-.859-1.507c-3.818-2.178-7.607-4.409-11.406-6.621-.444-.259-.85-.38-.45-1.127a2.4,2.4,0,0,0-1.023-3.361c-.288-.191-.5-.328-.548-.739-.281-2.546-.185-2.751,2.107-3.921.066-.034.125-.082.191-.116,3.069-1.587,2.591-1.039,1.265-3.839C30-.257,29.977-.235,28.58.482Q18.352,5.733,8.118,10.969c-.371.19-.711.568-.954-.247A2.126,2.126,0,0,0,4.735,9.209a2.206,2.206,0,0,0-1.785,2.148c-.041.633-.01,1.271-.01,1.907,0,5.423.008,10.846-.008,16.269,0,.314.269.879-.288.916-.992.067-.871.726-.871,1.358q0,4.095,0,8.19c0,2.543.007,5.086-.007,7.63,0,.318.192.847-.477.748-1.135-.167-1.343.463-1.277,1.4a12,12,0,0,1,0,1.682c-.064.909.3,1.286,1.234,1.266,1.981-.044,3.964,0,5.946-.02,3.681-.034,3.076.544,3.131-3.252,0-.112,0-.225,0-.336-.02-.439-.249-.772-.685-.712-1.124.154-1.046-.525-1.044-1.29q.025-7.685,0-15.371c0-.462.157-1.141-.5-1.195-.8-.066-.741-.5-.74-1.045.007-4.114.02-8.228-.016-12.342A1.287,1.287,0,0,1,8.158,15.8c4.124-2.067,8.225-4.18,12.335-6.275,1.714-.873,3.433-1.736,5.3-2.68,0,.906.029,1.617-.008,2.326-.042.811.017,1.438,1.044,1.638.639.124.888.744.8,1.421a1.085,1.085,0,0,1-.933.982,1.191,1.191,0,0,1-1.392-.852c-.172-.429-.276-1.06-.968-.726-.658.318-.453.959-.178,1.345.49.686.155.914-.395,1.232-3.8,2.2-7.583,4.44-11.391,6.633a1.579,1.579,0,0,0-.942,1.574q.067,6.675,0,13.351c-.009.965.26,1.3,1.265,1.294q13.744-.049,27.488,0c.97,0,1.2-.336,1.2-1.235q-.05-6.731,0-13.464M4.259,11.789c0-.628.027-1.269.875-1.265.825,0,.91.634.911,1.264q.008,4.536,0,9.072h.005c0,2.912-.021,5.825.015,8.736.008.671-.137.919-.857.891-.656-.025-.978-.082-.972-.89.038-5.936.021-11.872.02-17.809M8.064,49.6c.68-.036.99.1.968.888-.02.7-.147.955-.909.932-1.97-.059-3.943-.036-5.914-.01-.6.008-.947-.017-.92-.8.025-.735.149-1.071.974-1.009,1,.074,2.008.018,3.012.018v0c.93,0,1.862.037,2.789-.012M7.372,32.362q-.022,7.68,0,15.361c0,.484-.183.62-.652.665-3.7.357-3.7.366-3.7-3.3q0-2.523,0-5.045H3c0-2.467.028-4.934-.017-7.4-.013-.739.189-1,.941-.947.93.062,1.868.027,2.8.007.478-.01.647.17.646.657m.379-17.809a.893.893,0,0,1-.321.03A1.816,1.816,0,0,1,8.6,12.137c6.717-3.367,13.4-6.808,20.069-10.267.669-.347.889-.166,1.143.4.2.439.542.775-.18,1.142Q18.677,8.955,7.751,14.553m17.621.217a2.318,2.318,0,0,1,2.423.163c3.395,2,6.808,3.975,10.407,6.069H14.712c3.672-2.155,7.149-4.223,10.659-6.233m13.782,21c-4.221-.036-8.443-.017-12.664-.017s-8.443-.018-12.664.016c-.774.006-1.088-.1-1.073-1.006.062-3.809.045-7.621.008-11.431-.007-.724.179-.924.917-.921q12.776.041,25.553,0c.752,0,.928.219.922.941q-.05,5.715,0,11.431c.009.8-.231.995-1,.988" transform="translate(0 0)" fill="#fff"/>
        <path id="Trazado_1033334" data-name="Trazado 1033334" d="M90.108,208.4q-3-1.841-6.022-3.64c-.425-.253-.858-.747-1.408-.394-.482.309-.342.892-.291,1.352.09.815-.145,1.058-1.015,1.052-6.428-.045-12.856-.011-19.284-.042-.91,0-1.317.26-1.258,1.206a19.826,19.826,0,0,1,0,2.465c-.062.99.363,1.3,1.326,1.282,3.214-.044,6.428-.017,9.642-.018,3.027,0,6.056.054,9.081-.03,1.146-.032,1.685.133,1.544,1.451-.109,1.018.391,1.241,1.3.7q3.21-1.923,6.4-3.886c.813-.5.809-.995-.008-1.5M83.9,212.182c-.1-.105-.182-.15-.184-.2-.066-1.582.244-1.639-1.682-1.637-6.2.007-12.4-.015-18.6.017-.909,0-1.348-.062-1.357-1.2s.462-1.137,1.3-1.134c6.049.022,12.1.01,18.148.008,2.025,0,2.025,0,2.256-1.942l5.043,3.054L83.9,212.182" transform="translate(-49.344 -165.699)" fill="#fff"/>
        <path id="Trazado_1033335" data-name="Trazado 1033335" d="M235.123,179.3c-.826.107-.793-.353-.79-.925.017-2.617.007-5.235.007-7.853h0c0-2.617-.036-5.236.019-7.852.021-1-.339-1.327-1.306-1.283-1.306.06-2.617.015-3.926.016-1.688,0-1.688,0-1.687,1.663,0,5.086.011,10.171,0,15.257,0,.344.261,1-.393.953-1.379-.108-1.29.745-1.251,1.646.024.56.035,1.123.005,1.682-.043.791.34,1.048,1.084,1.043q4.039-.03,8.077,0c.758.006,1.111-.307,1.108-1.057s0-1.5.017-2.244c.019-.675-.236-1.139-.959-1.045m-6.38-8.338c0-2.428.032-4.856-.02-7.283-.017-.793.113-1.179,1.012-1.076,1.063.123,2.491-.464,3.1.225.528.592.173,1.988.176,3.028.01,4.109-.011,8.217.025,12.326.007.808-.1,1.254-1.064,1.141-1.029-.121-2.379.423-3.026-.2s-.176-1.977-.2-3.009c-.034-1.717-.009-3.436-.011-5.154m5.39,11.382c-1.08-.071-2.168-.018-3.253-.02-1.047,0-2.1-.053-3.141.016-.75.049-.661-.389-.64-.84s-.18-.988.653-.972q3.2.06,6.4,0c.851-.015.6.551.63.985.029.453.1.879-.644.831" transform="translate(-183.166 -130.924)" fill="#fff"/>
        <path id="Trazado_1033336" data-name="Trazado 1033336" d="M176.365,131.014c0-1.493-.005-2.986,0-4.479,0-.437-.027-.879-.577-.908-.575-.03-.747.356-.746.882q.01,4.479,0,8.958c0,.481.084.959.665.97s.668-.45.664-.944c-.013-1.493,0-2.986-.006-4.479" transform="translate(-142.009 -101.918)" fill="#fff"/>
        <path id="Trazado_1033337" data-name="Trazado 1033337" d="M79.847,131H79.84q0-2.126,0-4.252c0-.489.05-1.053-.649-1.075s-.684.519-.683,1.025q.01,4.308.006,8.615c0,.542-.017,1.171.7,1.143s.631-.686.631-1.2q0-2.126,0-4.252" transform="translate(-63.691 -101.954)" fill="#fff"/>
        <path id="Trazado_1033338" data-name="Trazado 1033338" d="M99.06,131.1h-.008c0-1.456,0-2.912,0-4.367,0-.473.109-1.065-.62-1.078-.685-.012-.706.518-.705,1.031q.007,4.367.006,8.735c0,.521.072,1.059.716,1.037.674-.024.614-.614.614-1.1q0-2.128,0-4.256" transform="translate(-79.283 -101.945)" fill="#fff"/>
        <path id="Trazado_1033339" data-name="Trazado 1033339" d="M137.3,125.7c-.747-.005-.642.565-.643,1.043q0,2.182,0,4.363t0,4.363c0,.442-.076.988.55,1.033.666.048.756-.482.756-1q0-4.42-.026-8.839c0-.442.014-.964-.638-.968" transform="translate(-110.86 -101.975)" fill="#fff"/>
        <path id="Trazado_1033340" data-name="Trazado 1033340" d="M157.129,131.055h-.005c0-1.456,0-2.911,0-4.367,0-.456.015-.96-.624-.983-.71-.026-.7.488-.7,1q.012,4.368,0,8.735c0,.5-.024,1.073.659,1.054.639-.017.678-.557.674-1.076-.011-1.456,0-2.912,0-4.367" transform="translate(-126.396 -101.981)" fill="#fff"/>
        <path id="Trazado_1033341" data-name="Trazado 1033341" d="M195.882,131.03h-.014c0-1.454,0-2.907,0-4.361,0-.47.123-1.079-.593-1.1s-.636.574-.637,1.053q-.009,4.361-.011,8.722c0,.477-.065,1.082.651,1.046.685-.035.6-.632.6-1.11,0-1.417,0-2.833,0-4.249" transform="translate(-157.895 -101.871)" fill="#fff"/>
        <path id="Trazado_1033342" data-name="Trazado 1033342" d="M118.594,126.642c0-.451.022-.963-.627-.968s-.648.48-.647.948q.007,4.413.012,8.826c0,.489-.023,1.063.683,1.029.6-.03.6-.553.6-1.009q0-2.235,0-4.469H118.6c0-1.452,0-2.9,0-4.357" transform="translate(-95.18 -101.958)" fill="#fff"/>
      </g>
    </g>
  </g>
</svg>
