<svg xmlns="http://www.w3.org/2000/svg" xmlns:xlink="http://www.w3.org/1999/xlink" width="168" height="164.263" viewBox="0 0 168 164.263">
  <defs>
    <clipPath id="clip-path">
      <rect id="Rectángulo_459811" data-name="Rectángulo 459811" width="155.804" height="103.355" transform="translate(0 0)" fill="none"/>
    </clipPath>
  </defs>
  <g id="Grupo_1187609" data-name="Grupo 1187609" transform="translate(-209.711 -1466)">
    <rect id="Rectángulo_458661" data-name="Rectángulo 458661" width="168" height="164.263" rx="10" transform="translate(209.711 1466)" fill="#eeadb6"/>
    <g id="Grupo_1187589" data-name="Grupo 1187589" transform="translate(215.993 1495.664)">
      <g id="Grupo_1187588" data-name="Grupo 1187588" transform="translate(-0.282 0.335)" clip-path="url(#clip-path)">
        <path id="Trazado_1030481" data-name="Trazado 1030481" d="M344.093,127.476a39.237,39.237,0,1,0,23.8-50.129,39.237,39.237,0,0,0-23.8,50.129" transform="translate(-299.029 -65.813)" fill="#e2eaff"/>
        <path id="Trazado_1030482" data-name="Trazado 1030482" d="M422.632,193.839q-.3,0-.589-.026a.187.187,0,0,1,.034-.373,7.107,7.107,0,0,0,6.694-3.588,6.14,6.14,0,0,0-1.039-7.1,13.5,13.5,0,0,0-1.325-1.1,6.183,6.183,0,0,1-2.355-2.616c-.716-1.992.757-4.207,2.582-5.367a18.158,18.158,0,0,1,3.718-1.643c.716-.254,1.457-.517,2.158-.826a16.552,16.552,0,0,0,9.132-18.061c-1.389-6.609-7.071-12.361-14.476-14.654a.187.187,0,1,1,.111-.358c7.533,2.332,13.315,8.194,14.732,14.934a16.937,16.937,0,0,1-9.348,18.48c-.714.314-1.461.579-2.184.836a17.891,17.891,0,0,0-3.642,1.606c-1.7,1.079-3.08,3.118-2.431,4.924a5.825,5.825,0,0,0,2.229,2.445A13.794,13.794,0,0,1,428,182.489a6.522,6.522,0,0,1,1.107,7.538,7.516,7.516,0,0,1-6.47,3.813" transform="translate(-369.099 -121.005)" fill="#fff"/>
        <path id="Trazado_1030483" data-name="Trazado 1030483" d="M637.671,336.783l-.026,0a42.429,42.429,0,0,1-21.245-9.367c-3.552-2.945-5.31-5.914-5.226-8.826a8.576,8.576,0,0,1,5.081-7.151,16.051,16.051,0,0,1,8.934-1.105c1.775.211,3.549.589,5.264.954,1.18.251,2.4.511,3.607.713,1.436.241,3.233.388,4.387-.625,1.49-1.307,1.1-3.716.319-5.381-.246-.521-.535-1.043-.815-1.547a10.59,10.59,0,0,1-1.563-4.023c-.324-3.344,2.649-6.239,5.71-7.107,3.2-.906,6.616-.258,9.63.314a.187.187,0,1,1-.07.368c-2.974-.565-6.344-1.2-9.458-.322-2.914.825-5.745,3.561-5.44,6.71a10.318,10.318,0,0,0,1.517,3.877c.283.51.575,1.037.826,1.57.84,1.783,1.236,4.377-.411,5.822-1.273,1.116-3.178.967-4.7.713-1.215-.2-2.439-.464-3.623-.716-1.707-.363-3.473-.739-5.23-.948a15.693,15.693,0,0,0-8.726,1.071,8.2,8.2,0,0,0-4.87,6.825c-.081,2.79,1.632,5.659,5.091,8.527A42.644,42.644,0,0,0,637.7,336.41a.187.187,0,0,1-.026.373" transform="translate(-534.764 -256.427)" fill="#fff"/>
        <path id="Trazado_1030484" data-name="Trazado 1030484" d="M653.37,103.377a7.465,7.465,0,0,1-6.19-3.266,15.148,15.148,0,0,1-1.317-2.787,8.57,8.57,0,0,0-2.356-3.885,7.986,7.986,0,0,0-4.211-1.31l-.483-.045a11.418,11.418,0,0,1-4.043-.875,3.874,3.874,0,0,1-2.332-3.838.187.187,0,1,1,.369.064,3.5,3.5,0,0,0,2.128,3.437,11.146,11.146,0,0,0,3.912.838l.485.046a8.306,8.306,0,0,1,4.406,1.388,8.975,8.975,0,0,1,2.474,4.043,14.852,14.852,0,0,0,1.281,2.719,6.9,6.9,0,0,0,12.636-4.414.187.187,0,0,1,.373-.035,7.446,7.446,0,0,1-4.841,7.538,6.943,6.943,0,0,1-2.292.382" transform="translate(-553.341 -76.45)" fill="#fff"/>
        <rect id="Rectángulo_459798" data-name="Rectángulo 459798" width="43.402" height="23.458" transform="translate(97.23 -0.123)" fill="#5479f7"/>
        <path id="Trazado_1030485" data-name="Trazado 1030485" d="M835.4,201.849H777.1a.125.125,0,1,1,0-.25h58.3a.125.125,0,0,1,0,.25" transform="translate(-679.87 -176.554)"/>
        <path id="Trazado_1030486" data-name="Trazado 1030486" d="M1156.389,84.958h-12.64V70.273h10.144l2.5,7.83Z" transform="translate(-1000.856 -61.623)" fill="#fff"/>
        <path id="Trazado_1030487" data-name="Trazado 1030487" d="M1155.515,84.208h-12.64a.125.125,0,0,1-.125-.125V69.4a.125.125,0,0,1,.125-.125h10.144a.125.125,0,0,1,.119.087l2.5,7.83a.133.133,0,0,1,.006.038v6.855a.125.125,0,0,1-.125.125M1143,83.958h12.39V77.247l-2.462-7.724H1143Z" transform="translate(-999.981 -60.748)"/>
        <path id="Trazado_1030488" data-name="Trazado 1030488" d="M1181.993,82.048h-8.113a.125.125,0,0,1-.125-.125V74.878a.125.125,0,1,1,.25,0V81.8h7.988a.125.125,0,0,1,0,.25" transform="translate(-1027.116 -65.543)"/>
        <path id="Trazado_1030489" data-name="Trazado 1030489" d="M1152.793,49.286a.125.125,0,0,1-.1-.051l-.963-1.318-8.868-.849a.125.125,0,0,1-.113-.136.124.124,0,0,1,.136-.112l8.924.854a.125.125,0,0,1,.089.051l1,1.363a.125.125,0,0,1-.1.2" transform="translate(-999.98 -41.097)"/>
        <path id="Trazado_1030490" data-name="Trazado 1030490" d="M1170.183,174.283a4.039,4.039,0,1,1-4.039-4.039,4.039,4.039,0,0,1,4.039,4.039" transform="translate(-1016.919 -149.113)" fill="#fff"/>
        <path id="Trazado_1030491" data-name="Trazado 1030491" d="M1165.268,177.571a4.164,4.164,0,1,1,4.164-4.164,4.169,4.169,0,0,1-4.164,4.164m0-8.079a3.914,3.914,0,1,0,3.914,3.914,3.919,3.919,0,0,0-3.914-3.914" transform="translate(-1016.044 -148.237)"/>
        <path id="Trazado_1030492" data-name="Trazado 1030492" d="M1184.642,191.148a1.633,1.633,0,1,1-1.633-1.633,1.634,1.634,0,0,1,1.633,1.633" transform="translate(-1033.785 -165.979)" fill="#fff"/>
        <path id="Trazado_1030493" data-name="Trazado 1030493" d="M1182.133,192.032a1.758,1.758,0,1,1,1.758-1.758,1.76,1.76,0,0,1-1.758,1.758m0-3.267a1.509,1.509,0,1,0,1.509,1.509,1.51,1.51,0,0,0-1.509-1.509" transform="translate(-1032.909 -165.103)"/>
        <path id="Trazado_1030494" data-name="Trazado 1030494" d="M877.559,174.283a4.039,4.039,0,1,1-4.039-4.039,4.039,4.039,0,0,1,4.039,4.039" transform="translate(-760.827 -149.113)" fill="#fff"/>
        <path id="Trazado_1030495" data-name="Trazado 1030495" d="M872.645,177.571a4.164,4.164,0,1,1,4.164-4.164,4.169,4.169,0,0,1-4.164,4.164m0-8.079a3.914,3.914,0,1,0,3.914,3.914,3.919,3.919,0,0,0-3.914-3.914" transform="translate(-759.952 -148.237)"/>
        <path id="Trazado_1030496" data-name="Trazado 1030496" d="M892.019,191.148a1.633,1.633,0,1,1-1.633-1.633,1.633,1.633,0,0,1,1.633,1.633" transform="translate(-777.693 -165.979)" fill="#fff"/>
        <path id="Trazado_1030497" data-name="Trazado 1030497" d="M889.51,192.032a1.758,1.758,0,1,1,1.758-1.758,1.76,1.76,0,0,1-1.758,1.758m0-3.267a1.509,1.509,0,1,0,1.509,1.509,1.51,1.51,0,0,0-1.509-1.509" transform="translate(-776.818 -165.103)"/>
        <path id="Trazado_1030498" data-name="Trazado 1030498" d="M805.482,174.283a4.039,4.039,0,1,1-4.039-4.039,4.039,4.039,0,0,1,4.039,4.039" transform="translate(-697.748 -149.113)" fill="#fff"/>
        <path id="Trazado_1030499" data-name="Trazado 1030499" d="M800.568,177.571a4.164,4.164,0,1,1,4.164-4.164,4.169,4.169,0,0,1-4.164,4.164m0-8.079a3.914,3.914,0,1,0,3.914,3.914,3.919,3.919,0,0,0-3.914-3.914" transform="translate(-696.873 -148.237)"/>
        <path id="Trazado_1030500" data-name="Trazado 1030500" d="M819.942,191.148a1.633,1.633,0,1,1-1.633-1.633,1.633,1.633,0,0,1,1.633,1.633" transform="translate(-714.614 -165.979)" fill="#fff"/>
        <path id="Trazado_1030501" data-name="Trazado 1030501" d="M817.433,192.032a1.758,1.758,0,1,1,1.758-1.758,1.76,1.76,0,0,1-1.758,1.758m0-3.267a1.509,1.509,0,1,0,1.508,1.509,1.51,1.51,0,0,0-1.508-1.509" transform="translate(-713.739 -165.103)"/>
        <path id="Trazado_1030502" data-name="Trazado 1030502" d="M100.417,527.849H96.774l-1.49,10.068h6.624Z" transform="translate(-83.281 -462.075)" fill="#fff"/>
        <path id="Trazado_1030503" data-name="Trazado 1030503" d="M101.032,537.168H94.408a.125.125,0,0,1-.123-.143l1.49-10.068a.125.125,0,0,1,.123-.107h3.643a.125.125,0,0,1,.124.107l1.49,10.068a.125.125,0,0,1-.124.143m-6.479-.25h6.335L99.434,527.1H96.006Z" transform="translate(-82.406 -461.201)"/>
        <rect id="Rectángulo_459799" data-name="Rectángulo 459799" width="20.41" height="7.166" transform="translate(10.811 75.095)" fill="#fff"/>
        <path id="Trazado_1030504" data-name="Trazado 1030504" d="M105.273,608.925H84.863a.125.125,0,0,1-.125-.125v-7.166a.125.125,0,0,1,.125-.125h20.41a.125.125,0,0,1,.125.125V608.8a.125.125,0,0,1-.125.125m-20.285-.25h20.16v-6.916H84.988Z" transform="translate(-74.052 -526.539)"/>
        <rect id="Rectángulo_459800" data-name="Rectángulo 459800" width="28.053" height="15.52" transform="translate(6.989 80.197)" fill="#fff"/>
        <path id="Trazado_1030505" data-name="Trazado 1030505" d="M82.3,658.151H54.252a.125.125,0,0,1-.125-.125v-15.52a.125.125,0,0,1,.125-.125H82.3a.125.125,0,0,1,.125.125v15.52a.125.125,0,0,1-.125.125m-27.928-.25h27.8V642.631h-27.8Z" transform="translate(-47.263 -562.309)"/>
        <path id="Trazado_1030506" data-name="Trazado 1030506" d="M80.675,595.953H57.634l-2.506-4.175H83.181Z" transform="translate(-48.138 -518.023)" fill="#fff"/>
        <path id="Trazado_1030507" data-name="Trazado 1030507" d="M79.8,595.2H56.758a.125.125,0,0,1-.107-.061l-2.506-4.175a.125.125,0,0,1,.107-.189H82.306a.125.125,0,0,1,.107.189l-2.506,4.175a.125.125,0,0,1-.107.061m-22.971-.25h22.9l2.356-3.925H54.473Z" transform="translate(-47.263 -517.149)"/>
        <rect id="Rectángulo_459801" data-name="Rectángulo 459801" width="47.849" height="12.701" transform="translate(31.221 82.261)" fill="#fff"/>
        <path id="Trazado_1030508" data-name="Trazado 1030508" d="M296.2,671.861H248.352a.125.125,0,0,1-.125-.125v-12.7a.125.125,0,0,1,.125-.125H296.2a.125.125,0,0,1,.125.125v12.7a.125.125,0,0,1-.125.125m-47.724-.25h47.6V659.16h-47.6Z" transform="translate(-217.131 -576.774)"/>
        <path id="Trazado_1030509" data-name="Trazado 1030509" d="M85.454,725.78H46.708v3.574H0l4.875,9.436h70.57Z" transform="translate(0.107 -635.296)" fill="#5479f7"/>
        <rect id="Rectángulo_459802" data-name="Rectángulo 459802" width="39.34" height="13.086" transform="translate(39.729 69.174)" fill="#fff"/>
        <path id="Trazado_1030510" data-name="Trazado 1030510" d="M355.845,567.422H316.5a.125.125,0,0,1-.125-.125V554.211a.125.125,0,0,1,.125-.125h39.34a.125.125,0,0,1,.125.125V567.3a.125.125,0,0,1-.125.125m-39.216-.25H355.72V554.336H316.63Z" transform="translate(-276.776 -485.036)"/>
        <path id="Trazado_1030511" data-name="Trazado 1030511" d="M342.893,572.578v0Z" transform="translate(-299.979 -501.22)" fill="#fff"/>
        <path id="Trazado_1030512" data-name="Trazado 1030512" d="M342.019,580.546a.125.125,0,0,1-.125-.125V571.7a.125.125,0,1,1,.25,0v8.719a.125.125,0,0,1-.125.125" transform="translate(-299.105 -500.344)"/>
        <path id="Trazado_1030513" data-name="Trazado 1030513" d="M366.9,572.578v0Z" transform="translate(-320.991 -501.22)" fill="#fff"/>
        <path id="Trazado_1030514" data-name="Trazado 1030514" d="M366.027,580.546a.125.125,0,0,1-.125-.125V571.7a.125.125,0,1,1,.25,0v8.719a.125.125,0,0,1-.125.125" transform="translate(-320.115 -500.344)"/>
        <path id="Trazado_1030515" data-name="Trazado 1030515" d="M390.912,572.578v0Z" transform="translate(-342.003 -501.22)" fill="#fff"/>
        <path id="Trazado_1030516" data-name="Trazado 1030516" d="M390.037,580.546a.125.125,0,0,1-.125-.125V571.7a.125.125,0,1,1,.25,0v8.719a.125.125,0,0,1-.125.125" transform="translate(-341.128 -500.344)"/>
        <path id="Trazado_1030517" data-name="Trazado 1030517" d="M414.921,572.578v0Z" transform="translate(-363.015 -501.22)" fill="#fff"/>
        <path id="Trazado_1030518" data-name="Trazado 1030518" d="M414.045,580.546a.125.125,0,0,1-.125-.125V571.7a.125.125,0,1,1,.25,0v8.719a.125.125,0,0,1-.125.125" transform="translate(-362.139 -500.344)"/>
        <path id="Trazado_1030519" data-name="Trazado 1030519" d="M438.93,572.578v0Z" transform="translate(-384.027 -501.22)" fill="#fff"/>
        <path id="Trazado_1030520" data-name="Trazado 1030520" d="M438.055,580.546a.125.125,0,0,1-.125-.125V571.7a.125.125,0,1,1,.25,0v8.719a.125.125,0,0,1-.125.125" transform="translate(-383.151 -500.344)"/>
        <path id="Trazado_1030521" data-name="Trazado 1030521" d="M462.939,572.578v0Z" transform="translate(-405.038 -501.22)" fill="#fff"/>
        <path id="Trazado_1030522" data-name="Trazado 1030522" d="M462.064,580.546a.125.125,0,0,1-.125-.125V571.7a.125.125,0,1,1,.25,0v8.719a.125.125,0,0,1-.125.125" transform="translate(-404.163 -500.344)"/>
        <path id="Trazado_1030523" data-name="Trazado 1030523" d="M486.948,572.578v0Z" transform="translate(-426.05 -501.22)" fill="#fff"/>
        <path id="Trazado_1030524" data-name="Trazado 1030524" d="M486.073,580.546a.125.125,0,0,1-.125-.125V571.7a.125.125,0,1,1,.25,0v8.719a.125.125,0,0,1-.125.125" transform="translate(-425.175 -500.344)"/>
        <path id="Trazado_1030525" data-name="Trazado 1030525" d="M510.957,572.578v0Z" transform="translate(-447.062 -501.22)" fill="#fff"/>
        <path id="Trazado_1030526" data-name="Trazado 1030526" d="M510.082,580.546a.125.125,0,0,1-.125-.125V571.7a.125.125,0,1,1,.25,0v8.719a.125.125,0,0,1-.125.125" transform="translate(-446.187 -500.344)"/>
        <path id="Trazado_1030527" data-name="Trazado 1030527" d="M534.966,572.578v0Z" transform="translate(-468.073 -501.22)" fill="#fff"/>
        <path id="Trazado_1030528" data-name="Trazado 1030528" d="M534.091,580.546a.125.125,0,0,1-.125-.125V571.7a.125.125,0,1,1,.25,0v8.719a.125.125,0,0,1-.125.125" transform="translate(-467.198 -500.344)"/>
        <path id="Trazado_1030529" data-name="Trazado 1030529" d="M558.975,572.578v0Z" transform="translate(-489.085 -501.22)" fill="#fff"/>
        <path id="Trazado_1030530" data-name="Trazado 1030530" d="M558.1,580.546a.125.125,0,0,1-.125-.125V571.7a.125.125,0,1,1,.25,0v8.719a.125.125,0,0,1-.125.125" transform="translate(-488.21 -500.344)"/>
        <path id="Trazado_1030531" data-name="Trazado 1030531" d="M582.984,572.578v0Z" transform="translate(-510.097 -501.22)" fill="#fff"/>
        <path id="Trazado_1030532" data-name="Trazado 1030532" d="M582.109,580.546a.125.125,0,0,1-.125-.125V571.7a.125.125,0,0,1,.25,0v8.719a.125.125,0,0,1-.125.125" transform="translate(-509.222 -500.344)"/>
        <path id="Trazado_1030533" data-name="Trazado 1030533" d="M606.993,572.578v0Z" transform="translate(-531.109 -501.22)" fill="#fff"/>
        <path id="Trazado_1030534" data-name="Trazado 1030534" d="M606.118,580.546a.125.125,0,0,1-.125-.125V571.7a.125.125,0,1,1,.25,0v8.719a.125.125,0,0,1-.125.125" transform="translate(-530.233 -500.344)"/>
        <path id="Trazado_1030535" data-name="Trazado 1030535" d="M167.812,237.744h-6.473a.125.125,0,0,1-.125-.125v-50.4a.125.125,0,0,1,.125-.125h6.473a.125.125,0,0,1,.125.125v50.4a.125.125,0,0,1-.125.125m-6.349-.25h6.224V187.349h-6.224Z" transform="translate(-140.981 -163.864)"/>
        <path id="Trazado_1030536" data-name="Trazado 1030536" d="M167.812,151.736h-6.473a.125.125,0,0,1-.125-.125v-.469a.125.125,0,0,1,.068-.111l6.473-3.346a.125.125,0,0,1,.182.111v3.815a.125.125,0,0,1-.125.125m-6.349-.25h6.224V148l-6.224,3.217Z" transform="translate(-140.981 -129.359)"/>
        <path id="Trazado_1030537" data-name="Trazado 1030537" d="M167.363,237.743a.124.124,0,0,1-.084-.032l-6.324-5.731a.125.125,0,0,1-.007-.178l6.27-6.679-6.261-6.172a.125.125,0,0,1,0-.178l6.314-6.224-6.228-6.041a.125.125,0,0,1,0-.179l6.119-5.936-6.174-5.989a.125.125,0,0,1-.005-.174l6.473-7.092a.125.125,0,0,1,.185.168l-6.392,7,6.18,5.994a.125.125,0,0,1,0,.179l-6.119,5.936,6.227,6.04a.125.125,0,0,1,0,.179l-6.315,6.225,6.257,6.169a.125.125,0,0,1,0,.174l-6.266,6.675,6.23,5.646a.125.125,0,0,1-.084.217" transform="translate(-140.718 -163.863)"/>
        <path id="Trazado_1030538" data-name="Trazado 1030538" d="M223.522,228.989a.125.125,0,0,1-.125-.125v-6.036a.125.125,0,0,1,.125-.125h40.723a.125.125,0,0,1,.125.125v1.8a.125.125,0,0,1-.112.124l-40.723,4.236h-.013m.125-6.036v5.772l40.473-4.21v-1.563Zm40.6,1.675h0Z" transform="translate(-195.401 -195.024)"/>
        <path id="Trazado_1030539" data-name="Trazado 1030539" d="M64.247,229.194H51.6a.125.125,0,0,1-.125-.125V227.8a.125.125,0,0,1,.079-.116L64.2,222.726a.125.125,0,0,1,.171.116v6.227a.125.125,0,0,1-.125.125m-12.518-.25H64.122v-5.919l-12.393,4.863Z" transform="translate(-44.945 -195.035)"/>
        <path id="Trazado_1030540" data-name="Trazado 1030540" d="M228.818,227.849a.125.125,0,0,1-.088-.037l-5.3-5.3a.125.125,0,0,1,.177-.177l5.208,5.208,5.266-5.266a.125.125,0,0,1,.177,0l4.361,4.361,4.244-4.244a.125.125,0,0,1,.177,0l3.436,3.436,3.509-3.509a.125.125,0,0,1,.177,0l2.789,2.789,2.808-2.808a.125.125,0,0,1,.177,0l2.331,2.331,2.255-2.255a.128.128,0,0,1,.177,0l1.735,1.735,1.721-1.721a.125.125,0,0,1,.177.177l-1.809,1.809a.125.125,0,0,1-.177,0l-1.735-1.735-2.255,2.255a.128.128,0,0,1-.177,0l-2.331-2.331-2.808,2.808a.125.125,0,0,1-.177,0l-2.789-2.789-3.509,3.509a.125.125,0,0,1-.177,0l-3.436-3.436-4.244,4.244a.125.125,0,0,1-.177,0l-4.361-4.361-5.266,5.266a.124.124,0,0,1-.088.037" transform="translate(-195.401 -194.623)"/>
        <path id="Trazado_1030541" data-name="Trazado 1030541" d="M549.507,233.667a1.871,1.871,0,0,1-.125-3.738v-7.558a.125.125,0,1,1,.25,0v7.678a.125.125,0,0,1-.125.125,1.621,1.621,0,1,0,1.622,1.622.125.125,0,1,1,.25,0,1.873,1.873,0,0,1-1.871,1.871" transform="translate(-479.162 -194.623)"/>
        <path id="Trazado_1030542" data-name="Trazado 1030542" d="M488.622,335.695a.124.124,0,0,1-.059-.015.125.125,0,0,1-.051-.169l9.028-16.716a.125.125,0,0,1,.215-.008L508.6,335.5a.125.125,0,0,1-.209.136L497.66,319.1l-8.928,16.531a.125.125,0,0,1-.11.065" transform="translate(-427.406 -279.061)"/>
        <rect id="Rectángulo_459803" data-name="Rectángulo 459803" width="29.638" height="14.214" transform="translate(55.527 58.395)" fill="#5479f7"/>
        <path id="Trazado_1030543" data-name="Trazado 1030543" d="M485.7,497.359H460.388a.125.125,0,0,1,0-.25H485.7a.125.125,0,1,1,0,.25" transform="translate(-402.696 -435.172)" fill="#fff"/>
        <path id="Trazado_1030544" data-name="Trazado 1030544" d="M819.245,344.814H779.394a1.419,1.419,0,0,1-1.419-1.419V291.889a1.419,1.419,0,0,1,1.419-1.419h39.851a1.419,1.419,0,0,1,1.419,1.419V343.4a1.419,1.419,0,0,1-1.419,1.419" transform="translate(-680.745 -254.33)" fill="#fff"/>
        <path id="Trazado_1030545" data-name="Trazado 1030545" d="M818.37,344.065H778.519a1.545,1.545,0,0,1-1.544-1.544V291.015a1.545,1.545,0,0,1,1.544-1.544H818.37a1.545,1.545,0,0,1,1.544,1.544v51.507a1.545,1.545,0,0,1-1.544,1.544m-39.851-54.344a1.3,1.3,0,0,0-1.294,1.294v51.507a1.3,1.3,0,0,0,1.294,1.294H818.37a1.3,1.3,0,0,0,1.294-1.294V291.015a1.3,1.3,0,0,0-1.294-1.294Z" transform="translate(-679.87 -253.456)"/>
        <path id="Trazado_1030546" data-name="Trazado 1030546" d="M833.127,357.4h-38.25a.125.125,0,0,1-.125-.125V307.372a.125.125,0,0,1,.125-.125h38.25a.125.125,0,0,1,.125.125v49.906a.125.125,0,0,1-.125.125M795,357.153h38V307.5H795Z" transform="translate(-695.428 -269.013)"/>
        <path id="Trazado_1030547" data-name="Trazado 1030547" d="M874.809,278.7h-13.9a4.616,4.616,0,0,1-4.616-4.616v-2.028h23.135v2.028a4.616,4.616,0,0,1-4.616,4.616" transform="translate(-749.283 -238.212)" fill="#fff"/>
        <path id="Trazado_1030548" data-name="Trazado 1030548" d="M873.934,277.946h-13.9a4.746,4.746,0,0,1-4.741-4.741v-2.028a.125.125,0,0,1,.125-.125H878.55a.125.125,0,0,1,.125.125V273.2a4.746,4.746,0,0,1-4.741,4.741M855.54,271.3v1.9a4.5,4.5,0,0,0,4.491,4.491h13.9a4.5,4.5,0,0,0,4.491-4.491v-1.9Z" transform="translate(-748.408 -237.336)"/>
        <rect id="Rectángulo_459804" data-name="Rectángulo 459804" width="15.363" height="5.785" transform="translate(112.259 44.53)" fill="#fff"/>
        <path id="Trazado_1030549" data-name="Trazado 1030549" d="M912.853,362.715H897.49a.125.125,0,0,1-.125-.125V356.8a.125.125,0,0,1,.125-.125h15.363a.125.125,0,0,1,.125.125v5.785a.125.125,0,0,1-.125.125m-15.238-.25h15.114V356.93H897.615Z" transform="translate(-785.23 -312.275)" fill="#e2eaff"/>
        <rect id="Rectángulo_459805" data-name="Rectángulo 459805" width="6.36" height="5.785" transform="translate(127.623 44.53)" fill="#fff"/>
        <path id="Trazado_1030550" data-name="Trazado 1030550" d="M1026.913,362.715h-6.36a.125.125,0,0,1-.125-.125V356.8a.125.125,0,0,1,.125-.125h6.36a.125.125,0,0,1,.125.125v5.785a.125.125,0,0,1-.125.125m-6.235-.25h6.11V356.93h-6.11Z" transform="translate(-892.93 -312.275)" fill="#e2eaff"/>
        <rect id="Rectángulo_459806" data-name="Rectángulo 459806" width="8.038" height="5.785" transform="translate(103.166 44.53)" fill="#fff"/>
        <path id="Trazado_1030551" data-name="Trazado 1030551" d="M832.685,362.715h-8.038a.125.125,0,0,1-.125-.125V356.8a.125.125,0,0,1,.125-.125h8.038a.125.125,0,0,1,.125.125v5.785a.125.125,0,0,1-.125.125m-7.913-.25h7.789V356.93h-7.789Z" transform="translate(-721.481 -312.275)" fill="#e2eaff"/>
        <rect id="Rectángulo_459807" data-name="Rectángulo 459807" width="30.817" height="3.88" transform="translate(103.166 52.893)" fill="#fff"/>
        <path id="Trazado_1030552" data-name="Trazado 1030552" d="M855.464,427.794H824.647a.125.125,0,0,1-.125-.125v-3.88a.125.125,0,0,1,.125-.125h30.817a.125.125,0,0,1,.125.125v3.88a.125.125,0,0,1-.125.125m-30.692-.25h30.567v-3.63H824.772Z" transform="translate(-721.481 -370.896)" fill="#e2eaff"/>
        <path id="Trazado_1030553" data-name="Trazado 1030553" d="M901.882,428.544v0Z" transform="translate(-789.183 -371.771)" fill="#fff"/>
        <path id="Trazado_1030554" data-name="Trazado 1030554" d="M901.007,427.794a.125.125,0,0,1-.125-.125v-3.88a.125.125,0,1,1,.25,0v3.88a.125.125,0,0,1-.125.125" transform="translate(-788.308 -370.896)" fill="#e2eaff"/>
        <rect id="Rectángulo_459808" data-name="Rectángulo 459808" width="30.817" height="3.88" transform="translate(103.166 59.739)" fill="#fff"/>
        <path id="Trazado_1030555" data-name="Trazado 1030555" d="M855.464,482.633H824.647a.125.125,0,0,1-.125-.125v-3.88a.125.125,0,0,1,.125-.125h30.817a.125.125,0,0,1,.125.125v3.88a.125.125,0,0,1-.125.125m-30.692-.25h30.567v-3.63H824.772Z" transform="translate(-721.481 -418.89)" fill="#e2eaff"/>
        <path id="Trazado_1030556" data-name="Trazado 1030556" d="M901.882,483.384v0Z" transform="translate(-789.183 -419.765)" fill="#fff"/>
        <path id="Trazado_1030557" data-name="Trazado 1030557" d="M901.007,482.633a.125.125,0,0,1-.125-.125v-3.88a.125.125,0,0,1,.25,0v3.88a.125.125,0,0,1-.125.125" transform="translate(-788.308 -418.89)" fill="#e2eaff"/>
        <rect id="Rectángulo_459809" data-name="Rectángulo 459809" width="30.817" height="3.88" transform="translate(103.166 66.585)" fill="#fff"/>
        <path id="Trazado_1030558" data-name="Trazado 1030558" d="M855.464,537.474H824.647a.125.125,0,0,1-.125-.125v-3.88a.125.125,0,0,1,.125-.125h30.817a.125.125,0,0,1,.125.125v3.88a.125.125,0,0,1-.125.125m-30.692-.25h30.567v-3.63H824.772Z" transform="translate(-721.481 -466.884)" fill="#e2eaff"/>
        <path id="Trazado_1030559" data-name="Trazado 1030559" d="M901.882,538.223v0Z" transform="translate(-789.183 -467.758)" fill="#fff"/>
        <path id="Trazado_1030560" data-name="Trazado 1030560" d="M901.007,537.474a.125.125,0,0,1-.125-.125v-3.88a.125.125,0,1,1,.25,0v3.88a.125.125,0,0,1-.125.125" transform="translate(-788.308 -466.884)" fill="#e2eaff"/>
        <rect id="Rectángulo_459810" data-name="Rectángulo 459810" width="30.817" height="3.88" transform="translate(103.166 73.431)" fill="#fff"/>
        <path id="Trazado_1030561" data-name="Trazado 1030561" d="M855.464,592.314H824.647a.125.125,0,0,1-.125-.125v-3.88a.125.125,0,0,1,.125-.125h30.817a.125.125,0,0,1,.125.125v3.88a.125.125,0,0,1-.125.125m-30.692-.25h30.567v-3.63H824.772Z" transform="translate(-721.481 -514.878)" fill="#e2eaff"/>
        <path id="Trazado_1030562" data-name="Trazado 1030562" d="M901.882,593.063v0Z" transform="translate(-789.183 -515.752)" fill="#fff"/>
        <path id="Trazado_1030563" data-name="Trazado 1030563" d="M901.007,592.314a.125.125,0,0,1-.125-.125v-3.88a.125.125,0,0,1,.25,0v3.88a.125.125,0,0,1-.125.125" transform="translate(-788.308 -514.878)" fill="#e2eaff"/>
        <path id="Trazado_1030564" data-name="Trazado 1030564" d="M1061.283,650.572a7.191,7.191,0,1,1-7.191-7.191,7.191,7.191,0,0,1,7.191,7.191" transform="translate(-916.098 -563.184)" fill="#fff"/>
        <path id="Trazado_1030565" data-name="Trazado 1030565" d="M1053.216,657.013a7.316,7.316,0,1,1,7.316-7.316,7.324,7.324,0,0,1-7.316,7.316m0-14.382a7.066,7.066,0,1,0,7.066,7.066,7.074,7.074,0,0,0-7.066-7.066" transform="translate(-915.222 -562.309)"/>
        <path id="Trazado_1030566" data-name="Trazado 1030566" d="M1013.968,601.609a2.843,2.843,0,0,0-.341-.041,11.533,11.533,0,0,0-.71-3.367,2.827,2.827,0,1,0-3.169-4.626,11.536,11.536,0,0,0-2.883-1.878,2.827,2.827,0,1,0-5.512-1.03,11.539,11.539,0,0,0-3.367.71,2.826,2.826,0,1,0-4.839,2.9,2.848,2.848,0,0,0,.213.27,11.536,11.536,0,0,0-1.878,2.883,2.827,2.827,0,1,0-1.03,5.512,11.528,11.528,0,0,0,.71,3.367,2.827,2.827,0,1,0,3.169,4.626,11.532,11.532,0,0,0,2.883,1.878,2.827,2.827,0,1,0,5.512,1.03,11.538,11.538,0,0,0,3.367-.71,2.826,2.826,0,1,0,4.839-2.9,2.874,2.874,0,0,0-.213-.27,11.533,11.533,0,0,0,1.878-2.883,2.826,2.826,0,1,0,1.372-5.472m-12.894,5.806a5.25,5.25,0,1,1,6.125-4.2,5.25,5.25,0,0,1-6.125,4.2" transform="translate(-864.376 -514.732)" fill="#fff"/>
        <path id="Trazado_1030567" data-name="Trazado 1030567" d="M999.039,615.741a2.978,2.978,0,0,1-.548-.051,2.951,2.951,0,0,1-2.359-3.444c.014-.076.033-.157.057-.242a11.652,11.652,0,0,1-2.733-1.781c-.069.057-.134.106-.2.15a2.952,2.952,0,0,1-3.336-4.87c.064-.044.134-.087.212-.13a11.647,11.647,0,0,1-.674-3.192c-.089-.008-.17-.02-.246-.034a2.952,2.952,0,1,1,1.084-5.8c.077.014.157.034.242.057a11.652,11.652,0,0,1,1.781-2.733c-.057-.068-.106-.133-.15-.2a2.952,2.952,0,1,1,4.87-3.336c.044.065.087.134.131.212a11.657,11.657,0,0,1,3.192-.673c.008-.088.019-.17.034-.247a2.952,2.952,0,1,1,5.8,1.085c-.014.077-.033.157-.057.242a11.652,11.652,0,0,1,2.733,1.781c.068-.056.134-.106.2-.15a2.952,2.952,0,0,1,3.336,4.87c-.064.044-.134.087-.212.13a11.654,11.654,0,0,1,.674,3.192c.088.008.17.019.246.034a2.952,2.952,0,0,1-1.084,5.8c-.078-.015-.156-.033-.242-.058a11.646,11.646,0,0,1-1.781,2.734c.057.068.106.134.15.2a2.952,2.952,0,1,1-4.87,3.336c-.044-.065-.087-.135-.13-.212a11.655,11.655,0,0,1-3.192.673c-.008.089-.02.17-.034.247a2.954,2.954,0,0,1-2.9,2.41m-5.582-5.808a.124.124,0,0,1,.083.032,11.408,11.408,0,0,0,2.852,1.858.125.125,0,0,1,.067.151,2.7,2.7,0,1,0,5.23,1.311,2.716,2.716,0,0,0,.039-.326.124.124,0,0,1,.117-.117,11.406,11.406,0,0,0,3.33-.7.125.125,0,0,1,.154.059,2.7,2.7,0,1,0,4.422-3.029.125.125,0,0,1,0-.166,11.4,11.4,0,0,0,1.858-2.852.125.125,0,0,1,.151-.067,2.636,2.636,0,0,0,.318.082,2.7,2.7,0,0,0,.993-5.312h0a2.672,2.672,0,0,0-.326-.039.125.125,0,0,1-.117-.117,11.409,11.409,0,0,0-.7-3.33.125.125,0,0,1,.059-.154,2.719,2.719,0,0,0,.283-.167,2.7,2.7,0,1,0-3.312-4.255.125.125,0,0,1-.165,0,11.407,11.407,0,0,0-2.852-1.858.125.125,0,0,1-.067-.151,2.688,2.688,0,0,0-2.078-3.471,2.7,2.7,0,0,0-3.152,2.16,2.741,2.741,0,0,0-.039.326.125.125,0,0,1-.117.117,11.406,11.406,0,0,0-3.33.7.125.125,0,0,1-.154-.059,2.7,2.7,0,1,0-4.422,3.029.125.125,0,0,1,0,.165,11.407,11.407,0,0,0-1.858,2.852.125.125,0,0,1-.151.067,2.735,2.735,0,0,0-.318-.082,2.7,2.7,0,0,0-.993,5.312,2.743,2.743,0,0,0,.327.039.125.125,0,0,1,.117.117,11.4,11.4,0,0,0,.7,3.33.125.125,0,0,1-.059.154,2.7,2.7,0,1,0,2.771,4.625,2.725,2.725,0,0,0,.258-.2.124.124,0,0,1,.082-.031m7.711-3.18a5.375,5.375,0,1,1,5.281-4.388,5.389,5.389,0,0,1-5.281,4.388m-.944-.337a5.125,5.125,0,1,0-4.1-5.979,5.13,5.13,0,0,0,4.1,5.979" transform="translate(-863.503 -513.855)"/>
        <path id="Trazado_1030568" data-name="Trazado 1030568" d="M899.571,525.837a1.732,1.732,0,0,0-.21.014,7.076,7.076,0,0,0-.807-1.949,1.706,1.706,0,0,0,.159-.139,1.733,1.733,0,1,0-2.589-2.292,7.069,7.069,0,0,0-1.949-.807,1.732,1.732,0,1,0-3.451-.21,1.742,1.742,0,0,0,.014.21,7.069,7.069,0,0,0-1.948.807,1.733,1.733,0,1,0-2.431,2.43,7.076,7.076,0,0,0-.807,1.949,1.733,1.733,0,1,0,0,3.437,7.068,7.068,0,0,0,.807,1.948,1.77,1.77,0,0,0-.159.139,1.733,1.733,0,1,0,2.589,2.292,7.073,7.073,0,0,0,1.948.807,1.732,1.732,0,1,0,3.451.21,1.719,1.719,0,0,0-.014-.21,7.073,7.073,0,0,0,1.949-.807,1.768,1.768,0,0,0,.139.159,1.733,1.733,0,1,0,2.292-2.589,7.069,7.069,0,0,0,.807-1.948,1.732,1.732,0,1,0,.21-3.451m-7.115,4.951a3.218,3.218,0,1,1,3.218-3.218,3.218,3.218,0,0,1-3.218,3.218" transform="translate(-773.191 -454.087)" fill="#5479f7"/>
        <path id="Trazado_1030569" data-name="Trazado 1030569" d="M161.039,50.613a.125.125,0,0,1-.125-.125V36.608a.125.125,0,0,1,.125-.125h72.8a.125.125,0,1,1,0,.25H161.164V50.489a.125.125,0,0,1-.125.125" transform="translate(-140.718 -32.051)"/>
      </g>
    </g>
  </g>
</svg>
