<svg xmlns="http://www.w3.org/2000/svg" xmlns:xlink="http://www.w3.org/1999/xlink" width="150" height="150" viewBox="0 0 150 150">
  <defs>
    <clipPath id="clip-path">
      <rect id="Rectángulo_456277" data-name="Rectángulo 456277" width="150" height="150" transform="translate(-0.059 -0.059)" fill="#d35560"/>
    </clipPath>
    <clipPath id="clip-path-2">
      <rect id="Rectángulo_459922" data-name="Rectángulo 459922" width="74.658" height="70.702" fill="none"/>
    </clipPath>
  </defs>
  <g id="Grupo_1180101" data-name="Grupo 1180101" transform="translate(-413.192 -9435.133)">
    <g id="Grupo_1180081" data-name="Grupo 1180081" transform="translate(413.25 9435.191)">
      <g id="Grupo_1179924" data-name="Grupo 1179924" transform="translate(0 0)">
        <g id="Grupo_1179923" data-name="Grupo 1179923" transform="translate(0 0)" clip-path="url(#clip-path)">
          <path id="Trazado_1004716" data-name="Trazado 1004716" d="M74.59,149.181c-2.423,0-4.689-2.768-7.051-3-2.407-.235-5.167,2.037-7.5,1.574-2.367-.47-4.049-3.628-6.329-4.321-2.305-.7-5.459.985-7.662.069-2.222-.923-3.251-4.35-5.356-5.479s-5.541-.1-7.528-1.432-2.336-4.9-4.186-6.418-5.412-1.171-7.107-2.865-1.342-5.254-2.865-7.107-5.082-2.192-6.418-4.186-.3-5.41-1.432-7.527-4.556-3.135-5.48-5.356c-.916-2.2.77-5.357.07-7.662-.693-2.28-3.85-3.961-4.32-6.329C.962,86.809,3.234,84.048,3,81.642c-.231-2.363-3-4.629-3-7.052S2.768,69.9,3,67.539c.235-2.407-2.037-5.166-1.573-7.5.47-2.367,3.627-4.049,4.32-6.329.7-2.306-.985-5.459-.069-7.663.924-2.222,4.35-3.251,5.48-5.356s.1-5.54,1.432-7.528,4.9-2.336,6.418-4.186,1.171-5.412,2.866-7.107,5.254-1.342,7.107-2.865,2.192-5.082,4.186-6.418,5.41-.3,7.528-1.432,3.134-4.556,5.356-5.48c2.2-.916,5.357.77,7.663.069,2.28-.692,3.961-3.85,6.328-4.32C62.372.962,65.133,3.234,67.539,3c2.363-.231,4.629-3,7.052-3s4.689,2.768,7.051,3c2.407.235,5.167-2.037,7.5-1.574,2.367.47,4.049,3.628,6.329,4.321,2.305.7,5.459-.985,7.662-.069,2.222.923,3.251,4.35,5.356,5.48s5.541.1,7.528,1.432,2.337,4.9,4.186,6.418,5.412,1.171,7.107,2.866,1.342,5.254,2.865,7.107,5.082,2.192,6.418,4.186.3,5.41,1.432,7.528,4.556,3.135,5.479,5.356c.916,2.2-.77,5.357-.069,7.662.693,2.28,3.85,3.961,4.32,6.328.463,2.333-1.809,5.093-1.574,7.5.231,2.363,3,4.629,3,7.051s-2.768,4.689-3,7.052c-.235,2.406,2.037,5.166,1.574,7.5-.47,2.367-3.627,4.049-4.32,6.329-.7,2.305.985,5.459.069,7.662-.924,2.222-4.35,3.251-5.48,5.357s-.1,5.54-1.432,7.528-4.9,2.336-6.418,4.186-1.171,5.412-2.866,7.107-5.254,1.342-7.107,2.865-2.192,5.081-4.186,6.418-5.41.3-7.528,1.432-3.134,4.557-5.356,5.48c-2.2.916-5.357-.77-7.662-.069-2.28.692-3.961,3.85-6.328,4.32-2.333.463-5.093-1.809-7.5-1.574-2.363.231-4.629,3-7.052,3" transform="translate(0.35 0.35)" fill="#d35560"/>
          <path id="Trazado_1004717" data-name="Trazado 1004717" d="M14,81.535a67.535,67.535,0,1,1,67.535,67.535A67.535,67.535,0,0,1,14,81.535" transform="translate(-6.594 -6.594)" fill="#4d787e"/>
          <path id="Trazado_1004718" data-name="Trazado 1004718" d="M132.334,270.213c-.179-.759-.348-1.543-.509-2.312l-2.36-.3q1.057-.562,2.072-1.13-.225-1.156-.423-2.309c.54.53,1.093,1.077,1.663,1.6q.994-.618,1.945-1.239-.422,1.09-.87,2.178c.589.505,1.191,1.019,1.808,1.521l-2.372-.177q-.464,1.087-.955,2.171" transform="translate(-63.866 -130.676)" fill="#ffffc5"/>
          <path id="Trazado_1004719" data-name="Trazado 1004719" d="M113.789,266.762c-.064-.775-.113-1.577-.157-2.361l-2.288-.652q1.129-.4,2.219-.806-.049-1.177-.072-2.347c.455.6.919,1.229,1.4,1.829q1.075-.461,2.108-.932-.58,1.014-1.185,2.022c.507.586,1.024,1.192,1.561,1.772-.776-.161-1.546-.353-2.319-.528q-.621,1-1.269,2" transform="translate(-54.878 -128.909)" fill="#ffffc5"/>
          <path id="Trazado_1004720" data-name="Trazado 1004720" d="M96.012,260.643c.058-.789.127-1.579.2-2.363l-2.166-.983c.783-.146,1.556-.305,2.315-.467q.129-1.169.28-2.329c.358.667.728,1.343,1.113,2.021q1.132-.3,2.225-.608-.726.916-1.477,1.822c.413.657.836,1.325,1.277,1.987l-2.214-.87q-.766.9-1.556,1.79" transform="translate(-46.299 -125.885)" fill="#ffffc5"/>
          <path id="Trazado_1004721" data-name="Trazado 1004721" d="M79.414,251.99q.265-1.159.551-2.3c-.663-.434-1.344-.843-1.993-1.3.783-.008,1.584-.069,2.356-.112q.3-1.136.623-2.258.384,1.067.8,2.159c.766-.066,1.54-.171,2.29-.266q-.856.8-1.734,1.584.466,1.066.968,2.153l-2.062-1.187c-.594.517-1.2,1.036-1.8,1.531" transform="translate(-38.325 -121.677)" fill="#ffffc5"/>
          <path id="Trazado_1004722" data-name="Trazado 1004722" d="M64.353,241.022q.432-1.105.885-2.194c-.593-.526-1.215-1.021-1.777-1.582.769.115,1.567.177,2.343.242q.464-1.078.948-2.139.225,1.109.481,2.247c.755.064,1.543.065,2.3.082q-.965.664-1.952,1.311.3,1.12.643,2.265l-1.87-1.471c-.669.429-1.327.83-2,1.238" transform="translate(-31.127 -116.386)" fill="#ffffc5"/>
          <path id="Trazado_1004723" data-name="Trazado 1004723" d="M51.149,227.995q.589-1.028,1.2-2.037l-.779-.9c-.258-.3-.494-.62-.741-.929l1.128.317,1.149.273q.617-1,1.25-1.973.063,1.127.152,2.286l1.121.234,1.138.191q-1.055.516-2.127,1.012.14,1.148.309,2.327c-.545-.576-1.1-1.142-1.635-1.727q-1.07.473-2.159.926" transform="translate(-24.859 -110.134)" fill="#ffffc5"/>
          <path id="Trazado_1004724" data-name="Trazado 1004724" d="M39.841,213.191q.733-.928,1.481-1.835c-.212-.336-.434-.664-.637-1l-.594-1.031c.724.322,1.417.646,2.16.923.507-.6,1.006-1.179,1.532-1.767-.079.754-.131,1.508-.186,2.282.723.269,1.425.535,2.166.758-.746.236-1.5.467-2.255.686-.022.772-.029,1.551-.032,2.344-.451-.652-.939-1.279-1.359-1.952q-1.13.31-2.275.6" transform="translate(-19.411 -103.056)" fill="#ffffc5"/>
          <path id="Trazado_1004725" data-name="Trazado 1004725" d="M30.615,196.931q.862-.808,1.735-1.593c-.343-.716-.614-1.462-.909-2.2.671.425,1.309.848,1.992,1.237.582-.511,1.181-1.02,1.787-1.522-.212.742-.356,1.472-.529,2.229.683.37,1.327.742,2.024,1.074-.778.124-1.554.238-2.322.338-.159.771-.262,1.529-.386,2.314-.358-.707-.739-1.4-1.051-2.133q-1.165.138-2.342.253" transform="translate(-14.835 -95.309)" fill="#ffffc5"/>
          <path id="Trazado_1004726" data-name="Trazado 1004726" d="M24.019,179.289q.973-.669,1.952-1.313c-.235-.758-.377-1.54-.566-2.31.6.522,1.176,1.033,1.781,1.524.651-.417,1.333-.834,2-1.237-.326.7-.579,1.4-.86,2.124.617.469,1.213.929,1.836,1.366-.791.008-1.557,0-2.34-.016-.284.741-.492,1.474-.731,2.231-.259-.75-.515-1.5-.717-2.268q-1.174-.038-2.355-.1" transform="translate(-11.564 -86.782)" fill="#ffffc5"/>
          <path id="Trazado_1004727" data-name="Trazado 1004727" d="M20.215,160.664q1.062-.516,2.127-1.005c-.119-.785-.143-1.579-.214-2.369.513.605,1.005,1.2,1.532,1.774.706-.315,1.441-.624,2.164-.924-.429.647-.781,1.3-1.168,1.972.539.556,1.062,1.1,1.608,1.627-.781-.112-1.537-.237-2.309-.368-.392.69-.711,1.384-1.058,2.1l-.21-1.171c-.066-.391-.1-.786-.158-1.179q-1.155-.214-2.313-.453" transform="translate(-9.677 -77.667)" fill="#ffffc5"/>
          <path id="Trazado_1004728" data-name="Trazado 1004728" d="M19.269,141.764q1.128-.352,2.255-.679c0-.793.074-1.584.135-2.374.421.674.8,1.333,1.259,1.981.751-.207,1.5-.406,2.266-.595-.5.578-.959,1.172-1.441,1.779.453.63.873,1.246,1.353,1.848q-1.134-.34-2.237-.706c-.483.624-.9,1.263-1.353,1.915-.018-.792-.055-1.585-.018-2.378q-1.109-.382-2.218-.79" transform="translate(-9.207 -68.451)" fill="#ffffc5"/>
          <path id="Trazado_1004729" data-name="Trazado 1004729" d="M21.174,123q1.169-.181,2.333-.336c.074-.39.132-.783.218-1.169l.268-1.159c.312.729.595,1.437.951,2.146.778-.092,1.538-.178,2.325-.25-.574.5-1.122,1.015-1.688,1.543.353.69.672,1.36,1.067,2.028-.706-.335-1.426-.681-2.114-1.031-.553.548-1.077,1.115-1.619,1.694.111-.785.174-1.577.333-2.355q-1.039-.543-2.074-1.112" transform="translate(-10.152 -59.337)" fill="#ffffc5"/>
          <path id="Trazado_1004730" data-name="Trazado 1004730" d="M25.928,104.79q1.182,0,2.357.018c.239-.757.539-1.491.832-2.228.2.769.37,1.51.616,2.264.779.025,1.552.056,2.341.1-.65.4-1.263.834-1.9,1.271.247.736.46,1.445.75,2.165-.649-.438-1.3-.887-1.934-1.337-.633.458-1.233.941-1.857,1.432.226-.761.412-1.533.684-2.279q-.946-.692-1.884-1.411" transform="translate(-12.51 -50.53)" fill="#ffffc5"/>
          <path id="Trazado_1004731" data-name="Trazado 1004731" d="M33.429,87.557q1.169.173,2.325.37c.346-.714.77-1.386,1.158-2.077.083.789.155,1.557.267,2.329.761.139,1.54.3,2.306.457-.718.293-1.376.634-2.077.969.134.765.248,1.5.414,2.252-.582-.533-1.146-1.067-1.705-1.608-.709.35-1.361.744-2.054,1.134.327-.722.644-1.45,1.02-2.149q-.833-.827-1.654-1.678" transform="translate(-16.231 -42.232)" fill="#ffffc5"/>
          <path id="Trazado_1004732" data-name="Trazado 1004732" d="M43.489,71.68q1.128.345,2.241.71c.461-.645.972-1.253,1.456-1.881q-.054,1.188-.083,2.343,1.117.389,2.219.8c-.749.187-1.473.41-2.2.647q.023,1.16.07,2.287-.728-.91-1.438-1.839c-.753.241-1.471.524-2.2.813l.643-1,.688-.97q-.7-.943-1.388-1.908" transform="translate(-21.221 -34.623)" fill="#ffffc5"/>
          <path id="Trazado_1004733" data-name="Trazado 1004733" d="M55.356,57.5q1.064.506,2.109,1.031l1.72-1.643q-.226,1.17-.421,2.312,1.046.548,2.073,1.115c-.759.084-1.53.176-2.278.31Q58.413,61.78,58.3,62.9q-.585-1.008-1.152-2.034l-1.161.215c-.384.079-.76.17-1.144.259.508-.61,1.064-1.175,1.611-1.75q-.556-1.038-1.094-2.095" transform="translate(-26.851 -27.867)" fill="#ffffc5"/>
          <path id="Trazado_1004734" data-name="Trazado 1004734" d="M69.217,45.319c.65.436,1.293.879,1.939,1.34l1.938-1.379q-.394,1.129-.753,2.233.952.7,1.883,1.406c-.754-.018-1.544-.058-2.3-.035q-.311,1.124-.59,2.223-.431-1.084-.841-2.184c-.774.032-1.582.045-2.354.123.592-.529,1.238-.991,1.854-1.49q-.4-1.111-.775-2.237" transform="translate(-33.447 -22.109)" fill="#ffffc5"/>
          <path id="Trazado_1004735" data-name="Trazado 1004735" d="M84.831,34.886c.578.528,1.158,1.078,1.724,1.623l2.117-1.086q-.555,1.061-1.073,2.1.838.828,1.652,1.667c-.745-.133-1.508-.269-2.274-.382q-.473,1.07-.908,2.119-.266-1.138-.51-2.288c-.77-.084-1.562-.176-2.349-.232.677-.412,1.372-.8,2.057-1.2q-.23-1.158-.436-2.33" transform="translate(-40.923 -16.954)" fill="#ffffc5"/>
          <path id="Trazado_1004736" data-name="Trazado 1004736" d="M101.868,26.946q.744.928,1.463,1.866c.752-.251,1.5-.517,2.255-.756-.476.632-.93,1.284-1.376,1.919q.7.943,1.382,1.893-1.075-.365-2.191-.718c-.421.651-.822,1.313-1.214,1.961q-.094-1.166-.163-2.342-1.124-.3-2.289-.582l2.213-.874c-.035-.785-.066-1.583-.081-2.367" transform="translate(-49.12 -13.015)" fill="#ffffc5"/>
          <path id="Trazado_1004737" data-name="Trazado 1004737" d="M119.95,21.733q.6,1.029,1.166,2.064c.781-.136,1.56-.289,2.344-.41-.566.55-1.113,1.13-1.649,1.69q.554,1.037,1.082,2.079-1.008-.522-2.058-1.037c-.516.571-1.01,1.175-1.494,1.755q.082-1.167.19-2.341-1.066-.463-2.174-.916l2.318-.536c.083-.782.173-1.578.276-2.349" transform="translate(-57.86 -10.43)" fill="#ffffc5"/>
          <path id="Trazado_1004738" data-name="Trazado 1004738" d="M138.658,19.35q.436,1.108.845,2.216l2.378-.059q-.962.715-1.882,1.43.394,1.11.761,2.219-.92-.668-1.882-1.336c-.595.5-1.175,1.012-1.741,1.515q.256-1.142.539-2.285-.986-.619-2.013-1.234l2.372-.18c.2-.761.407-1.532.623-2.286" transform="translate(-66.94 -9.248)" fill="#ffffc5"/>
          <path id="Trazado_1004739" data-name="Trazado 1004739" d="M157.568,19.831c.179.759.348,1.543.509,2.312l2.36.3q-1.057.562-2.072,1.13.224,1.156.423,2.309c-.54-.53-1.093-1.077-1.662-1.6q-.994.618-1.945,1.239.422-1.09.87-2.178c-.589-.505-1.191-1.02-1.808-1.521l2.372.177q.464-1.087.955-2.171" transform="translate(-76.155 -9.486)" fill="#ffffc5"/>
          <path id="Trazado_1004740" data-name="Trazado 1004740" d="M176.272,23.17c.064.775.113,1.577.157,2.361l2.288.652q-1.129.4-2.219.806.049,1.177.072,2.347c-.455-.6-.918-1.229-1.4-1.829q-1.075.461-2.108.932.58-1.014,1.185-2.022c-.506-.586-1.024-1.192-1.561-1.771.776.161,1.546.352,2.319.527q.622-1,1.269-2" transform="translate(-85.303 -11.142)" fill="#ffffc5"/>
          <path id="Trazado_1004741" data-name="Trazado 1004741" d="M194.147,29.313c-.058.789-.126,1.578-.2,2.363l2.166.983c-.783.147-1.556.306-2.315.467q-.128,1.169-.28,2.329c-.358-.667-.728-1.343-1.113-2.021q-1.132.3-2.225.608.726-.916,1.476-1.822c-.412-.657-.836-1.325-1.277-1.987l2.214.87q.766-.9,1.556-1.79" transform="translate(-93.98 -14.189)" fill="#ffffc5"/>
          <path id="Trazado_1004742" data-name="Trazado 1004742" d="M210.61,38.133q-.265,1.159-.551,2.3c.663.434,1.344.843,1.993,1.3-.783.008-1.584.069-2.356.112q-.3,1.136-.623,2.258-.384-1.067-.8-2.159c-.766.066-1.54.171-2.29.266q.856-.8,1.734-1.584-.466-1.066-.968-2.153l2.062,1.187c.594-.517,1.2-1.036,1.8-1.531" transform="translate(-101.818 -18.564)" fill="#ffffc5"/>
          <path id="Trazado_1004743" data-name="Trazado 1004743" d="M225.67,49.168q-.432,1.105-.884,2.194c.593.526,1.215,1.021,1.777,1.582-.769-.115-1.567-.177-2.343-.242q-.464,1.078-.948,2.139-.225-1.109-.481-2.246c-.755-.064-1.543-.065-2.3-.082q.966-.664,1.952-1.311-.3-1.12-.643-2.264l1.87,1.47c.669-.429,1.326-.83,2-1.238" transform="translate(-109.015 -23.922)" fill="#ffffc5"/>
          <path id="Trazado_1004744" data-name="Trazado 1004744" d="M239.007,62.051q-.589,1.028-1.2,2.037l.779.9c.258.3.493.62.742.929L238.2,65.6l-1.149-.273q-.617,1-1.25,1.973-.063-1.127-.152-2.286l-1.121-.234-1.137-.191q1.055-.516,2.127-1.012-.14-1.148-.309-2.327c.545.576,1.1,1.142,1.635,1.727q1.071-.473,2.159-.926" transform="translate(-115.416 -30.03)" fill="#ffffc5"/>
          <path id="Trazado_1004745" data-name="Trazado 1004745" d="M250.33,76.837q-.733.928-1.481,1.835c.211.335.434.664.636,1l.594,1.031c-.724-.322-1.417-.646-2.16-.923-.507.6-1.006,1.179-1.532,1.767.079-.754.131-1.508.186-2.282-.723-.269-1.425-.535-2.166-.757.746-.236,1.5-.467,2.255-.686.022-.772.03-1.55.032-2.343.451.652.939,1.279,1.359,1.952q1.13-.31,2.275-.6" transform="translate(-120.879 -37.09)" fill="#ffffc5"/>
          <path id="Trazado_1004746" data-name="Trazado 1004746" d="M259.38,93.209q-.862.808-1.735,1.593c.343.716.614,1.462.909,2.2-.671-.425-1.309-.848-1.992-1.237-.582.511-1.181,1.02-1.787,1.522.212-.742.356-1.472.529-2.229-.683-.37-1.327-.742-2.024-1.074.778-.124,1.554-.238,2.322-.338.159-.771.262-1.529.385-2.314.358.708.739,1.4,1.051,2.134q1.165-.138,2.342-.253" transform="translate(-125.279 -44.949)" fill="#ffffc5"/>
          <path id="Trazado_1004747" data-name="Trazado 1004747" d="M265.935,110.814q-.973.67-1.952,1.313c.235.758.377,1.54.566,2.31-.6-.521-1.176-1.033-1.781-1.524-.651.417-1.333.834-2,1.237.327-.7.579-1.4.86-2.124-.617-.469-1.213-.929-1.836-1.366.791-.007,1.557,0,2.34.016.284-.741.492-1.474.731-2.231.259.75.515,1.5.717,2.268q1.174.038,2.355.1" transform="translate(-128.509 -53.44)" fill="#ffffc5"/>
          <path id="Trazado_1004748" data-name="Trazado 1004748" d="M269.832,129.258q-1.062.516-2.127,1.005c.119.785.143,1.579.214,2.369-.513-.605-1.005-1.2-1.532-1.774-.706.315-1.441.624-2.164.924.429-.647.781-1.3,1.168-1.972-.539-.556-1.062-1.1-1.608-1.627.781.112,1.537.237,2.309.367.392-.69.711-1.383,1.058-2.1l.21,1.171c.066.391.1.786.158,1.179q1.155.214,2.313.453" transform="translate(-130.489 -62.373)" fill="#ffffc5"/>
          <path id="Trazado_1004749" data-name="Trazado 1004749" d="M270.909,148.113q-1.128.352-2.255.679c0,.793-.074,1.584-.135,2.374-.421-.674-.8-1.333-1.259-1.981-.751.207-1.5.406-2.266.595.5-.578.959-1.172,1.441-1.779-.453-.63-.873-1.246-1.353-1.848q1.134.34,2.237.706c.483-.624.9-1.263,1.353-1.915.018.793.055,1.585.018,2.378q1.109.383,2.218.79" transform="translate(-131.09 -71.544)" fill="#ffffc5"/>
          <path id="Trazado_1004750" data-name="Trazado 1004750" d="M268.826,166.968q-1.17.181-2.334.336c-.074.39-.132.783-.218,1.169l-.268,1.159c-.312-.729-.595-1.437-.951-2.146-.778.092-1.538.178-2.326.25.574-.5,1.122-1.015,1.689-1.543-.353-.69-.672-1.36-1.067-2.028.706.335,1.426.681,2.114,1.031.553-.548,1.077-1.115,1.619-1.694-.111.785-.174,1.577-.333,2.355q1.039.542,2.074,1.111" transform="translate(-129.966 -80.748)" fill="#ffffc5"/>
          <path id="Trazado_1004751" data-name="Trazado 1004751" d="M264.024,185.4q-1.182,0-2.357-.018c-.24.757-.539,1.491-.832,2.228-.2-.769-.37-1.51-.616-2.264-.779-.025-1.552-.056-2.341-.1.65-.4,1.263-.834,1.9-1.271-.247-.735-.46-1.445-.75-2.165.649.437,1.3.886,1.934,1.337.633-.458,1.233-.941,1.857-1.431-.226.76-.412,1.532-.684,2.278q.946.692,1.884,1.411" transform="translate(-127.56 -89.783)" fill="#ffffc5"/>
          <path id="Trazado_1004752" data-name="Trazado 1004752" d="M256.61,202.53q-1.169-.173-2.325-.37c-.346.714-.77,1.386-1.158,2.077-.083-.789-.155-1.557-.267-2.329-.761-.139-1.54-.3-2.306-.457.718-.293,1.376-.635,2.077-.969-.134-.765-.248-1.5-.414-2.252.583.533,1.146,1.067,1.705,1.608.71-.35,1.361-.744,2.054-1.135-.327.722-.644,1.45-1.02,2.149q.832.827,1.654,1.678" transform="translate(-123.928 -97.974)" fill="#ffffc5"/>
          <path id="Trazado_1004753" data-name="Trazado 1004753" d="M246.77,218.341q-1.128-.344-2.241-.71c-.461.645-.972,1.253-1.456,1.881q.054-1.188.083-2.343-1.117-.389-2.219-.8c.749-.187,1.473-.41,2.2-.647q-.023-1.16-.07-2.287.728.91,1.438,1.839c.753-.241,1.471-.524,2.2-.813l-.643,1-.688.97q.7.943,1.388,1.908" transform="translate(-119.158 -105.517)" fill="#ffffc5"/>
          <path id="Trazado_1004754" data-name="Trazado 1004754" d="M234.741,232.58q-1.064-.506-2.109-1.031l-1.72,1.643q.226-1.17.421-2.312-1.046-.548-2.073-1.115c.759-.084,1.53-.176,2.278-.31q.146-1.154.263-2.279.585,1.007,1.152,2.034l1.161-.215c.384-.079.76-.17,1.144-.259-.508.61-1.064,1.175-1.611,1.75q.556,1.038,1.094,2.095" transform="translate(-113.365 -112.331)" fill="#ffffc5"/>
          <path id="Trazado_1004755" data-name="Trazado 1004755" d="M220.791,244.946c-.65-.436-1.293-.879-1.939-1.34l-1.938,1.379q.393-1.129.753-2.233-.952-.7-1.883-1.406c.754.018,1.544.058,2.3.035q.311-1.125.59-2.223.431,1.084.842,2.184c.774-.032,1.581-.045,2.353-.124-.591.529-1.238.991-1.854,1.49q.4,1.111.775,2.237" transform="translate(-106.68 -118.275)" fill="#ffffc5"/>
          <path id="Trazado_1004756" data-name="Trazado 1004756" d="M205.223,255.164c-.578-.528-1.158-1.078-1.724-1.622l-2.117,1.086q.555-1.061,1.072-2.1-.838-.829-1.652-1.668c.745.133,1.508.269,2.274.382q.472-1.069.908-2.119.266,1.139.51,2.289c.77.083,1.562.175,2.349.231-.677.413-1.371.8-2.057,1.2q.23,1.157.436,2.329" transform="translate(-99.25 -123.215)" fill="#ffffc5"/>
          <path id="Trazado_1004757" data-name="Trazado 1004757" d="M188.367,262.987q-.744-.928-1.463-1.866c-.752.251-1.5.517-2.255.756.476-.632.931-1.284,1.376-1.919q-.7-.943-1.382-1.894,1.075.365,2.191.718c.421-.651.822-1.313,1.214-1.961q.094,1.166.163,2.342,1.124.3,2.289.582l-2.213.874c.035.785.066,1.583.081,2.367" transform="translate(-91.235 -127.036)" fill="#ffffc5"/>
          <path id="Trazado_1004758" data-name="Trazado 1004758" d="M170.042,268.223q-.6-1.029-1.166-2.064c-.781.136-1.56.289-2.344.41.566-.55,1.113-1.13,1.649-1.69q-.554-1.037-1.082-2.079,1.008.522,2.058,1.037c.516-.571,1.01-1.175,1.495-1.755q-.082,1.167-.191,2.341,1.066.463,2.174.916l-2.318.536c-.083.782-.172,1.578-.276,2.349" transform="translate(-82.252 -129.645)" fill="#ffffc5"/>
          <path id="Trazado_1004759" data-name="Trazado 1004759" d="M151.223,270.76q-.435-1.108-.845-2.216L148,268.6q.962-.715,1.882-1.431-.394-1.109-.761-2.219.92.668,1.882,1.336c.595-.5,1.175-1.012,1.741-1.515q-.256,1.142-.539,2.285.986.618,2.013,1.233l-2.372.181c-.2.76-.407,1.532-.623,2.285" transform="translate(-73.059 -130.981)" fill="#ffffc5"/>
          <path id="Trazado_1004760" data-name="Trazado 1004760" d="M92.062,148.9A56.837,56.837,0,1,1,148.9,92.062,56.9,56.9,0,0,1,92.062,148.9" transform="translate(-17.122 -17.122)" fill="#d35560"/>
        </g>
      </g>
      <g id="Grupo_1180053" data-name="Grupo 1180053" transform="translate(39.422 38.995)">
        <rect id="Rectángulo_401104" data-name="Rectángulo 401104" width="71.038" height="71.894" transform="translate(0)" fill="#d35560"/>
      </g>
    </g>
    <g id="Grupo_1187681" data-name="Grupo 1187681" transform="translate(450.862 9474.503)">
      <g id="Grupo_1187680" data-name="Grupo 1187680" clip-path="url(#clip-path-2)">
        <path id="Trazado_1032582" data-name="Trazado 1032582" d="M54.919,340.224l-50.662.007a.2.2,0,0,1-.122-.191l50.662-.007a.2.2,0,0,1,.122.191" transform="translate(-3.326 -273.67)" fill="#eee"/>
        <path id="Trazado_1032583" data-name="Trazado 1032583" d="M.051,64.705l1.363-4.374c.313-1.005,1.347-.706,2.484-.856l1.344-3.332a1.4,1.4,0,0,1,1.8-.885L8.2,27c-.691.057-1.671.245-1.963-.386l-1.848-4-1.8-.009a1.259,1.259,0,0,1-1.176-.746l-1.272-2.8a1.238,1.238,0,0,1,.69-1.735L33.445.277A1.548,1.548,0,0,1,35.177.254L67.8,17.311c.672.351,1.076.859.742,1.609L67.28,21.75a1.462,1.462,0,0,1-1.464.865l-1.572.031L62.51,26.562a2.036,2.036,0,0,1-2.044.409l.688,17.515a13.1,13.1,0,1,1-9.6,21.584l-50.3,0c-.748,0-1.452-.567-1.2-1.367" transform="translate(0 0)" fill="#040504"/>
        <path id="Trazado_1032584" data-name="Trazado 1032584" d="M200.441,166.653l-7.457.017,1.135-28.164,5.185.04Z" transform="translate(-155.32 -111.475)" fill="#798a97"/>
        <path id="Trazado_1032585" data-name="Trazado 1032585" d="M55.629,166.667l-7.459.022,1.144-28.153,5.181.048Z" transform="translate(-38.769 -111.499)" fill="#798a97"/>
        <path id="Trazado_1032586" data-name="Trazado 1032586" d="M126.755,138.911c.212.068.175.305.188.623l1.072,27.1q-3.357.187-6.853.089,3.479-.073,6.853.136a.969.969,0,0,1-.657.189l-6.782-.08,1.109-27.631c-.083-.237.023-.44.171-.44a43.171,43.171,0,0,0,4.8.117q.151,1.288-.166.013Z" transform="translate(-97.044 -111.79)" fill="#798a97"/>
        <path id="Trazado_1032587" data-name="Trazado 1032587" d="M267.551,159.48q-.407-.236-.452-1.149l.82-19.8,5.155-.012.718,17.7a13.5,13.5,0,0,0-6.242,3.256" transform="translate(-214.971 -111.486)" fill="#798a97"/>
        <path id="Trazado_1032588" data-name="Trazado 1032588" d="M168.065,166.466a3.841,3.841,0,0,1-1.972.075l-1.153-28.127a27.773,27.773,0,0,0,4.273-.012Z" transform="translate(-132.749 -111.391)" fill="#f4f4f4"/>
        <path id="Trazado_1032589" data-name="Trazado 1032589" d="M95.715,166.747a6.115,6.115,0,0,1-1.986.061L92.6,138.7l4.251-.005Z" transform="translate(-74.527 -111.63)" fill="#f4f4f4"/>
        <path id="Trazado_1032590" data-name="Trazado 1032590" d="M240.59,163.618c-.046,1.088-.916,1.894-.8,2.941a1.358,1.358,0,0,1-1.264-.006l-1.126-28.03a41.4,41.4,0,0,0,4.253-.01Z" transform="translate(-191.069 -111.48)" fill="#f4f4f4"/>
        <path id="Trazado_1032591" data-name="Trazado 1032591" d="M90.781,118.293q-26.251.038-52.6-.028l-.375-.132a3.21,3.21,0,0,1-.542-1.25l.051-.18q26.877-.083,53.816.009c-.215-.344.173-.406.317-.1a5.532,5.532,0,0,1-.671,1.682" transform="translate(-29.995 -93.695)" fill="#657985"/>
        <path id="Trazado_1032592" data-name="Trazado 1032592" d="M93.014,125.251l-1.266.194-50.775-.012a1.06,1.06,0,0,1-.93-.342l52.681-.031a.285.285,0,0,1,.29.191" transform="translate(-32.228 -100.653)" fill="#6a7f8d"/>
        <path id="Trazado_1032593" data-name="Trazado 1032593" d="M90.591,116.308c-.082-.107-.355-.138-.317.1q-26.907-.094-53.833,0l-.242-.171a.224.224,0,0,1,.256-.2H90.8c.076.191-.113.268-.21.27" transform="translate(-29.133 -93.391)" fill="#6d8391"/>
        <path id="Trazado_1032594" data-name="Trazado 1032594" d="M90.275,117.215l-53.04.026-.827.146c-.053-.092-.208-.2-.209-.347Z" transform="translate(-29.134 -94.197)" fill="#627683"/>
        <path id="Trazado_1032595" data-name="Trazado 1032595" d="M132.006,138.911l-.081,2.183a6.755,6.755,0,0,1-.115-1.975l-4.327,0c-.174.066-.191.553-.23.785-.23-.308-.125-.691-.145-1.009Z" transform="translate(-102.295 -111.79)" fill="#798a97"/>
        <path id="Trazado_1032596" data-name="Trazado 1032596" d="M130.113,281.019c.135.063.121.185,0,.225l-6.93-.052a.191.191,0,0,1,.109-.168Z" transform="translate(-99.142 -226.174)" fill="#7c8f9c"/>
        <path id="Trazado_1032597" data-name="Trazado 1032597" d="M38.293,268.337l-.048-3.227a.173.173,0,0,1,.147-.1l.048,3.227a.173.173,0,0,1-.147.1" transform="translate(-30.781 -213.287)" fill="#080808"/>
        <path id="Trazado_1032598" data-name="Trazado 1032598" d="M91.293,166.337l-.048-3.227a.173.173,0,0,1,.147-.1l.048,3.227a.173.173,0,0,1-.147.1" transform="translate(-73.437 -131.194)" fill="#080908"/>
        <path id="Trazado_1032599" data-name="Trazado 1032599" d="M260.3,149.143l-.049-3.031a.173.173,0,0,1,.145-.1l.049,3.031a.172.172,0,0,1-.145.1" transform="translate(-209.456 -117.512)" fill="#080908"/>
        <path id="Trazado_1032600" data-name="Trazado 1032600" d="M235.3,148.143l-.049-3.031a.173.173,0,0,1,.145-.1l.049,3.031a.172.172,0,0,1-.145.1" transform="translate(-189.335 -116.708)" fill="#080908"/>
        <path id="Trazado_1032601" data-name="Trazado 1032601" d="M41.3,194.143l-.049-3.031a.173.173,0,0,1,.145-.1l.049,3.031a.172.172,0,0,1-.145.1" transform="translate(-33.197 -153.73)" fill="#080908"/>
        <path id="Trazado_1032602" data-name="Trazado 1032602" d="M238.3,222.143l-.049-3.031a.173.173,0,0,1,.145-.1l.049,3.031a.173.173,0,0,1-.145.1" transform="translate(-191.75 -176.265)" fill="#080909"/>
        <path id="Trazado_1032603" data-name="Trazado 1032603" d="M257.3,223.143l-.049-3.031a.173.173,0,0,1,.145-.1l.049,3.031a.173.173,0,0,1-.145.1" transform="translate(-207.041 -177.07)" fill="#080908"/>
        <path id="Trazado_1032604" data-name="Trazado 1032604" d="M94.3,241.143l-.049-3.031a.173.173,0,0,1,.145-.1l.049,3.031a.172.172,0,0,1-.145.1" transform="translate(-75.853 -191.557)" fill="#080908"/>
        <path id="Trazado_1032605" data-name="Trazado 1032605" d="M163.3,157.143l-.049-3.031a.173.173,0,0,1,.145-.1l.049,3.031a.172.172,0,0,1-.145.1" transform="translate(-131.387 -123.951)" fill="#080908"/>
        <path id="Trazado_1032606" data-name="Trazado 1032606" d="M185.3,213.949l-.05-2.836a.172.172,0,0,1,.143-.1l.05,2.836a.172.172,0,0,1-.143.1" transform="translate(-149.095 -169.828)" fill="#080909"/>
        <path id="Trazado_1032607" data-name="Trazado 1032607" d="M113.3,203.949l-.05-2.836a.172.172,0,0,1,.143-.1l.05,2.836a.172.172,0,0,1-.143.1" transform="translate(-91.147 -161.78)" fill="#080909"/>
        <path id="Trazado_1032608" data-name="Trazado 1032608" d="M188.3,140.754l-.051-2.64a.172.172,0,0,1,.141-.1l.051,2.64a.171.171,0,0,1-.141.1" transform="translate(-151.512 -111.076)" fill="#080908"/>
        <path id="Trazado_1032609" data-name="Trazado 1032609" d="M307.307,140.56l-.052-2.444a.172.172,0,0,1,.139-.1l.053,2.445a.171.171,0,0,1-.139.1" transform="translate(-247.29 -111.078)" fill="#080908"/>
        <path id="Trazado_1032610" data-name="Trazado 1032610" d="M76.928,30.005q-.275.2-.014.2c-.082.11-.146.2-.446.2l-61.737,0a4.147,4.147,0,0,1-.482-1.347L45.8,12.547l31.49,16.492c.212.219-.218.926-.362.966" transform="translate(-11.468 -10.098)" fill="#798a97"/>
        <path id="Trazado_1032611" data-name="Trazado 1032611" d="M79.167,102l-.014.2L17.031,102.2c.005-.089.088-.187.143-.187Z" transform="translate(-13.707 -82.095)" fill="#7f92a1"/>
        <path id="Trazado_1032612" data-name="Trazado 1032612" d="M173.61,93.061a4.21,4.21,0,0,1-1.285.063.237.237,0,0,1-.1-.117c.532-.12,1.215-.158,1.387.054" transform="translate(-138.611 -74.777)" fill="#8093a1"/>
        <path id="Trazado_1032613" data-name="Trazado 1032613" d="M150.1,31.19a5.97,5.97,0,1,1-4.75,7.084,5.947,5.947,0,0,1,4.75-7.084" transform="translate(-116.881 -25.016)" fill="#040505"/>
        <path id="Trazado_1032614" data-name="Trazado 1032614" d="M157.73,47.555a5.3,5.3,0,0,0,.044-1.859,3.782,3.782,0,0,1,2.478-2.438q.639.163.289-.092a3.628,3.628,0,1,1-2.811,4.388" transform="translate(-126.947 -34.672)" fill="#eaf0f3"/>
        <path id="Trazado_1032615" data-name="Trazado 1032615" d="M157.258,58.348a3.246,3.246,0,0,1,.044-1.859,1.546,1.546,0,0,1-.044,1.859" transform="translate(-126.474 -45.464)" fill="#f4fbfd"/>
        <path id="Trazado_1032616" data-name="Trazado 1032616" d="M170.942,43.525a6.535,6.535,0,0,1,.822.188.929.929,0,0,1-1.111-.1Z" transform="translate(-137.348 -35.03)" fill="#f3f9fc"/>
        <path id="Trazado_1032617" data-name="Trazado 1032617" d="M75.146,296.382q-.218.205.015.2c.034.112-.063.22-.271.22l-41.75,0a7.038,7.038,0,0,1,.807-2.027l41.1.006Z" transform="translate(-26.672 -237.238)" fill="#657985"/>
        <path id="Trazado_1032618" data-name="Trazado 1032618" d="M63.615,318.5c-.028.174-.271.171-.383.025q-22.994-.079-46.017-.216a.684.684,0,0,1,.161-.562c-.4-.374.183-.516.157-.49-.187.189-.369.214-.374-.1-.019-.094.056-.211.261-.211H62.962Z" transform="translate(-13.808 -255.093)" fill="#798a97"/>
        <path id="Trazado_1032619" data-name="Trazado 1032619" d="M54.919,336.224l-50.662.007a.2.2,0,0,1-.122-.191l50.662-.007a.2.2,0,0,1,.122.191" transform="translate(-3.326 -270.451)" fill="#090909"/>
        <path id="Trazado_1032620" data-name="Trazado 1032620" d="M14.79,323.839q.14-.53.724-.1,22.806-.082,45.53.1l.383-.025c.032.075.013.224-.072.224l-46.917-.03q.21-.342.353-.17" transform="translate(-11.619 -260.402)" fill="#8699a7"/>
        <path id="Trazado_1032621" data-name="Trazado 1032621" d="M61.211,328.222l-46.954.007a.2.2,0,0,1-.121-.19l46.953-.008a.2.2,0,0,1,.122.191" transform="translate(-11.376 -264.011)" fill="#060707"/>
        <path id="Trazado_1032622" data-name="Trazado 1032622" d="M17.033,318.624c-.06.17-.128.166-.2,0q-.2-.037,0-.39l-.015-.2,45.721.006c0,.087-.086.19-.141.19l-45.29,0c-.128,0-.125.425-.074.39" transform="translate(-13.465 -255.965)" fill="#7b8e9b"/>
        <path id="Trazado_1032623" data-name="Trazado 1032623" d="M77.537,303.044c0,.062-.021.128.015.2l-41.442-.007a.231.231,0,0,1,.128-.189Z" transform="translate(-29.063 -243.9)" fill="#687c89"/>
        <path id="Trazado_1032624" data-name="Trazado 1032624" d="M14.985,319.43q.549.839-.2.781l-.353.17c.317-.574.221-1.04.548-1.341Z" transform="translate(-11.619 -256.775)" fill="#798a97"/>
        <path id="Trazado_1032625" data-name="Trazado 1032625" d="M62.5,321.82H16.244a1.437,1.437,0,0,0,.2-.781l.2,0a.44.44,0,0,0,.209.586l45.4,0c.195,0,.246.127.243.2" transform="translate(-13.074 -258.383)" fill="#748692"/>
        <path id="Trazado_1032626" data-name="Trazado 1032626" d="M310.3,212.143l-.049-3.031a.173.173,0,0,1,.145-.1l.049,3.031a.172.172,0,0,1-.145.1" transform="translate(-249.698 -168.217)" fill="#080908"/>
        <path id="Trazado_1032627" data-name="Trazado 1032627" d="M267.219,241.176c-.066.06-.2.145-.225.256-.364.174-.369-.539-.2-.815l-.029-.591Z" transform="translate(-214.639 -193.182)" fill="#798b98"/>
        <path id="Trazado_1032628" data-name="Trazado 1032628" d="M266.555,243.868c-.116.357-.565.119-.361-.19-.124-.312,0-.578.163-.625.013.27-.064.612.2.815" transform="translate(-214.2 -195.618)" fill="#363d43"/>
        <path id="Trazado_1032629" data-name="Trazado 1032629" d="M269.094,240.036a10.767,10.767,0,1,1-8.837,12.509,10.749,10.749,0,0,1,8.837-12.509" transform="translate(-209.329 -193.068)" fill="#ec4e48"/>
        <path id="Trazado_1032630" data-name="Trazado 1032630" d="M288.365,276.77a1.227,1.227,0,0,1-1.809.214,1.186,1.186,0,0,1-.008-1.727l8.958-8.962a1.172,1.172,0,0,1,1.731.014,1.21,1.21,0,0,1-.163,1.749Z" transform="translate(-230.327 -214.021)" fill="#040505"/>
        <path id="Trazado_1032631" data-name="Trazado 1032631" d="M319.3,296.867a3.518,3.518,0,0,1,4.513,2.24,3.559,3.559,0,0,1-6.694,2.415,3.533,3.533,0,0,1,2.181-4.655" transform="translate(-255.029 -238.766)" fill="#040505"/>
        <path id="Trazado_1032632" data-name="Trazado 1032632" d="M329.63,308.851a1.2,1.2,0,0,1,1.589.536,1.251,1.251,0,0,1-.491,1.624,1.228,1.228,0,0,1-1.639-.472,1.192,1.192,0,0,1,.542-1.688" transform="translate(-264.734 -248.483)" fill="#ec4c47"/>
        <path id="Trazado_1032633" data-name="Trazado 1032633" d="M279.93,257.055a3.557,3.557,0,1,1-2.6,4.4,3.548,3.548,0,0,1,2.6-4.4" transform="translate(-223.096 -206.804)" fill="#040505"/>
        <path id="Trazado_1032634" data-name="Trazado 1032634" d="M290.007,269.114a1.179,1.179,0,0,1,1.553.647,1.211,1.211,0,1,1-1.553-.647" transform="translate(-232.79 -216.521)" fill="#ec4c46"/>
        <path id="Trazado_1032635" data-name="Trazado 1032635" d="M326.512,152.581l-2.757.025a2.107,2.107,0,0,1-2.188-2.281l-.006-6.5a2.334,2.334,0,0,1-2.273-.481,1.665,1.665,0,0,1-.263-2.054l4.566-5.957a1.743,1.743,0,0,1,2.737-.086l4.588,5.941a1.682,1.682,0,0,1-.1,2.043,2.273,2.273,0,0,1-2.357.589l-.042,6.695a1.932,1.932,0,0,1-1.905,2.063" transform="translate(-256.558 -108.353)" fill="#040505"/>
        <path id="Trazado_1032636" data-name="Trazado 1032636" d="M338.573,161.556l-2.139.023,0-7.768c-.226-.882-1.007-1.1-2.122-.978l3.192-4.185,3.26,4.2c-.886-.143-2.124.007-2.131.957Z" transform="translate(-269.064 -119.637)" fill="#ffce0f"/>
        <path id="Trazado_1032637" data-name="Trazado 1032637" d="M347.967,213.16l-1.68.074-.112-.138,1.479-.076c.157-.008.24.015.312.14" transform="translate(-278.615 -171.445)" fill="#ffdb0d"/>
      </g>
    </g>
  </g>
</svg>
