<svg xmlns="http://www.w3.org/2000/svg" xmlns:xlink="http://www.w3.org/1999/xlink" width="98" height="98" viewBox="0 0 98 98">
  <defs>
    <clipPath id="clip-path">
      <rect id="Rectángulo_456277" data-name="Rectángulo 456277" width="98" height="98" transform="translate(0.31 0.309)" fill="#d35560"/>
    </clipPath>
    <clipPath id="clip-path-2">
      <rect id="Rectángulo_459924" data-name="Rectángulo 459924" width="45.976" height="52.944" fill="#fff"/>
    </clipPath>
  </defs>
  <g id="Grupo_1186021" data-name="Grupo 1186021" transform="translate(13435.691 12680.69)">
    <g id="Grupo_1179924" data-name="Grupo 1179924" transform="translate(-13436.001 -12681)">
      <g id="Grupo_1179923" data-name="Grupo 1179923" transform="translate(0 0)" clip-path="url(#clip-path)">
        <path id="Trazado_1004716" data-name="Trazado 1004716" d="M48.95,97.9c-1.59,0-3.077-1.816-4.627-1.968-1.579-.154-3.391,1.337-4.922,1.033-1.554-.309-2.657-2.381-4.153-2.835-1.513-.46-3.582.647-5.028.045s-2.134-2.855-3.515-3.6-3.636-.066-4.94-.94-1.533-3.214-2.747-4.212-3.552-.768-4.664-1.88-.88-3.448-1.88-4.664-3.335-1.438-4.212-2.747-.194-3.55-.94-4.94-2.99-2.057-3.6-3.515.505-3.515.046-5.028c-.455-1.5-2.527-2.6-2.835-4.153-.3-1.531,1.187-3.343,1.033-4.921C1.816,52.028,0,50.54,0,48.95s1.816-3.077,1.968-4.627C2.122,42.744.631,40.932.935,39.4c.308-1.554,2.38-2.657,2.835-4.153.46-1.513-.646-3.583-.045-5.029s2.855-2.133,3.6-3.515.066-3.636.94-4.94,3.214-1.533,4.212-2.747.768-3.552,1.881-4.664,3.448-.88,4.664-1.88,1.438-3.335,2.747-4.212,3.55-.194,4.94-.94,2.057-2.99,3.515-3.6,3.515.505,5.029.045c1.5-.454,2.6-2.527,4.153-2.835,1.531-.3,3.343,1.187,4.921,1.033C45.873,1.816,47.36,0,48.95,0s3.077,1.816,4.627,1.968C55.157,2.122,56.969.631,58.5.935c1.554.309,2.657,2.381,4.154,2.835,1.513.46,3.582-.647,5.028-.045s2.134,2.855,3.515,3.6,3.636.066,4.94.94,1.533,3.214,2.747,4.212,3.552.768,4.664,1.881.88,3.448,1.88,4.664,3.335,1.438,4.212,2.747.194,3.55.94,4.94,2.99,2.057,3.6,3.515-.505,3.515-.045,5.028c.455,1.5,2.527,2.6,2.835,4.153.3,1.531-1.187,3.343-1.033,4.922.152,1.551,1.968,3.038,1.968,4.627s-1.816,3.077-1.968,4.628c-.154,1.579,1.337,3.39,1.033,4.921-.308,1.554-2.38,2.657-2.835,4.154-.46,1.513.646,3.582.045,5.028s-2.855,2.134-3.6,3.515-.066,3.636-.94,4.94-3.214,1.533-4.212,2.747-.768,3.552-1.881,4.664-3.448.88-4.664,1.88-1.438,3.335-2.747,4.212-3.55.194-4.94.94-2.057,2.99-3.515,3.6-3.515-.505-5.028-.045c-1.5.454-2.6,2.527-4.153,2.835-1.531.3-3.343-1.187-4.921-1.033-1.551.151-3.038,1.968-4.628,1.968" transform="translate(0.359 0.359)" fill="#d35560"/>
        <path id="Trazado_1004717" data-name="Trazado 1004717" d="M14,58.32a44.32,44.32,0,1,1,44.32,44.32A44.32,44.32,0,0,1,14,58.32" transform="translate(-9.01 -9.011)" fill="#a2cbcf"/>
        <path id="Trazado_1021102" data-name="Trazado 1021102" d="M14,55.014A41.014,41.014,0,1,1,55.014,96.029,41.015,41.015,0,0,1,14,55.014" transform="translate(-5.706 -5.705)" fill="#952d36"/>
      </g>
    </g>
    <g id="Grupo_1180053" data-name="Grupo 1180053" transform="translate(-13413.503 -12658.826)">
      <rect id="Rectángulo_401104" data-name="Rectángulo 401104" width="53.625" height="54.271" transform="translate(0 0)" fill="none"/>
    </g>
    <g id="Grupo_1187685" data-name="Grupo 1187685" transform="translate(-13409.678 -12658.151)">
      <g id="Grupo_1187684" data-name="Grupo 1187684" clip-path="url(#clip-path-2)">
        <path id="Trazado_1032656" data-name="Trazado 1032656" d="M41.85,46.542a11.136,11.136,0,0,0,.045-17.269,2.049,2.049,0,0,1-.845-1.838Q41.1,14.8,41.1,2.166C41.1.367,40.727,0,38.942,0L2.365,0C.378,0,.009.368.008,2.351q0,12,0,24H0Q0,38.524,0,50.7c0,1.816.424,2.241,2.228,2.242q16.038,0,32.077,0c1.731,0,3.462-.01,5.192,0a1.392,1.392,0,0,0,1.591-1.536c.016-1.038.042-2.079-.021-3.113a1.842,1.842,0,0,1,.78-1.753m-5.1,4.76c-11.309,0-22.618-.012-33.927.025-.931,0-1.109-.266-1.108-1.139Q1.746,26.532,1.7,2.876c0-.971.173-1.276,1.23-1.272q17.655.067,35.311,0c.922,0,1.215.165,1.21,1.163-.035,8.077,0,16.155.01,24.233,0,.224-.027.447-.044.72a13.4,13.4,0,0,0-2.326-.728c-.559-.064-.47-.508-.47-.884,0-1.539-.015-3.078.026-4.615.025-.951-.373-1.264-1.312-1.262q-14.655.032-29.31,0c-1.365,0-1.489.1-1.49,1.51q0,7.616,0,15.232c0,1.379.087,1.48,1.525,1.487,5.5.026,11,.056,16.5.041.918,0,1.3.124,1.489,1.216a11.052,11.052,0,0,0,14.971,8.559,1.831,1.831,0,0,1,.332-.064.872.872,0,0,1,.08.223c.154,2.865.153,2.861-2.68,2.861M34.085,24.461q-10.328-.079-20.657,0c-1.153.009-.96-.63-.985-1.316-.027-.744-.068-1.276,1.026-1.25,3.422.082,6.847.03,10.27.03,3.462,0,6.925.04,10.386-.026.964-.018.968.445.892,1.106-.072.626.39,1.462-.931,1.452M12.461,26.887c-.012-.818.368-.829.976-.826,3.461.019,6.922.009,10.383.009,3.422,0,6.845-.009,10.267.013.312,0,.888-.294.9.339s-.573.355-.889.373a11,11,0,0,0-9.941,8.774c-.172.969-.44,1.387-1.56,1.349-3.073-.1-6.152-.055-9.228-.014-.712.009-.927-.191-.918-.9.04-3.037.055-6.076.01-9.113M6.153,31.43H6.16c0-1.534.029-3.069-.014-4.6-.017-.608.161-.794.767-.766,1.033.048,2.072.047,3.105,0,.581-.028.8.095.793.731-.029,3.106-.019,6.213.006,9.319,0,.573-.124.835-.76.806-1.033-.047-2.072-.051-3.105,0-.7.034-.825-.269-.811-.883.036-1.533.012-3.068.012-4.6M9.666,24.46A10.309,10.309,0,0,0,8.4,24.452a4.843,4.843,0,0,0-.8.007c-1.2.207-1.57-.279-1.489-1.474.054-.8.148-1.174,1.058-1.088a19.315,19.315,0,0,0,2.87.009c.613-.034.84.166.763.766a2.258,2.258,0,0,0,0,.688c.176.956-.278,1.208-1.14,1.1M35.023,47.383A9.482,9.482,0,0,1,34.9,28.42a9.483,9.483,0,0,1,.128,18.963" transform="translate(0 0)" fill="#fff"/>
        <path id="Trazado_1032657" data-name="Trazado 1032657" d="M24.8,69.141q7.27.011,14.539,0v.007c4.923,0,9.847-.015,14.77.013.94.005,1.342-.333,1.294-1.283s-.024-1.923-.027-2.884c0-1.555-.08-1.633-1.629-1.634q-10.9,0-21.809-.005c-2.462,0-4.923.012-7.385-.019-.927-.012-1.339.337-1.288,1.3.053,1,0,2,.008,3,0,1.4.095,1.5,1.526,1.507m.226-4.03c.112-.279.566-.114.861-.115q6.75-.013,13.5-.007c4.462,0,8.924.043,13.385-.032,1.121-.019,1.051.545,1.006,1.267-.038.622.292,1.322-.921,1.314-8.962-.055-17.924-.03-26.886-.043-.35,0-.923.224-1.011-.237a3.854,3.854,0,0,1,.065-2.147" transform="translate(-18.749 -51.06)" fill="#fff"/>
        <path id="Trazado_1032658" data-name="Trazado 1032658" d="M104.286,27.292c-.006.76.332,1.113,1.113,1.111q7.083-.021,14.166-.009c.768,0,1.133-.333,1.128-1.1-.007-1.152-.031-2.3.018-3.454.041-.962-.37-1.275-1.3-1.257-2.264.046-4.53.015-6.795.015-2.38,0-4.76.011-7.141-.007-.8-.006-1.222.26-1.194,1.134.039,1.189.018,2.38.009,3.57m3.255-3.063c3.532,0,7.066.053,10.6-.023,1.292-.028.895.783.944,1.424.051.675.108,1.231-.941,1.174-1.876-.1-3.761-.029-5.643-.029v-.007c-1.92,0-3.84-.027-5.759.015-.657.015-.84-.184-.845-.836-.014-1.717-.048-1.718,1.648-1.718" transform="translate(-84.062 -18.202)" fill="#fff"/>
        <path id="Trazado_1032659" data-name="Trazado 1032659" d="M36.277,230.09q-5.827,0-11.654-.008c-.64,0-1.2.121-1.193.893.009.732.573.792,1.152.79,1.923-.007,3.846,0,5.769,0v0c2,0,4,.008,6-.005.579,0,1.243.017,1.188-.854-.051-.8-.654-.818-1.262-.817" transform="translate(-18.888 -185.48)" fill="#fff"/>
        <path id="Trazado_1032660" data-name="Trazado 1032660" d="M24.623,214.885c1.19-.013,2.38,0,3.57,0v-.017c1.228,0,2.457-.023,3.685.009.617.016,1.122-.127,1.149-.8.028-.7-.472-.839-1.095-.834-2.457.019-4.914.011-7.371-.006-.612,0-1.114.124-1.087.843s.555.816,1.148.809" transform="translate(-18.923 -171.897)" fill="#fff"/>
        <path id="Trazado_1032661" data-name="Trazado 1032661" d="M147.7,155.013a7.856,7.856,0,1,0,7.931,7.926,7.825,7.825,0,0,0-7.931-7.926m.133,14.075a6.228,6.228,0,0,1,.129-12.453,6.228,6.228,0,0,1-.129,12.453" transform="translate(-112.962 -124.963)" fill="#fff"/>
        <path id="Trazado_1032662" data-name="Trazado 1032662" d="M165.9,179.189c-.565-.566-1.051-.073-1.457.35-.957,1-1.958,1.961-2.833,3.027-.723.881-1.275,1.045-1.985.025a3.313,3.313,0,0,0-1.037-.883.791.791,0,0,0-.963.132.561.561,0,0,0-.136.734,16.9,16.9,0,0,0,2.982,3c.046.043.147.026.293.047.265-.052.452-.31.66-.526,1.41-1.468,2.808-2.947,4.223-4.41.441-.456.762-.98.253-1.492" transform="translate(-126.895 -144.246)" fill="#fff"/>
      </g>
    </g>
  </g>
</svg>
