<svg xmlns="http://www.w3.org/2000/svg" xmlns:xlink="http://www.w3.org/1999/xlink" width="98" height="98" viewBox="0 0 98 98">
  <defs>
    <clipPath id="clip-path">
      <rect id="Rectángulo_456277" data-name="Rectángulo 456277" width="98" height="98" transform="translate(0.31 0.309)" fill="#d35560"/>
    </clipPath>
    <clipPath id="clip-path-2">
      <rect id="Rectángulo_459926" data-name="Rectángulo 459926" width="55.26" height="55.255" fill="#fff"/>
    </clipPath>
  </defs>
  <g id="Grupo_1186022" data-name="Grupo 1186022" transform="translate(13435.691 12680.691)">
    <g id="Grupo_1179924" data-name="Grupo 1179924" transform="translate(-13436.001 -12681.001)">
      <g id="Grupo_1179923" data-name="Grupo 1179923" transform="translate(0 0)" clip-path="url(#clip-path)">
        <path id="Trazado_1004716" data-name="Trazado 1004716" d="M48.95,97.9c-1.59,0-3.077-1.816-4.627-1.968-1.579-.154-3.391,1.337-4.922,1.033-1.554-.309-2.657-2.381-4.153-2.835-1.513-.46-3.582.647-5.028.045s-2.134-2.855-3.515-3.6-3.636-.066-4.94-.94-1.533-3.214-2.747-4.212-3.552-.768-4.664-1.88-.88-3.448-1.88-4.664-3.335-1.438-4.212-2.747-.194-3.55-.94-4.94-2.99-2.057-3.6-3.515.505-3.515.046-5.028c-.455-1.5-2.527-2.6-2.835-4.153-.3-1.531,1.187-3.343,1.033-4.921C1.816,52.028,0,50.54,0,48.95s1.816-3.077,1.968-4.627C2.122,42.744.631,40.932.935,39.4c.308-1.554,2.38-2.657,2.835-4.153.46-1.513-.646-3.583-.045-5.029s2.855-2.133,3.6-3.515.066-3.636.94-4.94,3.214-1.533,4.212-2.747.768-3.552,1.881-4.664,3.448-.88,4.664-1.88,1.438-3.335,2.747-4.212,3.55-.194,4.94-.94,2.057-2.99,3.515-3.6,3.515.505,5.029.045c1.5-.454,2.6-2.527,4.153-2.835,1.531-.3,3.343,1.187,4.921,1.033C45.873,1.816,47.36,0,48.95,0s3.077,1.816,4.627,1.968C55.157,2.122,56.969.631,58.5.935c1.554.309,2.657,2.381,4.154,2.835,1.513.46,3.582-.647,5.028-.045s2.134,2.855,3.515,3.6,3.636.066,4.94.94,1.533,3.214,2.747,4.212,3.552.768,4.664,1.881.88,3.448,1.88,4.664,3.335,1.438,4.212,2.747.194,3.55.94,4.94,2.99,2.057,3.6,3.515-.505,3.515-.045,5.028c.455,1.5,2.527,2.6,2.835,4.153.3,1.531-1.187,3.343-1.033,4.922.152,1.551,1.968,3.038,1.968,4.627s-1.816,3.077-1.968,4.628c-.154,1.579,1.337,3.39,1.033,4.921-.308,1.554-2.38,2.657-2.835,4.154-.46,1.513.646,3.582.045,5.028s-2.855,2.134-3.6,3.515-.066,3.636-.94,4.94-3.214,1.533-4.212,2.747-.768,3.552-1.881,4.664-3.448.88-4.664,1.88-1.438,3.335-2.747,4.212-3.55.194-4.94.94-2.057,2.99-3.515,3.6-3.515-.505-5.028-.045c-1.5.454-2.6,2.527-4.153,2.835-1.531.3-3.343-1.187-4.921-1.033-1.551.151-3.038,1.968-4.628,1.968" transform="translate(0.359 0.359)" fill="#d35560"/>
        <path id="Trazado_1004717" data-name="Trazado 1004717" d="M14,58.32a44.32,44.32,0,1,1,44.32,44.32A44.32,44.32,0,0,1,14,58.32" transform="translate(-9.01 -9.011)" fill="#a2cbcf"/>
        <path id="Trazado_1021102" data-name="Trazado 1021102" d="M14,55.014A41.014,41.014,0,1,1,55.014,96.029,41.015,41.015,0,0,1,14,55.014" transform="translate(-5.706 -5.705)" fill="#952d36"/>
      </g>
    </g>
    <g id="Grupo_1180053" data-name="Grupo 1180053" transform="translate(-13413.503 -12658.826)">
      <rect id="Rectángulo_401104" data-name="Rectángulo 401104" width="53.625" height="54.271" transform="translate(0 0)" fill="none"/>
    </g>
    <g id="Grupo_1187689" data-name="Grupo 1187689" transform="translate(-13414.69 -12659.691)">
      <g id="Grupo_1187688" data-name="Grupo 1187688" clip-path="url(#clip-path-2)">
        <path id="Trazado_1032669" data-name="Trazado 1032669" d="M2.412,142.556a14.723,14.723,0,0,0,5.772,1.536,16.255,16.255,0,0,0,9.5-1.717,3.551,3.551,0,0,0,2.036-3.436c-.075-3.709-.023-7.421-.023-11.132H19.7c0-3.632-.108-7.268.039-10.894a4.288,4.288,0,0,0-2.919-4.477,16.52,16.52,0,0,0-6.909-1.308A15.413,15.413,0,0,0,2.058,112.9a3.754,3.754,0,0,0-2.05,3.562C.071,123.847.091,131.23,0,138.611a4.016,4.016,0,0,0,2.411,3.944m14.461-1.227a16.4,16.4,0,0,1-13.829.083,2.789,2.789,0,0,1-1.683-3.381,17.916,17.916,0,0,0,16.885.123c.406,1.591.131,2.49-1.373,3.174M16.2,133.7a16.631,16.631,0,0,1-12.533.028c-2.09-.822-2.363-1.362-2.336-3.674a18.144,18.144,0,0,0,16.965.117c.14,2.149-.149,2.766-2.1,3.529m.024,3.984a16.672,16.672,0,0,1-12.651,0c-2.023-.8-2.306-1.407-2.234-3.654a17.947,17.947,0,0,0,16.972.093c.127,2.224-.113,2.781-2.087,3.559m.362-8.177A16.208,16.208,0,0,1,3,129.442c-1.493-.662-1.879-1.884-1.61-3.476,3.794,2.693,11.974,3.164,16.842.172.314,1.965.108,2.6-1.644,3.372M1.371,122.148a18.157,18.157,0,0,0,16.921.054c.171,2.025-.139,2.735-1.908,3.445a16.69,16.69,0,0,1-12.891.029c-1.952-.79-2.234-1.393-2.123-3.528m.644-7.595a8.477,8.477,0,0,1,4.063-1.735,16.83,16.83,0,0,1,9.63.591c1.105.42,2.521.836,2.551,2.282.031,1.489-1.437,1.812-2.516,2.288a14.339,14.339,0,0,1-5.688.953,16.189,16.189,0,0,1-6.323-1.048,5.969,5.969,0,0,1-1.71-1.024,1.36,1.36,0,0,1-.007-2.307m-.645,3.671a18.469,18.469,0,0,0,16.855.056c.339,1.751.058,2.543-1.626,3.27a16.575,16.575,0,0,1-13.394.039,2.688,2.688,0,0,1-1.835-3.364" transform="translate(0 -88.929)" fill="#fff"/>
        <path id="Trazado_1032670" data-name="Trazado 1032670" d="M106.114,101.526a8.96,8.96,0,0,1-1.842.77,16.832,16.832,0,0,1-9.448,0c-.441-.119-1-.392-1.177.293-.168.634.409.756.847.9a14.879,14.879,0,0,0,3.941.7,15.12,15.12,0,0,0,8.972-1.939c.232,2.163-.019,2.654-1.828,3.519a11.237,11.237,0,0,1-3.739,1.021,17.246,17.246,0,0,1-7.03-.556c-.462-.146-.9-.234-1.073.316-.186.579.333.738.722.9a6.541,6.541,0,0,0,1.136.309c4.13.855,8.124.633,11.868-1.586.115,2.383-.221,2.921-2.372,3.784a12.4,12.4,0,0,1-4.016.888,16.4,16.4,0,0,1-6.314-.648c-.378-.131-.833-.207-1.012.286-.2.55.209.774.645.929.184.065.375.114.565.163a16.153,16.153,0,0,0,12.515-1.4c.089,2.352-.275,2.919-2.345,3.755-.218.088-.44.166-.665.237a16.7,16.7,0,0,1-9.331.143c-.507-.129-1.164-.539-1.376.248-.2.76.592.833,1.074.978a16.916,16.916,0,0,0,5.736.6,13.19,13.19,0,0,0,6.418-1.739,3.421,3.421,0,0,0,1.8-3.213c-.05-3.595-.033-7.191.013-10.786a3.33,3.33,0,0,0-1.577-2.985,8.427,8.427,0,0,0-2.107-1.049,18.141,18.141,0,0,0-8.878-.545,9.916,9.916,0,0,0-4.455,1.748c-.366.277-.641.658-.3,1.112.27.357.647.222.948.009,2.725-1.922,5.836-1.991,8.967-1.8a10.637,10.637,0,0,1,4.73,1.347c1.844,1.071,1.85,2.22-.012,3.284" transform="translate(-73.081 -76.435)" fill="#fff"/>
        <path id="Trazado_1032671" data-name="Trazado 1032671" d="M64.353,24.6q4.147.053,8.3,0c.709-.009,1.045.161.93.916a7.02,7.02,0,0,0-.014.829c-.011.361-.034.742.315.961.422.266.755-.034,1.064-.264,1.964-1.457,3.912-2.936,5.884-4.382.765-.561.713-1.024-.019-1.558-1.943-1.419-3.871-2.859-5.805-4.29-.32-.237-.66-.521-1.071-.337-.436.195-.366.65-.37,1.042a3.305,3.305,0,0,0,0,.592c.164.95-.247,1.171-1.162,1.161-4.306-.048-8.613.007-12.919-.043-1.1-.013-1.426.347-1.41,1.436.058,3.95.024,7.9.026,11.852a5.585,5.585,0,0,0,.03.827.537.537,0,0,0,.584.475.545.545,0,0,0,.588-.474,6.469,6.469,0,0,0,.04-.945c0-3.6.023-7.191-.028-10.786-.012-.852.153-1.137,1.079-1.125,4.147.057,8.3.024,12.445.023,1.917,0,1.916,0,2.053-1.9,0-.048.1-.089.175-.159l4.622,3.437L74.95,25.446a8.452,8.452,0,0,1-.042-.964c.074-.886-.326-1.148-1.191-1.138q-5.155.061-10.312,0c-.93-.01-1.256.332-1.244,1.25.037,2.765.009,5.531.014,8.3,0,.5-.1,1.146.641,1.173.785.028.656-.648.66-1.131.018-2.489.035-4.978,0-7.467-.009-.68.2-.875.874-.867" transform="translate(-46.474 -13.138)" fill="#fff"/>
        <path id="Trazado_1032672" data-name="Trazado 1032672" d="M203.028,9.383A9.187,9.187,0,1,0,184.658,9.1a9.187,9.187,0,1,0,18.371.282m-9.09,7.756a7.954,7.954,0,1,1,7.78-7.988,7.836,7.836,0,0,1-7.78,7.988" transform="translate(-147.769 0)" fill="#fff"/>
        <path id="Trazado_1032673" data-name="Trazado 1032673" d="M195.213,186.506a8.949,8.949,0,0,0-9.122,9.007,9.074,9.074,0,0,0,8.814,8.99,9,9,0,0,0,.308-18m-.094,16.649a7.688,7.688,0,0,1-7.744-7.59,7.686,7.686,0,1,1,15.371-.1,7.635,7.635,0,0,1-7.627,7.688" transform="translate(-148.916 -149.248)" fill="#fff"/>
        <path id="Trazado_1032674" data-name="Trazado 1032674" d="M213.535,107.378c.368-.016.824.147,1.054-.318.243-.491-.122-.817-.368-1.161q-2.064-2.885-4.14-5.76c-.7-.966-1.067-.961-1.762.008-1.24,1.729-2.487,3.453-3.693,5.205-.339.492-1.043.943-.729,1.63.333.727,1.132.4,1.7.369.844-.05.967.3.951,1.025-.043,1.895-.01,3.791-.021,5.686,0,.53-.037,1.167.623,1.207.746.045.641-.654.647-1.143.026-1.974.032-3.949.042-5.923s.008-1.964-1.9-2.1c-.045,0-.083-.106-.164-.218l3.417-4.71,3.458,4.711c-.064.318-.3.229-.471.238-1.571.079-1.578.078-1.579,1.682q0,3.021.018,6.042c0,.568-.171,1.393.634,1.423.841.031.67-.8.676-1.364.016-1.619.011-3.238.011-4.857s0-1.6,1.587-1.67" transform="translate(-163.102 -79.557)" fill="#fff"/>
        <path id="Trazado_1032675" data-name="Trazado 1032675" d="M115.78,217.079c.448.252.749-.07,1.052-.3,1.931-1.435,3.847-2.89,5.78-4.322.779-.577.778-1.04-.037-1.614-1.708-1.2-3.357-2.491-5.062-3.7-.519-.368-1.018-1.112-1.736-.763-.7.339-.318,1.147-.3,1.724.026.793-.223,1.014-1,.976-1.34-.065-2.686-.045-4.028-.01-.57.015-1.481-.287-1.462.678.017.832.856.609,1.414.614,1.422.013,2.844-.012,4.266,0,2.444.017,1.993.043,2.031-1.906,0-.046.094-.091.2-.188l4.614,3.414-4.824,3.574c0-.6-.016-.953,0-1.3.032-.569-.239-.754-.784-.75-2.014.017-4.029.008-6.044,0-.431,0-.832.059-.859.58-.032.608.411.669.884.666q2.015-.012,4.029-.008c1.514,0,1.509,0,1.541,1.569.008.378-.126.811.319,1.062" transform="translate(-87.215 -165.083)" fill="#fff"/>
        <path id="Trazado_1032676" data-name="Trazado 1032676" d="M218.107,25.471c-.416-.452-.779-.255-1.107.071-.975.971-1.927,1.965-2.895,2.943q-1.867,1.887-3.744,3.763c-.258.259-.5.53-.282.925a.576.576,0,0,0,.58.326c.271.014.427-.181.589-.344q3.332-3.342,6.651-6.7c.254-.258.62-.54.208-.988" transform="translate(-168.046 -20.171)" fill="#fff"/>
        <path id="Trazado_1032677" data-name="Trazado 1032677" d="M236.675,50.141a1.925,1.925,0,0,0-1.862,1.906,1.963,1.963,0,0,0,1.948,2.073,1.914,1.914,0,0,0,1.923-1.964,1.96,1.96,0,0,0-2.008-2.014m.138,2.627c-.452.021-.743-.181-.754-.667a.554.554,0,0,1,.553-.613.718.718,0,0,1,.845.592c-.049.394-.227.669-.643.689" transform="translate(-187.905 -40.124)" fill="#fff"/>
        <path id="Trazado_1032678" data-name="Trazado 1032678" d="M210.628,24.584a1.946,1.946,0,1,0-1.94,1.924,1.874,1.874,0,0,0,1.94-1.924M208,24.489a.67.67,0,0,1,.69-.66.682.682,0,0,1,.677.781.612.612,0,0,1-.683.625.633.633,0,0,1-.684-.747" transform="translate(-165.437 -18.073)" fill="#fff"/>
        <path id="Trazado_1032679" data-name="Trazado 1032679" d="M207.306,215.16q3.962.013,7.924,0c.452,0,.918-.05.945-.638.031-.677-.458-.715-.968-.712-1.262.007-2.523,0-3.785,0q-2.07,0-4.14,0c-.473,0-.9.087-.9.676s.468.669.92.671" transform="translate(-165.157 -171.1)" fill="#fff"/>
        <path id="Trazado_1032680" data-name="Trazado 1032680" d="M215.425,228.933c-1.3-.005-2.608,0-3.912,0-1.422,0-2.845,0-4.267,0-.387,0-.727.1-.742.573-.016.51.293.675.762.674q4.09-.006,8.179,0c.493,0,.886-.124.857-.711-.028-.571-.482-.535-.877-.537" transform="translate(-165.251 -183.196)" fill="#fff"/>
        <path id="Trazado_1032681" data-name="Trazado 1032681" d="M212.058,243.538c-.788-.019-1.577-.005-2.366-.005v0c-.789,0-1.578-.007-2.366,0-.461.005-.908.1-.912.68s.441.689.9.691c1.578.006,3.155,0,4.732-.008.421,0,.819-.1.857-.611.042-.58-.375-.734-.846-.745" transform="translate(-165.179 -194.877)" fill="#fff"/>
      </g>
    </g>
  </g>
</svg>
