<svg xmlns="http://www.w3.org/2000/svg" xmlns:xlink="http://www.w3.org/1999/xlink" width="84" height="84" viewBox="0 0 84 84">
  <defs>
    <clipPath id="clip-path">
      <rect id="Rectángulo_459928" data-name="Rectángulo 459928" width="54.088" height="54.107" fill="none"/>
    </clipPath>
  </defs>
  <g id="Grupo_1186026" data-name="Grupo 1186026" transform="translate(-217.711 -4044)">
    <rect id="Rectángulo_456489" data-name="Rectángulo 456489" width="84" height="84" rx="10" transform="translate(217.711 4044)" fill="#f2a4ab"/>
    <g id="Grupo_1187693" data-name="Grupo 1187693" transform="translate(235.911 4058.947)">
      <g id="Grupo_1187692" data-name="Grupo 1187692" clip-path="url(#clip-path)">
        <path id="Trazado_1032691" data-name="Trazado 1032691" d="M209.472,43.763a7.536,7.536,0,0,1,.1,1.8l-1.9.067-.3-.126-.042-1.436-1.162.042v1.256l-.3.2-1.8-.01V43.769l1.793-.011.011-1.795h1.791l.012,1.793Z" transform="translate(-173.38 -35.654)" fill="#040505"/>
        <path id="Trazado_1032692" data-name="Trazado 1032692" d="M138.175,147.971c.225.005.263.046.08.129a6.15,6.15,0,0,1-.086,1.61l-1.8,0a5.78,5.78,0,0,1-.08-1.568c-.339-.061-.243-.165.079-.29.154-.469,1.67-.346,1.8.122" transform="translate(-115.618 -125.366)" fill="#040505"/>
        <path id="Trazado_1032693" data-name="Trazado 1032693" d="M131.428,127.762a8.138,8.138,0,0,1,.049,1.841l-1.643.064c-.079.22-.147.2-.205-.039l-.3-.126-.042-1.436a2.708,2.708,0,0,0-1.159.1q.18.991-.3,1.345c-.072.317-.169.421-.244.112a6.909,6.909,0,0,1-1.561-.057l.008-1.793,1.791-.011.011-1.794h1.791l.011,1.793Z" transform="translate(-107.071 -107.023)" fill="#040505"/>
        <path id="Trazado_1032694" data-name="Trazado 1032694" d="M240.12,55.727l-.1-1.8c.129,0,.176.134.157.281Z" transform="translate(-203.929 -45.82)" fill="#eae9ea"/>
        <path id="Trazado_1032695" data-name="Trazado 1032695" d="M217.819,64.164l0,1.739h-1.8l0-1.8c.138-.474,1.656-.4,1.8.061" transform="translate(-183.532 -54.19)" fill="#0b0b0b"/>
        <path id="Trazado_1032696" data-name="Trazado 1032696" d="M218.552,68.443l-1.5,0V66.953h1.492Z" transform="translate(-184.413 -56.884)" fill="#040505"/>
        <path id="Trazado_1032697" data-name="Trazado 1032697" d="M217.812,55.8l-1.8-.061v-1.8h1.806Z" transform="translate(-183.526 -45.827)" fill="#eae9ea"/>
        <path id="Trazado_1032698" data-name="Trazado 1032698" d="M218.552,56.443l-1.5,0V54.953h1.492Z" transform="translate(-184.413 -46.689)" fill="#f4f4f4"/>
        <path id="Trazado_1032699" data-name="Trazado 1032699" d="M9.937,10.346,9.925,15.78l2.685,2.739,0,4.431-1.675,1.731.6,13.209,6.516,0,0-11.727a.848.848,0,0,1,.772-.888l6.442-.021,0-11.72a.874.874,0,0,1,.914-.905l14.4,0a.878.878,0,0,1,.914.907l0,11.722,6.31,0a.881.881,0,0,1,.9.908l.006,12.195a8.112,8.112,0,0,1-2.578,15.743H7.845A8.008,8.008,0,0,1,.552,48.927a8.132,8.132,0,0,1,2.274-9.089L3.509,24.68,1.831,22.95l0-4.431L4.51,15.754l.007-5.391-2.7-2.747L1.9,3.189A22.131,22.131,0,0,1,5,.081L9.436,0l2.755,2.707,11.257,0a.876.876,0,0,1,.907.9V7.2a.887.887,0,0,1-.9.905l-4.5.013.02,1.805c.328.005.884-.111,1.142.177a17.659,17.659,0,0,1,2.4,2.538,13.908,13.908,0,0,1,.019,3.57l-2.274,2.445-1.288-1.273,1.71-1.849a4.9,4.9,0,0,0-.026-2.226,5.27,5.27,0,0,0-1.484-1.494,5.116,5.116,0,0,0-2.25,0,5.412,5.412,0,0,0-1.481,1.5,4.631,4.631,0,0,0-.017,2.216l1.742,1.842-1.265,1.3-2.263-2.4a11.324,11.324,0,0,1,.019-3.691,16.81,16.81,0,0,1,2.415-2.523c.225-.238.783-.109,1.046-.132l.022-1.806-4.961,0Z" transform="translate(0)" fill="#040504"/>
        <path id="Trazado_1032700" data-name="Trazado 1032700" d="M93.993,31.74H84.1l0-1.8,9.895,0Z" transform="translate(-71.452 -25.434)" fill="#d2d1d0"/>
        <path id="Trazado_1032701" data-name="Trazado 1032701" d="M43.811,76.468,42,76.483,42,72,43.8,72Z" transform="translate(-35.682 -61.17)" fill="#d2d1d0"/>
        <path id="Trazado_1032702" data-name="Trazado 1032702" d="M29.184,19.138l-3.021.011-2.115-2.116V14.055l2.116-2.119,2.98,0,2.114,2.116v2.979Z" transform="translate(-20.432 -10.141)" fill="#3687bd"/>
        <path id="Trazado_1032703" data-name="Trazado 1032703" d="M32.16,18.072a2.7,2.7,0,1,1-2,3.347,2.686,2.686,0,0,1,2-3.347" transform="translate(-25.545 -15.294)" fill="#040505"/>
        <path id="Trazado_1032704" data-name="Trazado 1032704" d="M42.728,30.022a.893.893,0,0,1,.56,1.7.893.893,0,1,1-.56-1.7" transform="translate(-35.76 -25.478)" fill="#949494"/>
        <path id="Trazado_1032705" data-name="Trazado 1032705" d="M35.867,173.957l.3.137-.005,7.92c-.258,2.1-1.694,2.3-3.508,2.11q-.025-1.19.014-2.393l.312-7.779c1.051-.031,1.955,0,2.888,0" transform="translate(-27.736 -147.783)" fill="#d2d2d1"/>
        <path id="Trazado_1032706" data-name="Trazado 1032706" d="M36.152,184.869l-.091.362q.11.447-.1.558a9.493,9.493,0,0,0-4.779.758l.243-4.707a13.785,13.785,0,0,1-.024,2.144l1.407-.022a1.828,1.828,0,0,0,1.813-1.947l0-7.95,1.062.01Z" transform="translate(-26.497 -147.892)" fill="#b9b8b8"/>
        <path id="Trazado_1032707" data-name="Trazado 1032707" d="M21.059,248.162l-.038-2.185a.133.133,0,0,1,.11-.08l.038,2.185a.132.132,0,0,1-.11.08" transform="translate(-17.86 -208.923)" fill="#080909"/>
        <path id="Trazado_1032708" data-name="Trazado 1032708" d="M24.063,182.013l-.039-2.034a.132.132,0,0,1,.109-.08l.039,2.034a.132.132,0,0,1-.109.08" transform="translate(-20.412 -152.848)" fill="#080909"/>
        <path id="Trazado_1032709" data-name="Trazado 1032709" d="M71.063,182.013l-.039-2.034a.132.132,0,0,1,.109-.08l.039,2.034a.132.132,0,0,1-.109.08" transform="translate(-60.344 -152.848)" fill="#080909"/>
        <path id="Trazado_1032710" data-name="Trazado 1032710" d="M62.865,246.829c-.012-.315-.085-.727.187-.92a1.613,1.613,0,0,0,.153.866.834.834,0,0,1-.34.054" transform="translate(-53.397 -208.932)" fill="#c8c8c7"/>
        <path id="Trazado_1032711" data-name="Trazado 1032711" d="M74.015,246.824a2.17,2.17,0,0,1-.052-.838.308.308,0,0,1,.083-.079,1.114,1.114,0,0,1-.031.917" transform="translate(-62.828 -208.93)" fill="#090a09"/>
        <path id="Trazado_1032712" data-name="Trazado 1032712" d="M29.181,121.137l-3.02.012-2.115-2.116v-2.977l2.116-2.119,2.98,0,2.113,2.117,0,2.976Z" transform="translate(-20.431 -96.804)" fill="#3687bd"/>
        <path id="Trazado_1032713" data-name="Trazado 1032713" d="M32.16,120.072a2.7,2.7,0,1,1-2,3.347,2.686,2.686,0,0,1,2-3.347" transform="translate(-25.545 -101.956)" fill="#040505"/>
        <path id="Trazado_1032714" data-name="Trazado 1032714" d="M42.728,132.022a.893.893,0,0,1,.56,1.7.893.893,0,1,1-.56-1.7" transform="translate(-35.76 -112.14)" fill="#949494"/>
        <path id="Trazado_1032715" data-name="Trazado 1032715" d="M238.9,179.942l.3.141-.061,7.017a2.156,2.156,0,0,1-2.258,2.152l-8.691-.072-.175-.3-.01-8.958,3.607,0,.008,4.509a.888.888,0,0,0,.9.907l3.6,0a.886.886,0,0,0,.9-.905l.009-4.5Z" transform="translate(-193.722 -152.863)" fill="#92613f"/>
        <path id="Trazado_1032716" data-name="Trazado 1032716" d="M183.994,101.019c.013.455.562.756.926.757l3.625,0a.957.957,0,0,0,.93-.783l.047-4.544,1.97.01q.1,3.63.048,7.283A2.158,2.158,0,0,1,189.3,105.7l-8.676-.013-.132-.2,0-9.028,3.425-.02Z" transform="translate(-153.348 -81.939)" fill="#b27748"/>
        <path id="Trazado_1032717" data-name="Trazado 1032717" d="M136,184.793c.013.452.565.753.926.754l3.624,0a.966.966,0,0,0,.932-.782l.046-4.544a4.647,4.647,0,0,1,2.028.156l-.007,6.919a2.081,2.081,0,0,1-2.1,2.153l-8.823,0-.132-.2,0-9.028,3.426-.02Z" transform="translate(-112.568 -153.082)" fill="#a87043"/>
        <path id="Trazado_1032718" data-name="Trazado 1032718" d="M183.588,100.572l-.132-4.5h-3.294l-.009,8.877,8.732,0a1.879,1.879,0,0,0,1.95-1.676l.008-7.217-1.644.018-.129,4.472-.036-4.633,3.608.007v10.821h-12.63V95.92l3.609,0Z" transform="translate(-152.942 -81.492)" fill="#a86f47"/>
        <path id="Trazado_1032719" data-name="Trazado 1032719" d="M135.588,184.578l-.132-4.5-3.294,0-.008,8.875,8.878-.013a1.812,1.812,0,0,0,1.8-1.94l.01-6.933-1.645.017-.129,4.473-.036-4.632,3.609.012v10.818H132.011V179.926l3.609,0Z" transform="translate(-112.16 -152.867)" fill="#9e6740"/>
        <path id="Trazado_1032720" data-name="Trazado 1032720" d="M228.075,188.972l8.862.074a1.888,1.888,0,0,0,1.964-1.966l.06-7.044,1.737-.009,0,10.831-12.612-.023Z" transform="translate(-193.78 -152.957)" fill="#81543a"/>
        <path id="Trazado_1032721" data-name="Trazado 1032721" d="M217.835,99.571l-1.812.013V96l1.8,0Z" transform="translate(-183.54 -81.563)" fill="#e2e4e3"/>
        <path id="Trazado_1032722" data-name="Trazado 1032722" d="M169.835,183.571l-1.812.013V180l1.8,0Z" transform="translate(-142.758 -152.932)" fill="#e2e4e3"/>
        <path id="Trazado_1032723" data-name="Trazado 1032723" d="M265.835,183.571l-1.812.013V180l1.8,0Z" transform="translate(-224.323 -152.932)" fill="#e2e4e3"/>
        <path id="Trazado_1032724" data-name="Trazado 1032724" d="M57.211,264.089q-.1.153.254,0a6.3,6.3,0,0,1,0,12.371q-.5-.18-.257,0a.66.66,0,0,1-.519.142H17.943a.673.673,0,0,1-.521-.141q.1-.153-.254,0a6.3,6.3,0,0,1,0-12.372q.5.182.254,0c.131-.121.227-.123.52-.123H56.536c.346,0,.5-.035.676.123" transform="translate(-10.248 -224.271)" fill="#3d8fcf"/>
        <path id="Trazado_1032725" data-name="Trazado 1032725" d="M46.273,264.777a1.4,1.4,0,0,1,.665.084.775.775,0,0,1-.919-.087Z" transform="translate(-39.099 -224.959)" fill="#4294d2"/>
        <path id="Trazado_1032726" data-name="Trazado 1032726" d="M308.569,264.775l.254,0a.773.773,0,0,1-.918.085,1.39,1.39,0,0,1,.664-.084" transform="translate(-261.606 -224.956)" fill="#4294d2"/>
        <path id="Trazado_1032727" data-name="Trazado 1032727" d="M46.279,345.961h-.254a.771.771,0,0,1,.918-.085,1.384,1.384,0,0,1-.664.084" transform="translate(-39.104 -293.775)" fill="#4294d2"/>
        <path id="Trazado_1032728" data-name="Trazado 1032728" d="M308.82,345.965l-.257,0a1.373,1.373,0,0,1-.664-.083.78.78,0,0,1,.92.086" transform="translate(-261.601 -293.778)" fill="#4194d2"/>
        <path id="Trazado_1032729" data-name="Trazado 1032729" d="M213.012,281.564l.021.9,2.681.027a4.356,4.356,0,0,0,.011,5.389l-11.738,0a4.361,4.361,0,0,0,.006-5.394l7.191-.015.02-.966Z" transform="translate(-173.314 -239.173)" fill="#d3d2d1"/>
        <path id="Trazado_1032730" data-name="Trazado 1032730" d="M82.518,294.277h-1.8l-.02-.9-2.682-.029A4.357,4.357,0,0,0,78,287.967l11.734,0a4.36,4.36,0,0,0,0,5.4l-7.2.011Z" transform="translate(-66.275 -244.664)" fill="#d3d2d1"/>
        <path id="Trazado_1032731" data-name="Trazado 1032731" d="M58.337,276.672c.535.114.379,1.026-.158,1.267q-3.292-.066-6.433.108a4.788,4.788,0,0,1-.021,4.7q5.326.079,10.509-.1a4.8,4.8,0,0,1,0-4.695l-1.988-.021c-.464-.254-.617-.966-.106-1.2l.025-.905,6.449.026a4.433,4.433,0,0,1,4.346,4.562,4.525,4.525,0,0,1-4.672,4.453l-29.564,0-.04-.91c-.534-.117-.371-.959.161-1.2q3.3.069,6.437-.107a4.78,4.78,0,0,1,.018-4.7q-5.322-.075-10.506.1a4.813,4.813,0,0,1-.006,4.692l1.989.022c.464.254.617.964.1,1.2l-.025.9-6.143.012a4.531,4.531,0,1,1,.172-9.052l29.417.035a2.682,2.682,0,0,1,.032.82" transform="translate(-20.446 -234.343)" fill="#040504"/>
        <path id="Trazado_1032732" data-name="Trazado 1032732" d="M38.182,288.069a2.695,2.695,0,1,1-1.994,3.345,2.67,2.67,0,0,1,1.994-3.345" transform="translate(-30.664 -244.691)" fill="#636364"/>
        <path id="Trazado_1032733" data-name="Trazado 1032733" d="M49.842,301.762h-1.8v-1.79h1.793Z" transform="translate(-40.815 -254.864)" fill="#040505"/>
        <path id="Trazado_1032734" data-name="Trazado 1032734" d="M290.181,288.069a2.695,2.695,0,1,1-1.994,3.345,2.67,2.67,0,0,1,1.994-3.345" transform="translate(-244.771 -244.691)" fill="#636364"/>
        <path id="Trazado_1032735" data-name="Trazado 1032735" d="M301.842,301.762h-1.8v-1.79h1.793Z" transform="translate(-254.922 -254.864)" fill="#040505"/>
        <path id="Trazado_1032736" data-name="Trazado 1032736" d="M164.174,288.077a2.695,2.695,0,1,1-2,3.344,2.671,2.671,0,0,1,2-3.344" transform="translate(-137.709 -244.698)" fill="#636364"/>
        <path id="Trazado_1032737" data-name="Trazado 1032737" d="M175.842,301.762h-1.8v-1.79h1.793Z" transform="translate(-147.869 -254.864)" fill="#040505"/>
        <path id="Trazado_1032738" data-name="Trazado 1032738" d="M149.972,141.529l.006-1.738,1.8-.065v-1.8a.134.134,0,0,1,.154.149l-.059,1.744-1.735.059v1.369c0,.16-.058.28-.167.284" transform="translate(-127.421 -117.185)" fill="#eae9ea"/>
        <path id="Trazado_1032739" data-name="Trazado 1032739" d="M139.825,139.8l-1.8-.122v-1.742h1.8Z" transform="translate(-117.268 -117.197)" fill="#eae9ea"/>
        <path id="Trazado_1032740" data-name="Trazado 1032740" d="M127.825,149.526v1.858c-.1,0-.162-.12-.162-.283l0-1.358-1.608-.026c-.04-.018-.038-.1-.038-.136Z" transform="translate(-107.071 -127.042)" fill="#eae9ea"/>
        <path id="Trazado_1032741" data-name="Trazado 1032741" d="M140.552,140.443l-1.5,0v-1.493h1.492Z" transform="translate(-118.141 -118.058)" fill="#f4f4f4"/>
        <path id="Trazado_1032742" data-name="Trazado 1032742" d="M285.67,131.357l-1.8,0-.011-1.794-1.793-.01V127.77l1.793-.011.011-1.794h1.791l.011,1.794,1.793.011v1.788l-1.794.009Z" transform="translate(-239.651 -107.023)" fill="#060707"/>
        <path id="Trazado_1032743" data-name="Trazado 1032743" d="M295.83,139.723l-1.812,0v-1.8h1.8Z" transform="translate(-249.807 -117.182)" fill="#eae9ea"/>
        <path id="Trazado_1032744" data-name="Trazado 1032744" d="M296.552,140.443l-1.5,0v-1.493h1.492Z" transform="translate(-250.684 -118.058)" fill="#f4f4f4"/>
      </g>
    </g>
  </g>
</svg>
