<svg xmlns="http://www.w3.org/2000/svg" width="1020.578" height="570" viewBox="0 0 1020.578 570">
  <g id="Grupo_1187783" data-name="Grupo 1187783" transform="translate(-289.711 -16469.791)">
    <rect id="Rectángulo_456414" data-name="Rectángulo 456414" width="1020.578" height="570" rx="10" transform="translate(289.711 16469.791)" fill="#fff7e8"/>
    <g id="OBJECT" transform="translate(425.18 16452.65)">
      <g id="Grupo_1186038" data-name="Grupo 1186038">
        <path id="Trazado_1028152" data-name="Trazado 1028152" d="M691.618,444.885H79.642a6.111,6.111,0,0,1-6.111-6.111v-1.74a6.111,6.111,0,0,1,6.111-6.111H691.618a6.111,6.111,0,0,1,6.111,6.111v1.74A6.111,6.111,0,0,1,691.618,444.885Z" fill="#c1b6a3"/>
        <path id="Trazado_1028153" data-name="Trazado 1028153" d="M123.276,430.5S75.62,405.67,81.933,311.9s70.24-137.365,130.22-168.842S307.469,60.277,406.21,67.38s191.172,91.305,218.353,145.883,40.469,96.929,28.7,149.545" fill="none" stroke="#ececec" stroke-miterlimit="10" stroke-width="1"/>
        <path id="Trazado_1028154" data-name="Trazado 1028154" d="M132.94,431.32H105.7s-7.61,1.74-29.3-19.29c-32.58-31.6-34.87-67.12-34.87-67.12s20.49-4.93,48.78,12.81c24.74,15.51,38.81,60.18,41.95,71.15.21.71.36,1.27.48,1.68Z" fill="#c9c411"/>
        <path id="Trazado_1028155" data-name="Trazado 1028155" d="M132.94,429.64c-.07.31-.13.61-.2.91-.06.26-.12.52-.18.77H105.7s-7.61,1.74-29.3-19.29c-32.58-31.6-34.87-67.12-34.87-67.12,25.47,9.99,83.82,76.06,90.73,83.96C132.71,429.37,132.94,429.64,132.94,429.64Z" fill="#b2aa0f"/>
        <path id="Trazado_1028156" data-name="Trazado 1028156" d="M619.446,381.757s-6.041-33.14,13.73-60.051,40.641-29.867,40.641-29.867,4.943,43.048-8.787,69.959-34.6,38.577-34.6,38.577Z" fill="#f3b612"/>
        <path id="Trazado_1028157" data-name="Trazado 1028157" d="M434.907,83.658c-31.146-7.485-123.049-15.994-184.662,51.009S124.925,196.839,98.563,272.3s24.712,158.2,24.712,158.2h510.21s32.952-93.925-5.492-176.207S494.323,97.938,434.907,83.658Z" fill="#fbf9ac"/>
        <g id="Grupo_1186035" data-name="Grupo 1186035">
          <path id="Trazado_1028158" data-name="Trazado 1028158" d="M209.367,320.038c-20.385,0-28.99-17.43-28.99-42.635V260.249c0-23.382,7.016-40.066,25.026-42.345a32.458,32.458,0,0,1,4.419-.29c9.6,0,16.794,3.936,21.394,10.856v.014c3.978,5.98,6.022,14.17,6.022,23.99h47.8c0-42.953-20.662-69.291-53.822-76.832a94.935,94.935,0,0,0-21.173-2.265q-2.362,0-4.641.083c-50.19,1.851-76.224,34.224-76.224,95.367,0,63.007,27.636,95.45,80.865,95.45,47.58,0,74.995-27.346,74.995-78.02H238.827C238.827,307.443,229.076,320.038,209.367,320.038Z" fill="#dcdb22"/>
          <path id="Trazado_1028159" data-name="Trazado 1028159" d="M201.478,324.22c-20.385,0-28.99-17.43-28.99-42.635V264.431c0-23.383,7.016-40.066,25.026-42.345a32.462,32.462,0,0,1,4.42-.29c9.6,0,16.794,3.936,21.394,10.856v.014c3.978,5.98,6.022,14.17,6.022,23.99h47.8c0-42.953-20.662-69.291-53.822-76.832a94.935,94.935,0,0,0-21.173-2.265q-2.362,0-4.641.083c-50.19,1.851-76.224,34.224-76.224,95.367,0,63.007,27.636,95.45,80.865,95.45,47.58,0,74.995-27.346,74.995-78.02H230.939C230.938,311.624,221.187,324.22,201.478,324.22Z" fill="none" stroke="#fff" stroke-miterlimit="10" stroke-width="1"/>
          <path id="Trazado_1028160" data-name="Trazado 1028160" d="M446.338,230.218v3.217H399.444v-1.072c0-9.652-5.664-18.768-20.163-18.768-13.819,0-20.615,5.631-20.615,12.066,0,27.616,90.843,5.9,91.975,74.269,0,45.848-29.45,64.348-68.642,64.348-43.722,0-77.023-13.138-77.023-65.689h47.347c0,19.841,9.741,23.326,25.147,23.326,9.061,0,21.974-.8,21.974-12.334,0-26.543-91.976-5.362-91.976-77.218,0-42.9,33.075-58.986,70-58.986C415.075,173.377,445.659,190.8,446.338,230.218Z" fill="#dcdb22"/>
          <path id="Trazado_1028161" data-name="Trazado 1028161" d="M451.716,236.2v3.217H404.822v-1.072c0-9.652-5.664-18.768-20.163-18.768-13.819,0-20.615,5.631-20.615,12.066,0,27.616,90.843,5.9,91.975,74.269,0,45.848-29.449,64.348-68.641,64.348-43.722,0-77.023-13.138-77.023-65.689H357.7c0,19.841,9.741,23.326,25.147,23.326,9.061,0,21.974-.8,21.974-12.334,0-26.543-91.976-5.362-91.976-77.218,0-42.9,33.075-58.986,70-58.986C420.453,179.36,451.036,196.788,451.716,236.2Z" fill="none" stroke="#fff" stroke-miterlimit="10" stroke-width="1"/>
          <path id="Trazado_1028162" data-name="Trazado 1028162" d="M593.364,283.842l34.661,77.218H571.843l-27.638-67.3H525.628v67.3H475.562V176.6h95.374c34.661,0,52.558,26.543,52.558,56.573C623.494,254.617,613.526,274.994,593.364,283.842Zm-34.887-65.153H525.629V252.74h32.848c7.7,0,14.046-7.239,14.046-17.16S566.179,218.689,558.477,218.689Z" fill="#dcdb22"/>
          <path id="Trazado_1028163" data-name="Trazado 1028163" d="M600.943,289.825,635.6,367.043H579.422l-27.638-67.3H533.207v67.3H483.142V182.578h95.374c34.661,0,52.558,26.543,52.558,56.573C631.073,260.6,621.1,280.977,600.943,289.825Zm-34.887-65.153H533.207v34.051h32.849c7.7,0,14.046-7.24,14.046-17.16S573.758,224.672,566.056,224.672Z" fill="none" stroke="#fff" stroke-miterlimit="10" stroke-width="1"/>
        </g>
        <path id="Trazado_1028164" data-name="Trazado 1028164" d="M131.089,431.5h11.28s12.045-16.251,8.6-30.59-10.515-19.118-10.515-19.118-12.045,8.412-15.1,21.986S131.089,431.5,131.089,431.5Z" fill="#ed910e"/>
        <path id="Trazado_1028165" data-name="Trazado 1028165" d="M111.956,431.5h26.192s-3.059-23.516-25.237-29.443C112.912,402.056,103.735,413.909,111.956,431.5Z" fill="#f3b612"/>
        <circle id="Elipse_13739" data-name="Elipse 13739" cx="13.753" cy="13.753" r="13.753" transform="translate(129.18 330.531)" fill="#fffbf2"/>
        <g id="Grupo_1186036" data-name="Grupo 1186036">
          <rect id="Rectángulo_458578" data-name="Rectángulo 458578" width="35.071" height="8.35" transform="translate(485.713 389.172)" fill="#f3b612"/>
          <rect id="Rectángulo_458579" data-name="Rectángulo 458579" width="35.071" height="8.35" transform="translate(490.428 397.522)" fill="#ed910e"/>
          <rect id="Rectángulo_458580" data-name="Rectángulo 458580" width="35.071" height="8.35" transform="translate(487.883 405.873)" fill="#f3b612"/>
          <rect id="Rectángulo_458581" data-name="Rectángulo 458581" width="35.071" height="8.35" transform="translate(489.155 414.223)" fill="#ed910e"/>
          <rect id="Rectángulo_458582" data-name="Rectángulo 458582" width="35.071" height="8.35" transform="translate(491.7 422.573)" fill="#f3b612"/>
        </g>
        <circle id="Elipse_13740" data-name="Elipse 13740" cx="9.428" cy="9.428" r="9.428" transform="translate(107.601 207.054)" fill="#dcdb22"/>
        <path id="Trazado_1028166" data-name="Trazado 1028166" d="M134.794,256.307h42.289s-3.186-7.916-11.808-9.611-12.083,2.471-12.083,2.471-2.2-9.336-15.378-9.336-18.124,16.476-18.124,16.476Z" fill="#fff"/>
        <path id="Trazado_1028167" data-name="Trazado 1028167" d="M658.978,274.194h42.289s-3.186-7.916-11.808-9.611-12.082,2.471-12.082,2.471-2.2-9.336-15.378-9.336-18.124,16.476-18.124,16.476h15.1Z" fill="#e8e1d4"/>
        <path id="Trazado_1028168" data-name="Trazado 1028168" d="M708.471,344.476S706.186,380,673.6,411.6c-21.693,21.03-29.289,19.294-29.289,19.294H617.062s4.387-49.029,42.62-73.611C687.784,339.233,708.471,344.476,708.471,344.476Z" fill="#b2aa0f"/>
        <g id="Grupo_1186037" data-name="Grupo 1186037">
          <path id="Trazado_1028169" data-name="Trazado 1028169" d="M313.35,428.556s-1.085-2.466-3.749-8.089a34.283,34.283,0,0,0-6.511-9.273,15.69,15.69,0,0,1,8.681,4.538,13.582,13.582,0,0,1,3.552,7.991s-.493-18.842-2.466-25.551c0,0,4.637,2.664,6.906,10.753a26.929,26.929,0,0,1,0,14.7,16.272,16.272,0,0,1,10.95-8.977l-8.385,14.995Z" fill="#c9c411"/>
          <path id="Trazado_1028170" data-name="Trazado 1028170" d="M299.565,431.088s1.082-3.37,8.161-5.393c6.906-1.973,13.219,2.7,13.219,2.7a11.654,11.654,0,0,1,7.892-2.3c6.412.3,8.583,5,8.583,5H299.565Z" fill="#b2aa0f"/>
        </g>
        <path id="Trazado_1028171" data-name="Trazado 1028171" d="M508.1,153.4a5.6,5.6,0,1,1-5.6-5.6A5.6,5.6,0,0,1,508.1,153.4Z" fill="none" stroke="#008e8e" stroke-miterlimit="10" stroke-width="1"/>
        <circle id="Elipse_13741" data-name="Elipse 13741" cx="5.235" cy="5.235" r="5.235" transform="translate(284.971 182.378)" fill="none" stroke="#008e8e" stroke-miterlimit="10" stroke-width="1"/>
        <path id="Trazado_1028172" data-name="Trazado 1028172" d="M708.471,344.476S706.186,380,673.6,411.6c-21.693,21.03-29.289,19.294-29.289,19.294H630.1c.891-2.707,7.311-20.916,25.588-43.545C675.5,362.8,708.471,344.476,708.471,344.476Z" fill="#c9c411"/>
        <circle id="Elipse_13742" data-name="Elipse 13742" cx="8.323" cy="8.323" r="8.323" transform="translate(176.664 163.184) rotate(-76.714)" fill="#e8e1d4"/>
        <circle id="Elipse_13743" data-name="Elipse 13743" cx="11.393" cy="11.393" r="11.393" transform="translate(678.594 332.713) rotate(-80.747)" fill="#e8e1d4"/>
        <path id="Trazado_1028173" data-name="Trazado 1028173" d="M630.231,173.376a6.5,6.5,0,1,1-6.495-6.495A6.5,6.5,0,0,1,630.231,173.376Z" fill="#f3b612"/>
      </g>
      <g id="Grupo_1186043" data-name="Grupo 1186043">
        <g id="Grupo_1186039" data-name="Grupo 1186039">
          <path id="Trazado_1028174" data-name="Trazado 1028174" d="M586.821,429.934l-5.866,1.481a43.456,43.456,0,0,1-9.851,1.328c-5.772.106-14.4.2-14.611-.247-1.2-2.539,1.74-4.773,9.745-8.652.024-.012.059-.023.082-.035,8.064-3.9,7.935-6.171,7.935-6.171l11.872.811.776,2.833,1.587,5.783A2.327,2.327,0,0,1,586.821,429.934Z" fill="#c67466"/>
          <path id="Trazado_1028175" data-name="Trazado 1028175" d="M586.821,429.934l-5.866,1.481a43.456,43.456,0,0,1-9.851,1.328c-5.772.106-14.4.2-14.611-.247-1.2-2.539,1.74-4.773,9.745-8.652.905.576,2.939,1.446,7.182,1.775,5.642.447,9.674-3.4,13.483-4.338l1.587,5.783A2.327,2.327,0,0,1,586.821,429.934Z" fill="#332a23"/>
          <path id="Trazado_1028176" data-name="Trazado 1028176" d="M537.648,264.034l-13.182,15.317,9.015,5.038,15.167-14.862Z" fill="#ff9279"/>
          <path id="Trazado_1028177" data-name="Trazado 1028177" d="M564.39,248.96a15.007,15.007,0,0,1-.96,4.7,40.705,40.705,0,0,1-15.79,18.64l-2.91-2.04-8.93-6.27,10.58-16.13c.69-5.43,1.8-12.77,2.88-19.68,1.42-8.98,2.8-17.24,3.22-19.7.08-.48.12-.74.12-.74S565.31,234.3,564.39,248.96Z" fill="#ffc2ac"/>
          <path id="Trazado_1028178" data-name="Trazado 1028178" d="M564.39,248.96a15.007,15.007,0,0,1-.96,4.7,40.705,40.705,0,0,1-15.79,18.64l-2.91-2.04c3.05-2.94,10.47-11.14,10.7-21.65.17-8.17-3.4-15.79-6.17-20.43,1.42-8.98,2.8-17.24,3.22-19.7C555.46,216.25,562.71,236.06,564.39,248.96Z" fill="#edac98"/>
          <path id="Trazado_1028179" data-name="Trazado 1028179" d="M555.359,366.065l17.286,54.908h13.7s-1.731-42.908-8.506-56.5S555.359,366.065,555.359,366.065Z" fill="#c67466"/>
          <path id="Trazado_1028180" data-name="Trazado 1028180" d="M577.921,368.159c2.022,20.8,18.2,54.014,18.2,54.014h12.709s-8.087-49.248-9.965-56.108C598.862,366.065,575.9,347.363,577.921,368.159Z" fill="#ff9279"/>
          <path id="Trazado_1028181" data-name="Trazado 1028181" d="M599.59,288.15c-32.7,11.96-27.74-13-27.74-13s-13.66-26.5-18.62-46.65c-1.38-5.61-2.09-10.72-1.65-14.64,1.51-13.27,6.3-19.13,6.3-19.13l12.3-7.53a23.964,23.964,0,0,1,8.09,2.26,39.884,39.884,0,0,1,14.58,11.55,28.176,28.176,0,0,1,2.5,3.72c3.89,6.73,7.84,17.71,11.25,28.76,5.59,18.14,9.73,36.46,9.73,36.46S621.1,280.28,599.59,288.15Z" fill="#ed910e"/>
          <path id="Trazado_1028182" data-name="Trazado 1028182" d="M578.269,189.463c-1.12,8.316-4.055,20.379-11.686,29.232-5.186,6.02-9.755,8.727-13.354,9.8-1.382-5.609-2.09-10.715-1.645-14.633,1.508-13.274,6.294-19.134,6.294-19.134l12.3-7.528A23.775,23.775,0,0,1,578.269,189.463Z" fill="#d87e13"/>
          <path id="Trazado_1028183" data-name="Trazado 1028183" d="M543.838,159.175a13.185,13.185,0,0,0-7.589,12.755,42.885,42.885,0,0,0,.673,5.575c1.127,5.72,8.1,17.158,8.549,17.311S554,191.394,554,191.394l5.261,5.859,9.57-8.716-4.29-8.956s.032-8.812-1.591-13.88a12.571,12.571,0,0,0-10.366-8.576C550.428,156.883,547.057,157.688,543.838,159.175Z" fill="#ff9279"/>
          <path id="Trazado_1028184" data-name="Trazado 1028184" d="M543.1,299.44a11.638,11.638,0,0,0,6.31-7.84,20.377,20.377,0,0,0-1.33-11.98c-1.19-2.65-2.97-4.7-5.24-5.27-5.38-1.36-9.36,4.79-9.36,4.79l.75,1.03a16.783,16.783,0,0,0-29.36,13.05l1.95,15.55-12.37-11.63,1.54-6.56c-11.59-.34-13.85,10.3-13.85,10.3l8.69-.29,17.29,18.49.08.62,1.43,11.38s9.2,5.43,25.88-.34c11.62-4.03,15.94-11.04,15.94-11.04Zm-1.09-2.67-4.46-10.81-.51-1.24a15.056,15.056,0,0,0-.89-1.8,16.69,16.69,0,0,0-1.17-1.79c.26-.48,2.34-4.17,6-4.23,2.15-.03,5.23,3.34,5.72,8.77a17.476,17.476,0,0,1-.03,3.46c-.55,5.23-3.12,7.14-4.59,7.82Z" fill="#c1b6a3"/>
          <path id="Trazado_1028185" data-name="Trazado 1028185" d="M603.06,259.71c-7.7,13.29-18.94,9.12-18.94,9.12l11.23-64.1c3.89,6.73,7.84,17.71,11.25,28.76C607.47,241.12,607.57,251.93,603.06,259.71Z" fill="#d87e13"/>
          <path id="Trazado_1028186" data-name="Trazado 1028186" d="M551.45,319.7s-4.32,7.01-15.94,11.04c-16.68,5.77-25.88.34-25.88.34L508.2,319.7c5.24-.18,13.12-2.15,22.66-9.83a46.293,46.293,0,0,0,11.15-13.1l.07.18c1.47-.68,4.04-2.59,4.59-7.82a17.476,17.476,0,0,0,.03-3.46,53.1,53.1,0,0,0,1.38-6.05,20.377,20.377,0,0,1,1.33,11.98,11.638,11.638,0,0,1-6.31,7.84Z" fill="#afa18c"/>
          <path id="Trazado_1028187" data-name="Trazado 1028187" d="M586.96,182.73l-.95,1.33-.75,1.05-2.87-3.38,1.71,4.75-16.61,15.41c-5.25-6.01-9.85-20.18-9.85-20.18s1.36.08,2.72-2.79-.59-8.39-3.42-8.42a3.469,3.469,0,0,0-3.39,2.75c-9.39.19-16.44-6.87-16.44-6.87-1.65,8.87.3,13.04.38,13.22-.28-.12-5.39-2.53-3.64-12.84a17.056,17.056,0,0,1,2.19-6.01,17.49,17.49,0,0,1,9.18-7.36s12.08-6.2,22.92,1.39S586.96,182.73,586.96,182.73Z" fill="#47392b"/>
          <path id="Trazado_1028188" data-name="Trazado 1028188" d="M621.34,299.13c-1.15,28.11-22.48,66.94-22.48,66.94l-12.96-.1-33.04-.27s-5.47-11.79-1.61-28.83c2.93-12.95,8.59-26.6,13.14-36.36,3.73-8.01,6.73-13.42,6.88-13.7l.01-.01-1.08-11.12-.38-3.94,43.54-14.02S622.5,271.01,621.34,299.13Z" fill="#70604a"/>
          <path id="Trazado_1028189" data-name="Trazado 1028189" d="M621.34,299.13c-1.15,28.11-22.48,66.94-22.48,66.94l-12.96-.1c7.82-15.57,30.02-79.46,17.04-87.72-10.33-6.57-25.33-4.3-32.74-2.57l-.38-3.94,43.54-14.02S622.5,271.01,621.34,299.13Z" fill="#5b4c3b"/>
          <path id="Trazado_1028190" data-name="Trazado 1028190" d="M570.293,264.034,555.54,276.97,544.8,279.735l-2.77,6.136,1.259,2.182,4.059-4.2-.974,5.972a4.828,4.828,0,0,0,2.5,1.316l4.665,1.324,2.223-2.65s3.257-1.764,4.783-2.848a5.221,5.221,0,0,0,1.942-2.43l14.219-9.364Z" fill="#ff9279"/>
          <path id="Trazado_1028191" data-name="Trazado 1028191" d="M601.92,249.88c-1.33,4.63-4.86,9.47-8.99,13.88a124.286,124.286,0,0,1-19.52,16.25l-3.18-4.45-4-5.6-1.79-2.51,18.72-21.35s-4.64-14.66-6.39-25.19c-1.84-11.17,2.47-19.23,7.39-21.91h.01a7.186,7.186,0,0,1,3.97-.93,6.245,6.245,0,0,1,4.71,2.94c4.3,6.33,9.64,23.13,10.17,37.02A38.879,38.879,0,0,1,601.92,249.88Z" fill="#ffc2ac"/>
          <path id="Trazado_1028192" data-name="Trazado 1028192" d="M609.324,432.453l-5.866,1.481a43.456,43.456,0,0,1-9.851,1.328c-5.772.106-14.4.2-14.611-.247-1.2-2.539,1.74-4.773,9.745-8.652.023-.012.059-.023.082-.035,8.064-3.9,7.935-6.171,7.935-6.171l11.872.811.776,2.833,1.587,5.784A2.327,2.327,0,0,1,609.324,432.453Z" fill="#ff9279"/>
          <path id="Trazado_1028193" data-name="Trazado 1028193" d="M609.324,432.453l-5.866,1.481a43.456,43.456,0,0,1-9.851,1.328c-5.772.106-14.4.2-14.611-.247-1.2-2.539,1.74-4.773,9.745-8.652.905.576,2.939,1.446,7.182,1.775,5.642.447,9.674-3.4,13.483-4.338l1.587,5.784A2.327,2.327,0,0,1,609.324,432.453Z" fill="#332a23"/>
          <path id="Trazado_1028194" data-name="Trazado 1028194" d="M586.96,182.73l-.95,1.33c-2.23-4.25-12.31-22.84-20.55-27.63-7.88-4.59-20.77-3.48-29.42,4.32a17.49,17.49,0,0,1,9.18-7.36s12.08-6.2,22.92,1.39S586.96,182.73,586.96,182.73Z" fill="#70604a"/>
          <path id="Trazado_1028195" data-name="Trazado 1028195" d="M601.92,249.88c-1.33,4.63-4.86,9.47-8.99,13.88a124.286,124.286,0,0,1-19.52,16.25l-3.18-4.45c4.25-1.85,17.13-8.4,24.2-21.99,8.09-15.55-3.29-49.11-6.29-55.5a6.245,6.245,0,0,1,4.71,2.94c4.3,6.33,9.64,23.13,10.17,37.02A38.881,38.881,0,0,1,601.92,249.88Z" fill="#edac98"/>
          <path id="Trazado_1028196" data-name="Trazado 1028196" d="M583.751,246.857s13.106,4.572,14.678,3.143,1.143-1.286-3.714-3.143S583.751,246.857,583.751,246.857Z" fill="#edac98"/>
          <path id="Trazado_1028197" data-name="Trazado 1028197" d="M585.17,247.34s-13.93,16.4-18.94,22.62l-1.79-2.51,18.72-21.35s-4.64-14.66-6.39-25.19c-1.84-11.17,2.47-19.23,7.39-21.91-.01.02-.03.03-.04.04-3.84,3.18-5.41,10.25-4.98,18.39S585.17,247.34,585.17,247.34Z" fill="#ffd8cc"/>
          <path id="Trazado_1028198" data-name="Trazado 1028198" d="M537.55,285.96c-1.45,1.31-4.96,3.56-13.08,5.54-12.32,3-15.83.96-15.83.96s3.72.25,13.86-3.03c7.78-2.52,12.07-5.34,13.65-6.51a15.061,15.061,0,0,1,.89,1.8Z" fill="#afa18c"/>
        </g>
        <g id="Grupo_1186040" data-name="Grupo 1186040">
          <path id="Trazado_1028199" data-name="Trazado 1028199" d="M221.669,397.3l33.668-15.886s-.451,5.777,1.282,17.908a86.626,86.626,0,0,0,4.91,19.641h15.02s8.088-52.57,3.755-61.813-11.169-12.42-20.315-11.554-47.464,14.2-47.464,14.2S200.872,371.3,221.669,397.3Z" fill="#47392b"/>
          <path id="Trazado_1028200" data-name="Trazado 1028200" d="M233.7,431.67H161.3V417.52l29.76-10.4s-22.54-17.33-29.76-36.39,0-33.31,0-33.31l15.75,4.31,49.13,13.45-12.75,17.71s23.83,28.17,26.44,39.71C242.46,424.16,233.7,431.67,233.7,431.67Z" fill="#70604a"/>
          <path id="Trazado_1028201" data-name="Trazado 1028201" d="M161.3,417.516l29.758-10.395s-22.538-17.329-29.758-36.394,0-33.31,0-33.31l15.753,4.318.8,4.98s-8.916,18.094,8.088,42.106c13.278,18.751,27.174,25.086,27.174,25.086L161.3,424.542v-7.026Z" fill="#5b4c3b"/>
          <path id="Trazado_1028202" data-name="Trazado 1028202" d="M161.733,419.829h-2.744s-4.116-4.549-8.3-5.2c0,0-5.993,6.5-8.015,7.943s-8.593,4.766-10.9,6.643-1.155,3.466-1.155,3.466l30.69-1.95Z" fill="#332a23"/>
          <path id="Trazado_1028203" data-name="Trazado 1028203" d="M244.519,266.741l19.032,58.154-9.516,16.368s-12.244-1.926-18.406-17.716S244.519,266.741,244.519,266.741Z" fill="#47392b"/>
          <path id="Trazado_1028204" data-name="Trazado 1028204" d="M248.526,281.958a38.482,38.482,0,0,1-.4,4.729c-2.833-2.467-6.191-5.438-10.075-8.7-14.553-12.246-19.042-25.965-20.413-32.75,2.49-1.188,4.032-1.748,4.032-1.748l16.7,8.762A46.94,46.94,0,0,1,248.526,281.958Z" fill="#e5a415"/>
          <path id="Trazado_1028205" data-name="Trazado 1028205" d="M248.53,281.96a40.177,40.177,0,0,1-.4,4.73c-2.53,17.86-16.1,53.55-20.54,64.93-.88,2.26-1.41,3.56-1.41,3.56s-4.51,12.85-36.19-1.6c-20.83-9.49-28.69-16.17-28.69-16.17s3.11-9.19,7.59-21.26c4.88-13.07,11.39-29.52,17.38-41.33l.01-.01c3-5.92,5.87-10.68,8.33-13.26a79.605,79.605,0,0,1,23.03-16.32c2.49-1.19,4.03-1.74,4.03-1.74l3.37,1.77,13.32,6.99h.01A46.934,46.934,0,0,1,248.53,281.96Z" fill="#f3b612"/>
          <path id="Trazado_1028206" data-name="Trazado 1028206" d="M258.26,227.74a46.364,46.364,0,0,1-.39,6.07c-.87,6.26-7.7,19.07-8.18,19.26s-9.44-3.18-9.44-3.18l-1.88,2.35-12.17-8.18-1.35-.91,1.34-2.21,1.93-3.18v-.03a72.593,72.593,0,0,1,.43-12.93c.12-.76.27-1.49.44-2.16a13.127,13.127,0,0,1,1.84-4.09.01.01,0,0,1,.01-.01,13.7,13.7,0,0,1,8.83-5.81c2.32-.4,6.01.27,9.59,1.68a14.206,14.206,0,0,1,8.63,10.09h.01A14.557,14.557,0,0,1,258.26,227.74Z" fill="#ff9279"/>
          <path id="Trazado_1028207" data-name="Trazado 1028207" d="M262.61,222.4a9.025,9.025,0,0,1-4.71,2.1h-.01c-.3-.2-6.41-4.05-12.75-4.05,0,0,.65.36.65,4.19s-3.76,5.56-3.76,5.56l-.48,2.6h-2.48s.36-5.27-2.16-5.2-3.54,3.25-3.4,6.07a3.979,3.979,0,0,0,2.38,3.61s-1.83,1.4-5.87.85a18.019,18.019,0,0,1-1.9-.37.031.031,0,0,0-.01-.02.01.01,0,0,0,0-.02h-.01c-.19-.62-2.56-8.16-1.74-14.52.87-6.65,5.63-8.38,5.63-8.38s1.23-3.32,6.14-4.55,10.76.07,16.11,3.68a31.817,31.817,0,0,1,8.33,8.41l.03.03Z" fill="#47392b"/>
          <path id="Trazado_1028208" data-name="Trazado 1028208" d="M237.363,259.52s-8.42,36.271-8.639,45.72l4.32,12.942,7.414-12.8s2.693-37.223-.43-45.859h-2.665Z" fill="#70604a"/>
          <path id="Trazado_1028209" data-name="Trazado 1028209" d="M238.37,252.24v.01h-.01l-5.43,5.91-9.01-11.74,1.12-1.16,1.16-1.2,1.58-1.64Z" fill="#ed910e"/>
          <path id="Trazado_1028210" data-name="Trazado 1028210" d="M238.37,252.243l3.314,6.651a30.464,30.464,0,0,1-.007-3.811c.127-2.2-1.425-5.192-1.425-5.192Z" fill="#ed910e"/>
          <path id="Trazado_1028211" data-name="Trazado 1028211" d="M298.5,304l2.24,6.36L289.7,323.25l.26-15.67c.01-.55-.01-1.09-.05-1.63a16.5,16.5,0,0,0-.5-2.92,16.775,16.775,0,0,0-30.05-5.24l.63-1.11s-4.62-5.68-9.82-3.75c-4.54,1.69-6.32,9.37-5.29,15.38a16.965,16.965,0,0,0,.62,2.48,11.667,11.667,0,0,0,7.12,7.12l-6.11,21.04s5.05,6.5,17.04,9.25c17.21,3.93,25.77-2.46,25.77-2.46l.05-2.91.15-9.19,15.19-20.25,8.67-.65S309.98,302.41,298.5,304Zm-41.44-1.38-1.95,6.72-1.74,5.98c-1.54-.52-4.3-2.14-5.42-7.27a16.673,16.673,0,0,1-.4-3.92c.06-5.2,2.66-8.67,4.74-8.87,3.65-.33,6.12,3.11,6.42,3.56A16.369,16.369,0,0,0,257.06,302.62Z" fill="#c1b6a3"/>
          <path id="Trazado_1028212" data-name="Trazado 1028212" d="M289.37,342.83l-.05,2.91s-8.56,6.39-25.77,2.46c-11.99-2.75-17.04-9.25-17.04-9.25l6.11-21.04a11.667,11.667,0,0,1-7.12-7.12,16.964,16.964,0,0,1-.62-2.48l.55-5.15,2.12.97a16.674,16.674,0,0,0,.4,3.92c1.12,5.13,3.88,6.75,5.42,7.27l1.74-5.98c.29,5.2,2.33,20.47,15.99,28.08C278.89,341.76,285.04,342.87,289.37,342.83Z" fill="#afa18c"/>
          <path id="Trazado_1028213" data-name="Trazado 1028213" d="M238.37,318.16S209.28,336,196.25,335.77c-11.56-.2-17.62-5.78-15.89-28.59,1.18-15.44,8.57-30.75,13.22-39.03.08-.15.17-.3.26-.44a12.648,12.648,0,0,1,1.99-2.52,12.513,12.513,0,0,1,13.76-2.39,12.05,12.05,0,0,1,7.48,11.92,2.905,2.905,0,0,1-.03.4c-.86,13.58-15.3,34.08-15.3,34.08l31.48-4.62.93,2.46,2.6,6.84.12.34Z" fill="#ed910e"/>
          <path id="Trazado_1028214" data-name="Trazado 1028214" d="M233.7,305.845l2.505-1.169a119.141,119.141,0,0,1,9.339-9.243c3.37-2.7,6.5-.818,7.269.722s.433,2.215.433,2.215a3.68,3.68,0,0,1,1.011,3.081,2.949,2.949,0,0,1,.722,2.7,5.228,5.228,0,0,1,.081,3.418,4.275,4.275,0,0,1-3.6,2.5,15.608,15.608,0,0,1-4.573,3.707,18.343,18.343,0,0,1-5.825.867l-3.2,2.2Z" fill="#ff9279"/>
          <path id="Trazado_1028215" data-name="Trazado 1028215" d="M263.07,418.384v3.948a38.825,38.825,0,0,0-1.059,10.013,43.091,43.091,0,0,0,9.436,1.155c5.488.1,7.414-.481,9.436-.481s5.2.193,9.339,0,4.91-.77,4.91-.77.578-1.54-2.022-3.851-16.464-5.777-17.812-7.606a6.8,6.8,0,0,1-1.444-3.177Z" fill="#332a23"/>
          <path id="Trazado_1028216" data-name="Trazado 1028216" d="M235.651,255.2l1.711,4.32h2.664l.43-3.088s-.117-2.993-2.087-4.189Z" fill="#70604a"/>
          <path id="Trazado_1028217" data-name="Trazado 1028217" d="M227.588,351.617c-.88,2.262-1.4,3.564-1.4,3.564s-4.512,12.851-36.189-1.6c-20.836-9.493-28.695-16.175-28.695-16.175s3.107-9.184,7.6-21.259c3.061,7.973,10.955,24.194,26.353,30.9C210.932,353.879,222.733,352.634,227.588,351.617Z" fill="#e5a415"/>
          <path id="Trazado_1028218" data-name="Trazado 1028218" d="M238.371,318.159s-29.1,17.843-42.117,17.615c-11.56-.206-17.626-5.78-15.89-28.592,1.177-15.444,8.567-30.751,13.217-39.033.08-.148.171-.3.263-.434-5.358,14.633-14.028,43.214-3.987,52.284,11.937,10.761,39.867-2.513,46.892-6.123l.126.343Z" fill="#dd8112"/>
          <path id="Trazado_1028219" data-name="Trazado 1028219" d="M227.78,242.42l-1.58,1.64-1.16,1.2-1.12,1.16-2.25-2.93,4.52-2.55Z" fill="#fcb76b"/>
          <path id="Trazado_1028220" data-name="Trazado 1028220" d="M221.67,243.49l2.25,2.93s-3.461.628-12.92,5.15c-13.786,6.59-24.25,22.68-24.72,23.24,3-5.92,5.87-10.68,8.33-13.26a79.605,79.605,0,0,1,23.03-16.32C220.13,244.04,221.67,243.49,221.67,243.49Z" fill="#ffdc97"/>
          <path id="Trazado_1028221" data-name="Trazado 1028221" d="M230.02,238.13l-2.24,4.29-1.59-1.48,1.93-3.18A18.024,18.024,0,0,0,230.02,238.13Z" fill="#ffbbb0"/>
          <path id="Trazado_1028222" data-name="Trazado 1028222" d="M262.57,222.36c-.58-.54-10-9.33-18.57-10.43-8.85-1.14-10.43,3.43-10.43,3.43l.17.06,2.62.94a7.119,7.119,0,0,0-5.52,2.18.01.01,0,0,0-.01.01,8.69,8.69,0,0,0-1.26,1.66,10.428,10.428,0,0,0-1.02,4.59c-.24,5.66,1.47,13.33,1.47,13.33a18.019,18.019,0,0,1-1.9-.37.031.031,0,0,0-.01-.02.01.01,0,1,0,0-.02h-.01c-.19-.62-2.56-8.16-1.74-14.52.87-6.65,5.63-8.38,5.63-8.38s1.23-3.32,6.14-4.55,10.76.07,16.11,3.68A31.818,31.818,0,0,1,262.57,222.36Z" fill="#70604a"/>
          <path id="Trazado_1028223" data-name="Trazado 1028223" d="M234.15,307.04l-.93-2.46-31.48,4.62s14.44-20.5,15.3-34.08a2.905,2.905,0,0,0,.03-.4,12.05,12.05,0,0,0-7.48-11.92,14.161,14.161,0,0,1,4.874,12.01c-.828,9.271-9.9,25.625-14.452,33.341a22.888,22.888,0,0,0-9.548,5.188l6.975-.945-.011.017S234.15,307.19,234.15,307.04Z" fill="#dd8112"/>
          <path id="Trazado_1028224" data-name="Trazado 1028224" d="M289.91,305.95c-1.37.51-4.23,1.16-10.05,1.41a26.1,26.1,0,0,1-16.29-4.49c.33.15,4.75,2.07,12.72,2.41a31.586,31.586,0,0,0,13.12-2.25A16.5,16.5,0,0,1,289.91,305.95Z" fill="#afa18c"/>
          <path id="Trazado_1028225" data-name="Trazado 1028225" d="M233.7,431.67h-.28c1.38-2.58,3.07-8.08.73-17.76-3.51-14.48-24.29-39.12-24.29-39.12l-12.43-6,16,4.1s23.83,28.17,26.44,39.71C242.46,424.16,233.7,431.67,233.7,431.67Z" fill="#84735f"/>
        </g>
        <g id="Grupo_1186042" data-name="Grupo 1186042">
          <g id="Grupo_1186041" data-name="Grupo 1186041">
            <path id="Trazado_1028226" data-name="Trazado 1028226" d="M483.616,147.745a23.178,23.178,0,0,1-3.278,5.472,15.461,15.461,0,0,1-13.274,6s-.937,5.883-12.12,10.452-19.671-4.352-19.671-4.352-1.234,4.135-7.482,5.655-9.5-2.388-9.5-2.388-9.732,6.465-17.98,5.026c-8.236,1.439-17.969-5.026-17.969-5.026s-3.267,3.918-9.516,2.388-7.471-5.655-7.471-5.655-8.5,8.933-19.671,4.352-12.131-10.452-12.131-10.452a15.372,15.372,0,0,1-12.623-5.243,22.376,22.376,0,0,1-3.93-6.226,20.126,20.126,0,0,1,3.713-22.07,7.734,7.734,0,0,1-4.581-7.836,7.257,7.257,0,0,1,5.883-6.751s-5.666-6.317,0-18.734,23.3-10.235,23.3-10.235,1.3-15.684,16.335-18.951S384.3,67.6,384.3,67.6c2.8-5.8,10.669-10.407,16-10.384,6.717-.206,10.818,2.41,13.616,8.213,0,0,10.018-5.529,25.051-2.262s16.335,18.951,16.335,18.951,17.638-2.182,23.3,10.235,0,18.734,0,18.734a7.267,7.267,0,0,1,5.883,6.751,7.734,7.734,0,0,1-4.581,7.836A20.111,20.111,0,0,1,483.616,147.745Z" fill="#c9c411"/>
            <path id="Trazado_1028227" data-name="Trazado 1028227" d="M397.948,225.95s1.307-8.566-5.663-19.746-11.906-11.035-11.906-11.035-6.163,2.986-12.341,5.953c-7.986,3.835-22.36-.726-22.36-.726s1.742-10.309,11.47-14.955,22.178-.571,25.989,5.082c0,0,13.067,10.163,15.826,23.086S397.948,225.95,397.948,225.95Z" fill="#b2aa0f"/>
            <path id="Trazado_1028228" data-name="Trazado 1028228" d="M480.338,153.217a15.461,15.461,0,0,1-13.274,6s-.937,5.883-12.12,10.452-19.671-4.352-19.671-4.352-1.234,4.135-7.482,5.655-9.5-2.388-9.5-2.388-9.732,6.465-17.98,5.026c-8.236,1.439-17.969-5.026-17.969-5.026s-3.267,3.918-9.516,2.388-7.471-5.655-7.471-5.655-8.5,8.933-19.671,4.352-12.131-10.452-12.131-10.452a15.372,15.372,0,0,1-12.623-5.243c.982-30.877,36.292-55.7,79.723-55.7C443.727,98.271,478.819,122.682,480.338,153.217Z" fill="#b2aa0f"/>
            <path id="Trazado_1028229" data-name="Trazado 1028229" d="M402.449,225.95s-1.307-8.566,5.663-19.746,11.906-11.035,11.906-11.035,6.163,2.986,12.341,5.953c7.986,3.835,22.36-.726,22.36-.726s-1.742-10.309-11.47-14.955-22.178-.571-25.989,5.082c0,0-13.067,10.163-15.826,23.086S402.449,225.95,402.449,225.95Z" fill="#b2aa0f"/>
            <path id="Trazado_1028230" data-name="Trazado 1028230" d="M424.663,154.425a154.364,154.364,0,0,1,21.6-6.347,2.624,2.624,0,0,0,2.008-1.982l.043-.187a2.637,2.637,0,0,0-2.761-3.226c-11.888.878-31.348,10.29-31.348,10.29,5.97-10.99,16.2-20.755,20.654-24.716a2.628,2.628,0,0,0,.05-3.879h0a2.656,2.656,0,0,0-3.153-.351c-12.734,7.3-24.811,21.033-24.811,21.033l-2.638-31.445a4.2,4.2,0,0,0-2.254-3.38h0a4.2,4.2,0,0,0-3.75-.06l-.16.076a4.2,4.2,0,0,0-2.377,3.481l-2.324,31.328s-12.077-13.735-24.811-21.033a2.656,2.656,0,0,0-3.153.351h0a2.628,2.628,0,0,0,.05,3.879c4.452,3.96,14.684,13.726,20.654,24.716,0,0-19.363-9.365-31.259-10.283A2.7,2.7,0,0,0,352.1,146h0a2.688,2.688,0,0,0,2.132,2.046,109.307,109.307,0,0,1,21.5,6.382c16.439,6.932,17.5,14.323,17.5,14.326,3.048,9.2,1.275,27.067-2.839,50.139-6.479,36.342-22.65,47.066-22.65,47.066h64.9S416.477,255.232,410,218.89c-4.113-23.072-5.886-40.942-2.839-50.139C407.162,168.748,408.083,160.745,424.663,154.425Z" fill="#70604a"/>
          </g>
          <path id="Trazado_1028231" data-name="Trazado 1028231" d="M489.682,341.849a89.033,89.033,0,1,1-178.065,0c0-1.965.057-3.941.206-5.872a87.7,87.7,0,0,1,1.622-12.086,89.025,89.025,0,0,1,176.237,17.958Z" fill="#3fa6b6"/>
          <path id="Trazado_1028232" data-name="Trazado 1028232" d="M467.258,282.779c-2.8,12.2-14.976,17.135-25.085,19.5-13.068,3.05-16.118-2.627-31.357-5.22-15.25-2.627-27.45,5.22-47.909-1.748-14.622-4.98-21.019-13.559-23.486-18.072a88.952,88.952,0,0,1,123.931,1.439Q465.374,280.649,467.258,282.779Z" fill="#c9c411"/>
          <path id="Trazado_1028233" data-name="Trazado 1028233" d="M425.484,427.374a89.037,89.037,0,0,1-113.866-85.526c0-1.965.057-3.941.206-5.872a87.7,87.7,0,0,1,1.622-12.086,195.519,195.519,0,0,0,89.889,47.5c1.211.274,2.4.525,3.587.765,6.591,7.265,15.638,13.9,13.468,26.9C418.618,409.668,421.588,419.584,425.484,427.374Z" fill="#2a95a0"/>
          <path id="Trazado_1028234" data-name="Trazado 1028234" d="M379.266,428.3a89.074,89.074,0,0,1-67.648-86.45c0-1.972.061-3.943.2-5.875,9.025,3.069,20.388,8.131,28.864,15.957,16.546,15.245,5.671,31.791,20.916,36.141C374.164,391.675,390.893,413.628,379.266,428.3Z" fill="#b2aa0f"/>
          <path id="Trazado_1028235" data-name="Trazado 1028235" d="M486.746,364.569q-.736,2.828-1.668,5.586c-.217.663-.457,1.325-.7,1.988a3.068,3.068,0,0,1-.126.354c-.137.377-.274.754-.423,1.12-.16.445-.331.891-.514,1.325-.114.3-.24.605-.365.9a.663.663,0,0,1-.057.137c-.286.7-.582,1.394-.9,2.079a3.32,3.32,0,0,1-.148.354c-.354.777-.708,1.542-1.085,2.308a.359.359,0,0,1-.057.114c-.354.743-.731,1.485-1.12,2.216-.411.811-.845,1.6-1.3,2.4-.171.309-.343.605-.526.914-.274.491-.56.982-.857,1.462-.206.331-.411.674-.617,1.005-.388.628-.777,1.234-1.188,1.851a.737.737,0,0,1-.114.171c-.457.7-.925,1.394-1.4,2.079-.605.868-1.234,1.714-1.873,2.559-1.131,1.5-2.3,2.947-3.518,4.364,0,.011-.011.023-.034.046q-1.833,2.125-3.8,4.135c-.662.674-1.336,1.348-2.01,2s-1.382,1.3-2.079,1.942c-.7.617-1.394,1.234-2.1,1.839-.011.011-.034.023-.046.034-.64.537-1.291,1.074-1.942,1.6-.126.1-.251.206-.388.309-.7.548-1.4,1.1-2.125,1.622-.7.514-1.394,1.028-2.1,1.519-.137.091-.263.183-.388.274-.674.457-1.359.914-2.045,1.359-.091.069-.183.126-.286.194-.754.48-1.508.96-2.285,1.416q-1.217.736-2.467,1.439c-.834.468-1.668.914-2.513,1.359a.034.034,0,0,0-.023.012c-.731.377-1.462.742-2.2,1.1-.194.1-.4.194-.605.286-.742.354-1.485.7-2.239,1.028a1.08,1.08,0,0,1-.24.1c-.754.331-1.508.651-2.273.96-.194.08-.4.171-.605.24-.743.3-1.508.583-2.262.868l-.48.171c-.72.251-1.451.5-2.17.742-.206.069-.4.137-.594.194-.788.251-1.588.5-2.387.731-3.895-7.791-6.865-17.706-5.1-28.318,2.171-13-6.877-19.637-13.468-26.9C442.15,379.225,469.817,371.88,486.746,364.569Z" fill="#b2aa0f"/>
          <path id="Trazado_1028236" data-name="Trazado 1028236" d="M489.682,341.849a88.689,88.689,0,0,1-2.936,22.721c-16.929,7.311-44.6,14.656-79.826,7.585-5.3-5.849-9-12.1-3.952-22.389,11.3-23.1,37.034-1.748,49.657-20.47,8.213-12.2,23.441-14.051,33.07-13.868A89.249,89.249,0,0,1,489.682,341.849Z" fill="#c9c411"/>
          <path id="Trazado_1028237" data-name="Trazado 1028237" d="M463.352,278.678c-7.151,2.422-24.937,6.191-60.006,1.771-32.259-4.078-42.849-11.629-46.31-16.221a88.982,88.982,0,0,1,106.316,14.45Z" fill="#b2aa0f"/>
          <path id="Trazado_1028238" data-name="Trazado 1028238" d="M340.645,305.412s8.187,14.974,28.817,16.054,31.645-9.69,23.322-13.117-28.9.887-35.748-4.575S336.239,293.907,340.645,305.412Z" fill="#55b5bf"/>
        </g>
      </g>
      <g id="Grupo_1186056" data-name="Grupo 1186056">
        <g id="Grupo_1186046" data-name="Grupo 1186046">
          <g id="Grupo_1186045" data-name="Grupo 1186045">
            <g id="Grupo_1186044" data-name="Grupo 1186044">
              <path id="Trazado_1028239" data-name="Trazado 1028239" d="M259.216,67.49l-6.362,13.271h12.725Z" fill="#f3b612"/>
              <path id="Trazado_1028240" data-name="Trazado 1028240" d="M267.261,80.859l11.753,5.189L277.92,71.2Z" fill="#f3b612"/>
              <path id="Trazado_1028241" data-name="Trazado 1028241" d="M293.376,83.419l-13.731,2.932,7.9,10.612Z" fill="#f3b612"/>
              <path id="Trazado_1028242" data-name="Trazado 1028242" d="M291.192,110.727l10.043-10.383-13.8-2.55Z" fill="#f3b612"/>
              <path id="Trazado_1028243" data-name="Trazado 1028243" d="M240.594,86.048l11.754-5.189L241.688,71.2Z" fill="#f3b612"/>
              <path id="Trazado_1028244" data-name="Trazado 1028244" d="M232.063,96.963l7.9-10.612-13.731-2.932Z" fill="#f3b612"/>
              <path id="Trazado_1028245" data-name="Trazado 1028245" d="M232.172,97.794l-13.8,2.55,10.042,10.383Z" fill="#f3b612"/>
              <path id="Trazado_1028246" data-name="Trazado 1028246" d="M260.392,155.293l6.363-13.27H254.029Z" fill="#f3b612"/>
              <path id="Trazado_1028247" data-name="Trazado 1028247" d="M241.688,151.587l10.66-9.663-11.754-5.188Z" fill="#f3b612"/>
              <path id="Trazado_1028248" data-name="Trazado 1028248" d="M226.232,139.364l13.731-2.932-7.9-10.612Z" fill="#f3b612"/>
              <path id="Trazado_1028249" data-name="Trazado 1028249" d="M228.416,112.056l-10.042,10.383,13.8,2.55Z" fill="#f3b612"/>
              <path id="Trazado_1028250" data-name="Trazado 1028250" d="M277.92,151.587l1.094-14.851-11.753,5.188Z" fill="#f3b612"/>
              <path id="Trazado_1028251" data-name="Trazado 1028251" d="M279.645,136.432l13.731,2.932-5.831-13.544Z" fill="#f3b612"/>
              <path id="Trazado_1028252" data-name="Trazado 1028252" d="M287.436,124.989l13.8-2.55-10.043-10.383Z" fill="#f3b612"/>
            </g>
            <ellipse id="Elipse_13744" data-name="Elipse 13744" cx="31.82" cy="31.686" rx="31.82" ry="31.686" transform="translate(228.021 79.706)" fill="#fffbf2"/>
            <path id="Trazado_1028253" data-name="Trazado 1028253" d="M288.165,111.387a28.015,28.015,0,0,1-20.071,26.765,28.609,28.609,0,0,1-8.259,1.211A27.971,27.971,0,1,1,285.286,99.1,27.4,27.4,0,0,1,288.165,111.387Z" fill="#f3b612"/>
            <path id="Trazado_1028254" data-name="Trazado 1028254" d="M288.165,111.387a28.015,28.015,0,0,1-20.071,26.765A22.69,22.69,0,1,1,285.286,99.1,27.417,27.417,0,0,1,288.165,111.387Z" fill="#e5a30e"/>
          </g>
        </g>
        <g id="Grupo_1186047" data-name="Grupo 1186047">
          <path id="Trazado_1028255" data-name="Trazado 1028255" d="M67.175,311.556h25.63V322.2H72.994Z" fill="#d87e13"/>
          <path id="Trazado_1028256" data-name="Trazado 1028256" d="M85.67,306.866l-.851-13.016L71.88,299.194l2.308,1.284-7.013,11.078H79.99l3.52-5.891Z" fill="#f3b612"/>
          <path id="Trazado_1028257" data-name="Trazado 1028257" d="M101.848,273.165,89.267,295.494l-9.277-5.227,9.725-17.259Z" fill="#d87e13"/>
          <path id="Trazado_1028258" data-name="Trazado 1028258" d="M96.854,291.58l11.758,5.648,1.7-13.895-2.252,1.38-6.208-11.548L95.557,284.33l3.4,5.959Z" fill="#f3b612"/>
          <path id="Trazado_1028259" data-name="Trazado 1028259" d="M118.729,322.2l-13.516-21.776,9.046-5.615,10.448,16.831Z" fill="#d87e13"/>
          <path id="Trazado_1028260" data-name="Trazado 1028260" d="M104.991,308.963l-10.61,7.588,11.364,8.175-.127-2.639,13.111.117-6.758-10.888-6.862.116Z" fill="#f3b612"/>
        </g>
        <g id="Grupo_1186053" data-name="Grupo 1186053">
          <path id="Trazado_1028261" data-name="Trazado 1028261" d="M542.2,112.307a8.757,8.757,0,0,1,5.483-6.3c4.8-1.9,9.02,1.775,9.02,1.775s-9.485,3.549-12.545,5.63a6.37,6.37,0,0,0-2.754,5.508h-1.224a5.158,5.158,0,0,0-.8-4.59c-1.224-1.652-7.035-7.523-11.566-9.241,0,0,6.426-2.937,10.342.306S542.2,112.307,542.2,112.307Z" fill="#f3b612"/>
          <path id="Trazado_1028262" data-name="Trazado 1028262" d="M531.981,120.081s.49-1.285,5.324-1.9a15.9,15.9,0,0,1,8.139.948s2.945-.746,4.991.591.516,2.429-5.909,2.25S530.813,122.694,531.981,120.081Z" fill="#f3b612"/>
          <line id="Línea_3243" data-name="Línea 3243" x2="64.949" transform="translate(539.937 93.155)" fill="#008e8e"/>
          <path id="Trazado_1028263" data-name="Trazado 1028263" d="M606.028,90.544a2.6,2.6,0,0,0-2.337,1.469h-27.8a4.569,4.569,0,1,0-5.986,0h-26.9a2.611,2.611,0,1,0,0,2.284H570.78v35.575H556.415a2.036,2.036,0,0,0-2.036,2.036v.58a2.036,2.036,0,0,0,2.036,2.036h33.136a2.036,2.036,0,0,0,2.036-2.036v-.58a2.036,2.036,0,0,0-2.036-2.036H574.515V94.3h29.177a2.607,2.607,0,1,0,2.336-3.754Z" fill="#d87e13"/>
          <g id="Grupo_1186048" data-name="Grupo 1186048">
            <rect id="Rectángulo_458583" data-name="Rectángulo 458583" width="0.999" height="29.364" transform="matrix(0.944, -0.33, 0.33, 0.944, 541.047, 94.41)" fill="#d87e13"/>
          </g>
          <g id="Grupo_1186049" data-name="Grupo 1186049">
            <rect id="Rectángulo_458584" data-name="Rectángulo 458584" width="28.9" height="1" transform="matrix(0.275, -0.961, 0.961, 0.275, 531.489, 121.408)" fill="#d87e13"/>
          </g>
          <path id="Trazado_1028264" data-name="Trazado 1028264" d="M531.979,120.816h19.056a.716.716,0,0,1,.582,1.14c-1.237,1.633-4.217,4.455-10.089,4.571-5.956.117-8.937-2.888-10.142-4.586A.716.716,0,0,1,531.979,120.816Z" fill="#d87e13"/>
          <g id="Grupo_1186050" data-name="Grupo 1186050">
            <rect id="Rectángulo_458585" data-name="Rectángulo 458585" width="0.999" height="29.363" transform="matrix(0.944, -0.33, 0.33, 0.944, 606.524, 94.392)" fill="#d87e13"/>
          </g>
          <g id="Grupo_1186051" data-name="Grupo 1186051">
            <rect id="Rectángulo_458586" data-name="Rectángulo 458586" width="28.9" height="1" transform="matrix(0.275, -0.961, 0.961, 0.275, 596.969, 121.408)" fill="#d87e13"/>
          </g>
          <path id="Trazado_1028265" data-name="Trazado 1028265" d="M597.459,120.816h19.056a.716.716,0,0,1,.582,1.14c-1.237,1.633-4.217,4.455-10.089,4.571-5.956.117-8.937-2.888-10.142-4.586A.716.716,0,0,1,597.459,120.816Z" fill="#d87e13"/>
          <g id="Grupo_1186052" data-name="Grupo 1186052">
            <rect id="Rectángulo_458587" data-name="Rectángulo 458587" width="10.709" height="2.387" transform="translate(601.439 118.429)" fill="#f3b612"/>
            <rect id="Rectángulo_458588" data-name="Rectángulo 458588" width="9.608" height="2.509" transform="translate(600.827 115.92)" fill="#f3b612"/>
            <rect id="Rectángulo_458589" data-name="Rectángulo 458589" width="8.996" height="2.203" transform="translate(602.479 113.717)" fill="#f3b612"/>
            <rect id="Rectángulo_458590" data-name="Rectángulo 458590" width="8.996" height="2.203" transform="translate(601.153 111.942)" fill="#f3b612"/>
          </g>
        </g>
        <g id="Grupo_1186055" data-name="Grupo 1186055">
          <circle id="Elipse_13745" data-name="Elipse 13745" cx="21.482" cy="21.482" r="21.482" transform="translate(640.209 228.921) rotate(-76.838)" fill="#e8e1d4"/>
          <g id="Grupo_1186054" data-name="Grupo 1186054">
            <path id="Trazado_1028266" data-name="Trazado 1028266" d="M689.555,204.5h-6.307s-7.125-6.19-11.213-6.658l-17.521,15.586a2.023,2.023,0,0,0-.162,2.862l.795.887a2.023,2.023,0,0,0,2.146.569l.843-.281-.44.629a2.023,2.023,0,0,0,.147,2.506l.726.815a2.024,2.024,0,0,0,2.081.6l.757-.223-.289.5a2.023,2.023,0,0,0,.3,2.428l.716.731a2.022,2.022,0,0,0,2.331.4l.908-.442-.5.923a2.023,2.023,0,0,0,.259,2.3h0a2.013,2.013,0,0,0,2.631.357c2.386-1.585,7.258-4.86,11.392-7.9h12.147Z" fill="#f3b612"/>
            <path id="Trazado_1028267" data-name="Trazado 1028267" d="M643.988,204.5h6.307a53.2,53.2,0,0,1,5.981-4.416,7.191,7.191,0,0,1,8.569.727l14.184,12.618a2.024,2.024,0,0,1,.162,2.862l-.795.887a2.023,2.023,0,0,1-2.146.569l-.843-.281.44.629a2.023,2.023,0,0,1-.147,2.506l-.726.815a2.024,2.024,0,0,1-2.081.6l-.757-.223.29.5a2.023,2.023,0,0,1-.3,2.428l-.716.731a2.022,2.022,0,0,1-2.331.4l-.908-.442.5.923a2.023,2.023,0,0,1-.259,2.3h0a2.013,2.013,0,0,1-2.631.357c-2.387-1.585-7.258-4.86-11.392-7.9H642.236Z" fill="#fffbf2"/>
            <path id="Trazado_1028268" data-name="Trazado 1028268" d="M643.356,203.536h5.04l-2.08,18.639h-5.68Z" fill="#d87e13"/>
            <path id="Trazado_1028269" data-name="Trazado 1028269" d="M690.667,203.536h-5.04l2.08,18.639h5.68Z" fill="#d87e13"/>
            <path id="Trazado_1028270" data-name="Trazado 1028270" d="M672.035,197.843h-4.526a8.487,8.487,0,0,0-5.381,1.924l-5.279,4.329s.213,1.493,3.466,1.547,6.457-3.117,6.457-3.117a7,7,0,0,0,3.623.237C672.261,202.336,672.035,197.843,672.035,197.843Z" fill="#f3b612"/>
            <path id="Trazado_1028271" data-name="Trazado 1028271" d="M652.636,221.36s-1.263,2.046,0,2.961a2.365,2.365,0,0,0,3.157-.316c.823-.672,1.736-2.336,1.073-3.378S654.822,218.868,652.636,221.36Z" fill="#f3b612"/>
            <path id="Trazado_1028272" data-name="Trazado 1028272" d="M655.623,223.866s-1.263,2.046,0,2.961a2.365,2.365,0,0,0,3.157-.316c.823-.672,1.736-2.336,1.073-3.378S657.808,221.374,655.623,223.866Z" fill="#f3b612"/>
            <path id="Trazado_1028273" data-name="Trazado 1028273" d="M659.249,225.146s-1.263,2.046,0,2.961a2.365,2.365,0,0,0,3.157-.316c.823-.672,1.736-2.336,1.073-3.378S661.435,222.654,659.249,225.146Z" fill="#f3b612"/>
            <path id="Trazado_1028274" data-name="Trazado 1028274" d="M662.773,226.165s-1.139,1.845,0,2.671a2.132,2.132,0,0,0,2.847-.285c.742-.606,1.566-2.107.968-3.047S664.745,223.917,662.773,226.165Z" fill="#f3b612"/>
          </g>
        </g>
      </g>
    </g>
    <rect id="Rectángulo_456560" data-name="Rectángulo 456560" width="180" height="50" rx="10" transform="translate(890 16987.535) rotate(180)" fill="#f2a4ab"/>
    <path id="Trazado_1033399" data-name="Trazado 1033399" d="M45.714,17H43.222V10.3q0-1.086.094-2.4h-.062A11.8,11.8,0,0,1,42.9,9.383L40.277,17H38.214L35.542,9.461A14.67,14.67,0,0,1,35.191,7.9h-.07q.1,1.656.1,2.906V17H32.948V5.8h3.7l2.289,6.641a9.35,9.35,0,0,1,.4,1.6h.047a16.127,16.127,0,0,1,.445-1.617L42.112,5.8h3.6Zm9.532-3.3H50.028q.125,1.742,2.2,1.742a4.286,4.286,0,0,0,2.32-.625V16.6a6.1,6.1,0,0,1-2.883.594,4.058,4.058,0,0,1-3.008-1.074,4.058,4.058,0,0,1-1.07-3,4.281,4.281,0,0,1,1.156-3.156A3.852,3.852,0,0,1,51.582,8.8a3.5,3.5,0,0,1,2.707,1.039,4,4,0,0,1,.957,2.82Zm-2.289-1.516q0-1.719-1.391-1.719a1.328,1.328,0,0,0-1.027.492,2.234,2.234,0,0,0-.527,1.227Zm9.017-.961a2.142,2.142,0,0,0-1.039-.242,1.5,1.5,0,0,0-1.258.59,2.573,2.573,0,0,0-.453,1.605V17H56.755V9h2.469v1.484h.031a2.136,2.136,0,0,1,2.109-1.625,1.59,1.59,0,0,1,.609.094Zm7.188,5.484a4.881,4.881,0,0,1-2.414.484,4.083,4.083,0,0,1-2.984-1.117A3.859,3.859,0,0,1,62.623,13.2,4.251,4.251,0,0,1,63.846,9.98,4.518,4.518,0,0,1,67.115,8.8a4.2,4.2,0,0,1,2.047.375v2.094a2.814,2.814,0,0,0-1.727-.578,2.275,2.275,0,0,0-1.684.621,2.317,2.317,0,0,0-.621,1.715,2.28,2.28,0,0,0,.594,1.668,2.182,2.182,0,0,0,1.633.605,3.258,3.258,0,0,0,1.8-.578ZM77.476,17H75.14V15.852h-.031A2.607,2.607,0,0,1,72.726,17.2a2.492,2.492,0,0,1-1.832-.66,2.366,2.366,0,0,1-.668-1.762q0-2.328,2.758-2.687l2.172-.289q0-1.312-1.422-1.312a4.853,4.853,0,0,0-2.719.852V9.477a6.116,6.116,0,0,1,1.41-.469,7.413,7.413,0,0,1,1.629-.2q3.422,0,3.422,3.414Zm-2.32-3.25v-.539L73.7,13.4q-1.2.156-1.2,1.086a.9.9,0,0,0,.293.691,1.126,1.126,0,0,0,.793.27,1.462,1.462,0,0,0,1.133-.48A1.735,1.735,0,0,0,75.155,13.75ZM87.3,17H84.828V15.9H84.8a2.768,2.768,0,0,1-2.477,1.3,3.033,3.033,0,0,1-2.414-1.059,4.382,4.382,0,0,1-.914-2.957A4.77,4.77,0,0,1,80,10a3.287,3.287,0,0,1,2.641-1.2A2.246,2.246,0,0,1,84.8,9.914h.031V5.156H87.3Zm-2.422-3.891v-.6a1.893,1.893,0,0,0-.453-1.3,1.6,1.6,0,0,0-2.461.129,2.993,2.993,0,0,0-.461,1.77,2.59,2.59,0,0,0,.445,1.625A1.581,1.581,0,0,0,84.4,14.7,2.507,2.507,0,0,0,84.875,13.109ZM93.228,17.2a4.3,4.3,0,0,1-3.145-1.121,4.064,4.064,0,0,1-1.145-3.043,4.065,4.065,0,0,1,1.188-3.105A4.487,4.487,0,0,1,93.337,8.8a4.249,4.249,0,0,1,3.125,1.121,3.985,3.985,0,0,1,1.133,2.965,4.23,4.23,0,0,1-1.168,3.148A4.348,4.348,0,0,1,93.228,17.2Zm.063-6.5a1.647,1.647,0,0,0-1.359.6,2.653,2.653,0,0,0-.484,1.7q0,2.3,1.859,2.3,1.773,0,1.773-2.367Q95.079,10.7,93.29,10.7Zm5.423,6.094v-2a5.256,5.256,0,0,0,1.215.547,4.028,4.028,0,0,0,1.145.18,2.455,2.455,0,0,0,1.035-.18.581.581,0,0,0,.379-.547.506.506,0,0,0-.172-.391,1.6,1.6,0,0,0-.441-.273,5.009,5.009,0,0,0-.59-.211q-.32-.094-.617-.211a5.913,5.913,0,0,1-.84-.387,2.427,2.427,0,0,1-.609-.48,1.889,1.889,0,0,1-.375-.633,2.525,2.525,0,0,1-.129-.852,2.192,2.192,0,0,1,.293-1.156,2.393,2.393,0,0,1,.781-.793,3.57,3.57,0,0,1,1.117-.453,5.825,5.825,0,0,1,1.309-.145,7.261,7.261,0,0,1,1.078.082,8.047,8.047,0,0,1,1.078.238v1.906a3.9,3.9,0,0,0-1-.41,4.235,4.235,0,0,0-1.051-.137,2.328,2.328,0,0,0-.457.043,1.505,1.505,0,0,0-.379.125.7.7,0,0,0-.258.211.486.486,0,0,0-.094.293.541.541,0,0,0,.141.375,1.221,1.221,0,0,0,.367.27,3.625,3.625,0,0,0,.5.2q.277.09.551.184a7.161,7.161,0,0,1,.891.375,2.848,2.848,0,0,1,.684.477,1.872,1.872,0,0,1,.438.641,2.563,2.563,0,0,1-.156,2.09,2.471,2.471,0,0,1-.82.82,3.72,3.72,0,0,1-1.18.461,6.54,6.54,0,0,1-1.387.145A7.149,7.149,0,0,1,98.713,16.789ZM118.6,17h-2.469V15.9H116.1a2.768,2.768,0,0,1-2.477,1.3,3.033,3.033,0,0,1-2.414-1.059,4.382,4.382,0,0,1-.914-2.957A4.77,4.77,0,0,1,111.3,10a3.287,3.287,0,0,1,2.641-1.2A2.246,2.246,0,0,1,116.1,9.914h.031V5.156H118.6Zm-2.422-3.891v-.6a1.893,1.893,0,0,0-.453-1.3,1.6,1.6,0,0,0-2.461.129,2.993,2.993,0,0,0-.461,1.77,2.59,2.59,0,0,0,.445,1.625A1.581,1.581,0,0,0,115.7,14.7,2.507,2.507,0,0,0,116.176,13.109ZM127.9,13.7h-5.219q.125,1.742,2.2,1.742a4.286,4.286,0,0,0,2.32-.625V16.6a6.1,6.1,0,0,1-2.883.594,4.058,4.058,0,0,1-3.008-1.074,4.058,4.058,0,0,1-1.07-3A4.281,4.281,0,0,1,121.4,9.969,3.852,3.852,0,0,1,124.239,8.8a3.5,3.5,0,0,1,2.707,1.039,4,4,0,0,1,.957,2.82Zm-2.289-1.516q0-1.719-1.391-1.719a1.328,1.328,0,0,0-1.027.492,2.234,2.234,0,0,0-.527,1.227ZM56.071,34.711a4.881,4.881,0,0,1-2.414.484,4.083,4.083,0,0,1-2.984-1.117A3.859,3.859,0,0,1,49.532,31.2a4.251,4.251,0,0,1,1.223-3.215,4.518,4.518,0,0,1,3.27-1.176,4.2,4.2,0,0,1,2.047.375v2.094a2.814,2.814,0,0,0-1.727-.578,2.275,2.275,0,0,0-1.684.621,2.317,2.317,0,0,0-.621,1.715,2.28,2.28,0,0,0,.594,1.668,2.182,2.182,0,0,0,1.633.605,3.258,3.258,0,0,0,1.8-.578ZM64.385,35H62.049V33.852h-.031A2.607,2.607,0,0,1,59.635,35.2a2.492,2.492,0,0,1-1.832-.66,2.366,2.366,0,0,1-.668-1.762q0-2.328,2.758-2.687l2.172-.289q0-1.312-1.422-1.312a4.853,4.853,0,0,0-2.719.852V27.477a6.116,6.116,0,0,1,1.41-.469,7.413,7.413,0,0,1,1.629-.2q3.422,0,3.422,3.414Zm-2.32-3.25v-.539l-1.453.188q-1.2.156-1.2,1.086a.9.9,0,0,0,.293.691,1.126,1.126,0,0,0,.793.27,1.462,1.462,0,0,0,1.133-.48A1.735,1.735,0,0,0,62.065,31.75ZM71.6,29.227a2.141,2.141,0,0,0-1.039-.242,1.5,1.5,0,0,0-1.258.59,2.573,2.573,0,0,0-.453,1.605V35H66.378V27h2.469v1.484h.031a2.136,2.136,0,0,1,2.109-1.625,1.59,1.59,0,0,1,.609.094Zm3.688,4.844h-.031V35H72.785V23.156h2.469V28.2h.031a2.929,2.929,0,0,1,2.6-1.4,2.855,2.855,0,0,1,2.383,1.063,4.582,4.582,0,0,1,.836,2.906,4.962,4.962,0,0,1-.977,3.211A3.181,3.181,0,0,1,77.52,35.2,2.521,2.521,0,0,1,75.285,34.07Zm-.07-3.375v.82A1.872,1.872,0,0,0,75.66,32.8,1.449,1.449,0,0,0,76.8,33.3a1.514,1.514,0,0,0,1.309-.652,3.15,3.15,0,0,0,.465-1.848,2.506,2.506,0,0,0-.426-1.551,1.437,1.437,0,0,0-1.215-.559,1.569,1.569,0,0,0-1.23.555A2.107,2.107,0,0,0,75.215,30.7ZM86.56,35.2a4.3,4.3,0,0,1-3.145-1.121,4.064,4.064,0,0,1-1.145-3.043,4.065,4.065,0,0,1,1.188-3.105A4.487,4.487,0,0,1,86.669,26.8a4.249,4.249,0,0,1,3.125,1.121,3.985,3.985,0,0,1,1.133,2.965,4.23,4.23,0,0,1-1.168,3.148A4.348,4.348,0,0,1,86.56,35.2Zm.063-6.5a1.647,1.647,0,0,0-1.359.6,2.653,2.653,0,0,0-.484,1.7q0,2.3,1.859,2.3,1.773,0,1.773-2.367Q88.411,28.7,86.622,28.7ZM100.295,35H97.834V30.555q0-1.859-1.328-1.859a1.318,1.318,0,0,0-1.055.492,1.875,1.875,0,0,0-.414,1.25V35H92.568V27h2.469v1.266h.031a2.829,2.829,0,0,1,2.57-1.461q2.656,0,2.656,3.3Zm5.806.2a4.3,4.3,0,0,1-3.145-1.121,4.064,4.064,0,0,1-1.145-3.043A4.065,4.065,0,0,1,103,27.926,4.487,4.487,0,0,1,106.21,26.8a4.249,4.249,0,0,1,3.125,1.121,3.985,3.985,0,0,1,1.133,2.965,4.23,4.23,0,0,1-1.168,3.148A4.348,4.348,0,0,1,106.1,35.2Zm.063-6.5a1.647,1.647,0,0,0-1.359.6,2.653,2.653,0,0,0-.484,1.7q0,2.3,1.859,2.3,1.773,0,1.773-2.367Q107.952,28.7,106.163,28.7Z" transform="translate(720 16942.035)" fill="#12263f"/>
    <rect id="Rectángulo_456560-2" data-name="Rectángulo 456560" width="180" height="50" rx="10" transform="translate(690 16988) rotate(180)" fill="#f2a4ab"/>
    <path id="Trazado_1033398" data-name="Trazado 1033398" d="M24.245,17V5.8h4.078a5.093,5.093,0,0,1,2.883.688,2.211,2.211,0,0,1,1.008,1.938,2.293,2.293,0,0,1-.613,1.586,3.222,3.222,0,0,1-1.566.945v.031a3.1,3.1,0,0,1,1.91.883,2.469,2.469,0,0,1,.715,1.789,2.99,2.99,0,0,1-1.1,2.441,4.61,4.61,0,0,1-3.008.9Zm2.523-9.344v2.656h1.109a1.849,1.849,0,0,0,1.23-.379,1.291,1.291,0,0,0,.449-1.043q0-1.234-1.844-1.234Zm0,4.531v2.953h1.367a2.1,2.1,0,0,0,1.371-.406,1.357,1.357,0,0,0,.5-1.109,1.266,1.266,0,0,0-.488-1.055,2.16,2.16,0,0,0-1.363-.383Zm8.782-4.453a1.442,1.442,0,0,1-1.023-.371,1.2,1.2,0,0,1-.4-.91,1.153,1.153,0,0,1,.4-.906,1.671,1.671,0,0,1,2.051,0,1.158,1.158,0,0,1,.395.906,1.191,1.191,0,0,1-.395.922A1.466,1.466,0,0,1,35.551,7.734ZM36.77,17H34.3V9H36.77Zm5.931.2a4.3,4.3,0,0,1-3.145-1.121,4.064,4.064,0,0,1-1.145-3.043A4.065,4.065,0,0,1,39.6,9.926,4.487,4.487,0,0,1,42.81,8.8a4.249,4.249,0,0,1,3.125,1.121,3.985,3.985,0,0,1,1.133,2.965A4.23,4.23,0,0,1,45.9,16.039,4.348,4.348,0,0,1,42.7,17.2Zm.063-6.5a1.647,1.647,0,0,0-1.359.6,2.653,2.653,0,0,0-.484,1.7q0,2.3,1.859,2.3,1.773,0,1.773-2.367Q44.552,10.7,42.763,10.7Zm12.009,6.016a4.881,4.881,0,0,1-2.414.484,4.083,4.083,0,0,1-2.984-1.117A3.859,3.859,0,0,1,48.232,13.2,4.251,4.251,0,0,1,49.455,9.98,4.518,4.518,0,0,1,52.725,8.8a4.2,4.2,0,0,1,2.047.375v2.094a2.814,2.814,0,0,0-1.727-.578,2.275,2.275,0,0,0-1.684.621,2.317,2.317,0,0,0-.621,1.715,2.28,2.28,0,0,0,.594,1.668,2.182,2.182,0,0,0,1.633.605,3.258,3.258,0,0,0,1.8-.578Zm5.47.484A4.3,4.3,0,0,1,57.1,16.074a4.064,4.064,0,0,1-1.145-3.043A4.065,4.065,0,0,1,57.14,9.926,4.487,4.487,0,0,1,60.351,8.8a4.249,4.249,0,0,1,3.125,1.121,3.985,3.985,0,0,1,1.133,2.965,4.23,4.23,0,0,1-1.168,3.148A4.348,4.348,0,0,1,60.241,17.2Zm.063-6.5a1.647,1.647,0,0,0-1.359.6A2.653,2.653,0,0,0,58.46,13q0,2.3,1.859,2.3,1.773,0,1.773-2.367Q62.093,10.7,60.3,10.7ZM78.953,17H76.492V12.438q0-1.742-1.281-1.742a1.177,1.177,0,0,0-.992.523,2.151,2.151,0,0,0-.383,1.3V17H71.367V12.391q0-1.7-1.258-1.7a1.206,1.206,0,0,0-1.012.5,2.2,2.2,0,0,0-.379,1.359V17H66.25V9h2.469v1.25h.031A3.031,3.031,0,0,1,71.336,8.8a2.3,2.3,0,0,1,2.32,1.492A2.959,2.959,0,0,1,76.344,8.8q2.609,0,2.609,3.219Zm9.181-3.3H82.915q.125,1.742,2.2,1.742a4.286,4.286,0,0,0,2.32-.625V16.6a6.1,6.1,0,0,1-2.883.594,4.058,4.058,0,0,1-3.008-1.074,4.058,4.058,0,0,1-1.07-3,4.281,4.281,0,0,1,1.156-3.156A3.852,3.852,0,0,1,84.47,8.8a3.5,3.5,0,0,1,2.707,1.039,4,4,0,0,1,.957,2.82Zm-2.289-1.516q0-1.719-1.391-1.719a1.328,1.328,0,0,0-1.027.492,2.234,2.234,0,0,0-.527,1.227Zm9.017-.961a2.141,2.141,0,0,0-1.039-.242,1.5,1.5,0,0,0-1.258.59,2.573,2.573,0,0,0-.453,1.605V17H89.643V9h2.469v1.484h.031a2.136,2.136,0,0,1,2.109-1.625,1.59,1.59,0,0,1,.609.094Zm7.188,5.484a4.881,4.881,0,0,1-2.414.484,4.083,4.083,0,0,1-2.984-1.117A3.859,3.859,0,0,1,95.511,13.2,4.251,4.251,0,0,1,96.733,9.98,4.518,4.518,0,0,1,100,8.8a4.2,4.2,0,0,1,2.047.375v2.094a2.814,2.814,0,0,0-1.727-.578,2.275,2.275,0,0,0-1.684.621,2.317,2.317,0,0,0-.621,1.715,2.28,2.28,0,0,0,.594,1.668,2.182,2.182,0,0,0,1.633.605,3.258,3.258,0,0,0,1.8-.578Zm2.907-8.977a1.442,1.442,0,0,1-1.023-.371,1.2,1.2,0,0,1-.4-.91,1.153,1.153,0,0,1,.4-.906,1.671,1.671,0,0,1,2.051,0,1.158,1.158,0,0,1,.395.906,1.191,1.191,0,0,1-.395.922A1.466,1.466,0,0,1,104.957,7.734ZM106.176,17h-2.469V9h2.469Zm5.931.2a4.3,4.3,0,0,1-3.145-1.121,4.064,4.064,0,0,1-1.145-3.043A4.065,4.065,0,0,1,109,9.926,4.487,4.487,0,0,1,112.216,8.8a4.249,4.249,0,0,1,3.125,1.121,3.985,3.985,0,0,1,1.133,2.965,4.23,4.23,0,0,1-1.168,3.148A4.348,4.348,0,0,1,112.106,17.2Zm.063-6.5a1.647,1.647,0,0,0-1.359.6,2.653,2.653,0,0,0-.484,1.7q0,2.3,1.859,2.3,1.773,0,1.773-2.367Q113.958,10.7,112.169,10.7Z" transform="translate(530 16953)" fill="#12263f"/>
    <rect id="Rectángulo_456560-3" data-name="Rectángulo 456560" width="180" height="50" rx="10" transform="translate(1090 16987.535) rotate(180)" fill="#f2a4ab"/>
    <path id="Trazado_1033400" data-name="Trazado 1033400" d="M35.652,17H28.933V5.8h6.461V7.852H31.457v2.492h3.664v2.047H31.457v2.563h4.2Zm7.657-.289A4.881,4.881,0,0,1,40.9,17.2a4.083,4.083,0,0,1-2.984-1.117A3.859,3.859,0,0,1,36.77,13.2,4.251,4.251,0,0,1,37.993,9.98,4.518,4.518,0,0,1,41.262,8.8a4.2,4.2,0,0,1,2.047.375v2.094a2.814,2.814,0,0,0-1.727-.578,2.275,2.275,0,0,0-1.684.621,2.317,2.317,0,0,0-.621,1.715,2.28,2.28,0,0,0,.594,1.668A2.182,2.182,0,0,0,41.5,15.3a3.258,3.258,0,0,0,1.8-.578Zm5.47.484a4.3,4.3,0,0,1-3.145-1.121,4.064,4.064,0,0,1-1.145-3.043,4.065,4.065,0,0,1,1.188-3.105A4.487,4.487,0,0,1,48.888,8.8a4.249,4.249,0,0,1,3.125,1.121,3.985,3.985,0,0,1,1.133,2.965,4.23,4.23,0,0,1-1.168,3.148A4.348,4.348,0,0,1,48.779,17.2Zm.063-6.5a1.647,1.647,0,0,0-1.359.6A2.653,2.653,0,0,0,47,13q0,2.3,1.859,2.3,1.773,0,1.773-2.367Q50.63,10.7,48.841,10.7Zm10.782,6.211a3.649,3.649,0,0,1-1.648.289q-2.609,0-2.609-2.711V10.82h-1.3V9h1.3V7.273l2.461-.7V9h1.8v1.82h-1.8v3.234q0,1.25.992,1.25a1.673,1.673,0,0,0,.8-.227ZM68.656,17H66.195V15.781h-.039A2.792,2.792,0,0,1,63.71,17.2q-2.781,0-2.781-3.367V9H63.39v4.609q0,1.7,1.344,1.7A1.329,1.329,0,0,0,65.8,14.84a1.874,1.874,0,0,0,.4-1.262V9h2.461Zm7.337-5.773a2.141,2.141,0,0,0-1.039-.242,1.5,1.5,0,0,0-1.258.59,2.573,2.573,0,0,0-.453,1.605V17H70.774V9h2.469v1.484h.031a2.136,2.136,0,0,1,2.109-1.625,1.59,1.59,0,0,1,.609.094Zm2.5-3.492a1.442,1.442,0,0,1-1.023-.371,1.2,1.2,0,0,1-.4-.91,1.153,1.153,0,0,1,.4-.906,1.671,1.671,0,0,1,2.051,0,1.158,1.158,0,0,1,.395.906,1.191,1.191,0,0,1-.395.922A1.466,1.466,0,0,1,78.494,7.734ZM79.712,17H77.244V9h2.469Zm1.595-.211v-2a5.256,5.256,0,0,0,1.215.547,4.028,4.028,0,0,0,1.145.18,2.455,2.455,0,0,0,1.035-.18.581.581,0,0,0,.379-.547.506.506,0,0,0-.172-.391,1.6,1.6,0,0,0-.441-.273,5.009,5.009,0,0,0-.59-.211q-.32-.094-.617-.211a5.913,5.913,0,0,1-.84-.387,2.427,2.427,0,0,1-.609-.48,1.889,1.889,0,0,1-.375-.633,2.525,2.525,0,0,1-.129-.852A2.192,2.192,0,0,1,81.6,10.2a2.393,2.393,0,0,1,.781-.793A3.57,3.57,0,0,1,83.5,8.949,5.825,5.825,0,0,1,84.807,8.8a7.261,7.261,0,0,1,1.078.082,8.047,8.047,0,0,1,1.078.238v1.906a3.9,3.9,0,0,0-1-.41,4.235,4.235,0,0,0-1.051-.137,2.328,2.328,0,0,0-.457.043,1.505,1.505,0,0,0-.379.125.7.7,0,0,0-.258.211.486.486,0,0,0-.094.293.541.541,0,0,0,.141.375,1.221,1.221,0,0,0,.367.27,3.625,3.625,0,0,0,.5.2q.277.09.551.184a7.161,7.161,0,0,1,.891.375,2.848,2.848,0,0,1,.684.477,1.872,1.872,0,0,1,.438.641,2.563,2.563,0,0,1-.156,2.09,2.471,2.471,0,0,1-.82.82,3.72,3.72,0,0,1-1.18.461,6.54,6.54,0,0,1-1.387.145A7.149,7.149,0,0,1,81.307,16.789ZM101.613,17H99.152V12.438q0-1.742-1.281-1.742a1.177,1.177,0,0,0-.992.523,2.151,2.151,0,0,0-.383,1.3V17H94.027V12.391q0-1.7-1.258-1.7a1.206,1.206,0,0,0-1.012.5,2.2,2.2,0,0,0-.379,1.359V17H88.91V9h2.469v1.25h.031A3.031,3.031,0,0,1,94,8.8a2.3,2.3,0,0,1,2.32,1.492A2.959,2.959,0,0,1,99,8.8q2.609,0,2.609,3.219Zm5.806.2a4.3,4.3,0,0,1-3.145-1.121,4.064,4.064,0,0,1-1.145-3.043,4.065,4.065,0,0,1,1.188-3.105A4.487,4.487,0,0,1,107.528,8.8a4.249,4.249,0,0,1,3.125,1.121,3.985,3.985,0,0,1,1.133,2.965,4.23,4.23,0,0,1-1.168,3.148A4.348,4.348,0,0,1,107.418,17.2Zm.063-6.5a1.647,1.647,0,0,0-1.359.6,2.653,2.653,0,0,0-.484,1.7q0,2.3,1.859,2.3,1.773,0,1.773-2.367Q109.27,10.7,107.481,10.7Z" transform="translate(930 16953.535)" fill="#12263f"/>
  </g>
</svg>
