<svg xmlns="http://www.w3.org/2000/svg" width="400" height="740" viewBox="0 0 400 740">
  <g id="Grupo_1186064" data-name="Grupo 1186064" transform="translate(8546 -4782.791)">
    <rect id="Rectángulo_456414" data-name="Rectángulo 456414" width="400" height="740" rx="10" transform="translate(-8546 4782.791)" fill="#fff7e8"/>
    <g id="OBJECT" transform="translate(-8564.53 4775.388)">
      <g id="Grupo_1186038" data-name="Grupo 1186038" transform="translate(41.53 62.256)">
        <path id="Trazado_1028152" data-name="Trazado 1028152" d="M401.869,438.34H76.777a3.246,3.246,0,0,1-3.246-3.246v-.924a3.246,3.246,0,0,1,3.246-3.246H401.869a3.246,3.246,0,0,1,3.246,3.246v.924A3.246,3.246,0,0,1,401.869,438.34Z" transform="translate(-56.532 -237.449)" fill="#c1b6a3"/>
        <path id="Trazado_1028153" data-name="Trazado 1028153" d="M103.625,259.964s-25.316-13.191-21.962-63.006,37.313-72.971,69.175-89.692,50.633-43.972,103.086-40.2,101.554,48.5,115.993,77.5,21.5,51.49,15.244,79.441" transform="translate(-60.2 -66.713)" fill="none" stroke="#ececec" stroke-miterlimit="10" stroke-width="1"/>
        <path id="Trazado_1028154" data-name="Trazado 1028154" d="M90.089,390.518H75.618s-4.043.924-15.565-10.247C42.746,363.484,41.53,344.615,41.53,344.615s10.885-2.619,25.913,6.8c13.142,8.239,20.617,31.969,22.285,37.8.112.377.191.675.255.892Z" transform="translate(-41.53 -196.832)" fill="#c9c411"/>
        <path id="Trazado_1028155" data-name="Trazado 1028155" d="M90.089,389.92c-.037.165-.069.324-.106.483-.032.138-.064.276-.1.409H75.618s-4.043.924-15.565-10.247C42.746,363.779,41.53,344.91,41.53,344.91c13.53,5.307,44.527,40.4,48.2,44.6C89.966,389.777,90.089,389.92,90.089,389.92Z" transform="translate(-41.53 -197.127)" fill="#b2aa0f"/>
        <path id="Trazado_1028156" data-name="Trazado 1028156" d="M619.039,339.6s-3.209-17.6,7.294-31.9,21.589-15.866,21.589-15.866,2.626,22.868-4.668,37.163-18.38,20.493-18.38,20.493Z" transform="translate(-312.04 -172.248)" fill="#f3b612"/>
        <path id="Trazado_1028157" data-name="Trazado 1028157" d="M273.692,81.316c-16.545-3.976-65.366-8.5-98.1,27.1S109.024,141.44,95.02,181.525s13.127,84.04,13.127,84.04H379.18s17.5-49.895-2.917-93.6S305.255,88.9,273.692,81.316Z" transform="translate(-64.724 -72.315)" fill="#fbf9ac"/>
        <g id="Grupo_1186035" data-name="Grupo 1186035" transform="translate(42.37 56.662)">
          <path id="Trazado_1028158" data-name="Trazado 1028158" d="M171.776,251.286c-10.829,0-15.4-9.259-15.4-22.648v-9.112c0-12.421,3.727-21.284,13.294-22.494a17.244,17.244,0,0,1,2.347-.154c5.1,0,8.921,2.091,11.365,5.767v.007c2.113,3.177,3.2,7.527,3.2,12.744h25.393c0-22.817-10.976-36.809-28.591-40.814a50.431,50.431,0,0,0-11.247-1.2q-1.255,0-2.465.044c-26.662.983-40.491,18.18-40.491,50.661,0,33.47,14.681,50.7,42.957,50.7,25.275,0,39.839-14.527,39.839-41.446H187.426C187.426,244.6,182.246,251.286,171.776,251.286Z" transform="translate(-124.989 -173.377)" fill="#dcdb22"/>
          <path id="Trazado_1028159" data-name="Trazado 1028159" d="M163.888,255.468c-10.829,0-15.4-9.259-15.4-22.648v-9.112c0-12.421,3.727-21.284,13.294-22.494a17.247,17.247,0,0,1,2.348-.154c5.1,0,8.921,2.091,11.365,5.767v.007c2.113,3.177,3.2,7.527,3.2,12.744h25.393c0-22.817-10.976-36.809-28.591-40.814a50.432,50.432,0,0,0-11.247-1.2q-1.255,0-2.465.044c-26.662.983-40.491,18.18-40.491,50.661,0,33.47,14.681,50.7,42.957,50.7,25.275,0,39.839-14.527,39.839-41.446H179.538C179.537,248.777,174.357,255.468,163.888,255.468Z" transform="translate(-121.291 -175.337)" fill="none" stroke="#fff" stroke-miterlimit="10" stroke-width="1"/>
          <path id="Trazado_1028160" data-name="Trazado 1028160" d="M380.07,203.572v1.709H355.159v-.569c0-5.127-3.009-9.97-10.711-9.97-7.341,0-10.951,2.991-10.951,6.41,0,14.67,48.257,3.134,48.859,39.453,0,24.355-15.644,34.183-36.464,34.183-23.226,0-40.916-6.979-40.916-34.9h25.152c0,10.54,5.175,12.391,13.359,12.391,4.813,0,11.673-.428,11.673-6.552,0-14.1-48.859-2.848-48.859-41.02,0-22.789,17.57-31.334,37.186-31.334C363.462,173.377,379.709,182.635,380.07,203.572Z" transform="translate(-207.399 -173.377)" fill="#dcdb22"/>
          <path id="Trazado_1028161" data-name="Trazado 1028161" d="M385.448,209.555v1.709H360.537v-.569c0-5.127-3.009-9.97-10.711-9.97-7.341,0-10.951,2.991-10.951,6.41,0,14.67,48.257,3.134,48.859,39.453,0,24.355-15.644,34.183-36.463,34.183-23.226,0-40.916-6.979-40.916-34.9h25.151c0,10.54,5.175,12.391,13.358,12.391,4.813,0,11.673-.428,11.673-6.552,0-14.1-48.859-2.848-48.859-41.02,0-22.789,17.57-31.334,37.186-31.334C368.841,179.36,385.087,188.618,385.448,209.555Z" transform="translate(-209.921 -176.182)" fill="none" stroke="#fff" stroke-miterlimit="10" stroke-width="1"/>
          <path id="Trazado_1028162" data-name="Trazado 1028162" d="M538.14,233.566l18.413,41.02H526.708l-14.682-35.749h-9.868v35.749h-26.6V176.6h50.664c18.413,0,27.92,14.1,27.92,30.053C554.146,218.042,548.851,228.866,538.14,233.566Zm-18.533-34.61H502.158v18.088h17.449c4.092,0,7.461-3.845,7.461-9.116S523.7,198.956,519.608,198.956Z" transform="translate(-287.367 -174.886)" fill="#dcdb22"/>
          <path id="Trazado_1028163" data-name="Trazado 1028163" d="M545.72,239.549l18.413,41.02H534.288L519.606,244.82h-9.868v35.749h-26.6V182.578h50.664c18.412,0,27.92,14.1,27.92,30.053C561.725,224.025,556.43,234.849,545.72,239.549Zm-18.533-34.61h-17.45v18.088h17.45c4.092,0,7.461-3.846,7.461-9.116S531.279,204.939,527.187,204.939Z" transform="translate(-290.921 -177.69)" fill="none" stroke="#fff" stroke-miterlimit="10" stroke-width="1"/>
        </g>
        <path id="Trazado_1028164" data-name="Trazado 1028164" d="M128.1,408.2h5.992s6.4-8.633,4.57-16.25-5.586-10.156-5.586-10.156-6.4,4.469-8.023,11.679S128.1,408.2,128.1,408.2Z" transform="translate(-80.522 -214.416)" fill="#ed910e"/>
        <path id="Trazado_1028165" data-name="Trazado 1028165" d="M110.352,417.7h13.914s-1.625-12.492-13.406-15.641C110.86,402.056,105.985,408.352,110.352,417.7Z" transform="translate(-72.941 -223.916)" fill="#f3b612"/>
        <circle id="Elipse_13739" data-name="Elipse 13739" cx="7.306" cy="7.306" r="7.306" transform="translate(46.561 140.144)" fill="#fffbf2"/>
        <g id="Grupo_1186036" data-name="Grupo 1186036" transform="translate(235.958 171.295)">
          <rect id="Rectángulo_458578" data-name="Rectángulo 458578" width="18.63" height="4.436" fill="#f3b612"/>
          <rect id="Rectángulo_458579" data-name="Rectángulo 458579" width="18.63" height="4.436" transform="translate(2.505 4.436)" fill="#ed910e"/>
          <rect id="Rectángulo_458580" data-name="Rectángulo 458580" width="18.63" height="4.436" transform="translate(1.153 8.872)" fill="#f3b612"/>
          <rect id="Rectángulo_458581" data-name="Rectángulo 458581" width="18.63" height="4.436" transform="translate(1.828 13.308)" fill="#ed910e"/>
          <rect id="Rectángulo_458582" data-name="Rectángulo 458582" width="18.63" height="4.436" transform="translate(3.18 17.743)" fill="#f3b612"/>
        </g>
        <circle id="Elipse_13740" data-name="Elipse 13740" cx="5.008" cy="5.008" r="5.008" transform="translate(35.098 74.551)" fill="#dcdb22"/>
        <path id="Trazado_1028166" data-name="Trazado 1028166" d="M127.714,248.583h22.465a9.035,9.035,0,0,0-6.273-5.106c-4.58-.9-6.419,1.313-6.419,1.313s-1.167-4.959-8.169-4.959-9.628,8.752-9.628,8.752Z" transform="translate(-78.17 -147.868)" fill="#fff"/>
        <path id="Trazado_1028167" data-name="Trazado 1028167" d="M651.9,266.47h22.465a9.035,9.035,0,0,0-6.273-5.106c-4.58-.9-6.418,1.313-6.418,1.313s-1.167-4.959-8.169-4.959-9.628,8.752-9.628,8.752H651.9Z" transform="translate(-323.899 -156.253)" fill="#e8e1d4"/>
        <path id="Trazado_1028168" data-name="Trazado 1028168" d="M665.62,344.144s-1.214,18.872-18.526,35.657c-11.524,11.172-15.559,10.249-15.559,10.249H617.062s2.33-26.045,22.641-39.1C654.631,341.359,665.62,344.144,665.62,344.144Z" transform="translate(-311.33 -196.592)" fill="#b2aa0f"/>
        <g id="Grupo_1186037" data-name="Grupo 1186037" transform="translate(137.073 176.076)">
          <path id="Trazado_1028169" data-name="Trazado 1028169" d="M308.54,414.313s-.576-1.31-1.992-4.3a18.212,18.212,0,0,0-3.459-4.926A8.335,8.335,0,0,1,307.7,407.5a7.215,7.215,0,0,1,1.887,4.245s-.262-10.009-1.31-13.573c0,0,2.463,1.415,3.669,5.712a14.306,14.306,0,0,1,0,7.808,8.644,8.644,0,0,1,5.817-4.769l-4.454,7.966Z" transform="translate(-301.217 -398.172)" fill="#c9c411"/>
          <path id="Trazado_1028170" data-name="Trazado 1028170" d="M299.565,428.332s.575-1.79,4.335-2.865c3.669-1.048,7.022,1.432,7.022,1.432a6.191,6.191,0,0,1,4.192-1.223,5.215,5.215,0,0,1,4.559,2.655H299.565Z" transform="translate(-299.565 -410.846)" fill="#b2aa0f"/>
        </g>
        <path id="Trazado_1028171" data-name="Trazado 1028171" d="M502.854,150.773a2.975,2.975,0,1,1-2.975-2.975A2.975,2.975,0,0,1,502.854,150.773Z" transform="translate(-255.002 -104.724)" fill="none" stroke="#008e8e" stroke-miterlimit="10" stroke-width="1"/>
        <circle id="Elipse_13741" data-name="Elipse 13741" cx="2.781" cy="2.781" r="2.781" transform="translate(129.32 61.443)" fill="none" stroke="#008e8e" stroke-miterlimit="10" stroke-width="1"/>
        <path id="Trazado_1028172" data-name="Trazado 1028172" d="M671.73,344.476s-1.214,18.872-18.526,35.657c-11.524,11.172-15.559,10.249-15.559,10.249H630.1c.473-1.438,3.884-11.111,13.593-23.132C654.218,354.21,671.73,344.476,671.73,344.476Z" transform="translate(-317.44 -196.924)" fill="#c9c411"/>
        <circle id="Elipse_13742" data-name="Elipse 13742" cx="4.421" cy="4.421" r="4.421" transform="translate(71.785 51.247) rotate(-76.714)" fill="#e8e1d4"/>
        <circle id="Elipse_13743" data-name="Elipse 13743" cx="6.052" cy="6.052" r="6.052" transform="translate(338.419 141.303) rotate(-80.747)" fill="#e8e1d4"/>
        <path id="Trazado_1028173" data-name="Trazado 1028173" d="M624.141,170.331a3.451,3.451,0,1,1-3.45-3.45A3.451,3.451,0,0,1,624.141,170.331Z" transform="translate(-311.413 -113.67)" fill="#f3b612"/>
      </g>
      <g id="Grupo_1186043" data-name="Grupo 1186043" transform="translate(88.698 57.205)">
        <g id="Grupo_1186039" data-name="Grupo 1186039" transform="translate(186.892 49.828)">
          <path id="Trazado_1028174" data-name="Trazado 1028174" d="M572.483,424.17l-3.116.787a23.085,23.085,0,0,1-5.233.705c-3.066.056-7.65.106-7.762-.131-.637-1.349.924-2.535,5.177-4.6.013-.006.031-.012.044-.019,4.284-2.073,4.215-3.278,4.215-3.278l6.307.431.412,1.5.843,3.072A1.236,1.236,0,0,1,572.483,424.17Z" transform="translate(-516.875 -275.998)" fill="#c67466"/>
          <path id="Trazado_1028175" data-name="Trazado 1028175" d="M572.483,425.878l-3.116.787a23.085,23.085,0,0,1-5.233.705c-3.066.056-7.65.106-7.762-.131-.637-1.349.924-2.535,5.177-4.6a8.472,8.472,0,0,0,3.815.943c3,.237,5.139-1.8,7.162-2.3l.843,3.072A1.236,1.236,0,0,1,572.483,425.878Z" transform="translate(-516.875 -277.705)" fill="#332a23"/>
          <path id="Trazado_1028176" data-name="Trazado 1028176" d="M531.469,264.034l-7,8.137,4.789,2.676,8.057-7.895Z" transform="translate(-501.982 -203.991)" fill="#ff9279"/>
          <path id="Trazado_1028177" data-name="Trazado 1028177" d="M550.988,229.637a7.972,7.972,0,0,1-.51,2.5,21.624,21.624,0,0,1-8.388,9.9l-1.546-1.084-4.744-3.331,5.62-8.569c.367-2.885.956-6.784,1.53-10.454.754-4.77,1.487-9.158,1.711-10.465.042-.255.064-.393.064-.393S551.476,221.849,550.988,229.637Z" transform="translate(-507.295 -177.601)" fill="#ffc2ac"/>
          <path id="Trazado_1028178" data-name="Trazado 1028178" d="M555.174,229.984a7.97,7.97,0,0,1-.51,2.5,21.623,21.623,0,0,1-8.388,9.9L544.73,241.3c1.62-1.562,5.562-5.918,5.684-11.5a21.251,21.251,0,0,0-3.278-10.853c.754-4.77,1.487-9.158,1.711-10.465C550.43,212.608,554.281,223.131,555.174,229.984Z" transform="translate(-511.481 -177.948)" fill="#edac98"/>
          <path id="Trazado_1028179" data-name="Trazado 1028179" d="M555.359,362.67l9.183,29.168h7.279s-.92-22.793-4.519-30.012S555.359,362.67,555.359,362.67Z" transform="translate(-516.464 -248.427)" fill="#c67466"/>
          <path id="Trazado_1028180" data-name="Trazado 1028180" d="M577.862,363.556c1.074,11.048,9.667,28.693,9.667,28.693h6.751s-4.3-26.161-5.294-29.806C588.986,362.444,576.788,352.509,577.862,363.556Z" transform="translate(-526.981 -248.2)" fill="#ff9279"/>
          <path id="Trazado_1028181" data-name="Trazado 1028181" d="M577.023,240.826c-17.371,6.353-14.736-6.906-14.736-6.906s-7.256-14.077-9.891-24.781a23.68,23.68,0,0,1-.877-7.777c.8-7.049,3.347-10.162,3.347-10.162l6.534-4a12.73,12.73,0,0,1,4.3,1.2,21.188,21.188,0,0,1,7.745,6.136,14.961,14.961,0,0,1,1.328,1.976c2.066,3.575,4.165,9.408,5.976,15.278,2.97,9.636,5.169,19.368,5.169,19.368S588.449,236.646,577.023,240.826Z" transform="translate(-514.631 -167.972)" fill="#ed910e"/>
          <path id="Trazado_1028182" data-name="Trazado 1028182" d="M565.7,188.4c-.595,4.418-2.154,10.826-6.208,15.529-2.755,3.2-5.182,4.636-7.094,5.206a23.553,23.553,0,0,1-.874-7.773c.8-7.051,3.344-10.164,3.344-10.164l6.536-4A12.629,12.629,0,0,1,565.7,188.4Z" transform="translate(-514.632 -167.973)" fill="#d87e13"/>
          <path id="Trazado_1028183" data-name="Trazado 1028183" d="M540.269,158.194a7,7,0,0,0-4.031,6.776,22.79,22.79,0,0,0,.357,2.962c.6,3.039,4.3,9.115,4.541,9.2a48.175,48.175,0,0,0,4.529-1.818l2.795,3.112,5.084-4.63-2.279-4.758a30.882,30.882,0,0,0-.845-7.373,6.678,6.678,0,0,0-5.507-4.556A9.922,9.922,0,0,0,540.269,158.194Z" transform="translate(-507.494 -153.854)" fill="#ff9279"/>
          <path id="Trazado_1028184" data-name="Trazado 1028184" d="M514.523,287.586a6.182,6.182,0,0,0,3.352-4.165,10.825,10.825,0,0,0-.706-6.364,4.583,4.583,0,0,0-2.784-2.8c-2.858-.722-4.972,2.545-4.972,2.545l.4.547a8.916,8.916,0,0,0-15.6,6.932l1.036,8.26-6.571-6.178.818-3.485a7.141,7.141,0,0,0-7.357,5.472l4.616-.154,9.185,9.822.042.329.76,6.045s4.887,2.885,13.748-.181c6.173-2.141,8.468-5.865,8.468-5.865Zm-.579-1.418-2.369-5.742-.271-.659a7.994,7.994,0,0,0-.473-.956,8.869,8.869,0,0,0-.621-.951c.138-.255,1.243-2.215,3.187-2.247,1.142-.016,2.778,1.774,3.039,4.659a9.282,9.282,0,0,1-.016,1.838c-.292,2.778-1.657,3.793-2.438,4.154Z" transform="translate(-482.14 -208.735)" fill="#c1b6a3"/>
          <path id="Trazado_1028185" data-name="Trazado 1028185" d="M594.181,233.936c-4.09,7.06-10.061,4.845-10.061,4.845l5.966-34.051c2.066,3.575,4.165,9.408,5.976,15.278C596.524,224.061,596.577,229.8,594.181,233.936Z" transform="translate(-529.947 -176.19)" fill="#d87e13"/>
          <path id="Trazado_1028186" data-name="Trazado 1028186" d="M531.175,300.911s-2.295,3.724-8.468,5.865c-8.861,3.065-13.748.181-13.748.181l-.76-6.045c2.784-.1,6.97-1.142,12.037-5.222a24.593,24.593,0,0,0,5.923-6.959l.037.1c.781-.361,2.146-1.376,2.438-4.154a9.286,9.286,0,0,0,.016-1.838,28.211,28.211,0,0,0,.733-3.214,10.825,10.825,0,0,1,.706,6.364,6.182,6.182,0,0,1-3.352,4.165Z" transform="translate(-494.357 -211.297)" fill="#afa18c"/>
          <path id="Trazado_1028187" data-name="Trazado 1028187" d="M561.892,167.858l-.5.707-.4.558-1.525-1.8.908,2.523-8.823,8.186c-2.789-3.193-5.232-10.72-5.232-10.72s.722.042,1.445-1.482-.313-4.457-1.817-4.473a1.843,1.843,0,0,0-1.8,1.461c-4.988.1-8.733-3.649-8.733-3.649-.877,4.712.159,6.927.2,7.023-.149-.064-2.863-1.344-1.934-6.821a9.061,9.061,0,0,1,1.163-3.193,9.291,9.291,0,0,1,4.877-3.91s6.417-3.294,12.175.738S561.892,167.858,561.892,167.858Z" transform="translate(-506.21 -151.004)" fill="#47392b"/>
          <path id="Trazado_1028188" data-name="Trazado 1028188" d="M587.837,279.718c-.611,14.932-11.942,35.56-11.942,35.56l-6.885-.053-17.551-.143s-2.906-6.263-.855-15.315a101.524,101.524,0,0,1,6.98-19.315c1.981-4.255,3.575-7.129,3.655-7.278l.005-.005-.574-5.907-.2-2.093L583.6,257.72S588.453,264.78,587.837,279.718Z" transform="translate(-513.891 -201.031)" fill="#70604a"/>
          <path id="Trazado_1028189" data-name="Trazado 1028189" d="M597.188,279.718c-.611,14.932-11.942,35.56-11.942,35.56l-6.885-.053c4.154-8.271,15.947-42.211,9.052-46.6-5.488-3.49-13.456-2.284-17.392-1.365l-.2-2.093,23.129-7.448S597.8,264.78,597.188,279.718Z" transform="translate(-523.243 -201.031)" fill="#5b4c3b"/>
          <path id="Trazado_1028190" data-name="Trazado 1028190" d="M557.046,264.034l-7.837,6.872-5.7,1.469-1.471,3.26.669,1.159,2.156-2.233-.517,3.172a2.565,2.565,0,0,0,1.329.7l2.478.7,1.181-1.408s1.73-.937,2.541-1.513a2.773,2.773,0,0,0,1.032-1.291l7.553-4.974Z" transform="translate(-510.217 -203.991)" fill="#ff9279"/>
          <path id="Trazado_1028191" data-name="Trazado 1028191" d="M584.35,225.584c-.706,2.46-2.582,5.031-4.776,7.373a66.02,66.02,0,0,1-10.369,8.632l-1.689-2.364-2.125-2.975-.951-1.333,9.944-11.341a121.43,121.43,0,0,1-3.395-13.381c-.977-5.934,1.312-10.215,3.926-11.639h.005a3.817,3.817,0,0,1,2.109-.494,3.317,3.317,0,0,1,2.5,1.562c2.284,3.363,5.121,12.287,5.4,19.666A20.651,20.651,0,0,1,584.35,225.584Z" transform="translate(-520.721 -173.06)" fill="#ffc2ac"/>
          <path id="Trazado_1028192" data-name="Trazado 1028192" d="M594.986,426.689l-3.116.787a23.085,23.085,0,0,1-5.233.705c-3.066.056-7.65.106-7.762-.131-.637-1.349.924-2.536,5.177-4.6.012-.006.031-.012.044-.019,4.284-2.073,4.215-3.278,4.215-3.278l6.307.431.412,1.5.843,3.073A1.236,1.236,0,0,1,594.986,426.689Z" transform="translate(-527.424 -277.179)" fill="#ff9279"/>
          <path id="Trazado_1028193" data-name="Trazado 1028193" d="M594.986,428.4l-3.116.787a23.085,23.085,0,0,1-5.233.705c-3.066.056-7.65.106-7.762-.131-.637-1.349.924-2.536,5.177-4.6a8.471,8.471,0,0,0,3.815.943c3,.237,5.139-1.8,7.162-2.3l.843,3.073A1.236,1.236,0,0,1,594.986,428.4Z" transform="translate(-527.424 -278.886)" fill="#332a23"/>
          <path id="Trazado_1028194" data-name="Trazado 1028194" d="M563.09,167.858l-.5.707c-1.185-2.258-6.539-12.133-10.917-14.678-4.186-2.438-11.033-1.849-15.628,2.295a9.291,9.291,0,0,1,4.877-3.91s6.417-3.294,12.175.738S563.09,167.858,563.09,167.858Z" transform="translate(-507.407 -151.004)" fill="#70604a"/>
          <path id="Trazado_1028195" data-name="Trazado 1028195" d="M587.064,225.592c-.706,2.46-2.582,5.031-4.776,7.373a66.02,66.02,0,0,1-10.369,8.632l-1.689-2.364c2.258-.983,9.1-4.462,12.855-11.681,4.3-8.26-1.748-26.088-3.341-29.483a3.317,3.317,0,0,1,2.5,1.562c2.284,3.363,5.121,12.287,5.4,19.666A20.652,20.652,0,0,1,587.064,225.592Z" transform="translate(-523.435 -173.068)" fill="#edac98"/>
          <path id="Trazado_1028196" data-name="Trazado 1028196" d="M583.751,246.47s6.962,2.429,7.8,1.67.607-.683-1.973-1.67A10.427,10.427,0,0,0,583.751,246.47Z" transform="translate(-529.773 -195.552)" fill="#edac98"/>
          <path id="Trazado_1028197" data-name="Trazado 1028197" d="M575.452,224.679s-7.4,8.712-10.061,12.016l-.951-1.333,9.944-11.341a121.43,121.43,0,0,1-3.395-13.381c-.977-5.934,1.312-10.215,3.926-11.639-.005.011-.016.016-.021.021-2.04,1.689-2.874,5.445-2.646,9.769S575.452,224.679,575.452,224.679Z" transform="translate(-520.721 -173.504)" fill="#ffd8cc"/>
          <path id="Trazado_1028198" data-name="Trazado 1028198" d="M524,284.535c-.77.7-2.635,1.891-6.948,2.943-6.545,1.594-8.409.51-8.409.51s1.976.133,7.363-1.61a25.475,25.475,0,0,0,7.251-3.458,8,8,0,0,1,.473.956Z" transform="translate(-494.563 -212.844)" fill="#afa18c"/>
        </g>
        <g id="Grupo_1186040" data-name="Grupo 1186040" transform="translate(0 81.071)">
          <path id="Trazado_1028199" data-name="Trazado 1028199" d="M215.857,373l17.885-8.439a49.074,49.074,0,0,0,.681,9.513,46.017,46.017,0,0,0,2.608,10.434h7.979s4.3-27.926,1.995-32.836-5.933-6.6-10.792-6.138S211,353.075,211,353.075,204.809,359.187,215.857,373Z" transform="translate(-167.332 -273.404)" fill="#47392b"/>
          <path id="Trazado_1028200" data-name="Trazado 1028200" d="M198.256,387.487H159.8v-7.517l15.809-5.525s-11.974-9.206-15.809-19.331,0-17.695,0-17.695l8.367,2.29,26.1,7.145-6.773,9.408s12.659,14.964,14.045,21.095A10.881,10.881,0,0,1,198.256,387.487Z" transform="translate(-143.34 -269.636)" fill="#70604a"/>
          <path id="Trazado_1028201" data-name="Trazado 1028201" d="M159.795,379.967l15.808-5.522s-11.973-9.205-15.808-19.333,0-17.695,0-17.695l8.368,2.294.425,2.645s-4.736,9.612,4.3,22.367c7.053,9.961,14.435,13.326,14.435,13.326l-27.526,5.65v-3.732Z" transform="translate(-143.339 -269.634)" fill="#5b4c3b"/>
          <path id="Trazado_1028202" data-name="Trazado 1028202" d="M147.008,417.392H145.55s-2.186-2.417-4.411-2.762a55.236,55.236,0,0,1-4.258,4.219c-1.074.767-4.565,2.532-5.792,3.529s-.614,1.841-.614,1.841l16.3-1.036Z" transform="translate(-130.322 -305.831)" fill="#332a23"/>
          <path id="Trazado_1028203" data-name="Trazado 1028203" d="M239.657,266.741l10.11,30.892-5.055,8.695s-6.5-1.023-9.778-9.411S239.657,266.741,239.657,266.741Z" transform="translate(-178.994 -236.503)" fill="#47392b"/>
          <path id="Trazado_1028204" data-name="Trazado 1028204" d="M234.046,263.923a20.44,20.44,0,0,1-.212,2.512c-1.5-1.311-3.289-2.889-5.352-4.624-7.731-6.505-10.115-13.793-10.844-17.4,1.323-.631,2.142-.929,2.142-.929l8.872,4.655A24.936,24.936,0,0,1,234.046,263.923Z" transform="translate(-171.254 -225.601)" fill="#e5a415"/>
          <path id="Trazado_1028205" data-name="Trazado 1028205" d="M207.638,263.926a21.345,21.345,0,0,1-.212,2.513c-1.344,9.488-8.553,28.447-10.911,34.492-.467,1.2-.749,1.891-.749,1.891s-2.4,6.826-19.225-.85c-11.065-5.041-15.241-8.59-15.241-8.59s1.652-4.882,4.032-11.294a235.593,235.593,0,0,1,9.233-21.955l.005-.005a32.314,32.314,0,0,1,4.425-7.044,42.288,42.288,0,0,1,12.234-8.669c1.323-.632,2.141-.924,2.141-.924l1.79.94,7.076,3.713h.005A24.932,24.932,0,0,1,207.638,263.926Z" transform="translate(-144.844 -225.603)" fill="#f3b612"/>
          <path id="Trazado_1028206" data-name="Trazado 1028206" d="M242.6,220.65a24.631,24.631,0,0,1-.207,3.224c-.462,3.325-4.09,10.13-4.345,10.231a52.706,52.706,0,0,1-5.015-1.689l-1,1.248-6.465-4.345-.717-.483.712-1.174,1.025-1.689v-.016a38.562,38.562,0,0,1,.228-6.869c.064-.4.143-.792.234-1.147a6.973,6.973,0,0,1,.977-2.173.005.005,0,0,1,.005-.005,7.277,7.277,0,0,1,4.691-3.086,10.729,10.729,0,0,1,5.094.892,7.546,7.546,0,0,1,4.584,5.36h.005A7.733,7.733,0,0,1,242.6,220.65Z" transform="translate(-174.635 -211.13)" fill="#ff9279"/>
          <path id="Trazado_1028207" data-name="Trazado 1028207" d="M245.536,216.5a4.794,4.794,0,0,1-2.5,1.116h-.005a14.34,14.34,0,0,0-6.773-2.151s.345.191.345,2.226a3.522,3.522,0,0,1-2,2.954l-.255,1.381h-1.317s.191-2.8-1.147-2.762-1.88,1.726-1.806,3.224a2.113,2.113,0,0,0,1.264,1.918,4.366,4.366,0,0,1-3.118.452,9.568,9.568,0,0,1-1.009-.2.016.016,0,0,0-.005-.011.005.005,0,1,0,0-.011H227.2a20.822,20.822,0,0,1-.924-7.713,5.275,5.275,0,0,1,2.991-4.452,4.508,4.508,0,0,1,3.262-2.417,10.88,10.88,0,0,1,8.558,1.955,16.9,16.9,0,0,1,4.425,4.468l.016.016Z" transform="translate(-175.262 -209.818)" fill="#47392b"/>
          <path id="Trazado_1028208" data-name="Trazado 1028208" d="M233.313,259.52s-4.473,19.268-4.589,24.287l2.295,6.875,3.938-6.8s1.431-19.773-.228-24.361Z" transform="translate(-176.451 -233.118)" fill="#70604a"/>
          <path id="Trazado_1028209" data-name="Trazado 1028209" d="M231.6,247.637v.005h-.005l-2.885,3.139-4.786-6.236.595-.616.616-.637.839-.871Z" transform="translate(-174.199 -225.101)" fill="#ed910e"/>
          <path id="Trazado_1028210" data-name="Trazado 1028210" d="M238.37,251.14l1.76,3.533a16.183,16.183,0,0,1,0-2.024,6.741,6.741,0,0,0-.757-2.758Z" transform="translate(-180.973 -228.604)" fill="#ed910e"/>
          <path id="Trazado_1028211" data-name="Trazado 1028211" d="M273.231,297.678l1.19,3.379-5.865,6.847.138-8.324c.005-.292-.005-.579-.027-.866a8.764,8.764,0,0,0-.266-1.551,8.911,8.911,0,0,0-15.963-2.784l.335-.59s-2.454-3.017-5.217-1.992c-2.412.9-3.357,4.978-2.81,8.17a9.014,9.014,0,0,0,.329,1.317,6.2,6.2,0,0,0,3.782,3.782l-3.246,11.177s2.683,3.453,9.052,4.914c9.142,2.088,13.689-1.307,13.689-1.307l.027-1.546.08-4.882,8.069-10.757,4.606-.345A7.142,7.142,0,0,0,273.231,297.678Zm-22.014-.733-1.036,3.57-.924,3.177c-.818-.276-2.284-1.137-2.879-3.862a8.856,8.856,0,0,1-.212-2.082c.032-2.762,1.413-4.606,2.518-4.712,1.939-.175,3.251,1.652,3.41,1.891A8.694,8.694,0,0,0,251.217,296.944Z" transform="translate(-183.892 -247.647)" fill="#c1b6a3"/>
          <path id="Trazado_1028212" data-name="Trazado 1028212" d="M268.514,324.233l-.027,1.546s-4.547,3.394-13.689,1.307c-6.369-1.461-9.052-4.914-9.052-4.914L248.992,311a6.2,6.2,0,0,1-3.782-3.782,9.012,9.012,0,0,1-.329-1.317l.292-2.736,1.126.515a8.857,8.857,0,0,0,.212,2.082c.595,2.725,2.061,3.586,2.879,3.862l.924-3.177c.154,2.762,1.238,10.874,8.494,14.917A19.678,19.678,0,0,0,268.514,324.233Z" transform="translate(-184.025 -253.575)" fill="#afa18c"/>
          <path id="Trazado_1028213" data-name="Trazado 1028213" d="M211.039,291.708s-15.453,9.477-22.375,9.355c-6.141-.106-9.36-3.07-8.441-15.187.627-8.2,4.553-16.335,7.023-20.733.043-.08.09-.159.138-.234a6.718,6.718,0,0,1,1.057-1.339,6.647,6.647,0,0,1,7.31-1.27,6.4,6.4,0,0,1,3.973,6.332,1.542,1.542,0,0,1-.016.212c-.457,7.214-8.128,18.1-8.128,18.1l16.723-2.454.494,1.307,1.381,3.634.064.181Z" transform="translate(-153.642 -234.155)" fill="#ed910e"/>
          <path id="Trazado_1028214" data-name="Trazado 1028214" d="M233.7,300.325l1.331-.621a63.293,63.293,0,0,1,4.961-4.91,2.491,2.491,0,0,1,3.861.384c.409.818.23,1.177.23,1.177a1.955,1.955,0,0,1,.537,1.637,1.567,1.567,0,0,1,.384,1.432,2.777,2.777,0,0,1,.043,1.816,2.271,2.271,0,0,1-1.91,1.33,8.292,8.292,0,0,1-2.429,1.969,9.744,9.744,0,0,1-3.094.461l-1.7,1.17Z" transform="translate(-178.785 -249.314)" fill="#ff9279"/>
          <path id="Trazado_1028215" data-name="Trazado 1028215" d="M262.555,418.024v2.1a20.623,20.623,0,0,0-.563,5.319,22.892,22.892,0,0,0,5.013.614c2.915.051,3.938-.256,5.013-.256s2.762.1,4.961,0,2.608-.409,2.608-.409.307-.818-1.074-2.046-8.746-3.069-9.462-4.04a3.612,3.612,0,0,1-.767-1.688Z" transform="translate(-192.037 -307.23)" fill="#332a23"/>
          <path id="Trazado_1028216" data-name="Trazado 1028216" d="M235.651,253.814l.909,2.295h1.415l.228-1.64a2.994,2.994,0,0,0-1.109-2.225Z" transform="translate(-179.698 -229.706)" fill="#70604a"/>
          <path id="Trazado_1028217" data-name="Trazado 1028217" d="M196.513,334.99c-.467,1.2-.746,1.893-.746,1.893s-2.4,6.827-19.224-.849c-11.068-5.043-15.243-8.592-15.243-8.592s1.65-4.879,4.035-11.293c1.626,4.235,5.819,12.852,14,16.415C187.665,336.191,193.934,335.53,196.513,334.99Z" transform="translate(-144.843 -259.664)" fill="#e5a415"/>
          <path id="Trazado_1028218" data-name="Trazado 1028218" d="M211.041,294.512s-15.456,9.478-22.373,9.357c-6.141-.109-9.363-3.07-8.441-15.189.625-8.2,4.551-16.335,7.021-20.735.042-.079.091-.158.14-.231-2.846,7.773-7.452,22.956-2.118,27.774,6.341,5.716,21.178-1.335,24.91-3.253l.067.182Z" transform="translate(-153.643 -236.959)" fill="#dd8112"/>
          <path id="Trazado_1028219" data-name="Trazado 1028219" d="M224.916,241.726l-.839.871-.616.637-.595.616-1.2-1.556,2.4-1.355Z" transform="translate(-173.144 -224.408)" fill="#fcb76b"/>
          <path id="Trazado_1028220" data-name="Trazado 1028220" d="M205.08,243.49l1.2,1.556s-1.839.334-6.863,2.736c-7.323,3.5-12.882,12.048-13.132,12.345a32.314,32.314,0,0,1,4.425-7.044,42.288,42.288,0,0,1,12.234-8.669C204.262,243.782,205.08,243.49,205.08,243.49Z" transform="translate(-156.554 -225.603)" fill="#ffdc97"/>
          <path id="Trazado_1028221" data-name="Trazado 1028221" d="M228.225,237.957l-1.19,2.279-.845-.786,1.025-1.689A9.573,9.573,0,0,0,228.225,237.957Z" transform="translate(-175.263 -222.917)" fill="#ffbbb0"/>
          <path id="Trazado_1028222" data-name="Trazado 1028222" d="M245.515,216.481c-.308-.287-5.312-4.956-9.865-5.541-4.7-.606-5.541,1.822-5.541,1.822l.09.032,1.392.5a3.782,3.782,0,0,0-2.932,1.158.005.005,0,0,0-.005.005,4.616,4.616,0,0,0-.669.882,5.539,5.539,0,0,0-.542,2.438,33.543,33.543,0,0,0,.781,7.081,9.573,9.573,0,0,1-1.009-.2.016.016,0,0,0-.005-.011.005.005,0,1,0,0-.011H227.2a20.821,20.821,0,0,1-.924-7.713,5.275,5.275,0,0,1,2.991-4.452,4.508,4.508,0,0,1,3.262-2.417,10.881,10.881,0,0,1,8.558,1.955A16.9,16.9,0,0,1,245.515,216.481Z" transform="translate(-175.262 -209.818)" fill="#70604a"/>
          <path id="Trazado_1028223" data-name="Trazado 1028223" d="M213.671,286.3l-.494-1.307-16.723,2.454s7.671-10.89,8.128-18.1a1.544,1.544,0,0,0,.016-.212,6.4,6.4,0,0,0-3.974-6.332,7.523,7.523,0,0,1,2.589,6.38c-.44,4.925-5.256,13.612-7.677,17.711a12.158,12.158,0,0,0-5.072,2.756l3.705-.5-.006.009S213.671,286.381,213.671,286.3Z" transform="translate(-158.515 -234.655)" fill="#dd8112"/>
          <path id="Trazado_1028224" data-name="Trazado 1028224" d="M277.562,304.506a18.758,18.758,0,0,1-5.339.749,13.866,13.866,0,0,1-8.654-2.385,19.616,19.616,0,0,0,6.757,1.28,16.779,16.779,0,0,0,6.97-1.2A8.763,8.763,0,0,1,277.562,304.506Z" transform="translate(-192.786 -253.439)" fill="#afa18c"/>
          <path id="Trazado_1028225" data-name="Trazado 1028225" d="M216.7,402.193h-.149c.733-1.371,1.631-4.292.388-9.434-1.865-7.692-12.9-20.781-12.9-20.781l-6.6-3.187,8.5,2.178s12.659,14.964,14.045,21.095A10.881,10.881,0,0,1,216.7,402.193Z" transform="translate(-161.781 -284.342)" fill="#84735f"/>
        </g>
        <g id="Grupo_1186042" data-name="Grupo 1186042" transform="translate(96.307)">
          <g id="Grupo_1186041" data-name="Grupo 1186041" transform="translate(1.893)">
            <path id="Trazado_1028226" data-name="Trazado 1028226" d="M404.657,105.3a12.312,12.312,0,0,1-1.741,2.907,8.213,8.213,0,0,1-7.051,3.186s-.5,3.125-6.438,5.552-10.45-2.312-10.45-2.312-.656,2.2-3.975,3a5.019,5.019,0,0,1-5.049-1.269s-5.17,3.434-9.551,2.67c-4.375.764-9.545-2.67-9.545-2.67a5.028,5.028,0,0,1-5.055,1.269c-3.32-.807-3.969-3-3.969-3s-4.515,4.745-10.45,2.312-6.444-5.552-6.444-5.552a8.166,8.166,0,0,1-6.706-2.785,11.886,11.886,0,0,1-2.088-3.307,10.691,10.691,0,0,1,1.972-11.724,4.108,4.108,0,0,1-2.434-4.163,3.855,3.855,0,0,1,3.125-3.586s-3.01-3.356,0-9.952,12.379-5.437,12.379-5.437.692-8.332,8.677-10.067S351.9,62.727,351.9,62.727c1.487-3.083,5.668-5.528,8.5-5.516a6.958,6.958,0,0,1,7.233,4.363s5.322-2.937,13.307-1.2,8.677,10.067,8.677,10.067,9.37-1.159,12.379,5.437,0,9.952,0,9.952a3.86,3.86,0,0,1,3.125,3.586,4.108,4.108,0,0,1-2.434,4.163A10.684,10.684,0,0,1,404.657,105.3Z" transform="translate(-315.181 -57.205)" fill="#c9c411"/>
            <path id="Trazado_1028227" data-name="Trazado 1028227" d="M373.445,206.013s.694-4.55-3.008-10.489-6.325-5.862-6.325-5.862-3.274,1.586-6.556,3.162c-4.242,2.037-11.878-.386-11.878-.386a11.625,11.625,0,0,1,6.093-7.944c5.168-2.468,11.781-.3,13.806,2.7,0,0,6.941,5.4,8.407,12.264S373.445,206.013,373.445,206.013Z" transform="translate(-329.478 -116.373)" fill="#b2aa0f"/>
            <path id="Trazado_1028228" data-name="Trazado 1028228" d="M405.608,127.459a8.213,8.213,0,0,1-7.051,3.186s-.5,3.125-6.438,5.552-10.45-2.312-10.45-2.312-.656,2.2-3.975,3a5.019,5.019,0,0,1-5.049-1.269s-5.17,3.434-9.551,2.67c-4.375.764-9.545-2.67-9.545-2.67a5.028,5.028,0,0,1-5.055,1.269c-3.32-.807-3.969-3-3.969-3s-4.515,4.745-10.45,2.312-6.444-5.552-6.444-5.552a8.166,8.166,0,0,1-6.706-2.785c.522-16.4,19.279-29.589,42.35-29.589C386.16,98.271,404.8,111.239,405.608,127.459Z" transform="translate(-317.874 -76.456)" fill="#b2aa0f"/>
            <path id="Trazado_1028229" data-name="Trazado 1028229" d="M401.5,206.013s-.694-4.55,3.008-10.489,6.325-5.862,6.325-5.862,3.274,1.586,6.556,3.162c4.242,2.037,11.878-.386,11.878-.386a11.625,11.625,0,0,0-6.093-7.944c-5.168-2.468-11.781-.3-13.806,2.7,0,0-6.941,5.4-8.407,12.264S401.5,206.013,401.5,206.013Z" transform="translate(-355.142 -116.373)" fill="#b2aa0f"/>
            <path id="Trazado_1028230" data-name="Trazado 1028230" d="M390.612,133.488a82,82,0,0,1,11.476-3.372,1.394,1.394,0,0,0,1.067-1.053l.023-.1a1.4,1.4,0,0,0-1.467-1.714c-6.315.466-16.653,5.466-16.653,5.466,3.171-5.838,8.607-11.025,10.972-13.13a1.4,1.4,0,0,0,.027-2.061h0a1.411,1.411,0,0,0-1.675-.186c-6.765,3.877-13.18,11.173-13.18,11.173l-1.4-16.7a2.233,2.233,0,0,0-1.2-1.8h0a2.233,2.233,0,0,0-1.992-.032l-.085.04a2.232,2.232,0,0,0-1.263,1.849l-1.235,16.642s-6.415-7.3-13.18-11.173a1.411,1.411,0,0,0-1.675.186h0a1.4,1.4,0,0,0,.027,2.061c2.365,2.1,7.8,7.291,10.972,13.13,0,0-10.286-4.975-16.605-5.463a1.435,1.435,0,0,0-1.5,1.757h0A1.428,1.428,0,0,0,353.2,130.1a58.065,58.065,0,0,1,11.423,3.39c8.733,3.682,9.3,7.609,9.3,7.61,1.619,4.886.677,14.378-1.508,26.635-3.442,19.305-12.032,25-12.032,25h34.477s-8.59-5.7-12.032-25c-2.185-12.256-3.127-21.749-1.508-26.635C381.315,141.1,381.8,136.846,390.612,133.488Z" transform="translate(-332.454 -81.843)" fill="#70604a"/>
          </g>
          <path id="Trazado_1028231" data-name="Trazado 1028231" d="M406.208,300.112a47.3,47.3,0,1,1-94.591,0c0-1.044.03-2.094.109-3.119a46.588,46.588,0,0,1,.862-6.42,47.292,47.292,0,0,1,93.62,9.54Z" transform="translate(-311.617 -148.904)" fill="#3fa6b6"/>
          <path id="Trazado_1028232" data-name="Trazado 1028232" d="M407.33,268.733c-1.487,6.481-7.956,9.1-13.326,10.359-6.942,1.62-8.562-1.4-16.657-2.773-8.1-1.4-14.582,2.773-25.45-.929-7.767-2.645-11.166-7.2-12.476-9.6a47.253,47.253,0,0,1,65.834.764Q406.329,267.6,407.33,268.733Z" transform="translate(-324.651 -148.904)" fill="#c9c411"/>
          <path id="Trazado_1028233" data-name="Trazado 1028233" d="M372.106,378.862a47.3,47.3,0,0,1-60.488-45.433c0-1.044.03-2.094.109-3.119a46.587,46.587,0,0,1,.862-6.42,103.863,103.863,0,0,0,47.751,25.232c.643.146,1.274.279,1.905.406,3.5,3.859,8.307,7.385,7.154,14.291A24.675,24.675,0,0,0,372.106,378.862Z" transform="translate(-311.617 -182.222)" fill="#2a95a0"/>
          <path id="Trazado_1028234" data-name="Trazado 1028234" d="M347.554,385.024A47.317,47.317,0,0,1,311.618,339.1c0-1.048.032-2.095.108-3.121,4.794,1.63,10.83,4.319,15.333,8.477,8.79,8.1,3.013,16.888,11.111,19.2C344.843,365.566,353.73,377.227,347.554,385.024Z" transform="translate(-311.617 -187.889)" fill="#b2aa0f"/>
          <path id="Trazado_1028235" data-name="Trazado 1028235" d="M449.326,364.569q-.391,1.5-.886,2.967c-.115.352-.243.7-.37,1.056a1.63,1.63,0,0,1-.067.188c-.073.2-.146.4-.225.595-.085.236-.176.473-.273.7-.061.158-.128.321-.194.479a.349.349,0,0,1-.03.073c-.152.37-.309.74-.479,1.1a1.765,1.765,0,0,1-.079.188c-.188.413-.376.819-.576,1.226a.19.19,0,0,1-.03.061c-.188.395-.388.789-.595,1.177-.218.431-.449.849-.692,1.274-.091.164-.182.321-.279.486-.146.261-.3.522-.455.777-.109.176-.218.358-.328.534-.206.334-.413.656-.631.983a.39.39,0,0,1-.061.091c-.243.37-.491.741-.746,1.1-.321.461-.656.911-.995,1.359-.6.795-1.22,1.565-1.869,2.318,0,.006-.006.012-.018.024q-.974,1.129-2.021,2.2c-.352.358-.71.716-1.068,1.062s-.734.692-1.1,1.032-.741.656-1.117.977c-.006.006-.018.012-.024.018-.34.285-.686.571-1.032.849-.067.055-.133.109-.206.164-.37.291-.746.583-1.129.862s-.741.546-1.117.807c-.073.048-.14.1-.206.146-.358.243-.722.486-1.086.722-.048.037-.1.067-.152.1-.4.255-.8.51-1.214.752q-.646.391-1.311.764c-.443.249-.886.486-1.335.722a.018.018,0,0,0-.012.006c-.388.2-.777.394-1.171.583-.1.055-.212.1-.321.152-.394.188-.789.37-1.189.546a.574.574,0,0,1-.128.055c-.4.176-.8.346-1.207.51-.1.042-.212.091-.321.127-.395.158-.8.31-1.2.461l-.255.091c-.382.133-.771.267-1.153.394-.109.037-.213.073-.316.1-.419.133-.844.267-1.268.388a24.686,24.686,0,0,1-2.707-15.043c1.153-6.906-3.653-10.431-7.154-14.291C425.636,372.355,440.333,368.453,449.326,364.569Z" transform="translate(-356.294 -201.292)" fill="#b2aa0f"/>
          <path id="Trazado_1028236" data-name="Trazado 1028236" d="M447.908,329.458a47.113,47.113,0,0,1-1.56,12.07c-8.993,3.884-23.69,7.786-42.4,4.029-2.815-3.107-4.781-6.426-2.1-11.893,6-12.27,19.673-.929,26.379-10.874,4.363-6.481,12.452-7.464,17.567-7.367A47.411,47.411,0,0,1,447.908,329.458Z" transform="translate(-353.317 -178.25)" fill="#c9c411"/>
          <path id="Trazado_1028237" data-name="Trazado 1028237" d="M413.513,266.554c-3.8,1.287-13.247,3.289-31.876.941-17.137-2.166-22.762-6.178-24.6-8.617a47.269,47.269,0,0,1,56.477,7.676Z" transform="translate(-332.909 -148.904)" fill="#b2aa0f"/>
          <path id="Trazado_1028238" data-name="Trazado 1028238" d="M340.249,302.026s4.349,7.954,15.308,8.528,16.81-5.148,12.389-6.968-15.354.471-18.99-2.43S337.909,295.914,340.249,302.026Z" transform="translate(-324.829 -170.174)" fill="#55b5bf"/>
        </g>
      </g>
      <g id="Grupo_1186056" data-name="Grupo 1186056" transform="translate(55.153 62.668)">
        <g id="Grupo_1186046" data-name="Grupo 1186046" transform="translate(80.319)">
          <g id="Grupo_1186045" data-name="Grupo 1186045">
            <g id="Grupo_1186044" data-name="Grupo 1186044">
              <path id="Trazado_1028239" data-name="Trazado 1028239" d="M256.234,67.49l-3.38,7.05h6.76Z" transform="translate(-234.538 -67.49)" fill="#f3b612"/>
              <path id="Trazado_1028240" data-name="Trazado 1028240" d="M267.261,76.329l6.243,2.756-.581-7.89Z" transform="translate(-241.291 -69.227)" fill="#f3b612"/>
              <path id="Trazado_1028241" data-name="Trazado 1028241" d="M286.939,83.419l-7.294,1.558,4.2,5.637Z" transform="translate(-247.097 -74.957)" fill="#f3b612"/>
              <path id="Trazado_1028242" data-name="Trazado 1028242" d="M289.431,104.664l5.335-5.516-7.33-1.355Z" transform="translate(-250.749 -81.696)" fill="#f3b612"/>
              <path id="Trazado_1028243" data-name="Trazado 1028243" d="M240.594,79.086l6.244-2.756L241.175,71.2Z" transform="translate(-228.79 -69.227)" fill="#f3b612"/>
              <path id="Trazado_1028244" data-name="Trazado 1028244" d="M229.33,90.614l4.2-5.637-7.294-1.558Z" transform="translate(-222.058 -74.957)" fill="#f3b612"/>
              <path id="Trazado_1028245" data-name="Trazado 1028245" d="M225.7,97.794l-7.33,1.355,5.334,5.516Z" transform="translate(-218.374 -81.696)" fill="#f3b612"/>
              <path id="Trazado_1028246" data-name="Trazado 1028246" d="M257.409,149.072l3.38-7.049h-6.76Z" transform="translate(-235.088 -102.43)" fill="#f3b612"/>
              <path id="Trazado_1028247" data-name="Trazado 1028247" d="M241.175,144.625l5.663-5.133-6.244-2.756Z" transform="translate(-228.79 -99.951)" fill="#f3b612"/>
              <path id="Trazado_1028248" data-name="Trazado 1028248" d="M226.232,133.015l7.294-1.558-4.2-5.637Z" transform="translate(-222.058 -94.834)" fill="#f3b612"/>
              <path id="Trazado_1028249" data-name="Trazado 1028249" d="M223.708,112.056l-5.334,5.516,7.33,1.355Z" transform="translate(-218.374 -88.382)" fill="#f3b612"/>
              <path id="Trazado_1028250" data-name="Trazado 1028250" d="M272.923,144.625l.581-7.889-6.243,2.756Z" transform="translate(-241.291 -99.951)" fill="#f3b612"/>
              <path id="Trazado_1028251" data-name="Trazado 1028251" d="M279.645,131.457l7.294,1.558-3.1-7.195Z" transform="translate(-247.097 -94.834)" fill="#f3b612"/>
              <path id="Trazado_1028252" data-name="Trazado 1028252" d="M287.436,118.926l7.33-1.355-5.335-5.516Z" transform="translate(-250.749 -88.382)" fill="#f3b612"/>
            </g>
            <ellipse id="Elipse_13744" data-name="Elipse 13744" cx="16.903" cy="16.832" rx="16.903" ry="16.832" transform="translate(5.125 6.489)" fill="#fffbf2"/>
            <path id="Trazado_1028253" data-name="Trazado 1028253" d="M261.609,98.278A14.882,14.882,0,0,1,250.947,112.5a15.2,15.2,0,0,1-4.387.643,14.859,14.859,0,1,1,13.52-21.39A14.556,14.556,0,0,1,261.609,98.278Z" transform="translate(-224.535 -74.96)" fill="#f3b612"/>
            <path id="Trazado_1028254" data-name="Trazado 1028254" d="M268.619,102.685A14.882,14.882,0,0,1,257.957,116.9a12.053,12.053,0,1,1,9.133-20.748A14.564,14.564,0,0,1,268.619,102.685Z" transform="translate(-231.545 -79.366)" fill="#e5a30e"/>
          </g>
        </g>
        <g id="Grupo_1186047" data-name="Grupo 1186047" transform="translate(0 109.175)">
          <path id="Trazado_1028255" data-name="Trazado 1028255" d="M67.175,311.556H80.79v5.656H70.266Z" transform="translate(-67.175 -291.079)" fill="#d87e13"/>
          <path id="Trazado_1028256" data-name="Trazado 1028256" d="M77,300.764l-.452-6.914-6.873,2.839,1.226.682-3.725,5.885h6.808l1.87-3.129Z" transform="translate(-67.175 -282.778)" fill="#f3b612"/>
          <path id="Trazado_1028257" data-name="Trazado 1028257" d="M91.6,273.091l-6.683,11.862-4.928-2.777,5.166-9.168Z" transform="translate(-73.182 -273.008)" fill="#d87e13"/>
          <path id="Trazado_1028258" data-name="Trazado 1028258" d="M96.246,282.947l6.246,3,.9-7.381-1.2.733-3.3-6.134L95.557,279.1l1.809,3.166Z" transform="translate(-80.48 -273.082)" fill="#f3b612"/>
          <path id="Trazado_1028259" data-name="Trazado 1028259" d="M112.393,309.364l-7.18-11.568,4.805-2.983,5.55,8.941Z" transform="translate(-85.007 -283.23)" fill="#d87e13"/>
          <path id="Trazado_1028260" data-name="Trazado 1028260" d="M100.017,308.963l-5.636,4.031,6.037,4.343-.067-1.4,6.965.062-3.59-5.784-3.645.062Z" transform="translate(-79.929 -289.863)" fill="#f3b612"/>
        </g>
        <g id="Grupo_1186053" data-name="Grupo 1186053" transform="translate(244.702 8.779)">
          <path id="Trazado_1028261" data-name="Trazado 1028261" d="M535.459,108.35A4.652,4.652,0,0,1,538.372,105a5.047,5.047,0,0,1,4.792.943,49.872,49.872,0,0,0-6.664,2.991,3.384,3.384,0,0,0-1.463,2.926h-.65a2.74,2.74,0,0,0-.423-2.438c-.65-.878-3.737-4-6.144-4.909,0,0,3.414-1.56,5.494.163A5.461,5.461,0,0,1,535.459,108.35Z" transform="translate(-527.819 -93.322)" fill="#f3b612"/>
          <path id="Trazado_1028262" data-name="Trazado 1028262" d="M531.923,119.125s.26-.683,2.828-1.008a8.445,8.445,0,0,1,4.324.5,3.809,3.809,0,0,1,2.651.314c1.087.71.274,1.29-3.139,1.2S531.3,120.513,531.923,119.125Z" transform="translate(-529.712 -99.967)" fill="#f3b612"/>
          <line id="Línea_3243" data-name="Línea 3243" x2="34.502" transform="translate(6.437 4.854)" fill="#008e8e"/>
          <path id="Trazado_1028263" data-name="Trazado 1028263" d="M574.166,87.484a1.382,1.382,0,0,0-1.241.78H558.159a2.427,2.427,0,1,0-3.18,0H540.69a1.387,1.387,0,1,0,0,1.213h14.752v18.9h-7.631a1.082,1.082,0,0,0-1.082,1.082v.308a1.082,1.082,0,0,0,1.082,1.082h17.6a1.082,1.082,0,0,0,1.082-1.082v-.308a1.081,1.081,0,0,0-1.082-1.082h-7.987v-18.9h15.5a1.385,1.385,0,1,0,1.241-1.994Z" transform="translate(-532.62 -84.017)" fill="#d87e13"/>
          <g id="Grupo_1186048" data-name="Grupo 1186048" transform="translate(7.027 5.346)">
            <rect id="Rectángulo_458583" data-name="Rectángulo 458583" width="0.531" height="15.599" transform="matrix(0.944, -0.33, 0.33, 0.944, 0, 0.175)" fill="#d87e13"/>
          </g>
          <g id="Grupo_1186049" data-name="Grupo 1186049" transform="translate(1.95 5.105)">
            <rect id="Rectángulo_458584" data-name="Rectángulo 458584" width="15.352" height="0.531" transform="matrix(0.275, -0.961, 0.961, 0.275, 0, 14.758)" fill="#d87e13"/>
          </g>
          <path id="Trazado_1028264" data-name="Trazado 1028264" d="M531.639,120.816h10.123a.38.38,0,0,1,.309.606,6.57,6.57,0,0,1-5.359,2.428,6.123,6.123,0,0,1-5.388-2.436A.38.38,0,0,1,531.639,120.816Z" transform="translate(-529.43 -101.268)" fill="#d87e13"/>
          <g id="Grupo_1186050" data-name="Grupo 1186050" transform="translate(41.809 5.336)">
            <rect id="Rectángulo_458585" data-name="Rectángulo 458585" width="0.531" height="15.598" transform="matrix(0.944, -0.33, 0.33, 0.944, 0, 0.175)" fill="#d87e13"/>
          </g>
          <g id="Grupo_1186051" data-name="Grupo 1186051" transform="translate(36.734 5.105)">
            <rect id="Rectángulo_458586" data-name="Rectángulo 458586" width="15.352" height="0.531" transform="matrix(0.275, -0.961, 0.961, 0.275, 0, 14.758)" fill="#d87e13"/>
          </g>
          <path id="Trazado_1028265" data-name="Trazado 1028265" d="M597.119,120.816h10.123a.38.38,0,0,1,.309.606,6.57,6.57,0,0,1-5.359,2.428,6.122,6.122,0,0,1-5.388-2.436A.38.38,0,0,1,597.119,120.816Z" transform="translate(-560.125 -101.268)" fill="#d87e13"/>
          <g id="Grupo_1186052" data-name="Grupo 1186052" transform="translate(38.783 14.834)">
            <rect id="Rectángulo_458587" data-name="Rectángulo 458587" width="5.689" height="1.268" transform="translate(0.325 3.446)" fill="#f3b612"/>
            <rect id="Rectángulo_458588" data-name="Rectángulo 458588" width="5.104" height="1.333" transform="translate(0 2.113)" fill="#f3b612"/>
            <rect id="Rectángulo_458589" data-name="Rectángulo 458589" width="4.779" height="1.17" transform="translate(0.878 0.943)" fill="#f3b612"/>
            <rect id="Rectángulo_458590" data-name="Rectángulo 458590" width="4.779" height="1.17" transform="translate(0.173)" fill="#f3b612"/>
          </g>
        </g>
        <g id="Grupo_1186055" data-name="Grupo 1186055" transform="translate(304.406 63.532)">
          <circle id="Elipse_13745" data-name="Elipse 13745" cx="11.412" cy="11.412" r="11.412" transform="translate(0 22.223) rotate(-76.838)" fill="#e8e1d4"/>
          <g id="Grupo_1186054" data-name="Grupo 1186054" transform="translate(0.227 5.714)">
            <path id="Trazado_1028266" data-name="Trazado 1028266" d="M672.81,201.38h-3.35s-3.785-3.288-5.957-3.537l-9.307,8.28a1.075,1.075,0,0,0-.086,1.52l.422.471a1.075,1.075,0,0,0,1.14.3l.448-.149-.234.334a1.075,1.075,0,0,0,.078,1.331l.386.433a1.075,1.075,0,0,0,1.105.316l.4-.118-.154.266a1.074,1.074,0,0,0,.162,1.29l.38.388a1.074,1.074,0,0,0,1.238.214l.482-.235-.265.49a1.075,1.075,0,0,0,.138,1.22h0a1.069,1.069,0,0,0,1.4.19c1.268-.842,3.856-2.582,6.052-4.2h6.453Z" transform="translate(-646.824 -197.843)" fill="#f3b612"/>
            <path id="Trazado_1028267" data-name="Trazado 1028267" d="M643.167,201.923h3.35a28.263,28.263,0,0,1,3.177-2.346,3.82,3.82,0,0,1,4.552.386l7.535,6.7a1.075,1.075,0,0,1,.086,1.52l-.422.471a1.075,1.075,0,0,1-1.14.3l-.448-.149.234.334a1.075,1.075,0,0,1-.078,1.331l-.386.433a1.075,1.075,0,0,1-1.105.316l-.4-.118.154.266a1.075,1.075,0,0,1-.162,1.29l-.38.388a1.074,1.074,0,0,1-1.238.214l-.482-.235.265.49a1.075,1.075,0,0,1-.138,1.22h0a1.069,1.069,0,0,1-1.4.19c-1.268-.842-3.856-2.582-6.052-4.2h-6.453Z" transform="translate(-641.386 -198.386)" fill="#fffbf2"/>
            <path id="Trazado_1028268" data-name="Trazado 1028268" d="M642.081,203.536h2.677l-1.1,9.9h-3.017Z" transform="translate(-640.636 -200.512)" fill="#d87e13"/>
            <path id="Trazado_1028269" data-name="Trazado 1028269" d="M688.3,203.536h-2.677l1.1,9.9h3.017Z" transform="translate(-661.727 -200.512)" fill="#d87e13"/>
            <path id="Trazado_1028270" data-name="Trazado 1028270" d="M664.916,197.843h-2.4a4.508,4.508,0,0,0-2.858,1.022l-2.8,2.3s.113.793,1.841.822a5.826,5.826,0,0,0,3.43-1.656,3.72,3.72,0,0,0,1.925.126C665.036,200.23,664.916,197.843,664.916,197.843Z" transform="translate(-648.236 -197.843)" fill="#f3b612"/>
            <path id="Trazado_1028271" data-name="Trazado 1028271" d="M652.373,220.567s-.671,1.087,0,1.573a1.256,1.256,0,0,0,1.677-.168c.437-.357.922-1.241.57-1.794S653.534,219.243,652.373,220.567Z" transform="translate(-645.998 -208.074)" fill="#f3b612"/>
            <path id="Trazado_1028272" data-name="Trazado 1028272" d="M655.36,223.073s-.671,1.087,0,1.573a1.256,1.256,0,0,0,1.677-.168c.437-.357.922-1.241.57-1.794S656.521,221.749,655.36,223.073Z" transform="translate(-647.398 -209.249)" fill="#f3b612"/>
            <path id="Trazado_1028273" data-name="Trazado 1028273" d="M658.986,224.353s-.671,1.087,0,1.573a1.256,1.256,0,0,0,1.677-.168c.437-.357.922-1.241.57-1.794S660.147,223.029,658.986,224.353Z" transform="translate(-649.098 -209.849)" fill="#f3b612"/>
            <path id="Trazado_1028274" data-name="Trazado 1028274" d="M662.536,225.45s-.605.98,0,1.419a1.133,1.133,0,0,0,1.512-.151c.394-.322.832-1.119.514-1.619S663.583,224.256,662.536,225.45Z" transform="translate(-650.776 -210.405)" fill="#f3b612"/>
          </g>
        </g>
      </g>
    </g>
    <rect id="Rectángulo_456560" data-name="Rectángulo 456560" width="103" height="29" rx="5" transform="translate(-8417 5100) rotate(180)" fill="#f2a4ab"/>
    <rect id="Rectángulo_458591" data-name="Rectángulo 458591" width="169" height="29" rx="5" transform="translate(-8351 5243) rotate(180)" fill="#f2a4ab"/>
    <rect id="Rectángulo_458592" data-name="Rectángulo 458592" width="98" height="29" rx="5" transform="translate(-8422 5388) rotate(180)" fill="#f2a4ab"/>
    <text id="Biocomercio_Modelo_económico_basado_en_el_aprovechamiento_sostenible_de_la_biodiversidad_para_generar_productos_y_servicios_con_valor_ambiental_y_comercial._Mercados_de_carbono_Mecanismos_económicos_que_permiten_compensar_o_reducir_emisiones_de_gases_de_" data-name="Biocomercio
Modelo económico basado en el aprovechamiento sostenible de la biodiversidad para generar productos y servicios con valor ambiental y comercial.
 
Mercados de carbono
Mecanismos económicos que permiten compensar o reducir emisiones de gases de " transform="translate(-8514 5077)" fill="#12263f" font-size="16" font-family="SegoeUI-Bold, Segoe UI" letter-spacing="0.003em" font-weight="700"><tspan x="0" y="17">Biocomercio</tspan><tspan font-family="SegoeUI, Segoe UI" font-weight="400"><tspan x="0" y="41">Modelo económico basado en el </tspan><tspan x="0" y="65">aprovechamiento sostenible de la </tspan><tspan x="0" y="89">biodiversidad para generar productos y </tspan><tspan x="0" y="113">servicios con valor ambiental y comercial.</tspan><tspan x="0" y="137"> </tspan></tspan><tspan x="0" y="161">Mercados de carbono</tspan><tspan font-family="SegoeUI, Segoe UI" font-weight="400"><tspan x="0" y="185">Mecanismos económicos que permiten </tspan><tspan x="0" y="209">compensar o reducir emisiones de gases de </tspan><tspan x="0" y="233">efecto invernadero mediante proyectos </tspan><tspan x="0" y="257">ambientales certificados. </tspan><tspan x="0" y="281"></tspan></tspan><tspan x="0" y="305">Ecoturismo</tspan><tspan font-family="SegoeUI, Segoe UI" font-weight="400"><tspan x="0" y="329">Actividad turística responsable que promueve </tspan><tspan x="0" y="353">la conservación de los ecosistemas y el </tspan><tspan x="0" y="377">aprovechamiento sostenible del patrimonio </tspan><tspan x="0" y="401">natural y cultural.</tspan></tspan></text>
  </g>
</svg>
