<svg xmlns="http://www.w3.org/2000/svg" xmlns:xlink="http://www.w3.org/1999/xlink" width="100" height="100" viewBox="0 0 100 100">
  <defs>
    <clipPath id="clip-path">
      <rect id="Rectángulo_459906" data-name="Rectángulo 459906" width="68" height="67.953" fill="none"/>
    </clipPath>
  </defs>
  <g id="Grupo_1185902" data-name="Grupo 1185902" transform="translate(-527.711 -2513)">
    <rect id="Rectángulo_456484" data-name="Rectángulo 456484" width="100" height="100" transform="translate(527.711 2513)" fill="#f2a4ab"/>
    <g id="Grupo_1187648" data-name="Grupo 1187648" transform="translate(543.711 2529.023)">
      <g id="Grupo_1187647" data-name="Grupo 1187647" clip-path="url(#clip-path)">
        <path id="Trazado_1031954" data-name="Trazado 1031954" d="M67.957,64.539c-.452.73-1.907.126-2.57-.236a23.552,23.552,0,0,1-3.534-3.439,2.382,2.382,0,0,0-2.883,0c-2.69,3.314-5.88,6-9.848,2.565l-2.274-2.493a2.4,2.4,0,0,0-3.084-.005c-2.606,3.325-5.878,5.873-9.749,2.5l-2.354-2.569a2.354,2.354,0,0,0-2.906,0c-2.664,3.337-5.875,5.986-9.835,2.564l-2.274-2.5a2.416,2.416,0,0,0-3.076,0c-2.641,3.334-5.82,5.9-9.749,2.495A15.667,15.667,0,0,0,.94,60.555a.981.981,0,0,1-.924-.534l0-2.261a4.591,4.591,0,0,1,3.57,1.508l1.893,2.07a2.786,2.786,0,0,0,4.175,0l1.873-2.077a5.623,5.623,0,0,1,2.548-1.474L7,57.741a1.1,1.1,0,0,1-1.039-.689L.118,43.5a1.172,1.172,0,0,1,.095-1.11,1.152,1.152,0,0,1,.938-.481l1.128-.045V27.187a1.108,1.108,0,0,1,1.14-1.135l7.918-.006.006-14.714A1.1,1.1,0,0,1,12.49,10.2l18.08,0a1.1,1.1,0,0,1,1.147,1.138l.007,14.715,7.738-.012a1.174,1.174,0,0,1,1.32,1.152V41.853a3.164,3.164,0,0,0,1.471-.02l5.554-15.36c.213-.588,1.356-.454,1.979-.37l.087-8.149a1.052,1.052,0,0,1,1.1-.965l2.266-.018.01-5.65A1.1,1.1,0,0,1,54.374,10.2l2.262-.021,0-7.907H44.193L44.2,4.536c.514-.016,1.148-.081,1.531.322l2.927,3.076a16.6,16.6,0,0,1-.007,4.483l-2.838,3.06L44.2,13.859l2.146-2.286a6.034,6.034,0,0,0-.028-2.792,6.586,6.586,0,0,0-1.862-1.873,6.66,6.66,0,0,0-2.832-.016,7.439,7.439,0,0,0-1.819,1.9,7.213,7.213,0,0,0-.022,2.8l2.162,2.348-1.6,1.6L37.51,12.506a15.3,15.3,0,0,1,.007-4.647l2.843-3c.378-.4,1.017-.325,1.536-.321l.025-3.409A1.091,1.091,0,0,1,43.063,0L57.752,0a1.1,1.1,0,0,1,1.141,1.132l.009,9.043,2.425.037a1.049,1.049,0,0,1,.962,1.107l.011,5.651,2.258.014a1.105,1.105,0,0,1,1.129,1.134l.008,7.9,1.136.026a1.184,1.184,0,0,1,.96.458,1.116,1.116,0,0,1,.154,1.046l-9.388,29.43a1.153,1.153,0,0,1-1.166.773l-11.171.031a5.294,5.294,0,0,1,2.479,1.3l1.971,2.174a2.781,2.781,0,0,0,4.173.166l1.97-2.162a4.852,4.852,0,0,1,7.162.015l1.894,2.066a2.833,2.833,0,0,0,2.075.941Z" transform="translate(-0.013 -0.001)" fill="#040504"/>
        <path id="Trazado_1031955" data-name="Trazado 1031955" d="M67.945,322.38l0,3.4a3.88,3.88,0,0,1-3.076-1.461l-1.395-1.609a3.99,3.99,0,0,0-6.154,0l-1.4,1.611a3.948,3.948,0,0,1-5.572.564l-1.976-2.169a3.961,3.961,0,0,0-5.664-.471l-1.785,1.978a4.2,4.2,0,0,1-3.264,1.563c-2.74-.071-3.59-2.719-5.286-3.876a3.9,3.9,0,0,0-4.451.067c-1.659,1.23-2.547,3.782-5.182,3.82-2.822.041-3.608-2.53-5.351-3.806a4,4,0,0,0-5.451.81l-1.312,1.519a4.067,4.067,0,0,1-3.169,1.469,3.976,3.976,0,0,1-2.989-1.466l-1.391-1.615A3.839,3.839,0,0,0,0,321.26l0-3.4a2.514,2.514,0,0,1,1.987.836l1.962,2.179a4.857,4.857,0,0,0,7.184-.005l1.775-2a2.822,2.822,0,0,1,4.271-.089l1.87,2.091a4.9,4.9,0,0,0,7.284-.094l1.779-2a2.735,2.735,0,0,1,4.069-.085l1.962,2.179a4.889,4.889,0,0,0,7.275-.106l1.783-1.991a2.791,2.791,0,0,1,4.177,0l1.872,2.09a4.9,4.9,0,0,0,7.278-.1l1.783-1.989a2.775,2.775,0,0,1,4.167,0l1.875,2.083a4.645,4.645,0,0,0,3.588,1.512" transform="translate(0 -257.842)" fill="#9dc1d3"/>
        <path id="Trazado_1031956" data-name="Trazado 1031956" d="M62.185,149.912q6.076.12,12.218.18l.058.253L67.1,173.528a2.54,2.54,0,0,1-2.422,1.666l-9.405-.136-.221-.381-.05-.493c4.015-5.39-4.558-10.175-7.028-4.009l-.429.186c-.017.337-.1.417-.3.129l-.433-.208a4.132,4.132,0,0,0-7.908-.117l-.446.194c.013.338-.073.42-.272.134l-.433-.209a4.132,4.132,0,0,0-7.908-.12l-.446.194c.042.324-.133.448-.313.132l-.414-.2c-2.27-6.264-11.044-1.65-7.085,3.842l-.053.5c-.209.788-2.06.775-2.5.148l-3.912-9H55.083a1.225,1.225,0,0,0,1.316-.833l5.2-14.577a.479.479,0,0,1,.584-.458" transform="translate(-12.273 -121.612)" fill="#3d8fcf"/>
        <path id="Trazado_1031957" data-name="Trazado 1031957" d="M35.854,174.805a7.212,7.212,0,0,0,2.5-.148l.514-.038a4.126,4.126,0,0,0,5.324.041l.508.056a3.475,3.475,0,0,1,2.714-.048l.518-.039a4.143,4.143,0,0,0,5.313.037l.516.049a3.477,3.477,0,0,1,2.712-.047l.518-.039a4.143,4.143,0,0,0,5.313.037l.516.049a3.473,3.473,0,0,1,2.714-.045l.51-.047a4.125,4.125,0,0,0,5.319.036l.511.048,9.506.141a2.218,2.218,0,0,0,2.184-1.414l7.394-23.3-11.834-.005c-.142,0-.216-.115-.121-.188l15.333.031L85.708,177.13l-48.836-.012Z" transform="translate(-29.087 -121.642)" fill="#3788be"/>
        <path id="Trazado_1031958" data-name="Trazado 1031958" d="M133.668,149.963l.376.177-.076,8.808c-.241,1.819-1.045,2.493-2.834,2.7l-10.909-.09-.22-.379-.013-11.244,4.528,0,.006,5.658a1.149,1.149,0,0,0,1.138,1.147l4.515-.01a1.112,1.112,0,0,0,1.132-1.137l.011-5.642Z" transform="translate(-97.344 -121.633)" fill="#92613f"/>
        <path id="Trazado_1031959" data-name="Trazado 1031959" d="M76.874,72.2c.017.571.705.95,1.162.95l4.55,0a1.2,1.2,0,0,0,1.168-.983l.058-5.7,2.473.012q.125,4.557.06,9.141c-.261,1.669-1.236,2.276-2.817,2.454l-10.891-.017-.165-.246.005-11.332,4.3-.025Z" transform="translate(-58.794 -53.911)" fill="#b27749"/>
        <path id="Trazado_1031960" data-name="Trazado 1031960" d="M28.876,155.985c.017.567.709.945,1.162.946l4.549.005a1.212,1.212,0,0,0,1.169-.982l.058-5.7a5.832,5.832,0,0,1,2.546.2l-.008,8.685a2.613,2.613,0,0,1-2.636,2.7l-11.075.006-.166-.245,0-11.332,4.3-.025Z" transform="translate(-19.856 -121.841)" fill="#a87043"/>
        <path id="Trazado_1031961" data-name="Trazado 1031961" d="M287.334,108.723l-11.325.012v-6.8l11.323.007Z" transform="translate(-223.914 -82.696)" fill="#9f9f9f"/>
        <path id="Trazado_1031962" data-name="Trazado 1031962" d="M76.486,71.774l-.166-5.649-4.134,0-.012,11.142,10.96.005a2.358,2.358,0,0,0,2.448-2.1l.01-9.059-2.064.023-.162,5.613-.045-5.815,4.528.009V79.521H72l0-13.585,4.531,0Z" transform="translate(-58.407 -53.485)" fill="#a86f47"/>
        <path id="Trazado_1031963" data-name="Trazado 1031963" d="M28.486,155.78l-.166-5.65-4.135,0-.01,11.14,11.143-.017a2.275,2.275,0,0,0,2.263-2.436l.012-8.7-2.065.022-.161,5.614-.045-5.815,4.531.015V163.53l-15.855,0,0-13.588,4.531,0Z" transform="translate(-19.466 -121.636)" fill="#9e6740"/>
        <path id="Trazado_1031964" data-name="Trazado 1031964" d="M120.06,161.269l11.123.092a2.369,2.369,0,0,0,2.465-2.468l.075-8.842,2.18-.011v13.572l-15.829,0Z" transform="translate(-97.4 -121.722)" fill="#81543a"/>
        <path id="Trazado_1031965" data-name="Trazado 1031965" d="M173.58,309.582a2.786,2.786,0,0,1-4.221.061l-1.977-2.158a5.725,5.725,0,0,0-2.564-1.417h13.15a6.589,6.589,0,0,0-2.646,1.583Z" transform="translate(-133.709 -248.301)" fill="#f3f3f4"/>
        <path id="Trazado_1031966" data-name="Trazado 1031966" d="M93.44,309.719a2.662,2.662,0,0,1-3.963.01l-1.96-2.177a5.712,5.712,0,0,0-2.69-1.479l13.147,0a6.838,6.838,0,0,0-2.75,1.666Z" transform="translate(-68.816 -248.302)" fill="#f3f3f4"/>
        <path id="Trazado_1031967" data-name="Trazado 1031967" d="M298.548,70.471l-4.532.017V65.963l4.526,0Z" transform="translate(-238.523 -53.513)" fill="#e3e5e4"/>
        <path id="Trazado_1031968" data-name="Trazado 1031968" d="M110.283,70.5l-2.274.017v-4.5l2.264,0Z" transform="translate(-87.623 -53.552)" fill="#e3e5e4"/>
        <path id="Trazado_1031969" data-name="Trazado 1031969" d="M62.283,154.5l-2.274.017v-4.5l2.264,0Z" transform="translate(-48.682 -121.698)" fill="#e3e5e4"/>
        <path id="Trazado_1031970" data-name="Trazado 1031970" d="M158.283,154.5l-2.274.017v-4.5l2.264,0Z" transform="translate(-126.563 -121.698)" fill="#e3e5e4"/>
        <path id="Trazado_1031971" data-name="Trazado 1031971" d="M50.871,243.548a.223.223,0,0,0,.313-.132,4.5,4.5,0,0,1,8.787.135q.065.262.272-.134a4.5,4.5,0,0,1,8.787.132q.04.253.3-.129A4.446,4.446,0,0,1,73.1,239.99a4.538,4.538,0,0,1,4.643,2.484A4.525,4.525,0,0,1,70.5,247.7q-.955-.076-1.319-1.31-.442,1.247-1.395,1.354a4.525,4.525,0,0,1-6.348-.047q-.952-.075-1.317-1.307-.443,1.246-1.395,1.354a4.525,4.525,0,0,1-6.348-.047q-.952-.074-1.317-1.308-.437,1.241-1.4,1.356a4.528,4.528,0,1,1-2.409-7.729,4.378,4.378,0,0,1,3.615,3.533" transform="translate(-34.056 -194.668)" fill="#040504"/>
        <path id="Trazado_1031972" data-name="Trazado 1031972" d="M89.288,258.275c.127.218.072.674-.086.691-.39.042-.211-.423-.227-.559Z" transform="translate(-72.16 -209.528)" fill="#0f1c27"/>
        <path id="Trazado_1031973" data-name="Trazado 1031973" d="M137.16,258.28c.131.2.068.695-.091.7-.3.009-.351-.377-.181-.565Z" transform="translate(-110.972 -209.532)" fill="#0f1c27"/>
        <path id="Trazado_1031974" data-name="Trazado 1031974" d="M185.25,258.291c-.033.177.223.635-.217.707-.123.02-.26-.385-.086-.577Z" transform="translate(-149.973 -209.541)" fill="#0f1c27"/>
        <path id="Trazado_1031975" data-name="Trazado 1031975" d="M85.416,270.5a5.91,5.91,0,0,1-2.714.048,5.69,5.69,0,0,0,1.378-2.479,5.606,5.606,0,0,0,1.336,2.431" transform="translate(-67.093 -217.474)" fill="#3b8bc8"/>
        <path id="Trazado_1031976" data-name="Trazado 1031976" d="M133.422,270.5a5.88,5.88,0,0,1-2.712.047,5.689,5.689,0,0,0,1.376-2.478,5.619,5.619,0,0,0,1.336,2.431" transform="translate(-106.04 -217.473)" fill="#3b8bc8"/>
        <path id="Trazado_1031977" data-name="Trazado 1031977" d="M181.424,270.5a5.918,5.918,0,0,1-2.714.045,5.677,5.677,0,0,0,1.375-2.478,5.619,5.619,0,0,0,1.339,2.433" transform="translate(-144.98 -217.473)" fill="#3b8bc8"/>
        <path id="Trazado_1031978" data-name="Trazado 1031978" d="M56.924,252.19a2.935,2.935,0,0,1-.061,4.28,2.146,2.146,0,0,1-2.391-.826,2.244,2.244,0,0,1,0-2.641,2.177,2.177,0,0,1,2.452-.813" transform="translate(-43.842 -204.508)" fill="#d1d1d0"/>
        <path id="Trazado_1031979" data-name="Trazado 1031979" d="M104.924,252.19a2.935,2.935,0,0,1-.061,4.28,2.146,2.146,0,0,1-2.391-.826,2.244,2.244,0,0,1,0-2.641,2.177,2.177,0,0,1,2.452-.813" transform="translate(-82.783 -204.508)" fill="#d1d1d0"/>
        <path id="Trazado_1031980" data-name="Trazado 1031980" d="M152.924,252.19a2.935,2.935,0,0,1-.061,4.28,2.146,2.146,0,0,1-2.391-.826,2.244,2.244,0,0,1,0-2.641,2.177,2.177,0,0,1,2.452-.813" transform="translate(-121.723 -204.508)" fill="#d1d1d0"/>
        <path id="Trazado_1031981" data-name="Trazado 1031981" d="M200.924,252.19a2.935,2.935,0,0,1-.061,4.28,2.146,2.146,0,0,1-2.391-.826,2.244,2.244,0,0,1,0-2.641,2.177,2.177,0,0,1,2.452-.813" transform="translate(-160.663 -204.508)" fill="#d1d1d0"/>
        <path id="Trazado_1031982" data-name="Trazado 1031982" d="M166.559,254.084a4.462,4.462,0,0,0-.019,1.441,2.142,2.142,0,0,1-1.554,1.388,4.73,4.73,0,0,0,.061-4.28,2.126,2.126,0,0,1,1.512,1.451" transform="translate(-133.846 -204.951)" fill="#9e9d9d"/>
        <path id="Trazado_1031983" data-name="Trazado 1031983" d="M214.559,254.084a4.462,4.462,0,0,0-.019,1.441,2.142,2.142,0,0,1-1.554,1.388,4.73,4.73,0,0,0,.061-4.28,2.126,2.126,0,0,1,1.512,1.451" transform="translate(-172.787 -204.951)" fill="#9e9d9d"/>
        <path id="Trazado_1031984" data-name="Trazado 1031984" d="M118.559,254.084a4.462,4.462,0,0,0-.019,1.441,2.142,2.142,0,0,1-1.554,1.388,4.73,4.73,0,0,0,.061-4.28,2.126,2.126,0,0,1,1.512,1.451" transform="translate(-94.906 -204.951)" fill="#9e9d9d"/>
        <path id="Trazado_1031985" data-name="Trazado 1031985" d="M70.559,254.084a4.462,4.462,0,0,0-.019,1.441,2.142,2.142,0,0,1-1.554,1.388,4.73,4.73,0,0,0,.061-4.28,2.126,2.126,0,0,1,1.512,1.451" transform="translate(-55.965 -204.951)" fill="#9e9d9d"/>
        <path id="Trazado_1031986" data-name="Trazado 1031986" d="M172.139,261.763a1.126,1.126,0,0,1,.019-1.441,2.042,2.042,0,0,1-.019,1.441" transform="translate(-139.446 -211.188)" fill="#a4a4a4"/>
        <path id="Trazado_1031987" data-name="Trazado 1031987" d="M220.139,261.763a1.126,1.126,0,0,1,.019-1.441,2.042,2.042,0,0,1-.019,1.441" transform="translate(-178.386 -211.188)" fill="#a4a4a4"/>
        <path id="Trazado_1031988" data-name="Trazado 1031988" d="M76.139,261.763a1.126,1.126,0,0,1,.019-1.441,2.042,2.042,0,0,1-.019,1.441" transform="translate(-61.565 -211.188)" fill="#a4a4a4"/>
        <path id="Trazado_1031989" data-name="Trazado 1031989" d="M124.139,261.763a1.126,1.126,0,0,1,.019-1.441,2.042,2.042,0,0,1-.019,1.441" transform="translate(-100.506 -211.188)" fill="#a4a4a4"/>
      </g>
    </g>
  </g>
</svg>
