<svg xmlns="http://www.w3.org/2000/svg" xmlns:xlink="http://www.w3.org/1999/xlink" width="128" height="128" viewBox="0 0 128 128">
  <defs>
    <clipPath id="clip-path">
      <rect id="Rectángulo_456277" data-name="Rectángulo 456277" width="128" height="128" transform="translate(0 0)" fill="#d35560"/>
    </clipPath>
    <clipPath id="clip-path-2">
      <rect id="Rectángulo_459932" data-name="Rectángulo 459932" width="65.266" height="69.262" fill="#4d787e"/>
    </clipPath>
  </defs>
  <g id="Grupo_1186070" data-name="Grupo 1186070" transform="translate(13436 12681)">
    <g id="Grupo_1179924" data-name="Grupo 1179924" transform="translate(-13436 -12681)">
      <g id="Grupo_1179923" data-name="Grupo 1179923" transform="translate(0 0)" clip-path="url(#clip-path)">
        <path id="Trazado_1004716" data-name="Trazado 1004716" d="M63.534,127.068c-2.064,0-3.994-2.358-6.006-2.554-2.05-.2-4.4,1.735-6.388,1.341-2.016-.4-3.449-3.09-5.391-3.68-1.964-.6-4.65.839-6.526.059-1.892-.786-2.769-3.705-4.562-4.667s-4.72-.086-6.412-1.22-1.99-4.172-3.566-5.467-4.61-1-6.054-2.44-1.143-4.475-2.44-6.054-4.328-1.867-5.467-3.566-.252-4.608-1.22-6.411-3.881-2.67-4.668-4.562c-.78-1.877.656-4.563.059-6.526-.59-1.942-3.28-3.374-3.68-5.391-.395-1.987,1.541-4.338,1.34-6.388C2.358,67.528,0,65.6,0,63.534s2.358-3.994,2.554-6.006c.2-2.05-1.735-4.4-1.34-6.388.4-2.016,3.09-3.449,3.68-5.391.6-1.964-.839-4.65-.059-6.527C5.622,37.33,8.54,36.453,9.5,34.66s.085-4.719,1.22-6.412,4.171-1.99,5.466-3.566,1-4.61,2.441-6.054,4.475-1.143,6.053-2.44,1.867-4.328,3.566-5.467,4.608-.252,6.412-1.22,2.67-3.881,4.562-4.668c1.877-.78,4.563.656,6.527.059,1.942-.59,3.374-3.279,5.39-3.68,1.987-.395,4.338,1.541,6.388,1.341C59.54,2.358,61.47,0,63.534,0s3.994,2.358,6.006,2.554c2.05.2,4.4-1.735,6.388-1.341,2.016.4,3.449,3.09,5.391,3.68,1.964.6,4.65-.839,6.526-.059,1.892.786,2.769,3.705,4.562,4.668s4.72.085,6.412,1.22,1.99,4.171,3.566,5.466,4.61,1,6.054,2.441,1.143,4.475,2.44,6.053,4.328,1.867,5.467,3.566.252,4.608,1.22,6.412,3.881,2.67,4.667,4.562c.78,1.877-.656,4.563-.059,6.526.59,1.942,3.28,3.374,3.68,5.39.395,1.987-1.541,4.338-1.341,6.388.2,2.012,2.555,3.943,2.555,6.006s-2.358,3.994-2.555,6.007c-.2,2.049,1.735,4.4,1.341,6.388-.4,2.016-3.09,3.449-3.68,5.391-.6,1.964.839,4.65.059,6.526-.787,1.893-3.705,2.769-4.668,4.563s-.085,4.719-1.22,6.412-4.171,1.99-5.466,3.566-1,4.61-2.441,6.053-4.475,1.143-6.053,2.44-1.867,4.328-3.566,5.466-4.608.252-6.412,1.22-2.67,3.881-4.562,4.668c-1.877.78-4.563-.656-6.526-.059-1.942.59-3.374,3.279-5.39,3.68-1.987.395-4.338-1.541-6.388-1.341-2.013.2-3.943,2.554-6.007,2.554" transform="translate(0.466 0.466)" fill="#d35560"/>
        <path id="Trazado_1004717" data-name="Trazado 1004717" d="M14,71.524a57.524,57.524,0,1,1,57.524,57.524A57.524,57.524,0,0,1,14,71.524" transform="translate(-7.524 -7.524)" fill="#4d787e"/>
        <path id="Trazado_1004718" data-name="Trazado 1004718" d="M131.909,269.316c-.153-.646-.3-1.314-.433-1.969l-2.01-.256q.9-.478,1.765-.962-.191-.985-.361-1.967c.46.452.931.917,1.416,1.362q.847-.526,1.657-1.055-.359.929-.741,1.855c.5.431,1.015.868,1.54,1.3l-2.02-.151q-.4.926-.813,1.849" transform="translate(-73.422 -150.295)" fill="#ffffc5"/>
        <path id="Trazado_1004719" data-name="Trazado 1004719" d="M113.426,265.848c-.055-.66-.1-1.343-.133-2.011l-1.949-.555q.962-.338,1.89-.686-.042-1-.061-2c.387.515.783,1.047,1.2,1.558q.916-.393,1.8-.794-.494.863-1.01,1.722c.431.5.872,1.016,1.329,1.509-.661-.137-1.317-.3-1.976-.449q-.529.856-1.081,1.706" transform="translate(-63.08 -148.261)" fill="#ffffc5"/>
        <path id="Trazado_1004720" data-name="Trazado 1004720" d="M95.721,259.733c.05-.672.108-1.345.172-2.013l-1.845-.838c.667-.124,1.326-.26,1.972-.4q.109-1,.239-1.984c.305.568.62,1.144.948,1.721q.965-.252,1.9-.518-.618.78-1.258,1.552c.352.559.712,1.129,1.088,1.693l-1.886-.741q-.652.767-1.325,1.525" transform="translate(-53.209 -144.782)" fill="#ffffc5"/>
        <path id="Trazado_1004721" data-name="Trazado 1004721" d="M79.2,251.1q.225-.987.47-1.963c-.565-.37-1.144-.718-1.7-1.105.667-.007,1.349-.058,2.007-.1q.256-.968.531-1.924.327.909.684,1.839c.652-.056,1.311-.146,1.95-.226q-.729.68-1.477,1.349.4.908.824,1.833L80.734,249.8c-.506.44-1.023.883-1.534,1.3" transform="translate(-44.034 -139.94)" fill="#ffffc5"/>
        <path id="Trazado_1004722" data-name="Trazado 1004722" d="M64.221,240.181q.368-.941.753-1.869c-.505-.448-1.035-.87-1.513-1.347.655.1,1.335.151,2,.207q.4-.918.807-1.822.192.945.41,1.914c.643.054,1.314.055,1.959.07q-.822.565-1.663,1.117.26.954.548,1.929l-1.593-1.253c-.57.365-1.13.707-1.7,1.054" transform="translate(-35.752 -133.852)" fill="#ffffc5"/>
        <path id="Trazado_1004723" data-name="Trazado 1004723" d="M51.1,227.217q.5-.876,1.018-1.735l-.663-.766c-.22-.256-.421-.528-.631-.792l.961.27.978.232q.525-.849,1.065-1.68.053.96.129,1.947l.955.2.969.162q-.9.439-1.812.862.119.978.263,1.982c-.464-.491-.938-.973-1.393-1.471q-.912.4-1.839.789" transform="translate(-28.54 -126.659)" fill="#ffffc5"/>
        <path id="Trazado_1004724" data-name="Trazado 1004724" d="M39.841,212.493q.625-.791,1.262-1.563c-.18-.286-.37-.565-.542-.856l-.506-.878c.616.274,1.207.55,1.839.786.431-.508.857-1,1.3-1.505-.067.643-.112,1.285-.159,1.943.616.229,1.214.456,1.845.645-.636.2-1.279.4-1.921.584-.019.658-.025,1.321-.027,2-.384-.555-.8-1.089-1.158-1.663q-.963.264-1.938.509" transform="translate(-22.272 -118.515)" fill="#ffffc5"/>
        <path id="Trazado_1004725" data-name="Trazado 1004725" d="M30.615,196.327q.734-.688,1.478-1.357c-.292-.61-.523-1.245-.774-1.872.571.362,1.115.723,1.7,1.054.5-.435,1.006-.868,1.522-1.3-.18.632-.3,1.253-.45,1.9.582.315,1.13.632,1.724.915-.662.106-1.323.2-1.978.288-.136.656-.223,1.3-.328,1.971-.3-.6-.629-1.2-.9-1.817q-.992.118-1.994.216" transform="translate(-17.006 -109.601)" fill="#ffffc5"/>
        <path id="Trazado_1004726" data-name="Trazado 1004726" d="M24.019,178.752q.829-.57,1.663-1.119c-.2-.646-.321-1.312-.483-1.967.509.444,1,.88,1.517,1.3.554-.355,1.135-.71,1.7-1.054-.278.6-.493,1.2-.732,1.809.526.4,1.033.792,1.563,1.164-.674.006-1.326,0-1.993-.014-.242.632-.419,1.256-.622,1.9-.221-.639-.438-1.278-.611-1.932q-1-.032-2.006-.086" transform="translate(-13.242 -99.79)" fill="#ffffc5"/>
        <path id="Trazado_1004727" data-name="Trazado 1004727" d="M20.215,160.164q.9-.439,1.812-.856c-.1-.668-.122-1.345-.182-2.018.437.516.856,1.02,1.3,1.511.6-.268,1.228-.532,1.843-.787-.365.551-.665,1.108-1,1.68.459.473.9.937,1.37,1.386-.665-.1-1.309-.2-1.967-.313-.334.588-.606,1.179-.9,1.785l-.179-1c-.056-.333-.089-.67-.135-1q-.984-.182-1.97-.386" transform="translate(-11.071 -89.302)" fill="#ffffc5"/>
        <path id="Trazado_1004728" data-name="Trazado 1004728" d="M19.269,141.311q.961-.3,1.921-.579c0-.676.063-1.349.115-2.022.359.574.682,1.135,1.072,1.687.64-.176,1.276-.346,1.93-.507-.428.492-.816,1-1.228,1.515.386.537.744,1.062,1.152,1.574q-.966-.29-1.905-.6c-.412.532-.767,1.076-1.153,1.631-.015-.675-.047-1.35-.015-2.025q-.945-.325-1.889-.673" transform="translate(-10.531 -78.698)" fill="#ffffc5"/>
        <path id="Trazado_1004729" data-name="Trazado 1004729" d="M21.174,122.6q1-.154,1.988-.286c.063-.332.112-.667.186-1l.228-.987c.266.621.507,1.224.81,1.828.663-.078,1.31-.152,1.981-.213-.489.424-.956.865-1.438,1.314.3.588.572,1.159.909,1.727-.6-.285-1.214-.58-1.8-.878-.471.467-.917.95-1.379,1.443.094-.668.149-1.343.283-2.006q-.885-.462-1.767-.947" transform="translate(-11.618 -68.211)" fill="#ffffc5"/>
        <path id="Trazado_1004730" data-name="Trazado 1004730" d="M25.928,104.462q1.007,0,2.007.015c.2-.644.459-1.27.708-1.9.173.655.316,1.286.525,1.929.664.021,1.322.048,1.994.088-.554.343-1.076.71-1.622,1.083.211.627.392,1.231.639,1.844-.553-.373-1.111-.756-1.647-1.139-.539.39-1.05.8-1.581,1.22.192-.648.351-1.305.583-1.941q-.806-.59-1.605-1.2" transform="translate(-14.331 -58.078)" fill="#ffffc5"/>
        <path id="Trazado_1004731" data-name="Trazado 1004731" d="M33.429,87.3q1,.147,1.98.315c.295-.608.656-1.181.986-1.77.071.672.132,1.326.228,1.984.648.118,1.311.252,1.964.389-.612.249-1.172.54-1.769.826.114.651.212,1.281.353,1.918-.5-.454-.976-.909-1.452-1.37-.6.3-1.159.634-1.749.966.279-.615.548-1.235.869-1.83q-.71-.7-1.409-1.43" transform="translate(-18.612 -48.53)" fill="#ffffc5"/>
        <path id="Trazado_1004732" data-name="Trazado 1004732" d="M43.489,71.506q.961.294,1.909.6c.393-.549.828-1.067,1.24-1.6q-.046,1.012-.071,2,.952.332,1.89.68c-.638.159-1.255.349-1.876.551q.02.988.06,1.948-.62-.775-1.225-1.566c-.642.206-1.253.446-1.878.692l.547-.853.586-.826q-.6-.8-1.183-1.625" transform="translate(-24.354 -39.775)" fill="#ffffc5"/>
        <path id="Trazado_1004733" data-name="Trazado 1004733" d="M55.279,57.409q.906.431,1.8.878l1.465-1.4q-.193,1-.359,1.97.891.467,1.766.95c-.646.071-1.3.15-1.94.264q-.124.983-.224,1.941-.5-.858-.981-1.732l-.989.183c-.327.067-.647.145-.974.22.432-.519.906-1,1.372-1.49q-.474-.884-.932-1.784" transform="translate(-30.831 -32.001)" fill="#ffffc5"/>
        <path id="Trazado_1004734" data-name="Trazado 1004734" d="M69.057,45.313c.553.372,1.1.749,1.652,1.141l1.651-1.175q-.335.961-.641,1.9.811.592,1.6,1.2c-.643-.015-1.315-.05-1.961-.03q-.265.958-.5,1.893-.367-.923-.716-1.861c-.659.027-1.347.038-2,.105.5-.451,1.054-.844,1.579-1.269q-.339-.946-.66-1.905" transform="translate(-38.421 -25.376)" fill="#ffffc5"/>
        <path id="Trazado_1004735" data-name="Trazado 1004735" d="M84.591,34.886c.492.45.986.918,1.469,1.382l1.8-.925q-.473.9-.914,1.792.713.705,1.407,1.42c-.634-.113-1.284-.229-1.937-.325q-.4.911-.774,1.8-.227-.969-.434-1.949c-.656-.071-1.331-.15-2-.2.577-.351,1.169-.678,1.752-1.018q-.2-.986-.371-1.985" transform="translate(-47.023 -19.444)" fill="#ffffc5"/>
        <path id="Trazado_1004736" data-name="Trazado 1004736" d="M101.552,26.946q.634.791,1.246,1.589c.64-.214,1.278-.44,1.921-.644-.405.538-.792,1.094-1.172,1.634q.6.8,1.177,1.613-.916-.311-1.866-.611c-.358.554-.7,1.119-1.034,1.67q-.08-.993-.139-1.994-.958-.254-1.949-.5l1.885-.745c-.03-.669-.056-1.348-.069-2.016" transform="translate(-56.455 -14.913)" fill="#ffffc5"/>
        <path id="Trazado_1004737" data-name="Trazado 1004737" d="M119.566,21.733q.507.876.993,1.758c.665-.115,1.329-.246,2-.349-.482.468-.948.962-1.4,1.439q.472.883.922,1.771-.858-.444-1.753-.883c-.439.486-.86,1-1.273,1.495q.07-.994.162-1.994-.908-.394-1.852-.78l1.974-.457c.071-.666.147-1.344.235-2" transform="translate(-66.511 -11.938)" fill="#ffffc5"/>
        <path id="Trazado_1004738" data-name="Trazado 1004738" d="M138.214,19.35q.371.944.72,1.888l2.025-.051q-.819.609-1.6,1.218.335.945.648,1.89-.784-.569-1.6-1.138c-.507.424-1,.862-1.483,1.29q.218-.972.459-1.946-.84-.527-1.715-1.051l2.02-.154c.17-.648.346-1.305.531-1.947" transform="translate(-76.959 -10.578)" fill="#ffffc5"/>
        <path id="Trazado_1004739" data-name="Trazado 1004739" d="M157.075,19.831c.153.647.3,1.314.433,1.969l2.01.256q-.9.478-1.765.962.191.985.36,1.967c-.46-.452-.931-.917-1.416-1.362q-.847.526-1.657,1.055.359-.929.741-1.855c-.5-.431-1.014-.868-1.54-1.3l2.021.151q.4-.926.813-1.849" transform="translate(-87.562 -10.852)" fill="#ffffc5"/>
        <path id="Trazado_1004740" data-name="Trazado 1004740" d="M175.741,23.17c.055.66.1,1.343.134,2.011l1.949.555q-.962.338-1.89.686.042,1,.061,2c-.387-.515-.782-1.047-1.2-1.558q-.916.393-1.8.794.494-.864,1.01-1.722c-.431-.5-.872-1.016-1.329-1.509.661.137,1.317.3,1.976.449q.53-.856,1.081-1.706" transform="translate(-98.088 -12.758)" fill="#ffffc5"/>
        <path id="Trazado_1004741" data-name="Trazado 1004741" d="M193.559,29.313c-.05.672-.108,1.345-.172,2.012l1.845.838c-.667.125-1.326.261-1.972.4q-.109,1-.239,1.984c-.305-.568-.62-1.144-.948-1.721q-.965.252-1.9.518.618-.78,1.257-1.552c-.351-.559-.712-1.129-1.087-1.693l1.886.741q.652-.767,1.325-1.525" transform="translate(-108.072 -16.264)" fill="#ffffc5"/>
        <path id="Trazado_1004742" data-name="Trazado 1004742" d="M209.923,38.133q-.225.987-.47,1.963c.565.37,1.144.718,1.7,1.105-.667.007-1.349.058-2.007.1q-.256.968-.531,1.924-.327-.909-.684-1.839c-.652.056-1.311.146-1.95.226q.729-.68,1.477-1.349-.4-.908-.824-1.833l1.756,1.011c.506-.44,1.022-.883,1.534-1.3" transform="translate(-117.09 -21.297)" fill="#ffffc5"/>
        <path id="Trazado_1004743" data-name="Trazado 1004743" d="M224.9,49.134q-.368.941-.753,1.869c.505.448,1.035.87,1.513,1.347-.655-.1-1.335-.151-2-.206q-.4.918-.807,1.822-.192-.945-.41-1.913c-.643-.055-1.314-.055-1.959-.07q.823-.565,1.663-1.117-.26-.954-.548-1.929l1.593,1.252c.57-.365,1.13-.707,1.7-1.054" transform="translate(-125.371 -27.463)" fill="#ffffc5"/>
        <path id="Trazado_1004744" data-name="Trazado 1004744" d="M238.176,61.933q-.5.876-1.018,1.735l.663.766c.22.256.42.528.632.792l-.961-.27-.978-.232q-.525.849-1.065,1.68-.053-.96-.129-1.947l-.955-.2-.969-.162q.9-.439,1.812-.862-.119-.978-.263-1.982c.464.491.938.973,1.393,1.471q.912-.4,1.839-.789" transform="translate(-132.736 -34.491)" fill="#ffffc5"/>
        <path id="Trazado_1004745" data-name="Trazado 1004745" d="M249.453,76.636q-.625.791-1.261,1.563c.18.285.37.565.542.856l.506.878c-.616-.274-1.207-.55-1.839-.786-.431.508-.857,1-1.3,1.505.067-.643.112-1.285.159-1.943-.616-.229-1.214-.455-1.845-.645.636-.2,1.279-.4,1.921-.585.019-.657.025-1.32.027-2,.384.555.8,1.089,1.158,1.663q.963-.264,1.938-.509" transform="translate(-139.022 -42.614)" fill="#ffffc5"/>
        <path id="Trazado_1004746" data-name="Trazado 1004746" d="M258.476,92.93q-.734.688-1.478,1.357c.292.61.523,1.245.774,1.872-.571-.362-1.115-.722-1.7-1.054-.5.435-1.006.868-1.522,1.3.18-.632.3-1.253.45-1.9-.582-.315-1.13-.632-1.724-.915.662-.106,1.324-.2,1.978-.288.136-.656.223-1.3.328-1.971.3.6.629,1.2.9,1.818q.992-.118,1.994-.215" transform="translate(-144.085 -51.657)" fill="#ffffc5"/>
        <path id="Trazado_1004747" data-name="Trazado 1004747" d="M265.025,110.463q-.829.571-1.663,1.119c.2.646.321,1.312.483,1.967-.509-.444-1-.88-1.517-1.3-.554.355-1.135.71-1.7,1.054.278-.6.493-1.195.733-1.809-.526-.4-1.033-.792-1.563-1.164.674-.006,1.326,0,1.993.014.242-.631.419-1.256.622-1.9.221.639.438,1.278.611,1.932q1,.032,2.006.086" transform="translate(-147.801 -61.426)" fill="#ffffc5"/>
        <path id="Trazado_1004748" data-name="Trazado 1004748" d="M268.935,128.842q-.9.439-1.812.856c.1.668.122,1.345.182,2.018-.437-.516-.856-1.02-1.3-1.511-.6.268-1.228.532-1.843.787.365-.551.665-1.108,1-1.68-.459-.473-.9-.937-1.37-1.386.665.1,1.309.2,1.967.313.334-.588.606-1.178.9-1.785l.179,1c.056.333.089.67.135,1q.984.182,1.97.386" transform="translate(-150.079 -71.704)" fill="#ffffc5"/>
        <path id="Trazado_1004749" data-name="Trazado 1004749" d="M270.032,147.643q-.961.3-1.921.579c0,.676-.063,1.349-.115,2.022-.359-.574-.682-1.135-1.072-1.687-.64.176-1.276.346-1.93.507.428-.492.816-1,1.228-1.515-.386-.537-.744-1.062-1.152-1.574q.966.29,1.905.6c.412-.532.767-1.076,1.153-1.631.015.675.047,1.35.015,2.025q.945.326,1.889.673" transform="translate(-150.77 -82.257)" fill="#ffffc5"/>
        <path id="Trazado_1004750" data-name="Trazado 1004750" d="M267.922,166.455q-1,.154-1.988.286c-.063.332-.112.667-.186,1l-.228.987c-.266-.621-.507-1.224-.81-1.828-.663.078-1.31.152-1.981.213.489-.424.956-.865,1.439-1.314-.3-.588-.572-1.159-.909-1.727.6.285,1.214.58,1.8.878.471-.467.917-.95,1.379-1.443-.094.668-.149,1.343-.283,2.006q.885.462,1.767.947" transform="translate(-149.478 -92.847)" fill="#ffffc5"/>
        <path id="Trazado_1004751" data-name="Trazado 1004751" d="M263.113,184.858q-1.007,0-2.007-.015c-.2.644-.459,1.27-.708,1.9-.173-.655-.315-1.287-.525-1.929-.664-.021-1.322-.048-1.994-.088.554-.343,1.076-.71,1.622-1.083-.211-.626-.391-1.231-.639-1.844.553.373,1.111.755,1.647,1.138.539-.39,1.05-.8,1.581-1.219-.192.647-.351,1.305-.583,1.94q.806.59,1.605,1.2" transform="translate(-146.71 -103.243)" fill="#ffffc5"/>
        <path id="Trazado_1004752" data-name="Trazado 1004752" d="M255.713,201.893q-1-.147-1.98-.315c-.295.608-.656,1.181-.986,1.769-.071-.672-.132-1.326-.228-1.984-.648-.118-1.311-.252-1.964-.389.612-.249,1.172-.54,1.769-.826-.114-.651-.211-1.281-.353-1.918.5.454.976.909,1.452,1.37.6-.3,1.159-.634,1.749-.966-.279.615-.548,1.235-.868,1.83q.709.7,1.408,1.429" transform="translate(-142.53 -112.667)" fill="#ffffc5"/>
        <path id="Trazado_1004753" data-name="Trazado 1004753" d="M245.906,217.614q-.961-.293-1.909-.6c-.393.549-.828,1.067-1.24,1.6q.046-1.012.071-2-.952-.332-1.89-.68c.638-.159,1.255-.349,1.876-.551q-.02-.988-.06-1.948.62.775,1.225,1.566c.642-.206,1.253-.446,1.878-.692l-.547.853-.586.826q.6.8,1.183,1.625" transform="translate(-137.041 -121.346)" fill="#ffffc5"/>
        <path id="Trazado_1004754" data-name="Trazado 1004754" d="M233.928,231.779q-.906-.431-1.8-.878l-1.465,1.4q.193-1,.359-1.97-.891-.467-1.766-.95c.646-.071,1.3-.15,1.94-.264q.124-.983.224-1.941.5.858.981,1.732l.989-.183c.327-.067.647-.145.974-.22-.432.519-.906,1-1.372,1.49q.474.884.932,1.784" transform="translate(-130.376 -129.187)" fill="#ffffc5"/>
        <path id="Trazado_1004755" data-name="Trazado 1004755" d="M220.049,244.088c-.553-.372-1.1-.749-1.652-1.141l-1.651,1.175q.335-.961.641-1.9-.811-.592-1.6-1.2c.643.015,1.315.05,1.961.03q.265-.958.5-1.893.367.923.717,1.861c.659-.027,1.347-.038,2-.105-.5.451-1.054.844-1.579,1.269q.339.946.66,1.905" transform="translate(-122.685 -136.026)" fill="#ffffc5"/>
        <path id="Trazado_1004756" data-name="Trazado 1004756" d="M204.568,254.268c-.492-.449-.986-.918-1.469-1.382l-1.8.925q.473-.9.914-1.792-.713-.706-1.407-1.421c.634.113,1.284.229,1.937.325q.4-.91.774-1.8.227.97.434,1.95c.656.071,1.33.149,2,.2-.577.352-1.168.678-1.752,1.019q.2.986.371,1.984" transform="translate(-114.135 -141.71)" fill="#ffffc5"/>
        <path id="Trazado_1004757" data-name="Trazado 1004757" d="M187.815,262.073q-.634-.791-1.246-1.589c-.64.214-1.278.44-1.921.644.405-.538.793-1.094,1.172-1.634q-.6-.8-1.177-1.613.916.311,1.866.611c.358-.554.7-1.119,1.034-1.67q.08.993.139,1.995.958.254,1.949.5l-1.885.745c.03.669.056,1.348.069,2.016" transform="translate(-104.913 -146.107)" fill="#ffffc5"/>
        <path id="Trazado_1004758" data-name="Trazado 1004758" d="M169.522,267.312q-.507-.876-.993-1.758c-.665.116-1.329.246-2,.349.482-.468.948-.963,1.4-1.439q-.472-.883-.922-1.771.858.444,1.753.883c.439-.486.86-1,1.273-1.495q-.07.994-.162,1.994.908.394,1.852.78l-1.974.457c-.071.666-.147,1.344-.235,2" transform="translate(-94.577 -149.108)" fill="#ffffc5"/>
        <path id="Trazado_1004759" data-name="Trazado 1004759" d="M150.745,269.873q-.371-.943-.719-1.888l-2.025.051q.819-.609,1.6-1.219-.336-.945-.648-1.89.784.569,1.6,1.138c.507-.424,1-.862,1.483-1.29q-.218.972-.459,1.946.84.527,1.715,1.05l-2.02.154c-.17.648-.346,1.305-.531,1.946" transform="translate(-84 -150.646)" fill="#ffffc5"/>
        <path id="Trazado_1004760" data-name="Trazado 1004760" d="M83.637,132.05A48.412,48.412,0,1,1,132.05,83.637,48.467,48.467,0,0,1,83.637,132.05" transform="translate(-19.637 -19.638)" fill="#fff7e8"/>
      </g>
    </g>
    <g id="Grupo_1180053" data-name="Grupo 1180053" transform="translate(-13402.254 -12647.618)">
      <rect id="Rectángulo_401104" data-name="Rectángulo 401104" width="60.508" height="61.237" transform="translate(0)" fill="none"/>
    </g>
    <g id="Grupo_1187701" data-name="Grupo 1187701" transform="translate(-13404.633 -12653.654)">
      <g id="Grupo_1187700" data-name="Grupo 1187700" clip-path="url(#clip-path-2)">
        <path id="Trazado_1032831" data-name="Trazado 1032831" d="M131.851,42.1l-.062-.011.044.027.017-.016" transform="translate(-97.507 -31.141)" fill="#4d787e"/>
        <path id="Trazado_1032832" data-name="Trazado 1032832" d="M174.344,143.463l.01-.011-.011-.006c0,.005,0,.011,0,.017" transform="translate(-128.992 -106.132)" fill="#4d787e"/>
        <path id="Trazado_1032833" data-name="Trazado 1032833" d="M113.644,145.386a.855.855,0,0,1-.016.195c0,.005,0,.011,0,.016.063-.019.129-.037.2-.054Z" transform="translate(-84.069 -107.567)" fill="#4d787e"/>
        <path id="Unión_3" data-name="Unión 3" d="M8449.854-5574.15c1.48-1.136.45-1.4-.541-1.819a4.521,4.521,0,0,0-2.2-.468,21.987,21.987,0,0,0,6.553-9.453c.321-.894.341-1.351-.717-1.451a6.383,6.383,0,0,1-1.04-.261,69.525,69.525,0,0,0-8.17-1.179.5.5,0,0,1-.1-.113c-.017-.041-.017-.13,0-.136a4.038,4.038,0,0,0,.674-.274,1.416,1.416,0,0,1,.832-.128c.437.017.836.032.841-.44,0-.56-.384-.542-.828-.525a1.284,1.284,0,0,1-.968-.21c.425-.045.764-.079,1.1-.115a27.928,27.928,0,0,1,8.468,1.359c.93.276,1.15-.006,1.334-.771a52.559,52.559,0,0,0,1.645-9.848,3.072,3.072,0,0,0,.234-.553c.148-.672-.53-1.84,1.161-1.525a1.2,1.2,0,0,0,.917-1.646c-.687-1.187-.442-2.5-.814-3.708-.1-.323.049-.834-.458-.825-.612.01-.412.574-.487.947-.17.866.4,1.84-.374,2.614l-.011-.006a61.937,61.937,0,0,0-1.717-11.682c-.292-1.1-.545-1.47-1.8-1.089a31.713,31.713,0,0,1-9.706,1.419,3.974,3.974,0,0,1,2.224-.681,1.106,1.106,0,0,0,1.015-.774c.147-.574-.634-.357-.778-.734,1.962-.345,3.923-.685,5.885-1.036,1.145-.207,1.953-.515.944-1.891a7.182,7.182,0,0,1-1.155-2.473,11.518,11.518,0,0,0-5.939-7.4.085.085,0,0,1,.017-.015,3.675,3.675,0,0,0,1.215-.083c.982-.174,1.968-.347,2.412,1.27.153.556.375,1.57,1.241,1.232.771-.3,0-1.2.2-1.806.017-.053-.117-.153-.175-.238-.617-.909,0-.959.643-.842.5.093,1.07.436,1.28-.288a7.407,7.407,0,0,0,.417-3.038c-.464.017-.513.309-.663.5-.126.155-.179.589-.489.149v0c1.627-4.47,6.638-7.808,11.727-7.81a13.124,13.124,0,0,1,13.08,13.823,20.527,20.527,0,0,1-4.025,10.214,6.316,6.316,0,0,0-.827,6.138,30.65,30.65,0,0,1-20.765,37.768,6.449,6.449,0,0,1-.911.132C8450.109-5573.989,8449.723-5574.048,8449.854-5574.15Zm6.048-11.372a32.554,32.554,0,0,1-5.648,9.37,28.731,28.731,0,0,0,12.436-7.266,30.93,30.93,0,0,0-5.585-2.568,1.436,1.436,0,0,0-.523-.126C8456.293-5586.112,8456.066-5585.951,8455.9-5585.522Zm3.025-15.416a43.1,43.1,0,0,1-1.851,11.676c-.247.821.157.959.728,1.174a35.654,35.654,0,0,1,5.583,2.555c.385.226.721.472,1.168-.072a28.612,28.612,0,0,0,6.372-15.737c.072-.732-.133-1-.911-.972-1.645.057-3.293.017-4.942.017v-.058c-1.544,0-3.1.1-4.632-.032-.105-.009-.2-.013-.3-.013C8459.2-5602.4,8458.947-5601.937,8458.928-5600.938Zm11.1-3.566c.807.011.985-.3.894-1a31.417,31.417,0,0,0-1.6-7.266c-1.394,1.627-2.645,3.125-3.94,4.587-1.4,1.581-1.733,1.583-3.159.02-1.289-1.417-2.54-2.873-4.031-4.566a37.975,37.975,0,0,1,.719,7.11c-.006.755.206,1.119,1.053,1.11q2.612-.03,5.224-.031Q8467.608-5604.535,8470.027-5604.5Zm-6.865-5.77c.621.743.885.292,1.276-.145a59.747,59.747,0,0,0,6.482-8.619c1.8-2.949,3.506-5.987,3.693-9.521a10.907,10.907,0,0,0-10.4-11.235c-5.515-.392-10.791,4.34-11.31,9.767-.556.275.161,1.236-.658,1.313-1.112.1-.968.789-.823,1.53.117.6.2,1.2.311,1.8s.232,1.307.917,1.458c.911.2.4-.911.9-1.143C8455.815-5619.526,8459.36-5614.822,8463.162-5610.274Zm-1.24-15.716c-.586-.577-1.173-1.155-1.736-1.755a1,1,0,0,1-.09-1.506c.536-.566,1.13-.37,1.651.026a10.022,10.022,0,0,1,.98.955c.983-.966,1.947-1.964,2.971-2.9.446-.4.94-1.11,1.657-.311a1.21,1.21,0,0,1-.1,1.883c-1.164,1.166-2.314,2.342-3.468,3.521a1.425,1.425,0,0,1-.985.513A1.262,1.262,0,0,1,8461.922-5625.99Z" transform="translate(-8411.56 5642)" fill="#4d787e" stroke="rgba(0,0,0,0)" stroke-miterlimit="10" stroke-width="1"/>
        <path id="Trazado_1032835" data-name="Trazado 1032835" d="M155.3,30.118c.009-.029.02-.055.029-.085a.292.292,0,0,0-.029.085" transform="translate(-114.9 -22.221)" fill="#4d787e"/>
        <path id="Unión_5" data-name="Unión 5" d="M8465.658-5582.028a.2.2,0,0,0,.064-.027c.038-.028.1-.073.1-.1-.126-.72-.771-1.312-.562-2.114a.7.7,0,0,1,.563.115c.254.126.5.254.759-.019a1.892,1.892,0,0,0,.236.047c.6-.35,1.274-.611,1.554-1.315,1.289.746,2.342,1.856,3.876,2.235.878.218,1.065.081,1.055-.784-.038-3.294-.025-6.591-.027-9.887,0-1.7,0-2.265-.748-2.453a1.922,1.922,0,0,0,.222-.06c.234-.079.52-.167.471-.5-.036-.219-.251-.3-.445-.371-.631-.234-1.323-.051-2.082-.311.771-.4,1.754-.03,2.286-.8a1.173,1.173,0,0,0-.413-.388c.827-.413.8-1.428.746-2.54-.092-1.847-.032-3.7-.034-5.557,0-.978.328-2.14-.09-2.888a.833.833,0,0,0-.447-.392c.471-.381.354-1.159.454-1.686-.97.286-1.228.774-.422,1.564h-2.4c-3.2.044-6.391.119-9.583.108-.7,0-.88.16-.839.831a51.916,51.916,0,0,0,1.787,11.407c.229.778.429.925,1.26.69a28.663,28.663,0,0,1,8.338-1.349,1.681,1.681,0,0,0,.486.034,1.168,1.168,0,0,1,.893.234c-1.062.2-2.227-.211-3.056.754a2.457,2.457,0,0,0,2.022.563,3.944,3.944,0,0,1,1.363.125,2.1,2.1,0,0,1-1.093.167,1.553,1.553,0,0,0-1.166.271c-2.329.373-4.669.65-6.964,1.251-1.022.268-1.035.628-.705,1.436a27.708,27.708,0,0,0,5.188,8.259,4.793,4.793,0,0,0-1.666,1.232,6.426,6.426,0,0,1-.571-.5,27.54,27.54,0,0,1-5.059-8.376c-.137-.352,0-1.255-.865-.9a30.405,30.405,0,0,0-5.971,2.7,31.046,31.046,0,0,0,11.036,7.068c-1.119.857.341,1.415.247,2.154a28.486,28.486,0,0,1-15.473-10.626,30.557,30.557,0,0,1,7.82-44.44,13.911,13.911,0,0,1,1.507-.742c-.6,1.675,1.067.944,1.558,1.464-2.385,1.518-4.835,2.943-6.751,5.146a49.092,49.092,0,0,0,5.523,2.572c.537.226.957.307,1.208-.39a31.594,31.594,0,0,1,5.673-9.38c-1.4-.075-2.389.582-3.463.92-.168-1.4-1.455-.8-2.18-1.214a17.777,17.777,0,0,1,6.41-2.235.558.558,0,0,1,.181-.049l-.181.049c.062-.017.121-.032.181-.047.131-.01.234.049.229.189.007-.142-.095-.2-.229-.191a27.33,27.33,0,0,1,14.192.011c1.122.286,1.969.345,2.369-.9a1.083,1.083,0,0,0-.007.2c0,.209.194.16.386.109.263-.068.522-.134.324.43-.209.586.013,1.5-.97,1.473-1.534-.047-1.6.695-1.148,1.839a.545.545,0,0,1-.141.7c-.548-.3-.586-.927-.878-1.389a2.639,2.639,0,0,0-3.62-.307.37.37,0,0,1-.064-.011c-.238-.081-.483-.16-.727-.243-1.7-.592-1.7-.592-1.7,1.134,0,2.99.008,5.979,0,8.967-.013,2.9-.023,2.907,2.745,2.966.132.708-.094,1.142-.923,1.221a3.015,3.015,0,0,0-1.3.413c-.3.186-.381.377-.245.559-.458.409-.272.952-.274,1.442-.011,1.541,0,3.079.013,4.62.015,1.739-.633,4.042.232,5.067.687.816,2.066.644,3.441.471a13.464,13.464,0,0,1,1.675-.143,62.041,62.041,0,0,0,8.136-.092s.011-.006.011-.011c.518.284.58-.232.68-.558a19.06,19.06,0,0,0,.168-2.112c.382,1.276.337,2.431.721,3.514a.867.867,0,0,1-.871,1.276.869.869,0,0,0-.951.761l-.025-.582a1.279,1.279,0,0,1-.121-1.9h-12.649a1.769,1.769,0,0,1-.177,1.858c-.42.364-.277.854-.277,1.3-.011,2.674.111,5.355-.049,8.021-.068,1.166.139,1.912.914,2.216a.87.87,0,0,0-.307.3c.222.556.737.428,1,.654-.373.56-1.86-.126-1.419,1.334l.015.008a2.141,2.141,0,0,0-.128,1.242c-.021,2.781-.056,5.564-.013,8.345.015,1.255-.6,2.962.271,3.646.844.661,2.167-.7,3.346-.957.023-.006.04-.049.06-.087.559.5,1.357.383,1.986.731.528.3,1.178.369.588,1.278-.415.635.171.571.588.458a27.447,27.447,0,0,1-7.927,1.187A28,28,0,0,1,8465.658-5582.028Zm-19.749-27.062a29.438,29.438,0,0,0,6.075,15.4c.439.586.777.705,1.485.311a22.206,22.206,0,0,1,5.589-2.476c.759-.181.851-.533.625-1.326a46.255,46.255,0,0,1-1.888-11.995c-.016-.837-.3-1.046-1.079-1.023-1.6.049-3.194.015-4.79.015v.006c-1.649,0-3.3.03-4.941-.015-.047,0-.094,0-.137,0C8446.118-5610.2,8445.826-5610.013,8445.909-5609.09Zm27.284-2.747a.037.037,0,0,1,0,.015c.062-.019.13-.036.2-.053l-.184-.158A.893.893,0,0,1,8473.193-5611.837Zm-11.494-12.779a58.319,58.319,0,0,0-1.756,11.407c-.043.678.224.936.831.991H8473c.07.062.141.124.213.185a.44.44,0,0,0-.33-.43c.281-.1.431-.333.42-.891-.054-3.147-.03-6.295.011-9.44a1.053,1.053,0,0,0-.326-.923.419.419,0,0,0,.236-.32c.072-.454-.411-.49-.727-.571-.6-.156-1.219-.224-.771-1.121a.26.26,0,0,0-.036-.269c1.437.234,1.69-.535,1.626-1.986-.128-3.024-.02-6.058-.013-9.086,0-2.668,0-2.67-2.506-1.815l-.009,0a7.215,7.215,0,0,0-2.039,1.417,26.523,26.523,0,0,0-5.687,8.683c-.456,1.008-.013,1.2.782,1.4a66.067,66.067,0,0,0,7.564,1.336c.034.143.139.341.081.418-.211.288-.925.113-.782.7.115.456.676.386,1.04.518s.833.07,1.157.262c.164.1-.205.188-.35.258a34.143,34.143,0,0,1-9.41-1.43,2.631,2.631,0,0,0-.653-.115C8462.1-5625.44,8461.865-5625.231,8461.7-5624.616Zm-4.853,12.293c.768.03.946-.217.964-.951a48.055,48.055,0,0,1,1.875-12.174c.215-.754.015-.982-.607-1.208a23.736,23.736,0,0,1-5.34-2.368c-.993-.669-1.492-.366-2.1.475a30.405,30.405,0,0,0-5.783,15.241c-.085.858.258.933.929.922,1.705-.023,3.408-.008,5.112-.008a.446.446,0,0,0,0,.051c.959,0,1.918-.015,2.877-.015C8455.46-5612.357,8456.154-5612.351,8456.847-5612.323Zm11.875-26.315a2.136,2.136,0,0,1-1.035-.284A2.13,2.13,0,0,0,8468.722-5638.638Zm2.062-.245a.644.644,0,0,0-.464-.213A.647.647,0,0,1,8470.783-5638.883Zm-1.509-.253a10.009,10.009,0,0,1,.981-.267,9.91,9.91,0,0,0-.983.267c-1.136.13-1.662-.134-1.683-.908C8467.609-5639.27,8468.137-5639.006,8469.274-5639.136Zm-1.873-1.784c.023.039.036.13.021.139-.076.042-.163.081-.251.12.088-.039.175-.079.251-.12.017-.008,0-.1-.02-.139a.434.434,0,0,0-.114-.1A.424.424,0,0,1,8467.4-5640.92Z" transform="translate(-8443.634 5649.852)" fill="#4d787e" stroke="rgba(0,0,0,0)" stroke-miterlimit="10" stroke-width="1"/>
        <path id="Trazado_1032837" data-name="Trazado 1032837" d="M84.095,260.554c-.068-.022-.135-.041-.2-.064a.236.236,0,0,0,.2.064" transform="translate(-62.07 -192.73)" fill="#4d787e"/>
        <path id="Trazado_1032838" data-name="Trazado 1032838" d="M155.408,30.031h0Z" transform="translate(-114.982 -22.219)" fill="#4d787e"/>
        <path id="Trazado_1032840" data-name="Trazado 1032840" d="M123.335,93.575h0a3.964,3.964,0,0,1,2.222-.682,1.109,1.109,0,0,0,1.016-.775c.146-.574-.633-.357-.78-.733h0c.136.707-.093,1.142-.923,1.222a2.979,2.979,0,0,0-1.292.413c-.3.184-.384.377-.245.559Z" transform="translate(-91.202 -67.613)" fill="#4d787e"/>
        <path id="Trazado_1032841" data-name="Trazado 1032841" d="M122.945,198.613h0a.452.452,0,0,1-.1-.114c-.017-.041-.016-.129,0-.137a3.9,3.9,0,0,0,.674-.275c.532-.362,1.665.23,1.672-.567.008-.985-1.2-.181-1.8-.735l1.1-.116a2.785,2.785,0,0,1-1.014-.158.881.881,0,0,0-.309.3c.223.556.738.429,1,.655-.373.559-1.859-.126-1.421,1.332l.014.01a.924.924,0,0,1,.18-.2" transform="translate(-90.761 -145.394)" fill="#4d787e"/>
        <path id="Trazado_1032842" data-name="Trazado 1032842" d="M173.483,138.035a3.234,3.234,0,0,0,.234-.553c.15-.672-.531-1.842,1.163-1.526a1.2,1.2,0,0,0,.915-1.647c-.686-1.187-.441-2.5-.814-3.708-.1-.323.05-.835-.457-.826-.613.011-.412.575-.486.948-.17.865.4,1.84-.375,2.614.518.283.579-.233.677-.558a19.114,19.114,0,0,0,.17-2.111c.383,1.276.337,2.43.718,3.512a.868.868,0,0,1-.869,1.279.869.869,0,0,0-.951.761q.038.908.075,1.816" transform="translate(-128.3 -96.017)" fill="#4d787e"/>
        <path id="Trazado_1032843" data-name="Trazado 1032843" d="M139.379,254.3c1.482-1.137.452-1.4-.54-1.82a4.508,4.508,0,0,0-2.2-.467.4.4,0,0,0-.02.044c.558.5,1.362.385,1.986.733.53.295,1.181.368.59,1.277-.414.637.171.572.589.458h0c-.156-.063-.543-.123-.411-.224" transform="translate(-101.085 -186.448)" fill="#4d787e"/>
        <path id="Trazado_1032844" data-name="Trazado 1032844" d="M138.076,28.485c0,.493,1.056-.445.707.54-.207.585.014,1.5-.967,1.472-1.536-.046-1.6.7-1.148,1.84a.55.55,0,0,1-.142.7c-.548-.3-.588-.927-.878-1.391a2.638,2.638,0,0,0-3.621-.305c1.257.22,2.994-1.122,3.628,1.187.152.555.373,1.571,1.24,1.232.772-.3,0-1.2.2-1.806.018-.054-.116-.154-.173-.237-.617-.91,0-.961.642-.843.5.093,1.069.434,1.28-.289a7.388,7.388,0,0,0,.418-3.037c-.464.017-.512.309-.663.5-.125.156-.18.589-.49.148h0c-.009.03-.019.056-.029.085a1.089,1.089,0,0,0,0,.2" transform="translate(-97.683 -20.384)" fill="#4d787e"/>
        <path id="Trazado_1032846" data-name="Trazado 1032846" d="M82.348,254.239c-.125-.72-.771-1.312-.564-2.113a.376.376,0,0,0-.051.021c-1.115.857.344,1.416.25,2.155.068.023.135.042.2.064a.2.2,0,0,0,.063-.028c.04-.027.1-.072.1-.1" transform="translate(-60.16 -186.541)" fill="#4d787e"/>
        <path id="Trazado_1032847" data-name="Trazado 1032847" d="M103.125,198.782c.234-.08.522-.165.47-.5-.034-.22-.249-.3-.442-.372-.632-.234-1.324-.051-2.081-.311.77-.4,1.75-.031,2.285-.8a1.191,1.191,0,0,0-.412-.389,2.445,2.445,0,0,1-1.228.19c.423.121.909-.128,1.379.269-1.062.2-2.23-.211-3.06.753.994.986,2.24.307,3.389.69-.765.4-1.626-.113-2.258.436a8.417,8.417,0,0,1,1.737.094,1.931,1.931,0,0,0,.222-.06" transform="translate(-74.014 -145.319)" fill="#4d787e"/>
        <path id="Trazado_1032848" data-name="Trazado 1032848" d="M88.44,248.832c.6-.349,1.273-.611,1.552-1.314l-.062-.036a4.754,4.754,0,0,0-1.667,1.231.84.84,0,0,1-.063.073,2.106,2.106,0,0,0,.24.046" transform="translate(-65.257 -183.105)" fill="#4d787e"/>
        <path id="Trazado_1032849" data-name="Trazado 1032849" d="M105.147,147.884c.474-.382.357-1.16.455-1.686-.967.286-1.226.773-.422,1.564h-2.4c.725.316,1.717-.123,2.366.122" transform="translate(-76.045 -108.168)" fill="#4d787e"/>
        <path id="Trazado_1032850" data-name="Trazado 1032850" d="M106.526,93.512c.071-.455-.413-.49-.728-.573-.595-.155-1.22-.222-.77-1.121a.262.262,0,0,0-.038-.267c-.089-.014-.182-.032-.281-.055.031.143.136.34.079.418-.212.288-.924.112-.78.7.112.454.673.384,1.037.517s.837.069,1.159.261c.164.1-.2.188-.347.257a1.054,1.054,0,0,1,.429.181.417.417,0,0,0,.24-.319" transform="translate(-76.939 -67.696)" fill="#4d787e"/>
        <path id="Trazado_1032851" data-name="Trazado 1032851" d="M78,143.733a2.15,2.15,0,0,1-.684.068c-3.3-.019-6.6,0-9.9.025a3.017,3.017,0,0,0-1.518.151H78.113l.213.186a.438.438,0,0,0-.33-.43" transform="translate(-48.751 -106.344)" fill="#4d787e"/>
        <path id="Trazado_1032852" data-name="Trazado 1032852" d="M61.848,44.889l2.122-1.1c-.6-.585-1.653-.449-2.133-1.238a3.4,3.4,0,0,0-1.567.881h0c.15.859,1.339.681,1.578,1.453" transform="translate(-44.592 -31.485)" fill="#4d787e"/>
        <path id="Trazado_1032853" data-name="Trazado 1032853" d="M68.426,43.793l.048-.024c-.17-1.4-1.457-.8-2.181-1.214.48.789,1.529.653,2.133,1.238" transform="translate(-49.048 -31.485)" fill="#4d787e"/>
        <path id="Trazado_1032854" data-name="Trazado 1032854" d="M61.462,47.406l.021-.011c-.239-.772-1.428-.594-1.578-1.453-.6,1.675,1.066.945,1.556,1.464" transform="translate(-44.228 -33.991)" fill="#4d787e"/>
        <path id="Trazado_1032855" data-name="Trazado 1032855" d="M154.2,48.006a13.842,13.842,0,0,1,.246-1.976c-.555.276.162,1.237-.659,1.313-1.111.1-.967.789-.823,1.53.117.6.2,1.2.311,1.8s.232,1.307.917,1.459c.909.2.4-.911.9-1.142a3.243,3.243,0,0,1-.893-2.98" transform="translate(-113.101 -34.056)" fill="#4d787e"/>
        <path id="Trazado_1032856" data-name="Trazado 1032856" d="M158.095,46.031a13.838,13.838,0,0,0-.246,1.976,3.243,3.243,0,0,0,.893,2.98,17.421,17.421,0,0,1-.648-4.956" transform="translate(-116.751 -34.057)" fill="#4d787e"/>
        <path id="Trazado_1032857" data-name="Trazado 1032857" d="M137.079,147.692c-.237-1.152-1.036-1.445-2.327-1.373a61.072,61.072,0,0,1-7.118,0c-1.342-.083-2.243.147-2.529,1.382a42.413,42.413,0,0,1,11.974-.005" transform="translate(-92.562 -108.243)" fill="#4d787e"/>
        <path id="Trazado_1032858" data-name="Trazado 1032858" d="M123.943,146.74c.286-1.235,1.187-1.465,2.529-1.382a61.072,61.072,0,0,0,7.118,0c1.291-.071,2.09.221,2.327,1.373a3.251,3.251,0,0,1,.567.171,1.282,1.282,0,0,1-.124-1.9H123.713a1.78,1.78,0,0,1-.178,1.859h0a3.069,3.069,0,0,1,.408-.126" transform="translate(-91.4 -107.287)" fill="#4d787e"/>
        <path id="Trazado_1032859" data-name="Trazado 1032859" d="M137,150.451a42.413,42.413,0,0,0-11.974.005c-.01.042-.021.082-.029.127l12.034.037c-.009-.059-.02-.115-.031-.17" transform="translate(-92.48 -111.002)" fill="#4d787e"/>
        <path id="Trazado_1032860" data-name="Trazado 1032860" d="M123.944,151.671a3.069,3.069,0,0,0-.408.126h.379c.008-.044.019-.085.029-.127" transform="translate(-91.401 -112.217)" fill="#4d787e"/>
        <path id="Trazado_1032861" data-name="Trazado 1032861" d="M171.167,151.821l.535,0a3.252,3.252,0,0,0-.567-.171c.011.055.023.111.031.17" transform="translate(-126.619 -112.203)" fill="#4d787e"/>
        <path id="Trazado_1032862" data-name="Trazado 1032862" d="M178.3,35.878a8.027,8.027,0,1,0-8.085-7.992,8.028,8.028,0,0,0,8.085,7.992M178.231,22a5.849,5.849,0,1,1-5.875,5.758A5.987,5.987,0,0,1,178.231,22" transform="translate(-125.941 -14.668)" fill="#4d787e"/>
      </g>
    </g>
  </g>
</svg>
