<svg xmlns="http://www.w3.org/2000/svg" xmlns:xlink="http://www.w3.org/1999/xlink" width="150" height="150" viewBox="0 0 150 150">
  <defs>
    <clipPath id="clip-path">
      <rect id="Rectángulo_456277" data-name="Rectángulo 456277" width="150" height="150" transform="translate(-0.059 -0.059)" fill="#d35560"/>
    </clipPath>
    <clipPath id="clip-path-2">
      <rect id="Rectángulo_459938" data-name="Rectángulo 459938" width="84.001" height="84.016" fill="none"/>
    </clipPath>
  </defs>
  <g id="Grupo_1186079" data-name="Grupo 1186079" transform="translate(-413.192 -9435.133)">
    <g id="Grupo_1180081" data-name="Grupo 1180081" transform="translate(413.25 9435.191)">
      <g id="Grupo_1179924" data-name="Grupo 1179924" transform="translate(0 0)">
        <g id="Grupo_1179923" data-name="Grupo 1179923" transform="translate(0 0)" clip-path="url(#clip-path)">
          <path id="Trazado_1004716" data-name="Trazado 1004716" d="M74.59,149.181c-2.423,0-4.689-2.768-7.051-3-2.407-.235-5.167,2.037-7.5,1.574-2.367-.47-4.049-3.628-6.329-4.321-2.305-.7-5.459.985-7.662.069-2.222-.923-3.251-4.35-5.356-5.479s-5.541-.1-7.528-1.432-2.336-4.9-4.186-6.418-5.412-1.171-7.107-2.865-1.342-5.254-2.865-7.107-5.082-2.192-6.418-4.186-.3-5.41-1.432-7.527-4.556-3.135-5.48-5.356c-.916-2.2.77-5.357.07-7.662-.693-2.28-3.85-3.961-4.32-6.329C.962,86.809,3.234,84.048,3,81.642c-.231-2.363-3-4.629-3-7.052S2.768,69.9,3,67.539c.235-2.407-2.037-5.166-1.573-7.5.47-2.367,3.627-4.049,4.32-6.329.7-2.306-.985-5.459-.069-7.663.924-2.222,4.35-3.251,5.48-5.356s.1-5.54,1.432-7.528,4.9-2.336,6.418-4.186,1.171-5.412,2.866-7.107,5.254-1.342,7.107-2.865,2.192-5.082,4.186-6.418,5.41-.3,7.528-1.432,3.134-4.556,5.356-5.48c2.2-.916,5.357.77,7.663.069,2.28-.692,3.961-3.85,6.328-4.32C62.372.962,65.133,3.234,67.539,3c2.363-.231,4.629-3,7.052-3s4.689,2.768,7.051,3c2.407.235,5.167-2.037,7.5-1.574,2.367.47,4.049,3.628,6.329,4.321,2.305.7,5.459-.985,7.662-.069,2.222.923,3.251,4.35,5.356,5.48s5.541.1,7.528,1.432,2.337,4.9,4.186,6.418,5.412,1.171,7.107,2.866,1.342,5.254,2.865,7.107,5.082,2.192,6.418,4.186.3,5.41,1.432,7.528,4.556,3.135,5.479,5.356c.916,2.2-.77,5.357-.069,7.662.693,2.28,3.85,3.961,4.32,6.328.463,2.333-1.809,5.093-1.574,7.5.231,2.363,3,4.629,3,7.051s-2.768,4.689-3,7.052c-.235,2.406,2.037,5.166,1.574,7.5-.47,2.367-3.627,4.049-4.32,6.329-.7,2.305.985,5.459.069,7.662-.924,2.222-4.35,3.251-5.48,5.357s-.1,5.54-1.432,7.528-4.9,2.336-6.418,4.186-1.171,5.412-2.866,7.107-5.254,1.342-7.107,2.865-2.192,5.081-4.186,6.418-5.41.3-7.528,1.432-3.134,4.557-5.356,5.48c-2.2.916-5.357-.77-7.662-.069-2.28.692-3.961,3.85-6.328,4.32-2.333.463-5.093-1.809-7.5-1.574-2.363.231-4.629,3-7.052,3" transform="translate(0.35 0.35)" fill="#d35560"/>
          <path id="Trazado_1004717" data-name="Trazado 1004717" d="M14,81.535a67.535,67.535,0,1,1,67.535,67.535A67.535,67.535,0,0,1,14,81.535" transform="translate(-6.594 -6.594)" fill="#4d787e"/>
          <path id="Trazado_1004718" data-name="Trazado 1004718" d="M132.334,270.213c-.179-.759-.348-1.543-.509-2.312l-2.36-.3q1.057-.562,2.072-1.13-.225-1.156-.423-2.309c.54.53,1.093,1.077,1.663,1.6q.994-.618,1.945-1.239-.422,1.09-.87,2.178c.589.505,1.191,1.019,1.808,1.521l-2.372-.177q-.464,1.087-.955,2.171" transform="translate(-63.866 -130.676)" fill="#ffffc5"/>
          <path id="Trazado_1004719" data-name="Trazado 1004719" d="M113.789,266.762c-.064-.775-.113-1.577-.157-2.361l-2.288-.652q1.129-.4,2.219-.806-.049-1.177-.072-2.347c.455.6.919,1.229,1.4,1.829q1.075-.461,2.108-.932-.58,1.014-1.185,2.022c.507.586,1.024,1.192,1.561,1.772-.776-.161-1.546-.353-2.319-.528q-.621,1-1.269,2" transform="translate(-54.878 -128.909)" fill="#ffffc5"/>
          <path id="Trazado_1004720" data-name="Trazado 1004720" d="M96.012,260.643c.058-.789.127-1.579.2-2.363l-2.166-.983c.783-.146,1.556-.305,2.315-.467q.129-1.169.28-2.329c.358.667.728,1.343,1.113,2.021q1.132-.3,2.225-.608-.726.916-1.477,1.822c.413.657.836,1.325,1.277,1.987l-2.214-.87q-.766.9-1.556,1.79" transform="translate(-46.299 -125.885)" fill="#ffffc5"/>
          <path id="Trazado_1004721" data-name="Trazado 1004721" d="M79.414,251.99q.265-1.159.551-2.3c-.663-.434-1.344-.843-1.993-1.3.783-.008,1.584-.069,2.356-.112q.3-1.136.623-2.258.384,1.067.8,2.159c.766-.066,1.54-.171,2.29-.266q-.856.8-1.734,1.584.466,1.066.968,2.153l-2.062-1.187c-.594.517-1.2,1.036-1.8,1.531" transform="translate(-38.325 -121.677)" fill="#ffffc5"/>
          <path id="Trazado_1004722" data-name="Trazado 1004722" d="M64.353,241.022q.432-1.105.885-2.194c-.593-.526-1.215-1.021-1.777-1.582.769.115,1.567.177,2.343.242q.464-1.078.948-2.139.225,1.109.481,2.247c.755.064,1.543.065,2.3.082q-.965.664-1.952,1.311.3,1.12.643,2.265l-1.87-1.471c-.669.429-1.327.83-2,1.238" transform="translate(-31.127 -116.386)" fill="#ffffc5"/>
          <path id="Trazado_1004723" data-name="Trazado 1004723" d="M51.149,227.995q.589-1.028,1.2-2.037l-.779-.9c-.258-.3-.494-.62-.741-.929l1.128.317,1.149.273q.617-1,1.25-1.973.063,1.127.152,2.286l1.121.234,1.138.191q-1.055.516-2.127,1.012.14,1.148.309,2.327c-.545-.576-1.1-1.142-1.635-1.727q-1.07.473-2.159.926" transform="translate(-24.859 -110.134)" fill="#ffffc5"/>
          <path id="Trazado_1004724" data-name="Trazado 1004724" d="M39.841,213.191q.733-.928,1.481-1.835c-.212-.336-.434-.664-.637-1l-.594-1.031c.724.322,1.417.646,2.16.923.507-.6,1.006-1.179,1.532-1.767-.079.754-.131,1.508-.186,2.282.723.269,1.425.535,2.166.758-.746.236-1.5.467-2.255.686-.022.772-.029,1.551-.032,2.344-.451-.652-.939-1.279-1.359-1.952q-1.13.31-2.275.6" transform="translate(-19.411 -103.056)" fill="#ffffc5"/>
          <path id="Trazado_1004725" data-name="Trazado 1004725" d="M30.615,196.931q.862-.808,1.735-1.593c-.343-.716-.614-1.462-.909-2.2.671.425,1.309.848,1.992,1.237.582-.511,1.181-1.02,1.787-1.522-.212.742-.356,1.472-.529,2.229.683.37,1.327.742,2.024,1.074-.778.124-1.554.238-2.322.338-.159.771-.262,1.529-.386,2.314-.358-.707-.739-1.4-1.051-2.133q-1.165.138-2.342.253" transform="translate(-14.835 -95.309)" fill="#ffffc5"/>
          <path id="Trazado_1004726" data-name="Trazado 1004726" d="M24.019,179.289q.973-.669,1.952-1.313c-.235-.758-.377-1.54-.566-2.31.6.522,1.176,1.033,1.781,1.524.651-.417,1.333-.834,2-1.237-.326.7-.579,1.4-.86,2.124.617.469,1.213.929,1.836,1.366-.791.008-1.557,0-2.34-.016-.284.741-.492,1.474-.731,2.231-.259-.75-.515-1.5-.717-2.268q-1.174-.038-2.355-.1" transform="translate(-11.564 -86.782)" fill="#ffffc5"/>
          <path id="Trazado_1004727" data-name="Trazado 1004727" d="M20.215,160.664q1.062-.516,2.127-1.005c-.119-.785-.143-1.579-.214-2.369.513.605,1.005,1.2,1.532,1.774.706-.315,1.441-.624,2.164-.924-.429.647-.781,1.3-1.168,1.972.539.556,1.062,1.1,1.608,1.627-.781-.112-1.537-.237-2.309-.368-.392.69-.711,1.384-1.058,2.1l-.21-1.171c-.066-.391-.1-.786-.158-1.179q-1.155-.214-2.313-.453" transform="translate(-9.677 -77.667)" fill="#ffffc5"/>
          <path id="Trazado_1004728" data-name="Trazado 1004728" d="M19.269,141.764q1.128-.352,2.255-.679c0-.793.074-1.584.135-2.374.421.674.8,1.333,1.259,1.981.751-.207,1.5-.406,2.266-.595-.5.578-.959,1.172-1.441,1.779.453.63.873,1.246,1.353,1.848q-1.134-.34-2.237-.706c-.483.624-.9,1.263-1.353,1.915-.018-.792-.055-1.585-.018-2.378q-1.109-.382-2.218-.79" transform="translate(-9.207 -68.451)" fill="#ffffc5"/>
          <path id="Trazado_1004729" data-name="Trazado 1004729" d="M21.174,123q1.169-.181,2.333-.336c.074-.39.132-.783.218-1.169l.268-1.159c.312.729.595,1.437.951,2.146.778-.092,1.538-.178,2.325-.25-.574.5-1.122,1.015-1.688,1.543.353.69.672,1.36,1.067,2.028-.706-.335-1.426-.681-2.114-1.031-.553.548-1.077,1.115-1.619,1.694.111-.785.174-1.577.333-2.355q-1.039-.543-2.074-1.112" transform="translate(-10.152 -59.337)" fill="#ffffc5"/>
          <path id="Trazado_1004730" data-name="Trazado 1004730" d="M25.928,104.79q1.182,0,2.357.018c.239-.757.539-1.491.832-2.228.2.769.37,1.51.616,2.264.779.025,1.552.056,2.341.1-.65.4-1.263.834-1.9,1.271.247.736.46,1.445.75,2.165-.649-.438-1.3-.887-1.934-1.337-.633.458-1.233.941-1.857,1.432.226-.761.412-1.533.684-2.279q-.946-.692-1.884-1.411" transform="translate(-12.51 -50.53)" fill="#ffffc5"/>
          <path id="Trazado_1004731" data-name="Trazado 1004731" d="M33.429,87.557q1.169.173,2.325.37c.346-.714.77-1.386,1.158-2.077.083.789.155,1.557.267,2.329.761.139,1.54.3,2.306.457-.718.293-1.376.634-2.077.969.134.765.248,1.5.414,2.252-.582-.533-1.146-1.067-1.705-1.608-.709.35-1.361.744-2.054,1.134.327-.722.644-1.45,1.02-2.149q-.833-.827-1.654-1.678" transform="translate(-16.231 -42.232)" fill="#ffffc5"/>
          <path id="Trazado_1004732" data-name="Trazado 1004732" d="M43.489,71.68q1.128.345,2.241.71c.461-.645.972-1.253,1.456-1.881q-.054,1.188-.083,2.343,1.117.389,2.219.8c-.749.187-1.473.41-2.2.647q.023,1.16.07,2.287-.728-.91-1.438-1.839c-.753.241-1.471.524-2.2.813l.643-1,.688-.97q-.7-.943-1.388-1.908" transform="translate(-21.221 -34.623)" fill="#ffffc5"/>
          <path id="Trazado_1004733" data-name="Trazado 1004733" d="M55.356,57.5q1.064.506,2.109,1.031l1.72-1.643q-.226,1.17-.421,2.312,1.046.548,2.073,1.115c-.759.084-1.53.176-2.278.31Q58.413,61.78,58.3,62.9q-.585-1.008-1.152-2.034l-1.161.215c-.384.079-.76.17-1.144.259.508-.61,1.064-1.175,1.611-1.75q-.556-1.038-1.094-2.095" transform="translate(-26.851 -27.867)" fill="#ffffc5"/>
          <path id="Trazado_1004734" data-name="Trazado 1004734" d="M69.217,45.319c.65.436,1.293.879,1.939,1.34l1.938-1.379q-.394,1.129-.753,2.233.952.7,1.883,1.406c-.754-.018-1.544-.058-2.3-.035q-.311,1.124-.59,2.223-.431-1.084-.841-2.184c-.774.032-1.582.045-2.354.123.592-.529,1.238-.991,1.854-1.49q-.4-1.111-.775-2.237" transform="translate(-33.447 -22.109)" fill="#ffffc5"/>
          <path id="Trazado_1004735" data-name="Trazado 1004735" d="M84.831,34.886c.578.528,1.158,1.078,1.724,1.623l2.117-1.086q-.555,1.061-1.073,2.1.838.828,1.652,1.667c-.745-.133-1.508-.269-2.274-.382q-.473,1.07-.908,2.119-.266-1.138-.51-2.288c-.77-.084-1.562-.176-2.349-.232.677-.412,1.372-.8,2.057-1.2q-.23-1.158-.436-2.33" transform="translate(-40.923 -16.954)" fill="#ffffc5"/>
          <path id="Trazado_1004736" data-name="Trazado 1004736" d="M101.868,26.946q.744.928,1.463,1.866c.752-.251,1.5-.517,2.255-.756-.476.632-.93,1.284-1.376,1.919q.7.943,1.382,1.893-1.075-.365-2.191-.718c-.421.651-.822,1.313-1.214,1.961q-.094-1.166-.163-2.342-1.124-.3-2.289-.582l2.213-.874c-.035-.785-.066-1.583-.081-2.367" transform="translate(-49.12 -13.015)" fill="#ffffc5"/>
          <path id="Trazado_1004737" data-name="Trazado 1004737" d="M119.95,21.733q.6,1.029,1.166,2.064c.781-.136,1.56-.289,2.344-.41-.566.55-1.113,1.13-1.649,1.69q.554,1.037,1.082,2.079-1.008-.522-2.058-1.037c-.516.571-1.01,1.175-1.494,1.755q.082-1.167.19-2.341-1.066-.463-2.174-.916l2.318-.536c.083-.782.173-1.578.276-2.349" transform="translate(-57.86 -10.43)" fill="#ffffc5"/>
          <path id="Trazado_1004738" data-name="Trazado 1004738" d="M138.658,19.35q.436,1.108.845,2.216l2.378-.059q-.962.715-1.882,1.43.394,1.11.761,2.219-.92-.668-1.882-1.336c-.595.5-1.175,1.012-1.741,1.515q.256-1.142.539-2.285-.986-.619-2.013-1.234l2.372-.18c.2-.761.407-1.532.623-2.286" transform="translate(-66.94 -9.248)" fill="#ffffc5"/>
          <path id="Trazado_1004739" data-name="Trazado 1004739" d="M157.568,19.831c.179.759.348,1.543.509,2.312l2.36.3q-1.057.562-2.072,1.13.224,1.156.423,2.309c-.54-.53-1.093-1.077-1.662-1.6q-.994.618-1.945,1.239.422-1.09.87-2.178c-.589-.505-1.191-1.02-1.808-1.521l2.372.177q.464-1.087.955-2.171" transform="translate(-76.155 -9.486)" fill="#ffffc5"/>
          <path id="Trazado_1004740" data-name="Trazado 1004740" d="M176.272,23.17c.064.775.113,1.577.157,2.361l2.288.652q-1.129.4-2.219.806.049,1.177.072,2.347c-.455-.6-.918-1.229-1.4-1.829q-1.075.461-2.108.932.58-1.014,1.185-2.022c-.506-.586-1.024-1.192-1.561-1.771.776.161,1.546.352,2.319.527q.622-1,1.269-2" transform="translate(-85.303 -11.142)" fill="#ffffc5"/>
          <path id="Trazado_1004741" data-name="Trazado 1004741" d="M194.147,29.313c-.058.789-.126,1.578-.2,2.363l2.166.983c-.783.147-1.556.306-2.315.467q-.128,1.169-.28,2.329c-.358-.667-.728-1.343-1.113-2.021q-1.132.3-2.225.608.726-.916,1.476-1.822c-.412-.657-.836-1.325-1.277-1.987l2.214.87q.766-.9,1.556-1.79" transform="translate(-93.98 -14.189)" fill="#ffffc5"/>
          <path id="Trazado_1004742" data-name="Trazado 1004742" d="M210.61,38.133q-.265,1.159-.551,2.3c.663.434,1.344.843,1.993,1.3-.783.008-1.584.069-2.356.112q-.3,1.136-.623,2.258-.384-1.067-.8-2.159c-.766.066-1.54.171-2.29.266q.856-.8,1.734-1.584-.466-1.066-.968-2.153l2.062,1.187c.594-.517,1.2-1.036,1.8-1.531" transform="translate(-101.818 -18.564)" fill="#ffffc5"/>
          <path id="Trazado_1004743" data-name="Trazado 1004743" d="M225.67,49.168q-.432,1.105-.884,2.194c.593.526,1.215,1.021,1.777,1.582-.769-.115-1.567-.177-2.343-.242q-.464,1.078-.948,2.139-.225-1.109-.481-2.246c-.755-.064-1.543-.065-2.3-.082q.966-.664,1.952-1.311-.3-1.12-.643-2.264l1.87,1.47c.669-.429,1.326-.83,2-1.238" transform="translate(-109.015 -23.922)" fill="#ffffc5"/>
          <path id="Trazado_1004744" data-name="Trazado 1004744" d="M239.007,62.051q-.589,1.028-1.2,2.037l.779.9c.258.3.493.62.742.929L238.2,65.6l-1.149-.273q-.617,1-1.25,1.973-.063-1.127-.152-2.286l-1.121-.234-1.137-.191q1.055-.516,2.127-1.012-.14-1.148-.309-2.327c.545.576,1.1,1.142,1.635,1.727q1.071-.473,2.159-.926" transform="translate(-115.416 -30.03)" fill="#ffffc5"/>
          <path id="Trazado_1004745" data-name="Trazado 1004745" d="M250.33,76.837q-.733.928-1.481,1.835c.211.335.434.664.636,1l.594,1.031c-.724-.322-1.417-.646-2.16-.923-.507.6-1.006,1.179-1.532,1.767.079-.754.131-1.508.186-2.282-.723-.269-1.425-.535-2.166-.757.746-.236,1.5-.467,2.255-.686.022-.772.03-1.55.032-2.343.451.652.939,1.279,1.359,1.952q1.13-.31,2.275-.6" transform="translate(-120.879 -37.09)" fill="#ffffc5"/>
          <path id="Trazado_1004746" data-name="Trazado 1004746" d="M259.38,93.209q-.862.808-1.735,1.593c.343.716.614,1.462.909,2.2-.671-.425-1.309-.848-1.992-1.237-.582.511-1.181,1.02-1.787,1.522.212-.742.356-1.472.529-2.229-.683-.37-1.327-.742-2.024-1.074.778-.124,1.554-.238,2.322-.338.159-.771.262-1.529.385-2.314.358.708.739,1.4,1.051,2.134q1.165-.138,2.342-.253" transform="translate(-125.279 -44.949)" fill="#ffffc5"/>
          <path id="Trazado_1004747" data-name="Trazado 1004747" d="M265.935,110.814q-.973.67-1.952,1.313c.235.758.377,1.54.566,2.31-.6-.521-1.176-1.033-1.781-1.524-.651.417-1.333.834-2,1.237.327-.7.579-1.4.86-2.124-.617-.469-1.213-.929-1.836-1.366.791-.007,1.557,0,2.34.016.284-.741.492-1.474.731-2.231.259.75.515,1.5.717,2.268q1.174.038,2.355.1" transform="translate(-128.509 -53.44)" fill="#ffffc5"/>
          <path id="Trazado_1004748" data-name="Trazado 1004748" d="M269.832,129.258q-1.062.516-2.127,1.005c.119.785.143,1.579.214,2.369-.513-.605-1.005-1.2-1.532-1.774-.706.315-1.441.624-2.164.924.429-.647.781-1.3,1.168-1.972-.539-.556-1.062-1.1-1.608-1.627.781.112,1.537.237,2.309.367.392-.69.711-1.383,1.058-2.1l.21,1.171c.066.391.1.786.158,1.179q1.155.214,2.313.453" transform="translate(-130.489 -62.373)" fill="#ffffc5"/>
          <path id="Trazado_1004749" data-name="Trazado 1004749" d="M270.909,148.113q-1.128.352-2.255.679c0,.793-.074,1.584-.135,2.374-.421-.674-.8-1.333-1.259-1.981-.751.207-1.5.406-2.266.595.5-.578.959-1.172,1.441-1.779-.453-.63-.873-1.246-1.353-1.848q1.134.34,2.237.706c.483-.624.9-1.263,1.353-1.915.018.793.055,1.585.018,2.378q1.109.383,2.218.79" transform="translate(-131.09 -71.544)" fill="#ffffc5"/>
          <path id="Trazado_1004750" data-name="Trazado 1004750" d="M268.826,166.968q-1.17.181-2.334.336c-.074.39-.132.783-.218,1.169l-.268,1.159c-.312-.729-.595-1.437-.951-2.146-.778.092-1.538.178-2.326.25.574-.5,1.122-1.015,1.689-1.543-.353-.69-.672-1.36-1.067-2.028.706.335,1.426.681,2.114,1.031.553-.548,1.077-1.115,1.619-1.694-.111.785-.174,1.577-.333,2.355q1.039.542,2.074,1.111" transform="translate(-129.966 -80.748)" fill="#ffffc5"/>
          <path id="Trazado_1004751" data-name="Trazado 1004751" d="M264.024,185.4q-1.182,0-2.357-.018c-.24.757-.539,1.491-.832,2.228-.2-.769-.37-1.51-.616-2.264-.779-.025-1.552-.056-2.341-.1.65-.4,1.263-.834,1.9-1.271-.247-.735-.46-1.445-.75-2.165.649.437,1.3.886,1.934,1.337.633-.458,1.233-.941,1.857-1.431-.226.76-.412,1.532-.684,2.278q.946.692,1.884,1.411" transform="translate(-127.56 -89.783)" fill="#ffffc5"/>
          <path id="Trazado_1004752" data-name="Trazado 1004752" d="M256.61,202.53q-1.169-.173-2.325-.37c-.346.714-.77,1.386-1.158,2.077-.083-.789-.155-1.557-.267-2.329-.761-.139-1.54-.3-2.306-.457.718-.293,1.376-.635,2.077-.969-.134-.765-.248-1.5-.414-2.252.583.533,1.146,1.067,1.705,1.608.71-.35,1.361-.744,2.054-1.135-.327.722-.644,1.45-1.02,2.149q.832.827,1.654,1.678" transform="translate(-123.928 -97.974)" fill="#ffffc5"/>
          <path id="Trazado_1004753" data-name="Trazado 1004753" d="M246.77,218.341q-1.128-.344-2.241-.71c-.461.645-.972,1.253-1.456,1.881q.054-1.188.083-2.343-1.117-.389-2.219-.8c.749-.187,1.473-.41,2.2-.647q-.023-1.16-.07-2.287.728.91,1.438,1.839c.753-.241,1.471-.524,2.2-.813l-.643,1-.688.97q.7.943,1.388,1.908" transform="translate(-119.158 -105.517)" fill="#ffffc5"/>
          <path id="Trazado_1004754" data-name="Trazado 1004754" d="M234.741,232.58q-1.064-.506-2.109-1.031l-1.72,1.643q.226-1.17.421-2.312-1.046-.548-2.073-1.115c.759-.084,1.53-.176,2.278-.31q.146-1.154.263-2.279.585,1.007,1.152,2.034l1.161-.215c.384-.079.76-.17,1.144-.259-.508.61-1.064,1.175-1.611,1.75q.556,1.038,1.094,2.095" transform="translate(-113.365 -112.331)" fill="#ffffc5"/>
          <path id="Trazado_1004755" data-name="Trazado 1004755" d="M220.791,244.946c-.65-.436-1.293-.879-1.939-1.34l-1.938,1.379q.393-1.129.753-2.233-.952-.7-1.883-1.406c.754.018,1.544.058,2.3.035q.311-1.125.59-2.223.431,1.084.842,2.184c.774-.032,1.581-.045,2.353-.124-.591.529-1.238.991-1.854,1.49q.4,1.111.775,2.237" transform="translate(-106.68 -118.275)" fill="#ffffc5"/>
          <path id="Trazado_1004756" data-name="Trazado 1004756" d="M205.223,255.164c-.578-.528-1.158-1.078-1.724-1.622l-2.117,1.086q.555-1.061,1.072-2.1-.838-.829-1.652-1.668c.745.133,1.508.269,2.274.382q.472-1.069.908-2.119.266,1.139.51,2.289c.77.083,1.562.175,2.349.231-.677.413-1.371.8-2.057,1.2q.23,1.157.436,2.329" transform="translate(-99.25 -123.215)" fill="#ffffc5"/>
          <path id="Trazado_1004757" data-name="Trazado 1004757" d="M188.367,262.987q-.744-.928-1.463-1.866c-.752.251-1.5.517-2.255.756.476-.632.931-1.284,1.376-1.919q-.7-.943-1.382-1.894,1.075.365,2.191.718c.421-.651.822-1.313,1.214-1.961q.094,1.166.163,2.342,1.124.3,2.289.582l-2.213.874c.035.785.066,1.583.081,2.367" transform="translate(-91.235 -127.036)" fill="#ffffc5"/>
          <path id="Trazado_1004758" data-name="Trazado 1004758" d="M170.042,268.223q-.6-1.029-1.166-2.064c-.781.136-1.56.289-2.344.41.566-.55,1.113-1.13,1.649-1.69q-.554-1.037-1.082-2.079,1.008.522,2.058,1.037c.516-.571,1.01-1.175,1.495-1.755q-.082,1.167-.191,2.341,1.066.463,2.174.916l-2.318.536c-.083.782-.172,1.578-.276,2.349" transform="translate(-82.252 -129.645)" fill="#ffffc5"/>
          <path id="Trazado_1004759" data-name="Trazado 1004759" d="M151.223,270.76q-.435-1.108-.845-2.216L148,268.6q.962-.715,1.882-1.431-.394-1.109-.761-2.219.92.668,1.882,1.336c.595-.5,1.175-1.012,1.741-1.515q-.256,1.142-.539,2.285.986.618,2.013,1.233l-2.372.181c-.2.76-.407,1.532-.623,2.285" transform="translate(-73.059 -130.981)" fill="#ffffc5"/>
          <path id="Trazado_1004760" data-name="Trazado 1004760" d="M92.062,148.9A56.837,56.837,0,1,1,148.9,92.062,56.9,56.9,0,0,1,92.062,148.9" transform="translate(-17.122 -17.122)" fill="#d35560"/>
        </g>
      </g>
      <g id="Grupo_1180053" data-name="Grupo 1180053" transform="translate(39.422 38.995)">
        <rect id="Rectángulo_401104" data-name="Rectángulo 401104" width="71.038" height="71.894" transform="translate(0)" fill="#d35560"/>
      </g>
    </g>
    <g id="Grupo_1187711" data-name="Grupo 1187711" transform="translate(446.191 9463.339)">
      <g id="Grupo_1187710" data-name="Grupo 1187710" clip-path="url(#clip-path-2)">
        <path id="Trazado_1032918" data-name="Trazado 1032918" d="M82.668,42.63c-.789.636-1.3-.256-1.516-1.054l0-17.764a6.584,6.584,0,0,0-1.566-.58l-.146-.5c-.264.654-2.239-.006-2.227-.679q-.623.492-.658-.175c-.17,17.869-.212,36.48.042,54.422a.885.885,0,0,1,.592.258c-.03-.168-.059-.422.053-.475.3-.14,3.313-1.109,3.494-1.087a.723.723,0,0,1,.424.326q.06-.315.22-.037l.107-.5-.016-27.94c-.551-.889.881-1.833,1.665-.914A1.323,1.323,0,0,1,84,47.264l-.019,28.374A1.979,1.979,0,0,1,82.542,77.5l-6.163,1.935a2.573,2.573,0,0,1-2.044-.271c-3.605.972-7.1,1.806-10.761,2.513-.282.318-.581.913-1.054.982L53.369,84a3.975,3.975,0,0,1-2.19-.641,129.244,129.244,0,0,1-18.355-.091,2.227,2.227,0,0,1-2.177.685c-3.1-.372-6.108-.7-9.168-1.284-.465-.089-.77-.681-1.049-.984-3.66-.725-7.152-1.533-10.76-2.525-.432.183-1.014.561-1.522.4L1.459,77.5A1.986,1.986,0,0,1,.017,75.631L.008,37A1.286,1.286,0,0,1,1.29,35.685c.386-.8,1.882.256,1.11.854.191-.033.337.007.337.152C2.753,49.074,2.7,61.8,2.62,74.182a1.424,1.424,0,0,0,.28,1.153l.37-.343,3.354,1.048.168.511c.427-.112.741-.317.71-.78l-.06-52.8c.06-.573-.151-.717-.652-.912a.734.734,0,0,1-1.288.389l-.118.463q-1.275.388-2.523.871L2.8,31.723c-.409,1.1-1.1,1.3-1.934.64A1.305,1.305,0,0,1,0,31.062V23.177a2.059,2.059,0,0,1,1.415-2.083l6.36-1.964a2.039,2.039,0,0,1,1.892.323c3.574-1.043,7.1-1.8,10.757-2.539a2.228,2.228,0,0,1,1.356-1.072l3.755-.586a16.514,16.514,0,0,1,32.932,0l3.93.63c.543.087.875.644,1.18,1.024,3.673.7,7.168,1.541,10.768,2.511a2.455,2.455,0,0,1,1.708-.356l6.689,2.094a1.905,1.905,0,0,1,1.246,1.812l.006,18.346a1.334,1.334,0,0,1-1.325,1.31" transform="translate(0 -0.001)" fill="#040504"/>
        <path id="Trazado_1032919" data-name="Trazado 1032919" d="M110.817,89.91l.433,1.053-.219,50.9a1.264,1.264,0,0,1-.7,1,24.243,24.243,0,0,1-4.838-.56l-.243-.479c-.182-19.732-.186-40.228.011-59.963-.314.01-.274-.13.024-.264a2.748,2.748,0,0,1,1.669.057,1.037,1.037,0,0,1,.663-.391,16.717,16.717,0,0,0,3.2,8.646" transform="translate(-82.07 -63.491)" fill="#cfe0e6"/>
        <path id="Trazado_1032920" data-name="Trazado 1032920" d="M250.7,81.5l.289.357-.018,59.8a1.322,1.322,0,0,1-.41.831c-.349.33-3.572.718-4.248.727l-.364-.4-.507.029q-.051-25.429-.188-50.834c-.072.188-.145.182-.219-.011a16.991,16.991,0,0,0,4.875-10.621Z" transform="translate(-191.443 -63.582)" fill="#cfe0e6"/>
        <path id="Trazado_1032921" data-name="Trazado 1032921" d="M104.494,82.793l-.024.264c-.2,19.688-.194,40.254-.011,59.963l4.611.7c.344.052.739-.344.739-.783l.216-51.832,1.859,2.027c-.051.583-.26.544-.416-.014q-.163,26.37-.186,52.809a.451.451,0,0,1-.486-.088,1.533,1.533,0,0,0-1.3.013l-4.232-.611c.1-.285-.325-.15-.566-.068-.149.032-.559-.051-.566-.257l-.1-2.642L104.031,83.1c0-.36.347-.28.463-.309" transform="translate(-81.278 -64.685)" fill="#b7c9d5"/>
        <path id="Trazado_1032922" data-name="Trazado 1032922" d="M56.562,191.557l-10.267.007v-7.1l10.264-.8Z" transform="translate(-36.169 -143.497)" fill="#9c5658"/>
        <path id="Trazado_1032923" data-name="Trazado 1032923" d="M46.212,91.263q.2,3.27.132,6.7-.093-3.414.09-6.747c3.183-.95,6.429-1.644,9.883-2.352l0,7.9c-3.553.4-6.85.94-10.3,1.581l-.021-6.626a.533.533,0,0,1,.217-.461" transform="translate(-35.935 -69.431)" fill="#9c5658"/>
        <path id="Trazado_1032924" data-name="Trazado 1032924" d="M53.521,275.492q-.015.174.36-.011l2.456.168-.014,7.849c-3.452-.413-6.7-.949-9.974-1.6l-.035-6.7.022,6.186q.35.528-.122.461c-.107,0-.216-.164-.216-.394l.019-6.614,6.12.471c.512.04,1.023-.1,1.384.189" transform="translate(-35.938 -214.723)" fill="#9c5658"/>
        <path id="Trazado_1032925" data-name="Trazado 1032925" d="M56.514,144.247c-.285-.141-.624-.277-.347-.065l-8.117.666a8.451,8.451,0,0,0-1.564-.077,53.917,53.917,0,0,0-.116-6.843c3.453-.614,6.814-1.2,10.261-1.582Z" transform="translate(-36.228 -106.526)" fill="#9c5658"/>
        <path id="Trazado_1032926" data-name="Trazado 1032926" d="M299.151,275.777c.17.024.425.084.433.207a46,46,0,0,1-.152,6.72l-.444.309-8.162,1.231-.012-7.88Z" transform="translate(-227.209 -215.462)" fill="#9c5658"/>
        <path id="Trazado_1032927" data-name="Trazado 1032927" d="M299.074,230.97a13.876,13.876,0,0,1,.372,5.979,3.394,3.394,0,0,1-.516,1.31l-8.084.63v-7.9Z" transform="translate(-227.235 -180.455)" fill="#9c5658"/>
        <path id="Trazado_1032928" data-name="Trazado 1032928" d="M299.236,90.814l.427.159q-.08,3.348-.176,6.7l-.444.245-8.152-1.168V88.853c2.923.609,5.665,1.131,8.345,1.961" transform="translate(-227.27 -69.42)" fill="#9c5658"/>
        <path id="Trazado_1032929" data-name="Trazado 1032929" d="M299.015,137.492l.441.189.1,6.753a4.207,4.207,0,0,1-2.337.132l-6.342-.428,0-7.89Z" transform="translate(-227.255 -106.449)" fill="#9c5658"/>
        <path id="Trazado_1032930" data-name="Trazado 1032930" d="M298.07,184.16a10.614,10.614,0,0,1,1.488.364l-.028,6.53-.439.256q-4.164.07-8.23-.147l-.011-7.511Z" transform="translate(-227.239 -143.486)" fill="#9c5658"/>
        <path id="Trazado_1032931" data-name="Trazado 1032931" d="M57.409,326.2c-2.773.23-5.888-.7-8.6-1.517a2.573,2.573,0,0,1-.654-.343,4.928,4.928,0,0,1-.608-.49,22.173,22.173,0,0,1-.011-4.883c3.232.566,6.448,1.1,9.879,1.5Z" transform="translate(-37.036 -249.21)" fill="#9c5658"/>
        <path id="Trazado_1032932" data-name="Trazado 1032932" d="M298.758,320.571a1.177,1.177,0,0,1,.828.136,20.785,20.785,0,0,1-.266,5.091c-1.2.777-5.71,1.738-7.306,1.884a2.342,2.342,0,0,1-1.1-.246l-.006-5.721Z" transform="translate(-227.285 -250.442)" fill="#9c5658"/>
        <path id="Trazado_1032933" data-name="Trazado 1032933" d="M300.811,318.916q.177,3.243.088,6.639-.07-3.373.126-6.671c.128-.03.214.089.213.249l-.009,6.711c-3.452.953-6.726,1.784-10.27,2.426l-.02-2.138a57.984,57.984,0,0,0,8.138-1.906l.127-4.594c.008-.3-.155-.38-.424-.365Z" transform="translate(-227.308 -249.137)" fill="#87494b"/>
        <path id="Trazado_1032934" data-name="Trazado 1032934" d="M31.043,154.508a.961.961,0,0,0,.44-1.362l0-51.967c0-.617-.031-.891-.44-1.163.2-.009.571-.412.868-.144l0,54.788c-.383.155-.6-.069-.868-.152" transform="translate(-24.252 -77.958)" fill="#bdd0db"/>
        <path id="Trazado_1032935" data-name="Trazado 1032935" d="M136.358,182.944q-.8.012-.093-.42-.08-26.3.129-52.521l.416.014.023,52.831c0,.108-.4.118-.475.1" transform="translate(-106.203 -101.569)" fill="#c3d5e1"/>
        <path id="Trazado_1032936" data-name="Trazado 1032936" d="M46.46,323.877a84.213,84.213,0,0,0,9.864,2.35l-.021,2.137c-3.535-.67-6.82-1.465-10.207-2.407l-.08-6.532c0-.238.07-.4.224-.425q.094,2.385.22,4.876" transform="translate(-35.952 -249.232)" fill="#86494b"/>
        <path id="Trazado_1032937" data-name="Trazado 1032937" d="M291.042,193.206q3.99-.186,8.2-.082l.029-6.937a1.136,1.136,0,0,1-1.051-.214l3.046.3,0,7.073-9.988.068a.216.216,0,0,1-.232-.209" transform="translate(-227.387 -145.299)" fill="#86494b"/>
        <path id="Trazado_1032938" data-name="Trazado 1032938" d="M329.885,98.249q.168,3.277.133,6.722a60.641,60.641,0,0,1,.1-6.713.532.532,0,0,1,.217.457l-.018,6.582-2.151-.379.194-7.1a4.82,4.82,0,0,1,1.528.431" transform="translate(-256.391 -76.424)" fill="#87494b"/>
        <path id="Trazado_1032939" data-name="Trazado 1032939" d="M330.136,281.973q-.613-.358-.267-.075c-.464.356-1.1.274-1.68.421l.164-7.236,1.984-.194.016,6.6a.614.614,0,0,1-.216.48" transform="translate(-256.411 -214.769)" fill="#87494b"/>
        <path id="Trazado_1032940" data-name="Trazado 1032940" d="M349.273,152.76l.086,1.054a.838.838,0,0,0,.524.869c-.23.071-.463.317-.843.162l-.007-54.568c0-.22.143-.278.215-.274.384.048.473.424.112.6l.012,51.559Z" transform="translate(-272.696 -78.132)" fill="#bed0dc"/>
        <path id="Trazado_1032941" data-name="Trazado 1032941" d="M323.769,142.335a54.276,54.276,0,0,0-.122,6.668,1.309,1.309,0,0,1-1.133.178,7.731,7.731,0,0,1-2.642-.172l1.925-.059-.124-7.015Z" transform="translate(-249.912 -110.893)" fill="#87494b"/>
        <path id="Trazado_1032942" data-name="Trazado 1032942" d="M244.435,180.932l-.1,1.97c-.276-.01-.368-.123-.351-.487l.228-52.472q.108,25.438.221,50.989" transform="translate(-190.623 -101.523)" fill="#c2d5e1"/>
        <path id="Trazado_1032943" data-name="Trazado 1032943" d="M133.317,182.943c-.331-.092-.992.2-1.276-.233q.085-.264.641.012c.077,0,.448.015.448-.095l0-52.354c0-.219.139-.275.218-.273Z" transform="translate(-103.162 -101.569)" fill="#b3c3cf"/>
        <path id="Trazado_1032944" data-name="Trazado 1032944" d="M350.675,100.125l0,.259-.277.244q0,25.826-.16,51.592l-.2.486-.025-52.756c.247-.07.472.118.658.175" transform="translate(-273.465 -78.078)" fill="#d6e7ed"/>
        <path id="Trazado_1032945" data-name="Trazado 1032945" d="M47.74,150.5l-1.662.169c-.065-2.351-.188-4.7-.018-7.09.353.081.664-.014,1.026.214-.082.03-.651.127-.655.323-.037,2.084.076,4.012-.152,6.244.7-.093,1.2-.193,1.461.139" transform="translate(-35.919 -112.176)" fill="#9e585a"/>
        <path id="Trazado_1032946" data-name="Trazado 1032946" d="M333.208,143.76a68.357,68.357,0,0,1-.012,7.023c-.6.135-.979-.175-1.243-.176l1.015-.233c-.149-2-.146-3.9-.1-5.936.007-.311-.358-.468-.688-.489.282-.236.64-.157,1.028-.189" transform="translate(-259.352 -112.318)" fill="#8b4b4d"/>
        <path id="Trazado_1032947" data-name="Trazado 1032947" d="M299.13,218.142l-8.2.082-.032-.229Z" transform="translate(-227.278 -170.317)" fill="#a65c5e"/>
        <path id="Trazado_1032948" data-name="Trazado 1032948" d="M47.12,282.725c-.077.056-.136.023-.136-.058l.042-6.774a.168.168,0,0,1,.184.131l.016,6.225c.005.205.564.295.655.322-.287.243-.543.142-.762.155" transform="translate(-36.708 -215.55)" fill="#a0585a"/>
        <path id="Trazado_1032949" data-name="Trazado 1032949" d="M333.86,282.8a.406.406,0,0,1-.267-.075.549.549,0,0,1-.638-.125,1.152,1.152,0,0,0,.621-.242.785.785,0,0,0,.072-.47l-.019-5.82a.212.212,0,0,1,.191-.121Z" transform="translate(-260.135 -215.593)" fill="#8f4d4f"/>
        <path id="Trazado_1032950" data-name="Trazado 1032950" d="M336.267,99.8l-.04,6.837a.164.164,0,0,1-.183-.131l-.007-6.716a.715.715,0,0,0,.231.009" transform="translate(-262.542 -77.965)" fill="#8f4d4f"/>
        <path id="Trazado_1032951" data-name="Trazado 1032951" d="M46.989,99.664c.065.024.183.019.222-.044l0,6.753a.2.2,0,0,1-.185.123Z" transform="translate(-36.712 -77.832)" fill="#a45b5d"/>
        <path id="Trazado_1032952" data-name="Trazado 1032952" d="M336.053,318.933l.214-.032-.032,6.813c-.065.021-.188-.051-.188-.121Z" transform="translate(-262.549 -249.154)" fill="#8f4d4f"/>
        <path id="Trazado_1032953" data-name="Trazado 1032953" d="M47.2,323.855a.55.55,0,0,1-.237-.486l.017-4.391.209-.006Z" transform="translate(-36.691 -249.21)" fill="#a55b5d"/>
        <path id="Trazado_1032954" data-name="Trazado 1032954" d="M75.314,277.81l.36-.011a1.816,1.816,0,0,1-1.783.134Z" transform="translate(-57.73 -217.042)" fill="#a95d5f"/>
        <path id="Trazado_1032955" data-name="Trazado 1032955" d="M86.6,171.154l-.347-.065-1.374-.118a1.494,1.494,0,0,1,1.722.182" transform="translate(-66.317 -133.432)" fill="#a95d5f"/>
        <path id="Trazado_1032956" data-name="Trazado 1032956" d="M130.333,370.1l-.641-.012-.658.025a.9.9,0,0,1,1.3-.013" transform="translate(-100.813 -288.944)" fill="#c2d4e0"/>
        <path id="Trazado_1032957" data-name="Trazado 1032957" d="M107.663,367.176a2.063,2.063,0,0,0-.566-.068.863.863,0,0,1,1.1-.1c-.242.193-.423.12-.538.171" transform="translate(-83.674 -286.62)" fill="#c1d3df"/>
        <path id="Trazado_1032958" data-name="Trazado 1032958" d="M105.234,143.965c-.163-.025-.212-.2-.212-.511l0-59.176c0-.225.14-.278.219-.276Z" transform="translate(-82.053 -65.63)" fill="#d7e8ee"/>
        <path id="Trazado_1032959" data-name="Trazado 1032959" d="M246.217,180.8l-.692.173c-.2-16.756-.193-34.245,0-50.978.081,0,.221,0,.221.265l0,50.221c0,.32.367.338.476.32" transform="translate(-191.712 -101.561)" fill="#cadbe1"/>
        <path id="Trazado_1032960" data-name="Trazado 1032960" d="M245.253,180.932c-.087.022-.234-.041-.221-.276V129.943l.219.011Z" transform="translate(-191.441 -101.523)" fill="#ddf1f6"/>
        <path id="Trazado_1032961" data-name="Trazado 1032961" d="M251.718,144.493q-1.34-.14-.482-.083l.068.206-4.393.568c-.628-.141-1.571-.276-.571.057a3.208,3.208,0,0,1-1.424.157,2.129,2.129,0,0,1,.1-1.97q-.158-.5.692-.173l3.912-.478c.448-.055.689-.386.689-.941l0-58.522c0-.627-.147-.98.151-1.373l1.992.29-.005,61.98c0,.289-.586.363-.724.282" transform="translate(-191.199 -64.02)" fill="#b7c9d4"/>
        <path id="Trazado_1032962" data-name="Trazado 1032962" d="M250.194,370.124a1.968,1.968,0,0,0-.571.056,2.084,2.084,0,0,1-.7-.18c.408-.221,1.045-.218,1.269.123" transform="translate(-194.483 -288.959)" fill="#c2d4e0"/>
        <path id="Trazado_1032963" data-name="Trazado 1032963" d="M272.969,367.085c-.057-.033-.306.109-.414.123-.09-.1-.3-.028-.632-.2a.774.774,0,0,1,1.047.079" transform="translate(-212.45 -286.612)" fill="#c0d3de"/>
        <path id="Trazado_1032964" data-name="Trazado 1032964" d="M278.041,145.777l-.007-61.812a.362.362,0,0,1,.216-.157l0,61.826a.211.211,0,0,1-.214.143" transform="translate(-217.225 -65.478)" fill="#bed2dd"/>
        <path id="Trazado_1032965" data-name="Trazado 1032965" d="M327.813,238.259c.172-2.443.187-4.878.143-7.289l2.093.022-.034,7.1Z" transform="translate(-256.117 -180.455)" fill="#87494b"/>
        <path id="Trazado_1032966" data-name="Trazado 1032966" d="M336.07,238.764l-.04-6.705c0-.069.127-.143.192-.121l.031,6.682a.168.168,0,0,1-.182.144" transform="translate(-262.537 -181.208)" fill="#8f4d4f"/>
        <path id="Trazado_1032967" data-name="Trazado 1032967" d="M56.368,238.883l-10.274-.723-.047-7.152,10.32,0Z" transform="translate(-35.976 -180.485)" fill="#9c5658"/>
        <path id="Trazado_1032968" data-name="Trazado 1032968" d="M47.15,238.8l0-6.862c.072-.022.192.052.192.121l.008,6.347c0,.172,0,.3-.2.395" transform="translate(-36.835 -181.207)" fill="#a55b5d"/>
        <path id="Trazado_1032969" data-name="Trazado 1032969" d="M165.24,292.109a26.473,26.473,0,0,1,3.611-.068l.037,6.427-.974.358-11.122.221a20.129,20.129,0,0,1-5.638-.564l.007-6.418a19.012,19.012,0,0,1,3.421.049,1.419,1.419,0,0,0,1.51-.966c.172-.746-.266-1.22-.879-1.584a1.117,1.117,0,0,0-1.095-.017l-3.058-.115,0-8.44h17.922v8.436l-8.1.246a1.235,1.235,0,0,0-1.232,1.436,1.316,1.316,0,0,0,1.459,1.041Z" transform="translate(-118.02 -219.535)" fill="#9c5658"/>
        <path id="Trazado_1032970" data-name="Trazado 1032970" d="M168.988,239.464c-6.045.166-11.878.162-17.923,0v-8.456h17.923Z" transform="translate(-118.025 -180.487)" fill="#9c5758"/>
        <path id="Trazado_1032971" data-name="Trazado 1032971" d="M168.989,145.707H151.072l.01-6.727a16.514,16.514,0,0,0,17.9,0Z" transform="translate(-118.031 -108.584)" fill="#9c5658"/>
        <path id="Trazado_1032972" data-name="Trazado 1032972" d="M154.549,331.146l-3.31.033-.025,6.185a118.019,118.019,0,0,0,17.55-.005l-.024-6.18-3.531-.038a.693.693,0,0,1,.452-.191l3.3.017-.016,8.428a116.073,116.073,0,0,1-17.912,0l-.015-8.426,3.082-.021a.669.669,0,0,1,.449.2" transform="translate(-117.989 -258.568)" fill="#87494b"/>
        <path id="Trazado_1032973" data-name="Trazado 1032973" d="M166.135,319.115l-1.094-.018c.061-.29.343-.253.544-.278.32-.039.391.2.55.3" transform="translate(-128.945 -249.087)" fill="#a85c5f"/>
        <path id="Trazado_1032974" data-name="Trazado 1032974" d="M154.178,180.95a117.39,117.39,0,0,0,11.793-.005l2.978.033.01,8.513-17.945-.005.011-8.512Z" transform="translate(-117.987 -141.371)" fill="#9c5758"/>
        <path id="Trazado_1032975" data-name="Trazado 1032975" d="M177.076,180.945c-.056.083-.144.233-.313.233H165.421c-.169,0-.256-.15-.138-.227Z" transform="translate(-129.091 -141.371)" fill="#a75c5e"/>
        <path id="Trazado_1032976" data-name="Trazado 1032976" d="M169.449,218.2l-17.591,0a.187.187,0,0,1,.146-.2l17.065,0c.17,0,.3,0,.38.213" transform="translate(-118.644 -170.313)" fill="#a65c5e"/>
        <path id="Trazado_1032977" data-name="Trazado 1032977" d="M156.478,60.87a16.089,16.089,0,0,0,8.68.082l-.061-.332c-.423-.813.581-.689,1.218-.494a12.592,12.592,0,0,0,3.8-1.77.867.867,0,0,1,.534-.841c.126.126.133.477.178.751a13.171,13.171,0,0,0,2.432-2.635l-.03-.482a6.95,6.95,0,0,0,1.831-3.995l.489-.2a4.11,4.11,0,0,1,.444-.563,18.62,18.62,0,0,0,.211-8.58A14.039,14.039,0,0,1,156.478,60.87" transform="translate(-122.255 -32.665)" fill="#da203e"/>
        <path id="Trazado_1032978" data-name="Trazado 1032978" d="M153.8,17.938c.906,2.079,1.239,5.925.39,8.025a1.3,1.3,0,0,1-.6.554l-.23-.118a14.261,14.261,0,0,0-.154-2.294l-.5-.465a10.979,10.979,0,0,0-16.264-7.89.859.859,0,0,0-.506,1.071q7.364,7.6,14.916,14.939c.7.525-1.741,2.751-2.085,2.856q-.509.226-.525-.972l-.417.2-14.19-14.268c-.666-.452-1.049-.242-1.408.439a10.977,10.977,0,0,0,9.716,16.269l.538.414q.491.173.27.381l-.467.592c-2.073.926-6.2.362-8.213-.674A14.044,14.044,0,1,1,153.8,17.938" transform="translate(-99.847 -8.794)" fill="#e03d55"/>
        <path id="Trazado_1032979" data-name="Trazado 1032979" d="M138.128,72.977l-.065-1.88a.2.2,0,0,1,.145-.114c.1.765.187,1.7-.079,1.993" transform="translate(-107.867 -55.459)" fill="#e93e59"/>
        <path id="Trazado_1032980" data-name="Trazado 1032980" d="M195.2,127.976l-.27-.381.209.049c.283.066.644-.037.924.144Z" transform="translate(-152.298 -99.689)" fill="#e9405c"/>
        <path id="Trazado_1032981" data-name="Trazado 1032981" d="M180.548,33.485a12.37,12.37,0,0,1,.138,2.841.355.355,0,0,1-.2.135c-.351,1.737-1.012,4.081-2.291,4.68a1.749,1.749,0,0,1-1.361-.675L163.189,26.834a1.261,1.261,0,0,1-.34-1.276,1.466,1.466,0,0,1,.711-.8,11.42,11.42,0,0,1,16.988,8.729" transform="translate(-127.192 -18.174)" fill="#040504"/>
        <path id="Trazado_1032982" data-name="Trazado 1032982" d="M244.125,72.419a3.856,3.856,0,0,1-.239,1.083c-.221-.169-.157-.4-.2-.52l.061-2.976c.412.329.111,1.078.384,2.412" transform="translate(-190.386 -54.696)" fill="#d6374f"/>
        <path id="Trazado_1032983" data-name="Trazado 1032983" d="M184.885,42.044l-6.94-6.922a8.928,8.928,0,0,1,11.937,7.158Z" transform="translate(-139.027 -27.006)" fill="#f3f3f4"/>
        <path id="Trazado_1032984" data-name="Trazado 1032984" d="M223.848,80.482c.4.111.816-.033,1.115.182a4.742,4.742,0,0,1-.47,1.679l-1.658-1.6q.027-.531,1.013-.261" transform="translate(-174.099 -62.809)" fill="#935153"/>
        <path id="Trazado_1032985" data-name="Trazado 1032985" d="M223.165,80a1.37,1.37,0,0,0-1.013.261c-.107-.1-.247-.13-.168-.329a.384.384,0,0,1,.436-.14Z" transform="translate(-173.416 -62.33)" fill="#4c2c2d"/>
        <path id="Trazado_1032986" data-name="Trazado 1032986" d="M157.661,60.974a1.6,1.6,0,0,1-1.164,1.848l-3.091,1.188c-.324.1-1-.425-1.3.069l-.209-.049a11.408,11.408,0,0,1-10.485-17.165,1.232,1.232,0,0,1,1.987-.228Z" transform="translate(-109.267 -36.123)" fill="#040504"/>
        <path id="Trazado_1032987" data-name="Trazado 1032987" d="M161.387,87.907a5.021,5.021,0,0,0-2.185,0,8.855,8.855,0,0,1-7.675-7.6c1.616-.171,2.961-.218,4.513-.257l7.372,7.351a3.655,3.655,0,0,1-2.025.5" transform="translate(-118.386 -62.546)" fill="#9c5658"/>
        <path id="Trazado_1032988" data-name="Trazado 1032988" d="M153.582,63.144l.042.2-1.295.183c-.167,0-.542,0-.611-.137a3.748,3.748,0,0,1,.409-1.632,13.669,13.669,0,0,1,1.455,1.391" transform="translate(-118.537 -48.247)" fill="#dbdbdb"/>
        <path id="Trazado_1032989" data-name="Trazado 1032989" d="M188.805,115.1l-2.185,0a2.592,2.592,0,0,1,2.185,0" transform="translate(-145.804 -89.739)" fill="#a75c5e"/>
        <path id="Trazado_1032990" data-name="Trazado 1032990" d="M154.511,68.49l1.253-.379c.259.031.257.418.005.411Z" transform="translate(-120.718 -53.214)" fill="#4d4e4e"/>
      </g>
    </g>
  </g>
</svg>
