<svg xmlns="http://www.w3.org/2000/svg" xmlns:xlink="http://www.w3.org/1999/xlink" width="126" height="126" viewBox="0 0 126 126">
  <defs>
    <clipPath id="clip-path">
      <rect id="Rectángulo_456277" data-name="Rectángulo 456277" width="126" height="126" transform="translate(-0.173 -0.173)" fill="#d35560"/>
    </clipPath>
    <clipPath id="clip-path-2">
      <rect id="Rectángulo_459891" data-name="Rectángulo 459891" width="71.159" height="71.205" fill="none"/>
    </clipPath>
  </defs>
  <g id="Grupo_1187785" data-name="Grupo 1187785" transform="translate(-1205.711 -1786.363)">
    <g id="Grupo_1187784" data-name="Grupo 1187784" transform="translate(310.653 -5497.637)">
      <g id="Grupo_1180176" data-name="Grupo 1180176" transform="translate(14330.847 19964.789)">
        <g id="Grupo_1179924" data-name="Grupo 1179924" transform="translate(-13435.616 -12680.616)">
          <g id="Grupo_1179923" data-name="Grupo 1179923" transform="translate(0 0)" clip-path="url(#clip-path)">
            <path id="Trazado_1004716" data-name="Trazado 1004716" d="M62.806,125.612c-2.04,0-3.948-2.331-5.937-2.525-2.026-.2-4.351,1.715-6.315,1.325-1.993-.4-3.409-3.055-5.329-3.638-1.941-.59-4.6.83-6.452.058-1.871-.777-2.738-3.663-4.51-4.614s-4.665-.085-6.338-1.206-1.967-4.124-3.525-5.4-4.557-.986-5.984-2.413-1.13-4.424-2.412-5.984-4.279-1.846-5.4-3.525-.249-4.555-1.206-6.338-3.836-2.64-4.614-4.51c-.771-1.855.648-4.511.059-6.452C4.254,78.467,1.6,77.051,1.2,75.058c-.39-1.964,1.523-4.289,1.325-6.315C2.331,66.754,0,64.846,0,62.806s2.331-3.948,2.525-5.937c.2-2.026-1.715-4.35-1.325-6.315.4-1.993,3.054-3.409,3.638-5.329.59-1.941-.829-4.6-.058-6.452.778-1.871,3.663-2.737,4.614-4.51S9.478,29.6,10.6,27.924,14.723,25.957,16,24.4s.986-4.557,2.413-5.984S22.84,17.286,24.4,16s1.846-4.279,3.525-5.4,4.555-.249,6.338-1.206,2.639-3.836,4.51-4.614,4.511.648,6.452.058C47.145,4.254,48.56,1.6,50.554,1.2c1.964-.39,4.289,1.523,6.315,1.325C58.858,2.331,60.766,0,62.806,0s3.948,2.331,5.937,2.525c2.026.2,4.351-1.715,6.315-1.325,1.993.4,3.409,3.055,5.329,3.638,1.941.59,4.6-.83,6.452-.058,1.871.777,2.738,3.663,4.51,4.614s4.665.084,6.338,1.206,1.967,4.124,3.525,5.4,4.557.986,5.984,2.413,1.13,4.424,2.412,5.984,4.279,1.846,5.4,3.525.249,4.555,1.206,6.338,3.836,2.64,4.614,4.51c.771,1.855-.648,4.511-.058,6.452.583,1.919,3.242,3.335,3.638,5.328.39,1.964-1.523,4.289-1.325,6.315.195,1.989,2.525,3.9,2.525,5.937s-2.331,3.948-2.525,5.938c-.2,2.026,1.715,4.35,1.325,6.315-.4,1.993-3.054,3.409-3.638,5.329-.59,1.941.829,4.6.058,6.452-.778,1.871-3.663,2.738-4.614,4.511s-.084,4.665-1.206,6.338-4.124,1.967-5.4,3.525-.986,4.557-2.413,5.984-4.424,1.13-5.984,2.413-1.846,4.278-3.525,5.4-4.555.249-6.338,1.206-2.639,3.837-4.51,4.614c-1.855.771-4.511-.648-6.452-.058-1.919.583-3.335,3.242-5.328,3.638-1.964.39-4.289-1.523-6.315-1.325-1.99.194-3.9,2.525-5.938,2.525" transform="translate(0.021 0.022)" fill="#3342a4"/>
            <path id="Trazado_1004717" data-name="Trazado 1004717" d="M14,70.865A56.865,56.865,0,1,1,70.865,127.73,56.865,56.865,0,0,1,14,70.865" transform="translate(-8.038 -8.037)" fill="#fff7e8"/>
            <path id="Trazado_1021102" data-name="Trazado 1021102" d="M14,66.624a52.624,52.624,0,1,1,52.624,52.624A52.624,52.624,0,0,1,14,66.624" transform="translate(-3.798 -3.795)" fill="#3342a4"/>
          </g>
        </g>
        <g id="Grupo_1180053" data-name="Grupo 1180053" transform="translate(-13407.189 -12652.604)">
          <rect id="Rectángulo_401104" data-name="Rectángulo 401104" width="68.804" height="69.633" transform="translate(0 0)" fill="none"/>
        </g>
      </g>
    </g>
    <g id="Grupo_1187622" data-name="Grupo 1187622" transform="translate(1233.132 1813.242)">
      <g id="Grupo_1187621" data-name="Grupo 1187621" clip-path="url(#clip-path-2)">
        <path id="Trazado_1031485" data-name="Trazado 1031485" d="M97.676,72.127q-.213.286.538.066l2.118.3a2.348,2.348,0,0,1,.13,1.08q-.375.683-.028.176a14.657,14.657,0,0,0,3.588,7.748L86.172,81.5a1.163,1.163,0,0,0-1.2,1.2l-.006,15.4-8.294.01A1.157,1.157,0,0,0,75.484,99.3l-.058,8.788a23.56,23.56,0,0,1-3.509-12.331l3.555-.021a1.155,1.155,0,0,0,1.052-.65,1.2,1.2,0,0,0-.055-1.143l-4.547-6.506.977-1.412a2.166,2.166,0,0,0,.993.257A23.58,23.58,0,0,1,92.879,72.176q.8.251.536-.045a21.018,21.018,0,0,1,4.261,0" transform="translate(-57.697 -57.78)" fill="#d3d2d1"/>
        <path id="Trazado_1031486" data-name="Trazado 1031486" d="M84.634,36.192a2.036,2.036,0,0,0,1.023.138,8.061,8.061,0,0,1,1.872.416,13.8,13.8,0,0,0-1.377,4.475A26.108,26.108,0,0,0,57.606,55.789L53.989,50.6c.2.127.558.147.845.4a30.965,30.965,0,0,1,29.8-14.816" transform="translate(-43.314 -28.892)" fill="#3d8fcf"/>
        <path id="Trazado_1031487" data-name="Trazado 1031487" d="M14.225,29.657c.126-.088.342-.193.4-.117a73.259,73.259,0,0,1,4.7,7c.058,1.174-.458,1.573-1.524,1.811l-3.183.066a23.666,23.666,0,0,0,2.725,10.456l.05-7.375c.237-1.136.452-1.3,1.558-1.556l7.923-.055L26.879,24.9c.233-1.152.452-1.31,1.572-1.571l16.962-.013c-.877-1.344-3.046-4.763-2.895-6.3a1.254,1.254,0,0,0,.217-1.058c-.076-.062-.062-.12.028-.176q-.4-.126-.5-.732l-1.54-.215-.207-.428q-.43.216-.538-.066a11.756,11.756,0,0,1-3.33.332c-.217-.343-.55-.345-.931-.329.075.264-.316.132-.536.045l-.686.489A23.627,23.627,0,0,0,16.414,28.767c-.556.2-1.226.161-1.211-.522l-1.183-.582a1.876,1.876,0,0,1,.273-.765,2.223,2.223,0,0,1-.064-.475.964.964,0,0,1,.06-.415C19.158,15.787,31.352,9.751,42.43,11.879q.386.547.1-.187a21.365,21.365,0,0,1,1.077-3.647q-.994.009-1.266-.607A2.016,2.016,0,0,1,41.32,7.3l-.893.313A30.63,30.63,0,0,0,12.068,21.974q-.467.815-1.393-.262a6.881,6.881,0,0,0-1.2-.784A33.2,33.2,0,0,1,45.587,5.649,14.218,14.218,0,1,1,67.786,23.4,33.208,33.208,0,1,1,4.75,37.941l-3.575.013a1.171,1.171,0,0,1-.983-.519,1.193,1.193,0,0,1-.011-1.278L8.559,24.2a1.16,1.16,0,0,1,1.821-.009Z" transform="translate(0 0)" fill="#040504"/>
        <path id="Trazado_1031488" data-name="Trazado 1031488" d="M82.765,137.232q-.352,1.883.049.725a43.014,43.014,0,0,1-.052,5.606l-.15.97a30.831,30.831,0,0,1-61.2-1.218l.138-1.169q.035.4-.172.483l-.152-3.809a1.025,1.025,0,0,0-.994-.964l-2.6-.059,5.987-8.586,5.976,8.575-2.4.051c-.849.031-1.185.6-1.206,1.384a26.174,26.174,0,0,0,5.892,17.458l.045,3.69a1.168,1.168,0,0,0,1.186,1.184l3.969-.009a26.031,26.031,0,0,0,29.922.057l4.063-.048a1.159,1.159,0,0,0,1.185-1.186l.047-3.682a26.081,26.081,0,0,0,3.728-26.9,13.947,13.947,0,0,0,4.129-2.338,28.233,28.233,0,0,1,2.6,9.787" transform="translate(-14.147 -102.246)" fill="#3d8fcf"/>
        <path id="Trazado_1031489" data-name="Trazado 1031489" d="M252.673,132.993l.173-.026.6.067a1.508,1.508,0,0,1,.641.561c1.166,2.323,2.073,8.321,1.518,10.854a1.484,1.484,0,0,1-.49.7,3.584,3.584,0,0,0-1.295-.249l-7.916,0,.01-14.555a14.685,14.685,0,0,0,6.76,2.645" transform="translate(-197.282 -104.575)" fill="#d3d2d1"/>
        <path id="Trazado_1031490" data-name="Trazado 1031490" d="M285.711,155.078a23.416,23.416,0,0,0-1.67-12.113,12.966,12.966,0,0,0,3.418-.238,23.668,23.668,0,0,1-1.412,22.093l-.059-8.8Z" transform="translate(-227.88 -114.507)" fill="#b9b8b8"/>
        <path id="Trazado_1031491" data-name="Trazado 1031491" d="M158.406,300.053l.091.467a24.678,24.678,0,0,1-3.106,1.4,23.19,23.19,0,0,1-8.377.177q-.02-.2-.346-.055a20.637,20.637,0,0,1-6.123-1.98Z" transform="translate(-112.756 -240.726)" fill="#d2d1d0"/>
        <path id="Trazado_1031492" data-name="Trazado 1031492" d="M215.628,301.917c.745-.84,2.22-.973,3.015-1.864l2.441.052a22.019,22.019,0,0,1-5.457,1.813" transform="translate(-172.994 -240.726)" fill="#b4b3b3"/>
        <path id="Trazado_1031493" data-name="Trazado 1031493" d="M346.063,177.671c-.054.17.021.383-.171.685a1.393,1.393,0,0,1,.122-1.41Z" transform="translate(-277.396 -141.96)" fill="#4596d3"/>
        <path id="Trazado_1031494" data-name="Trazado 1031494" d="M36.621,202.2a3.188,3.188,0,0,0-.034-.687c.05-.164-.035-.377.162-.673a1.28,1.28,0,0,1-.128,1.36" transform="translate(-29.353 -161.128)" fill="#4697d4"/>
        <path id="Trazado_1031495" data-name="Trazado 1031495" d="M345.895,209.939c-.119-.287-.169-.763.15-.97-.022.347.055.728-.15.97" transform="translate(-277.43 -167.651)" fill="#3175aa"/>
        <path id="Trazado_1031496" data-name="Trazado 1031496" d="M171.857,309.118c-.091-.059-.235-.034-.346-.055a.855.855,0,0,1,1.1-.1,2.786,2.786,0,0,1-.753.156" transform="translate(-137.6 -247.749)" fill="#e1e1e0"/>
        <path id="Trazado_1031497" data-name="Trazado 1031497" d="M212.232,215.985l.394.186-.08,9.227c-.252,1.905-1.1,2.611-2.969,2.83l-11.428-.095-.231-.4-.013-11.778,4.743-.005.007,5.927a1.2,1.2,0,0,0,1.192,1.2l4.73-.01a1.165,1.165,0,0,0,1.186-1.191l.011-5.911Z" transform="translate(-158.776 -173.254)" fill="#92613f"/>
        <path id="Trazado_1031498" data-name="Trazado 1031498" d="M155,138.494c.018.6.739.995,1.218.995l4.767,0a1.258,1.258,0,0,0,1.223-1.03l.061-5.975,2.591.013q.131,4.773.063,9.576c-.274,1.749-1.295,2.385-2.951,2.571l-11.409-.017-.173-.258.005-11.871,4.5-.026Z" transform="translate(-120.653 -106.282)" fill="#b27749"/>
        <path id="Trazado_1031499" data-name="Trazado 1031499" d="M107,222.281c.017.594.743.99,1.218.991l4.765.006a1.27,1.27,0,0,0,1.225-1.029l.061-5.975a6.11,6.11,0,0,1,2.667.2l-.009,9.1a2.737,2.737,0,0,1-2.761,2.831l-11.6.006-.174-.257,0-11.871,4.5-.026Z" transform="translate(-82.145 -173.459)" fill="#a86f43"/>
        <path id="Trazado_1031500" data-name="Trazado 1031500" d="M154.615,138.072l-.174-5.918-4.331,0-.012,11.672,11.482.006a2.47,2.47,0,0,0,2.564-2.2l.01-9.49-2.162.024-.169,5.88-.047-6.092,4.744.009v14.229H149.912l0-14.232,4.746,0Z" transform="translate(-120.27 -105.86)" fill="#a86f47"/>
        <path id="Trazado_1031501" data-name="Trazado 1031501" d="M106.614,222.078l-.174-5.919-4.331,0-.011,11.67,11.673-.018a2.383,2.383,0,0,0,2.37-2.551l.013-9.116-2.164.023-.169,5.881-.047-6.091,4.746.016V230.2l-16.609,0,0-14.234,4.746,0Z" transform="translate(-81.759 -173.256)" fill="#9e6740"/>
        <path id="Trazado_1031502" data-name="Trazado 1031502" d="M197.974,227.823l11.652.1a2.482,2.482,0,0,0,2.582-2.585l.078-9.262,2.284-.011v14.218l-16.582,0Z" transform="translate(-158.83 -173.341)" fill="#80543a"/>
        <path id="Trazado_1031503" data-name="Trazado 1031503" d="M188.305,136.729l-2.382.018v-4.715l2.371,0Z" transform="translate(-149.162 -105.926)" fill="#e3e5e4"/>
        <path id="Trazado_1031504" data-name="Trazado 1031504" d="M140.305,220.729l-2.382.018v-4.715l2.371,0Z" transform="translate(-110.653 -173.318)" fill="#e3e5e4"/>
        <path id="Trazado_1031505" data-name="Trazado 1031505" d="M236.305,220.729l-2.382.018v-4.715l2.371,0Z" transform="translate(-187.671 -173.318)" fill="#e3e5e4"/>
        <path id="Trazado_1031506" data-name="Trazado 1031506" d="M276.609,143.62l.173-.026c-.078.367-.764.424-1.045.085Z" transform="translate(-221.218 -115.202)" fill="#dbdbdb"/>
        <path id="Trazado_1031507" data-name="Trazado 1031507" d="M214.984,80.028l-.113.859a.678.678,0,0,1,.142-1.035Z" transform="translate(-172.248 -64.064)" fill="#dadbda"/>
        <path id="Trazado_1031508" data-name="Trazado 1031508" d="M199.458,72.564l.538.066a1.053,1.053,0,0,1-1.212.1c.3-.177.509-.1.674-.167" transform="translate(-159.48 -58.217)" fill="#e1e0e0"/>
        <path id="Trazado_1031509" data-name="Trazado 1031509" d="M178.473,72.581c.166.061.369-.016.674.162a1.019,1.019,0,0,1-1.21-.116Z" transform="translate(-142.755 -58.23)" fill="#dfdfde"/>
        <path id="Trazado_1031510" data-name="Trazado 1031510" d="M210,37.06c-.354.106-.822.166-1.023-.138A5.123,5.123,0,0,1,210,37.06" transform="translate(-167.659 -29.622)" fill="#3177ad"/>
        <path id="Trazado_1031511" data-name="Trazado 1031511" d="M294.727,36.127c.13-.382.377-.477.68-.66a13.029,13.029,0,0,0,0-22.224c-.306-.186-.551-.282-.546-.621a11.836,11.836,0,0,1-.136,23.506" transform="translate(-236.453 -10.126)" fill="#c3c2c2"/>
        <path id="Trazado_1031512" data-name="Trazado 1031512" d="M241.5,12.25c9.556,4.577,9.519,19.066-.136,23.506a11.827,11.827,0,0,1-13.038-9.874q.3-1.044-.055-.5a15.5,15.5,0,0,1,.026-2.914q.252.019.044-.54a11.816,11.816,0,0,1,9.758-9.634q1.567.348.516-.057a12.6,12.6,0,0,1,2.884.016" transform="translate(-183.091 -9.755)" fill="#e3e5e4"/>
        <path id="Trazado_1031513" data-name="Trazado 1031513" d="M278.736,12.538c.123.063.328,0,.634.174a.953.953,0,0,1-1.15-.117Z" transform="translate(-223.21 -10.059)" fill="#f0f3f3"/>
        <path id="Trazado_1031514" data-name="Trazado 1031514" d="M228.64,62.092l.044-.54a.907.907,0,0,1,.1,1.093c-.173-.225-.107-.39-.142-.553" transform="translate(-183.433 -49.382)" fill="#f0f3f4"/>
        <path id="Trazado_1031515" data-name="Trazado 1031515" d="M228.565,77.77l-.055-.5c.063-.044-.009-.2.166-.432.209.295.19.794-.112.934" transform="translate(-183.329 -61.644)" fill="#eff2f2"/>
        <path id="Trazado_1031516" data-name="Trazado 1031516" d="M259.169,44.307l-7.179.029,0-2.382,5.913-.01.007-5.913,2.373.005-.008,7.1a1.149,1.149,0,0,1-1.1,1.174" transform="translate(-202.164 -28.907)" fill="#040505"/>
      </g>
    </g>
  </g>
</svg>
