<svg xmlns="http://www.w3.org/2000/svg" xmlns:xlink="http://www.w3.org/1999/xlink" width="98" height="98" viewBox="0 0 98 98">
  <defs>
    <clipPath id="clip-path">
      <rect id="Rectángulo_456277" data-name="Rectángulo 456277" width="98" height="98" transform="translate(0.31 0.309)" fill="#d35560"/>
    </clipPath>
  </defs>
  <g id="Grupo_1186104" data-name="Grupo 1186104" transform="translate(13435.691 12680.691)">
    <g id="Grupo_1179924" data-name="Grupo 1179924" transform="translate(-13436.001 -12681)">
      <g id="Grupo_1179923" data-name="Grupo 1179923" transform="translate(0 0)" clip-path="url(#clip-path)">
        <path id="Trazado_1004716" data-name="Trazado 1004716" d="M48.95,97.9c-1.59,0-3.077-1.816-4.627-1.968-1.579-.154-3.391,1.337-4.922,1.033-1.554-.309-2.657-2.381-4.153-2.835-1.513-.46-3.582.647-5.028.045s-2.134-2.855-3.515-3.6-3.636-.066-4.94-.94-1.533-3.214-2.747-4.212-3.552-.768-4.664-1.88-.88-3.448-1.88-4.664-3.335-1.438-4.212-2.747-.194-3.55-.94-4.94-2.99-2.057-3.6-3.515.505-3.515.046-5.028c-.455-1.5-2.527-2.6-2.835-4.153-.3-1.531,1.187-3.343,1.033-4.921C1.816,52.028,0,50.54,0,48.95s1.816-3.077,1.968-4.627C2.122,42.744.631,40.932.935,39.4c.308-1.554,2.38-2.657,2.835-4.153.46-1.513-.646-3.583-.045-5.029s2.855-2.133,3.6-3.515.066-3.636.94-4.94,3.214-1.533,4.212-2.747.768-3.552,1.881-4.664,3.448-.88,4.664-1.88,1.438-3.335,2.747-4.212,3.55-.194,4.94-.94,2.057-2.99,3.515-3.6,3.515.505,5.029.045c1.5-.454,2.6-2.527,4.153-2.835,1.531-.3,3.343,1.187,4.921,1.033C45.873,1.816,47.36,0,48.95,0s3.077,1.816,4.627,1.968C55.157,2.122,56.969.631,58.5.935c1.554.309,2.657,2.381,4.154,2.835,1.513.46,3.582-.647,5.028-.045s2.134,2.855,3.515,3.6,3.636.066,4.94.94,1.533,3.214,2.747,4.212,3.552.768,4.664,1.881.88,3.448,1.88,4.664,3.335,1.438,4.212,2.747.194,3.55.94,4.94,2.99,2.057,3.6,3.515-.505,3.515-.045,5.028c.455,1.5,2.527,2.6,2.835,4.153.3,1.531-1.187,3.343-1.033,4.922.152,1.551,1.968,3.038,1.968,4.627s-1.816,3.077-1.968,4.628c-.154,1.579,1.337,3.39,1.033,4.921-.308,1.554-2.38,2.657-2.835,4.154-.46,1.513.646,3.582.045,5.028s-2.855,2.134-3.6,3.515-.066,3.636-.94,4.94-3.214,1.533-4.212,2.747-.768,3.552-1.881,4.664-3.448.88-4.664,1.88-1.438,3.335-2.747,4.212-3.55.194-4.94.94-2.057,2.99-3.515,3.6-3.515-.505-5.028-.045c-1.5.454-2.6,2.527-4.153,2.835-1.531.3-3.343-1.187-4.921-1.033-1.551.151-3.038,1.968-4.628,1.968" transform="translate(0.359 0.359)" fill="#d35560"/>
        <path id="Trazado_1004717" data-name="Trazado 1004717" d="M14,58.32a44.32,44.32,0,1,1,44.32,44.32A44.32,44.32,0,0,1,14,58.32" transform="translate(-9.01 -9.011)" fill="#a2cbcf"/>
        <path id="Trazado_1021102" data-name="Trazado 1021102" d="M14,55.014A41.014,41.014,0,1,1,55.014,96.029,41.015,41.015,0,0,1,14,55.014" transform="translate(-5.706 -5.705)" fill="#952d36"/>
      </g>
    </g>
    <g id="Grupo_1180053" data-name="Grupo 1180053" transform="translate(-13413.503 -12658.826)">
      <rect id="Rectángulo_401104" data-name="Rectángulo 401104" width="53.625" height="54.271" transform="translate(0 0)" fill="none"/>
    </g>
    <g id="Grupo_1180464" data-name="Grupo 1180464" transform="translate(-13450.343 -12656.447)">
      <g id="Grupo_1180463" data-name="Grupo 1180463" transform="translate(43.058 0)">
        <path id="Trazado_1022068" data-name="Trazado 1022068" d="M43.775,39.124a.717.717,0,0,0,.717-.717V1.959a.526.526,0,0,1,.526-.526h9.06a.717.717,0,0,0,0-1.434h-9.06a1.961,1.961,0,0,0-1.959,1.959V38.407A.717.717,0,0,0,43.775,39.124Z" transform="translate(-43.058 0)" fill="#fff"/>
        <path id="Trazado_1022069" data-name="Trazado 1022069" d="M114.74,132.448V128.7a1.1,1.1,0,0,0-1.1-1.1H92.306a1.1,1.1,0,0,0-1.1,1.1v3.751a1.1,1.1,0,0,0,1.1,1.1h21.335A1.1,1.1,0,0,0,114.74,132.448Zm-13.26-3.417h2.986v3.082h-2.986Zm-1.434,3.082H97.061v-3.082h2.986Zm5.853-3.082h2.986v3.082H105.9Zm-13.26,0h2.986v3.082H92.641Zm20.666,3.082H110.32v-3.082h2.986Z" transform="translate(-86.551 -115.258)" fill="#fff"/>
        <path id="Trazado_1022070" data-name="Trazado 1022070" d="M110.32,210.95V207.2a1.1,1.1,0,0,0-1.1-1.1H92.306a1.1,1.1,0,0,0-1.1,1.1v3.751a1.1,1.1,0,0,0,1.1,1.1h16.915A1.1,1.1,0,0,0,110.32,210.95Zm-8.84-3.416h2.986v3.082h-2.986Zm-1.434,3.082H97.061v-3.082h2.986Zm-7.406-3.082h2.986v3.082H92.641Zm16.246,3.082H105.9v-3.082h2.986Z" transform="translate(-86.551 -186.168)" fill="#fff"/>
        <path id="Trazado_1022071" data-name="Trazado 1022071" d="M91.207,349.759a1.888,1.888,0,0,0,1.886,1.886h13.6a1.888,1.888,0,0,0,1.886-1.886v-8a1.888,1.888,0,0,0-1.886-1.886h-13.6a1.888,1.888,0,0,0-1.886,1.886v8Zm1.434-8a.453.453,0,0,1,.452-.452h13.6a.453.453,0,0,1,.452.452v8a.453.453,0,0,1-.452.452h-13.6a.453.453,0,0,1-.452-.452v-8Z" transform="translate(-86.551 -307.004)" fill="#fff"/>
        <path id="Trazado_1022072" data-name="Trazado 1022072" d="M123.493,378.254a.717.717,0,0,0,.717-.717V373.58a.717.717,0,0,0-1.433,0v3.958A.717.717,0,0,0,123.493,378.254Z" transform="translate(-115.067 -336.804)" fill="#fff"/>
        <path id="Trazado_1022073" data-name="Trazado 1022073" d="M195.324,378.254a.717.717,0,0,0,.717-.717V373.58a.717.717,0,0,0-1.433,0v3.958A.717.717,0,0,0,195.324,378.254Z" transform="translate(-179.951 -336.804)" fill="#fff"/>
        <path id="Trazado_1022074" data-name="Trazado 1022074" d="M153.672,378.254a.717.717,0,0,0,.717-.717V373.58a.717.717,0,0,0-1.433,0v3.958A.717.717,0,0,0,153.672,378.254Z" transform="translate(-142.327 -336.804)" fill="#fff"/>
        <path id="Trazado_1022075" data-name="Trazado 1022075" d="M174.673,378.254a.717.717,0,0,0,.717-.717V373.58a.717.717,0,0,0-1.433,0v3.958A.717.717,0,0,0,174.673,378.254Z" transform="translate(-161.297 -336.804)" fill="#fff"/>
        <path id="Trazado_1022076" data-name="Trazado 1022076" d="M224.787,378.254a.717.717,0,0,0,.717-.717V373.58a.717.717,0,0,0-1.433,0v3.958A.717.717,0,0,0,224.787,378.254Z" transform="translate(-206.564 -336.804)" fill="#fff"/>
        <path id="Trazado_1022077" data-name="Trazado 1022077" d="M114.025,52.952h-22.1a.717.717,0,0,0,0,1.433h22.1a.717.717,0,1,0,0-1.433Z" transform="translate(-86.551 -47.831)" fill="#fff"/>
        <path id="Trazado_1022078" data-name="Trazado 1022078" d="M100.765,87.927a.717.717,0,0,0,0-1.433h-8.84a.717.717,0,1,0,0,1.433Z" transform="translate(-86.551 -78.129)" fill="#fff"/>
        <path id="Trazado_1022079" data-name="Trazado 1022079" d="M225.686,86.493H215.541a.717.717,0,0,0,0,1.433h10.145a.717.717,0,0,0,0-1.433Z" transform="translate(-198.213 -78.128)" fill="#fff"/>
        <path id="Trazado_1022080" data-name="Trazado 1022080" d="M105.185,295.726a.717.717,0,1,0,0-1.433H91.925a.717.717,0,1,0,0,1.433Z" transform="translate(-86.551 -265.832)" fill="#fff"/>
        <path id="Trazado_1022081" data-name="Trazado 1022081" d="M76.153,21.843c-.083,0-.165,0-.247.006V1.959A1.961,1.961,0,0,0,73.946,0H57.463a.717.717,0,1,0,0,1.433H73.946a.526.526,0,0,1,.526.526v20.06A8.115,8.115,0,0,0,68.2,28.461H64.777a.717.717,0,1,0,0,1.433H68.06c0,.014,0,.028,0,.042a8.106,8.106,0,0,0,6.413,7.917v2.363H68.279a1.674,1.674,0,0,0-1.672,1.672v6.193H45.018a.526.526,0,0,1-.526-.526V41.819a.717.717,0,0,0-1.433,0v5.737a1.961,1.961,0,0,0,1.959,1.959H67.026a2.8,2.8,0,0,0,1.991-.825l6.064-6.064a2.8,2.8,0,0,0,.825-1.991V38.023c.082,0,.164.006.247.006a8.1,8.1,0,0,0,5.185-1.879.717.717,0,1,0-.919-1.1,6.644,6.644,0,1,1,1.77-2.3.717.717,0,0,0,1.3.607,8.1,8.1,0,0,0-7.335-11.519ZM68.04,47.64V41.889a.239.239,0,0,1,.239-.239H74.03Z" transform="translate(-43.059 0)" fill="#fff"/>
        <path id="Trazado_1022082" data-name="Trazado 1022082" d="M349.778,275.14l-4.54,4.54-1.694-1.694A.717.717,0,0,0,342.529,279l2.2,2.2a.717.717,0,0,0,1.014,0l5.047-5.047a.717.717,0,0,0-1.014-1.014Z" transform="translate(-313.378 -248.341)" fill="#fff"/>
      </g>
    </g>
  </g>
</svg>
