<svg xmlns="http://www.w3.org/2000/svg" xmlns:xlink="http://www.w3.org/1999/xlink" width="98" height="98" viewBox="0 0 98 98">
  <defs>
    <clipPath id="clip-path">
      <rect id="Rectángulo_456277" data-name="Rectángulo 456277" width="98" height="98" transform="translate(0.31 0.309)" fill="#d35560"/>
    </clipPath>
  </defs>
  <g id="Grupo_1186106" data-name="Grupo 1186106" transform="translate(13435.691 12680.691)">
    <g id="Grupo_1179924" data-name="Grupo 1179924" transform="translate(-13436.001 -12681)">
      <g id="Grupo_1179923" data-name="Grupo 1179923" transform="translate(0 0)" clip-path="url(#clip-path)">
        <path id="Trazado_1004716" data-name="Trazado 1004716" d="M48.95,97.9c-1.59,0-3.077-1.816-4.627-1.968-1.579-.154-3.391,1.337-4.922,1.033-1.554-.309-2.657-2.381-4.153-2.835-1.513-.46-3.582.647-5.028.045s-2.134-2.855-3.515-3.6-3.636-.066-4.94-.94-1.533-3.214-2.747-4.212-3.552-.768-4.664-1.88-.88-3.448-1.88-4.664-3.335-1.438-4.212-2.747-.194-3.55-.94-4.94-2.99-2.057-3.6-3.515.505-3.515.046-5.028c-.455-1.5-2.527-2.6-2.835-4.153-.3-1.531,1.187-3.343,1.033-4.921C1.816,52.028,0,50.54,0,48.95s1.816-3.077,1.968-4.627C2.122,42.744.631,40.932.935,39.4c.308-1.554,2.38-2.657,2.835-4.153.46-1.513-.646-3.583-.045-5.029s2.855-2.133,3.6-3.515.066-3.636.94-4.94,3.214-1.533,4.212-2.747.768-3.552,1.881-4.664,3.448-.88,4.664-1.88,1.438-3.335,2.747-4.212,3.55-.194,4.94-.94,2.057-2.99,3.515-3.6,3.515.505,5.029.045c1.5-.454,2.6-2.527,4.153-2.835,1.531-.3,3.343,1.187,4.921,1.033C45.873,1.816,47.36,0,48.95,0s3.077,1.816,4.627,1.968C55.157,2.122,56.969.631,58.5.935c1.554.309,2.657,2.381,4.154,2.835,1.513.46,3.582-.647,5.028-.045s2.134,2.855,3.515,3.6,3.636.066,4.94.94,1.533,3.214,2.747,4.212,3.552.768,4.664,1.881.88,3.448,1.88,4.664,3.335,1.438,4.212,2.747.194,3.55.94,4.94,2.99,2.057,3.6,3.515-.505,3.515-.045,5.028c.455,1.5,2.527,2.6,2.835,4.153.3,1.531-1.187,3.343-1.033,4.922.152,1.551,1.968,3.038,1.968,4.627s-1.816,3.077-1.968,4.628c-.154,1.579,1.337,3.39,1.033,4.921-.308,1.554-2.38,2.657-2.835,4.154-.46,1.513.646,3.582.045,5.028s-2.855,2.134-3.6,3.515-.066,3.636-.94,4.94-3.214,1.533-4.212,2.747-.768,3.552-1.881,4.664-3.448.88-4.664,1.88-1.438,3.335-2.747,4.212-3.55.194-4.94.94-2.057,2.99-3.515,3.6-3.515-.505-5.028-.045c-1.5.454-2.6,2.527-4.153,2.835-1.531.3-3.343-1.187-4.921-1.033-1.551.151-3.038,1.968-4.628,1.968" transform="translate(0.359 0.359)" fill="#d35560"/>
        <path id="Trazado_1004717" data-name="Trazado 1004717" d="M14,58.32a44.32,44.32,0,1,1,44.32,44.32A44.32,44.32,0,0,1,14,58.32" transform="translate(-9.01 -9.011)" fill="#a2cbcf"/>
        <path id="Trazado_1021102" data-name="Trazado 1021102" d="M14,55.014A41.014,41.014,0,1,1,55.014,96.029,41.015,41.015,0,0,1,14,55.014" transform="translate(-5.706 -5.705)" fill="#952d36"/>
      </g>
    </g>
    <g id="Grupo_1180053" data-name="Grupo 1180053" transform="translate(-13413.503 -12658.826)">
      <rect id="Rectángulo_401104" data-name="Rectángulo 401104" width="53.625" height="54.271" transform="translate(0 0)" fill="none"/>
    </g>
    <g id="administrative_fine" data-name="administrative fine" transform="translate(-13416.094 -12660.445)">
      <path id="Trazado_1022152" data-name="Trazado 1022152" d="M23.134,36.052a7.142,7.142,0,0,0,7.134-7.134V22.675a.892.892,0,0,0-.647-.858l-6.242-1.784a.9.9,0,0,0-.489,0l-6.242,1.784a.892.892,0,0,0-.647.858v6.242A7.142,7.142,0,0,0,23.134,36.052Zm-5.351-12.7,5.351-1.528,5.351,1.528v5.57a5.351,5.351,0,0,1-10.7,0Z" transform="translate(-0.866 -1.948)" fill="#fff"/>
      <path id="Trazado_1022153" data-name="Trazado 1022153" d="M34.892,24.784h10.7a.892.892,0,0,0,0-1.784h-10.7a.892.892,0,0,0,0,1.784Z" transform="translate(-2.814 -2.273)" fill="#fff"/>
      <path id="Trazado_1022154" data-name="Trazado 1022154" d="M34.892,28.784h4.459a.892.892,0,0,0,0-1.784H34.892a.892.892,0,0,0,0,1.784Z" transform="translate(-2.814 -2.705)" fill="#fff"/>
      <path id="Trazado_1022155" data-name="Trazado 1022155" d="M34.892,32.784h10.7a.892.892,0,0,0,0-1.784h-10.7a.892.892,0,0,0,0,1.784Z" transform="translate(-2.814 -3.138)" fill="#fff"/>
      <path id="Trazado_1022156" data-name="Trazado 1022156" d="M44.511,40H24.892a.892.892,0,0,0,0,1.784H44.511a.892.892,0,0,0,0-1.784Z" transform="translate(-1.731 -4.112)" fill="#fff"/>
      <path id="Trazado_1022157" data-name="Trazado 1022157" d="M16.892,45.784H43.645a.892.892,0,0,0,0-1.784H16.892a.892.892,0,0,0,0,1.784Z" transform="translate(-0.866 -4.545)" fill="#fff"/>
      <path id="Trazado_1022158" data-name="Trazado 1022158" d="M16.892,49.784h8.026a.892.892,0,0,0,0-1.784H16.892a.892.892,0,0,0,0,1.784Z" transform="translate(-0.866 -4.978)" fill="#fff"/>
      <path id="Trazado_1022159" data-name="Trazado 1022159" d="M36.511,52H16.892a.892.892,0,0,0,0,1.784H36.511a.892.892,0,0,0,0-1.784Z" transform="translate(-0.866 -5.411)" fill="#fff"/>
      <path id="Trazado_1022160" data-name="Trazado 1022160" d="M46.347,10.918H41v-.892a2.678,2.678,0,0,0-2.675-2.675H36.537V4.675A2.678,2.678,0,0,0,33.862,2H24.944a2.678,2.678,0,0,0-2.675,2.675V7.351H20.485a2.678,2.678,0,0,0-2.675,2.675v.892H12.459A4.464,4.464,0,0,0,8,15.377V51.048a4.464,4.464,0,0,0,4.459,4.459H46.347a4.464,4.464,0,0,0,4.459-4.459V15.377a4.464,4.464,0,0,0-4.459-4.459ZM24.052,4.675a.892.892,0,0,1,.892-.892h8.918a.892.892,0,0,1,.892.892V7.351h-10.7Zm-4.459,5.351a.892.892,0,0,1,.892-.892H38.321a.892.892,0,0,1,.892.892v3.567a.892.892,0,0,1-.892.892H20.485a.892.892,0,0,1-.892-.892ZM13.351,12.7H17.81v.892a2.678,2.678,0,0,0,2.675,2.675H38.321A2.678,2.678,0,0,0,41,13.593V12.7h4.459V43.022H39.212a.891.891,0,0,0-.892.892v6.242H13.351Zm30.843,32.1L40.1,48.9v-4.09Zm4.828,6.242a2.678,2.678,0,0,1-2.675,2.675H12.459a2.678,2.678,0,0,1-2.675-2.675V15.377a2.671,2.671,0,0,1,1.784-2.511V51.048a.891.891,0,0,0,.892.892H39.212a.891.891,0,0,0,.631-.261l7.134-7.134a.891.891,0,0,0,.261-.63V12.866a2.671,2.671,0,0,1,1.784,2.511Z" fill="#fff"/>
    </g>
  </g>
</svg>
