<svg xmlns="http://www.w3.org/2000/svg" xmlns:xlink="http://www.w3.org/1999/xlink" width="150" height="150" viewBox="0 0 150 150">
  <defs>
    <clipPath id="clip-path">
      <rect id="Rectángulo_456277" data-name="Rectángulo 456277" width="150" height="150" transform="translate(-0.059 -0.059)" fill="#d35560"/>
    </clipPath>
    <clipPath id="clip-path-2">
      <rect id="Rectángulo_459903" data-name="Rectángulo 459903" width="72.265" height="72.253" fill="none"/>
    </clipPath>
  </defs>
  <g id="Grupo_1180101" data-name="Grupo 1180101" transform="translate(-413.192 -9435.133)">
    <g id="Grupo_1180081" data-name="Grupo 1180081" transform="translate(413.25 9435.191)">
      <g id="Grupo_1179924" data-name="Grupo 1179924" transform="translate(0 0)">
        <g id="Grupo_1179923" data-name="Grupo 1179923" transform="translate(0 0)" clip-path="url(#clip-path)">
          <path id="Trazado_1004716" data-name="Trazado 1004716" d="M74.59,149.181c-2.423,0-4.689-2.768-7.051-3-2.407-.235-5.167,2.037-7.5,1.574-2.367-.47-4.049-3.628-6.329-4.321-2.305-.7-5.459.985-7.662.069-2.222-.923-3.251-4.35-5.356-5.479s-5.541-.1-7.528-1.432-2.336-4.9-4.186-6.418-5.412-1.171-7.107-2.865-1.342-5.254-2.865-7.107-5.082-2.192-6.418-4.186-.3-5.41-1.432-7.527-4.556-3.135-5.48-5.356c-.916-2.2.77-5.357.07-7.662-.693-2.28-3.85-3.961-4.32-6.329C.962,86.809,3.234,84.048,3,81.642c-.231-2.363-3-4.629-3-7.052S2.768,69.9,3,67.539c.235-2.407-2.037-5.166-1.573-7.5.47-2.367,3.627-4.049,4.32-6.329.7-2.306-.985-5.459-.069-7.663.924-2.222,4.35-3.251,5.48-5.356s.1-5.54,1.432-7.528,4.9-2.336,6.418-4.186,1.171-5.412,2.866-7.107,5.254-1.342,7.107-2.865,2.192-5.082,4.186-6.418,5.41-.3,7.528-1.432,3.134-4.556,5.356-5.48c2.2-.916,5.357.77,7.663.069,2.28-.692,3.961-3.85,6.328-4.32C62.372.962,65.133,3.234,67.539,3c2.363-.231,4.629-3,7.052-3s4.689,2.768,7.051,3c2.407.235,5.167-2.037,7.5-1.574,2.367.47,4.049,3.628,6.329,4.321,2.305.7,5.459-.985,7.662-.069,2.222.923,3.251,4.35,5.356,5.48s5.541.1,7.528,1.432,2.337,4.9,4.186,6.418,5.412,1.171,7.107,2.866,1.342,5.254,2.865,7.107,5.082,2.192,6.418,4.186.3,5.41,1.432,7.528,4.556,3.135,5.479,5.356c.916,2.2-.77,5.357-.069,7.662.693,2.28,3.85,3.961,4.32,6.328.463,2.333-1.809,5.093-1.574,7.5.231,2.363,3,4.629,3,7.051s-2.768,4.689-3,7.052c-.235,2.406,2.037,5.166,1.574,7.5-.47,2.367-3.627,4.049-4.32,6.329-.7,2.305.985,5.459.069,7.662-.924,2.222-4.35,3.251-5.48,5.357s-.1,5.54-1.432,7.528-4.9,2.336-6.418,4.186-1.171,5.412-2.866,7.107-5.254,1.342-7.107,2.865-2.192,5.081-4.186,6.418-5.41.3-7.528,1.432-3.134,4.557-5.356,5.48c-2.2.916-5.357-.77-7.662-.069-2.28.692-3.961,3.85-6.328,4.32-2.333.463-5.093-1.809-7.5-1.574-2.363.231-4.629,3-7.052,3" transform="translate(0.35 0.35)" fill="#d35560"/>
          <path id="Trazado_1004717" data-name="Trazado 1004717" d="M14,81.535a67.535,67.535,0,1,1,67.535,67.535A67.535,67.535,0,0,1,14,81.535" transform="translate(-6.594 -6.594)" fill="#4d787e"/>
          <path id="Trazado_1004718" data-name="Trazado 1004718" d="M132.334,270.213c-.179-.759-.348-1.543-.509-2.312l-2.36-.3q1.057-.562,2.072-1.13-.225-1.156-.423-2.309c.54.53,1.093,1.077,1.663,1.6q.994-.618,1.945-1.239-.422,1.09-.87,2.178c.589.505,1.191,1.019,1.808,1.521l-2.372-.177q-.464,1.087-.955,2.171" transform="translate(-63.866 -130.676)" fill="#ffffc5"/>
          <path id="Trazado_1004719" data-name="Trazado 1004719" d="M113.789,266.762c-.064-.775-.113-1.577-.157-2.361l-2.288-.652q1.129-.4,2.219-.806-.049-1.177-.072-2.347c.455.6.919,1.229,1.4,1.829q1.075-.461,2.108-.932-.58,1.014-1.185,2.022c.507.586,1.024,1.192,1.561,1.772-.776-.161-1.546-.353-2.319-.528q-.621,1-1.269,2" transform="translate(-54.878 -128.909)" fill="#ffffc5"/>
          <path id="Trazado_1004720" data-name="Trazado 1004720" d="M96.012,260.643c.058-.789.127-1.579.2-2.363l-2.166-.983c.783-.146,1.556-.305,2.315-.467q.129-1.169.28-2.329c.358.667.728,1.343,1.113,2.021q1.132-.3,2.225-.608-.726.916-1.477,1.822c.413.657.836,1.325,1.277,1.987l-2.214-.87q-.766.9-1.556,1.79" transform="translate(-46.299 -125.885)" fill="#ffffc5"/>
          <path id="Trazado_1004721" data-name="Trazado 1004721" d="M79.414,251.99q.265-1.159.551-2.3c-.663-.434-1.344-.843-1.993-1.3.783-.008,1.584-.069,2.356-.112q.3-1.136.623-2.258.384,1.067.8,2.159c.766-.066,1.54-.171,2.29-.266q-.856.8-1.734,1.584.466,1.066.968,2.153l-2.062-1.187c-.594.517-1.2,1.036-1.8,1.531" transform="translate(-38.325 -121.677)" fill="#ffffc5"/>
          <path id="Trazado_1004722" data-name="Trazado 1004722" d="M64.353,241.022q.432-1.105.885-2.194c-.593-.526-1.215-1.021-1.777-1.582.769.115,1.567.177,2.343.242q.464-1.078.948-2.139.225,1.109.481,2.247c.755.064,1.543.065,2.3.082q-.965.664-1.952,1.311.3,1.12.643,2.265l-1.87-1.471c-.669.429-1.327.83-2,1.238" transform="translate(-31.127 -116.386)" fill="#ffffc5"/>
          <path id="Trazado_1004723" data-name="Trazado 1004723" d="M51.149,227.995q.589-1.028,1.2-2.037l-.779-.9c-.258-.3-.494-.62-.741-.929l1.128.317,1.149.273q.617-1,1.25-1.973.063,1.127.152,2.286l1.121.234,1.138.191q-1.055.516-2.127,1.012.14,1.148.309,2.327c-.545-.576-1.1-1.142-1.635-1.727q-1.07.473-2.159.926" transform="translate(-24.859 -110.134)" fill="#ffffc5"/>
          <path id="Trazado_1004724" data-name="Trazado 1004724" d="M39.841,213.191q.733-.928,1.481-1.835c-.212-.336-.434-.664-.637-1l-.594-1.031c.724.322,1.417.646,2.16.923.507-.6,1.006-1.179,1.532-1.767-.079.754-.131,1.508-.186,2.282.723.269,1.425.535,2.166.758-.746.236-1.5.467-2.255.686-.022.772-.029,1.551-.032,2.344-.451-.652-.939-1.279-1.359-1.952q-1.13.31-2.275.6" transform="translate(-19.411 -103.056)" fill="#ffffc5"/>
          <path id="Trazado_1004725" data-name="Trazado 1004725" d="M30.615,196.931q.862-.808,1.735-1.593c-.343-.716-.614-1.462-.909-2.2.671.425,1.309.848,1.992,1.237.582-.511,1.181-1.02,1.787-1.522-.212.742-.356,1.472-.529,2.229.683.37,1.327.742,2.024,1.074-.778.124-1.554.238-2.322.338-.159.771-.262,1.529-.386,2.314-.358-.707-.739-1.4-1.051-2.133q-1.165.138-2.342.253" transform="translate(-14.835 -95.309)" fill="#ffffc5"/>
          <path id="Trazado_1004726" data-name="Trazado 1004726" d="M24.019,179.289q.973-.669,1.952-1.313c-.235-.758-.377-1.54-.566-2.31.6.522,1.176,1.033,1.781,1.524.651-.417,1.333-.834,2-1.237-.326.7-.579,1.4-.86,2.124.617.469,1.213.929,1.836,1.366-.791.008-1.557,0-2.34-.016-.284.741-.492,1.474-.731,2.231-.259-.75-.515-1.5-.717-2.268q-1.174-.038-2.355-.1" transform="translate(-11.564 -86.782)" fill="#ffffc5"/>
          <path id="Trazado_1004727" data-name="Trazado 1004727" d="M20.215,160.664q1.062-.516,2.127-1.005c-.119-.785-.143-1.579-.214-2.369.513.605,1.005,1.2,1.532,1.774.706-.315,1.441-.624,2.164-.924-.429.647-.781,1.3-1.168,1.972.539.556,1.062,1.1,1.608,1.627-.781-.112-1.537-.237-2.309-.368-.392.69-.711,1.384-1.058,2.1l-.21-1.171c-.066-.391-.1-.786-.158-1.179q-1.155-.214-2.313-.453" transform="translate(-9.677 -77.667)" fill="#ffffc5"/>
          <path id="Trazado_1004728" data-name="Trazado 1004728" d="M19.269,141.764q1.128-.352,2.255-.679c0-.793.074-1.584.135-2.374.421.674.8,1.333,1.259,1.981.751-.207,1.5-.406,2.266-.595-.5.578-.959,1.172-1.441,1.779.453.63.873,1.246,1.353,1.848q-1.134-.34-2.237-.706c-.483.624-.9,1.263-1.353,1.915-.018-.792-.055-1.585-.018-2.378q-1.109-.382-2.218-.79" transform="translate(-9.207 -68.451)" fill="#ffffc5"/>
          <path id="Trazado_1004729" data-name="Trazado 1004729" d="M21.174,123q1.169-.181,2.333-.336c.074-.39.132-.783.218-1.169l.268-1.159c.312.729.595,1.437.951,2.146.778-.092,1.538-.178,2.325-.25-.574.5-1.122,1.015-1.688,1.543.353.69.672,1.36,1.067,2.028-.706-.335-1.426-.681-2.114-1.031-.553.548-1.077,1.115-1.619,1.694.111-.785.174-1.577.333-2.355q-1.039-.543-2.074-1.112" transform="translate(-10.152 -59.337)" fill="#ffffc5"/>
          <path id="Trazado_1004730" data-name="Trazado 1004730" d="M25.928,104.79q1.182,0,2.357.018c.239-.757.539-1.491.832-2.228.2.769.37,1.51.616,2.264.779.025,1.552.056,2.341.1-.65.4-1.263.834-1.9,1.271.247.736.46,1.445.75,2.165-.649-.438-1.3-.887-1.934-1.337-.633.458-1.233.941-1.857,1.432.226-.761.412-1.533.684-2.279q-.946-.692-1.884-1.411" transform="translate(-12.51 -50.53)" fill="#ffffc5"/>
          <path id="Trazado_1004731" data-name="Trazado 1004731" d="M33.429,87.557q1.169.173,2.325.37c.346-.714.77-1.386,1.158-2.077.083.789.155,1.557.267,2.329.761.139,1.54.3,2.306.457-.718.293-1.376.634-2.077.969.134.765.248,1.5.414,2.252-.582-.533-1.146-1.067-1.705-1.608-.709.35-1.361.744-2.054,1.134.327-.722.644-1.45,1.02-2.149q-.833-.827-1.654-1.678" transform="translate(-16.231 -42.232)" fill="#ffffc5"/>
          <path id="Trazado_1004732" data-name="Trazado 1004732" d="M43.489,71.68q1.128.345,2.241.71c.461-.645.972-1.253,1.456-1.881q-.054,1.188-.083,2.343,1.117.389,2.219.8c-.749.187-1.473.41-2.2.647q.023,1.16.07,2.287-.728-.91-1.438-1.839c-.753.241-1.471.524-2.2.813l.643-1,.688-.97q-.7-.943-1.388-1.908" transform="translate(-21.221 -34.623)" fill="#ffffc5"/>
          <path id="Trazado_1004733" data-name="Trazado 1004733" d="M55.356,57.5q1.064.506,2.109,1.031l1.72-1.643q-.226,1.17-.421,2.312,1.046.548,2.073,1.115c-.759.084-1.53.176-2.278.31Q58.413,61.78,58.3,62.9q-.585-1.008-1.152-2.034l-1.161.215c-.384.079-.76.17-1.144.259.508-.61,1.064-1.175,1.611-1.75q-.556-1.038-1.094-2.095" transform="translate(-26.851 -27.867)" fill="#ffffc5"/>
          <path id="Trazado_1004734" data-name="Trazado 1004734" d="M69.217,45.319c.65.436,1.293.879,1.939,1.34l1.938-1.379q-.394,1.129-.753,2.233.952.7,1.883,1.406c-.754-.018-1.544-.058-2.3-.035q-.311,1.124-.59,2.223-.431-1.084-.841-2.184c-.774.032-1.582.045-2.354.123.592-.529,1.238-.991,1.854-1.49q-.4-1.111-.775-2.237" transform="translate(-33.447 -22.109)" fill="#ffffc5"/>
          <path id="Trazado_1004735" data-name="Trazado 1004735" d="M84.831,34.886c.578.528,1.158,1.078,1.724,1.623l2.117-1.086q-.555,1.061-1.073,2.1.838.828,1.652,1.667c-.745-.133-1.508-.269-2.274-.382q-.473,1.07-.908,2.119-.266-1.138-.51-2.288c-.77-.084-1.562-.176-2.349-.232.677-.412,1.372-.8,2.057-1.2q-.23-1.158-.436-2.33" transform="translate(-40.923 -16.954)" fill="#ffffc5"/>
          <path id="Trazado_1004736" data-name="Trazado 1004736" d="M101.868,26.946q.744.928,1.463,1.866c.752-.251,1.5-.517,2.255-.756-.476.632-.93,1.284-1.376,1.919q.7.943,1.382,1.893-1.075-.365-2.191-.718c-.421.651-.822,1.313-1.214,1.961q-.094-1.166-.163-2.342-1.124-.3-2.289-.582l2.213-.874c-.035-.785-.066-1.583-.081-2.367" transform="translate(-49.12 -13.015)" fill="#ffffc5"/>
          <path id="Trazado_1004737" data-name="Trazado 1004737" d="M119.95,21.733q.6,1.029,1.166,2.064c.781-.136,1.56-.289,2.344-.41-.566.55-1.113,1.13-1.649,1.69q.554,1.037,1.082,2.079-1.008-.522-2.058-1.037c-.516.571-1.01,1.175-1.494,1.755q.082-1.167.19-2.341-1.066-.463-2.174-.916l2.318-.536c.083-.782.173-1.578.276-2.349" transform="translate(-57.86 -10.43)" fill="#ffffc5"/>
          <path id="Trazado_1004738" data-name="Trazado 1004738" d="M138.658,19.35q.436,1.108.845,2.216l2.378-.059q-.962.715-1.882,1.43.394,1.11.761,2.219-.92-.668-1.882-1.336c-.595.5-1.175,1.012-1.741,1.515q.256-1.142.539-2.285-.986-.619-2.013-1.234l2.372-.18c.2-.761.407-1.532.623-2.286" transform="translate(-66.94 -9.248)" fill="#ffffc5"/>
          <path id="Trazado_1004739" data-name="Trazado 1004739" d="M157.568,19.831c.179.759.348,1.543.509,2.312l2.36.3q-1.057.562-2.072,1.13.224,1.156.423,2.309c-.54-.53-1.093-1.077-1.662-1.6q-.994.618-1.945,1.239.422-1.09.87-2.178c-.589-.505-1.191-1.02-1.808-1.521l2.372.177q.464-1.087.955-2.171" transform="translate(-76.155 -9.486)" fill="#ffffc5"/>
          <path id="Trazado_1004740" data-name="Trazado 1004740" d="M176.272,23.17c.064.775.113,1.577.157,2.361l2.288.652q-1.129.4-2.219.806.049,1.177.072,2.347c-.455-.6-.918-1.229-1.4-1.829q-1.075.461-2.108.932.58-1.014,1.185-2.022c-.506-.586-1.024-1.192-1.561-1.771.776.161,1.546.352,2.319.527q.622-1,1.269-2" transform="translate(-85.303 -11.142)" fill="#ffffc5"/>
          <path id="Trazado_1004741" data-name="Trazado 1004741" d="M194.147,29.313c-.058.789-.126,1.578-.2,2.363l2.166.983c-.783.147-1.556.306-2.315.467q-.128,1.169-.28,2.329c-.358-.667-.728-1.343-1.113-2.021q-1.132.3-2.225.608.726-.916,1.476-1.822c-.412-.657-.836-1.325-1.277-1.987l2.214.87q.766-.9,1.556-1.79" transform="translate(-93.98 -14.189)" fill="#ffffc5"/>
          <path id="Trazado_1004742" data-name="Trazado 1004742" d="M210.61,38.133q-.265,1.159-.551,2.3c.663.434,1.344.843,1.993,1.3-.783.008-1.584.069-2.356.112q-.3,1.136-.623,2.258-.384-1.067-.8-2.159c-.766.066-1.54.171-2.29.266q.856-.8,1.734-1.584-.466-1.066-.968-2.153l2.062,1.187c.594-.517,1.2-1.036,1.8-1.531" transform="translate(-101.818 -18.564)" fill="#ffffc5"/>
          <path id="Trazado_1004743" data-name="Trazado 1004743" d="M225.67,49.168q-.432,1.105-.884,2.194c.593.526,1.215,1.021,1.777,1.582-.769-.115-1.567-.177-2.343-.242q-.464,1.078-.948,2.139-.225-1.109-.481-2.246c-.755-.064-1.543-.065-2.3-.082q.966-.664,1.952-1.311-.3-1.12-.643-2.264l1.87,1.47c.669-.429,1.326-.83,2-1.238" transform="translate(-109.015 -23.922)" fill="#ffffc5"/>
          <path id="Trazado_1004744" data-name="Trazado 1004744" d="M239.007,62.051q-.589,1.028-1.2,2.037l.779.9c.258.3.493.62.742.929L238.2,65.6l-1.149-.273q-.617,1-1.25,1.973-.063-1.127-.152-2.286l-1.121-.234-1.137-.191q1.055-.516,2.127-1.012-.14-1.148-.309-2.327c.545.576,1.1,1.142,1.635,1.727q1.071-.473,2.159-.926" transform="translate(-115.416 -30.03)" fill="#ffffc5"/>
          <path id="Trazado_1004745" data-name="Trazado 1004745" d="M250.33,76.837q-.733.928-1.481,1.835c.211.335.434.664.636,1l.594,1.031c-.724-.322-1.417-.646-2.16-.923-.507.6-1.006,1.179-1.532,1.767.079-.754.131-1.508.186-2.282-.723-.269-1.425-.535-2.166-.757.746-.236,1.5-.467,2.255-.686.022-.772.03-1.55.032-2.343.451.652.939,1.279,1.359,1.952q1.13-.31,2.275-.6" transform="translate(-120.879 -37.09)" fill="#ffffc5"/>
          <path id="Trazado_1004746" data-name="Trazado 1004746" d="M259.38,93.209q-.862.808-1.735,1.593c.343.716.614,1.462.909,2.2-.671-.425-1.309-.848-1.992-1.237-.582.511-1.181,1.02-1.787,1.522.212-.742.356-1.472.529-2.229-.683-.37-1.327-.742-2.024-1.074.778-.124,1.554-.238,2.322-.338.159-.771.262-1.529.385-2.314.358.708.739,1.4,1.051,2.134q1.165-.138,2.342-.253" transform="translate(-125.279 -44.949)" fill="#ffffc5"/>
          <path id="Trazado_1004747" data-name="Trazado 1004747" d="M265.935,110.814q-.973.67-1.952,1.313c.235.758.377,1.54.566,2.31-.6-.521-1.176-1.033-1.781-1.524-.651.417-1.333.834-2,1.237.327-.7.579-1.4.86-2.124-.617-.469-1.213-.929-1.836-1.366.791-.007,1.557,0,2.34.016.284-.741.492-1.474.731-2.231.259.75.515,1.5.717,2.268q1.174.038,2.355.1" transform="translate(-128.509 -53.44)" fill="#ffffc5"/>
          <path id="Trazado_1004748" data-name="Trazado 1004748" d="M269.832,129.258q-1.062.516-2.127,1.005c.119.785.143,1.579.214,2.369-.513-.605-1.005-1.2-1.532-1.774-.706.315-1.441.624-2.164.924.429-.647.781-1.3,1.168-1.972-.539-.556-1.062-1.1-1.608-1.627.781.112,1.537.237,2.309.367.392-.69.711-1.383,1.058-2.1l.21,1.171c.066.391.1.786.158,1.179q1.155.214,2.313.453" transform="translate(-130.489 -62.373)" fill="#ffffc5"/>
          <path id="Trazado_1004749" data-name="Trazado 1004749" d="M270.909,148.113q-1.128.352-2.255.679c0,.793-.074,1.584-.135,2.374-.421-.674-.8-1.333-1.259-1.981-.751.207-1.5.406-2.266.595.5-.578.959-1.172,1.441-1.779-.453-.63-.873-1.246-1.353-1.848q1.134.34,2.237.706c.483-.624.9-1.263,1.353-1.915.018.793.055,1.585.018,2.378q1.109.383,2.218.79" transform="translate(-131.09 -71.544)" fill="#ffffc5"/>
          <path id="Trazado_1004750" data-name="Trazado 1004750" d="M268.826,166.968q-1.17.181-2.334.336c-.074.39-.132.783-.218,1.169l-.268,1.159c-.312-.729-.595-1.437-.951-2.146-.778.092-1.538.178-2.326.25.574-.5,1.122-1.015,1.689-1.543-.353-.69-.672-1.36-1.067-2.028.706.335,1.426.681,2.114,1.031.553-.548,1.077-1.115,1.619-1.694-.111.785-.174,1.577-.333,2.355q1.039.542,2.074,1.111" transform="translate(-129.966 -80.748)" fill="#ffffc5"/>
          <path id="Trazado_1004751" data-name="Trazado 1004751" d="M264.024,185.4q-1.182,0-2.357-.018c-.24.757-.539,1.491-.832,2.228-.2-.769-.37-1.51-.616-2.264-.779-.025-1.552-.056-2.341-.1.65-.4,1.263-.834,1.9-1.271-.247-.735-.46-1.445-.75-2.165.649.437,1.3.886,1.934,1.337.633-.458,1.233-.941,1.857-1.431-.226.76-.412,1.532-.684,2.278q.946.692,1.884,1.411" transform="translate(-127.56 -89.783)" fill="#ffffc5"/>
          <path id="Trazado_1004752" data-name="Trazado 1004752" d="M256.61,202.53q-1.169-.173-2.325-.37c-.346.714-.77,1.386-1.158,2.077-.083-.789-.155-1.557-.267-2.329-.761-.139-1.54-.3-2.306-.457.718-.293,1.376-.635,2.077-.969-.134-.765-.248-1.5-.414-2.252.583.533,1.146,1.067,1.705,1.608.71-.35,1.361-.744,2.054-1.135-.327.722-.644,1.45-1.02,2.149q.832.827,1.654,1.678" transform="translate(-123.928 -97.974)" fill="#ffffc5"/>
          <path id="Trazado_1004753" data-name="Trazado 1004753" d="M246.77,218.341q-1.128-.344-2.241-.71c-.461.645-.972,1.253-1.456,1.881q.054-1.188.083-2.343-1.117-.389-2.219-.8c.749-.187,1.473-.41,2.2-.647q-.023-1.16-.07-2.287.728.91,1.438,1.839c.753-.241,1.471-.524,2.2-.813l-.643,1-.688.97q.7.943,1.388,1.908" transform="translate(-119.158 -105.517)" fill="#ffffc5"/>
          <path id="Trazado_1004754" data-name="Trazado 1004754" d="M234.741,232.58q-1.064-.506-2.109-1.031l-1.72,1.643q.226-1.17.421-2.312-1.046-.548-2.073-1.115c.759-.084,1.53-.176,2.278-.31q.146-1.154.263-2.279.585,1.007,1.152,2.034l1.161-.215c.384-.079.76-.17,1.144-.259-.508.61-1.064,1.175-1.611,1.75q.556,1.038,1.094,2.095" transform="translate(-113.365 -112.331)" fill="#ffffc5"/>
          <path id="Trazado_1004755" data-name="Trazado 1004755" d="M220.791,244.946c-.65-.436-1.293-.879-1.939-1.34l-1.938,1.379q.393-1.129.753-2.233-.952-.7-1.883-1.406c.754.018,1.544.058,2.3.035q.311-1.125.59-2.223.431,1.084.842,2.184c.774-.032,1.581-.045,2.353-.124-.591.529-1.238.991-1.854,1.49q.4,1.111.775,2.237" transform="translate(-106.68 -118.275)" fill="#ffffc5"/>
          <path id="Trazado_1004756" data-name="Trazado 1004756" d="M205.223,255.164c-.578-.528-1.158-1.078-1.724-1.622l-2.117,1.086q.555-1.061,1.072-2.1-.838-.829-1.652-1.668c.745.133,1.508.269,2.274.382q.472-1.069.908-2.119.266,1.139.51,2.289c.77.083,1.562.175,2.349.231-.677.413-1.371.8-2.057,1.2q.23,1.157.436,2.329" transform="translate(-99.25 -123.215)" fill="#ffffc5"/>
          <path id="Trazado_1004757" data-name="Trazado 1004757" d="M188.367,262.987q-.744-.928-1.463-1.866c-.752.251-1.5.517-2.255.756.476-.632.931-1.284,1.376-1.919q-.7-.943-1.382-1.894,1.075.365,2.191.718c.421-.651.822-1.313,1.214-1.961q.094,1.166.163,2.342,1.124.3,2.289.582l-2.213.874c.035.785.066,1.583.081,2.367" transform="translate(-91.235 -127.036)" fill="#ffffc5"/>
          <path id="Trazado_1004758" data-name="Trazado 1004758" d="M170.042,268.223q-.6-1.029-1.166-2.064c-.781.136-1.56.289-2.344.41.566-.55,1.113-1.13,1.649-1.69q-.554-1.037-1.082-2.079,1.008.522,2.058,1.037c.516-.571,1.01-1.175,1.495-1.755q-.082,1.167-.191,2.341,1.066.463,2.174.916l-2.318.536c-.083.782-.172,1.578-.276,2.349" transform="translate(-82.252 -129.645)" fill="#ffffc5"/>
          <path id="Trazado_1004759" data-name="Trazado 1004759" d="M151.223,270.76q-.435-1.108-.845-2.216L148,268.6q.962-.715,1.882-1.431-.394-1.109-.761-2.219.92.668,1.882,1.336c.595-.5,1.175-1.012,1.741-1.515q-.256,1.142-.539,2.285.986.618,2.013,1.233l-2.372.181c-.2.76-.407,1.532-.623,2.285" transform="translate(-73.059 -130.981)" fill="#ffffc5"/>
          <path id="Trazado_1004760" data-name="Trazado 1004760" d="M92.062,148.9A56.837,56.837,0,1,1,148.9,92.062,56.9,56.9,0,0,1,92.062,148.9" transform="translate(-17.122 -17.122)" fill="#d35560"/>
        </g>
      </g>
      <g id="Grupo_1180053" data-name="Grupo 1180053" transform="translate(39.422 38.995)">
        <rect id="Rectángulo_401104" data-name="Rectángulo 401104" width="71.038" height="71.894" transform="translate(0)" fill="#d35560"/>
      </g>
    </g>
    <g id="Grupo_1187642" data-name="Grupo 1187642" transform="translate(452.059 9474.007)">
      <g id="Grupo_1187641" data-name="Grupo 1187641" clip-path="url(#clip-path-2)">
        <path id="Trazado_1031839" data-name="Trazado 1031839" d="M44.748,15.7l8.242-.044-.006-4.812-36.807.007-2.939,3.024,0,7.2,3.584,3.658v5.918l-2.239,2.319.8,17.622,46.63.078c5.911.01,10.313,5.28,10.255,10.857A10.763,10.763,0,0,1,61.6,72.253l-51.146-.006A10.713,10.713,0,0,1,.736,65.32,10.861,10.861,0,0,1,3.754,53.2l.912-20.244-2.241-2.31,0-5.917L6,21.039l.009-7.2L2.4,10.169l.12-5.911A29.587,29.587,0,0,1,6.657.108L12.579,0l3.692,3.616,46.316,0a1.155,1.155,0,0,1,1.237,1.2l0,4.806a1.187,1.187,0,0,1-1.207,1.209l-7.219.018,0,4.811,8.2.028,6.2,6.688.036,5.707-4.8,6.062-.011,10.413a1.2,1.2,0,0,1-1.224,1.22H44.586a1.211,1.211,0,0,1-1.224-1.219l-.01-10.417-4.8-6.061.038-5.7Z" transform="translate(0)" fill="#040504"/>
        <path id="Trazado_1031840" data-name="Trazado 1031840" d="M72.252,264.129q-.133.2.341,0a8.412,8.412,0,0,1,0,16.518q-.672-.239-.343,0a.881.881,0,0,1-.694.19H19.815a.9.9,0,0,1-.7-.189q.132-.2-.34,0a8.415,8.415,0,0,1,0-16.524q.67.243.34.005c.175-.162.3-.164.695-.164H71.35c.462,0,.667-.047.9.164" transform="translate(-9.559 -210.959)" fill="#3d8fcf"/>
        <path id="Trazado_1031841" data-name="Trazado 1031841" d="M46.26,264.778a1.869,1.869,0,0,1,.888.112,1.034,1.034,0,0,1-1.228-.117Z" transform="translate(-36.699 -211.607)" fill="#4395d2"/>
        <path id="Trazado_1031842" data-name="Trazado 1031842" d="M308.694,264.773l.341,0a1.036,1.036,0,0,1-1.228.113,1.848,1.848,0,0,1,.887-.112" transform="translate(-246.001 -211.602)" fill="#4395d2"/>
        <path id="Trazado_1031843" data-name="Trazado 1031843" d="M46.259,346.024l-.34,0a1.029,1.029,0,0,1,1.227-.116,1.873,1.873,0,0,1-.887.112" transform="translate(-36.699 -276.338)" fill="#4395d2"/>
        <path id="Trazado_1031844" data-name="Trazado 1031844" d="M309.031,346.027l-.343,0a1.827,1.827,0,0,1-.886-.111,1.042,1.042,0,0,1,1.229.114" transform="translate(-245.997 -276.34)" fill="#4295d2"/>
        <path id="Trazado_1031845" data-name="Trazado 1031845" d="M83.934,296.393l-2.409,0-.027-1.2-3.581-.039a5.818,5.818,0,0,0-.01-7.188l15.669,0a5.823,5.823,0,0,0,0,7.212l-9.612.014Z" transform="translate(-62.264 -230.142)" fill="#d3d2d1"/>
        <path id="Trazado_1031846" data-name="Trazado 1031846" d="M215.94,281.584l.028,1.2,3.58.037a5.817,5.817,0,0,0,.015,7.2l-15.675,0a5.824,5.824,0,0,0,.008-7.2l9.6-.02.027-1.29Z" transform="translate(-162.949 -224.977)" fill="#d2d2d1"/>
        <path id="Trazado_1031847" data-name="Trazado 1031847" d="M69.733,276.958c.715.153.506,1.37-.211,1.692q-4.4-.088-8.59.145a6.393,6.393,0,0,1-.028,6.275q7.112.105,14.033-.128a6.416,6.416,0,0,1,.005-6.269l-2.655-.028c-.62-.339-.824-1.29-.141-1.6l.033-1.209,8.611.034a5.919,5.919,0,0,1,5.8,6.092,6.043,6.043,0,0,1-6.239,5.946L40.876,287.9l-.052-1.215c-.713-.155-.5-1.28.214-1.6q4.4.093,8.6-.143a6.383,6.383,0,0,1,.024-6.279q-7.107-.1-14.029.131a6.427,6.427,0,0,1-.008,6.265l2.656.03c.619.339.823,1.287.139,1.6l-.034,1.2-8.2.016a6.051,6.051,0,1,1,.23-12.087l39.282.047a3.58,3.58,0,0,1,.043,1.095" transform="translate(-19.154 -220.433)" fill="#040504"/>
        <path id="Trazado_1031848" data-name="Trazado 1031848" d="M164.777,288.1a3.6,3.6,0,1,1-2.667,4.466,3.567,3.567,0,0,1,2.667-4.466" transform="translate(-129.458 -230.174)" fill="#636364"/>
        <path id="Trazado_1031849" data-name="Trazado 1031849" d="M176.349,302.362l-2.408,0v-2.39h2.395Z" transform="translate(-139.015 -239.736)" fill="#040505"/>
        <path id="Trazado_1031850" data-name="Trazado 1031850" d="M290.787,288.1a3.6,3.6,0,1,1-2.665,4.466,3.568,3.568,0,0,1,2.665-4.466" transform="translate(-230.165 -230.17)" fill="#636364"/>
        <path id="Trazado_1031851" data-name="Trazado 1031851" d="M302.349,302.362l-2.408,0v-2.39h2.395Z" transform="translate(-239.714 -239.736)" fill="#040505"/>
        <path id="Trazado_1031852" data-name="Trazado 1031852" d="M38.785,288.092a3.6,3.6,0,1,1-2.663,4.466,3.565,3.565,0,0,1,2.663-4.466" transform="translate(-28.766 -230.167)" fill="#636364"/>
        <path id="Trazado_1031853" data-name="Trazado 1031853" d="M50.349,302.362l-2.408,0v-2.39h2.394Z" transform="translate(-38.315 -239.736)" fill="#040505"/>
        <path id="Trazado_1031854" data-name="Trazado 1031854" d="M128.584,32.338H84.091l-.005-2.409h44.5Z" transform="translate(-67.202 -23.919)" fill="#d2d1d0"/>
        <path id="Trazado_1031855" data-name="Trazado 1031855" d="M226.859,98.413l-19.313-.005a1.169,1.169,0,0,0-1.224,1.2l-.063,2.47-2.353-2.89.024-3.95,4.81-5.259,16.845,0,4.808,5.262.023,3.952-2.349,2.89L228,99.593a1.145,1.145,0,0,0-1.139-1.18" transform="translate(-162.963 -71.904)" fill="#f4f4f4"/>
        <path id="Trazado_1031856" data-name="Trazado 1031856" d="M242.451,143.976l.4.188-.084,9.506a2.785,2.785,0,0,1-2.809,2.716l-11.8-.069-.239-.4-.013-11.957,4.817,0,.006,6.012a1.212,1.212,0,0,0,1.209,1.213l4.807,0a1.186,1.186,0,0,0,1.2-1.207l.011-6Z" transform="translate(-182.147 -115.05)" fill="#b27749"/>
        <path id="Trazado_1031857" data-name="Trazado 1031857" d="M227.973,155.984l12.028.071a2.442,2.442,0,0,0,2.426-2.593l.074-9.416,2.328,0v14.441l-16.841,0Z" transform="translate(-182.197 -115.12)" fill="#9d6643"/>
        <path id="Trazado_1031858" data-name="Trazado 1031858" d="M266.345,148.768l-2.419.018V144l2.408,0Z" transform="translate(-210.931 -115.083)" fill="#e1e3e3"/>
        <path id="Trazado_1031859" data-name="Trazado 1031859" d="M36.85,173.962l.4.183-.007,10.576c-.344,2.8-2.262,3.076-4.685,2.818q-.033-1.589.019-3.2l.416-10.387c1.4-.041,2.61-.006,3.856.006" transform="translate(-26.011 -139.011)" fill="#d2d2d1"/>
        <path id="Trazado_1031860" data-name="Trazado 1031860" d="M37.72,188.49l-.122.483q.147.6-.129.746a12.677,12.677,0,0,0-6.381,1.013l.324-6.286a18.357,18.357,0,0,1-.032,2.863l1.879-.029a2.441,2.441,0,0,0,2.421-2.6l0-10.616,1.419.014Z" transform="translate(-24.846 -139.113)" fill="#b9b8b8"/>
        <path id="Trazado_1031861" data-name="Trazado 1031861" d="M44.322,77.966l-2.418.021-.005-5.98,2.412-.012Z" transform="translate(-33.486 -57.538)" fill="#d1d1d0"/>
        <path id="Trazado_1031862" data-name="Trazado 1031862" d="M20.975,248.92,20.924,246a.177.177,0,0,1,.147-.106l.051,2.917a.177.177,0,0,1-.147.106" transform="translate(-16.723 -196.521)" fill="#080909"/>
        <path id="Trazado_1031863" data-name="Trazado 1031863" d="M23.979,182.72,23.926,180a.177.177,0,0,1,.145-.106l.053,2.716a.176.176,0,0,1-.145.106" transform="translate(-19.122 -143.775)" fill="#080909"/>
        <path id="Trazado_1031864" data-name="Trazado 1031864" d="M70.979,182.72,70.926,180a.177.177,0,0,1,.145-.106l.053,2.716a.176.176,0,0,1-.145.106" transform="translate(-56.684 -143.775)" fill="#080909"/>
        <path id="Trazado_1031865" data-name="Trazado 1031865" d="M62.773,247.136c-.016-.421-.113-.97.25-1.229a2.158,2.158,0,0,0,.2,1.157,1.113,1.113,0,0,1-.454.072" transform="translate(-50.15 -196.53)" fill="#c8c8c7"/>
        <path id="Trazado_1031866" data-name="Trazado 1031866" d="M30.808,21.551l-4.034.014L23.95,18.74V14.764l2.825-2.829,3.979,0,2.823,2.825,0,3.977Z" transform="translate(-19.141 -9.538)" fill="#3687bd"/>
        <path id="Trazado_1031867" data-name="Trazado 1031867" d="M32.765,18.093a3.6,3.6,0,1,1-2.667,4.47,3.587,3.587,0,0,1,2.667-4.47" transform="translate(-23.951 -14.385)" fill="#040505"/>
        <path id="Trazado_1031868" data-name="Trazado 1031868" d="M42.844,30.03a1.175,1.175,0,0,1,1.456.733,1.187,1.187,0,0,1-.709,1.533,1.2,1.2,0,0,1-1.532-.71,1.183,1.183,0,0,1,.785-1.556" transform="translate(-33.558 -23.961)" fill="#626262"/>
        <path id="Trazado_1031869" data-name="Trazado 1031869" d="M30.806,123.55l-4.032.016-2.824-2.826v-3.976l2.825-2.829,3.979,0,2.823,2.826,0,3.975Z" transform="translate(-19.14 -91.057)" fill="#3687bd"/>
        <path id="Trazado_1031870" data-name="Trazado 1031870" d="M32.765,120.093a3.6,3.6,0,1,1-2.667,4.47,3.587,3.587,0,0,1,2.667-4.47" transform="translate(-23.951 -95.904)" fill="#040505"/>
        <path id="Trazado_1031871" data-name="Trazado 1031871" d="M42.844,132.03a1.175,1.175,0,0,1,1.456.733,1.187,1.187,0,0,1-.709,1.533,1.2,1.2,0,0,1-1.532-.71,1.183,1.183,0,0,1,.785-1.556" transform="translate(-33.558 -105.48)" fill="#626262"/>
        <path id="Trazado_1031872" data-name="Trazado 1031872" d="M82.126,154.322l-1.752-1.675,5.14-5.155a9.646,9.646,0,1,1,1.723,1.718Z" transform="translate(-64.235 -105.464)" fill="#040504"/>
        <path id="Trazado_1031873" data-name="Trazado 1031873" d="M150.754,159.655a1.723,1.723,0,0,1,.611-.754,8.408,8.408,0,0,0,.286-12.479c-.272-.26-.481-.411-.361-.8a7.211,7.211,0,0,1-.536,14.036" transform="translate(-120.483 -116.379)" fill="#9cc1d3"/>
        <path id="Trazado_1031874" data-name="Trazado 1031874" d="M117.057,144.59c4.606,3.479,4.6,11.074-.536,14.036a7.22,7.22,0,1,1,.536-14.036" transform="translate(-86.25 -115.35)" fill="#bbdae8"/>
        <path id="Trazado_1031875" data-name="Trazado 1031875" d="M124.746,158.338a2.449,2.449,0,0,0-2.423,2.4l-2.406,0a4.829,4.829,0,0,1,4.806-4.8Z" transform="translate(-95.838 -124.628)" fill="#050605"/>
      </g>
    </g>
  </g>
</svg>
