<svg xmlns="http://www.w3.org/2000/svg" xmlns:xlink="http://www.w3.org/1999/xlink" width="90" height="90" viewBox="0 0 90 90">
  <defs>
    <clipPath id="clip-path">
      <rect id="Rectángulo_456277" data-name="Rectángulo 456277" width="90" height="90" transform="translate(-0.008 -0.007)" fill="#d35560"/>
    </clipPath>
    <clipPath id="clip-path-2">
      <path id="path2640" d="M0-682.665H41.552v41.552H0Z" transform="translate(0 682.665)" fill="#fbe8c9"/>
    </clipPath>
  </defs>
  <g id="Grupo_1180238" data-name="Grupo 1180238" transform="translate(13436 12681)">
    <g id="Grupo_1179924" data-name="Grupo 1179924" transform="translate(-13435.68 -12680.68)">
      <g id="Grupo_1179923" data-name="Grupo 1179923" transform="translate(-0.313 -0.313)" clip-path="url(#clip-path)">
        <path id="Trazado_1004716" data-name="Trazado 1004716" d="M44.672,89.345c-1.451,0-2.808-1.658-4.223-1.8-1.441-.141-3.094,1.22-4.492.943-1.418-.282-2.425-2.173-3.791-2.588-1.381-.42-3.269.59-4.589.041s-1.947-2.605-3.208-3.282-3.318-.06-4.508-.858-1.4-2.933-2.507-3.844-3.241-.7-4.257-1.716-.8-3.147-1.716-4.257-3.043-1.313-3.844-2.507-.177-3.24-.858-4.508S3.953,63.1,3.4,61.766s.461-3.208.042-4.589C3.026,55.812,1.135,54.8.854,53.387c-.277-1.4,1.083-3.05.942-4.491C1.658,47.481,0,46.123,0,44.672s1.658-2.808,1.8-4.223c.141-1.441-1.22-3.094-.942-4.492.281-1.418,2.172-2.425,2.587-3.79.42-1.381-.59-3.27-.041-4.589S6,25.631,6.682,24.37s.06-3.318.858-4.508,2.933-1.4,3.844-2.507.7-3.241,1.716-4.257,3.146-.8,4.256-1.716,1.313-3.043,2.507-3.844,3.24-.177,4.508-.858S26.248,3.953,27.579,3.4s3.208.461,4.589.041c1.365-.415,2.372-2.306,3.79-2.587,1.4-.277,3.05,1.084,4.491.943C41.864,1.658,43.221,0,44.672,0S47.48,1.658,48.9,1.8c1.441.141,3.094-1.22,4.492-.943,1.418.282,2.425,2.173,3.791,2.588,1.381.42,3.269-.59,4.589-.041S63.714,6,64.974,6.682s3.318.06,4.508.858,1.4,2.933,2.507,3.844,3.241.7,4.257,1.716.8,3.147,1.716,4.256,3.043,1.313,3.844,2.507.177,3.24.858,4.508,2.729,1.877,3.282,3.208-.461,3.208-.041,4.589c.415,1.365,2.306,2.372,2.587,3.79.277,1.4-1.083,3.05-.943,4.492.139,1.415,1.8,2.772,1.8,4.223s-1.658,2.808-1.8,4.223c-.141,1.441,1.22,3.094.943,4.491-.281,1.418-2.172,2.425-2.587,3.791-.42,1.381.59,3.269.041,4.589s-2.605,1.947-3.282,3.208-.06,3.318-.858,4.508-2.933,1.4-3.844,2.507-.7,3.241-1.716,4.256-3.147.8-4.256,1.716-1.313,3.043-2.507,3.844-3.24.177-4.508.858-1.877,2.729-3.208,3.282-3.208-.461-4.589-.041c-1.365.415-2.372,2.306-3.79,2.587-1.4.277-3.05-1.084-4.491-.943-1.415.138-2.772,1.8-4.223,1.8" transform="translate(0.32 0.32)" fill="#fbe7c9"/>
        <path id="Trazado_1004717" data-name="Trazado 1004717" d="M14,54.447A40.447,40.447,0,1,1,54.447,94.893,40.447,40.447,0,0,1,14,54.447" transform="translate(-9.455 -9.454)" fill="#3d6c88"/>
        <path id="Trazado_1004718" data-name="Trazado 1004718" d="M131.184,267.785c-.107-.455-.208-.924-.3-1.385l-1.413-.18q.633-.336,1.241-.677-.134-.692-.254-1.383c.324.318.655.645,1,.957q.6-.37,1.165-.742-.253.653-.521,1.3c.353.3.714.61,1.083.911l-1.42-.106q-.278.651-.572,1.3" transform="translate(-90.068 -184.107)" fill="#ffffc5"/>
        <path id="Trazado_1004719" data-name="Trazado 1004719" d="M112.808,264.289c-.039-.464-.068-.944-.094-1.414l-1.37-.39q.676-.238,1.329-.483-.029-.7-.043-1.406c.272.362.55.736.841,1.1q.644-.276,1.262-.558-.347.607-.71,1.211c.3.351.613.714.935,1.061-.465-.1-.926-.211-1.389-.316q-.372.6-.76,1.2" transform="translate(-77.416 -181.618)" fill="#ffffc5"/>
        <path id="Trazado_1004720" data-name="Trazado 1004720" d="M95.224,258.18c.035-.473.076-.945.121-1.415l-1.3-.589c.469-.087.932-.183,1.387-.28q.077-.7.168-1.395c.215.4.436.8.666,1.21q.678-.177,1.333-.364-.435.549-.884,1.091c.247.393.5.794.765,1.19l-1.326-.521q-.459.539-.932,1.072" transform="translate(-65.341 -177.362)" fill="#ffffc5"/>
        <path id="Trazado_1004721" data-name="Trazado 1004721" d="M78.836,249.594q.158-.694.33-1.38c-.4-.26-.8-.5-1.194-.777.469,0,.948-.041,1.411-.067q.18-.68.373-1.353.23.639.481,1.293c.458-.039.922-.1,1.371-.159q-.513.478-1.039.948.279.638.58,1.289l-1.235-.711c-.356.309-.719.621-1.079.917" transform="translate(-54.117 -171.439)" fill="#ffffc5"/>
        <path id="Trazado_1004722" data-name="Trazado 1004722" d="M64,238.747q.259-.662.53-1.314c-.355-.315-.727-.612-1.064-.947.461.069.938.106,1.4.145q.278-.646.568-1.281.135.664.288,1.346c.452.038.924.039,1.377.049q-.578.4-1.169.785.182.671.385,1.356l-1.12-.881c-.4.257-.795.5-1.2.741" transform="translate(-43.986 -163.992)" fill="#ffffc5"/>
        <path id="Trazado_1004723" data-name="Trazado 1004723" d="M51.018,225.889q.353-.616.716-1.22l-.466-.538c-.155-.18-.3-.371-.444-.557l.676.19.688.163q.369-.6.749-1.181.038.675.091,1.369l.671.14.681.114q-.632.309-1.274.606.084.688.185,1.394c-.326-.345-.659-.684-.979-1.034q-.641.283-1.293.554" transform="translate(-35.164 -155.192)" fill="#ffffc5"/>
        <path id="Trazado_1004724" data-name="Trazado 1004724" d="M39.841,211.3q.439-.556.887-1.1c-.127-.2-.26-.4-.381-.6l-.356-.617c.433.193.848.387,1.293.553.3-.357.6-.706.917-1.058-.047.452-.078.9-.112,1.366.433.161.853.32,1.3.454-.447.141-.9.28-1.35.411-.013.462-.018.929-.019,1.4-.27-.391-.563-.766-.814-1.169q-.677.186-1.363.358" transform="translate(-27.496 -145.23)" fill="#ffffc5"/>
        <path id="Trazado_1004725" data-name="Trazado 1004725" d="M30.615,195.3q.516-.484,1.039-.954c-.205-.429-.368-.876-.545-1.316.4.254.784.508,1.193.741.349-.306.708-.611,1.07-.911-.127.445-.213.881-.317,1.335.409.222.795.445,1.212.643-.466.074-.931.142-1.391.2-.1.462-.157.916-.231,1.386-.214-.423-.442-.841-.629-1.278q-.7.083-1.4.152" transform="translate(-21.055 -134.325)" fill="#ffffc5"/>
        <path id="Trazado_1004726" data-name="Trazado 1004726" d="M24.019,177.836q.583-.4,1.169-.787c-.141-.454-.226-.922-.339-1.383.358.312.7.619,1.066.912.39-.25.8-.5,1.2-.741-.2.421-.347.84-.515,1.272.37.281.726.557,1.1.818-.474,0-.933,0-1.4-.01-.17.444-.295.883-.438,1.336-.155-.449-.308-.9-.43-1.358q-.7-.023-1.41-.06" transform="translate(-16.45 -122.323)" fill="#ffffc5"/>
        <path id="Trazado_1004727" data-name="Trazado 1004727" d="M20.215,159.311q.636-.309,1.274-.6c-.071-.47-.086-.946-.128-1.419.307.363.6.717.917,1.062.423-.189.863-.374,1.3-.553-.257.388-.468.779-.7,1.181.323.333.636.659.963.974-.468-.067-.921-.142-1.383-.22-.235.414-.426.829-.634,1.255l-.126-.7c-.039-.234-.062-.471-.095-.706q-.692-.128-1.385-.271" transform="translate(-13.794 -109.494)" fill="#ffffc5"/>
        <path id="Trazado_1004728" data-name="Trazado 1004728" d="M19.269,140.539q.676-.211,1.351-.407c0-.475.044-.948.081-1.422.252.4.479.8.754,1.186.45-.124.9-.243,1.357-.356-.3.346-.574.7-.863,1.065.271.377.523.746.81,1.107q-.679-.2-1.34-.423c-.289.374-.539.756-.81,1.147-.011-.475-.033-.949-.011-1.424q-.664-.229-1.328-.473" transform="translate(-13.133 -96.522)" fill="#ffffc5"/>
        <path id="Trazado_1004729" data-name="Trazado 1004729" d="M21.174,121.93q.7-.108,1.4-.2c.044-.233.079-.469.131-.7l.16-.694c.187.437.356.861.57,1.286.466-.055.921-.107,1.393-.15-.343.3-.672.608-1.011.924.211.413.4.815.639,1.215-.423-.2-.854-.408-1.266-.618-.331.328-.645.668-.97,1.014.066-.47.1-.944.2-1.41q-.622-.325-1.242-.666" transform="translate(-14.463 -83.692)" fill="#ffffc5"/>
        <path id="Trazado_1004730" data-name="Trazado 1004730" d="M25.928,103.9q.708,0,1.411.011c.143-.453.323-.893.5-1.334.121.461.222.9.369,1.356.467.015.929.034,1.4.062-.389.241-.756.5-1.14.761.148.441.275.866.449,1.3-.389-.262-.781-.531-1.158-.8-.379.274-.738.564-1.112.858.135-.455.247-.918.41-1.365q-.567-.415-1.129-.845" transform="translate(-17.782 -71.297)" fill="#ffffc5"/>
        <path id="Trazado_1004731" data-name="Trazado 1004731" d="M33.429,86.872q.7.1,1.392.222c.207-.428.461-.83.693-1.244.05.473.093.932.16,1.4.456.083.922.177,1.381.274-.43.175-.824.38-1.244.58.08.458.149.9.248,1.349-.349-.319-.686-.639-1.021-.963-.425.21-.815.446-1.23.679.2-.433.385-.868.611-1.287q-.5-.5-.991-1.005" transform="translate(-23.019 -59.616)" fill="#ffffc5"/>
        <path id="Trazado_1004732" data-name="Trazado 1004732" d="M43.489,71.21q.676.206,1.342.425c.276-.386.582-.75.872-1.126q-.033.711-.05,1.4.669.233,1.329.478c-.449.112-.882.246-1.319.388q.014.695.042,1.369-.436-.545-.861-1.1c-.451.145-.881.314-1.32.487l.385-.6.412-.581q-.42-.565-.832-1.142" transform="translate(-30.043 -48.907)" fill="#ffffc5"/>
        <path id="Trazado_1004733" data-name="Trazado 1004733" d="M55.148,57.254q.637.3,1.263.617l1.03-.984q-.135.7-.252,1.385.627.328,1.242.668c-.455.05-.916.105-1.364.186q-.087.691-.157,1.365-.35-.6-.69-1.218l-.7.129c-.23.047-.455.1-.685.155.3-.365.637-.7.965-1.048q-.333-.622-.655-1.254" transform="translate(-37.967 -39.397)" fill="#ffffc5"/>
        <path id="Trazado_1004734" data-name="Trazado 1004734" d="M68.784,45.3c.389.261.775.526,1.161.8l1.161-.826q-.236.676-.451,1.337.57.417,1.128.842c-.452-.011-.925-.035-1.379-.021q-.187.673-.353,1.331-.258-.649-.5-1.308c-.463.019-.947.027-1.41.074.354-.317.741-.594,1.11-.892q-.238-.665-.464-1.34" transform="translate(-47.252 -31.292)" fill="#ffffc5"/>
        <path id="Trazado_1004735" data-name="Trazado 1004735" d="M84.181,34.886c.346.316.693.646,1.033.972l1.268-.65q-.332.636-.642,1.26.5.5.989,1c-.446-.079-.9-.161-1.362-.228q-.283.641-.544,1.269-.159-.681-.305-1.37c-.461-.05-.936-.105-1.407-.139.405-.247.822-.477,1.232-.716q-.138-.694-.261-1.4" transform="translate(-57.774 -24.036)" fill="#ffffc5"/>
        <path id="Trazado_1004736" data-name="Trazado 1004736" d="M101.013,26.946q.446.556.876,1.117c.45-.151.9-.309,1.351-.453-.285.379-.557.769-.824,1.149q.421.565.828,1.134-.644-.219-1.312-.43c-.252.39-.492.787-.727,1.174q-.056-.7-.1-1.4-.673-.179-1.371-.349l1.325-.524c-.021-.47-.039-.948-.049-1.417" transform="translate(-69.313 -18.493)" fill="#ffffc5"/>
        <path id="Trazado_1004737" data-name="Trazado 1004737" d="M118.91,21.733q.357.616.7,1.236c.468-.081.934-.173,1.4-.245-.339.329-.667.677-.988,1.012q.332.621.648,1.245-.6-.312-1.232-.621c-.309.342-.6.7-.895,1.051q.049-.7.114-1.4-.638-.277-1.3-.549l1.388-.321c.05-.468.1-.945.165-1.407" transform="translate(-81.614 -14.853)" fill="#ffffc5"/>
        <path id="Trazado_1004738" data-name="Trazado 1004738" d="M137.457,19.35q.261.664.506,1.327l1.424-.036q-.576.428-1.127.857.236.665.456,1.329-.551-.4-1.127-.8c-.356.3-.7.606-1.043.907q.153-.684.323-1.369-.59-.371-1.206-.739l1.42-.108c.119-.455.244-.918.373-1.369" transform="translate(-94.395 -13.189)" fill="#ffffc5"/>
        <path id="Trazado_1004739" data-name="Trazado 1004739" d="M156.233,19.831c.107.455.208.924.3,1.385l1.413.18q-.633.336-1.241.677.134.692.253,1.383c-.323-.318-.654-.645-1-.957q-.6.37-1.165.742.253-.653.521-1.3c-.353-.3-.713-.611-1.083-.911l1.421.106q.278-.651.572-1.3" transform="translate(-107.365 -13.525)" fill="#ffffc5"/>
        <path id="Trazado_1004740" data-name="Trazado 1004740" d="M174.833,23.17c.039.464.068.944.094,1.414l1.37.39q-.676.238-1.329.483.029.7.043,1.406c-.272-.362-.55-.736-.841-1.1q-.644.276-1.262.558.347-.607.71-1.211c-.3-.351-.613-.714-.935-1.061.465.1.926.211,1.389.316q.373-.6.76-1.2" transform="translate(-120.241 -15.856)" fill="#ffffc5"/>
        <path id="Trazado_1004741" data-name="Trazado 1004741" d="M192.555,29.313c-.035.473-.076.945-.121,1.415l1.3.589c-.469.088-.932.183-1.387.28q-.077.7-.168,1.395c-.215-.4-.436-.8-.666-1.21q-.678.177-1.333.364.435-.549.884-1.091c-.247-.393-.5-.794-.765-1.19l1.326.521q.459-.539.932-1.072" transform="translate(-132.455 -20.145)" fill="#ffffc5"/>
        <path id="Trazado_1004742" data-name="Trazado 1004742" d="M208.753,38.133q-.159.694-.33,1.38c.4.26.8.5,1.194.777-.469,0-.948.041-1.411.067q-.18.68-.373,1.353-.23-.639-.481-1.293c-.459.039-.922.1-1.371.159q.513-.478,1.039-.948-.279-.638-.58-1.289l1.235.711c.356-.309.719-.621,1.079-.917" transform="translate(-143.487 -26.303)" fill="#ffffc5"/>
        <path id="Trazado_1004743" data-name="Trazado 1004743" d="M223.592,49.075q-.259.662-.53,1.314c.355.315.727.612,1.064.947-.461-.069-.938-.106-1.4-.145q-.278.646-.568,1.281-.135-.664-.288-1.345c-.452-.038-.924-.039-1.378-.049q.579-.4,1.169-.785-.182-.671-.385-1.356l1.12.88c.4-.257.794-.5,1.2-.741" transform="translate(-153.618 -33.845)" fill="#ffffc5"/>
        <path id="Trazado_1004744" data-name="Trazado 1004744" d="M236.756,61.73q-.353.616-.716,1.22l.466.538c.155.18.3.371.444.557l-.676-.19-.688-.163q-.369.6-.749,1.181-.038-.675-.091-1.369l-.671-.14-.681-.114q.632-.309,1.274-.606-.084-.688-.185-1.394c.326.345.659.684.979,1.034q.641-.283,1.293-.554" transform="translate(-162.627 -42.442)" fill="#ffffc5"/>
        <path id="Trazado_1004745" data-name="Trazado 1004745" d="M247.955,76.294q-.439.556-.887,1.1c.126.2.26.4.381.6l.356.617c-.433-.193-.848-.387-1.293-.553-.3.357-.6.706-.917,1.058.047-.452.078-.9.112-1.366-.433-.161-.853-.32-1.3-.454.447-.141.9-.28,1.35-.411.013-.462.018-.928.019-1.4.27.391.563.766.814,1.169q.677-.186,1.363-.358" transform="translate(-170.317 -52.379)" fill="#ffffc5"/>
        <path id="Trazado_1004746" data-name="Trazado 1004746" d="M256.933,92.454q-.516.484-1.039.954c.205.429.368.876.545,1.316-.4-.254-.784-.508-1.193-.741-.349.306-.708.611-1.07.911.127-.445.213-.881.317-1.335-.409-.222-.795-.445-1.212-.643.466-.074.931-.142,1.391-.2.1-.462.157-.916.231-1.386.214.424.443.841.629,1.278q.7-.083,1.4-.152" transform="translate(-176.51 -63.442)" fill="#ffffc5"/>
        <path id="Trazado_1004747" data-name="Trazado 1004747" d="M263.471,109.864q-.583.4-1.169.787c.141.454.226.922.339,1.383-.358-.312-.7-.619-1.066-.912-.39.25-.8.5-1.2.741.2-.421.347-.84.515-1.272-.37-.281-.726-.557-1.1-.818.474,0,.933,0,1.4.01.17-.444.295-.883.438-1.336.155.449.308.9.43,1.358q.7.023,1.41.06" transform="translate(-181.057 -75.392)" fill="#ffffc5"/>
        <path id="Trazado_1004748" data-name="Trazado 1004748" d="M267.406,128.134q-.636.309-1.274.6c.071.47.086.946.128,1.419-.307-.363-.6-.717-.917-1.062-.423.189-.863.374-1.3.553.257-.388.468-.779.7-1.181-.323-.333-.636-.659-.963-.974.468.067.921.142,1.383.22.235-.413.426-.829.634-1.255l.126.7c.039.234.063.471.095.706q.692.128,1.385.271" transform="translate(-183.843 -87.966)" fill="#ffffc5"/>
        <path id="Trazado_1004749" data-name="Trazado 1004749" d="M268.536,146.842q-.676.211-1.351.407c0,.475-.044.948-.081,1.422-.252-.4-.479-.8-.754-1.186-.45.124-.9.243-1.357.356.3-.346.574-.7.863-1.065-.271-.377-.523-.746-.81-1.107q.679.2,1.34.423c.289-.374.539-.756.81-1.147.011.475.033.949.011,1.424q.664.229,1.328.473" transform="translate(-184.689 -100.875)" fill="#ffffc5"/>
        <path id="Trazado_1004750" data-name="Trazado 1004750" d="M266.38,165.578q-.7.108-1.4.2c-.044.233-.079.469-.131.7l-.16.694c-.187-.437-.356-.861-.57-1.286-.466.055-.921.107-1.393.15.344-.3.672-.608,1.011-.924-.211-.413-.4-.815-.639-1.215.423.2.854.408,1.266.618.331-.328.645-.668.97-1.014-.066.47-.1.944-.2,1.411q.622.325,1.242.666" transform="translate(-183.107 -113.831)" fill="#ffffc5"/>
        <path id="Trazado_1004751" data-name="Trazado 1004751" d="M261.559,183.925q-.708,0-1.411-.011c-.144.453-.323.893-.5,1.334-.121-.461-.222-.9-.369-1.356-.467-.015-.929-.034-1.4-.062.389-.241.756-.5,1.14-.761-.148-.44-.275-.866-.449-1.3.389.262.781.531,1.158.8.379-.274.738-.564,1.112-.857-.135.455-.247.918-.41,1.364q.567.415,1.129.845" transform="translate(-179.721 -126.547)" fill="#ffffc5"/>
        <path id="Trazado_1004752" data-name="Trazado 1004752" d="M254.182,200.806q-.7-.1-1.392-.222c-.207.428-.461.83-.693,1.244-.05-.473-.093-.932-.16-1.4-.456-.083-.922-.177-1.381-.274.43-.175.824-.38,1.244-.58-.08-.458-.148-.9-.248-1.349.349.319.686.639,1.021.963.425-.21.815-.446,1.23-.679-.2.433-.385.868-.611,1.287q.5.5.99,1.005" transform="translate(-174.608 -138.076)" fill="#ffffc5"/>
        <path id="Trazado_1004753" data-name="Trazado 1004753" d="M244.431,216.374q-.676-.206-1.342-.425c-.276.386-.582.75-.872,1.126q.033-.711.05-1.4-.669-.233-1.329-.478c.449-.112.882-.246,1.319-.388q-.014-.695-.042-1.369.436.545.861,1.1c.451-.145.881-.314,1.32-.487l-.385.6-.412.581q.42.565.832,1.142" transform="translate(-167.894 -148.693)" fill="#ffffc5"/>
        <path id="Trazado_1004754" data-name="Trazado 1004754" d="M232.543,230.413q-.637-.3-1.263-.618l-1.03.984q.135-.7.252-1.385-.627-.328-1.242-.668c.455-.05.916-.105,1.364-.186q.087-.691.157-1.365.35.6.69,1.218l.7-.129c.23-.047.455-.1.685-.155-.3.365-.637.7-.965,1.048q.333.622.655,1.254" transform="translate(-159.741 -158.285)" fill="#ffffc5"/>
        <path id="Trazado_1004755" data-name="Trazado 1004755" d="M218.782,242.625c-.389-.261-.775-.526-1.161-.8l-1.161.826q.235-.676.451-1.337-.57-.417-1.128-.842c.452.011.925.035,1.379.021q.187-.674.353-1.331.258.649.5,1.308c.463-.019.947-.027,1.409-.074-.354.317-.741.594-1.11.892q.238.665.464,1.34" transform="translate(-150.331 -166.651)" fill="#ffffc5"/>
        <path id="Trazado_1004756" data-name="Trazado 1004756" d="M203.45,252.739c-.346-.316-.693-.646-1.033-.972l-1.268.65q.332-.636.642-1.26-.5-.5-.989-1c.446.079.9.161,1.362.229q.283-.64.544-1.269.159.682.305,1.371c.461.05.935.105,1.407.139-.405.247-.821.477-1.232.716q.138.693.261,1.4" transform="translate(-139.873 -173.604)" fill="#ffffc5"/>
        <path id="Trazado_1004757" data-name="Trazado 1004757" d="M186.874,260.514q-.446-.556-.876-1.117c-.45.151-.9.309-1.351.453.285-.379.557-.769.824-1.149q-.421-.565-.828-1.134.644.219,1.312.43c.252-.39.492-.787.727-1.174q.056.7.1,1.4.673.179,1.371.349l-1.325.524c.021.47.039.948.049,1.417" transform="translate(-128.591 -178.983)" fill="#ffffc5"/>
        <path id="Trazado_1004758" data-name="Trazado 1004758" d="M168.635,265.759q-.357-.616-.7-1.236c-.468.081-.934.173-1.4.245.339-.329.667-.677.988-1.012q-.332-.621-.648-1.245.6.312,1.232.621c.309-.342.6-.7.9-1.051q-.049.7-.114,1.4.638.277,1.3.549l-1.388.321c-.05.468-.1.945-.165,1.407" transform="translate(-115.947 -182.654)" fill="#ffffc5"/>
        <path id="Trazado_1004759" data-name="Trazado 1004759" d="M149.93,268.36q-.261-.663-.506-1.327l-1.424.036q.576-.428,1.127-.857-.236-.664-.456-1.329.551.4,1.127.8c.356-.3.7-.606,1.043-.907q-.153.684-.323,1.369.59.37,1.206.739l-1.42.108c-.119.455-.244.918-.373,1.369" transform="translate(-103.008 -184.536)" fill="#ffffc5"/>
        <path id="Trazado_1004760" data-name="Trazado 1004760" d="M69.265,103.305a34.04,34.04,0,1,1,34.04-34.04,34.078,34.078,0,0,1-34.04,34.04" transform="translate(-24.273 -24.273)" fill="#d35560"/>
      </g>
    </g>
    <g id="g2634" transform="translate(-13411.775 -12661.007)">
      <g id="g2636" transform="translate(0 0)">
        <g id="g2638" clip-path="url(#clip-path-2)">
          <g id="g2644" transform="translate(36.602 20.695)">
            <path id="path2646" d="M-17.565,19.64H-20V0h2.435Z" transform="translate(20 0)" fill="#fbe8c9"/>
          </g>
          <g id="g2648" transform="translate(2.516 20.695)">
            <path id="path2650" d="M-17.565-303.026H-20v-19.64h2.435Z" transform="translate(20 322.666)" fill="#fbe8c9"/>
          </g>
          <g id="g2652" transform="translate(4.951 14.608)">
            <path id="path2654" d="M-12.7-93.913h-2.435v-2.435a1.219,1.219,0,0,0-1.217-1.217,1.219,1.219,0,0,0-1.217,1.217v2.435H-20v-2.435A3.656,3.656,0,0,1-16.348-100,3.656,3.656,0,0,1-12.7-96.348Z" transform="translate(20 100)" fill="#fbe8c9"/>
          </g>
          <g id="g2656" transform="translate(29.297 14.608)">
            <path id="path2658" d="M-12.7-93.913h-2.435v-2.435a1.219,1.219,0,0,0-1.217-1.217,1.219,1.219,0,0,0-1.217,1.217v2.435H-20v-2.435A3.656,3.656,0,0,1-16.348-100,3.656,3.656,0,0,1-12.7-96.348Z" transform="translate(20 100)" fill="#fbe8c9"/>
          </g>
          <g id="g2660" transform="translate(20.365 12.245)">
            <path id="path2662" d="M3.334-12.918-6.751-16.534l.822-2.292L4.156-15.21Z" transform="translate(6.751 18.826)" fill="#fbe8c9"/>
          </g>
          <g id="g2664" transform="translate(10.28 12.245)">
            <path id="path2666" d="M-5.929-72.335l-.822-2.292L3.334-78.243l.822,2.292Z" transform="translate(6.751 78.243)" fill="#fbe8c9"/>
          </g>
          <g id="g2668" transform="translate(17.124 6.087)">
            <path id="path2670" d="M-16.348-71.478A3.656,3.656,0,0,1-20-75.13h2.435a1.219,1.219,0,0,0,1.217,1.217,1.219,1.219,0,0,0,1.217-1.217,1.219,1.219,0,0,0-1.217-1.217h-1.217V-80h2.435v1.426A3.658,3.658,0,0,1-12.7-75.13,3.656,3.656,0,0,1-16.348-71.478Z" transform="translate(20 80)" fill="#fbe8c9"/>
          </g>
          <g id="g2672" transform="translate(17.124 0)">
            <path id="path2674" d="M-56.348-92.7A3.656,3.656,0,0,1-60-96.348V-100h7.3v3.652A3.656,3.656,0,0,1-56.348-92.7Zm-1.217-4.869v1.217a1.219,1.219,0,0,0,1.217,1.217,1.219,1.219,0,0,0,1.217-1.217v-1.217Z" transform="translate(60 100)" fill="#fbe8c9"/>
          </g>
          <g id="g2676" transform="translate(0 19.478)">
            <path id="path2678" d="M41.552-17.565H0V-20H41.552Z" transform="translate(0 20)" fill="#fbe8c9"/>
          </g>
          <g id="g2680" transform="translate(0 39.117)">
            <path id="path2682" d="M41.552-17.565H0V-20H41.552Z" transform="translate(0 20)" fill="#fbe8c9"/>
          </g>
          <g id="g2684" transform="translate(7.385 24.347)">
            <path id="path2686" d="M-17.565,12.336H-20V0h2.435Z" transform="translate(20 0)" fill="#fbe8c9"/>
          </g>
          <g id="g2688" transform="translate(12.255 24.347)">
            <path id="path2690" d="M-17.565,12.336H-20V0h2.435Z" transform="translate(20 0)" fill="#fbe8c9"/>
          </g>
          <g id="g2692" transform="translate(17.124 24.347)">
            <path id="path2694" d="M-17.565,12.336H-20V0h2.435Z" transform="translate(20 0)" fill="#fbe8c9"/>
          </g>
          <g id="g2696" transform="translate(21.993 24.347)">
            <path id="path2698" d="M-17.565,12.336H-20V0h2.435Z" transform="translate(20 0)" fill="#fbe8c9"/>
          </g>
          <g id="g2700" transform="translate(26.863 24.347)">
            <path id="path2702" d="M-17.565,12.336H-20V0h2.435Z" transform="translate(20 0)" fill="#fbe8c9"/>
          </g>
          <g id="g2704" transform="translate(31.732 24.347)">
            <path id="path2706" d="M-17.565,12.336H-20V0h2.435Z" transform="translate(20 0)" fill="#fbe8c9"/>
          </g>
        </g>
      </g>
    </g>
  </g>
</svg>
